<?xml version="1.0" encoding="UTF-8"?>
<!-- Generator: visioncortex VTracer 0.6.12 -->
<svg version="1.1" xmlns="http://www.w3.org/2000/svg" width="144" height="112">
<path d="M0 0 C0.08 0.6 0.17 1.2 0.25 1.81 C1.2 4.6 2.57 5.43 5 7 C4.88 8.87 4.88 8.87 4 11 C0.94 12.25 0.94 12.25 -2 13 C2.2 13.96 4.26 14.14 8 12 C8.33 12.16 8.33 12.16 10 13 C10 13.66 10 14.32 10 15 C10.47 14.97 10.47 14.97 12.88 14.81 C13.91 14.87 14.94 14.94 16 15 C18 18 18 18 17.56 20.44 C17.38 21.28 17.19 22.13 17 23 C17.44 25.31 17.44 25.31 18 27 C16.35 27.33 14.7 27.66 13 28 C13 29.32 13 30.64 13 32 C15.38 32.62 15.38 32.62 18 33 C18.33 32.67 18.33 32.67 20 31 C23.84 31.43 27.5 33.45 31 35 C30.79 35.74 30.59 36.48 30.38 37.25 C29.95 40.38 30.52 41.32 32 44 C31.84 44.33 31.84 44.33 31 46 C29.02 46 27.04 46 25 46 C26.13 46.35 27.27 46.7 28.44 47.06 C30.38 47.87 30.38 47.87 32 49 C32.94 52.69 32.94 52.69 33 56 C31.13 57.06 31.13 57.06 29 58 C28.34 57.67 27.68 57.34 27 57 C26.67 58.65 26.34 60.3 26 62 C24.02 61.67 22.04 61.34 20 61 C20.16 61.66 20.16 61.66 21 65 C22.65 64.67 24.3 64.34 26 64 C26.66 65.65 27.32 67.3 28 69 C29.65 68.34 31.3 67.68 33 67 C33 67.66 33 68.32 33 69 C34.91 70.91 37.6 71.82 40 73 C39.84 73.66 39.84 73.66 39 77 C38.34 76.84 38.34 76.84 35 76 C35 76.66 35 77.32 35 78 C33.4 78.17 31.79 78.33 30.19 78.5 C29.29 78.59 28.4 78.69 27.48 78.78 C25 79 25 79 22 79 C23.65 79.66 25.3 80.32 27 81 C27 81.99 27 82.98 27 84 C25.95 84.12 24.9 84.25 23.81 84.38 C20 85 20 85 17.25 86.12 C15 87 15 87 12 86 C7.57 85.23 3.65 84.9 -0.81 85.56 C-4.12 86.02 -5.29 85.84 -8 84 C-8 84.33 -8 84.66 -8 85 C-7.34 85.33 -7.34 85.33 -4 87 C-4 87.66 -4 88.32 -4 89 C-19.65 91.67 -19.65 91.67 -23 90 C-23 89.34 -23 88.68 -23 88 C-23.83 88.25 -24.67 88.5 -25.53 88.76 C-32.98 90.78 -37.99 91.53 -45 88 C-45 87.34 -45 86.68 -45 86 C-44.01 85.67 -43.02 85.34 -42 85 C-46.2 83.63 -48.77 82.87 -53 84 C-55.75 83.06 -55.75 83.06 -58 82 C-58 82.66 -58 83.32 -58 84 C-64.62 85.25 -64.62 85.25 -68 83 C-68 82.34 -68 81.68 -68 81 C-69.09 81.19 -70.19 81.37 -71.31 81.56 C-75 82 -75 82 -78 81 C-78 80.01 -78 79.02 -78 78 C-77.17 77.67 -77.17 77.67 -73 76 C-73 75.34 -73 74.68 -73 74 C-71.02 74 -69.04 74 -67 74 C-67.16 73.67 -67.16 73.67 -68 72 C-68.83 72.16 -68.83 72.16 -73 73 C-75 69.25 -75 69.25 -75 67 C-75.66 67.99 -76.32 68.98 -77 70 C-79.31 69.67 -81.62 69.34 -84 69 C-84.69 66.69 -84.69 66.69 -85 64 C-83.56 62.44 -83.56 62.44 -82 61 C-82 59.68 -82 58.36 -82 57 C-79.03 55.76 -76.15 54.7 -73 54 C-73.33 53.34 -73.66 52.68 -74 52 C-76.06 51.38 -76.06 51.38 -78 51 C-77.91 49.39 -77.8 47.79 -77.69 46.19 C-77.63 45.29 -77.57 44.4 -77.51 43.48 C-76.93 40.66 -76.26 39.73 -74 38 C-72.68 37.63 -71.34 37.29 -70 37 C-69.01 36.34 -68.02 35.68 -67 35 C-60.56 36.44 -60.56 36.44 -59 38 C-59.03 37.62 -59.03 37.62 -59.19 35.69 C-59 33 -59 33 -57.5 31.19 C-57 30.8 -56.51 30.4 -56 30 C-56.8 30.19 -57.61 30.37 -58.44 30.56 C-59.28 30.71 -60.13 30.85 -61 31 C-62 30 -62 30 -62.06 27.44 C-62.04 26.63 -62.02 25.83 -62 25 C-61.01 24.67 -60.02 24.34 -59 24 C-59 22.02 -59 20.04 -59 18 C-56.09 16.74 -54.2 16 -51 16 C-50.69 15.8 -50.69 15.8 -49.12 14.81 C-48.42 14.54 -47.72 14.28 -47 14 C-44.25 15.38 -44.25 15.38 -42 17 C-40.44 15.75 -40.44 15.75 -39 14 C-39.31 11.81 -39.31 11.81 -40 10 C-39.01 9.34 -38.02 8.68 -37 8 C-36.67 7.01 -36.34 6.02 -36 5 C-30.25 4 -30.25 4 -28 4 C-27.01 3.67 -26.02 3.34 -25 3 C-23.29 4.28 -21.63 5.62 -20 7 C-19.01 7.33 -18.02 7.66 -17 8 C-16.67 6.35 -16.34 4.7 -16 3 C-15.34 3 -14.68 3 -14 3 C-13.67 2.01 -13.34 1.02 -13 0 C-12.05 0.02 -11.1 0.04 -10.12 0.06 C-0.55 -0.13 -0.55 -0.13 0 0 Z M-60 40 C-59 42 -59 42 -59 42 Z M-39 81 C-39 81.99 -39 82.98 -39 84 C-38.01 83.67 -37.02 83.34 -36 83 C-36.33 82.34 -36.66 81.68 -37 81 C-37.66 81 -38.32 81 -39 81 Z " fill="#586E6F" transform="translate(95,11)"/>
<path d="M0 0 C0.08 0.6 0.16 1.2 0.25 1.81 C1.2 4.6 2.57 5.43 5 7 C4.88 8.88 4.88 8.88 4 11 C0.94 12.25 0.94 12.25 -2 13 C2.2 13.96 4.26 14.14 8 12 C8.66 12.33 9.32 12.66 10 13 C10 13.66 10 14.32 10 15 C10.95 14.94 11.9 14.88 12.88 14.81 C13.91 14.87 14.94 14.94 16 15 C18 18 18 18 17.56 20.44 C17.38 21.28 17.19 22.13 17 23 C17.44 25.31 17.44 25.31 18 27 C16.35 27.33 14.7 27.66 13 28 C13 29.32 13 30.64 13 32 C15.38 32.62 15.38 32.62 18 33 C18.66 32.34 19.32 31.68 20 31 C23.84 31.43 27.5 33.45 31 35 C30.79 35.74 30.59 36.48 30.38 37.25 C29.95 40.38 30.52 41.32 32 44 C31.84 44.33 31.84 44.33 31 46 C29.02 46 27.04 46 25 46 C26.13 46.35 27.27 46.7 28.44 47.06 C30.38 47.87 30.38 47.87 32 49 C32.94 52.69 32.94 52.69 33 56 C31.13 57.06 31.13 57.06 29 58 C28.34 57.67 27.68 57.34 27 57 C26.67 58.65 26.34 60.3 26 62 C24.02 61.67 22.04 61.34 20 61 C20.16 61.66 20.16 61.66 21 65 C21.83 64.84 21.83 64.84 26 64 C26.66 65.65 27.32 67.3 28 69 C29.65 68.34 31.3 67.68 33 67 C33 67.66 33 68.32 33 69 C34.91 70.91 37.6 71.82 40 73 C39.84 73.66 39.84 73.66 39 77 C38.34 76.84 38.34 76.84 35 76 C35 76.66 35 77.32 35 78 C33.4 78.17 31.79 78.33 30.19 78.5 C29.29 78.59 28.4 78.69 27.48 78.78 C25 79 25 79 22 79 C23.65 79.66 25.3 80.32 27 81 C27 81.99 27 82.98 27 84 C25.95 84.12 24.9 84.25 23.81 84.38 C20 85 20 85 17.25 86.12 C15 87 15 87 12 86 C6.44 85.03 1.54 84.94 -4 86 C-4.33 85.34 -4.66 84.68 -5 84 C-3.68 84.33 -2.36 84.66 -1 85 C-0.67 83.35 -0.34 81.7 0 80 C0.66 80 1.32 80 2 80 C2 79.34 2 78.68 2 78 C4.31 77.67 6.62 77.34 9 77 C9.16 76.5 9.16 76.5 10 74 C10.33 73.67 10.66 73.34 11 73 C11.99 70.39 12.16 69.37 11.06 66.75 C10.71 66.17 10.36 65.59 10 65 C10.99 65.33 11.98 65.66 13 66 C13.33 64.35 13.66 62.7 14 61 C14.83 60.84 14.83 60.84 19 60 C19 58.02 19 56.04 19 54 C19.99 54 20.98 54 22 54 C21.67 53.34 21.34 52.68 21 52 C19.7 52.12 18.4 52.25 17.06 52.38 C16.33 52.44 15.6 52.51 14.85 52.59 C14.54 52.65 14.54 52.65 13 53 C12.84 53.33 12.84 53.33 12 55 C9.69 55.88 9.69 55.88 7 56 C3.27 53.33 2.18 50.34 1 46 C-1.49 47.2 -3.68 48.45 -6 50 C-6.66 47.36 -7.32 44.72 -8 42 C-9.98 42.66 -11.96 43.32 -14 44 C-14 43.01 -14 42.02 -14 41 C-13.34 40.84 -13.34 40.84 -10 40 C-10 39.34 -10 38.68 -10 38 C-10.99 38 -11.98 38 -13 38 C-13 36.68 -13 35.36 -13 34 C-11.35 34 -9.7 34 -8 34 C-8 33.01 -8 32.02 -8 31 C-7.34 31 -6.68 31 -6 31 C-6 31.66 -6 32.32 -6 33 C-5.01 33 -4.02 33 -3 33 C-3 31.02 -3 29.04 -3 27 C-2.01 27.33 -1.02 27.66 0 28 C-1.75 24.12 -1.75 24.12 -4 23 C-4 23.66 -4 24.32 -4 25 C-4.66 24.67 -5.32 24.34 -6 24 C-5.84 23.51 -5.84 23.51 -5 21 C-5.66 21 -6.32 21 -7 21 C-7 22.65 -7 24.3 -7 26 C-8.65 26 -10.3 26 -12 26 C-11.67 24.35 -11.34 22.7 -11 21 C-14.3 22.32 -17.6 23.64 -21 25 C-20 22 -20 22 -17.94 20.81 C-17.3 20.54 -16.66 20.28 -16 20 C-16 19.34 -16 18.68 -16 18 C-17.98 17.67 -19.96 17.34 -22 17 C-21.34 16.67 -20.68 16.34 -20 16 C-19.59 13.68 -19.26 11.34 -19 9 C-20.65 9 -22.3 9 -24 9 C-23.5 9.45 -23.01 9.91 -22.5 10.38 C-21 12 -21 12 -21 14 C-21.66 14 -22.32 14 -23 14 C-23 14.66 -23 15.32 -23 16 C-24.09 15.81 -25.19 15.63 -26.31 15.44 C-30 15 -30 15 -33 16 C-35 16.04 -37 16.04 -39 16 C-39.33 14.02 -39.66 12.04 -40 10 C-39.01 9.34 -38.02 8.68 -37 8 C-36.67 7.01 -36.34 6.02 -36 5 C-30.25 4 -30.25 4 -28 4 C-27.01 3.67 -26.02 3.34 -25 3 C-23.29 4.28 -21.63 5.62 -20 7 C-19.01 7.33 -18.02 7.66 -17 8 C-16.67 6.35 -16.34 4.7 -16 3 C-15.34 3 -14.68 3 -14 3 C-13.67 2.01 -13.34 1.02 -13 0 C-12.05 0.02 -11.1 0.04 -10.12 0.06 C-0.55 -0.13 -0.55 -0.13 0 0 Z " fill="#898964" transform="translate(95,11)"/>
<path d="M0 0 C0.99 0 1.98 0 3 0 C3.66 0.99 4.32 1.98 5 3 C5.33 2.67 5.66 2.34 6 2 C8.03 2 10.06 2 12.09 2.06 C14 2 14 2 16 1 C16 1.99 16 2.98 16 4 C16.99 4.33 17.98 4.66 19 5 C19 5.99 19 6.98 19 8 C19.66 8 20.32 8 21 8 C21 7.34 21 6.68 21 6 C22.65 6 24.3 6 26 6 C26.16 6.33 26.16 6.33 27 8 C28.65 7.34 30.3 6.68 32 6 C32.99 8.64 33.98 11.28 35 14 C36.32 12.68 37.64 11.36 39 10 C40.88 10.62 40.88 10.62 43 12 C43.67 14 44.33 16 45 18 C47.59 19.84 48.78 20 52 20 C52.16 19.5 52.16 19.5 53 17 C54.32 16.84 54.32 16.84 61 16 C61.16 16.49 61.16 16.49 62 19 C61.01 19 60.02 19 59 19 C59 20.98 59 22.96 59 25 C58.2 25.25 57.39 25.5 56.56 25.75 C55.72 26.16 54.87 26.58 54 27 C53.31 29.06 53.31 29.06 53 31 C52.34 31.33 51.68 31.66 51 32 C51.66 32.66 52.32 33.32 53 34 C53 38 53 38 52 40 C51.34 40 50.68 40 50 40 C49.84 40.33 49.84 40.33 49 42 C46.68 42.41 44.34 42.74 42 43 C42 43.66 42 44.32 42 45 C41.34 45 40.68 45 40 45 C39.67 46.65 39.34 48.3 39 50 C37.68 49.34 36.36 48.68 35 48 C35 47.67 35 47.34 35 47 C34.01 47 33.02 47 32 47 C32 46.34 32 45.68 32 45 C30.35 45 28.7 45 27 45 C27.66 44.84 27.66 44.84 31 44 C31 43.34 31 42.68 31 42 C24.36 42.63 24.36 42.63 22.5 44.56 C21 46 21 46 17.31 46.19 C16.77 46.16 16.77 46.16 14 46 C14 43.03 14 40.06 14 37 C12.35 37 10.7 37 9 37 C8.34 35.68 7.68 34.36 7 33 C6.67 35.31 6.34 37.62 6 40 C5.79 39.36 5.59 38.72 5.38 38.06 C4 36 4 36 0.88 35.25 C-0.07 35.17 -1.02 35.09 -2 35 C-2 35.66 -2 36.32 -2 37 C-6.75 38.12 -6.75 38.12 -9 37 C-9.39 36.03 -9.78 35.06 -10.19 34.06 C-12 31 -12 31 -15.69 29.62 C-16.23 29.52 -16.23 29.52 -19 29 C-19.66 29.66 -20.32 30.32 -21 31 C-22.12 27.25 -22.12 27.25 -21 25 C-22.32 24.67 -23.64 24.34 -25 24 C-24.67 22.68 -24.34 21.36 -24 20 C-21.03 19.34 -18.06 18.68 -15 18 C-14.34 18.99 -13.68 19.98 -13 21 C-12.34 20.01 -11.68 19.02 -11 18 C-10.34 18 -9.68 18 -9 18 C-8.67 18.66 -8.34 19.32 -8 20 C-5.94 20.62 -5.94 20.62 -4 21 C-4.33 21.99 -4.66 22.98 -5 24 C-6.65 23.34 -8.3 22.68 -10 22 C-9.81 22.62 -9.63 23.24 -9.44 23.88 C-9 26 -9 26 -10 28 C-9.34 28 -8.68 28 -8 28 C-7.67 27.01 -7.34 26.02 -7 25 C-5.68 24.34 -4.36 23.68 -3 23 C-3 19.7 -3 16.4 -3 13 C-5.64 13 -8.28 13 -11 13 C-11 11.35 -11 9.7 -11 8 C-9.68 8 -8.36 8 -7 8 C-7 6.68 -7 5.36 -7 4 C-5.02 3.67 -3.04 3.34 -1 3 C-0.67 2.01 -0.34 1.02 0 0 Z " fill="#4D5440" transform="translate(55,46)"/>
<path d="M0 0 C1.65 0 3.3 0 5 0 C4.67 2.31 4.34 4.62 4 7 C4.83 7.33 4.83 7.33 9 9 C7.87 12.4 6.87 13.05 4 15 C4.93 14.51 5.86 14.01 6.81 13.5 C10 12 10 12 13 12 C13 13.32 13 14.64 13 16 C14.32 16.33 15.64 16.66 17 17 C17 15.35 17 13.7 17 12 C17.66 12 18.32 12 19 12 C19.16 12.66 19.16 12.66 20 16 C20 15.34 20 14.68 20 14 C20.99 14.33 21.98 14.66 23 15 C23.69 17.06 23.69 17.06 24 19 C23.34 19 22.68 19 22 19 C21.84 19.83 21.84 19.83 21 24 C20.01 24 19.02 24 18 24 C18 23.34 18 22.68 18 22 C17.34 22 16.68 22 16 22 C16 22.99 16 23.98 16 25 C14.35 25 12.7 25 11 25 C11 26.32 11 27.64 11 29 C11.99 29 12.98 29 14 29 C14 29.66 14 30.32 14 31 C11.04 32.48 8.26 32.06 5 32 C5 32.66 5 33.32 5 34 C4.34 34 3.68 34 3 34 C2.67 33.01 2.34 32.02 2 31 C0.69 29.25 0.69 29.25 -1 28 C-2.88 28.31 -2.88 28.31 -5 29 C-6.67 29 -8.33 29 -10 29 C-10.66 29.33 -11.32 29.66 -12 30 C-12.33 28.68 -12.66 27.36 -13 26 C-13.99 26 -14.98 26 -16 26 C-16.33 27.32 -16.66 28.64 -17 30 C-18.98 30 -20.96 30 -23 30 C-23 31.32 -23 32.64 -23 34 C-23.5 34.16 -23.5 34.16 -26 35 C-26 35.99 -26 36.98 -26 38 C-25.43 38.06 -25.43 38.06 -22.56 38.38 C-21.39 38.58 -20.21 38.79 -19 39 C-17.41 42.19 -17.34 45.55 -18 49 C-20.44 50.88 -20.44 50.88 -23 52 C-23.33 52.66 -23.66 53.32 -24 54 C-24.66 54 -25.32 54 -26 54 C-26.33 51.69 -26.66 49.38 -27 47 C-25.02 47.66 -23.04 48.32 -21 49 C-20.67 48.34 -20.34 47.68 -20 47 C-21.65 46.67 -23.3 46.34 -25 46 C-25 45.34 -25 44.68 -25 44 C-25.66 44 -26.32 44 -27 44 C-27.66 45.32 -28.32 46.64 -29 48 C-29.66 46.68 -30.32 45.36 -31 44 C-33.31 44 -35.62 44 -38 44 C-39.47 40.19 -38.43 37.71 -37 34 C-36.01 34 -35.02 34 -34 34 C-34 33.34 -34 32.68 -34 32 C-33.03 31.88 -32.06 31.75 -31.06 31.62 C-30.05 31.42 -29.04 31.21 -28 31 C-27.67 30.34 -27.34 29.68 -27 29 C-27.58 29.19 -28.16 29.37 -28.75 29.56 C-31.21 30.04 -32.64 29.76 -35 29 C-35.37 24.45 -35.37 24.45 -33.5 22.19 C-33.01 21.8 -32.51 21.4 -32 21 C-32.8 21.19 -33.61 21.37 -34.44 21.56 C-35.28 21.71 -36.13 21.85 -37 22 C-38 21 -38 21 -38.06 18.44 C-38.04 17.63 -38.02 16.83 -38 16 C-37.01 15.67 -36.02 15.34 -35 15 C-35 13.02 -35 11.04 -35 9 C-32.09 7.74 -30.2 7 -27 7 C-26.69 6.8 -26.69 6.8 -25.12 5.81 C-24.42 5.54 -23.72 5.28 -23 5 C-20.25 6.38 -20.25 6.38 -18 8 C-17.67 7.67 -17.34 7.34 -17 7 C-14.33 6.86 -11.68 6.96 -9 7 C-8.67 6.34 -8.34 5.68 -8 5 C-6.52 5.33 -6.52 5.33 1 7 C1 6.34 1 5.68 1 5 C1.66 5 2.32 5 3 5 C3 4.34 3 3.68 3 3 C2.01 2.67 1.02 2.34 0 2 C0 1.34 0 0.68 0 0 Z " fill="#888653" transform="translate(71,20)"/>
<path d="M0 0 C0.08 0.6 0.16 1.2 0.25 1.81 C1.2 4.6 2.57 5.43 5 7 C4.88 8.88 4.88 8.88 4 11 C0.94 12.25 0.94 12.25 -2 13 C2.2 13.96 4.26 14.14 8 12 C8.66 12.33 9.32 12.66 10 13 C10 13.66 10 14.32 10 15 C10.95 14.94 11.9 14.88 12.88 14.81 C13.91 14.87 14.94 14.94 16 15 C18 18 18 18 17.56 20.44 C17.38 21.28 17.19 22.13 17 23 C17.44 25.31 17.44 25.31 18 27 C16.35 27.33 14.7 27.66 13 28 C12.67 29.65 12.34 31.3 12 33 C10.02 33 8.04 33 6 33 C6 32.01 6 31.02 6 30 C7.32 30 8.64 30 10 30 C9.34 29.24 8.68 28.47 8 27.69 C6 25 6 25 6 22 C5.34 22 4.68 22 4 22 C4.35 22.6 4.7 23.2 5.06 23.81 C6 26 6 26 5 29 C5 28.34 5 27.68 5 27 C4.34 27 3.68 27 3 27 C1.64 33.42 1.64 33.42 3.44 36.31 C3.95 36.87 4.47 37.43 5 38 C5 38.66 5 39.32 5 40 C5.66 40 6.32 40 7 40 C7 40.66 7 41.32 7 42 C6.01 42.33 5.02 42.66 4 43 C3.67 43.99 3.34 44.98 3 46 C3.66 46 4.32 46 5 46 C7.54 49.42 8.36 51.76 8 56 C3.79 53.12 2.24 50.96 1 46 C-1.49 47.2 -3.68 48.45 -6 50 C-6.66 47.36 -7.32 44.72 -8 42 C-9.98 42.66 -11.96 43.32 -14 44 C-14 43.01 -14 42.02 -14 41 C-13.34 40.84 -13.34 40.84 -10 40 C-10 39.34 -10 38.68 -10 38 C-10.99 38 -11.98 38 -13 38 C-13 36.68 -13 35.36 -13 34 C-11.35 34 -9.7 34 -8 34 C-8 33.01 -8 32.02 -8 31 C-7.34 31 -6.68 31 -6 31 C-6 31.66 -6 32.32 -6 33 C-5.01 33 -4.02 33 -3 33 C-3 31.02 -3 29.04 -3 27 C-2.01 27.33 -1.02 27.66 0 28 C-1.75 24.12 -1.75 24.12 -4 23 C-4 23.66 -4 24.32 -4 25 C-4.66 24.67 -5.32 24.34 -6 24 C-5.84 23.51 -5.84 23.51 -5 21 C-5.66 21 -6.32 21 -7 21 C-7 22.65 -7 24.3 -7 26 C-8.65 26 -10.3 26 -12 26 C-11.67 24.35 -11.34 22.7 -11 21 C-14.3 22.32 -17.6 23.64 -21 25 C-20 22 -20 22 -17.94 20.81 C-17.3 20.54 -16.66 20.28 -16 20 C-16 19.34 -16 18.68 -16 18 C-17.98 17.67 -19.96 17.34 -22 17 C-21.34 16.67 -20.68 16.34 -20 16 C-19.59 13.68 -19.26 11.34 -19 9 C-20.65 9 -22.3 9 -24 9 C-23.5 9.45 -23.01 9.91 -22.5 10.38 C-21 12 -21 12 -21 14 C-21.66 14 -22.32 14 -23 14 C-23 14.66 -23 15.32 -23 16 C-24.09 15.81 -25.19 15.63 -26.31 15.44 C-30 15 -30 15 -33 16 C-35 16.04 -37 16.04 -39 16 C-39.33 14.02 -39.66 12.04 -40 10 C-39.01 9.34 -38.02 8.68 -37 8 C-36.67 7.01 -36.34 6.02 -36 5 C-30.25 4 -30.25 4 -28 4 C-27.01 3.67 -26.02 3.34 -25 3 C-23.29 4.28 -21.63 5.62 -20 7 C-19.01 7.33 -18.02 7.66 -17 8 C-16.67 6.35 -16.34 4.7 -16 3 C-15.34 3 -14.68 3 -14 3 C-13.67 2.01 -13.34 1.02 -13 0 C-12.05 0.02 -11.1 0.04 -10.12 0.06 C-0.55 -0.13 -0.55 -0.13 0 0 Z " fill="#B7AB68" transform="translate(95,11)"/>
<path d="M0 0 C0.99 0 1.98 0 3 0 C3.66 0.99 4.32 1.98 5 3 C5.33 2.67 5.66 2.34 6 2 C8.03 2 10.06 2 12.09 2.06 C14 2 14 2 16 1 C16 1.99 16 2.98 16 4 C16.99 4.33 17.98 4.66 19 5 C19 5.99 19 6.98 19 8 C19.66 8 20.32 8 21 8 C21 7.34 21 6.68 21 6 C22.65 6 24.3 6 26 6 C26.16 6.33 26.16 6.33 27 8 C28.65 7.34 30.3 6.68 32 6 C33 7 33 7 33.1 9.29 C33.09 10.2 33.07 11.12 33.06 12.06 C33.05 12.98 33.04 13.9 33.04 14.85 C33.02 15.56 33.01 16.27 33 17 C26.85 16.41 26.85 16.41 25 16 C24.84 15.67 24.84 15.67 24 14 C21.94 13.38 21.94 13.38 20 13 C20 13.66 20 14.32 20 15 C18.68 15 17.36 15 16 15 C16.16 15.99 16.16 15.99 17 21 C13.38 24 13.38 24 10 24 C10.33 22.68 10.66 21.36 11 20 C12.32 20.33 13.64 20.66 15 21 C15 20.34 15 19.68 15 19 C13.02 19 11.04 19 9 19 C9 18.34 9 17.68 9 17 C8.09 16.73 7.19 16.46 6.25 16.19 C3.29 15.1 1.38 14.02 -1 12 C-0.4 14.02 0.27 16.02 1 18 C1.66 18.33 2.32 18.66 3 19 C3 19.66 3 20.32 3 21 C3.99 21 4.98 21 6 21 C6.33 22.32 6.66 23.64 7 25 C7.78 25.14 8.57 25.29 9.38 25.44 C12 26 12 26 14 27 C14.16 27.5 14.16 27.5 15 30 C17.06 31.19 17.06 31.19 19 32 C18.34 32.16 18.34 32.16 15 33 C15 34.65 15 36.3 15 38 C12.13 37.75 12.13 37.75 9 37 C7.62 34.94 7.62 34.94 7 33 C6.67 35.31 6.34 37.62 6 40 C5.79 39.36 5.59 38.72 5.38 38.06 C4 36 4 36 0.88 35.25 C-0.07 35.17 -1.02 35.09 -2 35 C-2 35.66 -2 36.32 -2 37 C-6.75 38.12 -6.75 38.12 -9 37 C-9.39 36.03 -9.78 35.06 -10.19 34.06 C-12 31 -12 31 -15.69 29.62 C-16.23 29.52 -16.23 29.52 -19 29 C-19.66 29.66 -20.32 30.32 -21 31 C-22.12 27.25 -22.12 27.25 -21 25 C-22.32 24.67 -23.64 24.34 -25 24 C-24.67 22.68 -24.34 21.36 -24 20 C-21.03 19.34 -18.06 18.68 -15 18 C-14.34 18.99 -13.68 19.98 -13 21 C-12.34 20.01 -11.68 19.02 -11 18 C-10.34 18 -9.68 18 -9 18 C-8.67 18.66 -8.34 19.32 -8 20 C-5.94 20.62 -5.94 20.62 -4 21 C-4.33 21.99 -4.66 22.98 -5 24 C-6.65 23.34 -8.3 22.68 -10 22 C-9.81 22.62 -9.63 23.24 -9.44 23.88 C-9 26 -9 26 -10 28 C-9.34 28 -8.68 28 -8 28 C-7.67 27.01 -7.34 26.02 -7 25 C-5.68 24.34 -4.36 23.68 -3 23 C-3 19.7 -3 16.4 -3 13 C-5.64 13 -8.28 13 -11 13 C-11 11.35 -11 9.7 -11 8 C-9.68 8 -8.36 8 -7 8 C-7 6.68 -7 5.36 -7 4 C-5.02 3.67 -3.04 3.34 -1 3 C-0.67 2.01 -0.34 1.02 0 0 Z " fill="#4F5C48" transform="translate(55,46)"/>
<path d="M0 0 C0.66 0 1.32 0 2 0 C2.98 1.76 3.95 3.52 4.93 5.27 C6 7 6 7 8 9 C7.01 8.84 7.01 8.84 2 8 C2.33 8.5 2.33 8.5 4 11 C4.63 10.93 5.25 10.86 5.9 10.78 C6.72 10.69 7.53 10.6 8.38 10.5 C9.19 10.41 10 10.31 10.84 10.22 C13 10 13 10 15 10 C15.66 9.79 16.32 9.59 17 9.38 C17.66 9.25 18.32 9.13 19 9 C19.66 9.66 20.32 10.32 21 11 C22.98 11.71 24.98 12.39 27 13 C26.9 13.37 26.9 13.37 26.38 15.25 C25.95 18.38 26.52 19.32 28 22 C27.67 22.66 27.34 23.32 27 24 C24.69 24 22.38 24 20 24 C19.88 24.62 19.75 25.24 19.62 25.88 C19 28 19 28 17 30 C15.09 30.34 15.09 30.34 12.94 30.5 C12.29 30.58 12.29 30.58 9 31 C8.67 31.66 8.34 32.32 8 33 C5.94 33.62 5.94 33.62 4 34 C2.87 30.69 1.79 27.41 1 24 C0.34 24 -0.32 24 -1 24 C-0.67 22.68 -0.34 21.36 0 20 C0.99 20 1.98 20 3 20 C3 19.34 3 18.68 3 18 C2.34 18 1.68 18 1 18 C-3.07 13 -3.07 13 -2.81 9.25 C-1.34 5.17 -1.34 5.17 1 4 C0.67 2.68 0.34 1.36 0 0 Z " fill="#898451" transform="translate(99,33)"/>
<path d="M0 0 C2 0.31 2 0.31 4 1 C4.33 1.66 4.66 2.32 5 3 C4.67 3.99 4.34 4.98 4 6 C4.66 6.33 5.32 6.66 6 7 C6.33 7.99 6.66 8.98 7 10 C7.61 9.97 8.23 9.93 8.86 9.89 C9.27 9.88 9.27 9.88 11.31 9.81 C11.71 9.8 11.71 9.8 13.74 9.71 C16.48 10.06 17.29 10.89 19 13 C18.67 13.66 18.34 14.32 18 15 C14.61 15.94 11.49 16 8 16 C7.34 16.33 6.68 16.66 6 17 C5.67 15.68 5.34 14.36 5 13 C4.01 13 3.02 13 2 13 C1.67 14.32 1.34 15.64 1 17 C-0.98 17 -2.96 17 -5 17 C-5 18.32 -5 19.64 -5 21 C-5.99 21.33 -6.98 21.66 -8 22 C-8 22.99 -8 23.98 -8 25 C-6.87 25.12 -5.73 25.25 -4.56 25.38 C-3.97 25.48 -3.97 25.48 -1 26 C0.59 29.19 0.66 32.55 0 36 C-2.44 37.88 -2.44 37.88 -5 39 C-5.33 39.66 -5.66 40.32 -6 41 C-6.66 41 -7.32 41 -8 41 C-8.33 38.69 -8.66 36.38 -9 34 C-7.02 34.66 -5.04 35.32 -3 36 C-2.67 35.34 -2.34 34.68 -2 34 C-3.65 33.67 -5.3 33.34 -7 33 C-7 32.34 -7 31.68 -7 31 C-7.66 31 -8.32 31 -9 31 C-9.66 32.32 -10.32 33.64 -11 35 C-11.66 33.68 -12.32 32.36 -13 31 C-15.31 31 -17.62 31 -20 31 C-21.47 27.19 -20.43 24.71 -19 21 C-18.01 21 -17.02 21 -16 21 C-16 20.34 -16 19.68 -16 19 C-15.03 18.88 -14.06 18.75 -13.06 18.62 C-12.05 18.42 -11.04 18.21 -10 18 C-9.67 17.34 -9.34 16.68 -9 16 C-9.6 16.19 -10.2 16.37 -10.81 16.56 C-13 17 -13 17 -16 16 C-16 14.68 -16 13.36 -16 12 C-15.34 11.99 -14.67 11.97 -13.99 11.96 C-6.66 11.56 -6.66 11.56 -3 8.44 C-2.34 7.63 -1.68 6.83 -1 6 C-0.34 6 0.32 6 1 6 C1 4.68 1 3.36 1 2 C0.34 1.67 -0.32 1.34 -1 1 C-0.67 0.67 -0.34 0.34 0 0 Z " fill="#666B49" transform="translate(53,33)"/>
<path d="M0 0 C1.88 0.62 1.88 0.62 4 2 C4.67 4 5.33 6 6 8 C8.59 9.84 9.78 10 13 10 C13.33 9.01 13.66 8.02 14 7 C16.64 6.67 19.28 6.34 22 6 C22.16 6.49 22.16 6.49 23 9 C22.01 9 21.02 9 20 9 C20 10.98 20 12.96 20 15 C19.2 15.25 18.39 15.5 17.56 15.75 C16.72 16.16 15.87 16.58 15 17 C14.31 19.06 14.31 19.06 14 21 C13.34 21.33 12.68 21.66 12 22 C12.66 22.66 13.32 23.32 14 24 C10.87 27.13 7.57 28.9 3.12 29.19 C2.77 29.16 2.77 29.16 1 29 C1 28.01 1 27.02 1 26 C1.66 26 2.32 26 3 26 C3.09 22.17 2.88 18.73 2 15 C0.06 15.38 0.06 15.38 -2 16 C-2.33 16.66 -2.66 17.32 -3 18 C-3.66 18 -4.32 18 -5 18 C-5.33 17.34 -5.66 16.68 -6 16 C-8.56 15.38 -8.56 15.38 -11 15 C-11 14.01 -11 13.02 -11 12 C-12.65 12 -14.3 12 -16 12 C-15.43 9.13 -15.14 8.14 -13 6 C-9.37 6.38 -9.37 6.38 -6 7 C-6 5.02 -6 3.04 -6 1 C-5.34 1.99 -4.68 2.98 -4 4 C-2.68 2.68 -1.36 1.36 0 0 Z " fill="#686F50" transform="translate(94,56)"/>
<path d="M0 0 C1.48 0.25 2.96 0.53 4.44 0.81 C4.85 0.89 4.85 0.89 6.93 1.27 C7.62 1.51 8.3 1.75 9 2 C9.33 2.99 9.66 3.98 10 5 C10.66 5 11.32 5 12 5 C12.33 4.01 12.66 3.02 13 2 C14.32 2 15.64 2 17 2 C19.04 6.07 19.03 8.59 18 13 C17.34 13 16.68 13 16 13 C16 13.99 16 14.98 16 16 C19.72 14.79 23.38 13.49 27 12 C27.66 13.65 28.32 15.3 29 17 C28.01 17 27.02 17 26 17 C25.67 17.66 25.34 18.32 25 19 C22.68 19.41 20.34 19.74 18 20 C18 20.66 18 21.32 18 22 C17.34 22 16.68 22 16 22 C15.67 23.65 15.34 25.3 15 27 C13.68 26.34 12.36 25.68 11 25 C11 24.67 11 24.34 11 24 C10.01 24 9.02 24 8 24 C8 23.34 8 22.68 8 22 C6.35 22 4.7 22 3 22 C4.32 21.67 5.64 21.34 7 21 C7 20.34 7 19.68 7 19 C5.02 19 3.04 19 1 19 C1.66 18.67 2.32 18.34 3 18 C3 17.34 3 16.68 3 16 C2.01 15.67 1.02 15.34 0 15 C0 14.34 0 13.68 0 13 C-0.66 12.34 -1.32 11.68 -2 11 C-0.68 11 0.64 11 2 11 C2 8.69 2 6.38 2 4 C1.34 4 0.68 4 0 4 C0 2.68 0 1.36 0 0 Z " fill="#4A513C" transform="translate(79,69)"/>
<path d="M0 0 C6.18 0.34 6.18 0.34 8.94 2.56 C9.29 3.04 9.64 3.51 10 4 C10.99 3.34 11.98 2.68 13 2 C13 2.66 13 3.32 13 4 C14.32 3.67 15.64 3.34 17 3 C16.67 3.99 16.34 4.98 16 6 C14.02 6 12.04 6 10 6 C10 6.66 10 7.32 10 8 C9.01 8 8.02 8 7 8 C6.67 10.97 6.34 13.94 6 17 C7.32 17 8.64 17 10 17 C9.67 17.99 9.34 18.98 9 20 C7.25 20.36 5.5 20.72 3.75 21.06 C3.26 21.16 3.26 21.16 0.8 21.66 C-1.87 21.98 -3.49 21.86 -6 21 C-6 21.99 -6 22.98 -6 24 C-6.99 24 -7.98 24 -9 24 C-9 23.34 -9 22.68 -9 22 C-10.32 21.67 -11.64 21.34 -13 21 C-10.36 20.34 -7.72 19.68 -5 19 C-5.33 18.34 -5.66 17.68 -6 17 C-8.06 16.38 -8.06 16.38 -10 16 C-9.91 14.39 -9.8 12.79 -9.69 11.19 C-9.63 10.29 -9.57 9.4 -9.51 8.48 C-8.93 5.66 -8.26 4.72 -6 3 C-4.67 2.64 -3.34 2.3 -2 2 C-1.34 1.34 -0.68 0.68 0 0 Z M8 5 C9 7 9 7 9 7 Z " fill="#818B7D" transform="translate(27,46)"/>
<path d="M0 0 C0.99 0.66 1.98 1.32 3 2 C3 2.99 3 3.98 3 5 C4.65 5 6.3 5 8 5 C9.12 11.75 9.12 11.75 8 14 C14.64 13.37 14.64 13.37 16.5 11.44 C18 10 18 10 21.69 9.81 C22.78 9.87 23.87 9.94 25 10 C25.16 10.83 25.16 10.83 26 15 C27.32 14.67 28.64 14.34 30 14 C30.16 14.33 30.16 14.33 31 16 C27.27 16.88 23.83 17.09 20 17 C20 18.65 20 20.3 20 22 C18.35 21.34 16.7 20.68 15 20 C14.34 20.66 13.68 21.32 13 22 C13 21.34 13 20.68 13 20 C11.35 20.16 11.35 20.16 3 21 C2.34 19.68 1.68 18.36 1 17 C1.66 17 2.32 17 3 17 C1.74 14.49 0.5 14.13 -2 13 C-1.67 12.01 -1.34 11.02 -1 10 C-1.66 10 -2.32 10 -3 10 C-3 10.66 -3 11.32 -3 12 C-3.66 11.67 -4.32 11.34 -5 11 C-5 10.01 -5 9.02 -5 8 C-7.31 7.67 -9.62 7.34 -12 7 C-10.68 6.34 -9.36 5.68 -8 5 C-8 4.34 -8 3.68 -8 3 C-5.06 3.38 -5.06 3.38 -2 4 C-1.67 4.66 -1.34 5.32 -1 6 C-0.67 4.02 -0.34 2.04 0 0 Z " fill="#6F755E" transform="translate(61,78)"/>
<path d="M0 0 C0.93 0.5 1.86 0.99 2.81 1.5 C6 3 6 3 9 3 C8.48 3.7 7.97 4.4 7.44 5.12 C5.7 8.61 6.05 10.3 7 14 C6.69 14.04 6.69 14.04 5.12 14.25 C3 15 3 15 1.81 17 C1.54 17.66 1.28 18.32 1 19 C0 20 0 20 -2.29 20.1 C-2.74 20.09 -2.74 20.09 -5.06 20.06 C-5.98 20.05 -6.9 20.04 -7.85 20.04 C-8.56 20.02 -9.27 20.01 -10 20 C-10.33 21.32 -10.66 22.64 -11 24 C-11.37 19.45 -11.37 19.45 -9.5 17.19 C-9.01 16.8 -8.51 16.4 -8 16 C-8.8 16.19 -9.61 16.37 -10.44 16.56 C-11.28 16.71 -12.13 16.85 -13 17 C-14 16 -14 16 -14.06 13.44 C-14.04 12.63 -14.02 11.83 -14 11 C-13.01 10.67 -12.02 10.34 -11 10 C-11 8.02 -11 6.04 -11 4 C-8.09 2.74 -6.2 2 -3 2 C-2.01 1.34 -1.02 0.68 0 0 Z " fill="#A5A691" transform="translate(47,25)"/>
<path d="M0 0 C0.33 0.66 0.66 1.32 1 2 C2.65 1.67 4.3 1.34 6 1 C6.66 2.65 7.32 4.3 8 6 C9.65 5.34 11.3 4.68 13 4 C13 4.66 13 5.32 13 6 C14.91 7.91 17.6 8.82 20 10 C19.67 11.32 19.34 12.64 19 14 C17.68 13.67 16.36 13.34 15 13 C15 13.66 15 14.32 15 15 C13.4 15.17 11.79 15.33 10.19 15.5 C9.29 15.59 8.4 15.69 7.48 15.78 C5 16 5 16 2 16 C3.65 16.66 5.3 17.32 7 18 C7 18.99 7 19.98 7 21 C5.95 21.12 4.9 21.25 3.81 21.38 C0 22 0 22 -2.75 23.12 C-5 24 -5 24 -8 23 C-9.18 22.86 -10.35 22.71 -11.56 22.56 C-15 22 -15 22 -17 20 C-15.91 20.19 -14.81 20.37 -13.69 20.56 C-10 21 -10 21 -7 20 C-5.81 16.94 -5.81 16.94 -5 14 C-3.68 14 -2.36 14 -1 14 C-0.67 13.01 -0.34 12.02 0 11 C0.99 11 1.98 11 3 11 C2.34 10.01 1.68 9.02 1 8 C1.38 5.81 1.38 5.81 2 4 C1.01 4 0.02 4 -1 4 C-0.67 2.68 -0.34 1.36 0 0 Z " fill="#BDB898" transform="translate(115,74)"/>
<path d="M0 0 C1.65 0 3.3 0 5 0 C5.33 0.66 5.66 1.32 6 2 C7.65 1.34 9.3 0.68 11 0 C12 1 12 1 12.1 3.29 C12.09 4.2 12.07 5.12 12.06 6.06 C12.05 6.98 12.04 7.9 12.04 8.85 C12.02 9.56 12.01 10.27 12 11 C5.85 10.41 5.85 10.41 4 10 C3.67 9.34 3.34 8.68 3 8 C0.94 7.38 0.94 7.38 -1 7 C-1 7.66 -1 8.32 -1 9 C-2.32 9 -3.64 9 -5 9 C-4.67 10.98 -4.34 12.96 -4 15 C-7.62 18 -7.62 18 -11 18 C-10.67 16.68 -10.34 15.36 -10 14 C-8.68 14.33 -7.36 14.66 -6 15 C-6 14.34 -6 13.68 -6 13 C-7.98 13 -9.96 13 -12 13 C-12 12.34 -12 11.68 -12 11 C-12.97 10.73 -13.94 10.46 -14.94 10.19 C-15.95 9.8 -16.96 9.4 -18 9 C-19 6 -19 6 -18.06 3.81 C-17.89 3.51 -17.89 3.51 -17 2 C-16.28 2.08 -15.55 2.17 -14.8 2.25 C-9.67 2.8 -5.09 3.24 0 2 C0 1.34 0 0.68 0 0 Z " fill="#565B3D" transform="translate(76,52)"/>
<path d="M0 0 C0.99 0.99 1.98 1.98 3 3 C2.67 3.99 2.34 4.98 2 6 C2 5.34 2 4.68 2 4 C1.34 4 0.68 4 0 4 C-1.36 10.42 -1.36 10.42 0.44 13.31 C0.95 13.87 1.47 14.43 2 15 C2 15.66 2 16.32 2 17 C2.66 17 3.32 17 4 17 C4 17.66 4 18.32 4 19 C3.01 19.33 2.02 19.66 1 20 C0.67 20.99 0.34 21.98 0 23 C0.66 23 1.32 23 2 23 C4.54 26.42 5.36 28.76 5 33 C0.79 30.12 -0.76 27.96 -2 23 C-4.49 24.2 -6.68 25.45 -9 27 C-9.66 24.36 -10.32 21.72 -11 19 C-12.98 19.66 -14.96 20.32 -17 21 C-17 20.01 -17 19.02 -17 18 C-15.68 17.67 -14.36 17.34 -13 17 C-13 16.34 -13 15.68 -13 15 C-13.99 15 -14.98 15 -16 15 C-16 13.68 -16 12.36 -16 11 C-14.35 11 -12.7 11 -11 11 C-11 10.01 -11 9.02 -11 8 C-10.34 8 -9.68 8 -9 8 C-9 8.66 -9 9.32 -9 10 C-8.01 10 -7.02 10 -6 10 C-6 8.02 -6 6.04 -6 4 C-5.01 4.33 -4.02 4.66 -3 5 C-2.67 4.34 -2.34 3.68 -2 3 C-1.34 2.01 -0.68 1.02 0 0 Z " fill="#C2B063" transform="translate(98,34)"/>
<path d="M0 0 C0 0.66 0 1.32 0 2 C0.91 1.92 1.81 1.84 2.75 1.75 C6 2 6 2 8.38 3.88 C10 6 10 6 10 8 C10.6 8.27 11.2 8.54 11.81 8.81 C14.05 10.02 15.5 10.95 17 13 C16.69 15.19 16.69 15.19 16 17 C15.34 17 14.68 17 14 17 C14 17.66 14 18.32 14 19 C14.66 19 15.32 19 16 19 C16 19.66 16 20.32 16 21 C15.34 21 14.68 21 14 21 C14 21.99 14 22.98 14 24 C13.34 24 12.68 24 12 24 C11.67 23.01 11.34 22.02 11 21 C10.34 20.67 9.68 20.34 9 20 C8.63 18.34 8.29 16.67 8 15 C7.67 14.67 7.34 14.34 7 14 C5.87 14 4.73 14 3.56 14 C0 14 0 14 -2 13 C-2 12.34 -2 11.68 -2 11 C-3.32 10.67 -4.64 10.34 -6 10 C-5.67 8.35 -5.34 6.7 -5 5 C-6.32 4.01 -7.64 3.02 -9 2 C-2.25 0 -2.25 0 0 0 Z " fill="#979462" transform="translate(62,30)"/>
<path d="M0 0 C3.38 0.25 3.38 0.25 7 1 C8.44 3.06 8.44 3.06 9 5 C9 4.34 9 3.68 9 3 C9.66 3 10.32 3 11 3 C11 3.99 11 4.98 11 6 C12.32 6.66 13.64 7.32 15 8 C15 8.66 15 9.32 15 10 C14.34 10 13.68 10 13 10 C13.33 10.5 13.33 10.5 15 13 C17.5 13.29 17.5 13.29 20.44 13.19 C21.41 13.16 22.37 13.13 23.37 13.11 C23.8 13.09 23.8 13.09 26 13 C27.33 13 28.67 13 30 13 C30.66 12.67 31.32 12.34 32 12 C32 11.34 32 10.68 32 10 C35.58 9.8 37.99 9.96 41 12 C41.16 12.5 41.16 12.5 42 15 C26.35 17.67 26.35 17.67 23 16 C23 15.34 23 14.68 23 14 C22.58 14.13 22.58 14.13 20.47 14.76 C13.02 16.78 8.01 17.53 1 14 C1 13.34 1 12.68 1 12 C1.99 11.67 2.98 11.34 4 11 C2.02 10.34 0.04 9.68 -2 9 C-0.68 8.67 0.64 8.34 2 8 C1.34 5.36 0.68 2.72 0 0 Z M7 7 C7 7.99 7 8.98 7 10 C7.99 9.67 8.98 9.34 10 9 C9.67 8.34 9.34 7.68 9 7 C8.34 7 7.68 7 7 7 Z " fill="#9FA38F" transform="translate(49,85)"/>
<path d="M0 0 C3.89 0.6 7.43 2.42 11 4 C10.79 4.74 10.59 5.48 10.38 6.25 C9.95 9.38 10.52 10.32 12 13 C11.67 13.66 11.34 14.32 11 15 C9.02 15 7.04 15 5 15 C4.87 14.68 4.87 14.68 4.19 13.06 C3 11 3 11 0 10 C0 11.32 0 12.64 0 14 C0.99 14.33 1.98 14.66 3 15 C0 17 0 17 -1.88 16.94 C-5.21 15.47 -6.84 13.96 -9 11 C-9.12 7.89 -8.67 5.03 -8 2 C-3.25 1 -3.25 1 -1 1 C-0.67 0.67 -0.34 0.34 0 0 Z " fill="#BEB583" transform="translate(115,42)"/>
<path d="M0 0 C0 0.66 0 1.32 0 2 C0.47 1.97 0.47 1.97 2.88 1.81 C3.91 1.87 4.94 1.94 6 2 C8 5 8 5 7.56 7.44 C7.38 8.28 7.19 9.13 7 10 C7.44 12.31 7.44 12.31 8 14 C6.35 14.33 4.7 14.66 3 15 C2.67 16.65 2.34 18.3 2 20 C0.02 20 -1.96 20 -4 20 C-4 19.01 -4 18.02 -4 17 C-2.68 17 -1.36 17 0 17 C-0.66 16.24 -1.32 15.47 -2 14.69 C-4 12 -4 12 -4 9 C-6.78 10.39 -6.98 12.16 -8 15 C-8.66 13.68 -9.32 12.36 -10 11 C-9.34 10.34 -8.68 9.68 -8 9 C-8.66 8.67 -9.32 8.34 -10 8 C-9.01 8 -8.02 8 -7 8 C-7 7.01 -7 6.02 -7 5 C-7.99 5 -8.98 5 -10 5 C-10 4.34 -10 3.68 -10 3 C-9.34 3 -8.68 3 -8 3 C-7.67 2.34 -7.34 1.68 -7 1 C-4.02 -0.89 -3.49 -1.16 0 0 Z " fill="#CBC18E" transform="translate(105,24)"/>
<path d="M0 0 C2.56 1.04 4.03 2.03 6 4 C6.54 4.5 7.07 4.99 7.62 5.5 C9 7 9 7 9 9 C9.47 8.98 9.47 8.98 11.88 8.88 C15 9 15 9 17 11 C11.38 13.12 11.38 13.12 8 12 C7.67 10.02 7.34 8.04 7 6 C5.35 6 3.7 6 2 6 C2.5 6.45 2.99 6.91 3.5 7.38 C5 9 5 9 5 11 C4.34 11 3.68 11 3 11 C3 11.66 3 12.32 3 13 C1.91 12.81 0.81 12.63 -0.31 12.44 C-4 12 -4 12 -7 13 C-9 13.04 -11 13.04 -13 13 C-13.33 11.02 -13.66 9.04 -14 7 C-13.01 6.34 -12.02 5.68 -11 5 C-10.67 4.01 -10.34 3.02 -10 2 C-4.25 1 -4.25 1 -2 1 C-1.34 0.67 -0.68 0.34 0 0 Z " fill="#BCB481" transform="translate(69,14)"/>
<path d="M0 0 C4.77 0.46 7.24 1.18 11 4 C13.33 4.36 15.66 4.69 18 5 C19.59 8.19 19.66 11.55 19 15 C16.56 16.88 16.56 16.88 14 18 C13.67 18.66 13.34 19.32 13 20 C12.34 20 11.68 20 11 20 C10.67 17.69 10.34 15.38 10 13 C11.98 13.66 13.96 14.32 16 15 C16.33 14.34 16.66 13.68 17 13 C16.17 12.84 16.17 12.84 12 12 C12 11.34 12 10.68 12 10 C11.34 10 10.68 10 10 10 C9.34 11.32 8.68 12.64 8 14 C7.34 12.68 6.68 11.36 6 10 C3.69 10 1.38 10 -1 10 C-2.47 6.19 -1.43 3.71 0 0 Z " fill="#687568" transform="translate(34,54)"/>
<path d="M0 0 C0.04 0.3 0.04 0.3 0.25 1.81 C1.2 4.6 2.57 5.43 5 7 C4.88 8.88 4.88 8.88 4 11 C0.94 12.25 0.94 12.25 -2 13 C-1.01 13.33 -0.02 13.66 1 14 C0.01 14 -0.98 14 -2 14 C-2.33 14.99 -2.66 15.98 -3 17 C-3 14.69 -3 12.38 -3 10 C-3.66 10.33 -3.66 10.33 -7 12 C-7.33 11.34 -7.66 10.68 -8 10 C-8.66 10 -9.32 10 -10 10 C-10 9.34 -10 8.68 -10 8 C-12.31 8.66 -14.62 9.32 -17 10 C-17 6 -17 6 -16 3 C-15.34 3 -14.68 3 -14 3 C-13.67 2.01 -13.34 1.02 -13 0 C-12.05 0.02 -11.1 0.04 -10.12 0.06 C-0.55 -0.13 -0.55 -0.13 0 0 Z " fill="#CCC296" transform="translate(95,11)"/>
<path d="M0 0 C1.94 0.62 1.94 0.62 4 2 C5.46 6.58 4.78 9.61 3 14 C2.17 13.84 2.17 13.84 -2 13 C-2 12.34 -2 11.68 -2 11 C-2.99 11 -3.98 11 -5 11 C-4.67 12.65 -4.34 14.3 -4 16 C-6.31 15.67 -8.62 15.34 -11 15 C-11 14.01 -11 13.02 -11 12 C-12.65 12 -14.3 12 -16 12 C-15.43 9.13 -15.14 8.14 -13 6 C-9.37 6.38 -9.37 6.38 -6 7 C-6 5.02 -6 3.04 -6 1 C-5.34 1.99 -4.68 2.98 -4 4 C-2.68 2.68 -1.36 1.36 0 0 Z " fill="#8E884B" transform="translate(94,56)"/>
<path d="M0 0 C0.66 0.99 1.32 1.98 2 3 C2.66 2.01 3.32 1.02 4 0 C4.66 0 5.32 0 6 0 C6.33 0.66 6.66 1.32 7 2 C9.06 2.62 9.06 2.62 11 3 C10.67 3.99 10.34 4.98 10 6 C8.35 5.34 6.7 4.68 5 4 C5.25 5.48 5.53 6.96 5.81 8.44 C5.96 9.26 6.11 10.08 6.27 10.93 C6.51 11.62 6.75 12.3 7 13 C7.99 13.33 8.98 13.66 10 14 C10.33 15.98 10.66 17.96 11 20 C8.69 19.88 8.69 19.88 6 19 C5.77 18.52 5.77 18.52 4.62 16.06 C3 13 3 13 -0.69 11.62 C-1.78 11.42 -2.87 11.21 -4 11 C-4.66 11.66 -5.32 12.32 -6 13 C-7.12 9.25 -7.12 9.25 -6 7 C-7.32 6.67 -8.64 6.34 -10 6 C-9.88 4.12 -9.88 4.12 -9 2 C-5.82 0.62 -3.47 0 0 0 Z " fill="#42534E" transform="translate(40,64)"/>
<path d="M0 0 C0.33 0.99 0.66 1.98 1 3 C2.98 3 4.96 3 7 3 C7 3.66 7 4.32 7 5 C8.32 4.67 9.64 4.34 11 4 C11 4.66 11 5.32 11 6 C12.48 6.83 12.48 6.83 20 11 C20 11.66 20 12.32 20 13 C20.66 13 21.32 13 22 13 C22 13.66 22 14.32 22 15 C22.66 15 23.32 15 24 15 C24 15.66 24 16.32 24 17 C22.06 16.62 22.06 16.62 20 16 C19.67 15.34 19.34 14.68 19 14 C17.13 13.19 17.13 13.19 15 13 C14.5 13.5 14.01 13.99 13.5 14.5 C13 15 12.51 15.49 12 16 C9.81 15.69 9.81 15.69 8 15 C7.67 13.35 7.34 11.7 7 10 C6.67 10.5 6.67 10.5 5 13 C2.69 12.67 0.38 12.34 -2 12 C-2.69 9.69 -2.69 9.69 -3 7 C-1.56 5.44 -1.56 5.44 0 4 C0 2.68 0 1.36 0 0 Z " fill="#738686" transform="translate(13,68)"/>
<path d="M0 0 C3 3.75 3 3.75 3 6 C3.99 5.67 4.98 5.34 6 5 C6.66 5.33 7.32 5.66 8 6 C8 7.32 8 8.64 8 10 C8.63 9.98 9.25 9.95 9.9 9.93 C10.72 9.91 11.53 9.89 12.38 9.88 C13.19 9.85 14 9.83 14.84 9.8 C17 10 17 10 19 12 C18.34 12.66 17.68 13.32 17 14 C15.12 13.69 15.12 13.69 13 13 C12.26 12.81 11.52 12.63 10.75 12.44 C10.17 12.29 9.59 12.15 9 12 C9 12.66 9 13.32 9 14 C2.38 15.25 2.38 15.25 -1 13 C-1 12.34 -1 11.68 -1 11 C-2.09 11.19 -3.19 11.37 -4.31 11.56 C-8 12 -8 12 -11 11 C-11 10.01 -11 9.02 -11 8 C-9.35 7.34 -7.7 6.68 -6 6 C-6 5.34 -6 4.68 -6 4 C-4.02 4 -2.04 4 0 4 C0 2.68 0 1.36 0 0 Z " fill="#979E91" transform="translate(28,81)"/>
<path d="M0 0 C0.33 1.32 0.66 2.64 1 4 C1.78 4.14 2.57 4.29 3.38 4.44 C6 5 6 5 8 6 C8.33 6.99 8.66 7.98 9 9 C11.06 10.19 11.06 10.19 13 11 C11.68 11.33 10.36 11.66 9 12 C9 13.65 9 15.3 9 17 C6.13 16.75 6.13 16.75 3 16 C1.75 14 1.75 14 1 12 C0.34 11.67 -0.32 11.34 -1 11 C-1 11.99 -1 12.98 -1 14 C-1.66 14 -2.32 14 -3 14 C-3 13.34 -3 12.68 -3 12 C-4.65 12.33 -6.3 12.66 -8 13 C-6.68 11.35 -5.36 9.7 -4 8 C-4.99 8.66 -5.98 9.32 -7 10 C-7.33 8.35 -7.66 6.7 -8 5 C-7.01 4.67 -6.02 4.34 -5 4 C-5 3.34 -5 2.68 -5 2 C-2 0 -2 0 0 0 Z " fill="#3D483C" transform="translate(61,67)"/>
<path d="M0 0 C3.38 0.62 3.38 0.62 7 2 C8.56 4.88 8.56 4.88 9 8 C8.12 10.38 8.12 10.38 7 12 C5.68 11.67 4.36 11.34 3 11 C2.67 12.65 2.34 14.3 2 16 C1.13 15.79 0.27 15.59 -0.62 15.38 C-4.36 14.96 -6.55 15.6 -10 17 C-9.83 16.5 -9.83 16.5 -9 14 C-7.68 14 -6.36 14 -5 14 C-5 12.02 -5 10.04 -5 8 C-4.01 8 -3.02 8 -2 8 C-1.86 7.24 -1.71 6.47 -1.56 5.69 C-1 3 -1 3 0 0 Z " fill="#B0B095" transform="translate(119,57)"/>
<path d="M0 0 C0 1.32 0 2.64 0 4 C1.32 4.33 2.64 4.66 4 5 C4 3.35 4 1.7 4 0 C4.66 0 5.32 0 6 0 C6.33 1.32 6.66 2.64 7 4 C7 3.34 7 2.68 7 2 C7.99 2.33 8.98 2.66 10 3 C10.69 5.06 10.69 5.06 11 7 C10.34 7 9.68 7 9 7 C8.67 8.65 8.34 10.3 8 12 C7.01 12 6.02 12 5 12 C5 11.34 5 10.68 5 10 C4.01 10.66 3.02 11.32 2 12 C-1 12 -1 12 -4 11 C-6.09 7.79 -7 5.84 -7 2 C-4.35 0.54 -3.11 0 0 0 Z " fill="#696C46" transform="translate(84,32)"/>
<path d="M0 0 C6.15 0.43 9.82 1.65 15 5 C14.67 5.66 14.34 6.32 14 7 C13.34 7 12.68 7 12 7 C12.33 8.98 12.66 10.96 13 13 C9.38 16 9.38 16 6 16 C6.33 14.68 6.66 13.36 7 12 C8.32 12.33 9.64 12.66 11 13 C11 12.34 11 11.68 11 11 C9.02 11 7.04 11 5 11 C5 10.34 5 9.68 5 9 C4.03 8.73 3.06 8.46 2.06 8.19 C1.05 7.8 0.04 7.4 -1 7 C-2 4 -2 4 -1.06 1.81 C-0.89 1.51 -0.89 1.51 0 0 Z " fill="#384134" transform="translate(59,54)"/>
<path d="M0 0 C0.25 0.56 0.49 1.11 0.75 1.69 C2.22 4.4 4.03 6.64 6 9 C5.67 9.66 5.34 10.32 5 11 C4.34 11 3.68 11 3 11 C3 11.66 3 12.32 3 13 C2.67 13.16 2.67 13.16 1 14 C1.33 15.32 1.66 16.64 2 18 C3.32 17.34 4.64 16.68 6 16 C4.68 17.65 3.36 19.3 2 21 C2.99 21 3.98 21 5 21 C5 21.66 5 22.32 5 23 C5.66 23 6.32 23 7 23 C7.33 22.01 7.66 21.02 8 20 C8 22.64 8 25.28 8 28 C7.79 27.36 7.59 26.72 7.38 26.06 C6 24 6 24 2.88 23.25 C1.93 23.17 0.98 23.09 0 23 C0 23.66 0 24.32 0 25 C-0.66 25 -1.32 25 -2 25 C-2.27 24.24 -2.54 23.47 -2.81 22.69 C-3.94 20.13 -4.91 18.8 -7 17 C-5.61 13.52 -4.37 12.52 -1 11 C-1.01 10.37 -1.02 9.75 -1.04 9.1 C-1.04 8.28 -1.05 7.47 -1.06 6.62 C-1.07 5.81 -1.09 5 -1.1 4.16 C-1 2 -1 2 0 0 Z " fill="#555F4E" transform="translate(53,58)"/>
<path d="M0 0 C2 2 2 2 2 5 C2.99 5.33 3.98 5.66 5 6 C7.29 9.44 7.18 10.99 7 15 C6.2 14.86 5.39 14.71 4.56 14.56 C0.39 13.9 -3.8 13.44 -8 13 C-6.68 12.67 -5.36 12.34 -4 12 C-4.33 11.26 -4.66 10.52 -5 9.75 C-6 7 -6 7 -6 3 C-4.02 2.67 -2.04 2.34 0 2 C0 1.34 0 0.68 0 0 Z " fill="#50625E" transform="translate(44,78)"/>
<path d="M0 0 C0.66 0 1.32 0 2 0 C2 0.66 2 1.32 2 2 C2.99 2 3.98 2 5 2 C4.67 3.65 4.34 5.3 4 7 C2.68 7 1.36 7 0 7 C0 8.32 0 9.64 0 11 C-0.99 11.33 -1.98 11.66 -3 12 C-3 12.66 -3 13.32 -3 14 C-3.99 14.33 -4.98 14.66 -6 15 C-6.33 14.34 -6.66 13.68 -7 13 C-9.06 12.38 -9.06 12.38 -11 12 C-11 11.01 -11 10.02 -11 9 C-10.52 8.94 -10.52 8.94 -8.06 8.62 C-7.05 8.42 -6.04 8.21 -5 8 C-4.67 7.34 -4.34 6.68 -4 6 C-4.3 6.09 -4.3 6.09 -5.81 6.56 C-8 7 -8 7 -11 6 C-11 4.68 -11 3.36 -11 2 C-10.29 1.94 -9.58 1.88 -8.85 1.82 C-8.39 1.77 -8.39 1.77 -6.06 1.56 C-5.15 1.48 -4.23 1.4 -3.29 1.32 C-1 1 -1 1 0 0 Z " fill="#616851" transform="translate(48,43)"/>
<path d="M0 0 C0.99 0.99 1.98 1.98 3 3 C2.67 3.99 2.34 4.98 2 6 C2 5.34 2 4.68 2 4 C1.34 4 0.68 4 0 4 C-0.08 5.22 -0.16 6.43 -0.25 7.69 C-0.74 11.78 -2.1 14 -5 17 C-5.66 16.34 -6.32 15.68 -7 15 C-8.32 15 -9.64 15 -11 15 C-11 15.99 -11 16.98 -11 18 C-12.98 18.99 -14.96 19.98 -17 21 C-17 20.01 -17 19.02 -17 18 C-15.68 17.67 -14.36 17.34 -13 17 C-13 16.34 -13 15.68 -13 15 C-13.99 15 -14.98 15 -16 15 C-16 13.68 -16 12.36 -16 11 C-14.35 11 -12.7 11 -11 11 C-11 10.01 -11 9.02 -11 8 C-10.34 8 -9.68 8 -9 8 C-9 8.66 -9 9.32 -9 10 C-8.01 10 -7.02 10 -6 10 C-6 8.02 -6 6.04 -6 4 C-5.01 4.33 -4.02 4.66 -3 5 C-2.67 4.34 -2.34 3.68 -2 3 C-1.34 2.01 -0.68 1.02 0 0 Z " fill="#B7A860" transform="translate(98,34)"/>
<path d="M0 0 C2.88 0.81 2.88 0.81 4.88 1.81 C4.88 3.13 4.88 4.45 4.88 5.81 C4.57 5.85 4.57 5.85 3 6.06 C0.88 6.81 0.88 6.81 -0.31 8.81 C-0.58 9.47 -0.85 10.13 -1.12 10.81 C-2.12 11.81 -2.12 11.81 -4.41 11.91 C-4.87 11.9 -4.87 11.9 -7.19 11.88 C-8.11 11.87 -9.03 11.86 -9.97 11.85 C-10.68 11.84 -11.39 11.82 -12.12 11.81 C-12.45 13.13 -12.78 14.45 -13.12 15.81 C-13.12 14.16 -13.12 12.51 -13.12 10.81 C-12.13 10.48 -11.15 10.15 -10.12 9.81 C-9.11 7.82 -8.11 5.82 -7.12 3.81 C-4.73 0.59 -4.09 -0.25 0 0 Z " fill="#8A927A" transform="translate(49.125,33.1875)"/>
<path d="M0 0 C2.64 0 5.28 0 8 0 C7.67 0.66 7.34 1.32 7 2 C8.65 2.66 10.3 3.32 12 4 C12 4.99 12 5.98 12 7 C10.95 7.12 9.9 7.25 8.81 7.38 C5 8 5 8 2.25 9.12 C0 10 0 10 -3 9 C-4.18 8.86 -5.35 8.71 -6.56 8.56 C-10 8 -10 8 -12 6 C-10.91 6.19 -9.81 6.37 -8.69 6.56 C-5 7 -5 7 -2 6 C-0.81 2.94 -0.81 2.94 0 0 Z " fill="#C6C3A2" transform="translate(110,88)"/>
<path d="M0 0 C1.32 0.66 2.64 1.32 4 2 C4 3.65 4 5.3 4 7 C6.64 7 9.28 7 12 7 C11.67 7.99 11.34 8.98 11 10 C10.34 10 9.68 10 9 10 C9.21 10.78 9.41 11.57 9.62 12.38 C9.75 13.24 9.87 14.11 10 15 C6 19 6 19 3.38 19.12 C2.59 19.08 1.81 19.04 1 19 C1.66 18.67 2.32 18.34 3 18 C3 17.34 3 16.68 3 16 C2.01 15.67 1.02 15.34 0 15 C0 14.34 0 13.68 0 13 C-0.66 12.34 -1.32 11.68 -2 11 C-0.68 11 0.64 11 2 11 C2 8.69 2 6.38 2 4 C1.34 4 0.68 4 0 4 C0 2.68 0 1.36 0 0 Z " fill="#3B4235" transform="translate(79,69)"/>
<path d="M0 0 C6.18 0.34 6.18 0.34 8.94 2.56 C9.29 3.04 9.64 3.51 10 4 C10.99 3.34 11.98 2.68 13 2 C13 2.66 13 3.32 13 4 C14.32 3.67 15.64 3.34 17 3 C16.67 3.99 16.34 4.98 16 6 C14.02 6 12.04 6 10 6 C10 6.66 10 7.32 10 8 C9.01 8 8.02 8 7 8 C7 9.32 7 10.64 7 12 C6.34 12 5.68 12 5 12 C5 11.34 5 10.68 5 10 C4.7 9.86 4.7 9.86 3.19 9.12 C1 8 1 8 -2 6 C-3.99 5.61 -5.99 5.27 -8 5 C-5.81 2.81 -4.89 2.72 -2 2 C-1.34 1.34 -0.68 0.68 0 0 Z M8 5 C9 7 9 7 9 7 Z " fill="#A5A58C" transform="translate(27,46)"/>
<path d="M0 0 C3.58 -0.2 5.99 -0.04 9 2 C9.16 2.5 9.16 2.5 10 5 C-5.65 7.67 -5.65 7.67 -9 6 C-9 5.34 -9 4.68 -9 4 C-9.85 4.24 -10.69 4.48 -11.56 4.73 C-18.49 6.54 -23.22 7.52 -30 5 C-30 4.67 -30 4.34 -30 4 C-29.63 4.01 -29.63 4.01 -27.73 4.04 C-26.75 4.04 -25.76 4.05 -24.75 4.06 C-23.78 4.07 -22.8 4.09 -21.8 4.1 C-19.32 4.01 -17.38 3.62 -15 3 C-13.48 2.93 -11.96 2.91 -10.44 2.94 C-10.06 2.94 -10.06 2.94 -8.12 2.96 C-7.42 2.98 -6.72 2.99 -6 3 C-5.01 3 -4.02 3 -3 3 C-2.67 3 -2.34 3 -2 3 C-1.34 2.67 -0.68 2.34 0 2 C0 1.34 0 0.68 0 0 Z " fill="#CEC9AB" transform="translate(81,95)"/>
<path d="M0 0 C1.65 0.33 3.3 0.66 5 1 C5.18 4.95 5.09 7.6 3 11 C3.62 10.79 4.24 10.59 4.88 10.38 C5.23 10.31 5.23 10.31 7 10 C7.66 10.66 8.32 11.32 9 12 C8.34 12 7.68 12 7 12 C6.67 13.65 6.34 15.3 6 17 C4.68 16.34 3.36 15.68 2 15 C2 14.67 2 14.34 2 14 C1.01 14 0.02 14 -1 14 C-1 13.34 -1 12.68 -1 12 C-2.65 12 -4.3 12 -6 12 C-4.68 11.67 -3.36 11.34 -2 11 C-2.33 9.35 -2.66 7.7 -3 6 C-2.34 6 -1.68 6 -1 6 C-0.67 4.02 -0.34 2.04 0 0 Z " fill="#60684B" transform="translate(88,79)"/>
<path d="M0 0 C0.55 0.03 0.55 0.03 3.31 0.19 C3.64 1.84 3.97 3.49 4.31 5.19 C5.63 4.86 6.95 4.53 8.31 4.19 C8.64 4.85 8.97 5.51 9.31 6.19 C5.58 7.07 2.14 7.28 -1.69 7.19 C-1.69 8.84 -1.69 10.49 -1.69 12.19 C-2.51 11.86 -2.51 11.86 -6.69 10.19 C-7.35 10.85 -8.01 11.51 -8.69 12.19 C-8.69 11.53 -8.69 10.87 -8.69 10.19 C-9.35 9.86 -10.01 9.53 -10.69 9.19 C-9.7 9.19 -8.71 9.19 -7.69 9.19 C-7.36 8.2 -7.03 7.21 -6.69 6.19 C-9 5.86 -11.31 5.53 -13.69 5.19 C-13.69 4.86 -13.69 4.53 -13.69 4.19 C-12.59 4.08 -11.5 3.98 -10.38 3.88 C-6.69 3.19 -6.69 3.19 -5.19 1.62 C-3.69 0.19 -3.69 0.19 0 0 Z " fill="#9F9C76" transform="translate(82.6875,87.8125)"/>
<path d="M0 0 C4.29 0 8.58 0 13 0 C13 0.66 13 1.32 13 2 C11.02 2.33 9.04 2.66 7 3 C7 3.66 7 4.32 7 5 C7.99 5 8.98 5 10 5 C10.33 6.32 10.66 7.64 11 9 C6.61 9.7 2.44 10.11 -2 10 C-2.33 8.02 -2.66 6.04 -3 4 C-2.01 3.34 -1.02 2.68 0 2 C0 1.34 0 0.68 0 0 Z " fill="#9B9B77" transform="translate(58,17)"/>
<path d="M0 0 C2.57 1.23 5 2.6 7.44 4.06 C10.26 5.7 12.72 6.6 16 7 C16 7.66 16 8.32 16 9 C14.68 9 13.36 9 12 9 C11.67 9.99 11.34 10.98 11 12 C12.48 11.84 12.48 11.84 20 11 C19.67 11.99 19.34 12.98 19 14 C17.74 14.02 16.48 14.04 15.19 14.06 C14.48 14.07 13.77 14.09 13.04 14.1 C11 14 11 14 8 13 C7.31 10.94 7.31 10.94 7 9 C6.01 9 5.02 9 4 9 C4 8.34 4 7.68 4 7 C3.01 6.67 2.02 6.34 1 6 C0.67 4.02 0.34 2.04 0 0 Z " fill="#7A764A" transform="translate(54,58)"/>
<path d="M0 0 C2.06 0.44 2.06 0.44 4 1 C4.66 0.67 5.32 0.34 6 0 C6.25 5.62 6.25 5.62 4 9 C3.34 9 2.68 9 2 9 C1.67 9.99 1.34 10.98 1 12 C-0.98 12.33 -2.96 12.66 -5 13 C-5 11.35 -5 9.7 -5 8 C-4.34 8 -3.68 8 -3 8 C-3.06 7.05 -3.12 6.1 -3.19 5.12 C-3.13 4.09 -3.06 3.06 -3 2 C-2.01 1.34 -1.02 0.68 0 0 Z " fill="#8F9480" transform="translate(39,27)"/>
<path d="M0 0 C1.65 0.33 3.3 0.66 5 1 C5 1.66 5 2.32 5 3 C6.65 3 8.3 3 10 3 C10.62 4.88 10.62 4.88 11 7 C8.64 9.36 7.22 9.49 4 10 C4.99 10.33 5.98 10.66 7 11 C6.01 11 5.02 11 4 11 C3.67 11.99 3.34 12.98 3 14 C3 11.69 3 9.38 3 7 C2.34 7.33 2.34 7.33 -1 9 C-1.33 8.34 -1.66 7.68 -2 7 C-2.66 7 -3.32 7 -4 7 C-4 5.68 -4 4.36 -4 3 C-3.01 3 -2.02 3 -1 3 C-0.67 2.01 -0.34 1.02 0 0 Z " fill="#CDBE82" transform="translate(89,14)"/>
<path d="M0 0 C2.31 0.33 4.62 0.66 7 1 C8.59 5.18 9.21 8.53 9 13 C8.67 13.16 8.67 13.16 7 14 C6.67 12.68 6.34 11.36 6 10 C3.69 10 1.38 10 -1 10 C-2.47 6.19 -1.43 3.71 0 0 Z " fill="#70785E" transform="translate(34,54)"/>
<path d="M0 0 C0.33 0.66 0.66 1.32 1 2 C1.95 1.79 2.9 1.59 3.88 1.38 C4.39 1.31 4.39 1.31 7 1 C7.66 1.66 8.32 2.32 9 3 C9.99 3 10.98 3 12 3 C11.67 3.99 11.34 4.98 11 6 C9.25 6.36 7.5 6.72 5.75 7.06 C5.26 7.16 5.26 7.16 2.8 7.66 C0.13 7.98 -1.49 7.86 -4 7 C-4 7.99 -4 8.98 -4 10 C-4.99 10 -5.98 10 -7 10 C-7 9.34 -7 8.68 -7 8 C-8.32 7.67 -9.64 7.34 -11 7 C-8.36 6.34 -5.72 5.68 -3 5 C-3 4.01 -3 3.02 -3 2 C-2.01 2 -1.02 2 0 2 C0 1.34 0 0.68 0 0 Z " fill="#8A958A" transform="translate(25,60)"/>
<path d="M0 0 C0.33 0.99 0.66 1.98 1 3 C2.98 3 4.96 3 7 3 C7 3.66 7 4.32 7 5 C7.66 5.33 8.32 5.66 9 6 C7.68 8.31 6.36 10.62 5 13 C2.69 12.67 0.38 12.34 -2 12 C-2.69 9.69 -2.69 9.69 -3 7 C-1.56 5.44 -1.56 5.44 0 4 C0 2.68 0 1.36 0 0 Z " fill="#83918D" transform="translate(13,68)"/>
<path d="M0 0 C1.65 0.33 3.3 0.66 5 1 C5.33 1.99 5.66 2.98 6 4 C8.06 4.69 8.06 4.69 10 5 C9.67 6.32 9.34 7.64 9 9 C7.68 8.67 6.36 8.34 5 8 C4.67 8.66 4.34 9.32 4 10 C1.36 9.67 -1.28 9.34 -4 9 C-4 7.35 -4 5.7 -4 4 C-2.68 4 -1.36 4 0 4 C0 2.68 0 1.36 0 0 Z " fill="#475446" transform="translate(48,50)"/>
<path d="M0 0 C0.99 0 1.98 0 3 0 C3 1.65 3 3.3 3 5 C3.66 5.33 4.32 5.66 5 6 C4.67 6.99 4.34 7.98 4 9 C2.56 9.05 1.13 9.09 -0.31 9.12 C-1.11 9.15 -1.91 9.17 -2.74 9.2 C-5 9 -5 9 -8 7 C-8.19 4.38 -8.19 4.38 -8 2 C-3.25 1 -3.25 1 -1 1 C-0.67 0.67 -0.34 0.34 0 0 Z " fill="#C7BD90" transform="translate(115,42)"/>
<path d="M0 0 C2.31 0 4.62 0 7 0 C7 1.32 7 2.64 7 4 C7.99 4.33 8.98 4.66 10 5 C9.01 6.32 8.02 7.64 7 9 C7 8.34 7 7.68 7 7 C6.34 7 5.68 7 5 7 C5 7.66 5 8.32 5 9 C4.34 9 3.68 9 3 9 C3 9.66 3 10.32 3 11 C1.12 10.38 1.12 10.38 -1 9 C-2.25 5.88 -2.25 5.88 -3 3 C-2.01 3.33 -1.02 3.66 0 4 C0 2.68 0 1.36 0 0 Z " fill="#8F9372" transform="translate(108,73)"/>
<path d="M0 0 C0.33 1.32 0.66 2.64 1 4 C2.65 3.01 4.3 2.02 6 1 C6.33 2.65 6.66 4.3 7 6 C7.66 6 8.32 6 9 6 C9 7.65 9 9.3 9 11 C6.12 10.75 6.12 10.75 3 10 C1.75 8 1.75 8 1 6 C0.34 5.67 -0.32 5.34 -1 5 C-1 5.99 -1 6.98 -1 8 C-1.66 8 -2.32 8 -3 8 C-3 7.34 -3 6.68 -3 6 C-4.65 6.33 -6.3 6.66 -8 7 C-5.42 4.35 -3.08 2.06 0 0 Z " fill="#3D4F49" transform="translate(61,73)"/>
<path d="M0 0 C1.32 0.33 2.64 0.66 4 1 C5.21 3.85 4.96 5.15 4.12 8.19 C2 11 2 11 -0.14 11.54 C-1.73 11.68 -3.34 11.77 -4.94 11.8 C-7 12 -7 12 -9 14 C-8.67 12.35 -8.34 10.7 -8 9 C-7.34 9 -6.68 9 -6 9 C-6.33 7.68 -6.66 6.36 -7 5 C-4 5 -4 5 -1.94 5.56 C0 6 0 6 2 5 C1.34 4.67 0.68 4.34 0 4 C0 2.68 0 1.36 0 0 Z " fill="#9B9765" transform="translate(115,52)"/>
<path d="M0 0 C0.66 0 1.32 0 2 0 C2.98 1.76 3.95 3.52 4.93 5.27 C6 7 6 7 8 9 C7.01 8.84 7.01 8.84 2 8 C2.33 8.5 2.33 8.5 4 11 C4.33 11.99 4.66 12.98 5 14 C4.34 14 3.68 14 3 14 C3.33 15.32 3.66 16.64 4 18 C3.01 18 2.02 18 1 18 C-3.08 13.13 -3.08 13.13 -2.81 9.25 C-1.34 5.17 -1.34 5.17 1 4 C0.67 2.68 0.34 1.36 0 0 Z " fill="#98905D" transform="translate(99,33)"/>
<path d="M0 0 C1.65 0.33 3.3 0.66 5 1 C5.33 1.99 5.66 2.98 6 4 C4.56 6.69 4.56 6.69 3 9 C4.65 9 6.3 9 8 9 C7.67 9.99 7.34 10.98 7 12 C6.01 11.34 5.02 10.68 4 10 C3.67 11.65 3.34 13.3 3 15 C2.01 15.33 1.02 15.66 0 16 C0.88 9.25 0.88 9.25 2 7 C0.68 7 -0.64 7 -2 7 C-2 6.34 -2 5.68 -2 5 C-2.66 4.67 -3.32 4.34 -4 4 C-4 3.34 -4 2.68 -4 2 C-2.68 2 -1.36 2 0 2 C0 1.34 0 0.68 0 0 Z " fill="#6C6C41" transform="translate(75,59)"/>
<path d="M0 0 C2.31 0.33 4.62 0.66 7 1 C7 2.98 7 4.96 7 7 C4.69 7 2.38 7 0 7 C0 6.34 0 5.68 0 5 C-0.99 5.66 -1.98 6.32 -3 7 C-5.69 6.62 -5.69 6.62 -8 6 C-7.34 4.68 -6.68 3.36 -6 2 C-4.02 2 -2.04 2 0 2 C0 1.34 0 0.68 0 0 Z " fill="#60664D" transform="translate(62,25)"/>
<path d="M0 0 C1.94 0.62 1.94 0.62 4 2 C4.99 5.59 5.18 7.45 4 11 C2.35 10.67 0.7 10.34 -1 10 C-1 9.34 -1 8.68 -1 8 C-2.65 7.67 -4.3 7.34 -6 7 C-6 5.02 -6 3.04 -6 1 C-5.67 1.49 -5.67 1.49 -4 4 C-2.68 2.68 -1.36 1.36 0 0 Z " fill="#7F7B47" transform="translate(94,56)"/>
<path d="M0 0 C2 0.31 2 0.31 4 1 C4.33 1.66 4.66 2.32 5 3 C4.67 3.99 4.34 4.98 4 6 C4.66 6.33 5.32 6.66 6 7 C6.33 7.66 6.66 8.32 7 9 C5.68 9 4.36 9 3 9 C2.67 11.31 2.34 13.62 2 16 C1.01 16.33 0.02 16.66 -1 17 C-0.67 15.35 -0.34 13.7 0 12 C-0.99 12 -1.98 12 -3 12 C-3.33 11.01 -3.66 10.02 -4 9 C-2.62 7.5 -2.62 7.5 -1 6 C-0.34 6 0.32 6 1 6 C1 4.68 1 3.36 1 2 C0.34 1.67 -0.32 1.34 -1 1 C-0.67 0.67 -0.34 0.34 0 0 Z " fill="#777A54" transform="translate(53,33)"/>
<path d="M0 0 C1.95 2.92 2.45 4.63 3 8 C3.99 6.02 4.98 4.04 6 2 C6.66 2 7.32 2 8 2 C8 2.66 8 3.32 8 4 C9.32 4.33 10.64 4.66 12 5 C9.67 7.33 7.33 9.67 5 12 C3.35 12 1.7 12 0 12 C0 8.04 0 4.08 0 0 Z " fill="#6E694D" transform="translate(71,80)"/>
<path d="M0 0 C0.99 0.17 0.99 0.17 6 1 C5.4 3.02 4.73 5.02 4 7 C3.67 7.17 3.67 7.17 2 8 C2.66 8.66 3.32 9.32 4 10 C0.87 13.13 -2.43 14.9 -6.88 15.19 C-7.58 15.13 -8.28 15.06 -9 15 C-9 14.01 -9 13.02 -9 12 C-3.25 11 -3.25 11 -1 11 C-1.11 10.7 -1.11 10.7 -1.69 9.19 C-1.79 8.47 -1.89 7.74 -2 7 C-1 6 0 5 1 4 C0.69 1.81 0.69 1.81 0 0 Z " fill="#797C57" transform="translate(104,70)"/>
<path d="M0 0 C0.66 0 1.32 0 2 0 C2.33 1.32 2.66 2.64 3 4 C4.32 4 5.64 4 7 4 C7 4.66 7 5.32 7 6 C6.34 6 5.68 6 5 6 C5 6.99 5 7.98 5 9 C5.66 9.33 6.32 9.66 7 10 C5.21 10.05 3.42 10.09 1.62 10.12 C0.63 10.15 -0.37 10.17 -1.4 10.2 C-4 10 -4 10 -6 8 C-5.01 8 -4.02 8 -3 8 C-2.69 6.87 -2.38 5.73 -2.06 4.56 C-1 1 -1 1 0 0 Z " fill="#C4B469" transform="translate(90,21)"/>
<path d="M0 0 C0.66 0 1.32 0 2 0 C2 0.99 2 1.98 2 3 C1.34 3 0.68 3 0 3 C0 2.01 0 1.02 0 0 Z " fill="#F6F6F1" transform="translate(109,40)"/>
</svg>
