<?xml version="1.0" encoding="UTF-8"?>
<!-- Generator: visioncortex VTracer 0.6.12 -->
<svg version="1.1" xmlns="http://www.w3.org/2000/svg" width="92" height="92">
<path d="M0 0 C3.16 1.37 3.99 1.99 6 5 C6.91 4.32 7.81 3.64 8.75 2.94 C12 1 12 1 14.38 1.25 C14.91 1.5 15.45 1.75 16 2 C15.79 2.89 15.59 3.77 15.38 4.69 C14.97 8.29 15.68 9.74 17 13 C16.34 13.99 15.68 14.98 15 16 C13.68 16 12.36 16 11 16 C10.67 18.97 10.34 21.94 10 25 C10.99 24.34 11.98 23.68 13 23 C13.99 23 14.98 23 16 23 C15.4 28.65 13.92 33.66 12 39 C12.66 39 13.32 39 14 39 C14.66 37.02 15.32 35.04 16 33 C16.99 33.33 17.98 33.66 19 34 C19 34.99 19 35.98 19 37 C20.32 37.66 21.64 38.32 23 39 C21.46 34.28 19.92 29.58 18 25 C19.65 24.67 21.3 24.34 23 24 C23.66 24.99 24.32 25.98 25 27 C25 26.01 25 25.02 25 24 C25 22.68 25 21.36 25 20 C25.99 20 26.98 20 28 20 C27.2 19.55 26.39 19.09 25.56 18.62 C23 17 23 17 22 15 C21.01 14.67 20.02 14.34 19 14 C19 10 19 10 21 8 C21.63 5.87 21.63 5.87 22 4 C23.81 3.31 23.81 3.31 26 3 C27.75 4.44 27.75 4.44 29 6 C29.21 5.6 29.21 5.6 30.25 3.56 C32 1 32 1 34.06 0.06 C34.38 0.05 34.38 0.05 36 0 C36.66 0.66 37.32 1.32 38 2 C37.97 4.73 37.44 7.3 37 10 C38.09 9.96 39.19 9.92 40.31 9.88 C44 10 44 10 47 12 C45.25 15.87 45.25 15.87 43 17 C43.16 17.82 43.16 17.82 44 22 C41.65 23.43 40.52 24.09 37.75 23.62 C37.46 23.52 37.46 23.52 36 23 C36 22.34 36 21.68 36 21 C35.22 21.82 34.43 22.65 33.62 23.5 C31 26 31 26 29 26 C29.16 26.33 29.16 26.33 30 28 C31.98 27.34 33.96 26.68 36 26 C36 30 36 30 35 33 C33.37 34.39 33.37 34.39 31.44 35.69 C30.8 36.12 30.16 36.56 29.5 37.01 C29 37.34 28.51 37.66 28 38 C28.64 37.81 29.28 37.63 29.94 37.44 C30.62 37.29 31.3 37.15 32 37 C33 38 33 38 33.1 39.85 C33.07 41.9 33.03 43.95 33 46 C33.33 46.16 33.33 46.16 35 47 C34.84 45.52 34.84 45.52 34 38 C34.99 38 35.98 38 37 38 C37 38.66 37 39.32 37 40 C37.66 40 38.32 40 39 40 C38.67 39.01 38.34 38.02 38 37 C38.28 34.99 38.6 32.99 39 31 C39.76 30.86 40.53 30.71 41.31 30.56 C44 30 44 30 47 29 C47.33 29.33 47.33 29.33 49 31 C48.62 33.63 48.62 33.63 48 36 C48.66 36 49.32 36 50 36 C49.67 37.65 49.34 39.3 49 41 C42.25 43.12 42.25 43.12 40 42 C40 42.66 40 43.32 40 44 C40.99 44.33 41.98 44.66 43 45 C43 45.66 43 46.32 43 47 C44.05 46.9 45.1 46.79 46.19 46.69 C50 47 50 47 52.94 49.31 C55 52 55 52 55 55 C52.69 54.67 50.38 54.34 48 54 C47.67 54.99 47.34 55.98 47 57 C47.66 57.33 48.32 57.66 49 58 C49 58.99 49 59.98 49 61 C50.65 61.66 52.3 62.32 54 63 C53.67 63.99 53.34 64.98 53 66 C52.24 65.96 51.47 65.92 50.69 65.88 C48 66 48 66 45 68 C43.06 67.94 43.06 67.94 41 67.56 C37.99 67.02 37.03 66.99 34 68 C33.67 68 33.34 68 33 68 C33.99 68.99 34.98 69.98 36 71 C34.19 72.06 34.19 72.06 32 73 C31.01 72.67 30.02 72.34 29 72 C28.32 72.19 27.64 72.37 26.94 72.56 C26.62 72.63 26.62 72.63 25 73 C24.67 72.67 24.67 72.67 23 71 C21.06 71.38 21.06 71.38 19 72 C13.67 72 8.33 72 3 72 C2.67 71.01 2.34 70.02 2 69 C2.33 68.84 2.33 68.84 4 68 C0.2 65.42 -2.63 66.23 -7 67 C-9.81 67.19 -9.81 67.19 -12 67 C-12.66 66.34 -13.32 65.68 -14 65 C-16.12 64.38 -16.12 64.38 -18 64 C-15.64 61.47 -14.34 60.11 -11 59 C-10.67 58.01 -10.34 57.02 -10 56 C-11.65 56 -13.3 56 -15 56 C-15.66 54.68 -16.32 53.36 -17 52 C-14.88 50.38 -14.88 50.38 -12 49 C-6.8 50.2 -6.8 50.2 -5 52 C-5 50.68 -5 49.36 -5 48 C-4.34 48 -3.68 48 -3 48 C-5 46 -5 46 -8 45.5 C-11 45 -11 45 -13 43 C-12.56 39.83 -11.23 36.94 -10 34 C-8.72 33.94 -7.44 33.88 -6.12 33.81 C-5.77 33.8 -5.77 33.8 -3.95 33.71 C-3.3 33.8 -2.66 33.9 -2 34 C0.29 37.44 0.18 38.99 0 43 C0.66 41.68 1.32 40.36 2 39 C4.31 39.66 6.62 40.32 9 41 C9 40.34 9 39.68 9 39 C7.35 38.34 5.7 37.68 4 37 C4 36.01 4 35.02 4 34 C1.5 32.31 1.5 32.31 -1 31 C-0.67 29.35 -0.34 27.7 0 26 C4.75 26.88 4.75 26.88 7 28 C6 25 6 25 4.15 24.05 C3.79 23.93 3.79 23.93 1.94 23.31 C1.2 23.06 0.47 22.81 -0.29 22.55 C-0.85 22.37 -1.42 22.19 -2 22 C-2 20.68 -2 19.36 -2 18 C-3.65 18.99 -5.3 19.98 -7 21 C-7.33 19.35 -7.66 17.7 -8 16 C-8.66 16 -9.32 16 -10 16 C-9.34 14.68 -8.68 13.36 -8 12 C-7.01 12 -6.02 12 -5 12 C-5 11.34 -5 10.68 -5 10 C-3.68 9.67 -2.36 9.34 -1 9 C-1.21 7.89 -1.41 6.77 -1.62 5.62 C-1.75 4.43 -1.87 3.23 -2 2 C-1.34 1.34 -0.68 0.68 0 0 Z M8 6 C9 8 9 8 9 8 Z M7 15 C8 18 8 18 8 18 Z M4 19 C5 21 5 21 5 21 Z M28 29 C29 31 29 31 29 31 Z M16 43 C16 43.99 16 44.98 16 46 C16.66 45.67 17.32 45.34 18 45 C17.34 44.34 16.68 43.68 16 43 Z M3 45 C4 47 4 47 4 47 Z M39 50 C40 52 40 52 40 52 Z " fill="#A6A78C" transform="translate(28,10)"/>
<path d="M0 0 C2.12 0.94 2.12 0.94 4 2 C3.67 4.64 3.34 7.28 3 10 C4.09 9.96 5.19 9.92 6.31 9.88 C10 10 10 10 13 12 C11.25 15.88 11.25 15.88 9 17 C9.33 18.65 9.66 20.3 10 22 C7.65 23.43 6.52 24.09 3.75 23.62 C3.46 23.52 3.46 23.52 2 23 C2 22.34 2 21.68 2 21 C1.22 21.82 0.43 22.65 -0.38 23.5 C-3 26 -3 26 -5 26 C-4.67 26.66 -4.34 27.32 -4 28 C-2.02 27.34 -0.04 26.68 2 26 C2 30 2 30 1 33 C-0.63 34.39 -0.63 34.39 -2.56 35.69 C-3.2 36.12 -3.84 36.56 -4.5 37.01 C-4.75 37.17 -4.75 37.17 -6 38 C-5.36 37.81 -4.72 37.63 -4.06 37.44 C-3.38 37.29 -2.7 37.15 -2 37 C-1 38 -1 38 -0.9 39.85 C-0.93 41.9 -0.97 43.95 -1 46 C-0.34 46.33 0.32 46.66 1 47 C0.67 44.03 0.34 41.06 0 38 C0.99 38 1.98 38 3 38 C3 38.66 3 39.32 3 40 C3.66 40 4.32 40 5 40 C4.67 39.01 4.34 38.02 4 37 C4.28 34.99 4.6 32.99 5 31 C5.38 30.93 5.38 30.93 7.31 30.56 C10 30 10 30 13 29 C13.66 29.66 14.32 30.32 15 31 C14.62 33.63 14.62 33.63 14 36 C14.66 36 15.32 36 16 36 C15.67 37.65 15.34 39.3 15 41 C8.25 43.12 8.25 43.12 6 42 C6 42.66 6 43.32 6 44 C6.5 44.16 6.5 44.16 9 45 C9 45.66 9 46.32 9 47 C10.05 46.9 11.1 46.79 12.19 46.69 C16 47 16 47 18.94 49.31 C21 52 21 52 21 55 C18.69 54.67 16.38 54.34 14 54 C13.67 54.99 13.34 55.98 13 57 C13.66 57.33 14.32 57.66 15 58 C15 58.99 15 59.98 15 61 C16.65 61.66 18.3 62.32 20 63 C19.67 63.99 19.34 64.98 19 66 C18.24 65.96 17.47 65.92 16.69 65.88 C14 66 14 66 11 68 C9.06 67.94 9.06 67.94 7 67.56 C3.99 67.02 3.03 66.99 0 68 C-0.33 68 -0.66 68 -1 68 C-0.01 68.99 0.98 69.98 2 71 C0.19 72.06 0.19 72.06 -2 73 C-2.99 72.67 -3.98 72.34 -5 72 C-5.68 72.19 -6.36 72.37 -7.06 72.56 C-7.38 72.63 -7.38 72.63 -9 73 C-9.66 72.34 -10.32 71.68 -11 71 C-12.94 71.38 -12.94 71.38 -15 72 C-15.99 72 -16.98 72 -18 72 C-17.67 71.84 -17.67 71.84 -16 71 C-16 70.01 -16 69.02 -16 68 C-15.34 68 -14.68 68 -14 68 C-14 67.34 -14 66.68 -14 66 C-9.62 63 -9.62 63 -7 63 C-7 63.66 -7 64.32 -7 65 C-6.01 64.34 -5.02 63.68 -4 63 C-4 62.34 -4 61.68 -4 61 C-3.37 60.96 -2.75 60.93 -2.1 60.89 C-1.28 60.82 -0.47 60.76 0.38 60.69 C1.19 60.63 2 60.57 2.84 60.51 C5 60 5 60 7 57 C6.5 56.17 6.5 56.17 4 52 C3.67 52.66 3.34 53.32 3 54 C2.34 54 1.68 54 1 54 C1 52.68 1 51.36 1 50 C-2 52 -2 52 -2.94 54.06 C-3.11 54.38 -3.11 54.38 -4 56 C-4.66 56.16 -4.66 56.16 -8 57 C-6.35 54.36 -4.7 51.72 -3 49 C-3.66 49 -4.32 49 -5 49 C-5 48.34 -5 47.68 -5 47 C-6.32 46.67 -7.64 46.34 -9 46 C-9 44.35 -9 42.7 -9 41 C-9.5 41.16 -9.5 41.16 -12 42 C-12.33 40.68 -12.66 39.36 -13 38 C-12.34 38.33 -11.68 38.66 -11 39 C-12.54 34.28 -14.08 29.58 -16 25 C-14.35 24.67 -12.7 24.34 -11 24 C-10.34 24.99 -9.68 25.98 -9 27 C-9 26.01 -9 25.02 -9 24 C-9 22.68 -9 21.36 -9 20 C-8.01 20 -7.02 20 -6 20 C-6.8 19.55 -7.61 19.09 -8.44 18.62 C-11 17 -11 17 -12 15 C-12.99 14.67 -13.98 14.34 -15 14 C-15 10 -15 10 -13 8 C-12.38 5.88 -12.38 5.88 -12 4 C-10.19 3.31 -10.19 3.31 -8 3 C-6.25 4.44 -6.25 4.44 -5 6 C-4.55 5.2 -4.09 4.39 -3.62 3.56 C-2 1 -2 1 0 0 Z M-6 29 C-5 31 -5 31 -5 31 Z M5 50 C6 52 6 52 6 52 Z " fill="#ABA586" transform="translate(62,10)"/>
<path d="M0 0 C3.16 1.37 3.99 1.99 6 5 C6.91 4.32 7.81 3.64 8.75 2.94 C12 1 12 1 14.38 1.25 C14.91 1.5 15.45 1.75 16 2 C15.9 2.44 15.9 2.44 15.38 4.69 C14.97 8.29 15.68 9.74 17 13 C16.67 13.5 16.67 13.5 15 16 C13.68 16 12.36 16 11 16 C10.67 18.97 10.34 21.94 10 25 C10.99 24.34 11.98 23.68 13 23 C13.99 23 14.98 23 16 23 C15.4 28.65 13.92 33.66 12 39 C12.66 39 13.32 39 14 39 C14 40.32 14 41.64 14 43 C10.71 43.8 9.29 44.1 6 43 C6.33 44.98 6.66 46.96 7 49 C7.49 49.16 7.49 49.16 10 50 C6.8 51.6 4.28 50.03 1 49 C1 47.68 1 46.36 1 45 C0.01 44.67 -0.98 44.34 -2 44 C-2 42.02 -2 40.04 -2 38 C-4.31 38.66 -6.62 39.32 -9 40 C-9 40.99 -9 41.98 -9 43 C-8.34 43 -7.68 43 -7 43 C-7 43.66 -7 44.32 -7 45 C-6.34 45.33 -5.68 45.66 -5 46 C-10.75 45.25 -10.75 45.25 -13 43 C-12.56 39.83 -11.23 36.94 -10 34 C-8.72 33.94 -7.44 33.88 -6.12 33.81 C-5.77 33.8 -5.77 33.8 -3.95 33.71 C-3.3 33.8 -2.66 33.9 -2 34 C0.29 37.44 0.18 38.99 0 43 C0.66 41.68 1.32 40.36 2 39 C4.31 39.66 6.62 40.32 9 41 C9 40.34 9 39.68 9 39 C7.35 38.34 5.7 37.68 4 37 C4 36.01 4 35.02 4 34 C1.5 32.31 1.5 32.31 -1 31 C-0.67 29.35 -0.34 27.7 0 26 C4.75 26.88 4.75 26.88 7 28 C6 25 6 25 4.15 24.05 C3.79 23.93 3.79 23.93 1.94 23.31 C1.2 23.06 0.47 22.81 -0.29 22.55 C-0.85 22.37 -1.42 22.19 -2 22 C-2 20.68 -2 19.36 -2 18 C-3.65 18.99 -5.3 19.98 -7 21 C-7.33 19.35 -7.66 17.7 -8 16 C-8.66 16 -9.32 16 -10 16 C-9.34 14.68 -8.68 13.36 -8 12 C-7.01 12 -6.02 12 -5 12 C-5 11.34 -5 10.68 -5 10 C-3.68 9.67 -2.36 9.34 -1 9 C-1.21 7.89 -1.41 6.77 -1.62 5.62 C-1.69 5.03 -1.69 5.03 -2 2 C-1.34 1.34 -0.68 0.68 0 0 Z M8 6 C9 8 9 8 9 8 Z M7 15 C8 18 8 18 8 18 Z M4 19 C5 21 5 21 5 21 Z M3 45 C4 47 4 47 4 47 Z " fill="#C0BCA3" transform="translate(28,10)"/>
<path d="M0 0 C0.99 0.66 1.98 1.32 3 2 C2.67 3.65 2.34 5.3 2 7 C2.66 7 3.32 7 4 7 C3.67 8.65 3.34 10.3 3 12 C-3.75 14.12 -3.75 14.12 -6 13 C-6 13.66 -6 14.32 -6 15 C-5.01 15.33 -4.02 15.66 -3 16 C-3 16.66 -3 17.32 -3 18 C-2.47 17.95 -2.47 17.95 0.19 17.69 C4 18 4 18 6.94 20.31 C9 23 9 23 9 26 C6.69 25.67 4.38 25.34 2 25 C1.67 25.99 1.34 26.98 1 28 C1.66 28.33 2.32 28.66 3 29 C3 29.99 3 30.98 3 32 C4.65 32.66 6.3 33.32 8 34 C7.67 34.99 7.34 35.98 7 37 C6.24 36.96 5.47 36.92 4.69 36.88 C2 37 2 37 -1 39 C-2.94 38.94 -2.94 38.94 -5 38.56 C-8.01 38.02 -8.97 37.99 -12 39 C-12.33 39 -12.66 39 -13 39 C-12.01 39.99 -11.02 40.98 -10 42 C-11.81 43.06 -11.81 43.06 -14 44 C-14.99 43.67 -15.98 43.34 -17 43 C-17.68 43.19 -18.36 43.37 -19.06 43.56 C-19.7 43.71 -20.34 43.85 -21 44 C-21.66 43.34 -22.32 42.68 -23 42 C-24.94 42.38 -24.94 42.38 -27 43 C-27.99 43 -28.98 43 -30 43 C-29.67 42.84 -29.67 42.84 -28 42 C-28 41.01 -28 40.02 -28 39 C-27.34 39 -26.68 39 -26 39 C-26 38.34 -26 37.68 -26 37 C-21.62 34 -21.62 34 -19 34 C-19 34.66 -19 35.32 -19 36 C-18.01 35.34 -17.02 34.68 -16 34 C-16 33.34 -16 32.68 -16 32 C-15.69 31.98 -15.69 31.98 -14.1 31.89 C-13.28 31.82 -12.47 31.76 -11.62 31.69 C-10.81 31.63 -10 31.57 -9.16 31.51 C-7 31 -7 31 -5 28 C-5.99 26.35 -6.98 24.7 -8 23 C-8.33 23.66 -8.66 24.32 -9 25 C-9.66 25 -10.32 25 -11 25 C-11 23.35 -11 21.7 -11 20 C-11.66 20 -12.32 20 -13 20 C-13 19.34 -13 18.68 -13 18 C-12.34 18 -11.68 18 -11 18 C-11.33 15.03 -11.66 12.06 -12 9 C-11.01 9 -10.02 9 -9 9 C-9 9.66 -9 10.32 -9 11 C-8.34 11 -7.68 11 -7 11 C-7.33 10.01 -7.66 9.02 -8 8 C-7.72 5.99 -7.4 3.99 -7 2 C-6.61 1.93 -6.61 1.93 -4.62 1.56 C-2 1 -2 1 0 0 Z M-7 21 C-6 23 -6 23 -6 23 Z " fill="#C2BA99" transform="translate(74,39)"/>
<path d="M0 0 C0.99 0 1.98 0 3 0 C3.66 0.99 4.32 1.98 5 3 C5.66 3 6.32 3 7 3 C7 4.65 7 6.3 7 8 C8.32 8.33 9.64 8.66 11 9 C11 9.66 11 10.32 11 11 C11.66 11 12.32 11 13 11 C11.12 15.75 11.12 15.75 10 18 C12 17 12 17 13.5 14.44 C14 13.63 14.49 12.83 15 12 C15.66 12 16.32 12 17 12 C17 13.32 17 14.64 17 16 C17.66 16 18.32 16 19 16 C19.33 15.01 19.66 14.02 20 13 C22 15 22 15 22 18 C22.66 18.33 23.32 18.66 24 19 C23.06 21 23.06 21 21 23 C17.97 23.36 15.03 23.23 12 23 C12.33 23.99 12.66 24.98 13 26 C11.68 26.33 10.36 26.66 9 27 C9 26.34 9 25.68 9 25 C8.07 25.16 7.14 25.33 6.19 25.5 C3 26 3 26 0 26 C0 24.68 0 23.36 0 22 C-0.66 22 -1.32 22 -2 22 C-1.67 23.32 -1.34 24.64 -1 26 C-2.94 25.52 -4.88 25.04 -6.81 24.56 C-7.89 24.3 -8.97 24.03 -10.08 23.75 C-12.07 23.24 -14.05 22.65 -16 22 C-16 21.01 -16 20.02 -16 19 C-15.34 19 -14.68 19 -14 19 C-13.67 18.34 -13.34 17.68 -13 17 C-13 17.66 -13 18.32 -13 19 C-12.34 19 -11.68 19 -11 19 C-10.34 18.34 -9.68 17.68 -9 17 C-7.35 17.99 -5.7 18.98 -4 20 C-4.33 18.02 -4.66 16.04 -5 14 C-3 16 -3 16 -1 19 C-1 16.03 -1 13.06 -1 10 C-0.01 10.33 0.98 10.66 2 11 C2 10.01 2 9.02 2 8 C1.34 8 0.68 8 0 8 C0 5.36 0 2.72 0 0 Z " fill="#666443" transform="translate(46,48)"/>
<path d="M0 0 C3.16 1.37 3.99 1.99 6 5 C6.91 4.32 7.81 3.64 8.75 2.94 C12 1 12 1 14.38 1.25 C14.91 1.5 15.45 1.75 16 2 C15.9 2.44 15.9 2.44 15.38 4.69 C14.97 8.29 15.68 9.74 17 13 C16.67 13.5 16.67 13.5 15 16 C13.68 16 12.36 16 11 16 C10.34 18.64 9.68 21.28 9 24 C8.67 24 8.34 24 8 24 C7.89 23.01 7.89 23.01 7.32 18.04 C7 16 7 16 6 13 C6.33 12.34 6.66 11.68 7 11 C6.01 10.67 5.02 10.34 4 10 C4 9.34 4 8.68 4 8 C3.01 8 2.02 8 1 8 C1 9.98 1 11.96 1 14 C2.32 14.33 3.64 14.66 5 15 C4.67 16.98 4.34 18.96 4 21 C4.66 21 5.32 21 6 21 C6 21.99 6 22.98 6 24 C3.36 23.34 0.72 22.68 -2 22 C-2 20.68 -2 19.36 -2 18 C-3.65 18.99 -5.3 19.98 -7 21 C-7.33 19.35 -7.66 17.7 -8 16 C-8.66 16 -9.32 16 -10 16 C-9.34 14.68 -8.68 13.36 -8 12 C-7.01 12 -6.02 12 -5 12 C-5 11.34 -5 10.68 -5 10 C-3.68 9.67 -2.36 9.34 -1 9 C-1.21 7.89 -1.41 6.77 -1.62 5.62 C-1.69 5.03 -1.69 5.03 -2 2 C-1.34 1.34 -0.68 0.68 0 0 Z M8 6 C9 8 9 8 9 8 Z " fill="#E5D7BE" transform="translate(28,10)"/>
<path d="M0 0 C2.12 0.94 2.12 0.94 4 2 C3.67 4.64 3.34 7.28 3 10 C4.09 9.96 5.19 9.92 6.31 9.88 C10 10 10 10 13 12 C11.25 15.88 11.25 15.88 9 17 C9.33 18.65 9.66 20.3 10 22 C7.65 23.43 6.52 24.09 3.75 23.62 C3.46 23.52 3.46 23.52 2 23 C2 22.34 2 21.68 2 21 C0.68 21.99 -0.64 22.98 -2 24 C-2 23.34 -2 22.68 -2 22 C-2.66 21.67 -3.32 21.34 -4 21 C-3.67 19.35 -3.34 17.7 -3 16 C-2.01 15.67 -1.02 15.34 0 15 C0.33 13.02 0.66 11.04 1 9 C-2.37 9.55 -4.08 10.05 -7 12 C-7.66 11.67 -8.32 11.34 -9 11 C-8.67 11.99 -8.34 12.98 -8 14 C-8.99 14.99 -9.98 15.98 -11 17 C-11.33 16.34 -11.66 15.68 -12 15 C-12.99 14.67 -13.98 14.34 -15 14 C-15 10 -15 10 -13 8 C-12.38 5.88 -12.38 5.88 -12 4 C-10.19 3.31 -10.19 3.31 -8 3 C-6.25 4.44 -6.25 4.44 -5 6 C-4.55 5.2 -4.09 4.39 -3.62 3.56 C-2 1 -2 1 0 0 Z " fill="#E3C8C5" transform="translate(62,10)"/>
<path d="M0 0 C0.99 0.33 1.98 0.66 3 1 C3 1.99 3 2.98 3 4 C3.66 4.33 4.32 4.66 5 5 C4.01 5 3.02 5 2 5 C2 6.13 2 7.27 2 8.44 C2 9.96 2 11.48 2 13 C2.66 13 3.32 13 4 13 C4 13.99 4 14.98 4 16 C3.34 16 2.68 16 2 16 C2 18.64 2 21.28 2 24 C1.01 24 0.02 24 -1 24 C-1.33 23.67 -1.66 23.34 -2 23 C-2 23.66 -2 24.32 -2 25 C-3.65 24.34 -5.3 23.68 -7 23 C-7.66 23.99 -8.32 24.98 -9 26 C-9 25.34 -9 24.68 -9 24 C-10.32 24 -11.64 24 -13 24 C-13.23 23.22 -13.45 22.43 -13.69 21.62 C-15 19 -15 19 -17.62 17.69 C-18.41 17.46 -19.19 17.23 -20 17 C-20 15.68 -20 14.36 -20 13 C-20.99 12.67 -21.98 12.34 -23 12 C-23 11.34 -23 10.68 -23 10 C-23.66 10 -24.32 10 -25 10 C-25 9.01 -25 8.02 -25 7 C-22 5 -22 5 -18 5 C-17.88 5.97 -17.75 6.94 -17.62 7.94 C-17.52 8.44 -17.52 8.44 -17 11 C-16.34 11.33 -15.68 11.66 -15 12 C-14.38 14.06 -14.38 14.06 -14 16 C-11.69 16.33 -9.38 16.66 -7 17 C-7.5 16.59 -7.99 16.17 -8.5 15.75 C-10 14 -10 14 -10 10 C-7.36 10 -4.72 10 -2 10 C-1.97 9.68 -1.97 9.68 -1.82 8.07 C-1.73 7.24 -1.65 6.41 -1.56 5.56 C-1.48 4.74 -1.4 3.92 -1.32 3.07 C-1 1 -1 1 0 0 Z " fill="#8D855B" transform="translate(44,43)"/>
<path d="M0 0 C1.68 0.29 3.34 0.62 5 1 C5.33 2.65 5.66 4.3 6 6 C6.66 6 7.32 6 8 6 C8.33 8.97 8.66 11.94 9 15 C10.32 14.34 11.64 13.68 13 13 C14 14 14 14 14.1 16.5 C14.09 17.51 14.07 18.52 14.06 19.56 C14.05 20.57 14.04 21.59 14.04 22.63 C14.02 23.41 14.01 24.19 14 25 C14.66 25.33 15.32 25.66 16 26 C15.01 26.66 14.02 27.32 13 28 C12.69 28.68 12.38 29.36 12.06 30.06 C11.71 30.7 11.36 31.34 11 32 C10.34 32.16 10.34 32.16 7 33 C8.65 30.36 10.3 27.72 12 25 C11.34 25 10.68 25 10 25 C10 24.34 10 23.68 10 23 C8.68 22.67 7.36 22.34 6 22 C6 20.35 6 18.7 6 17 C5.01 17.33 4.02 17.66 3 18 C2.67 16.68 2.34 15.36 2 14 C2.66 14.33 3.32 14.66 4 15 C2.46 10.28 0.92 5.58 -1 1 C-0.67 0.67 -0.34 0.34 0 0 Z " fill="#B2AB86" transform="translate(47,34)"/>
<path d="M0 0 C0.99 0 1.98 0 3 0 C3 0.66 3 1.32 3 2 C4.32 2.33 5.64 2.66 7 3 C6.77 3.64 6.55 4.28 6.31 4.94 C5.92 8.75 6.99 11.16 8.3 14.71 C9.29 17.94 9.21 20.64 9 24 C9.66 24 10.32 24 11 24 C10.67 26.31 10.34 28.62 10 31 C7.69 30.34 5.38 29.68 3 29 C3 28.01 3 27.02 3 26 C0.5 24.31 0.5 24.31 -2 23 C-1.67 21.35 -1.34 19.7 -1 18 C3.75 18.88 3.75 18.88 6 20 C5.58 17.85 5.14 15.71 4.69 13.56 C4.44 12.37 4.2 11.17 3.95 9.94 C3.64 8.97 3.32 8 3 7 C2.01 6.67 1.02 6.34 0 6 C0 4.02 0 2.04 0 0 Z " fill="#B6A986" transform="translate(29,18)"/>
<path d="M0 0 C0.66 0 1.32 0 2 0 C2 1.32 2 2.64 2 4 C2.99 4 3.98 4 5 4 C5.33 3.34 5.66 2.68 6 2 C6 2.66 6 3.32 6 4 C6.66 4.33 7.32 4.66 8 5 C6.68 5.33 5.36 5.66 4 6 C4 6.66 4 7.32 4 8 C3.34 8 2.68 8 2 8 C2 8.99 2 9.98 2 11 C0.44 11.17 -1.12 11.34 -2.69 11.5 C-3.56 11.59 -4.43 11.69 -5.32 11.78 C-7.9 11.99 -10.42 12.04 -13 12 C-13.33 11.01 -13.66 10.02 -14 9 C-13.34 8.67 -12.68 8.34 -12 8 C-12.33 6.35 -12.66 4.7 -13 3 C-9.31 1.82 -5.85 1.79 -2 2 C-1.01 2.66 -0.02 3.32 1 4 C0.67 2.68 0.34 1.36 0 0 Z " fill="#A6A278" transform="translate(44,70)"/>
<path d="M0 0 C0.66 0 1.32 0 2 0 C2 1.32 2 2.64 2 4 C2.66 4 3.32 4 4 4 C4.33 3.01 4.66 2.02 5 1 C7 3 7 3 7 6 C7.66 6.33 8.32 6.66 9 7 C8.06 9 8.06 9 6 11 C2.97 11.36 0.03 11.23 -3 11 C-2.67 11.99 -2.34 12.98 -2 14 C-3.32 14.33 -4.64 14.66 -6 15 C-6 14.34 -6 13.68 -6 13 C-7.65 13.33 -9.3 13.66 -11 14 C-11.33 13.01 -11.66 12.02 -12 11 C-9.89 8.66 -8.43 7.16 -5.44 6.06 C-2.3 4.69 -1.62 2.93 0 0 Z " fill="#79764D" transform="translate(61,60)"/>
<path d="M0 0 C0.99 0.33 1.98 0.66 3 1 C3 1.99 3 2.98 3 4 C3.66 4.33 4.32 4.66 5 5 C4.01 5 3.02 5 2 5 C2 6.13 2 7.27 2 8.44 C2 9.96 2 11.48 2 13 C2.66 13 3.32 13 4 13 C4 13.99 4 14.98 4 16 C3.34 16 2.68 16 2 16 C1.34 17.32 0.68 18.64 0 20 C0 19.34 0 18.68 0 18 C-0.99 18 -1.98 18 -3 18 C-3 17.34 -3 16.68 -3 16 C-3.66 16 -4.32 16 -5 16 C-4.67 17.32 -4.34 18.64 -4 20 C-5.32 19.34 -6.64 18.68 -8 18 C-7.67 17.67 -7.34 17.34 -7 17 C-7.49 16.59 -7.99 16.17 -8.5 15.75 C-10 14 -10 14 -10 10 C-7.36 10 -4.72 10 -2 10 C-1.94 9.36 -1.88 8.72 -1.82 8.07 C-1.73 7.24 -1.65 6.41 -1.56 5.56 C-1.48 4.74 -1.4 3.92 -1.32 3.07 C-1 1 -1 1 0 0 Z " fill="#AAA27A" transform="translate(44,43)"/>
<path d="M0 0 C0.99 0.33 1.98 0.66 3 1 C3.69 3.06 3.69 3.06 4 5 C2.68 5 1.36 5 0 5 C1.98 5.99 3.96 6.98 6 8 C4.75 9.56 4.75 9.56 3 11 C1.06 10.62 1.06 10.62 -1 10 C-1.35 10.09 -1.35 10.09 -3.12 10.56 C-3.74 10.71 -4.36 10.85 -5 11 C-5.66 10.34 -6.32 9.68 -7 9 C-8.94 9.38 -8.94 9.38 -11 10 C-11.99 10 -12.98 10 -14 10 C-13.34 9.67 -12.68 9.34 -12 9 C-12 8.01 -12 7.02 -12 6 C-11.34 6 -10.68 6 -10 6 C-10 5.34 -10 4.68 -10 4 C-5.62 1 -5.62 1 -3 1 C-3 1.66 -3 2.32 -3 3 C-2.01 2.34 -1.02 1.68 0 1 C0 0.67 0 0.34 0 0 Z " fill="#D1C799" transform="translate(58,72)"/>
<path d="M0 0 C0.33 0.66 0.66 1.32 1 2 C2.98 1.67 4.96 1.34 7 1 C7 3.64 7 6.28 7 9 C3.25 9.96 0.75 9.79 -3 9 C-3.99 9.33 -4.98 9.66 -6 10 C-6.29 9.22 -6.58 8.43 -6.88 7.62 C-8 5 -8 5 -10 3 C-9.36 2.95 -8.72 2.9 -8.07 2.85 C-7.24 2.78 -6.41 2.7 -5.56 2.62 C-4.74 2.56 -3.92 2.49 -3.07 2.41 C-2.38 2.28 -1.7 2.14 -1 2 C-0.67 1.34 -0.34 0.68 0 0 Z " fill="#BEB07C" transform="translate(68,68)"/>
<path d="M0 0 C2.12 0.38 2.12 0.38 4 1 C4 2.98 4 4.96 4 7 C2.68 7.33 1.36 7.66 0 8 C0 9.65 0 11.3 0 13 C-1.65 13 -3.3 13 -5 13 C-4.67 14.32 -4.34 15.64 -4 17 C-4.66 16.67 -5.32 16.34 -6 16 C-6 14.68 -6 13.36 -6 12 C-5.01 12 -4.02 12 -3 12 C-4.32 11.34 -5.64 10.68 -7 10 C-6.67 7.69 -6.34 5.38 -6 3 C-5.38 2.88 -4.76 2.75 -4.12 2.62 C-2 2 -2 2 0 0 Z " fill="#C6A795" transform="translate(59,18)"/>
<path d="M0 0 C0.82 0.33 0.82 0.33 5 2 C5 4.64 5 7.28 5 10 C1.63 10.62 1.63 10.62 -2 11 C-2.66 10.34 -3.32 9.68 -4 9 C-6.13 8.38 -6.13 8.38 -8 8 C-5.64 5.47 -4.34 4.11 -1 3 C-0.67 2.01 -0.34 1.02 0 0 Z " fill="#BDBCA0" transform="translate(18,66)"/>
<path d="M0 0 C1.28 -0.06 2.56 -0.12 3.88 -0.19 C4.23 -0.2 4.23 -0.2 6.05 -0.29 C6.7 -0.2 7.34 -0.1 8 0 C10.57 3.85 9.83 5.59 9 10 C8.67 10 8.34 10 8 10 C8 8.02 8 6.04 8 4 C5.69 4.66 3.38 5.32 1 6 C1 6.99 1 7.98 1 9 C1.66 9 2.32 9 3 9 C3 9.66 3 10.32 3 11 C3.66 11.33 4.32 11.66 5 12 C-0.75 11.25 -0.75 11.25 -3 9 C-2.56 5.83 -1.23 2.94 0 0 Z " fill="#CDC3AB" transform="translate(18,44)"/>
<path d="M0 0 C0.99 0 1.98 0 3 0 C3.66 0.99 4.32 1.98 5 3 C5.66 3 6.32 3 7 3 C7 4.65 7 6.3 7 8 C8.32 8.33 9.64 8.66 11 9 C11 9.66 11 10.32 11 11 C11.66 11 12.32 11 13 11 C12.34 12.32 11.68 13.64 11 15 C10.34 15 9.68 15 9 15 C9.33 13.68 9.66 12.36 10 11 C9.34 11 8.68 11 8 11 C8 11.66 8 12.32 8 13 C7.01 13 6.02 13 5 13 C4.67 11.02 4.34 9.04 4 7 C2.68 7.33 1.36 7.66 0 8 C0 5.36 0 2.72 0 0 Z " fill="#8F8352" transform="translate(46,48)"/>
<path d="M0 0 C2 1 2 1 2 1 Z " fill="#F6F6F4" transform="translate(77,65)"/>
<path d="" fill="#F4F4F3" transform="translate(0,0)"/>
<path d="" fill="#F8F7F4" transform="translate(0,0)"/>
<path d="" fill="#F5F6F4" transform="translate(0,0)"/>
<path d="" fill="#F6F6F4" transform="translate(0,0)"/>
<path d="" fill="#F6F6F4" transform="translate(0,0)"/>
<path d="" fill="#F5F5F4" transform="translate(0,0)"/>
</svg>
