<?xml version="1.0" encoding="UTF-8"?>
<!-- Generator: visioncortex VTracer 0.6.12 -->
<svg version="1.1" xmlns="http://www.w3.org/2000/svg" width="62" height="72">
<path d="M0 0 C7.58 -1.06 7.58 -1.06 10.9 1.42 C13.51 4.41 15.44 6.99 16 11 C14.75 13.25 14.75 13.25 13 15 C12.01 15 11.02 15 10 15 C9.67 16.32 9.34 17.64 9 19 C8.34 19 7.68 19 7 19 C7.66 21.97 8.32 24.94 9 28 C9.19 27.26 9.37 26.52 9.56 25.75 C11.52 22.01 14.15 20.44 18 19 C21 18.43 23.95 18.14 27 18 C27.66 18.99 28.32 19.98 29 21 C28.34 21.33 28.34 21.33 25 23 C25.08 23.72 25.16 24.44 25.25 25.19 C24.93 28.84 23.43 30.35 21 33 C21.52 33.37 22.03 33.74 22.56 34.12 C24 36 24 36 23.69 39.06 C23.46 40.03 23.23 41 23 42 C23 42.66 23 43.32 23 44 C24.32 44.66 25.64 45.32 27 46 C27 46.66 27 47.32 27 48 C25.58 48.17 24.17 48.34 22.75 48.5 C21.96 48.59 21.17 48.69 20.36 48.78 C18 49 18 49 14 49 C14.33 49.99 14.66 50.98 15 52 C11.62 53.13 9.44 52.74 6 52 C4 51.96 2 51.95 0 52 C0 51.01 0 50.02 0 49 C-0.6 49.19 -1.2 49.37 -1.81 49.56 C-4 50 -4 50 -7 49 C-8.32 49 -9.64 49 -11 49 C-10 46 -10 46 -7.94 44.81 C-7.3 44.54 -6.66 44.28 -6 44 C-6.16 43.5 -6.16 43.5 -7 41 C-5.93 41.04 -4.86 41.08 -3.75 41.12 C-0.34 41.01 1.21 40.79 4 39 C2.74 39.06 1.48 39.12 0.19 39.19 C-3.71 39.17 -3.71 39.17 -6 37.81 C-7.31 35.44 -7.07 33.69 -7 31 C-7.69 28.75 -7.69 28.75 -9 27 C-11.62 26.25 -11.62 26.25 -14 26 C-13.67 25.51 -13.67 25.51 -12 23 C-5.72 22.34 -0.83 23.73 5 26 C4.34 24.02 3.68 22.04 3 20 C2.05 20.02 1.1 20.04 0.12 20.06 C-3 20 -3 20 -5 19 C-5 17.68 -5 16.36 -5 15 C-5.99 14.67 -6.98 14.34 -8 14 C-8.33 13.01 -8.66 12.02 -9 11 C-8.34 10.34 -7.68 9.68 -7 9 C-6.86 8.58 -6.86 8.58 -6.12 6.44 C-5.75 5.63 -5.38 4.83 -5 4 C-2.94 3.38 -2.94 3.38 -1 3 C-0.67 2.01 -0.34 1.02 0 0 Z M11 40 C11 40.33 11 40.66 11 41 C12.65 41 14.3 41 16 41 C16 40.67 16 40.34 16 40 C14.35 40 12.7 40 11 40 Z M17 40 C18 42 18 42 18 42 Z " fill="#BAB99F" transform="translate(24,10)"/>
<path d="M0 0 C7.58 -1.06 7.58 -1.06 10.9 1.42 C13.51 4.41 15.44 6.99 16 11 C14.75 13.25 14.75 13.25 13 15 C12.01 15 11.02 15 10 15 C9.67 16.32 9.34 17.64 9 19 C8.34 19 7.68 19 7 19 C7 21.31 7 23.62 7 26 C5 22.25 5 22.25 5 20 C3.72 20.02 2.44 20.04 1.12 20.06 C-2.75 20.13 -2.75 20.13 -5 19 C-5 17.68 -5 16.36 -5 15 C-5.99 14.67 -6.98 14.34 -8 14 C-8.33 13.01 -8.66 12.02 -9 11 C-8.34 10.34 -7.68 9.68 -7 9 C-6.71 8.15 -6.42 7.31 -6.12 6.44 C-5.75 5.63 -5.38 4.83 -5 4 C-2.94 3.38 -2.94 3.38 -1 3 C-0.67 2.01 -0.34 1.02 0 0 Z " fill="#CABB9F" transform="translate(24,10)"/>
<path d="M0 0 C0.33 0.52 0.66 1.03 1 1.56 C0.34 1.89 0.34 1.89 -3 3.56 C-2.94 4.3 -2.88 5.05 -2.81 5.81 C-3.04 9.13 -3.7 10.19 -6 12.56 C-8.48 13.17 -8.48 13.17 -11.19 13.31 C-12.09 13.37 -12.99 13.43 -13.92 13.48 C-14.26 13.5 -14.26 13.5 -16 13.56 C-13.36 13.89 -10.72 14.22 -8 14.56 C-7 19.44 -7 19.44 -7 20.56 C-10.63 20.23 -14.26 19.9 -18 19.56 C-18.33 22.2 -18.66 24.84 -19 27.56 C-19.99 27.56 -20.98 27.56 -22 27.56 C-21.67 25.25 -21.34 22.94 -21 20.56 C-20.34 20.56 -19.68 20.56 -19 20.56 C-19.02 19.67 -19.05 18.78 -19.07 17.86 C-19.09 16.69 -19.11 15.52 -19.12 14.31 C-19.15 13.15 -19.17 11.99 -19.2 10.8 C-19.01 7.68 -18.75 6.1 -17 3.56 C-12.36 0.32 -5.33 -3.83 0 0 Z " fill="#969679" transform="translate(52,29.4375)"/>
<path d="M0 0 C4.24 -0.33 6.36 -0.44 9.94 2 C10.28 2.33 10.28 2.33 12 4 C11.84 4.95 11.67 5.9 11.5 6.88 C11 10 11 10 11 12 C12.32 12.66 13.64 13.32 15 14 C15 14.66 15 15.32 15 16 C13.58 16.17 12.17 16.34 10.75 16.5 C9.96 16.59 9.17 16.69 8.36 16.78 C6 17 6 17 2 17 C2.33 17.99 2.66 18.98 3 20 C0.21 21.03 -0.87 21.05 -3.75 20.06 C-4.12 19.89 -4.12 19.89 -6 19 C-5.84 18.51 -5.84 18.51 -5 16 C-4.34 16 -3.68 16 -3 16 C-3.02 14.89 -3.04 13.77 -3.06 12.62 C-3 9 -3 9 -2 7 C3.75 6.88 3.75 6.88 6 8 C6.66 7.34 7.32 6.68 8 6 C8 5.01 8 4.02 8 3 C5.03 2.67 2.06 2.34 -1 2 C-0.67 1.34 -0.34 0.68 0 0 Z M-1 8 C-1 8.33 -1 8.66 -1 9 C0.65 9 2.3 9 4 9 C4 8.67 4 8.34 4 8 C2.35 8 0.7 8 -1 8 Z " fill="#C4C3AB" transform="translate(36,42)"/>
<path d="M0 0 C3.03 -0.23 5.97 -0.36 9 0 C11.06 2 11.06 2 12 4 C10.25 6.06 10.25 6.06 8 8 C6.19 7.62 6.19 7.62 4 7 C1.65 7.59 -0.69 8.25 -3 9 C-2.34 9.66 -1.68 10.32 -1 11 C-1.33 11.66 -1.66 12.32 -2 13 C-1.01 13 -0.02 13 1 13 C1.66 14.98 2.32 16.96 3 19 C-2.75 20.12 -2.75 20.12 -5 19 C-5 17.68 -5 16.36 -5 15 C-5.99 14.67 -6.98 14.34 -8 14 C-8.33 13.01 -8.66 12.02 -9 11 C-8.34 10.34 -7.68 9.68 -7 9 C-6.71 8.15 -6.42 7.31 -6.12 6.44 C-5.75 5.63 -5.38 4.83 -5 4 C-2.94 3.38 -2.94 3.38 -1 3 C-0.67 2.01 -0.34 1.02 0 0 Z " fill="#E3D9CB" transform="translate(24,10)"/>
<path d="M0 0 C0.82 0.33 0.82 0.33 5 2 C5 1.34 5 0.68 5 0 C6.32 0.33 7.64 0.66 9 1 C9 4.63 9 8.26 9 12 C7.58 12.06 6.15 12.12 4.69 12.19 C4.29 12.2 4.29 12.2 2.26 12.29 C0 12 0 12 -1.78 10.75 C-3.93 7.66 -3.18 4.66 -3 1 C-2.01 1.33 -1.02 1.66 0 2 C0 1.34 0 0.68 0 0 Z " fill="#8E9172" transform="translate(20,37)"/>
<path d="M0 0 C0.66 0 1.32 0 2 0 C2 0.66 2 1.32 2 2 C4.64 2.33 7.28 2.66 10 3 C11 7.88 11 7.88 11 9 C7.37 8.67 3.74 8.34 0 8 C-0.33 10.64 -0.66 13.28 -1 16 C-1.99 16 -2.98 16 -4 16 C-3.67 13.69 -3.34 11.38 -3 9 C-2.34 9 -1.68 9 -1 9 C-0.67 6.03 -0.34 3.06 0 0 Z " fill="#75744D" transform="translate(34,41)"/>
<path d="M0 0 C0.38 0.51 0.76 1.02 1.15 1.54 C0.49 1.87 0.49 1.87 -2.85 3.54 C-2.79 4.31 -2.73 5.07 -2.66 5.86 C-2.85 8.54 -2.85 8.54 -4.35 10.36 C-4.85 10.75 -5.34 11.14 -5.85 11.54 C-6.93 8.89 -7.95 6.26 -8.85 3.54 C-10.5 3.21 -12.15 2.88 -13.85 2.54 C-13.52 1.88 -13.19 1.22 -12.85 0.54 C-10.45 -0.2 -10.45 -0.2 -7.48 -0.77 C-6.5 -0.97 -5.52 -1.17 -4.52 -1.38 C-1.85 -1.46 -1.85 -1.46 0 0 Z " fill="#C9C3A1" transform="translate(51.8515625,29.45703125)"/>
<path d="" fill="#F8F7F4" transform="translate(0,0)"/>
<path d="" fill="#F5F5F3" transform="translate(0,0)"/>
<path d="" fill="#F4F4F4" transform="translate(0,0)"/>
</svg>
