<?xml version="1.0" encoding="UTF-8"?>
<!-- Generator: visioncortex VTracer 0.6.12 -->
<svg version="1.1" xmlns="http://www.w3.org/2000/svg" width="145" height="126">
<path d="M0 0 C3.88 1.75 3.88 1.75 5 4 C7.06 4.62 7.06 4.62 9 5 C10.12 8.75 10.12 8.75 9 11 C11.31 11.33 13.62 11.66 16 12 C16 11.34 16 10.68 16 10 C16.31 8 16.31 8 17 6 C20.7 3.53 21.8 4.18 26 5 C26.33 4.67 26.66 4.34 27 4 C29.44 3.81 29.44 3.81 32 4 C34 6 34 6 34 9 C35.32 9.66 36.64 10.32 38 11 C38 12.98 38 14.96 38 17 C36.35 17.33 34.7 17.66 33 18 C35.24 21.36 35.43 21.19 39 22 C39.16 22.33 39.16 22.33 40 24 C40.27 23.2 40.54 22.39 40.81 21.56 C41.01 21.14 41.01 21.14 42 19 C42.99 18.67 43.98 18.34 45 18 C45.62 18.47 46.24 18.95 46.88 19.44 C49.45 21.33 50.87 21.26 54 21 C55 25.75 55 25.75 55 28 C55.33 28.33 55.33 28.33 57 30 C56.62 32.63 56.62 32.63 56 35 C52.12 36 52.12 36 51 36 C50.38 38.38 50.38 38.38 50 41 C50.66 41.66 51.32 42.32 52 43 C52.33 43.99 52.66 44.98 53 46 C53.12 45.6 53.12 45.6 53.75 43.56 C55 41 55 41 56.94 40 C59 40 59 40 60.75 41.44 C61.16 41.95 61.58 42.47 62 43 C62.99 42.67 63.98 42.34 65 42 C67.19 43.44 67.19 43.44 69 45 C68.79 45.62 68.59 46.24 68.38 46.88 C68.31 47.23 68.31 47.23 68 49 C68.66 49.66 69.32 50.32 70 51 C70.25 53.5 70.25 53.5 70 56 C69.67 56.33 69.67 56.33 68 58 C67.01 58 66.02 58 65 58 C64.34 59.32 63.68 60.64 63 62 C63.5 62.33 63.5 62.33 66 64 C66 64.66 66 65.32 66 66 C66.78 65.94 67.57 65.88 68.38 65.81 C68.81 65.84 68.81 65.84 71 66 C72.79 68.68 73.34 70 74 73 C74.33 73.99 74.66 74.98 75 76 C72.72 79.42 72.61 79.12 69 80 C68.53 80.5 68.05 80.99 67.56 81.5 C65.51 83.47 63.76 83.63 61 84 C61.33 84 61.66 84 62 84 C63.67 84 65.33 84 67 84 C66.84 84.5 66.84 84.5 66 87 C68.31 87.99 70.62 88.98 73 90 C73 90.99 73 91.98 73 93 C69.71 93.8 68.29 94.1 65 93 C65 93.66 65 94.32 65 95 C61.71 95.8 60.29 96.1 57 95 C56.4 95.31 55.8 95.62 55.19 95.94 C52.34 97.32 50.13 97.13 47 97 C44 97 44 97 41 98 C42.98 98.33 44.96 98.66 47 99 C47 100.32 47 101.64 47 103 C40.37 104 40.37 104 37 104 C36.67 104.33 36.34 104.66 36 105 C33.81 105.07 31.62 105.08 29.44 105.06 C28.84 105.06 28.84 105.06 25.81 105.04 C25.35 105.03 25.35 105.03 23 105 C23 104.01 23 103.02 23 102 C20.69 101.67 18.38 101.34 16 101 C15.84 101.5 15.84 101.5 15 104 C11.88 103.51 9 103 6 102 C5.84 102.66 5.84 102.66 5 106 C3.87 105.98 2.73 105.96 1.56 105.94 C-2 106 -2 106 -3 107 C-5.34 106.71 -7.67 106.38 -10 106 C-10 105.34 -10 104.68 -10 104 C-11.11 104.19 -12.23 104.37 -13.38 104.56 C-17 105 -17 105 -19 104 C-19 103.01 -19 102.02 -19 101 C-18.01 100.34 -17.02 99.68 -16 99 C-16.48 98.98 -16.48 98.98 -18.92 98.85 C-20.19 98.78 -21.45 98.7 -22.75 98.62 C-24 98.56 -25.26 98.49 -26.55 98.41 C-29.68 98.04 -31.3 97.43 -34 96 C-35.69 96.62 -37.35 97.28 -39 98 C-39.99 97.67 -40.98 97.34 -42 97 C-42 95.68 -42 94.36 -42 93 C-43.16 93.16 -43.16 93.16 -49 94 C-49.33 93.01 -49.66 92.02 -50 91 C-49.01 90.84 -49.01 90.84 -44 90 C-44 89.34 -44 88.68 -44 88 C-43.5 87.84 -43.5 87.84 -41 87 C-41.33 85.68 -41.66 84.36 -42 83 C-43.65 83 -45.3 83 -47 83 C-46.75 80.12 -46.75 80.12 -46 77 C-43.2 75.16 -40.61 74.65 -37.31 74.31 C-36.52 74.23 -35.74 74.14 -34.93 74.05 C-34.29 74.03 -33.65 74.02 -33 74 C-32.84 74.16 -32.84 74.16 -32 75 C-32 74.01 -32 73.02 -32 72 C-32.93 72.23 -33.86 72.45 -34.81 72.69 C-38 73 -38 73 -39.88 71.75 C-41 70 -41 70 -41 67 C-42.65 67 -44.3 67 -46 67 C-46.08 66.38 -46.16 65.76 -46.25 65.12 C-47 63 -47 63 -49.06 61.75 C-49.7 61.5 -50.34 61.25 -51 61 C-49.8 58.51 -48.55 56.32 -47 54 C-46.92 53.32 -46.84 52.64 -46.75 51.94 C-46.5 51.3 -46.25 50.66 -46 50 C-43.19 48.94 -43.19 48.94 -40 48 C-37.02 46.31 -36.18 45.64 -35.25 42.31 C-35.17 41.55 -35.09 40.79 -35 40 C-35.3 40.11 -35.3 40.11 -36.81 40.69 C-39 41 -39 41 -40.81 39.81 C-42 38 -42 38 -41.88 35.94 C-41 34 -41 34 -38 32 C-38.33 31.01 -38.66 30.02 -39 29 C-36.56 26.05 -34.7 25.63 -31 25 C-28.69 23.94 -28.69 23.94 -27 23 C-26.42 23.64 -25.84 24.28 -25.25 24.94 C-23.02 26.98 -21.93 27.58 -19 28 C-18.94 27.22 -18.88 26.43 -18.81 25.62 C-18.54 24.76 -18.28 23.89 -18 23 C-15.5 21.88 -15.5 21.88 -13 21 C-12.84 20.51 -12.84 20.51 -12 18 C-13.32 17.34 -14.64 16.68 -16 16 C-15.75 13.62 -15.75 13.62 -15 11 C-12.94 9.69 -12.94 9.69 -11 9 C-11.16 8.5 -11.16 8.5 -12 6 C-10.81 4.5 -10.81 4.5 -9 3 C-7.33 3 -5.67 3 -4 3 C-1.69 1.5 -1.69 1.5 0 0 Z M-19 28 C-18.34 28.66 -17.68 29.32 -17 30 C-17 29.34 -17 28.68 -17 28 C-17.66 28 -18.32 28 -19 28 Z M29 33 C29 33.66 29 34.32 29 35 C29.66 34.67 30.32 34.34 31 34 C30.34 33.67 29.68 33.34 29 33 Z M44 40 C44.33 40.99 44.66 41.98 45 43 C45 42.01 45 41.02 45 40 C44.67 40 44.34 40 44 40 Z M-35 46 C-35 46.33 -35 46.66 -35 47 C-33.35 47 -31.7 47 -30 47 C-30 46.67 -30 46.34 -30 46 C-31.65 46 -33.3 46 -35 46 Z M61 80 C62 82 62 82 62 82 Z " fill="#74713E" transform="translate(61,10)"/>
<path d="M0 0 C1.46 -0.08 2.92 -0.14 4.38 -0.19 C5.19 -0.22 6 -0.26 6.84 -0.29 C7.55 -0.2 8.26 -0.1 9 0 C9.66 0.99 10.32 1.98 11 3 C12.32 3 13.64 3 15 3 C15.16 3.5 15.16 3.5 16 6 C17.32 5.67 18.64 5.34 20 5 C19.67 6.32 19.34 7.64 19 9 C18.01 9 17.02 9 16 9 C16.99 10.65 17.98 12.3 19 14 C19.99 13.67 20.98 13.34 22 13 C22.66 13.33 23.32 13.66 24 14 C24 13.34 24 12.68 24 12 C24.66 12 25.32 12 26 12 C26.16 12.5 26.16 12.5 27 15 C26.67 15.66 26.34 16.32 26 17 C26.99 17 27.98 17 29 17 C29 17.99 29 18.98 29 20 C26 21 26 21 23 21 C23 22.65 23 24.3 23 26 C20.69 25.84 20.69 25.84 9 25 C11 27 11 27 13 28 C13 28.99 13 29.98 13 31 C15.97 30.01 18.94 29.02 22 28 C22.66 29.65 23.32 31.3 24 33 C24.66 33 25.32 33 26 33 C26 33.66 26 34.32 26 35 C26.99 35.33 27.98 35.66 29 36 C29.99 34.68 30.98 33.36 32 32 C34.64 32.33 37.28 32.66 40 33 C39.67 36.96 39.34 40.92 39 45 C34 47 34 47 31.69 46.12 C31.13 45.75 30.57 45.38 30 45 C30 46.32 30 47.64 30 49 C29.34 49 28.68 49 28 49 C28.33 49.99 28.66 50.98 29 52 C29.5 52.16 29.5 52.16 32 53 C32 53.99 32 54.98 32 56 C31.3 55.67 30.6 55.34 29.88 55 C26.74 53.91 24.29 53.85 21 54 C20.67 55.32 20.34 56.64 20 58 C20.99 58 21.98 58 23 58 C23 58.66 23 59.32 23 60 C22.01 60 21.02 60 20 60 C19.67 61.32 19.34 62.64 19 64 C20.32 64 21.64 64 23 64 C23 64.66 23 65.32 23 66 C22.17 66.64 21.35 67.28 20.5 67.94 C19.67 68.62 18.85 69.3 18 70 C18 70.99 18 71.98 18 73 C19.65 73 21.3 73 23 73 C23.66 71.68 24.32 70.36 25 69 C26.32 69 27.64 69 29 69 C29 67.68 29 66.36 29 65 C30.98 65 32.96 65 35 65 C36.21 68.62 35.54 69.64 34 73 C35.32 73 36.64 73 38 73 C38.16 72.34 38.16 72.34 39 69 C41.97 69.66 44.94 70.32 48 71 C47.67 69.84 47.67 69.84 46 64 C46.66 63.67 47.32 63.34 48 63 C45.36 63 42.72 63 40 63 C40 61.35 40 59.7 40 58 C38.02 58 36.04 58 34 58 C35.26 55.63 36.27 54.23 38.88 53.39 C40.29 53.09 41.71 52.79 43.14 52.5 C45.44 51.88 46.46 50.78 48 49 C48.99 49 49.98 49 51 49 C52.11 52.32 51.77 53.67 51 57 C51 57.66 51 58.32 51 59 C51.99 59 52.98 59 54 59 C53.84 58.34 53.84 58.34 53 55 C53.66 55 54.32 55 55 55 C55.16 55.66 55.16 55.66 56 59 C56.6 58.48 57.2 57.97 57.81 57.44 C58.53 56.96 59.26 56.49 60 56 C60.5 56.16 60.5 56.16 63 57 C63.69 59.06 63.69 59.06 64 61 C63.03 61.25 62.06 61.5 61.06 61.75 C60.56 61.96 60.56 61.96 58 63 C57.12 65.13 57.12 65.13 57 67 C58.98 67 60.96 67 63 67 C63 67.66 63 68.32 63 69 C61.02 69 59.04 69 57 69 C57.1 69.3 57.1 69.3 57.62 70.81 C58 73 58 73 56 76 C54.02 75.67 54.02 75.67 44 74 C44 74.66 44 75.32 44 76 C43.34 76 42.68 76 42 76 C42 76.66 42 77.32 42 78 C40.68 78.33 39.36 78.66 38 79 C38.33 80.65 38.66 82.3 39 84 C35.37 84 31.74 84 28 84 C27.67 83.34 27.34 82.68 27 82 C26.34 82 25.68 82 25 82 C24.67 83.65 24.34 85.3 24 87 C23.34 87 22.68 87 22 87 C21.67 86.34 21.34 85.68 21 85 C15.37 84.75 15.37 84.75 12 87 C10.68 87 9.36 87 8 87 C8 86.34 8 85.68 8 85 C8.99 85 9.98 85 11 85 C11.16 84.5 11.16 84.5 12 82 C12.33 82.16 12.33 82.16 14 83 C14 82.01 14 81.02 14 80 C10.7 80 7.4 80 4 80 C4 80.66 4 81.32 4 82 C2.25 83.12 2.25 83.12 0 84 C-2.25 83.12 -2.25 83.12 -4 82 C-4.33 82.66 -4.66 83.32 -5 84 C-5.66 84 -6.32 84 -7 84 C-7 84.66 -7 85.32 -7 86 C-13.47 86.13 -13.47 86.13 -16.62 85.38 C-19.63 84.9 -21.24 85.84 -24 87 C-24.99 86.67 -25.98 86.34 -27 86 C-27 84.68 -27 83.36 -27 82 C-28.16 82.16 -28.16 82.16 -34 83 C-34.33 82.01 -34.66 81.02 -35 80 C-34.01 79.84 -34.01 79.84 -29 79 C-29 78.34 -29 77.68 -29 77 C-28.5 76.84 -28.5 76.84 -26 76 C-26.33 74.68 -26.66 73.36 -27 72 C-28.65 72 -30.3 72 -32 72 C-31.75 69.12 -31.75 69.12 -31 66 C-28.2 64.16 -25.61 63.65 -22.31 63.31 C-21.52 63.23 -20.74 63.14 -19.93 63.05 C-19.29 63.03 -18.65 63.02 -18 63 C-17.84 63.16 -17.84 63.16 -17 64 C-17 63.01 -17 62.02 -17 61 C-17.93 61.23 -18.86 61.45 -19.81 61.69 C-23 62 -23 62 -24.88 60.75 C-26 59 -26 59 -26 56 C-27.65 56 -29.3 56 -31 56 C-31.04 55.69 -31.04 55.69 -31.25 54.12 C-32 52 -32 52 -34.06 50.75 C-34.7 50.5 -35.34 50.25 -36 50 C-34.8 47.51 -33.55 45.32 -32 43 C-31.92 42.32 -31.84 41.64 -31.75 40.94 C-31.5 40.3 -31.25 39.66 -31 39 C-28.19 37.94 -28.19 37.94 -25 37 C-22.02 35.31 -21.18 34.64 -20.25 31.31 C-20.17 30.55 -20.09 29.79 -20 29 C-20.3 29.11 -20.3 29.11 -21.81 29.69 C-24 30 -24 30 -25.81 28.81 C-27 27 -27 27 -26.88 24.94 C-26 23 -26 23 -23 21 C-23.33 20.01 -23.66 19.02 -24 18 C-21.56 15.05 -19.7 14.63 -16 14 C-13.69 12.94 -13.69 12.94 -12 12 C-11.42 12.64 -10.84 13.28 -10.25 13.94 C-8.02 15.98 -6.93 16.58 -4 17 C-3.94 16.22 -3.88 15.43 -3.81 14.62 C-3.54 13.76 -3.28 12.89 -3 12 C-0.5 10.88 -0.5 10.88 2 10 C2.33 9.01 2.66 8.02 3 7 C1.68 6.34 0.36 5.68 -1 5 C-0.67 3.35 -0.34 1.7 0 0 Z M-4 17 C-3.34 17.66 -2.68 18.32 -2 19 C-2 18.34 -2 17.68 -2 17 C-2.66 17 -3.32 17 -4 17 Z M-20 35 C-20 35.33 -20 35.66 -20 36 C-18.35 36 -16.7 36 -15 36 C-15 35.67 -15 35.34 -15 35 C-16.65 35 -18.3 35 -20 35 Z " fill="#495440" transform="translate(46,21)"/>
<path d="M0 0 C3.88 1.75 3.88 1.75 5 4 C7.06 4.62 7.06 4.62 9 5 C10.12 8.75 10.12 8.75 9 11 C11.31 11.33 13.62 11.66 16 12 C16 11.34 16 10.68 16 10 C16.31 8 16.31 8 17 6 C20.7 3.53 21.8 4.18 26 5 C26.33 4.67 26.66 4.34 27 4 C29.44 3.81 29.44 3.81 32 4 C34 6 34 6 34 9 C35.32 9.66 36.64 10.32 38 11 C38 12.98 38 14.96 38 17 C36.35 17.33 34.7 17.66 33 18 C35.24 21.36 35.43 21.19 39 22 C39.16 22.33 39.16 22.33 40 24 C40.27 23.2 40.54 22.39 40.81 21.56 C41.01 21.14 41.01 21.14 42 19 C42.99 18.67 43.98 18.34 45 18 C45.62 18.47 46.24 18.95 46.88 19.44 C49.45 21.33 50.87 21.26 54 21 C55 25.75 55 25.75 55 28 C55.33 28.33 55.33 28.33 57 30 C56.62 32.62 56.62 32.62 56 35 C52.12 36 52.12 36 51 36 C50.38 38.37 50.38 38.37 50 41 C50.66 41.66 51.32 42.32 52 43 C52.33 43.99 52.66 44.98 53 46 C53.12 45.6 53.12 45.6 53.75 43.56 C55 41 55 41 56.94 40 C59 40 59 40 60.75 41.44 C61.16 41.95 61.58 42.47 62 43 C62.99 42.67 63.98 42.34 65 42 C67.19 43.44 67.19 43.44 69 45 C68.79 45.62 68.59 46.24 68.38 46.88 C68.31 47.23 68.31 47.23 68 49 C68.66 49.66 69.32 50.32 70 51 C70.25 53.5 70.25 53.5 70 56 C69.67 56.33 69.67 56.33 68 58 C67.01 58 66.02 58 65 58 C64.34 59.32 63.68 60.64 63 62 C57.6 61.65 57.6 61.65 55 61 C53.44 59.06 53.44 59.06 53 57 C53.16 56.67 53.16 56.67 54 55 C53.24 55.06 52.47 55.12 51.69 55.19 C49 55 49 55 47.19 53.5 C46.8 53.01 46.4 52.51 46 52 C44.68 52.66 43.36 53.32 42 54 C42.33 54.66 42.66 55.32 43 56 C45.06 56.62 45.06 56.62 47 57 C47.16 57.66 47.16 57.66 48 61 C45.03 59.88 42.67 58.78 40 57 C39.01 57.66 38.02 58.32 37 59 C36.01 59 35.02 59 34 59 C34 57.68 34 56.36 34 55 C32.84 54.5 32.84 54.5 27 52 C27.99 51.67 28.98 51.34 30 51 C30 50.34 30 49.68 30 49 C37.63 47 37.63 47 41 47 C41.14 46.42 41.29 45.84 41.44 45.25 C42 43 42 43 42.69 41.12 C43.14 38.07 42.1 35.84 41 33 C40.34 33.16 40.34 33.16 37 34 C37.16 34.66 37.16 34.66 38 38 C36.68 38 35.36 38 34 38 C34.5 38.95 34.99 39.9 35.5 40.88 C37 44 37 44 37 46 C36.34 46.16 36.34 46.16 33 47 C33 46.34 33 45.68 33 45 C32.34 45 31.68 45 31 45 C30.73 44.36 30.46 43.72 30.19 43.06 C29 41 29 41 26 40 C26 40.99 26 41.98 26 43 C25.01 43 24.02 43 23 43 C23 42.34 23 41.68 23 41 C22.17 41.16 22.17 41.16 18 42 C17.71 41.2 17.42 40.39 17.12 39.56 C16 37 16 37 14 36 C14 35.34 14 34.68 14 34 C14.66 34 15.32 34 16 34 C15.67 32.02 15.34 30.04 15 28 C17.31 28 19.62 28 22 28 C22 29.32 22 30.64 22 32 C21.01 32 20.02 32 19 32 C19 33.32 19 34.64 19 36 C22.47 33.8 23.95 32 25 28 C24.62 25.19 24.62 25.19 24 23 C23.26 23.54 22.52 24.07 21.75 24.62 C21.3 24.85 21.3 24.85 19 26 C16.69 25.19 16.69 25.19 15 24 C15 22.68 15 21.36 15 20 C14.34 20 13.68 20 13 20 C13.33 18.35 13.66 16.7 14 15 C10.37 15 6.74 15 3 15 C3 15.66 3 16.32 3 17 C2.34 17 1.68 17 1 17 C0.34 16.01 -0.32 15.02 -1 14 C-2.32 14.33 -3.64 14.66 -5 15 C-5.33 14.01 -5.66 13.02 -6 12 C-8.31 11.67 -10.62 11.34 -13 11 C-12.34 10.34 -11.68 9.68 -11 9 C-11.33 8.01 -11.66 7.02 -12 6 C-10.81 4.5 -10.81 4.5 -9 3 C-7.33 3 -5.67 3 -4 3 C-1.69 1.5 -1.69 1.5 0 0 Z M29 33 C29 33.66 29 34.32 29 35 C29.66 34.67 30.32 34.34 31 34 C30.34 33.67 29.68 33.34 29 33 Z M44 40 C44.33 40.99 44.66 41.98 45 43 C45 42.01 45 41.02 45 40 C44.67 40 44.34 40 44 40 Z " fill="#BDB078" transform="translate(61,10)"/>
<path d="M0 0 C5.75 1.75 5.75 1.75 8 4 C7.63 6.62 7.63 6.62 7 9 C7.99 9 8.98 9 10 9 C9.44 12.24 8.59 13.93 6 16 C5.34 16 4.68 16 4 16 C4 16.66 4 17.32 4 18 C4.66 18 5.32 18 6 18 C6 19.32 6 20.64 6 22 C5.67 22.16 5.67 22.16 4 23 C3.28 24.64 2.61 26.31 2 28 C2.78 28.21 3.57 28.41 4.38 28.62 C7 30 7 30 8.31 33.12 C8.54 34.07 8.77 35.02 9 36 C9.99 35.84 9.99 35.84 15 35 C15.27 35.97 15.54 36.94 15.81 37.94 C16.2 38.95 16.6 39.96 17 41 C19.67 41.89 22.24 42.48 25 43 C25 41.35 25 39.7 25 38 C25.99 38 26.98 38 28 38 C28 40.97 28 43.94 28 47 C26.52 47.16 26.52 47.16 19 48 C19 49.65 19 51.3 19 53 C17.68 53 16.36 53 15 53 C15 52.34 15 51.68 15 51 C13.35 50.67 11.7 50.34 10 50 C9.67 51.65 9.34 53.3 9 55 C7.68 55 6.36 55 5 55 C4.67 54.01 4.34 53.02 4 52 C3.34 52.16 3.34 52.16 0 53 C-0.16 52.01 -0.16 52.01 -1 47 C-1.66 47 -2.32 47 -3 47 C-3.66 48.32 -4.32 49.64 -5 51 C-5.99 50.34 -6.98 49.68 -8 49 C-8 48.34 -8 47.68 -8 47 C-9.98 47.66 -11.96 48.32 -14 49 C-13.34 49.33 -12.68 49.66 -12 50 C-12.66 53.3 -13.32 56.6 -14 60 C-12.35 60 -10.7 60 -9 60 C-9.33 60.66 -9.66 61.32 -10 62 C-11.65 62 -13.3 62 -15 62 C-15.33 61.34 -15.66 60.68 -16 60 C-16.99 60.66 -17.98 61.32 -19 62 C-22.19 61.62 -22.19 61.62 -25 61 C-25.33 59.35 -25.66 57.7 -26 56 C-27.65 56 -29.3 56 -31 56 C-31.04 55.69 -31.04 55.69 -31.25 54.12 C-32 52 -32 52 -34.06 50.75 C-34.7 50.5 -35.34 50.25 -36 50 C-34.8 47.51 -33.55 45.32 -32 43 C-31.92 42.32 -31.84 41.64 -31.75 40.94 C-31.5 40.3 -31.25 39.66 -31 39 C-28.19 37.94 -28.19 37.94 -25 37 C-22.02 35.31 -21.18 34.64 -20.25 31.31 C-20.17 30.55 -20.09 29.79 -20 29 C-20.3 29.11 -20.3 29.11 -21.81 29.69 C-24 30 -24 30 -25.81 28.81 C-27 27 -27 27 -26.88 24.94 C-26 23 -26 23 -23 21 C-23.33 20.01 -23.66 19.02 -24 18 C-21.56 15.05 -19.7 14.63 -16 14 C-13.69 12.94 -13.69 12.94 -12 12 C-11.42 12.64 -10.84 13.28 -10.25 13.94 C-8.02 15.98 -6.93 16.58 -4 17 C-3.94 16.22 -3.88 15.43 -3.81 14.62 C-3.54 13.76 -3.28 12.89 -3 12 C-0.5 10.88 -0.5 10.88 2 10 C2.33 9.01 2.66 8.02 3 7 C1.68 6.34 0.36 5.68 -1 5 C-0.67 3.35 -0.34 1.7 0 0 Z M-4 17 C-3.34 17.66 -2.68 18.32 -2 19 C-2 18.34 -2 17.68 -2 17 C-2.66 17 -3.32 17 -4 17 Z M-20 35 C-20 35.33 -20 35.66 -20 36 C-18.35 36 -16.7 36 -15 36 C-15 35.67 -15 35.34 -15 35 C-16.65 35 -18.3 35 -20 35 Z " fill="#4F5A43" transform="translate(46,21)"/>
<path d="M0 0 C2.31 0.66 4.62 1.32 7 2 C7 2.66 7 3.32 7 4 C7.39 3.97 7.39 3.97 9.38 3.81 C9.81 3.84 9.81 3.84 12 4 C13.79 6.68 14.34 8 15 11 C15.16 11.5 15.16 11.5 16 14 C13.72 17.42 13.61 17.12 10 18 C9.53 18.5 9.05 18.99 8.56 19.5 C6.51 21.47 4.76 21.63 2 22 C2.33 22 2.66 22 3 22 C4.67 22 6.33 22 8 22 C7.84 22.5 7.84 22.5 7 25 C9.31 25.99 11.62 26.98 14 28 C14 28.99 14 29.98 14 31 C10.71 31.8 9.29 32.1 6 31 C6 31.66 6 32.32 6 33 C2.71 33.8 1.29 34.1 -2 33 C-2.6 33.31 -3.2 33.62 -3.81 33.94 C-6.66 35.32 -8.87 35.13 -12 35 C-15 35 -15 35 -18 36 C-16.02 36.33 -14.04 36.66 -12 37 C-12 38.32 -12 39.64 -12 41 C-18.63 42 -18.63 42 -22 42 C-22.33 42.33 -22.66 42.66 -23 43 C-25.19 43.07 -27.38 43.08 -29.56 43.06 C-30.16 43.06 -30.16 43.06 -33.19 43.04 C-34.12 43.02 -35.05 43.01 -36 43 C-36 42.01 -36 41.02 -36 40 C-38.31 39.67 -40.62 39.34 -43 39 C-43.33 39.99 -43.66 40.98 -44 42 C-47.12 41.51 -50 41 -53 40 C-53.33 41.32 -53.66 42.64 -54 44 C-55.13 43.98 -56.27 43.96 -57.44 43.94 C-61 44 -61 44 -62 45 C-64.34 44.71 -66.67 44.38 -69 44 C-69 43.34 -69 42.68 -69 42 C-70.11 42.19 -71.23 42.37 -72.38 42.56 C-76 43 -76 43 -78 42 C-78 41.01 -78 40.02 -78 39 C-77.01 38.34 -76.02 37.68 -75 37 C-75.98 36.96 -76.95 36.93 -77.96 36.89 C-79.23 36.82 -80.5 36.76 -81.81 36.69 C-83.08 36.63 -84.34 36.57 -85.64 36.51 C-89 36 -89 36 -92 33 C-88.37 33.66 -84.74 34.32 -81 35 C-81 34.34 -81 33.68 -81 33 C-80.34 33 -79.68 33 -79 33 C-78.67 32.01 -78.34 31.02 -78 30 C-77.62 30.18 -77.62 30.18 -75.69 31.06 C-73 32 -73 32 -70 31 C-70 30.34 -70 29.68 -70 29 C-62.25 27.88 -62.25 27.88 -60 29 C-60 29.99 -60 30.98 -60 32 C-60.66 32 -61.32 32 -62 32 C-62.33 32.66 -62.66 33.32 -63 34 C-63.99 34 -64.98 34 -66 34 C-66 34.66 -66 35.32 -66 36 C-64.97 35.5 -63.94 35.01 -62.88 34.5 C-59.48 33.03 -56.73 32.73 -53 33 C-52.67 33.99 -52.34 34.98 -52 36 C-51.34 36 -50.68 36 -50 36 C-50 35.34 -50 34.68 -50 34 C-47.36 34 -44.72 34 -42 34 C-42 34.99 -42 35.98 -42 37 C-40.68 37 -39.36 37 -38 37 C-37.34 36.34 -36.68 35.68 -36 35 C-34.68 35.66 -33.36 36.32 -32 37 C-31.67 35.02 -31.34 33.04 -31 31 C-30.84 31.33 -30.84 31.33 -30 33 C-29.34 33 -28.68 33 -28 33 C-28 32.34 -28 31.68 -28 31 C-26.58 30.83 -25.17 30.66 -23.75 30.5 C-22.96 30.41 -22.17 30.31 -21.36 30.22 C-19 30 -19 30 -15 30 C-14.67 28.35 -14.34 26.7 -14 25 C-13.34 25 -12.68 25 -12 25 C-11.84 25.66 -11.84 25.66 -11 29 C-7.56 27.81 -7.56 27.81 -4 26 C-2.93 23.13 -3 21.06 -3 18 C-1.68 18.99 -0.36 19.98 1 21 C1.37 15.43 1.37 15.43 -0.5 13.25 C-1 12.84 -1.49 12.42 -2 12 C-2 11.34 -2 10.68 -2 10 C-3.65 10.33 -5.3 10.66 -7 11 C-7 9.02 -7 7.04 -7 5 C-6.22 4.73 -5.43 4.46 -4.62 4.19 C-2 3 -2 3 0 0 Z M2 18 C3 20 3 20 3 20 Z " fill="#938F60" transform="translate(120,72)"/>
<path d="M0 0 C5.75 1.75 5.75 1.75 8 4 C7.63 6.62 7.63 6.62 7 9 C7.99 9 8.98 9 10 9 C9.44 12.24 8.59 13.93 6 16 C5.34 16 4.68 16 4 16 C4 16.66 4 17.32 4 18 C4.66 18 5.32 18 6 18 C6 19.32 6 20.64 6 22 C5.67 22.16 5.67 22.16 4 23 C3.28 24.64 2.61 26.31 2 28 C2.39 28.1 2.39 28.1 4.38 28.62 C7 30 7 30 8.31 33.12 C8.54 34.07 8.77 35.02 9 36 C9.99 35.84 9.99 35.84 15 35 C15.16 35.66 15.16 35.66 16 39 C14.84 39.16 14.84 39.16 9 40 C9.66 40.99 10.32 41.98 11 43 C10.62 45.19 10.62 45.19 10 47 C9.01 46.67 8.02 46.34 7 46 C6.67 45.34 6.34 44.68 6 44 C3.94 43.38 3.94 43.38 2 43 C2 42.34 2 41.68 2 41 C1.34 41 0.68 41 0 41 C0 40.34 0 39.68 0 39 C-0.66 39 -1.32 39 -2 39 C-2 37.02 -2 35.04 -2 33 C-2.3 32.94 -2.3 32.94 -3.81 32.62 C-6 32 -6 32 -9 30 C-9.33 30.99 -9.66 31.98 -10 33 C-9.34 33.33 -8.68 33.66 -8 34 C-8 34.66 -8 35.32 -8 36 C-10.9 37.93 -11.9 38.3 -15.19 38.62 C-16.45 38.75 -17.7 38.87 -19 39 C-19 38.34 -19 37.68 -19 37 C-20.65 37 -22.3 37 -24 37 C-23.76 36.8 -23.76 36.8 -22.56 35.81 C-20.65 33.59 -20.39 31.87 -20 29 C-20.3 29.11 -20.3 29.11 -21.81 29.69 C-24 30 -24 30 -25.81 28.81 C-27 27 -27 27 -26.88 24.94 C-26 23 -26 23 -23 21 C-23.33 20.01 -23.66 19.02 -24 18 C-21.56 15.05 -19.7 14.63 -16 14 C-13.69 12.94 -13.69 12.94 -12 12 C-11.42 12.64 -10.84 13.28 -10.25 13.94 C-8.02 15.98 -6.93 16.58 -4 17 C-3.94 16.22 -3.88 15.43 -3.81 14.62 C-3.54 13.76 -3.28 12.89 -3 12 C-0.5 10.88 -0.5 10.88 2 10 C2.33 9.01 2.66 8.02 3 7 C1.68 6.34 0.36 5.68 -1 5 C-0.67 3.35 -0.34 1.7 0 0 Z M-4 17 C-3.34 17.66 -2.68 18.32 -2 19 C-2 18.34 -2 17.68 -2 17 C-2.66 17 -3.32 17 -4 17 Z M-20 35 C-20 35.33 -20 35.66 -20 36 C-18.35 36 -16.7 36 -15 36 C-15 35.67 -15 35.34 -15 35 C-16.65 35 -18.3 35 -20 35 Z " fill="#96946D" transform="translate(46,21)"/>
<path d="M0 0 C3.88 1.75 3.88 1.75 5 4 C7.06 4.62 7.06 4.62 9 5 C10.12 8.75 10.12 8.75 9 11 C11.31 11.33 13.62 11.66 16 12 C16 11.34 16 10.68 16 10 C16.31 8 16.31 8 17 6 C20.7 3.53 21.8 4.18 26 5 C26.33 4.67 26.66 4.34 27 4 C29.44 3.81 29.44 3.81 32 4 C34 6 34 6 34 9 C35.32 9.66 36.64 10.32 38 11 C38 12.98 38 14.96 38 17 C36.35 17.33 34.7 17.66 33 18 C33.16 18.44 33.16 18.44 34 20.69 C34.93 23.76 35.34 25.84 35 29 C34.34 29.99 33.68 30.98 33 32 C32.34 32 31.68 32 31 32 C30.84 32.33 30.84 32.33 30 34 C29.67 34.16 29.67 34.16 28 35 C28 34.01 28 33.02 28 32 C26.68 32 25.36 32 24 32 C24.09 31.72 24.09 31.72 24.56 30.31 C25.08 27.6 24.66 25.66 24 23 C23.26 23.54 22.52 24.07 21.75 24.62 C21.3 24.85 21.3 24.85 19 26 C16.69 25.19 16.69 25.19 15 24 C15 22.68 15 21.36 15 20 C14.34 20 13.68 20 13 20 C13.33 18.35 13.66 16.7 14 15 C10.37 15 6.74 15 3 15 C3 15.66 3 16.32 3 17 C2.34 17 1.68 17 1 17 C0.34 16.01 -0.32 15.02 -1 14 C-2.32 14.33 -3.64 14.66 -5 15 C-5.33 14.01 -5.66 13.02 -6 12 C-8.31 11.67 -10.62 11.34 -13 11 C-12.34 10.34 -11.68 9.68 -11 9 C-11.33 8.01 -11.66 7.02 -12 6 C-10.81 4.5 -10.81 4.5 -9 3 C-7.33 3 -5.67 3 -4 3 C-1.69 1.5 -1.69 1.5 0 0 Z " fill="#C9BC85" transform="translate(61,10)"/>
<path d="M0 0 C3.63 0 7.26 0 11 0 C10.67 1.65 10.34 3.3 10 5 C10.66 5 11.32 5 12 5 C12.66 6.65 13.32 8.3 14 10 C14.6 9.67 15.2 9.34 15.81 9 C18 8 18 8 21 8 C22.25 10.63 22.25 10.63 23 14 C21.06 17.82 20.12 19.63 16 21 C16 19.68 16 18.36 16 17 C16.66 16.67 17.32 16.34 18 16 C18 15.34 18 14.68 18 14 C16.35 14 14.7 14 13 14 C13 15.65 13 17.3 13 19 C12.34 19 11.68 19 11 19 C11 19.66 11 20.32 11 21 C11.99 21.33 12.98 21.66 14 22 C14.33 23.65 14.66 25.3 15 27 C16.65 26.67 18.3 26.34 20 26 C20 26.66 20 27.32 20 28 C20.99 28 21.98 28 23 28 C23 27.01 23 26.02 23 25 C24.32 25.33 25.64 25.66 27 26 C27.16 26.66 27.16 26.66 28 30 C28.66 30 29.32 30 30 30 C30 30.66 30 31.32 30 32 C31.32 31.67 32.64 31.34 34 31 C33.5 30.24 33.01 29.47 32.5 28.69 C31 26 31 26 31 23 C31.99 22.67 32.98 22.34 34 22 C34 20.68 34 19.36 34 18 C35.32 18 36.64 18 38 18 C38.12 18.8 38.25 19.61 38.38 20.44 C38.58 21.28 38.79 22.13 39 23 C39.66 23.33 40.32 23.66 41 24 C38.87 31.43 38.87 31.43 35.69 33.5 C32.73 34.05 30 34.14 27 34 C27 34.66 27 35.32 27 36 C26.67 36.16 26.67 36.16 25 37 C26.32 37.66 27.64 38.32 29 39 C28.01 39 27.02 39 26 39 C26 39.66 26 40.32 26 41 C24.06 41.56 24.06 41.56 22 42 C21 41 21 41 20.87 39.04 C20.87 38.24 20.87 37.45 20.88 36.62 C20.87 36.23 20.87 36.23 20.87 34.23 C21 32 21 32 22 29 C14.62 28.51 14.62 28.51 11.5 31 C11 31.66 10.51 32.32 10 33 C10 32.34 10 31.68 10 31 C9.34 31 8.68 31 8 31 C8 30.34 8 29.68 8 29 C7.34 29 6.68 29 6 29 C5.34 27.35 4.68 25.7 4 24 C3.07 24.5 2.14 24.99 1.19 25.5 C-2 27 -2 27 -5 27 C-5 26.01 -5 25.02 -5 24 C-6.32 24 -7.64 24 -9 24 C-9.33 23.01 -9.66 22.02 -10 21 C-6.99 19.5 -4.65 20.39 -1.38 20.94 C-0.19 21.13 1 21.33 2.23 21.53 C3.14 21.68 4.06 21.84 5 22 C4.67 20.35 4.34 18.7 4 17 C7 15 7 15 9.19 15.38 C9.79 15.58 10.38 15.79 11 16 C11 15.01 11 14.02 11 13 C10.01 13 9.02 13 8 13 C8 11.35 8 9.7 8 8 C7.34 8 6.68 8 6 8 C6 8.66 6 9.32 6 10 C4.02 10.33 2.04 10.66 0 11 C-0.66 9.02 -1.32 7.04 -2 5 C-1.01 4.67 -0.02 4.34 1 4 C1.33 3.01 1.66 2.02 2 1 C1.34 0.67 0.68 0.34 0 0 Z " fill="#807A42" transform="translate(64,25)"/>
<path d="M0 0 C2.31 0 4.62 0 7 0 C7.16 0.66 7.16 0.66 8 4 C6.02 4.66 4.04 5.32 2 6 C2 7.65 2 9.3 2 11 C3.32 11 4.64 11 6 11 C6.08 11.62 6.16 12.24 6.25 12.88 C7 15 7 15 9.06 16.25 C9.7 16.5 10.34 16.75 11 17 C10.34 17 9.68 17 9 17 C9 18.65 9 20.3 9 22 C7.68 21.67 6.36 21.34 5 21 C5.16 21.5 5.16 21.5 6 24 C5 26.56 5 26.56 3 29 C-0.69 30.31 -0.69 30.31 -4 31 C-4 29.35 -4 27.7 -4 26 C-4.33 26.16 -4.33 26.16 -6 27 C-6.62 29.06 -6.62 29.06 -7 31 C-11.38 31.59 -15.58 32.14 -20 32 C-20 32.66 -20 33.32 -20 34 C-20.66 34 -21.32 34 -22 34 C-22.66 35.32 -23.32 36.64 -24 38 C-24.62 37.79 -25.24 37.59 -25.88 37.38 C-26.23 37.31 -26.23 37.31 -28 37 C-28.66 37.66 -29.32 38.32 -30 39 C-33.12 38.62 -33.12 38.62 -36 38 C-35.34 37.34 -34.68 36.68 -34 36 C-34.95 36.04 -35.9 36.08 -36.88 36.12 C-40 36 -40 36 -42 34 C-41.01 33.01 -40.02 32.02 -39 31 C-38.67 31.99 -38.34 32.98 -38 34 C-36.35 33.84 -36.35 33.84 -28 33 C-28.33 31.68 -28.66 30.36 -29 29 C-27.35 28.67 -25.7 28.34 -24 28 C-24 27.34 -24 26.68 -24 26 C-23.34 26 -22.68 26 -22 26 C-22 25.34 -22 24.68 -22 24 C-13.43 23.71 -13.43 23.71 -10 26 C-9.67 23.69 -9.34 21.38 -9 19 C-7.02 19 -5.04 19 -3 19 C-4.98 18.34 -6.96 17.68 -9 17 C-8.67 15.35 -8.34 13.7 -8 12 C-7.01 12 -6.02 12 -5 12 C-4.67 11.34 -4.34 10.68 -4 10 C-3.34 10.33 -2.68 10.66 -2 11 C-2.16 10.5 -2.16 10.5 -3 8 C-2.34 8 -1.68 8 -1 8 C-0.67 5.36 -0.34 2.72 0 0 Z " fill="#74754B" transform="translate(112,71)"/>
<path d="M0 0 C2.5 0.31 2.5 0.31 5 1 C5.16 1.33 5.16 1.33 6 3 C6.99 2.67 7.98 2.34 9 2 C11.19 3.44 11.19 3.44 13 5 C12.79 5.62 12.59 6.24 12.38 6.88 C12.31 7.23 12.31 7.23 12 9 C12.66 9.66 13.32 10.32 14 11 C14.25 13.5 14.25 13.5 14 16 C13.34 16.66 12.68 17.32 12 18 C11.01 18 10.02 18 9 18 C8.34 19.32 7.68 20.64 7 22 C1.6 21.65 1.6 21.65 -1 21 C-2.56 19.06 -2.56 19.06 -3 17 C-2.67 16.34 -2.34 15.68 -2 15 C-2.76 15.06 -3.53 15.12 -4.31 15.19 C-7 15 -7 15 -8.81 13.5 C-9.2 13.01 -9.6 12.51 -10 12 C-10.66 12.33 -10.66 12.33 -14 14 C-13.67 14.66 -13.34 15.32 -13 16 C-10.94 16.62 -10.94 16.62 -9 17 C-8.67 18.32 -8.34 19.64 -8 21 C-10.97 19.88 -13.33 18.78 -16 17 C-16.99 17.66 -17.98 18.32 -19 19 C-19.99 19 -20.98 19 -22 19 C-22 17.68 -22 16.36 -22 15 C-24.31 14.01 -26.62 13.02 -29 12 C-28.01 11.67 -27.02 11.34 -26 11 C-26 10.34 -26 9.68 -26 9 C-18.38 7 -18.38 7 -15 7 C-14.67 6.01 -14.34 5.02 -14 4 C-12.68 4.33 -11.36 4.66 -10 5 C-10 4.34 -10 3.68 -10 3 C-9.17 3.16 -9.17 3.16 -5 4 C-5 4.99 -5 5.98 -5 7 C-2.21 5.61 -2.07 3.84 -1 1 C-0.67 0.67 -0.34 0.34 0 0 Z " fill="#9E9152" transform="translate(117,50)"/>
<path d="M0 0 C3.38 -0.19 3.38 -0.19 7 0 C7.66 0.99 8.32 1.98 9 3 C10.32 3 11.64 3 13 3 C13.33 3.99 13.66 4.98 14 6 C15.32 5.67 16.64 5.34 18 5 C17.67 6.32 17.34 7.64 17 9 C16.01 9 15.02 9 14 9 C14.99 10.65 15.98 12.3 17 14 C17.99 13.67 18.98 13.34 20 13 C20.66 13.33 21.32 13.66 22 14 C22 13.34 22 12.68 22 12 C22.66 12 23.32 12 24 12 C24.33 12.99 24.66 13.98 25 15 C24.67 15.66 24.34 16.32 24 17 C24.99 17 25.98 17 27 17 C27 17.99 27 18.98 27 20 C24 21 24 21 21 21 C21 22.65 21 24.3 21 26 C18.69 25.84 18.69 25.84 7 25 C9 27 9 27 11 28 C11 28.99 11 29.98 11 31 C13.97 30.01 16.94 29.02 20 28 C21 31 21 31 20.22 32.82 C19.15 34.55 18.07 36.27 17 38 C16.01 38 15.02 38 14 38 C13.67 37.34 13.34 36.68 13 36 C12.54 36.11 12.54 36.11 10.19 36.69 C7 37 7 37 5.12 35.56 C4.94 35.3 4.94 35.3 4 34 C4.66 34 5.32 34 6 34 C5.31 32.06 5.31 32.06 4 30 C1.38 29.25 1.38 29.25 -1 29 C-0.51 27.84 -0.51 27.84 2 22 C2.66 22 3.32 22 4 22 C4 20.68 4 19.36 4 18 C3.34 18 2.68 18 2 18 C2 17.34 2 16.68 2 16 C2.66 16 3.32 16 4 16 C4.33 15.01 4.66 14.02 5 13 C5.66 12.67 6.32 12.34 7 12 C7.33 11.01 7.66 10.02 8 9 C6.35 9.33 4.7 9.66 3 10 C3.66 9.34 4.32 8.68 5 8 C5.62 5.88 5.62 5.88 6 4 C5.38 3.9 4.76 3.79 4.12 3.69 C2 3 2 3 0 0 Z " fill="#6C6F4A" transform="translate(48,21)"/>
<path d="M0 0 C0.99 0 1.98 0 3 0 C4.11 3.32 3.77 4.67 3 8 C3 8.66 3 9.32 3 10 C3.99 10 4.98 10 6 10 C5.67 8.68 5.34 7.36 5 6 C5.66 6 6.32 6 7 6 C7.33 7.32 7.66 8.64 8 10 C8.6 9.48 9.2 8.97 9.81 8.44 C10.53 7.96 11.26 7.49 12 7 C12.5 7.17 12.5 7.17 15 8 C15.69 10.06 15.69 10.06 16 12 C15.03 12.25 14.06 12.5 13.06 12.75 C12.56 12.96 12.56 12.96 10 14 C9.12 16.12 9.12 16.12 9 18 C10.98 18 12.96 18 15 18 C15 18.66 15 19.32 15 20 C13.02 20 11.04 20 9 20 C9.21 20.6 9.41 21.2 9.62 21.81 C10 24 10 24 8 27 C6.02 26.67 6.02 26.67 -4 25 C-4 25.66 -4 26.32 -4 27 C-4.66 27 -5.32 27 -6 27 C-6 27.66 -6 28.32 -6 29 C-8.67 29 -11.33 29 -14 29 C-15.71 30.63 -17.38 32.29 -19 34 C-17.75 30.54 -16.32 27.85 -14 25 C-12.02 25.33 -10.04 25.66 -8 26 C-8 24.02 -8 22.04 -8 20 C-5.36 20.66 -2.72 21.32 0 22 C-0.66 19.69 -1.32 17.38 -2 15 C-1.34 14.67 -0.68 14.34 0 14 C-2.64 14 -5.28 14 -8 14 C-8 12.35 -8 10.7 -8 9 C-9.98 9 -11.96 9 -14 9 C-12.74 6.63 -11.73 5.23 -9.12 4.39 C-7.71 4.09 -6.29 3.79 -4.86 3.5 C-2.56 2.88 -1.54 1.78 0 0 Z " fill="#40432F" transform="translate(94,70)"/>
<path d="M0 0 C0 0.99 0 1.98 0 3 C-0.66 3 -1.32 3 -2 3 C-2.33 3.66 -2.66 4.32 -3 5 C-3.99 5 -4.98 5 -6 5 C-6 5.66 -6 6.32 -6 7 C-4.97 6.5 -3.94 6.01 -2.88 5.5 C0.52 4.03 3.27 3.73 7 4 C7.16 4.5 7.16 4.5 8 7 C8.66 7 9.32 7 10 7 C10 6.34 10 5.68 10 5 C12.64 5 15.28 5 18 5 C18 5.99 18 6.98 18 8 C17.34 8.33 16.68 8.66 16 9 C16 9.66 16 10.32 16 11 C13.03 11 10.06 11 7 11 C6.67 12.32 6.34 13.64 6 15 C4.87 14.98 3.73 14.96 2.56 14.94 C-1 15 -1 15 -2 16 C-4.34 15.71 -6.67 15.38 -9 15 C-9 14.34 -9 13.68 -9 13 C-9.56 13.09 -9.56 13.09 -12.38 13.56 C-16 14 -16 14 -18 13 C-18 12.01 -18 11.02 -18 10 C-17.01 9.34 -16.02 8.68 -15 8 C-15.49 7.98 -15.49 7.98 -17.96 7.89 C-19.23 7.82 -20.5 7.76 -21.81 7.69 C-23.08 7.63 -24.34 7.57 -25.64 7.51 C-29 7 -29 7 -32 4 C-28.37 4.66 -24.74 5.32 -21 6 C-21 5.34 -21 4.68 -21 4 C-20.34 4 -19.68 4 -19 4 C-18.67 3.01 -18.34 2.02 -18 1 C-17.24 1.35 -16.47 1.7 -15.69 2.06 C-13 3 -13 3 -10 2 C-10 1.34 -10 0.68 -10 0 C-6.34 -0.75 -3.58 -1.24 0 0 Z " fill="#848661" transform="translate(60,101)"/>
<path d="M0 0 C1.32 0 2.64 0 4 0 C4 1.32 4 2.64 4 4 C6.33 4.78 8.61 5.42 11 6 C11 7.65 11 9.3 11 11 C13.64 10.67 16.28 10.34 19 10 C19.33 10.66 19.66 11.32 20 12 C19.01 12 18.02 12 17 12 C17.33 12.6 17.66 13.2 18 13.81 C19 16 19 16 19 19 C13.38 19.25 13.38 19.25 10 17 C9.67 18.32 9.34 19.64 9 21 C7.68 21 6.36 21 5 21 C5.33 18.69 5.66 16.38 6 14 C5.01 13.84 5.01 13.84 0 13 C0 14.32 0 15.64 0 17 C-1.32 17 -2.64 17 -4 17 C-4.33 17.83 -4.33 17.83 -6 22 C-7.65 22 -9.3 22 -11 22 C-11.75 20.25 -11.75 20.25 -12 18 C-10.19 15.75 -10.19 15.75 -8 14 C-7.34 14 -6.68 14 -6 14 C-6 13.34 -6 12.68 -6 12 C-7.32 12 -8.64 12 -10 12 C-9.67 10.68 -9.34 9.36 -9 8 C-8.01 8 -7.02 8 -6 8 C-6 7.34 -6 6.68 -6 6 C-6.99 6 -7.98 6 -9 6 C-8.67 4.35 -8.34 2.7 -8 1 C-3.33 0.67 -0.83 1.29 3 4 C3 3.01 3 2.02 3 1 C2.01 0.67 1.02 0.34 0 0 Z " fill="#807F43" transform="translate(75,73)"/>
<path d="M0 0 C3.88 1.75 3.88 1.75 5 4 C7.06 4.62 7.06 4.62 9 5 C10.12 8.75 10.12 8.75 9 11 C9.38 11.05 9.38 11.05 11.31 11.31 C14.17 12.04 15.16 12.77 17 15 C17 14.34 17 13.68 17 13 C18.32 13.33 19.64 13.66 21 14 C21.33 13.34 21.66 12.68 22 12 C22.16 12.33 22.16 12.33 23 14 C24.32 14 25.64 14 27 14 C26.67 15.65 26.34 17.3 26 19 C25.11 18.96 24.23 18.92 23.31 18.88 C20.01 19 18 19.75 15 21 C14.34 20.67 13.68 20.34 13 20 C13.33 18.35 13.66 16.7 14 15 C10.37 15 6.74 15 3 15 C3 15.66 3 16.32 3 17 C2.34 17 1.68 17 1 17 C0.34 16.01 -0.32 15.02 -1 14 C-2.32 14.33 -3.64 14.66 -5 15 C-5.33 14.01 -5.66 13.02 -6 12 C-8.31 11.67 -10.62 11.34 -13 11 C-12.34 10.34 -11.68 9.68 -11 9 C-11.33 8.01 -11.66 7.02 -12 6 C-10.81 4.5 -10.81 4.5 -9 3 C-7.33 3 -5.67 3 -4 3 C-1.69 1.5 -1.69 1.5 0 0 Z " fill="#A89E66" transform="translate(61,10)"/>
<path d="M0 0 C2.52 3.78 2.47 7.62 2 12 C1 14.5 1 14.5 0 16 C0.99 16 1.98 16 3 16 C3.33 14.35 3.66 12.7 4 11 C4.66 11 5.32 11 6 11 C6 12.32 6 13.64 6 15 C6.99 14.34 7.98 13.68 9 13 C10.32 13 11.64 13 13 13 C12.34 16.3 11.68 19.6 11 23 C12.65 23 14.3 23 16 23 C15.67 23.66 15.34 24.32 15 25 C13.35 25 11.7 25 10 25 C9.67 24.34 9.34 23.68 9 23 C8.01 23.66 7.02 24.32 6 25 C2.81 24.62 2.81 24.62 0 24 C-0.33 22.35 -0.66 20.7 -1 19 C-2.65 19 -4.3 19 -6 19 C-6.04 18.69 -6.04 18.69 -6.25 17.12 C-7 15 -7 15 -9.06 13.75 C-9.7 13.5 -10.34 13.25 -11 13 C-9.8 10.51 -8.55 8.32 -7 6 C-6.92 5.32 -6.84 4.64 -6.75 3.94 C-6.5 3.3 -6.25 2.66 -6 2 C-2.94 0.75 -2.94 0.75 0 0 Z " fill="#88938B" transform="translate(21,58)"/>
<path d="M0 0 C0.66 0 1.32 0 2 0 C2 0.66 2 1.32 2 2 C2.66 2 3.32 2 4 2 C4 2.66 4 3.32 4 4 C4.99 4.33 5.98 4.66 7 5 C7.99 3.68 8.98 2.36 10 1 C12.64 1.33 15.28 1.66 18 2 C17.67 5.96 17.34 9.92 17 14 C12 16 12 16 9.69 15.12 C9.13 14.75 8.57 14.38 8 14 C8 15.32 8 16.64 8 18 C7.34 18 6.68 18 6 18 C6.33 18.99 6.66 19.98 7 21 C7.99 21.33 8.98 21.66 10 22 C10 22.99 10 23.98 10 25 C9.66 24.85 9.66 24.85 7.94 24.06 C4.63 22.87 1.48 22.41 -2 22 C-2.33 20.35 -2.66 18.7 -3 17 C-0.03 16.67 2.94 16.34 6 16 C6 13.03 6 10.06 6 7 C5.01 7 4.02 7 3 7 C3 8.65 3 10.3 3 12 C-0.31 12.25 -0.31 12.25 -4 12 C-5.94 10 -5.94 10 -7 8 C-5.47 6.8 -3.94 5.59 -2.41 4.39 C-1 3 -1 3 0 0 Z " fill="#44482E" transform="translate(68,52)"/>
<path d="M0 0 C1.32 0.33 2.64 0.66 4 1 C4.33 2.65 4.66 4.3 5 6 C4.67 6.16 4.67 6.16 3 7 C3 8.32 3 9.64 3 11 C4.32 11 5.64 11 7 11 C6.67 11.99 6.34 12.98 6 14 C6 13.34 6 12.68 6 12 C4.68 12.33 3.36 12.66 2 13 C2.33 14.32 2.66 15.64 3 17 C1.68 17 0.36 17 -1 17 C-0.5 17.95 -0.01 18.9 0.5 19.88 C2 23 2 23 2 25 C0.68 25.33 -0.64 25.66 -2 26 C-2 25.34 -2 24.68 -2 24 C-2.66 24 -3.32 24 -4 24 C-4.27 23.36 -4.54 22.72 -4.81 22.06 C-6 20 -6 20 -9 19 C-9 19.99 -9 20.98 -9 22 C-9.99 22 -10.98 22 -12 22 C-12 21.34 -12 20.68 -12 20 C-13.65 20.33 -15.3 20.66 -17 21 C-17.29 20.2 -17.58 19.39 -17.88 18.56 C-19 16 -19 16 -21 15 C-21 14.34 -21 13.68 -21 13 C-20.34 13 -19.68 13 -19 13 C-19.33 11.02 -19.66 9.04 -20 7 C-17.69 7 -15.38 7 -13 7 C-13 8.32 -13 9.64 -13 11 C-13.99 11 -14.98 11 -16 11 C-16 12.32 -16 13.64 -16 15 C-15.26 14.34 -14.52 13.68 -13.75 13 C-11 11 -11 11 -7 11 C-7 11.99 -7 12.98 -7 14 C-6.01 14 -5.02 14 -4 14 C-4 13.01 -4 12.02 -4 11 C-3.34 11 -2.68 11 -2 11 C-1.93 10.37 -1.93 10.37 -1.56 7.19 C-1.26 4.57 -0.84 2.53 0 0 Z " fill="#B5A663" transform="translate(96,31)"/>
<path d="M0 0 C0.66 0.66 1.32 1.32 2 2 C5.09 2.24 7.03 1.99 10 1 C10 1.99 10 2.98 10 4 C11.65 4 13.3 4 15 4 C15 4.33 15 4.66 15 5 C12 5 9 5 6 5 C5.01 5.33 4.02 5.66 3 6 C4.98 6.33 6.96 6.66 9 7 C9 8.32 9 9.64 9 11 C2.38 12 2.38 12 -1 12 C-1.33 12.33 -1.66 12.66 -2 13 C-4.19 13.07 -6.38 13.08 -8.56 13.06 C-9.16 13.06 -9.16 13.06 -12.19 13.04 C-13.12 13.02 -14.05 13.01 -15 13 C-15 12.01 -15 11.02 -15 10 C-17.31 9.67 -19.62 9.34 -22 9 C-22.33 9.99 -22.66 10.98 -23 12 C-23.99 11.84 -23.99 11.84 -29 11 C-29 10.67 -29 10.34 -29 10 C-27.02 10 -25.04 10 -23 10 C-23 9.34 -23 8.68 -23 8 C-22.05 7.88 -21.1 7.75 -20.12 7.62 C-17 7 -17 7 -15 5 C-13.68 5.66 -12.36 6.32 -11 7 C-10.67 5.02 -10.34 3.04 -10 1 C-9.67 1.66 -9.34 2.32 -9 3 C-8.34 3 -7.68 3 -7 3 C-7 2.34 -7 1.68 -7 1 C-2.25 0 -2.25 0 0 0 Z " fill="#B9B693" transform="translate(99,102)"/>
<path d="M0 0 C1.12 1.69 1.12 1.69 2 4 C0.96 8.07 -1.29 10.84 -4 14 C-3.34 14.33 -2.68 14.66 -2 15 C-2.66 16.32 -3.32 17.64 -4 19 C-5.98 18.67 -7.96 18.34 -10 18 C-9.34 18.99 -8.68 19.98 -8 21 C-4.87 21.19 -4.87 21.19 -2 21 C-3.69 23.06 -3.69 23.06 -6 25 C-8.75 24.75 -8.75 24.75 -11 24 C-11 22.68 -11 21.36 -11 20 C-13.31 20.33 -15.62 20.66 -18 21 C-18.33 20.01 -18.66 19.02 -19 18 C-17.02 17.67 -15.04 17.34 -13 17 C-13 16.34 -13 15.68 -13 15 C-12.01 14.67 -11.02 14.34 -10 14 C-10.33 12.68 -10.66 11.36 -11 10 C-12.65 10 -14.3 10 -16 10 C-15.75 7.12 -15.75 7.12 -15 4 C-12.2 2.16 -9.61 1.65 -6.31 1.31 C-5.52 1.23 -4.74 1.14 -3.93 1.05 C-3.29 1.03 -2.65 1.02 -2 1 C-1.67 1.33 -1.34 1.66 -1 2 C-0.67 1.34 -0.34 0.68 0 0 Z " fill="#6F7E78" transform="translate(30,83)"/>
<path d="M0 0 C0.33 0.99 0.66 1.98 1 3 C1.8 3.27 2.61 3.54 3.44 3.81 C6 5 6 5 7.31 8.12 C7.43 8.6 7.43 8.6 8 11 C9.98 10.67 11.96 10.34 14 10 C14.33 11.32 14.66 12.64 15 14 C12.69 14.33 10.38 14.66 8 15 C8.33 15.5 8.33 15.5 10 18 C9.62 20.19 9.62 20.19 9 22 C8.01 21.67 7.02 21.34 6 21 C5.67 20.34 5.34 19.68 5 19 C2.94 18.38 2.94 18.38 1 18 C1 17.34 1 16.68 1 16 C0.34 16 -0.32 16 -1 16 C-1 15.34 -1 14.68 -1 14 C-1.66 14 -2.32 14 -3 14 C-3 12.02 -3 10.04 -3 8 C-3.62 7.9 -4.24 7.79 -4.88 7.69 C-7 7 -7 7 -9 4 C-8.34 4 -7.68 4 -7 4 C-7 3.01 -7 2.02 -7 1 C-4.54 -0.23 -2.72 -0.07 0 0 Z " fill="#777547" transform="translate(47,46)"/>
<path d="M0 0 C3.63 0 7.26 0 11 0 C11 0.66 11 1.32 11 2 C10.17 2.64 9.35 3.28 8.5 3.94 C7.67 4.62 6.85 5.3 6 6 C6 6.99 6 7.98 6 9 C7.65 9 9.3 9 11 9 C11.66 7.68 12.32 6.36 13 5 C14.32 5 15.64 5 17 5 C17.33 3.68 17.66 2.36 18 1 C21.02 6.32 21.02 6.32 20.94 9.12 C19.71 11.58 18.03 13.17 16 15 C16.33 12.69 16.66 10.38 17 8 C16.34 8 15.68 8 15 8 C14.34 9.98 13.68 11.96 13 14 C11.68 13.67 10.36 13.34 9 13 C9.66 14.65 10.32 16.3 11 18 C10.34 18 9.68 18 9 18 C7.39 15.99 5.98 13.88 4.54 11.75 C4.03 11.17 3.52 10.59 3 10 C2.01 10 1.02 10 0 10 C0 10.66 0 11.32 0 12 C-3.3 11.34 -6.6 10.68 -10 10 C-10.33 11.65 -10.66 13.3 -11 15 C-10.01 15.33 -9.02 15.66 -8 16 C-8 16.66 -8 17.32 -8 18 C-9.32 17.67 -10.64 17.34 -12 17 C-12 16.34 -12 15.68 -12 15 C-13.65 15 -15.3 15 -17 15 C-17.33 13.68 -17.66 12.36 -18 11 C-17.01 11 -16.02 11 -15 11 C-15 11.66 -15 12.32 -15 13 C-14.34 13 -13.68 13 -13 13 C-13.33 12.01 -13.66 11.02 -14 10 C-5.29 6.64 -5.29 6.64 0 8 C2.31 7.06 2.31 7.06 4 6 C4 5.34 4 4.68 4 4 C4.66 4 5.32 4 6 4 C6 3.34 6 2.68 6 2 C4.02 2.66 2.04 3.32 0 4 C0 2.68 0 1.36 0 0 Z " fill="#383F31" transform="translate(58,85)"/>
<path d="M0 0 C2.5 0.31 2.5 0.31 5 1 C5.33 1.66 5.66 2.32 6 3 C6.99 2.67 7.98 2.34 9 2 C11.19 3.44 11.19 3.44 13 5 C12.9 5.31 12.9 5.31 12.38 6.88 C12.25 7.58 12.13 8.28 12 9 C12.66 9.66 13.32 10.32 14 11 C14.25 13.5 14.25 13.5 14 16 C13.34 16.66 12.68 17.32 12 18 C11.01 18 10.02 18 9 18 C8.34 18.99 7.68 19.98 7 21 C6.88 15.25 6.88 15.25 8 13 C7.62 13.02 7.62 13.02 5.7 13.11 C4.71 13.13 3.71 13.16 2.69 13.19 C1.7 13.22 0.72 13.26 -0.3 13.29 C-3 13 -3 13 -4.88 11.62 C-6 10 -6 10 -5.69 7.81 C-5.57 7.51 -5.57 7.51 -5 6 C-4.34 6 -3.68 6 -3 6 C-2.69 5.2 -2.38 4.39 -2.06 3.56 C-1 1 -1 1 0 0 Z " fill="#BAB17F" transform="translate(117,50)"/>
<path d="M0 0 C3 0 3 0 4.69 1.5 C5.12 2 5.55 2.49 6 3 C6.66 2.01 7.32 1.02 8 0 C8.66 0 9.32 0 10 0 C10.33 1.98 10.66 3.96 11 6 C12.65 5.34 14.3 4.68 16 4 C16.33 5.32 16.66 6.64 17 8 C17.66 8 18.32 8 19 8 C19.66 6.35 20.32 4.7 21 3 C23.38 3.19 23.38 3.19 26 4 C27.31 6.56 27.31 6.56 28 9 C23.42 11.99 23.42 11.99 21 13 C18.56 12.25 18.56 12.25 17 11 C17.33 12.32 17.66 13.64 18 15 C17.62 15.13 17.62 15.13 15.69 15.81 C13.13 16.94 11.8 17.91 10 20 C9.01 19.67 8.02 19.34 7 19 C7 18.01 7 17.02 7 16 C7.99 16 8.98 16 10 16 C10.09 12.17 9.88 8.73 9 5 C8.43 5.16 7.87 5.31 7.29 5.47 C6.55 5.67 5.82 5.86 5.06 6.06 C4.33 6.26 3.6 6.46 2.85 6.66 C2.24 6.77 1.63 6.88 1 7 C0 6 0 6 -0.06 2.94 C-0.04 1.97 -0.02 1 0 0 Z " fill="#313E36" transform="translate(35,68)"/>
<path d="M0 0 C0.99 0 1.98 0 3 0 C3 2.97 3 5.94 3 9 C1.52 9.16 1.52 9.16 -6 10 C-6 11.65 -6 13.3 -6 15 C-7.32 15 -8.64 15 -10 15 C-10 14.34 -10 13.68 -10 13 C-11.65 12.67 -13.3 12.34 -15 12 C-15.33 13.65 -15.66 15.3 -16 17 C-16.99 17.33 -17.98 17.66 -19 18 C-18.67 14.7 -18.34 11.4 -18 8 C-17.01 8 -16.02 8 -15 8 C-15.33 6.02 -15.66 4.04 -16 2 C-13.19 1.31 -13.19 1.31 -10 1 C-8.98 1.98 -7.98 2.98 -7 4 C-3.31 4.69 -3.31 4.69 0 5 C0 3.35 0 1.7 0 0 Z " fill="#6D6D44" transform="translate(71,59)"/>
<path d="M0 0 C0.99 0 1.98 0 3 0 C3.33 1.65 3.66 3.3 4 5 C6.64 4.67 9.28 4.34 12 4 C14.04 8.07 14.03 10.59 13 15 C12.01 15 11.02 15 10 15 C11 18 11 18 13 20 C12.01 20.33 11.02 20.66 10 21 C10 22.65 10 24.3 10 26 C6.27 24.76 5.2 23.19 3 20 C3 19.01 3 18.02 3 17 C3.66 17 4.32 17 5 17 C4.67 16.01 4.34 15.02 4 14 C4.33 13.34 4.66 12.68 5 12 C3.35 12 1.7 12 0 12 C0.33 10.68 0.66 9.36 1 8 C0.34 7.67 -0.32 7.34 -1 7 C-0.34 7 0.32 7 1 7 C1.33 5.35 1.66 3.7 2 2 C1.01 1.67 0.02 1.34 -1 1 C-0.67 0.67 -0.34 0.34 0 0 Z " fill="#4C6260" transform="translate(32,69)"/>
<path d="M0 0 C3.63 0 7.26 0 11 0 C10.67 1.65 10.34 3.3 10 5 C10.66 5 11.32 5 12 5 C12.66 6.65 13.32 8.3 14 10 C14.6 9.67 15.2 9.34 15.81 9 C18 8 18 8 21 8 C22.25 10.63 22.25 10.63 23 14 C21.06 17.82 20.12 19.63 16 21 C16 19.68 16 18.36 16 17 C16.66 16.67 17.32 16.34 18 16 C18 15.34 18 14.68 18 14 C16.91 14.02 15.81 14.04 14.69 14.06 C11 14 11 14 8 13 C8 11.35 8 9.7 8 8 C7.34 8 6.68 8 6 8 C6 8.66 6 9.32 6 10 C4.02 10.33 2.04 10.66 0 11 C-0.66 9.02 -1.32 7.04 -2 5 C-1.01 4.67 -0.02 4.34 1 4 C1.33 3.01 1.66 2.02 2 1 C1.34 0.67 0.68 0.34 0 0 Z " fill="#8C844B" transform="translate(64,25)"/>
<path d="M0 0 C4.02 4.26 4.02 4.26 3.94 7.62 C2.92 10.2 2.29 11.45 0 13 C-2.69 13.19 -2.69 13.19 -5 13 C-5.33 14.32 -5.66 15.64 -6 17 C-6.99 17 -7.98 17 -9 17 C-8.67 18.65 -8.34 20.3 -8 22 C-8.66 22 -9.32 22 -10 22 C-10 20.68 -10 19.36 -10 18 C-10.66 18.33 -11.32 18.66 -12 19 C-12.62 21.06 -12.62 21.06 -13 23 C-13.99 23 -14.98 23 -16 23 C-15.96 22.67 -15.96 22.67 -15.78 21.02 C-15.28 16.33 -14.88 11.73 -15 7 C-13.35 7 -11.7 7 -10 7 C-10 7.66 -10 8.32 -10 9 C-6.37 8.01 -2.74 7.02 1 6 C1 5.34 1 4.68 1 4 C0.01 3.67 -0.98 3.34 -2 3 C-1.34 2.01 -0.68 1.02 0 0 Z " fill="#61684F" transform="translate(37,51)"/>
<path d="M0 0 C1.32 0 2.64 0 4 0 C4 1.32 4 2.64 4 4 C4.99 4.33 5.98 4.66 7 5 C1.49 8.88 1.49 8.88 -1.31 9.56 C-1.87 9.71 -2.43 9.85 -3 10 C-3.33 10.99 -3.66 11.98 -4 13 C-3.34 13.33 -2.68 13.66 -2 14 C-2 14.99 -2 15.98 -2 17 C-2.66 17 -3.32 17 -4 17 C-4.33 17.83 -4.33 17.83 -6 22 C-7.65 22 -9.3 22 -11 22 C-11.75 20.25 -11.75 20.25 -12 18 C-10.19 15.75 -10.19 15.75 -8 14 C-7.34 14 -6.68 14 -6 14 C-6 13.34 -6 12.68 -6 12 C-7.32 12 -8.64 12 -10 12 C-9.67 10.68 -9.34 9.36 -9 8 C-8.01 8 -7.02 8 -6 8 C-6 7.34 -6 6.68 -6 6 C-6.99 6 -7.98 6 -9 6 C-8.67 4.35 -8.34 2.7 -8 1 C-3.33 0.67 -0.83 1.29 3 4 C3 3.01 3 2.02 3 1 C2.01 0.67 1.02 0.34 0 0 Z " fill="#67673D" transform="translate(75,73)"/>
<path d="M0 0 C5.75 1.75 5.75 1.75 8 4 C7.62 6.62 7.62 6.62 7 9 C7.99 9 8.98 9 10 9 C9.44 12.24 8.59 13.93 6 16 C5.34 16 4.68 16 4 16 C4 16.66 4 17.32 4 18 C4.66 18 5.32 18 6 18 C6 19.32 6 20.64 6 22 C3.67 22.38 1.34 22.71 -1 23 C-2 22 -2 22 -2.06 19.44 C-2.04 18.63 -2.02 17.83 -2 17 C-2.66 17 -3.32 17 -4 17 C-3.81 14.62 -3.81 14.62 -3 12 C-0.5 10.88 -0.5 10.88 2 10 C2.33 9.01 2.66 8.02 3 7 C1.68 6.34 0.36 5.68 -1 5 C-0.67 3.35 -0.34 1.7 0 0 Z " fill="#787C61" transform="translate(46,21)"/>
<path d="M0 0 C2.31 0 4.62 0 7 0 C7.33 1.32 7.66 2.64 8 4 C6.02 4.66 4.04 5.32 2 6 C2 7.65 2 9.3 2 11 C3.32 11 4.64 11 6 11 C6.04 11.31 6.04 11.31 6.25 12.88 C7 15 7 15 9.06 16.25 C9.7 16.5 10.34 16.75 11 17 C10.34 17 9.68 17 9 17 C9 18.65 9 20.3 9 22 C8.01 21.67 7.02 21.34 6 21 C5.88 20.03 5.75 19.06 5.62 18.06 C5.42 17.05 5.21 16.04 5 15 C3 14 3 14 -1 14 C-1.66 15.32 -2.32 16.64 -3 18 C-4.98 17.67 -6.96 17.34 -9 17 C-8.67 15.35 -8.34 13.7 -8 12 C-7.01 12 -6.02 12 -5 12 C-4.67 11.34 -4.34 10.68 -4 10 C-3.34 10.33 -2.68 10.66 -2 11 C-2.33 10.01 -2.66 9.02 -3 8 C-2.34 8 -1.68 8 -1 8 C-0.67 5.36 -0.34 2.72 0 0 Z " fill="#586043" transform="translate(112,71)"/>
<path d="M0 0 C1.65 0 3.3 0 5 0 C6.21 3.62 5.54 4.64 4 8 C5.32 8 6.64 8 8 8 C8.66 6.68 9.32 5.36 10 4 C10 5.98 10 7.96 10 10 C8.02 10 6.04 10 4 10 C3.34 11.32 2.68 12.64 2 14 C2.99 13.01 3.98 12.02 5 11 C5.66 11.33 6.32 11.66 7 12 C7.73 14.31 8.4 16.65 9 19 C5.37 19 1.74 19 -2 19 C-2.33 18.34 -2.66 17.68 -3 17 C-3.66 17 -4.32 17 -5 17 C-5.33 18.65 -5.66 20.3 -6 22 C-6.66 22 -7.32 22 -8 22 C-8.33 21.01 -8.66 20.02 -9 19 C-8.34 18.67 -7.68 18.34 -7 18 C-6.22 16.17 -5.52 14.31 -4.88 12.44 C-4.52 11.43 -4.17 10.41 -3.8 9.37 C-3.67 8.98 -3.67 8.98 -3 7 C-2.34 7 -1.68 7 -1 7 C-1 8.98 -1 10.96 -1 13 C0.56 11.31 0.56 11.31 2 9 C1.75 6.5 1.75 6.5 1 4 C0.81 3.24 0.63 2.47 0.44 1.69 C0.29 1.13 0.15 0.57 0 0 Z " fill="#545638" transform="translate(76,86)"/>
<path d="M0 0 C3.49 1.11 6.77 2.26 10 4 C10 4.99 10 5.98 10 7 C12.97 6.01 15.94 5.02 19 4 C20 7 20 7 19.22 8.82 C18.15 10.55 17.07 12.27 16 14 C15.01 14 14.02 14 13 14 C12.67 13.34 12.34 12.68 12 12 C11.54 12.11 11.54 12.11 9.19 12.69 C6 13 6 13 4.12 11.56 C3.94 11.3 3.94 11.3 3 10 C3.66 10 4.32 10 5 10 C4.31 8.06 4.31 8.06 3 6 C0.38 5.25 0.38 5.25 -2 5 C-1.34 3.35 -0.68 1.7 0 0 Z " fill="#545A3A" transform="translate(49,45)"/>
<path d="M0 0 C0.33 0.66 0.66 1.32 1 2 C2.32 2 3.64 2 5 2 C5 2.66 5 3.32 5 4 C5.99 4.17 5.99 4.17 11 5 C10.01 5.33 9.02 5.66 8 6 C8 6.99 8 7.98 8 9 C5.69 8.67 3.38 8.34 1 8 C1 8.66 1 9.32 1 10 C-1.96 11.48 -4.74 11.06 -8 11 C-8 10.01 -8 9.02 -8 8 C-8.99 8.66 -9.98 9.32 -11 10 C-14.69 9.62 -14.69 9.62 -18 9 C-17.34 8.34 -16.68 7.68 -16 7 C-14.68 7 -13.36 7 -12 7 C-11.67 5.35 -11.34 3.7 -11 2 C-10.34 2 -9.68 2 -9 2 C-8.67 3.32 -8.34 4.64 -8 6 C-4.56 4.69 -4.56 4.69 -1 3 C-0.67 2.01 -0.34 1.02 0 0 Z " fill="#939168" transform="translate(117,95)"/>
<path d="M0 0 C0.66 0 1.32 0 2 0 C2 1.32 2 2.64 2 4 C2.99 3.34 3.98 2.68 5 2 C6.32 2 7.64 2 9 2 C8.34 5.3 7.68 8.6 7 12 C8.65 12 10.3 12 12 12 C11.67 12.66 11.34 13.32 11 14 C9.35 14 7.7 14 6 14 C5.67 13.34 5.34 12.68 5 12 C4.01 12.66 3.02 13.32 2 14 C0.68 14 -0.64 14 -2 14 C-3.33 8.08 -2.66 5.22 0 0 Z " fill="#768276" transform="translate(25,69)"/>
<path d="M0 0 C0 0.66 0 1.32 0 2 C1.32 2 2.64 2 4 2 C4 2.66 4 3.32 4 4 C1 5 1 5 -2 5 C-2 6.65 -2 8.3 -2 10 C-6.29 9.67 -10.58 9.34 -15 9 C-14.34 7.68 -13.68 6.36 -13 5 C-12.34 5 -11.68 5 -11 5 C-11 4.34 -11 3.68 -11 3 C-11.99 3.33 -12.98 3.66 -14 4 C-14 3.01 -14 2.02 -14 1 C-13.26 1.04 -12.52 1.08 -11.75 1.12 C-9 1 -9 1 -7 -0.06 C-4.34 -1.31 -2.76 -0.77 0 0 Z " fill="#474E35" transform="translate(71,37)"/>
<path d="M0 0 C0.99 0.17 0.99 0.17 6 1 C5.34 1.66 4.68 2.32 4 3 C4.66 3.66 5.32 4.32 6 5 C4.35 5.33 2.7 5.66 1 6 C1.33 6 1.66 6 2 6 C3.67 6 5.33 6 7 6 C6.67 6.99 6.34 7.98 6 9 C7.16 9.5 7.16 9.5 13 12 C13 12.99 13 13.98 13 15 C9.71 15.8 8.29 16.1 5 15 C5 15.66 5 16.32 5 17 C2.69 17.69 2.69 17.69 0 18 C-1.81 16.56 -1.81 16.56 -3 15 C-0.69 15.33 1.62 15.66 4 16 C3.62 14.06 3.62 14.06 3 12 C2.34 11.67 1.68 11.34 1 11 C1 10.34 1 9.68 1 9 C-0.32 9 -1.64 9 -3 9 C-3.66 6.69 -4.32 4.38 -5 2 C-4.17 2.5 -4.17 2.5 0 5 C0 3.35 0 1.7 0 0 Z M1 2 C2 4 2 4 2 4 Z " fill="#C0BFA9" transform="translate(121,88)"/>
<path d="M0 0 C0.66 0 1.32 0 2 0 C2.33 1.32 2.66 2.64 3 4 C4.65 4 6.3 4 8 4 C8 4.66 8 5.32 8 6 C8.66 6 9.32 6 10 6 C9.67 6.99 9.34 7.98 9 9 C7.35 8.34 5.7 7.68 4 7 C3.67 7.66 3.34 8.32 3 9 C2.34 9 1.68 9 1 9 C1 9.66 1 10.32 1 11 C-3.41 11.17 -6.12 11 -10 9 C-13.25 8.88 -13.25 8.88 -16 9 C-16.33 8.01 -16.66 7.02 -17 6 C-17.66 5.67 -18.32 5.34 -19 5 C-17 4 -17 4 -14.75 4.5 C-11.57 5.08 -9.14 4.66 -6 4 C-6 5.32 -6 6.64 -6 8 C-4.84 7.83 -4.84 7.83 1 7 C0.67 6.67 0.34 6.34 0 6 C-0.04 4 -0.04 2 0 0 Z " fill="#6C725E" transform="translate(38,96)"/>
<path d="M0 0 C3.38 -0.19 3.38 -0.19 7 0 C7.66 0.99 8.32 1.98 9 3 C10.32 3 11.64 3 13 3 C13.33 3.99 13.66 4.98 14 6 C15.32 5.67 16.64 5.34 18 5 C17.67 6.32 17.34 7.64 17 9 C16.01 9 15.02 9 14 9 C14.33 10.98 14.66 12.96 15 15 C12 14 12 14 10 11 C9.67 11.16 9.67 11.16 8 12 C8 11.01 8 10.02 8 9 C6.35 9.33 4.7 9.66 3 10 C3.66 9.34 4.32 8.68 5 8 C5.62 5.88 5.62 5.88 6 4 C5.38 3.9 4.76 3.79 4.12 3.69 C2 3 2 3 0 0 Z " fill="#747242" transform="translate(48,21)"/>
<path d="M0 0 C0.66 0.99 1.32 1.98 2 3 C4.78 6.78 4.78 6.78 6 8 C6.29 11.72 6.15 12.78 4 16 C3.34 16 2.68 16 2 16 C1.67 16.66 1.34 17.32 1 18 C0.34 18.33 -0.32 18.66 -1 19 C-1 18.01 -1 17.02 -1 16 C-2.32 16 -3.64 16 -5 16 C-4.91 15.7 -4.91 15.7 -4.44 14.19 C-4 12 -4 12 -5 9 C-3.56 6.81 -3.56 6.81 -2 5 C-1.34 5.33 -0.68 5.66 0 6 C0 4.02 0 2.04 0 0 Z " fill="#C2B376" transform="translate(90,26)"/>
<path d="M0 0 C0 0.99 0 1.98 0 3 C-0.66 3 -1.32 3 -2 3 C-2 2.34 -2 1.68 -2 1 C-2.66 1 -3.32 1 -4 1 C-4.33 1.99 -4.66 2.98 -5 4 C-6.98 4 -8.96 4 -11 4 C-11 4.99 -11 5.98 -11 7 C-10.34 7.33 -9.68 7.66 -9 8 C-11 10 -11 10 -13.62 10.12 C-14.41 10.08 -15.19 10.04 -16 10 C-15.67 9.34 -15.34 8.68 -15 8 C-15.49 7.98 -15.49 7.98 -17.96 7.89 C-19.23 7.82 -20.5 7.76 -21.81 7.69 C-23.08 7.63 -24.34 7.57 -25.64 7.51 C-29 7 -29 7 -32 4 C-28.37 4.66 -24.74 5.32 -21 6 C-21 5.34 -21 4.68 -21 4 C-20.34 4 -19.68 4 -19 4 C-18.67 3.01 -18.34 2.02 -18 1 C-17.24 1.35 -16.47 1.7 -15.69 2.06 C-13 3 -13 3 -10 2 C-10 1.34 -10 0.68 -10 0 C-6.34 -0.75 -3.58 -1.24 0 0 Z " fill="#B0B5AC" transform="translate(60,101)"/>
<path d="M0 0 C2.46 2.89 4 5.13 4 9 C1.56 11.81 1.56 11.81 -1 14 C-0.67 11.69 -0.34 9.38 0 7 C-0.66 7 -1.32 7 -2 7 C-2.66 8.98 -3.32 10.96 -4 13 C-5.32 12.67 -6.64 12.34 -8 12 C-7.34 13.65 -6.68 15.3 -6 17 C-6.66 17 -7.32 17 -8 17 C-9.29 15.54 -9.29 15.54 -10.62 13.62 C-10.85 13.31 -10.85 13.31 -11.98 11.73 C-13 10 -13 10 -13 8 C-10.69 8 -8.38 8 -6 8 C-5.34 6.68 -4.68 5.36 -4 4 C-2.68 4 -1.36 4 0 4 C0 2.68 0 1.36 0 0 Z " fill="#31362A" transform="translate(75,86)"/>
<path d="M0 0 C1.32 0 2.64 0 4 0 C4 1.65 4 3.3 4 5 C6.64 4.67 9.28 4.34 12 4 C12.33 4.66 12.66 5.32 13 6 C12.01 6 11.02 6 10 6 C10.33 6.6 10.66 7.2 11 7.81 C12 10 12 10 12 13 C6.38 13.25 6.38 13.25 3 11 C2.67 12.32 2.34 13.64 2 15 C0.68 15 -0.64 15 -2 15 C-1.34 12.69 -0.68 10.38 0 8 C1.98 8 3.96 8 6 8 C6 7.34 6 6.68 6 6 C5.01 6 4.02 6 3 6 C3 4.35 3 2.7 3 1 C2.01 0.67 1.02 0.34 0 0 Z " fill="#757342" transform="translate(82,79)"/>
<path d="M0 0 C1.32 0 2.64 0 4 0 C4.12 0.8 4.25 1.61 4.38 2.44 C4.48 2.86 4.48 2.86 5 5 C5.66 5.33 6.32 5.66 7 6 C6.3 8.86 5.51 11.46 4 14 C0.31 15.5 0.31 15.5 -3 16 C-2.67 15.01 -2.34 14.02 -2 13 C-1.34 13 -0.68 13 0 13 C-0.25 12.62 -0.25 12.62 -1.5 10.69 C-3 8 -3 8 -3 5 C-2.01 4.67 -1.02 4.34 0 4 C0 2.68 0 1.36 0 0 Z " fill="#787448" transform="translate(98,43)"/>
<path d="M0 0 C1.32 0.99 2.64 1.98 4 3 C3.67 3.99 3.34 4.98 3 6 C2.01 6 1.02 6 0 6 C0 6.66 0 7.32 0 8 C2.31 8.66 4.62 9.32 7 10 C7 10.99 7 11.98 7 13 C7.66 13 8.32 13 9 13 C8.67 13.66 8.34 14.32 8 15 C5.69 15 3.38 15 1 15 C1 13.68 1 12.36 1 11 C-0.65 11.33 -2.3 11.66 -4 12 C-4.33 10.68 -4.66 9.36 -5 8 C-5.33 8.66 -5.66 9.32 -6 10 C-5.49 5.62 -2.82 3.18 0 0 Z " fill="#4E5B4F" transform="translate(31,89)"/>
<path d="M0 0 C0.74 0.19 1.48 0.37 2.25 0.56 C5 1 5 1 9 0 C9.66 2.97 10.32 5.94 11 9 C9.68 9 8.36 9 7 9 C7 9.66 7 10.32 7 11 C5.68 11 4.36 11 3 11 C3 9.68 3 8.36 3 7 C1.35 7 -0.3 7 -2 7 C-2 6.01 -2 5.02 -2 4 C-1.34 4 -0.68 4 0 4 C0 2.68 0 1.36 0 0 Z " fill="#D0B57C" transform="translate(76,66)"/>
<path d="M0 0 C0.66 0.66 1.32 1.32 2 2 C2.31 2.04 2.31 2.04 3.88 2.25 C7.21 3.43 8.25 6.06 10 9 C11.32 8.67 12.64 8.34 14 8 C13.67 9.65 13.34 11.3 13 13 C12.34 13 11.68 13 11 13 C11 12.34 11 11.68 11 11 C10.49 11.11 10.49 11.11 7.94 11.69 C3.16 12.07 1.19 11.14 -3 9 C-2.01 6.03 -1.02 3.06 0 0 Z " fill="#B4B197" transform="translate(36,35)"/>
<path d="M0 0 C2.38 0.19 2.38 0.19 5 1 C6.31 3.56 6.31 3.56 7 6 C2.42 8.99 2.42 8.99 0 10 C-2.44 9.25 -2.44 9.25 -4 8 C-3.67 9.32 -3.34 10.64 -3 12 C-4.65 12 -6.3 12 -8 12 C-8.33 11.01 -8.66 10.02 -9 9 C-8.34 8.67 -7.68 8.34 -7 8 C-7.66 7.01 -8.32 6.02 -9 5 C-6.69 5 -4.38 5 -2 5 C-1.34 3.35 -0.68 1.7 0 0 Z " fill="#2A3325" transform="translate(56,71)"/>
<path d="M0 0 C3.88 1.75 3.88 1.75 5 4 C7.06 4.62 7.06 4.62 9 5 C10.12 8.75 10.12 8.75 9 11 C6.94 11.62 6.94 11.62 5 12 C5 11.34 5 10.68 5 10 C3.02 9.34 1.04 8.68 -1 8 C-1 7.34 -1 6.68 -1 6 C-2.32 6 -3.64 6 -5 6 C-3.63 2.84 -3.01 2.01 0 0 Z " fill="#BAAF7A" transform="translate(61,10)"/>
<path d="M0 0 C3.13 1.04 3.9 1.81 5.44 4.81 C6 8 6 8 5.06 10.75 C2.35 13.71 -0.12 14.2 -4 15 C-4.42 10.35 -2.94 7.18 -1 3 C-0.67 2.01 -0.34 1.02 0 0 Z " fill="#5C654F" transform="translate(112,87)"/>
<path d="M0 0 C0.66 0 1.32 0 2 0 C2 0.99 2 1.98 2 3 C3.65 3 5.3 3 7 3 C7 3.33 7 3.66 7 4 C4 4 1 4 -2 4 C-2.99 4.33 -3.98 4.66 -5 5 C-4.01 5.17 -4.01 5.17 1 6 C1 7.32 1 8.64 1 10 C-5.62 11 -5.62 11 -9 11 C-9.33 11.33 -9.66 11.66 -10 12 C-15.74 12.27 -15.74 12.27 -18 12 C-18.66 11.34 -19.32 10.68 -20 10 C-17.03 10.33 -14.06 10.66 -11 11 C-11 10.01 -11 9.02 -11 8 C-10.01 7.67 -9.02 7.34 -8 7 C-8 6.34 -8 5.68 -8 5 C-7.34 5 -6.68 5 -6 5 C-6 4.34 -6 3.68 -6 3 C-6.66 2.67 -7.32 2.34 -8 2 C-5.54 0.77 -3.72 1 -1 1 C-0.67 0.67 -0.34 0.34 0 0 Z " fill="#D4D1B7" transform="translate(107,103)"/>
<path d="M0 0 C0.66 0 1.32 0 2 0 C2 0.66 2 1.32 2 2 C2.66 2 3.32 2 4 2 C4.33 3.65 4.66 5.3 5 7 C4.34 7 3.68 7 3 7 C3 8.65 3 10.3 3 12 C-0.31 12.25 -0.31 12.25 -4 12 C-5.94 10 -5.94 10 -7 8 C-5.47 6.8 -3.94 5.59 -2.41 4.39 C-1 3 -1 3 0 0 Z " fill="#3A402A" transform="translate(68,52)"/>
<path d="M0 0 C1.32 0.33 2.64 0.66 4 1 C3.67 2.65 3.34 4.3 3 6 C1.87 5.98 0.73 5.96 -0.44 5.94 C-4 6 -4 6 -5 7 C-7.34 6.71 -9.67 6.38 -12 6 C-12 5.34 -12 4.68 -12 4 C-12.56 4.09 -12.56 4.09 -15.38 4.56 C-19 5 -19 5 -21 4 C-21 3.01 -21 2.02 -21 1 C-20.67 1.17 -20.67 1.17 -19 2 C-13.8 2.83 -9.16 3.21 -4 2 C-1.69 2.44 -1.69 2.44 0 3 C0 2.01 0 1.02 0 0 Z " fill="#C2C0A5" transform="translate(63,110)"/>
<path d="M0 0 C0.33 0.66 0.66 1.32 1 2 C1.39 1.97 1.39 1.97 3.38 1.81 C3.81 1.84 3.81 1.84 6 2 C7.79 4.68 8.34 6 9 9 C9.33 9.99 9.66 10.98 10 12 C7.76 15.36 7.59 15.21 4 16 C3.34 16.66 2.68 17.32 2 18 C2 15.69 2 13.38 2 11 C2.99 11 3.98 11 5 11 C4.25 8.56 4.25 8.56 3 6 C0.88 5.19 0.88 5.19 -1 5 C-0.67 3.35 -0.34 1.7 0 0 Z " fill="#B3B29B" transform="translate(126,74)"/>
<path d="M0 0 C0.66 0.33 1.32 0.66 2 1 C1.67 1.99 1.34 2.98 1 4 C0.01 4 -0.98 4 -2 4 C-2 4.66 -2 5.32 -2 6 C-1.24 5.65 -0.47 5.3 0.31 4.94 C3 4 3 4 6 5 C2.87 9.27 -0.52 9.82 -5.46 10.7 C-8 11 -10.45 11.05 -13 11 C-12 9 -12 9 -8.94 7.88 C-8.45 7.73 -8.45 7.73 -6 7 C-6.33 5.68 -6.66 4.36 -7 3 C-6.03 2.88 -5.06 2.75 -4.06 2.62 C-3.56 2.52 -3.56 2.52 -1 2 C-0.67 1.34 -0.34 0.68 0 0 Z " fill="#6F7459" transform="translate(56,102)"/>
<path d="M0 0 C5.75 1.75 5.75 1.75 8 4 C7.62 6.62 7.62 6.62 7 9 C7.99 9 8.98 9 10 9 C9.67 10.32 9.34 11.64 9 13 C5.37 12.67 1.74 12.34 -2 12 C-0.68 11.34 0.64 10.68 2 10 C2.33 9.01 2.66 8.02 3 7 C1.68 6.34 0.36 5.68 -1 5 C-0.67 3.35 -0.34 1.7 0 0 Z " fill="#A6A68D" transform="translate(46,21)"/>
<path d="M0 0 C0 0.66 0 1.32 0 2 C-0.66 2 -1.32 2 -2 2 C-2 2.66 -2 3.32 -2 4 C0.31 4 2.62 4 5 4 C5 4.33 5 4.66 5 5 C1.7 5 -1.6 5 -5 5 C-5 5.99 -5 6.98 -5 8 C-6.98 8 -8.96 8 -11 8 C-11 6.02 -11 4.04 -11 2 C-10.34 2 -9.68 2 -9 2 C-9 1.34 -9 0.68 -9 0 C-5.52 -1.16 -3.54 -0.71 0 0 Z " fill="#9B9053" transform="translate(101,106)"/>
<path d="M0 0 C2.6 3.9 2.15 7.47 2 12 C-1.3 11.01 -4.6 10.02 -8 9 C-7.38 5.62 -7.38 5.62 -6 2 C-2.88 0.56 -2.88 0.56 0 0 Z " fill="#7D8679" transform="translate(21,58)"/>
<path d="M0 0 C1.65 0 3.3 0 5 0 C5 0.99 5 1.98 5 3 C5.66 3.33 6.32 3.66 7 4 C6.67 4.33 6.34 4.66 6 5 C6.66 5.33 7.32 5.66 8 6 C8 6.66 8 7.32 8 8 C5.1 9.93 4.1 10.3 0.81 10.62 C-0.45 10.75 -1.7 10.87 -3 11 C-3 10.34 -3 9.68 -3 9 C-4.65 9 -6.3 9 -8 9 C-5.64 6.9 -4.45 6.03 -1.25 5.81 C-0.88 5.84 -0.88 5.84 1 6 C0.67 4.02 0.34 2.04 0 0 Z M-4 7 C-4 7.33 -4 7.66 -4 8 C-2.35 8 -0.7 8 1 8 C1 7.67 1 7.34 1 7 C-0.65 7 -2.3 7 -4 7 Z " fill="#98A199" transform="translate(30,49)"/>
<path d="M0 0 C0.99 0.16 0.99 0.16 6 1 C5.67 4.96 5.34 8.92 5 13 C4.01 11.68 3.02 10.36 2 9 C1.34 9 0.68 9 0 9 C0 9.66 0 10.32 0 11 C-0.99 11 -1.98 11 -3 11 C-3.12 4.25 -3.12 4.25 -2 2 C-1.34 2 -0.68 2 0 2 C0 1.34 0 0.68 0 0 Z " fill="#585B39" transform="translate(80,53)"/>
<path d="M0 0 C0.99 0 1.98 0 3 0 C3.33 1.65 3.66 3.3 4 5 C6.64 4.67 9.28 4.34 12 4 C12.33 5.65 12.66 7.3 13 9 C9.67 10.11 6.47 10.5 3 11 C2.01 11.33 1.02 11.66 0 12 C0.33 10.68 0.66 9.36 1 8 C0.34 7.67 -0.32 7.34 -1 7 C-0.34 7 0.32 7 1 7 C1.33 5.35 1.66 3.7 2 2 C1.01 1.67 0.02 1.34 -1 1 C-0.67 0.67 -0.34 0.34 0 0 Z " fill="#425554" transform="translate(32,69)"/>
<path d="M0 0 C0.99 0.33 1.98 0.66 3 1 C3 1.99 3 2.98 3 4 C0.69 4.33 -1.62 4.66 -4 5 C-3.67 5.49 -3.67 5.49 -2 8 C-2.38 10.19 -2.38 10.19 -3 12 C-3.99 11.67 -4.98 11.34 -6 11 C-6.33 10.34 -6.66 9.68 -7 9 C-7.99 9 -8.98 9 -10 9 C-9.62 7.06 -9.62 7.06 -9 5 C-8.34 4.67 -7.68 4.34 -7 4 C-7 3.01 -7 2.02 -7 1 C-6.52 1.01 -6.52 1.01 -4.06 1.06 C-1 1 -1 1 0 0 Z " fill="#C4A564" transform="translate(59,56)"/>
<path d="M0 0 C0.66 0.33 1.32 0.66 2 1 C2.62 3.06 2.62 3.06 3 5 C3.66 5 4.32 5 5 5 C5 5.66 5 6.32 5 7 C6.65 7.33 8.3 7.66 10 8 C10 8.99 10 9.98 10 11 C8.68 11 7.36 11 6 11 C6.33 12.98 6.66 14.96 7 17 C5.02 17 3.04 17 1 17 C1.33 15.35 1.66 13.7 2 12 C2.66 12 3.32 12 4 12 C4 11.01 4 10.02 4 9 C2.35 8.67 0.7 8.34 -1 8 C-0.34 7.67 0.32 7.34 1 7 C0.67 4.69 0.34 2.38 0 0 Z " fill="#767D68" transform="translate(24,38)"/>
<path d="M0 0 C2.38 0.69 2.38 0.69 5 2 C6.19 4.56 6.19 4.56 7 7 C7.66 7.33 8.32 7.66 9 8 C9.33 7.01 9.66 6.02 10 5 C9.79 5.78 9.59 6.57 9.38 7.38 C9.25 8.24 9.13 9.11 9 10 C9.66 10.66 10.32 11.32 11 12 C10.67 12.99 10.34 13.98 10 15 C9.67 14.34 9.34 13.68 9 13 C6.94 12.38 6.94 12.38 5 12 C5 12.66 5 13.32 5 14 C3.68 14 2.36 14 1 14 C1.21 13.15 1.41 12.31 1.62 11.44 C2.06 7.46 1.26 4.77 0 1 C0 0.67 0 0.34 0 0 Z M3 9 C3.33 9.99 3.66 10.98 4 12 C4 11.01 4 10.02 4 9 C3.67 9 3.34 9 3 9 Z " fill="#B2AB85" transform="translate(102,41)"/>
<path d="M0 0 C0.33 0.99 0.66 1.98 1 3 C-2.13 4.04 -2.99 3.93 -6 3 C-5.67 5.31 -5.34 7.62 -5 10 C-3.35 10.33 -1.7 10.66 0 11 C-0.33 11.16 -0.33 11.16 -2 12 C-2.33 12.99 -2.66 13.98 -3 15 C-5.31 15.69 -5.31 15.69 -8 16 C-9.88 14.81 -9.88 14.81 -11 13 C-10.88 10.94 -10.88 10.94 -10 9 C-9.01 8.34 -8.02 7.68 -7 7 C-7.33 6.01 -7.66 5.02 -8 4 C-5.6 1.1 -3.69 0.5 0 0 Z " fill="#A2A594" transform="translate(30,35)"/>
<path d="M0 0 C0 0.99 0 1.98 0 3 C-1.32 3.33 -2.64 3.66 -4 4 C-3.67 4.5 -3.67 4.5 -2 7 C1.12 7.19 1.12 7.19 4 7 C2.31 9.06 2.31 9.06 0 11 C-2.75 10.75 -2.75 10.75 -5 10 C-5 8.68 -5 7.36 -5 6 C-7.31 6.33 -9.62 6.66 -12 7 C-12.33 6.01 -12.66 5.02 -13 4 C-11.02 3.67 -9.04 3.34 -7 3 C-7 2.34 -7 1.68 -7 1 C-4.51 0.31 -2.62 0 0 0 Z " fill="#AEB4AB" transform="translate(24,97)"/>
<path d="M0 0 C1.65 0 3.3 0 5 0 C5 1.32 5 2.64 5 4 C4.67 4.17 4.67 4.17 3 5 C3.33 5.66 3.66 6.32 4 7 C3.34 7 2.68 7 2 7 C1.67 7.99 1.34 8.98 1 10 C-0.32 10 -1.64 10 -3 10 C-5.15 6.77 -5.2 5.72 -5 2 C-3.35 2 -1.7 2 0 2 C0 1.34 0 0.68 0 0 Z " fill="#5E613B" transform="translate(90,64)"/>
<path d="M0 0 C1.12 1.69 1.12 1.69 2 4 C1.38 6.69 1.38 6.69 0 9 C-2 9.94 -2 9.94 -4 10 C-5.95 8.05 -6.85 6.47 -8 4 C-9.98 4 -11.96 4 -14 4 C-11 2 -9.82 1.65 -6.38 1.31 C-5.58 1.23 -4.78 1.14 -3.96 1.05 C-3.31 1.03 -2.67 1.02 -2 1 C-1.67 1.33 -1.34 1.66 -1 2 C-0.67 1.34 -0.34 0.68 0 0 Z " fill="#86948F" transform="translate(30,83)"/>
<path d="M0 0 C0.66 0.66 1.32 1.32 2 2 C1.62 4.12 1.62 4.12 1 6 C1.99 6 2.98 6 4 6 C4 6.66 4 7.32 4 8 C3.01 8 2.02 8 1 8 C0.67 9.32 0.34 10.64 0 12 C-1.65 12 -3.3 12 -5 12 C-5.81 9.31 -5.81 9.31 -6 6 C-3.62 3.19 -3.62 3.19 -1 1 C-0.67 0.67 -0.34 0.34 0 0 Z " fill="#565937" transform="translate(65,73)"/>
<path d="M0 0 C3 1 3 1 3 1 Z " fill="#F5F5F2" transform="translate(113,47)"/>
<path d="" fill="#EDEAE0" transform="translate(0,0)"/>
<path d="" fill="#F5F5F2" transform="translate(0,0)"/>
<path d="" fill="#EFF1EE" transform="translate(0,0)"/>
<path d="M0 0 C2 1 2 1 2 1 Z " fill="#F6F6F4" transform="translate(26,34)"/>
<path d="" fill="#F7F6F4" transform="translate(0,0)"/>
<path d="" fill="#F3F4F3" transform="translate(0,0)"/>
<path d="" fill="#F6F4FB" transform="translate(0,0)"/>
<path d="" fill="#F4F4F4" transform="translate(0,0)"/>
</svg>
