<?xml version="1.0" encoding="UTF-8"?>
<!-- Generator: visioncortex VTracer 0.6.12 -->
<svg version="1.1" xmlns="http://www.w3.org/2000/svg" width="99" height="108">
<path d="M0 0 C1.95 3.04 2 5 2.06 8.62 C1.89 9.18 1.89 9.18 1 12 C-2.5 13.75 -2.5 13.75 -6 15 C-6.16 15.49 -6.16 15.49 -7 18 C-7.33 18.16 -7.33 18.16 -9 19 C-8.84 19.33 -8.84 19.33 -8 21 C-8.33 21.66 -8.66 22.32 -9 23 C-7.68 23 -6.36 23 -5 23 C-5.52 25.76 -6.11 28.33 -7 31 C-7.66 31 -8.32 31 -9 31 C-9 32.32 -9 33.64 -9 35 C-9.66 35 -10.32 35 -11 35 C-11 35.99 -11 36.98 -11 38 C-10.48 37.51 -9.97 37.01 -9.44 36.5 C-6.19 34.5 -3.74 34.78 0 35 C-0.52 34.28 -1.03 33.56 -1.56 32.81 C-3 30 -3 30 -2.81 27.5 C-1.98 24.95 -1.01 22.49 0 20 C9.91 19.22 9.91 19.22 14.12 22.25 C16.81 26.18 16.81 26.18 17 29 C16.84 29.33 16.84 29.33 16 31 C15.64 32.66 15.31 34.33 15 36 C13.84 36.16 13.84 36.16 8 37 C8 37.33 8 37.66 8 38 C7.75 40.44 7.75 40.44 7 43 C4.44 44.79 3.17 45 0 45 C-0.33 46.98 -0.66 48.96 -1 51 C-0.07 50.5 0.86 50.01 1.81 49.5 C6.75 47.39 11.72 47.38 17 48 C20.19 49.38 20.19 49.38 22 51 C22 51.66 22 52.32 22 53 C19.03 54.32 16.06 55.64 13 57 C13.33 57.33 13.66 57.66 14 58 C14.04 60 14.04 62 14 64 C14 64.99 14 65.98 14 67 C15.32 67 16.64 67 18 67 C18 67.66 18 68.32 18 69 C20.5 70.63 20.5 70.63 23 72 C22.67 72.66 22.34 73.32 22 74 C20.02 74 18.04 74 16 74 C16 74.66 16 75.32 16 76 C13.69 76.62 13.69 76.62 11 77 C10.5 76.67 10.5 76.67 8 75 C7.67 75.66 7.34 76.32 7 77 C3.7 77 0.4 77 -3 77 C-2.01 77.33 -2.01 77.33 3 79 C2.84 79.66 2.84 79.66 2 83 C-3.29 84.91 -5.79 84.92 -11 83 C-13.63 83.38 -13.63 83.38 -16 84 C-17.32 84 -18.64 84 -20 84 C-21.03 84.19 -22.06 84.37 -23.12 84.56 C-26 85 -26 85 -28 84 C-28.62 80.94 -28.62 80.94 -29 78 C-30.32 78 -31.64 78 -33 78 C-33 78.66 -33 79.32 -33 80 C-33.31 79.9 -33.31 79.9 -34.88 79.38 C-35.23 79.31 -35.23 79.31 -37 79 C-37.33 79.33 -37.33 79.33 -39 81 C-42.13 80.62 -42.13 80.62 -45 80 C-45 79.01 -45 78.02 -45 77 C-47.64 77.33 -50.28 77.66 -53 78 C-53 77.01 -53 76.02 -53 75 C-52.17 74.84 -52.17 74.84 -48 74 C-48 73.01 -48 72.02 -48 71 C-47.5 70.84 -47.5 70.84 -45 70 C-45.66 69.01 -46.32 68.02 -47 67 C-46.84 66.67 -46.84 66.67 -46 65 C-48.52 64.1 -49.57 63.81 -52.06 64.94 C-52.7 65.29 -53.34 65.64 -54 66 C-54.99 66 -55.98 66 -57 66 C-56.25 61.44 -53.9 59.34 -50.48 56.42 C-46.16 53.95 -41.81 54.44 -37 55 C-36.67 54.01 -36.34 53.02 -36 52 C-35.67 51.84 -35.67 51.84 -34 51 C-35.65 50.67 -37.3 50.34 -39 50 C-39 49.01 -39 48.02 -39 47 C-39.78 47.21 -40.57 47.41 -41.38 47.62 C-42.24 47.75 -43.11 47.87 -44 48 C-44.66 47.34 -45.32 46.68 -46 46 C-46 44.68 -46 43.36 -46 42 C-47.32 41.34 -48.64 40.68 -50 40 C-49.19 38.06 -49.19 38.06 -48 36 C-47.5 35.84 -47.5 35.84 -45 35 C-44.67 34.34 -44.34 33.68 -44 33 C-36.6 32.51 -36.6 32.51 -34 34.62 C-32.77 37.55 -32.79 39.85 -33 43 C-32.34 43 -31.68 43 -31 43 C-31.42 40.68 -31.86 38.37 -32.31 36.06 C-32.56 34.77 -32.8 33.49 -33.05 32.16 C-33.36 31.12 -33.68 30.07 -34 29 C-34.49 28.84 -34.49 28.84 -37 28 C-37 26.68 -37 25.36 -37 24 C-37.95 24.04 -38.9 24.08 -39.88 24.12 C-43 24 -43 24 -45 22 C-45.04 20 -45.04 18 -45 16 C-45.33 15.34 -45.66 14.68 -46 14 C-45.34 13.01 -44.68 12.02 -44 11 C-42.68 11 -41.36 11 -40 11 C-40 10.01 -40 9.02 -40 8 C-36.13 6.61 -32.94 6.95 -29 8 C-26.08 11.14 -25 12.87 -25 17.19 C-26.13 20.36 -27.13 21.34 -30 23 C-29.81 23.6 -29.63 24.2 -29.44 24.81 C-29 27 -29 27 -30 30 C-29.06 32.19 -29.06 32.19 -28 34 C-27.34 33.01 -26.68 32.02 -26 31 C-25.01 31.33 -24.02 31.66 -23 32 C-23 34.64 -23 37.28 -23 40 C-22.61 40.05 -22.61 40.05 -20.62 40.31 C-18 41 -18 41 -16 44 C-17.24 38.83 -18.93 35.41 -22 31 C-23.65 27.53 -24 25.95 -24 22 C-19.69 22.48 -17.83 23.75 -15 27 C-14.17 21.74 -13.62 17.23 -15 12 C-17.56 9.06 -17.56 9.06 -20 7 C-19.34 6.01 -18.68 5.02 -18 4 C-18.16 3.67 -18.16 3.67 -19 2 C-17.88 -0.56 -17.88 -0.56 -16 -3 C-10.23 -5.12 -5.03 -3.13 0 0 Z M-11 21 C-10.67 22.32 -10.34 23.64 -10 25 C-9.67 24.34 -9.34 23.68 -9 23 C-9.66 22.34 -10.32 21.68 -11 21 Z M-25 42 C-25.33 44.97 -25.66 47.94 -26 51 C-25.01 50.67 -24.02 50.34 -23 50 C-23.33 47.36 -23.66 44.72 -24 42 C-24.33 42 -24.66 42 -25 42 Z M-3 44 C-2 46 -2 46 -2 46 Z " fill="#928B57" transform="translate(67,14)"/>
<path d="M0 0 C1.95 3.04 2 5 2.06 8.62 C1.89 9.18 1.89 9.18 1 12 C-2.5 13.75 -2.5 13.75 -6 15 C-6.16 15.49 -6.16 15.49 -7 18 C-7.33 18.16 -7.33 18.16 -9 19 C-8.84 19.33 -8.84 19.33 -8 21 C-8.33 21.66 -8.66 22.32 -9 23 C-7.68 23 -6.36 23 -5 23 C-5.52 25.76 -6.11 28.33 -7 31 C-7.66 31 -8.32 31 -9 31 C-9 32.32 -9 33.64 -9 35 C-9.66 35 -10.32 35 -11 35 C-11 35.99 -11 36.98 -11 38 C-10.34 37.84 -10.34 37.84 -7 37 C-7 39.31 -7 41.62 -7 44 C-6.01 44 -5.02 44 -4 44 C-4.16 44.33 -4.16 44.33 -5 46 C-7.31 45.67 -9.62 45.34 -12 45 C-12 46.32 -12 47.64 -12 49 C-12.99 49 -13.98 49 -15 49 C-15.99 54.28 -16.98 59.56 -18 65 C-19.65 63.68 -21.3 62.36 -23 61 C-23.99 61 -24.98 61 -26 61 C-26.66 61 -27.32 61 -28 61 C-28.33 61.66 -28.66 62.32 -29 63 C-29.66 63 -30.32 63 -31 63 C-31.33 61.68 -31.66 60.36 -32 59 C-31.51 58.84 -31.51 58.84 -29 58 C-29.59 54.98 -30.23 51.98 -31 49 C-31.33 50.32 -31.66 51.64 -32 53 C-32.99 53 -33.98 53 -35 53 C-34.67 54.32 -34.34 55.64 -34 57 C-35.98 56.67 -37.96 56.34 -40 56 C-40 56.99 -40 57.98 -40 59 C-40.99 59 -41.98 59 -43 59 C-43 59.66 -43 60.32 -43 61 C-42.34 61 -41.68 61 -41 61 C-41.66 62.65 -42.32 64.3 -43 66 C-43.66 66 -44.32 66 -45 66 C-45.33 66.99 -45.66 67.98 -46 69 C-46.33 68.34 -46.66 67.68 -47 67 C-46.84 66.67 -46.84 66.67 -46 65 C-48.52 64.1 -49.57 63.81 -52.06 64.94 C-52.7 65.29 -53.34 65.64 -54 66 C-54.99 66 -55.98 66 -57 66 C-56.25 61.44 -53.9 59.34 -50.48 56.42 C-46.16 53.95 -41.81 54.44 -37 55 C-36.67 54.01 -36.34 53.02 -36 52 C-35.67 51.84 -35.67 51.84 -34 51 C-35.65 50.67 -37.3 50.34 -39 50 C-39 49.01 -39 48.02 -39 47 C-39.78 47.21 -40.57 47.41 -41.38 47.62 C-42.24 47.75 -43.11 47.87 -44 48 C-44.66 47.34 -45.32 46.68 -46 46 C-46 44.68 -46 43.36 -46 42 C-47.32 41.34 -48.64 40.68 -50 40 C-49.19 38.06 -49.19 38.06 -48 36 C-47.5 35.84 -47.5 35.84 -45 35 C-44.67 34.34 -44.34 33.68 -44 33 C-36.6 32.51 -36.6 32.51 -34 34.62 C-32.77 37.55 -32.79 39.85 -33 43 C-32.34 43 -31.68 43 -31 43 C-31.42 40.68 -31.86 38.37 -32.31 36.06 C-32.56 34.77 -32.8 33.49 -33.05 32.16 C-33.36 31.12 -33.68 30.07 -34 29 C-34.49 28.84 -34.49 28.84 -37 28 C-37 26.68 -37 25.36 -37 24 C-37.95 24.04 -38.9 24.08 -39.88 24.12 C-43 24 -43 24 -45 22 C-45.04 20 -45.04 18 -45 16 C-45.33 15.34 -45.66 14.68 -46 14 C-45.34 13.01 -44.68 12.02 -44 11 C-42.68 11 -41.36 11 -40 11 C-40 10.01 -40 9.02 -40 8 C-36.13 6.61 -32.94 6.95 -29 8 C-26.08 11.14 -25 12.87 -25 17.19 C-26.13 20.36 -27.13 21.34 -30 23 C-29.81 23.6 -29.63 24.2 -29.44 24.81 C-29 27 -29 27 -30 30 C-29.06 32.19 -29.06 32.19 -28 34 C-27.34 33.01 -26.68 32.02 -26 31 C-25.01 31.33 -24.02 31.66 -23 32 C-23 34.64 -23 37.28 -23 40 C-22.61 40.05 -22.61 40.05 -20.62 40.31 C-18 41 -18 41 -16 44 C-17.24 38.83 -18.93 35.41 -22 31 C-23.65 27.53 -24 25.95 -24 22 C-19.69 22.48 -17.83 23.75 -15 27 C-14.17 21.74 -13.62 17.23 -15 12 C-17.56 9.06 -17.56 9.06 -20 7 C-19.34 6.01 -18.68 5.02 -18 4 C-18.16 3.67 -18.16 3.67 -19 2 C-17.88 -0.56 -17.88 -0.56 -16 -3 C-10.23 -5.12 -5.03 -3.13 0 0 Z M-11 21 C-10.67 22.32 -10.34 23.64 -10 25 C-9.67 24.34 -9.34 23.68 -9 23 C-9.66 22.34 -10.32 21.68 -11 21 Z M-25 42 C-25.33 44.97 -25.66 47.94 -26 51 C-25.01 50.67 -24.02 50.34 -23 50 C-23.33 47.36 -23.66 44.72 -24 42 C-24.33 42 -24.66 42 -25 42 Z " fill="#A7A079" transform="translate(67,14)"/>
<path d="M0 0 C2.31 0 4.62 0 7 0 C7.16 0.66 7.16 0.66 8 4 C6.35 4.66 4.7 5.32 3 6 C3 6.66 3 7.32 3 8 C3.66 8 4.32 8 5 8 C5 10.31 5 12.62 5 15 C5.34 14.75 5.34 14.75 7.06 13.5 C10.59 11.7 13.09 11.77 17 12 C17.16 12.66 17.16 12.66 18 16 C15.36 16 12.72 16 10 16 C9.67 16.66 9.34 17.32 9 18 C10.65 18 12.3 18 14 18 C14.16 18.66 14.16 18.66 15 22 C12.03 22 9.06 22 6 22 C5.84 22.5 5.84 22.5 5 25 C4.01 25 3.02 25 2 25 C1.84 25.5 1.84 25.5 1 28 C0.84 27.34 0.84 27.34 0 24 C-0.16 24.5 -0.16 24.5 -1 27 C-1.66 27 -2.32 27 -3 27 C-3.33 27.99 -3.66 28.98 -4 30 C-4.97 29.96 -5.94 29.92 -6.94 29.88 C-10.03 29.84 -12.54 30.39 -15.5 31.25 C-19.02 32.12 -20.74 32.03 -23.88 30.19 C-24.39 29.83 -24.39 29.83 -27 28 C-27.99 27.67 -28.98 27.34 -30 27 C-30 26.34 -30 25.68 -30 25 C-29.34 25 -28.68 25 -28 25 C-28 24.34 -28 23.68 -28 23 C-29.65 23.33 -31.3 23.66 -33 24 C-33 21 -33 21 -31.56 19.44 C-31.05 18.96 -30.53 18.49 -30 18 C-29.67 17.34 -29.34 16.68 -29 16 C-29.66 16 -30.32 16 -31 16 C-31 15.34 -31 14.68 -31 14 C-30.01 14 -29.02 14 -28 14 C-28 13.01 -28 12.02 -28 11 C-26.35 11 -24.7 11 -23 11 C-23 10.01 -23 9.02 -23 8 C-22.01 8 -21.02 8 -20 8 C-20.33 6.68 -20.66 5.36 -21 4 C-20.34 4 -19.68 4 -19 4 C-17.93 6.3 -16.94 8.64 -16 11 C-16.33 11.66 -16.66 12.32 -17 13 C-17.99 13 -18.98 13 -20 13 C-19.67 14.65 -19.34 16.3 -19 18 C-18.34 18 -17.68 18 -17 18 C-16.67 17.01 -16.34 16.02 -16 15 C-15.34 15.33 -14.68 15.66 -14 16 C-13.67 15.34 -13.34 14.68 -13 14 C-8.12 16.75 -8.12 16.75 -7 19 C-6.9 18.46 -6.9 18.46 -6.41 15.75 C-6.15 14.36 -5.89 12.96 -5.62 11.56 C-5.56 11.21 -5.56 11.21 -5.24 9.42 C-4.89 7.6 -4.45 5.8 -4 4 C-3.34 3.67 -2.68 3.34 -2 3 C-1.34 3.33 -0.68 3.66 0 4 C0 2.68 0 1.36 0 0 Z " fill="#696B43" transform="translate(55,59)"/>
<path d="M0 0 C3.06 3.14 4 4.8 4 9.19 C2.87 12.36 1.87 13.34 -1 15 C-0.81 15.6 -0.63 16.2 -0.44 16.81 C0 19 0 19 -1 22 C-0.74 23.98 -0.48 25.95 -0.19 27.93 C0.07 30.74 -0.38 33.26 -1 36 C-1.66 36 -2.32 36 -3 36 C-2.01 37.98 -1.02 39.96 0 42 C-0.33 42.16 -0.33 42.16 -2 43 C-2.16 42.84 -2.16 42.84 -3 42 C-3 42.99 -3 43.98 -3 45 C-3.99 45 -4.98 45 -6 45 C-5.67 46.32 -5.34 47.64 -5 49 C-6.98 48.67 -8.96 48.34 -11 48 C-11 48.99 -11 49.98 -11 51 C-11.99 51 -12.98 51 -14 51 C-14 51.66 -14 52.32 -14 53 C-13.34 53 -12.68 53 -12 53 C-12.33 53.83 -12.33 53.83 -14 58 C-14.66 58 -15.32 58 -16 58 C-16.33 58.99 -16.66 59.98 -17 61 C-17.33 60.34 -17.66 59.68 -18 59 C-17.67 58.34 -17.34 57.68 -17 57 C-19.52 56.1 -20.57 55.81 -23.06 56.94 C-23.7 57.29 -24.34 57.64 -25 58 C-25.99 58 -26.98 58 -28 58 C-27.25 53.44 -24.9 51.34 -21.48 48.42 C-17.16 45.95 -12.81 46.44 -8 47 C-7.67 46.01 -7.34 45.02 -7 44 C-6.67 43.84 -6.67 43.84 -5 43 C-6.65 42.67 -8.3 42.34 -10 42 C-10 41.01 -10 40.02 -10 39 C-10.78 39.21 -11.57 39.41 -12.38 39.62 C-13.24 39.75 -14.11 39.87 -15 40 C-15.66 39.34 -16.32 38.68 -17 38 C-17 36.68 -17 35.36 -17 34 C-18.32 33.34 -19.64 32.68 -21 32 C-20.19 30.06 -20.19 30.06 -19 28 C-18.01 27.67 -17.02 27.34 -16 27 C-15.67 26.34 -15.34 25.68 -15 25 C-7.6 24.51 -7.6 24.51 -5 26.62 C-3.77 29.55 -3.79 31.85 -4 35 C-3.34 35 -2.68 35 -2 35 C-2.42 32.68 -2.86 30.37 -3.31 28.06 C-3.56 26.77 -3.8 25.49 -4.05 24.16 C-4.36 23.12 -4.68 22.07 -5 21 C-5.99 20.67 -6.98 20.34 -8 20 C-8 18.68 -8 17.36 -8 16 C-8.95 16.04 -9.9 16.08 -10.88 16.12 C-14 16 -14 16 -16 14 C-16.04 12 -16.04 10 -16 8 C-16.33 7.34 -16.66 6.68 -17 6 C-16.34 5.01 -15.68 4.02 -15 3 C-13.68 3 -12.36 3 -11 3 C-11 2.01 -11 1.02 -11 0 C-7.47 -1.76 -3.71 -1.06 0 0 Z " fill="#CBC09A" transform="translate(38,22)"/>
<path d="M0 0 C1.95 3.04 2 5 2.06 8.62 C1.89 9.18 1.89 9.18 1 12 C-2.5 13.75 -2.5 13.75 -6 15 C-6.33 15.99 -6.66 16.98 -7 18 C-7.66 18.33 -8.32 18.66 -9 19 C-8.67 19.66 -8.34 20.32 -8 21 C-8.33 21.66 -8.66 22.32 -9 23 C-7.68 23 -6.36 23 -5 23 C-5.52 25.76 -6.11 28.33 -7 31 C-7.66 31 -8.32 31 -9 31 C-9 32.32 -9 33.64 -9 35 C-9.66 35 -10.32 35 -11 35 C-11.66 35.99 -12.32 36.98 -13 38 C-13 36.35 -13 34.7 -13 33 C-13.99 33 -14.98 33 -16 33 C-16 31.02 -16 29.04 -16 27 C-15.67 27 -15.34 27 -15 27 C-14.17 21.74 -13.62 17.23 -15 12 C-17.56 9.06 -17.56 9.06 -20 7 C-19.34 6.01 -18.68 5.02 -18 4 C-18.33 3.34 -18.66 2.68 -19 2 C-17.88 -0.56 -17.88 -0.56 -16 -3 C-10.23 -5.12 -5.03 -3.13 0 0 Z M-11 21 C-10.67 22.32 -10.34 23.64 -10 25 C-9.67 24.34 -9.34 23.68 -9 23 C-9.66 22.34 -10.32 21.68 -11 21 Z " fill="#AEA88A" transform="translate(67,14)"/>
<path d="M0 0 C0.37 0.17 0.37 0.17 2.25 1 C5 2 5 2 9 2 C9 2.66 9 3.32 9 4 C11.5 5.62 11.5 5.62 14 7 C13.67 7.66 13.34 8.32 13 9 C11.02 9 9.04 9 7 9 C7 9.66 7 10.32 7 11 C4.69 11.62 4.69 11.62 2 12 C1.01 11.34 0.02 10.68 -1 10 C-1.33 10.66 -1.66 11.32 -2 12 C-5.3 12 -8.6 12 -12 12 C-10.02 12.66 -8.04 13.32 -6 14 C-6.33 15.32 -6.66 16.64 -7 18 C-12.29 19.91 -14.79 19.92 -20 18 C-22.62 18.38 -22.62 18.38 -25 19 C-26.32 19 -27.64 19 -29 19 C-30.03 19.19 -31.06 19.37 -32.12 19.56 C-35 20 -35 20 -37 19 C-37.62 16.44 -37.62 16.44 -38 14 C-35.69 14 -33.38 14 -31 14 C-30.67 14.99 -30.34 15.98 -30 17 C-29.34 17 -28.68 17 -28 17 C-28 16.34 -28 15.68 -28 15 C-27.34 15 -26.68 15 -26 15 C-25.67 14.01 -25.34 13.02 -25 12 C-21.59 10.54 -18.18 9.38 -14.64 8.25 C-10.41 6.89 -6.72 5.52 -3 3 C-3.66 2.34 -4.32 1.68 -5 1 C-3.35 1 -1.7 1 0 1 C0 0.67 0 0.34 0 0 Z " fill="#D4CCA2" transform="translate(76,79)"/>
<path d="M0 0 C3.06 3.14 4 4.8 4 9.19 C2.87 12.36 1.87 13.34 -1 15 C-0.81 15.6 -0.63 16.2 -0.44 16.81 C0 19 0 19 -1 22 C-0.74 23.98 -0.48 25.95 -0.19 27.93 C0.07 30.74 -0.38 33.26 -1 36 C-1.99 35.67 -2.98 35.34 -4 35 C-3.34 35 -2.68 35 -2 35 C-2.42 32.68 -2.86 30.37 -3.31 28.06 C-3.56 26.77 -3.8 25.49 -4.05 24.16 C-4.21 23.64 -4.21 23.64 -5 21 C-5.99 20.67 -6.98 20.34 -8 20 C-8 18.68 -8 17.36 -8 16 C-8.95 16.04 -9.9 16.08 -10.88 16.12 C-14 16 -14 16 -16 14 C-16.04 12 -16.04 10 -16 8 C-16.33 7.34 -16.66 6.68 -17 6 C-16.34 5.01 -15.68 4.02 -15 3 C-13.68 3 -12.36 3 -11 3 C-11 2.01 -11 1.02 -11 0 C-7.47 -1.76 -3.71 -1.06 0 0 Z " fill="#C9B797" transform="translate(38,22)"/>
<path d="M0 0 C9.91 -0.78 9.91 -0.78 14.12 2.25 C16.81 6.18 16.81 6.18 17 9 C16.67 9.66 16.34 10.32 16 11 C15.64 12.66 15.31 14.33 15 16 C12.69 16.33 10.38 16.66 8 17 C8 17.33 8 17.66 8 18 C7.67 18.99 7.34 19.98 7 21 C7 20.34 7 19.68 7 19 C5.68 18.67 4.36 18.34 3 18 C3.33 17.34 3.66 16.68 4 16 C4.66 16 5.32 16 6 16 C6 14.35 6 12.7 6 11 C7.32 11 8.64 11 10 11 C8.35 10.01 6.7 9.02 5 8 C4.01 10.97 3.02 13.94 2 17 C-3.04 10.36 -3.04 10.36 -2.75 7.62 C-2 4.99 -1.03 2.53 0 0 Z " fill="#E7D6BC" transform="translate(67,34)"/>
<path d="M0 0 C4.88 1.75 4.88 1.75 6 4 C4.68 4 3.36 4 2 4 C2 5.65 2 7.3 2 9 C1.34 9 0.68 9 0 9 C0 9.66 0 10.32 0 11 C0.99 11.33 1.98 11.66 3 12 C3 13.32 3 14.64 3 16 C0.35 17.46 -0.89 18 -4 18 C-4.11 18.66 -4.22 19.33 -4.33 20.01 C-5.99 29.24 -5.99 29.24 -9 33 C-9.66 33 -10.32 33 -11 33 C-11 30.69 -11 28.38 -11 26 C-11.66 26 -12.32 26 -13 26 C-13 25.34 -13 24.68 -13 24 C-12.34 23.67 -11.68 23.34 -11 23 C-9.95 21.02 -8.95 19.03 -8 17 C-8.99 17 -9.98 17 -11 17 C-11 15.68 -11 14.36 -11 13 C-11.66 12.67 -12.32 12.34 -13 12 C-13.33 11.67 -13.66 11.34 -14 11 C-12.94 9.5 -12.94 9.5 -11 8 C-7.31 7.81 -7.31 7.81 -4 8 C-3.67 8.66 -3.34 9.32 -3 10 C-2.01 6.7 -1.02 3.4 0 0 Z M-7 17 C-6 19 -6 19 -6 19 Z " fill="#BEB99B" transform="translate(71,41)"/>
<path d="M0 0 C0.99 0.33 1.98 0.66 3 1 C2.38 8.41 1.3 15.68 0 23 C0.66 23 1.32 23 2 23 C2 22.01 2 21.02 2 20 C2.99 20 3.98 20 5 20 C5.33 19.01 5.66 18.02 6 17 C7.26 19.52 6.92 20.85 6.56 23.62 C6.46 24.44 6.36 25.26 6.25 26.1 C6.17 26.73 6.09 27.35 6 28 C6.66 28 7.32 28 8 28 C8 29.98 8 31.96 8 34 C7.24 33.34 6.47 32.68 5.69 32 C3 30 3 30 0 30 C-0.66 30 -1.32 30 -2 30 C-2.33 30.66 -2.66 31.32 -3 32 C-3.66 32 -4.32 32 -5 32 C-5.33 30.68 -5.66 29.36 -6 28 C-5.01 27.67 -4.02 27.34 -3 27 C-3.41 22.03 -3.8 17.55 -6 13 C-5.34 13 -4.68 13 -4 13 C-4 11.02 -4 9.04 -4 7 C-3.34 7 -2.68 7 -2 7 C-1.86 6.03 -1.71 5.06 -1.56 4.06 C-1 1 -1 1 0 0 Z " fill="#9C9870" transform="translate(41,45)"/>
<path d="M0 0 C0 0.66 0 1.32 0 2 C-0.66 2 -1.32 2 -2 2 C-1.67 2.66 -1.34 3.32 -1 4 C-0.01 4 0.98 4 2 4 C2 4.66 2 5.32 2 6 C8.2 7.83 11.74 7.91 18 6 C22.01 5.82 25.99 5.88 30 6 C30.16 6.33 30.16 6.33 31 8 C29.87 8.29 28.73 8.58 27.56 8.88 C26.39 9.25 25.21 9.62 24 10 C23.67 10.66 23.34 11.32 23 12 C22.34 12 21.68 12 21 12 C21 12.66 21 13.32 21 14 C20.34 14 19.68 14 19 14 C18.67 13.34 18.34 12.68 18 12 C15.5 11.37 15.5 11.37 12.44 10.88 C11.43 10.71 10.41 10.54 9.37 10.37 C8.59 10.25 7.81 10.12 7 10 C7 10.66 7 11.32 7 12 C6.38 11.79 5.76 11.59 5.12 11.38 C4.42 11.25 3.72 11.13 3 11 C2.34 11.66 1.68 12.32 1 13 C-2.13 12.62 -2.13 12.62 -5 12 C-5 11.01 -5 10.02 -5 9 C-7.64 9.33 -10.28 9.66 -13 10 C-13 9.01 -13 8.02 -13 7 C-11.35 6.67 -9.7 6.34 -8 6 C-8 5.01 -8 4.02 -8 3 C-5.11 0.89 -3.62 0 0 0 Z " fill="#AFAA81" transform="translate(27,82)"/>
<path d="M0 0 C1.95 3.04 2 5 2.06 8.62 C1.89 9.18 1.89 9.18 1 12 C-2.5 13.75 -2.5 13.75 -6 15 C-6.33 15.99 -6.66 16.98 -7 18 C-7.66 17.67 -8.32 17.34 -9 17 C-8.67 15.68 -8.34 14.36 -8 13 C-8.99 13 -9.98 13 -11 13 C-11 11.68 -11 10.36 -11 9 C-9.33 8.96 -7.67 8.96 -6 9 C-5.67 9.33 -5.34 9.66 -5 10 C-5 8.02 -5 6.04 -5 4 C-10.62 2.88 -10.62 2.88 -14 4 C-14.99 4 -15.98 4 -17 4 C-17.66 3.34 -18.32 2.68 -19 2 C-16.69 -2.75 -16.69 -2.75 -13.62 -3.88 C-8.43 -4.12 -4.42 -2.75 0 0 Z " fill="#EAD8BE" transform="translate(67,14)"/>
<path d="M0 0 C0.66 0 1.32 0 2 0 C3.07 2.3 4.06 4.64 5 7 C4.67 7.66 4.34 8.32 4 9 C3.01 9 2.02 9 1 9 C1.33 9.99 1.66 10.98 2 12 C2 13.32 2 14.64 2 16 C1.01 16.33 0.02 16.66 -1 17 C-1.33 16.01 -1.66 15.02 -2 14 C-2.99 13.67 -3.98 13.34 -5 13 C-5 13.99 -5 14.98 -5 16 C-4.34 16 -3.68 16 -3 16 C-3 16.99 -3 17.98 -3 19 C5.57 18 5.57 18 9 17 C9.33 18.98 9.66 20.96 10 23 C9.01 22.34 8.02 21.68 7 21 C4.06 20.62 4.06 20.62 1 21 C-1.38 23 -1.38 23 -3 25 C-4.98 24.34 -6.96 23.68 -9 23 C-9 22.34 -9 21.68 -9 21 C-8.34 21 -7.68 21 -7 21 C-7 20.34 -7 19.68 -7 19 C-8.65 19.33 -10.3 19.66 -12 20 C-12 17 -12 17 -10.56 15.44 C-10.05 14.96 -9.53 14.49 -9 14 C-8.67 13.34 -8.34 12.68 -8 12 C-8.66 12 -9.32 12 -10 12 C-10 11.34 -10 10.68 -10 10 C-9.01 10 -8.02 10 -7 10 C-7 9.01 -7 8.02 -7 7 C-5.35 7 -3.7 7 -2 7 C-2 6.01 -2 5.02 -2 4 C-1.01 4 -0.02 4 1 4 C0.67 2.68 0.34 1.36 0 0 Z " fill="#7E7C53" transform="translate(34,63)"/>
<path d="M0 0 C0.37 0.17 0.37 0.17 2.25 1 C5 2 5 2 9 2 C9 2.66 9 3.32 9 4 C11.5 5.62 11.5 5.62 14 7 C13.67 7.66 13.34 8.32 13 9 C11.02 9 9.04 9 7 9 C7 9.66 7 10.32 7 11 C4.69 11.62 4.69 11.62 2 12 C1.01 11.34 0.02 10.68 -1 10 C-1.33 10.66 -1.66 11.32 -2 12 C-4.97 12 -7.94 12 -11 12 C-11 11.34 -11 10.68 -11 10 C-11.66 10 -12.32 10 -13 10 C-13 9.34 -13 8.68 -13 8 C-9.7 6.35 -6.4 4.7 -3 3 C-3.66 2.34 -4.32 1.68 -5 1 C-3.35 1 -1.7 1 0 1 C0 0.67 0 0.34 0 0 Z " fill="#C1B680" transform="translate(76,79)"/>
<path d="M0 0 C1.32 1.65 2.64 3.3 4 5 C3.34 5.66 2.68 6.32 2 7 C1.67 6.67 1.34 6.34 1 6 C1 6.99 1 7.98 1 9 C0.01 9 -0.98 9 -2 9 C-1.67 10.32 -1.34 11.64 -1 13 C-1.99 12.84 -1.99 12.84 -7 12 C-7 12.99 -7 13.98 -7 15 C-7.99 15 -8.98 15 -10 15 C-10 15.66 -10 16.32 -10 17 C-9.34 17 -8.68 17 -8 17 C-8.33 17.83 -8.33 17.83 -10 22 C-10.66 22 -11.32 22 -12 22 C-12.33 22.99 -12.66 23.98 -13 25 C-13.33 24.34 -13.66 23.68 -14 23 C-13.67 22.34 -13.34 21.68 -13 21 C-15.52 20.1 -16.57 19.81 -19.06 20.94 C-19.7 21.29 -20.34 21.64 -21 22 C-21.99 22 -22.98 22 -24 22 C-23.25 17.44 -20.9 15.34 -17.48 12.42 C-13.16 9.95 -8.81 10.44 -4 11 C-3.67 10.01 -3.34 9.02 -3 8 C-2.34 7.67 -1.68 7.34 -1 7 C-1.83 6.83 -1.83 6.83 -6 6 C-5.67 5.01 -5.34 4.02 -5 3 C-3.35 2.67 -1.7 2.34 0 2 C0 1.34 0 0.68 0 0 Z " fill="#B8B492" transform="translate(34,58)"/>
<path d="M0 0 C0.33 1.32 0.66 2.64 1 4 C-1.64 4 -4.28 4 -7 4 C-7.33 4.66 -7.66 5.32 -8 6 C-6.35 6 -4.7 6 -3 6 C-2.67 7.32 -2.34 8.64 -2 10 C-4.97 10 -7.94 10 -11 10 C-11.33 10.99 -11.66 11.98 -12 13 C-12.99 13 -13.98 13 -15 13 C-15.33 13.99 -15.66 14.98 -16 16 C-16.33 14.68 -16.66 13.36 -17 12 C-17.33 12.99 -17.66 13.98 -18 15 C-18.66 15 -19.32 15 -20 15 C-20 11.37 -20 7.74 -20 4 C-16.35 2.73 -12.8 1.74 -9 1 C-6.04 -0.48 -3.26 -0.06 0 0 Z " fill="#5C5F40" transform="translate(72,71)"/>
<path d="M0 0 C0.6 0.54 1.2 1.07 1.81 1.62 C1.81 2.28 1.81 2.94 1.81 3.62 C-1.16 4.94 -4.13 6.27 -7.19 7.62 C-7.19 8.61 -7.19 9.61 -7.19 10.62 C-8.18 10.95 -9.17 11.28 -10.19 11.62 C-10.52 12.28 -10.85 12.94 -11.19 13.62 C-11.19 12.64 -11.19 11.64 -11.19 10.62 C-12.19 9.62 -12.19 9.62 -14.19 8.62 C-14.19 6.97 -14.19 5.33 -14.19 3.62 C-15.51 3.3 -16.83 2.97 -18.19 2.62 C-18.52 3.61 -18.85 4.61 -19.19 5.62 C-19.85 4.31 -20.51 2.98 -21.19 1.62 C-14.45 -1.97 -7.18 -3.1 0 0 Z " fill="#CEC28C" transform="translate(87.1875,63.375)"/>
<path d="M0 0 C3.06 3.14 4 4.8 4 9.19 C2.87 12.36 1.87 13.34 -1 15 C-0.67 16.32 -0.34 17.64 0 19 C-0.33 18.34 -0.66 17.68 -1 17 C-2.98 16.27 -4.98 15.6 -7 15 C-7 13.68 -7 12.36 -7 11 C-5.68 11 -4.36 11 -3 11 C-2.67 9.68 -2.34 8.36 -2 7 C-2.66 7 -3.32 7 -4 7 C-4 6.34 -4 5.68 -4 5 C-5.65 5 -7.3 5 -9 5 C-9.33 5.66 -9.66 6.32 -10 7 C-10.33 4.69 -10.66 2.38 -11 0 C-7.47 -1.76 -3.71 -1.06 0 0 Z " fill="#E6D9C2" transform="translate(38,22)"/>
<path d="M0 0 C2.31 0 4.62 0 7 0 C7.33 1.32 7.66 2.64 8 4 C6.35 4.66 4.7 5.32 3 6 C3 6.66 3 7.32 3 8 C3.66 8 4.32 8 5 8 C5.19 10.88 5.19 10.88 5 14 C2 16 2 16 0 15.81 C-2.5 14.8 -3.57 14.33 -5 12 C-5.05 9.15 -4.6 6.84 -4 4 C-3.34 3.67 -2.68 3.34 -2 3 C-1.34 3.33 -0.68 3.66 0 4 C0 2.68 0 1.36 0 0 Z " fill="#8F854B" transform="translate(55,59)"/>
<path d="M0 0 C3.8 1.52 5.67 2.48 7.88 6 C9 9 9 9 9 12 C7.35 12.33 5.7 12.66 4 13 C3.34 11.02 2.68 9.04 2 7 C1.51 7.33 1.01 7.66 0.5 8 C-3.09 9.44 -6.14 9.13 -10 9 C-10 8.01 -10 7.02 -10 6 C-10.66 6 -11.32 6 -12 6 C-12 5.01 -12 4.02 -12 3 C-10.06 3.38 -10.06 3.38 -8 4 C-7.67 4.66 -7.34 5.32 -7 6 C-7 4.68 -7 3.36 -7 2 C-6.34 2 -5.68 2 -5 2 C-5 2.66 -5 3.32 -5 4 C-4.34 4 -3.68 4 -3 4 C-2.67 3.01 -2.34 2.02 -2 1 C-1.34 1.33 -0.68 1.66 0 2 C0 1.34 0 0.68 0 0 Z " fill="#54593E" transform="translate(41,73)"/>
<path d="M0 0 C0.78 0.19 1.57 0.37 2.38 0.56 C5 1 5 1 7 0 C9.62 0.94 9.62 0.94 12 2 C12.33 4.64 12.66 7.28 13 10 C12.34 9.67 11.68 9.34 11 9 C11 8.34 11 7.68 11 7 C9.35 7 7.7 7 6 7 C5.94 7.6 5.88 8.21 5.82 8.83 C5.73 9.63 5.65 10.43 5.56 11.25 C5.48 12.04 5.4 12.83 5.32 13.64 C5.02 15.82 4.58 17.88 4 20 C2.77 17.3 1.96 15.49 2.19 12.5 C1.91 8.75 -0.27 7.39 -3 5 C-2.01 3.35 -1.02 1.7 0 0 Z " fill="#D6BD92" transform="translate(50,16)"/>
<path d="M0 0 C2.6 0.35 4.52 0.66 6.68 2.2 C8.55 4.75 8.17 6.35 7.81 9.44 C7.72 10.38 7.62 11.33 7.52 12.31 C7.02 14.88 6.3 16.74 5 19 C4.34 19 3.68 19 3 19 C3 16.03 3 13.06 3 10 C1.68 10.33 0.36 10.66 -1 11 C-1 11.99 -1 12.98 -1 14 C-1.66 14 -2.32 14 -3 14 C-2.67 12.68 -2.34 11.36 -2 10 C-1.34 10 -0.68 10 0 10 C-0.33 9.34 -0.66 8.68 -1 8 C-1.23 2.46 -1.23 2.46 0 0 Z " fill="#B7AE80" transform="translate(44,54)"/>
<path d="M0 0 C0.88 0.11 1.77 0.22 2.68 0.33 C3.57 0.43 4.46 0.53 5.38 0.62 C6.09 0.8 6.81 0.97 7.55 1.14 C7.88 1.8 8.21 2.46 8.55 3.14 C1.13 7.19 -5.91 10.33 -14.45 8.14 C-14.45 6.16 -14.45 4.18 -14.45 2.14 C-14.12 3.46 -13.79 4.78 -13.45 6.14 C-12.79 6.14 -12.13 6.14 -11.45 6.14 C-11.12 4.82 -10.79 3.5 -10.45 2.14 C-10.12 3.46 -9.79 4.78 -9.45 6.14 C-9.12 5.48 -8.79 4.82 -8.45 4.14 C-7.46 3.81 -6.47 3.48 -5.45 3.14 C-4.99 2.63 -4.54 2.11 -4.08 1.57 C-2.45 0.14 -2.45 0.14 0 0 Z " fill="#8A824E" transform="translate(65.4453125,79.85546875)"/>
<path d="M0 0 C0.33 0.66 0.66 1.32 1 2 C1.66 2 2.32 2 3 2 C3 2.99 3 3.98 3 5 C11.57 4 11.57 4 15 3 C15.33 4.98 15.66 6.96 16 9 C15.01 8.34 14.02 7.68 13 7 C10.06 6.62 10.06 6.62 7 7 C4.62 9 4.62 9 3 11 C1.02 10.34 -0.96 9.68 -3 9 C-3 8.34 -3 7.68 -3 7 C-2.34 7 -1.68 7 -1 7 C-1 6.34 -1 5.68 -1 5 C-2.65 5.33 -4.3 5.66 -6 6 C-6 5.01 -6 4.02 -6 3 C-4.02 2.01 -2.04 1.02 0 0 Z " fill="#757750" transform="translate(28,77)"/>
<path d="M0 0 C0.33 0.66 0.66 1.32 1 2 C0.67 2.66 0.34 3.32 0 4 C-4.29 4 -8.58 4 -13 4 C-13 4.66 -13 5.32 -13 6 C-16.78 7.84 -18.95 8.16 -23 7 C-23.33 5.35 -23.66 3.7 -24 2 C-21.69 2 -19.38 2 -17 2 C-16.67 2.99 -16.34 3.98 -16 5 C-15.34 5 -14.68 5 -14 5 C-14 4.34 -14 3.68 -14 3 C-13.34 3 -12.68 3 -12 3 C-11.67 2.01 -11.34 1.02 -11 0 C-7.39 -1.67 -3.77 -0.78 0 0 Z " fill="#CAC089" transform="translate(62,91)"/>
<path d="M0 0 C0.74 0.33 1.48 0.66 2.25 1 C5 2 5 2 9 2 C9 2.66 9 3.32 9 4 C11.5 5.62 11.5 5.62 14 7 C13.67 7.66 13.34 8.32 13 9 C11.02 9 9.04 9 7 9 C7 9.66 7 10.32 7 11 C4.69 11.69 4.69 11.69 2 12 C0.19 10.56 0.19 10.56 -1 9 C-0.67 8.01 -0.34 7.02 0 6 C0.66 6 1.32 6 2 6 C1.49 3.83 1 2 0 0 Z " fill="#D2C79B" transform="translate(76,79)"/>
<path d="M0 0 C4.88 1.75 4.88 1.75 6 4 C4.68 4 3.36 4 2 4 C2 5.65 2 7.3 2 9 C1.34 9 0.68 9 0 9 C0 9.66 0 10.32 0 11 C0.99 11.33 1.98 11.66 3 12 C3 13.32 3 14.64 3 16 C-0.09 17.76 -1.23 18 -5 18 C-4.38 13.68 -3.36 9.75 -1.94 5.62 C-1.58 4.57 -1.21 3.51 -0.84 2.41 C-0.56 1.62 -0.29 0.82 0 0 Z " fill="#9A8B60" transform="translate(71,41)"/>
<path d="M0 0 C1.6 -0.03 3.21 -0.05 4.81 -0.06 C5.71 -0.07 6.6 -0.09 7.52 -0.1 C10 0 10 0 13 1 C12.67 2.32 12.34 3.64 12 5 C8.12 4.12 8.12 4.12 7 3 C6.01 5.97 5.02 8.94 4 12 C2.26 9.7 0.6 7.4 -1 5 C-0.62 2.31 -0.62 2.31 0 0 Z " fill="#DCC294" transform="translate(65,39)"/>
<path d="M0 0 C1.68 0.29 3.34 0.62 5 1 C5.33 1.99 5.66 2.98 6 4 C6.66 4.33 7.32 4.66 8 5 C6.35 7.64 4.7 10.28 3 13 C2.67 11.68 2.34 10.36 2 9 C1.67 9.99 1.34 10.98 1 12 C0.34 12 -0.32 12 -1 12 C-1.03 10.19 -1.05 8.38 -1.06 6.56 C-1.07 5.55 -1.09 4.54 -1.1 3.5 C-1 1 -1 1 0 0 Z " fill="#494C32" transform="translate(53,74)"/>
<path d="M0 0 C0.66 0.66 1.32 1.32 2 2 C4 2.04 6 2.04 8 2 C8.66 2.33 9.32 2.66 10 3 C10 4.65 10 6.3 10 8 C9.34 8 8.68 8 8 8 C8 8.99 8 9.98 8 11 C5 11 5 11 3.62 9.75 C3.09 9.17 2.55 8.59 2 8 C0.34 6.65 -1.32 5.32 -3 4 C-2.01 3.67 -1.02 3.34 0 3 C0 2.01 0 1.02 0 0 Z " fill="#9D8F5A" transform="translate(24,48)"/>
<path d="M0 0 C0.66 1.32 1.32 2.64 2 4 C0.19 6.09 -1 7 -3.62 8 C-4.41 8.33 -5.19 8.66 -6 9 C-6.33 9.99 -6.66 10.98 -7 12 C-7.66 11.67 -8.32 11.34 -9 11 C-8.67 9.68 -8.34 8.36 -8 7 C-8.99 7 -9.98 7 -11 7 C-11 5.68 -11 4.36 -11 3 C-9.33 2.96 -7.67 2.96 -6 3 C-5.67 3.33 -5.34 3.66 -5 4 C-5 3.01 -5 2.02 -5 1 C-3.35 0.67 -1.7 0.34 0 0 Z " fill="#EADFCD" transform="translate(67,20)"/>
<path d="M0 0 C0.33 0.66 0.66 1.32 1 2 C1.66 2.33 2.32 2.66 3 3 C2.01 3 1.02 3 0 3 C0 2.01 0 1.02 0 0 Z " fill="#F7F6F3" transform="translate(45,50)"/>
<path d="" fill="#F6F6F4" transform="translate(0,0)"/>
<path d="" fill="#F7F5F3" transform="translate(0,0)"/>
<path d="" fill="#F4F4F5" transform="translate(0,0)"/>
<path d="" fill="#FAF9F4" transform="translate(0,0)"/>
<path d="" fill="#F7F7F4" transform="translate(0,0)"/>
</svg>
