<?xml version="1.0" encoding="UTF-8"?>
<!-- Generator: visioncortex VTracer 0.6.12 -->
<svg version="1.1" xmlns="http://www.w3.org/2000/svg" width="103" height="121">
<path d="M0 0 C1 1 1 1 1.31 4.81 C1.3 8.08 1.26 8.7 -1 11.25 C-1.66 11.83 -2.32 12.41 -3 13 C-3 14.32 -3 15.64 -3 17 C-2.24 16.48 -1.47 15.97 -0.69 15.44 C0.2 14.96 1.09 14.49 2 14 C2.99 14.33 3.98 14.66 5 15 C5.25 18.31 5.25 18.31 5 22 C2.94 24.21 1.3 24.9 -1.56 25.81 C-4.93 27.45 -5.6 29.62 -7 33 C-6 34 -6 34 -3 35 C-3.75 37.37 -3.75 37.37 -5 40 C-5.67 40.27 -6.34 40.54 -7.03 40.81 C-7.36 41.01 -7.36 41.01 -9 42 C-9.61 44.6 -9.61 44.6 -9.75 47.62 C-9.78 48.13 -9.78 48.13 -9.92 50.66 C-9.93 51.05 -9.93 51.05 -10 53 C-9.01 53 -8.02 53 -7 53 C-7 51.68 -7 50.36 -7 49 C-5 47.25 -5 47.25 -3 46 C-1.68 46.99 -0.36 47.98 1 49 C1 45 1 45 -0.56 43.06 C-2 41 -2 41 -1.69 38.25 C-1.46 37.51 -1.23 36.77 -1 36 C0.32 36 1.64 36 3 36 C2.67 35.01 2.34 34.02 2 33 C4 31 4 31 6.44 30.69 C9.49 31.06 9.98 31.81 12 34 C13.32 34.38 14.66 34.72 16 35 C17.75 40.24 17.75 40.24 18 43 C16.25 45.5 16.25 45.5 14 47 C13.34 47 12.68 47 12 47 C12 47.66 12 48.32 12 49 C11.68 49.05 11.68 49.05 10.06 49.31 C9.38 49.54 8.7 49.77 8 50 C7.67 50.99 7.34 51.98 7 53 C7.54 52.67 8.07 52.34 8.62 52 C11.74 50.69 13.63 50.61 17 51 C19.77 52.15 22.39 53.52 25 55 C24.67 55.99 24.34 56.98 24 58 C22.87 58.29 21.73 58.58 20.56 58.88 C19.39 59.25 18.21 59.62 17 60 C16.85 60.4 16.85 60.4 16.06 62.44 C15 65 15 65 13.11 65.99 C11.09 66.73 9.07 67.41 7 68 C7 68.99 7 69.98 7 71 C8.03 70.77 9.06 70.55 10.12 70.31 C14.73 69.94 16.22 70.4 20 73 C22.59 75.48 25.08 77.96 27 81 C26.84 81.5 26.84 81.5 26 84 C23.69 83.67 21.38 83.34 19 83 C18.34 83.99 17.68 84.98 17 86 C16.01 86 15.02 86 14 86 C14.33 86.5 14.33 86.5 16 89 C17.32 89 18.64 89 20 89 C20.5 89.33 20.5 89.33 23 91 C23 91.66 23 92.32 23 93 C22.41 93.06 21.82 93.12 21.21 93.18 C17.08 93.62 13.06 94.15 9 95 C6.67 95.34 4.34 95.68 2 96 C2 96.99 2 97.98 2 99 C-6.22 100.33 -6.22 100.33 -9.69 98.88 C-12 98 -12 98 -15.12 99.38 C-16.07 99.91 -17.02 100.45 -18 101 C-20.8 101 -22.98 100.63 -25.69 100 C-26.09 99.91 -26.09 99.91 -28.14 99.44 C-28.75 99.29 -29.37 99.15 -30 99 C-29.67 97.68 -29.34 96.36 -29 95 C-34.38 93.9 -37.8 94.4 -43 96 C-46 95 -46 95 -48 92 C-48.83 92.16 -48.83 92.16 -53 93 C-53.33 92.01 -53.66 91.02 -54 90 C-52.02 89.01 -50.04 88.02 -48 87 C-48.66 86.01 -49.32 85.02 -50 84 C-47.75 82.81 -47.75 82.81 -45 82 C-42.69 83.38 -42.69 83.38 -41 85 C-40.67 84.67 -40.34 84.34 -40 84 C-40 83.01 -40 82.02 -40 81 C-45.96 78.31 -50.43 76.31 -57 78 C-56.75 75.62 -56.75 75.62 -56 73 C-54.06 71.94 -54.06 71.94 -52 71 C-51.3 69.68 -50.63 68.35 -50 67 C-46.56 64.71 -45.01 64.82 -41 65 C-41.29 64.42 -41.58 63.84 -41.88 63.25 C-42.92 61.17 -43.96 59.08 -45 57 C-44.01 57 -43.02 57 -42 57 C-42.33 55.68 -42.66 54.36 -43 53 C-44.32 53 -45.64 53 -47 53 C-49.48 51.87 -51.67 50.43 -54 49 C-54.43 44.68 -54.23 42.41 -52.12 38.56 C-50.23 36.49 -49.26 36.04 -46.44 35.63 C-43.93 35.63 -41.49 35.74 -39 36 C-36.26 40.6 -35.92 42.83 -37 48 C-36.56 51.37 -36.56 51.37 -36 54 C-35.67 52.35 -35.34 50.7 -35 49 C-32.03 48.34 -29.06 47.68 -26 47 C-26 46.34 -26 45.68 -26 45 C-26.99 44.34 -27.98 43.68 -29 43 C-30.38 41.03 -31.71 39.03 -33 37 C-33.66 36.01 -34.32 35.02 -35 34 C-34.67 33.67 -34.34 33.34 -34 33 C-32.47 33.09 -30.95 33.25 -29.44 33.44 C-29.02 33.49 -29.02 33.49 -26.93 33.75 C-26.3 33.83 -25.66 33.91 -25 34 C-25.33 33.24 -25.66 32.47 -26 31.69 C-27 29 -27 29 -27 26 C-27.66 26 -28.32 26 -29 26 C-29.66 25.34 -30.32 24.68 -31 24 C-31.83 24.02 -32.65 24.04 -33.5 24.06 C-34.33 24.04 -35.15 24.02 -36 24 C-38 21 -38 21 -37.76 18.52 C-37.65 18.07 -37.65 18.07 -37.12 15.81 C-36.92 14.91 -36.72 14.01 -36.51 13.08 C-36.34 12.39 -36.17 11.71 -36 11 C-35.01 10.67 -34.02 10.34 -33 10 C-32.34 10.33 -31.68 10.66 -31 11 C-30.67 10.01 -30.34 9.02 -30 8 C-28.54 8.06 -27.08 8.15 -25.62 8.25 C-25.22 8.27 -25.22 8.27 -23.16 8.39 C-21 9 -21 9 -19.78 10.91 C-19.65 11.25 -19.65 11.25 -19 13 C-18.63 13.74 -18.26 14.48 -17.88 15.25 C-17.59 15.83 -17.3 16.41 -17 17 C-17.83 17.68 -18.65 18.36 -19.5 19.06 C-22 22 -22 22 -22.5 25.19 C-21.87 29.99 -20.55 34.42 -19 39 C-18.34 38.01 -17.68 37.02 -17 36 C-16.01 35.34 -15.02 34.68 -14 34 C-14.16 33.58 -14.16 33.58 -15 31.44 C-16.06 27.79 -16.15 24.78 -16 21 C-14.68 21 -13.36 21 -12 21 C-11.34 21.66 -10.68 22.32 -10 23 C-9 22 -9 22 -8.9 20.15 C-8.91 19.42 -8.93 18.69 -8.94 17.94 C-8.96 16.64 -8.98 15.34 -9 14 C-8.34 14 -7.68 14 -7 14 C-7.16 13.57 -7.16 13.57 -8 11.38 C-9.18 7.41 -9.9 3.81 -8 0 C-5.02 -1.13 -3 -1.03 0 0 Z M-25 34 C-24 36 -24 36 -24 36 Z M-14 47 C-16.88 50.76 -18.57 53.19 -18 58 C-17.67 57.34 -17.34 56.68 -17 56 C-16.01 56 -15.02 56 -14 56 C-12.52 53.04 -12.94 50.26 -13 47 C-13.33 47 -13.66 47 -14 47 Z M-28 50 C-28 50.66 -28 51.32 -28 52 C-25.69 52.66 -23.38 53.32 -21 54 C-21.33 52.35 -21.66 50.7 -22 49 C-24.16 49 -25.92 49.45 -28 50 Z M3 54 C2.67 55.32 2.34 56.64 2 58 C3.32 56.68 4.64 55.36 6 54 C5.01 54 4.02 54 3 54 Z M-5 58 C-4 60 -4 60 -4 60 Z M-4 60 C-3 63 -3 63 -3 63 Z M-37 63 C-37.33 63.99 -37.66 64.98 -38 66 C-37.34 66.33 -37.34 66.33 -34 68 C-34.66 66.35 -35.32 64.7 -36 63 C-36.33 63 -36.66 63 -37 63 Z M-30 63 C-30.95 65.17 -31.14 66.56 -30.4 68.82 C-29.64 70.57 -28.82 72.29 -28 74 C-27.67 73.34 -27.34 72.68 -27 72 C-26.01 71.67 -25.02 71.34 -24 71 C-24.83 70.67 -24.83 70.67 -29 69 C-28.67 67.02 -28.34 65.04 -28 63 C-28.66 63 -29.32 63 -30 63 Z M8 86 C9 88 9 88 9 88 Z M-27 94 C-23 95 -23 95 -23 95 Z " fill="#767443" transform="translate(67,11)"/>
<path d="M0 0 C2.78 1.14 5.39 2.52 8 4 C7.67 4.99 7.34 5.98 7 7 C5.87 7.29 4.73 7.58 3.56 7.88 C2.39 8.25 1.21 8.62 0 9 C-0.15 9.4 -0.15 9.4 -0.94 11.44 C-2 14 -2 14 -3.89 14.99 C-5.91 15.73 -7.93 16.41 -10 17 C-10 17.99 -10 18.98 -10 20 C-9.48 19.89 -9.48 19.89 -6.88 19.31 C-2.27 18.94 -0.78 19.4 3 22 C5.59 24.48 8.08 26.96 10 30 C9.84 30.5 9.84 30.5 9 33 C6.69 32.67 4.38 32.34 2 32 C1.34 32.99 0.68 33.98 0 35 C-0.99 35 -1.98 35 -3 35 C-2.34 35.99 -1.68 36.98 -1 38 C0.32 38 1.64 38 3 38 C3.5 38.33 3.5 38.33 6 40 C6 40.66 6 41.32 6 42 C5.7 42.03 5.7 42.03 4.21 42.18 C0.08 42.62 -3.94 43.15 -8 44 C-10.33 44.34 -12.66 44.68 -15 45 C-15 45.99 -15 46.98 -15 48 C-23.22 49.33 -23.22 49.33 -26.69 47.88 C-29 47 -29 47 -32.12 48.38 C-33.07 48.91 -34.02 49.45 -35 50 C-37.8 50 -39.98 49.63 -42.69 49 C-43.09 48.91 -43.09 48.91 -45.14 48.44 C-45.75 48.29 -46.37 48.15 -47 48 C-46.67 46.68 -46.34 45.36 -46 44 C-51.38 42.9 -54.8 43.4 -60 45 C-63 44 -63 44 -65 41 C-65.83 41.16 -65.83 41.16 -70 42 C-70.16 41.5 -70.16 41.5 -71 39 C-69.02 38.01 -67.04 37.02 -65 36 C-65.66 35.01 -66.32 34.02 -67 33 C-64.75 31.81 -64.75 31.81 -62 31 C-59.69 32.38 -59.69 32.38 -58 34 C-57.67 33.67 -57.34 33.34 -57 33 C-57 32.01 -57 31.02 -57 30 C-62.96 27.31 -67.43 25.31 -74 27 C-73.75 24.62 -73.75 24.62 -73 22 C-71.06 20.94 -71.06 20.94 -69 20 C-68.3 18.68 -67.63 17.35 -67 16 C-63.56 13.71 -62.01 13.82 -58 14 C-58 13.34 -58 12.68 -58 12 C-56.68 12 -55.36 12 -54 12 C-53.71 12.6 -53.42 13.2 -53.12 13.81 C-52 16 -52 16 -50 19 C-49.34 18.67 -48.68 18.34 -48 18 C-47.67 19.32 -47.34 20.64 -47 22 C-45.74 21.77 -44.48 21.55 -43.19 21.31 C-39.28 20.8 -39.28 20.8 -37 22.44 C-36.84 22.7 -36.84 22.7 -36 24 C-36 21.36 -36 18.72 -36 16 C-34.68 16.66 -33.36 17.32 -32 18 C-32 20.64 -32 23.28 -32 26 C-31.22 25.67 -30.43 25.34 -29.62 25 C-27 24 -27 24 -25 24 C-24.67 23.34 -24.34 22.68 -24 22 C-23.34 22 -22.68 22 -22 22 C-21.81 21.16 -21.61 20.31 -21.41 19.45 C-21.15 18.35 -20.89 17.25 -20.62 16.12 C-20.37 15.03 -20.11 13.94 -19.85 12.82 C-19 10 -19 10 -17 8 C-17 8.66 -17 9.32 -17 10 C-15.68 9.67 -14.36 9.34 -13 9 C-13.16 8.5 -13.16 8.5 -14 6 C-6.24 -0.58 -6.24 -0.58 0 0 Z M-9 35 C-8 37 -8 37 -8 37 Z M-44 43 C-40 44 -40 44 -40 44 Z " fill="#8F8A4F" transform="translate(84,62)"/>
<path d="M0 0 C1.32 0 2.64 0 4 0 C4.29 0.6 4.58 1.2 4.88 1.81 C6 4 6 4 8 7 C8.66 6.67 9.32 6.34 10 6 C10.66 7.98 11.32 9.96 12 12 C12.66 12 13.32 12 14 12 C15.5 13.38 15.5 13.38 17 15 C17.66 15.66 18.32 16.32 19 17 C19 17.66 19 18.32 19 19 C20.12 20.37 21.3 21.7 22.5 23 C26 26.78 26 26.78 26 29 C20.72 29.76 16.28 30.08 11 29 C10.57 29.01 10.57 29.01 8.38 29.06 C5.73 28.99 4.25 28.33 2 27 C2.33 25.02 2.66 23.04 3 21 C2.34 21 1.68 21 1 21 C1 20.01 1 19.02 1 18 C-4.96 15.31 -9.43 13.31 -16 15 C-15.75 12.62 -15.75 12.62 -15 10 C-13.06 8.94 -13.06 8.94 -11 8 C-10.3 6.68 -9.63 5.35 -9 4 C-5.56 1.71 -4.01 1.82 0 2 C0 1.34 0 0.68 0 0 Z " fill="#6C6E49" transform="translate(26,74)"/>
<path d="M0 0 C2.78 1.14 5.39 2.52 8 4 C7.67 4.99 7.34 5.98 7 7 C5.87 7.29 4.73 7.58 3.56 7.88 C2.39 8.25 1.21 8.62 0 9 C-1.19 11.5 -1.19 11.5 -2 14 C-5.33 16.3 -8.29 16.21 -12.25 16.12 C-13.33 16.11 -14.41 16.09 -15.52 16.07 C-16.34 16.05 -17.16 16.02 -18 16 C-18.33 16.83 -18.33 16.83 -20 21 C-19.67 20.67 -19.34 20.34 -19 20 C-18.34 20 -17.68 20 -17 20 C-17.33 21.32 -17.66 22.64 -18 24 C-17.01 24 -16.02 24 -15 24 C-14.34 22.68 -13.68 21.36 -13 20 C-13 20.66 -13 21.32 -13 22 C-12.01 22 -11.02 22 -10 22 C-10 22.66 -10 23.32 -10 24 C-9.01 24 -8.02 24 -7 24 C-7 24.99 -7 25.98 -7 27 C-9.14 27.16 -9.14 27.16 -20 28 C-20 28.66 -20 29.32 -20 30 C-18.02 29.67 -16.04 29.34 -14 29 C-14.33 30.32 -14.66 31.64 -15 33 C-14.36 33.14 -13.72 33.29 -13.06 33.44 C-11 34 -11 34 -10 35 C-9.96 36.67 -9.96 38.33 -10 40 C-11.19 39.99 -12.38 39.98 -13.61 39.96 C-15.18 39.96 -16.75 39.95 -18.31 39.94 C-18.71 39.93 -18.71 39.93 -20.69 39.91 C-21.07 39.91 -21.07 39.91 -22.99 39.9 C-23.68 39.9 -24.38 39.89 -25.1 39.89 C-27 40 -27 40 -30 41 C-28.93 38.59 -27.79 36.74 -26.12 34.69 C-23.68 31.6 -21.89 28.45 -20 25 C-23.9 26.26 -25.99 27.37 -28 31 C-28.69 34.25 -28.69 34.25 -29 37 C-31.36 34.64 -31.49 33.22 -32 30 C-32.99 29.67 -33.98 29.34 -35 29 C-35.33 24.71 -35.66 20.42 -36 16 C-35.34 16.33 -35.34 16.33 -32 18 C-32 20.64 -32 23.28 -32 26 C-31.22 25.67 -30.43 25.34 -29.62 25 C-27 24 -27 24 -25 24 C-24.67 23.34 -24.34 22.68 -24 22 C-23.34 22 -22.68 22 -22 22 C-21.81 21.16 -21.61 20.31 -21.41 19.45 C-21.15 18.35 -20.89 17.25 -20.62 16.12 C-20.37 15.03 -20.11 13.94 -19.85 12.82 C-19 10 -19 10 -17 8 C-17 8.66 -17 9.32 -17 10 C-15.68 9.67 -14.36 9.34 -13 9 C-13.33 8.01 -13.66 7.02 -14 6 C-6.24 -0.58 -6.24 -0.58 0 0 Z " fill="#676944" transform="translate(84,62)"/>
<path d="M0 0 C2.64 0.33 5.28 0.66 8 1 C8 1.99 8 2.98 8 4 C9.03 3.77 10.06 3.55 11.12 3.31 C15.73 2.94 17.22 3.4 21 6 C23.59 8.48 26.08 10.96 28 14 C27.67 14.99 27.34 15.98 27 17 C24.69 16.67 22.38 16.34 20 16 C19.34 16.99 18.68 17.98 18 19 C17.01 19 16.02 19 15 19 C15.66 19.99 16.32 20.98 17 22 C18.32 22 19.64 22 21 22 C21.99 22.66 22.98 23.32 24 24 C24 24.66 24 25.32 24 26 C23.41 26.06 22.82 26.12 22.21 26.18 C18.08 26.62 14.06 27.15 10 28 C7.67 28.34 5.34 28.68 3 29 C3 29.99 3 30.98 3 32 C-5.04 33.61 -5.04 33.61 -9.06 31.06 C-9.7 30.38 -10.34 29.7 -11 29 C-8.33 29 -5.67 29 -3 29 C-3 28.34 -3 27.68 -3 27 C-1.84 26.84 -1.84 26.84 4 26 C4 25.34 4 24.68 4 24 C5.32 24 6.64 24 8 24 C7.19 21.06 7.19 21.06 6 18 C5.01 17.67 4.02 17.34 3 17 C3 16.01 3 15.02 3 14 C1.35 14 -0.3 14 -2 14 C-2 13.34 -2 12.68 -2 12 C1.01 11 3.04 10.9 6.19 10.94 C7.09 10.95 7.99 10.96 8.92 10.96 C9.61 10.98 10.29 10.99 11 11 C11 10.01 11 9.02 11 8 C10.01 8 9.02 8 8 8 C8 7.34 8 6.68 8 6 C6.68 6 5.36 6 4 6 C3.67 6.66 3.34 7.32 3 8 C2.01 8 1.02 8 0 8 C0.33 6.68 0.66 5.36 1 4 C0.34 4 -0.32 4 -1 4 C-1 4.66 -1 5.32 -1 6 C-1.66 5.67 -2.32 5.34 -3 5 C-2.51 4.36 -2.01 3.72 -1.5 3.06 C0 1 0 1 0 0 Z M9 19 C10 21 10 21 10 21 Z " fill="#B0A571" transform="translate(66,78)"/>
<path d="M0 0 C1.46 0.06 2.92 0.15 4.38 0.25 C4.78 0.27 4.78 0.27 6.84 0.39 C9 1 9 1 10.22 2.91 C10.48 3.6 10.73 4.29 11 5 C11.37 5.74 11.74 6.48 12.12 7.25 C12.41 7.83 12.7 8.41 13 9 C12.17 9.68 11.35 10.36 10.5 11.06 C8 14 8 14 7.5 17.06 C8.07 21.55 9.12 25.78 10.34 30.13 C10.97 32.87 11.12 35.21 11 38 C10.34 38 9.68 38 9 38 C9 39.65 9 41.3 9 43 C8.67 42.34 8.34 41.68 8 41 C7.67 41.66 7.34 42.32 7 43 C4.44 43.63 4.44 43.63 2 44 C3.65 44 5.3 44 7 44 C7 44.33 7 44.66 7 45 C5.02 45 3.04 45 1 45 C0.67 43.68 0.34 42.36 0 41 C-0.83 41.16 -0.83 41.16 -5 42 C-2.24 39.24 0.21 39.42 4 39 C4 38.34 4 37.68 4 37 C3.01 36.34 2.02 35.68 1 35 C-0.38 33.03 -1.71 31.03 -3 29 C-3.66 28.01 -4.32 27.02 -5 26 C-4.67 25.67 -4.34 25.34 -4 25 C-2.47 25.09 -0.95 25.25 0.56 25.44 C1.39 25.54 2.22 25.64 3.07 25.75 C3.7 25.83 4.34 25.91 5 26 C4.67 25.24 4.34 24.47 4 23.69 C3 21 3 21 3 18 C2.34 18 1.68 18 1 18 C0.34 17.34 -0.32 16.68 -1 16 C-1.83 16.02 -2.65 16.04 -3.5 16.06 C-4.33 16.04 -5.15 16.02 -6 16 C-8 13 -8 13 -7.76 10.52 C-7.55 9.63 -7.34 8.73 -7.12 7.81 C-6.92 6.91 -6.72 6.01 -6.51 5.08 C-6.34 4.39 -6.17 3.71 -6 3 C-5.01 2.67 -4.02 2.34 -3 2 C-2.34 2.33 -1.68 2.66 -1 3 C-0.67 2.01 -0.34 1.02 0 0 Z M5 26 C6 28 6 28 6 28 Z " fill="#BBB8A1" transform="translate(37,19)"/>
<path d="M0 0 C1 1 1 1 1.31 4.81 C1.3 8.08 1.26 8.7 -1 11.25 C-1.66 11.83 -2.32 12.41 -3 13 C-3 14.32 -3 15.64 -3 17 C-2.24 16.48 -1.47 15.97 -0.69 15.44 C0.2 14.96 1.09 14.49 2 14 C2.99 14.33 3.98 14.66 5 15 C5.25 18.31 5.25 18.31 5 22 C2.94 24.21 1.3 24.9 -1.56 25.81 C-4.93 27.45 -5.6 29.62 -7 33 C-6 34 -6 34 -3 35 C-4.49 39.72 -4.49 39.72 -7.06 41.12 C-7.7 41.41 -8.34 41.7 -9 42 C-9.33 42.99 -9.66 43.98 -10 45 C-9.98 44.12 -9.95 43.24 -9.93 42.33 C-9.91 41.17 -9.89 40.01 -9.88 38.81 C-9.85 37.66 -9.83 36.52 -9.8 35.33 C-10 32.08 -10.61 29.91 -12 27 C-13.23 29.46 -13.07 31.28 -13 34 C-16.01 29.48 -16.1 26.34 -16 21 C-14.68 21 -13.36 21 -12 21 C-11.34 21.66 -10.68 22.32 -10 23 C-9 22 -9 22 -8.9 20.15 C-8.91 19.42 -8.93 18.69 -8.94 17.94 C-8.96 16.64 -8.98 15.34 -9 14 C-8.34 14 -7.68 14 -7 14 C-7.33 13.13 -7.66 12.27 -8 11.38 C-9.18 7.41 -9.9 3.81 -8 0 C-5.02 -1.13 -3 -1.03 0 0 Z " fill="#B4AA90" transform="translate(67,11)"/>
<path d="M0 0 C2.74 4.6 3.08 6.83 2 12 C2.44 15.38 2.44 15.38 3 18 C3.33 17.01 3.66 16.02 4 15 C4.99 15.33 5.98 15.66 7 16 C6.34 16 5.68 16 5 16 C5.33 19.3 5.66 22.6 6 26 C5.34 26 4.68 26 4 26 C3.67 26.99 3.34 27.98 3 29 C2.67 28.34 2.34 27.68 2 27 C1.03 26.71 0.06 26.42 -0.94 26.12 C-4 25 -4 25 -5.38 22.88 C-5.58 22.26 -5.79 21.64 -6 21 C-5.01 21 -4.02 21 -3 21 C-3.33 19.68 -3.66 18.36 -4 17 C-5.32 17 -6.64 17 -8 17 C-10.48 15.87 -12.67 14.43 -15 13 C-15.43 8.68 -15.23 6.41 -13.12 2.56 C-9.56 -1.33 -4.88 -0.51 0 0 Z " fill="#A88C7E" transform="translate(28,47)"/>
<path d="M0 0 C1.32 0 2.64 0 4 0 C5.46 2.65 6 3.89 6 7 C5.01 6.83 5.01 6.83 0 6 C0 6.66 0 7.32 0 8 C1.32 8.33 2.64 8.66 4 9 C4 9.66 4 10.32 4 11 C4.91 10.92 5.82 10.84 6.75 10.75 C10 11 10 11 12.38 13 C12.91 13.66 13.45 14.32 14 15 C12.68 15.33 11.36 15.66 10 16 C9.67 15.34 9.34 14.68 9 14 C8.36 14.52 7.72 15.03 7.06 15.56 C2.91 17.51 -0.6 17.15 -5 16 C-5.66 15.34 -6.32 14.68 -7 14 C-9.16 14.02 -9.16 14.02 -11.62 14.38 C-12.44 14.49 -13.26 14.6 -14.1 14.71 C-14.73 14.81 -15.35 14.9 -16 15 C-15.75 12.62 -15.75 12.62 -15 10 C-13.06 8.94 -13.06 8.94 -11 8 C-10.3 6.68 -9.63 5.35 -9 4 C-5.56 1.71 -4.01 1.82 0 2 C0 1.34 0 0.68 0 0 Z " fill="#908F6A" transform="translate(26,74)"/>
<path d="M0 0 C3.05 0.37 3.55 1.12 5.56 3.31 C6.88 3.69 8.22 4.03 9.56 4.31 C11.31 9.55 11.31 9.55 11.56 12.31 C9.81 14.81 9.81 14.81 7.56 16.31 C6.9 16.31 6.24 16.31 5.56 16.31 C5.56 16.97 5.56 17.63 5.56 18.31 C4.94 18.42 4.33 18.52 3.69 18.62 C1.56 19.31 1.56 19.31 -0.44 22.31 C-0.44 21.65 -0.44 20.99 -0.44 20.31 C-1.1 19.98 -1.76 19.65 -2.44 19.31 C-1.45 17.66 -0.46 16.01 0.56 14.31 C0.01 14.58 -0.55 14.85 -1.12 15.12 C-3.44 15.31 -3.44 15.31 -6.25 13.19 C-8.44 10.31 -8.44 10.31 -8.25 7.5 C-7.98 6.78 -7.71 6.06 -7.44 5.31 C-6.12 5.31 -4.8 5.31 -3.44 5.31 C-3.77 4.32 -4.1 3.33 -4.44 2.31 C-2.44 0.31 -2.44 0.31 0 0 Z " fill="#DCB6AC" transform="translate(73.4375,41.6875)"/>
<path d="M0 0 C0.99 0.33 1.98 0.66 3 1 C3 3.64 3 6.28 3 9 C3.99 9 4.98 9 6 9 C6 7.68 6 6.36 6 5 C8 3.25 8 3.25 10 2 C11.32 2.99 12.64 3.98 14 5 C14.33 4.01 14.66 3.02 15 2 C16.65 1.67 18.3 1.34 20 1 C19.82 1.37 19.82 1.37 18.94 3.25 C17.95 6.13 17.97 7.21 19 10 C18.01 10 17.02 10 16 10 C16.08 10.38 16.08 10.38 16.5 12.31 C17 15 17 15 17 18 C15.35 17.67 13.7 17.34 12 17 C11.71 18.05 11.42 19.1 11.12 20.19 C10.23 23.23 9.24 26.09 8 29 C7.34 29 6.68 29 6 29 C6 29.66 6 30.32 6 31 C5.34 31 4.68 31 4 31 C4.33 28.69 4.66 26.38 5 24 C5.66 24 6.32 24 7 24 C7.77 21.22 8.18 19.53 7.25 16.75 C6 15 6 15 3 14 C3 12 3 12 4 11 C3.01 11 2.02 11 1 11 C0.34 9.02 -0.32 7.04 -1 5 C-1.33 5.16 -1.33 5.16 -3 6 C-3 4.68 -3 3.36 -3 2 C-2.01 1.34 -1.02 0.68 0 0 Z M8 14 C9 16 9 16 9 16 Z M9 16 C10 19 10 19 10 19 Z " fill="#9D9978" transform="translate(54,55)"/>
<path d="M0 0 C0.33 0 0.66 0 1 0 C3.4 7.2 2.84 13.52 2 21 C0.02 21.33 -1.96 21.66 -4 22 C-4.33 25.3 -4.66 28.6 -5 32 C-4.01 32 -3.02 32 -2 32 C-1.67 31.01 -1.34 30.02 -1 29 C-0.67 29.66 -0.34 30.32 0 31 C1.32 30.67 2.64 30.34 4 30 C4 30.66 4 31.32 4 32 C3.34 32 2.68 32 2 32 C2 32.66 2 33.32 2 34 C2.99 34 3.98 34 5 34 C3.9 36.99 3.32 37.85 0.38 39.25 C-0.41 39.5 -1.19 39.75 -2 40 C-2 38.02 -2 36.04 -2 34 C-3.32 34.66 -4.64 35.32 -6 36 C-9.01 30.99 -9.29 27.67 -9 22 C-8.34 22 -7.68 22 -7 22 C-7.04 20.91 -7.08 19.81 -7.12 18.69 C-7 15 -7 15 -5 12 C-4.01 11.67 -3.02 11.34 -2 11 C-2.02 10.46 -2.02 10.46 -2.12 7.75 C-2.01 4.34 -1.79 2.79 0 0 Z " fill="#9A9164" transform="translate(55,35)"/>
<path d="M0 0 C0.44 0.08 0.44 0.08 2.69 0.5 C6.11 1.02 8.64 0.72 12 0 C11.67 0.99 11.34 1.98 11 3 C10.01 3 9.02 3 8 3 C8.33 3.5 8.33 3.5 10 6 C11.32 6 12.64 6 14 6 C14.99 6.66 15.98 7.32 17 8 C17 8.66 17 9.32 17 10 C16.41 10.06 15.82 10.12 15.21 10.18 C11.08 10.62 7.06 11.15 3 12 C0.67 12.34 -1.66 12.68 -4 13 C-4 13.99 -4 14.98 -4 16 C-12.04 17.61 -12.04 17.61 -16.06 15.06 C-16.7 14.38 -17.34 13.7 -18 13 C-15.33 13 -12.67 13 -10 13 C-10 12.34 -10 11.68 -10 11 C-8.84 10.84 -8.84 10.84 -3 10 C-3 9.34 -3 8.68 -3 8 C-1.68 8 -0.36 8 1 8 C0.34 5.69 -0.32 3.38 -1 1 C-0.67 0.67 -0.34 0.34 0 0 Z M2 3 C3 5 3 5 3 5 Z " fill="#CEC8A7" transform="translate(73,94)"/>
<path d="M0 0 C1.21 0.66 2.43 1.32 3.62 2 C3.3 2.99 2.97 3.98 2.62 5 C1.49 5.29 0.36 5.58 -0.81 5.88 C-1.99 6.25 -3.16 6.62 -4.38 7 C-5.56 9.5 -5.56 9.5 -6.38 12 C-9.88 14.83 -14.09 14.14 -18.38 14 C-17.76 13.84 -17.14 13.67 -16.5 13.5 C-13.1 11.1 -13.15 8 -12.38 4 C-14.36 4.33 -16.33 4.66 -18.38 5 C-13.17 -2.07 -8.17 -4.07 0 0 Z " fill="#BCB178" transform="translate(88.375,64)"/>
<path d="M0 0 C1.48 0.01 2.95 0.04 4.43 0.07 C5.18 0.08 5.94 0.09 6.71 0.1 C8.58 0.12 10.44 0.16 12.3 0.2 C11.04 2.18 11.04 2.18 9.3 4.2 C5.62 4.45 5.62 4.45 2.3 4.2 C2.3 4.86 2.3 5.52 2.3 6.2 C0.65 6.53 -1 6.86 -2.7 7.2 C-2.7 6.54 -2.7 5.88 -2.7 5.2 C-3.44 5.81 -4.18 6.43 -4.95 7.07 C-8.35 9.7 -10.36 11.2 -14.7 11.2 C-16.26 10.89 -17.83 10.56 -19.38 10.2 C-19.79 10.1 -19.79 10.1 -21.83 9.63 C-22.14 9.56 -22.14 9.56 -23.7 9.2 C-23.37 8.21 -23.04 7.22 -22.7 6.2 C-18.06 4.12 -13.07 3.52 -8.09 2.76 C-4.33 1.87 -4.25 0.22 0 0 Z " fill="#BEB47E" transform="translate(60.6953125,100.8046875)"/>
<path d="M0 0 C0.99 0.33 1.98 0.66 3 1 C2.67 3.64 2.34 6.28 2 9 C-1.37 10.5 -3.2 11 -7 11 C-7.31 11.78 -7.62 12.57 -7.94 13.38 C-9 16 -9 16 -10 18 C-10.66 18 -11.32 18 -12 18 C-12.27 18.58 -12.54 19.16 -12.81 19.75 C-14 22 -14 22 -15.56 23.88 C-17.36 26.54 -17.64 28.84 -18 32 C-20.36 29.64 -20.49 28.22 -21 25 C-21.99 24.67 -22.98 24.34 -24 24 C-24.33 19.71 -24.66 15.42 -25 11 C-24.34 11.33 -24.34 11.33 -21 13 C-21 15.64 -21 18.28 -21 21 C-20.22 20.67 -19.43 20.34 -18.62 20 C-16 19 -16 19 -14 19 C-13.67 18.34 -13.34 17.68 -13 17 C-12.34 17 -11.68 17 -11 17 C-10.81 16.16 -10.61 15.31 -10.41 14.45 C-10.15 13.35 -9.89 12.25 -9.62 11.12 C-9.37 10.03 -9.11 8.94 -8.85 7.82 C-8 5 -8 5 -6 3 C-6 3.66 -6 4.32 -6 5 C-4.68 4.67 -3.36 4.34 -2 4 C-2.33 3.34 -2.66 2.68 -3 2 C-2.01 1.34 -1.02 0.68 0 0 Z " fill="#4E5133" transform="translate(73,67)"/>
<path d="M0 0 C1.46 0.06 2.92 0.15 4.38 0.25 C4.78 0.27 4.78 0.27 6.84 0.39 C9 1 9 1 10.16 2.8 C10.3 3.16 10.3 3.16 11 5 C11.66 6.32 12.32 7.64 13 9 C11.02 11.31 9.04 13.62 7 16 C6.67 15.34 6.34 14.68 6 14 C4.68 14.33 3.36 14.66 2 15 C2 13.68 2 12.36 2 11 C2.66 10.67 3.32 10.34 4 10 C4.62 7.94 4.62 7.94 5 6 C4.22 5.86 3.43 5.71 2.62 5.56 C0 5 0 5 -2 4 C-2.06 4.4 -2.06 4.4 -2.38 6.44 C-2.58 7.28 -2.79 8.13 -3 9 C-3.33 9.16 -3.33 9.16 -5 10 C-5 11.32 -5 12.64 -5 14 C-3.68 14.66 -2.36 15.32 -1 16 C-3.38 16.19 -3.38 16.19 -6 16 C-8 13 -8 13 -7.76 10.52 C-7.55 9.63 -7.34 8.73 -7.12 7.81 C-6.92 6.91 -6.72 6.01 -6.51 5.08 C-6.34 4.39 -6.17 3.71 -6 3 C-5.01 2.67 -4.02 2.34 -3 2 C-2.34 2.33 -1.68 2.66 -1 3 C-0.67 2.01 -0.34 1.02 0 0 Z " fill="#DFB7B6" transform="translate(37,19)"/>
<path d="M0 0 C1 1 1 1 1.31 4.81 C1.28 9.08 -0.02 10.02 -3 13 C-3.45 15.28 -3.62 17.46 -3.73 19.78 C-4.03 22.22 -4.79 23.87 -6 26 C-6.99 26 -7.98 26 -9 26 C-9 22.04 -9 18.08 -9 14 C-8.34 14 -7.68 14 -7 14 C-7.33 13.13 -7.66 12.27 -8 11.38 C-9.18 7.41 -9.9 3.81 -8 0 C-5.02 -1.13 -3 -1.03 0 0 Z " fill="#D5B3AA" transform="translate(67,11)"/>
<path d="M0 0 C2.44 0.81 2.44 0.81 5 2 C6.33 2.36 7.66 2.7 9 3 C8.67 4.65 8.34 6.3 8 8 C8.58 8.06 9.16 8.12 9.76 8.18 C19.64 9.24 19.64 9.24 23 10 C23.33 10.66 23.66 11.32 24 12 C20.57 12.75 18.06 13.01 14.56 12.44 C10.5 11.94 7.87 12.81 4 14 C1 13 1 13 -1 10 C-2.65 10.33 -4.3 10.66 -6 11 C-6.33 10.01 -6.66 9.02 -7 8 C-5.02 7.01 -3.04 6.02 -1 5 C-1.66 4.01 -2.32 3.02 -3 2 C-2.01 1.34 -1.02 0.68 0 0 Z " fill="#A3A27E" transform="translate(20,93)"/>
<path d="M0 0 C0.66 0 1.32 0 2 0 C2.33 1.32 2.66 2.64 3 4 C4.11 3.94 5.23 3.88 6.38 3.81 C6.97 3.84 6.97 3.84 10 4 C10.33 4.5 10.33 4.5 12 7 C11.34 7 10.68 7 10 7 C9.34 8.32 8.68 9.64 8 11 C6.68 10.67 5.36 10.34 4 10 C4 10.99 4 11.98 4 13 C4.66 13 5.32 13 6 13 C8 16 8 16 9 18 C7.35 17.67 5.7 17.34 4 17 C3.67 17.99 3.34 18.98 3 20 C3.33 18.02 3.66 16.04 4 14 C3.34 14 2.68 14 2 14 C2.33 17.3 2.66 20.6 3 24 C0.56 23 0.56 23 -2 21 C-2.76 18.27 -2.86 15.86 -3 13 C-2.34 13 -1.68 13 -1 13 C-1.33 9.7 -1.66 6.4 -2 3 C-1.34 3 -0.68 3 0 3 C0 2.01 0 1.02 0 0 Z " fill="#93906B" transform="translate(35,60)"/>
<path d="M0 0 C3.08 5.42 3.08 5.42 2.69 8.38 C2.46 8.91 2.23 9.45 2 10 C0.68 9.67 -0.64 9.34 -2 9 C-2 8.01 -2 7.02 -2 6 C-3.65 6.66 -5.3 7.32 -7 8 C-7.66 7.01 -8.32 6.02 -9 5 C-9.33 5.33 -9.66 5.66 -10 6 C-9.71 7.68 -9.38 9.34 -9 11 C-8.01 11 -7.02 11 -6 11 C-5.67 12.65 -5.34 14.3 -5 16 C-6.62 16.75 -6.62 16.75 -9 17 C-12.25 15.5 -12.25 15.5 -15 13 C-15.91 8.54 -15.3 6.55 -13.12 2.56 C-9.56 -1.33 -4.88 -0.51 0 0 Z " fill="#DFBAB8" transform="translate(28,47)"/>
<path d="M0 0 C2.92 2.8 5.48 5.84 8 9 C7.67 9.66 7.34 10.32 7 11 C6.81 10.74 6.81 10.74 5.88 9.44 C4 8 4 8 0.81 8.31 C0.35 8.43 0.35 8.43 -2 9 C-2.33 8.01 -2.66 7.02 -3 6 C-3.76 6.52 -4.53 7.03 -5.31 7.56 C-6.2 8.04 -7.09 8.51 -8 9 C-8.99 8.67 -9.98 8.34 -11 8 C-11 5.36 -11 2.72 -11 0 C-6.93 -1.08 -4 -1.41 0 0 Z " fill="#4D533C" transform="translate(44,92)"/>
<path d="M0 0 C0.97 0.08 1.94 0.16 2.94 0.24 C3.91 0.31 4.88 0.37 5.88 0.44 C9.07 1.26 9.86 2.34 11.5 5.12 C12.49 4.79 13.48 4.46 14.5 4.12 C14.83 4.78 15.16 5.44 15.5 6.12 C16.16 6.45 16.82 6.78 17.5 7.12 C14.71 9.09 12.67 9.22 9.38 8.87 C5.5 8.12 5.5 8.12 3.5 6.12 C1.34 6.14 1.34 6.14 -1.12 6.49 C-1.94 6.6 -2.76 6.71 -3.6 6.83 C-4.22 6.92 -4.85 7.02 -5.5 7.12 C-4.4 0.21 -4.4 0.21 0 0 Z " fill="#9A9875" transform="translate(15.49609375,81.8828125)"/>
<path d="M0 0 C2.31 0.66 4.62 1.32 7 2 C6.67 3.65 6.34 5.3 6 7 C5.34 7 4.68 7 4 7 C4 8.32 4 9.64 4 11 C5.32 10.67 6.64 10.34 8 10 C8.62 12.38 8.62 12.38 9 15 C8.34 15.66 7.68 16.32 7 17 C6.67 15.68 6.34 14.36 6 13 C4.52 12.67 4.52 12.67 -3 11 C-3.33 9.35 -3.66 7.7 -4 6 C-3.01 5.34 -2.02 4.68 -1 4 C-0.31 1.88 -0.31 1.88 0 0 Z " fill="#B68A7A" transform="translate(35,23)"/>
<path d="M0 0 C2.64 0.33 5.28 0.66 8 1 C8 1.99 8 2.98 8 4 C9.03 3.77 10.06 3.55 11.12 3.31 C15.57 2.95 17.32 3.57 21 6 C22.88 8.19 22.88 8.19 24 10 C21.03 10.66 18.06 11.32 15 12 C15 9.69 15 7.38 15 5 C14.01 5.33 13.02 5.66 12 6 C9.31 5.56 9.31 5.56 7 5 C7 4.01 7 3.02 7 2 C5.05 3.95 4.15 5.53 3 8 C2.01 8 1.02 8 0 8 C0.33 6.68 0.66 5.36 1 4 C0.34 4 -0.32 4 -1 4 C-1 4.66 -1 5.32 -1 6 C-1.66 5.67 -2.32 5.34 -3 5 C-2.51 4.36 -2.01 3.72 -1.5 3.06 C0 1 0 1 0 0 Z " fill="#C5BD97" transform="translate(66,78)"/>
<path d="M0 0 C0.99 0.33 1.98 0.66 3 1 C3 3.64 3 6.28 3 9 C3.99 9 4.98 9 6 9 C6 7.68 6 6.36 6 5 C8 3.25 8 3.25 10 2 C10.66 2.66 11.32 3.32 12 4 C11.68 4.54 11.37 5.08 11.04 5.64 C9.82 8.42 9.59 10.73 9.38 13.75 C9.3 14.73 9.23 15.72 9.15 16.73 C9.1 17.48 9.05 18.23 9 19 C8.78 18.68 8.78 18.68 7.69 17.06 C6 15 6 15 3 14 C3 12 3 12 4 11 C3.01 11 2.02 11 1 11 C0.34 9.02 -0.32 7.04 -1 5 C-1.33 5.16 -1.33 5.16 -3 6 C-3 4.68 -3 3.36 -3 2 C-2.01 1.34 -1.02 0.68 0 0 Z " fill="#BDB8A1" transform="translate(54,55)"/>
<path d="M0 0 C0 0.66 0 1.32 0 2 C-5.73 3.57 -10.16 4.24 -16 3 C-16 2.01 -16 1.02 -16 0 C-17.65 0 -19.3 0 -21 0 C-21 -0.66 -21 -1.32 -21 -2 C-13.65 -4.45 -7.01 -2.79 0 0 Z " fill="#99925F" transform="translate(85,92)"/>
<path d="M0 0 C0.33 0.66 0.66 1.32 1 2 C2.32 2.37 3.66 2.71 5 3 C6 4 6 4 6 9 C0.39 8.67 -5.22 8.34 -11 8 C-9 6 -9 6 -6 5 C-6 4.01 -6 3.02 -6 2 C-5.38 1.86 -4.76 1.71 -4.12 1.56 C-2 1 -2 1 0 0 Z " fill="#76764E" transform="translate(68,93)"/>
<path d="M0 0 C0.99 0.33 1.98 0.66 3 1 C2.67 3.64 2.34 6.28 2 9 C-1.37 10.5 -3.2 11 -7 11 C-7.66 12.65 -8.32 14.3 -9 16 C-10.19 12.57 -9.8 10.62 -8.56 7.25 C-8.28 6.45 -7.99 5.65 -7.69 4.83 C-7.46 4.22 -7.24 3.62 -7 3 C-6.67 3.66 -6.34 4.32 -6 5 C-4.68 4.67 -3.36 4.34 -2 4 C-2.33 3.34 -2.66 2.68 -3 2 C-2.01 1.34 -1.02 0.68 0 0 Z " fill="#76764B" transform="translate(73,67)"/>
<path d="M0 0 C1.56 1.69 1.56 1.69 3 4 C2.81 6.69 2.81 6.69 2 9 C1.67 9.16 1.67 9.16 0 10 C-0.41 12.32 -0.74 14.66 -1 17 C-2.98 17.33 -4.96 17.66 -7 18 C-7 17.01 -7 16.02 -7 15 C-6.34 15 -5.68 15 -5 15 C-5.19 14.05 -5.37 13.1 -5.56 12.12 C-6 9 -6 9 -5 7 C-4.34 7 -3.68 7 -3 7 C-3 6.34 -3 5.68 -3 5 C-2.34 5 -1.68 5 -1 5 C-1.33 4.01 -1.66 3.02 -2 2 C-1.34 1.34 -0.68 0.68 0 0 Z " fill="#817D50" transform="translate(60,70)"/>
<path d="M0 0 C0.99 0.33 1.98 0.66 3 1 C2.34 1 1.68 1 1 1 C1.33 4.3 1.66 7.6 2 11 C1.34 11 0.68 11 0 11 C-0.33 11.99 -0.66 12.98 -1 14 C-1.33 13.34 -1.66 12.68 -2 12 C-2.97 11.71 -3.94 11.42 -4.94 11.12 C-8 10 -8 10 -9.38 7.88 C-9.58 7.26 -9.79 6.64 -10 6 C-9.01 6 -8.02 6 -7 6 C-7 5.34 -7 4.68 -7 4 C-5.02 3.67 -3.04 3.34 -1 3 C-0.67 2.01 -0.34 1.02 0 0 Z " fill="#AFAD93" transform="translate(32,62)"/>
<path d="M0 0 C2.97 0.33 5.94 0.66 9 1 C8.34 1.66 7.68 2.32 7 3 C6.01 3 5.02 3 4 3 C3.67 3.99 3.34 4.98 3 6 C2.17 5.67 2.17 5.67 -2 4 C-2.06 4.4 -2.06 4.4 -2.38 6.44 C-2.58 7.28 -2.79 8.13 -3 9 C-3.33 9.16 -3.33 9.16 -5 10 C-5 11.32 -5 12.64 -5 14 C-3.68 14.66 -2.36 15.32 -1 16 C-3.38 16.19 -3.38 16.19 -6 16 C-8 13 -8 13 -7.76 10.52 C-7.55 9.63 -7.34 8.73 -7.12 7.81 C-6.92 6.91 -6.72 6.01 -6.51 5.08 C-6.34 4.39 -6.17 3.71 -6 3 C-5.01 2.67 -4.02 2.34 -3 2 C-2.34 2.33 -1.68 2.66 -1 3 C-0.67 2.01 -0.34 1.02 0 0 Z " fill="#E3C0C5" transform="translate(37,19)"/>
<path d="M0 0 C0.33 0.66 0.66 1.32 1 2 C2.32 2 3.64 2 5 2 C4.67 3.32 4.34 4.64 4 6 C5.16 5.83 5.16 5.83 11 5 C11 4.34 11 3.68 11 3 C12.94 2.92 14.87 2.86 16.81 2.81 C17.89 2.78 18.97 2.74 20.08 2.71 C23 3 23 3 24.89 4.51 C25.25 5 25.62 5.49 26 6 C22.57 6.75 20.06 7.01 16.56 6.44 C12.5 5.94 9.87 6.81 6 8 C3 7 3 7 1 4 C-0.65 4.33 -2.3 4.66 -4 5 C-4.33 4.01 -4.66 3.02 -5 2 C-3.35 1.34 -1.7 0.68 0 0 Z " fill="#C9C8B3" transform="translate(18,99)"/>
<path d="M0 0 C2.78 1.14 5.39 2.52 8 4 C7.67 4.99 7.34 5.98 7 7 C5.68 7 4.36 7 3 7 C3 6.01 3 5.02 3 4 C0.69 4.33 -1.62 4.66 -4 5 C-4 4.34 -4 3.68 -4 3 C-4.55 3.25 -4.55 3.25 -7.31 4.5 C-11 6 -11 6 -14 6 C-6.24 -0.58 -6.24 -0.58 0 0 Z " fill="#C9BD96" transform="translate(84,62)"/>
<path d="M0 0 C0.25 3.31 0.25 3.31 0 7 C-1.75 9 -1.75 9 -4 10 C-6.25 9.69 -6.25 9.69 -8 9 C-7.34 8.34 -6.68 7.68 -6 7 C-6.99 7 -7.98 7 -9 7 C-8.81 4.69 -8.81 4.69 -8 2 C-3.84 -1.28 -3.84 -1.28 0 0 Z " fill="#DCBAB4" transform="translate(72,26)"/>
<path d="M0 0 C2 1 2 1 4 3 C4 4.32 4 5.64 4 7 C4.99 7 5.98 7 7 7 C7.33 8.65 7.66 10.3 8 12 C6.38 12.75 6.38 12.75 4 13 C0.75 11.5 0.75 11.5 -2 9 C-2.5 5.38 -2.5 5.38 -2 2 C-1.34 1.34 -0.68 0.68 0 0 Z " fill="#D4B5B7" transform="translate(15,51)"/>
<path d="M0 0 C1.32 0.33 2.64 0.66 4 1 C5.76 6.28 5.76 6.28 6 9 C4.12 11.5 4.12 11.5 2 13 C1.67 12.01 1.34 11.02 1 10 C0.34 10 -0.32 10 -1 10 C-1 10.66 -1 11.32 -1 12 C-1.99 12 -2.98 12 -4 12 C-4 11.01 -4 10.02 -4 9 C-2.68 8.34 -1.36 7.68 0 7 C-0.66 6.01 -1.32 5.02 -2 4 C-1.34 2.68 -0.68 1.36 0 0 Z " fill="#E6CEC3" transform="translate(79,45)"/>
<path d="M0 0 C0.66 0.66 1.32 1.32 2 2 C1.01 1.67 0.02 1.34 -1 1 C-0.67 0.67 -0.34 0.34 0 0 Z " fill="#F7F6F2" transform="translate(51,44)"/>
<path d="M0 0 C0.66 0 1.32 0 2 0 C1.67 0.66 1.34 1.32 1 2 C0.67 1.34 0.34 0.68 0 0 Z " fill="#F5F4F3" transform="translate(50,64)"/>
<path d="M0 0 C2 1 2 1 2 1 Z " fill="#F5F4F4" transform="translate(76,61)"/>
<path d="" fill="#F2F3F0" transform="translate(0,0)"/>
<path d="" fill="#F5F5F4" transform="translate(0,0)"/>
<path d="" fill="#F6F6F4" transform="translate(0,0)"/>
<path d="" fill="#F9F8F4" transform="translate(0,0)"/>
<path d="" fill="#F5F4F4" transform="translate(0,0)"/>
<path d="" fill="#F4F6FB" transform="translate(0,0)"/>
<path d="" fill="#F7F5F4" transform="translate(0,0)"/>
<path d="" fill="#F6F7F4" transform="translate(0,0)"/>
</svg>
