<?xml version="1.0" encoding="UTF-8"?>
<!-- Generator: visioncortex VTracer 0.6.12 -->
<svg version="1.1" xmlns="http://www.w3.org/2000/svg" width="90" height="116">
<path d="M0 0 C0.16 0.49 0.16 0.49 1 3 C1.83 3.16 1.83 3.16 6 4 C8.12 9.62 8.12 9.62 7 13 C5.87 13.29 4.73 13.58 3.56 13.88 C0 15 0 15 -1.31 17.5 C-1.54 18.32 -1.77 19.15 -2 20 C-2.66 20.66 -3.32 21.32 -4 22 C-4.62 24.29 -5.15 26.61 -5.62 28.94 C-5.76 29.56 -5.76 29.56 -6.41 32.71 C-7 36 -7 36 -7 39 C-6.26 38.34 -5.52 37.68 -4.75 37 C-2 35 -2 35 2 35 C1.42 38.9 -0.49 41.04 -3 44 C-3.56 44.74 -4.11 45.48 -4.69 46.25 C-6 48 -6 48 -7 49 C-6.34 49.66 -5.68 50.32 -5 51 C-6.32 51 -7.64 51 -9 51 C-9.33 55.95 -9.66 60.9 -10 66 C-9.34 64.68 -8.68 63.36 -8 62 C-7.34 62 -6.68 62 -6 62 C-5.67 60.02 -5.34 58.04 -5 56 C-4.34 56 -3.68 56 -3 56 C-3 52.37 -3 48.74 -3 45 C-2.01 45 -1.02 45 0 45 C0.16 45.66 0.16 45.66 1 49 C2.89 44.35 4.15 41.04 4 36 C4.66 35.34 5.32 34.68 6 34 C5.74 33.82 5.74 33.82 4.44 32.94 C3 31 3 31 3.25 27.38 C4 24 4 24 5 23 C6.52 22.93 8.04 22.92 9.56 22.94 C10.39 22.95 11.22 22.96 12.07 22.96 C12.39 22.97 12.39 22.97 14 23 C14 23.66 14 24.32 14 25 C15.65 25.33 17.3 25.66 19 26 C19.33 27.16 19.33 27.16 21 33 C19.94 34.5 19.94 34.5 18 36 C14.31 36.19 14.31 36.19 11 36 C11 37.32 11 38.64 11 40 C10.34 40.16 10.34 40.16 7 41 C6.95 41.33 6.95 41.33 6.69 43 C5.81 46.84 4.43 50.33 3 54 C3.87 53.53 4.73 53.05 5.62 52.56 C8.85 51.07 11.49 50.42 15 50 C15.33 50.99 15.66 51.98 16 53 C15.64 53.16 15.64 53.16 13.81 54 C11.04 55.97 10.29 56.96 8.69 59.81 C6.32 63.93 3.5 66.18 -0.43 68.77 C-0.95 69.18 -1.46 69.58 -2 70 C-2 70.66 -2 71.32 -2 72 C0.08 72.55 1.84 73 4 73 C4.33 72.5 4.33 72.5 6 70 C6.99 70.33 7.98 70.66 9 71 C9 71.66 9 72.32 9 73 C9.28 72.84 9.28 72.84 10.69 72 C13.45 70.8 15.01 70.56 18 71 C20.81 72.81 20.81 72.81 23 75 C23 75.99 23 76.98 23 78 C21.78 77.77 20.57 77.55 19.31 77.31 C16.08 76.89 15.13 76.94 12.06 78.38 C10 80 10 80 9 81 C11.31 81 13.62 81 16 81 C15.84 81.5 15.84 81.5 15 84 C14.34 84 13.68 84 13 84 C13 84.99 13 85.98 13 87 C14.65 87 16.3 87 18 87 C18.33 87.99 18.66 88.98 19 90 C15.26 90.7 11.79 91 8 91 C7.3 91.19 6.6 91.37 5.88 91.56 C4 92 4 92 1 91 C0.67 91.16 0.67 91.16 -1 92 C-0.67 92.66 -0.34 93.32 0 94 C-1.18 95.55 -1.18 95.55 -3 97 C-5.48 96.86 -5.48 96.86 -8.19 96.19 C-8.64 96.08 -8.64 96.08 -10.92 95.54 C-11.61 95.36 -12.29 95.18 -13 95 C-13.33 95.66 -13.66 96.32 -14 97 C-17.37 97.19 -17.37 97.19 -21 97 C-23 94 -23 94 -23 91 C-24.09 91.17 -25.19 91.33 -26.31 91.5 C-30 92 -30 92 -33 92 C-33.5 92.16 -33.5 92.16 -36 93 C-37.68 92.37 -39.35 91.7 -41 91 C-41.99 91 -42.98 91 -44 91 C-44 90.01 -44 89.02 -44 88 C-43.01 87.67 -43.01 87.67 -38 86 C-38.99 84.68 -39.98 83.36 -41 82 C-40.5 81.84 -40.5 81.84 -38 81 C-41.78 79.16 -43.95 78.84 -48 80 C-47.69 78.12 -47.69 78.12 -47 76 C-43.91 73.94 -43.29 73.76 -39.81 73.88 C-38.55 73.92 -37.3 73.96 -36 74 C-36 72.68 -36 71.36 -36 70 C-33.75 69.31 -33.75 69.31 -31 69 C-29.05 70.19 -27.6 71.4 -26 73 C-25.51 72.84 -25.51 72.84 -23 72 C-23.33 71.01 -23.66 70.02 -24 69 C-25.07 68.48 -26.14 67.97 -27.25 67.44 C-31.67 65.13 -33.03 61.68 -34.96 57.24 C-36 55 -36 55 -38 53 C-41.12 52.88 -41.12 52.88 -44 53 C-43.34 51.68 -42.68 50.36 -42 49 C-36.03 48.77 -32.17 49 -27.69 53.12 C-27.13 53.74 -26.57 54.36 -26 55 C-26.56 43.93 -26.56 43.93 -30 39 C-30 37.68 -30 36.36 -30 35 C-30.39 34.94 -30.39 34.94 -32.38 34.62 C-35 34 -35 34 -37 32 C-37 31.01 -37 30.02 -37 29 C-36.34 29 -35.68 29 -35 29 C-35.21 28.38 -35.41 27.76 -35.62 27.12 C-35.75 26.42 -35.87 25.72 -36 25 C-33.6 22.6 -32.31 22.47 -29 22 C-25.1 22 -22.62 22.68 -19 24 C-18.19 26.69 -18.19 26.69 -18 30 C-18.4 30.37 -18.4 30.37 -20.44 32.25 C-23.18 35.2 -23.41 35.6 -23.5 39.38 C-23.14 46.28 -21.87 53.34 -20 60 C-19.34 60.33 -18.68 60.66 -18 61 C-18 62.98 -18 64.96 -18 67 C-17.01 67 -16.02 67 -15 67 C-14.83 62.92 -14.96 59.92 -16.31 56.06 C-17.28 52.52 -17.28 52.52 -16.12 50.35 C-15.69 49.78 -15.26 49.21 -14.81 48.62 C-10.49 42.72 -10.22 35.2 -9.29 28.12 C-9.02 26.12 -8.69 24.12 -8.36 22.13 C-8 19 -8 19 -9 16 C-8.67 15.34 -8.34 14.68 -8 14 C-8.32 13.82 -8.32 13.82 -9.94 12.94 C-12 11 -12 11 -13.06 7.56 C-13 4 -13 4 -11.06 1.56 C-7.03 -0.5 -4.49 -0.3 0 0 Z M-33 73 C-32.67 74.98 -32.34 76.96 -32 79 C-31.01 79 -30.02 79 -29 79 C-30.75 74.12 -30.75 74.12 -33 73 Z M-4 73 C-3 75 -3 75 -3 75 Z M-5 75 C-4 77 -4 77 -4 77 Z M2 76 C3 78 3 78 3 78 Z M-21 77 C-20 79 -20 79 -20 79 Z M-30 83 C-29 85 -29 85 -29 85 Z " fill="#9B9874" transform="translate(58,10)"/>
<path d="M0 0 C0.33 0.99 0.66 1.98 1 3 C1.83 3.16 1.83 3.16 6 4 C8.12 9.62 8.12 9.62 7 13 C5.87 13.29 4.73 13.58 3.56 13.88 C0 15 0 15 -1.31 17.5 C-1.54 18.32 -1.77 19.15 -2 20 C-2.66 20.66 -3.32 21.32 -4 22 C-4.62 24.29 -5.15 26.61 -5.62 28.94 C-5.89 30.18 -6.15 31.43 -6.41 32.71 C-7 36 -7 36 -7 39 C-6.26 38.34 -5.52 37.68 -4.75 37 C-2 35 -2 35 2 35 C1.42 38.9 -0.49 41.04 -3 44 C-3.56 44.74 -4.11 45.48 -4.69 46.25 C-6 48 -6 48 -7 49 C-6.34 49.66 -5.68 50.32 -5 51 C-6.32 51 -7.64 51 -9 51 C-9.06 52.15 -9.12 53.29 -9.18 54.47 C-9.27 56 -9.35 57.53 -9.44 59.06 C-9.46 59.44 -9.46 59.44 -9.56 61.34 C-9.82 65.95 -10.28 70.44 -11 75 C-13.37 74.69 -13.37 74.69 -16 74 C-18 71 -18 71 -18 67 C-17.01 67 -16.02 67 -15 67 C-14.83 62.92 -14.96 59.92 -16.31 56.06 C-17.28 52.52 -17.28 52.52 -16.12 50.35 C-15.69 49.78 -15.26 49.21 -14.81 48.62 C-10.49 42.72 -10.22 35.2 -9.29 28.12 C-9.02 26.12 -8.69 24.12 -8.36 22.13 C-8 19 -8 19 -9 16 C-8.67 15.34 -8.34 14.68 -8 14 C-8.64 13.65 -9.28 13.3 -9.94 12.94 C-12 11 -12 11 -13.06 7.56 C-13 4 -13 4 -11.06 1.56 C-7.03 -0.5 -4.49 -0.3 0 0 Z " fill="#C5C1AA" transform="translate(58,10)"/>
<path d="M0 0 C0.99 0.33 1.98 0.66 3 1 C3 1.66 3 2.32 3 3 C3.56 2.67 4.11 2.34 4.69 2 C7.45 0.8 9.01 0.56 12 1 C14.81 2.81 14.81 2.81 17 5 C17 5.99 17 6.98 17 8 C16.39 7.89 16.39 7.89 13.31 7.31 C10.08 6.89 9.13 6.94 6.06 8.38 C4 10 4 10 3 11 C5.31 11 7.62 11 10 11 C9.67 11.99 9.34 12.98 9 14 C8.34 14 7.68 14 7 14 C7 14.99 7 15.98 7 17 C8.65 17 10.3 17 12 17 C12.16 17.5 12.16 17.5 13 20 C9.26 20.7 5.79 21 2 21 C1.3 21.19 0.6 21.37 -0.12 21.56 C-2 22 -2 22 -5 21 C-5.66 21.33 -6.32 21.66 -7 22 C-6.67 22.66 -6.34 23.32 -6 24 C-7.18 25.55 -7.18 25.55 -9 27 C-11.48 26.86 -11.48 26.86 -14.19 26.19 C-15.09 25.97 -15.99 25.76 -16.92 25.54 C-17.61 25.36 -18.29 25.18 -19 25 C-19.33 25.66 -19.66 26.32 -20 27 C-23.38 27.19 -23.38 27.19 -27 27 C-29 24 -29 24 -29 21 C-27 20 -27 20 -24.19 20.75 C-21 21 -21 21 -18.25 18.75 C-14.83 14.58 -13.37 11.19 -12 6 C-12.66 6 -13.32 6 -14 6 C-13.67 4.35 -13.34 2.7 -13 1 C-12.34 1 -11.68 1 -11 1 C-10.34 1.66 -9.68 2.32 -9 3 C-8.34 2.83 -7.68 2.67 -7 2.5 C-6.34 2.33 -5.68 2.17 -5 2 C-4.34 2.66 -3.68 3.32 -3 4 C-2.01 2.68 -1.02 1.36 0 0 Z M-11 5 C-10 7 -10 7 -10 7 Z M-4 6 C-3 8 -3 8 -3 8 Z " fill="#AA9F6B" transform="translate(64,80)"/>
<path d="M0 0 C2.97 0.99 5.94 1.98 9 3 C9.81 5.69 9.81 5.69 10 9 C9.6 9.37 9.6 9.37 7.56 11.25 C4.73 14.29 4.61 14.82 4.56 18.75 C4.77 22.95 5.54 26.88 6.55 30.96 C7.16 33.7 7.27 36.2 7 39 C6.34 39.66 5.68 40.32 5 41 C3.02 40.34 1.04 39.68 -1 39 C-0.5 40.16 -0.5 40.16 2 46 C-1.17 45.06 -2.67 44.5 -4.51 41.69 C-4.9 40.8 -5.29 39.91 -5.69 39 C-7.85 34.15 -7.85 34.15 -10 32 C-13.12 31.88 -13.12 31.88 -16 32 C-15.34 30.68 -14.68 29.36 -14 28 C-8.03 27.77 -4.17 28 0.31 32.12 C0.87 32.74 1.43 33.36 2 34 C1.44 22.93 1.44 22.93 -2 18 C-2 16.68 -2 15.36 -2 14 C-2.78 13.88 -3.57 13.75 -4.38 13.62 C-7 13 -7 13 -9 11 C-9 10.01 -9 9.02 -9 8 C-8.34 8 -7.68 8 -7 8 C-7.21 7.38 -7.41 6.76 -7.62 6.12 C-7.75 5.42 -7.87 4.72 -8 4 C-5.63 1.63 -4.23 1.58 -1 1 C-0.67 0.67 -0.34 0.34 0 0 Z " fill="#BFB691" transform="translate(30,31)"/>
<path d="M0 0 C0.41 0.01 0.41 0.01 2.5 0.04 C3.32 0.04 4.15 0.05 5 0.06 C5.64 0.07 6.28 0.09 6.93 0.1 C6.93 0.76 6.93 1.42 6.93 2.1 C7.76 2.26 7.76 2.26 11.93 3.1 C12.59 5.41 13.25 7.72 13.93 10.1 C12.87 11.6 12.87 11.6 10.93 13.1 C7.25 13.29 7.25 13.29 3.93 13.1 C3.93 14.42 3.93 15.74 3.93 17.1 C2.61 17.43 1.29 17.76 -0.07 18.1 C-0.13 18.46 -0.13 18.46 -0.45 20.27 C-1.07 23.1 -1.93 25.61 -3 28.29 C-3.34 29.14 -3.68 30 -4.03 30.89 C-5.07 33.1 -5.07 33.1 -7.07 35.1 C-9.59 38.03 -10.53 40.26 -11.07 44.1 C-12.06 44.26 -12.06 44.26 -17.07 45.1 C-16.74 44.11 -16.74 44.11 -15.07 39.1 C-14.41 39.1 -13.75 39.1 -13.07 39.1 C-12.9 38.11 -12.9 38.11 -12.07 33.1 C-11.41 33.1 -10.75 33.1 -10.07 33.1 C-10.07 29.47 -10.07 25.84 -10.07 22.1 C-9.08 22.1 -8.09 22.1 -7.07 22.1 C-6.74 23.42 -6.41 24.74 -6.07 26.1 C-4.17 21.45 -2.92 18.14 -3.07 13.1 C-2.41 12.44 -1.75 11.78 -1.07 11.1 C-1.58 10.75 -2.1 10.4 -2.63 10.04 C-4.07 8.1 -4.07 8.1 -3.82 4.47 C-2.85 0.13 -2.85 0.13 0 0 Z " fill="#CCC9B3" transform="translate(65.06640625,32.90234375)"/>
<path d="M0 0 C2.06 0.69 2.06 0.69 5.06 2.69 C5.11 5.02 5.1 7.35 5.06 9.69 C6.06 13.13 6.06 13.13 7.06 15.69 C6.07 16.02 5.08 16.35 4.06 16.69 C5.71 17.68 7.36 18.67 9.06 19.69 C7.94 21.25 7.94 21.25 6.06 22.69 C4.06 22.39 2.06 22.05 0.06 21.69 C-0.62 22.04 -1.3 22.39 -2 22.75 C-3.94 23.69 -3.94 23.69 -6.5 22.81 C-7.3 22.44 -8.11 22.07 -8.94 21.69 C-9.93 21.69 -10.92 21.69 -11.94 21.69 C-11.94 20.7 -11.94 19.71 -11.94 18.69 C-9.96 18.03 -7.98 17.37 -5.94 16.69 C-6.93 15.37 -7.92 14.05 -8.94 12.69 C-7.95 12.36 -6.96 12.03 -5.94 11.69 C-9.72 9.85 -11.88 9.53 -15.94 10.69 C-15.62 8.81 -15.62 8.81 -14.94 6.69 C-11.85 4.63 -11.23 4.45 -7.75 4.56 C-7.12 4.58 -7.12 4.58 -3.94 4.69 C-3.94 3.37 -3.94 2.05 -3.94 0.69 C-1.94 -0.31 -1.94 -0.31 0 0 Z M-0.94 3.69 C-0.61 5.67 -0.28 7.65 0.06 9.69 C1.05 9.69 2.04 9.69 3.06 9.69 C1.31 4.81 1.31 4.81 -0.94 3.69 Z M2.06 13.69 C3.06 15.69 3.06 15.69 3.06 15.69 Z " fill="#DAD3BC" transform="translate(25.9375,79.3125)"/>
<path d="M0 0 C0.99 0.33 1.98 0.66 3 1 C3 1.66 3 2.32 3 3 C3.56 2.67 4.11 2.34 4.69 2 C7.45 0.8 9.01 0.56 12 1 C14.81 2.81 14.81 2.81 17 5 C17 5.99 17 6.98 17 8 C16.39 7.89 16.39 7.89 13.31 7.31 C10.08 6.89 9.13 6.94 6.06 8.38 C4 10 4 10 3 11 C5.31 11 7.62 11 10 11 C9.67 11.99 9.34 12.98 9 14 C8.34 14 7.68 14 7 14 C7 14.99 7 15.98 7 17 C8.65 17 10.3 17 12 17 C12.33 17.99 12.66 18.98 13 20 C9.26 20.7 5.79 21 2 21 C1.65 21.11 1.65 21.11 -0.12 21.69 C-0.74 21.79 -1.36 21.89 -2 22 C-3.75 20.56 -3.75 20.56 -5 19 C-4.34 19 -3.68 19 -3 19 C-1.88 13.38 -1.88 13.38 -3 10 C-3.99 10.33 -4.98 10.66 -6 11 C-6 10.01 -6 9.02 -6 8 C-7.32 7.67 -8.64 7.34 -10 7 C-9.34 5.35 -8.68 3.7 -8 2 C-7.38 2.17 -6.76 2.33 -6.12 2.5 C-4 3 -4 3 -2 3 C-1.34 2.01 -0.68 1.02 0 0 Z M-4 6 C-3 8 -3 8 -3 8 Z " fill="#CDC29E" transform="translate(64,80)"/>
<path d="M0 0 C0.33 0.99 0.66 1.98 1 3 C2.65 3.33 4.3 3.66 6 4 C8.12 9.62 8.12 9.62 7 13 C4.93 13.73 4.93 13.73 2.44 14.19 C1.61 14.35 0.78 14.5 -0.07 14.67 C-0.7 14.78 -1.34 14.89 -2 15 C-2 15.99 -2 16.98 -2 18 C-2.66 18 -3.32 18 -4 18 C-4 18.66 -4 19.32 -4 20 C-4.83 19.67 -4.83 19.67 -9 18 C-8.67 16.68 -8.34 15.36 -8 14 C-8.64 13.65 -9.28 13.3 -9.94 12.94 C-12 11 -12 11 -13.06 7.56 C-13 4 -13 4 -11.06 1.56 C-7.03 -0.5 -4.49 -0.3 0 0 Z " fill="#D0AE6A" transform="translate(58,10)"/>
<path d="M0 0 C2.57 2.57 2.68 4.64 3.34 8.12 C4 10 4 10 7 12 C7 10.68 7 9.36 7 8 C7.66 8 8.32 8 9 8 C9.33 8.66 9.66 9.32 10 10 C10.99 8.02 11.98 6.04 13 4 C14 6 14 6 13.31 8.75 C11.51 13.2 9.74 16.83 5.69 19.56 C1.78 20.2 -0.5 18.72 -4 17 C-5.99 16.31 -7.99 15.64 -10 15 C-9.34 14.34 -8.68 13.68 -8 13 C-7.01 13 -6.02 13 -5 13 C-5.49 12.11 -5.99 11.23 -6.5 10.31 C-7.94 7.12 -8.3 5.42 -8 2 C-5 3 -5 3 -3 6 C-2.01 6.33 -1.02 6.66 0 7 C0 4.69 0 2.38 0 0 Z " fill="#948E64" transform="translate(38,82)"/>
<path d="M0 0 C0 0.66 0 1.32 0 2 C-0.36 2.19 -0.36 2.19 -2.19 3.12 C-5.03 5.02 -5.71 5.95 -7.31 8.81 C-9.65 12.86 -12.38 15.1 -16.23 17.68 C-18 19 -18 19 -20 22 C-20.66 20.02 -21.32 18.04 -22 16 C-21.34 16 -20.68 16 -20 16 C-20.03 15.65 -20.03 15.65 -20.19 13.88 C-19.96 10.35 -18.71 8.06 -17 5 C-16.34 5.33 -15.68 5.66 -15 6 C-14.53 5.4 -14.05 4.8 -13.56 4.19 C-10.18 1.3 -4.35 -2.18 0 0 Z " fill="#ADA67F" transform="translate(74,61)"/>
<path d="M0 0 C2.97 0.99 5.94 1.98 9 3 C9.33 4.98 9.66 6.96 10 9 C8.35 10.32 6.7 11.64 5 13 C4.09 9.93 3.91 7.2 4 4 C3.34 4 2.68 4 2 4 C1.67 4.99 1.34 5.98 1 7 C-0.65 7.33 -2.3 7.66 -4 8 C-3.34 9.65 -2.68 11.3 -2 13 C-2.99 13.33 -3.98 13.66 -5 14 C-7.19 12.75 -7.19 12.75 -9 11 C-9 10.01 -9 9.02 -9 8 C-8.34 8 -7.68 8 -7 8 C-7.21 7.38 -7.41 6.76 -7.62 6.12 C-7.75 5.42 -7.87 4.72 -8 4 C-5.63 1.63 -4.23 1.58 -1 1 C-0.67 0.67 -0.34 0.34 0 0 Z " fill="#EFD196" transform="translate(30,31)"/>
<path d="M0 0 C0.41 0.01 0.41 0.01 2.5 0.04 C3.32 0.04 4.15 0.05 5 0.06 C5.64 0.07 6.28 0.09 6.93 0.1 C6.93 0.76 6.93 1.42 6.93 2.1 C8.58 2.43 10.23 2.76 11.93 3.1 C12.59 5.41 13.25 7.72 13.93 10.1 C12.87 11.6 12.87 11.6 10.93 13.1 C7.25 13.29 7.25 13.29 3.93 13.1 C3.6 11.78 3.27 10.46 2.93 9.1 C4.25 9.1 5.57 9.1 6.93 9.1 C6.6 7.78 6.27 6.46 5.93 5.1 C4.94 4.93 4.94 4.93 -0.07 4.1 C0.26 6.41 0.59 8.72 0.93 11.1 C-0.72 10.11 -2.37 9.12 -4.07 8.1 C-3.05 0.14 -3.05 0.14 0 0 Z " fill="#EBCE96" transform="translate(65.06640625,32.90234375)"/>
<path d="M0 0 C0.99 0 1.98 0 3 0 C3 0.66 3 1.32 3 2 C3.66 2 4.32 2 5 2 C5 2.99 5 3.98 5 5 C5.6 5.27 6.2 5.54 6.81 5.81 C8.97 6.98 10.36 8.19 12 10 C9 12 9 12 6.06 11.5 C3 11 3 11 0.94 12.06 C-1 13 -1 13 -3.56 12.12 C-4.37 11.75 -5.17 11.38 -6 11 C-6.99 11 -7.98 11 -9 11 C-9 10.01 -9 9.02 -9 8 C-7.85 7.83 -7.85 7.83 -2 7 C-2 6.01 -2 5.02 -2 4 C-1.34 4 -0.68 4 0 4 C0 2.68 0 1.36 0 0 Z " fill="#B8B18E" transform="translate(23,90)"/>
<path d="M0 0 C0.33 0.99 0.66 1.98 1 3 C2.65 3.33 4.3 3.66 6 4 C8.12 9.62 8.12 9.62 7 13 C4.69 13.33 2.38 13.66 0 14 C0.66 13.34 1.32 12.68 2 12 C1.67 11.01 1.34 10.02 1 9 C1.66 9 2.32 9 3 9 C1.69 7 1.69 7 0 5 C-0.99 5 -1.98 5 -3 5 C-3.33 4.34 -3.66 3.68 -4 3 C-4.33 3.99 -4.66 4.98 -5 6 C-5.99 6 -6.98 6 -8 6 C-8.33 6.66 -8.66 7.32 -9 8 C-9.66 8 -10.32 8 -11 8 C-11.33 8.99 -11.66 9.98 -12 11 C-12.81 7.75 -12.81 7.75 -13 4 C-9.25 -0.72 -5.58 -0.38 0 0 Z " fill="#F2D7A1" transform="translate(58,10)"/>
<path d="M0 0 C-0.33 0.99 -0.66 1.98 -1 3 C-1.66 3 -2.32 3 -3 3 C-3 3.99 -3 4.98 -3 6 C-1.35 6 0.3 6 2 6 C2.33 6.99 2.66 7.98 3 9 C-0.74 9.7 -4.21 10 -8 10 C-8.35 10.11 -8.35 10.11 -10.12 10.69 C-10.74 10.79 -11.36 10.89 -12 11 C-13.75 9.56 -13.75 9.56 -15 8 C-14.34 8 -13.68 8 -13 8 C-12.92 7.4 -12.84 6.8 -12.75 6.19 C-11.76 3.31 -10.61 2.52 -8 1 C-5.19 0.25 -2.91 0 0 0 Z " fill="#D3CAAA" transform="translate(74,91)"/>
<path d="M0 0 C0.99 0.33 1.98 0.66 3 1 C2.67 1.66 2.34 2.32 2 3 C3.98 3 5.96 3 8 3 C7.34 3.66 6.68 4.32 6 5 C6.33 5.66 6.66 6.32 7 7 C5.82 8.55 5.82 8.55 4 10 C1.52 9.86 1.52 9.86 -1.19 9.19 C-2.09 8.97 -2.99 8.76 -3.92 8.54 C-4.61 8.36 -5.29 8.18 -6 8 C-6.33 8.66 -6.66 9.32 -7 10 C-10.38 10.19 -10.38 10.19 -14 10 C-16 7 -16 7 -16 4 C-13.31 2.65 -11.86 3.23 -8.94 3.81 C-8.04 3.98 -7.14 4.16 -6.21 4.33 C-5.48 4.55 -4.75 4.77 -4 5 C-3.67 5.66 -3.34 6.32 -3 7 C-2.34 7 -1.68 7 -1 7 C-0.67 4.69 -0.34 2.38 0 0 Z " fill="#D7D2B7" transform="translate(51,97)"/>
<path d="M0 0 C2.57 2.57 2.68 4.64 3.34 8.12 C4 10 4 10 7 12 C7 10.68 7 9.36 7 8 C7.66 8 8.32 8 9 8 C9.33 8.66 9.66 9.32 10 10 C10.99 8.02 11.98 6.04 13 4 C14 6 14 6 13.31 8.75 C11.92 12.2 10.16 14.98 8 18 C5.06 17.62 5.06 17.62 2 17 C0.48 13.96 0.63 10.72 0.44 7.38 C0.39 6.67 0.35 5.96 0.31 5.23 C0.2 3.49 0.1 1.74 0 0 Z " fill="#636542" transform="translate(38,82)"/>
<path d="M0 0 C0.66 0 1.32 0 2 0 C3.21 4.67 3.09 9.21 3 14 C2.34 14 1.68 14 1 14 C0.67 14.99 0.34 15.98 0 17 C0 16.34 0 15.68 0 15 C-1.32 14.67 -2.64 14.34 -4 14 C-4.12 13.11 -4.25 12.23 -4.38 11.31 C-4.94 8.3 -5.77 5.8 -7 3 C-6.52 2.94 -6.52 2.94 -4.06 2.62 C-3.56 2.52 -3.56 2.52 -1 2 C-0.67 1.34 -0.34 0.68 0 0 Z " fill="#B79957" transform="translate(32,35)"/>
<path d="M0 0 C2.88 2.5 2.88 2.5 5 5 C4.67 5.17 4.67 5.17 3 6 C3.33 7.65 3.66 9.3 4 11 C3.01 10.67 2.02 10.34 1 10 C0.67 10.66 0.34 11.32 0 12 C-0.99 10.68 -1.98 9.36 -3 8 C-2.01 7.67 -1.02 7.34 0 7 C-3.78 5.16 -5.95 4.84 -10 6 C-9.69 4.12 -9.69 4.12 -9 2 C-5.48 -0.35 -4.14 -0.58 0 0 Z " fill="#CDC4A1" transform="translate(20,84)"/>
<path d="M0 0 C0.33 0 0.66 0 1 0 C1.03 2.92 1.05 5.83 1.06 8.75 C1.07 9.58 1.08 10.4 1.09 11.25 C1.09 12.05 1.09 12.85 1.1 13.67 C1.1 14.41 1.11 15.14 1.11 15.89 C1 18.05 0.59 19.93 0 22 C-2.38 21.69 -2.38 21.69 -5 21 C-7 18 -7 18 -7 14 C-6.01 14 -5.02 14 -4 14 C-4 10.7 -4 7.4 -4 4 C-3.01 4.66 -2.02 5.32 -1 6 C-0.67 4.02 -0.34 2.04 0 0 Z " fill="#C7C2AB" transform="translate(47,63)"/>
<path d="M0 0 C-0.58 3.9 -2.49 6.04 -5 9 C-5.54 9.76 -6.07 10.53 -6.62 11.31 C-6.85 11.59 -6.85 11.59 -8 13 C-8.66 13 -9.32 13 -10 13 C-10 11.35 -10 9.7 -10 8 C-10.66 8 -11.32 8 -12 8 C-12 6.35 -12 4.7 -12 3 C-11.34 3.66 -10.68 4.32 -10 5 C-9.55 4.59 -9.55 4.59 -7.25 2.5 C-4.46 -0.03 -4.13 0 0 0 Z " fill="#BDB68C" transform="translate(60,45)"/>
<path d="M0 0 C0.33 0.99 0.66 1.98 1 3 C1.66 3 2.32 3 3 3 C3.33 2.34 3.66 1.68 4 1 C4 1.66 4 2.32 4 3 C5.32 3.33 6.64 3.66 8 4 C8 5.32 8 6.64 8 8 C6.68 8 5.36 8 4 8 C4 8.66 4 9.32 4 10 C4.66 10.33 5.32 10.66 6 11 C5.67 12.65 5.34 14.3 5 16 C3.35 16.33 1.7 16.66 0 17 C0.08 16.22 0.17 15.44 0.25 14.63 C0.36 13.62 0.46 12.61 0.56 11.56 C0.67 10.55 0.77 9.54 0.88 8.5 C0.92 7.68 0.96 6.85 1 6 C0.67 5.67 0.34 5.34 0 5 C-0.04 3.33 -0.04 1.67 0 0 Z " fill="#AF9053" transform="translate(64,34)"/>
<path d="M0 0 C0 2.64 0 5.28 0 8 C-0.66 8 -1.32 8 -2 8 C-1.98 8.47 -1.98 8.47 -1.88 10.88 C-2 14 -2 14 -4 16 C-4.33 14.68 -4.66 13.36 -5 12 C-5.66 12 -6.32 12 -7 12 C-8.01 8.77 -8.2 7.44 -6.75 4.31 C-4.82 1.76 -3.36 0 0 0 Z " fill="#99976F" transform="translate(49,55)"/>
<path d="M0 0 C2 1 2 1 2 1 Z " fill="#F7F6F3" transform="translate(70,47)"/>
<path d="" fill="#F7F6F4" transform="translate(0,0)"/>
<path d="" fill="#F6F5F4" transform="translate(0,0)"/>
<path d="" fill="#F5F5F4" transform="translate(0,0)"/>
<path d="" fill="#F4F6F3" transform="translate(0,0)"/>
<path d="" fill="#F6F6F2" transform="translate(0,0)"/>
<path d="" fill="#F6F5F4" transform="translate(0,0)"/>
</svg>
