<svg version="1.1" xmlns="http://www.w3.org/2000/svg" width="1200" height="694"><rect width="1200" height="694" fill="white"/><g id="obj_01_main_island__road_05" class="obj_01_main_island__road_05" data-label="road_05">
      <path d="M0 0 C0 0.99 0 1.98 0 3 C0.58 3.1 1.15 3.21 1.75 3.31 C4.36 4.11 5.97 5.19 8 7 C8 7.66 8 8.32 8 9 C8.99 9.33 9.98 9.66 11 10 C11.16 10.82 11.16 10.82 12 15 C8.77 17.15 7.72 17.2 4 17 C3.93 17.62 3.85 18.25 3.77 18.89 C3 21 3 21 1.04 22.05 C0.24 22.28 -0.55 22.51 -1.38 22.75 C-2.17 22.99 -2.96 23.23 -3.77 23.48 C-6 24 -6 24 -9 24 C-9 24.99 -9 25.98 -9 27 C-10.65 27 -12.3 27 -14 27 C-14 27.66 -14 28.32 -14 29 C-15.98 29.66 -17.96 30.32 -20 31 C-20 31.66 -20 32.32 -20 33 C-20.99 33.66 -21.98 34.32 -23 35 C-23 36.32 -23 37.64 -23 39 C-22.34 39.33 -21.68 39.66 -21 40 C-21 40.66 -21 41.32 -21 42 C-19.02 42.33 -17.04 42.66 -15 43 C-15 43.66 -15 44.32 -15 45 C-13.02 45.33 -11.04 45.66 -9 46 C-9 46.99 -9 47.98 -9 49 C-8.13 48.96 -7.27 48.92 -6.38 48.88 C-2.88 49 -0.25 49.76 3 51 C3 51.99 3 52.98 3 54 C5.97 54 8.94 54 12 54 C11.67 54.99 11.34 55.98 11 57 C14.96 57.66 18.92 58.32 23 59 C23 59.66 23 60.32 23 61 C25.31 61 27.62 61 30 61 C30 61.66 30 62.32 30 63 C32.43 64.22 34.22 64.14 36.94 64.25 C39.67 64.48 39.67 64.48 42 65 C43.69 67.5 43.69 67.5 45 70 C48.69 70.81 48.69 70.81 52 71 C52 71.66 52 72.32 52 73 C52.93 72.96 53.86 72.92 54.81 72.88 C58 73 58 73 61 75 C61 75.66 61 76.32 61 77 C61.99 77 62.98 77 64 77 C64 77.99 64 78.98 64 80 C64.47 80.07 64.47 80.07 66.88 80.44 C70 81 70 81 72 82 C72 82.66 72 83.32 72 84 C73.32 84 74.64 84 76 84 C76 84.66 76 85.32 76 86 C78.31 86 80.62 86 83 86 C83 86.66 83 87.32 83 88 C82.34 88 81.68 88 81 88 C81 88.66 81 89.32 81 90 C82.32 90 83.64 90 85 90 C85 90.99 85 91.98 85 93 C85.99 93 86.98 93 88 93 C88 93.66 88 94.32 88 95 C90.25 94.72 92.5 94.42 94.75 94.12 C96 93.96 97.26 93.8 98.55 93.63 C101.54 93.08 103.36 92.37 106 91 C109.25 91.38 109.25 91.38 112 92 C112 92.66 112 93.32 112 94 C111.01 94 110.02 94 109 94 C109 93.34 109 92.68 109 92 C108.01 92.66 107.02 93.32 106 94 C106.33 94.5 106.33 94.5 108 97 C103.07 98.97 99.22 99.18 94 99 C94 99.66 94 100.32 94 101 C93.01 101 92.02 101 91 101 C91 101.66 91 102.32 91 103 C92.65 103 94.3 103 96 103 C94.68 103.33 93.36 103.66 92 104 C92.33 106.31 92.66 108.62 93 111 C92.24 110.9 91.47 110.79 90.69 110.69 C89.8 110.79 88.91 110.89 88 111 C86.12 113.38 86.12 113.38 85 116 C85.33 116.66 85.66 117.32 86 118 C83.35 119.46 82.11 120 79 120 C79 121.32 79 122.64 79 124 C78.61 124.03 78.61 124.03 76.62 124.19 C75.76 124.46 74.89 124.72 74 125 C73.69 125.82 73.38 126.65 73.06 127.5 C72.71 128.32 72.36 129.15 72 130 C68.88 130.81 68.88 130.81 66 131 C66.33 130.01 66.66 129.02 67 128 C66.72 125.99 66.4 123.99 66 122 C65.34 122 64.68 122 64 122 C63.34 124.31 62.68 126.62 62 129 C61.34 129 60.68 129 60 129 C60.33 130.32 60.66 131.64 61 133 C58.69 133.33 56.38 133.66 54 134 C54.33 134.99 54.66 135.98 55 137 C53.01 137.49 51.03 137.98 49.04 138.46 C47.34 138.91 45.67 139.44 44 140 C43.31 142.06 43.31 142.06 43 144 C42.36 144.11 41.72 144.22 41.07 144.33 C40.24 144.49 39.41 144.65 38.56 144.81 C38.15 144.89 38.15 144.89 36.07 145.27 C35.73 145.39 35.73 145.39 34 146 C33.67 146.99 33.34 147.98 33 149 C30.62 149.19 30.62 149.19 28 149 C27.34 148.01 26.68 147.02 26 146 C25.75 146.97 25.5 147.94 25.25 148.94 C24.84 149.95 24.42 150.96 24 152 C21.88 152.88 21.88 152.88 20 153 C20 153.66 20 154.32 20 155 C19.07 154.94 18.14 154.88 17.19 154.81 C14 155 14 155 12.12 156.38 C11 158 11 158 11 160 C7.49 161.6 4.86 162.22 1 162 C1.16 163.15 1.16 163.15 2 169 C-1.63 169.33 -5.26 169.66 -9 170 C-8.67 170.99 -8.34 171.98 -8 173 C-8.66 173 -9.32 173 -10 173 C-10.33 174.32 -10.66 175.64 -11 177 C-12.65 177 -14.3 177 -16 177 C-15.34 177.66 -14.68 178.32 -14 179 C-14.33 179.66 -14.66 180.32 -15 181 C-15.99 181 -16.98 181 -18 181 C-18 181.66 -18 182.32 -18 183 C-16.35 183.33 -14.7 183.66 -13 184 C-13.33 185.32 -13.66 186.64 -14 188 C-14.99 188 -15.98 188 -17 188 C-17 188.66 -17 189.32 -17 190 C-16.01 190 -15.02 190 -14 190 C-14.33 191.65 -14.66 193.3 -15 195 C-13.02 195.33 -11.04 195.66 -9 196 C-9.33 197.32 -9.66 198.64 -10 200 C-9.29 200.12 -8.58 200.24 -7.85 200.37 C-7.39 200.45 -7.39 200.45 -5.06 200.88 C-4.6 200.96 -4.6 200.96 -2.29 201.37 C-1.53 201.58 -0.78 201.78 0 202 C0.33 202.66 0.66 203.32 1 204 C0.34 204 -0.32 204 -1 204 C-1 204.66 -1 205.32 -1 206 C1.97 206.66 4.94 207.32 8 208 C7.67 208.99 7.34 209.98 7 211 C7.99 211.1 7.99 211.1 12.96 211.59 C15 212 15 212 18 214 C20.01 214.34 20.01 214.34 22.12 214.5 C23.4 214.66 24.68 214.83 26 215 C26.33 215.66 26.66 216.32 27 217 C25.68 217 24.36 217 23 217 C23 217.66 23 218.32 23 219 C26.63 219.33 30.26 219.66 34 220 C34 221.65 34 223.3 34 225 C37.3 225 40.6 225 44 225 C44 225.66 44 226.32 44 227 C43.34 227.33 42.68 227.66 42 228 C45.3 228.66 48.6 229.32 52 230 C52 230.99 52 231.98 52 233 C53.32 233.33 54.64 233.66 56 234 C55.67 232.68 55.34 231.36 55 230 C58.19 227.87 60.27 227.5 64 227 C63.67 225.68 63.34 224.36 63 223 C66.21 221.39 69.44 221.94 73 222 C73.33 222.66 73.66 223.32 74 224 C73.34 224 72.68 224 72 224 C72 225.32 72 226.64 72 228 C71.34 228.33 70.68 228.66 70 229 C70.33 229.99 70.66 230.98 71 232 C70.46 232.07 70.46 232.07 67.75 232.44 C65.07 232.84 62.6 233.31 60 234 C58.33 234.34 56.67 234.68 55 235 C55 235.66 55 236.32 55 237 C56.98 237 58.96 237 61 237 C61.33 237.99 61.66 238.98 62 240 C61.67 240.66 61.34 241.32 61 242 C61.91 241.94 62.82 241.88 63.75 241.81 C67.29 242.02 68.45 242.65 71 245 C69.68 245.33 68.36 245.66 67 246 C68.32 246.99 69.64 247.98 71 249 C70.34 249 69.68 249 69 249 C69.52 249.72 70.03 250.44 70.56 251.19 C72.21 254.42 72.06 255.62 71 259 C71.66 259 72.32 259 73 259 C73.33 259.99 73.66 260.98 74 262 C74.99 262.99 75.98 263.98 77 265 C74.03 265.33 71.06 265.66 68 266 C68.99 266.66 69.98 267.32 71 268 C70.5 268.6 70.01 269.2 69.5 269.81 C68 272 68 272 68 275 C66.68 275.66 65.36 276.32 64 277 C64.99 277.33 65.98 277.66 67 278 C65.69 280.61 64.72 280.97 62 282 C58.75 282.12 58.75 282.12 56 282 C56.99 283.32 57.98 284.64 59 286 C58.46 286.25 57.91 286.51 57.36 286.77 C57 286.94 57 286.94 55.19 287.81 C54.48 288.15 53.77 288.49 53.04 288.83 C51 290 51 290 49.49 291.64 C48 293 48 293 44 293 C43.67 294.32 43.34 295.64 43 297 C43.66 297 44.32 297 45 297 C45 297.99 45 298.98 45 300 C43.35 300 41.7 300 40 300 C40 301.32 40 302.64 40 304 C39.36 304.1 38.72 304.21 38.06 304.31 C37.38 304.54 36.7 304.77 36 305 C35.67 305.99 35.34 306.98 35 308 C33.02 308.33 31.04 308.66 29 309 C29 310.98 29 312.96 29 315 C28.34 315 27.68 315 27 315 C27 315.66 27 316.32 27 317 C23.7 317.66 20.4 318.32 17 319 C17 319.66 17 320.32 17 321 C16.01 321 15.02 321 14 321 C14.16 321.57 14.31 322.13 14.47 322.71 C14.57 323.08 14.57 323.08 15.06 324.94 C15.26 325.67 15.46 326.4 15.66 327.15 C15.72 327.46 15.72 327.46 16 329 C15 330 15 330 11.94 330.06 C10.97 330.04 10 330.02 9 330 C9 331.32 9 332.64 9 334 C8.34 334 7.68 334 7 334 C7 334.66 7 335.32 7 336 C6.34 336 5.68 336 5 336 C5 336.66 5 337.32 5 338 C3.68 338 2.36 338 1 338 C1 338.99 1 339.98 1 341 C-0.32 341 -1.64 341 -3 341 C-3.33 341.66 -3.66 342.32 -4 343 C-4.66 343 -5.32 343 -6 343 C-6 344.32 -6 345.64 -6 347 C-4.02 346.67 -2.04 346.34 0 346 C0 346.66 0 347.32 0 348 C-0.66 348.33 -1.32 348.66 -2 349 C-2 349.99 -2 350.98 -2 352 C-2.99 352 -3.98 352 -5 352 C-5 352.66 -5 353.32 -5 354 C-5.99 354.33 -6.98 354.66 -8 355 C-7.67 356.65 -7.34 358.3 -7 360 C-6.34 360 -5.68 360 -5 360 C-5 361.65 -5 363.3 -5 365 C-6.32 365.33 -7.64 365.66 -9 366 C-9 366.66 -9 367.32 -9 368 C-10.98 368 -12.96 368 -15 368 C-15.33 369.32 -15.66 370.64 -16 372 C-14.02 372 -12.04 372 -10 372 C-10 372.66 -10 373.32 -10 374 C-8.02 374 -6.04 374 -4 374 C-5.32 374.66 -6.64 375.32 -8 376 C-8 376.66 -8 377.32 -8 378 C-5.69 378 -3.38 378 -1 378 C-0.67 378.66 -0.34 379.32 0 380 C-0.99 380 -1.98 380 -3 380 C-3 380.99 -3 381.98 -3 383 C4.43 384.29 4.43 384.29 8 383 C7.34 384.65 6.68 386.3 6 388 C6.56 387.98 6.56 387.98 9.38 387.88 C13 388 13 388 15 390 C14.67 390.66 14.34 391.32 14 392 C17.3 392 20.6 392 24 392 C24 392.66 24 393.32 24 394 C23.01 394 22.02 394 21 394 C21.33 395.32 21.66 396.64 22 398 C25.3 398.66 28.6 399.32 32 400 C31.01 400.33 30.02 400.66 29 401 C29 401.99 29 402.98 29 404 C30.65 404.33 32.3 404.66 34 405 C33.01 406.65 32.02 408.3 31 410 C34.3 410.33 37.6 410.66 41 411 C41 411.99 41 412.98 41 414 C41.99 414.33 42.98 414.66 44 415 C43.34 415.33 42.68 415.66 42 416 C45.3 416.33 48.6 416.66 52 417 C52 417.66 52 418.32 52 419 C48.37 419.66 44.74 420.32 41 421 C41 421.33 41 421.66 41 422 C43.64 422.33 46.28 422.66 49 423 C49 423.99 49 424.98 49 426 C49.66 426 50.32 426 51 426 C51 426.99 51 427.98 51 429 C47.7 429.66 44.4 430.32 41 431 C42.5 432.5 43.99 432.33 46.06 432.56 C47.36 432.71 48.66 432.85 50 433 C49.67 434.98 49.34 436.96 49 439 C49.74 438.92 50.49 438.84 51.25 438.75 C54.78 439.07 55.77 440.35 58 443 C57.34 443 56.68 443 56 443 C56 443.66 56 444.32 56 445 C53.69 444.67 51.38 444.34 49 444 C49.33 444.99 49.66 445.98 50 447 C52.64 447.33 55.28 447.66 58 448 C58 448.99 58 449.98 58 451 C56.02 450.67 54.04 450.34 52 450 C51.67 450.99 51.34 451.98 51 453 C48.24 453.6 45.84 454 43 454 C45.24 457.36 45.93 457.58 49.62 458.69 C50.44 458.94 51.26 459.19 52.1 459.45 C52.41 459.54 52.41 459.54 54 460 C54 460.33 54 460.66 54 461 C50.04 461.33 46.08 461.66 42 462 C41.67 463.32 41.34 464.64 41 466 C42.65 466 44.3 466 46 466 C46.33 467.32 46.66 468.64 47 470 C46.07 470.12 45.15 470.24 44.19 470.37 C42.99 470.53 41.8 470.7 40.56 470.88 C39.97 470.96 39.97 470.96 36.94 471.37 C35.97 471.58 35 471.78 34 472 C33.67 472.66 33.34 473.32 33 474 C34.65 474 36.3 474 38 474 C38 474.66 38 475.32 38 476 C33.25 477.12 33.25 477.12 31 476 C31 476.99 31 477.98 31 479 C29.68 479 28.36 479 27 479 C27 480.65 27 482.3 27 484 C25.02 484.66 23.04 485.32 21 486 C21.33 486.66 21.66 487.32 22 488 C23.85 488.41 23.85 488.41 26.06 488.62 C27.36 488.75 28.66 488.87 30 489 C30 490.32 30 491.64 30 493 C28.68 493.33 27.36 493.66 26 494 C26.66 494.66 27.32 495.32 28 496 C22.72 495.67 17.44 495.34 12 495 C10.51 497.99 9.21 500.9 8 504 C8.39 503.97 8.39 503.97 10.38 503.81 C11.24 503.87 12.11 503.94 13 504 C13.33 504.5 13.33 504.5 15 507 C11.58 508.14 8.91 508.1 5.31 508.06 C4.13 508.05 2.95 508.04 1.74 508.04 C0.83 508.02 -0.07 508.01 -1 508 C-1 508.99 -1 509.98 -1 511 C-1.39 511.03 -1.39 511.03 -3.38 511.19 C-4.24 511.46 -5.11 511.72 -6 512 C-7.16 514.55 -7.16 514.55 -8 517 C-19.37 517.07 -30.74 517.12 -42.11 517.16 C-47.39 517.17 -52.67 517.19 -57.95 517.23 C-63.05 517.26 -68.14 517.28 -73.24 517.28 C-75.18 517.29 -77.13 517.3 -79.07 517.32 C-81.79 517.34 -84.52 517.34 -87.24 517.34 C-87.64 517.35 -87.64 517.35 -89.67 517.37 C-94.48 517.35 -97.87 516.74 -102 514 C-102.16 513.5 -102.16 513.5 -103 511 C-102.01 510.34 -101.02 509.68 -100 509 C-100.72 508.86 -101.44 508.71 -102.19 508.56 C-103.94 508.21 -105.69 507.86 -107.44 507.5 C-110.28 506.94 -113.14 506.47 -116 506 C-116 505.34 -116 504.68 -116 504 C-110.24 502.79 -104.96 503.22 -99.11 503.74 C-95.72 504.02 -92.41 504.08 -89 504 C-89 503.01 -89 502.02 -89 501 C-88.01 500.67 -87.02 500.34 -86 500 C-86.33 499.01 -86.66 498.02 -87 497 C-83.37 497 -79.74 497 -76 497 C-76 496.34 -76 495.68 -76 495 C-71.43 494.75 -71.43 494.75 -69 496.19 C-68.67 496.32 -68.67 496.32 -67 497 C-66.3 496.55 -65.6 496.09 -64.88 495.62 C-60.67 493.25 -56.73 493.75 -52 494 C-52 493.34 -52 492.68 -52 492 C-57.28 492 -62.56 492 -68 492 C-67.67 490.68 -67.34 489.36 -67 488 C-64.36 488 -61.72 488 -59 488 C-59 487.34 -59 486.68 -59 486 C-61.97 485.67 -64.94 485.34 -68 485 C-68 483.35 -68 481.7 -68 480 C-66.87 480.02 -65.74 480.05 -64.57 480.07 C-63.09 480.09 -61.61 480.11 -60.12 480.12 C-59.38 480.14 -58.63 480.16 -57.86 480.18 C-55.91 480.19 -53.95 480.1 -52 480 C-51.34 479.34 -50.68 478.68 -50 478 C-52.31 477.34 -54.62 476.68 -57 476 C-57 475.34 -57 474.68 -57 474 C-53.87 472.14 -51.63 471.8 -48 472 C-48 471.01 -48 470.02 -48 469 C-47.24 468.9 -46.47 468.79 -45.69 468.69 C-43 468 -43 468 -41.62 466.41 C-40 465 -40 465 -37.74 465.14 C-36.94 465.36 -36.14 465.59 -35.31 465.81 C-34.5 466.03 -33.7 466.24 -32.86 466.46 C-32.25 466.64 -31.63 466.82 -31 467 C-32.39 464.22 -34.16 464.02 -37 463 C-36.67 462.01 -36.34 461.02 -36 460 C-32.04 459.67 -28.08 459.34 -24 459 C-24 458.34 -24 457.68 -24 457 C-22.54 456.5 -21.08 456 -19.62 455.5 C-18.81 455.22 -18 454.94 -17.16 454.66 C-15 454 -15 454 -13 454 C-13 453.34 -13 452.68 -13 452 C-13.76 452 -14.53 452 -15.31 452 C-17.21 452 -19.1 452 -21 452 C-21.66 450.68 -22.32 449.36 -23 448 C-21.02 448 -19.04 448 -17 448 C-17 447.34 -17 446.68 -17 446 C-14.03 445.34 -11.06 444.68 -8 444 C-8 443.01 -8 442.02 -8 441 C-10.31 441 -12.62 441 -15 441 C-15 440.34 -15 439.68 -15 439 C-14.34 439 -13.68 439 -13 439 C-13 438.34 -13 437.68 -13 437 C-14.65 436.67 -16.3 436.34 -18 436 C-18 435.67 -18 435.34 -18 435 C-16.02 434.67 -14.04 434.34 -12 434 C-12 433.01 -12 432.02 -12 431 C-13.65 430.67 -15.3 430.34 -17 430 C-17 429.34 -17 428.68 -17 428 C-18.32 428 -19.64 428 -21 428 C-21 427.34 -21 426.68 -21 426 C-19.68 426 -18.36 426 -17 426 C-16.34 424.02 -15.68 422.04 -15 420 C-15.46 420.01 -15.46 420.01 -17.81 420.06 C-21 420 -21 420 -24 419 C-24 417.35 -24 415.7 -24 414 C-22.02 413.34 -20.04 412.68 -18 412 C-21.63 411.34 -25.26 410.68 -29 410 C-28.67 408.35 -28.34 406.7 -28 405 C-28.99 404.67 -29.98 404.34 -31 404 C-31 403.34 -31 402.68 -31 402 C-34.3 401.67 -37.6 401.34 -41 401 C-40.67 398.69 -40.34 396.38 -40 394 C-42.64 394 -45.28 394 -48 394 C-48 394.66 -48 395.32 -48 396 C-49.62 397.69 -49.62 397.69 -52 399 C-56.27 398.82 -58.81 397.82 -62 395 C-61.67 394.01 -61.34 393.02 -61 392 C-58.36 392 -55.72 392 -53 392 C-53 391.34 -53 390.68 -53 390 C-52.34 390 -51.68 390 -51 390 C-51.33 388.68 -51.66 387.36 -52 386 C-52.72 386.19 -53.44 386.37 -54.19 386.56 C-57.13 387.02 -59.14 386.74 -62 386 C-58.25 383 -58.25 383 -56 383 C-56 382.34 -56 381.68 -56 381 C-59.63 380.34 -63.26 379.68 -67 379 C-67 378.34 -67 377.68 -67 377 C-65.35 376.34 -63.7 375.68 -62 375 C-62 374.34 -62 373.68 -62 373 C-63.15 372.5 -63.15 372.5 -69 370 C-69 369.34 -69 368.68 -69 368 C-67.02 367.67 -65.04 367.34 -63 367 C-63 366.01 -63 365.02 -63 364 C-63.99 363.34 -64.98 362.68 -66 362 C-64.81 359.56 -64.81 359.56 -63 357 C-60.31 356.19 -60.31 356.19 -58 356 C-58 355.01 -58 354.02 -58 353 C-59.65 352.67 -61.3 352.34 -63 352 C-62.67 351.01 -62.34 350.02 -62 349 C-58.7 348.67 -55.4 348.34 -52 348 C-52.66 346.35 -53.32 344.7 -54 343 C-53.01 343 -52.02 343 -51 343 C-51.33 341.35 -51.66 339.7 -52 338 C-50.68 337.67 -49.36 337.34 -48 337 C-48.33 335.35 -48.66 333.7 -49 332 C-48.72 331.91 -48.72 331.91 -47.29 331.45 C-46.55 331.2 -45.82 330.95 -45.06 330.69 C-44.33 330.44 -43.6 330.2 -42.85 329.95 C-41 329 -41 329 -40 326 C-41.65 325.67 -43.3 325.34 -45 325 C-40.77 320.32 -36.39 320.39 -30.45 320.08 C-29.64 320.05 -28.83 320.03 -28 320 C-28 319.01 -28 318.02 -28 317 C-29.32 316.67 -30.64 316.34 -32 316 C-31.67 315.34 -31.34 314.68 -31 314 C-27.7 314 -24.4 314 -21 314 C-21 313.34 -21 312.68 -21 312 C-21.99 311.67 -22.98 311.34 -24 311 C-23.01 310.67 -22.02 310.34 -21 310 C-21 309.34 -21 308.68 -21 308 C-19.68 307.67 -18.36 307.34 -17 307 C-17.21 306.4 -17.41 305.8 -17.62 305.19 C-18 303 -18 303 -16 300 C-14.68 300.33 -13.36 300.66 -12 301 C-12.99 301.33 -13.98 301.66 -15 302 C-7.49 301.38 -7.49 301.38 -5 299.44 C-4.67 298.96 -4.34 298.49 -4 298 C-4.33 297.5 -4.33 297.5 -6 295 C-2.56 292.71 -1.01 292.82 3 293 C3 292.34 3 291.68 3 291 C3.99 291 4.98 291 6 291 C5.81 290.2 5.63 289.39 5.44 288.56 C5.37 288.14 5.37 288.14 5 286 C6 285 6 285 8.56 284.94 C9.37 284.96 10.17 284.98 11 285 C11.66 283.35 12.32 281.7 13 280 C14.98 280 16.96 280 19 280 C19 279.34 19 278.68 19 278 C19.66 278 20.32 278 21 278 C21 277.34 21 276.68 21 276 C19.68 275.67 18.36 275.34 17 275 C19.53 272.83 21.63 271.14 24.75 269.94 C25.12 269.78 25.12 269.78 27 269 C27.33 268.01 27.66 267.02 28 266 C26.68 265.34 25.36 264.68 24 264 C24.33 263.01 24.66 262.02 25 261 C26.98 261 28.96 261 31 261 C31 260.01 31 259.02 31 258 C30.34 258 29.68 258 29 258 C29 257.34 29 256.68 29 256 C27.35 255.67 25.7 255.34 24 255 C24 254.34 24 253.68 24 253 C24.66 253 25.32 253 26 253 C24.75 249.26 23.37 248.81 20 247 C20.99 246.67 21.98 246.34 23 246 C21.38 242.75 18.25 242.3 15 241 C15 240.34 15 239.68 15 239 C13.68 238.67 12.36 238.34 11 238 C11.66 238 12.32 238 13 238 C13 237.34 13 236.68 13 236 C12.34 236 11.68 236 11 236 C11 235.34 11 234.68 11 234 C10.32 234.03 9.65 234.07 8.95 234.11 C8.06 234.13 7.17 234.16 6.25 234.19 C5.37 234.22 4.49 234.26 3.58 234.29 C0.52 233.95 -0.81 233.12 -3 231 C-3 230.34 -3 229.68 -3 229 C-3.66 229 -4.32 229 -5 229 C-5 228.34 -5 227.68 -5 227 C-6.65 227 -8.3 227 -10 227 C-10 226.34 -10 225.68 -10 225 C-10.76 224.92 -11.53 224.84 -12.31 224.75 C-15.59 223.84 -16.07 222.69 -18 220 C-19.88 219.44 -19.88 219.44 -22 219 C-24.75 217.62 -24.75 217.62 -27 216 C-27 215.01 -27 214.02 -27 213 C-27.66 213 -28.32 213 -29 213 C-29.33 213.66 -29.66 214.32 -30 215 C-38.87 211.49 -38.87 211.49 -40.94 206.94 C-42.26 204.53 -43.55 204.11 -46 203 C-46.33 202.34 -46.66 201.68 -47 201 C-50.06 200.38 -50.06 200.38 -53 200 C-53 199.34 -53 198.68 -53 198 C-52.34 197.67 -51.68 197.34 -51 197 C-50.67 196.01 -50.34 195.02 -50 194 C-51.65 194 -53.3 194 -55 194 C-54.67 193.01 -54.34 192.02 -54 191 C-53.34 191 -52.68 191 -52 191 C-52.33 189.68 -52.66 188.36 -53 187 C-54.32 186.67 -55.64 186.34 -57 186 C-57.33 184.68 -57.66 183.36 -58 182 C-56.68 181.67 -55.36 181.34 -54 181 C-54 179.35 -54 177.7 -54 176 C-53.01 176 -52.02 176 -51 176 C-51 175.01 -51 174.02 -51 173 C-49.68 173 -48.36 173 -47 173 C-47.33 172.01 -47.66 171.02 -48 170 C-46.35 169.34 -44.7 168.68 -43 168 C-43 167.34 -43 166.68 -43 166 C-42.34 166 -41.68 166 -41 166 C-40.75 165.05 -40.5 164.1 -40.25 163.12 C-39 160 -39 160 -37.31 158.62 C-34.17 157.78 -31.24 157.88 -28 158 C-28 154 -28 154 -29 152 C-26.03 152.33 -23.06 152.66 -20 153 C-19.67 152.01 -19.34 151.02 -19 150 C-16.93 149.27 -16.93 149.27 -14.44 148.81 C-13.61 148.65 -12.78 148.5 -11.93 148.33 C-11.3 148.22 -10.66 148.11 -10 148 C-10.5 147.67 -10.5 147.67 -13 146 C-11.93 145.88 -10.86 145.76 -9.75 145.63 C-8.36 145.46 -6.96 145.29 -5.56 145.12 C-4.86 145.05 -4.15 144.97 -3.42 144.89 C-1.6 144.66 0.2 144.34 2 144 C2.33 143.34 2.66 142.68 3 142 C2.34 141.67 1.68 141.34 1 141 C3.31 140.67 5.62 140.34 8 140 C8.33 139.01 8.66 138.02 9 137 C11.33 136.12 11.33 136.12 14.25 135.44 C17.17 134.74 19.89 134.05 22.67 132.91 C25 132 25 132 28 132 C28 131.34 28 130.68 28 130 C28.46 129.86 28.46 129.86 30.81 129.12 C34 128 34 128 37 126 C39.69 125.88 39.69 125.88 42 126 C42.21 125.2 42.41 124.39 42.62 123.56 C43.08 122.72 43.53 121.87 44 121 C47.12 120.19 47.12 120.19 50 120 C49.67 119.01 49.34 118.02 49 117 C53.62 113 53.62 113 57 113 C57 112.01 57 111.02 57 110 C57.99 110 58.98 110 60 110 C60.66 108.35 61.32 106.7 62 105 C61.34 105 60.68 105 60 105 C59.67 103.68 59.34 102.36 59 101 C59.66 101 60.32 101 61 101 C61 100.34 61 99.68 61 99 C60.34 99 59.68 99 59 99 C58.67 97.35 58.34 95.7 58 94 C57.36 93.9 56.72 93.79 56.06 93.69 C55.38 93.46 54.7 93.23 54 93 C53.67 92.01 53.34 91.02 53 90 C51.06 89.38 51.06 89.38 49 89 C48.34 88.67 47.68 88.34 47 88 C47 87.34 47 86.68 47 86 C44.69 85.67 42.38 85.34 40 85 C40 84.01 40 83.02 40 82 C38.35 82 36.7 82 35 82 C34.67 81.01 34.34 80.02 34 79 C33.48 79.23 32.97 79.45 32.44 79.69 C28.71 80.17 26.35 78.61 23 77 C23 76.34 23 75.68 23 75 C22.01 75 21.02 75 20 75 C20 74.34 20 73.68 20 73 C19.22 73.04 18.43 73.08 17.62 73.12 C15 73 15 73 13 71 C10.34 70.43 7.71 70.26 5 70 C4.67 68.35 4.34 66.7 4 65 C2.78 65.1 1.57 65.21 0.31 65.31 C-6.15 65.32 -12.4 63.16 -18 60 C-18.88 57.83 -18.88 57.83 -19 56 C-19.33 56.16 -19.33 56.16 -21 57 C-23.33 57.04 -25.67 57.04 -28 57 C-27.34 56.01 -26.68 55.02 -26 54 C-26.86 53.82 -27.71 53.64 -28.6 53.45 C-34.7 52.11 -40.37 50.75 -46 48 C-46 47.34 -46 46.68 -46 46 C-47.98 45.01 -49.96 44.02 -52 43 C-52 42.01 -52 41.02 -52 40 C-52.66 40 -53.32 40 -54 40 C-54 39.01 -54 38.02 -54 37 C-54.33 36.84 -54.33 36.84 -56 36 C-55.01 35.67 -54.02 35.34 -53 35 C-52.67 34.01 -52.34 33.02 -52 32 C-51.01 32 -50.02 32 -49 32 C-49 31.34 -49 30.68 -49 30 C-49.98 29.96 -50.95 29.93 -51.96 29.89 C-53.23 29.82 -54.5 29.76 -55.81 29.69 C-57.08 29.63 -58.34 29.57 -59.64 29.51 C-63.14 28.98 -63.87 28.63 -66 26 C-68.69 25.31 -68.69 25.31 -71 25 C-71 24.34 -71 23.68 -71 23 C-69.18 23.33 -69.18 23.33 -60 25 C-60 25.66 -60 26.32 -60 27 C-57.02 27.03 -54.04 27.05 -51.06 27.06 C-50.21 27.07 -49.36 27.08 -48.49 27.09 C-47.68 27.09 -46.87 27.09 -46.04 27.1 C-45.29 27.1 -44.54 27.11 -43.77 27.11 C-42 27 -42 27 -41 26 C-38.67 25.96 -36.33 25.96 -34 26 C-34 25.34 -34 24.68 -34 24 C-33.36 23.88 -32.72 23.75 -32.06 23.62 C-31.38 23.42 -30.7 23.21 -30 23 C-29.67 22.34 -29.34 21.68 -29 21 C-28.01 21 -27.02 21 -26 21 C-26 20.34 -26 19.68 -26 19 C-21.3 17.13 -17.05 15.63 -12 15 C-12 13.68 -12 12.36 -12 11 C-11.7 9.66 -11.38 8.32 -11 7 C-12.32 7 -13.64 7 -15 7 C-15 6.34 -15 5.68 -15 5 C-15.95 4.9 -16.9 4.79 -17.88 4.69 C-21 4 -21 4 -23 1 C-15.7 -2.33 -7.73 -1.37 0 0 Z " fill="#ECD1A7" transform="translate(631,177)"/>
    </g><g id="obj_01_main_island__road_05__p2" class="obj_01_main_island__road_05" data-label="road_05">
      <path d="M0 0 C0.99 0.33 1.98 0.66 3 1 C2.67 2.65 2.34 4.3 2 6 C1.01 5.67 0.02 5.34 -1 5 C-1 5.66 -1 6.32 -1 7 C-1.66 7 -2.32 7 -3 7 C-2.67 8.32 -2.34 9.64 -2 11 C-0.78 11.14 0.43 11.29 1.69 11.44 C3.97 11.71 6.16 12.04 8.41 12.53 C11.26 13.05 13.91 13.1 16.81 13.06 C17.3 13.06 17.3 13.06 19.77 13.04 C20.51 13.02 21.24 13.01 22 13 C22 13.99 22 14.98 22 16 C22.66 16 23.32 16 24 16 C24 16.99 24 17.98 24 19 C16.25 18.25 16.25 18.25 14 16 C10.88 15.88 10.88 15.88 8 16 C8.99 16.33 9.98 16.66 11 17 C10.67 18.98 10.34 20.96 10 23 C7.69 22.34 5.38 21.68 3 21 C3 20.01 3 19.02 3 18 C1.02 18 -0.96 18 -3 18 C-3 18.66 -3 19.32 -3 20 C-2.2 20.27 -1.39 20.54 -0.56 20.81 C0.28 21.2 1.13 21.6 2 22 C2.16 22.5 2.16 22.5 3 25 C0.75 25.31 0.75 25.31 -2 25 C-4.31 22.5 -4.31 22.5 -6 20 C-9.53 20.29 -10.74 20.72 -13.19 23.38 C-14.47 25.24 -15.74 27.12 -17 29 C-19.64 28.34 -22.28 27.68 -25 27 C-25 27.99 -25 28.98 -25 30 C-27.64 30 -30.28 30 -33 30 C-31.68 29.01 -30.36 28.02 -29 27 C-29.99 26.34 -30.98 25.68 -32 25 C-32 24.34 -32 23.68 -32 23 C-31.01 23 -30.02 23 -29 23 C-29 22.01 -29 21.02 -29 20 C-29.66 19.67 -30.32 19.34 -31 19 C-30.69 18.96 -30.69 18.96 -29.12 18.75 C-28.42 18.5 -27.72 18.25 -27 18 C-26.69 17.34 -26.38 16.68 -26.06 16 C-25.71 15.34 -25.36 14.68 -25 14 C-22.38 13.25 -22.38 13.25 -20 13 C-20 11.68 -20 10.36 -20 9 C-19.22 8.75 -18.43 8.5 -17.62 8.25 C-15 7 -15 7 -14.21 4.96 C-13.81 4.31 -13.41 3.67 -13 3 C-10.21 2.46 -10.21 2.46 -6.94 2.38 C-4.96 2.31 -2.97 2.2 -1 2 C-0.67 1.34 -0.34 0.68 0 0 Z " fill="#BBA968" transform="translate(730,288)"/>
      <path d="M0 0 C0.99 0.33 1.98 0.66 3 1 C3 1.99 3 2.98 3 4 C3.99 4 4.98 4 6 4 C6 4.66 6 5.32 6 6 C6.99 6.33 7.98 6.66 9 7 C8.34 7 7.68 7 7 7 C7 7.99 7 8.98 7 10 C6.65 9.95 6.65 9.95 4.88 9.69 C0.69 10.14 -0.95 12.16 -4 15 C-3.89 15.38 -3.89 15.38 -3.31 17.31 C-3.21 18.2 -3.11 19.09 -3 20 C-3.98 21.02 -4.98 22.02 -6 23 C-6.19 25.69 -6.19 25.69 -6 28 C-6.66 28.33 -7.32 28.66 -8 29 C-9.12 31.06 -9.12 31.06 -10 33 C-11.32 32.67 -12.64 32.34 -14 32 C-14 30.35 -14 28.7 -14 27 C-14.93 26.88 -15.86 26.75 -16.81 26.62 C-20 26 -20 26 -23 24 C-22.01 21.4 -21.46 20.24 -18.94 18.95 C-18.16 18.72 -17.37 18.49 -16.56 18.25 C-15.78 18.01 -15 17.77 -14.19 17.52 C-12 17 -12 17 -9 17 C-9.47 16.11 -9.95 15.23 -10.44 14.31 C-11.8 11.43 -12.54 9.12 -13 6 C-9.7 6 -6.4 6 -3 6 C-2.67 4.68 -2.34 3.36 -2 2 C-1.34 1.34 -0.68 0.68 0 0 Z " fill="#BAAA83" transform="translate(677,527)"/>
      <path d="M0 0 C3.04 0.38 4.9 1.62 7.43 3.3 C10.3 3.54 12.6 3.54 15.37 2.74 C18.54 2.07 21.28 2.66 24.43 3.3 C25.09 3.96 25.75 4.62 26.43 5.3 C27.01 5.02 27.58 4.73 28.18 4.43 C28.55 4.24 28.55 4.24 30.43 3.3 C31.09 2.91 31.75 2.52 32.43 2.12 C34.86 1.13 36 1.44 38.43 2.3 C37.44 2.96 36.45 3.62 35.43 4.3 C36.75 4.63 38.07 4.96 39.43 5.3 C39.43 5.96 39.43 6.62 39.43 7.3 C37.12 8.29 34.81 9.28 32.43 10.3 C33.75 10.96 35.07 11.62 36.43 12.3 C35.77 13.62 35.11 14.94 34.43 16.3 C33.44 15.64 32.45 14.98 31.43 14.3 C31.43 13.64 31.43 12.98 31.43 12.3 C30.44 12.63 29.45 12.96 28.43 13.3 C27.56 12.85 26.7 12.4 25.8 11.93 C22.11 10.15 19.32 9.84 15.29 9.61 C14.67 9.51 14.06 9.41 13.43 9.3 C13.1 8.64 12.77 7.98 12.43 7.3 C12.1 7.96 11.77 8.62 11.43 9.3 C10.77 9.3 10.11 9.3 9.43 9.3 C9.1 8.64 8.77 7.98 8.43 7.3 C6.49 7.68 6.49 7.68 4.43 8.3 C4.1 8.96 3.77 9.62 3.43 10.3 C1.78 10.3 0.13 10.3 -1.57 10.3 C-1.57 10.96 -1.57 11.62 -1.57 12.3 C-2.56 12.14 -2.56 12.14 -7.57 11.3 C-6.25 10.97 -4.93 10.64 -3.57 10.3 C-4.9 6.3 -7.07 5.47 -10.57 3.3 C-7.47 -0.53 -4.66 -0.12 0 0 Z " fill="#C4AF7D" transform="translate(555.5703125,490.6953125)"/>
      <path d="M0 0 C1.59 0.43 3.17 0.87 4.75 1.31 C5.63 1.56 6.51 1.8 7.42 2.05 C10.06 3.02 11.85 4.21 14 6 C11 8 11 8 8 8 C8 9.32 8 10.64 8 12 C8.66 12.33 9.32 12.66 10 13 C10 14.32 10 15.64 10 17 C8.74 17.04 7.48 17.08 6.19 17.12 C5.48 17.15 4.77 17.17 4.04 17.2 C2 17 2 17 -1 15 C-2.19 11.38 -2.19 11.38 -3 8 C-3.33 8.16 -3.33 8.16 -5 9 C-5.62 11.06 -5.62 11.06 -6 13 C-6.99 13 -7.98 13 -9 13 C-9.25 13.64 -9.5 14.28 -9.75 14.94 C-11 17 -11 17 -13 17.56 C-13.66 17.71 -14.32 17.85 -15 18 C-15.66 18.99 -16.32 19.98 -17 21 C-17.99 20.67 -18.98 20.34 -20 20 C-20 19.34 -20 18.68 -20 18 C-19.34 18 -18.68 18 -18 18 C-17.9 17.24 -17.79 16.47 -17.69 15.69 C-16.93 12.73 -16.54 11.66 -14 10 C-10.81 9.81 -10.81 9.81 -8 10 C-8 9.34 -8 8.68 -8 8 C-11.63 7.67 -15.26 7.34 -19 7 C-19 5.68 -19 4.36 -19 3 C-16.99 3 -14.98 3.04 -12.97 3.11 C-11.82 3.13 -10.68 3.16 -9.5 3.19 C-8.36 3.22 -7.21 3.26 -6.03 3.29 C-3 3 -3 3 -1.09 1.49 C-0.73 1 -0.37 0.51 0 0 Z " fill="#BDAA69" transform="translate(612,236)"/>
      <path d="M0 0 C-0.66 0.99 -1.32 1.98 -2 3 C-5.62 3.69 -5.62 3.69 -9 4 C-6.36 4.99 -3.72 5.98 -1 7 C-1 7.66 -1 8.32 -1 9 C-1.45 8.99 -1.45 8.99 -3.75 8.94 C-6.43 8.99 -8.47 9.22 -11 10 C-11 10.66 -11 11.32 -11 12 C-11 12.99 -11 13.98 -11 15 C-11.99 14.83 -11.99 14.83 -17 14 C-17.33 13.01 -17.66 12.02 -18 11 C-21.52 10.92 -24.62 10.96 -28 12 C-28 10.68 -28 9.36 -28 8 C-29.65 8 -31.3 8 -33 8 C-33.66 6.68 -34.32 5.36 -35 4 C-29.39 4.33 -23.78 4.66 -18 5 C-18.33 3.68 -18.66 2.36 -19 1 C-12.34 -1.14 -6.9 -0.94 0 0 Z " fill="#C1AB72" transform="translate(695,367)"/>
      <path d="M0 0 C0.68 0.32 1.37 0.63 2.07 0.96 C5.4 2.14 8.3 2.41 11.81 2.62 C12.39 2.66 12.39 2.66 15.33 2.85 C16.21 2.9 17.09 2.95 18 3 C21 9.62 21 9.62 21 13 C21.99 13.33 22.98 13.66 24 14 C24.33 14.5 24.33 14.5 26 17 C24.56 17.05 23.13 17.09 21.69 17.12 C21.29 17.14 21.29 17.14 19.26 17.2 C17 17 17 17 14 15 C14.33 17.31 14.66 19.62 15 22 C13.35 21.67 11.7 21.34 10 21 C10.66 19.35 11.32 17.7 12 16 C11.01 15.67 10.02 15.34 9 15 C9 14.34 9 13.68 9 13 C8.34 13 7.68 13 7 13 C7 12.34 7 11.68 7 11 C6.01 11 5.02 11 4 11 C4 10.01 4 9.02 4 8 C2.35 8 0.7 8 -1 8 C-1 7.67 -1 7.34 -1 7 C0.15 6.83 0.15 6.83 6 6 C6 5.34 6 4.68 6 4 C5.61 3.94 5.61 3.94 3.62 3.62 C1 3 1 3 -1 1 C-0.67 0.67 -0.34 0.34 0 0 Z " fill="#BBA76D" transform="translate(716,489)"/>
    </g><g id="obj_01_main_island__road_05__p3" class="obj_01_main_island__road_05" data-label="road_05">
      <path d="M0 0 C3.3 0 6.6 0 10 0 C10 0.33 10 0.66 10 1 C8.02 1.33 6.04 1.66 4 2 C4.57 4.87 4.86 5.86 7 8 C7.16 8.16 7.16 8.16 8 9 C9.32 9 10.64 9 12 9 C12.12 9.32 12.12 9.32 12.7 10.93 C14 13 14 13 16.17 13.76 C17.02 13.88 17.87 14 18.75 14.12 C22.67 14.76 26.26 15.62 30 17 C30 17.33 30 17.66 30 18 C28.88 17.98 27.76 17.95 26.61 17.93 C25.13 17.91 23.66 17.89 22.19 17.88 C21.45 17.86 20.71 17.84 19.95 17.82 C16.09 17.79 14.29 17.81 11 20 C7.74 20.43 4.47 20.32 1.19 20.31 C0.3 20.33 -0.59 20.34 -1.51 20.36 C-6.72 20.37 -10.57 20.05 -15 17 C-15.33 16.01 -15.66 15.02 -16 14 C-15.01 13.34 -14.02 12.68 -13 12 C-13.72 11.86 -14.44 11.71 -15.19 11.56 C-16.94 11.21 -18.69 10.86 -20.44 10.5 C-23.28 9.94 -26.14 9.47 -29 9 C-29 8.34 -29 7.68 -29 7 C-23.24 5.79 -17.96 6.22 -12.11 6.74 C-8.72 7.02 -5.41 7.08 -2 7 C-2 6.01 -2 5.02 -2 4 C-1.01 3.67 -0.02 3.34 1 3 C0.67 2.01 0.34 1.02 0 0 Z " fill="#E0BF90" transform="translate(544,674)"/>
      <path d="M0 0 C0 3.96 0 7.92 0 12 C-0.66 12 -1.32 12 -2 12 C-1.65 12.95 -1.3 13.9 -0.94 14.88 C0 18 0 18 -1 20 C-1.99 20.33 -2.98 20.66 -4 21 C-2.02 21.33 -0.04 21.66 2 22 C2 22.33 2 22.66 2 23 C0.02 23.33 -1.96 23.66 -4 24 C-3.67 25.32 -3.34 26.64 -3 28 C-7.53 30.62 -11.88 30.7 -17 30 C-19.62 28.25 -19.62 28.25 -21 26 C-21 24.68 -21 23.36 -21 22 C-19.35 22 -17.7 22 -16 22 C-17.37 18.84 -17.99 18.01 -21 16 C-21 15.34 -21 14.68 -21 14 C-19.35 14 -17.7 14 -16 14 C-16 13.34 -16 12.68 -16 12 C-17.65 12 -19.3 12 -21 12 C-20.67 11.01 -20.34 10.02 -20 9 C-19.34 9 -18.68 9 -18 9 C-18 9.66 -18 10.32 -18 11 C-14.04 11 -10.08 11 -6 11 C-6 11.99 -6 12.98 -6 14 C-5.34 14.33 -4.68 14.66 -4 15 C-4 13.35 -4 11.7 -4 10 C-4.66 10 -5.32 10 -6 10 C-6.34 6.3 -6.48 4.6 -4.12 1.62 C-2 0 -2 0 0 0 Z " fill="#E9CFAB" transform="translate(628,145)"/>
      <path d="M0 0 C3.3 0 6.6 0 10 0 C10 0.33 10 0.66 10 1 C8.02 1.33 6.04 1.66 4 2 C4.57 4.87 4.86 5.86 7 8 C3.7 8.66 0.4 9.32 -3 10 C-2.34 11.32 -1.68 12.64 -1 14 C-2.18 15.98 -2.18 15.98 -4 18 C-6.48 18.39 -6.48 18.39 -9.19 18.25 C-10.09 18.21 -10.99 18.18 -11.92 18.14 C-12.61 18.09 -13.29 18.05 -14 18 C-14.66 16.68 -15.32 15.36 -16 14 C-15.01 13.34 -14.02 12.68 -13 12 C-13.72 11.86 -14.44 11.71 -15.19 11.56 C-16.94 11.21 -18.69 10.86 -20.44 10.5 C-23.28 9.94 -26.14 9.47 -29 9 C-29 8.34 -29 7.68 -29 7 C-23.24 5.79 -17.96 6.22 -12.11 6.74 C-8.72 7.02 -5.41 7.08 -2 7 C-2 6.01 -2 5.02 -2 4 C-1.01 3.67 -0.02 3.34 1 3 C0.67 2.01 0.34 1.02 0 0 Z " fill="#D4B27A" transform="translate(544,674)"/>
    </g><g id="obj_01_main_island__road_05__p4" class="obj_01_main_island__road_05" data-label="road_05">
      <path d="M0 0 C0.33 0.99 0.66 1.98 1 3 C3.31 3.33 5.62 3.66 8 4 C8 4.66 8 5.32 8 6 C8.95 6.27 9.9 6.54 10.88 6.81 C14 8 14 8 16 11 C16.99 11.33 17.98 11.66 19 12 C19.33 13.65 19.66 15.3 20 17 C20.66 17 21.32 17 22 17 C21.67 18.98 21.34 20.96 21 23 C21.66 23 22.32 23 23 23 C22.67 23.66 22.34 24.32 22 25 C21.01 24.34 20.02 23.68 19 23 C16.62 23.31 16.62 23.31 14 24 C13.57 24.08 13.57 24.08 11.38 24.5 C9 25 9 25 6 26 C6 24.02 6 22.04 6 20 C6.66 20 7.32 20 8 20 C8.33 17.69 8.66 15.38 9 13 C8.39 13.04 8.39 13.04 5.31 13.25 C1.91 13.26 1.03 13.02 -2 11.12 C-4 9 -4 9 -4 7 C-4.66 7 -5.32 7 -6 7 C-6.33 5.68 -6.66 4.36 -7 3 C-5.85 2.83 -5.85 2.83 0 2 C0 1.34 0 0.68 0 0 Z " fill="#C1AC6C" transform="translate(670,259)"/>
      <path d="M0 0 C0 0.66 0 1.32 0 2 C3.3 2.66 6.6 3.32 10 4 C10 5.32 10 6.64 10 8 C13.96 8 17.92 8 22 8 C22 8.33 22 8.66 22 9 C19.69 9.66 17.38 10.32 15 11 C15 12.32 15 13.64 15 15 C11.12 16.19 8.08 17 4 17 C4 16.34 4 15.68 4 15 C5.32 14.67 6.64 14.34 8 14 C5.36 14 2.72 14 0 14 C-0.33 15.32 -0.66 16.64 -1 18 C-1.33 15.69 -1.66 13.38 -2 11 C-0.68 10.01 0.64 9.02 2 8 C-3.45 5.76 -8.13 4.52 -14 4 C-14 3.34 -14 2.68 -14 2 C-8.78 -0.66 -5.92 -1.33 0 0 Z " fill="#C1AE79" transform="translate(421,391)"/>
      <path d="M0 0 C4.29 0 8.58 0 13 0 C13 0.99 13 1.98 13 3 C14.65 3 16.3 3 18 3 C18 4.32 18 5.64 18 7 C17.34 7 16.68 7 16 7 C16 7.66 16 8.32 16 9 C18.31 9.33 20.62 9.66 23 10 C23 10.33 23 10.66 23 11 C21.97 11.1 21.97 11.1 16.85 11.59 C16.24 11.72 15.63 11.86 15 12 C14.67 12.66 14.34 13.32 14 14 C7.38 13.25 7.38 13.25 4 11 C3.01 10.67 2.02 10.34 1 10 C1 9.01 1 8.02 1 7 C0.02 5.98 -0.98 4.98 -2 4 C-2 3.34 -2 2.68 -2 2 C-1.34 2 -0.68 2 0 2 C0 1.34 0 0.68 0 0 Z " fill="#C6B378" transform="translate(571,307)"/>
    </g></svg>