<?xml version="1.0" encoding="UTF-8"?>
<!-- Generator: visioncortex VTracer 0.6.12 -->
<svg version="1.1" xmlns="http://www.w3.org/2000/svg" width="91" height="89">
<path d="M0 0 C0.66 0 1.32 0 2 0 C4.43 3.37 5 4.73 5 9 C5.99 9.33 6.98 9.66 8 10 C8 11.32 8 12.64 8 14 C8.99 14.33 9.98 14.66 11 15 C11 14.01 11 13.02 11 12 C11.99 12 12.98 12 14 12 C14.16 13.16 14.16 13.16 15 19 C15.6 18.98 16.21 18.95 16.83 18.93 C17.23 18.92 17.23 18.92 19.25 18.88 C19.64 18.86 19.64 18.86 21.64 18.8 C24.21 19.02 25.79 19.71 28 21 C28 21.66 28 22.32 28 23 C29.98 23.33 31.96 23.66 34 24 C35 27 35 27 34.11 28.82 C33.89 29.13 33.89 29.13 32.75 30.69 C32.53 31 32.53 31 31.42 32.57 C30.95 33.04 30.48 33.52 30 34 C29.01 34 28.02 34 27 34 C26.92 35.22 26.84 36.43 26.75 37.69 C26.26 41.78 24.9 44 22 47 C20.68 46.67 19.36 46.34 18 46 C17.87 46.29 17.87 46.29 17.23 47.76 C15.26 52.23 13.23 56.65 11 61 C9.35 59.35 7.7 57.7 6 56 C5.93 56.31 5.93 56.31 5.6 57.9 C5.42 58.72 5.24 59.53 5.06 60.38 C4.89 61.19 4.71 62 4.54 62.84 C4 65 4 65 3 67 C1.68 67 0.36 67 -1 67 C-1.16 67.5 -1.16 67.5 -2 70 C-5 69 -5 69 -7 66 C-7.49 65.84 -7.49 65.84 -10 65 C-10.73 63.15 -10.73 63.15 -11.19 60.94 C-11.35 60.2 -11.5 59.47 -11.67 58.71 C-11.72 58.43 -11.72 58.43 -12 57 C-13.32 57.66 -14.64 58.32 -16 59 C-17.6 55.49 -18.22 52.86 -18 49 C-18.66 48.67 -19.32 48.34 -20 48 C-21 51 -21 51 -20.5 53.44 C-19.99 56.07 -20.16 57.49 -21 60 C-24.73 58.76 -25.8 57.19 -28 54 C-28 53.01 -28 52.02 -28 51 C-27.01 50.34 -26.02 49.68 -25 49 C-25.32 48.58 -25.32 48.58 -26.94 46.44 C-28.78 43.75 -29.02 42.77 -29.38 39.31 C-29.58 38.22 -29.79 37.13 -30 36 C-30.99 35.51 -31.98 35.01 -33 34.5 C-33.99 34.01 -34.98 33.51 -36 33 C-36.88 29.31 -36.88 29.31 -37 26 C-32.51 23.18 -28.18 21.15 -23 20 C-22.88 19.2 -22.75 18.39 -22.62 17.56 C-22.42 16.72 -22.21 15.87 -22 15 C-21.34 14.67 -20.68 14.34 -20 14 C-19.28 12.36 -18.61 10.69 -18 9 C-17.34 9 -16.68 9 -16 9 C-14 12 -14 12 -14 15 C-13.26 14.67 -12.52 14.34 -11.75 14 C-9 13 -9 13 -5 13 C-5 11.68 -5 10.36 -5 9 C-4.34 8.34 -3.68 7.68 -3 7 C-3 6.01 -3 5.02 -3 4 C-2.34 3.67 -1.68 3.34 -1 3 C-0.67 2.01 -0.34 1.02 0 0 Z " fill="#817F74" transform="translate(47,10)"/>
<path d="M0 0 C0.66 0 1.32 0 2 0 C4.43 3.37 5 4.73 5 9 C5.99 9.33 6.98 9.66 8 10 C8 11.32 8 12.64 8 14 C8.99 14.33 9.98 14.66 11 15 C11 14.01 11 13.02 11 12 C11.99 12 12.98 12 14 12 C14.16 13.16 14.16 13.16 15 19 C15.6 18.98 16.21 18.95 16.83 18.93 C17.23 18.92 17.23 18.92 19.25 18.88 C19.64 18.86 19.64 18.86 21.64 18.8 C24.21 19.02 25.79 19.71 28 21 C28 21.66 28 22.32 28 23 C29.98 23.33 31.96 23.66 34 24 C35 27 35 27 34.11 28.82 C33.89 29.13 33.89 29.13 32.75 30.69 C32.53 31 32.53 31 31.42 32.57 C30.95 33.04 30.48 33.52 30 34 C29.01 34 28.02 34 27 34 C26.92 35.22 26.84 36.43 26.75 37.69 C26.26 41.78 24.9 44 22 47 C21.01 46.67 20.02 46.34 19 46 C19.66 46 20.32 46 21 46 C21.14 44.95 21.29 43.9 21.44 42.81 C21.88 39.85 22.38 36.93 23 34 C22.67 33.84 22.67 33.84 21 33 C21.16 32.67 21.16 32.67 22 31 C22.99 31 23.98 31 25 31 C25 30.01 25 29.02 25 28 C21.7 27.67 18.4 27.34 15 27 C15 26.01 15 25.02 15 24 C14.34 24 13.68 24 13 24 C13 25.32 13 26.64 13 28 C14.32 28.66 15.64 29.32 17 30 C13.62 30.62 13.62 30.62 10 31 C9.34 30.34 8.68 29.68 8 29 C8.99 28.67 9.98 28.34 11 28 C10.84 27.67 10.84 27.67 10 26 C7.68 25.59 5.34 25.26 3 25 C3 25.99 3 26.98 3 28 C2.34 28 1.68 28 1 28 C1 28.66 1 29.32 1 30 C1.64 30.1 2.28 30.21 2.94 30.31 C3.62 30.54 4.3 30.77 5 31 C5.16 31.49 5.16 31.49 6 34 C0.25 32.13 0.25 32.13 -2 31 C-3.38 30.92 -4.75 30.89 -6.13 30.9 C-6.94 30.91 -7.74 30.91 -8.57 30.91 C-9.42 30.92 -10.26 30.93 -11.12 30.94 C-11.55 30.94 -11.55 30.94 -13.7 30.95 C-15.8 30.96 -17.9 30.98 -20 31 C-20 30.01 -20 29.02 -20 28 C-26.75 28.88 -26.75 28.88 -29 30 C-29.33 29.34 -29.66 28.68 -30 28 C-31.32 28 -32.64 28 -34 28 C-34 29.65 -34 31.3 -34 33 C-34.66 33 -35.32 33 -36 33 C-36.33 30.69 -36.66 28.38 -37 26 C-32.51 23.18 -28.18 21.15 -23 20 C-22.88 19.2 -22.75 18.39 -22.62 17.56 C-22.42 16.72 -22.21 15.87 -22 15 C-21.34 14.67 -20.68 14.34 -20 14 C-19.28 12.36 -18.61 10.69 -18 9 C-17.34 9 -16.68 9 -16 9 C-14 12 -14 12 -14 15 C-13.26 14.67 -12.52 14.34 -11.75 14 C-9 13 -9 13 -5 13 C-5 11.68 -5 10.36 -5 9 C-4.34 8.34 -3.68 7.68 -3 7 C-3 6.01 -3 5.02 -3 4 C-2.34 3.67 -1.68 3.34 -1 3 C-0.67 2.01 -0.34 1.02 0 0 Z " fill="#D2CAB4" transform="translate(47,10)"/>
<path d="M0 0 C3 1 3 1 4.13 2.67 C5.93 6.43 7.48 9.82 8 14 C9.65 14.33 11.3 14.66 13 15 C12.34 12.03 11.68 9.06 11 6 C11.99 6 12.98 6 14 6 C14.66 8.97 15.32 11.94 16 15 C17.32 15.33 18.64 15.66 20 16 C20.33 17.98 20.66 19.96 21 22 C21.99 21.34 22.98 20.68 24 20 C24.66 20.33 25.32 20.66 26 21 C26.33 21.99 26.66 22.98 27 24 C27 20.7 27 17.4 27 14 C27.99 13.67 28.98 13.34 30 13 C30.66 13.33 31.32 13.66 32 14 C32 10.37 32 6.74 32 3 C32.66 3 33.32 3 34 3 C34 4.65 34 6.3 34 8 C34.99 7.01 35.98 6.02 37 5 C37.16 7.31 37.16 7.31 38 19 C38.99 18.67 39.98 18.34 41 18 C41 17.34 41 16.68 41 16 C40.34 16 39.68 16 39 16 C39 15.34 39 14.68 39 14 C39.66 14 40.32 14 41 14 C41 12.68 41 11.36 41 10 C41.66 10 42.32 10 43 10 C43 9.01 43 8.02 43 7 C44.32 6.67 45.64 6.34 47 6 C47.12 7.13 47.25 8.27 47.38 9.44 C47.58 10.61 47.79 11.79 48 13 C48.66 13.33 49.32 13.66 50 14 C49.55 14.72 49.09 15.44 48.62 16.19 C47.14 18.76 46.08 21.23 45 24 C44.02 26.01 43.02 28.01 42 30 C40.35 28.35 38.7 26.7 37 25 C36.87 25.63 36.73 26.25 36.6 26.9 C36.42 27.72 36.24 28.53 36.06 29.38 C35.89 30.19 35.71 31 35.54 31.84 C35 34 35 34 34 36 C32.68 36 31.36 36 30 36 C29.67 36.99 29.34 37.98 29 39 C26 38 26 38 24 35 C23.51 34.84 23.51 34.84 21 34 C20.27 32.15 20.27 32.15 19.81 29.94 C19.73 29.57 19.73 29.57 19.33 27.71 C19.22 27.15 19.11 26.58 19 26 C18.34 26.33 18.34 26.33 15 28 C13.4 24.49 12.78 21.86 13 18 C12.34 17.67 11.68 17.34 11 17 C10 20 10 20 10.5 22.44 C11.01 25.07 10.84 26.49 10 29 C6.27 27.76 5.2 26.19 3 23 C3 22.01 3 21.02 3 20 C3.99 19.34 4.98 18.68 6 18 C5.36 17.15 4.72 16.31 4.06 15.44 C2.24 12.76 1.96 11.67 1.5 8.25 C1.34 7.18 1.17 6.11 1 5 C-1.06 3.56 -1.06 3.56 -3 3 C-2.01 2.67 -1.02 2.34 0 2 C0 1.34 0 0.68 0 0 Z " fill="#979FAC" transform="translate(16,41)"/>
<path d="M0 0 C0.33 0 0.66 0 1 0 C1.33 3.3 1.66 6.6 2 10 C4.65 11.08 7.28 12.09 10 13 C10.33 12.01 10.66 11.02 11 10 C11.66 10 12.32 10 13 10 C13 10.99 13 11.98 13 13 C12.34 13.33 11.68 13.66 11 14 C10.37 16.06 10.37 16.06 10 18 C9.49 18.03 9.49 18.03 6.89 18.18 C5.53 18.27 4.17 18.35 2.81 18.44 C2.14 18.48 1.47 18.52 0.77 18.56 C-6.56 19.02 -6.56 19.02 -10 20 C-10.33 20.66 -10.66 21.32 -11 22 C-11.66 22 -12.32 22 -13 22 C-13 21.34 -13 20.68 -13 20 C-16.3 20 -19.6 20 -23 20 C-23 19.34 -23 18.68 -23 18 C-22.34 18 -21.68 18 -21 18 C-20.34 16.02 -19.68 14.04 -19 12 C-19.99 12 -20.98 12 -22 12 C-22 11.01 -22 10.02 -22 9 C-21.34 8.67 -20.68 8.34 -20 8 C-19.28 6.36 -18.61 4.69 -18 3 C-17.34 3 -16.68 3 -16 3 C-14 6 -14 6 -14 9 C-13.24 8.65 -12.47 8.3 -11.69 7.94 C-9 7 -9 7 -6 8 C-5.01 8 -4.02 8 -3 8 C-3.33 7.01 -3.66 6.02 -4 5 C-3.01 4.34 -2.02 3.68 -1 3 C-0.67 2.01 -0.34 1.02 0 0 Z " fill="#848270" transform="translate(47,16)"/>
<path d="M0 0 C0.66 0 1.32 0 2 0 C2 0.99 2 1.98 2 3 C5.3 3.33 8.6 3.66 12 4 C12 4.99 12 5.98 12 7 C11.01 7 10.02 7 9 7 C9.33 7.66 9.66 8.32 10 9 C11.18 12.55 10.7 13.7 9.56 17.19 C9.42 17.64 9.42 17.64 8.69 19.92 C8.46 20.61 8.24 21.29 8 22 C7.34 22 6.68 22 6 22 C6 21.34 6 20.68 6 20 C5.01 20.33 4.02 20.66 3 21 C3 18.36 3 15.72 3 13 C1.68 13.33 0.36 13.66 -1 14 C-1 14.99 -1 15.98 -1 17 C-1.66 17 -2.32 17 -3 17 C-3 18.32 -3 19.64 -3 21 C-3.66 21 -4.32 21 -5 21 C-5 21.66 -5 22.32 -5 23 C-4.34 23 -3.68 23 -3 23 C-3 23.66 -3 24.32 -3 25 C-3.66 25.33 -3.66 25.33 -7 27 C-7.33 22.38 -7.66 17.76 -8 13 C-8.99 13.99 -9.98 14.98 -11 16 C-10.67 14.02 -10.34 12.04 -10 10 C-10.66 10 -11.32 10 -12 10 C-12 13.63 -12 17.26 -12 21 C-12.99 20.67 -13.98 20.34 -15 20 C-14.34 19.67 -13.68 19.34 -13 19 C-13.33 16.03 -13.66 13.06 -14 10 C-16.31 9.67 -18.62 9.34 -21 9 C-21 8.34 -21 7.68 -21 7 C-20.17 7.16 -20.17 7.16 -16 8 C-15.67 7.34 -15.34 6.68 -15 6 C-12.36 7.32 -9.72 8.64 -7 10 C-9 7 -9 7 -12 6 C-12 5.34 -12 4.68 -12 4 C-11.34 4 -10.68 4 -10 4 C-10 3.01 -10 2.02 -10 1 C-7.69 1 -5.38 1 -3 1 C-2.67 1.99 -2.34 2.98 -2 4 C-2.33 4.16 -2.33 4.16 -4 5 C-1.51 6.25 -0.59 5.78 2 5 C1.34 4.67 0.68 4.34 0 4 C0 2.68 0 1.36 0 0 Z " fill="#918E86" transform="translate(60,34)"/>
<path d="M0 0 C0.12 1.13 0.25 2.27 0.38 3.44 C0.58 4.61 0.79 5.79 1 7 C1.66 7.33 2.32 7.66 3 8 C2.55 8.72 2.09 9.44 1.62 10.19 C0.14 12.76 -0.92 15.23 -2 18 C-2.98 20.01 -3.98 22.01 -5 24 C-6.65 22.35 -8.3 20.7 -10 19 C-10.13 19.63 -10.27 20.25 -10.4 20.9 C-10.58 21.72 -10.76 22.53 -10.94 23.38 C-11.11 24.19 -11.29 25 -11.46 25.84 C-12 28 -12 28 -13 30 C-14.32 30 -15.64 30 -17 30 C-17.33 30.99 -17.66 31.98 -18 33 C-21 32 -21 32 -23 29 C-23.99 28.67 -24.98 28.34 -26 28 C-26.33 25.36 -26.66 22.72 -27 20 C-24.61 20.58 -22.33 21.22 -20 22 C-19.31 24.06 -19.31 24.06 -19 26 C-17.68 26 -16.36 26 -15 26 C-15 25.34 -15 24.68 -15 24 C-15.99 24 -16.98 24 -18 24 C-18 20.7 -18 17.4 -18 14 C-17.34 14.33 -16.68 14.66 -16 15 C-16 15.66 -16 16.32 -16 17 C-15.32 16.48 -14.64 15.97 -13.94 15.44 C-10.2 13.61 -8 14.14 -4 15 C-3.86 14.09 -3.71 13.19 -3.56 12.25 C-3.14 9.79 -2.65 7.41 -2 5 C-2.66 5 -3.32 5 -4 5 C-4 5.66 -4 6.32 -4 7 C-4.66 7 -5.32 7 -6 7 C-6 6.01 -6 5.02 -6 4 C-5.34 4 -4.68 4 -4 4 C-4 3.01 -4 2.02 -4 1 C-2 0 -2 0 0 0 Z " fill="#CDCED3" transform="translate(63,47)"/>
<path d="M0 0 C3 1 3 1 4.13 2.67 C5.93 6.43 7.48 9.82 8 14 C9.65 14.33 11.3 14.66 13 15 C12.34 12.03 11.68 9.06 11 6 C11.99 6 12.98 6 14 6 C14.66 8.97 15.32 11.94 16 15 C17.32 15.33 18.64 15.66 20 16 C19.67 17.98 19.34 19.96 19 22 C18.01 21.67 17.02 21.34 16 21 C16 21.66 16 22.32 16 23 C17.32 23.33 18.64 23.66 20 24 C18.74 26.51 17.5 26.87 15 28 C13.4 24.49 12.78 21.86 13 18 C12.34 17.67 11.68 17.34 11 17 C10 20 10 20 10.5 22.44 C11.01 25.07 10.84 26.49 10 29 C6.27 27.76 5.2 26.19 3 23 C3 22.01 3 21.02 3 20 C3.99 19.34 4.98 18.68 6 18 C5.36 17.15 4.72 16.31 4.06 15.44 C2.24 12.76 1.96 11.67 1.5 8.25 C1.34 7.18 1.17 6.11 1 5 C-1.06 3.56 -1.06 3.56 -3 3 C-2.01 2.67 -1.02 2.34 0 2 C0 1.34 0 0.68 0 0 Z " fill="#BDC2C7" transform="translate(16,41)"/>
<path d="M0 0 C0.33 0.66 0.66 1.32 1 2 C0.06 4.12 0.06 4.12 -1 6 C-1.66 6 -2.32 6 -3 6 C-3 6.66 -3 7.32 -3 8 C0.3 8 3.6 8 7 8 C7 8.66 7 9.32 7 10 C7.66 10 8.32 10 9 10 C9.33 9.01 9.66 8.02 10 7 C11.98 6.67 13.96 6.34 16 6 C16 7.32 16 8.64 16 10 C15.34 10 14.68 10 14 10 C14 10.66 14 11.32 14 12 C9.24 12.95 4.83 13.08 0 13 C0 12.01 0 11.02 0 10 C-6.75 10.88 -6.75 10.88 -9 12 C-9.33 11.34 -9.66 10.68 -10 10 C-11.32 10 -12.64 10 -14 10 C-14 11.65 -14 13.3 -14 15 C-14.66 15 -15.32 15 -16 15 C-16.33 12.69 -16.66 10.38 -17 8 C-13.11 5.56 -9.37 3.56 -4.88 2.5 C-3 2 -3 2 0 0 Z " fill="#B5B29B" transform="translate(27,28)"/>
<path d="M0 0 C0.66 0 1.32 0 2 0 C2 0.99 2 1.98 2 3 C5.3 3.33 8.6 3.66 12 4 C12 4.99 12 5.98 12 7 C11.01 7 10.02 7 9 7 C9.33 7.66 9.66 8.32 10 9 C11.18 12.55 10.7 13.7 9.56 17.19 C9.28 18.09 8.99 18.99 8.69 19.92 C8.46 20.61 8.24 21.29 8 22 C7.34 22 6.68 22 6 22 C6 21.34 6 20.68 6 20 C5.01 20.33 4.02 20.66 3 21 C2.67 18.36 2.34 15.72 2 13 C1.01 12.67 0.02 12.34 -1 12 C-1.33 10.02 -1.66 8.04 -2 6 C-0.68 5.67 0.64 5.34 2 5 C1.34 4.67 0.68 4.34 0 4 C0 2.68 0 1.36 0 0 Z " fill="#B1A99F" transform="translate(60,34)"/>
<path d="M0 0 C2 1.81 2 1.81 4 4 C4 4.99 4 5.98 4 7 C4.66 7.33 5.32 7.66 6 8 C4.68 8.33 3.36 8.66 2 9 C2 9.66 2 10.32 2 11 C4.31 11 6.62 11 9 11 C9 10.34 9 9.68 9 9 C13 8.04 16.71 7.9 20.81 7.94 C21.97 7.95 23.14 7.96 24.33 7.96 C25.21 7.98 26.09 7.99 27 8 C27.16 8.66 27.16 8.66 28 12 C27.49 12.03 27.49 12.03 24.89 12.18 C23.53 12.27 22.17 12.35 20.81 12.44 C20.14 12.48 19.47 12.52 18.77 12.56 C11.44 13.02 11.44 13.02 8 14 C7.67 14.66 7.34 15.32 7 16 C6.34 16 5.68 16 5 16 C5 15.34 5 14.68 5 14 C1.7 14 -1.6 14 -5 14 C-5 13.34 -5 12.68 -5 12 C-4.34 12 -3.68 12 -3 12 C-1.88 6.25 -1.88 6.25 -3 4 C-2.01 4 -1.02 4 0 4 C0 2.68 0 1.36 0 0 Z " fill="#7E7D71" transform="translate(29,22)"/>
<path d="M0 0 C2.97 0 5.94 0 9 0 C9 0.66 9 1.32 9 2 C7.35 1.67 5.7 1.34 4 1 C4 1.66 4 2.32 4 3 C4.57 2.99 4.57 2.99 7.44 2.94 C11 3 11 3 12 4 C12.07 5.52 12.08 7.04 12.06 8.56 C12.05 9.39 12.04 10.22 12.04 11.07 C12.02 11.7 12.01 12.34 12 13 C10.68 13.33 9.36 13.66 8 14 C7.67 13.34 7.34 12.68 7 12 C6.67 12.16 6.67 12.16 5 13 C4.67 11.68 4.34 10.36 4 9 C4.66 9 5.32 9 6 9 C6.33 7.68 6.66 6.36 7 5 C6.55 5.42 6.55 5.42 4.25 7.56 C1.33 10.03 1.33 10.03 -1.38 9.81 C-1.91 9.54 -2.45 9.28 -3 9 C-3 8.01 -3 7.02 -3 6 C-2.34 6 -1.68 6 -1 6 C-0.67 4.02 -0.34 2.04 0 0 Z " fill="#777670" transform="translate(35,40)"/>
<path d="M0 0 C0.66 0 1.32 0 2 0 C2 1.65 2 3.3 2 5 C2.99 4.01 3.98 3.02 5 2 C5.33 6.62 5.66 11.24 6 16 C6.99 15.67 7.98 15.34 9 15 C9 14.34 9 13.68 9 13 C8.34 13 7.68 13 7 13 C7 12.34 7 11.68 7 11 C8.32 10.67 9.64 10.34 11 10 C11 9.34 11 8.68 11 8 C11.66 8 12.32 8 13 8 C12.46 11.39 11.83 14.66 11 18 C8.03 18 5.06 18 2 18 C2.33 15.69 2.66 13.38 3 11 C2.4 11.49 1.8 11.99 1.19 12.5 C-1 14 -1 14 -4 14 C-4.33 14.66 -4.66 15.32 -5 16 C-5 14.35 -5 12.7 -5 11 C-4.01 10.67 -3.02 10.34 -2 10 C-1.34 10.33 -0.68 10.66 0 11 C0 7.37 0 3.74 0 0 Z " fill="#BCB6B0" transform="translate(48,44)"/>
<path d="M0 0 C0.66 0 1.32 0 2 0 C1.67 1.32 1.34 2.64 1 4 C0.34 4 -0.32 4 -1 4 C1 6 1 6 3 7 C3 7.66 3 8.32 3 9 C3.66 9.33 4.32 9.66 5 10 C4.34 10 3.68 10 3 10 C3.33 13.63 3.66 17.26 4 21 C3.34 20.67 2.68 20.34 2 20 C2 19.01 2 18.02 2 17 C-0.17 17.51 -2 18 -4 19 C-4 16.69 -4 14.38 -4 12 C-5.65 11.67 -7.3 11.34 -9 11 C-6.38 9.25 -4.96 8.61 -2 8 C-2.11 7.71 -2.11 7.71 -2.69 6.25 C-3 4 -3 4 -1.69 1.75 C-1.13 1.17 -0.57 0.59 0 0 Z " fill="#8C8D8E" transform="translate(40,45)"/>
<path d="M0 0 C0.66 0 1.32 0 2 0 C4 3 4 3 4 6 C4.76 5.63 5.53 5.26 6.31 4.88 C7.2 4.59 8.09 4.3 9 4 C9.99 4.66 10.98 5.32 12 6 C12 6.99 12 7.98 12 9 C13.32 9.66 14.64 10.32 16 11 C11.25 12 11.25 12 9 12 C9 12.66 9 13.32 9 14 C4.25 15.12 4.25 15.12 2 14 C2 13.34 2 12.68 2 12 C2.99 11.67 3.98 11.34 5 11 C4.53 10.57 4.05 10.13 3.56 9.69 C2 8 2 8 1 5 C0.77 5.33 0.77 5.33 -0.38 7 C-0.91 7.66 -1.45 8.32 -2 9 C-2.66 9 -3.32 9 -4 9 C-4 8.01 -4 7.02 -4 6 C-3.34 5.67 -2.68 5.34 -2 5 C-1.28 3.36 -0.61 1.69 0 0 Z " fill="#BEB8A1" transform="translate(29,19)"/>
<path d="M0 0 C0.12 1.13 0.25 2.27 0.38 3.44 C0.58 4.61 0.79 5.79 1 7 C1.66 7.33 2.32 7.66 3 8 C2.55 8.72 2.09 9.44 1.62 10.19 C0.14 12.76 -0.92 15.23 -2 18 C-2.98 20.01 -3.98 22.01 -5 24 C-8 20.25 -8 20.25 -8 18 C-8.66 18 -9.32 18 -10 18 C-10 17.01 -10 16.02 -10 15 C-8.02 15 -6.04 15 -4 15 C-3.86 14.09 -3.71 13.19 -3.56 12.25 C-3.14 9.79 -2.65 7.41 -2 5 C-2.66 5 -3.32 5 -4 5 C-4 5.66 -4 6.32 -4 7 C-4.66 7 -5.32 7 -6 7 C-6 6.01 -6 5.02 -6 4 C-5.34 4 -4.68 4 -4 4 C-4 3.01 -4 2.02 -4 1 C-2 0 -2 0 0 0 Z " fill="#D5D0C8" transform="translate(63,47)"/>
<path d="M0 0 C0.66 0 1.32 0 2 0 C4.43 3.37 5 4.73 5 9 C5.99 9.33 6.98 9.66 8 10 C8 10.66 8 11.32 8 12 C7.01 12 6.02 12 5 12 C5.33 13.65 5.66 15.3 6 17 C4.68 16.67 3.36 16.34 2 16 C1.34 13.69 0.68 11.38 0 9 C-0.43 9.49 -0.87 9.99 -1.31 10.5 C-3 12 -3 12 -6 12 C-5.69 11.42 -5.38 10.84 -5.06 10.25 C-4 8 -4 8 -3.5 5.81 C-3.42 5.51 -3.42 5.51 -3 4 C-2.34 3.67 -1.68 3.34 -1 3 C-0.67 2.01 -0.34 1.02 0 0 Z " fill="#B3AD94" transform="translate(47,10)"/>
<path d="M0 0 C1.53 0.09 3.05 0.25 4.56 0.44 C4.98 0.49 4.98 0.49 7.07 0.75 C7.7 0.83 8.34 0.91 9 1 C8.67 2.65 8.34 4.3 8 6 C7.34 6 6.68 6 6 6 C6 6.99 6 7.98 6 9 C7.65 9 9.3 9 11 9 C11.33 10.32 11.66 11.64 12 13 C11.01 13.33 10.02 13.66 9 14 C8.67 14.66 8.34 15.32 8 16 C7.01 15.67 6.02 15.34 5 15 C3.65 12.29 3.93 9.99 4 7 C2.68 6.67 1.36 6.34 0 6 C-0.38 4.34 -0.71 2.68 -1 1 C-0.67 0.67 -0.34 0.34 0 0 Z " fill="#8C8576" transform="translate(26,40)"/>
<path d="M0 0 C1.32 0 2.64 0 4 0 C4 0.66 4 1.32 4 2 C4.99 2.16 4.99 2.16 10 3 C10.33 3.99 10.66 4.98 11 6 C9.75 8.19 9.75 8.19 8 10 C7.01 10 6.02 10 5 10 C5 10.66 5 11.32 5 12 C4.34 12 3.68 12 3 12 C2.98 11.24 2.96 10.47 2.94 9.69 C2 7 2 7 -1.56 5.19 C-2.7 4.8 -3.83 4.4 -5 4 C-5 3.34 -5 2.68 -5 2 C-3.35 2 -1.7 2 0 2 C0 1.34 0 0.68 0 0 Z " fill="#B1AC9C" transform="translate(71,31)"/>
<path d="M0 0 C0.66 0 1.32 0 2 0 C2 0.99 2 1.98 2 3 C5.3 3.33 8.6 3.66 12 4 C12 4.99 12 5.98 12 7 C11.01 7 10.02 7 9 7 C9.33 7.66 9.66 8.32 10 9 C10.33 9.99 10.66 10.98 11 12 C6.25 15 6.25 15 4 15 C4.33 11.7 4.66 8.4 5 5 C3.35 4.67 1.7 4.34 0 4 C0 2.68 0 1.36 0 0 Z " fill="#969080" transform="translate(60,34)"/>
<path d="M0 0 C0.33 1.32 0.66 2.64 1 4 C0.34 4 -0.32 4 -1 4 C-1 4.66 -1 5.32 -1 6 C-5.76 6.95 -10.17 7.08 -15 7 C-15 6.01 -15 5.02 -15 4 C-15.66 4 -16.32 4 -17 4 C-17 3.34 -17 2.68 -17 2 C-14.03 2 -11.06 2 -8 2 C-8 2.66 -8 3.32 -8 4 C-7.34 4 -6.68 4 -6 4 C-5.67 3.01 -5.34 2.02 -5 1 C-3.35 0.67 -1.7 0.34 0 0 Z " fill="#C7B693" transform="translate(42,34)"/>
<path d="M0 0 C2.97 1.32 5.94 2.64 9 4 C9.33 3.34 9.66 2.68 10 2 C10 7.28 10 12.56 10 18 C9.67 18 9.34 18 9 18 C8.67 14.37 8.34 10.74 8 7 C7.01 7.99 6.02 8.98 5 10 C5.33 8.02 5.66 6.04 6 4 C5.34 4 4.68 4 4 4 C4 7.63 4 11.26 4 15 C3.01 14.67 2.02 14.34 1 14 C1.66 13.67 2.32 13.34 3 13 C2.67 10.03 2.34 7.06 2 4 C-0.31 3.67 -2.62 3.34 -5 3 C-5 2.34 -5 1.68 -5 1 C-4.17 1.16 -4.17 1.16 0 2 C0 1.34 0 0.68 0 0 Z " fill="#A39B8E" transform="translate(44,40)"/>
<path d="M0 0 C0.99 0.33 1.98 0.66 3 1 C2.25 7.62 2.25 7.62 0 11 C-0.66 11 -1.32 11 -2 11 C-2.33 8.03 -2.66 5.06 -3 2 C-2.01 1.34 -1.02 0.68 0 0 Z " fill="#D3D1CC" transform="translate(68,58)"/>
</svg>
