<?xml version="1.0" encoding="UTF-8"?>
<!-- Generator: visioncortex VTracer 0.6.12 -->
<svg version="1.1" xmlns="http://www.w3.org/2000/svg" width="164" height="182">
<path d="M0 0 C0.99 0 1.98 0 3 0 C3.16 1.32 3.16 1.32 4 8 C5.32 8.33 6.64 8.66 8 9 C7.34 10.32 6.68 11.64 6 13 C8.14 15.14 9.13 15.43 12 16 C11.83 16.78 11.67 17.57 11.5 18.38 C11 21 11 21 11 23 C11.66 23.16 11.66 23.16 15 24 C15 27 15 27 13 30 C14.65 30.99 16.3 31.98 18 33 C17 35.99 16.25 36.95 14 39 C14.66 39.16 14.66 39.16 18 40 C18 39.01 18 38.02 18 37 C19 36 20 35 21 34 C22.19 31.31 22.19 31.31 23 29 C23.66 29 24.32 29 25 29 C25.99 31.31 26.98 33.62 28 36 C28.39 35.53 28.78 35.05 29.19 34.56 C31 33 31 33 36 32 C38.31 34.97 40.62 37.94 43 41 C42.34 42.32 41.68 43.64 41 45 C40.01 45.33 39.02 45.66 38 46 C41 48 41 48 44.5 48.38 C48 49 48 49 49.69 50.88 C50.12 51.58 50.55 52.28 51 53 C52.96 54.6 54.74 55.87 57 57 C56.91 58.4 56.8 59.79 56.69 61.19 C56.63 61.96 56.57 62.74 56.51 63.54 C56 66 56 66 54.51 68.41 C52.73 71.47 52.51 73.74 52.19 77.25 C51.34 83.77 49.14 87.97 45 93 C44.01 92.01 43.02 91.02 42 90 C41.93 90.58 41.86 91.16 41.79 91.75 C38.44 118.83 38.44 118.83 31 128 C30.34 128 29.68 128 29 128 C28.67 126.68 28.67 126.68 27 120 C24.03 124.02 22.48 127 22 132 C22.66 131.34 23.32 130.68 24 130 C26 130 28 130 30 130 C32.37 129 32.37 129 34 128 C34.99 129.65 35.98 131.3 37 133 C36.01 133.66 35.02 134.32 34 135 C32.22 137.66 31.01 139.96 30 143 C29.18 142.93 28.36 142.86 27.52 142.79 C24.25 142.63 21.24 142.57 18 143 C15.44 145.87 15.44 145.87 14 149 C13.01 149.66 12.02 150.32 11 151 C10.5 150.67 10.5 150.67 8 149 C8 148.34 8 147.68 8 147 C7.01 146.67 6.02 146.34 5 146 C3.68 148.64 2.36 151.28 1 154 C1.66 154.99 2.32 155.98 3 157 C1.94 158.5 1.94 158.5 0 160 C-2.33 160 -4.67 160 -7 160 C-7.52 160.52 -8.03 161.03 -8.56 161.56 C-9.04 162.04 -9.51 162.51 -10 163 C-13.65 162.78 -15.38 162.62 -18 160 C-19.99 159.31 -21.99 158.64 -24 158 C-24.33 157.67 -24.66 157.34 -25 157 C-25.33 157.66 -25.66 158.32 -26 159 C-27.88 158.75 -27.88 158.75 -30 158 C-31.25 155.94 -31.25 155.94 -32 154 C-29 152 -29 152 -26 152 C-26.33 151.67 -26.33 151.67 -28 150 C-28.61 150.16 -29.23 150.33 -29.86 150.5 C-32.67 151.16 -33.75 150.44 -36.25 149.06 C-36.96 148.68 -37.66 148.3 -38.39 147.91 C-38.66 147.76 -38.66 147.76 -40 147 C-40 147.99 -40 148.98 -40 150 C-43.72 149.49 -46.73 148.88 -50 147 C-49.34 146.67 -48.68 146.34 -48 146 C-47.88 143.12 -47.88 143.12 -48 140 C-48.33 139.67 -48.33 139.67 -50 138 C-51.34 138.32 -52.67 138.65 -54 139 C-56.25 138.62 -56.25 138.62 -58.56 138 C-61.8 137.13 -62.71 136.9 -66 138 C-68.37 137.08 -70.7 136.08 -73 135 C-72.67 136.32 -72.34 137.64 -72 139 C-74.31 139.25 -74.31 139.25 -77 139 C-78.81 137 -78.81 137 -80 135 C-79.34 134.01 -78.68 133.02 -78 132 C-76.68 132 -75.36 132 -74 132 C-73.84 131.34 -73.84 131.34 -73 128 C-75.31 126.44 -75.31 126.44 -78 125 C-78.5 125.16 -78.5 125.16 -81 126 C-81.66 125.34 -82.32 124.68 -83 124 C-83.68 123.86 -84.36 123.71 -85.06 123.56 C-85.38 123.47 -85.38 123.47 -87 123 C-87.33 122.01 -87.66 121.02 -88 120 C-87.4 119.9 -86.8 119.79 -86.19 119.69 C-83.61 118.88 -82.66 118.12 -81 116 C-80.67 115.15 -80.34 114.31 -80 113.44 C-79 111 -79 111 -76 109 C-72.31 109.38 -72.31 109.38 -69 110 C-69.45 107.39 -69.91 104.79 -70.38 102.19 C-70.5 101.45 -70.63 100.71 -70.76 99.95 C-71.4 96.39 -71.97 94.05 -74 91 C-74.99 91 -75.98 91 -77 91 C-81.39 86.96 -81.67 80.23 -82.5 74.62 C-83 72 -83 72 -85 69 C-85.57 63.89 -85.57 63.89 -85 61 C-81.85 57.48 -78.46 56.32 -74 55 C-73.84 54.84 -73.84 54.84 -73 54 C-70.67 53.96 -68.33 53.96 -66 54 C-66.66 53.67 -67.32 53.34 -68 53 C-68 52.01 -68 51.02 -68 50 C-67.4 49.79 -66.8 49.59 -66.19 49.38 C-63.19 47.49 -62.39 45.19 -61 42 C-60.34 42 -59.68 42 -59 42 C-58.34 43.32 -57.68 44.64 -57 46 C-56.01 46 -55.02 46 -54 46 C-54 45.34 -54 44.68 -54 44 C-52 42.38 -52 42.38 -50 41 C-50.99 40.34 -51.98 39.68 -53 39 C-52.75 37.13 -52.75 37.13 -52 35 C-49.94 33.75 -49.94 33.75 -48 33 C-48.99 32.34 -49.98 31.68 -51 31 C-50.34 29.68 -49.68 28.36 -49 27 C-48.34 27 -47.68 27 -47 27 C-46.94 26.7 -46.94 26.7 -46.62 25.19 C-46 23 -46 23 -44 20 C-43.69 20.48 -43.69 20.48 -42.12 22.94 C-40 26 -40 26 -38 27 C-38 28.32 -38 29.64 -38 31 C-37.01 31.66 -36.02 32.32 -35 33 C-35 34.32 -35 35.64 -35 37 C-34.67 37.99 -34.34 38.98 -34 40 C-33.34 39.84 -33.34 39.84 -30 39 C-30.99 38.34 -31.98 37.68 -33 37 C-33.69 34.38 -33.69 34.38 -34 32 C-31.69 31.34 -29.38 30.68 -27 30 C-27.99 28.35 -28.98 26.7 -30 25 C-29.17 24.51 -29.17 24.51 -25 22 C-25.16 21.34 -25.16 21.34 -26 18 C-25.01 17.67 -24.02 17.34 -23 17 C-22.27 15.15 -22.27 15.15 -21.81 12.94 C-21.65 12.2 -21.5 11.47 -21.33 10.71 C-21.22 10.15 -21.11 9.58 -21 9 C-20.34 9 -19.68 9 -19 9 C-14.59 18.41 -14.59 18.41 -14 23 C-13.5 23.16 -13.5 23.16 -11 24 C-11 24.99 -11 25.98 -11 27 C-11.16 27.16 -11.16 27.16 -12 28 C-11.01 27.34 -10.02 26.68 -9 26 C-9.59 22.98 -10.23 19.98 -11 17 C-9.02 16.01 -7.04 15.02 -5 14 C-5 13.34 -5 12.68 -5 12 C-5 10.68 -5 9.36 -5 8 C-4.01 7.34 -3.02 6.68 -2 6 C-0.81 2.87 -0.81 2.87 0 0 Z M-58 109 C-57 111 -57 111 -57 111 Z M-42 121 C-42.33 123.31 -42.66 125.62 -43 128 C-41.52 127.83 -41.52 127.83 -34 127 C-33.67 128.32 -33.34 129.64 -33 131 C-33 129.35 -33 127.7 -33 126 C-33.38 125.87 -33.38 125.87 -35.31 125.19 C-37.89 124.05 -39.14 123.04 -41 121 C-41.33 121 -41.66 121 -42 121 Z M-36 134 C-36.66 135.65 -37.32 137.3 -38 139 C-34.89 139 -33.65 138.46 -31 137 C-31.33 136.01 -31.66 135.02 -32 134 C-33.32 134 -34.64 134 -36 134 Z M20 134 C21 136 21 136 21 136 Z M-22 143 C-21 145 -21 145 -21 145 Z " fill="#BFAB75" transform="translate(98,10)"/>
<path d="M0 0 C0.99 0 1.98 0 3 0 C3.33 0.99 3.66 1.98 4 3 C4.66 2.67 5.32 2.34 6 2 C8 1.96 10 1.96 12 2 C12 2.99 12 3.98 12 5 C12.99 5 13.98 5 15 5 C15 5.66 15 6.32 15 7 C15.82 7.17 15.82 7.17 20 8 C22 13.62 22 13.62 22 17 C22.66 17 23.32 17 24 17 C24 15.02 24 13.04 24 11 C23.34 10.67 22.68 10.34 22 10 C24 8 24 8 27.62 7.88 C28.18 7.9 28.18 7.9 31 8 C31 7.34 31 6.68 31 6 C31.6 5.92 32.2 5.83 32.81 5.75 C35.6 4.8 36.43 3.43 38 1 C39.87 1.31 39.87 1.31 42 2 C42.66 2.99 43.32 3.98 44 5 C46.12 5.69 46.12 5.69 48 6 C48 5.34 48 4.68 48 4 C48.99 4.33 49.98 4.66 51 5 C51 5.66 51 6.32 51 7 C47.77 9.15 46.72 9.2 43 9 C43 9.66 43 10.32 43 11 C43.66 10.67 44.32 10.34 45 10 C46.54 9.93 48.08 9.92 49.62 9.94 C50.03 9.94 50.03 9.94 52.1 9.96 C52.41 9.97 52.41 9.97 54 10 C54 10.66 54 11.32 54 12 C53.01 12 52.02 12 51 12 C51 12.66 51 13.32 51 14 C52.48 14.33 52.48 14.33 60 16 C60 17.98 60 19.96 60 22 C60.8 21.2 61.61 20.39 62.44 19.56 C66 16 66 16 68.56 15.94 C69.37 15.96 70.17 15.98 71 16 C71 15.01 71 14.02 71 13 C74.34 12.93 76.8 12.93 80 14 C80.99 13.34 81.98 12.68 83 12 C78.2 9.76 73.17 8.94 68 8 C68 7.34 68 6.68 68 6 C73.08 5.83 76.29 6.02 81 8 C84.43 8.22 87.35 7.94 90.75 7.38 C91.29 7.31 91.29 7.31 94 7 C94.33 7.33 94.33 7.33 96 9 C95.34 9 94.68 9 94 9 C94 9.66 94 10.32 94 11 C92.68 10.67 91.36 10.34 90 10 C90 10.66 90 11.32 90 12 C90.56 11.99 90.56 11.99 93.38 11.94 C97 12 97 12 99 13 C99.07 16.9 99.07 20.51 98.5 24.38 C97.87 28.94 97.92 33.4 98 38 C98.33 35.36 98.66 32.72 99 30 C99.99 30 100.98 30 102 30 C102.05 31.58 102.09 33.17 102.12 34.75 C102.15 35.63 102.17 36.51 102.2 37.42 C101.99 40.16 101.32 41.63 100 44 C99.3 46.32 98.63 48.66 98 51 C95.03 51.66 92.06 52.32 89 53 C88.67 48.71 88.34 44.42 88 40 C86.02 40 84.04 40 82 40 C81.37 44.04 80.88 47.91 81 52 C80.34 52 79.68 52 79 52 C78.94 51 78.88 50 78.82 48.97 C78.73 47.68 78.65 46.39 78.56 45.06 C78.48 43.77 78.4 42.49 78.32 41.16 C78 38 78 38 77 37 C76.96 35 76.96 33 77 31 C76.34 31 75.68 31 75 31 C75.33 32.11 75.66 33.23 76 34.38 C77.37 39.83 77.84 45.74 76.43 51.23 C76.29 51.82 76.14 52.4 76 53 C76.33 53.33 76.66 53.66 77 54 C77.07 56.7 77.09 59.37 77.06 62.06 C77.06 62.82 77.05 63.58 77.05 64.36 C77.04 66.24 77.02 68.12 77 70 C77.66 70 78.32 70 79 70 C79.14 68.72 79.29 67.44 79.44 66.12 C79.71 63.74 79.92 62.16 81 60 C81.99 60 82.98 60 84 60 C85.67 63.53 86.28 65.31 85 69 C84.03 70.78 83 72.53 81.94 74.25 C81.39 75.14 80.84 76.03 80.28 76.95 C79.86 77.63 79.43 78.3 79 79 C76.69 78.34 74.38 77.68 72 77 C72 75.35 72 73.7 72 72 C71.01 72 70.02 72 69 72 C69 73.65 69 75.3 69 77 C65.87 78.04 65.01 77.93 62 77 C62.33 77.99 62.66 78.98 63 80 C62.5 79.84 62.5 79.84 60 79 C60.33 76.69 60.66 74.38 61 72 C59.68 72 58.36 72 57 72 C54 65.38 54 65.38 54 62 C54.66 62 55.32 62 56 62 C56 62.66 56 63.32 56 64 C57.32 64.33 58.64 64.66 60 65 C60.33 63.35 60.66 61.7 61 60 C60.34 60 59.68 60 59 60 C58.67 60.99 58.34 61.98 58 63 C57.01 60.69 56.02 58.38 55 56 C54.34 56.66 53.68 57.32 53 58 C52.34 57.34 51.68 56.68 51 56 C49.68 56 48.36 56 47 56 C46.96 55.38 46.92 54.76 46.88 54.12 C46.59 53.42 46.3 52.72 46 52 C42.94 50.75 42.94 50.75 40 50 C40 51.65 40 53.3 40 55 C38 55 38 55 36.38 53.5 C35.92 53 35.47 52.51 35 52 C34.67 53.65 34.34 55.3 34 57 C33.34 57 32.68 57 32 57 C32 53.7 32 50.4 32 47 C32.66 47.99 33.32 48.98 34 50 C36.44 49.19 36.44 49.19 39 48 C39.33 47.01 39.66 46.02 40 45 C39.34 45.16 39.34 45.16 36 46 C36 45.34 36 44.68 36 44 C34.68 43.67 33.36 43.34 32 43 C32 43.99 32 44.98 32 46 C30.52 45.72 29.04 45.42 27.56 45.12 C26.74 44.96 25.92 44.8 25.07 44.63 C24.38 44.42 23.7 44.22 23 44 C22.67 43.34 22.34 42.68 22 42 C21.34 42.99 20.68 43.98 20 45 C19.34 45 18.68 45 18 45 C15.26 42.05 15 41.23 15 37 C14.01 37 13.02 37 12 37 C12 35.02 12 33.04 12 31 C11.34 31 10.68 31 10 31 C9.34 30.01 8.68 29.02 8 28 C7.01 28 6.02 28 5 28 C0.13 23.52 -0.02 15.18 -1 9 C-1.33 7.33 -1.66 5.66 -2 4 C-1.34 4 -0.68 4 0 4 C0 2.68 0 1.36 0 0 Z " fill="#6D6754" transform="translate(16,73)"/>
<path d="M0 0 C2.2 4.4 0.17 10.44 -1 15 C-2.69 18.28 -4.66 21.15 -7 24 C-7.99 23.01 -8.98 22.02 -10 21 C-10.07 21.58 -10.14 22.16 -10.21 22.75 C-13.56 49.83 -13.56 49.83 -21 59 C-21.66 59 -22.32 59 -23 59 C-23.33 57.68 -23.33 57.68 -25 51 C-27.97 55.02 -29.52 58 -30 63 C-29.67 62.67 -29.67 62.67 -28 61 C-26 61 -24 61 -22 61 C-19.62 60 -19.62 60 -18 59 C-17.01 60.65 -16.02 62.3 -15 64 C-15.99 64.66 -16.98 65.32 -18 66 C-19.78 68.66 -20.99 70.96 -22 74 C-22.82 73.93 -23.64 73.86 -24.48 73.79 C-27.75 73.63 -30.76 73.57 -34 74 C-36.56 76.88 -36.56 76.88 -38 80 C-38.99 80.66 -39.98 81.32 -41 82 C-41.5 81.67 -41.5 81.67 -44 80 C-44 79.34 -44 78.68 -44 78 C-44.5 77.84 -44.5 77.84 -47 77 C-48.32 79.64 -49.64 82.28 -51 85 C-50.67 85.5 -50.67 85.5 -49 88 C-50.06 89.5 -50.06 89.5 -52 91 C-54.33 91 -56.67 91 -59 91 C-59.52 91.52 -60.03 92.03 -60.56 92.56 C-61.04 93.04 -61.51 93.51 -62 94 C-65.65 93.78 -67.38 93.62 -70 91 C-71.99 90.31 -73.99 89.64 -76 89 C-76.33 88.67 -76.66 88.34 -77 88 C-77.33 88.66 -77.66 89.32 -78 90 C-79.88 89.75 -79.88 89.75 -82 89 C-83.25 86.94 -83.25 86.94 -84 85 C-81 83 -81 83 -78 83 C-78.33 82.67 -78.33 82.67 -80 81 C-80.31 81.08 -80.31 81.08 -81.86 81.5 C-84.67 82.16 -85.75 81.44 -88.25 80.06 C-88.96 79.68 -89.66 79.3 -90.39 78.91 C-90.66 78.76 -90.66 78.76 -92 78 C-92 78.99 -92 79.98 -92 81 C-95.72 80.49 -98.73 79.88 -102 78 C-101.34 77.67 -100.68 77.34 -100 77 C-99.88 74.12 -99.88 74.12 -100 71 C-100.33 70.67 -100.33 70.67 -102 69 C-103.34 69.32 -104.67 69.65 -106 70 C-108.25 69.62 -108.25 69.62 -110.56 69 C-113.8 68.13 -114.71 67.9 -118 69 C-120.37 68.08 -122.7 67.08 -125 66 C-124.67 67.32 -124.34 68.64 -124 70 C-126.31 70.25 -126.31 70.25 -129 70 C-130.81 68 -130.81 68 -132 66 C-131.34 65.01 -130.68 64.02 -130 63 C-128.68 63 -127.36 63 -126 63 C-125.67 61.68 -125.34 60.36 -125 59 C-127.31 57.44 -127.31 57.44 -130 56 C-130.5 56.16 -130.5 56.16 -133 57 C-133.66 56.34 -134.32 55.68 -135 55 C-135.68 54.86 -136.36 54.71 -137.06 54.56 C-137.38 54.47 -137.38 54.47 -139 54 C-139.16 53.5 -139.16 53.5 -140 51 C-139.7 50.95 -139.7 50.95 -138.19 50.69 C-135.61 49.88 -134.66 49.12 -133 47 C-132.67 46.15 -132.34 45.31 -132 44.44 C-131 42 -131 42 -128 40 C-124.31 40.38 -124.31 40.38 -121 41 C-121.14 40.43 -121.29 39.86 -121.44 39.28 C-122.62 34.38 -123.21 30.04 -123 25 C-122.67 25 -122.34 25 -122 25 C-122 26.98 -122 28.96 -122 31 C-121.01 31 -120.02 31 -119 31 C-117.92 33.65 -116.91 36.28 -116 39 C-114 38 -114 38 -112 35 C-111.67 35.99 -111.34 36.98 -111 38 C-110.07 37.96 -109.14 37.92 -108.19 37.88 C-105 38 -105 38 -102 40 C-102 39.01 -102 38.02 -102 37 C-100.68 37.33 -99.36 37.66 -98 38 C-98 38.66 -98 39.32 -98 40 C-97.34 39.84 -97.34 39.84 -94 39 C-94.19 40.88 -94.19 40.88 -95 43 C-97.56 44.25 -97.56 44.25 -100 45 C-100.33 44.67 -100.66 44.34 -101 44 C-101.33 46.31 -101.66 48.62 -102 51 C-101.34 51 -100.68 51 -100 51 C-99.67 49.35 -99.34 47.7 -99 46 C-98.01 46.33 -97.02 46.66 -96 47 C-96 47.66 -96 48.32 -96 49 C-95.34 49 -94.68 49 -94 49 C-94 47.35 -94 45.7 -94 44 C-91.69 44.66 -89.38 45.32 -87 46 C-86.88 46.64 -86.75 47.28 -86.62 47.94 C-86.42 48.62 -86.21 49.3 -86 50 C-85.67 50.16 -85.67 50.16 -84 51 C-83.67 50.01 -83.34 49.02 -83 48 C-82.34 48.99 -81.68 49.98 -81 51 C-80.34 50.34 -79.68 49.68 -79 49 C-78.01 51.31 -77.02 53.62 -76 56 C-75.01 55.01 -74.02 54.02 -73 53 C-72.67 53.66 -72.34 54.32 -72 55 C-72.94 57.12 -72.94 57.12 -74 59 C-74.66 58.84 -74.66 58.84 -78 58 C-78 57.34 -78 56.68 -78 56 C-78.66 56 -79.32 56 -80 56 C-79.5 56.91 -79.01 57.81 -78.5 58.75 C-77 62 -77 62 -77 66 C-75.68 66 -74.36 66 -73 66 C-73 68.31 -73 70.62 -73 73 C-72.67 72.34 -72.34 71.68 -72 71 C-70.02 71 -68.04 71 -66 71 C-65.67 69.35 -65.34 67.7 -65 66 C-64.01 66 -63.02 66 -62 66 C-61.67 67.65 -61.34 69.3 -61 71 C-59.02 71.33 -57.04 71.66 -55 72 C-48.4 62.66 -48.4 62.66 -49.12 57.38 C-49.41 56.26 -49.7 55.15 -50 54 C-50.99 54 -51.98 54 -53 54 C-53.33 55.65 -53.33 55.65 -55 64 C-55.66 64 -56.32 64 -57 64 C-57.06 62.89 -57.12 61.78 -57.18 60.64 C-57.27 59.18 -57.35 57.71 -57.44 56.25 C-57.48 55.52 -57.52 54.79 -57.56 54.04 C-57.89 48.42 -57.89 48.42 -58.58 45.82 C-58.72 45.22 -58.86 44.62 -59 44 C-58.67 43.67 -58.34 43.34 -58 43 C-57.9 41.36 -57.87 39.71 -57.88 38.06 C-57.87 37.17 -57.87 36.27 -57.87 35.35 C-58 33 -58 33 -59 31 C-59.04 29 -59.04 27 -59 25 C-58.34 25 -57.68 25 -57 25 C-54.38 31.88 -54.82 38.72 -55 46 C-54.34 46 -53.68 46 -53 46 C-53.19 45.34 -53.37 44.68 -53.56 44 C-54.13 40.11 -53.59 36.89 -53 33 C-50.36 33 -47.72 33 -45 33 C-45 37.62 -45 42.24 -45 47 C-38.86 45.6 -38.86 45.6 -36 44 C-34.56 41.27 -34.4 39.13 -34 36 C-33.84 35.67 -33.84 35.67 -33 34 C-32.77 32.3 -32.59 30.59 -32.44 28.88 C-32.4 28.42 -32.4 28.42 -32.18 26.12 C-32.12 25.42 -32.06 24.72 -32 24 C-32.99 24 -33.98 24 -35 24 C-35 26.64 -35 29.28 -35 32 C-35.33 32.16 -35.33 32.16 -37 33 C-37 29.37 -37 25.74 -37 22 C-35.02 21.01 -33.04 20.02 -31 19 C-30.13 21.99 -29.89 24.64 -29.94 27.75 C-29.95 28.55 -29.96 29.35 -29.96 30.17 C-29.98 30.78 -29.99 31.38 -30 32 C-28.35 31.67 -26.7 31.34 -25 31 C-25 33.64 -25 36.28 -25 39 C-23.68 38.34 -22.36 37.68 -21 37 C-21.33 36.01 -21.66 35.02 -22 34 C-22.13 31.33 -22.04 28.68 -22 26 C-20.68 25.67 -19.36 25.34 -18 25 C-17.84 26.32 -17.84 26.32 -17 33 C-16.34 33 -15.68 33 -15 33 C-15 32.34 -15 31.68 -15 31 C-14.34 31 -13.68 31 -13 31 C-13.16 30.5 -13.16 30.5 -14 28 C-14.09 26.5 -14.13 25 -14.12 23.5 C-14.13 23.11 -14.13 23.11 -14.13 21.16 C-14 19 -14 19 -13 16 C-14.32 16.66 -15.64 17.32 -17 18 C-16.67 14.7 -16.34 11.4 -16 8 C-15.01 7.67 -14.02 7.34 -13 7 C-11.81 3.94 -11.81 3.94 -11 1 C-10.34 1 -9.68 1 -9 1 C-9.66 3.31 -10.32 5.62 -11 8 C-11.99 8 -12.98 8 -14 8 C-14 8.99 -14 9.98 -14 11 C-13.01 11 -12.02 11 -11 11 C-10.67 12.98 -10.34 14.96 -10 17 C-9.67 16.84 -9.67 16.84 -8 16 C-7.34 16.33 -6.68 16.66 -6 17 C-6 15.68 -6 14.36 -6 13 C-5.34 13 -4.68 13 -4 13 C-4.04 12.05 -4.08 11.1 -4.12 10.12 C-4 7 -4 7 -2 5 C-1.29 3.35 -0.62 1.68 0 0 Z M-110 40 C-109 42 -109 42 -109 42 Z M-94 52 C-94.33 54.31 -94.66 56.62 -95 59 C-93.52 58.84 -93.52 58.84 -86 58 C-85.67 59.32 -85.34 60.64 -85 62 C-85 60.35 -85 58.7 -85 57 C-85.38 56.87 -85.38 56.87 -87.31 56.19 C-89.89 55.05 -91.14 54.04 -93 52 C-93.33 52 -93.66 52 -94 52 Z M-88 65 C-88.66 66.65 -89.32 68.3 -90 70 C-86.89 70 -85.65 69.46 -83 68 C-83.33 67.01 -83.66 66.02 -84 65 C-85.32 65 -86.64 65 -88 65 Z M-32 65 C-31 67 -31 67 -31 67 Z M-74 74 C-73 76 -73 76 -73 76 Z " fill="#B3B0B2" transform="translate(150,79)"/>
<path d="M0 0 C0.66 0 1.32 0 2 0 C2.99 2.31 3.98 4.62 5 7 C5.39 6.53 5.78 6.05 6.19 5.56 C8 4 8 4 13 3 C15.31 5.97 17.62 8.94 20 12 C19.34 13.32 18.68 14.64 18 16 C17.01 16.33 16.02 16.66 15 17 C18 19 18 19 21.5 19.38 C25 20 25 20 26.69 21.88 C27.12 22.58 27.55 23.28 28 24 C29.96 25.6 31.74 26.87 34 28 C33.65 36.25 33.65 36.25 31.06 39.25 C30.38 39.83 29.7 40.41 29 41 C27.14 44.82 26.12 48.91 25 53 C24.34 53 23.68 53 23 53 C23 54.32 23 55.64 23 57 C22.01 57 21.02 57 20 57 C19.34 57.66 18.68 58.32 18 59 C18 56.36 18 53.72 18 51 C17.01 51 16.02 51 15 51 C15 50.01 15 49.02 15 48 C15.99 48 16.98 48 18 48 C18.66 45.69 19.32 43.38 20 41 C19.34 41 18.68 41 18 41 C17.86 41.48 17.86 41.48 17.12 43.94 C16 47 16 47 14 48 C13.59 50.07 13.59 50.07 13.38 52.56 C13.3 53.39 13.23 54.22 13.15 55.07 C13.1 55.7 13.05 56.34 13 57 C13.5 56.84 13.5 56.84 16 56 C16 60.95 16 65.9 16 71 C15.34 71 14.68 71 14 71 C14 71.66 14 72.32 14 73 C13.34 73 12.68 73 12 73 C11.67 70.36 11.34 67.72 11 65 C10.5 65.16 10.5 65.16 8 66 C8.02 66.39 8.02 66.39 8.11 68.34 C8.13 69.34 8.16 70.34 8.19 71.38 C8.2 71.87 8.2 71.87 8.29 74.4 C8.2 75.26 8.1 76.12 8 77 C7.5 77.33 7.5 77.33 5 79 C4.34 79.99 3.68 80.98 3 82 C2.88 74.38 2.88 74.38 4 71 C3.17 71.16 3.17 71.16 -1 72 C-1.44 52.09 -1.44 52.09 1 46 C4 44 4 44 7 44 C6.74 45.75 6.47 47.5 6.19 49.25 C6.04 50.22 5.89 51.2 5.73 52.2 C4.97 55.12 3.96 56.74 2 59 C2.66 59 3.32 59 4 59 C4 61.31 4 63.62 4 66 C4.66 66 5.32 66 6 66 C6.05 64.85 6.1 63.71 6.15 62.53 C6.22 61 6.3 59.47 6.38 57.94 C6.41 57.19 6.44 56.43 6.47 55.66 C6.72 50.81 7.49 46.62 9 42 C7.02 41.34 5.04 40.68 3 40 C3 39.34 3 38.68 3 38 C2.01 38 1.02 38 0 38 C0 39.32 0 40.64 0 42 C-1.32 42 -2.64 42 -4 42 C-3.34 40.35 -2.68 38.7 -2 37 C-2.99 37.16 -2.99 37.16 -8 38 C-8.17 37.5 -8.17 37.5 -9 35 C-9.99 34.67 -10.98 34.34 -12 34 C-12.19 31.62 -12.19 31.62 -12 29 C-11.01 28.34 -10.02 27.68 -9 27 C-9.33 26.34 -9.66 25.68 -10 25 C-9.01 25 -8.02 25 -7 25 C-7 24.34 -7 23.68 -7 23 C-8.32 22.67 -9.64 22.34 -11 22 C-9.62 20.5 -9.62 20.5 -8 19 C-7.34 19 -6.68 19 -6 19 C-6 18.34 -6 17.68 -6 17 C-5.34 16.67 -4.68 16.34 -4 16 C-4.33 15.34 -4.66 14.68 -5 14 C-4.01 13.01 -3.02 12.02 -2 11 C-2.99 11 -3.98 11 -5 11 C-5 10.01 -5 9.02 -5 8 C-4 7 -3 6 -2 5 C-0.81 2.31 -0.81 2.31 0 0 Z " fill="#888158" transform="translate(121,39)"/>
<path d="M0 0 C-0.99 0.33 -1.98 0.66 -3 1 C-3.33 3.97 -3.66 6.94 -4 10 C-3.34 10 -2.68 10 -2 10 C-1.67 9.34 -1.34 8.68 -1 8 C-0.67 8.83 -0.67 8.83 1 13 C0.34 13 -0.32 13 -1 13 C-1 13.66 -1 14.32 -1 15 C0.32 15.66 1.64 16.32 3 17 C3 17.66 3 18.32 3 19 C0.35 20.46 -0.89 21 -4 21 C-5.69 19.5 -5.69 19.5 -7 18 C-5.81 20.94 -5.81 20.94 -4 24 C-1.44 24.63 -1.44 24.63 1 25 C2.31 27.06 2.31 27.06 3 29 C1.44 30.56 1.44 30.56 -1 32 C-4.75 31.69 -4.75 31.69 -8 31 C-8 31.66 -8 32.32 -8 33 C-8.66 33.16 -8.66 33.16 -12 34 C-12 34.66 -12 35.32 -12 36 C-10.68 36 -9.36 36 -8 36 C-7.84 36.66 -7.84 36.66 -7 40 C-11.39 40.7 -15.56 41.11 -20 41 C-20 41.99 -20 42.98 -20 44 C-23.3 43.67 -26.6 43.34 -30 43 C-30 44.32 -30 45.64 -30 47 C-30.66 47 -31.32 47 -32 47 C-32 46.01 -32 45.02 -32 44 C-32.83 44.16 -32.83 44.16 -37 45 C-37 45.66 -37 46.32 -37 47 C-39.97 47 -42.94 47 -46 47 C-46 46.34 -46 45.68 -46 45 C-47.32 44.67 -48.64 44.34 -50 44 C-50 42.68 -50 41.36 -50 40 C-49.01 39.84 -49.01 39.84 -44 39 C-44.33 38.34 -44.66 37.68 -45 37 C-46.13 36.86 -47.27 36.71 -48.44 36.56 C-49.03 36.47 -49.03 36.47 -52 36 C-52.66 35.01 -53.32 34.02 -54 33 C-54.39 33.47 -54.78 33.95 -55.19 34.44 C-57.41 36.35 -59.13 36.61 -62 37 C-62 37.99 -62 38.98 -62 40 C-63.98 39.34 -65.96 38.68 -68 38 C-67.67 39.32 -67.34 40.64 -67 42 C-68.65 41.67 -70.3 41.34 -72 41 C-71.67 39.35 -71.34 37.7 -71 36 C-70.34 36 -69.68 36 -69 36 C-69 35.01 -69 34.02 -69 33 C-68.46 33.11 -68.46 33.11 -65.75 33.69 C-62 34 -62 34 -59.56 32.69 C-58 31 -58 31 -58 29 C-59.65 28.67 -61.3 28.34 -63 28 C-62.67 27.01 -62.34 26.02 -62 25 C-61.05 24.88 -60.1 24.75 -59.12 24.62 C-56 24 -56 24 -54 22 C-54 22.66 -54 23.32 -54 24 C-52.84 23.84 -52.84 23.84 -47 23 C-47 27 -47 27 -48 29 C-44.53 28.54 -41.33 28.11 -38 27 C-38 24.69 -38 22.38 -38 20 C-36.68 20.33 -35.36 20.66 -34 21 C-34 20.34 -34 19.68 -34 19 C-34.66 18.67 -35.32 18.34 -36 18 C-34.54 17.97 -33.08 17.95 -31.62 17.94 C-30.81 17.93 -30 17.91 -29.16 17.9 C-27 18 -27 18 -25 19 C-25 18.34 -25 17.68 -25 17 C-22.69 17 -20.38 17 -18 17 C-18 16.01 -18 15.02 -18 14 C-18.66 14 -19.32 14 -20 14 C-20.16 13.34 -20.16 13.34 -21 10 C-19.35 10 -17.7 10 -16 10 C-16.08 9.28 -16.16 8.56 -16.25 7.81 C-16 5 -16 5 -14.75 2.19 C-10.33 -1.33 -5.44 -0.39 0 0 Z " fill="#746F51" transform="translate(108,29)"/>
<path d="M0 0 C1.81 0.06 1.81 0.06 4 1 C4.47 2.13 4.95 3.27 5.44 4.44 C7 8 7 8 9.69 9.44 C10.45 9.62 11.21 9.81 12 10 C12.66 8.68 13.32 7.36 14 6 C18.02 14.42 20.96 21.52 21 31 C21.66 31 22.32 31 23 31 C22.67 28.03 22.34 25.06 22 22 C23.32 22 24.64 22 26 22 C26.33 21.34 26.66 20.68 27 20 C27 22.64 27 25.28 27 28 C27.66 28 28.32 28 29 28 C29 26.68 29 25.36 29 24 C30.98 24.33 32.96 24.66 35 25 C35.66 24.01 36.32 23.02 37 22 C37.66 22 38.32 22 39 22 C39.06 22.32 39.06 22.32 39.38 23.94 C39.58 24.62 39.79 25.3 40 26 C40.66 26.33 41.32 26.66 42 27 C42.41 29.32 42.74 31.66 43 34 C43.99 34 44.98 34 46 34 C46 33.34 46 32.68 46 32 C46.66 32 47.32 32 48 32 C48 31.34 48 30.68 48 30 C49.32 30.66 50.64 31.32 52 32 C51.67 33.65 51.34 35.3 51 37 C49.68 36.67 48.36 36.34 47 36 C47 37.98 47 39.96 47 42 C47.66 42 48.32 42 49 42 C49 41.34 49 40.68 49 40 C49.66 40 50.32 40 51 40 C51 40.99 51 41.98 51 43 C52.65 43 54.3 43 56 43 C56 42.34 56 41.68 56 41 C57.65 41 59.3 41 61 41 C61.33 40.01 61.66 39.02 62 38 C62.99 38.33 63.98 38.66 65 39 C65 39.99 65 40.98 65 42 C64.01 42 63.02 42 62 42 C62.38 44.44 62.38 44.44 63 47 C63.66 47.33 64.32 47.66 65 48 C64.84 47.34 64.84 47.34 64 44 C64.66 44 65.32 44 66 44 C66.29 43.26 66.58 42.52 66.88 41.75 C67.06 41.3 67.06 41.3 68 39 C68.29 38.26 68.58 37.52 68.88 36.75 C70 35 70 35 72.06 34.38 C72.7 34.25 73.34 34.13 74 34 C74.16 33.67 74.16 33.67 75 32 C75.99 32 76.98 32 78 32 C78.03 33.58 78.05 35.17 78.06 36.75 C78.07 37.63 78.09 38.51 78.1 39.42 C78.01 41.78 77.57 43.73 77 46 C77.33 46.33 77.66 46.66 78 47 C78.07 49.7 78.09 52.37 78.06 55.06 C78.06 55.82 78.05 56.58 78.05 57.36 C78.04 59.24 78.02 61.12 78 63 C78.66 63 79.32 63 80 63 C80.14 61.72 80.29 60.44 80.44 59.12 C80.71 56.74 80.92 55.16 82 53 C82.99 53 83.98 53 85 53 C86.67 56.53 87.28 58.31 86 62 C85.03 63.78 84 65.53 82.94 67.25 C82.39 68.14 81.84 69.03 81.28 69.95 C80.86 70.63 80.43 71.3 80 72 C77.69 71.34 75.38 70.68 73 70 C73 68.35 73 66.7 73 65 C72.01 65 71.02 65 70 65 C70 66.65 70 68.3 70 70 C66.87 71.04 66.01 70.93 63 70 C63.33 70.99 63.66 71.98 64 73 C63.01 72.67 62.02 72.34 61 72 C61.33 69.69 61.66 67.38 62 65 C60.68 65 59.36 65 58 65 C55 58.38 55 58.38 55 55 C55.66 55 56.32 55 57 55 C57 55.66 57 56.32 57 57 C58.32 57.33 59.64 57.66 61 58 C61.33 56.35 61.66 54.7 62 53 C61.34 53 60.68 53 60 53 C59.67 53.99 59.34 54.98 59 56 C58.01 53.69 57.02 51.38 56 49 C55.34 49.66 54.68 50.32 54 51 C53.34 50.34 52.68 49.68 52 49 C50.68 49 49.36 49 48 49 C47.96 48.38 47.92 47.76 47.88 47.12 C47.59 46.42 47.3 45.72 47 45 C43.94 43.75 43.94 43.75 41 43 C41 44.65 41 46.3 41 48 C39 48 39 48 37.38 46.5 C36.92 46 36.47 45.51 36 45 C35.67 46.65 35.34 48.3 35 50 C34.34 50 33.68 50 33 50 C33 46.7 33 43.4 33 40 C33.66 40.99 34.32 41.98 35 43 C37.44 42.19 37.44 42.19 40 41 C40.33 40.01 40.66 39.02 41 38 C40.34 38.16 40.34 38.16 37 39 C37 38.34 37 37.68 37 37 C35.68 36.67 34.36 36.34 33 36 C33 36.99 33 37.98 33 39 C31.52 38.72 30.04 38.42 28.56 38.12 C27.74 37.96 26.92 37.8 26.07 37.63 C25.38 37.42 24.7 37.22 24 37 C23.67 36.34 23.34 35.68 23 35 C22.34 35.99 21.68 36.98 21 38 C20.34 38 19.68 38 19 38 C16.26 35.05 16 34.23 16 30 C15.01 30 14.02 30 13 30 C13 28.02 13 26.04 13 24 C12.34 24 11.68 24 11 24 C10.34 23.01 9.68 22.02 9 21 C8.01 21 7.02 21 6 21 C0.71 16.13 0.73 6.73 0 0 Z " fill="#858D9A" transform="translate(15,80)"/>
<path d="M0 0 C0.33 0 0.66 0 1 0 C1 1.98 1 3.96 1 6 C1.99 6 2.98 6 4 6 C5.08 8.65 6.09 11.28 7 14 C9 13 9 13 11 10 C11.33 10.99 11.66 11.98 12 13 C12.93 12.96 13.86 12.92 14.81 12.88 C18 13 18 13 21 15 C21 14.01 21 13.02 21 12 C22.32 12.33 23.64 12.66 25 13 C25 13.66 25 14.32 25 15 C26.32 14.67 27.64 14.34 29 14 C28.81 15.87 28.81 15.87 28 18 C25.44 19.25 25.44 19.25 23 20 C22.67 19.67 22.34 19.34 22 19 C21.67 21.31 21.34 23.62 21 26 C21.66 26 22.32 26 23 26 C23.33 24.35 23.66 22.7 24 21 C24.99 21.33 25.98 21.66 27 22 C27 22.66 27 23.32 27 24 C27.66 24 28.32 24 29 24 C29 22.35 29 20.7 29 19 C31.31 19.66 33.62 20.32 36 21 C36.06 21.32 36.06 21.32 36.38 22.94 C36.58 23.62 36.79 24.3 37 25 C37.66 25.33 38.32 25.66 39 26 C39.16 25.5 39.16 25.5 40 23 C40.66 23.99 41.32 24.98 42 26 C42.66 25.34 43.32 24.68 44 24 C44.99 26.31 45.98 28.62 47 31 C47.99 30.01 48.98 29.02 50 28 C50.16 28.33 50.16 28.33 51 30 C50.06 32.12 50.06 32.12 49 34 C48.34 33.84 48.34 33.84 45 33 C45 32.34 45 31.68 45 31 C44.34 31 43.68 31 43 31 C43.5 31.91 43.99 32.81 44.5 33.75 C46 37 46 37 46 41 C47.32 41 48.64 41 50 41 C50 43.64 50 46.28 50 49 C48.84 49.16 48.84 49.16 43 50 C41 47 41 47 40.12 43.88 C39.75 42.93 39.38 41.98 39 41 C36.88 40.12 36.88 40.12 35 40 C35 40.66 35 41.32 35 42 C33.99 41.79 32.98 41.59 31.94 41.38 C27.11 40.91 23.29 41.65 19.08 44.13 C16.43 45.24 15.17 44.84 12.44 44.06 C8.3 42.9 8.3 42.9 5 44 C2.63 43.08 0.3 42.08 -2 41 C-1.67 42.32 -1.34 43.64 -1 45 C-3.31 45.25 -3.31 45.25 -6 45 C-7.81 43 -7.81 43 -9 41 C-8.34 40.01 -7.68 39.02 -7 38 C-5.68 38 -4.36 38 -3 38 C-2.67 36.68 -2.34 35.36 -2 34 C-4.31 32.44 -4.31 32.44 -7 31 C-7.99 31.33 -8.98 31.66 -10 32 C-10.66 31.34 -11.32 30.68 -12 30 C-12.34 29.93 -12.34 29.93 -14.06 29.56 C-14.7 29.38 -15.34 29.19 -16 29 C-16.33 28.01 -16.66 27.02 -17 26 C-16.4 25.9 -15.8 25.79 -15.19 25.69 C-12.61 24.88 -11.66 24.12 -10 22 C-9.84 21.58 -9.84 21.58 -9 19.44 C-8 17 -8 17 -5 15 C-1.31 15.38 -1.31 15.38 2 16 C1.86 15.43 1.71 14.86 1.56 14.28 C0.38 9.38 -0.21 5.04 0 0 Z M13 15 C14 17 14 17 14 17 Z M29 27 C28.67 29.31 28.34 31.62 28 34 C29.48 33.84 29.48 33.84 37 33 C37.33 34.32 37.66 35.64 38 37 C38 35.35 38 33.7 38 32 C37.62 31.87 37.62 31.87 35.69 31.19 C33.11 30.05 31.86 29.04 30 27 C29.67 27 29.34 27 29 27 Z " fill="#C1CCDB" transform="translate(27,104)"/>
<path d="M0 0 C0.99 0 1.98 0 3 0 C3.33 0.99 3.66 1.98 4 3 C4.66 2.67 5.32 2.34 6 2 C8 1.96 10 1.96 12 2 C12 2.99 12 3.98 12 5 C12.99 5 13.98 5 15 5 C15 5.66 15 6.32 15 7 C15.82 7.17 15.82 7.17 20 8 C22 13.62 22 13.62 22 17 C22.66 17 23.32 17 24 17 C24 15.02 24 13.04 24 11 C23.34 10.67 22.68 10.34 22 10 C24 8 24 8 27.62 7.88 C28.18 7.9 28.18 7.9 31 8 C31 7.34 31 6.68 31 6 C31.6 5.92 32.2 5.83 32.81 5.75 C35.6 4.8 36.43 3.43 38 1 C39.87 1.31 39.87 1.31 42 2 C42.66 2.99 43.32 3.98 44 5 C46.12 5.69 46.12 5.69 48 6 C48 5.34 48 4.68 48 4 C48.99 4.33 49.98 4.66 51 5 C51 5.66 51 6.32 51 7 C47.77 9.15 46.72 9.2 43 9 C43 9.66 43 10.32 43 11 C43.66 10.67 44.32 10.34 45 10 C46.54 9.93 48.08 9.92 49.62 9.94 C50.03 9.94 50.03 9.94 52.1 9.96 C52.41 9.97 52.41 9.97 54 10 C54 10.66 54 11.32 54 12 C53.01 12.33 52.02 12.66 51 13 C50.67 17.62 50.34 22.24 50 27 C48.35 26.67 46.7 26.34 45 26 C43.86 21.73 43 18.44 43 14 C42.34 14 41.68 14 41 14 C41.22 14.93 41.43 15.86 41.66 16.82 C41.93 18.05 42.21 19.29 42.5 20.56 C42.78 21.78 43.06 23 43.34 24.25 C43.99 27.92 44.11 31.29 44 35 C42.35 34.67 40.7 34.34 39 34 C38.67 32.35 38.34 30.7 38 29 C37.34 29 36.68 29 36 29 C35.34 30.32 34.68 31.64 34 33 C32.02 32.34 30.04 31.68 28 31 C28 32.32 28 33.64 28 35 C27.34 35 26.68 35 26 35 C25.67 33.02 25.34 31.04 25 29 C24.01 29.33 23.02 29.66 22 30 C22 32.64 22 35.28 22 38 C21.34 38 20.68 38 20 38 C19 36 19 36 18.75 32.06 C18.18 26.15 15.65 21.24 13 16 C12.34 16.66 11.68 17.32 11 18 C8.19 16.94 8.19 16.94 5 15 C3.96 12.68 2.96 10.35 2 8 C-0.19 7.06 -0.19 7.06 -2 7 C-2 6.01 -2 5.02 -2 4 C-1.34 4 -0.68 4 0 4 C0 2.68 0 1.36 0 0 Z " fill="#7C7E85" transform="translate(16,73)"/>
<path d="M0 0 C0.99 0 1.98 0 3 0 C3.16 1.32 3.16 1.32 4 8 C5.32 8.33 6.64 8.66 8 9 C7.67 9.99 7.34 10.98 7 12 C6.01 12 5.02 12 4 12 C4 13.65 4 15.3 4 17 C3.34 17 2.68 17 2 17 C1.67 17.66 1.34 18.32 1 19 C0.01 19 -0.98 19 -2 19 C-3.74 22.23 -4.89 25.51 -6 29 C-7.65 29 -9.3 29 -11 29 C-10.84 29.66 -10.84 29.66 -10 33 C-9.34 33 -8.68 33 -8 33 C-8 33.99 -8 34.98 -8 36 C-10.31 36 -12.62 36 -15 36 C-15 36.66 -15 37.32 -15 38 C-17.97 38 -20.94 38 -24 38 C-24 38.66 -24 39.32 -24 40 C-25.32 39.67 -26.64 39.34 -28 39 C-27.81 39.6 -27.63 40.2 -27.44 40.81 C-27 43 -27 43 -28 46 C-31.04 48.02 -32.19 48.32 -35.69 48.62 C-36.5 48.7 -37.3 48.77 -38.14 48.85 C-38.75 48.9 -39.37 48.95 -40 49 C-39.75 48.69 -39.75 48.69 -38.5 47.12 C-37 45 -37 45 -37 43 C-43.05 42.8 -43.05 42.8 -45 43 C-45.66 43.66 -46.32 44.32 -47 45 C-47 44.34 -47 43.68 -47 43 C-47.83 43.16 -47.83 43.16 -52 44 C-51.34 43.01 -50.68 42.02 -50 41 C-50.99 40.34 -51.98 39.68 -53 39 C-52.75 37.12 -52.75 37.12 -52 35 C-49.94 33.75 -49.94 33.75 -48 33 C-48.99 32.34 -49.98 31.68 -51 31 C-50.34 29.68 -49.68 28.36 -49 27 C-48.34 27 -47.68 27 -47 27 C-46.94 26.7 -46.94 26.7 -46.62 25.19 C-46 23 -46 23 -44 20 C-43.38 20.97 -42.76 21.94 -42.12 22.94 C-40 26 -40 26 -38 27 C-38 28.32 -38 29.64 -38 31 C-37.01 31.66 -36.02 32.32 -35 33 C-35 34.32 -35 35.64 -35 37 C-34.67 37.99 -34.34 38.98 -34 40 C-33.34 39.84 -33.34 39.84 -30 39 C-30.99 38.34 -31.98 37.68 -33 37 C-33.69 34.38 -33.69 34.38 -34 32 C-31.69 31.34 -29.38 30.68 -27 30 C-27.99 28.35 -28.98 26.7 -30 25 C-28.35 24.01 -26.7 23.02 -25 22 C-25.33 20.68 -25.66 19.36 -26 18 C-25.01 17.67 -24.02 17.34 -23 17 C-22.27 15.15 -22.27 15.15 -21.81 12.94 C-21.65 12.2 -21.5 11.47 -21.33 10.71 C-21.28 10.43 -21.28 10.43 -21 9 C-20.34 9 -19.68 9 -19 9 C-14.59 18.41 -14.59 18.41 -14 23 C-13.01 23.33 -12.02 23.66 -11 24 C-11 24.99 -11 25.98 -11 27 C-11.16 27.16 -11.16 27.16 -12 28 C-11.01 27.34 -10.02 26.68 -9 26 C-9.59 22.98 -10.23 19.98 -11 17 C-9.02 16.01 -7.04 15.02 -5 14 C-5 13.34 -5 12.68 -5 12 C-5 10.68 -5 9.36 -5 8 C-4.01 7.34 -3.02 6.68 -2 6 C-0.81 2.87 -0.81 2.87 0 0 Z " fill="#787C69" transform="translate(98,10)"/>
<path d="M0 0 C3.3 0.99 6.6 1.98 10 3 C10 4.98 10 6.96 10 9 C10.78 8.2 11.57 7.39 12.38 6.56 C15 4 15 4 17 3 C17 3.66 17 4.32 17 5 C18.65 4.67 20.3 4.34 22 4 C21.67 5.65 21.34 7.3 21 9 C20.34 9 19.68 9 19 9 C19 8.34 19 7.68 19 7 C18.34 7 17.68 7 17 7 C17.07 7.3 17.07 7.3 17.4 8.79 C18.31 12.85 19.21 16.91 20 21 C20.99 21.33 21.98 21.66 23 22 C23 19.36 23 16.72 23 14 C23.64 13.75 24.28 13.5 24.94 13.25 C27 12 27 12 27.5 10.06 C27.58 9.72 27.58 9.72 28 8 C30.06 6.25 30.06 6.25 32 5 C31.67 7.31 31.34 9.62 31 12 C31.66 12 32.32 12 33 12 C32.67 14.64 32.34 17.28 32 20 C31.01 20 30.02 20 29 20 C28.34 20.66 27.68 21.32 27 22 C27 20.68 27 19.36 27 18 C26.34 18 25.68 18 25 18 C25.16 19.32 25.16 19.32 26 26 C25.34 26 24.68 26 24 26 C23.84 26.5 23.84 26.5 23 29 C22.37 29.14 21.73 29.29 21.08 29.43 C19 30 19 30 17.73 31.85 C17.41 32.58 17.08 33.31 16.75 34.06 C16.41 34.8 16.08 35.53 15.73 36.29 C15.49 36.85 15.25 37.42 15 38 C14.34 38 13.68 38 13 38 C13.33 39.32 13.66 40.64 14 42 C13.5 41.84 13.5 41.84 11 41 C11 39.35 11 37.7 11 36 C11.99 36 12.98 36 14 36 C14 35.01 14 34.02 14 33 C13.01 33 12.02 33 11 33 C10.67 33.66 10.34 34.32 10 35 C8.35 35 6.7 35 5 35 C5 35.66 5 36.32 5 37 C3.35 37 1.7 37 0 37 C0 36.01 0 35.02 0 34 C-0.66 34 -1.32 34 -2 34 C-2 34.66 -2 35.32 -2 36 C-2.66 36 -3.32 36 -4 36 C-4.33 33.69 -4.66 31.38 -5 29 C-4.17 29.33 -4.17 29.33 0 31 C0.19 28.62 0.19 28.62 0 26 C-0.99 25.34 -1.98 24.68 -3 24 C-3 24.66 -3 25.32 -3 26 C-3.66 26 -4.32 26 -5 26 C-5 26.66 -5 27.32 -5 28 C-5.99 28 -6.98 28 -8 28 C-8 26.68 -8 25.36 -8 24 C-8.66 23.67 -9.32 23.34 -10 23 C-8.68 22.67 -7.36 22.34 -6 22 C-6.22 20.82 -6.43 19.64 -6.66 18.42 C-6.94 16.86 -7.22 15.31 -7.5 13.75 C-7.64 12.97 -7.79 12.2 -7.93 11.39 C-8.07 10.64 -8.2 9.89 -8.34 9.11 C-8.41 8.76 -8.41 8.76 -8.72 7.01 C-9 5 -9 5 -9 1 C-8.34 1 -7.68 1 -7 1 C-6.34 4.96 -5.68 8.92 -5 13 C-3.35 13.33 -1.7 13.66 0 14 C0 9.38 0 4.76 0 0 Z " fill="#73757B" transform="translate(66,86)"/>
<path d="M0 0 C1.28 2.37 2.12 4.44 2.81 7.06 C4.24 10.59 5.62 11.4 9 13 C9.33 9.37 9.66 5.74 10 2 C10.66 2.33 11.32 2.66 12 3 C12.6 4.89 12.6 4.89 13.06 7.25 C13.14 7.65 13.14 7.65 13.56 9.7 C13.7 10.46 13.85 11.22 14 12 C14.21 13.01 14.41 14.02 14.62 15.06 C14.75 15.7 14.87 16.34 15 17 C16.65 17.33 18.3 17.66 20 18 C20.16 18.5 20.16 18.5 21 21 C19.35 20.67 17.7 20.34 16 20 C16.31 21.05 16.62 22.1 16.94 23.19 C17.76 26.13 18.45 29 19 32 C15.75 33.07 13.71 32.89 10.44 32 C7.2 31.13 6.29 30.9 3 32 C0.63 31.08 -1.7 30.08 -4 29 C-3.67 30.32 -3.34 31.64 -3 33 C-5.31 33.25 -5.31 33.25 -8 33 C-9.81 31 -9.81 31 -11 29 C-10.34 28.01 -9.68 27.02 -9 26 C-7.68 26 -6.36 26 -5 26 C-4.67 24.68 -4.34 23.36 -4 22 C-6.31 20.44 -6.31 20.44 -9 19 C-9.99 19.33 -10.98 19.66 -12 20 C-12.66 19.34 -13.32 18.68 -14 18 C-14.34 17.93 -14.34 17.93 -16.06 17.56 C-16.7 17.38 -17.34 17.19 -18 17 C-18.33 16.01 -18.66 15.02 -19 14 C-18.4 13.9 -17.8 13.79 -17.19 13.69 C-14.61 12.88 -13.66 12.12 -12 10 C-11.67 9.15 -11.34 8.31 -11 7.44 C-10 5 -10 5 -7 3 C-3.31 3.38 -3.31 3.38 0 4 C0 2.68 0 1.36 0 0 Z " fill="#E6E9EF" transform="translate(29,116)"/>
<path d="M0 0 C0.66 0 1.32 0 2 0 C2.66 1.32 3.32 2.64 4 4 C4.99 4 5.98 4 7 4 C7 3.34 7 2.68 7 2 C7.66 2.33 8.32 2.66 9 3 C9 3.66 9 4.32 9 5 C10.65 5 12.3 5 14 5 C13.75 7.37 13.75 7.37 13 10 C10.1 12.18 7.55 12.2 4 12 C4 11.34 4 10.68 4 10 C3.34 10 2.68 10 2 10 C2 10.99 2 11.98 2 13 C1.34 13 0.68 13 0 13 C0.33 14.65 0.66 16.3 1 18 C1.99 18.33 2.98 18.66 4 19 C3.67 17.68 3.34 16.36 3 15 C4.98 15.66 6.96 16.32 9 17 C9 16.01 9 15.02 9 14 C11.31 13.34 13.62 12.68 16 12 C16.33 10.35 16.66 8.7 17 7 C19 10.75 19 10.75 19 13 C20.32 13.33 21.64 13.66 23 14 C19.04 14.99 15.08 15.98 11 17 C11 17.99 11 18.98 11 20 C13.31 19.67 15.62 19.34 18 19 C18 19.66 18 20.32 18 21 C18.66 21.33 19.32 21.66 20 22 C19.38 22.27 18.76 22.54 18.12 22.81 C16 24 16 24 14 27 C12.68 27 11.36 27 10 27 C10 27.66 10 28.32 10 29 C7.69 29.33 5.38 29.66 3 30 C3 32 3 32 3.56 34 C4 36 4 36 3 38 C2.34 38 1.68 38 1 38 C0 35 -1 32 -2 29 C-4.06 28.31 -4.06 28.31 -6 28 C-6 27.34 -6 26.68 -6 26 C-6.99 26 -7.98 26 -9 26 C-9 25.01 -9 24.02 -9 23 C-11.97 23.66 -14.94 24.32 -18 25 C-18 23.68 -18 22.36 -18 21 C-18.99 21 -19.98 21 -21 21 C-21 22.32 -21 23.64 -21 25 C-21.66 25 -22.32 25 -23 25 C-23.33 25.66 -23.66 26.32 -24 27 C-24.24 24.14 -24.42 21.8 -24 19 C-20.85 15.48 -17.46 14.32 -13 13 C-12.67 12.67 -12.34 12.34 -12 12 C-9.67 11.96 -7.33 11.96 -5 12 C-5.66 11.67 -6.32 11.34 -7 11 C-7 10.01 -7 9.02 -7 8 C-6.4 7.79 -5.8 7.59 -5.19 7.38 C-2.19 5.49 -1.39 3.19 0 0 Z " fill="#797968" transform="translate(37,52)"/>
<path d="M0 0 C1.31 2.06 1.31 2.06 2 4 C2.8 3.5 3.61 3.01 4.44 2.5 C7 1 7 1 8 1 C8.66 3.64 9.32 6.28 10 9 C10.95 8.81 11.9 8.63 12.88 8.44 C16 8 16 8 18 9 C19.45 12.61 20 15.07 20 19 C22.44 18.62 22.44 18.62 25 18 C25.33 17.34 25.66 16.68 26 16 C25.01 15.67 24.02 15.34 23 15 C29.75 11 29.75 11 32 11 C32 10.01 32 9.02 32 8 C32.66 8 33.32 8 34 8 C34 9.65 34 11.3 34 13 C35.98 13.33 37.96 13.66 40 14 C39.79 14.76 39.59 15.53 39.38 16.31 C39 19 39 19 41 22 C39.94 23.5 39.94 23.5 38 25 C35.67 25 33.33 25 31 25 C30.48 25.52 29.97 26.03 29.44 26.56 C28.96 27.04 28.49 27.51 28 28 C24.35 27.78 22.62 27.62 20 25 C18.01 24.31 16.01 23.64 14 23 C13.67 22.67 13.34 22.34 13 22 C12.67 22.66 12.34 23.32 12 24 C10.12 23.75 10.12 23.75 8 23 C6.75 20.94 6.75 20.94 6 19 C9 17 9 17 12 17 C11.34 16.34 10.68 15.68 10 15 C9.69 15.08 9.69 15.08 8.14 15.5 C5.33 16.16 4.25 15.44 1.75 14.06 C1.04 13.68 0.34 13.3 -0.39 12.91 C-0.92 12.61 -1.45 12.31 -2 12 C-2 12.99 -2 13.98 -2 15 C-5.72 14.49 -8.73 13.88 -12 12 C-11.34 11.67 -10.68 11.34 -10 11 C-9.82 7.05 -9.91 4.4 -12 1 C-4.09 -1.64 -4.09 -1.64 0 0 Z " fill="#D1DCEB" transform="translate(60,145)"/>
<path d="M0 0 C2.97 0 5.94 0 9 0 C9.16 0.83 9.16 0.83 10 5 C9.28 5.08 8.56 5.16 7.81 5.25 C4.27 6.19 2.56 7.37 0 10 C-1.31 13.75 -1.31 13.75 -2 17 C-3.32 17.33 -4.64 17.66 -6 18 C-6 18.99 -6 19.98 -6 21 C-4.68 20.67 -3.36 20.34 -2 20 C-2 19.34 -2 18.68 -2 18 C-0.68 17.67 0.64 17.34 2 17 C1.34 17 0.68 17 0 17 C1.27 14.16 2.45 11.86 5 10 C7.32 10.28 8.91 10.95 11 12 C11 12.66 11 13.32 11 14 C11.66 14 12.32 14 13 14 C13 13.01 13 12.02 13 11 C14.32 11 15.64 11 17 11 C16.84 10.5 16.84 10.5 16 8 C17.65 7.34 19.3 6.68 21 6 C21.16 6.66 21.16 6.66 22 10 C22.99 10 23.98 10 25 10 C25.16 10.5 25.16 10.5 26 13 C25.64 13.06 25.64 13.06 23.85 13.37 C22.93 13.53 22.01 13.7 21.06 13.88 C20.15 14.04 19.23 14.2 18.29 14.37 C17.53 14.58 16.78 14.78 16 15 C15.67 15.66 15.34 16.32 15 17 C13.68 17 12.36 17 11 17 C11.16 17.66 11.16 17.66 12 21 C7.25 22.12 7.25 22.12 5 21 C5 22.32 5 23.64 5 25 C2.03 25 -0.94 25 -4 25 C-4 25.99 -4 26.98 -4 28 C-7.95 28.18 -10.6 28.09 -14 26 C-14 24.68 -14 23.36 -14 22 C-12.02 21.67 -10.04 21.34 -8 21 C-8.33 20.34 -8.66 19.68 -9 19 C-10.13 18.86 -11.27 18.71 -12.44 18.56 C-13.61 18.38 -14.79 18.19 -16 18 C-16.66 17.01 -17.32 16.02 -18 15 C-18.39 15.47 -18.78 15.95 -19.19 16.44 C-21.41 18.35 -23.13 18.61 -26 19 C-26 19.99 -26 20.98 -26 22 C-27.98 21.34 -29.96 20.68 -32 20 C-31.67 21.32 -31.34 22.64 -31 24 C-32.65 23.67 -34.3 23.34 -36 23 C-35.67 21.35 -35.34 19.7 -35 18 C-34.34 18 -33.68 18 -33 18 C-33 17.01 -33 16.02 -33 15 C-32.46 15.11 -32.46 15.11 -29.75 15.69 C-26 16 -26 16 -23.56 14.69 C-22 13 -22 13 -22 11 C-23.65 10.67 -25.3 10.34 -27 10 C-26.67 9.01 -26.34 8.02 -26 7 C-25.05 6.88 -24.1 6.75 -23.12 6.62 C-20 6 -20 6 -18 4 C-18 4.66 -18 5.32 -18 6 C-16.84 5.84 -16.84 5.84 -11 5 C-11 9 -11 9 -12 11 C-8.53 10.54 -5.33 10.11 -2 9 C-2 6.69 -2 4.38 -2 2 C-0.68 2.33 0.64 2.66 2 3 C2 2.34 2 1.68 2 1 C1.34 0.67 0.68 0.34 0 0 Z " fill="#656456" transform="translate(72,47)"/>
<path d="M0 0 C0 0.66 0 1.32 0 2 C-1.98 2.33 -3.96 2.66 -6 3 C-6 4.32 -6 5.64 -6 7 C-4.68 7.33 -3.36 7.66 -2 8 C-2 8.66 -2 9.32 -2 10 C0.97 10 3.94 10 7 10 C7 9.34 7 8.68 7 8 C8.65 7.67 10.3 7.34 12 7 C12 7.99 12 8.98 12 10 C12.66 10 13.32 10 14 10 C14 8.68 14 7.36 14 6 C16.97 6.33 19.94 6.66 23 7 C23 7.66 23 8.32 23 9 C23.66 9 24.32 9 25 9 C25 9.66 25 10.32 25 11 C26.98 11 28.96 11 31 11 C30.67 11.66 30.34 12.32 30 13 C26.31 14.23 23.79 13.64 20 13 C20 13.66 20 14.32 20 15 C20.65 15.04 21.3 15.07 21.98 15.11 C27.32 15.51 31.32 16.17 36 19 C35 21 35 21 32.88 21.75 C29.22 22.07 26.45 21.15 23 20 C23 20.99 23 21.98 23 23 C22.07 23.25 21.14 23.5 20.19 23.75 C16.78 25.09 15.97 26.05 14 29 C13.34 29 12.68 29 12 29 C12 27.02 12 25.04 12 23 C9.03 22.34 6.06 21.68 3 21 C3 20.34 3 19.68 3 19 C3.99 19 4.98 19 6 19 C6 18.34 6 17.68 6 17 C2.37 17.33 -1.26 17.66 -5 18 C-5 17.34 -5 16.68 -5 16 C-2.36 15.34 0.28 14.68 3 14 C2.01 13.01 1.02 12.02 0 11 C0 11.66 0 12.32 0 13 C-2.38 12.81 -2.38 12.81 -5 12 C-6.31 9.44 -6.31 9.44 -7 7 C-7.66 7 -8.32 7 -9 7 C-9 6.34 -9 5.68 -9 5 C-11.31 5.33 -13.62 5.66 -16 6 C-16.33 4.68 -16.66 3.36 -17 2 C-14.92 1.47 -12.84 0.95 -10.75 0.44 C-9.59 0.15 -8.43 -0.14 -7.23 -0.44 C-4.28 -0.95 -2.76 -1.03 0 0 Z " fill="#B9A56F" transform="translate(64,66)"/>
<path d="M0 0 C0.85 0.47 1.69 0.95 2.56 1.44 C6 3 6 3 9.69 3.44 C13 4 13 4 14.69 5.88 C15.12 6.58 15.55 7.28 16 8 C17.96 9.6 19.74 10.87 22 12 C21.65 20.25 21.65 20.25 19.06 23.25 C18.38 23.83 17.7 24.41 17 25 C15.14 28.82 14.12 32.91 13 37 C12.34 37 11.68 37 11 37 C11 38.32 11 39.64 11 41 C9.68 41 8.36 41 7 41 C7.75 33.38 7.75 33.38 10 30 C10.56 28.52 11.08 27.01 11.56 25.5 C11.81 24.73 12.06 23.95 12.32 23.16 C12.54 22.44 12.77 21.73 13 21 C13.33 20.01 13.66 19.02 14 18 C10.7 17.67 7.4 17.34 4 17 C5.32 17.66 6.64 18.32 8 19 C8 19.66 8 20.32 8 21 C6.25 22.12 6.25 22.12 4 23 C2.19 22.19 2.19 22.19 0 21 C-2.32 20.61 -4.66 20.27 -7 20 C-7.33 20.66 -7.66 21.32 -8 22 C-8 20.68 -8 19.36 -8 18 C-5.03 17.34 -2.06 16.68 1 16 C1.33 14.68 1.66 13.36 2 12 C1.42 12.35 0.84 12.7 0.25 13.06 C-2.39 14.16 -3.36 13.97 -6 13 C-6.66 12.67 -7.32 12.34 -8 12 C-8 12.66 -8 13.32 -8 14 C-8.66 14 -9.32 14 -10 14 C-10 14.66 -10 15.32 -10 16 C-10.83 15.67 -10.83 15.67 -15 14 C-15 13.01 -15 12.02 -15 11 C-15.66 11 -16.32 11 -17 11 C-17 10.34 -17 9.68 -17 9 C-10.07 9 -3.14 9 4 9 C3.34 7.68 2.68 6.36 2 5 C2 4.01 2 3.02 2 2 C1.34 2 0.68 2 0 2 C0 1.34 0 0.68 0 0 Z " fill="#C2B268" transform="translate(133,55)"/>
<path d="M0 0 C2 3.75 2 3.75 2 6 C2.66 6 3.32 6 4 6 C4 5.34 4 4.68 4 4 C4.99 3.67 5.98 3.34 7 3 C7 3.66 7 4.32 7 5 C7.66 5.33 8.32 5.66 9 6 C9 6.66 9 7.32 9 8 C9.83 8.16 9.83 8.16 14 9 C13.74 11.34 13.41 13.68 13 16 C12.67 16.16 12.67 16.16 11 17 C10.84 16.5 10.84 16.5 10 14 C9.67 14.66 9.34 15.32 9 16 C7.35 16 5.7 16 4 16 C4 17.32 4 18.64 4 20 C3.34 20 2.68 20 2 20 C2 19.34 2 18.68 2 18 C1.34 18 0.68 18 0 18 C-0.14 18.8 -0.29 19.61 -0.44 20.44 C-1 23 -1 23 -2 24 C-4.34 23.71 -6.67 23.38 -9 23 C-9 21.35 -9 19.7 -9 18 C-9.66 18 -10.32 18 -11 18 C-11 18.99 -11 19.98 -11 21 C-13.31 22.32 -15.62 23.64 -18 25 C-18 26.32 -18 27.64 -18 29 C-19.65 29 -21.3 29 -23 29 C-23.53 27.23 -24.05 25.46 -24.56 23.69 C-24.85 22.7 -25.14 21.72 -25.44 20.7 C-26 18 -26 18 -25 15 C-23.02 15 -21.04 15 -19 15 C-18.67 13.35 -18.34 11.7 -18 10 C-17.01 10 -16.02 10 -15 10 C-14.67 11.65 -14.34 13.3 -14 15 C-13.01 15.16 -13.01 15.16 -8 16 C-1.48 5.63 -1.48 5.63 0 0 Z " fill="#B8BEC7" transform="translate(103,135)"/>
<path d="M0 0 C0.99 0 1.98 0 3 0 C3 0.66 3 1.32 3 2 C2.34 2 1.68 2 1 2 C1 3.32 1 4.64 1 6 C1.41 5.36 1.83 4.72 2.25 4.06 C4.17 1.79 5.09 1.29 8 1 C9 2 9 2 9.1 5.6 C9.09 7.09 9.08 8.57 9.06 10.06 C9.06 10.82 9.05 11.58 9.05 12.36 C9.04 14.24 9.02 16.12 9 18 C9.66 18 10.32 18 11 18 C11.07 17.36 11.07 17.36 11.44 14.12 C11.71 11.74 11.92 10.16 13 8 C13.99 8 14.98 8 16 8 C17.67 11.53 18.28 13.31 17 17 C16.03 18.78 15 20.53 13.94 22.25 C13.39 23.14 12.84 24.03 12.28 24.95 C11.86 25.63 11.43 26.3 11 27 C8.69 26.34 6.38 25.68 4 25 C4 23.35 4 21.7 4 20 C3.01 20 2.02 20 1 20 C1 21.65 1 23.3 1 25 C-2.13 26.04 -2.99 25.93 -6 25 C-5.67 25.99 -5.34 26.98 -5 28 C-5.99 27.67 -6.98 27.34 -8 27 C-7.67 24.69 -7.34 22.38 -7 20 C-8.32 20 -9.64 20 -11 20 C-14 13.38 -14 13.38 -14 10 C-13.34 10 -12.68 10 -12 10 C-12 10.66 -12 11.32 -12 12 C-10.02 12 -8.04 12 -6 12 C-6 12.66 -6 13.32 -6 14 C-6.66 14 -7.32 14 -8 14 C-8 15.32 -8 16.64 -8 18 C-5.49 16.74 -5.13 15.5 -4 13 C-2.68 13.33 -1.36 13.66 0 14 C0 14.66 0 15.32 0 16 C0.66 16 1.32 16 2 16 C2 15.34 2 14.68 2 14 C2.83 14.16 2.83 14.16 7 15 C6.19 13.06 6.19 13.06 5 11 C1.87 9.96 1.01 10.07 -2 11 C-2.95 8.83 -3.14 7.44 -2.4 5.18 C-1.64 3.43 -0.82 1.71 0 0 Z " fill="#8A98AD" transform="translate(84,125)"/>
<path d="M0 0 C0.58 0.47 1.16 0.95 1.75 1.44 C3.93 2.95 5.43 3.54 8 4 C7.84 4.78 7.67 5.57 7.5 6.38 C7 9 7 9 7 11 C8.32 11.33 9.64 11.66 11 12 C11 15 11 15 9 18 C10.65 18.99 12.3 19.98 14 21 C13 23.99 12.25 24.95 10 27 C12.37 28.06 12.37 28.06 15 29 C15.66 28.67 16.32 28.34 17 28 C16.65 28.62 16.3 29.24 15.94 29.88 C15.63 30.58 15.32 31.28 15 32 C15.33 32.66 15.66 33.32 16 34 C15.01 34 14.02 34 13 34 C13 34.66 13 35.32 13 36 C11 37.62 11 37.62 9 39 C9.5 39.16 9.5 39.16 12 40 C12 40.66 12 41.32 12 42 C10 44 10 44 7.44 44.5 C7.04 44.58 7.04 44.58 5 45 C4.67 45.66 4.34 46.32 4 47 C2.68 47 1.36 47 0 47 C0 47.99 0 48.98 0 50 C1.65 50 3.3 50 5 50 C3.35 51.32 1.7 52.64 0 54 C-0.66 53.67 -1.32 53.34 -2 53 C-1.67 52.34 -1.34 51.68 -1 51 C-1.99 51 -2.98 51 -4 51 C-4.33 51.99 -4.66 52.98 -5 54 C-6.32 53.34 -7.64 52.68 -9 52 C-8.38 50.06 -8.38 50.06 -7 48 C-3.88 47.25 -3.88 47.25 -1 47 C-1.33 45.68 -1.66 44.36 -2 43 C-3.32 43 -4.64 43 -6 43 C-6.17 42.5 -6.17 42.5 -7 40 C-5.35 40 -3.7 40 -2 40 C-2 39.34 -2 38.68 -2 38 C-0.68 38 0.64 38 2 38 C2.33 37.34 2.66 36.68 3 36 C3 36.99 3 37.98 3 39 C4.65 38.01 6.3 37.02 8 36 C7.34 34.68 6.68 33.36 6 32 C4.35 32 2.7 32 1 32 C0.34 29.69 -0.32 27.38 -1 25 C-0.01 25.33 0.98 25.66 2 26 C2 26.66 2 27.32 2 28 C2.6 27.67 3.2 27.34 3.81 27 C6 26 6 26 9 26 C8.34 25.38 7.68 24.76 7 24.12 C5 22 5 22 5 20 C5.66 20 6.32 20 7 20 C6.34 18.68 5.68 17.36 5 16 C4.01 16.33 3.02 16.66 2 17 C2.33 14.03 2.66 11.06 3 8 C2.01 7.84 2.01 7.84 -3 7 C-2.17 4.5 -1.21 2.33 0 0 Z " fill="#B9A667" transform="translate(102,22)"/>
<path d="M0 0 C2.2 4.4 0.17 10.44 -1 15 C-2.69 18.28 -4.66 21.15 -7 24 C-7.99 23.01 -8.98 22.02 -10 21 C-10.07 21.58 -10.14 22.16 -10.21 22.75 C-13.56 49.83 -13.56 49.83 -21 59 C-21.66 59 -22.32 59 -23 59 C-24.48 56.04 -24.06 53.26 -24 50 C-23.34 50 -22.68 50 -22 50 C-21.34 48.68 -20.68 47.36 -20 46 C-19.34 46 -18.68 46 -18 46 C-18 44.35 -18 42.7 -18 41 C-18.99 40.67 -19.98 40.34 -21 40 C-21.66 42.31 -22.32 44.62 -23 47 C-23.66 47 -24.32 47 -25 47 C-24.67 44.03 -24.34 41.06 -24 38 C-23.5 37.84 -23.5 37.84 -21 37 C-21.16 36.5 -21.16 36.5 -22 34 C-22.13 31.33 -22.04 28.68 -22 26 C-20.68 25.67 -19.36 25.34 -18 25 C-17.67 27.64 -17.34 30.28 -17 33 C-16.34 33 -15.68 33 -15 33 C-15 32.34 -15 31.68 -15 31 C-14.34 31 -13.68 31 -13 31 C-13.33 30.01 -13.66 29.02 -14 28 C-14.09 26.5 -14.13 25 -14.12 23.5 C-14.13 22.73 -14.13 21.95 -14.13 21.16 C-14 19 -14 19 -13 16 C-13.66 16.33 -13.66 16.33 -17 18 C-16.67 14.7 -16.34 11.4 -16 8 C-15.01 7.67 -14.02 7.34 -13 7 C-11.81 3.94 -11.81 3.94 -11 1 C-10.34 1 -9.68 1 -9 1 C-9.66 3.31 -10.32 5.62 -11 8 C-11.99 8 -12.98 8 -14 8 C-14 8.99 -14 9.98 -14 11 C-13.01 11 -12.02 11 -11 11 C-10.67 12.98 -10.34 14.96 -10 17 C-9.34 16.67 -8.68 16.34 -8 16 C-7.34 16.33 -6.68 16.66 -6 17 C-6 15.68 -6 14.36 -6 13 C-5.34 13 -4.68 13 -4 13 C-4.04 12.05 -4.08 11.1 -4.12 10.12 C-4 7 -4 7 -2 5 C-1.29 3.35 -0.62 1.68 0 0 Z " fill="#D8CDC2" transform="translate(150,79)"/>
<path d="M0 0 C1.88 0.31 1.88 0.31 4 1 C4.66 1.99 5.32 2.98 6 4 C8.12 4.69 8.12 4.69 10 5 C10 4.34 10 3.68 10 3 C10.99 3.33 11.98 3.66 13 4 C13 4.66 13 5.32 13 6 C9.77 8.15 8.72 8.2 5 8 C5 8.66 5 9.32 5 10 C5.66 9.67 6.32 9.34 7 9 C8.54 8.93 10.08 8.92 11.62 8.94 C12.03 8.94 12.03 8.94 14.1 8.96 C14.41 8.97 14.41 8.97 16 9 C16 9.66 16 10.32 16 11 C15.01 11.33 14.02 11.66 13 12 C12.67 16.62 12.34 21.24 12 26 C10.35 25.67 8.7 25.34 7 25 C5.86 20.73 5 17.44 5 13 C4.34 13 3.68 13 3 13 C3.22 13.93 3.43 14.86 3.66 15.82 C3.93 17.05 4.21 18.29 4.5 19.56 C4.78 20.78 5.06 22 5.34 23.25 C5.99 26.92 6.11 30.29 6 34 C4.35 33.67 2.7 33.34 1 33 C0.92 28.81 1.18 25.09 2 21 C1.67 20.34 1.34 19.68 1 19 C0.34 19.66 -0.32 20.32 -1 21 C-1.99 21 -2.98 21 -4 21 C-4 21.99 -4 22.98 -4 24 C-4.66 24 -5.32 24 -6 24 C-6.33 21.69 -6.66 19.38 -7 17 C-5.68 17 -4.36 17 -3 17 C-1.35 14.03 -0.56 11.34 0 8 C-0.66 8 -1.32 8 -2 8 C-2.66 9.98 -3.32 11.96 -4 14 C-4.66 14 -5.32 14 -6 14 C-6.33 11.03 -6.66 8.06 -7 5 C-5.68 4.67 -4.36 4.34 -3 4 C-1.25 1.94 -1.25 1.94 0 0 Z " fill="#595A4D" transform="translate(54,74)"/>
<path d="M0 0 C-0.99 0.33 -1.98 0.66 -3 1 C-3.33 3.97 -3.66 6.94 -4 10 C-3.34 10 -2.68 10 -2 10 C-1.67 9.34 -1.34 8.68 -1 8 C-0.34 9.65 0.32 11.3 1 13 C0.34 13 -0.32 13 -1 13 C-1 13.66 -1 14.32 -1 15 C0.32 15.66 1.64 16.32 3 17 C3 17.66 3 18.32 3 19 C0.35 20.46 -0.89 21 -4 21 C-5.69 19.5 -5.69 19.5 -7 18 C-7 18.99 -7 19.98 -7 21 C-7.99 21 -8.98 21 -10 21 C-10 19.68 -10 18.36 -10 17 C-11.32 17.99 -12.64 18.98 -14 20 C-14.66 19.67 -15.32 19.34 -16 19 C-16 19.66 -16 20.32 -16 21 C-18.64 20.67 -21.28 20.34 -24 20 C-24 19.34 -24 18.68 -24 18 C-22.02 17.67 -20.04 17.34 -18 17 C-18 16.01 -18 15.02 -18 14 C-18.66 14 -19.32 14 -20 14 C-20.33 12.68 -20.66 11.36 -21 10 C-19.35 10 -17.7 10 -16 10 C-16.04 9.64 -16.04 9.64 -16.25 7.81 C-16 5 -16 5 -14.75 2.19 C-10.33 -1.33 -5.44 -0.39 0 0 Z " fill="#6F6F56" transform="translate(108,29)"/>
<path d="M0 0 C0.99 0.99 1.98 1.98 3 3 C3.99 3 4.98 3 6 3 C6 3.99 6 4.98 6 6 C7.65 6 9.3 6 11 6 C11.33 8.97 11.66 11.94 12 15 C12.33 12.36 12.66 9.72 13 7 C13.99 7 14.98 7 16 7 C16.05 8.58 16.09 10.17 16.12 11.75 C16.15 12.63 16.17 13.51 16.2 14.42 C15.99 17.16 15.32 18.63 14 21 C13.3 23.32 12.63 25.66 12 28 C9.03 28.66 6.06 29.32 3 30 C2.67 25.71 2.34 21.42 2 17 C0.02 17 -1.96 17 -4 17 C-4.63 21.04 -5.12 24.91 -5 29 C-5.66 29 -6.32 29 -7 29 C-7.19 26.54 -7.38 24.08 -7.56 21.62 C-7.62 20.93 -7.67 20.23 -7.73 19.51 C-8.11 14.23 -8.11 14.23 -7 12 C0.44 11.63 0.44 11.63 3 13.31 C4 15 4 15 4 18 C4.66 18 5.32 18 6 18 C5.92 17.52 5.92 17.52 5.5 15.06 C5 12 5 12 5 11 C4.34 11 3.68 11 3 11 C3 10.34 3 9.68 3 9 C1.68 9 0.36 9 -1 9 C-0.67 6.03 -0.34 3.06 0 0 Z " fill="#7F8B9D" transform="translate(102,96)"/>
<path d="M0 0 C0.33 0.99 0.66 1.98 1 3 C1.99 3 2.98 3 4 3 C4 3.99 4 4.98 4 6 C3.01 6.66 2.02 7.32 1 8 C0.81 10.62 0.81 10.62 1 13 C2.98 13 4.96 13 7 13 C6.67 12.01 6.34 11.02 6 10 C8.64 10 11.28 10 14 10 C14 10.99 14 11.98 14 13 C13.34 13.33 12.68 13.66 12 14 C12 14.66 12 15.32 12 16 C12.66 16.66 13.32 17.32 14 18 C12.02 18.66 10.04 19.32 8 20 C8 22 8 22 8.56 24 C9 26 9 26 8 28 C7.34 28 6.68 28 6 28 C5 25 4 22 3 19 C0.94 18.31 0.94 18.31 -1 18 C-1 17.34 -1 16.68 -1 16 C-1.99 16 -2.98 16 -4 16 C-4 15.01 -4 14.02 -4 13 C-6.97 13.66 -9.94 14.32 -13 15 C-13 13.68 -13 12.36 -13 11 C-13.99 11 -14.98 11 -16 11 C-16 12.32 -16 13.64 -16 15 C-16.66 15 -17.32 15 -18 15 C-18.33 15.66 -18.66 16.32 -19 17 C-19.24 14.14 -19.42 11.8 -19 9 C-15.85 5.48 -12.46 4.32 -8 3 C-7.67 2.67 -7.34 2.34 -7 2 C-4.67 1.96 -2.33 1.96 0 2 C0 1.34 0 0.68 0 0 Z " fill="#9DA1A6" transform="translate(32,62)"/>
<path d="M0 0 C2.02 0.07 4.04 0.13 6.05 0.2 C6.05 2.51 6.05 4.82 6.05 7.2 C6.71 7.2 7.37 7.2 8.05 7.2 C8.71 4.89 9.37 2.58 10.05 0.2 C11.04 0.53 12.03 0.86 13.05 1.2 C12 4.6 11.05 7.21 9.05 10.2 C7.73 10.2 6.41 10.2 5.05 10.2 C5.38 12.51 5.71 14.82 6.05 17.2 C6.71 17.2 7.37 17.2 8.05 17.2 C8.05 16.21 8.05 15.22 8.05 14.2 C9.04 13.87 10.03 13.54 11.05 13.2 C11.71 12.54 12.37 11.88 13.05 11.2 C15.05 14.2 15.05 14.2 14.74 16.51 C14.52 17.39 14.29 18.28 14.05 19.2 C13.72 21.19 13.38 23.19 13.05 25.2 C12.72 23.88 12.39 22.56 12.05 21.2 C11.39 21.2 10.73 21.2 10.05 21.2 C9.39 22.52 8.73 23.84 8.05 25.2 C6.07 24.54 4.09 23.88 2.05 23.2 C2.05 24.52 2.05 25.84 2.05 27.2 C1.39 27.2 0.73 27.2 0.05 27.2 C-0.28 23.24 -0.61 19.28 -0.95 15.2 C-1.61 15.53 -1.61 15.53 -4.95 17.2 C-5.61 15.55 -6.27 13.9 -6.95 12.2 C-5.3 11.54 -3.65 10.88 -1.95 10.2 C-1.95 7.89 -1.95 5.58 -1.95 3.2 C-2.61 2.87 -3.27 2.54 -3.95 2.2 C-1.95 0.2 -1.95 0.2 0 0 Z " fill="#717278" transform="translate(41.9453125,80.8046875)"/>
<path d="M0 0 C0.66 0.33 1.32 0.66 2 1 C2 1.99 2 2.98 2 4 C3.32 4 4.64 4 6 4 C6 5.98 6 7.96 6 10 C6.66 9.34 7.32 8.68 8 8 C10 8 12 8 14 8 C16.38 7 16.38 7 18 6 C18.99 7.65 19.98 9.3 21 11 C20.01 11.66 19.02 12.32 18 13 C16.22 15.66 15.01 17.96 14 21 C13.18 20.93 12.36 20.86 11.52 20.79 C8.25 20.63 5.24 20.57 2 21 C-0.56 23.88 -0.56 23.88 -2 27 C-2.99 27.66 -3.98 28.32 -5 29 C-5.99 28.34 -6.98 27.68 -8 27 C-8 26.34 -8 25.68 -8 25 C-8.66 25 -9.32 25 -10 25 C-10.33 23.68 -10.66 22.36 -11 21 C-10.34 21 -9.68 21 -9 21 C-9 21.66 -9 22.32 -9 23 C-8.34 23 -7.68 23 -7 23 C-7 21.68 -7 20.36 -7 19 C-5.35 19 -3.7 19 -2 19 C-1.67 18.01 -1.34 17.02 -1 16 C-0.34 16.99 0.32 17.98 1 19 C1.33 17.02 1.66 15.04 2 13 C0.68 12.34 -0.64 11.68 -2 11 C-1.34 7.37 -0.68 3.74 0 0 Z M4 12 C5 14 5 14 5 14 Z " fill="#E3E3E4" transform="translate(114,132)"/>
<path d="M0 0 C-0.26 1.75 -0.53 3.5 -0.81 5.25 C-0.96 6.22 -1.11 7.2 -1.27 8.2 C-2.03 11.12 -3.04 12.74 -5 15 C-4.34 15 -3.68 15 -3 15 C-3 17.31 -3 19.62 -3 22 C-2.34 22 -1.68 22 -1 22 C-0.67 16.39 -0.34 10.78 0 5 C0.33 5.5 0.33 5.5 2 8 C2.99 8.33 3.98 8.66 5 9 C5.33 8.34 5.66 7.68 6 7 C6 8.98 6 10.96 6 13 C6.99 12.67 7.98 12.34 9 12 C9 16.95 9 21.9 9 27 C8.34 27 7.68 27 7 27 C7 27.66 7 28.32 7 29 C6.34 29 5.68 29 5 29 C4.67 26.36 4.34 23.72 4 21 C3.01 21.33 2.02 21.66 1 22 C1.03 22.77 1.07 23.54 1.11 24.34 C1.13 25.34 1.16 26.34 1.19 27.38 C1.22 28.37 1.26 29.37 1.29 30.4 C1.2 31.26 1.1 32.12 1 33 C0.01 33.66 -0.98 34.32 -2 35 C-2.66 35.99 -3.32 36.98 -4 38 C-4.12 30.38 -4.12 30.38 -3 27 C-4.65 27.33 -6.3 27.66 -8 28 C-8.44 8.09 -8.44 8.09 -6 2 C-3 0 -3 0 0 0 Z " fill="#969596" transform="translate(128,83)"/>
<path d="M0 0 C0.16 0.66 0.16 0.66 1 4 C1.99 4 2.98 4 4 4 C4.16 4.49 4.16 4.49 5 7 C4.64 7.06 4.64 7.06 2.85 7.37 C1.93 7.53 1.01 7.7 0.06 7.88 C-0.85 8.04 -1.77 8.2 -2.71 8.37 C-3.47 8.58 -4.22 8.78 -5 9 C-5.33 9.66 -5.66 10.32 -6 11 C-7.32 11 -8.64 11 -10 11 C-9.67 12.32 -9.34 13.64 -9 15 C-13.75 16.12 -13.75 16.12 -16 15 C-16 16.32 -16 17.64 -16 19 C-18.97 19 -21.94 19 -25 19 C-25 19.99 -25 20.98 -25 22 C-28.95 22.18 -31.6 22.09 -35 20 C-35 18.68 -35 17.36 -35 16 C-33.02 15.67 -31.04 15.34 -29 15 C-29.33 14.34 -29.66 13.68 -30 13 C-32.32 12.59 -34.66 12.26 -37 12 C-37 11.67 -37 11.34 -37 11 C-35.02 10.67 -33.04 10.34 -31 10 C-31.33 9.34 -31.66 8.68 -32 8 C-30.35 8.33 -28.7 8.66 -27 9 C-27 10.98 -27 12.96 -27 15 C-25.68 14.67 -24.36 14.34 -23 14 C-23 13.34 -23 12.68 -23 12 C-21.68 11.67 -20.36 11.34 -19 11 C-19.66 11 -20.32 11 -21 11 C-19.73 8.16 -18.55 5.86 -16 4 C-13.68 4.28 -12.09 4.95 -10 6 C-10 6.66 -10 7.32 -10 8 C-9.34 8 -8.68 8 -8 8 C-8 7.01 -8 6.02 -8 5 C-6.68 5 -5.36 5 -4 5 C-4.16 4.51 -4.16 4.51 -5 2 C-2 0 -2 0 0 0 Z " fill="#696557" transform="translate(93,53)"/>
<path d="M0 0 C3.34 -0.07 5.8 -0.07 9 1 C9.99 1 10.98 1 12 1 C12.33 3.64 12.66 6.28 13 9 C13.66 7.68 14.32 6.36 15 5 C16.6 9.95 15.28 14.13 14 19 C15.32 19 16.64 19 18 19 C18.33 18.67 18.66 18.34 19 18 C19.99 18.99 20.98 19.98 22 21 C21.67 21.99 21.34 22.98 21 24 C21 25.32 21 26.64 21 28 C20.34 28 19.68 28 19 28 C18.81 27.6 18.81 27.6 17.88 25.56 C16 23 16 23 14.03 22.45 C12.03 22.21 10.01 22.1 8 22 C8 22.66 8 23.32 8 24 C7.34 24 6.68 24 6 24 C6.33 22.35 6.66 20.7 7 19 C8.32 19.33 9.64 19.66 11 20 C11.33 17.36 11.66 14.72 12 12 C11.34 12 10.68 12 10 12 C10 10.02 10 8.04 10 6 C7.75 8.05 7 9.01 6 12 C5.01 12.66 4.02 13.32 3 14 C2.49 15.95 2.49 15.95 2.31 18.12 C2.26 18.76 2.26 18.76 2 22 C0.68 21.67 -0.64 21.34 -2 21 C-3.04 16.37 -3.52 11.71 -4 7 C-3.34 7 -2.68 7 -2 7 C-2 7.66 -2 8.32 -2 9 C-1.34 8.67 -0.68 8.34 0 8 C0 7.01 0 6.02 0 5 C-1.32 5 -2.64 5 -4 5 C-4 4.34 -4 3.68 -4 3 C-2.68 3 -1.36 3 0 3 C0 2.01 0 1.02 0 0 Z " fill="#686668" transform="translate(87,86)"/>
<path d="M0 0 C6.86 1.5 6.86 1.5 10 3 C11.56 6.62 11.56 6.62 12 10 C12.33 10.33 12.66 10.66 13 11 C13.14 14.84 13.18 18.32 12 22 C10.68 22 9.36 22 8 22 C7.34 21.01 6.68 20.02 6 19 C3.38 17.81 3.38 17.81 1 17 C0.67 17.83 0.67 17.83 -1 22 C-1.99 22 -2.98 22 -4 22 C-3.94 20.89 -3.88 19.77 -3.81 18.62 C-3.84 18.03 -3.84 18.03 -4 15 C-4.99 14.34 -5.98 13.68 -7 13 C-7.73 11.2 -7.73 11.2 -8.19 9.12 C-8.35 8.45 -8.5 7.77 -8.67 7.07 C-9 5 -9 5 -9 1 C-8.34 1 -7.68 1 -7 1 C-6.34 4.96 -5.68 8.92 -5 13 C-3.35 13.33 -1.7 13.66 0 14 C0 9.38 0 4.76 0 0 Z " fill="#787778" transform="translate(66,86)"/>
<path d="M0 0 C3.09 2.06 3.48 2.86 5 6 C5.66 6.33 6.32 6.66 7 7 C7 8.32 7 9.64 7 11 C7.99 11.66 8.98 12.32 10 13 C10 14.32 10 15.64 10 17 C10.33 17.99 10.66 18.98 11 20 C12.65 19.67 14.3 19.34 16 19 C16 19.66 16 20.32 16 21 C14.02 21.33 12.04 21.66 10 22 C9.67 21.01 9.34 20.02 9 19 C8.34 18.67 7.68 18.34 7 18 C7.33 19.32 7.66 20.64 8 22 C6.72 22.12 5.44 22.25 4.12 22.38 C0.25 22.75 0.25 22.75 -2 25 C-2 24.34 -2 23.68 -2 23 C-3.65 23.33 -5.3 23.66 -7 24 C-6.34 23.01 -5.68 22.02 -5 21 C-5.99 20.34 -6.98 19.68 -8 19 C-7.75 17.12 -7.75 17.12 -7 15 C-4.94 13.75 -4.94 13.75 -3 13 C-3.99 12.34 -4.98 11.68 -6 11 C-5.34 9.68 -4.68 8.36 -4 7 C-3.34 7 -2.68 7 -2 7 C-1.86 6.4 -1.71 5.8 -1.56 5.19 C-1.11 3.44 -0.57 1.71 0 0 Z " fill="#B9B6A1" transform="translate(53,30)"/>
<path d="M0 0 C0.99 0 1.98 0 3 0 C3.33 2.64 3.66 5.28 4 8 C5.32 8.33 6.64 8.66 8 9 C7.67 9.99 7.34 10.98 7 12 C6.01 12 5.02 12 4 12 C4 13.65 4 15.3 4 17 C3.34 17 2.68 17 2 17 C1.67 17.66 1.34 18.32 1 19 C0.01 19 -0.98 19 -2 19 C-3.74 22.23 -4.89 25.51 -6 29 C-7.65 29 -9.3 29 -11 29 C-10.67 30.32 -10.34 31.64 -10 33 C-9.34 33 -8.68 33 -8 33 C-8 33.99 -8 34.98 -8 36 C-10.31 36 -12.62 36 -15 36 C-15 36.66 -15 37.32 -15 38 C-15.66 38 -16.32 38 -17 38 C-17.93 34.99 -18.04 34.13 -17 31 C-15.68 31.33 -14.36 31.66 -13 32 C-12.9 31.38 -12.79 30.76 -12.69 30.12 C-12 28 -12 28 -9 26 C-9.59 22.98 -10.23 19.98 -11 17 C-9.02 16.01 -7.04 15.02 -5 14 C-5 13.34 -5 12.68 -5 12 C-5 10.68 -5 9.36 -5 8 C-4.01 7.34 -3.02 6.68 -2 6 C-0.81 2.87 -0.81 2.87 0 0 Z " fill="#7A7962" transform="translate(98,10)"/>
<path d="M0 0 C3.3 0.66 6.6 1.32 10 2 C9.33 5.36 8.67 8.2 7.56 11.38 C6.6 14.18 5.74 16.95 4.94 19.81 C4.17 22.43 3.33 24.63 2 27 C2 24.36 2 21.72 2 19 C1.01 19 0.02 19 -1 19 C-1 18.01 -1 17.02 -1 16 C-0.01 16 0.98 16 2 16 C2.66 13.69 3.32 11.38 4 9 C3.34 9 2.68 9 2 9 C1.71 9.97 1.42 10.94 1.12 11.94 C0 15 0 15 -2 16 C-2.72 17.64 -3.39 19.31 -4 21 C-5.32 20.67 -6.64 20.34 -8 20 C-7.67 16.7 -7.34 13.4 -7 10 C-8.98 9.34 -10.96 8.68 -13 8 C-13 7.34 -13 6.68 -13 6 C-12.34 6 -11.68 6 -11 6 C-11 5.34 -11 4.68 -11 4 C-9.56 3.95 -8.13 3.91 -6.69 3.88 C-5.89 3.85 -5.09 3.83 -4.26 3.8 C-2 4 -2 4 1 6 C1.99 5.67 2.98 5.34 4 5 C4 4.34 4 3.68 4 3 C2.35 2.67 0.7 2.34 -1 2 C-0.67 1.34 -0.34 0.68 0 0 Z " fill="#887F67" transform="translate(137,71)"/>
<path d="M0 0 C0.33 0 0.66 0 1 0 C1 1.98 1 3.96 1 6 C1.99 6 2.98 6 4 6 C5.08 8.65 6.09 11.28 7 14 C9 13 9 13 11 10 C11.33 10.99 11.66 11.98 12 13 C12.93 12.96 13.86 12.92 14.81 12.88 C18 13 18 13 21 15 C21 14.01 21 13.02 21 12 C22.32 12.33 23.64 12.66 25 13 C25 13.66 25 14.32 25 15 C26.32 14.67 27.64 14.34 29 14 C28.81 15.88 28.81 15.88 28 18 C25.44 19.25 25.44 19.25 23 20 C22.67 19.67 22.34 19.34 22 19 C21.67 21.31 21.34 23.62 21 26 C19.02 25.34 17.04 24.68 15 24 C14.67 20.7 14.34 17.4 14 14 C13.34 14 12.68 14 12 14 C12.01 14.63 12.02 15.25 12.04 15.9 C12.04 16.31 12.04 16.31 12.06 18.38 C12.07 19.19 12.09 20 12.1 20.84 C12 23 12 23 11 25 C8.69 24.44 8.69 24.44 6 23 C3.86 19.01 3 16.55 3 12 C2.34 12 1.68 12 1 12 C0.02 7.95 -0.08 4.16 0 0 Z " fill="#9CA9BC" transform="translate(27,104)"/>
<path d="M0 0 C0.66 0.33 1.32 0.66 2 1 C2.6 2.89 2.6 2.89 3.06 5.25 C3.14 5.65 3.14 5.65 3.56 7.7 C3.7 8.46 3.85 9.22 4 10 C4.21 11.01 4.41 12.02 4.62 13.06 C4.75 13.7 4.87 14.34 5 15 C5.83 15.16 5.83 15.16 10 16 C10.33 16.99 10.66 17.98 11 19 C9.35 18.67 7.7 18.34 6 18 C6.66 20.64 7.32 23.28 8 26 C7.01 26.66 6.02 27.32 5 28 C4 27 4 27 3.94 24.44 C3.96 23.63 3.98 22.83 4 22 C3.01 22.66 2.02 23.32 1 24 C-0.32 24 -1.64 24 -3 24 C-3 20.37 -3 16.74 -3 13 C-5.31 13 -7.62 13 -10 13 C-10.33 13.99 -10.66 14.98 -11 16 C-13 13 -13 13 -13 11 C-13.66 11 -14.32 11 -15 11 C-15 10.01 -15 9.02 -15 8 C-13.68 8.33 -12.36 8.66 -11 9 C-11 7.68 -11 6.36 -11 5 C-9.68 5 -8.36 5 -7 5 C-6.67 5.99 -6.34 6.98 -6 8 C-3.44 9.69 -3.44 9.69 -1 11 C-0.67 7.37 -0.34 3.74 0 0 Z " fill="#D6DCE7" transform="translate(39,118)"/>
<path d="M0 0 C1.98 0 3.96 0 6 0 C5.01 0.66 4.02 1.32 3 2 C2.31 4.63 2.31 4.63 2 7 C3.32 7.33 4.64 7.66 6 8 C5.67 9.98 5.34 11.96 5 14 C-7.41 17.09 -7.41 17.09 -12.38 15 C-12.64 14.84 -12.64 14.84 -14 14 C-13 12 -13 12 -12 11 C-13.98 11 -15.96 11 -18 11 C-18 10.34 -18 9.68 -18 9 C-18.66 9 -19.32 9 -20 9 C-19.67 7.35 -19.34 5.7 -19 4 C-17.02 3.67 -15.04 3.34 -13 3 C-13 4.32 -13 5.64 -13 7 C-12.01 7.66 -11.02 8.32 -10 9 C-9.67 8.34 -9.34 7.68 -9 7 C-8.01 7 -7.02 7 -6 7 C-5.67 7.66 -5.34 8.32 -5 9 C-4.01 8.34 -3.02 7.68 -2 7 C-2.99 6.67 -3.98 6.34 -5 6 C-5 5.01 -5 4.02 -5 3 C-3.68 3 -2.36 3 -1 3 C-0.67 2.01 -0.34 1.02 0 0 Z " fill="#C6B387" transform="translate(107,66)"/>
<path d="M0 0 C0.66 0 1.32 0 2 0 C2.33 2.31 2.66 4.62 3 7 C3.99 7 4.98 7 6 7 C6 6.34 6 5.68 6 5 C6.66 5 7.32 5 8 5 C8 4.34 8 3.68 8 3 C9.32 3.66 10.64 4.32 12 5 C11.67 6.65 11.34 8.3 11 10 C9.68 9.67 8.36 9.34 7 9 C7.33 11.97 7.66 14.94 8 18 C5.69 17.34 3.38 16.68 1 16 C1 17.65 1 19.3 1 21 C-1 21 -1 21 -2.62 19.5 C-3.08 19 -3.53 18.51 -4 18 C-4.33 19.65 -4.66 21.3 -5 23 C-5.66 23 -6.32 23 -7 23 C-7 19.7 -7 16.4 -7 13 C-6.67 13.5 -6.67 13.5 -5 16 C-2.56 15.19 -2.56 15.19 0 14 C0.33 13.01 0.66 12.02 1 11 C-0.32 11.33 -1.64 11.66 -3 12 C-3 11.34 -3 10.68 -3 10 C-4.13 9.86 -5.27 9.71 -6.44 9.56 C-10 9 -10 9 -11 8 C-11.04 6.33 -11.04 4.67 -11 3 C-9.31 2.31 -9.31 2.31 -7 2 C-4.31 3.25 -4.31 3.25 -2 5 C-1.67 5.99 -1.34 6.98 -1 8 C-0.67 5.36 -0.34 2.72 0 0 Z " fill="#969FAE" transform="translate(55,107)"/>
<path d="M0 0 C1.32 0.33 2.64 0.66 4 1 C3.01 1 2.02 1 1 1 C1 1.66 1 2.32 1 3 C3.64 3.33 6.28 3.66 9 4 C9 3.34 9 2.68 9 2 C10.98 1.34 12.96 0.68 15 0 C14.67 2.97 14.34 5.94 14 9 C13.67 8.34 13.34 7.68 13 7 C10.36 7.66 7.72 8.32 5 9 C5.66 10.32 6.32 11.64 7 13 C6.17 12.84 6.17 12.84 2 12 C2 12.99 2 13.98 2 15 C1.34 15 0.68 15 0 15 C0 14.34 0 13.68 0 13 C-2.69 12.12 -2.69 12.12 -6 12 C-8.14 13.79 -9.39 15.68 -11 18 C-10.01 17.67 -9.02 17.34 -8 17 C-8.33 17.99 -8.66 18.98 -9 20 C-10.32 19.67 -11.64 19.34 -13 19 C-13 19.66 -13 20.32 -13 21 C-14.32 21.33 -15.64 21.66 -17 22 C-17 21.01 -17 20.02 -17 19 C-16.01 18.67 -15.02 18.34 -14 18 C-13.31 16.03 -12.62 14.06 -11.95 12.08 C-10.34 8.55 -8.27 7.07 -5 5 C-2.62 5.19 -2.62 5.19 -1 6 C-0.67 4.02 -0.34 2.04 0 0 Z " fill="#978D5A" transform="translate(83,46)"/>
<path d="M0 0 C0 0.66 0 1.32 0 2 C1.98 2.99 3.96 3.98 6 5 C5.65 13.25 5.65 13.25 3.06 16.25 C2.38 16.83 1.7 17.41 1 18 C-0.86 21.82 -1.88 25.91 -3 30 C-3.66 30 -4.32 30 -5 30 C-5 31.32 -5 32.64 -5 34 C-6.32 34 -7.64 34 -9 34 C-8.25 26.38 -8.25 26.38 -6 23 C-5.44 21.52 -4.92 20.01 -4.44 18.5 C-4.19 17.73 -3.94 16.95 -3.68 16.16 C-3.57 15.8 -3.57 15.8 -3 14 C-2.67 13.01 -2.34 12.02 -2 11 C-3.65 11 -5.3 11 -7 11 C-7.33 10.34 -7.66 9.68 -8 9 C-5.69 9.33 -3.38 9.66 -1 10 C-0.67 10.99 -0.34 11.98 0 13 C0.33 11.35 0.66 9.7 1 8 C0.01 7.67 -0.98 7.34 -2 7 C-2 6.34 -2 5.68 -2 5 C-3.98 4.34 -5.96 3.68 -8 3 C-8 2.01 -8 1.02 -8 0 C-4.95 -0.98 -3.05 -0.98 0 0 Z " fill="#B2A587" transform="translate(149,62)"/>
<path d="M0 0 C0.99 0.99 1.98 1.98 3 3 C3.66 2.34 4.32 1.68 5 1 C5.99 3.31 6.98 5.62 8 8 C8.99 7.01 9.98 6.02 11 5 C11.33 5.66 11.66 6.32 12 7 C11.06 9.12 11.06 9.12 10 11 C8.68 10.67 7.36 10.34 6 10 C6 9.34 6 8.68 6 8 C5.34 8 4.68 8 4 8 C4.25 8.45 4.25 8.45 5.5 10.75 C7 14 7 14 7 18 C8.32 18 9.64 18 11 18 C11 20.64 11 23.28 11 26 C8.69 26.33 6.38 26.66 4 27 C0.63 21.95 -0.22 17.05 -0.78 11.12 C-1.03 8.71 -1.47 6.37 -2 4 C-1.34 3.67 -0.68 3.34 0 3 C0 2.01 0 1.02 0 0 Z " fill="#AAB7C9" transform="translate(66,127)"/>
<path d="M0 0 C1.81 0.06 1.81 0.06 4 1 C4.47 2.13 4.95 3.27 5.44 4.44 C7 8 7 8 9.69 9.44 C10.45 9.62 11.21 9.81 12 10 C12.66 8.68 13.32 7.36 14 6 C15.02 8.18 16.01 10.37 17 12.56 C17.14 12.87 17.14 12.87 17.87 14.41 C19.81 18.77 20.29 22.25 20 27 C17.21 25.6 17 24 15.88 21.12 C15.52 20.24 15.17 19.36 14.8 18.45 C14 16 14 16 14 13 C13.01 13.33 12.02 13.66 11 14 C10.67 13.01 10.34 12.02 10 11 C9.34 11 8.68 11 8 11 C8.81 12.94 8.81 12.94 10 15 C10.99 15.33 11.98 15.66 13 16 C13.12 18.88 13.12 18.88 13 22 C12.34 22.66 11.68 23.32 11 24 C10.34 23.01 9.68 22.02 9 21 C8.01 21 7.02 21 6 21 C0.71 16.13 0.73 6.73 0 0 Z " fill="#9199A5" transform="translate(15,80)"/>
<path d="M0 0 C1.32 0.33 2.64 0.66 4 1 C4.33 1.99 4.66 2.98 5 4 C6.32 3.67 7.64 3.34 9 3 C9.99 4.65 10.98 6.3 12 8 C12.66 6.68 13.32 5.36 14 4 C15.43 12.57 15.43 12.57 13 16 C12.34 16 11.68 16 11 16 C11.33 17.32 11.66 18.64 12 20 C11.01 19.67 10.02 19.34 9 19 C9 17.35 9 15.7 9 14 C9.99 14 10.98 14 12 14 C12 13.01 12 12.02 12 11 C11.01 11 10.02 11 9 11 C8.67 11.66 8.34 12.32 8 13 C6.35 13 4.7 13 3 13 C3 13.66 3 14.32 3 15 C1.35 15 -0.3 15 -2 15 C-2 14.01 -2 13.02 -2 12 C-2.66 12 -3.32 12 -4 12 C-4 12.66 -4 13.32 -4 14 C-4.66 14 -5.32 14 -6 14 C-6.33 11.69 -6.66 9.38 -7 7 C-6.17 7.33 -6.17 7.33 -2 9 C-1.34 6.03 -0.68 3.06 0 0 Z " fill="#7C7F86" transform="translate(68,108)"/>
<path d="M0 0 C0 0.99 0 1.98 0 3 C0.83 3.33 0.83 3.33 5 5 C5 4.34 5 3.68 5 3 C5.66 3 6.32 3 7 3 C7 2.34 7 1.68 7 1 C7.45 1.09 7.45 1.09 9.75 1.56 C12.68 1.96 14.26 1.95 17 1 C17.33 1.99 17.66 2.98 18 4 C15.6 6.4 14.67 6.34 11.38 6.62 C10.56 6.7 9.74 6.77 8.9 6.85 C8.27 6.9 7.65 6.95 7 7 C7 8.32 7 9.64 7 11 C5.68 11 4.36 11 3 11 C3 12.32 3 13.64 3 15 C1.68 15 0.36 15 -1 15 C-0.34 13.35 0.32 11.7 1 10 C-0.98 10.33 -2.96 10.66 -5 11 C-5.33 10.01 -5.66 9.02 -6 8 C-6.99 7.67 -7.98 7.34 -9 7 C-9 5.35 -9 3.7 -9 2 C-5.87 0.14 -3.63 -0.2 0 0 Z " fill="#988C55" transform="translate(118,66)"/>
<path d="M0 0 C0.66 0 1.32 0 2 0 C4.62 6.88 4.18 13.72 4 21 C4.66 21 5.32 21 6 21 C5.81 20.34 5.63 19.68 5.44 19 C4.87 15.11 5.41 11.89 6 8 C8.64 8 11.28 8 14 8 C14 12.62 14 17.24 14 22 C14.66 22.33 15.32 22.66 16 23 C16.62 26.06 16.62 26.06 17 29 C16.34 29 15.68 29 15 29 C14.67 29.99 14.34 30.98 14 32 C14 31.34 14 30.68 14 30 C13.34 30 12.68 30 12 30 C12.02 29.24 12.05 28.48 12.07 27.7 C12.09 26.71 12.11 25.71 12.12 24.69 C12.15 23.7 12.17 22.72 12.2 21.7 C12 19 12 19 10 16 C10 15.01 10 14.02 10 13 C9.67 13.16 9.67 13.16 8 14 C8 15.98 8 17.96 8 20 C8.66 20 9.32 20 10 20 C9.67 21.98 9.34 23.96 9 26 C7.35 26 5.7 26 4 26 C1.52 20.41 0.71 16.21 0.99 10.1 C1 8 1 8 0 6 C-0.04 4 -0.04 2 0 0 Z " fill="#9CA2AB" transform="translate(91,104)"/>
<path d="M0 0 C0.29 0.24 0.29 0.24 1.75 1.44 C3.93 2.95 5.43 3.54 8 4 C7.84 4.78 7.67 5.57 7.5 6.38 C7 9 7 9 7 11 C8.32 11.33 9.64 11.66 11 12 C11 15 11 15 9 18 C10.65 18.99 12.3 19.98 14 21 C13 23.99 12.25 24.95 10 27 C12.38 28.06 12.38 28.06 15 29 C15.66 28.67 16.32 28.34 17 28 C16.67 28.99 16.34 29.98 16 31 C15.01 31.33 14.02 31.66 13 32 C12.67 31.01 12.34 30.02 12 29 C10.02 29 8.04 29 6 29 C6 28.01 6 27.02 6 26 C6.99 26 7.98 26 9 26 C8.34 25.38 7.68 24.76 7 24.12 C5 22 5 22 5 20 C5.66 20 6.32 20 7 20 C6.34 18.68 5.68 17.36 5 16 C4.01 16.33 3.02 16.66 2 17 C2.33 14.03 2.66 11.06 3 8 C2.01 7.84 2.01 7.84 -3 7 C-2.17 4.5 -1.21 2.33 0 0 Z " fill="#BFB590" transform="translate(102,22)"/>
<path d="M0 0 C1.32 0.33 2.64 0.66 4 1 C4 1.99 4 2.98 4 4 C3.01 4 2.02 4 1 4 C1.38 6.44 1.38 6.44 2 9 C2.66 9.33 3.32 9.66 4 10 C3.67 11.98 3.34 13.96 3 16 C1.68 15.67 0.36 15.34 -1 15 C-1.33 15.99 -1.66 16.98 -2 18 C-2.99 15.69 -3.98 13.38 -5 11 C-5.66 11.66 -6.32 12.32 -7 13 C-7.66 12.34 -8.32 11.68 -9 11 C-10.32 11 -11.64 11 -13 11 C-13.33 8.69 -13.66 6.38 -14 4 C-13.34 4 -12.68 4 -12 4 C-12 3.34 -12 2.68 -12 2 C-11.34 2 -10.68 2 -10 2 C-10 2.99 -10 3.98 -10 5 C-8.35 5 -6.7 5 -5 5 C-5 4.34 -5 3.68 -5 3 C-3.35 3 -1.7 3 0 3 C0 2.01 0 1.02 0 0 Z " fill="#8B94A3" transform="translate(76,118)"/>
<path d="M0 0 C0.99 0 1.98 0 3 0 C3 2.64 3 5.28 3 8 C3.33 8 3.66 8 4 8 C3.67 10.64 3.34 13.28 3 16 C3.66 16 4.32 16 5 16 C5.66 13.69 6.32 11.38 7 9 C8.32 9.33 9.64 9.66 11 10 C10.62 12.44 10.62 12.44 10 15 C9.67 15.16 9.67 15.16 8 16 C7.86 16.33 7.86 16.33 7.12 18 C6.75 18.66 6.38 19.32 6 20 C4.67 20.34 3.34 20.68 2 21 C0.25 23.06 0.25 23.06 -1 25 C-1 24.01 -1 23.02 -1 22 C-1.66 22 -2.32 22 -3 22 C-3.34 13.95 -3.05 7.5 0 0 Z " fill="#B0B3BB" transform="translate(122,110)"/>
<path d="M0 0 C0.66 0 1.32 0 2 0 C2.99 2.31 3.98 4.62 5 7 C5.39 6.53 5.78 6.05 6.19 5.56 C8 4 8 4 13 3 C15.31 5.97 17.62 8.94 20 12 C19.34 13.32 18.68 14.64 18 16 C16.35 16 14.7 16 13 16 C12.67 15.34 12.34 14.68 12 14 C12.82 14.16 12.82 14.16 17 15 C16.34 13.68 15.68 12.36 15 11 C13.68 11 12.36 11 11 11 C11 10.34 11 9.68 11 9 C8.69 9.66 6.38 10.32 4 11 C4 11.33 4 11.66 4 12 C4.99 12.16 4.99 12.16 10 13 C10 13.99 10 14.98 10 16 C7.03 15.67 4.06 15.34 1 15 C0.34 13.02 -0.32 11.04 -1 9 C-1.99 9 -2.98 9 -4 9 C-4.33 9.66 -4.66 10.32 -5 11 C-5 10.01 -5 9.02 -5 8 C-4 7 -3 6 -2 5 C-0.81 2.31 -0.81 2.31 0 0 Z " fill="#BFB89A" transform="translate(121,39)"/>
<path d="M0 0 C0.99 0 1.98 0 3 0 C3.33 1.65 3.66 3.3 4 5 C5.32 5.33 6.64 5.66 8 6 C7.94 8.25 7.94 8.25 7 11 C4.77 12.68 2.53 13.76 0 15 C0 16.32 0 17.64 0 19 C-1.65 19 -3.3 19 -5 19 C-5.53 17.23 -6.05 15.46 -6.56 13.69 C-6.85 12.7 -7.14 11.72 -7.44 10.7 C-8 8 -8 8 -7 5 C-5.02 5 -3.04 5 -1 5 C-0.67 3.35 -0.34 1.7 0 0 Z " fill="#A1AFC2" transform="translate(85,145)"/>
<path d="M0 0 C0.66 0 1.32 0 2 0 C2 1.65 2 3.3 2 5 C2.99 5.16 2.99 5.16 8 6 C7.9 6.38 7.9 6.38 7.38 8.31 C7 11 7 11 9 14 C7.94 15.5 7.94 15.5 6 17 C3.67 17 1.33 17 -1 17 C-1.52 17.52 -2.03 18.03 -2.56 18.56 C-3.04 19.04 -3.51 19.51 -4 20 C-7.06 19.88 -7.06 19.88 -10 19 C-10.66 18.01 -11.32 17.02 -12 16 C-10.19 15.67 -10.19 15.67 -1 14 C-0.67 11.69 -0.34 9.38 0 7 C-1.98 7 -3.96 7 -6 7 C-4.71 5.62 -3.37 4.29 -2 3 C-1.34 3 -0.68 3 0 3 C0 2.01 0 1.02 0 0 Z " fill="#ECEAE7" transform="translate(92,153)"/>
<path d="M0 0 C0.83 0.33 0.83 0.33 5 2 C4.67 2.17 4.67 2.17 3 3 C3 4.98 3 6.96 3 9 C3.99 9 4.98 9 6 9 C6 7.35 6 5.7 6 4 C12.75 4.75 12.75 4.75 15 7 C15 7.99 15 8.98 15 10 C16.32 10 17.64 10 19 10 C19.66 9.01 20.32 8.02 21 7 C21.66 7.33 22.32 7.66 23 8 C22.67 11.3 22.34 14.6 22 18 C21.24 17.17 20.47 16.35 19.69 15.5 C17 13 17 13 14 13 C13.34 12.01 12.68 11.02 12 10 C11.01 9.67 10.02 9.34 9 9 C9 10.98 9 12.96 9 15 C7.35 13.68 5.7 12.36 4 11 C4 11.66 4 12.32 4 13 C3.34 13 2.68 13 2 13 C2 13.66 2 14.32 2 15 C1.01 15 0.02 15 -1 15 C-1 13.68 -1 12.36 -1 11 C-1.66 10.67 -2.32 10.34 -3 10 C-1.68 9.67 -0.36 9.34 1 9 C0.67 6.03 0.34 3.06 0 0 Z " fill="#96908F" transform="translate(59,99)"/>
<path d="M0 0 C2.31 0.66 4.62 1.32 7 2 C9 9.62 9 9.62 9 13 C8.17 12.84 8.17 12.84 4 12 C3.67 11.01 3.34 10.02 3 9 C0.94 8.31 0.94 8.31 -1 8 C-1.33 9.32 -1.66 10.64 -2 12 C-2 11.34 -2 10.68 -2 10 C-2.66 10 -3.32 10 -4 10 C-4 10.66 -4 11.32 -4 12 C-6.67 11.33 -9.33 10.67 -12 10 C-11.67 8.35 -11.34 6.7 -11 5 C-10.67 5.66 -10.34 6.32 -10 7 C-8.68 7 -7.36 7 -6 7 C-5.67 5.35 -5.34 3.7 -5 2 C-4.01 2.33 -3.02 2.66 -2 3 C-2 3.66 -2 4.32 -2 5 C-1.34 5 -0.68 5 0 5 C0 3.35 0 1.7 0 0 Z " fill="#BAC7D9" transform="translate(56,123)"/>
<path d="M0 0 C0.33 1.32 0.66 2.64 1 4 C1.99 4 2.98 4 4 4 C4.33 4.99 4.66 5.98 5 7 C4.64 7.06 4.64 7.06 2.85 7.37 C1.93 7.53 1.01 7.7 0.06 7.88 C-0.4 7.96 -0.4 7.96 -2.71 8.37 C-3.47 8.58 -4.22 8.78 -5 9 C-5.33 9.66 -5.66 10.32 -6 11 C-7.32 11 -8.64 11 -10 11 C-9.67 12.32 -9.34 13.64 -9 15 C-13.75 16.12 -13.75 16.12 -16 15 C-16.33 15.66 -16.66 16.32 -17 17 C-17 13.04 -17 9.08 -17 5 C-15.68 4.67 -14.36 4.34 -13 4 C-12.01 4.66 -11.02 5.32 -10 6 C-10 6.66 -10 7.32 -10 8 C-9.34 8 -8.68 8 -8 8 C-8 7.01 -8 6.02 -8 5 C-6.68 5 -5.36 5 -4 5 C-4.33 4.01 -4.66 3.02 -5 2 C-2 0 -2 0 0 0 Z " fill="#575645" transform="translate(93,53)"/>
<path d="M0 0 C0 0.66 0 1.32 0 2 C2 2.04 4 2.04 6 2 C6.33 1.67 6.66 1.34 7 1 C8.67 0.96 10.33 0.96 12 1 C11.67 1.66 11.34 2.32 11 3 C7.31 4.23 4.79 3.64 1 3 C1 3.66 1 4.32 1 5 C1.65 5.04 2.3 5.07 2.98 5.11 C8.32 5.51 12.32 6.17 17 9 C16 11 16 11 13.88 11.75 C10.22 12.07 7.45 11.15 4 10 C4 10.99 4 11.98 4 13 C0.85 12.3 -2.03 11.24 -5 10 C-5.37 3.52 -5.37 3.52 -3.62 1.06 C-2 0 -2 0 0 0 Z " fill="#A8975F" transform="translate(83,76)"/>
<path d="M0 0 C2.97 0 5.94 0 9 0 C9.33 1.65 9.66 3.3 10 5 C9.64 5.04 9.64 5.04 7.81 5.25 C4.27 6.19 2.56 7.37 0 10 C-1.31 13.75 -1.31 13.75 -2 17 C-3.32 17.33 -4.64 17.66 -6 18 C-6 17.01 -6 16.02 -6 15 C-7.32 15 -8.64 15 -10 15 C-9.67 15.66 -9.34 16.32 -9 17 C-11.31 17 -13.62 17 -16 17 C-16.33 16.01 -16.66 15.02 -17 14 C-16.2 13.88 -15.39 13.75 -14.56 13.62 C-13.72 13.42 -12.87 13.21 -12 13 C-11.67 12.34 -11.34 11.68 -11 11 C-8.93 10.37 -8.93 10.37 -6.44 9.88 C-6.02 9.79 -6.02 9.79 -3.93 9.37 C-3.61 9.31 -3.61 9.31 -2 9 C-2 6.69 -2 4.38 -2 2 C-0.68 2.33 0.64 2.66 2 3 C2 2.34 2 1.68 2 1 C1.34 0.67 0.68 0.34 0 0 Z " fill="#4A534D" transform="translate(72,47)"/>
<path d="M0 0 C0 0.66 0 1.32 0 2 C0.33 2.99 0.66 3.98 1 5 C1.66 5.33 2.32 5.66 3 6 C2.67 6.16 2.67 6.16 1 7 C1 7.66 1 8.32 1 9 C-0.32 8.67 -1.64 8.34 -3 8 C-2.81 8.6 -2.63 9.2 -2.44 9.81 C-2 12 -2 12 -3 15 C-6.04 17.02 -7.19 17.32 -10.69 17.62 C-11.5 17.7 -12.3 17.77 -13.14 17.85 C-13.44 17.88 -13.44 17.88 -15 18 C-14.48 17.48 -13.97 16.97 -13.44 16.44 C-11.43 13.03 -12.2 10.77 -13 7 C-10 8 -10 8 -9 10 C-7.35 10 -5.7 10 -4 10 C-4 9.01 -4 8.02 -4 7 C-5.32 6.67 -6.64 6.34 -8 6 C-8.33 4.35 -8.66 2.7 -9 1 C-2.25 -1.12 -2.25 -1.12 0 0 Z " fill="#818369" transform="translate(73,41)"/>
<path d="M0 0 C1.98 0 3.96 0 6 0 C6.33 2.64 6.66 5.28 7 8 C7.66 6.68 8.32 5.36 9 4 C10.6 8.95 9.28 13.13 8 18 C9.32 18 10.64 18 12 18 C12.33 17.67 12.66 17.34 13 17 C13.99 17.99 14.98 18.98 16 20 C15.67 20.99 15.34 21.98 15 23 C15 24.32 15 25.64 15 27 C14.34 27 13.68 27 13 27 C12.81 26.6 12.81 26.6 11.88 24.56 C10 22 10 22 8.03 21.45 C6.03 21.21 4.01 21.1 2 21 C2 21.66 2 22.32 2 23 C1.34 23 0.68 23 0 23 C0.33 21.35 0.66 19.7 1 18 C2.32 18.33 3.64 18.66 5 19 C5.33 16.36 5.66 13.72 6 11 C5.34 11 4.68 11 4 11 C4 9.02 4 7.04 4 5 C3.01 5.66 2.02 6.32 1 7 C0.67 4.69 0.34 2.38 0 0 Z " fill="#737274" transform="translate(93,87)"/>
<path d="M0 0 C1.98 0 3.96 0 6 0 C6.09 5.1 6.1 9.99 5 15 C4.01 15.66 3.02 16.32 2 17 C1.01 16.67 0.02 16.34 -1 16 C-1.33 15.34 -1.66 14.68 -2 14 C-2.99 13.67 -3.98 13.34 -5 13 C-4.34 12.67 -3.68 12.34 -3 12 C-3.1 11.64 -3.1 11.64 -3.62 9.81 C-4.06 6.55 -3.42 4.92 -2 2 C-1.34 2 -0.68 2 0 2 C0 1.34 0 0.68 0 0 Z " fill="#6B6B69" transform="translate(109,86)"/>
<path d="M0 0 C0.99 0 1.98 0 3 0 C3 0.66 3 1.32 3 2 C2.34 2 1.68 2 1 2 C1 3.32 1 4.64 1 6 C1.41 5.36 1.83 4.72 2.25 4.06 C4.17 1.79 5.09 1.29 8 1 C9 2 9 2 9.1 5.6 C9.09 7.09 9.08 8.57 9.06 10.06 C9.06 10.82 9.05 11.58 9.05 12.36 C9.04 14.24 9.02 16.12 9 18 C9.66 18 10.32 18 11 18 C11.33 16.68 11.66 15.36 12 14 C12.99 14.33 13.98 14.66 15 15 C14.67 16.32 14.34 17.64 14 19 C13.34 19 12.68 19 12 19 C12 19.66 12 20.32 12 21 C11.01 21 10.02 21 9 21 C9 20.34 9 19.68 9 19 C7.68 19.33 6.36 19.66 5 20 C5 19.34 5 18.68 5 18 C5.99 18 6.98 18 8 18 C6.54 12.42 6.54 12.42 4.12 10.56 C1.68 9.92 0.35 10.16 -2 11 C-2.95 8.83 -3.14 7.44 -2.4 5.18 C-1.64 3.43 -0.82 1.71 0 0 Z " fill="#A5A7AD" transform="translate(84,125)"/>
<path d="M0 0 C2.2 4.4 0.17 10.44 -1 15 C-2.69 18.28 -4.66 21.15 -7 24 C-7.45 23.5 -7.91 23.01 -8.38 22.5 C-10 21 -10 21 -12 21 C-12.33 18.69 -12.66 16.38 -13 14 C-13.66 14 -14.32 14 -15 14 C-15.33 12.02 -15.66 10.04 -16 8 C-15.01 7.67 -14.02 7.34 -13 7 C-11.81 3.94 -11.81 3.94 -11 1 C-10.34 1 -9.68 1 -9 1 C-9.66 3.31 -10.32 5.62 -11 8 C-11.99 8 -12.98 8 -14 8 C-14 8.99 -14 9.98 -14 11 C-13.01 11 -12.02 11 -11 11 C-10.67 12.98 -10.34 14.96 -10 17 C-9.34 16.67 -8.68 16.34 -8 16 C-7.34 16.33 -6.68 16.66 -6 17 C-6 15.68 -6 14.36 -6 13 C-5.34 13 -4.68 13 -4 13 C-4.04 12.05 -4.08 11.1 -4.12 10.12 C-4 7 -4 7 -2 5 C-1.29 3.35 -0.62 1.68 0 0 Z " fill="#CCBFAB" transform="translate(150,79)"/>
<path d="M0 0 C0.66 0 1.32 0 2 0 C5.01 5.02 5.47 8.3 5 14 C4.67 14.5 4.67 14.5 3 17 C1.35 16.67 -0.3 16.34 -2 16 C-2.66 19.3 -3.32 22.6 -4 26 C-4.66 26 -5.32 26 -6 26 C-6.06 24.89 -6.12 23.78 -6.18 22.64 C-6.27 21.18 -6.35 19.71 -6.44 18.25 C-6.48 17.52 -6.52 16.79 -6.56 16.04 C-6.76 12.57 -7.09 9.35 -8 6 C-7.01 6.33 -6.02 6.66 -5 7 C-4.67 8.98 -4.34 10.96 -4 13 C-2.35 13 -0.7 13 1 13 C1.33 11.02 1.66 9.04 2 7 C1.34 7 0.68 7 0 7 C-0.38 5.01 -0.71 3.01 -1 1 C-0.67 0.67 -0.34 0.34 0 0 Z " fill="#E1D4C4" transform="translate(99,117)"/>
<path d="M0 0 C2.64 0 5.28 0 8 0 C8 0.99 8 1.98 8 3 C7.67 3.17 7.67 3.17 6 4 C6 4.66 6 5.32 6 6 C6.66 6.66 7.32 7.32 8 8 C6.02 8.66 4.04 9.32 2 10 C2 12 2 12 2.56 14 C3 16 3 16 2 18 C1.34 18 0.68 18 0 18 C-1 15 -2 12 -3 9 C-5.06 8.31 -5.06 8.31 -7 8 C-7 7.34 -7 6.68 -7 6 C-7.99 6 -8.98 6 -10 6 C-10 5.34 -10 4.68 -10 4 C-8.18 3.83 -8.18 3.83 1 3 C0.67 2.01 0.34 1.02 0 0 Z " fill="#C1AD91" transform="translate(38,72)"/>
<path d="M0 0 C0.66 0 1.32 0 2 0 C3 3.31 3.1 6.3 3.06 9.75 C3.05 10.73 3.04 11.72 3.04 12.73 C3.02 13.48 3.01 14.23 3 15 C1 13 1 13 0 10 C-2.73 8.9 -5.04 8 -8 8 C-7.67 9.65 -7.34 11.3 -7 13 C-5.68 13.33 -4.36 13.66 -3 14 C-3.33 14.99 -3.66 15.98 -4 17 C-5.48 16.67 -5.48 16.67 -13 15 C-13.33 13.35 -13.66 11.7 -14 10 C-13.67 10.16 -13.67 10.16 -12 11 C-12 11.66 -12 12.32 -12 13 C-11.34 13 -10.68 13 -10 13 C-10 10.69 -10 8.38 -10 6 C-9.34 6 -8.68 6 -8 6 C-8 4.68 -8 3.36 -8 2 C-7.01 2.17 -7.01 2.17 -2 3 C-1.34 2.01 -0.68 1.02 0 0 Z " fill="#758093" transform="translate(52,102)"/>
<path d="M0 0 C0.66 0 1.32 0 2 0 C6.41 9.41 6.41 9.41 7 14 C7.99 14.33 8.98 14.66 10 15 C10 15.99 10 16.98 10 18 C8 20 8 20 5 21 C5 20.01 5 19.02 5 18 C3.35 17.67 1.7 17.34 0 17 C0.33 15.68 0.66 14.36 1 13 C1.66 13 2.32 13 3 13 C3 12.01 3 11.02 3 10 C2.01 10 1.02 10 0 10 C-0.33 10.99 -0.66 11.98 -1 13 C-2.32 12.34 -3.64 11.68 -5 11 C-4.67 10.01 -4.34 9.02 -4 8 C-3.34 8 -2.68 8 -2 8 C-1.34 5.36 -0.68 2.72 0 0 Z " fill="#BAB499" transform="translate(77,19)"/>
<path d="M0 0 C6.75 0.75 6.75 0.75 9 3 C9.21 6.84 9.18 10.32 8 14 C6.68 14 5.36 14 4 14 C3.34 13.01 2.68 12.02 2 11 C1.13 10.53 0.27 10.05 -0.62 9.56 C-1.41 9.05 -2.19 8.53 -3 8 C-3 6.68 -3 5.36 -3 4 C-2.34 4 -1.68 4 -1 4 C-0.67 2.68 -0.34 1.36 0 0 Z " fill="#63646C" transform="translate(70,94)"/>
<path d="M0 0 C0.48 0.01 0.48 0.01 2.94 0.06 C2.94 0.72 2.94 1.38 2.94 2.06 C4.59 1.73 6.24 1.4 7.94 1.06 C8.27 2.71 8.6 4.36 8.94 6.06 C7.29 5.73 5.64 5.4 3.94 5.06 C3.94 6.38 3.94 7.7 3.94 9.06 C4.6 9.06 5.26 9.06 5.94 9.06 C6.6 11.04 7.26 13.02 7.94 15.06 C3.98 15.06 0.02 15.06 -4.06 15.06 C-4.06 14.4 -4.06 13.74 -4.06 13.06 C-4.72 13.06 -5.38 13.06 -6.06 13.06 C-6.06 12.4 -6.06 11.74 -6.06 11.06 C-5.07 11.06 -4.08 11.06 -3.06 11.06 C-3.06 11.72 -3.06 12.38 -3.06 13.06 C-1.12 11.94 -1.12 11.94 0.94 10.06 C1.69 6.88 1.69 6.88 1.94 4.06 C-0.04 4.06 -2.02 4.06 -4.06 4.06 C-4.06 0.08 -4.06 0.08 0 0 Z " fill="#7F7957" transform="translate(129.0625,47.9375)"/>
<path d="M0 0 C1.32 0.33 2.64 0.66 4 1 C4 1.99 4 2.98 4 4 C3.34 3.67 2.68 3.34 2 3 C2 3.99 2 4.98 2 6 C2.66 6 3.32 6 4 6 C4.66 7.32 5.32 8.64 6 10 C6.33 9.34 6.66 8.68 7 8 C9.07 7.59 9.07 7.59 11.56 7.38 C12.39 7.3 13.22 7.23 14.07 7.15 C14.39 7.12 14.39 7.12 16 7 C15.67 7.16 15.67 7.16 14 8 C13.38 10.06 13.38 10.06 13 12 C11.68 11.67 10.36 11.34 9 11 C8.34 12.65 7.68 14.3 7 16 C6.34 16 5.68 16 5 16 C5 16.66 5 17.32 5 18 C4.01 18 3.02 18 2 18 C2.33 17.01 2.66 16.02 3 15 C2.01 14.34 1.02 13.68 0 13 C0 12.01 0 11.02 0 10 C-0.66 10 -1.32 10 -2 10 C-1.67 8.68 -1.34 7.36 -1 6 C-0.34 6 0.32 6 1 6 C0.65 5.38 0.3 4.76 -0.06 4.12 C-0.37 3.42 -0.68 2.72 -1 2 C-0.67 1.34 -0.34 0.68 0 0 Z " fill="#D9E0EC" transform="translate(22,123)"/>
<path d="M0 0 C1.98 0.66 3.96 1.32 6 2 C5.49 8.03 4.93 14.02 4 20 C3.34 19.01 2.68 18.02 2 17 C0.68 17.33 -0.64 17.66 -2 18 C-1.86 15.19 -1.71 12.37 -1.56 9.56 C-1.52 8.76 -1.48 7.96 -1.44 7.13 C-1.11 1.11 -1.11 1.11 0 0 Z " fill="#BBAA98" transform="translate(116,82)"/>
<path d="M0 0 C0.99 0 1.98 0 3 0 C3.33 0.99 3.66 1.98 4 3 C4.66 2.67 5.32 2.34 6 2 C8 1.96 10 1.96 12 2 C11.67 2.5 11.67 2.5 10 5 C10.02 7.7 10.02 7.7 10.38 10.69 C10.49 11.68 10.6 12.68 10.71 13.7 C10.81 14.46 10.9 15.22 11 16 C10.34 15.67 9.68 15.34 9 15 C9 14.01 9 13.02 9 12 C8.34 12 7.68 12 7 12 C7.33 12.99 7.66 13.98 8 15 C7.01 15 6.02 15 5 15 C4.79 14.43 4.79 14.43 3.75 11.56 C2 8 2 8 -0.19 7.06 C-0.79 7.04 -1.38 7.02 -2 7 C-2 6.01 -2 5.02 -2 4 C-1.34 4 -0.68 4 0 4 C0 2.68 0 1.36 0 0 Z " fill="#636A6E" transform="translate(16,73)"/>
<path d="M0 0 C-0.33 2.31 -0.66 4.62 -1 7 C-6.39 9.27 -11.26 9.2 -17 9 C-16.67 8.01 -16.34 7.02 -16 6 C-15.34 6.33 -14.68 6.66 -14 7 C-14 6.34 -14 5.68 -14 5 C-14.99 5 -15.98 5 -17 5 C-17 4.01 -17 3.02 -17 2 C-15.35 2 -13.7 2 -12 2 C-12 2.66 -12 3.32 -12 4 C-9.56 3.62 -9.56 3.62 -7 3 C-6.67 2.34 -6.34 1.68 -6 1 C-6.99 0.67 -7.98 0.34 -9 0 C-5.93 -1.53 -3.3 -0.55 0 0 Z " fill="#BCCCE0" transform="translate(92,160)"/>
<path d="M0 0 C-0.26 1.77 -0.53 3.54 -0.81 5.31 C-0.96 6.3 -1.11 7.28 -1.27 8.3 C-2.06 11.2 -2.84 12.03 -5 14 C-5.69 17.19 -5.69 17.19 -6 20 C-5.34 20 -4.68 20 -4 20 C-4.33 22.31 -4.66 24.62 -5 27 C-5.99 27.33 -6.98 27.66 -8 28 C-8.44 8.09 -8.44 8.09 -6 2 C-3 0 -3 0 0 0 Z " fill="#8F857A" transform="translate(128,83)"/>
<path d="M0 0 C0.99 0.99 1.98 1.98 3 3 C3.99 3 4.98 3 6 3 C6 3.99 6 4.98 6 6 C7.65 6 9.3 6 11 6 C10.67 9.96 10.34 13.92 10 18 C8.68 18 7.36 18 6 18 C5 12.12 5 12.12 5 11 C4.34 11 3.68 11 3 11 C3 10.34 3 9.68 3 9 C1.68 9 0.36 9 -1 9 C-0.67 6.03 -0.34 3.06 0 0 Z " fill="#878482" transform="translate(102,96)"/>
<path d="M0 0 C2.31 0 4.62 0 7 0 C6.67 0.66 6.34 1.32 6 2 C5.01 2 4.02 2 3 2 C3 6.29 3 10.58 3 15 C2.34 15 1.68 15 1 15 C0.34 15.66 -0.32 16.32 -1 17 C-1 16.34 -1 15.68 -1 15 C-2.65 15.33 -4.3 15.66 -6 16 C-5.34 15.01 -4.68 14.02 -4 13 C-4.99 12.34 -5.98 11.68 -7 11 C-6.67 9.68 -6.34 8.36 -6 7 C-4.84 6.84 -4.84 6.84 1 6 C0.67 4.02 0.34 2.04 0 0 Z " fill="#8E9388" transform="translate(52,38)"/>
<path d="M0 0 C0.33 0 0.66 0 1 0 C1 1.98 1 3.96 1 6 C1.99 6 2.98 6 4 6 C5.08 8.65 6.09 11.28 7 14 C9 13 9 13 11 10 C11 13.96 11 17.92 11 22 C9.35 22.33 7.7 22.66 6 23 C3 16.5 3 16.5 3 12 C2.34 12 1.68 12 1 12 C0.02 7.95 -0.08 4.16 0 0 Z " fill="#A9B4C6" transform="translate(27,104)"/>
<path d="M0 0 C0 0.66 0 1.32 0 2 C-0.99 2.33 -1.98 2.66 -3 3 C-3.33 7.62 -3.66 12.24 -4 17 C-5.65 16.67 -7.3 16.34 -9 16 C-10.14 11.73 -11 8.44 -11 4 C-10.01 4 -9.02 4 -8 4 C-8 3.34 -8 2.68 -8 2 C-4.91 0.24 -3.77 0 0 0 Z " fill="#53543C" transform="translate(70,83)"/>
<path d="M0 0 C0.85 0.47 1.69 0.95 2.56 1.44 C6.12 3.06 9.16 3.47 13 4 C13.33 4.66 13.66 5.32 14 6 C12.02 6.33 10.04 6.66 8 7 C8 7.99 8 8.98 8 10 C10.31 10.66 12.62 11.32 15 12 C15 12.66 15 13.32 15 14 C15.66 14.33 16.32 14.66 17 15 C17 16.65 17 18.3 17 20 C16.34 20.33 15.68 20.66 15 21 C15 19.68 15 18.36 15 17 C13.68 16.67 12.36 16.34 11 16 C11.33 15.67 11.66 15.34 12 15 C11.34 14.67 10.68 14.34 10 14 C10 13.34 10 12.68 10 12 C9.01 11.84 9.01 11.84 4 11 C3.34 8.03 2.68 5.06 2 2 C1.34 2 0.68 2 0 2 C0 1.34 0 0.68 0 0 Z " fill="#CEBE87" transform="translate(133,55)"/>
<path d="M0 0 C4.89 7.66 0.76 20.61 -1 29 C-2.32 29.33 -3.64 29.66 -5 30 C-4.72 28.25 -4.42 26.5 -4.12 24.75 C-3.96 23.78 -3.8 22.8 -3.63 21.8 C-3 19 -3 19 -1.97 16.97 C-0.77 14.53 -0.59 12.45 -0.38 9.75 C-0.34 9.3 -0.34 9.3 -0.15 7.05 C-0.1 6.37 -0.05 5.7 0 5 C-0.99 5 -1.98 5 -3 5 C-3 7.64 -3 10.28 -3 13 C-3.33 13.16 -3.33 13.16 -5 14 C-5.28 10.29 -5.46 6.7 -5 3 C-2.5 0.81 -2.5 0.81 0 0 Z " fill="#DECEB7" transform="translate(118,98)"/>
<path d="M0 0 C1.46 -0.08 2.92 -0.14 4.38 -0.19 C5.19 -0.22 6 -0.26 6.84 -0.29 C7.55 -0.2 8.26 -0.1 9 0 C11 3 11 3 10.69 5.62 C10 8 10 8 9 9 C6.33 9.14 3.68 9.04 1 9 C1.99 8.67 2.98 8.34 4 8 C4 7.34 4 6.68 4 6 C0.37 6.33 -3.26 6.66 -7 7 C-7 6.34 -7 5.68 -7 5 C-4.36 4.34 -1.72 3.68 1 3 C0.67 2.01 0.34 1.02 0 0 Z " fill="#9D8F54" transform="translate(66,77)"/>
<path d="M0 0 C1.33 2.67 0.67 4.17 0 7 C0.66 7 1.32 7 2 7 C1.67 9.64 1.34 12.28 1 15 C0.01 15 -0.98 15 -2 15 C-2.66 15.66 -3.32 16.32 -4 17 C-4 15.68 -4 14.36 -4 13 C-4.66 13 -5.32 13 -6 13 C-6 14.65 -6 16.3 -6 18 C-6.33 18 -6.66 18 -7 18 C-7.33 15.03 -7.66 12.06 -8 9 C-6.68 8.34 -5.36 7.68 -4 7 C-3.44 5.06 -3.44 5.06 -3 3 C-1.44 1.25 -1.44 1.25 0 0 Z " fill="#928E8A" transform="translate(97,91)"/>
<path d="M0 0 C0.56 0.31 1.11 0.62 1.69 0.94 C4.14 2.06 6.36 2.48 9 3 C10.68 3.63 12.35 4.29 14 5 C13.01 5.33 12.02 5.66 11 6 C10.34 5.67 9.68 5.34 9 5 C9 5.99 9 6.98 9 8 C8.34 8 7.68 8 7 8 C7 7.34 7 6.68 7 6 C4.31 5.12 4.31 5.12 1 5 C-1.14 6.79 -2.39 8.68 -4 11 C-3.01 10.67 -2.02 10.34 -1 10 C-1.33 10.99 -1.66 11.98 -2 13 C-3.32 12.67 -4.64 12.34 -6 12 C-6 12.66 -6 13.32 -6 14 C-7.32 14.33 -8.64 14.66 -10 15 C-10 14.01 -10 13.02 -10 12 C-9.01 11.67 -8.02 11.34 -7 11 C-6.19 9.26 -6.19 9.26 -5.56 7.12 C-4.38 3.62 -3.34 1.84 0 0 Z " fill="#878770" transform="translate(76,53)"/>
<path d="M0 0 C0.66 0 1.32 0 2 0 C2.66 1.32 3.32 2.64 4 4 C4.99 4 5.98 4 7 4 C7 3.34 7 2.68 7 2 C7.66 2.33 8.32 2.66 9 3 C9 3.66 9 4.32 9 5 C10.65 5 12.3 5 14 5 C13.75 7.37 13.75 7.37 13 10 C11.19 11.38 11.19 11.38 9 12 C6.75 11.62 6.75 11.62 5 11 C4.67 9.68 4.34 8.36 4 7 C2.68 7 1.36 7 0 7 C-0.99 6.67 -1.98 6.34 -3 6 C-2.01 4.02 -1.02 2.04 0 0 Z " fill="#A49F85" transform="translate(37,52)"/>
<path d="M0 0 C1.32 0.33 2.64 0.66 4 1 C4.33 2.32 4.66 3.64 5 5 C5.66 5 6.32 5 7 5 C6.67 6.98 6.34 8.96 6 11 C5.34 11 4.68 11 4 11 C3.67 9.68 3.34 8.36 3 7 C2.34 7 1.68 7 1 7 C1 9.31 1 11.62 1 14 C0.17 13.67 0.17 13.67 -4 12 C-4 12.66 -4 13.32 -4 14 C-4.66 14 -5.32 14 -6 14 C-6.33 11.69 -6.66 9.38 -7 7 C-6.17 7.33 -6.17 7.33 -2 9 C-1.34 6.03 -0.68 3.06 0 0 Z " fill="#5D6A7F" transform="translate(68,108)"/>
<path d="M0 0 C0.66 0.33 1.32 0.66 2 1 C2.33 1.99 2.66 2.98 3 4 C3.78 4.08 4.57 4.16 5.38 4.25 C8 5 8 5 9.31 7.06 C9.43 7.38 9.43 7.38 10 9 C8.44 10.56 8.44 10.56 6 12 C2.25 11.69 2.25 11.69 -1 11 C-1 11.66 -1 12.32 -1 13 C-1.64 13.12 -2.28 13.25 -2.94 13.38 C-3.62 13.58 -4.3 13.79 -5 14 C-5.33 14.66 -5.66 15.32 -6 16 C-6.33 14.68 -6.66 13.36 -7 12 C-5.35 12 -3.7 12 -2 12 C-2 11.34 -2 10.68 -2 10 C-1.34 9.67 -0.68 9.34 0 9 C-0.37 8.26 -0.74 7.52 -1.12 6.75 C-2 4 -2 4 -1.12 1.69 C-0.75 1.13 -0.38 0.57 0 0 Z " fill="#908153" transform="translate(101,49)"/>
<path d="M0 0 C1.32 0 2.64 0 4 0 C4.33 0.99 4.66 1.98 5 3 C7.56 4.69 7.56 4.69 10 6 C10.33 5.34 10.66 4.68 11 4 C12.37 7.82 11.68 11.07 11 15 C10.34 15 9.68 15 9 15 C8.67 12.69 8.34 10.38 8 8 C5.69 8 3.38 8 1 8 C0.67 8.99 0.34 9.98 0 11 C-2 8 -2 8 -2 6 C-2.66 6 -3.32 6 -4 6 C-4 5.01 -4 4.02 -4 3 C-2.68 3.33 -1.36 3.66 0 4 C0 2.68 0 1.36 0 0 Z " fill="#C8D3E4" transform="translate(28,123)"/>
<path d="M0 0 C0.33 0.66 0.66 1.32 1 2 C-0.32 2 -1.64 2 -3 2 C-2.53 2.78 -2.05 3.57 -1.56 4.38 C0.78 8.32 1.06 9.53 0 14 C-1.65 14 -3.3 14 -5 14 C-4.67 15.32 -4.34 16.64 -4 18 C-3.34 18 -2.68 18 -2 18 C-2 18.99 -2 19.98 -2 21 C-4.31 21 -6.62 21 -9 21 C-9 21.66 -9 22.32 -9 23 C-9.66 23 -10.32 23 -11 23 C-11.93 19.99 -12.04 19.13 -11 16 C-9.68 16.33 -8.36 16.66 -7 17 C-6.9 16.38 -6.79 15.76 -6.69 15.12 C-6 13 -6 13 -3 11 C-3.59 7.98 -4.23 4.98 -5 2 C-3.35 1.34 -1.7 0.68 0 0 Z " fill="#B6AF8D" transform="translate(92,25)"/>
<path d="M0 0 C0.33 0.66 0.66 1.32 1 2 C2.65 1.67 4.3 1.34 6 1 C5.67 2.65 5.34 4.3 5 6 C4.34 6 3.68 6 3 6 C3 5.34 3 4.68 3 4 C2.34 4 1.68 4 1 4 C1.16 4.61 1.31 5.23 1.47 5.86 C1.67 6.67 1.86 7.48 2.06 8.31 C2.26 9.11 2.46 9.91 2.66 10.74 C3 13 3 13 2 16 C0.35 15.67 -1.3 15.34 -3 15 C-4 8.38 -4 8.38 -4 5 C-2 2.31 -2 2.31 0 0 Z " fill="#92887D" transform="translate(82,89)"/>
<path d="M0 0 C0.99 0 1.98 0 3 0 C3.05 1.58 3.09 3.17 3.12 4.75 C3.15 5.63 3.17 6.51 3.2 7.42 C2.99 10.15 2.3 11.63 1 14 C0.62 15.99 0.27 17.99 0 20 C-0.33 20 -0.66 20 -1 20 C-1 18.02 -1 16.04 -1 14 C-3.31 14.33 -5.62 14.66 -8 15 C-7.62 13.06 -7.62 13.06 -7 11 C-6.34 10.67 -5.68 10.34 -5 10 C-4.34 10.33 -3.68 10.66 -3 11 C-3 8.36 -3 5.72 -3 3 C-2.67 3 -2.34 3 -2 3 C-1.67 4.65 -1.34 6.3 -1 8 C-0.67 5.36 -0.34 2.72 0 0 Z " fill="#A89F98" transform="translate(115,103)"/>
<path d="M0 0 C0.33 0 0.66 0 1 0 C1 1.98 1 3.96 1 6 C1.99 5.67 2.98 5.34 4 5 C4 9.95 4 14.9 4 20 C3.34 20 2.68 20 2 20 C2 20.66 2 21.32 2 22 C1.34 22 0.68 22 0 22 C-0.39 20.59 -0.76 19.17 -1.12 17.75 C-1.33 16.96 -1.54 16.17 -1.76 15.36 C-2.04 12.58 -1.45 11.34 0 9 C-0.99 9.33 -1.98 9.66 -3 10 C-3 8.02 -3 6.04 -3 4 C-2.34 4 -1.68 4 -1 4 C-0.67 2.68 -0.34 1.36 0 0 Z " fill="#AFA8A3" transform="translate(133,90)"/>
<path d="M0 0 C0.99 0 1.98 0 3 0 C2.67 1.98 2.34 3.96 2 6 C4.64 6.33 7.28 6.66 10 7 C9.24 7.58 8.47 8.16 7.69 8.75 C5 11 5 11 3.31 13.25 C2.88 13.83 2.45 14.41 2 15 C1.34 15 0.68 15 0 15 C0 13.02 0 11.04 0 9 C-1.48 8.67 -1.48 8.67 -9 7 C-9 6.67 -9 6.34 -9 6 C-6.36 5.67 -3.72 5.34 -1 5 C-0.67 3.35 -0.34 1.7 0 0 Z " fill="#C7B9AB" transform="translate(76,80)"/>
<path d="M0 0 C0.33 0.99 0.66 1.98 1 3 C2.16 2.83 2.16 2.83 8 2 C8 2.66 8 3.32 8 4 C8.66 4.33 9.32 4.66 10 5 C9.38 5.27 8.76 5.54 8.12 5.81 C6 7 6 7 4 10 C2.68 10 1.36 10 0 10 C0 10.66 0 11.32 0 12 C-1.98 12 -3.96 12 -6 12 C-5.01 11.34 -4.02 10.68 -3 10 C-3 8.68 -3 7.36 -3 6 C-2.34 5.34 -1.68 4.68 -1 4 C-0.38 1.88 -0.38 1.88 0 0 Z " fill="#948657" transform="translate(47,69)"/>
<path d="M0 0 C0.66 0 1.32 0 2 0 C4.62 6.88 4.18 13.72 4 21 C5.98 20.67 7.96 20.34 10 20 C9.67 21.98 9.34 23.96 9 26 C7.35 26 5.7 26 4 26 C1.52 20.41 0.71 16.21 0.99 10.1 C1 8 1 8 0 6 C-0.04 4 -0.04 2 0 0 Z " fill="#B8B1AB" transform="translate(91,104)"/>
<path d="M0 0 C0.37 0.52 0.74 1.03 1.12 1.56 C1.74 2.04 2.36 2.51 3 3 C3.48 2.91 3.48 2.91 5.94 2.44 C6.44 2.37 6.44 2.37 9 2 C11.38 3.94 11.38 3.94 13 6 C12.67 6.99 12.34 7.98 12 9 C11.17 8.67 11.17 8.67 7 7 C7 7.66 7 8.32 7 9 C6.34 9 5.68 9 5 9 C4.67 8.34 4.34 7.68 4 7 C3.01 7 2.02 7 1 7 C0.34 8.32 -0.32 9.64 -1 11 C-1.66 11 -2.32 11 -3 11 C-3 9.68 -3 8.36 -3 7 C-2.34 7 -1.68 7 -1 7 C-1 6.34 -1 5.68 -1 5 C-1.66 4.67 -2.32 4.34 -3 4 C-2.67 3.34 -2.34 2.68 -2 2 C-1.34 2 -0.68 2 0 2 C0 1.34 0 0.68 0 0 Z " fill="#798699" transform="translate(79,132)"/>
<path d="M0 0 C6.75 -0.12 6.75 -0.12 9 1 C8.67 2.32 8.34 3.64 8 5 C7.34 5 6.68 5 6 5 C6 5.66 6 6.32 6 7 C6.66 7 7.32 7 8 7 C7.67 7.99 7.34 8.98 7 10 C6.34 9.67 5.68 9.34 5 9 C5 9.66 5 10.32 5 11 C2.36 10.67 -0.28 10.34 -3 10 C-3 9.34 -3 8.68 -3 8 C-1.02 7.67 0.96 7.34 3 7 C3 6.01 3 5.02 3 4 C2.34 4 1.68 4 1 4 C0.67 2.68 0.34 1.36 0 0 Z " fill="#535A50" transform="translate(87,39)"/>
<path d="M0 0 C0.33 1.32 0.66 2.64 1 4 C-1.65 5.46 -2.89 6 -6 6 C-6 6.99 -6 7.98 -6 9 C-7.98 8.34 -9.96 7.68 -12 7 C-11.67 8.32 -11.34 9.64 -11 11 C-12.65 10.67 -14.3 10.34 -16 10 C-15.67 8.35 -15.34 6.7 -15 5 C-14.34 5 -13.68 5 -13 5 C-13 4.01 -13 3.02 -13 2 C-11.97 2.23 -10.94 2.45 -9.88 2.69 C-5.52 3.04 -3.67 2.24 0 0 Z " fill="#525958" transform="translate(52,60)"/>
<path d="M0 0 C0.33 0.99 0.66 1.98 1 3 C1.56 2.65 2.11 2.3 2.69 1.94 C5.54 0.78 7.09 1.19 10 2 C8.94 4 8.94 4 7 6 C4.67 6.04 2.33 6.04 0 6 C-0.52 6.52 -1.03 7.03 -1.56 7.56 C-2.04 8.04 -2.51 8.51 -3 9 C-6.06 8.88 -6.06 8.88 -9 8 C-9.66 7.01 -10.32 6.02 -11 5 C-9.19 4.67 -9.19 4.67 0 3 C0 2.01 0 1.02 0 0 Z " fill="#DAE1EC" transform="translate(91,164)"/>
<path d="M0 0 C0.33 0 0.66 0 1 0 C1 4.95 1 9.9 1 15 C1.66 15.33 2.32 15.66 3 16 C1.68 17.65 0.36 19.3 -1 21 C-1 20.01 -1 19.02 -1 18 C-1.66 18 -2.32 18 -3 18 C-3.08 15.94 -3.14 13.88 -3.19 11.81 C-3.22 10.66 -3.26 9.52 -3.29 8.33 C-2.98 4.72 -2.15 2.88 0 0 Z " fill="#DBD4CD" transform="translate(122,114)"/>
<path d="M0 0 C1.98 0 3.96 0 6 0 C6 2.31 6 4.62 6 7 C6.66 7 7.32 7 8 7 C8.66 4.69 9.32 2.38 10 0 C10.99 0.33 11.98 0.66 13 1 C11.94 4.4 10.99 7.01 9 10 C4.62 11.31 4.62 11.31 2 10 C2 9.34 2 8.68 2 8 C2.99 8 3.98 8 5 8 C5 5.69 5 3.38 5 1 C4.67 1.17 4.67 1.17 3 2 C2.27 4.31 1.6 6.65 1 9 C0.34 8.67 -0.32 8.34 -1 8 C-0.67 5.36 -0.34 2.72 0 0 Z " fill="#696A5B" transform="translate(42,81)"/>
<path d="M0 0 C0.99 0.99 1.98 1.98 3 3 C3.66 2.34 4.32 1.68 5 1 C5.99 3.31 6.98 5.62 8 8 C8.99 7.01 9.98 6.02 11 5 C11.33 5.66 11.66 6.32 12 7 C11.06 9.12 11.06 9.12 10 11 C8.68 10.67 7.36 10.34 6 10 C6 9.34 6 8.68 6 8 C4.68 8 3.36 8 2 8 C2.33 9.32 2.66 10.64 3 12 C2.34 12 1.68 12 1 12 C-1.22 9.7 -1.97 8.48 -2.19 5.25 C-2.13 4.51 -2.06 3.76 -2 3 C-1.34 3 -0.68 3 0 3 C0 2.01 0 1.02 0 0 Z " fill="#A0ABB9" transform="translate(66,127)"/>
<path d="M0 0 C0.99 0.33 1.98 0.66 3 1 C3 1.66 3 2.32 3 3 C4.32 3.33 5.64 3.66 7 4 C6.34 4.66 5.68 5.32 5 6 C4.3 7.32 3.63 8.65 3 10 C3 9.34 3 8.68 3 8 C2.34 8 1.68 8 1 8 C1 8.66 1 9.32 1 10 C-1.67 9.33 -4.33 8.67 -7 8 C-6.67 6.35 -6.34 4.7 -6 3 C-5.67 3.66 -5.34 4.32 -5 5 C-3.68 5 -2.36 5 -1 5 C-0.67 3.35 -0.34 1.7 0 0 Z " fill="#B0B9C8" transform="translate(51,125)"/>
<path d="M0 0 C1.56 1.19 1.56 1.19 3 3 C2.75 5.31 2.75 5.31 2 8 C1.66 10 1.33 12 1 14 C0.67 12.68 0.34 11.36 0 10 C-0.66 10 -1.32 10 -2 10 C-2.66 11.32 -3.32 12.64 -4 14 C-4.66 14 -5.32 14 -6 14 C-5.34 10.37 -4.68 6.74 -4 3 C-3.01 2.67 -2.02 2.34 -1 2 C-0.67 1.34 -0.34 0.68 0 0 Z " fill="#666B74" transform="translate(54,92)"/>
<path d="M0 0 C0.33 0 0.66 0 1 0 C1.33 2.31 1.66 4.62 2 7 C2.99 6.67 3.98 6.34 5 6 C5 7.98 5 9.96 5 12 C5.66 12 6.32 12 7 12 C7 12.99 7 13.98 7 15 C8.32 14.67 9.64 14.34 11 14 C10.67 15.98 10.34 17.96 10 20 C9.57 19.5 9.13 19.01 8.69 18.5 C7 17 7 17 4 17 C0.39 13.68 -0.5 8.72 -1 4 C-0.55 1.72 -0.55 1.72 0 0 Z " fill="#B1BAC8" transform="translate(17,84)"/>
<path d="M0 0 C0.83 0.33 0.83 0.33 5 2 C4.67 2.17 4.67 2.17 3 3 C3 4.98 3 6.96 3 9 C3.4 8.91 3.4 8.91 5.44 8.44 C5.86 8.37 5.86 8.37 8 8 C9 9 9 9 9.06 12.06 C9.04 13.03 9.02 14 9 15 C7.35 13.68 5.7 12.36 4 11 C4 11.66 4 12.32 4 13 C3.34 13 2.68 13 2 13 C2 13.66 2 14.32 2 15 C1.01 15 0.02 15 -1 15 C-1 13.68 -1 12.36 -1 11 C-1.66 10.67 -2.32 10.34 -3 10 C-1.68 9.67 -0.36 9.34 1 9 C0.67 6.03 0.34 3.06 0 0 Z " fill="#82868E" transform="translate(59,99)"/>
<path d="M0 0 C3.38 0.31 3.38 0.31 7 1 C9 4 9 4 8.75 6.38 C8 9.01 7.08 11.48 6 14 C4.68 13.67 3.36 13.34 2 13 C2.11 12.31 2.21 11.63 2.32 10.92 C2.38 10.47 2.38 10.47 2.69 8.19 C2.82 7.29 2.94 6.4 3.07 5.48 C3 3 3 3 1.52 1.18 C1.02 0.79 0.52 0.4 0 0 Z " fill="#6E6B64" transform="translate(127,78)"/>
<path d="M0 0 C0.66 0 1.32 0 2 0 C2.12 3.38 2.12 3.38 2 7 C1.34 7.66 0.68 8.32 0 9 C-0.4 10.99 -0.74 12.99 -1 15 C-1.66 15 -2.32 15 -3 15 C-3 16.32 -3 17.64 -3 19 C-4.32 19 -5.64 19 -7 19 C-6.25 11.38 -6.25 11.38 -4 8 C-3.62 6.34 -3.27 4.68 -3 3 C-2.34 3.33 -1.68 3.66 -1 4 C-0.67 2.68 -0.34 1.36 0 0 Z " fill="#A2988C" transform="translate(147,77)"/>
<path d="M0 0 C0.99 0.16 0.99 0.16 6 1 C6 2.32 6 3.64 6 5 C6.99 5.33 7.98 5.66 9 6 C9 6.66 9 7.32 9 8 C10.65 7.67 12.3 7.34 14 7 C14 7.66 14 8.32 14 9 C12.02 9.33 10.04 9.66 8 10 C7.67 9.01 7.34 8.02 7 7 C6.34 6.67 5.68 6.34 5 6 C5.33 7.32 5.66 8.64 6 10 C4.02 10.33 2.04 10.66 0 11 C0 7.37 0 3.74 0 0 Z " fill="#B1AC8D" transform="translate(55,42)"/>
<path d="M0 0 C0.99 0 1.98 0 3 0 C3.33 2.64 3.66 5.28 4 8 C5.32 8.33 6.64 8.66 8 9 C7.67 9.99 7.34 10.98 7 12 C1.25 10.25 1.25 10.25 -1 8 C-1.99 8.33 -2.98 8.66 -4 9 C-4 9.66 -4 10.32 -4 11 C-3.01 11 -2.02 11 -1 11 C-1 11.99 -1 12.98 -1 14 C-2.32 13.34 -3.64 12.68 -5 12 C-5 10.68 -5 9.36 -5 8 C-4.01 7.34 -3.02 6.68 -2 6 C-0.81 2.88 -0.81 2.88 0 0 Z " fill="#C0B9A2" transform="translate(98,10)"/>
<path d="M0 0 C5.96 0.39 5.96 0.39 8 1 C8.99 2.32 9.98 3.64 11 5 C7.7 4.67 4.4 4.34 1 4 C1 5.32 1 6.64 1 8 C0.34 8 -0.32 8 -1 8 C-1 7.01 -1 6.02 -1 5 C-2.65 5.33 -4.3 5.66 -6 6 C-6 6.66 -6 7.32 -6 8 C-8.97 8 -11.94 8 -15 8 C-15 7.67 -15 7.34 -15 7 C-13.02 7 -11.04 7 -9 7 C-9 6.01 -9 5.02 -9 4 C-6.03 4 -3.06 4 0 4 C0 2.68 0 1.36 0 0 Z " fill="#908663" transform="translate(77,68)"/>
<path d="M0 0 C0 0.66 0 1.32 0 2 C-1.98 2 -3.96 2 -6 2 C-6.66 3.65 -7.32 5.3 -8 7 C-8.99 6.67 -9.98 6.34 -11 6 C-9.55 0.46 -9.55 0.46 -7.19 -1.5 C-4.24 -2.17 -2.65 -1.33 0 0 Z " fill="#E5EAF1" transform="translate(25,115)"/>
<path d="M0 0 C1.65 0 3.3 0 5 0 C4.67 0.99 4.34 1.98 4 3 C2.68 2.67 1.36 2.34 0 2 C0 1.34 0 0.68 0 0 Z " fill="#E3E9F0" transform="translate(105,162)"/>
<path d="M0 0 C0.99 0 1.98 0 3 0 C3 0.66 3 1.32 3 2 C2.34 2 1.68 2 1 2 C1 2.66 1 3.32 1 4 C0.34 4 -0.32 4 -1 4 C-0.67 2.68 -0.34 1.36 0 0 Z " fill="#EFF0F2" transform="translate(133,150)"/>
<path d="M0 0 C0.99 0 1.98 0 3 0 C2.67 0.99 2.34 1.98 2 3 C1.34 3 0.68 3 0 3 C0 2.01 0 1.02 0 0 Z " fill="#F0EFEE" transform="translate(116,159)"/>
<path d="M0 0 C0.66 0 1.32 0 2 0 C2 0.99 2 1.98 2 3 C1.34 3 0.68 3 0 3 C0 2.01 0 1.02 0 0 Z " fill="#DADCDB" transform="translate(142,104)"/>
<path d="M0 0 C0.66 0.33 1.32 0.66 2 1 C1.01 1 0.02 1 -1 1 C-0.67 0.67 -0.34 0.34 0 0 Z " fill="#F3F3F5" transform="translate(138,151)"/>
<path d="" fill="#F5F4F3" transform="translate(0,0)"/>
<path d="M0 0 C2 1 2 1 2 1 Z " fill="#F4F9FB" transform="translate(123,133)"/>
<path d="" fill="#F4F5FB" transform="translate(0,0)"/>
<path d="" fill="#F5F4F5" transform="translate(0,0)"/>
<path d="" fill="#F2F3F2" transform="translate(0,0)"/>
<path d="" fill="#F9F8F4" transform="translate(0,0)"/>
<path d="" fill="#F4F4F4" transform="translate(0,0)"/>
<path d="" fill="#F3F3F3" transform="translate(0,0)"/>
</svg>
