<?xml version="1.0" encoding="UTF-8"?>
<!-- Generator: visioncortex VTracer 0.6.12 -->
<svg version="1.1" xmlns="http://www.w3.org/2000/svg" width="100" height="90">
<path d="M0 0 C0.99 0 1.98 0 3 0 C4.85 2.09 6.14 4.25 7.5 6.69 C9 9 9 9 12 10 C12.66 7.36 13.32 4.72 14 2 C14.99 2.33 15.98 2.66 17 3 C17.73 5.07 17.73 5.07 18.19 7.56 C18.27 7.98 18.27 7.98 18.67 10.07 C18.78 10.7 18.89 11.34 19 12 C19.66 12 20.32 12 21 12 C21 11.34 21 10.68 21 10 C23.64 9.67 26.28 9.34 29 9 C29 7.35 29 5.7 29 4 C30.98 3.67 32.96 3.34 35 3 C35.25 3.6 35.5 4.2 35.75 4.81 C37 7 37 7 39.12 8.5 C39.74 8.99 40.36 9.49 41 10 C41 11.32 41 12.64 41 14 C38 16.25 38 16.25 35 18 C40.62 19.12 40.62 19.12 44 18 C45.49 19.16 46.97 20.33 48.37 21.59 C50.76 23.66 53.35 25.29 56 27 C54.69 30.44 54.69 30.44 53 34 C52.5 34.16 52.5 34.16 50 35 C49.12 36.74 49.12 36.74 48.44 38.88 C47.51 41.71 46.7 43.45 45 46 C44.34 45.84 44.34 45.84 41 45 C40.67 45.95 40.35 46.91 40.01 47.89 C39.57 49.15 39.13 50.42 38.69 51.69 C38.26 52.93 37.83 54.17 37.39 55.45 C36.17 58.57 34.82 61.21 33 64 C32.01 63.67 31.02 63.34 30 63 C29.67 62.34 29.34 61.68 29 61 C28.34 61 27.68 61 27 61 C26.67 61.99 26.34 62.98 26 64 C25.01 63.67 24.02 63.34 23 63 C22.73 63.76 22.46 64.53 22.19 65.31 C20.36 69.46 20.36 69.46 18 71 C13.72 71.55 11.74 71.53 8.19 69 C7.83 68.67 7.83 68.67 6 67 C5.34 67 4.68 67 4 67 C4.33 65.68 4.66 64.36 5 63 C4.01 62.34 3.02 61.68 2 61 C1.67 62.32 1.34 63.64 1 65 C-1.68 64.65 -2.73 64.33 -4.45 62.18 C-7.02 57.39 -8.57 53.51 -9 48 C-9.31 46.66 -9.63 45.32 -10 44 C-10.66 44 -11.32 44 -12 44 C-12 44.66 -12 45.32 -12 46 C-12.66 46 -13.32 46 -14 46 C-17.82 41.83 -17.82 41.83 -18.44 38.94 C-19 37 -19 37 -21.5 35.12 C-24 33 -24 33 -24.81 29.75 C-24.87 28.84 -24.94 27.94 -25 27 C-18.25 23 -18.25 23 -16 23 C-16.33 21.68 -16.66 20.36 -17 19 C-16.34 19 -15.68 19 -15 19 C-14.67 17.35 -14.34 15.7 -14 14 C-13.01 14 -12.02 14 -11 14 C-11 14.99 -11 15.98 -11 17 C-10.01 17 -9.02 17 -8 17 C-8 17.66 -8 18.32 -8 19 C-5.69 18.34 -3.38 17.68 -1 17 C-1.66 17 -2.32 17 -3 17 C-4.35 16.37 -5.68 15.7 -7 15 C-7 11 -7 11 -5 9 C-5.38 6.87 -5.38 6.87 -6 5 C-5.38 4.92 -4.76 4.84 -4.12 4.75 C-2 4 -2 4 -0.75 1.94 C-0.5 1.3 -0.25 0.66 0 0 Z M11 12 C12 14 12 14 12 14 Z M3 14 C3.33 14.66 3.66 15.32 4 16 C4.99 15.67 5.98 15.34 7 15 C5.68 14.67 4.36 14.34 3 14 Z " fill="#B7B4A7" transform="translate(35,10)"/>
<path d="M0 0 C0.66 0 1.32 0 2 0 C2.33 0.66 2.66 1.32 3 2 C4.32 2 5.64 2 7 2 C7 2.99 7 3.98 7 5 C6.01 5.33 5.02 5.66 4 6 C5.32 6 6.64 6 8 6 C8.66 5.34 9.32 4.68 10 4 C12.62 3.88 12.62 3.88 15 4 C15 4.66 15 5.32 15 6 C18.62 7.81 22.15 6.68 26 6 C25.84 5.5 25.84 5.5 25 3 C28.15 2.3 30.73 2 34 2 C34 5.63 34 9.26 34 13 C30.87 13.78 28.86 14.11 25.75 14.06 C25.13 14.05 25.13 14.05 22 14 C22 14.66 22 15.32 22 16 C23.98 16 25.96 16 28 16 C26 18 26 18 22.44 18.5 C21.87 18.58 21.87 18.58 19 19 C18.67 19.66 18.34 20.32 18 21 C15.44 21.62 15.44 21.62 13 22 C13 22.99 13 23.98 13 25 C15 26.69 15 26.69 17 28 C16.19 29.17 15.38 30.34 14.56 31.5 C14.34 31.82 14.34 31.82 13.19 33.47 C12.8 33.97 12.41 34.48 12 35 C11.67 35 11.34 35 11 35 C11 32.69 11 30.38 11 28 C10.01 28 9.02 28 8 28 C8 30.31 8 32.62 8 35 C6.68 34.67 5.36 34.34 4 34 C4 32.68 4 31.36 4 30 C2.35 30.66 0.7 31.32 -1 32 C-1 30.02 -1 28.04 -1 26 C-1.66 26 -2.32 26 -3 26 C-3 25.34 -3 24.68 -3 24 C-3.99 24 -4.98 24 -6 24 C-5.67 26.97 -5.34 29.94 -5 33 C-5.66 33 -6.32 33 -7 33 C-7 32.01 -7 31.02 -7 30 C-7.66 30 -8.32 30 -9 30 C-9.33 31.32 -9.66 32.64 -10 34 C-14.36 32.21 -15.54 30.03 -17.32 25.8 C-18.6 20.54 -17.75 15.3 -17 10 C-16.34 10 -15.68 10 -15 10 C-14.67 8.35 -14.34 6.7 -14 5 C-13.01 5 -12.02 5 -11 5 C-11 5.99 -11 6.98 -11 8 C-10.01 8 -9.02 8 -8 8 C-8 8.66 -8 9.32 -8 10 C-5.65 9.4 -3.31 8.73 -1 8 C-0.67 7.34 -0.34 6.68 0 6 C-0.99 6 -1.98 6 -3 6 C-3 5.01 -3 4.02 -3 3 C-2.34 3 -1.68 3 -1 3 C-0.67 2.01 -0.34 1.02 0 0 Z " fill="#848586" transform="translate(35,19)"/>
<path d="M0 0 C-0.12 0.55 -0.24 1.09 -0.36 1.65 C-1.42 7.89 -0.64 12.71 3 18 C3.99 18.33 4.98 18.66 6 19 C6.33 18.01 6.66 17.02 7 16 C7.66 16 8.32 16 9 16 C9 16.99 9 17.98 9 19 C9.66 19 10.32 19 11 19 C10.65 17.89 10.3 16.77 9.94 15.62 C9 12 9 12 10 10 C10.99 10 11.98 10 13 10 C13 10.66 13 11.32 13 12 C13.66 12 14.32 12 15 12 C15.33 13.65 15.66 15.3 16 17 C17.32 16.67 18.64 16.34 20 16 C20 17.32 20 18.64 20 20 C20.99 20 21.98 20 23 20 C23.33 18.02 23.66 16.04 24 14 C24.99 14 25.98 14 27 14 C27.16 14.83 27.16 14.83 28 19 C29.32 17.68 30.64 16.36 32 15 C32.16 16.98 32.16 16.98 33 27 C33.16 26.51 33.16 26.51 34 24 C34.66 24 35.32 24 36 24 C36 26.31 36 28.62 36 31 C35.01 31 34.02 31 33 31 C33.16 31.66 33.16 31.66 34 35 C34.66 34.67 35.32 34.34 36 34 C34.85 36.47 33.95 38.05 32 40 C31.01 40 30.02 40 29 40 C28.67 39.34 28.34 38.68 28 38 C26.02 38 24.04 38 22 38 C21.88 37.2 21.75 36.39 21.62 35.56 C21.42 34.72 21.21 33.87 21 33 C20.34 32.67 19.68 32.34 19 32 C19 33.32 19 34.64 19 36 C17.35 36 15.7 36 14 36 C14 34.68 14 33.36 14 32 C13.34 32.16 13.34 32.16 10 33 C8.52 30.04 8.94 27.26 9 24 C8.01 24 7.02 24 6 24 C6 23.01 6 22.02 6 21 C5.34 21 4.68 21 4 21 C4 21.66 4 22.32 4 23 C3.34 23 2.68 23 2 23 C-1.82 18.83 -1.82 18.83 -2.44 15.94 C-3 14 -3 14 -5.5 12.12 C-8 10 -8 10 -8.81 6.75 C-8.87 5.84 -8.94 4.94 -9 4 C-2.25 0 -2.25 0 0 0 Z " fill="#909299" transform="translate(19,33)"/>
<path d="M0 0 C0.99 0 1.98 0 3 0 C3 1.65 3 3.3 3 5 C3.66 5.33 4.32 5.66 5 6 C4.34 6.99 3.68 7.98 3 9 C2.67 9.99 2.34 10.98 2 12 C1 15 1 15 -1 18 C-2.32 17.67 -3.64 17.34 -5 17 C-5.33 17.95 -5.65 18.91 -5.99 19.89 C-6.43 21.15 -6.87 22.42 -7.31 23.69 C-7.74 24.93 -8.17 26.17 -8.61 27.45 C-9.83 30.57 -11.18 33.21 -13 36 C-13.99 35.67 -14.98 35.34 -16 35 C-16.33 34.34 -16.66 33.68 -17 33 C-17.66 33 -18.32 33 -19 33 C-19.33 33.99 -19.66 34.98 -20 36 C-20.99 35.67 -21.98 35.34 -23 35 C-23.27 35.76 -23.54 36.53 -23.81 37.31 C-25.64 41.46 -25.64 41.46 -28 43 C-32.28 43.55 -34.26 43.53 -37.81 41 C-38.53 40.34 -39.26 39.68 -40 39 C-40.66 39 -41.32 39 -42 39 C-41.67 37.68 -41.34 36.36 -41 35 C-41.99 34.34 -42.98 33.68 -44 33 C-44.33 34.32 -44.66 35.64 -45 37 C-47.66 36.64 -48.73 36.33 -50.45 34.21 C-53.28 29.02 -54.68 24.92 -55 19 C-54.34 19 -53.68 19 -53 19 C-52.67 21.97 -52.34 24.94 -52 28 C-50.68 27.67 -49.36 27.34 -48 27 C-48 28.32 -48 29.64 -48 31 C-47.34 31 -46.68 31 -46 31 C-45.67 30.34 -45.34 29.68 -45 29 C-45 29.66 -45 30.32 -45 31 C-44.34 31 -43.68 31 -43 31 C-43 29.68 -43 28.36 -43 27 C-42.01 27.33 -41.02 27.66 -40 28 C-40 29.65 -40 31.3 -40 33 C-39.01 32.84 -39.01 32.84 -34 32 C-33.67 32.99 -33.34 33.98 -33 35 C-31.32 34.03 -29.65 33.03 -28 32 C-28 31.67 -28 31.34 -28 31 C-28.33 31 -28.66 31 -29 31 C-29 29.35 -29 27.7 -29 26 C-28.01 26 -27.02 26 -26 26 C-25.73 25.36 -25.46 24.72 -25.19 24.06 C-24 22 -24 22 -21 21 C-21.33 23.31 -21.66 25.62 -22 28 C-18.63 27.75 -18.63 27.75 -15 27 C-13.56 24.94 -13.56 24.94 -13 23 C-13.99 23 -14.98 23 -16 23 C-16.62 21.13 -16.62 21.13 -17 19 C-16.34 18.34 -15.68 17.68 -15 17 C-13.68 17 -12.36 17 -11 17 C-11 12.71 -11 8.42 -11 4 C-10.34 4.99 -9.68 5.98 -9 7 C-8.34 6.01 -7.68 5.02 -7 4 C-6.34 4.33 -5.68 4.66 -5 5 C-5.5 5.78 -5.99 6.57 -6.5 7.38 C-8 10 -8 10 -8 12 C-7.34 11.34 -6.68 10.68 -6 10 C-6 11.65 -6 13.3 -6 15 C-5.01 15 -4.02 15 -3 15 C-2.69 13.87 -2.38 12.73 -2.06 11.56 C-1 8 -1 8 0 7 C0.04 4.67 0.04 2.33 0 0 Z " fill="#D6D2D0" transform="translate(81,38)"/>
<path d="M0 0 C2.05 0.03 4.1 0.07 6.15 0.1 C6.15 3.73 6.15 7.36 6.15 11.1 C3.02 11.88 1.01 12.21 -2.1 12.16 C-2.72 12.15 -2.72 12.15 -5.85 12.1 C-5.85 12.76 -5.85 13.42 -5.85 14.1 C-3.87 14.1 -1.89 14.1 0.15 14.1 C-1.85 16.1 -1.85 16.1 -5.41 16.6 C-5.98 16.68 -5.98 16.68 -8.85 17.1 C-9.18 17.76 -9.51 18.42 -9.85 19.1 C-12.41 19.72 -12.41 19.72 -14.85 20.1 C-14.85 21.42 -14.85 22.74 -14.85 24.1 C-16.5 24.1 -18.15 24.1 -19.85 24.1 C-19.85 23.11 -19.85 22.12 -19.85 21.1 C-20.63 21.3 -21.42 21.51 -22.22 21.72 C-27.03 22.22 -31.18 21.21 -35.85 20.1 C-32.82 17.68 -30.71 16.63 -26.85 16.1 C-27.18 15.11 -27.51 14.12 -27.85 13.1 C-26.41 10.91 -26.41 10.91 -24.85 9.1 C-25.18 8.77 -25.51 8.44 -25.85 8.1 C-25.89 6.1 -25.89 4.1 -25.85 2.1 C-24.2 2.1 -22.55 2.1 -20.85 2.1 C-21.84 2.76 -22.83 3.42 -23.85 4.1 C-22.53 4.1 -21.21 4.1 -19.85 4.1 C-19.19 3.44 -18.53 2.78 -17.85 2.1 C-15.22 1.97 -15.22 1.97 -12.85 2.1 C-12.85 2.76 -12.85 3.42 -12.85 4.1 C-9.22 5.91 -5.69 4.78 -1.85 4.1 C-2.01 3.6 -2.01 3.6 -2.85 1.1 C-1.85 0.1 -1.85 0.1 0 0 Z " fill="#9D9A85" transform="translate(62.84765625,20.90234375)"/>
<path d="M0 0 C1.65 0 3.3 0 5 0 C5 0.66 5 1.32 5 2 C6.65 2 8.3 2 10 2 C10.12 4.88 10.12 4.88 10 8 C9.34 8.66 8.68 9.32 8 10 C7.59 11.95 7.59 11.95 7.38 14.12 C7.25 15.4 7.13 16.68 7 18 C6.67 17.34 6.34 16.68 6 16 C5.01 16 4.02 16 3 16 C2.67 15.01 2.34 14.02 2 13 C1.67 13.16 1.67 13.16 0 14 C0.52 11.24 1.11 8.67 2 6 C-0.04 7.69 -0.92 8.64 -1.51 11.26 C-1.57 12.06 -1.63 12.86 -1.69 13.69 C-1.75 14.5 -1.82 15.3 -1.89 16.14 C-1.92 16.75 -1.96 17.37 -2 18 C-4.31 18.33 -6.62 18.66 -9 19 C-9 20.32 -9 21.64 -9 23 C-9.66 23 -10.32 23 -11 23 C-11.29 21.87 -11.58 20.73 -11.88 19.56 C-12.25 18.39 -12.62 17.21 -13 16 C-13.66 15.67 -14.32 15.34 -15 15 C-15 15.99 -15 16.98 -15 18 C-14.34 18 -13.68 18 -13 18 C-13.33 18.99 -13.66 19.98 -14 21 C-14 20.34 -14 19.68 -14 19 C-14.99 19 -15.98 19 -17 19 C-17.99 18.01 -18.98 17.02 -20 16 C-19.01 13.03 -18.02 10.06 -17 7 C-18.65 6.67 -20.3 6.34 -22 6 C-22 5.67 -22 5.34 -22 5 C-20.02 5 -18.04 5 -16 5 C-16 5.66 -16 6.32 -16 7 C-15.34 7 -14.68 7 -14 7 C-14 7.66 -14 8.32 -14 9 C-13.34 9 -12.68 9 -12 9 C-11.67 8.01 -11.34 7.02 -11 6 C-11.66 5.67 -12.32 5.34 -13 5 C-13 4.34 -13 3.68 -13 3 C-12.16 3.01 -11.31 3.02 -10.45 3.04 C-9.35 3.04 -8.25 3.05 -7.12 3.06 C-6.58 3.07 -6.58 3.07 -3.82 3.1 C-1 3 -1 3 1 2 C0.67 1.34 0.34 0.68 0 0 Z " fill="#949496" transform="translate(72,37)"/>
<path d="M0 0 C-0.12 0.55 -0.24 1.09 -0.36 1.65 C-1.42 7.89 -0.64 12.71 3 18 C3.99 18.33 4.98 18.66 6 19 C6.33 18.01 6.66 17.02 7 16 C7.66 16 8.32 16 9 16 C9 16.99 9 17.98 9 19 C9.66 19 10.32 19 11 19 C10.65 17.89 10.3 16.77 9.94 15.62 C9 12 9 12 10 10 C10.99 10 11.98 10 13 10 C13 10.66 13 11.32 13 12 C13.66 12 14.32 12 15 12 C14.93 12.58 14.86 13.16 14.78 13.76 C14.25 18.2 13.89 22.52 14 27 C13.34 27 12.68 27 12 27 C12.33 28.65 12.66 30.3 13 32 C12.51 32.16 12.51 32.16 10 33 C8.52 30.04 8.94 27.26 9 24 C8.01 24 7.02 24 6 24 C6 23.01 6 22.02 6 21 C5.34 21 4.68 21 4 21 C4 21.66 4 22.32 4 23 C3.34 23 2.68 23 2 23 C-1.82 18.83 -1.82 18.83 -2.44 15.94 C-3 14 -3 14 -5.5 12.12 C-8 10 -8 10 -8.81 6.75 C-8.87 5.84 -8.94 4.94 -9 4 C-2.25 0 -2.25 0 0 0 Z " fill="#ACB1BC" transform="translate(19,33)"/>
<path d="M0 0 C2.05 0.03 4.1 0.07 6.15 0.1 C6.15 3.73 6.15 7.36 6.15 11.1 C3.02 11.88 1.01 12.21 -2.1 12.16 C-2.72 12.15 -2.72 12.15 -5.85 12.1 C-5.85 12.76 -5.85 13.42 -5.85 14.1 C-3.87 14.1 -1.89 14.1 0.15 14.1 C-0.51 14.76 -1.17 15.42 -1.85 16.1 C-4.01 16.07 -4.01 16.07 -6.47 15.72 C-7.29 15.61 -8.11 15.5 -8.95 15.39 C-9.58 15.29 -10.2 15.2 -10.85 15.1 C-10.85 15.76 -10.85 16.42 -10.85 17.1 C-17.28 18.42 -23.28 19.35 -29.85 19.1 C-29.85 18.77 -29.85 18.44 -29.85 18.1 C-27.87 17.77 -25.89 17.44 -23.85 17.1 C-24.18 16.44 -24.51 15.78 -24.85 15.1 C-24.52 14.44 -24.19 13.78 -23.85 13.1 C-21.56 12.68 -21.56 12.68 -18.79 12.47 C-18.33 12.44 -18.33 12.44 -16 12.25 C-15.64 12.22 -15.64 12.22 -13.85 12.1 C-13.85 12.76 -13.85 13.42 -13.85 14.1 C-13.19 14.1 -12.53 14.1 -11.85 14.1 C-11.85 13.44 -11.85 12.78 -11.85 12.1 C-9.21 11.77 -6.57 11.44 -3.85 11.1 C-3.85 10.44 -3.85 9.78 -3.85 9.1 C-3.19 9.1 -2.53 9.1 -1.85 9.1 C-1.52 8.11 -1.19 7.12 -0.85 6.1 C0.8 6.1 2.45 6.1 4.15 6.1 C4.15 5.11 4.15 4.12 4.15 3.1 C2.5 3.43 0.85 3.76 -0.85 4.1 C-1.51 3.11 -2.17 2.12 -2.85 1.1 C-1.85 0.1 -1.85 0.1 0 0 Z " fill="#7B8082" transform="translate(62.84765625,20.90234375)"/>
<path d="M0 0 C0.66 0 1.32 0 2 0 C2.33 2.97 2.66 5.94 3 9 C4.32 8.67 5.64 8.34 7 8 C7 9.32 7 10.64 7 12 C7.66 12 8.32 12 9 12 C9.33 11.34 9.66 10.68 10 10 C10 10.66 10 11.32 10 12 C10.66 12 11.32 12 12 12 C12 10.68 12 9.36 12 8 C12.99 8.33 13.98 8.66 15 9 C15 10.65 15 12.3 15 14 C16.98 13.67 18.96 13.34 21 13 C21.33 13.99 21.66 14.98 22 16 C23.98 15.01 25.96 14.02 28 13 C28 15.31 28 17.62 28 20 C26.4 20.39 24.79 20.76 23.19 21.12 C22.29 21.33 21.4 21.54 20.48 21.76 C18 22 18 22 15 20 C14.34 20 13.68 20 13 20 C13.33 18.68 13.66 17.36 14 16 C13.01 15.34 12.02 14.68 11 14 C10.67 15.32 10.34 16.64 10 18 C7.34 17.64 6.27 17.33 4.55 15.21 C1.72 10.02 0.32 5.92 0 0 Z " fill="#BBC8D9" transform="translate(26,57)"/>
<path d="M0 0 C0.99 0.33 1.98 0.66 3 1 C3 2.98 3 4.96 3 7 C4.45 5.55 4.56 3.96 5 2 C6.32 2.33 7.64 2.66 9 3 C9 3.99 9 4.98 9 6 C10.65 6.33 12.3 6.66 14 7 C14 8.32 14 9.64 14 11 C15.32 11 16.64 11 18 11 C18 14 18 14 16.69 15.69 C15 17 15 17 12 17 C11.67 16.34 11.34 15.68 11 15 C9.02 15 7.04 15 5 15 C4.88 14.2 4.75 13.39 4.62 12.56 C4.42 11.72 4.21 10.87 4 10 C3.34 9.67 2.68 9.34 2 9 C2 10.32 2 11.64 2 13 C0.35 13 -1.3 13 -3 13 C-2.67 10.69 -2.34 8.38 -2 6 C-1.34 6 -0.68 6 0 6 C0 4.02 0 2.04 0 0 Z " fill="#A5B2C7" transform="translate(36,56)"/>
<path d="M0 0 C0.93 3.01 1.04 3.87 0 7 C1.98 6.67 3.96 6.34 6 6 C5.67 7.98 5.34 9.96 5 12 C4.34 12 3.68 12 3 12 C2.67 12.99 2.34 13.98 2 15 C1.01 14.67 0.02 14.34 -1 14 C-1.27 14.76 -1.54 15.53 -1.81 16.31 C-3.64 20.46 -3.64 20.46 -6 22 C-9.56 22.31 -9.56 22.31 -13 22 C-13.66 21.34 -14.32 20.68 -15 20 C-11.6 17.91 -8.95 17.82 -5 18 C-5 15.03 -5 12.06 -5 9 C-5.33 9.16 -5.33 9.16 -7 10 C-7 8.35 -7 6.7 -7 5 C-6.01 5 -5.02 5 -4 5 C-3.71 4.36 -3.42 3.72 -3.12 3.06 C-2 1 -2 1 0 0 Z " fill="#DFDCD9" transform="translate(59,59)"/>
<path d="M0 0 C0.99 0 1.98 0 3 0 C2.34 1.98 1.68 3.96 1 6 C1.99 6.33 2.98 6.66 4 7 C4 7.66 4 8.32 4 9 C5.32 8.67 6.64 8.34 8 8 C7.34 8 6.68 8 6 8 C6 7.01 6 6.02 6 5 C7.32 5.66 8.64 6.32 10 7 C10 8.98 10 10.96 10 13 C10.66 13 11.32 13 12 13 C12 11.68 12 10.36 12 9 C12.66 9.33 13.32 9.66 14 10 C14 11.32 14 12.64 14 14 C14.99 14 15.98 14 17 14 C16.43 16.87 16.14 17.86 14 20 C14 19.34 14 18.68 14 18 C12.02 18.33 10.04 18.66 8 19 C8 17.02 8 15.04 8 13 C7.34 13.33 7.34 13.33 4 15 C4 13.35 4 11.7 4 10 C3.34 10 2.68 10 2 10 C1.67 11.32 1.34 12.64 1 14 C0.67 14 0.34 14 0 14 C0 9.38 0 4.76 0 0 Z " fill="#B4B4B6" transform="translate(51,47)"/>
<path d="M0 0 C2.05 0.03 4.1 0.07 6.15 0.1 C6.15 1.09 6.15 2.08 6.15 3.1 C7.27 3.06 8.38 3.02 9.53 2.97 C13.15 3.1 13.15 3.1 15.15 5.1 C14.34 6.27 13.53 7.43 12.71 8.6 C12.26 9.25 11.81 9.9 11.34 10.57 C10.95 11.07 10.56 11.58 10.15 12.1 C9.82 12.1 9.49 12.1 9.15 12.1 C9.15 9.79 9.15 7.48 9.15 5.1 C8.16 5.1 7.17 5.1 6.15 5.1 C6.15 7.41 6.15 9.72 6.15 12.1 C4.83 11.77 3.51 11.44 2.15 11.1 C2.15 9.78 2.15 8.46 2.15 7.1 C0.5 7.76 -1.15 8.42 -2.85 9.1 C-2.95 2.95 -2.95 2.95 -2.85 1.1 C-1.85 0.1 -1.85 0.1 0 0 Z " fill="#6B6F70" transform="translate(36.84765625,41.90234375)"/>
<path d="M0 0 C0.99 0 1.98 0 3 0 C3 1.98 3 3.96 3 6 C3.99 6 4.98 6 6 6 C6.33 7.65 6.66 9.3 7 11 C5.68 11.33 4.36 11.66 3 12 C2.67 11.01 2.34 10.02 2 9 C1.55 9.49 1.09 9.99 0.62 10.5 C-1 12 -1 12 -3 12 C-3 12.99 -3 13.98 -3 15 C-2.34 15.33 -1.68 15.66 -1 16 C-2.88 16.62 -2.88 16.62 -5 17 C-5.66 16.34 -6.32 15.68 -7 15 C-7 11 -7 11 -5 9 C-5.38 6.88 -5.38 6.88 -6 5 C-5.38 4.92 -4.76 4.84 -4.12 4.75 C-2 4 -2 4 -0.75 1.94 C-0.5 1.3 -0.26 0.66 0 0 Z " fill="#AEACA2" transform="translate(35,10)"/>
<path d="M0 0 C0.66 0.66 1.32 1.32 2 2 C4.12 1.62 4.12 1.62 6 1 C6 2.32 6 3.64 6 5 C6.99 5 7.98 5 9 5 C9.66 4.34 10.32 3.68 11 3 C11 4.65 11 6.3 11 8 C10.01 8 9.02 8 8 8 C8.02 8.95 8.04 9.9 8.06 10.88 C8 14 8 14 7 16 C6.01 15.67 5.02 15.34 4 15 C4.66 15 5.32 15 6 15 C5.62 12.06 5.62 12.06 5 9 C4.34 8.67 3.68 8.34 3 8 C3 9.98 3 11.96 3 14 C2.34 14 1.68 14 1 14 C1 15.65 1 17.3 1 19 C-2 15.38 -2 15.38 -2 12 C-1.34 12 -0.68 12 0 12 C-0.08 11.3 -0.17 10.6 -0.25 9.88 C-0.36 8.97 -0.46 8.06 -0.56 7.12 C-0.67 6.22 -0.77 5.32 -0.88 4.38 C-1 2 -1 2 0 0 Z " fill="#7F8896" transform="translate(33,48)"/>
<path d="M0 0 C0.99 0 1.98 0 3 0 C3 1.65 3 3.3 3 5 C3.66 5.33 4.32 5.66 5 6 C4.67 6.49 4.67 6.49 3 9 C2.67 9.99 2.34 10.98 2 12 C1 15 1 15 -1 18 C-1.6 17.81 -2.2 17.63 -2.81 17.44 C-5 17 -5 17 -8 18 C-8 17.01 -8 16.02 -8 15 C-8.66 15 -9.32 15 -10 15 C-10.33 15.66 -10.66 16.32 -11 17 C-11 12.71 -11 8.42 -11 4 C-10.67 4.49 -10.67 4.49 -9 7 C-8.34 6.01 -7.68 5.02 -7 4 C-6.34 4.33 -5.68 4.66 -5 5 C-5.5 5.78 -5.99 6.57 -6.5 7.38 C-8 10 -8 10 -8 12 C-7.34 11.34 -6.68 10.68 -6 10 C-6 11.65 -6 13.3 -6 15 C-5.01 15 -4.02 15 -3 15 C-2.69 13.87 -2.38 12.73 -2.06 11.56 C-1 8 -1 8 0 7 C0.04 4.67 0.04 2.33 0 0 Z " fill="#D0C9C0" transform="translate(81,38)"/>
<path d="M0 0 C0 0.66 0 1.32 0 2 C-3 4 -3 4 -6 4 C-6 4.66 -6 5.32 -6 6 C-4.68 6.33 -3.36 6.66 -2 7 C-3.38 8.5 -3.38 8.5 -5 10 C-5.66 10 -6.32 10 -7 10 C-7 9.34 -7 8.68 -7 8 C-7.66 8 -8.32 8 -9 8 C-9 7.34 -9 6.68 -9 6 C-9.99 6.33 -10.98 6.66 -12 7 C-11.34 7.33 -10.68 7.66 -10 8 C-10.33 8.99 -10.66 9.98 -11 11 C-14.3 10.01 -17.6 9.02 -21 8 C-19.68 7.67 -18.36 7.34 -17 7 C-17.33 6.01 -17.66 5.02 -18 4 C-16.02 3.67 -14.04 3.34 -12 3 C-12 2.34 -12 1.68 -12 1 C-7.92 0.46 -4.13 0 0 0 Z " fill="#D1C08F" transform="translate(65,36)"/>
<path d="M0 0 C0.33 0.99 0.66 1.98 1 3 C1.34 3.24 1.34 3.24 3.06 4.44 C3.7 4.95 4.34 5.47 5 6 C5 7.32 5 8.64 5 10 C4.01 10.33 3.02 10.66 2 11 C2 10.34 2 9.68 2 9 C2.66 9 3.32 9 4 9 C4 8.34 4 7.68 4 7 C2.68 7 1.36 7 0 7 C0 7.66 0 8.32 0 9 C-0.66 9 -1.32 9 -2 9 C-2 8.34 -2 7.68 -2 7 C-2.29 7.07 -2.29 7.07 -3.75 7.44 C-5.2 7.8 -6.66 8.14 -8.12 8.44 C-10 9 -10 9 -12 11 C-13.5 9.62 -13.5 9.62 -15 8 C-15 7.34 -15 6.68 -15 6 C-12.36 5.67 -9.72 5.34 -7 5 C-7 3.35 -7 1.7 -7 0 C-4.33 -1.33 -2.83 -0.67 0 0 Z " fill="#C2C1B8" transform="translate(71,14)"/>
<path d="M0 0 C1.98 0 3.96 0 6 0 C6 0.99 6 1.98 6 3 C5.2 3.12 4.39 3.25 3.56 3.38 C2.72 3.58 1.87 3.79 1 4 C0.67 4.66 0.34 5.32 0 6 C-0.66 6 -1.32 6 -2 6 C-2 6.66 -2 7.32 -2 8 C-4.64 8.33 -7.28 8.66 -10 9 C-10 9.66 -10 10.32 -10 11 C-10.66 11 -11.32 11 -12 11 C-12 10.34 -12 9.68 -12 9 C-14.31 9.66 -16.62 10.32 -19 11 C-19 10.34 -19 9.68 -19 9 C-19.99 8.67 -20.98 8.34 -22 8 C-16.61 5.73 -11.74 5.8 -6 6 C-6 5.34 -6 4.68 -6 4 C-4.35 3.67 -2.7 3.34 -1 3 C-0.67 2.01 -0.34 1.02 0 0 Z " fill="#B8B08F" transform="translate(61,24)"/>
<path d="M0 0 C0.66 0 1.32 0 2 0 C2.33 0.66 2.66 1.32 3 2 C4.32 2 5.64 2 7 2 C7 2.66 7 3.32 7 4 C5.35 4 3.7 4 2 4 C2 5.98 2 7.96 2 10 C2.99 9.67 3.98 9.34 5 9 C5 9.66 5 10.32 5 11 C4.34 11 3.68 11 3 11 C1 15.75 1 15.75 1 18 C-1.91 19.26 -3.8 20 -7 20 C-6.67 18.02 -6.34 16.04 -6 14 C-5.34 14 -4.68 14 -4 14 C-3.67 13.34 -3.34 12.68 -3 12 C-2.67 12.66 -2.34 13.32 -2 14 C-1.34 14 -0.68 14 0 14 C0 11.36 0 8.72 0 6 C-0.99 6 -1.98 6 -3 6 C-3 5.01 -3 4.02 -3 3 C-2.34 3 -1.68 3 -1 3 C-0.67 2.01 -0.34 1.02 0 0 Z " fill="#787E7E" transform="translate(35,19)"/>
<path d="M0 0 C0.99 0 1.98 0 3 0 C3 0.99 3 1.98 3 3 C3.99 3 4.98 3 6 3 C6 3.66 6 4.32 6 5 C8.64 4.34 11.28 3.68 14 3 C14 4.98 14 6.96 14 9 C13.34 9 12.68 9 12 9 C11.67 9.66 11.34 10.32 11 11 C10.67 10.34 10.34 9.68 10 9 C9.09 9.04 8.19 9.08 7.25 9.12 C4.12 9 2.61 8.61 0 7 C0 7.66 0 8.32 0 9 C-0.66 9 -1.32 9 -2 9 C-2.33 7.68 -2.66 6.36 -3 5 C-2.34 5 -1.68 5 -1 5 C-0.67 3.35 -0.34 1.7 0 0 Z " fill="#ABAA9D" transform="translate(21,24)"/>
<path d="M0 0 C2.67 0.67 5.33 1.33 8 2 C7.67 3.98 7.34 5.96 7 8 C7.3 8.14 7.3 8.14 8.81 8.88 C11 10 11 10 14 12 C13.67 12.66 13.34 13.32 13 14 C12.34 14 11.68 14 11 14 C11 13.34 11 12.68 11 12 C10.01 11.84 10.01 11.84 5 11 C4.67 10.01 4.34 9.02 4 8 C1.69 8 -0.62 8 -3 8 C-2.67 6.02 -2.34 4.04 -2 2 C-1.34 2 -0.68 2 0 2 C0 1.34 0 0.68 0 0 Z " fill="#899092" transform="translate(21,31)"/>
<path d="M0 0 C1.32 0.33 2.64 0.66 4 1 C4 1.99 4 2.98 4 4 C5.65 4.33 7.3 4.66 9 5 C9 6.32 9 7.64 9 9 C10.32 9 11.64 9 13 9 C13 12 13 12 11.69 13.69 C10 15 10 15 7 15 C3.86 11.86 3.06 8.22 2 4 C1.34 4 0.68 4 0 4 C0 2.68 0 1.36 0 0 Z " fill="#97A2B4" transform="translate(41,58)"/>
<path d="M0 0 C0.66 0 1.32 0 2 0 C2.33 2.97 2.66 5.94 3 9 C4.32 8.67 5.64 8.34 7 8 C7 9.32 7 10.64 7 12 C7.66 12 8.32 12 9 12 C9.33 11.34 9.66 10.68 10 10 C10 10.66 10 11.32 10 12 C10.66 12 11.32 12 12 12 C12 10.68 12 9.36 12 8 C12.66 8 13.32 8 14 8 C14 10.31 14 12.62 14 15 C13.01 14.67 12.02 14.34 11 14 C10.67 15.32 10.34 16.64 10 18 C7.34 17.64 6.27 17.33 4.55 15.21 C1.72 10.02 0.32 5.92 0 0 Z " fill="#CDD5E2" transform="translate(26,57)"/>
<path d="M0 0 C-0.05 0.3 -0.05 0.3 -0.29 1.83 C-0.34 2.23 -0.34 2.23 -0.62 4.25 C-0.74 5.04 -0.86 5.83 -0.98 6.64 C-1 9.32 -0.37 10.73 1 13 C-2.31 12.81 -2.31 12.81 -6 12 C-8.11 9.56 -8.97 8.1 -9.06 4.88 C-7.23 1.64 -3.68 0 0 0 Z " fill="#ACADAD" transform="translate(19,33)"/>
<path d="M0 0 C0.66 0 1.32 0 2 0 C1.67 2.31 1.34 4.62 1 7 C0.01 7 -0.98 7 -2 7 C-2.12 4.62 -2.12 4.62 -2 2 C-1.34 1.34 -0.68 0.68 0 0 Z " fill="#D9DCE1" transform="translate(79,57)"/>
<path d="M0 0 C2 1 2 1 2 1 Z " fill="#F6F6F4" transform="translate(44,17)"/>
</svg>
