<?xml version="1.0" encoding="UTF-8"?>
<!-- Generator: visioncortex VTracer 0.6.12 -->
<svg version="1.1" xmlns="http://www.w3.org/2000/svg" width="99" height="94">
<path d="M0 0 C0.99 0 1.98 0 3 0 C3.16 0.82 3.16 0.82 4 5 C4.66 5 5.32 5 6 5 C6 5.99 6 6.98 6 8 C6.66 8 7.32 8 8 8 C8.66 9.98 9.32 11.96 10 14 C10.78 14.08 11.57 14.16 12.38 14.25 C15 15 15 15 16.31 17.06 C16.54 17.7 16.77 18.34 17 19 C18.32 16.69 19.64 14.38 21 12 C21.66 12 22.32 12 23 12 C23.16 12.99 23.16 12.99 24 18 C24.66 18 25.32 18 26 18 C26 18.99 26 19.98 26 21 C26.92 21.17 27.84 21.34 28.78 21.52 C35.81 22.9 41.79 24.4 48 28 C47.68 31.57 47.36 33.56 45.06 36.38 C43 38 43 38 41 38 C40.93 38.47 40.93 38.47 40.56 40.88 C40 44 40 44 39 46 C38.34 46 37.68 46 37 46 C36.67 46.99 36.34 47.98 36 49 C35.5 48.84 35.5 48.84 33 48 C31.68 51.63 30.36 55.26 29 59 C28.34 59 27.68 59 27 59 C27.04 59.76 27.08 60.53 27.12 61.31 C27 64 27 64 25 67 C24.01 66.67 23.02 66.34 22 66 C21.84 64.84 21.84 64.84 21 59 C18.69 59.44 18.69 59.44 16 61 C15.05 63.28 14.44 65.51 13.87 67.91 C12.75 70.6 11.6 70.84 9 72 C8.34 72.99 7.68 73.98 7 75 C2.62 74.28 0.98 72.17 -1.75 68.84 C-3.28 66.59 -3.7 64.69 -4 62 C-4.66 61.01 -5.32 60.02 -6 59 C-6.66 59.99 -7.32 60.98 -8 62 C-8.66 62 -9.32 62 -10 62 C-10.33 60.68 -10.66 59.36 -11 58 C-12.94 58.75 -12.94 58.75 -15 60 C-15.75 62.12 -15.75 62.12 -16 64 C-16.99 64 -17.98 64 -19 64 C-21.12 60.55 -21 57.98 -21 54 C-21.65 52.66 -22.32 51.32 -23 50 C-22.67 49.01 -22.34 48.02 -22 47 C-22.88 44.5 -22.88 44.5 -24 42 C-24.16 41.5 -24.16 41.5 -25 39 C-25.66 38.67 -26.32 38.34 -27 38 C-27.31 37.05 -27.62 36.1 -27.94 35.12 C-28.95 32.15 -29.63 30.94 -32 29 C-26.5 25 -26.5 25 -22 25 C-22.33 23.68 -22.66 22.36 -23 21 C-21.35 21 -19.7 21 -18 21 C-17.67 20.01 -17.34 19.02 -17 18 C-16.34 18 -15.68 18 -15 18 C-14.67 16.02 -14.34 14.04 -14 12 C-13.01 12 -12.02 12 -11 12 C-10.71 12.64 -10.42 13.28 -10.12 13.94 C-9 16 -9 16 -7 17 C-6.67 16.01 -6.34 15.02 -6 14 C-5.34 13.67 -4.68 13.34 -4 13 C-4.33 11.68 -4.66 10.36 -5 9 C-4.01 8.67 -3.02 8.34 -2 8 C-2.33 7.01 -2.66 6.02 -3 5 C-2.34 4.67 -1.68 4.34 -1 4 C-0.38 1.94 -0.38 1.94 0 0 Z M-7 18 C-6.67 18.66 -6.34 19.32 -6 20 C-5.67 19.34 -5.34 18.68 -5 18 C-5.66 18 -6.32 18 -7 18 Z M-15 48 C-15.19 50.81 -15.19 50.81 -15 54 C-14.01 54.99 -13.02 55.98 -12 57 C-12.33 54.03 -12.66 51.06 -13 48 C-13.66 48 -14.32 48 -15 48 Z " fill="#948D71" transform="translate(42,10)"/>
<path d="M0 0 C0.12 0.64 0.25 1.28 0.38 1.94 C0.58 2.62 0.79 3.3 1 4 C1.66 4.33 2.32 4.66 3 5 C2 6 2 6 -0.56 6.06 C-0.96 6.05 -0.96 6.05 -3 6 C-2.34 8.97 -1.68 11.94 -1 15 C-0.01 15 0.98 15 2 15 C3.35 17.71 3.07 20.01 3 23 C3.66 23 4.32 23 5 23 C5 23.66 5 24.32 5 25 C5.66 25 6.32 25 7 25 C7.66 27.31 8.32 29.62 9 32 C9.66 30.68 10.32 29.36 11 28 C11 28.99 11 29.98 11 31 C11.66 31 12.32 31 13 31 C13.33 31.66 13.66 32.32 14 33 C14.32 33.06 14.32 33.06 15.94 33.38 C16.62 33.58 17.3 33.79 18 34 C18.12 34.33 18.12 34.33 18.75 36 C20 38 20 38 21.9 38.48 C23.93 38.73 25.96 38.87 28 39 C28 38.01 28 37.02 28 36 C27.34 36 26.68 36 26 36 C25.75 33.73 25.53 31.46 25.31 29.19 C25.18 27.92 25.06 26.66 24.93 25.36 C25 22 25 22 26.34 20.03 C28 19 28 19 30.19 19.31 C30.79 19.54 31.38 19.77 32 20 C32.33 18.35 32.66 16.7 33 15 C31.19 14.84 31.19 14.84 22 14 C22 13.34 22 12.68 22 12 C23.98 11.97 25.96 11.95 27.94 11.94 C29.04 11.93 30.14 11.91 31.28 11.9 C34 12 34 12 35 13 C34.82 15.28 34.48 17.51 34.16 19.77 C34 22 34 22 35 25 C34.54 27.74 33.75 30.32 33 33 C33.99 32.34 34.98 31.68 36 31 C36.19 27.88 36.19 27.88 36 25 C36.99 25 37.98 25 39 25 C39.33 24.34 39.66 23.68 40 23 C40.16 24.32 40.16 24.32 41 31 C41.66 31 42.32 31 43 31 C43.33 30.34 43.66 29.68 44 29 C46.65 28.41 49.29 28.26 52 28 C51.84 27.51 51.84 27.51 51 25 C50.34 25 49.68 25 49 25 C48.67 25.66 48.34 26.32 48 27 C47.34 27 46.68 27 46 27 C46.19 24.75 46.19 24.75 47 22 C47.78 21.38 48.57 20.76 49.38 20.12 C52.78 17.37 53.51 15.07 55 11 C55.33 11 55.66 11 56 11 C56 12.65 56 14.3 56 16 C56.66 16 57.32 16 58 16 C58 15.34 58 14.68 58 14 C58.66 14 59.32 14 60 14 C60.12 8.25 60.12 8.25 59 6 C60.32 5.67 61.64 5.34 63 5 C62.01 4.34 61.02 3.68 60 3 C60.66 2.34 61.32 1.68 62 1 C64.64 2.32 67.28 3.64 70 5 C69.68 8.57 69.36 10.56 67.06 13.38 C65 15 65 15 63 15 C62.86 15.95 62.71 16.9 62.56 17.88 C62 21 62 21 61 23 C60.34 23 59.68 23 59 23 C58.84 23.49 58.84 23.49 58 26 C57.5 25.84 57.5 25.84 55 25 C53.68 28.63 52.36 32.26 51 36 C50.34 36 49.68 36 49 36 C49.04 36.76 49.08 37.53 49.12 38.31 C49 41 49 41 47 44 C46.01 43.67 45.02 43.34 44 43 C43.84 41.84 43.84 41.84 43 36 C40.69 36.44 40.69 36.44 38 38 C37.05 40.28 36.44 42.51 35.87 44.91 C34.75 47.6 33.6 47.84 31 49 C30.34 49.99 29.68 50.98 29 52 C24.62 51.28 22.98 49.17 20.25 45.84 C18.72 43.59 18.3 41.69 18 39 C17.34 38.01 16.68 37.02 16 36 C15.34 36.99 14.68 37.98 14 39 C13.34 39 12.68 39 12 39 C11.67 37.68 11.34 36.36 11 35 C9.06 35.75 9.06 35.75 7 37 C6.25 39.12 6.25 39.12 6 41 C5.01 41 4.02 41 3 41 C0.88 37.55 1 34.98 1 31 C0.35 29.66 -0.32 28.32 -1 27 C-0.67 26.01 -0.34 25.02 0 24 C-0.87 21.5 -0.87 21.5 -2 19 C-2.33 18.01 -2.66 17.02 -3 16 C-3.66 15.67 -4.32 15.34 -5 15 C-5.31 14.05 -5.62 13.1 -5.94 12.12 C-6.95 9.15 -7.63 7.94 -10 6 C-4.5 2 -4.5 2 0 2 C0 1.34 0 0.68 0 0 Z " fill="#C4C5C8" transform="translate(20,33)"/>
<path d="M0 0 C0.99 0 1.98 0 3 0 C3.33 1.65 3.66 3.3 4 5 C4.66 5 5.32 5 6 5 C6 5.99 6 6.98 6 8 C6.66 8 7.32 8 8 8 C8.66 10.97 9.32 13.94 10 17 C9.34 17 8.68 17 8 17 C8 17.99 8 18.98 8 20 C9.32 19.67 10.64 19.34 12 19 C11.34 19.99 10.68 20.98 10 22 C10.66 22.33 11.32 22.66 12 23 C12 23.66 12 24.32 12 25 C8.47 26.54 5.17 27.44 1.38 28.06 C-1.56 28.55 -4.17 29.06 -7 30 C-9.69 29.56 -9.69 29.56 -12 29 C-11.67 29.99 -11.34 30.98 -11 32 C-11.33 32.16 -11.33 32.16 -13 33 C-7.25 35 -7.25 35 -5 35 C-5 37.31 -5 39.62 -5 42 C-6.65 42.66 -8.3 43.32 -10 44 C-10.5 42.84 -10.5 42.84 -13 37 C-13 38.98 -13 40.96 -13 43 C-13.66 43 -14.32 43 -15 43 C-15 43.66 -15 44.32 -15 45 C-14.34 45.33 -13.68 45.66 -13 46 C-13.66 46 -14.32 46 -15 46 C-15 46.66 -15 47.32 -15 48 C-15.66 48 -16.32 48 -17 48 C-17 47.34 -17 46.68 -17 46 C-17.66 46 -18.32 46 -19 46 C-19.33 43.36 -19.66 40.72 -20 38 C-20.5 38.16 -20.5 38.16 -23 39 C-25 32.37 -25 32.37 -25 29 C-23.35 28.67 -21.7 28.34 -20 28 C-20.33 26.35 -20.66 24.7 -21 23 C-21.66 23 -22.32 23 -23 23 C-23 22.34 -23 21.68 -23 21 C-21.35 21 -19.7 21 -18 21 C-17.67 20.01 -17.34 19.02 -17 18 C-16.34 18 -15.68 18 -15 18 C-14.67 16.02 -14.34 14.04 -14 12 C-13.01 12 -12.02 12 -11 12 C-10.71 12.64 -10.42 13.28 -10.12 13.94 C-9 16 -9 16 -7 17 C-6.67 16.01 -6.34 15.02 -6 14 C-5.34 13.67 -4.68 13.34 -4 13 C-4.33 11.68 -4.66 10.36 -5 9 C-4.01 8.67 -3.02 8.34 -2 8 C-2.33 7.01 -2.66 6.02 -3 5 C-2.34 4.67 -1.68 4.34 -1 4 C-0.38 1.94 -0.38 1.94 0 0 Z M-7 18 C-6.67 18.66 -6.34 19.32 -6 20 C-5.67 19.34 -5.34 18.68 -5 18 C-5.66 18 -6.32 18 -7 18 Z " fill="#817E6D" transform="translate(42,10)"/>
<path d="M0 0 C0.66 0 1.32 0 2 0 C2.16 0.99 2.16 0.99 3 6 C3.66 6 4.32 6 5 6 C5 6.99 5 7.98 5 9 C6.98 9.5 6.98 9.5 17 12 C13.26 13.87 12.16 14.24 8.25 14.12 C7.45 14.11 6.65 14.09 5.83 14.07 C5.22 14.05 4.62 14.02 4 14 C3.67 14.66 3.34 15.32 3 16 C4.07 16.29 5.15 16.58 6.25 16.88 C9.09 17.73 11.44 18.56 14 20 C14 20.33 14 20.66 14 21 C8.27 22.53 1.64 22.88 -4 21 C-4 20.34 -4 19.68 -4 19 C-4.99 18.67 -5.98 18.34 -7 18 C-6.34 17.67 -5.68 17.34 -5 17 C-6.65 16.67 -8.3 16.34 -10 16 C-10.33 16.66 -10.66 17.32 -11 18 C-11.97 17.98 -12.94 17.96 -13.94 17.94 C-17 18 -17 18 -18 19 C-20.22 19.28 -22.44 19.45 -24.68 19.62 C-27.12 20.02 -28.81 20.88 -31 22 C-33.25 21.62 -33.25 21.62 -35 21 C-34.34 19.68 -33.68 18.36 -33 17 C-31.93 17.04 -30.86 17.08 -29.75 17.12 C-26.08 17 -25.09 16.59 -22 15 C-19.99 14.71 -17.99 14.43 -15.97 14.22 C-13.61 13.96 -11.32 13.51 -9 13 C-9 12.34 -9 11.68 -9 11 C-10.32 10.67 -11.64 10.34 -13 10 C-12.34 9.34 -11.68 8.68 -11 8 C-11.66 8 -12.32 8 -13 8 C-13 7.01 -13 6.02 -13 5 C-12.34 5 -11.68 5 -11 5 C-11 4.34 -11 3.68 -11 3 C-9.68 2.67 -8.36 2.34 -7 2 C-6.01 3.65 -5.02 5.3 -4 7 C-2.68 4.69 -1.36 2.38 0 0 Z " fill="#C6BEA4" transform="translate(63,22)"/>
<path d="M0 0 C0.33 0.66 0.66 1.32 1 2 C1.99 2.66 2.98 3.32 4 4 C3.34 4.33 3.34 4.33 0 6 C0.33 6.99 0.66 7.98 1 9 C0.56 11.19 0.56 11.19 0 13 C-0.66 13 -1.32 13 -2 13 C-2 13.66 -2 14.32 -2 15 C-2.66 15 -3.32 15 -4 15 C-4.33 14.01 -4.66 13.02 -5 12 C-5.39 12.89 -5.78 13.77 -6.19 14.69 C-8.07 18.13 -10.21 20.28 -13 23 C-13.33 23.99 -13.66 24.98 -14 26 C-13.34 26 -12.68 26 -12 26 C-11.67 25.01 -11.34 24.02 -11 23 C-10.01 23.33 -9.02 23.66 -8 24 C-8 24.99 -8 25.98 -8 27 C-9.32 27.16 -9.32 27.16 -16 28 C-16.33 28.99 -16.66 29.98 -17 31 C-17.99 30.67 -18.98 30.34 -20 30 C-20.33 28.02 -20.66 26.04 -21 24 C-21.99 24 -22.98 24 -24 24 C-23.67 25.98 -23.34 27.96 -23 30 C-23.99 30.66 -24.98 31.32 -26 32 C-26.66 32.99 -27.32 33.98 -28 35 C-27.04 25.59 -27.04 25.59 -26 21 C-25.01 21 -24.02 21 -23 21 C-23 20.01 -23 19.02 -23 18 C-22.34 18 -21.68 18 -21 18 C-21.33 16.68 -21.66 15.36 -22 14 C-21.34 14 -20.68 14 -20 14 C-20 14.66 -20 15.32 -20 16 C-19.01 15.67 -18.02 15.34 -17 15 C-16.82 14.6 -16.82 14.6 -15.94 12.56 C-12.83 8.45 -8.98 8.71 -4 8 C-5.65 7.34 -5.65 7.34 -14 4 C-13.67 3.01 -13.34 2.02 -13 1 C-12.31 1.01 -11.63 1.02 -10.92 1.04 C-10.02 1.04 -9.12 1.05 -8.19 1.06 C-7.74 1.07 -7.74 1.07 -5.48 1.1 C-3 1 -3 1 0 0 Z " fill="#939499" transform="translate(80,34)"/>
<path d="M0 0 C0.12 0.64 0.25 1.28 0.38 1.94 C0.58 2.62 0.79 3.3 1 4 C1.66 4.33 2.32 4.66 3 5 C2 6 2 6 -0.56 6.06 C-0.96 6.05 -0.96 6.05 -3 6 C-2.34 8.97 -1.68 11.94 -1 15 C-0.01 15 0.98 15 2 15 C3.35 17.71 3.07 20.01 3 23 C3.66 23 4.32 23 5 23 C5 23.66 5 24.32 5 25 C5.66 25 6.32 25 7 25 C7.66 27.31 8.32 29.62 9 32 C9.66 30.68 10.32 29.36 11 28 C11 28.99 11 29.98 11 31 C11.66 31 12.32 31 13 31 C13.33 31.66 13.66 32.32 14 33 C14.32 33.06 14.32 33.06 15.94 33.38 C18 34 18 34 19.25 36.06 C19.5 36.7 19.75 37.34 20 38 C20.99 38 21.98 38 23 38 C23.16 38.83 23.16 38.83 24 43 C23.01 43.33 22.02 43.66 21 44 C20.67 44.66 20.34 45.32 20 46 C19.71 44.91 19.42 43.81 19.12 42.69 C18 39 18 39 16 36 C15.34 36.99 14.68 37.98 14 39 C13.34 39 12.68 39 12 39 C11.67 37.68 11.34 36.36 11 35 C9.06 35.75 9.06 35.75 7 37 C6.25 39.12 6.25 39.12 6 41 C5.01 41 4.02 41 3 41 C0.88 37.55 1 34.98 1 31 C0.35 29.66 -0.32 28.32 -1 27 C-0.67 26.01 -0.34 25.02 0 24 C-0.87 21.5 -0.87 21.5 -2 19 C-2.33 18.01 -2.66 17.02 -3 16 C-3.66 15.67 -4.32 15.34 -5 15 C-5.31 14.05 -5.62 13.1 -5.94 12.12 C-6.95 9.15 -7.63 7.94 -10 6 C-4.5 2 -4.5 2 0 2 C0 1.34 0 0.68 0 0 Z " fill="#D1D7DE" transform="translate(20,33)"/>
<path d="M0 0 C0.99 0 1.98 0 3 0 C3.33 1.65 3.66 3.3 4 5 C4.66 5 5.32 5 6 5 C6 5.99 6 6.98 6 8 C6.66 8 7.32 8 8 8 C8.66 10.31 9.32 12.62 10 15 C8.02 15 6.04 15 4 15 C4 13.68 4 12.36 4 11 C3.73 11.64 3.46 12.28 3.19 12.94 C2 15 2 15 -1 16 C-0.67 18.31 -0.34 20.62 0 23 C-3.96 23 -7.92 23 -12 23 C-12 22.01 -12 21.02 -12 20 C-12.66 20 -13.32 20 -14 20 C-14.33 20.82 -14.33 20.82 -16 25 C-16.66 25 -17.32 25 -18 25 C-18 24.34 -18 23.68 -18 23 C-19.65 23 -21.3 23 -23 23 C-23 22.34 -23 21.68 -23 21 C-21.35 21 -19.7 21 -18 21 C-17.67 20.01 -17.34 19.02 -17 18 C-16.34 18 -15.68 18 -15 18 C-14.67 16.02 -14.34 14.04 -14 12 C-13.01 12 -12.02 12 -11 12 C-10.71 12.64 -10.42 13.28 -10.12 13.94 C-9 16 -9 16 -7 17 C-6.67 16.01 -6.34 15.02 -6 14 C-5.34 13.67 -4.68 13.34 -4 13 C-4.33 11.68 -4.66 10.36 -5 9 C-4.01 8.67 -3.02 8.34 -2 8 C-2.33 7.01 -2.66 6.02 -3 5 C-2.34 4.67 -1.68 4.34 -1 4 C-0.38 1.94 -0.38 1.94 0 0 Z M-7 18 C-6.67 18.66 -6.34 19.32 -6 20 C-5.67 19.34 -5.34 18.68 -5 18 C-5.66 18 -6.32 18 -7 18 Z " fill="#9FA08F" transform="translate(42,10)"/>
<path d="M0 0 C1.98 -0.03 3.96 -0.05 5.94 -0.06 C7.04 -0.07 8.14 -0.09 9.28 -0.1 C12 0 12 0 13 1 C12.82 3.28 12.48 5.51 12.16 7.77 C12 10 12 10 13 13 C12.67 13.8 12.34 14.61 12 15.44 C10.52 20.7 11.36 25.63 12 31 C7.67 32.58 3.57 33.45 -1 34 C-1 33.34 -1 32.68 -1 32 C-0.34 31.67 0.32 31.34 1 31 C1 29.35 1 27.7 1 26 C2.65 26.33 4.3 26.66 6 27 C6 26.01 6 25.02 6 24 C5.34 24 4.68 24 4 24 C3.75 21.73 3.53 19.46 3.31 17.19 C3.18 15.92 3.06 14.66 2.93 13.36 C3 10 3 10 4.34 8.03 C6 7 6 7 8.19 7.31 C8.79 7.54 9.38 7.77 10 8 C10.33 6.35 10.66 4.7 11 3 C7.37 2.67 3.74 2.34 0 2 C0 1.34 0 0.68 0 0 Z " fill="#C9BDAE" transform="translate(42,45)"/>
<path d="M0 0 C3.33 2.22 3.75 3.35 5 7 C6.16 6.84 6.16 6.84 12 6 C12.33 7.32 12.66 8.64 13 10 C12.34 10 11.68 10 11 10 C11.19 11.11 11.37 12.23 11.56 13.38 C12 17 12 17 11 19 C12.65 19 14.3 19 16 19 C16 17.68 16 16.36 16 15 C16.66 15 17.32 15 18 15 C18 17.64 18 20.28 18 23 C18.66 23 19.32 23 20 23 C20 23.99 20 24.98 20 26 C16.17 27.28 14.63 26.62 11 25 C9.62 22.88 9.62 22.88 9 21 C7.68 21 6.36 21 5 21 C5 20.01 5 19.02 5 18 C4.34 18 3.68 18 3 18 C3 17.01 3 16.02 3 15 C2.34 15 1.68 15 1 15 C1 14.01 1 13.02 1 12 C0.34 12 -0.32 12 -1 12 C-1 10.35 -1 8.7 -1 7 C-0.34 7 0.32 7 1 7 C0.67 4.69 0.34 2.38 0 0 Z " fill="#8D99AB" transform="translate(28,46)"/>
<path d="M0 0 C2.97 1.32 5.94 2.64 9 4 C8.68 7.57 8.36 9.56 6.06 12.38 C4 14 4 14 2 14 C1.86 14.95 1.71 15.9 1.56 16.88 C1 20 1 20 0 22 C-0.66 22 -1.32 22 -2 22 C-2.33 22.99 -2.66 23.98 -3 25 C-4.32 24.34 -5.64 23.68 -7 23 C-7.12 19.62 -7.12 19.62 -7 16 C-6.34 15.34 -5.68 14.68 -5 14 C-4.34 14.33 -3.68 14.66 -3 15 C-3 14.34 -3 13.68 -3 13 C-2.34 13 -1.68 13 -1 13 C-0.88 7.25 -0.88 7.25 -2 5 C-0.68 4.67 0.64 4.34 2 4 C1.01 3.34 0.02 2.68 -1 2 C-0.67 1.34 -0.34 0.68 0 0 Z " fill="#BFBAB1" transform="translate(81,34)"/>
<path d="M0 0 C0.66 0 1.32 0 2 0 C2 0.66 2 1.32 2 2 C3.32 2.33 4.64 2.66 6 3 C5.67 3.16 5.67 3.16 4 4 C9.75 6 9.75 6 12 6 C12 8.31 12 10.62 12 13 C10.35 13.66 8.7 14.32 7 15 C6.01 12.69 5.02 10.38 4 8 C4 9.98 4 11.96 4 14 C3.34 14 2.68 14 2 14 C2 14.66 2 15.32 2 16 C2.66 16.33 3.32 16.66 4 17 C3.34 17 2.68 17 2 17 C2 17.66 2 18.32 2 19 C1.34 19 0.68 19 0 19 C0 18.34 0 17.68 0 17 C-0.66 17 -1.32 17 -2 17 C-2.99 12.38 -3.98 7.76 -5 3 C-3.68 2.67 -2.36 2.34 -1 2 C-0.67 1.34 -0.34 0.68 0 0 Z " fill="#807B64" transform="translate(25,39)"/>
<path d="M0 0 C5.28 0.33 10.56 0.66 16 1 C15.34 2.98 14.68 4.96 14 7 C12.35 7.33 10.7 7.66 9 8 C6.86 15.43 6.86 15.43 6 19 C4.35 19 2.7 19 1 19 C1 16.03 1 13.06 1 10 C1.66 10 2.32 10 3 10 C2.01 6.7 1.02 3.4 0 0 Z " fill="#7C7B77" transform="translate(38,46)"/>
<path d="M0 0 C0.33 0.66 0.66 1.32 1 2 C1.99 2.66 2.98 3.32 4 4 C3.34 4.33 3.34 4.33 0 6 C0.33 6.99 0.66 7.98 1 9 C0.56 11.19 0.56 11.19 0 13 C-0.66 13 -1.32 13 -2 13 C-2 13.66 -2 14.32 -2 15 C-2.66 15 -3.32 15 -4 15 C-4.33 14.01 -4.66 13.02 -5 12 C-5.99 13.98 -6.98 15.96 -8 18 C-8.99 17.67 -9.98 17.34 -11 17 C-10.34 15.02 -9.68 13.04 -9 11 C-10.32 10.67 -11.64 10.34 -13 10 C-10.03 9.34 -7.06 8.68 -4 8 C-5.65 7.34 -5.65 7.34 -14 4 C-13.67 3.01 -13.34 2.02 -13 1 C-12.31 1.01 -11.63 1.02 -10.92 1.04 C-10.02 1.04 -9.12 1.05 -8.19 1.06 C-7.74 1.07 -7.74 1.07 -5.48 1.1 C-3 1 -3 1 0 0 Z " fill="#A3A39D" transform="translate(80,34)"/>
<path d="M0 0 C0.12 0.64 0.25 1.28 0.38 1.94 C0.58 2.62 0.79 3.3 1 4 C1.66 4.33 2.32 4.66 3 5 C2 6 2 6 -0.56 6.06 C-0.96 6.05 -0.96 6.05 -3 6 C-2.34 8.97 -1.68 11.94 -1 15 C-0.01 15 0.98 15 2 15 C3.35 17.71 3.07 20.01 3 23 C3.66 23 4.32 23 5 23 C5 23.66 5 24.32 5 25 C5.66 25.33 6.32 25.66 7 26 C6.67 27.32 6.34 28.64 6 30 C4.35 29.67 2.7 29.34 1 29 C1 28.34 1 27.68 1 27 C1.66 27 2.32 27 3 27 C2.2 26.11 1.39 25.23 0.56 24.31 C-1.74 21.58 -2.49 19.57 -3 16 C-3.66 15.67 -4.32 15.34 -5 15 C-5.31 14.05 -5.62 13.1 -5.94 12.12 C-6.95 9.15 -7.63 7.94 -10 6 C-4.5 2 -4.5 2 0 2 C0 1.34 0 0.68 0 0 Z " fill="#BABAB1" transform="translate(20,33)"/>
<path d="M0 0 C3.33 2.22 3.75 3.35 5 7 C6.16 6.84 6.16 6.84 12 6 C12.33 7.32 12.66 8.64 13 10 C12.34 10 11.68 10 11 10 C11.33 11.65 11.66 13.3 12 15 C10.68 15.33 9.36 15.66 8 16 C8 15.34 8 14.68 8 14 C6.68 13.67 5.36 13.34 4 13 C3.67 13.99 3.34 14.98 3 16 C2.34 15.67 1.68 15.34 1 15 C1 14.01 1 13.02 1 12 C0.34 12 -0.32 12 -1 12 C-1 10.35 -1 8.7 -1 7 C-0.34 7 0.32 7 1 7 C0.67 4.69 0.34 2.38 0 0 Z " fill="#9D9A98" transform="translate(28,46)"/>
<path d="M0 0 C1.32 0.33 2.64 0.66 4 1 C4 1.66 4 2.32 4 3 C4.99 3.33 5.98 3.66 7 4 C6.34 4 5.68 4 5 4 C4.83 4.63 4.66 5.25 4.48 5.9 C4.24 6.72 4 7.53 3.75 8.38 C3.63 8.78 3.63 8.78 3.05 10.84 C1.75 13.51 0.65 13.82 -2 15 C-2.33 15.5 -2.33 15.5 -4 18 C-7.26 17.65 -8.02 16.98 -10.25 14.44 C-10.83 13.63 -11.41 12.83 -12 12 C-10.87 11.69 -9.73 11.38 -8.56 11.06 C-5 10 -5 10 -4 9 C-2.33 8.96 -0.67 8.96 1 9 C0.67 8.34 0.34 7.68 0 7 C-0.04 4.67 -0.04 2.33 0 0 Z " fill="#D2D3D9" transform="translate(53,67)"/>
<path d="M0 0 C1.65 0 3.3 0 5 0 C4.34 3.3 3.68 6.6 3 10 C3.66 10 4.32 10 5 10 C5 8.35 5 6.7 5 5 C7.3 8.44 7.54 10.94 8 15 C3.67 16.58 -0.43 17.45 -5 18 C-5 17.34 -5 16.68 -5 16 C-4.34 15.67 -3.68 15.34 -3 15 C-3 13.35 -3 11.7 -3 10 C-1.35 10.33 0.3 10.66 2 11 C2 10.01 2 9.02 2 8 C1.34 8 0.68 8 0 8 C0 5.36 0 2.72 0 0 Z " fill="#A8AFBA" transform="translate(46,61)"/>
<path d="M0 0 C0.99 0 1.98 0 3 0 C3.29 0.64 3.58 1.28 3.88 1.94 C5 4 5 4 7 5 C7.33 4.34 7.66 3.68 8 3 C8.27 3.8 8.54 4.61 8.81 5.44 C9.2 6.28 9.6 7.13 10 8 C10.99 8.33 11.98 8.66 13 9 C13.33 8.34 13.66 7.68 14 7 C14 8.32 14 9.64 14 11 C10.04 11 6.08 11 2 11 C2 10.01 2 9.02 2 8 C1.34 8 0.68 8 0 8 C-0.66 9.65 -1.32 11.3 -2 13 C-2.66 13 -3.32 13 -4 13 C-4 12.34 -4 11.68 -4 11 C-5.65 11 -7.3 11 -9 11 C-9 10.34 -9 9.68 -9 9 C-7.35 9 -5.7 9 -4 9 C-3.67 8.01 -3.34 7.02 -3 6 C-2.34 6 -1.68 6 -1 6 C-0.67 4.02 -0.34 2.04 0 0 Z M7 6 C7.33 6.66 7.66 7.32 8 8 C8.33 7.34 8.66 6.68 9 6 C8.34 6 7.68 6 7 6 Z " fill="#BFBDAC" transform="translate(28,22)"/>
<path d="M0 0 C0 0.66 0 1.32 0 2 C-3.3 2 -6.6 2 -10 2 C-10.33 2.66 -10.66 3.32 -11 4 C-11.97 3.98 -12.94 3.96 -13.94 3.94 C-17 4 -17 4 -18 5 C-20.22 5.28 -22.44 5.45 -24.68 5.62 C-27.12 6.02 -28.81 6.88 -31 8 C-33.25 7.62 -33.25 7.62 -35 7 C-34.34 5.68 -33.68 4.36 -33 3 C-32.46 3.02 -32.46 3.02 -29.75 3.12 C-26 3 -26 3 -24.19 2.07 C-17.05 -1.41 -7.67 -1.53 0 0 Z " fill="#D2C2A3" transform="translate(63,36)"/>
<path d="M0 0 C0.66 0 1.32 0 2 0 C2 1.32 2 2.64 2 4 C2.31 3.91 2.31 3.91 3.88 3.44 C6 3 6 3 8 4 C8 4.66 8 5.32 8 6 C7.34 6 6.68 6 6 6 C6 6.99 6 7.98 6 9 C7.32 8.67 8.64 8.34 10 8 C9.67 8.5 9.67 8.5 8 11 C8.66 11.33 9.32 11.66 10 12 C10 12.66 10 13.32 10 14 C8.35 14.33 6.7 14.66 5 15 C4.67 14.01 4.34 13.02 4 12 C2.68 12 1.36 12 0 12 C0 11.34 0 10.68 0 10 C0.99 9.67 1.98 9.34 3 9 C2.67 8.01 2.34 7.02 2 6 C-0.47 7.15 -2.05 8.05 -4 10 C-4 8.35 -4 6.7 -4 5 C-2.68 4.34 -1.36 3.68 0 3 C0 2.01 0 1.02 0 0 Z " fill="#928E6E" transform="translate(44,21)"/>
<path d="M0 0 C1.12 3.75 1.12 3.75 0 6 C0.04 7.18 0.08 8.35 0.12 9.56 C0.21 14.43 -1.25 18.51 -3 23 C-3.99 22.67 -4.98 22.34 -6 22 C-6 20.35 -6 18.7 -6 17 C-5.01 17 -4.02 17 -3 17 C-3.33 16.01 -3.66 15.02 -4 14 C-4.66 14 -5.32 14 -6 14 C-6.33 14.66 -6.66 15.32 -7 16 C-7.66 16 -8.32 16 -9 16 C-8.81 13.75 -8.81 13.75 -8 11 C-7.22 10.38 -6.43 9.76 -5.62 9.12 C-2.22 6.37 -1.49 4.07 0 0 Z " fill="#DACFC2" transform="translate(75,44)"/>
<path d="M0 0 C0.96 -0.02 1.92 -0.03 2.91 -0.05 C3.73 0.07 4.54 0.19 5.38 0.31 C6.03 1.3 6.7 2.29 7.38 3.31 C6.98 3.3 6.98 3.3 5 3.25 C2.38 3.31 2.38 3.31 0.38 4.31 C0.05 4.97 -0.28 5.63 -0.62 6.31 C-1.62 5.98 -2.61 5.65 -3.62 5.31 C-2.97 7.29 -2.3 9.27 -1.62 11.31 C-3.27 11.64 -4.92 11.97 -6.62 12.31 C-5.97 11.98 -5.3 11.65 -4.62 11.31 C-4.81 10.53 -5 9.74 -5.19 8.94 C-5.62 6.31 -5.62 6.31 -4.62 4.31 C-5.62 4.64 -6.6 4.97 -7.62 5.31 C-8.28 4.98 -8.95 4.65 -9.62 4.31 C-9.62 3.65 -9.62 2.99 -9.62 2.31 C-6.34 0.36 -3.8 0.02 0 0 Z " fill="#938963" transform="translate(41.625,40.6875)"/>
<path d="M0 0 C0.66 0 1.32 0 2 0 C3.2 2.41 3.1 3.95 3.06 6.62 C3.05 7.44 3.04 8.26 3.04 9.1 C3.02 9.73 3.01 10.35 3 11 C1.35 10.67 -0.3 10.34 -2 10 C-1.67 11.98 -1.34 13.96 -1 16 C-1.99 16.66 -2.98 17.32 -4 18 C-4.66 18.99 -5.32 19.98 -6 21 C-5.04 11.59 -5.04 11.59 -4 7 C-3.01 7 -2.02 7 -1 7 C-1 6.01 -1 5.02 -1 4 C-0.34 4 0.32 4 1 4 C0.67 2.68 0.34 1.36 0 0 Z " fill="#A5A499" transform="translate(58,48)"/>
<path d="M0 0 C1.32 0.33 2.64 0.66 4 1 C4 1.66 4 2.32 4 3 C4.66 3 5.32 3 6 3 C5.67 4.98 5.34 6.96 5 9 C3.35 9.33 1.7 9.66 0 10 C0.33 11.98 0.66 13.96 1 16 C0.01 16 -0.98 16 -2 16 C-2.33 13.03 -2.66 10.06 -3 7 C-1.35 6.67 0.3 6.34 2 6 C1.34 4.02 0.68 2.04 0 0 Z " fill="#97947B" transform="translate(20,32)"/>
<path d="M0 0 C0.99 0 1.98 0 3 0 C3.25 7.62 3.25 7.62 1 11 C0.34 11 -0.32 11 -1 11 C-2.03 6.59 -2.04 4.07 0 0 Z " fill="#D7DCDE" transform="translate(77,60)"/>
</svg>
