<?xml version="1.0" encoding="UTF-8"?>
<!-- Generator: visioncortex VTracer 0.6.12 -->
<svg version="1.1" xmlns="http://www.w3.org/2000/svg" width="184" height="186">
<path d="M0 0 C2.1 2.36 2.97 3.55 3.19 6.75 C3.16 7.12 3.16 7.12 3 9 C4.32 9.66 5.64 10.32 7 11 C6.34 12.65 5.68 14.3 5 16 C6.98 16.66 8.96 17.32 11 18 C11 21 11 21 10 23 C9.01 23 8.02 23 7 23 C7 23.66 7 24.32 7 25 C9.31 25.33 11.62 25.66 14 26 C15 29 15 29 14 32 C14.66 32.33 15.32 32.66 16 33 C16 31.68 16 30.36 16 29 C16.66 29 17.32 29 18 29 C18.33 27.35 18.66 25.7 19 24 C19.66 24.33 20.32 24.66 21 25 C21.67 27 22.33 29 23 31 C24.62 33.37 24.62 33.37 26 35 C26.66 34.67 27.32 34.34 28 34 C28 32.68 28 31.36 28 30 C28.99 29.67 29.98 29.34 31 29 C31 27.68 31 26.36 31 25 C31.98 23.98 32.98 22.98 34 22 C35.19 19.31 35.19 19.31 36 17 C36.66 17.33 37.32 17.66 38 18 C38.67 20 39.33 22 40 24 C40.66 24.33 41.32 24.66 42 25 C41.67 26.65 41.34 28.3 41 30 C42.32 30.33 43.64 30.66 45 31 C45.04 32.67 45.04 34.33 45 36 C44.67 36.33 44.34 36.66 44 37 C45.32 37.66 46.64 38.32 48 39 C47.67 40.32 47.34 41.64 47 43 C47.66 43.33 48.32 43.66 49 44 C49.33 43.01 49.66 42.02 50 41 C50.66 41 51.32 41 52 41 C52.33 39.35 52.66 37.7 53 36 C53.66 36 54.32 36 55 36 C55.45 37.13 55.91 38.27 56.38 39.44 C58 43 58 43 60 44 C59.67 45.65 59.34 47.3 59 49 C61.31 49.99 63.62 50.98 66 52 C66 53.32 66 54.64 66 56 C67.11 56.19 68.23 56.37 69.38 56.56 C73 58 73 58 74.75 61.19 C75.05 65.71 74.17 67.2 71.55 70.71 C70 72 70 72 66 72 C65.97 72.69 65.95 73.38 65.92 74.09 C65.54 80.48 64.81 88.19 60 93 C59.63 95.14 59.3 97.29 59 99.44 C58.11 105.78 58.11 105.78 57 108 C56.34 108 55.68 108 55 108 C54.67 106.19 54.67 106.19 53 97 C52.01 97.33 51.02 97.66 50 98 C49.96 98.62 49.93 99.23 49.89 99.87 C49.32 107.18 47.4 113.31 44.81 120.12 C44 123 44 123 44.06 126.5 C43.99 130.45 42.97 132.63 41 136 C40.34 135.67 39.68 135.34 39 135 C38.52 133.04 38.52 133.04 38.25 130.62 C38.2 130.23 38.2 130.23 37.95 128.23 C38 126 38 126 40 123 C39.34 122.01 38.68 121.02 38 120 C36.06 121.38 36.06 121.38 34 124 C33.65 126.11 33.65 126.11 33.5 128.56 C33.03 136.05 30.77 143.14 26 149 C24.68 148.67 23.36 148.34 22 148 C22 146.68 22 145.36 22 144 C21.01 144 20.02 144 19 144 C19.06 145.2 19.12 146.39 19.19 147.62 C19.2 153.05 16.96 156.56 14 161 C13.09 160.65 12.19 160.3 11.25 159.94 C8.14 159.04 6.89 158.71 4 160 C3.67 160.66 3.34 161.32 3 162 C3.99 162.33 4.98 162.66 6 163 C5.67 163.66 5.34 164.32 5 165 C3.35 165 1.7 165 0 165 C0 165.66 0 166.32 0 167 C-0.66 167 -1.32 167 -2 167 C-2.33 165.68 -2.66 164.36 -3 163 C-3.74 163.39 -4.48 163.78 -5.25 164.19 C-8 165 -8 165 -10.19 164.12 C-14.02 159.63 -14.29 153.72 -14 148 C-15.65 147.67 -17.3 147.34 -19 147 C-19.11 147.6 -19.22 148.21 -19.33 148.83 C-20.91 156.77 -20.91 156.77 -24 160 C-25.88 159.44 -25.88 159.44 -28 158 C-28.67 155.67 -29.33 153.33 -30 151 C-30.65 150.72 -31.29 150.43 -31.96 150.14 C-34 149 -34 149 -35.01 146.45 C-36.73 138.31 -37.64 130.32 -38 122 C-39.32 121.67 -40.64 121.34 -42 121 C-42.66 122.98 -43.32 124.96 -44 127 C-44.83 127.16 -44.83 127.16 -49 128 C-51.25 125.31 -52.88 123.35 -54 120 C-55.32 119.32 -56.66 118.65 -58 118 C-62.17 111.75 -62.18 106.18 -61.88 98.87 C-62.01 95.77 -62.52 93.73 -64 91 C-64.5 90.84 -64.5 90.84 -67 90 C-68.19 86.44 -68.19 86.44 -69 83 C-69.33 83 -69.66 83 -70 83 C-70 87.29 -70 91.58 -70 96 C-70.99 96 -71.98 96 -73 96 C-74.46 91.42 -75.11 87.84 -75 83 C-75.33 82.01 -75.66 81.02 -76 80 C-76.65 79.73 -77.29 79.46 -77.96 79.18 C-80 78 -80 78 -81.01 75.36 C-81.12 74.83 -81.12 74.83 -81.69 72.19 C-81.8 71.67 -81.8 71.67 -82.39 69.04 C-82.78 67.11 -83.16 65.18 -83.52 63.24 C-84 61 -84 61 -85 59 C-85.66 58.73 -86.32 58.46 -87 58.18 C-89 57 -89 57 -89.75 54.72 C-89.83 53.84 -89.91 52.97 -90 52.06 C-90.1 51.19 -90.21 50.31 -90.31 49.41 C-90 47 -90 47 -88.12 45.26 C-87.77 45.05 -87.77 45.05 -86 44 C-85.68 43.8 -85.68 43.8 -84.06 42.81 C-81.6 41.84 -79.63 41.85 -77 42 C-76.94 41.24 -76.88 40.47 -76.81 39.69 C-76 37 -76 37 -73.88 35.19 C-70.4 33.75 -67.72 33.86 -64 34 C-63.51 33.84 -63.51 33.84 -61 33 C-60.42 32.88 -59.84 32.75 -59.25 32.62 C-56.02 31.73 -53.07 30.36 -50 29 C-51.65 29 -53.3 29 -55 29 C-55 28.01 -55 27.02 -55 26 C-55.66 25.67 -56.32 25.34 -57 25 C-56.67 23.02 -56.34 21.04 -56 19 C-55.01 18.67 -54.02 18.34 -53 18 C-52.34 18.33 -51.68 18.66 -51 19 C-51 15 -51 15 -51.56 12.88 C-52 11 -52 11 -51 9 C-50.01 8.34 -49.02 7.68 -48 7 C-46.95 5.37 -45.94 3.7 -45 2 C-42 3 -42 3 -40.75 4.94 C-40.5 5.62 -40.26 6.3 -40 7 C-40.33 7.66 -40.66 8.32 -41 9 C-40.17 9.16 -40.17 9.16 -36 10 C-36.33 11.65 -36.66 13.3 -37 15 C-35.68 15.66 -34.36 16.32 -33 17 C-33.57 19.87 -33.86 20.86 -36 23 C-34.35 23.33 -32.7 23.66 -31 24 C-30.67 23.34 -30.34 22.68 -30 22 C-29.01 22 -28.02 22 -27 22 C-26.67 22.49 -26.67 22.49 -25 25 C-24.34 25 -23.68 25 -23 25 C-22.67 23.02 -22.34 21.04 -22 19 C-21.01 19 -20.02 19 -19 19 C-18.53 19.97 -18.05 20.94 -17.56 21.94 C-16 25 -16 25 -15 26 C-14.01 25.67 -13.02 25.34 -12 25 C-11.5 25.16 -11.5 25.16 -9 26 C-9.61 23.04 -10.25 21.62 -12 19 C-9.78 16.78 -7.92 16.07 -5 15 C-5.33 14.67 -5.33 14.67 -7 13 C-7 12.01 -7 11.02 -7 10 C-6.38 9.81 -5.76 9.63 -5.12 9.44 C-1.95 7.29 -1.85 4.61 -1 1 C-0.67 0.67 -0.34 0.34 0 0 Z " fill="#646450" transform="translate(100,10)"/>
<path d="M0 0 C0.99 0.16 0.99 0.16 6 1 C6.33 1.99 6.66 2.98 7 4 C7.66 3.34 8.32 2.68 9 2 C10.32 2 11.64 2 13 2 C13 2.66 13 3.32 13 4 C12.34 4 11.68 4 11 4 C11.28 5.31 11.58 6.63 11.88 7.94 C11.96 8.3 11.96 8.3 12.37 10.15 C13 12 13 12 15 13 C15 11.35 15 9.7 15 8 C16.32 8.33 17.64 8.66 19 9 C19.33 10.98 19.66 12.96 20 15 C19.01 15 18.02 15 17 15 C17 15.99 17 16.98 17 18 C17.66 18 18.32 18 19 18 C19.29 19.09 19.58 20.19 19.88 21.31 C21 25 21 25 23 28 C23.99 28.33 24.98 28.66 26 29 C25.67 28.32 25.34 27.64 25 26.94 C23.83 23.49 23.86 20.62 24 17 C25.88 20.27 26.49 23.28 27 27 C27.66 27 28.32 27 29 27 C29 28.32 29 29.64 29 31 C30.32 30.67 31.64 30.34 33 30 C33 29.01 33 28.02 33 27 C33.66 27 34.32 27 35 27 C35.16 27.99 35.16 27.99 36 33 C36.99 33 37.98 33 39 33 C41.19 34.56 41.19 34.56 43 37 C43.25 40.75 43.25 40.75 43 44 C43.66 44 44.32 44 45 44 C45.66 42.35 46.32 40.7 47 39 C47.33 39 47.66 39 48 39 C50.1 44.13 50.22 48.56 50 54 C50.78 53.81 51.57 53.63 52.38 53.44 C55 53 55 53 57 54 C57.33 52.35 57.66 50.7 58 49 C59.65 49.33 61.3 49.66 63 50 C63.16 50.66 63.16 50.66 64 54 C63.01 53.67 62.02 53.34 61 53 C61 54.98 61 56.96 61 59 C60.34 59 59.68 59 59 59 C59 59.99 59 60.98 59 62 C59.66 62 60.32 62 61 62 C61 61.34 61 60.68 61 60 C61.66 59.84 61.66 59.84 65 59 C65 63 65 63 63 66 C64.32 65.67 65.64 65.34 67 65 C66.86 64.37 66.71 63.74 66.56 63.09 C65.37 57.59 64.79 52.62 65 47 C65.5 47.16 65.5 47.16 68 48 C68 48.66 68 49.32 68 50 C68.99 50 69.98 50 71 50 C70.93 49.67 70.93 49.67 70.56 48.02 C68.48 38.2 68.48 38.2 69 34 C69.99 33.34 70.98 32.68 72 32 C71.05 32.04 70.1 32.08 69.12 32.12 C66 32 66 32 64 30 C64 29.01 64 28.02 64 27 C67.3 27 70.6 27 74 27 C71 23 71 23 68.31 22.25 C67.55 22.17 66.79 22.09 66 22 C66.33 20.35 66.66 18.7 67 17 C66.01 16.34 65.02 15.68 64 15 C63.67 16.98 63.34 18.96 63 21 C60.69 20.67 58.38 20.34 56 20 C56 19.34 56 18.68 56 18 C57.32 18 58.64 18 60 18 C59.67 16.35 59.34 14.7 59 13 C61.96 11.52 64.74 11.94 68 12 C67.84 11.5 67.84 11.5 67 9 C68.32 9 69.64 9 71 9 C71 9.66 71 10.32 71 11 C73.64 11 76.28 11 79 11 C79.16 11.5 79.16 11.5 80 14 C84.14 14.1 87.94 13.77 92 13 C92.33 13.66 92.33 13.66 94 17 C93.84 17.16 93.84 17.16 93 18 C95.64 19.32 97.68 19.1 100.62 19.06 C101.63 19.05 102.63 19.04 103.66 19.04 C104.05 19.03 104.05 19.03 106 19 C106 18.34 106 17.68 106 17 C108.64 17 111.28 17 114 17 C113.67 18.32 113.34 19.64 113 21 C111.68 21 110.36 21 109 21 C109 21.66 109 22.32 109 23 C108.34 23 107.68 23 107 23 C107 23.99 107 24.98 107 26 C107.66 26.33 108.32 26.66 109 27 C106.36 27 103.72 27 101 27 C101 27.66 101 28.32 101 29 C103.64 29 106.28 29 109 29 C109 29.66 109 30.32 109 31 C110.98 31.66 112.96 32.32 115 33 C115.12 38.75 115.12 38.75 114 41 C113.34 40.84 113.34 40.84 110 40 C109.67 45.94 109.34 51.88 109 58 C108.34 58 107.68 58 107 58 C107 62.62 107 67.24 107 72 C107.66 71.67 108.32 71.34 109 71 C109.5 71.33 109.5 71.33 112 73 C112.99 72.67 113.98 72.34 115 72 C115 74.97 115 77.94 115 81 C116.8 73.61 118.14 66.91 114 60 C115.32 60 116.64 60 118 60 C118.33 57.69 118.66 55.38 119 53 C118.07 53.66 117.14 54.32 116.19 55 C113 57 113 57 110 57 C110.33 54.36 110.66 51.72 111 49 C111.66 49 112.32 49 113 49 C113.33 47.68 113.66 46.36 114 45 C115.65 44.67 117.3 44.34 119 44 C119 41.03 119 38.06 119 35 C119.66 35 120.32 35 121 35 C121 37.97 121 40.94 121 44 C121.99 44 122.98 44 124 44 C124.04 46.33 124.04 48.67 124 51 C123.67 51.33 123.34 51.66 123 52 C122.96 53.67 122.96 55.33 123 57 C123.99 57 124.98 57 126 57 C125.84 55.84 125.84 55.84 125 50 C125.97 49.69 126.94 49.38 127.94 49.06 C131 48 131 48 132 47 C134 46.96 136 46.96 138 47 C138 47.66 138 48.32 138 49 C138.99 49.33 139.98 49.66 141 50 C140.34 50 139.68 50 139 50 C138.96 50.62 138.93 51.23 138.89 51.87 C138.32 59.18 136.4 65.31 133.81 72.12 C133 75 133 75 133.06 78.5 C132.99 82.45 131.97 84.63 130 88 C129.34 87.67 128.68 87.34 128 87 C127.52 85.04 127.52 85.04 127.25 82.62 C127.15 81.83 127.05 81.04 126.95 80.23 C127 78 127 78 129 75 C128.34 74.01 127.68 73.02 127 72 C125.06 73.38 125.06 73.38 123 76 C122.65 78.11 122.65 78.11 122.5 80.56 C122.03 88.05 119.77 95.14 115 101 C114.34 100.84 114.34 100.84 111 100 C111 98.68 111 97.36 111 96 C110.01 96 109.02 96 108 96 C108.03 96.6 108.03 96.6 108.19 99.62 C108.2 105.05 105.96 108.56 103 113 C102.09 112.65 101.19 112.3 100.25 111.94 C97.14 111.04 95.89 110.71 93 112 C92.67 112.66 92.34 113.32 92 114 C92.5 114.16 92.5 114.16 95 115 C94.67 115.66 94.34 116.32 94 117 C92.35 117 90.7 117 89 117 C89 117.66 89 118.32 89 119 C88.34 119 87.68 119 87 119 C86.67 117.68 86.34 116.36 86 115 C85.26 115.39 84.52 115.78 83.75 116.19 C81 117 81 117 78.81 116.12 C74.98 111.63 74.71 105.72 75 100 C73.35 99.67 71.7 99.34 70 99 C69.95 99.3 69.95 99.3 69.67 100.83 C68.09 108.77 68.09 108.77 65 112 C63.12 111.44 63.12 111.44 61 110 C60.33 107.67 59.67 105.33 59 103 C58.35 102.72 57.71 102.43 57.04 102.14 C55 101 55 101 53.99 98.45 C52.27 90.31 51.36 82.32 51 74 C49.68 73.67 48.36 73.34 47 73 C46.34 74.98 45.68 76.96 45 79 C44.17 79.16 44.17 79.16 40 80 C37.75 77.31 36.12 75.35 35 72 C33.68 71.32 32.34 70.65 31 70 C26.83 63.75 26.82 58.18 27.12 50.87 C26.99 47.77 26.48 45.73 25 43 C24.51 42.84 24.51 42.84 22 42 C20.81 38.44 20.81 38.44 20 35 C19.67 35 19.34 35 19 35 C19 39.29 19 43.58 19 48 C18.01 48 17.02 48 16 48 C14.54 43.42 13.89 39.84 14 35 C13.84 34.5 13.84 34.5 13 32 C12.68 31.86 12.68 31.86 11.04 31.18 C9 30 9 30 7.99 27.36 C7.77 26.31 7.54 25.26 7.31 24.19 C7.08 23.15 6.85 22.11 6.61 21.04 C6.22 19.11 5.84 17.18 5.48 15.24 C5 13 5 13 4 11 C2.68 10.34 1.36 9.68 0 9 C0 6.03 0 3.06 0 0 Z " fill="#7D8A9E" transform="translate(11,58)"/>
<path d="M0 0 C0.66 0.33 1.32 0.66 2 1 C2.67 3 3.33 5 4 7 C4.66 7.33 5.32 7.66 6 8 C5.67 9.65 5.34 11.3 5 13 C6.32 13.33 7.64 13.66 9 14 C9.04 15.67 9.04 17.33 9 19 C8.84 19.16 8.84 19.16 8 20 C9.32 20.66 10.64 21.32 12 22 C11.67 23.32 11.34 24.64 11 26 C11.66 26.33 12.32 26.66 13 27 C13.16 26.51 13.16 26.51 14 24 C14.66 24 15.32 24 16 24 C16.33 22.35 16.66 20.7 17 19 C17.66 19 18.32 19 19 19 C19.45 20.13 19.91 21.27 20.38 22.44 C22 26 22 26 24 27 C23.84 27.83 23.84 27.83 23 32 C25.31 32.99 27.62 33.98 30 35 C30 36.32 30 37.64 30 39 C31.11 39.19 32.23 39.37 33.38 39.56 C37 41 37 41 38.75 44.19 C39.05 48.71 38.17 50.2 35.55 53.71 C34 55 34 55 30 55 C29.97 55.69 29.95 56.38 29.92 57.09 C29.54 63.48 28.81 71.19 24 76 C23.63 78.14 23.3 80.29 23 82.44 C22.11 88.78 22.11 88.78 21 91 C20.34 91 19.68 91 19 91 C18.34 87.37 17.68 83.74 17 80 C15.68 80 14.36 80 13 80 C13 79.34 13 78.68 13 78 C12.47 78.15 12.47 78.15 9.81 78.94 C6.87 79.76 4 80.45 1 81 C1 83.31 1 85.62 1 88 C0.34 88.16 0.34 88.16 -3 89 C-3.04 87 -3.04 85 -3 83 C-2.67 82.67 -2.34 82.34 -2 82 C-1.63 79.67 -1.3 77.34 -1 75 C-1.99 75 -2.98 75 -4 75 C-4 72.03 -4 69.06 -4 66 C-4.66 66 -5.32 66 -6 66 C-6 68.97 -6 71.94 -6 75 C-6.82 75.16 -6.82 75.16 -11 76 C-11 77.65 -11 79.3 -11 81 C-11.99 80.67 -12.98 80.34 -14 80 C-13.98 80.95 -13.96 81.9 -13.94 82.88 C-14 86 -14 86 -15 88 C-14.44 87.67 -14.44 87.67 -11.62 86 C-8.25 84 -8.25 84 -6 84 C-6 86.31 -6 88.62 -6 91 C-6.99 91.33 -7.98 91.66 -9 92 C-9.33 91.84 -9.33 91.84 -11 91 C-10.66 91.52 -10.66 91.52 -8.94 94.12 C-6.82 97.85 -6.89 99.8 -8 104 C-8.16 105.44 -8.3 106.87 -8.44 108.31 C-8.53 108.92 -8.53 108.92 -9 112 C-9.33 112.16 -9.33 112.16 -11 113 C-11.12 105.25 -11.12 105.25 -10 103 C-11.32 103.99 -12.64 104.98 -14 106 C-14 105.01 -14 104.02 -14 103 C-14.83 103.16 -14.83 103.16 -19 104 C-18.67 99.05 -18.34 94.1 -18 89 C-17.34 89 -16.68 89 -16 89 C-16.01 88.2 -16.02 87.41 -16.04 86.59 C-16.12 76.06 -16.12 76.06 -15 71 C-13.68 71.33 -12.36 71.66 -11 72 C-10.67 69.36 -10.34 66.72 -10 64 C-11.98 63.34 -13.96 62.68 -16 62 C-16 61.34 -16 60.68 -16 60 C-18.64 60 -21.28 60 -24 60 C-24 59.34 -24 58.68 -24 58 C-23.01 57.84 -23.01 57.84 -18 57 C-18 56.01 -18 55.02 -18 54 C-17.34 54 -16.68 54 -16 54 C-16 53.34 -16 52.68 -16 52 C-15.36 51.9 -14.72 51.79 -14.06 51.69 C-13.38 51.46 -12.7 51.23 -12 51 C-11.67 50.01 -11.34 49.02 -11 48 C-13.64 48 -16.28 48 -19 48 C-19 48.66 -19 49.32 -19 50 C-21.41 51.2 -22.95 51.1 -25.62 51.06 C-26.03 51.06 -26.03 51.06 -28.1 51.04 C-28.73 51.02 -29.35 51.01 -30 51 C-30 50.67 -30 50.34 -30 50 C-28.02 50 -26.04 50 -24 50 C-24.33 47.69 -24.66 45.38 -25 43 C-25.66 43 -26.32 43 -27 43 C-27 42.34 -27 41.68 -27 41 C-27.26 41.16 -27.26 41.16 -28.56 42 C-31.79 43.32 -34.53 43.06 -38 43 C-39.68 43.29 -41.35 43.6 -43 44 C-43.33 42.68 -43.66 41.36 -44 40 C-40.59 39.22 -37.49 38.9 -34 39 C-34.33 37.68 -34.66 36.36 -35 35 C-30.72 32.86 -25.51 33.91 -21 35 C-22.37 31.84 -22.99 31.01 -26 29 C-26 27.68 -26 26.36 -26 25 C-27.32 25 -28.64 25 -30 25 C-30 25.99 -30 26.98 -30 28 C-31.32 27.34 -32.64 26.68 -34 26 C-34 25.01 -34 24.02 -34 23 C-35.98 23.33 -37.96 23.66 -40 24 C-41.12 20.25 -41.12 20.25 -40 18 C-37.3 17.43 -34.76 17 -32 17 C-31.01 16.67 -30.02 16.34 -29 16 C-31.31 15.67 -33.62 15.34 -36 15 C-35.67 13.02 -35.34 11.04 -35 9 C-34.34 9 -33.68 9 -33 9 C-33 8.34 -33 7.68 -33 7 C-32.34 7 -31.68 7 -31 7 C-30.67 7.66 -30.34 8.32 -30 9 C-29.67 8.67 -29.34 8.34 -29 8 C-26.66 8.29 -24.33 8.62 -22 9 C-21 12 -21 12 -22 15 C-21.34 15.33 -20.68 15.66 -20 16 C-20 14.68 -20 13.36 -20 12 C-19.34 12 -18.68 12 -18 12 C-17.67 10.35 -17.34 8.7 -17 7 C-16.34 7.33 -15.68 7.66 -15 8 C-14.33 10 -13.67 12 -13 14 C-11.38 16.38 -11.38 16.38 -10 18 C-9.34 17.67 -8.68 17.34 -8 17 C-8 15.68 -8 14.36 -8 13 C-7.01 12.67 -6.02 12.34 -5 12 C-5 10.68 -5 9.36 -5 8 C-4.02 6.98 -3.02 5.98 -2 5 C-0.81 2.31 -0.81 2.31 0 0 Z " fill="#B7A471" transform="translate(136,27)"/>
<path d="M0 0 C1.32 0 2.64 0 4 0 C4 0.66 4 1.32 4 2 C6.64 2 9.28 2 12 2 C12.33 2.99 12.66 3.98 13 5 C17.14 5.1 20.94 4.77 25 4 C25.66 5.32 26.32 6.64 27 8 C26.67 8.33 26.34 8.66 26 9 C28.64 10.32 30.68 10.1 33.62 10.06 C34.63 10.05 35.63 10.04 36.66 10.04 C37.05 10.03 37.05 10.03 39 10 C39 9.34 39 8.68 39 8 C41.64 8 44.28 8 47 8 C46.67 9.32 46.34 10.64 46 12 C44.68 12 43.36 12 42 12 C42 12.66 42 13.32 42 14 C41.34 14 40.68 14 40 14 C40 14.99 40 15.98 40 17 C40.66 17.33 41.32 17.66 42 18 C39.36 18 36.72 18 34 18 C34 18.66 34 19.32 34 20 C36.64 20 39.28 20 42 20 C42 20.66 42 21.32 42 22 C43.98 22.66 45.96 23.32 48 24 C48.12 29.75 48.12 29.75 47 32 C45.68 31.67 44.36 31.34 43 31 C42.67 36.94 42.34 42.88 42 49 C41.34 49 40.68 49 40 49 C40 53.62 40 58.24 40 63 C40.66 62.67 41.32 62.34 42 62 C42.99 62.66 43.98 63.32 45 64 C45.99 63.67 46.98 63.34 48 63 C48 65.97 48 68.94 48 72 C49.8 64.61 51.14 57.91 47 51 C48.32 51 49.64 51 51 51 C51.33 48.69 51.66 46.38 52 44 C51.07 44.66 50.14 45.32 49.19 46 C46 48 46 48 43 48 C43.33 45.36 43.66 42.72 44 40 C44.66 40 45.32 40 46 40 C46.33 38.68 46.66 37.36 47 36 C47.83 35.84 47.83 35.84 52 35 C52 32.03 52 29.06 52 26 C52.66 26 53.32 26 54 26 C54 28.97 54 31.94 54 35 C54.99 35 55.98 35 57 35 C57.04 37.33 57.04 39.67 57 42 C56.67 42.33 56.34 42.66 56 43 C55.96 44.67 55.96 46.33 56 48 C56.99 48 57.98 48 59 48 C58.84 46.84 58.84 46.84 58 41 C58.97 40.69 59.94 40.38 60.94 40.06 C64 39 64 39 65 38 C67 37.96 69 37.96 71 38 C71 38.66 71 39.32 71 40 C71.5 40.16 71.5 40.16 74 41 C73.34 41 72.68 41 72 41 C71.96 41.62 71.93 42.23 71.89 42.87 C71.32 50.18 69.4 56.31 66.81 63.12 C66 66 66 66 66.06 69.5 C65.99 73.45 64.97 75.63 63 79 C62.34 78.67 61.68 78.34 61 78 C60.52 76.04 60.52 76.04 60.25 73.62 C60.15 72.83 60.05 72.04 59.95 71.23 C60 69 60 69 62 66 C61.34 65.01 60.68 64.02 60 63 C58.06 64.38 58.06 64.38 56 67 C55.65 69.11 55.65 69.11 55.5 71.56 C55.03 79.05 52.77 86.14 48 92 C46.68 91.67 45.36 91.34 44 91 C44 89.68 44 88.36 44 87 C43.01 87 42.02 87 41 87 C41.03 87.6 41.03 87.6 41.19 90.62 C41.2 96.05 38.96 99.56 36 104 C35.09 103.65 34.19 103.3 33.25 102.94 C30.14 102.04 28.89 101.71 26 103 C25.67 103.66 25.34 104.32 25 105 C25.99 105.33 26.98 105.66 28 106 C27.67 106.66 27.34 107.32 27 108 C25.35 108 23.7 108 22 108 C22 108.66 22 109.32 22 110 C21.34 110 20.68 110 20 110 C19.67 108.68 19.34 107.36 19 106 C18.63 106.2 18.63 106.2 16.75 107.19 C14 108 14 108 11.81 107.12 C7.98 102.63 7.71 96.72 8 91 C9.65 91.66 11.3 92.32 13 93 C13 93.66 13 94.32 13 95 C14.32 95 15.64 95 17 95 C17 94.34 17 93.68 17 93 C21.75 93.88 21.75 93.88 24 95 C23.86 94.35 23.71 93.69 23.56 93.02 C22.12 85.93 21.77 79.22 22 72 C23.32 72 24.64 72 26 72 C26.33 73.98 26.66 75.96 27 78 C27.99 77.34 28.98 76.68 30 76 C30 74.68 30 73.36 30 72 C30.66 72 31.32 72 32 72 C31.89 69.9 31.76 67.79 31.62 65.69 C31.56 64.52 31.49 63.34 31.41 62.14 C31 59 31 59 29 56 C26.38 55.81 26.38 55.81 24 56 C23.67 54.35 23.34 52.7 23 51 C23.99 51 24.98 51 26 51 C26 50.34 26 49.68 26 49 C26.99 49 27.98 49 29 49 C29 48.34 29 47.68 29 47 C28.01 46.84 28.01 46.84 23 46 C23 44.02 23 42.04 23 40 C25.31 39.34 27.62 38.68 30 38 C30.66 38.66 31.32 39.32 32 40 C32.33 38.68 32.66 37.36 33 36 C33.66 36 34.32 36 35 36 C35 35.34 35 34.68 35 34 C35.99 34 36.98 34 38 34 C38 35.65 38 37.3 38 39 C40.31 35.54 40.09 34.03 40 30 C40.16 29.84 40.16 29.84 41 29 C37.33 27.82 33.83 27.93 30 28 C30 28.66 30 29.32 30 30 C27.69 30.33 25.38 30.66 23 31 C23.51 28.83 24 27 25 25 C24.44 25.08 24.44 25.08 21.62 25.5 C16.74 26.12 11.91 26.09 7 26 C7 25.34 7 24.68 7 24 C7.66 24 8.32 24 9 24 C9 23.34 9 22.68 9 22 C8.3 22.1 7.6 22.19 6.88 22.29 C5.97 22.4 5.06 22.51 4.12 22.62 C3.67 22.68 3.67 22.68 1.38 22.98 C0.6 22.98 -0.19 22.99 -1 23 C-1.66 22.34 -2.32 21.68 -3 21 C-3 20.01 -3 19.02 -3 18 C0.3 18 3.6 18 7 18 C4 14 4 14 1.31 13.25 C0.55 13.17 -0.21 13.09 -1 13 C-0.67 11.35 -0.34 9.7 0 8 C-0.99 7.34 -1.98 6.68 -3 6 C-3.33 7.98 -3.66 9.96 -4 12 C-6.31 11.67 -8.62 11.34 -11 11 C-11 10.34 -11 9.68 -11 9 C-9.68 9 -8.36 9 -7 9 C-7.33 7.35 -7.66 5.7 -8 4 C-5.04 2.52 -2.26 2.94 1 3 C0.67 2.01 0.34 1.02 0 0 Z " fill="#B3AAA2" transform="translate(78,67)"/>
<path d="M0 0 C0.66 0 1.32 0 2 0 C2.23 0.57 2.23 0.57 3.38 3.44 C5 7 5 7 7 8 C6.67 9.65 6.34 11.3 6 13 C8.31 13.99 10.62 14.98 13 16 C13 17.32 13 18.64 13 20 C14.11 20.19 15.23 20.37 16.38 20.56 C20 22 20 22 21.75 25.19 C22.05 29.71 21.17 31.2 18.55 34.71 C17 36 17 36 13 36 C12.99 36.34 12.99 36.34 12.92 38.09 C12.54 44.48 11.81 52.19 7 57 C6.63 59.14 6.3 61.29 6 63.44 C5.11 69.78 5.11 69.78 4 72 C3.34 72 2.68 72 2 72 C1.88 71.24 1.76 70.48 1.63 69.7 C1.55 69.2 1.55 69.2 1.12 66.69 C1.04 66.19 1.04 66.19 0.63 63.7 C0 61 0 61 -2 58 C-3.35 55.29 -3.07 52.99 -3 50 C-4.65 50.66 -6.3 51.32 -8 52 C-7.69 51.03 -7.38 50.06 -7.06 49.06 C-5.82 44.76 -5.38 40.45 -5 36 C-6.65 35.67 -8.3 35.34 -10 35 C-10 33.68 -10 32.36 -10 31 C-11.22 31.02 -12.43 31.04 -13.69 31.06 C-16.92 31.07 -19.85 30.79 -23 30 C-23 29.01 -23 28.02 -23 27 C-23.84 27.08 -24.69 27.17 -25.55 27.25 C-26.65 27.36 -27.75 27.46 -28.88 27.56 C-29.42 27.61 -29.42 27.61 -32.18 27.88 C-35 28 -35 28 -37 27 C-37 25.35 -37 23.7 -37 22 C-36.01 22 -35.02 22 -34 22 C-34.66 19.69 -35.32 17.38 -36 15 C-35.34 15 -34.68 15 -34 15 C-34 15.66 -34 16.32 -34 17 C-32.84 16.84 -32.84 16.84 -27 16 C-26.67 15.01 -26.34 14.02 -26 13 C-22.46 12.92 -19.41 13.03 -16 14 C-15.34 14 -14.68 14 -14 14 C-13.34 12.68 -12.68 11.36 -12 10 C-10.68 10 -9.36 10 -8 10 C-8.33 8.68 -8.66 7.36 -9 6 C-7.35 6.66 -5.7 7.32 -4 8 C-3.67 7.01 -3.34 6.02 -3 5 C-2.34 5 -1.68 5 -1 5 C-0.67 3.35 -0.34 1.7 0 0 Z " fill="#B4A35C" transform="translate(153,46)"/>
<path d="M0 0 C3 1 3 1 4.25 2.94 C4.5 3.62 4.75 4.3 5 5 C4.67 5.66 4.34 6.32 4 7 C4.83 7.16 4.83 7.16 9 8 C8.67 9.65 8.34 11.3 8 13 C9.32 13.66 10.64 14.32 12 15 C11.43 17.87 11.14 18.86 9 21 C10.65 21.33 12.3 21.66 14 22 C14.33 21.34 14.66 20.68 15 20 C15.99 20 16.98 20 18 20 C18.66 20.99 19.32 21.98 20 23 C20.66 23 21.32 23 22 23 C22.33 21.02 22.66 19.04 23 17 C23.99 17 24.98 17 26 17 C26.47 17.97 26.95 18.94 27.44 19.94 C29 23 29 23 30 24 C30.99 23.67 31.98 23.34 33 23 C33.99 23.66 34.98 24.32 36 25 C34.35 25 32.7 25 31 25 C31.75 26.94 31.75 26.94 33 29 C35.12 29.75 35.12 29.75 37 30 C37 30.66 37 31.32 37 32 C33.17 33.8 30.22 34.2 26 34 C27 37 27 37 29.06 38.19 C29.7 38.46 30.34 38.72 31 39 C28.17 43.24 25.88 42.98 21 44 C21 44.66 21 45.32 21 46 C20.34 46 19.68 46 19 46 C19 45.34 19 44.68 19 44 C14.12 46.75 14.12 46.75 13 49 C14.65 49 16.3 49 18 49 C18 49.66 18 50.32 18 51 C15.44 53.3 14.52 54 11 54 C11 54.66 11 55.32 11 56 C9.68 56.66 8.36 57.32 7 58 C8.32 58.33 9.64 58.66 11 59 C10.67 59.99 10.34 60.98 10 62 C9.05 61.94 8.1 61.88 7.12 61.81 C6.61 61.84 6.61 61.84 4 62 C3.34 62.99 2.68 63.98 2 65 C1.01 65 0.02 65 -1 65 C-1 65.66 -1 66.32 -1 67 C-2.32 67 -3.64 67 -5 67 C-5 67.66 -5 68.32 -5 69 C-4.34 69 -3.68 69 -3 69 C-3 69.66 -3 70.32 -3 71 C-2.01 70.84 -2.01 70.84 3 70 C3 71.32 3 72.64 3 74 C3.66 74 4.32 74 5 74 C5.33 75.65 5.66 77.3 6 79 C5.51 79.16 5.51 79.16 3 80 C2.31 82.06 2.31 82.06 2 84 C1.01 82.02 0.02 80.04 -1 78 C-1.99 78 -2.98 78 -4 78 C-4 77.34 -4 76.68 -4 76 C-5.32 75.34 -6.64 74.68 -8 74 C-7.67 71.03 -7.34 68.06 -7 65 C-6.5 64.84 -6.5 64.84 -4 64 C-4 63.34 -4 62.68 -4 62 C-7.3 63.32 -10.6 64.64 -14 66 C-14.33 64.68 -14.66 63.36 -15 62 C-16.32 61.67 -17.64 61.34 -19 61 C-19 60.34 -19 59.68 -19 59 C-16.12 58.88 -16.12 58.88 -13 59 C-12.34 59.66 -11.68 60.32 -11 61 C-11 60.34 -11 59.68 -11 59 C-7.04 58.34 -3.08 57.68 1 57 C1 56.01 1 55.02 1 54 C0.28 54.31 -0.44 54.62 -1.19 54.94 C-7.75 57.42 -7.75 57.42 -11.81 56.06 C-12.17 55.89 -12.17 55.89 -14 55 C-13.34 53.68 -12.68 52.36 -12 51 C-10.35 51 -8.7 51 -7 51 C-7.16 50.5 -7.16 50.5 -8 48 C-9.65 48 -11.3 48 -13 48 C-13 48.66 -13 49.32 -13 50 C-14.98 49.67 -16.96 49.34 -19 49 C-19 48.34 -19 47.68 -19 47 C-16.36 46.67 -13.72 46.34 -11 46 C-11 45.34 -11 44.68 -11 44 C-9.02 43.34 -7.04 42.68 -5 42 C-5.66 41.67 -6.32 41.34 -7 41 C-7 40.34 -7 39.68 -7 39 C-5.68 39 -4.36 39 -3 39 C-3 39.99 -3 40.98 -3 42 C-1.84 41.84 -1.84 41.84 4 41 C4 40.01 4 39.02 4 38 C3.01 38 2.02 38 1 38 C1.33 37.01 1.66 36.02 2 35 C2.49 35.16 2.49 35.16 5 36 C5 36.66 5 37.32 5 38 C5.66 38 6.32 38 7 38 C7 38.66 7 39.32 7 40 C7.99 40 8.98 40 10 40 C10 39.01 10 38.02 10 37 C10.66 37 11.32 37 12 37 C12 37.66 12 38.32 12 39 C12.26 38.84 12.26 38.84 13.56 38 C16.78 36.68 19.56 36.87 23 37 C22.67 36.34 22.34 35.68 22 35 C19.98 35.1 17.96 35.2 15.95 35.29 C15.3 35.2 14.66 35.1 14 35 C13.34 34.01 12.68 33.02 12 32 C9.88 31.31 9.88 31.31 8 31 C8 30.34 8 29.68 8 29 C6.02 28.67 4.04 28.34 2 28 C2 26.35 2 24.7 2 23 C2.66 23 3.32 23 4 23 C3.67 22.01 3.34 21.02 3 20 C0.94 19.31 0.94 19.31 -1 19 C-1 18.34 -1 17.68 -1 17 C-3.97 17.33 -6.94 17.66 -10 18 C-10.33 19.32 -10.66 20.64 -11 22 C-7.37 22.33 -3.74 22.66 0 23 C0 24.98 0 26.96 0 29 C-3.63 29.33 -7.26 29.66 -11 30 C-11 29.67 -11 29.34 -11 29 C-9.02 28.34 -7.04 27.68 -5 27 C-6.65 27 -8.3 27 -10 27 C-10 26.01 -10 25.02 -10 24 C-10.66 23.67 -11.32 23.34 -12 23 C-11.67 21.02 -11.34 19.04 -11 17 C-10.01 16.67 -9.02 16.34 -8 16 C-7.34 16.33 -6.68 16.66 -6 17 C-6 13 -6 13 -6.56 10.88 C-7 9 -7 9 -6 7 C-5.01 6.34 -4.02 5.68 -3 5 C-1.95 3.37 -0.94 1.7 0 0 Z " fill="#AC9B68" transform="translate(55,12)"/>
<path d="M0 0 C1.32 0 2.64 0 4 0 C4 0.66 4 1.32 4 2 C6.64 2 9.28 2 12 2 C12.33 2.99 12.66 3.98 13 5 C17.14 5.1 20.94 4.77 25 4 C25.66 5.32 26.32 6.64 27 8 C26.67 8.33 26.34 8.66 26 9 C28.64 10.32 30.68 10.1 33.62 10.06 C34.63 10.05 35.63 10.04 36.66 10.04 C37.05 10.03 37.05 10.03 39 10 C39 9.34 39 8.68 39 8 C41.64 8 44.28 8 47 8 C46.67 9.32 46.34 10.64 46 12 C44.68 12 43.36 12 42 12 C42 12.66 42 13.32 42 14 C41.34 14 40.68 14 40 14 C40 14.99 40 15.98 40 17 C40.66 17.33 41.32 17.66 42 18 C39.36 18 36.72 18 34 18 C34 18.66 34 19.32 34 20 C36.64 20 39.28 20 42 20 C42 20.66 42 21.32 42 22 C43.98 22.66 45.96 23.32 48 24 C48.12 29.75 48.12 29.75 47 32 C45.68 31.67 44.36 31.34 43 31 C42.67 36.94 42.34 42.88 42 49 C41.34 49 40.68 49 40 49 C40 51.97 40 54.94 40 58 C39.17 58.16 39.17 58.16 35 59 C35 59.99 35 60.98 35 62 C35.99 62 36.98 62 38 62 C38.4 65.49 38.18 66.75 36.12 69.69 C34.78 71.15 33.41 72.59 32 74 C31.95 72.95 31.9 71.9 31.85 70.82 C31.78 69.45 31.7 68.07 31.62 66.69 C31.59 66 31.56 65.31 31.53 64.6 C31.32 60.93 31.08 59.12 29 56 C26.38 55.81 26.38 55.81 24 56 C23.67 54.35 23.34 52.7 23 51 C23.99 51 24.98 51 26 51 C26 50.34 26 49.68 26 49 C26.99 49 27.98 49 29 49 C29 48.34 29 47.68 29 47 C28.01 46.84 28.01 46.84 23 46 C23 44.02 23 42.04 23 40 C25.31 39.34 27.62 38.68 30 38 C30.66 38.66 31.32 39.32 32 40 C32.33 38.68 32.66 37.36 33 36 C33.66 36 34.32 36 35 36 C35 35.34 35 34.68 35 34 C35.99 34 36.98 34 38 34 C38 35.65 38 37.3 38 39 C40.31 35.54 40.09 34.03 40 30 C40.16 29.84 40.16 29.84 41 29 C37.33 27.82 33.83 27.93 30 28 C30 28.66 30 29.32 30 30 C27.69 30.33 25.38 30.66 23 31 C23.51 28.83 24 27 25 25 C24.44 25.08 24.44 25.08 21.62 25.5 C16.74 26.12 11.91 26.09 7 26 C7 25.34 7 24.68 7 24 C7.66 24 8.32 24 9 24 C9 23.34 9 22.68 9 22 C8.3 22.1 7.6 22.19 6.88 22.29 C5.97 22.4 5.06 22.51 4.12 22.62 C3.67 22.68 3.67 22.68 1.38 22.98 C0.6 22.98 -0.19 22.99 -1 23 C-1.66 22.34 -2.32 21.68 -3 21 C-3 20.01 -3 19.02 -3 18 C0.3 18 3.6 18 7 18 C4 14 4 14 1.31 13.25 C0.55 13.17 -0.21 13.09 -1 13 C-0.67 11.35 -0.34 9.7 0 8 C-0.99 7.34 -1.98 6.68 -3 6 C-3.33 7.98 -3.66 9.96 -4 12 C-6.31 11.67 -8.62 11.34 -11 11 C-11 10.34 -11 9.68 -11 9 C-9.68 9 -8.36 9 -7 9 C-7.33 7.35 -7.66 5.7 -8 4 C-5.04 2.52 -2.26 2.94 1 3 C0.67 2.01 0.34 1.02 0 0 Z " fill="#C9BFB3" transform="translate(78,67)"/>
<path d="M0 0 C0.99 0.16 0.99 0.16 6 1 C6.33 1.99 6.66 2.98 7 4 C7.66 3.34 8.32 2.68 9 2 C10.32 2 11.64 2 13 2 C13 2.66 13 3.32 13 4 C12.34 4 11.68 4 11 4 C11.28 5.31 11.58 6.63 11.88 7.94 C11.96 8.3 11.96 8.3 12.37 10.15 C13 12 13 12 15 13 C15 11.35 15 9.7 15 8 C16.32 8.33 17.64 8.66 19 9 C19.33 10.98 19.66 12.96 20 15 C19.01 15 18.02 15 17 15 C17 15.99 17 16.98 17 18 C17.66 18 18.32 18 19 18 C19.29 19.09 19.58 20.19 19.88 21.31 C21 25 21 25 23 28 C23.99 28.33 24.98 28.66 26 29 C25.67 28.32 25.34 27.64 25 26.94 C23.83 23.49 23.86 20.62 24 17 C25.88 20.27 26.49 23.28 27 27 C27.66 27 28.32 27 29 27 C29 28.32 29 29.64 29 31 C30.32 30.67 31.64 30.34 33 30 C33 29.01 33 28.02 33 27 C33.66 27 34.32 27 35 27 C35.16 27.99 35.16 27.99 36 33 C36.99 33 37.98 33 39 33 C41.19 34.56 41.19 34.56 43 37 C43.25 40.75 43.25 40.75 43 44 C43.66 44 44.32 44 45 44 C45.66 42.35 46.32 40.7 47 39 C47.33 39 47.66 39 48 39 C49.86 43.7 50.25 47.88 50.12 52.88 C50.12 53.56 50.11 54.25 50.1 54.96 C50.07 56.64 50.04 58.32 50 60 C47.6 59.69 47.6 59.69 45 59 C43.93 57.03 42.93 55.03 42 53 C41.01 52.67 40.02 52.34 39 52 C39.14 54.85 39.29 57.71 39.44 60.56 C39.48 61.36 39.52 62.16 39.56 62.99 C39.81 67.71 40.08 72.36 41 77 C43.06 78.44 43.06 78.44 45 79 C44.17 79.16 44.17 79.16 40 80 C37.75 77.31 36.12 75.35 35 72 C33.68 71.32 32.34 70.65 31 70 C26.83 63.75 26.82 58.18 27.12 50.87 C26.99 47.77 26.48 45.73 25 43 C24.51 42.84 24.51 42.84 22 42 C20.81 38.44 20.81 38.44 20 35 C19.67 35 19.34 35 19 35 C19 39.29 19 43.58 19 48 C18.01 48 17.02 48 16 48 C14.54 43.42 13.89 39.84 14 35 C13.84 34.5 13.84 34.5 13 32 C12.68 31.86 12.68 31.86 11.04 31.18 C9 30 9 30 7.99 27.36 C7.77 26.31 7.54 25.26 7.31 24.19 C7.08 23.15 6.85 22.11 6.61 21.04 C6.22 19.11 5.84 17.18 5.48 15.24 C5 13 5 13 4 11 C2.68 10.34 1.36 9.68 0 9 C0 6.03 0 3.06 0 0 Z " fill="#7A7565" transform="translate(11,58)"/>
<path d="M0 0 C0.66 0.33 1.32 0.66 2 1 C2.67 3 3.33 5 4 7 C4.66 7.33 5.32 7.66 6 8 C5.67 9.65 5.34 11.3 5 13 C6.32 13.33 7.64 13.66 9 14 C9.04 15.67 9.04 17.33 9 19 C8.84 19.16 8.84 19.16 8 20 C9.32 20.66 10.64 21.32 12 22 C11.84 22.49 11.84 22.49 11 25 C10.01 25 9.02 25 8 25 C8.16 25.66 8.16 25.66 9 29 C8.24 29.27 7.47 29.54 6.69 29.81 C4 31 4 31 2.66 32.59 C1 34 1 34 -1.48 34.07 C-2.37 33.95 -3.27 33.82 -4.19 33.69 C-5.09 33.57 -5.99 33.45 -6.92 33.32 C-7.61 33.22 -8.29 33.11 -9 33 C-9 33.99 -9 34.98 -9 36 C-11.64 36 -14.28 36 -17 36 C-17 35.34 -17 34.68 -17 34 C-17.66 34 -18.32 34 -19 34 C-18.34 35.32 -17.68 36.64 -17 38 C-20.3 37.34 -23.6 36.68 -27 36 C-27 36.66 -27 37.32 -27 38 C-28.65 38 -30.3 38 -32 38 C-32 36.68 -32 35.36 -32 34 C-28.37 34.33 -24.74 34.66 -21 35 C-23 31 -23 31 -26 29 C-26 27.68 -26 26.36 -26 25 C-27.32 25 -28.64 25 -30 25 C-30 25.99 -30 26.98 -30 28 C-31.32 27.34 -32.64 26.68 -34 26 C-34 25.01 -34 24.02 -34 23 C-35.98 23.33 -37.96 23.66 -40 24 C-41.12 20.25 -41.12 20.25 -40 18 C-37.3 17.43 -34.76 17 -32 17 C-31.01 16.67 -30.02 16.34 -29 16 C-31.31 15.67 -33.62 15.34 -36 15 C-35.67 13.02 -35.34 11.04 -35 9 C-34.34 9 -33.68 9 -33 9 C-33 8.34 -33 7.68 -33 7 C-32.34 7 -31.68 7 -31 7 C-30.67 7.66 -30.34 8.32 -30 9 C-29.67 8.67 -29.34 8.34 -29 8 C-26.66 8.29 -24.33 8.62 -22 9 C-21 12 -21 12 -22 15 C-21.34 15.33 -20.68 15.66 -20 16 C-20 14.68 -20 13.36 -20 12 C-19.34 12 -18.68 12 -18 12 C-17.67 10.35 -17.34 8.7 -17 7 C-16.34 7.33 -15.68 7.66 -15 8 C-14.33 10 -13.67 12 -13 14 C-11.38 16.37 -11.38 16.37 -10 18 C-9.34 17.67 -8.68 17.34 -8 17 C-8 15.68 -8 14.36 -8 13 C-7.01 12.67 -6.02 12.34 -5 12 C-5 10.68 -5 9.36 -5 8 C-4.02 6.98 -3.02 5.98 -2 5 C-0.81 2.31 -0.81 2.31 0 0 Z " fill="#A29158" transform="translate(136,27)"/>
<path d="M0 0 C1.32 0.33 2.64 0.66 4 1 C4 1.66 4 2.32 4 3 C4.83 3.16 4.83 3.16 9 4 C9 4.99 9 5.98 9 7 C8.34 7 7.68 7 7 7 C7 8.65 7 10.3 7 12 C8.98 12.33 10.96 12.66 13 13 C13 13.66 13 14.32 13 15 C13.83 15.16 13.83 15.16 18 16 C18.16 16.49 18.16 16.49 19 19 C20.32 18.84 20.32 18.84 27 18 C27.16 18.49 27.16 18.49 28 21 C27.46 21.07 27.46 21.07 24.75 21.44 C22.08 21.84 19.59 22.28 17 23 C17 22.34 17 21.68 17 21 C16.34 21 15.68 21 15 21 C15 21.99 15 22.98 15 24 C14.01 24 13.02 24 12 24 C12 23.34 12 22.68 12 22 C11.34 22 10.68 22 10 22 C9.84 21.67 9.84 21.67 9 20 C8.34 20 7.68 20 7 20 C6.67 20.66 6.34 21.32 6 22 C6.99 22 7.98 22 9 22 C9 22.99 9 23.98 9 25 C6.69 25.33 4.38 25.66 2 26 C2 25.01 2 24.02 2 23 C0.68 23 -0.64 23 -2 23 C-2 23.66 -2 24.32 -2 25 C-1.01 25.33 -0.02 25.66 1 26 C-1 28 -1 28 -3.62 28.12 C-4.41 28.08 -5.19 28.04 -6 28 C-6 28.66 -6 29.32 -6 30 C-8.31 30.33 -10.62 30.66 -13 31 C-13 30.34 -13 29.68 -13 29 C-13.66 28.67 -14.32 28.34 -15 28 C-15 29.32 -15 30.64 -15 32 C-15.99 32 -16.98 32 -18 32 C-18 32.66 -18 33.32 -18 34 C-19.65 34.66 -21.3 35.32 -23 36 C-22.79 36.6 -22.59 37.2 -22.38 37.81 C-22 40 -22 40 -24 43 C-24.99 42.67 -25.98 42.34 -27 42 C-28.35 39.29 -28.07 36.99 -28 34 C-27.34 34 -26.68 34 -26 34 C-26 33.34 -26 32.68 -26 32 C-28.92 33.07 -30.78 33.78 -33 36 C-33 34.35 -33 32.7 -33 31 C-34.98 30.67 -36.96 30.34 -39 30 C-39.33 30.99 -39.66 31.98 -40 33 C-39.94 30.75 -39.94 30.75 -39 28 C-34.93 25.11 -32.11 23.38 -27 24 C-26.94 23.24 -26.88 22.47 -26.81 21.69 C-26 19 -26 19 -23.88 17.19 C-20.4 15.75 -17.72 15.86 -14 16 C-13.01 15.67 -12.02 15.34 -11 15 C-8.2 14.46 -5.4 13.98 -2.59 13.5 C0 13 0 13 3 12 C3.66 12.33 4.32 12.66 5 13 C5 11.02 5 9.04 5 7 C4.65 7.1 4.65 7.1 2.88 7.62 C-0.6 8.08 -2.77 7.28 -6 6 C-5.67 4.68 -5.34 3.36 -5 2 C-3.35 1.67 -1.7 1.34 0 1 C0 0.67 0 0.34 0 0 Z " fill="#807F6E" transform="translate(50,28)"/>
<path d="M0 0 C2.5 1.06 2.5 1.06 5 3 C5.31 6.69 5.31 6.69 5 10 C5.66 10 6.32 10 7 10 C7.66 8.35 8.32 6.7 9 5 C9.33 5 9.66 5 10 5 C11.86 9.7 12.25 13.88 12.12 18.88 C12.12 19.56 12.11 20.25 12.1 20.96 C12.07 22.64 12.04 24.32 12 26 C9.6 25.69 9.6 25.69 7 25 C5.93 23.03 4.93 21.03 4 19 C3.01 18.67 2.02 18.34 1 18 C1.14 20.85 1.29 23.71 1.44 26.56 C1.48 27.36 1.52 28.16 1.56 28.99 C1.81 33.71 2.08 38.36 3 43 C5.06 44.44 5.06 44.44 7 45 C6.17 45.16 6.17 45.16 2 46 C-0.25 43.31 -1.88 41.35 -3 38 C-4.32 37.32 -5.66 36.65 -7 36 C-11.15 29.78 -11.19 24.16 -10.97 16.87 C-11 14.1 -11.37 11.68 -12 9 C-9.12 10.29 -7.13 11.66 -5 14 C-5 13.01 -5 12.02 -5 11 C-4.01 11 -3.02 11 -2 11 C-1.67 11.66 -1.34 12.32 -1 13 C-0.67 12.01 -0.34 11.02 0 10 C-0.66 10 -1.32 10 -2 10 C-5.22 4.73 -5.22 4.73 -6 3 C-5.67 2.34 -5.34 1.68 -5 1 C-3.68 2.32 -2.36 3.64 -1 5 C-0.67 3.35 -0.34 1.7 0 0 Z " fill="#9297A1" transform="translate(49,92)"/>
<path d="M0 0 C0.66 0 1.32 0 2 0 C2.84 5.9 3.21 11.67 3.25 17.62 C3.27 18.44 3.29 19.26 3.31 20.11 C3.35 26.65 1.64 30.54 -2 36 C-2.91 35.65 -3.81 35.3 -4.75 34.94 C-7.86 34.04 -9.11 33.71 -12 35 C-12.33 35.66 -12.66 36.32 -13 37 C-12.5 37.16 -12.5 37.16 -10 38 C-10.33 38.66 -10.66 39.32 -11 40 C-12.65 40 -14.3 40 -16 40 C-16 40.66 -16 41.32 -16 42 C-16.66 42 -17.32 42 -18 42 C-18.33 40.68 -18.66 39.36 -19 38 C-19.37 38.2 -19.37 38.2 -21.25 39.19 C-24 40 -24 40 -26.19 39.12 C-30.02 34.63 -30.29 28.72 -30 23 C-29.17 23.33 -29.17 23.33 -25 25 C-25 25.66 -25 26.32 -25 27 C-23.68 27 -22.36 27 -21 27 C-21 26.34 -21 25.68 -21 25 C-16.25 25.88 -16.25 25.88 -14 27 C-14.19 26.26 -14.38 25.53 -14.58 24.77 C-16.4 16.74 -16.4 16.74 -14.25 12.81 C-12 11 -12 11 -10 11 C-10 13.31 -10 15.62 -10 18 C-10.66 18 -11.32 18 -12 18 C-12 19.65 -12 21.3 -12 23 C-11.34 23 -10.68 23 -10 23 C-10 23.66 -10 24.32 -10 25 C-9.01 25 -8.02 25 -7 25 C-7 24.34 -7 23.68 -7 23 C-5.68 22.67 -4.36 22.34 -3 22 C-2.97 21.7 -2.97 21.7 -2.82 20.21 C-2.38 16.08 -1.83 12.07 -1 8 C-0.63 5.34 -0.32 2.67 0 0 Z " fill="#C7C8CD" transform="translate(116,135)"/>
<path d="M0 0 C0.44 0.05 0.44 0.05 2.65 0.27 C5.06 0.62 5.06 0.62 8.06 1.62 C8.4 2.96 8.73 4.29 9.06 5.62 C10.05 5.95 11.04 6.28 12.06 6.62 C12.28 12.06 12.17 16.5 10.06 21.62 C11.38 21.3 12.7 20.97 14.06 20.62 C14.72 24.25 15.38 27.89 16.06 31.62 C15.07 31.62 14.08 31.62 13.06 31.62 C13.06 30.97 13.06 30.31 13.06 29.62 C12.01 29.93 10.96 30.24 9.88 30.56 C6.93 31.38 4.06 32.08 1.06 32.62 C1.06 34.94 1.06 37.25 1.06 39.62 C0.4 39.79 0.4 39.79 -2.94 40.62 C-2.98 38.63 -2.98 36.62 -2.94 34.62 C-2.77 34.46 -2.77 34.46 -1.94 33.62 C-1.71 32.28 -1.53 30.92 -1.38 29.56 C-1.23 28.26 -1.09 26.96 -0.94 25.62 C-1.6 25.62 -2.26 25.62 -2.94 25.62 C-2.61 24.31 -2.28 22.98 -1.94 21.62 C-1.28 21.62 -0.62 21.62 0.06 21.62 C0.06 20.31 0.06 18.98 0.06 17.62 C-1.26 17.3 -2.58 16.97 -3.94 16.62 C-3.94 15.64 -3.94 14.64 -3.94 13.62 C-2.29 13.62 -0.64 13.62 1.06 13.62 C1.06 12.97 1.06 12.31 1.06 11.62 C0.36 11.5 -0.34 11.38 -1.06 11.25 C-4.17 10.57 -7.01 9.89 -9.94 8.62 C-10.81 6.5 -10.81 6.5 -10.94 4.62 C-10.28 4.62 -9.62 4.62 -8.94 4.62 C-8.65 3.99 -8.36 3.35 -8.06 2.69 C-6.04 -1.03 -3.84 -0.42 0 0 Z " fill="#756F60" transform="translate(135.9375,75.375)"/>
<path d="M0 0 C0 3.11 -0.54 4.35 -2 7 C-0.84 6.83 -0.84 6.83 5 6 C5 5.34 5 4.68 5 4 C4.34 3.67 3.68 3.34 3 3 C12.41 2.82 12.41 2.82 17 4 C16.93 4.26 16.93 4.26 16.56 5.56 C15.84 8.69 15.43 11.83 15 15 C14.01 15 13.02 15 12 15 C12.33 13.35 12.66 11.7 13 10 C12.01 10 11.02 10 10 10 C10 10.66 10 11.32 10 12 C9.34 12 8.68 12 8 12 C8 13.65 8 15.3 8 17 C7.64 16.82 7.64 16.82 5.81 15.94 C2.69 14.9 1.12 15.11 -2 16 C-2 17.98 -2 19.96 -2 22 C-0.02 22.33 1.96 22.66 4 23 C4 23.66 4 24.32 4 25 C3.01 25 2.02 25 1 25 C1 25.66 1 26.32 1 27 C0.01 27 -0.98 27 -2 27 C-1.58 32.36 -0.55 35 3 39 C3.33 39.99 3.66 40.98 4 42 C3.17 42.16 3.17 42.16 -1 43 C-1 42.34 -1 41.68 -1 41 C-0.34 41 0.32 41 1 41 C1 40.34 1 39.68 1 39 C0.01 39.16 0.01 39.16 -5 40 C-5.33 39.34 -5.66 38.68 -6 38 C-5.34 38 -4.68 38 -4 38 C-3.67 36.68 -3.34 35.36 -3 34 C-4.65 33.67 -6.3 33.34 -8 33 C-8 33.66 -8 34.32 -8 35 C-8.66 35 -9.32 35 -10 35 C-10 35.66 -10 36.32 -10 37 C-11.65 36.67 -13.3 36.34 -15 36 C-14.62 33.56 -14.62 33.56 -14 31 C-13.34 30.67 -12.68 30.34 -12 30 C-12 28.02 -12 26.04 -12 24 C-11.34 24.99 -10.68 25.98 -10 27 C-8.35 27 -6.7 27 -5 27 C-5 23.04 -5 19.08 -5 15 C-6.98 14.34 -8.96 13.68 -11 13 C-11 9.37 -11 5.74 -11 2 C-7.18 0.58 -4.09 -0.24 0 0 Z " fill="#676D7B" transform="translate(103,91)"/>
<path d="M0 0 C0.66 0 1.32 0 2 0 C2.66 3.96 3.32 7.92 4 12 C3.67 11.34 3.34 10.68 3 10 C2.34 11.65 1.68 13.3 1 15 C1.66 15 2.32 15 3 15 C3 15.99 3 16.98 3 18 C3.99 18.33 4.98 18.66 6 19 C5.67 19.66 5.34 20.32 5 21 C3.68 20.67 2.36 20.34 1 20 C1 20.66 1 21.32 1 22 C0.01 22 -0.98 22 -2 22 C-2 22.66 -2 23.32 -2 24 C-1.01 24.33 -0.02 24.66 1 25 C1 25.66 1 26.32 1 27 C2.98 26.34 4.96 25.68 7 25 C6.62 26.94 6.62 26.94 6 29 C5.34 29.33 4.68 29.66 4 30 C3.47 31.93 3.47 31.93 3.06 34.31 C2.35 37.9 1.59 40.29 -1 43 C-2.88 42.44 -2.88 42.44 -5 41 C-5.67 38.67 -6.33 36.33 -7 34 C-7.32 33.86 -7.32 33.86 -8.96 33.14 C-11 32 -11 32 -12.01 29.45 C-13.73 21.31 -14.64 13.32 -15 5 C-15.64 4.9 -16.28 4.79 -16.94 4.69 C-17.62 4.46 -18.3 4.23 -19 4 C-19.33 3.01 -19.66 2.02 -20 1 C-19.34 1 -18.68 1 -18 1 C-18 1.66 -18 2.32 -18 3 C-16.68 3 -15.36 3 -14 3 C-13.67 3.66 -13.34 4.32 -13 5 C-12.34 5 -11.68 5 -11 5 C-11 6.32 -11 7.64 -11 9 C-10.01 9 -9.02 9 -8 9 C-7.67 10.65 -7.34 12.3 -7 14 C-6.01 13.67 -5.02 13.34 -4 13 C-3.67 13.33 -3.34 13.66 -3 14 C-2.67 12.02 -2.34 10.04 -2 8 C-3.65 7.34 -5.3 6.68 -7 6 C-7 5.01 -7 4.02 -7 3 C-6.52 2.85 -6.52 2.85 -4.06 2.06 C-1 1 -1 1 0 0 Z " fill="#A1ADBF" transform="translate(77,127)"/>
<path d="M0 0 C1.31 3.06 1.31 3.06 2 7 C0.84 9.8 -0.66 12.06 -3 14 C-4.32 14 -5.64 14 -7 14 C-7 15.32 -7 16.64 -7 18 C-10.49 21.7 -14.83 24.68 -20 25 C-19.67 22.36 -19.34 19.72 -19 17 C-19.33 17.83 -19.33 17.83 -21 22 C-21.66 21.67 -22.32 21.34 -23 21 C-23 18.03 -23 15.06 -23 12 C-21.35 11.67 -19.7 11.34 -18 11 C-18.82 10.38 -19.65 9.76 -20.5 9.12 C-21.32 8.42 -22.15 7.72 -23 7 C-23 6.34 -23 5.68 -23 5 C-23.99 4.67 -24.98 4.34 -26 4 C-25.67 4.66 -25.34 5.32 -25 6 C-27.31 5.34 -29.62 4.68 -32 4 C-32 3.01 -32 2.02 -32 1 C-26.57 -0.14 -26.57 -0.14 -23.62 0.56 C-20.53 1.08 -18.43 0.27 -15.47 -0.59 C-10.35 -1.44 -5.12 -0.58 0 0 Z " fill="#817B63" transform="translate(173,68)"/>
<path d="M0 0 C1.32 0 2.64 0 4 0 C4 0.66 4 1.32 4 2 C6.64 2 9.28 2 12 2 C12.33 2.99 12.66 3.98 13 5 C17.14 5.1 20.94 4.77 25 4 C25.66 5.32 26.32 6.64 27 8 C23.34 8.75 20.58 9.24 17 8 C17.66 8.6 18.32 9.2 19 9.81 C21 12 21 12 21 15 C22.32 15 23.64 15 25 15 C25 14.01 25 13.02 25 12 C25.99 12 26.98 12 28 12 C27.69 13.88 27.69 13.88 27 16 C24 18 24 18 21.81 17.62 C21.21 17.42 20.62 17.21 20 17 C20 16.67 20 16.34 20 16 C16.62 15.88 16.62 15.88 13 16 C12.34 16.66 11.68 17.32 11 18 C12.32 18.66 13.64 19.32 15 20 C15 20.66 15 21.32 15 22 C9.76 23.1 4.34 23.57 -1 23 C-1.66 22.34 -2.32 21.68 -3 21 C-3 20.01 -3 19.02 -3 18 C0.3 18 3.6 18 7 18 C4 14 4 14 1.31 13.25 C0.55 13.17 -0.21 13.09 -1 13 C-0.67 11.35 -0.34 9.7 0 8 C-0.99 7.34 -1.98 6.68 -3 6 C-3.33 7.98 -3.66 9.96 -4 12 C-6.31 11.67 -8.62 11.34 -11 11 C-11 10.34 -11 9.68 -11 9 C-9.68 9 -8.36 9 -7 9 C-7.33 7.35 -7.66 5.7 -8 4 C-5.04 2.52 -2.26 2.94 1 3 C0.67 2.01 0.34 1.02 0 0 Z " fill="#BEAB8D" transform="translate(78,67)"/>
<path d="M0 0 C1.32 0.33 2.64 0.66 4 1 C4 1.66 4 2.32 4 3 C5.65 3.33 7.3 3.66 9 4 C9 4.99 9 5.98 9 7 C8.34 7 7.68 7 7 7 C7 8.65 7 10.3 7 12 C7.99 12.16 7.99 12.16 13 13 C13 13.66 13 14.32 13 15 C13.83 15.16 13.83 15.16 18 16 C18.33 16.99 18.66 17.98 19 19 C20.32 18.84 20.32 18.84 27 18 C27.16 18.49 27.16 18.49 28 21 C26.93 21.14 25.85 21.29 24.75 21.44 C22.08 21.84 19.59 22.28 17 23 C17 22.34 17 21.68 17 21 C16.34 21 15.68 21 15 21 C15 21.99 15 22.98 15 24 C14.01 24 13.02 24 12 24 C12 23.34 12 22.68 12 22 C11.34 22 10.68 22 10 22 C9.67 21.34 9.34 20.68 9 20 C8.34 20 7.68 20 7 20 C6.67 20.66 6.34 21.32 6 22 C6.99 22 7.98 22 9 22 C9 22.99 9 23.98 9 25 C6.69 25.33 4.38 25.66 2 26 C2 25.01 2 24.02 2 23 C0.68 23 -0.64 23 -2 23 C-2 23.66 -2 24.32 -2 25 C-1.01 25.33 -0.02 25.66 1 26 C-1.76 28.76 -4.21 28.58 -8 29 C-8.66 27.35 -9.32 25.7 -10 24 C-9.34 24 -8.68 24 -8 24 C-7.9 23.24 -7.79 22.47 -7.69 21.69 C-6.96 18.83 -6.23 17.84 -4 16 C-4.66 16 -5.32 16 -6 16 C-6 15.34 -6 14.68 -6 14 C-4.54 13.64 -3.08 13.29 -1.62 12.94 C-0.81 12.74 -0 12.54 0.84 12.34 C3 12 3 12 5 13 C5 11.02 5 9.04 5 7 C4.3 7.21 3.6 7.41 2.88 7.62 C-0.6 8.08 -2.77 7.28 -6 6 C-5.67 4.68 -5.34 3.36 -5 2 C-3.35 1.67 -1.7 1.34 0 1 C0 0.67 0 0.34 0 0 Z " fill="#666757" transform="translate(50,28)"/>
<path d="M0 0 C0.66 0 1.32 0 2 0 C2.23 0.57 2.23 0.57 3.38 3.44 C5 7 5 7 7 8 C6.67 9.65 6.34 11.3 6 13 C7.16 13.5 7.16 13.5 13 16 C13 17.32 13 18.64 13 20 C14.65 20.33 16.3 20.66 18 21 C18 21.33 18 21.66 18 22 C17.3 21.98 16.6 21.95 15.88 21.93 C7.18 21.76 7.18 21.76 2.88 23.06 C-1.2 24.05 -3.88 23.83 -7.95 23.23 C-10.46 22.95 -12.58 23.3 -15 24 C-15 23.01 -15 22.02 -15 21 C-14.34 20.67 -13.68 20.34 -13 20 C-12.22 17.67 -11.58 15.39 -11 13 C-11.66 13 -12.32 13 -13 13 C-12.67 12.01 -12.34 11.02 -12 10 C-10.68 10 -9.36 10 -8 10 C-8.33 8.68 -8.66 7.36 -9 6 C-8.18 6.33 -8.18 6.33 -4 8 C-3.67 7.01 -3.34 6.02 -3 5 C-2.34 5 -1.68 5 -1 5 C-0.67 3.35 -0.34 1.7 0 0 Z " fill="#C3B36F" transform="translate(153,46)"/>
<path d="M0 0 C3 1 3 1 4.25 2.94 C4.5 3.62 4.75 4.3 5 5 C4.67 5.66 4.34 6.32 4 7 C4.83 7.16 4.83 7.16 9 8 C8.67 9.65 8.34 11.3 8 13 C9.32 13.66 10.64 14.32 12 15 C11.43 17.87 11.14 18.86 9 21 C10.65 21.33 12.3 21.66 14 22 C14.33 21.34 14.66 20.68 15 20 C15.99 20 16.98 20 18 20 C18.66 20.99 19.32 21.98 20 23 C20.66 23 21.32 23 22 23 C22 24.32 22 25.64 22 27 C21.34 27 20.68 27 20 27 C20.16 27.83 20.16 27.83 21 32 C19.68 32 18.36 32 17 32 C17 31.01 17 30.02 17 29 C16.36 28.9 15.72 28.79 15.06 28.69 C14.38 28.46 13.7 28.23 13 28 C12.67 27.01 12.34 26.02 12 25 C12.33 24.34 12.66 23.68 13 23 C12.01 23.66 11.02 24.32 10 25 C9.34 25.33 8.68 25.66 8 26 C8 25.34 8 24.68 8 24 C7.01 24 6.02 24 5 24 C4.75 23.36 4.5 22.72 4.25 22.06 C3 20 3 20 0.88 19.25 C0.26 19.17 -0.36 19.09 -1 19 C-1 18.34 -1 17.68 -1 17 C-3.97 17.33 -6.94 17.66 -10 18 C-10.33 19.32 -10.66 20.64 -11 22 C-7.37 22.33 -3.74 22.66 0 23 C0 24.98 0 26.96 0 29 C-3.63 29.33 -7.26 29.66 -11 30 C-11 29.67 -11 29.34 -11 29 C-9.02 28.34 -7.04 27.68 -5 27 C-6.65 27 -8.3 27 -10 27 C-10 26.01 -10 25.02 -10 24 C-10.66 23.67 -11.32 23.34 -12 23 C-11.67 21.02 -11.34 19.04 -11 17 C-10.01 16.67 -9.02 16.34 -8 16 C-7.34 16.33 -6.68 16.66 -6 17 C-6 13 -6 13 -6.56 10.88 C-7 9 -7 9 -6 7 C-5.01 6.34 -4.02 5.68 -3 5 C-1.95 3.37 -0.94 1.7 0 0 Z " fill="#B7B297" transform="translate(55,12)"/>
<path d="M0 0 C1.46 0.14 2.92 0.29 4.38 0.44 C4.78 0.48 4.78 0.48 6.84 0.68 C9 1 9 1 11 2 C12.87 2.07 14.75 2.08 16.62 2.06 C17.63 2.05 18.63 2.04 19.66 2.04 C20.05 2.03 20.05 2.03 22 2 C22 1.34 22 0.68 22 0 C24.64 0 27.28 0 30 0 C29.67 1.32 29.34 2.64 29 4 C27.68 4 26.36 4 25 4 C25 4.66 25 5.32 25 6 C24.34 6 23.68 6 23 6 C23 6.99 23 7.98 23 9 C23.66 9.33 24.32 9.66 25 10 C22.36 10 19.72 10 17 10 C17 10.66 17 11.32 17 12 C19.64 12 22.28 12 25 12 C25 12.66 25 13.32 25 14 C25.83 14.33 25.83 14.33 30 16 C30 16.66 30 17.32 30 18 C28.35 18 26.7 18 25 18 C25 17.34 25 16.68 25 16 C19.06 15.67 13.12 15.34 7 15 C7 14.01 7 13.02 7 12 C4.12 12.25 4.12 12.25 1 13 C-0.31 15 -0.31 15 -1 17 C-2 18 -2 18 -3.85 18.1 C-5.9 18.07 -7.95 18.03 -10 18 C-10 17.34 -10 16.68 -10 16 C-6.91 14.24 -5.77 14 -2 14 C-2 13.34 -2 12.68 -2 12 C-2.83 11.67 -2.83 11.67 -7 10 C-5.94 8.5 -5.94 8.5 -4 7 C-0.31 6.81 -0.31 6.81 3 7 C3.33 7.66 3.66 8.32 4 9 C6.17 8.49 8 8 10 7 C10.33 6.01 10.66 5.02 11 4 C10.01 4 9.02 4 8 4 C8 4.99 8 5.98 8 7 C6.68 7 5.36 7 4 7 C3.67 6.01 3.34 5.02 3 4 C2.01 3.34 1.02 2.68 0 2 C0 1.34 0 0.68 0 0 Z " fill="#EED6B4" transform="translate(95,75)"/>
<path d="M0 0 C1.32 0 2.64 0 4 0 C4.33 1.32 4.66 2.64 5 4 C5.66 3.67 6.32 3.34 7 3 C7.99 3.66 8.98 4.32 10 5 C10.99 4.67 11.98 4.34 13 4 C12.67 7.3 12.34 10.6 12 14 C11.01 14 10.02 14 9 14 C8.67 17.3 8.34 20.6 8 24 C9.32 23.34 10.64 22.68 12 22 C12 23.98 12 25.96 12 28 C11.34 27.01 10.68 26.02 10 25 C9.67 25.66 9.34 26.32 9 27 C7.68 27.33 6.36 27.66 5 28 C5 21.73 5 15.46 5 9 C4.34 9 3.68 9 3 9 C3.02 10.22 3.04 11.43 3.06 12.69 C3.07 15.94 2.67 18.82 2 22 C2.06 23.01 2.12 24.02 2.19 25.06 C2 28 2 28 0.12 30.38 C-2 32 -2 32 -4 32 C-4 32.66 -4 33.32 -4 34 C-4.99 34 -5.98 34 -7 34 C-7 33.34 -7 32.68 -7 32 C-7.66 32 -8.32 32 -9 32 C-9 30.35 -9 28.7 -9 27 C-8.34 27 -7.68 27 -7 27 C-7 24.69 -7 22.38 -7 20 C-7.66 20 -8.32 20 -9 20 C-9.66 21.32 -10.32 22.64 -11 24 C-11.33 24 -11.66 24 -12 24 C-12.33 20.37 -12.66 16.74 -13 13 C-11.68 13 -10.36 13 -9 13 C-8.67 14.98 -8.34 16.96 -8 19 C-7.01 18.34 -6.02 17.68 -5 17 C-5 15.68 -5 14.36 -5 13 C-4.01 13 -3.02 13 -2 13 C1.07 9.84 2.5 7.38 3 3 C2.01 3 1.02 3 0 3 C0 2.01 0 1.02 0 0 Z " fill="#A0A6B1" transform="translate(113,126)"/>
<path d="M0 0 C0.66 2.97 1.32 5.94 2 9 C2.99 9 3.98 9 5 9 C5.11 9.38 5.11 9.38 5.69 11.31 C7.27 14.55 8.83 15.42 12 17 C12.33 16.34 12.66 15.68 13 15 C13.66 15.33 14.32 15.66 15 16 C15.41 18.5 15.41 18.5 15.62 21.56 C15.7 22.57 15.77 23.59 15.85 24.63 C15.88 25.02 15.88 25.02 16 27 C13.69 26.34 11.38 25.68 9 25 C9 25.66 9 26.32 9 27 C7.68 27 6.36 27 5 27 C4.55 26.53 4.09 26.05 3.62 25.56 C1.32 23.34 -0.89 23.35 -4 23 C-3.33 21 -2.67 19 -2 17 C-2.99 17.66 -3.98 18.32 -5 19 C-8 19 -8 19 -9.69 17.62 C-11 16 -11 16 -11 14 C-10.01 14 -9.02 14 -8 14 C-8 13.34 -8 12.68 -8 12 C-7.01 11.67 -6.02 11.34 -5 11 C-5.33 9.68 -5.66 8.36 -6 7 C-6.66 7 -7.32 7 -8 7 C-8 5.35 -8 3.7 -8 2 C-1.12 0 -1.12 0 0 0 Z " fill="#919FB6" transform="translate(86,135)"/>
<path d="M0 0 C0.33 0.99 0.66 1.98 1 3 C2.65 2.67 4.3 2.34 6 2 C8.34 4.48 8.98 5.78 9.29 9.23 C9.26 10.39 9.22 11.55 9.19 12.75 C9.16 13.92 9.13 15.09 9.11 16.3 C9.07 17.19 9.04 18.08 9 19 C8.34 19 7.68 19 7 19 C7.33 20.32 7.66 21.64 8 23 C7.34 23.33 7.34 23.33 4 25 C3.34 23.35 2.68 21.7 2 20 C1.34 20 0.68 20 0 20 C0 23.3 0 26.6 0 30 C-0.66 30 -1.32 30 -2 30 C-2.33 30.99 -2.66 31.98 -3 33 C-8.78 29.68 -8.78 29.68 -9.88 26.25 C-9.92 25.51 -9.96 24.76 -10 24 C-10.66 24 -11.32 24 -12 24 C-12 20.37 -12 16.74 -12 13 C-11.01 12.67 -10.02 12.34 -9 12 C-9.33 13.98 -9.66 15.96 -10 18 C-9.01 15.03 -8.02 12.06 -7 9 C-6.34 9 -5.68 9 -5 9 C-4.9 9.4 -4.9 9.4 -4.38 11.44 C-3.92 12.28 -3.47 13.13 -3 14 C0.12 14.81 0.12 14.81 3 15 C3.66 14.01 4.32 13.02 5 12 C1.12 6.12 1.12 6.12 0 5 C-0.04 3.33 -0.04 1.67 0 0 Z " fill="#8D95A3" transform="translate(101,120)"/>
<path d="M0 0 C0.33 0.66 0.66 1.32 1 2 C-0.98 2 -2.96 2 -5 2 C-4.67 4.97 -4.34 7.94 -4 11 C-3.01 9.02 -2.02 7.04 -1 5 C0.31 8.94 -0.76 11.12 -2 15 C2.6 13.51 5.4 11.11 9 8 C9.33 8 9.66 8 10 8 C10.53 14.21 8.92 18.53 6 24 C5.67 24.33 5.34 24.66 5 25 C4.63 27.14 4.3 29.29 4 31.44 C3.11 37.78 3.11 37.78 2 40 C1.34 40 0.68 40 0 40 C-0.12 39.24 -0.24 38.48 -0.37 37.7 C-0.53 36.71 -0.7 35.71 -0.88 34.69 C-1.04 33.7 -1.2 32.72 -1.37 31.7 C-2 29 -2 29 -4 26 C-5.35 23.29 -5.07 20.99 -5 18 C-6.65 18.66 -8.3 19.32 -10 20 C-9.85 19.52 -9.85 19.52 -9.06 17.06 C-7.82 12.76 -7.38 8.45 -7 4 C-8.65 3.67 -10.3 3.34 -12 3 C-11.34 2.67 -10.68 2.34 -10 2 C-10 1.34 -10 0.68 -10 0 C-6.43 -1.24 -3.64 -0.89 0 0 Z " fill="#BEB5A6" transform="translate(155,78)"/>
<path d="M0 0 C0.6 0.21 1.2 0.41 1.81 0.62 C1.15 0.62 0.49 0.62 -0.19 0.62 C-0.19 1.28 -0.19 1.94 -0.19 2.62 C2.12 2.62 4.43 2.62 6.81 2.62 C6.81 6.25 6.81 9.89 6.81 13.62 C8.79 14.28 10.77 14.94 12.81 15.62 C12.81 19.59 12.81 23.55 12.81 27.62 C7.81 28.62 7.81 28.62 6.81 28.62 C6.48 29.28 6.15 29.94 5.81 30.62 C4.82 30.3 3.83 29.97 2.81 29.62 C3.14 27.64 3.47 25.66 3.81 23.62 C2.49 23.3 1.17 22.97 -0.19 22.62 C-0.52 20.64 -0.85 18.66 -1.19 16.62 C-1.85 16.62 -2.51 16.62 -3.19 16.62 C-5.76 6.3 -5.76 6.3 -5.19 1.62 C-2.19 -0.38 -2.19 -0.38 0 0 Z " fill="#7A7574" transform="translate(85.1875,90.375)"/>
<path d="M0 0 C1.32 0.33 2.64 0.66 4 1 C4 1.99 4 2.98 4 4 C5.32 4 6.64 4 8 4 C7.67 7.63 7.34 11.26 7 15 C5.35 15.33 3.7 15.66 2 16 C2 17.65 2 19.3 2 21 C1.01 20.67 0.02 20.34 -1 20 C-0.98 20.95 -0.96 21.9 -0.94 22.88 C-1 26 -1 26 -2 28 C-0.89 27.34 0.23 26.68 1.38 26 C4.75 24 4.75 24 7 24 C7 26.31 7 28.62 7 31 C6.01 31.33 5.02 31.66 4 32 C3.34 31.67 2.68 31.34 2 31 C2.68 32.03 3.36 33.06 4.06 34.12 C6.18 37.85 6.11 39.8 5 44 C4.84 45.44 4.7 46.87 4.56 48.31 C4.38 49.53 4.19 50.75 4 52 C3.67 52.16 3.67 52.16 2 53 C1.88 45.25 1.88 45.25 3 43 C1.68 43.99 0.36 44.98 -1 46 C-1 45.01 -1 44.02 -1 43 C-1.83 43.16 -1.83 43.16 -6 44 C-5.67 39.05 -5.34 34.1 -5 29 C-4.34 29 -3.68 29 -3 29 C-3.01 28.2 -3.02 27.41 -3.04 26.59 C-3.12 16.06 -3.12 16.06 -2 11 C-0.68 11.33 0.64 11.66 2 12 C2.33 9.36 2.66 6.72 3 4 C1.68 3.67 0.36 3.34 -1 3 C-0.67 2.01 -0.34 1.02 0 0 Z " fill="#8E9199" transform="translate(123,87)"/>
<path d="M0 0 C1.88 3.27 2.49 6.28 3 10 C3.66 10 4.32 10 5 10 C5 11.32 5 12.64 5 14 C6.32 13.67 7.64 13.34 9 13 C9 12.01 9 11.02 9 10 C9.66 10 10.32 10 11 10 C11.33 11.98 11.66 13.96 12 16 C12.99 16.33 13.98 16.66 15 17 C14.67 19.31 14.34 21.62 14 24 C13.34 22.68 12.68 21.36 12 20 C11.01 20 10.02 20 9 20 C9.5 20.78 9.99 21.57 10.5 22.38 C12 25 12 25 12 27 C12.66 27 13.32 27 14 27 C14 28.65 14 30.3 14 32 C13.34 30.68 12.68 29.36 12 28 C11.01 28 10.02 28 9 28 C9 28.99 9 29.98 9 31 C6 30 6 30 4 28 C3.67 27.34 3.34 26.68 3 26 C0.44 25.38 0.44 25.38 -2 25 C-2.66 22.69 -3.32 20.38 -4 18 C-4.33 18 -4.66 18 -5 18 C-5 22.29 -5 26.58 -5 31 C-5.99 31 -6.98 31 -8 31 C-9.59 26.13 -10.21 22.19 -10 17 C-9.34 17 -8.68 17 -8 17 C-8 15.02 -8 13.04 -8 11 C-7.34 11 -6.68 11 -6 11 C-6 12.32 -6 13.64 -6 15 C-5.01 15 -4.02 15 -3 15 C-3 14.01 -3 13.02 -3 12 C-1.35 12 0.3 12 2 12 C1.67 11.32 1.34 10.64 1 9.94 C-0.17 6.49 -0.14 3.62 0 0 Z " fill="#75777C" transform="translate(35,75)"/>
<path d="M0 0 C0.66 0.33 1.32 0.66 2 1 C2.67 3 3.33 5 4 7 C4.66 7.33 5.32 7.66 6 8 C5.67 9.65 5.34 11.3 5 13 C6.32 13.33 7.64 13.66 9 14 C9.04 15.67 9.04 17.33 9 19 C8.84 19.16 8.84 19.16 8 20 C9.32 20.66 10.64 21.32 12 22 C11.84 22.49 11.84 22.49 11 25 C10.34 24.67 9.68 24.34 9 24 C9.33 23.34 9.66 22.68 10 22 C9.01 22.16 9.01 22.16 4 23 C4 23.66 4 24.32 4 25 C2.35 24.34 0.7 23.68 -1 23 C-0.62 21.06 -0.62 21.06 0 19 C0.66 18.67 1.32 18.34 2 18 C2 17.34 2 16.68 2 16 C0.68 16 -0.64 16 -2 16 C-2.33 16.99 -2.66 17.98 -3 19 C-4.98 19.33 -6.96 19.66 -9 20 C-9.33 20.99 -9.66 21.98 -10 23 C-10.33 21.68 -10.66 20.36 -11 19 C-14.67 18.15 -18.04 17.89 -21.81 17.94 C-22.79 17.95 -23.76 17.96 -24.77 17.96 C-25.51 17.98 -26.24 17.99 -27 18 C-27 15 -27 15 -25 13 C-25 11.68 -25 10.36 -25 9 C-26.32 8.67 -27.64 8.34 -29 8 C-26.69 8.33 -24.38 8.66 -22 9 C-21 12 -21 12 -22 15 C-21.34 15.33 -20.68 15.66 -20 16 C-20 14.68 -20 13.36 -20 12 C-19.34 12 -18.68 12 -18 12 C-17.67 10.35 -17.34 8.7 -17 7 C-16.34 7.33 -15.68 7.66 -15 8 C-14.67 9 -14.67 9 -13 14 C-11.38 16.38 -11.38 16.38 -10 18 C-9.34 17.67 -8.68 17.34 -8 17 C-8 15.68 -8 14.36 -8 13 C-7.01 12.67 -6.02 12.34 -5 12 C-5 10.68 -5 9.36 -5 8 C-4.02 6.98 -3.02 5.98 -2 5 C-0.81 2.31 -0.81 2.31 0 0 Z " fill="#A7A07E" transform="translate(136,27)"/>
<path d="M0 0 C3.96 0 7.92 0 12 0 C10 1 8 2 6 3 C6.16 5.64 6.16 5.64 7 19 C4 19 4 19 2.31 17.5 C1.88 17 1.45 16.51 1 16 C1.14 16.63 1.29 17.26 1.44 17.91 C2.63 23.41 3.21 28.38 3 34 C2.34 34.16 2.34 34.16 -1 35 C-0.34 33.02 0.32 31.04 1 29 C-0.32 29 -1.64 29 -3 29 C-3 29.66 -3 30.32 -3 31 C-3.66 31 -4.32 31 -5 31 C-5 30.01 -5 29.02 -5 28 C-4.34 28 -3.68 28 -3 28 C-3.33 25.69 -3.66 23.38 -4 21 C-2.68 21.66 -1.36 22.32 0 23 C-0.33 21.68 -0.66 20.36 -1 19 C-2.65 19 -4.3 19 -6 19 C-6.33 20.32 -6.66 21.64 -7 23 C-9.31 23 -11.62 23 -14 23 C-14.33 19.04 -14.66 15.08 -15 11 C-14.34 11 -13.68 11 -13 11 C-11.52 13.96 -11.94 16.74 -12 20 C-11.01 19.67 -10.02 19.34 -9 19 C-6.52 8.63 -6.52 8.63 -8 3 C-5.69 3 -3.38 3 -1 3 C-0.67 5.31 -0.34 7.62 0 10 C0.33 8.35 0.66 6.7 1 5 C1.66 5 2.32 5 3 5 C3 4.01 3 3.02 3 2 C2.01 2 1.02 2 0 2 C0 1.34 0 0.68 0 0 Z " fill="#6B695F" transform="translate(75,89)"/>
<path d="M0 0 C0.83 0.5 0.83 0.5 5 3 C4.34 4.65 3.68 6.3 3 8 C3.76 7.94 4.53 7.88 5.31 7.81 C8 8 8 8 9.81 9.38 C11 11 11 11 11 13 C7.7 13 4.4 13 1 13 C1.33 14.32 1.66 15.64 2 17 C1.67 17.66 1.34 18.32 1 19 C1.99 19 2.98 19 4 19 C4 19.99 4 20.98 4 22 C3.34 22 2.68 22 2 22 C2 23.65 2 25.3 2 27 C1.34 27.33 0.68 27.66 0 28 C0 25.36 0 22.72 0 20 C-0.66 20 -1.32 20 -2 20 C-2.33 20.66 -2.66 21.32 -3 22 C-3 21.34 -3 20.68 -3 20 C-4.32 20 -5.64 20 -7 20 C-6.61 21.13 -6.22 22.27 -5.81 23.44 C-4.49 28.53 -5.98 32.3 -8 37 C-8.99 37 -9.98 37 -11 37 C-11.33 34.03 -11.66 31.06 -12 28 C-12.66 28 -13.32 28 -14 28 C-14.33 28.66 -14.66 29.32 -15 30 C-15.37 26.65 -15.31 25.4 -13.19 22.69 C-11 21 -11 21 -8 21 C-8 16.38 -8 11.76 -8 7 C-4.71 5.9 -3.29 6.2 0 7 C0 4.69 0 2.38 0 0 Z " fill="#7B797A" transform="translate(74,72)"/>
<path d="M0 0 C0 0.99 0 1.98 0 3 C-0.66 3.33 -0.66 3.33 -4 5 C-2.68 5.33 -1.36 5.66 0 6 C-0.33 6.99 -0.66 7.98 -1 9 C-1.47 8.97 -1.47 8.97 -3.88 8.81 C-4.39 8.84 -4.39 8.84 -7 9 C-7.33 9.5 -7.33 9.5 -9 12 C-9.99 12 -10.98 12 -12 12 C-12 12.66 -12 13.32 -12 14 C-13.32 14 -14.64 14 -16 14 C-16 14.66 -16 15.32 -16 16 C-15.34 16 -14.68 16 -14 16 C-14 16.66 -14 17.32 -14 18 C-12.02 17.67 -10.04 17.34 -8 17 C-8 18.32 -8 19.64 -8 21 C-7.34 21 -6.68 21 -6 21 C-5.67 22.65 -5.34 24.3 -5 26 C-5.99 26.33 -6.98 26.66 -8 27 C-8.69 29.06 -8.69 29.06 -9 31 C-9.99 29.02 -10.98 27.04 -12 25 C-12.99 25 -13.98 25 -15 25 C-15 24.34 -15 23.68 -15 23 C-16.32 22.34 -17.64 21.68 -19 21 C-18.84 19.52 -18.84 19.52 -18 12 C-17.01 11.67 -16.02 11.34 -15 11 C-15 10.34 -15 9.68 -15 9 C-18.3 10.32 -21.6 11.64 -25 13 C-25.33 11.68 -25.66 10.36 -26 9 C-27.32 8.67 -28.64 8.34 -30 8 C-30 7.34 -30 6.68 -30 6 C-27.12 5.88 -27.12 5.88 -24 6 C-23.34 6.66 -22.68 7.32 -22 8 C-22 7.34 -22 6.68 -22 6 C-21.16 5.89 -20.31 5.78 -19.45 5.67 C-18.35 5.51 -17.25 5.35 -16.12 5.19 C-15.58 5.11 -15.58 5.11 -12.82 4.73 C-10 4 -10 4 -8 1 C-8 1.66 -8 2.32 -8 3 C-7.42 2.5 -6.84 2.01 -6.25 1.5 C-4 0 -4 0 0 0 Z " fill="#868889" transform="translate(66,65)"/>
<path d="M0 0 C0 0.66 0 1.32 0 2 C0.66 2 1.32 2 2 2 C2.33 1.34 2.66 0.68 3 0 C3 0.66 3 1.32 3 2 C4.32 2 5.64 2 7 2 C7 2.99 7 3.98 7 5 C6.01 5 5.02 5 4 5 C4 5.99 4 6.98 4 8 C6.97 8 9.94 8 13 8 C13.16 8.83 13.16 8.83 14 13 C12.02 13 10.04 13 8 13 C8 12.34 8 11.68 8 11 C6.68 11 5.36 11 4 11 C4.99 12.32 5.98 13.64 7 15 C3.7 15 0.4 15 -3 15 C-3 16.65 -3 18.3 -3 20 C-4.98 20.33 -6.96 20.66 -9 21 C-9 20.34 -9 19.68 -9 19 C-9.99 19 -10.98 19 -12 19 C-12 19.66 -12 20.32 -12 21 C-11.34 21 -10.68 21 -10 21 C-10 21.66 -10 22.32 -10 23 C-12.96 24.48 -15.74 24.06 -19 24 C-17.35 22.68 -15.7 21.36 -14 20 C-14.66 19.67 -15.32 19.34 -16 19 C-15.67 18.01 -15.34 17.02 -15 16 C-15 16.66 -15 17.32 -15 18 C-12.06 17.62 -12.06 17.62 -9 17 C-8.67 16.34 -8.34 15.68 -8 15 C-9.65 14.67 -11.3 14.34 -13 14 C-10 12 -10 12 -8 12 C-8 11.34 -8 10.68 -8 10 C-3.62 7 -3.62 7 -1 7 C-1 6.34 -1 5.68 -1 5 C-2.65 5 -4.3 5 -6 5 C-4.87 1.62 -3.79 0 0 0 Z " fill="#878560" transform="translate(74,56)"/>
<path d="M0 0 C0.83 0.17 0.83 0.17 5 1 C5.33 2.32 5.66 3.64 6 5 C5.01 4.67 4.02 4.34 3 4 C3 5.98 3 7.96 3 10 C2.34 10 1.68 10 1 10 C1 10.99 1 11.98 1 13 C1.66 13 2.32 13 3 13 C3 12.34 3 11.68 3 11 C4.32 10.67 5.64 10.34 7 10 C7 11.32 7 12.64 7 14 C5.36 15.05 3.7 16.05 2 17 C1.67 17.99 1.34 18.98 1 20 C-2.88 18.12 -2.88 18.12 -4 17 C-4.45 14.35 -4.7 11.68 -5 9 C-5.33 12.3 -5.66 15.6 -6 19 C-6.66 17.68 -7.32 16.36 -8 15 C-10.31 14.27 -12.65 13.6 -15 13 C-15.33 12.34 -15.66 11.68 -16 11 C-16 16.28 -16 21.56 -16 27 C-20.2 22.8 -19.06 14.58 -19.06 8.94 C-19.05 6.96 -19.03 4.98 -19 3 C-17.09 3.31 -17.09 3.31 -15 4 C-14 6 -13 8 -12 10 C-9.81 10.88 -9.81 10.88 -8 11 C-8 9.02 -8 7.04 -8 5 C-3.25 3.88 -3.25 3.88 -1 5 C-0.67 3.35 -0.34 1.7 0 0 Z " fill="#6D7988" transform="translate(69,107)"/>
<path d="M0 0 C-1.32 0.99 -2.64 1.98 -4 3 C-1.69 3 0.62 3 3 3 C3 2.34 3 1.68 3 1 C2.34 1 1.68 1 1 1 C1 0.34 1 -0.32 1 -1 C1.99 -1 2.98 -1 4 -1 C4 -0.34 4 0.32 4 1 C4.66 1 5.32 1 6 1 C6.03 3.29 6.05 5.58 6.06 7.88 C6.07 9.15 6.09 10.43 6.1 11.74 C6 15 6 15 5 17 C4.01 17 3.02 17 2 17 C1.73 17.64 1.46 18.28 1.19 18.94 C0 21 0 21 -3 22 C-4.19 24.06 -4.19 24.06 -5 26 C-5.66 26 -6.32 26 -7 26 C-7.93 22.99 -8.04 22.13 -7 19 C-8.32 18.34 -9.64 17.68 -11 17 C-11 16.34 -11 15.68 -11 15 C-11.66 15 -12.32 15 -13 15 C-13.33 15.99 -13.66 16.98 -14 18 C-14.39 16.4 -14.76 14.79 -15.12 13.19 C-15.33 12.29 -15.54 11.4 -15.76 10.48 C-16 8 -16 8 -14 5 C-13.71 5.97 -13.42 6.94 -13.12 7.94 C-12 11 -12 11 -10 12 C-10 12.66 -10 13.32 -10 14 C-9.01 13.67 -8.02 13.34 -7 13 C-6.01 14.98 -5.02 16.96 -4 19 C-3.67 18.01 -3.34 17.02 -3 16 C-2.34 15.67 -1.68 15.34 -1 15 C-1 13.35 -1 11.7 -1 10 C-1.66 10 -2.32 10 -3 10 C-3 8.68 -3 7.36 -3 6 C-4.98 6.33 -6.96 6.66 -9 7 C-9 6.34 -9 5.68 -9 5 C-9.66 5 -10.32 5 -11 5 C-11 4.34 -11 3.68 -11 3 C-9.68 3 -8.36 3 -7 3 C-7 2.34 -7 1.68 -7 1 C-3.38 -1.12 -3.38 -1.12 0 0 Z " fill="#6F6E6F" transform="translate(61,76)"/>
<path d="M0 0 C1.94 0.81 1.94 0.81 4 2 C4.33 2.99 4.66 3.98 5 5 C4.34 5 3.68 5 3 5 C3 5.99 3 6.98 3 8 C3.8 8.23 4.61 8.45 5.44 8.69 C8 10 8 10 8.88 12.38 C8.99 14.87 8.78 16.65 8 19 C8.33 19 8.66 19 9 19 C9.33 17.35 9.66 15.7 10 14 C10.66 14 11.32 14 12 14 C13.7 19.89 14.29 25.33 14.46 31.46 C15 34 15 34 17.04 35.35 C17.69 35.57 18.33 35.78 19 36 C18.17 36.16 18.17 36.16 14 37 C11.75 34.31 10.12 32.35 9 29 C7.68 28.32 6.34 27.65 5 27 C0.85 20.78 0.81 15.16 1.03 7.87 C1 5.1 0.63 2.68 0 0 Z " fill="#B6BDC9" transform="translate(37,101)"/>
<path d="M0 0 C1.94 0.31 1.94 0.31 4 1 C4.33 1.99 4.66 2.98 5 4 C4.01 4.33 3.02 4.66 2 5 C1.67 5.99 1.34 6.98 1 8 C1.82 8.33 1.82 8.33 6 10 C6 9.34 6 8.68 6 8 C7.98 7.67 9.96 7.34 12 7 C11.67 9.31 11.34 11.62 11 14 C10.62 14.13 10.62 14.13 8.69 14.81 C6 16 6 16 4.68 17.62 C3 19 3 19 0.41 18.93 C-0.55 18.72 -1.51 18.52 -2.5 18.31 C-2.98 18.22 -2.98 18.22 -5.41 17.74 C-8 17 -8 17 -11 15 C-11 14.34 -11 13.68 -11 13 C-9.35 12.34 -7.7 11.68 -6 11 C-6.33 9.02 -6.66 7.04 -7 5 C-5.02 4.67 -3.04 4.34 -1 4 C-0.67 2.68 -0.34 1.36 0 0 Z " fill="#616553" transform="translate(134,42)"/>
<path d="M0 0 C0.99 0.33 1.98 0.66 3 1 C2.34 2.32 1.68 3.64 1 5 C1.99 5.16 1.99 5.16 7 6 C7 5.34 7 4.68 7 4 C8.65 3.67 10.3 3.34 12 3 C12.66 4.32 13.32 5.64 14 7 C13.4 7.14 12.8 7.29 12.19 7.44 C10.44 7.89 8.71 8.43 7 9 C6.31 11.06 6.31 11.06 6 13 C5.24 12.79 4.47 12.59 3.69 12.38 C1 12 1 12 -2 14 C-2.69 17.62 -2.69 17.62 -3 21 C-2.34 21 -1.68 21 -1 21 C-1 20.01 -1 19.02 -1 18 C-0.34 18.33 0.32 18.66 1 19 C0.98 20.05 0.96 21.1 0.94 22.19 C0.99 25.33 1.27 27.97 2 31 C-0.62 30.64 -1.82 30.17 -3.75 28.31 C-5.33 25.4 -5.22 23.27 -5 20 C-5.66 20 -6.32 20 -7 20 C-7.33 18.02 -7.66 16.04 -8 14 C-6.68 14.99 -5.36 15.98 -4 17 C-7 9.43 -7 9.43 -10 7 C-8.84 6.84 -8.84 6.84 -3 6 C-3 5.34 -3 4.68 -3 4 C-2.01 4 -1.02 4 0 4 C0 2.68 0 1.36 0 0 Z " fill="#6D6B5A" transform="translate(35,56)"/>
<path d="M0 0 C9.41 -0.18 9.41 -0.18 14 1 C13.93 1.26 13.93 1.26 13.56 2.56 C12.84 5.69 12.43 8.83 12 12 C11.01 12 10.02 12 9 12 C9.33 10.35 9.66 8.7 10 7 C9.01 7 8.02 7 7 7 C7 7.66 7 8.32 7 9 C6.34 9 5.68 9 5 9 C5 10.65 5 12.3 5 14 C4.28 13.65 3.56 13.3 2.81 12.94 C-0.31 11.9 -1.88 12.11 -5 13 C-5 14.98 -5 16.96 -5 19 C-3.02 19.33 -1.04 19.66 1 20 C1 20.66 1 21.32 1 22 C0.01 22 -0.98 22 -2 22 C-2 22.66 -2 23.32 -2 24 C-2.99 24 -3.98 24 -5 24 C-5.33 24.66 -5.66 25.32 -6 26 C-6 25.01 -6 24.02 -6 23 C-5.01 23 -4.02 23 -3 23 C-3 22.01 -3 21.02 -3 20 C-3.99 20 -4.98 20 -6 20 C-7.17 13.79 -7.51 9.44 -4 4 C-0.81 3.06 -0.81 3.06 2 3 C2 2.34 2 1.68 2 1 C1.34 0.67 0.68 0.34 0 0 Z " fill="#8B8474" transform="translate(106,94)"/>
<path d="M0 0 C0.66 0 1.32 0 2 0 C1.67 1.65 1.34 3.3 1 5 C0.34 5 -0.32 5 -1 5 C-1 4.34 -1 3.68 -1 3 C-5.88 5.75 -5.88 5.75 -7 8 C-5.35 8 -3.7 8 -2 8 C-2 10 -2 10 -3.56 11.62 C-6.8 13.45 -9.32 13.07 -13 13 C-15.44 14 -15.44 14 -17 15 C-17 14.34 -17 13.68 -17 13 C-17.99 12.84 -17.99 12.84 -23 12 C-22.67 11.01 -22.34 10.02 -22 9 C-22.33 8.01 -22.66 7.02 -23 6 C-21.02 6 -19.04 6 -17 6 C-18.26 3.49 -19.5 3.13 -22 2 C-15.74 1.17 -9.72 0.93 -3.41 1.06 C-1 1 -1 1 0 0 Z " fill="#D6BA8B" transform="translate(75,53)"/>
<path d="M0 0 C2.1 2.36 2.97 3.55 3.19 6.75 C3.13 7.49 3.06 8.23 3 9 C4.32 9.66 5.64 10.32 7 11 C6.34 12.65 5.68 14.3 5 16 C6.98 16.66 8.96 17.32 11 18 C11 21 11 21 10 23 C9.01 23 8.02 23 7 23 C6.67 23.66 6.34 24.32 6 25 C6 24.01 6 23.02 6 22 C6.99 22 7.98 22 9 22 C9 21.34 9 20.68 9 20 C6.69 20 4.38 20 2 20 C2 20.66 2 21.32 2 22 C1.34 22 0.68 22 0 22 C0 18.37 0 14.74 0 11 C-0.66 11 -1.32 11 -2 11 C-1.96 11.78 -1.92 12.57 -1.88 13.38 C-2 16 -2 16 -4 18 C-4 18.66 -4 19.32 -4 20 C-4.66 20.33 -5.32 20.66 -6 21 C-6 22.32 -6 23.64 -6 25 C-6.99 25.33 -7.98 25.66 -9 26 C-9.06 25.7 -9.06 25.7 -9.38 24.19 C-10 22 -10 22 -12 19 C-9.78 16.78 -7.92 16.07 -5 15 C-5.66 14.34 -6.32 13.68 -7 13 C-7 12.01 -7 11.02 -7 10 C-6.69 9.91 -6.69 9.91 -5.12 9.44 C-1.95 7.29 -1.85 4.61 -1 1 C-0.67 0.67 -0.34 0.34 0 0 Z " fill="#9F997B" transform="translate(100,10)"/>
<path d="M0 0 C2 2 2 2 2 5 C3.98 5 5.96 5 8 5 C8 4.34 8 3.68 8 3 C8.99 3 9.98 3 11 3 C11 3.66 11 4.32 11 5 C8.44 7.3 7.52 8 4 8 C3.67 8.99 3.34 9.98 3 11 C4.98 11 6.96 11 9 11 C9 10.34 9 9.68 9 9 C9.99 9 10.98 9 12 9 C12 9.99 12 10.98 12 12 C11.01 12 10.02 12 9 12 C9 12.66 9 13.32 9 14 C7.35 14.66 5.7 15.32 4 16 C4.21 16.6 4.41 17.2 4.62 17.81 C5 20 5 20 3 23 C2.01 22.67 1.02 22.34 0 22 C-1.35 19.29 -1.07 16.99 -1 14 C-0.34 14 0.32 14 1 14 C1 13.34 1 12.68 1 12 C-1.92 13.07 -3.78 13.78 -6 16 C-6 14.35 -6 12.7 -6 11 C-6.99 10.84 -6.99 10.84 -12 10 C-12.33 10.99 -12.66 11.98 -13 13 C-12.94 10.75 -12.94 10.75 -12 8 C-7.93 5.11 -5.11 3.38 0 4 C0 2.68 0 1.36 0 0 Z " fill="#A7A395" transform="translate(23,48)"/>
<path d="M0 0 C0.66 0.33 1.32 0.66 2 1 C2.29 2.99 2.58 4.99 2.78 6.99 C3.01 9.06 3.42 11 4 13 C4.66 13 5.32 13 6 13 C5.67 15.64 5.34 18.28 5 21 C4.34 21 3.68 21 3 21 C3 19.68 3 18.36 3 17 C2.01 17.33 1.02 17.66 0 18 C0 17.01 0 16.02 0 15 C-1.32 15 -2.64 15 -4 15 C-4 14.34 -4 13.68 -4 13 C-4.66 13 -5.32 13 -6 13 C-6 15.64 -6 18.28 -6 21 C-7.65 20.67 -9.3 20.34 -11 20 C-11 13.73 -11 7.46 -11 1 C-10.34 2.32 -9.68 3.64 -9 5 C-5.44 5.69 -5.44 5.69 -2 6 C-1.67 6.33 -1.34 6.66 -1 7 C-0.67 4.69 -0.34 2.38 0 0 Z " fill="#8D9DB1" transform="translate(63,115)"/>
<path d="M0 0 C2.12 0.38 2.12 0.38 4 1 C3.52 9.01 1.65 15.67 -1.19 23.12 C-2 26 -2 26 -1.94 29.5 C-2.01 33.45 -3.03 35.63 -5 39 C-5.66 38.67 -6.32 38.34 -7 38 C-7.48 36.04 -7.48 36.04 -7.75 33.62 C-7.8 33.23 -7.8 33.23 -8.05 31.23 C-8 29 -8 29 -6 26 C-6.33 25.34 -6.66 24.68 -7 24 C-6.34 24 -5.68 24 -5 24 C-5.02 23.23 -5.05 22.46 -5.07 21.66 C-5.09 20.66 -5.11 19.66 -5.12 18.62 C-5.15 17.63 -5.17 16.63 -5.2 15.6 C-5 13 -5 13 -3 11 C-2.66 8.91 -2.66 8.91 -2.5 6.5 C-2.22 2.22 -2.22 2.22 0 0 Z " fill="#D9D1CC" transform="translate(146,107)"/>
<path d="M0 0 C0.99 0 1.98 0 3 0 C2.98 0.8 2.96 1.61 2.94 2.44 C3 5 3 5 4 6 C3.91 7.53 3.75 9.05 3.56 10.56 C3.46 11.39 3.36 12.22 3.25 13.07 C3.17 13.7 3.09 14.34 3 15 C1.68 14.67 0.36 14.34 -1 14 C0.88 10.12 0.88 10.12 2 9 C0.35 9.33 -1.3 9.66 -3 10 C-3.33 11.65 -3.66 13.3 -4 15 C-1.69 15.66 0.62 16.32 3 17 C3 18.32 3 19.64 3 21 C0 23 0 23 -3 23 C-3 22.34 -3 21.68 -3 21 C-3.66 21 -4.32 21 -5 21 C-5.33 19.35 -5.66 17.7 -6 16 C-6.99 15.67 -7.98 15.34 -9 15 C-8.01 15 -7.02 15 -6 15 C-6 14.34 -6 13.68 -6 13 C-6.99 12.84 -6.99 12.84 -12 12 C-12 10.02 -12 8.04 -12 6 C-9.69 5.34 -7.38 4.68 -5 4 C-4.34 4.66 -3.68 5.32 -3 6 C-2.67 4.68 -2.34 3.36 -2 2 C-1.34 2 -0.68 2 0 2 C0 1.34 0 0.68 0 0 Z " fill="#A4A09E" transform="translate(113,101)"/>
<path d="M0 0 C0.66 0 1.32 0 2 0 C2 0.66 2 1.32 2 2 C3.32 2 4.64 2 6 2 C6.33 2.66 6.66 3.32 7 4 C7.66 4 8.32 4 9 4 C9 5.32 9 6.64 9 8 C9.66 8 10.32 8 11 8 C11.33 10.31 11.66 12.62 12 15 C12.32 15.07 12.32 15.07 13.94 15.44 C16 16 16 16 17 17 C17.46 19.66 17.41 21.35 15.95 23.66 C14.62 25.31 14.62 25.31 12 28 C11.34 28 10.68 28 10 28 C9.67 28.99 9.34 29.98 9 31 C6.6 21.93 5.41 13.36 5 4 C4.36 3.9 3.72 3.79 3.06 3.69 C2.38 3.46 1.7 3.23 1 3 C0.67 2.01 0.34 1.02 0 0 Z " fill="#C0C8D5" transform="translate(57,128)"/>
<path d="M0 0 C0.66 0 1.32 0 2 0 C2 1.32 2 2.64 2 4 C2.66 4.66 3.32 5.32 4 6 C0.25 8 0.25 8 -2 8 C-2.33 8.66 -2.66 9.32 -3 10 C-2.01 10.33 -1.02 10.66 0 11 C-0.33 11.66 -0.66 12.32 -1 13 C-2.65 13 -4.3 13 -6 13 C-6 13.66 -6 14.32 -6 15 C-6.66 15 -7.32 15 -8 15 C-8.33 13.68 -8.66 12.36 -9 11 C-9.74 11.39 -10.48 11.78 -11.25 12.19 C-14 13 -14 13 -16.25 12 C-18.51 9.42 -18.7 7.37 -19 4 C-18.34 4 -17.68 4 -17 4 C-17 3.34 -17 2.68 -17 2 C-15.35 1.67 -13.7 1.34 -12 1 C-11.77 1.8 -11.55 2.61 -11.31 3.44 C-10.88 4.28 -10.45 5.13 -10 6 C-7.38 6.81 -7.38 6.81 -5 7 C-4.67 6.01 -4.34 5.02 -4 4 C-3.01 4 -2.02 4 -1 4 C-0.67 2.68 -0.34 1.36 0 0 Z " fill="#DADDE3" transform="translate(106,162)"/>
<path d="M0 0 C0 1.65 0 3.3 0 5 C-0.99 5.33 -1.98 5.66 -3 6 C-2.01 6.99 -1.02 7.98 0 9 C0.33 8.34 0.66 7.68 1 7 C1 7.66 1 8.32 1 9 C1.99 9 2.98 9 4 9 C4 9.99 4 10.98 4 12 C1.69 12.33 -0.62 12.66 -3 13 C-3 12.01 -3 11.02 -3 10 C-4.32 10 -5.64 10 -7 10 C-7 10.66 -7 11.32 -7 12 C-6.01 12.33 -5.02 12.66 -4 13 C-6.76 15.76 -9.21 15.58 -13 16 C-13.66 14.35 -14.32 12.7 -15 11 C-14.34 11 -13.68 11 -13 11 C-12.9 10.24 -12.79 9.47 -12.69 8.69 C-11.96 5.83 -11.23 4.84 -9 3 C-9.66 3 -10.32 3 -11 3 C-11 2.34 -11 1.68 -11 1 C-3.57 -1.43 -3.57 -1.43 0 0 Z " fill="#6D6F5B" transform="translate(55,41)"/>
<path d="M0 0 C0.66 0 1.32 0 2 0 C2 0.99 2 1.98 2 3 C4.31 3 6.62 3 9 3 C9.33 3.66 9.66 4.32 10 5 C8.68 5 7.36 5 6 5 C5.67 5.66 5.34 6.32 5 7 C3.68 6.34 2.36 5.68 1 5 C0.67 5.66 0.34 6.32 0 7 C-0.66 6.67 -1.32 6.34 -2 6 C-2.33 8.64 -2.66 11.28 -3 14 C-6.78 15.84 -8.95 16.16 -13 15 C-13 14.01 -13 13.02 -13 12 C-14.32 11.34 -15.64 10.68 -17 10 C-17 9.01 -17 8.02 -17 7 C-15.19 6.67 -15.19 6.67 -6 5 C-6 3.68 -6 2.36 -6 1 C-5.17 1.33 -5.17 1.33 -1 3 C-0.67 2.01 -0.34 1.02 0 0 Z " fill="#4C5143" transform="translate(98,39)"/>
<path d="M0 0 C0.66 0 1.32 0 2 0 C2.45 1.13 2.91 2.27 3.38 3.44 C5 7 5 7 7 8 C7 9.32 7 10.64 7 12 C6.34 12 5.68 12 5 12 C5.19 12.8 5.37 13.61 5.56 14.44 C5.71 15.28 5.85 16.13 6 17 C5 18 5 18 1.38 18.12 C-2.5 18.08 -6.18 17.64 -10 17 C-9.67 15.68 -9.34 14.36 -9 13 C-7.35 12.67 -5.7 12.34 -4 12 C-3.67 9.69 -3.34 7.38 -3 5 C-2.34 5 -1.68 5 -1 5 C-0.67 3.35 -0.34 1.7 0 0 Z " fill="#918F72" transform="translate(153,46)"/>
<path d="M0 0 C1.46 0.14 2.92 0.29 4.38 0.44 C4.78 0.48 4.78 0.48 6.84 0.68 C9 1 9 1 11 2 C12.87 2.07 14.75 2.08 16.62 2.06 C17.63 2.05 18.63 2.04 19.66 2.04 C20.05 2.03 20.05 2.03 22 2 C22 1.34 22 0.68 22 0 C24.64 0 27.28 0 30 0 C29.67 1.32 29.34 2.64 29 4 C27.68 4 26.36 4 25 4 C25 4.66 25 5.32 25 6 C24.34 6 23.68 6 23 6 C23 6.99 23 7.98 23 9 C23.66 9.33 24.32 9.66 25 10 C23.56 10.22 22.13 10.43 20.69 10.62 C19.89 10.74 19.09 10.86 18.26 10.98 C16 11 16 11 13 9 C13 8.01 13 7.02 13 6 C12.67 6.17 12.67 6.17 11 7 C11 6.01 11 5.02 11 4 C10.01 4 9.02 4 8 4 C8 4.99 8 5.98 8 7 C6.68 7 5.36 7 4 7 C3.67 6.01 3.34 5.02 3 4 C2.01 3.34 1.02 2.68 0 2 C0 1.34 0 0.68 0 0 Z " fill="#E2C796" transform="translate(95,75)"/>
<path d="M0 0 C0.66 0 1.32 0 2 0 C2.84 5.9 3.21 11.67 3.25 17.62 C3.27 18.44 3.29 19.26 3.31 20.11 C3.35 26.65 1.64 30.54 -2 36 C-3.32 35.34 -4.64 34.68 -6 34 C-5.01 31.03 -4.02 28.06 -3 25 C-4.32 25.33 -5.64 25.66 -7 26 C-7 25.01 -7 24.02 -7 23 C-5.68 22.67 -4.36 22.34 -3 22 C-2.94 21.41 -2.88 20.82 -2.82 20.21 C-2.38 16.08 -1.83 12.07 -1 8 C-0.63 5.34 -0.32 2.67 0 0 Z " fill="#DED8D3" transform="translate(116,135)"/>
<path d="M0 0 C3.01 1.5 3.58 4.04 5 7 C5.33 7.33 5.66 7.66 6 8 C6.99 7.67 7.98 7.34 9 7 C9.99 7.66 10.98 8.32 12 9 C10.35 9 8.7 9 7 9 C7.75 10.94 7.75 10.94 9 13 C11.12 13.75 11.12 13.75 13 14 C13 14.66 13 15.32 13 16 C9.49 17.6 6.86 18.22 3 18 C3 17.34 3 16.68 3 16 C2.05 16.04 1.1 16.08 0.12 16.12 C-3 16 -3 16 -5 14 C-4.67 13.01 -4.34 12.02 -4 11 C-3.34 11 -2.68 11 -2 11 C-2.02 10.46 -2.02 10.46 -2.12 7.75 C-2.01 4.34 -1.79 2.79 0 0 Z " fill="#827D5E" transform="translate(79,28)"/>
<path d="M0 0 C1.65 0 3.3 0 5 0 C4.67 1.32 4.34 2.64 4 4 C5.65 2.68 7.3 1.36 9 0 C10.57 6.52 9.52 10.06 6.52 16 C5 18 5 18 2.82 18.79 C2.22 18.86 1.62 18.93 1 19 C0.67 17.35 0.34 15.7 0 14 C-0.99 13.67 -1.98 13.34 -3 13 C-2.01 13 -1.02 13 0 13 C1 10 1 10 1 9 C0.01 9.66 -0.98 10.32 -2 11 C-1.86 9.54 -1.71 8.08 -1.56 6.62 C-1.48 5.81 -1.4 5 -1.32 4.16 C-1 2 -1 2 0 0 Z " fill="#E0D9D5" transform="translate(122,140)"/>
<path d="M0 0 C1.54 5.93 1.54 5.93 0.09 8.8 C-1.19 10.44 -1.19 10.44 -4 13 C-5.32 13 -6.64 13 -8 13 C-8.33 14.32 -8.66 15.64 -9 17 C-9 15.68 -9 14.36 -9 13 C-9.66 13.33 -9.66 13.33 -13 15 C-12.88 13.76 -12.75 12.53 -12.62 11.25 C-12.6 9.04 -12.6 9.04 -13 7 C-16 4.62 -16 4.62 -19 3 C-19 2.34 -19 1.68 -19 1 C-17.02 0.67 -15.04 0.34 -13 0 C-13 0.99 -13 1.98 -13 3 C-11.68 3 -10.36 3 -9 3 C-9 3.66 -9 4.32 -9 5 C-9.66 5 -10.32 5 -11 5 C-11 5.66 -11 6.32 -11 7 C-10.01 6.67 -9.02 6.34 -8 6 C-7.67 6.66 -7.34 7.32 -7 8 C-7.04 7.54 -7.04 7.54 -7.25 5.19 C-7 2 -7 2 -5.19 0.06 C-3 -1 -3 -1 0 0 Z " fill="#BDB39C" transform="translate(174,69)"/>
<path d="M0 0 C0.66 3.63 1.32 7.26 2 11 C1.01 11 0.02 11 -1 11 C-1 10.34 -1 9.68 -1 9 C-1.53 9.15 -1.53 9.15 -4.19 9.94 C-7.13 10.76 -10 11.45 -13 12 C-13 14.31 -13 16.62 -13 19 C-14.32 19.33 -15.64 19.66 -17 20 C-17.04 18 -17.04 16 -17 14 C-16.67 13.67 -16.34 13.34 -16 13 C-15.63 10.67 -15.3 8.34 -15 6 C-13.35 5.67 -11.7 5.34 -10 5 C-9.67 4.01 -9.34 3.02 -9 2 C-5.83 0.69 -3.44 0 0 0 Z " fill="#8C8C8E" transform="translate(150,96)"/>
<path d="M0 0 C1.65 0.33 3.3 0.66 5 1 C4.34 2.65 3.68 4.3 3 6 C3.62 5.81 4.24 5.63 4.88 5.44 C7 5 7 5 9 6 C9 6.66 9 7.32 9 8 C8.34 8 7.68 8 7 8 C7 8.66 7 9.32 7 10 C7.99 10.33 8.98 10.66 10 11 C6 11 6 11 3 10 C1.81 7.44 1.81 7.44 1 5 C0.34 5 -0.32 5 -1 5 C-1.66 8.63 -2.32 12.26 -3 16 C-3.66 14.68 -4.32 13.36 -5 12 C-4.67 11.01 -4.34 10.02 -4 9 C-4.66 9 -5.32 9 -6 9 C-6 12.63 -6 16.26 -6 20 C-9.38 15.5 -9.38 15.5 -10 12 C-11.32 12 -12.64 12 -14 12 C-13.67 10.35 -13.34 8.7 -13 7 C-9.12 7.88 -9.12 7.88 -8 9 C-7.34 6.69 -6.68 4.38 -6 2 C-5.67 2.66 -5.34 3.32 -5 4 C-4.01 4 -3.02 4 -2 4 C-2 3.34 -2 2.68 -2 2 C-1.34 2 -0.68 2 0 2 C0 1.34 0 0.68 0 0 Z " fill="#707B8D" transform="translate(95,124)"/>
<path d="M0 0 C0 0.99 0 1.98 0 3 C-0.66 3.33 -0.66 3.33 -4 5 C-2.68 5.33 -1.36 5.66 0 6 C-0.33 6.99 -0.66 7.98 -1 9 C-1.95 8.96 -2.9 8.92 -3.88 8.88 C-7 9 -7 9 -9 11 C-9.33 10.01 -9.66 9.02 -10 8 C-12.06 7.31 -12.06 7.31 -14 7 C-13.67 8.65 -13.34 10.3 -13 12 C-14.32 11.67 -15.64 11.34 -17 11 C-16.34 11 -15.68 11 -15 11 C-15 10.34 -15 9.68 -15 9 C-18.3 10.32 -21.6 11.64 -25 13 C-25.33 11.68 -25.66 10.36 -26 9 C-27.32 8.67 -28.64 8.34 -30 8 C-30 7.34 -30 6.68 -30 6 C-27.12 5.88 -27.12 5.88 -24 6 C-23.34 6.66 -22.68 7.32 -22 8 C-22 7.34 -22 6.68 -22 6 C-21.16 5.89 -20.31 5.78 -19.45 5.67 C-18.35 5.51 -17.25 5.35 -16.12 5.19 C-15.58 5.11 -15.58 5.11 -12.82 4.73 C-10 4 -10 4 -8 1 C-8 1.66 -8 2.32 -8 3 C-7.42 2.5 -6.84 2.01 -6.25 1.5 C-4 0 -4 0 0 0 Z " fill="#8A876E" transform="translate(66,65)"/>
<path d="M0 0 C0.99 0.33 1.98 0.66 3 1 C3 1.66 3 2.32 3 3 C4.65 2.67 6.3 2.34 8 2 C8.27 2.97 8.54 3.94 8.81 4.94 C9.2 5.95 9.6 6.96 10 8 C10.99 8.33 11.98 8.66 13 9 C12.67 10.98 12.34 12.96 12 15 C12.99 15 13.98 15 15 15 C15 17 15 17 13.62 18.62 C12 20 12 20 10 20 C8.38 18.5 8.38 18.5 7 17 C6.34 17.33 6.34 17.33 3 19 C3 17.02 3 15.04 3 13 C3.99 13 4.98 13 6 13 C6 11.02 6 9.04 6 7 C4.35 7.66 2.7 8.32 1 9 C0 8 0 8 -0.1 6.15 C-0.07 4.1 -0.03 2.05 0 0 Z " fill="#9799A1" transform="translate(76,105)"/>
<path d="M0 0 C0 3 0 3 -0.56 5.06 C-1 7 -1 7 0 9 C-0.66 9 -1.32 9 -2 9 C-2.86 13.39 -3.09 17.53 -3 22 C-3.33 22 -3.66 22 -4 22 C-4.04 21.07 -4.08 20.14 -4.12 19.19 C-5 16 -5 16 -8.06 14.12 C-9.03 13.75 -10 13.38 -11 13 C-11 9.37 -11 5.74 -11 2 C-7.18 0.58 -4.09 -0.24 0 0 Z " fill="#69644E" transform="translate(103,91)"/>
<path d="M0 0 C0.6 0.21 1.2 0.41 1.81 0.62 C1.15 0.62 0.49 0.62 -0.19 0.62 C-0.19 1.28 -0.19 1.94 -0.19 2.62 C2.12 2.62 4.43 2.62 6.81 2.62 C7.14 8.76 7.21 13.25 3.81 18.62 C3.15 18.62 2.49 18.62 1.81 18.62 C0.42 16.66 -0.91 14.66 -2.19 12.62 C-0.21 12.62 1.77 12.62 3.81 12.62 C3.81 11.64 3.81 10.64 3.81 9.62 C3.35 9.74 3.35 9.74 1 10.31 C-2.19 10.62 -2.19 10.62 -4.06 9.56 C-5.68 6.78 -5.59 4.78 -5.19 1.62 C-2.19 -0.38 -2.19 -0.38 0 0 Z " fill="#908D8B" transform="translate(85.1875,90.375)"/>
<path d="M0 0 C1.38 1.29 2.71 2.63 4 4 C4 4.66 4 5.32 4 6 C5.65 6 7.3 6 9 6 C12.09 12.35 13.42 17.47 13.04 24.55 C13 26.92 13.31 28.75 14 31 C13.67 30.34 13.34 29.68 13 29 C12.35 28.75 11.71 28.5 11.04 28.24 C9 27 9 27 7.99 24.36 C7.77 23.31 7.54 22.26 7.31 21.19 C7.08 20.15 6.85 19.11 6.61 18.04 C6.22 16.11 5.84 14.18 5.48 12.24 C5 10 5 10 4 8 C1.94 6.88 1.94 6.88 0 6 C0 4.02 0 2.04 0 0 Z " fill="#B1B1B2" transform="translate(11,61)"/>
<path d="M0 0 C0.66 0 1.32 0 2 0 C3.48 2.96 3.06 5.74 3 9 C3.99 8.67 4.98 8.34 6 8 C7.19 5.44 7.19 5.44 8 3 C8.83 3.33 8.83 3.33 13 5 C13 4.01 13 3.02 13 2 C13.66 2 14.32 2 15 2 C15.13 2.77 15.27 3.54 15.4 4.34 C15.58 5.34 15.76 6.34 15.94 7.38 C16.11 8.37 16.29 9.37 16.46 10.4 C17 13 17 13 18 15 C18.13 17.67 18.04 20.32 18 23 C16.68 23.33 15.36 23.66 14 24 C14.66 22.02 15.32 20.04 16 18 C14.68 18 13.36 18 12 18 C12 18.66 12 19.32 12 20 C11.34 20 10.68 20 10 20 C10 19.01 10 18.02 10 17 C10.66 17 11.32 17 12 17 C11.67 14.69 11.34 12.38 11 10 C12.32 10.66 13.64 11.32 15 12 C14.67 10.68 14.34 9.36 14 8 C12.35 8 10.7 8 9 8 C8.67 9.32 8.34 10.64 8 12 C5.69 12 3.38 12 1 12 C0.67 8.04 0.34 4.08 0 0 Z " fill="#555B60" transform="translate(60,100)"/>
<path d="M0 0 C1.98 0 3.96 0 6 0 C6 1.65 6 3.3 6 5 C6.66 4.34 7.32 3.68 8 3 C7.67 6.63 7.34 10.26 7 14 C7.99 14.33 8.98 14.66 10 15 C9.86 15.7 9.71 16.4 9.56 17.12 C8.99 20.08 8.48 23.03 8 26 C7.34 26 6.68 26 6 26 C5.67 25.01 5.34 24.02 5 23 C4.34 23.99 3.68 24.98 3 26 C2.34 26 1.68 26 1 26 C1.14 23.96 1.29 21.92 1.44 19.88 C1.52 18.74 1.6 17.6 1.68 16.43 C2 13 2 13 2.62 9.74 C3.11 6.19 2 4.88 0 2 C0 1.34 0 0.68 0 0 Z " fill="#C7BFB8" transform="translate(125,118)"/>
<path d="M0 0 C0.56 0.19 1.11 0.37 1.69 0.56 C4.4 1.08 6.32 0.56 9 0 C9.66 0.33 10.32 0.66 11 1 C11 1.99 11 2.98 11 4 C9.87 4.31 8.73 4.62 7.56 4.94 C4 6 4 6 3 7 C4.32 7.66 5.64 8.32 7 9 C7 9.66 7 10.32 7 11 C1.76 12.1 -3.66 12.57 -9 12 C-9.66 11.34 -10.32 10.68 -11 10 C-11 9.01 -11 8.02 -11 7 C-7.7 7 -4.4 7 -1 7 C-1.33 6.01 -1.66 5.02 -2 4 C-1.06 1.81 -1.06 1.81 0 0 Z " fill="#AC9A61" transform="translate(86,78)"/>
<path d="M0 0 C0.33 1.32 0.66 2.64 1 4 C2.65 4 4.3 4 6 4 C6 3.34 6 2.68 6 2 C9.47 2.46 12.67 2.89 16 4 C16 4.99 16 5.98 16 7 C15.01 7 14.02 7 13 7 C13 7.66 13 8.32 13 9 C12.01 8.84 12.01 8.84 7 8 C7 7.34 7 6.68 7 6 C6.01 6 5.02 6 4 6 C4 6.66 4 7.32 4 8 C-0.63 9.04 -5.29 9.52 -10 10 C-10.33 8.68 -10.66 7.36 -11 6 C-7.59 5.22 -4.49 4.9 -1 5 C-1.33 3.68 -1.66 2.36 -2 1 C-1.34 0.67 -0.68 0.34 0 0 Z " fill="#B8A97E" transform="translate(103,61)"/>
<path d="M0 0 C0.66 0.33 1.32 0.66 2 1 C2.67 3 3.33 5 4 7 C5.62 9.38 5.62 9.38 7 11 C8.98 10.67 10.96 10.34 13 10 C12.67 10.99 12.34 11.98 12 13 C10.68 13 9.36 13 8 13 C7.67 13.99 7.34 14.98 7 16 C6.67 14.68 6.34 13.36 6 12 C2.33 11.15 -1.04 10.89 -4.81 10.94 C-5.79 10.95 -6.76 10.96 -7.77 10.96 C-8.51 10.98 -9.24 10.99 -10 11 C-10 8 -10 8 -8 6 C-8 4.68 -8 3.36 -8 2 C-9.32 1.67 -10.64 1.34 -12 1 C-9.69 1.33 -7.38 1.66 -5 2 C-4 5 -4 5 -5 8 C-4.34 8.33 -3.68 8.66 -3 9 C-3 7.68 -3 6.36 -3 5 C-2.34 5 -1.68 5 -1 5 C-0.67 3.35 -0.34 1.7 0 0 Z " fill="#BEBAA3" transform="translate(119,34)"/>
<path d="M0 0 C0.44 0.05 0.44 0.05 2.65 0.27 C5.06 0.62 5.06 0.62 8.06 1.62 C8.39 3.28 8.72 4.92 9.06 6.62 C8.76 6.61 8.76 6.61 7.23 6.52 C2.25 6.35 0.02 6.48 -3.94 9.62 C-7.19 9.31 -7.19 9.31 -9.94 8.62 C-10.27 7.31 -10.6 5.98 -10.94 4.62 C-10.28 4.62 -9.62 4.62 -8.94 4.62 C-8.65 3.99 -8.36 3.35 -8.06 2.69 C-6.04 -1.03 -3.84 -0.42 0 0 Z " fill="#898258" transform="translate(135.9375,75.375)"/>
<path d="M0 0 C0 0.66 0 1.32 0 2 C0.66 2 1.32 2 2 2 C2.33 1.34 2.66 0.68 3 0 C3 0.66 3 1.32 3 2 C4.32 2 5.64 2 7 2 C7 2.99 7 3.98 7 5 C6.01 5 5.02 5 4 5 C4 5.99 4 6.98 4 8 C6.97 8 9.94 8 13 8 C13.33 9.65 13.66 11.3 14 13 C12.02 13 10.04 13 8 13 C8 11.68 8 10.36 8 9 C7.32 9.16 6.64 9.33 5.94 9.5 C2.58 10.07 -0.6 10.07 -4 10 C-3.67 9.01 -3.34 8.02 -3 7 C-2.34 7 -1.68 7 -1 7 C-1 6.34 -1 5.68 -1 5 C-2.65 5 -4.3 5 -6 5 C-4.87 1.62 -3.79 0 0 0 Z " fill="#76765F" transform="translate(74,56)"/>
<path d="M0 0 C0.99 0 1.98 0 3 0 C3.29 0.64 3.58 1.28 3.88 1.94 C5 4 5 4 7 5 C7 4.01 7 3.02 7 2 C8.32 2 9.64 2 11 2 C11.04 2.29 11.04 2.29 11.25 3.75 C12.2 6.61 13.86 7.93 16 10 C16 10.66 16 11.32 16 12 C13.69 11.84 13.69 11.84 2 11 C1.67 9.02 1.34 7.04 1 5 C0.01 4.67 -0.98 4.34 -2 4 C-1.34 2.68 -0.68 1.36 0 0 Z " fill="#565845" transform="translate(99,50)"/>
<path d="M0 0 C0.99 0.33 1.98 0.66 3 1 C2.67 2.32 2.34 3.64 2 5 C-2.05 5.98 -5.84 6.08 -10 6 C-10 6.66 -10 7.32 -10 8 C-12.67 7.33 -15.33 6.67 -18 6 C-18 6.66 -18 7.32 -18 8 C-17.01 8.33 -16.02 8.66 -15 9 C-15.33 9.66 -15.66 10.32 -16 11 C-17.32 10.34 -18.64 9.68 -20 9 C-20 9.99 -20 10.98 -20 12 C-20.66 12 -21.32 12 -22 12 C-22 9.69 -22 7.38 -22 5 C-21.36 4.71 -20.72 4.42 -20.06 4.12 C-18 3 -18 3 -17 1 C-17 1.66 -17 2.32 -17 3 C-15.68 3.33 -14.36 3.66 -13 4 C-13 3.34 -13 2.68 -13 2 C-12.4 2.11 -11.79 2.21 -11.17 2.32 C-4.51 3.32 -4.51 3.32 -1.62 1.5 C-1.09 1 -0.55 0.51 0 0 Z " fill="#5E5E48" transform="translate(54,65)"/>
<path d="M0 0 C0.66 0 1.32 0 2 0 C2 1.32 2 2.64 2 4 C2.99 4 3.98 4 5 4 C5 3.01 5 2.02 5 1 C5.99 1.33 6.98 1.66 8 2 C8.17 3.6 8.33 5.21 8.5 6.81 C8.59 7.71 8.69 8.6 8.78 9.52 C9 12 9 12 9 15 C8.01 14.67 7.02 14.34 6 14 C4.81 10.44 4.81 10.44 4 7 C3.67 7 3.34 7 3 7 C3 11.29 3 15.58 3 20 C2.01 20 1.02 20 0 20 C-1.59 15.13 -2.21 11.19 -2 6 C-1.34 6 -0.68 6 0 6 C0 4.02 0 2.04 0 0 Z " fill="#B7BFCB" transform="translate(27,86)"/>
<path d="M0 0 C1.98 0 3.96 0 6 0 C6.6 2.76 7 5.16 7 8 C6.01 8 5.02 8 4 8 C4 8.66 4 9.32 4 10 C5.32 10 6.64 10 8 10 C7.69 11.94 7.69 11.94 7 14 C6.01 14.33 5.02 14.66 4 15 C4 13.68 4 12.36 4 11 C3.34 11 2.68 11 2 11 C2 10.01 2 9.02 2 8 C1.3 7.9 0.6 7.8 -0.12 7.7 C-1.03 7.55 -1.94 7.4 -2.88 7.25 C-3.78 7.11 -4.68 6.97 -5.62 6.83 C-8 6 -8 6 -9.32 3.92 C-9.54 3.29 -9.77 2.65 -10 2 C-9.34 2 -8.68 2 -8 2 C-8 2.66 -8 3.32 -8 4 C-6.84 3.84 -6.84 3.84 -1 3 C-0.67 2.01 -0.34 1.02 0 0 Z " fill="#CBB975" transform="translate(127,59)"/>
<path d="M0 0 C1.32 0.33 2.64 0.66 4 1 C4 1.99 4 2.98 4 4 C5.32 4 6.64 4 8 4 C7.67 7.63 7.34 11.26 7 15 C5.35 15.33 3.7 15.66 2 16 C2 17.65 2 19.3 2 21 C0.68 20.67 -0.64 20.34 -2 20 C-2 17.03 -2 14.06 -2 11 C-0.68 11.33 0.64 11.66 2 12 C2.33 9.36 2.66 6.72 3 4 C1.68 3.67 0.36 3.34 -1 3 C-0.67 2.01 -0.34 1.02 0 0 Z " fill="#7B7671" transform="translate(123,87)"/>
<path d="M0 0 C2.5 1.06 2.5 1.06 5 3 C5.31 6.69 5.31 6.69 5 10 C5.66 10 6.32 10 7 10 C7.66 8.35 8.32 6.7 9 5 C9.33 5 9.66 5 10 5 C12.27 10.39 12.2 15.26 12 21 C11.01 21 10.02 21 9 21 C8.88 20.03 8.75 19.06 8.62 18.06 C8.42 17.05 8.21 16.04 8 15 C7.34 14.67 6.68 14.34 6 14 C5.67 14.99 5.34 15.98 5 17 C4.67 15.02 4.34 13.04 4 11 C3.34 11 2.68 11 2 11 C0.81 7.12 0 4.08 0 0 Z " fill="#8F909A" transform="translate(49,92)"/>
<path d="M0 0 C0 0.99 0 1.98 0 3 C1.05 2.79 2.1 2.59 3.19 2.38 C7.01 2 8.74 2.08 12 4 C12.33 4.99 12.66 5.98 13 7 C10.69 7.33 8.38 7.66 6 8 C6 8.66 6 9.32 6 10 C3.69 10.33 1.38 10.66 -1 11 C-0.49 8.83 -0 7 1 5 C-2.3 5.33 -5.6 5.66 -9 6 C-5.62 0 -5.62 0 0 0 Z " fill="#BFAA6A" transform="translate(102,87)"/>
<path d="M0 0 C2.33 3.49 2.5 4.89 2 9 C0.12 11.38 0.12 11.38 -2 13 C-2.66 13 -3.32 13 -4 13 C-4 13.66 -4 14.32 -4 15 C-4.99 15 -5.98 15 -7 15 C-7 14.34 -7 13.68 -7 13 C-7.66 13 -8.32 13 -9 13 C-9 11.35 -9 9.7 -9 8 C-8.34 8 -7.68 8 -7 8 C-6.67 6.35 -6.34 4.7 -6 3 C-5.2 2.88 -4.39 2.75 -3.56 2.62 C-2.72 2.42 -1.87 2.21 -1 2 C-0.67 1.34 -0.34 0.68 0 0 Z " fill="#AEB5C3" transform="translate(113,145)"/>
<path d="M0 0 C0.66 0 1.32 0 2 0 C3.7 5.89 4.29 11.33 4.46 17.46 C5 20 5 20 7.04 21.35 C7.69 21.57 8.33 21.78 9 22 C7.35 22.33 5.7 22.66 4 23 C1.75 20.31 0.12 18.35 -1 15 C-1.99 14.67 -2.98 14.34 -4 14 C-4 13.34 -4 12.68 -4 12 C-3.34 11.67 -2.68 11.34 -2 11 C-1.37 8.5 -1.37 8.5 -0.88 5.44 C-0.71 4.43 -0.54 3.41 -0.37 2.37 C-0.25 1.59 -0.12 0.81 0 0 Z " fill="#AAB3C0" transform="translate(47,115)"/>
<path d="M0 0 C0.33 0.66 0.66 1.32 1 2 C1.66 2 2.32 2 3 2 C2.67 2.99 2.34 3.98 2 5 C1.34 5 0.68 5 0 5 C-0.33 5.99 -0.66 6.98 -1 8 C-3.63 7.89 -6.25 7.76 -8.88 7.62 C-9.62 7.59 -10.37 7.56 -11.14 7.53 C-16.77 7.23 -16.77 7.23 -19 5 C-14.86 1.99 -12.05 1.81 -7 2 C-6.01 1.67 -5.02 1.34 -4 1 C-2.67 0.66 -1.34 0.32 0 0 Z " fill="#C9B680" transform="translate(43,42)"/>
<path d="M0 0 C0.33 0.66 0.66 1.32 1 2 C1.99 1.67 2.98 1.34 4 1 C3.48 3.76 2.89 6.33 2 9 C1.78 10.56 1.6 12.12 1.44 13.69 C1.35 14.5 1.27 15.3 1.18 16.14 C1.12 16.75 1.06 17.37 1 18 C-0.32 18 -1.64 18 -3 18 C-3.66 18.33 -4.32 18.66 -5 19 C-5 18.34 -5 17.68 -5 17 C-5.66 17 -6.32 17 -7 17 C-6.58 15.52 -6.14 14.04 -5.69 12.56 C-5.44 11.74 -5.2 10.92 -4.95 10.07 C-4.64 9.38 -4.32 8.7 -4 8 C-3.01 7.67 -2.02 7.34 -1 7 C-0.67 4.69 -0.34 2.38 0 0 Z " fill="#ABB0B8" transform="translate(140,113)"/>
<path d="M0 0 C1.65 0 3.3 0 5 0 C5 1.32 5 2.64 5 4 C6.32 4 7.64 4 9 4 C9 5.98 9 7.96 9 10 C8.28 9.65 7.56 9.3 6.81 8.94 C3.69 7.9 2.12 8.11 -1 9 C-1 10.98 -1 12.96 -1 15 C-0.01 15.16 -0.01 15.16 5 16 C5 16.66 5 17.32 5 18 C4.01 18 3.02 18 2 18 C2 18.66 2 19.32 2 20 C1.01 20 0.02 20 -1 20 C-1.33 20.66 -1.66 21.32 -2 22 C-2 21.01 -2 20.02 -2 19 C-1.01 19 -0.02 19 1 19 C1 18.01 1 17.02 1 16 C0.01 16 -0.98 16 -2 16 C-3.2 9.63 -3.06 5.76 0 0 Z " fill="#7F7E82" transform="translate(102,98)"/>
<path d="M0 0 C2.31 0.33 4.62 0.66 7 1 C7 1.66 7 2.32 7 3 C8.65 3 10.3 3 12 3 C12.33 2.34 12.66 1.68 13 1 C13.12 6.75 13.12 6.75 12 9 C10.68 8.67 9.36 8.34 8 8 C7.67 13.94 7.34 19.88 7 26 C6.67 26 6.34 26 6 26 C6 24.35 6 22.7 6 21 C5.34 21 4.68 21 4 21 C4.14 18.69 4.29 16.37 4.44 14.06 C4.52 12.77 4.6 11.49 4.68 10.16 C5 7 5 7 6 6 C5.69 5.97 5.69 5.97 4.12 5.81 C2 5 2 5 0.75 2.44 C0.5 1.63 0.25 0.83 0 0 Z " fill="#D2BC9D" transform="translate(113,90)"/>
<path d="M0 0 C3.3 0.66 6.6 1.32 10 2 C10 2.99 10 3.98 10 5 C10.66 5 11.32 5 12 5 C11.67 5.99 11.34 6.98 11 8 C9.04 8.19 7.08 8.38 5.12 8.56 C4.03 8.67 2.94 8.77 1.82 8.88 C-1 9 -1 9 -3 8 C-3 6.35 -3 4.7 -3 3 C-2.01 3 -1.02 3 0 3 C0 2.01 0 1.02 0 0 Z " fill="#87815C" transform="translate(119,65)"/>
<path d="M0 0 C-0.99 0 -1.98 0 -3 0 C-3 0.66 -3 1.32 -3 2 C-1.68 2.66 -0.36 3.32 1 4 C1 5.32 1 6.64 1 8 C-1.64 8 -4.28 8 -7 8 C-7 7.34 -7 6.68 -7 6 C-7.66 6 -8.32 6 -9 6 C-8.34 7.32 -7.68 8.64 -7 10 C-10.3 9.34 -13.6 8.68 -17 8 C-17 8.66 -17 9.32 -17 10 C-18.65 10 -20.3 10 -22 10 C-22 8.68 -22 7.36 -22 6 C-18.37 6.33 -14.74 6.66 -11 7 C-11.33 6.01 -11.66 5.02 -12 4 C-9.69 4.33 -7.38 4.66 -5 5 C-5 4.01 -5 3.02 -5 2 C-5.99 2 -6.98 2 -8 2 C-8 1.34 -8 0.68 -8 0 C-4.95 -0.98 -3.05 -0.98 0 0 Z " fill="#897A58" transform="translate(126,55)"/>
<path d="M0 0 C1.88 3.27 2.49 6.28 3 10 C3.66 10 4.32 10 5 10 C4.99 10.29 4.99 10.29 4.93 11.76 C4.82 16.67 5.3 20.33 7 25 C7.12 27.88 7.12 27.88 7 30 C5.06 29.25 5.06 29.25 3 28 C2.64 26.67 2.3 25.34 2 24 C1.01 23.67 0.02 23.34 -1 23 C-0.34 23 0.32 23 1 23 C0.34 19.7 -0.32 16.4 -1 13 C-0.01 12.67 0.98 12.34 2 12 C1.67 11.32 1.34 10.64 1 9.94 C-0.17 6.49 -0.14 3.62 0 0 Z " fill="#8D96A1" transform="translate(35,75)"/>
<path d="M0 0 C0.66 0.33 1.32 0.66 2 1 C2 1.66 2 2.32 2 3 C2.34 2.83 2.34 2.83 4.06 2 C7.52 0.82 10.37 0.93 14 1 C16.44 0.5 16.44 0.5 18 0 C18 0.66 18 1.32 18 2 C18.66 2 19.32 2 20 2 C20.33 4.31 20.66 6.62 21 9 C14.95 9.2 14.95 9.2 13 9 C12.34 8.34 11.68 7.68 11 7 C11.66 6.67 12.32 6.34 13 6 C12.67 5.01 12.34 4.02 12 3 C11.13 3.33 10.27 3.66 9.38 4 C6.04 4.99 3.45 5.16 0 5 C-0.56 3.06 -0.56 3.06 -1 1 C-0.67 0.67 -0.34 0.34 0 0 Z " fill="#84795B" transform="translate(91,68)"/>
<path d="M0 0 C0.99 0.33 1.98 0.66 3 1 C3 1.66 3 2.32 3 3 C3.66 3 4.32 3 5 3 C5 3.66 5 4.32 5 5 C5.99 5 6.98 5 8 5 C8 4.01 8 3.02 8 2 C8.66 2 9.32 2 10 2 C10 2.66 10 3.32 10 4 C10.6 3.65 11.2 3.3 11.81 2.94 C14 2 14 2 17 3 C17 4.67 17 6.33 17 8 C13.23 8.06 9.46 8.09 5.69 8.12 C4.62 8.14 3.54 8.16 2.44 8.18 C1.41 8.18 0.38 8.19 -0.68 8.2 C-1.62 8.21 -2.57 8.22 -3.55 8.23 C-6 8 -6 8 -9 6 C-9 5.34 -9 4.68 -9 4 C-7.68 4 -6.36 4 -5 4 C-5 4.99 -5 5.98 -5 7 C-3.84 6.84 -3.84 6.84 2 6 C2 5.01 2 4.02 2 3 C1.01 3 0.02 3 -1 3 C-0.67 2.01 -0.34 1.02 0 0 Z " fill="#A4935E" transform="translate(57,47)"/>
<path d="M0 0 C0.33 0.66 0.66 1.32 1 2 C2.32 2 3.64 2 5 2 C6.62 4.38 6.62 4.38 8 7 C8.66 7.66 9.32 8.32 10 9 C5.73 10.14 2.44 11 -2 11 C-2 11.66 -2 12.32 -2 13 C-1.01 13 -0.02 13 1 13 C1.33 14.32 1.66 15.64 2 17 C-0.64 16.34 -3.28 15.68 -6 15 C-5.47 11.21 -4.62 8.83 -2 6 C-1.34 6 -0.68 6 0 6 C0 6.99 0 7.98 0 9 C0.99 9 1.98 9 3 9 C3 8.01 3 7.02 3 6 C2.34 6 1.68 6 1 6 C0.88 5.36 0.75 4.72 0.62 4.06 C0.42 3.38 0.21 2.7 0 2 C-0.66 1.67 -1.32 1.34 -2 1 C-1.34 0.67 -0.68 0.34 0 0 Z " fill="#AF9B57" transform="translate(120,44)"/>
<path d="M0 0 C-1.32 0.99 -2.64 1.98 -4 3 C-2.87 3.29 -1.73 3.58 -0.56 3.88 C0.61 4.25 1.79 4.62 3 5 C4.48 7.96 4.06 10.74 4 14 C2.68 14 1.36 14 0 14 C-0.33 12.68 -0.66 11.36 -1 10 C-1.66 10 -2.32 10 -3 10 C-3 8.68 -3 7.36 -3 6 C-4.98 6.33 -6.96 6.66 -9 7 C-9 6.34 -9 5.68 -9 5 C-9.66 5 -10.32 5 -11 5 C-11 4.34 -11 3.68 -11 3 C-9.68 3 -8.36 3 -7 3 C-7 2.34 -7 1.68 -7 1 C-3.38 -1.12 -3.38 -1.12 0 0 Z " fill="#747569" transform="translate(61,76)"/>
<path d="M0 0 C0.33 0.17 0.33 0.17 2 1 C2 1.66 2 2.32 2 3 C2.99 3 3.98 3 5 3 C5 3.99 5 4.98 5 6 C5.62 6.25 6.24 6.5 6.88 6.75 C9.35 8.21 9.95 9.38 11 12 C10.34 12 9.68 12 9 12 C9 12.99 9 13.98 9 15 C8.01 15 7.02 15 6 15 C6 13.68 6 12.36 6 11 C5.34 11 4.68 11 4 11 C4.33 11.99 4.66 12.98 5 14 C4.67 14.99 4.34 15.98 4 17 C3.34 17 2.68 17 2 17 C2 16.01 2 15.02 2 14 C1.34 13.67 0.68 13.34 0 13 C0 8.71 0 4.42 0 0 Z " fill="#7F848F" transform="translate(23,75)"/>
<path d="M0 0 C1.32 0.33 2.64 0.66 4 1 C4.33 2.32 4.66 3.64 5 5 C5.66 5 6.32 5 7 5 C7 5.99 7 6.98 7 8 C6.01 8 5.02 8 4 8 C4 7.01 4 6.02 4 5 C1.39 7.52 -0.89 10.05 -3 13 C-3.99 12.34 -4.98 11.68 -6 11 C-6 9.68 -6 8.36 -6 7 C-6.66 6.67 -7.32 6.34 -8 6 C-7.34 6 -6.68 6 -6 6 C-6.33 5.01 -6.66 4.02 -7 3 C-5.35 3.33 -3.7 3.66 -2 4 C-2 3.34 -2 2.68 -2 2 C-1.34 2 -0.68 2 0 2 C0 1.34 0 0.68 0 0 Z " fill="#78724D" transform="translate(116,45)"/>
<path d="M0 0 C0.83 0.33 0.83 0.33 5 2 C5 2.66 5 3.32 5 4 C6.32 4 7.64 4 9 4 C9 3.34 9 2.68 9 2 C13.75 2.88 13.75 2.88 16 4 C15.67 6.31 15.34 8.62 15 11 C12.62 10.75 12.62 10.75 10 10 C8.69 7.94 8.69 7.94 8 6 C6.35 6 4.7 6 3 6 C3 6.66 3 7.32 3 8 C2.34 8 1.68 8 1 8 C-0.35 5.29 -0.07 2.99 0 0 Z " fill="#B8C3D3" transform="translate(86,158)"/>
<path d="M0 0 C0.4 0.01 0.4 0.01 2.44 0.06 C1.78 1.05 1.78 1.05 -1.56 6.06 C-0.24 6.39 1.08 6.72 2.44 7.06 C2.77 5.41 3.1 3.76 3.44 2.06 C4.1 2.06 4.76 2.06 5.44 2.06 C5.11 6.68 4.78 11.3 4.44 16.06 C2.79 16.39 1.14 16.72 -0.56 17.06 C-0.23 15.74 0.1 14.42 0.44 13.06 C1.1 13.06 1.76 13.06 2.44 13.06 C2.44 11.74 2.44 10.42 2.44 9.06 C1.67 8.96 0.91 8.86 0.12 8.75 C-2.73 8.02 -3.72 7.29 -5.56 5.06 C-3.15 0.08 -3.15 0.08 0 0 Z " fill="#E1D0BA" transform="translate(113.5625,108.9375)"/>
<path d="M0 0 C1.32 0 2.64 0 4 0 C4 0.66 4 1.32 4 2 C6.64 2 9.28 2 12 2 C12 2.66 12 3.32 12 4 C10.35 4 8.7 4 7 4 C7 4.66 7 5.32 7 6 C3.67 6 0.33 6 -3 6 C-3.33 7.98 -3.66 9.96 -4 12 C-6.31 11.67 -8.62 11.34 -11 11 C-11 10.34 -11 9.68 -11 9 C-9.68 9 -8.36 9 -7 9 C-7.33 7.35 -7.66 5.7 -8 4 C-5.04 2.52 -2.26 2.94 1 3 C0.67 2.01 0.34 1.02 0 0 Z " fill="#A89A70" transform="translate(78,67)"/>
<path d="M0 0 C1.98 0 3.96 0 6 0 C6 0.66 6 1.32 6 2 C10.29 2.66 14.58 3.32 19 4 C18.67 4.49 18.67 4.49 17 7 C14.67 7.04 12.33 7.04 10 7 C7.56 8 7.56 8 6 9 C6 8.34 6 7.68 6 7 C5.01 6.83 5.01 6.83 0 6 C0.33 5.01 0.66 4.02 1 3 C0.67 2.01 0.34 1.02 0 0 Z " fill="#C4A283" transform="translate(52,59)"/>
<path d="M0 0 C0.66 0.33 1.32 0.66 2 1 C1.74 2.59 1.47 4.17 1.19 5.75 C1.04 6.63 0.89 7.51 0.73 8.42 C-0.05 11.19 -1.15 12.83 -3 15 C-4.94 14.5 -4.94 14.5 -7 13 C-7.69 10.3 -7.82 7.8 -8 5 C-7.36 4.88 -6.72 4.75 -6.06 4.62 C-5.38 4.42 -4.7 4.21 -4 4 C-3.67 3.34 -3.34 2.68 -3 2 C-2.34 2.33 -1.68 2.66 -1 3 C-0.67 2.01 -0.34 1.02 0 0 Z " fill="#CBD0DA" transform="translate(79,155)"/>
<path d="M0 0 C0.99 0.66 1.98 1.32 3 2 C3 2.66 3 3.32 3 4 C3.66 4 4.32 4 5 4 C5 6.64 5 9.28 5 12 C4.67 12.16 4.67 12.16 3 13 C2.67 12.34 2.34 11.68 2 11 C1.01 11 0.02 11 -1 11 C-1.66 12.32 -2.32 13.64 -3 15 C-3.28 13.07 -3.52 11.13 -3.75 9.19 C-3.89 8.11 -4.03 7.03 -4.17 5.92 C-4 3 -4 3 -2.02 1.11 C-1.35 0.75 -0.69 0.38 0 0 Z " fill="#8D8D91" transform="translate(83,121)"/>
<path d="M0 0 C0.66 0 1.32 0 2 0 C2.05 1.42 2.09 2.83 2.12 4.25 C2.15 5.04 2.17 5.83 2.2 6.64 C1.98 9.21 1.29 10.79 0 13 C-1.98 12.34 -3.96 11.68 -6 11 C-6.62 7.62 -6.62 7.62 -7 4 C-4.64 1.64 -3.22 1.51 0 1 C0 0.67 0 0.34 0 0 Z " fill="#878380" transform="translate(146,82)"/>
<path d="M0 0 C0.82 0.33 0.82 0.33 5 2 C5.33 1.34 5.66 0.68 6 0 C6 4 6 4 5 6 C4.18 6.31 3.35 6.62 2.5 6.94 C1.68 7.29 0.85 7.64 0 8 C-0.33 8.99 -0.66 9.98 -1 11 C1.31 11 3.62 11 6 11 C6 11.33 6 11.66 6 12 C4.02 12.33 2.04 12.66 0 13 C-0.33 14.32 -0.66 15.64 -1 17 C-2.65 17.33 -4.3 17.66 -6 18 C-6 17.01 -6 16.02 -6 15 C-5.34 14.67 -4.68 14.34 -4 14 C-3.22 11.67 -2.58 9.39 -2 7 C-2.66 7 -3.32 7 -4 7 C-3.67 6.01 -3.34 5.02 -3 4 C-1.68 4 -0.36 4 1 4 C0.67 2.68 0.34 1.36 0 0 Z " fill="#C6B67A" transform="translate(144,52)"/>
<path d="M0 0 C2.1 2.36 2.97 3.55 3.19 6.75 C3.13 7.49 3.06 8.23 3 9 C4.32 9.66 5.64 10.32 7 11 C6.34 12.65 5.68 14.3 5 16 C6.98 16.66 8.96 17.32 11 18 C11 21 11 21 10 23 C9.01 23 8.02 23 7 23 C6.67 23.66 6.34 24.32 6 25 C6 24.01 6 23.02 6 22 C6.99 22 7.98 22 9 22 C9 21.34 9 20.68 9 20 C7.35 20 5.7 20 4 20 C3.17 17.11 3 15.11 3 12 C2.34 11.67 1.68 11.34 1 11 C0.59 8.68 0.26 6.34 0 4 C-0.66 4.99 -1.32 5.98 -2 7 C-1.12 1.12 -1.12 1.12 0 0 Z " fill="#CCC09D" transform="translate(100,10)"/>
<path d="M0 0 C0.33 0 0.66 0 1 0 C1 2.31 1 4.62 1 7 C1.99 6.67 2.98 6.34 4 6 C3.92 8.83 3.4 10.55 1.52 12.67 C-3.3 17 -3.3 17 -8 17 C-7.75 13.62 -7.75 13.62 -7 10 C-4.94 8.56 -4.94 8.56 -3 8 C-2.67 8.33 -2.34 8.66 -2 9 C-2.02 8.63 -2.02 8.63 -2.12 6.75 C-2 3.91 -1.43 2.41 0 0 Z " fill="#9C8F7B" transform="translate(161,76)"/>
<path d="M0 0 C1.32 0.33 2.64 0.66 4 1 C3.34 2.65 2.68 4.3 2 6 C2.76 5.94 3.53 5.88 4.31 5.81 C7 6 7 6 8.81 7.38 C10 9 10 9 10 11 C9.64 11.02 9.64 11.02 7.85 11.15 C6.93 11.22 6.01 11.3 5.06 11.38 C4.15 11.44 3.23 11.51 2.29 11.59 C1.53 11.72 0.78 11.86 0 12 C-0.33 12.66 -0.66 13.32 -1 14 C-1.99 13.67 -2.98 13.34 -4 13 C-4 12.01 -4 11.02 -4 10 C-3.01 10 -2.02 10 -1 10 C-0.67 6.7 -0.34 3.4 0 0 Z " fill="#605D5C" transform="translate(75,74)"/>
<path d="M0 0 C0.33 0.66 0.66 1.32 1 2 C1.66 2 2.32 2 3 2 C3.33 2.5 3.33 2.5 5 5 C5.99 5.33 6.98 5.66 8 6 C8 7.98 8 9.96 8 12 C8.99 12 9.98 12 11 12 C11 13.65 11 15.3 11 17 C8.69 16.88 8.69 16.88 6 16 C3 11.14 3 11.14 3 8 C2.01 8 1.02 8 0 8 C0 5.36 0 2.72 0 0 Z " fill="#A3A7B2" transform="translate(50,101)"/>
<path d="M0 0 C-0.49 0.43 -0.98 0.86 -1.49 1.3 C-3 3 -3 3 -3.19 6.19 C-3.13 7.12 -3.06 8.04 -3 9 C-3.33 9.16 -3.33 9.16 -5 10 C-5.33 9.34 -5.66 8.68 -6 8 C-6.66 8 -7.32 8 -8 8 C-8 7.34 -8 6.68 -8 6 C-7.34 6 -6.68 6 -6 6 C-6 5.34 -6 4.68 -6 4 C-7.32 4 -8.64 4 -10 4 C-10 3.01 -10 2.02 -10 1 C-11.98 1.33 -13.96 1.66 -16 2 C-15 4 -15 4 -12 6 C-13.98 6 -15.96 6 -18 6 C-17.67 4.68 -17.34 3.36 -17 2 C-17.66 1.67 -18.32 1.34 -19 1 C-12.34 -1.14 -6.9 -0.94 0 0 Z " fill="#9F9369" transform="translate(171,68)"/>
<path d="M0 0 C-0.33 2.31 -0.66 4.62 -1 7 C-1.76 7.27 -2.53 7.54 -3.31 7.81 C-6 9 -6 9 -7.34 10.62 C-9 12 -9 12 -11.48 11.86 C-12.37 11.64 -13.27 11.41 -14.19 11.19 C-15.09 10.97 -15.99 10.76 -16.92 10.54 C-17.61 10.36 -18.29 10.18 -19 10 C-19 9.67 -19 9.34 -19 9 C-15.7 9 -12.4 9 -9 9 C-9 6.69 -9 4.38 -9 2 C-8.01 2.33 -7.02 2.66 -6 3 C-6 2.34 -6 1.68 -6 1 C-4 0 -4 0 0 0 Z " fill="#8E8351" transform="translate(146,49)"/>
<path d="M0 0 C1.37 3.2 0.83 5.7 0 9 C-1.32 8.34 -2.64 7.68 -4 7 C-4 6.01 -4 5.02 -4 4 C-5.98 4.33 -7.96 4.66 -10 5 C-11.12 1.25 -11.12 1.25 -10 -1 C-5.96 -2.35 -3.96 -1.32 0 0 Z " fill="#837E55" transform="translate(106,46)"/>
<path d="M0 0 C0.66 0.33 1.32 0.66 2 1 C3.49 6.82 2.87 12.29 1 18 C0.34 18.33 -0.32 18.66 -1 19 C-1.12 11.25 -1.12 11.25 0 9 C-1.32 9.99 -2.64 10.98 -4 12 C-4 11.01 -4 10.02 -4 9 C-4.99 8.67 -5.98 8.34 -7 8 C-5.72 6.29 -4.38 4.63 -3 3 C-2.34 3 -1.68 3 -1 3 C-0.67 2.01 -0.34 1.02 0 0 Z " fill="#8E96A5" transform="translate(126,121)"/>
<path d="M0 0 C0.99 0 1.98 0 3 0 C3.66 0.99 4.32 1.98 5 3 C5.66 3 6.32 3 7 3 C7 4.32 7 5.64 7 7 C6.34 7 5.68 7 5 7 C5.33 8.65 5.66 10.3 6 12 C4.68 12 3.36 12 2 12 C2 11.01 2 10.02 2 9 C1.68 8.95 1.68 8.95 0.06 8.69 C-0.28 8.57 -0.28 8.57 -2 8 C-2.33 7.01 -2.66 6.02 -3 5 C-2.67 4.34 -2.34 3.68 -2 3 C-4.31 3 -6.62 3 -9 3 C-9 2.67 -9 2.34 -9 2 C-6.36 2 -3.72 2 -1 2 C-0.67 1.34 -0.34 0.68 0 0 Z " fill="#BEB9A1" transform="translate(70,32)"/>
<path d="M0 0 C1.65 0.33 3.3 0.66 5 1 C5 1.66 5 2.32 5 3 C4.34 3 3.68 3 3 3 C3.33 3.99 3.66 4.98 4 6 C6.56 7.19 6.56 7.19 9 8 C9 8.33 9 8.66 9 9 C7.35 9 5.7 9 4 9 C4 9.99 4 10.98 4 12 C3.34 12 2.68 12 2 12 C2 11.01 2 10.02 2 9 C-0.31 9 -2.62 9 -5 9 C-4.69 6.62 -4.69 6.62 -4 4 C-3.01 3.34 -2.02 2.68 -1 2 C-0.67 1.34 -0.34 0.68 0 0 Z " fill="#8C8E7C" transform="translate(53,15)"/>
<path d="M0 0 C3.01 1.5 3.58 4.04 5 7 C5.33 7.33 5.66 7.66 6 8 C6.99 7.67 7.98 7.34 9 7 C9.99 7.66 10.98 8.32 12 9 C10.35 9 8.7 9 7 9 C7.75 10.94 7.75 10.94 9 13 C11.12 13.75 11.12 13.75 13 14 C13 14.66 13 15.32 13 16 C11.68 16.16 11.68 16.16 5 17 C4.67 16.34 4.34 15.68 4 15 C1.94 13.88 1.94 13.88 0 13 C0.99 12.34 1.98 11.68 3 11 C2.69 10.4 2.38 9.8 2.06 9.19 C0.77 6.53 -0.07 3.8 -1 1 C-0.67 0.67 -0.34 0.34 0 0 Z " fill="#BEB288" transform="translate(79,28)"/>
<path d="M0 0 C1.65 0.33 3.3 0.66 5 1 C5 4.96 5 8.92 5 13 C3.35 13.33 1.7 13.66 0 14 C-1.76 10.91 -2 9.77 -2 6 C1 5 1 5 2 5 C2 4.34 2 3.68 2 3 C1.01 3 0.02 3 -1 3 C-0.67 2.01 -0.34 1.02 0 0 Z " fill="#7D7D81" transform="translate(93,105)"/>
<path d="M0 0 C0.33 0.99 0.66 1.98 1 3 C2.65 2.67 4.3 2.34 6 2 C8.05 3.96 8.95 5.43 9.2 8.27 C9.19 10.52 9.13 12.75 9 15 C8.67 15.16 8.67 15.16 7 16 C7 15.34 7 14.68 7 14 C6.01 13.67 5.02 13.34 4 13 C4 12.01 4 11.02 4 10 C3.34 9.22 2.68 8.43 2 7.62 C-0.22 4.71 -0.41 3.55 0 0 Z " fill="#838B9B" transform="translate(101,120)"/>
<path d="M0 0 C0.66 0.33 1.32 0.66 2 1 C2.33 2 2.33 2 4 7 C4.66 7.33 5.32 7.66 6 8 C5.67 8.99 5.34 9.98 5 11 C4.67 10.34 4.34 9.68 4 9 C3.01 9 2.02 9 1 9 C0.34 10.65 -0.32 12.3 -1 14 C-2.98 14 -4.96 14 -7 14 C-7.33 14.99 -7.66 15.98 -8 17 C-8 15.68 -8 14.36 -8 13 C-7.01 12.67 -6.02 12.34 -5 12 C-5 10.68 -5 9.36 -5 8 C-4.02 6.98 -3.02 5.98 -2 5 C-0.81 2.31 -0.81 2.31 0 0 Z " fill="#B6B5A3" transform="translate(136,27)"/>
<path d="M0 0 C0.53 6.26 -1.18 10.45 -4 16 C-4.99 16 -5.98 16 -7 16 C-7.33 14.35 -7.66 12.7 -8 11 C-7.01 11 -6.02 11 -5 11 C-4.67 9.68 -4.34 8.36 -4 7 C-5.32 7.33 -6.64 7.66 -8 8 C-6.77 4.87 -3.8 0 0 0 Z " fill="#D2C5B4" transform="translate(165,86)"/>
<path d="M0 0 C0.99 0 1.98 0 3 0 C3 0.66 3 1.32 3 2 C3.66 2 4.32 2 5 2 C5.03 4.29 5.05 6.58 5.06 8.88 C5.07 10.15 5.09 11.43 5.1 12.74 C5 16 5 16 4 18 C3.01 18 2.02 18 1 18 C0.34 19.32 -0.32 20.64 -1 22 C-1.66 20.68 -2.32 19.36 -3 18 C-2.67 17.5 -2.67 17.5 -1 15 C0.32 15 1.64 15 3 15 C2.67 12.03 2.34 9.06 2 6 C1.34 6 0.68 6 0 6 C0 5.34 0 4.68 0 4 C0.66 4 1.32 4 2 4 C2 3.34 2 2.68 2 2 C1.34 2 0.68 2 0 2 C0 1.34 0 0.68 0 0 Z " fill="#5B5847" transform="translate(62,75)"/>
<path d="M0 0 C0.99 0 1.98 0 3 0 C3 0.99 3 1.98 3 3 C2.01 3 1.02 3 0 3 C0 3.66 0 4.32 0 5 C-1.65 5.66 -3.3 6.32 -5 7 C-4.79 7.6 -4.59 8.2 -4.38 8.81 C-4 11 -4 11 -6 14 C-6.99 13.67 -7.98 13.34 -9 13 C-10.35 10.29 -10.07 7.99 -10 5 C-9.34 5 -8.68 5 -8 5 C-7.67 4.01 -7.34 3.02 -7 2 C-4.69 2 -2.38 2 0 2 C0 1.34 0 0.68 0 0 Z " fill="#9D9785" transform="translate(32,57)"/>
<path d="M0 0 C0.66 0.99 1.32 1.98 2 3 C0.02 3 -1.96 3 -4 3 C-4.33 4.32 -4.66 5.64 -5 7 C-1.37 7.33 2.26 7.66 6 8 C6 9.98 6 11.96 6 14 C2.37 14.33 -1.26 14.66 -5 15 C-5 14.67 -5 14.34 -5 14 C-3.02 13.34 -1.04 12.68 1 12 C-0.65 12 -2.3 12 -4 12 C-4 11.01 -4 10.02 -4 9 C-4.66 8.67 -5.32 8.34 -6 8 C-5.67 6.02 -5.34 4.04 -5 2 C-4.01 1.67 -3.02 1.34 -2 1 C-1.34 1.33 -0.68 1.66 0 2 C0 1.34 0 0.68 0 0 Z " fill="#BABEBB" transform="translate(49,27)"/>
<path d="M0 0 C0.66 0 1.32 0 2 0 C3.58 6.39 4.2 11.5 3 18 C4.32 17.34 5.64 16.68 7 16 C7 17.98 7 19.96 7 22 C6.34 21.01 5.68 20.02 5 19 C4.67 19.66 4.34 20.32 4 21 C2.68 21.33 1.36 21.66 0 22 C0 14.74 0 7.48 0 0 Z " fill="#B2B5BF" transform="translate(118,132)"/>
<path d="M0 0 C0.1 0.64 0.21 1.28 0.31 1.94 C0.43 2.28 0.43 2.28 1 4 C1.99 4.33 2.98 4.66 4 5 C3.67 5.17 3.67 5.17 2 6 C1.3 7.32 0.63 8.65 0 10 C-1 11 -1 11 -2.85 11.1 C-4.9 11.07 -6.95 11.03 -9 11 C-9 10.34 -9 9.68 -9 9 C-5.91 7.24 -4.77 7 -1 7 C-1 6.34 -1 5.68 -1 5 C-1.83 4.67 -1.83 4.67 -6 3 C-3.38 0 -3.38 0 0 0 Z " fill="#DEC792" transform="translate(94,82)"/>
<path d="M0 0 C1.94 0.56 1.94 0.56 4 2 C5.34 6.96 4.96 10.28 3 15 C1 14 1 14 -0.12 11.94 C-1.27 8.1 -1.2 5 -1 1 C-0.67 0.67 -0.34 0.34 0 0 Z " fill="#D0DAE7" transform="translate(52,141)"/>
<path d="M0 0 C2 1 2 1 2 1 Z " fill="#F5F4F2" transform="translate(149,49)"/>
<path d="M0 0 C2 1 2 1 2 1 Z " fill="#F8F7F4" transform="translate(60,17)"/>
<path d="" fill="#F4F4FB" transform="translate(0,0)"/>
<path d="" fill="#F6F6F3" transform="translate(0,0)"/>
<path d="" fill="#F4F5F3" transform="translate(0,0)"/>
</svg>
