<?xml version="1.0" encoding="UTF-8"?>
<!-- Generator: visioncortex VTracer 0.6.12 -->
<svg version="1.1" xmlns="http://www.w3.org/2000/svg" width="143" height="78">
<path d="M0 0 C0.66 0 1.32 0 2 0 C2.05 0.49 2.05 0.49 2.31 3 C2.91 7.28 4.39 11 6 15 C6.99 15 7.98 15 9 15 C9 13.68 9 12.36 9 11 C9.66 11 10.32 11 11 11 C11.2 11.76 11.41 12.52 11.62 13.3 C11.89 14.29 12.16 15.29 12.44 16.31 C12.7 17.3 12.97 18.28 13.25 19.3 C13.78 21.22 14.37 23.11 15 25 C15.5 25.16 15.5 25.16 18 26 C18 27.65 18 29.3 18 31 C18.67 29.4 19.34 27.79 20 26.19 C20.37 25.29 20.74 24.4 21.12 23.48 C22 21 22 21 22 18 C22.99 18 23.98 18 25 18 C25.16 19.48 25.16 19.48 26 27 C26.66 27 27.32 27 28 27 C27.83 27.7 27.67 28.4 27.5 29.12 C26.98 32.14 26.93 34.95 27 38 C27.66 38 28.32 38 29 38 C29 37.34 29 36.68 29 36 C29.66 36 30.32 36 31 36 C31.16 36.83 31.16 36.83 32 41 C32.16 39.35 32.16 39.35 33 31 C33.66 31 34.32 31 35 31 C36.92 35.98 37.55 40.73 38 46 C39.32 45.67 40.64 45.34 42 45 C42.33 45.99 42.66 46.98 43 48 C43.66 46.35 44.32 44.7 45 43 C45.5 43.16 45.5 43.16 48 44 C48.16 45.32 48.16 45.32 49 52 C49.72 51.8 50.43 51.59 51.17 51.38 C54.55 50.93 56.22 51.58 59.31 52.94 C59.75 53.13 59.75 53.13 61.99 54.09 C62.65 54.39 63.32 54.69 64 55 C64 55.66 64 56.32 64 57 C55.26 58.19 46.5 58.35 37.69 58.56 C36.87 58.58 36.05 58.6 35.2 58.62 C9.37 59.26 -16.16 58.87 -41.93 57.14 C-45.63 56.89 -49.32 56.66 -53.02 56.43 C-53.72 56.39 -54.42 56.35 -55.14 56.3 C-56.76 56.2 -58.38 56.1 -60 56 C-60 55.34 -60 54.68 -60 54 C-59.3 53.8 -58.6 53.59 -57.88 53.38 C-56.97 53.11 -56.06 52.84 -55.12 52.56 C-54.22 52.3 -53.32 52.03 -52.38 51.75 C-50 51 -50 51 -48 50 C-47.37 47.93 -47.37 47.93 -46.88 45.44 C-46.71 44.61 -46.54 43.78 -46.37 42.93 C-46.25 42.3 -46.12 41.66 -46 41 C-45.34 41 -44.68 41 -44 41 C-43.34 42.65 -42.68 44.3 -42 46 C-40.02 45.34 -38.04 44.68 -36 44 C-35.67 41.36 -35.34 38.72 -35 36 C-34.34 36 -33.68 36 -33 36 C-32.34 37.98 -31.68 39.96 -31 42 C-30.34 39.36 -29.68 36.72 -29 34 C-28.34 34 -27.68 34 -27 34 C-26.84 34.99 -26.84 34.99 -26 40 C-20.35 37.67 -20.35 37.67 -18.88 34.84 C-17.84 31.47 -17.33 28.19 -16.88 24.69 C-16.71 23.43 -16.54 22.18 -16.37 20.89 C-16.31 20.41 -16.31 20.41 -16 18 C-15.01 18 -14.02 18 -13 18 C-13 19.32 -13 20.64 -13 22 C-12.01 22 -11.02 22 -10 22 C-9.67 18.7 -9.34 15.4 -9 12 C-8.01 12 -7.02 12 -6 12 C-6 12.99 -6 13.98 -6 15 C-5.34 15 -4.68 15 -4 15 C-3.84 15.82 -3.84 15.82 -3 20 C-3.04 19.22 -3.08 18.43 -3.12 17.62 C-2.92 11.61 -1.49 5.82 0 0 Z " fill="#B4BAC7" transform="translate(70,10)"/>
<path d="M0 0 C0.66 0 1.32 0 2 0 C2.05 0.49 2.05 0.49 2.31 3 C2.91 7.28 4.39 11 6 15 C6.99 15 7.98 15 9 15 C9 13.68 9 12.36 9 11 C9.66 11 10.32 11 11 11 C11.2 11.76 11.41 12.52 11.62 13.3 C11.89 14.29 12.16 15.29 12.44 16.31 C12.7 17.3 12.97 18.28 13.25 19.3 C13.78 21.22 14.37 23.11 15 25 C15.99 25.33 16.98 25.66 18 26 C18 27.65 18 29.3 18 31 C18.67 29.4 19.34 27.79 20 26.19 C20.37 25.29 20.74 24.4 21.12 23.48 C22 21 22 21 22 18 C22.99 18 23.98 18 25 18 C25.16 19.48 25.16 19.48 26 27 C26.66 27 27.32 27 28 27 C27.84 27.7 27.67 28.4 27.5 29.12 C26.98 32.14 26.93 34.95 27 38 C27.66 38 28.32 38 29 38 C29 37.34 29 36.68 29 36 C29.66 36 30.32 36 31 36 C31.16 36.83 31.16 36.83 32 41 C32.16 39.35 32.16 39.35 33 31 C33.66 31 34.32 31 35 31 C36.92 35.98 37.55 40.73 38 46 C39.32 45.67 40.64 45.34 42 45 C42.33 45.99 42.66 46.98 43 48 C43.66 46.35 44.32 44.7 45 43 C45.5 43.16 45.5 43.16 48 44 C48.16 45.32 48.16 45.32 49 52 C49.72 51.8 50.43 51.59 51.17 51.38 C54.55 50.93 56.22 51.58 59.31 52.94 C59.75 53.13 59.75 53.13 61.99 54.09 C62.65 54.39 63.32 54.69 64 55 C64 55.66 64 56.32 64 57 C55.26 58.19 46.5 58.35 37.69 58.56 C36.87 58.58 36.06 58.6 35.22 58.63 C13.11 59.19 -8.92 59.34 -31 58 C-31 57.67 -31 57.34 -31 57 C-23.74 56.67 -16.48 56.34 -9 56 C-9.99 54.02 -10.98 52.04 -12 50 C-10.68 50.66 -9.36 51.32 -8 52 C-8 52.66 -8 53.32 -8 54 C-5.03 54.33 -2.06 54.66 1 55 C1 55.66 1 56.32 1 57 C4.96 57.33 8.92 57.66 13 58 C13 57.34 13 56.68 13 56 C16.63 56.33 20.26 56.66 24 57 C23.67 55.35 23.34 53.7 23 52 C20.69 52.99 18.38 53.98 16 55 C16 54.34 16 53.68 16 53 C13.69 52.67 11.38 52.34 9 52 C9 51.34 9 50.68 9 50 C11.31 49.67 13.62 49.34 16 49 C16 48.34 16 47.68 16 47 C15.01 47 14.02 47 13 47 C13 46.34 13 45.68 13 45 C12.44 45.19 11.89 45.37 11.31 45.56 C8.6 46.08 6.66 45.66 4 45 C3.34 42.03 2.68 39.06 2 36 C3.32 36.33 4.64 36.66 6 37 C5.67 35.35 5.34 33.7 5 32 C6.65 31.67 8.3 31.34 10 31 C8 28 8 28 5 27 C5 26.34 5 25.68 5 25 C4.01 25 3.02 25 2 25 C2.33 22.69 2.66 20.38 3 18 C2.34 18 1.68 18 1 18 C1 16.35 1 14.7 1 13 C0.01 13.33 -0.98 13.66 -2 14 C-1.34 9.38 -0.68 4.76 0 0 Z " fill="#E3DFD9" transform="translate(70,10)"/>
<path d="M0 0 C0.66 0 1.32 0 2 0 C2.1 0.99 2.21 1.98 2.31 3 C2.91 7.28 4.39 11 6 15 C6.99 15 7.98 15 9 15 C9 13.68 9 12.36 9 11 C9.66 11 10.32 11 11 11 C11.2 11.76 11.41 12.52 11.62 13.3 C11.89 14.29 12.16 15.29 12.44 16.31 C12.7 17.3 12.97 18.28 13.25 19.3 C13.78 21.22 14.37 23.11 15 25 C15.99 25.33 16.98 25.66 18 26 C18 27.65 18 29.3 18 31 C19.32 27.7 20.64 24.4 22 21 C22.66 21 23.32 21 24 21 C24.12 26.78 23.83 32.28 23 38 C22.34 37.67 21.68 37.34 21 37 C20.67 38.32 20.34 39.64 20 41 C20.56 41.08 21.11 41.16 21.69 41.25 C24.79 42.26 26.67 43.73 29 46 C29 47.32 29 48.64 29 50 C27.19 50.16 27.19 50.16 18 51 C18 50.34 18 49.68 18 49 C19.32 49 20.64 49 22 49 C22.33 48.01 22.66 47.02 23 46 C21.72 45.98 20.44 45.96 19.12 45.94 C18.41 45.93 17.69 45.91 16.95 45.9 C15 46 15 46 13 47 C13 46.34 13 45.68 13 45 C12.44 45.19 11.89 45.37 11.31 45.56 C8.6 46.08 6.66 45.66 4 45 C3.34 42.03 2.68 39.06 2 36 C3.32 36.33 4.64 36.66 6 37 C5.67 35.35 5.34 33.7 5 32 C6.65 31.67 8.3 31.34 10 31 C8 28 8 28 5 27 C5 26.34 5 25.68 5 25 C4.01 25 3.02 25 2 25 C2.33 22.69 2.66 20.38 3 18 C2.34 18 1.68 18 1 18 C1 16.35 1 14.7 1 13 C0.01 13.33 -0.98 13.66 -2 14 C-1.34 9.38 -0.68 4.76 0 0 Z " fill="#E8DCCC" transform="translate(70,10)"/>
<path d="M0 0 C0 1.65 0 3.3 0 5 C0.66 5 1.32 5 2 5 C1.67 7.31 1.34 9.62 1 12 C1.99 12 2.98 12 4 12 C4.33 12.66 4.66 13.32 5 14 C5.99 14 6.98 14 8 14 C8.33 15.32 8.66 16.64 9 18 C7.68 18.33 6.36 18.66 5 19 C5 20.65 5 22.3 5 24 C3.68 23.67 2.36 23.34 1 23 C1.33 23.74 1.66 24.48 2 25.25 C3 28 3 28 3 32 C5.97 32 8.94 32 12 32 C12 32.66 12 33.32 12 34 C12.99 34 13.98 34 15 34 C15 34.66 15 35.32 15 36 C13.84 36.16 13.84 36.16 8 37 C8 37.66 8 38.32 8 39 C13.15 39.76 16.93 40.07 22 39 C22.16 39.83 22.16 39.83 23 44 C19.37 43.67 15.74 43.34 12 43 C12 43.66 12 44.32 12 45 C10.4 45.05 8.79 45.09 7.19 45.12 C6.29 45.15 5.4 45.17 4.48 45.2 C2 45 2 45 -1 43 C-2.99 42.63 -4.99 42.3 -7 42 C-7.66 41.67 -8.32 41.34 -9 41 C-8.67 40.01 -8.34 39.02 -8 38 C-6.68 38.33 -5.36 38.66 -4 39 C-4 38.34 -4 37.68 -4 37 C-3.34 37 -2.68 37 -2 37 C-2.66 35.68 -3.32 34.36 -4 33 C-3.34 32.84 -3.34 32.84 0 32 C0 30.02 0 28.04 0 26 C-0.99 26 -1.98 26 -3 26 C-3.33 27.32 -3.66 28.64 -4 30 C-6.31 30.33 -8.62 30.66 -11 31 C-11 30.34 -11 29.68 -11 29 C-10.34 29 -9.68 29 -9 29 C-9.33 27.02 -9.66 25.04 -10 23 C-8.35 23 -6.7 23 -5 23 C-5.33 21.68 -5.66 20.36 -6 19 C-4.68 18.67 -3.36 18.34 -2 18 C-2 17.34 -2 16.68 -2 16 C-2.99 15.67 -3.98 15.34 -5 15 C-5.12 9.25 -5.12 9.25 -4 7 C-3.96 5 -3.96 3 -4 1 C-2 0 -2 0 0 0 Z " fill="#C5C6C8" transform="translate(71,23)"/>
<path d="M0 0 C0.66 0 1.32 0 2 0 C2.16 0.99 2.16 0.99 3 6 C4.98 5.34 6.96 4.68 9 4 C8.67 5.65 8.34 7.3 8 9 C7.34 9 6.68 9 6 9 C6 8.34 6 7.68 6 7 C5.54 7.34 5.54 7.34 3.19 9.06 C2.14 9.7 1.08 10.34 0 11 C-0.99 10.67 -1.98 10.34 -3 10 C-2.67 11.32 -2.34 12.64 -2 14 C0.97 14 3.94 14 7 14 C6.67 14.99 6.34 15.98 6 17 C3.69 16.67 1.38 16.34 -1 16 C-1 16.99 -1 17.98 -1 19 C0.32 19.33 1.64 19.66 3 20 C3 20.66 3 21.32 3 22 C-0.32 22.74 -3.4 23.13 -6.8 23.13 C-7.7 23.13 -8.59 23.14 -9.51 23.14 C-9.98 23.13 -9.98 23.13 -12.31 23.12 C-13.22 23.13 -14.14 23.13 -15.08 23.14 C-20.48 23.13 -25.66 22.79 -31 22 C-31 21.34 -31 20.68 -31 20 C-30.3 19.8 -29.6 19.59 -28.88 19.38 C-27.97 19.11 -27.06 18.84 -26.12 18.56 C-25.22 18.3 -24.32 18.03 -23.38 17.75 C-21 17 -21 17 -19 16 C-18.37 13.93 -18.37 13.93 -17.88 11.44 C-17.71 10.61 -17.54 9.78 -17.37 8.93 C-17.25 8.3 -17.12 7.66 -17 7 C-16.34 7 -15.68 7 -15 7 C-14.34 8.65 -13.68 10.3 -13 12 C-11.02 11.34 -9.04 10.68 -7 10 C-6.67 7.36 -6.34 4.72 -6 2 C-5.34 2 -4.68 2 -4 2 C-3.34 3.98 -2.68 5.96 -2 8 C-1.34 5.36 -0.68 2.72 0 0 Z " fill="#C3C9D4" transform="translate(41,44)"/>
<path d="M0 0 C0.66 0 1.32 0 2 0 C3.92 4.98 4.55 9.73 5 15 C6.32 14.67 7.64 14.34 9 14 C9.33 14.99 9.66 15.98 10 17 C10.66 15.35 11.32 13.7 12 12 C12.99 12.33 13.98 12.66 15 13 C15.33 15.64 15.66 18.28 16 21 C16.72 20.8 17.43 20.59 18.17 20.38 C21.55 19.93 23.22 20.58 26.31 21.94 C27.2 22.32 28.08 22.7 28.99 23.09 C29.32 23.24 29.32 23.24 31 24 C31 24.66 31 25.32 31 26 C24.81 26.78 18.79 27.16 12.56 27.12 C11.74 27.12 10.91 27.12 10.06 27.12 C4.32 27.08 -1.3 26.75 -7 26 C-7 24.35 -7 22.7 -7 21 C-4.69 21.33 -2.38 21.66 0 22 C0 21.34 0 20.68 0 20 C0.99 19.67 1.98 19.34 3 19 C1.68 18.67 0.36 18.34 -1 18 C-1.38 15.67 -1.71 13.34 -2 11 C-1.67 10.67 -1.34 10.34 -1 10 C-0.77 8.32 -0.59 6.63 -0.44 4.94 C-0.35 4.02 -0.27 3.1 -0.18 2.15 C-0.12 1.44 -0.06 0.73 0 0 Z " fill="#D7D8DE" transform="translate(103,41)"/>
<path d="M0 0 C0 0.66 0 1.32 0 2 C-1.65 2 -3.3 2 -5 2 C-4.67 3.98 -4.34 5.96 -4 8 C-4.66 8 -5.32 8 -6 8 C-6 8.66 -6 9.32 -6 10 C-5.22 9.65 -4.43 9.3 -3.62 8.94 C-2.76 8.63 -1.89 8.32 -1 8 C-0.34 8.33 0.32 8.66 1 9 C1.33 7.68 1.66 6.36 2 5 C2.99 5 3.98 5 5 5 C5.16 5.99 5.16 5.99 6 11 C5.34 11.33 5.34 11.33 2 13 C2.33 13.99 2.66 14.98 3 16 C2.34 16 1.68 16 1 16 C1 16.66 1 17.32 1 18 C-1.33 18 -3.67 18 -6 18 C-5.67 19.32 -5.34 20.64 -5 22 C-7.85 22.81 -10.37 23.12 -13.33 23.1 C-14.13 23.09 -14.93 23.09 -15.75 23.09 C-16.58 23.08 -17.4 23.07 -18.25 23.06 C-19.09 23.06 -19.93 23.05 -20.8 23.05 C-22.86 23.04 -24.93 23.02 -27 23 C-27 22.67 -27 22.34 -27 22 C-21.98 21.37 -17.07 20.87 -12 21 C-13.98 20.67 -15.96 20.34 -18 20 C-16 19 -14 18 -12 17 C-12.99 16.34 -13.98 15.68 -15 15 C-15.44 12.12 -15.44 12.12 -15 9 C-13 6.62 -13 6.62 -11 5 C-11 7.97 -11 10.94 -11 14 C-9.02 14 -7.04 14 -5 14 C-5 13.34 -5 12.68 -5 12 C-6.32 12 -7.64 12 -9 12 C-9.29 3.19 -9.29 3.19 -7 0 C-4.33 -1.33 -2.83 -0.67 0 0 Z " fill="#94A1B9" transform="translate(66,44)"/>
<path d="M0 0 C0.66 0 1.32 0 2 0 C2.12 5.78 1.83 11.28 1 17 C0.34 16.67 -0.32 16.34 -1 16 C-1.33 17.32 -1.66 18.64 -2 20 C-1.44 20.08 -0.89 20.16 -0.31 20.25 C2.79 21.26 4.67 22.73 7 25 C7 26.32 7 27.64 7 29 C3.37 29.33 -0.26 29.66 -4 30 C-4 29.34 -4 28.68 -4 28 C-2.68 28 -1.36 28 0 28 C0.33 27.01 0.66 26.02 1 25 C-0.07 25.04 -1.14 25.08 -2.25 25.12 C-5.66 25.01 -7.21 24.79 -10 23 C-10 20.36 -10 17.72 -10 15 C-11.65 15 -13.3 15 -15 15 C-15 14.01 -15 13.02 -15 12 C-13.68 12 -12.36 12 -11 12 C-11 12.66 -11 13.32 -11 14 C-8.69 14 -6.38 14 -4 14 C-4 13.34 -4 12.68 -4 12 C-3.01 12 -2.02 12 -1 12 C-1.02 10.76 -1.04 9.52 -1.06 8.25 C-1.07 5.34 -0.93 2.79 0 0 Z " fill="#B6B9C1" transform="translate(92,31)"/>
<path d="M0 0 C1.98 0 3.96 0 6 0 C6.33 0.66 6.66 1.32 7 2 C6.34 2 5.68 2 5 2 C5 2.99 5 3.98 5 5 C10.15 5.76 13.93 6.07 19 5 C19.33 6.65 19.66 8.3 20 10 C18.19 9.84 18.19 9.84 9 9 C9 9.66 9 10.32 9 11 C7.4 11.05 5.79 11.09 4.19 11.12 C3.29 11.15 2.4 11.17 1.48 11.2 C-1 11 -1 11 -4 9 C-5.99 8.63 -7.99 8.3 -10 8 C-10.66 7.67 -11.32 7.34 -12 7 C-11.67 6.01 -11.34 5.02 -11 4 C-10.34 4.16 -10.34 4.16 -7 5 C-7 4.34 -7 3.68 -7 3 C-6.34 3 -5.68 3 -5 3 C-4.67 2.34 -4.34 1.68 -4 1 C-3.67 1.66 -3.34 2.32 -3 3 C-2.01 2.67 -1.02 2.34 0 2 C0 1.34 0 0.68 0 0 Z " fill="#A9B1C0" transform="translate(74,57)"/>
<path d="M0 0 C0.66 0 1.32 0 2 0 C2.1 0.99 2.21 1.98 2.31 3 C2.91 7.28 4.39 11 6 15 C6.99 15 7.98 15 9 15 C9 13.68 9 12.36 9 11 C9.66 11 10.32 11 11 11 C11.33 14.63 11.66 18.26 12 22 C11.01 22 10.02 22 9 22 C9.33 24.31 9.66 26.62 10 29 C9.17 28.67 9.17 28.67 5 27 C5 26.34 5 25.68 5 25 C4.01 25 3.02 25 2 25 C2.33 22.69 2.66 20.38 3 18 C2.34 18 1.68 18 1 18 C1 16.35 1 14.7 1 13 C0.01 13.33 -0.98 13.66 -2 14 C-1.34 9.38 -0.68 4.76 0 0 Z " fill="#D0D0D3" transform="translate(70,10)"/>
<path d="M0 0 C-0.33 0.99 -0.66 1.98 -1 3 C-3.31 2.67 -5.62 2.34 -8 2 C-8 2.99 -8 3.98 -8 5 C-6.68 5.33 -5.36 5.66 -4 6 C-4 6.66 -4 7.32 -4 8 C-7.32 8.74 -10.4 9.13 -13.8 9.13 C-14.7 9.13 -15.59 9.14 -16.51 9.14 C-16.98 9.13 -16.98 9.13 -19.31 9.12 C-20.22 9.13 -21.14 9.13 -22.08 9.14 C-27.48 9.13 -32.66 8.79 -38 8 C-38 7.34 -38 6.68 -38 6 C-37.31 5.8 -36.63 5.59 -35.92 5.38 C-35.02 5.11 -34.12 4.84 -33.19 4.56 C-32.29 4.3 -31.4 4.03 -30.48 3.75 C-28.65 3.2 -26.82 2.61 -25 2 C-25 2.66 -25 3.32 -25 4 C-23.68 4 -22.36 4 -21 4 C-21 4.66 -21 5.32 -21 6 C-20.34 6 -19.68 6 -19 6 C-18.67 5.34 -18.34 4.68 -18 4 C-16.68 4.66 -15.36 5.32 -14 6 C-14 6.66 -14 7.32 -14 8 C-13.01 7.67 -12.02 7.34 -11 7 C-11 5.02 -11 3.04 -11 1 C-7.33 -0.18 -3.83 -0.07 0 0 Z " fill="#D0D3DA" transform="translate(48,58)"/>
<path d="M0 0 C1.65 0.33 3.3 0.66 5 1 C5.33 2.32 5.66 3.64 6 5 C4.68 5.33 3.36 5.66 2 6 C2 7.65 2 9.3 2 11 C0.68 10.67 -0.64 10.34 -2 10 C-1.67 10.74 -1.34 11.48 -1 12.25 C0 15 0 15 0 19 C2.97 19 5.94 19 9 19 C9 19.66 9 20.32 9 21 C9.99 21 10.98 21 12 21 C12 21.66 12 22.32 12 23 C9.69 23.33 7.38 23.66 5 24 C5.33 23.34 5.66 22.68 6 22 C4.02 21.67 2.04 21.34 0 21 C0 21.66 0 22.32 0 23 C-0.66 23.33 -0.66 23.33 -4 25 C-4 24.01 -4 23.02 -4 22 C-4.99 21.67 -5.98 21.34 -7 21 C-5.68 20.34 -4.36 19.68 -3 19 C-3 17.02 -3 15.04 -3 13 C-3.66 13 -4.32 13 -5 13 C-5.33 11.35 -5.66 9.7 -6 8 C-5.34 8.16 -5.34 8.16 -2 9 C-2 8.01 -2 7.02 -2 6 C-1.34 6 -0.68 6 0 6 C0 4.02 0 2.04 0 0 Z " fill="#C2BFC1" transform="translate(74,36)"/>
<path d="M0 0 C2.64 0 5.28 0 8 0 C8.33 2.31 8.66 4.62 9 7 C10.65 6.67 12.3 6.34 14 6 C14.33 6.49 14.33 6.49 16 9 C13.03 9 10.06 9 7 9 C7 9.66 7 10.32 7 11 C2.71 10.67 -1.58 10.34 -6 10 C-6 8.35 -6 6.7 -6 5 C-3.69 5.33 -1.38 5.66 1 6 C1 5.34 1 4.68 1 4 C1.99 3.67 2.98 3.34 4 3 C2.68 2.67 1.36 2.34 0 2 C0 1.34 0 0.68 0 0 Z " fill="#BCC1CB" transform="translate(102,57)"/>
<path d="M0 0 C0.33 0 0.66 0 1 0 C1 2.97 1 5.94 1 9 C1.83 9.16 1.83 9.16 6 10 C6 10.99 6 11.98 6 13 C6.31 14.34 6.63 15.68 7 17 C4.15 17.81 1.63 18.12 -1.33 18.1 C-2.13 18.09 -2.93 18.09 -3.75 18.09 C-4.58 18.08 -5.4 18.07 -6.25 18.06 C-7.09 18.06 -7.93 18.05 -8.8 18.05 C-10.86 18.04 -12.93 18.02 -15 18 C-15 17.67 -15 17.34 -15 17 C-9.98 16.37 -5.07 15.87 0 16 C-0.99 15.84 -0.99 15.84 -6 15 C-4 14 -2 13 0 12 C-0.99 11.34 -1.98 10.68 -3 10 C-3.45 6.52 -3.39 4.65 -1.56 1.62 C-1.3 1.36 -1.3 1.36 0 0 Z " fill="#9BA9BF" transform="translate(54,49)"/>
<path d="M0 0 C0.66 0 1.32 0 2 0 C2.66 1.65 3.32 3.3 4 5 C4.66 5 5.32 5 6 5 C6 6.32 6 7.64 6 9 C6.95 9.08 7.9 9.16 8.88 9.25 C12 10 12 10 13.38 12.06 C13.58 12.7 13.79 13.34 14 14 C12.68 14.33 11.36 14.66 10 15 C10 14.34 10 13.68 10 13 C6.99 12.07 6.13 11.96 3 13 C3 12.34 3 11.68 3 11 C1.68 11 0.36 11 -1 11 C-1.14 3.57 -1.14 3.57 0 0 Z " fill="#B0BCCC" transform="translate(24,51)"/>
<path d="M0 0 C1.94 -0.05 3.87 -0.09 5.81 -0.12 C6.89 -0.15 7.97 -0.17 9.08 -0.2 C12 0 12 0 15 2 C15.99 1.34 16.98 0.68 18 0 C18.99 0 19.98 0 21 0 C21.33 1.65 21.66 3.3 22 5 C19.27 5.05 16.54 5.09 13.81 5.12 C13.43 5.13 13.43 5.13 11.48 5.18 C7.19 5.21 3.92 5 0 3 C0 2.01 0 1.02 0 0 Z " fill="#C6C5C5" transform="translate(72,62)"/>
<path d="M0 0 C0.33 0 0.66 0 1 0 C1 2.97 1 5.94 1 9 C3.64 8.67 6.28 8.34 9 8 C8.67 8.66 8.34 9.32 8 10 C7.34 10 6.68 10 6 10 C5.34 13.96 4.68 17.92 4 22 C5.32 22 6.64 22 8 22 C8 22.66 8 23.32 8 24 C6.02 24 4.04 24 2 24 C1.67 21.36 1.34 18.72 1 16 C0.67 16.66 0.34 17.32 0 18 C-0.66 18 -1.32 18 -2 18 C-1.65 17.09 -1.3 16.19 -0.94 15.25 C0.05 11.83 -0.14 11.23 -1 8 C-0.8 5.3 -0.4 2.68 0 0 Z " fill="#C6C4C6" transform="translate(53,34)"/>
<path d="M0 0 C0.99 0 1.98 0 3 0 C3.33 2.97 3.66 5.94 4 9 C4.66 9 5.32 9 6 9 C5.67 12.3 5.34 15.6 5 19 C4.34 19 3.68 19 3 19 C3.33 20.32 3.66 21.64 4 23 C2.02 23 0.04 23 -2 23 C-2 21.35 -2 19.7 -2 18 C-1.34 18.33 -0.68 18.66 0 19 C1.07 12.73 2.04 6.13 0 0 Z " fill="#EDE7DE" transform="translate(92,28)"/>
<path d="M0 0 C0 1.65 0 3.3 0 5 C0.66 3.68 1.32 2.36 2 1 C2.33 1 2.66 1 3 1 C3 2.98 3 4.96 3 7 C2.01 7 1.02 7 0 7 C0 7.66 0 8.32 0 9 C-2.31 9 -4.62 9 -7 9 C-7 8.34 -7 7.68 -7 7 C-8.32 6.67 -9.64 6.34 -11 6 C-9.68 5.67 -8.36 5.34 -7 5 C-6.67 3.35 -6.34 1.7 -6 0 C-3 -1 -3 -1 0 0 Z " fill="#DAD4CD" transform="translate(88,36)"/>
<path d="M0 0 C1.32 0.66 2.64 1.32 4 2 C4 2.66 4 3.32 4 4 C6.97 4.33 9.94 4.66 13 5 C13 5.66 13 6.32 13 7 C13.66 7.33 14.32 7.66 15 8 C10.96 8.99 7.32 9.04 3.17 8.88 C1.88 8.83 0.58 8.78 -0.75 8.73 C-2.1 8.68 -3.46 8.62 -4.81 8.56 C-6.19 8.51 -7.56 8.46 -8.94 8.4 C-12.29 8.27 -15.65 8.14 -19 8 C-19 7.67 -19 7.34 -19 7 C-11.74 6.67 -4.48 6.34 3 6 C2.01 4.02 1.02 2.04 0 0 Z " fill="#CFD0D2" transform="translate(58,60)"/>
<path d="M0 0 C0.66 0.33 1.32 0.66 2 1 C2 1.66 2 2.32 2 3 C1.01 2.67 0.02 2.34 -1 2 C-0.67 1.34 -0.34 0.68 0 0 Z " fill="#E6E6EB" transform="translate(50,39)"/>
</svg>
