<?xml version="1.0" encoding="UTF-8"?>
<!-- Generator: visioncortex VTracer 0.6.12 -->
<svg version="1.1" xmlns="http://www.w3.org/2000/svg" width="237" height="67">
<path d="M0 0 C1.98 0.06 1.98 0.06 4 1 C5.27 3.29 5.27 3.29 6.25 6.06 C6.59 6.98 6.92 7.9 7.27 8.85 C7.51 9.56 7.75 10.27 8 11 C8.99 11 9.98 11 11 11 C13 13 13 13 13.75 16.88 C14.49 20.19 15.26 21.63 18.12 23.5 C19.07 24 20.02 24.49 21 25 C21.33 23.68 21.66 22.36 22 21 C22.66 21 23.32 21 24 21 C24.43 21.76 24.87 22.53 25.31 23.31 C27.28 26.45 28.61 27.54 32 29 C35.69 29.38 35.69 29.38 39 29 C39.33 28.51 39.33 28.51 41 26 C43.62 27.05 44.79 27.65 46.25 30.12 C46.5 30.74 46.75 31.36 47 32 C47.6 31.79 48.2 31.59 48.81 31.38 C51 31 51 31 54 33 C56.59 33.12 56.59 33.12 59.5 33 C64.67 32.78 64.67 32.78 68 35 C70.17 35.49 70.17 35.49 72.68 35.82 C73.59 35.94 74.5 36.07 75.44 36.19 C76.38 36.32 77.33 36.44 78.31 36.56 C80.18 36.81 82.05 37.06 83.93 37.32 C84.8 37.43 85.68 37.55 86.58 37.67 C89.4 38.05 92.2 38.51 95 39 C94.67 39.66 94.34 40.32 94 41 C79.81 41 65.62 41 51 41 C51 41.66 51 42.32 51 43 C47.25 43.03 43.5 43.05 39.75 43.06 C39.22 43.07 39.22 43.07 36.53 43.09 C35.5 43.09 34.48 43.09 33.42 43.1 C32.48 43.1 31.54 43.11 30.57 43.11 C28.22 43.01 26.24 42.67 24 42 C24 41.34 24 40.68 24 40 C22.51 40.16 22.51 40.16 15 41 C17.31 41 19.62 41 22 41 C22.33 41.66 22.66 42.32 23 43 C21.92 42.99 20.85 42.98 19.74 42.96 C11.63 42.91 3.63 43.04 -4.46 43.78 C-7 44 -7 44 -10 44 C-9.34 44.16 -9.34 44.16 -6 45 C-6 45.66 -6 46.32 -6 47 C-6.71 46.99 -7.42 46.98 -8.15 46.96 C-9.07 46.96 -9.99 46.95 -10.94 46.94 C-11.85 46.93 -12.77 46.91 -13.71 46.9 C-16 47 -16 47 -17 48 C-18.7 48.1 -20.4 48.13 -22.1 48.13 C-23.15 48.13 -24.2 48.14 -25.28 48.14 C-26.38 48.13 -27.49 48.13 -28.62 48.12 C-29.71 48.13 -30.79 48.13 -31.9 48.14 C-37.39 48.13 -42.59 47.9 -48 47 C-50.33 46.96 -52.67 46.95 -55 47 C-55.33 46.34 -55.66 45.68 -56 45 C-52.37 45 -48.74 45 -45 45 C-45 44.34 -45 43.68 -45 43 C-45.33 43.16 -45.33 43.16 -47 44 C-50.85 44.24 -54.71 44.19 -58.56 44.19 C-59.62 44.2 -60.68 44.21 -61.78 44.22 C-67.43 44.24 -72.49 43.85 -77.96 42.45 C-81.15 41.75 -84.25 41.77 -87.5 41.81 C-88.1 41.82 -88.1 41.82 -91.16 41.83 C-94 42 -94 42 -95 43 C-104.53 43.55 -113.62 42.77 -123 41 C-120.01 39.01 -117.39 38.11 -114 37 C-113.84 36.84 -113.84 36.84 -113 36 C-112.01 36.04 -111.02 36.08 -110 36.12 C-105.38 36.2 -101.2 34.86 -97 33 C-96.34 32.34 -95.68 31.68 -95 31 C-93.33 30.96 -91.67 30.96 -90 31 C-87.81 30.88 -87.81 30.88 -86 30 C-84.75 26.94 -84.75 26.94 -84 24 C-82.68 24 -81.36 24 -80 24 C-79.84 24.66 -79.84 24.66 -79 28 C-77.39 27.91 -75.79 27.8 -74.19 27.69 C-73.29 27.63 -72.4 27.57 -71.48 27.51 C-68.63 26.92 -67.73 26.29 -66 24 C-64.81 20.81 -64.81 20.81 -64 18 C-62.68 18 -61.36 18 -60 18 C-59.71 17.07 -59.42 16.14 -59.12 15.19 C-58 12 -58 12 -56 9 C-54.19 9.19 -54.19 9.19 -52 10 C-49.86 12.91 -49 14.36 -49 18 C-48.34 18 -47.68 18 -47 18 C-46.67 18.66 -46.67 18.66 -45 22 C-43.68 20.68 -42.36 19.36 -41 18 C-40.87 18.28 -40.87 18.28 -40.2 19.71 C-39.84 20.45 -39.49 21.18 -39.12 21.94 C-38.78 22.67 -38.43 23.4 -38.07 24.15 C-37 26 -37 26 -35 27 C-35 27.66 -35 28.32 -35 29 C-26.07 27.36 -26.07 27.36 -23.45 24.02 C-22.48 22.04 -21.67 20.1 -21 18 C-20.38 18.66 -19.76 19.32 -19.12 20 C-17 22 -17 22 -15 22 C-9.63 12.59 -9.63 12.59 -8 8 C-6.68 8 -5.36 8 -4 8 C-3.71 7.05 -3.42 6.1 -3.12 5.12 C-2 2 -2 2 0 0 Z " fill="#BFCBD9" transform="translate(133,10)"/>
<path d="M0 0 C1.81 0.19 1.81 0.19 4 1 C6.14 3.91 7 5.36 7 9 C7.66 9 8.32 9 9 9 C9.66 10.32 10.32 11.64 11 13 C12.32 11.68 13.64 10.36 15 9 C15.13 9.28 15.13 9.28 15.8 10.71 C16.16 11.45 16.51 12.18 16.88 12.94 C17.22 13.67 17.57 14.4 17.93 15.15 C19 17 19 17 21 18 C21 18.66 21 19.32 21 20 C21.66 20.33 22.32 20.66 23 21 C20.29 22.35 17.99 22.07 15 22 C15 22.99 15 23.98 15 25 C12.69 24.34 10.38 23.68 8 23 C8.33 23.33 8.66 23.66 9 24 C9 24.66 9 25.32 9 26 C10.98 26 12.96 26 15 26 C15 26.99 15 27.98 15 29 C18.3 29 21.6 29 25 29 C24.01 28.67 23.02 28.34 22 28 C22.33 27.34 22.66 26.68 23 26 C23.99 26.33 24.98 26.66 26 27 C25.84 26.34 25.84 26.34 25 23 C25.54 23.29 26.07 23.58 26.62 23.88 C29.35 25.17 32.13 26.09 35 27 C34.67 27.66 34.34 28.32 34 29 C36.97 29.33 39.94 29.66 43 30 C43 29.34 43 28.68 43 28 C44.32 27.67 45.64 27.34 47 27 C45.68 26.67 44.36 26.34 43 26 C43.33 25.34 43.66 24.68 44 24 C47.3 24.33 50.6 24.66 54 25 C53.67 26.32 53.34 27.64 53 29 C53.5 29.16 53.5 29.16 56 30 C56.16 30.49 56.16 30.49 57 33 C52.22 33.16 52.22 33.16 28 34 C27.67 34.99 27.34 35.98 27 37 C26.01 36.67 25.02 36.34 24 36 C24 35.01 24 34.02 24 33 C24.99 32.67 25.98 32.34 27 32 C25.04 31.95 23.08 31.91 21.12 31.88 C20.03 31.85 18.94 31.83 17.82 31.8 C15 32 15 32 13 34 C10.84 33.76 10.84 33.76 8.38 33.12 C7.56 32.92 6.74 32.72 5.9 32.51 C5.59 32.42 5.59 32.42 4 32 C4 32.66 4 33.32 4 34 C3.01 33.67 2.02 33.34 1 33 C0.67 32.34 0.34 31.68 0 31 C-7.76 28.56 -15.68 28.88 -23.69 29.38 C-24.78 29.43 -25.88 29.49 -27.01 29.55 C-29.67 29.69 -32.34 29.84 -35 30 C-35.33 29.34 -35.66 28.68 -36 28 C-34.87 27.71 -33.73 27.42 -32.56 27.12 C-31.39 26.75 -30.21 26.38 -29 26 C-28.67 25.34 -28.34 24.68 -28 24 C-26.02 24 -24.04 24 -22 24 C-21.67 23.01 -21.34 22.02 -21 21 C-20.01 21 -19.02 21 -18 21 C-18 20.01 -18 19.02 -18 18 C-16.84 17.84 -16.84 17.84 -11 17 C-10.01 14.36 -9.02 11.72 -8 9 C-6.68 9 -5.36 9 -4 9 C-3.71 8.07 -3.42 7.14 -3.12 6.19 C-2 3 -2 3 0 0 Z " fill="#C9D0DA" transform="translate(77,19)"/>
<path d="M0 0 C1.32 0.66 2.64 1.32 4 2 C4 2.99 4 3.98 4 5 C5.65 5 7.3 5 9 5 C9 5.66 9 6.32 9 7 C8.01 7 7.02 7 6 7 C5.67 8.32 5.34 9.64 5 11 C4.15 10.92 3.31 10.84 2.44 10.75 C-0.9 10.99 -1.98 11.36 -4.71 13.02 C-5.8 13.67 -6.88 14.33 -8 15 C-7.34 14.96 -6.67 14.92 -5.99 14.88 C18.37 13.44 18.37 13.44 28 16 C28.16 16.49 28.16 16.49 29 19 C29.66 19.33 30.32 19.66 31 20 C31 19.34 31 18.68 31 18 C34.33 18 37.67 18 41 18 C41.16 17.84 41.16 17.84 42 17 C44.35 16.93 46.71 16.92 49.06 16.94 C49.71 16.94 49.71 16.94 52.97 16.96 C53.97 16.98 54.97 16.99 56 17 C55.34 17.66 54.68 18.32 54 19 C53.01 19 52.02 19 51 19 C51 19.99 51 20.98 51 22 C51.99 22 52.98 22 54 22 C54.41 21.51 54.81 21.02 55.23 20.52 C57.95 18.18 60.88 18.63 64.29 18.71 C64.65 18.71 64.65 18.71 66.43 18.72 C68.68 18.74 70.94 18.77 73.19 18.81 C74.72 18.83 76.24 18.84 77.77 18.85 C81.51 18.89 85.26 18.94 89 19 C89 19.33 89 19.66 89 20 C86.9 20.17 84.79 20.33 82.69 20.5 C81.52 20.59 80.34 20.69 79.14 20.78 C77.09 20.92 75.05 21 73 21 C73.66 21.16 73.66 21.16 77 22 C77 22.66 77 23.32 77 24 C76.29 23.99 75.58 23.98 74.85 23.96 C73.93 23.96 73.01 23.95 72.06 23.94 C71.15 23.93 70.23 23.91 69.29 23.9 C67 24 67 24 66 25 C64.3 25.1 62.6 25.13 60.9 25.13 C59.85 25.13 58.8 25.14 57.72 25.14 C56.62 25.13 55.51 25.13 54.38 25.12 C53.29 25.13 52.21 25.13 51.1 25.14 C45.61 25.13 40.41 24.9 35 24 C32.67 23.96 30.33 23.95 28 24 C27.84 23.67 27.84 23.67 27 22 C30.63 22 34.26 22 38 22 C38 21.34 38 20.68 38 20 C37.34 20.33 36.68 20.66 36 21 C32.15 21.24 28.29 21.19 24.44 21.19 C23.38 21.2 22.32 21.21 21.22 21.22 C15.57 21.24 10.51 20.85 5.04 19.45 C1.85 18.75 -1.25 18.77 -4.5 18.81 C-5.1 18.82 -5.1 18.82 -8.16 18.83 C-11 19 -11 19 -12 20 C-21.53 20.55 -30.62 19.77 -40 18 C-37.01 16.01 -34.39 15.11 -31 14 C-30.67 13.67 -30.34 13.34 -30 13 C-29.01 13.04 -28.02 13.08 -27 13.12 C-22.38 13.2 -18.2 11.86 -14 10 C-13.34 9.34 -12.68 8.68 -12 8 C-10.33 7.96 -8.67 7.96 -7 8 C-4.81 7.88 -4.81 7.88 -3 7 C-1.81 4 -1.81 4 -1 1 C-0.67 0.67 -0.34 0.34 0 0 Z " fill="#C9D2DF" transform="translate(50,33)"/>
<path d="M0 0 C2.62 1.05 3.79 1.65 5.25 4.12 C5.5 4.74 5.75 5.36 6 6 C6.6 5.79 7.2 5.59 7.81 5.38 C10 5 10 5 13 7 C15.59 7.12 15.59 7.12 18.5 7 C23.67 6.78 23.67 6.78 27 9 C29.17 9.49 29.17 9.49 31.68 9.82 C32.59 9.94 33.5 10.07 34.44 10.19 C35.38 10.32 36.33 10.44 37.31 10.56 C39.18 10.81 41.05 11.06 42.93 11.32 C43.8 11.43 44.68 11.55 45.58 11.67 C48.4 12.05 51.2 12.51 54 13 C53.67 13.66 53.34 14.32 53 15 C38.81 15 24.62 15 10 15 C10 15.66 10 16.32 10 17 C6.25 17.03 2.5 17.05 -1.25 17.06 C-1.78 17.07 -1.78 17.07 -4.47 17.09 C-5.5 17.09 -6.52 17.09 -7.58 17.1 C-8.05 17.1 -8.05 17.1 -10.43 17.11 C-12.78 17.01 -14.76 16.67 -17 16 C-17 15.34 -17 14.68 -17 14 C-18.49 14.16 -18.49 14.16 -26 15 C-23.69 15 -21.38 15 -19 15 C-18.67 15.66 -18.34 16.32 -18 17 C-19.92 17.05 -21.83 17.09 -23.75 17.12 C-24.82 17.15 -25.88 17.17 -26.98 17.2 C-29.92 17 -31.52 16.53 -34 15 C-33.01 15 -32.02 15 -31 15 C-31 14.34 -31 13.68 -31 13 C-26.71 12.67 -26.71 12.67 -5 11 C-5 10.34 -5 9.68 -5 9 C-2.03 9 0.94 9 4 9 C0.25 4.12 0.25 4.12 -2 3 C-1.34 2.01 -0.68 1.02 0 0 Z " fill="#D8DEE7" transform="translate(174,36)"/>
<path d="M0 0 C0.99 0 1.98 0 3 0 C2.69 2.08 2.38 4.17 2.06 6.25 C1.89 7.41 1.71 8.57 1.54 9.77 C1.13 12.23 0.66 14.59 0 17 C1.32 17 2.64 17 4 17 C3.12 22.75 3.12 22.75 2 25 C3.32 25 4.64 25 6 25 C5.34 26.32 4.68 27.64 4 29 C3.01 29 2.02 29 1 29 C0.84 28.51 0.84 28.51 0 26 C-0.86 26.48 -1.71 26.96 -2.6 27.46 C-8.54 30.01 -15.08 29.58 -21.44 29.69 C-22.74 29.72 -24.05 29.76 -25.39 29.79 C-28.59 29.87 -31.8 29.94 -35 30 C-35.33 29.34 -35.66 28.68 -36 28 C-34.87 27.71 -33.73 27.42 -32.56 27.12 C-31.39 26.75 -30.21 26.38 -29 26 C-28.67 25.34 -28.34 24.68 -28 24 C-26.02 24 -24.04 24 -22 24 C-21.67 23.01 -21.34 22.02 -21 21 C-20.01 21 -19.02 21 -18 21 C-18 20.01 -18 19.02 -18 18 C-16.84 17.84 -16.84 17.84 -11 17 C-10.01 14.36 -9.02 11.72 -8 9 C-6.68 9 -5.36 9 -4 9 C-3.71 8.07 -3.42 7.14 -3.12 6.19 C-2 3 -2 3 0 0 Z " fill="#A6B7CD" transform="translate(77,19)"/>
<path d="M0 0 C0.66 0 1.32 0 2 0 C2.12 5.75 2.12 5.75 1 8 C1.66 8 2.32 8 3 8 C3.66 9.65 4.32 11.3 5 13 C4.01 12.67 3.02 12.34 2 12 C2 13.98 2 15.96 2 18 C1.01 18 0.02 18 -1 18 C-1.14 18.78 -1.29 19.57 -1.44 20.38 C-2 23 -2 23 -3 25 C-2.34 25 -1.68 25 -1 25 C-1.36 27.58 -1.77 28.78 -3.66 30.62 C-6.69 32.41 -8.76 32.3 -12.25 32.19 C-12.79 32.17 -12.79 32.17 -15.52 32.11 C-16.34 32.07 -17.16 32.04 -18 32 C-18 30.68 -18 29.36 -18 28 C-19.65 27.67 -21.3 27.34 -23 27 C-22.49 23.28 -21.88 20.27 -20 17 C-19.38 17.66 -18.76 18.32 -18.12 19 C-16 21 -16 21 -14 21 C-8.63 11.59 -8.63 11.59 -7 7 C-5.68 7 -4.36 7 -3 7 C-2.69 6.03 -2.38 5.06 -2.06 4.06 C-1 1 -1 1 0 0 Z " fill="#ABBCD1" transform="translate(132,11)"/>
<path d="M0 0 C0.78 0.49 1.57 0.99 2.38 1.5 C7.05 3.43 11.01 3.27 16 3 C16.05 3.32 16.05 3.32 16.31 4.94 C16.43 5.28 16.43 5.28 17 7 C17.99 7.33 18.98 7.66 20 8 C19.67 8.66 19.34 9.32 19 10 C12.25 10.12 12.25 10.12 10 9 C10 9.66 10 10.32 10 11 C1.26 12.79 -7.09 13.24 -16 13 C-16 13.66 -16 14.32 -16 15 C-18.31 15.33 -20.62 15.66 -23 16 C-22.01 15.67 -21.02 15.34 -20 15 C-19.67 14.01 -19.34 13.02 -19 12 C-18.01 12 -17.02 12 -16 12 C-16 11.34 -16 10.68 -16 10 C-17.65 10 -19.3 10 -21 10 C-21.27 9.03 -21.54 8.06 -21.81 7.06 C-22.2 6.05 -22.6 5.04 -23 4 C-23.99 3.67 -24.98 3.34 -26 3 C-25.01 2.34 -24.02 1.68 -23 1 C-22.01 1.33 -21.02 1.66 -20 2 C-19.31 4.06 -19.31 4.06 -19 6 C-17.68 6 -16.36 6 -15 6 C-15.33 4.68 -15.66 3.36 -16 2 C-14.35 2 -12.7 2 -11 2 C-11 2.99 -11 3.98 -11 5 C-11.66 5 -12.32 5 -13 5 C-13 5.99 -13 6.98 -13 8 C-12.34 8 -11.68 8 -11 8 C-10.67 7.01 -10.34 6.02 -10 5 C-9.01 5 -8.02 5 -7 5 C-7 5.66 -7 6.32 -7 7 C-5.68 7.33 -4.36 7.66 -3 8 C-3 7.34 -3 6.68 -3 6 C-3.99 5.67 -4.98 5.34 -6 5 C-6 4.01 -6 3.02 -6 2 C-4.35 2 -2.7 2 -1 2 C-0.67 1.34 -0.34 0.68 0 0 Z " fill="#D2D8E0" transform="translate(159,36)"/>
<path d="M0 0 C2.97 0.33 5.94 0.66 9 1 C9.33 1.99 9.66 2.98 10 4 C10.66 4.33 11.32 4.66 12 5 C12 4.34 12 3.68 12 3 C15.33 3 18.67 3 22 3 C22.33 2.67 22.66 2.34 23 2 C25.35 1.93 27.71 1.92 30.06 1.94 C31.35 1.95 32.64 1.96 33.97 1.96 C34.97 1.98 35.97 1.99 37 2 C36.34 2.66 35.68 3.32 35 4 C34.01 4 33.02 4 32 4 C32 4.99 32 5.98 32 7 C32.99 7 33.98 7 35 7 C35.2 6.76 35.2 6.76 36.23 5.52 C38.95 3.18 41.88 3.63 45.29 3.71 C45.65 3.71 45.65 3.71 47.43 3.72 C49.68 3.74 51.94 3.77 54.19 3.81 C55.72 3.83 57.24 3.84 58.77 3.85 C62.51 3.89 66.26 3.94 70 4 C70 4.33 70 4.66 70 5 C67.9 5.17 65.79 5.33 63.69 5.5 C62.52 5.59 61.34 5.69 60.14 5.78 C58.09 5.92 56.05 6 54 6 C55.32 6.33 56.64 6.66 58 7 C58 7.66 58 8.32 58 9 C57.29 8.99 56.58 8.98 55.85 8.96 C54.93 8.96 54.01 8.95 53.06 8.94 C52.15 8.93 51.23 8.91 50.29 8.9 C48 9 48 9 47 10 C45.3 10.1 43.6 10.13 41.9 10.13 C40.85 10.13 39.8 10.14 38.72 10.14 C37.62 10.13 36.51 10.13 35.38 10.12 C34.83 10.13 34.83 10.13 32.1 10.14 C26.61 10.13 21.41 9.9 16 9 C13.67 8.96 11.33 8.95 9 9 C8.67 8.34 8.34 7.68 8 7 C11.63 7 15.26 7 19 7 C19 6.34 19 5.68 19 5 C18.67 5.16 18.67 5.16 17 6 C15.25 6.1 13.49 6.13 11.73 6.13 C11.2 6.13 11.2 6.13 8.54 6.14 C7.98 6.13 7.98 6.13 5.19 6.12 C4.64 6.13 4.64 6.13 1.87 6.14 C1.34 6.14 1.34 6.14 -1.33 6.13 C-2.3 6.13 -3.27 6.13 -4.26 6.13 C-6.94 6 -9.39 5.6 -12 5 C-12 4.67 -12 4.34 -12 4 C-7.38 3.67 -2.76 3.34 2 3 C1.34 2.67 0.68 2.34 0 2 C0 1.34 0 0.68 0 0 Z " fill="#DFE5EF" transform="translate(69,48)"/>
<path d="M0 0 C1.32 0.33 2.64 0.66 4 1 C5.27 3.29 5.27 3.29 6.25 6.06 C6.59 6.98 6.92 7.9 7.27 8.85 C7.51 9.56 7.75 10.27 8 11 C8.99 11 9.98 11 11 11 C13 13 13 13 13.75 16.88 C14.49 20.19 15.26 21.63 18.12 23.5 C19.07 24 20.02 24.49 21 25 C20.34 25.33 19.68 25.66 19 26 C19 26.66 19 27.32 19 28 C18.38 27.65 17.76 27.3 17.12 26.94 C16.42 26.63 15.72 26.32 15 26 C14.34 26.33 13.68 26.66 13 27 C10 23.25 10 23.25 10 21 C9.34 21 8.68 21 8 21 C7.34 21.66 6.68 22.32 6 23 C5.34 21.35 4.68 19.7 4 18 C3.34 18 2.68 18 2 18 C4.75 22.88 4.75 22.88 7 24 C6.67 24.66 6.34 25.32 6 26 C5.26 25.84 4.51 25.67 3.75 25.5 C1 25 1 25 -3 25 C-2.67 23.02 -2.34 21.04 -2 19 C-1.01 19 -0.02 19 1 19 C1 17.02 1 15.04 1 13 C1.66 12.67 2.32 12.34 3 12 C2.67 11.01 2.34 10.02 2 9 C1.34 9 0.68 9 0 9 C0 6.03 0 3.06 0 0 Z " fill="#DCDADA" transform="translate(133,10)"/>
<path d="M0 0 C0.27 0.14 0.27 0.14 1.62 0.88 C4.35 2.17 7.13 3.09 10 4 C9.67 4.66 9.34 5.32 9 6 C11.97 6.33 14.94 6.66 18 7 C18 6.34 18 5.68 18 5 C19.32 4.67 20.64 4.34 22 4 C20.68 3.67 19.36 3.34 18 3 C18.33 2.34 18.66 1.68 19 1 C22.3 1.33 25.6 1.66 29 2 C28.67 3.32 28.34 4.64 28 6 C28.99 6.33 29.98 6.66 31 7 C31.16 7.49 31.16 7.49 32 10 C22.43 10.33 12.86 10.66 3 11 C2.67 11.99 2.34 12.98 2 14 C1.01 13.67 0.02 13.34 -1 13 C-1 12.01 -1 11.02 -1 10 C-0.01 9.67 0.98 9.34 2 9 C-0.97 8.67 -3.94 8.34 -7 8 C-7 7.67 -7 7.34 -7 7 C-5.84 6.84 -5.84 6.84 0 6 C-0.99 5.67 -1.98 5.34 -3 5 C-2.67 4.34 -2.34 3.68 -2 3 C-1.01 3.33 -0.02 3.66 1 4 C0.67 2.68 0.34 1.36 0 0 Z " fill="#CFD8E3" transform="translate(102,42)"/>
<path d="M0 0 C0.99 0 1.98 0 3 0 C2.69 2.08 2.38 4.17 2.06 6.25 C1.98 6.83 1.98 6.83 1.54 9.77 C1.13 12.23 0.66 14.59 0 17 C1.32 17 2.64 17 4 17 C3.67 18.98 3.34 20.96 3 23 C2.67 22.34 2.34 21.68 2 21 C0.02 20.27 -1.98 19.6 -4 19 C-4 18.34 -4 17.68 -4 17 C-4.22 17.19 -4.22 17.19 -5.36 18.16 C-7.19 19.63 -8.91 20.92 -11 22 C-13.94 21.31 -13.94 21.31 -16 20 C-15.01 19.34 -14.02 18.68 -13 18 C-9.88 15.5 -9.09 12.78 -8 9 C-6.68 9 -5.36 9 -4 9 C-3.71 8.07 -3.42 7.14 -3.12 6.19 C-2 3 -2 3 0 0 Z " fill="#B7C3D5" transform="translate(77,19)"/>
<path d="M0 0 C0.66 0 1.32 0 2 0 C2 0.66 2 1.32 2 2 C2.61 1.98 3.23 1.95 3.86 1.93 C4.67 1.91 5.48 1.89 6.31 1.88 C7.11 1.85 7.91 1.83 8.74 1.8 C11 2 11 2 14 4 C8.39 4 2.78 4 -3 4 C-3 4.66 -3 5.32 -3 6 C-6.75 6.03 -10.5 6.05 -14.25 6.06 C-14.78 6.07 -14.78 6.07 -17.47 6.09 C-18.5 6.09 -19.52 6.09 -20.58 6.1 C-21.05 6.1 -21.05 6.1 -23.43 6.11 C-25.78 6.01 -27.76 5.67 -30 5 C-30 4.34 -30 3.68 -30 3 C-31.49 3.16 -31.49 3.16 -39 4 C-36.69 4 -34.38 4 -32 4 C-31.67 4.66 -31.34 5.32 -31 6 C-32.92 6.05 -34.83 6.09 -36.75 6.12 C-37.28 6.14 -37.28 6.14 -39.98 6.2 C-42.92 6 -44.52 5.53 -47 4 C-46.01 4 -45.02 4 -44 4 C-44 3.34 -44 2.68 -44 2 C-40.7 1.84 -40.7 1.84 -24 1 C-24 1.33 -24 1.66 -24 2 C-18.25 3.12 -18.25 3.12 -16 2 C-12.77 1.74 -9.55 1.56 -6.32 1.39 C-1.1 1.1 -1.1 1.1 0 0 Z " fill="#E1E6EE" transform="translate(187,47)"/>
<path d="M0 0 C0.83 0.16 0.83 0.16 5 1 C5 1.66 5 2.32 5 3 C8.19 5.13 10.27 5.5 14 6 C14 6.66 14 7.32 14 8 C15.98 8.66 17.96 9.32 20 10 C20 10.33 20 10.66 20 11 C14.58 12.23 14.58 12.23 11.62 11.06 C11.09 10.71 10.55 10.36 10 10 C10 9.34 10 8.68 10 8 C9.24 7.71 8.47 7.42 7.69 7.12 C5 6 5 6 2 4 C2.33 5.32 2.66 6.64 3 8 C1.68 8.33 0.36 8.66 -1 9 C0.32 9.33 1.64 9.66 3 10 C3 10.33 3 10.66 3 11 C-0.63 11 -4.26 11 -8 11 C-8.33 10.01 -8.66 9.02 -9 8 C-10.65 7.67 -12.3 7.34 -14 7 C-14 6.34 -14 5.68 -14 5 C-14.66 5 -15.32 5 -16 5 C-15.67 4.34 -15.34 3.68 -15 3 C-13.84 3.49 -13.84 3.49 -8 6 C-8 5.01 -8 4.02 -8 3 C-5.36 2.67 -2.72 2.34 0 2 C0 1.34 0 0.68 0 0 Z " fill="#B6C3D3" transform="translate(100,38)"/>
<path d="M0 0 C0 0.66 0 1.32 0 2 C0.66 2.33 1.32 2.66 2 3 C1.34 3 0.68 3 0 3 C0 4.32 0 5.64 0 7 C1.32 7.33 2.64 7.66 4 8 C-5.6 8.24 -14.53 7.79 -24 6 C-21.01 4.01 -18.39 3.11 -15 2 C-14.67 1.67 -14.34 1.34 -14 1 C-11.67 1 -9.33 1 -7 1 C-4.54 -0.23 -2.72 -0.07 0 0 Z " fill="#D2DCEA" transform="translate(34,45)"/>
<path d="M0 0 C0 0.66 0 1.32 0 2 C2.31 2.33 4.62 2.66 7 3 C7 3.33 7 3.66 7 4 C-5.54 4 -18.08 4 -31 4 C-31 2.68 -31 1.36 -31 0 C-27.33 -0.2 -23.67 -0.38 -20 -0.56 C-18.97 -0.62 -17.94 -0.67 -16.88 -0.73 C-11.09 -1.01 -5.72 -0.93 0 0 Z " fill="#D0D8E4" transform="translate(69,48)"/>
<path d="M0 0 C1.88 1 1.88 1 4 3 C4.5 4.84 4.5 4.84 4.88 6.94 C5.36 9.4 5.64 10.65 7.45 12.41 C9.12 13.5 9.12 13.5 12 15 C11.67 15.16 11.67 15.16 10 16 C10 16.66 10 17.32 10 18 C9.69 17.82 9.69 17.82 8.12 16.94 C7.42 16.63 6.72 16.32 6 16 C5.34 16.33 4.68 16.66 4 17 C1 13.25 1 13.25 1 11 C0.34 11 -0.32 11 -1 11 C-1.66 11.66 -2.32 12.32 -3 13 C-3.66 11.68 -4.32 10.36 -5 9 C-3.68 9 -2.36 9 -1 9 C-1.33 7.35 -1.66 5.7 -2 4 C-1.34 4 -0.68 4 0 4 C0 2.68 0 1.36 0 0 Z " fill="#CCD3DB" transform="translate(142,20)"/>
<path d="M0 0 C0.66 0 1.32 0 2 0 C2.12 5.75 2.12 5.75 1 8 C1.66 8 2.32 8 3 8 C3.66 9.65 4.32 11.3 5 13 C4.01 12.67 3.02 12.34 2 12 C2 13.98 2 15.96 2 18 C1.34 17.34 0.68 16.68 0 16 C-0.66 17.32 -1.32 18.64 -2 20 C-2.66 20 -3.32 20 -4 20 C-5.13 16.62 -4.69 14.44 -4 11 C-4.44 8.69 -4.44 8.69 -5 7 C-4.34 7 -3.68 7 -3 7 C-2.69 6.03 -2.38 5.06 -2.06 4.06 C-1 1 -1 1 0 0 Z " fill="#B9C0CD" transform="translate(132,11)"/>
<path d="M0 0 C4.29 0 8.58 0 13 0 C13 0.99 13 1.98 13 3 C13.6 2.9 14.21 2.81 14.83 2.71 C15.23 2.66 15.23 2.66 17.25 2.38 C18.04 2.26 18.83 2.14 19.64 2.02 C22.32 2 23.73 2.63 26 4 C19.17 4.99 12.39 5.31 5.5 5.56 C4.39 5.61 3.28 5.65 2.14 5.69 C-0.57 5.8 -3.29 5.9 -6 6 C-6.33 5.34 -6.66 4.68 -7 4 C-4.69 3.34 -2.38 2.68 0 2 C0 1.34 0 0.68 0 0 Z " fill="#B5C3D5" transform="translate(48,43)"/>
<path d="M0 0 C0.66 0 1.32 0 2 0 C4 3 4 3 3.62 5.69 C3.42 6.45 3.21 7.21 3 8 C1.35 7.67 -0.3 7.34 -2 7 C-1.67 7.99 -1.34 8.98 -1 10 C-0.34 10.33 0.32 10.66 1 11 C1 11.66 1 12.32 1 13 C-0.32 12.67 -1.64 12.34 -3 12 C-3 11.34 -3 10.68 -3 10 C-6 11 -6 11 -7 13 C-7.66 13 -8.32 13 -9 13 C-9 12.01 -9 11.02 -9 10 C-8.34 10 -7.68 10 -7 10 C-7 9.01 -7 8.02 -7 7 C-8.32 6.67 -9.64 6.34 -11 6 C-10.34 5.34 -9.68 4.68 -9 4 C-7 5 -5 6 -3 7 C-3 6.34 -3 5.68 -3 5 C-2.34 5 -1.68 5 -1 5 C-0.67 3.35 -0.34 1.7 0 0 Z " fill="#BEC8D6" transform="translate(155,31)"/>
<path d="M0 0 C2 0.25 2 0.25 4 1 C4.33 1.99 4.66 2.98 5 4 C6.65 4.33 8.3 4.66 10 5 C10 5.66 10 6.32 10 7 C9.01 7.33 8.02 7.66 7 8 C6.67 8.66 6.34 9.32 6 10 C3.69 10.88 3.69 10.88 1 11 C-1.31 9.06 -1.31 9.06 -3 7 C-1.12 1.12 -1.12 1.12 0 0 Z " fill="#B0C2D9" transform="translate(133,41)"/>
<path d="M0 0 C0.3 0.33 0.3 0.33 1.81 2 C4 4 4 4 7 4 C7 4.66 7 5.32 7 6 C6.67 6.16 6.67 6.16 5 7 C5 8.32 5 9.64 5 11 C4.7 12.34 4.38 13.68 4 15 C3.34 15 2.68 15 2 15 C2 13.68 2 12.36 2 11 C0.35 10.67 -1.3 10.34 -3 10 C-2.49 6.28 -1.88 3.27 0 0 Z " fill="#B2C1D6" transform="translate(112,28)"/>
<path d="M0 0 C3.95 -0.18 6.6 -0.09 10 2 C10 2.66 10 3.32 10 4 C6.83 5.59 3.36 5.38 -0.12 5.56 C-0.88 5.61 -1.63 5.65 -2.41 5.69 C-4.27 5.8 -6.14 5.9 -8 6 C-7.34 4.68 -6.68 3.36 -6 2 C-4.02 2 -2.04 2 0 2 C0 1.34 0 0.68 0 0 Z " fill="#B5C3D5" transform="translate(158,43)"/>
<path d="M0 0 C0.99 0.33 1.98 0.66 3 1 C4.81 4.76 3.59 9.04 3 13 C3.66 13 4.32 13 5 13 C5.12 12.36 5.25 11.72 5.38 11.06 C5.58 10.38 5.79 9.7 6 9 C6.66 8.67 7.32 8.34 8 8 C8 8.99 8 9.98 8 11 C7.34 11 6.68 11 6 11 C5.86 11.78 5.71 12.57 5.56 13.38 C5 16 5 16 4 18 C4.66 18 5.32 18 6 18 C6 18.99 6 19.98 6 21 C5.01 21 4.02 21 3 21 C3 18.69 3 16.38 3 14 C1.02 14.33 -0.96 14.66 -3 15 C-2.53 14.13 -2.05 13.27 -1.56 12.38 C0.48 7.95 1.56 4.69 0 0 Z " fill="#9BACC4" transform="translate(125,18)"/>
</svg>
