<?xml version="1.0" encoding="UTF-8"?>
<!-- Generator: visioncortex VTracer 0.6.12 -->
<svg version="1.1" xmlns="http://www.w3.org/2000/svg" width="398" height="90">
<path d="M0 0 C2.34 2.13 3.81 4.06 5 7 C5 7.99 5 8.98 5 10 C5.99 10.33 6.98 10.66 8 11 C8.7 12.99 9.37 14.99 10 17 C10.66 17.33 11.32 17.66 12 18 C12 19.32 12 20.64 12 22 C12.6 21.4 13.2 20.8 13.81 20.19 C15.54 18.46 17.27 16.73 19 15 C19.16 15.66 19.16 15.66 20 19 C20.66 19 21.32 19 22 19 C22.33 20.16 22.33 20.16 24 26 C25.32 25.67 26.64 25.34 28 25 C28.2 25.55 28.2 25.55 29.19 28.31 C30.7 31.91 32.4 33.35 36 35 C36 34.34 36 33.68 36 33 C36.66 33.16 36.66 33.16 40 34 C40 35.32 40 36.64 40 38 C40.51 38.06 40.51 38.06 43.06 38.38 C47 39 47 39 50.44 40 C54.51 41.14 57.76 41.93 62 42 C64.5 39.56 64.5 39.56 66 37 C68.26 37.48 70.07 38.04 72.12 39.12 C72.74 39.41 73.36 39.7 74 40 C74.66 39.67 75.32 39.34 76 39 C77.68 39.28 79.35 39.61 81 40 C81.33 38.35 81.66 36.7 82 35 C82.99 35 83.98 35 85 35 C85.06 34.69 85.06 34.69 85.38 33.12 C86 31 86 31 88 29 C88.99 29 89.98 29 91 29 C92.67 32.33 94.33 35.67 96 39 C97.32 39 98.64 39 100 39 C100 39.66 100 40.32 100 41 C100.99 40.67 101.98 40.34 103 40 C103.33 39.34 103.66 38.68 104 38 C104.66 38 105.32 38 106 38 C106.45 38.97 106.91 39.94 107.38 40.94 C108.42 42.61 108.42 42.61 110 44 C112.96 44.55 115.8 44.63 118.8 44.72 C123.62 45.14 127.67 46.94 132 49 C132 49.66 132 50.32 132 51 C129.79 51.17 127.58 51.34 125.38 51.5 C124.15 51.59 122.92 51.69 121.65 51.78 C119.33 51.92 117.01 52 114.68 52 C112 52 112 52 109.69 52.56 C105.72 53.21 101.96 52.56 98 52 C97.67 52.99 97.34 53.98 97 55 C95.93 54.99 94.86 54.98 93.75 54.96 C92.36 54.96 90.96 54.95 89.56 54.94 C88.86 54.93 88.15 54.92 87.42 54.91 C85.61 54.9 83.81 54.95 82 55 C81.67 55.33 81.34 55.66 81 56 C78.68 56.06 76.36 56.06 74.04 56.03 C72.61 56.01 71.17 56 69.73 55.99 C67.46 55.97 65.19 55.94 62.92 55.9 C60.73 55.87 58.54 55.86 56.36 55.84 C55.04 55.82 53.73 55.81 52.38 55.79 C49.15 55.99 47.75 56.51 45 58 C42.99 58.04 42.99 58.04 40.89 57.76 C40.51 57.71 40.51 57.71 38.61 57.46 C37.83 57.35 37.05 57.24 36.25 57.12 C35.46 57.02 34.66 56.92 33.85 56.81 C31.9 56.55 29.95 56.28 28 56 C28 55.01 28 54.02 28 53 C29.32 52.67 30.64 52.34 32 52 C26.68 52.44 21.49 53.06 16.25 54.12 C12.19 54.91 9.08 54.97 5 54 C4.67 54.33 4.34 54.66 4 55 C6.31 55.33 8.62 55.66 11 56 C11 56.99 11 57.98 11 59 C7.92 59.91 5.2 60 2 60 C1.67 60.33 1.34 60.66 1 61 C-0.69 60.91 -2.38 60.75 -4.06 60.56 C-4.98 60.46 -5.9 60.36 -6.85 60.25 C-7.56 60.17 -8.27 60.09 -9 60 C-9 59.34 -9 58.68 -9 58 C-15.48 57.87 -15.48 57.87 -18.56 58.62 C-21.8 59.12 -23.99 58.19 -27 57 C-27 56.34 -27 55.68 -27 55 C-25.35 54.84 -25.35 54.84 -17 54 C-17 53.34 -17 52.68 -17 52 C-17.63 52.14 -18.26 52.29 -18.91 52.44 C-24.42 53.63 -29.37 54.1 -35 54 C-35.33 54.33 -35.66 54.66 -36 55 C-38.66 54.94 -41.28 54.81 -43.94 54.62 C-44.68 54.58 -45.42 54.54 -46.19 54.49 C-51.74 54.13 -51.74 54.13 -54 53 C-54 52.34 -54 51.68 -54 51 C-51.36 50.67 -48.72 50.34 -46 50 C-49.16 49.18 -52.07 48.96 -55.31 49 C-59.64 49.06 -63.72 48.62 -68 48 C-68 47.01 -68 46.02 -68 45 C-65.03 44.34 -62.06 43.68 -59 43 C-59 42.34 -59 41.68 -59 41 C-58.15 41.08 -57.31 41.16 -56.44 41.25 C-52.15 40.94 -49.24 39.86 -46 37 C-45.03 35.21 -45.03 35.21 -44.31 33.31 C-43.88 32.22 -43.45 31.13 -43 30 C-40.81 29.06 -40.81 29.06 -39 29 C-38.34 30.65 -37.68 32.3 -37 34 C-36.51 33.84 -36.51 33.84 -34 33 C-33.84 32.67 -33.84 32.67 -33 31 C-31.35 31.33 -29.7 31.66 -28 32 C-27.67 30.68 -27.34 29.36 -27 28 C-25.91 27.75 -24.81 27.5 -23.69 27.25 C-19.82 25.94 -18.85 25.5 -17 22 C-16.28 20.02 -15.6 18.02 -15 16 C-14.34 16 -13.68 16 -13 16 C-12.94 15.55 -12.94 15.55 -12.62 13.25 C-12.08 10.41 -11.43 8.47 -10 6 C-9.34 6 -8.68 6 -8 6 C-7.84 6.33 -7.84 6.33 -7 8 C-4.35 5.42 -2.06 3.08 0 0 Z M40 50 C40.5 50.33 40.5 50.33 43 52 C43.33 51.34 43.66 50.68 44 50 C42.68 50 41.36 50 40 50 Z " fill="#C0C5CC" transform="translate(78,10)"/>
<path d="M0 0 C3 1 3 1 4.82 4.16 C5.46 5.46 6.08 6.76 6.69 8.06 C7.01 8.73 7.33 9.39 7.66 10.07 C8.45 11.71 9.23 13.35 10 15 C10.99 14.01 11.98 13.02 13 12 C15.29 15.44 16 16.72 16 21 C16.66 21 17.32 21 18 21 C18 21.66 18 22.32 18 23 C19.32 23.33 20.64 23.66 22 24 C22.33 23.51 22.33 23.51 24 21 C25.32 21 26.64 21 28 21 C28.33 21.83 28.33 21.83 30 26 C30.99 26 31.98 26 33 26 C33.33 25.34 33.66 24.68 34 24 C34.62 23.88 35.25 23.76 35.89 23.63 C38.75 22.78 39.29 21.49 40.75 18.94 C41.18 18.2 41.61 17.47 42.05 16.71 C42.36 16.15 42.68 15.58 43 15 C43.99 15.33 44.98 15.66 46 16 C46.45 16.97 46.91 17.94 47.38 18.94 C49.28 22.52 50.31 22.74 54 24 C54.33 24.99 54.66 25.98 55 27 C58.12 28.06 58.12 28.06 62 29 C67.64 30.46 72.74 32.54 78 35 C71.13 39.58 60.98 38.12 53 38 C53.99 38.33 54.98 38.66 56 39 C56 39.66 56 40.32 56 41 C54.44 41.2 52.88 41.38 51.31 41.56 C50.88 41.61 50.88 41.61 48.68 41.88 C46 42 46 42 43.58 41.51 C40.42 40.89 37.64 41.03 34.44 41.25 C33.32 41.32 32.21 41.38 31.06 41.45 C27.85 42.03 26.38 42.84 24 45 C24.99 45.16 24.99 45.16 30 46 C30 46.66 30 47.32 30 48 C28.06 48.17 26.13 48.33 24.19 48.5 C23.11 48.59 22.03 48.69 20.92 48.78 C15.63 49.18 10.3 49 5 49 C5 49.66 5 50.32 5 51 C0.66 51.92 -2.71 51.94 -7.06 51.12 C-8.06 50.94 -9.07 50.76 -10.1 50.57 C-12.01 50.2 -13.91 49.79 -15.81 49.37 C-16.17 49.31 -16.17 49.31 -18 49 C-18.33 49.33 -18.66 49.66 -19 50 C-20.98 50.13 -22.96 50.18 -24.94 50.19 C-26.02 50.2 -27.1 50.22 -28.21 50.23 C-31 50 -31 50 -33 48 C-31.68 47.34 -30.36 46.68 -29 46 C-29.53 46.01 -29.53 46.01 -32.19 46.06 C-35.77 46.07 -39.28 45.82 -42.85 45.5 C-50.31 44.9 -57.71 44.93 -65.19 45 C-74.39 45.06 -83.54 45 -92.73 44.36 C-101.48 43.77 -110.24 43.92 -119 44 C-119.33 43.34 -119.66 42.68 -120 42 C-105.98 39.74 -92.19 38.42 -78 38 C-78 37.34 -78 36.68 -78 36 C-75.23 35.35 -72.85 35 -70 35.06 C-66.83 35 -64.88 34.25 -62 33 C-61.01 33 -60.02 33 -59 33 C-57.97 31.69 -56.97 30.35 -56 29 C-55.34 29 -54.68 29 -54 29 C-53.9 28.36 -53.79 27.72 -53.69 27.06 C-53.46 26.38 -53.23 25.7 -53 25 C-52.01 24.67 -51.02 24.34 -50 24 C-49.01 25.65 -48.02 27.3 -47 29 C-42.17 28.59 -40.17 26.54 -37 23 C-36.85 23.39 -36.85 23.39 -36.06 25.38 C-33.07 29.19 -29.66 29.41 -25 30 C-24.34 30 -23.68 30 -23 30 C-22.67 28.68 -22.34 27.36 -22 26 C-20.74 25.86 -19.48 25.71 -18.19 25.56 C-15.98 25.04 -15.98 25.04 -14 24 C-12.38 21.13 -11.72 18.2 -11 15 C-10.67 14.34 -10.34 13.68 -10 13 C-9.01 13 -8.02 13 -7 13 C-6.58 12.15 -6.16 11.29 -5.72 10.41 C-5.17 9.31 -4.63 8.2 -4.06 7.06 C-3.52 5.96 -2.97 4.86 -2.41 3.72 C-1 1 -1 1 0 0 Z M16 43 C16.66 43.33 16.66 43.33 20 45 C20.99 44.34 21.98 43.68 23 43 C20.69 43 18.38 43 16 43 Z M-26 46 C-23.03 46 -20.06 46 -17 46 C-17 45.34 -17 44.68 -17 44 C-20.97 43.78 -22.23 44.12 -26 46 Z " fill="#BDC1C4" transform="translate(311,29)"/>
<path d="M0 0 C0 2.97 0 5.94 0 9 C0.66 9 1.32 9 2 9 C1.67 11.97 1.34 14.94 1 18 C-0.32 17.67 -1.64 17.34 -3 17 C-2.84 17.66 -2.84 17.66 -2 21 C-2.5 20.84 -2.5 20.84 -5 20 C-5.33 22.31 -5.66 24.62 -6 27 C-4 26 -4 26 -2 23 C-1.67 23.99 -1.67 23.99 0 29 C-0.99 29 -1.98 29 -3 29 C-2.84 30.32 -2.84 30.32 -2 37 C-4.97 37 -7.94 37 -11 37 C-11 36.34 -11 35.68 -11 35 C-11.99 35 -12.98 35 -14 35 C-14 35.99 -14 36.98 -14 38 C-13.01 38 -12.02 38 -11 38 C-11 38.66 -11 39.32 -11 40 C-9.68 40.33 -8.36 40.66 -7 41 C-7 40.34 -7 39.68 -7 39 C-4.36 38.67 -1.72 38.34 1 38 C1 35.69 1 33.38 1 31 C3.47 31.33 3.47 31.33 16 33 C16 33.99 16 34.98 16 36 C14.68 36 13.36 36 12 36 C12 36.66 12 37.32 12 38 C12.45 37.98 12.45 37.98 14.75 37.88 C17.88 38 19.39 38.39 22 40 C21.67 40.99 21.34 41.98 21 43 C18.79 43.03 16.58 43.05 14.38 43.06 C13.76 43.07 13.76 43.07 10.65 43.1 C7.32 43.01 4.26 42.64 1 42 C1 41.34 1 40.68 1 40 C0.34 40 -0.32 40 -1 40 C-1 40.99 -1 41.98 -1 43 C-2.65 43 -4.3 43 -6 43 C-6 43.66 -6 44.32 -6 45 C-3.69 45 -1.38 45 1 45 C0.67 46.32 0.34 47.64 0 49 C1.65 49.33 3.3 49.66 5 50 C4.84 50.33 4.84 50.33 4 52 C6.31 52.33 8.62 52.66 11 53 C11 53.99 11 54.98 11 56 C7.92 56.91 5.2 57 2 57 C1.67 57.33 1.34 57.66 1 58 C-0.69 57.91 -2.38 57.75 -4.06 57.56 C-4.98 57.46 -5.9 57.36 -6.85 57.25 C-7.56 57.17 -8.27 57.09 -9 57 C-9 56.34 -9 55.68 -9 55 C-15.48 54.87 -15.48 54.87 -18.56 55.62 C-21.8 56.12 -23.99 55.19 -27 54 C-27 53.34 -27 52.68 -27 52 C-25.35 51.84 -25.35 51.84 -17 51 C-17 50.34 -17 49.68 -17 49 C-17.63 49.14 -18.26 49.29 -18.91 49.44 C-24.42 50.63 -29.37 51.1 -35 51 C-35.33 51.33 -35.66 51.66 -36 52 C-38.66 51.94 -41.28 51.81 -43.94 51.62 C-44.68 51.58 -45.42 51.54 -46.19 51.49 C-51.74 51.13 -51.74 51.13 -54 50 C-54 49.34 -54 48.68 -54 48 C-51.36 47.67 -48.72 47.34 -46 47 C-49.16 46.18 -52.07 45.96 -55.31 46 C-59.64 46.06 -63.72 45.62 -68 45 C-68 44.01 -68 43.02 -68 42 C-65.03 41.34 -62.06 40.68 -59 40 C-59 39.34 -59 38.68 -59 38 C-58.15 38.08 -57.31 38.16 -56.44 38.25 C-52.15 37.94 -49.24 36.86 -46 34 C-45.03 32.21 -45.03 32.21 -44.31 30.31 C-43.88 29.22 -43.45 28.13 -43 27 C-40.81 26.06 -40.81 26.06 -39 26 C-38.34 27.65 -37.68 29.3 -37 31 C-36.01 30.67 -35.02 30.34 -34 30 C-33.67 29.34 -33.34 28.68 -33 28 C-31.35 28.33 -29.7 28.66 -28 29 C-27.67 27.68 -27.34 26.36 -27 25 C-25.91 24.75 -24.81 24.5 -23.69 24.25 C-19.82 22.94 -18.85 22.5 -17 19 C-16.28 17.02 -15.6 15.02 -15 13 C-14.34 13 -13.68 13 -13 13 C-12.94 12.55 -12.94 12.55 -12.62 10.25 C-12.08 7.41 -11.43 5.47 -10 3 C-9.34 3 -8.68 3 -8 3 C-7.84 3.33 -7.84 3.33 -7 5 C-6.22 4.18 -5.43 3.35 -4.62 2.5 C-2 0 -2 0 0 0 Z " fill="#BDC8D7" transform="translate(78,13)"/>
<path d="M0 0 C1.71 1.63 2.93 2.87 4 5 C6.33 5.68 8.66 6.34 11 7 C11.33 7.33 11.33 7.33 13 9 C11.02 8.67 9.04 8.34 7 8 C6.67 9.32 6.34 10.64 6 12 C-1.43 13.29 -1.43 13.29 -5 12 C-5 12.99 -5 13.98 -5 15 C-5.66 15 -6.32 15 -7 15 C-7 15.99 -7 16.98 -7 18 C-6.43 17.92 -5.86 17.83 -5.27 17.75 C1.94 16.84 8.79 17.27 16 18 C16 17.34 16 16.68 16 16 C19.3 15.67 22.6 15.34 26 15 C25.84 14.34 25.84 14.34 25 11 C31.5 7 31.5 7 36 7 C36.33 6.34 36.66 5.68 37 5 C37.33 5.33 37.33 5.33 39 7 C41.62 7.62 41.62 7.62 44 8 C43.67 8.99 43.34 9.98 43 11 C42.24 10.88 41.48 10.76 40.7 10.64 C39.71 10.51 38.71 10.38 37.69 10.25 C36.7 10.11 35.72 9.97 34.7 9.83 C32 10 32 10 30.14 11.98 C29.77 12.65 29.39 13.31 29 14 C30.32 14.33 31.64 14.66 33 15 C31.35 16.65 29.7 18.3 28 20 C30.64 20 33.28 20 36 20 C36 19.01 36 18.02 36 17 C39.96 17.33 43.92 17.66 48 18 C48 17.34 48 16.68 48 16 C44.85 14.95 42.61 14.9 39.31 14.94 C38.32 14.95 37.32 14.96 36.3 14.96 C35.54 14.98 34.78 14.99 34 15 C34 14.34 34 13.68 34 13 C36.88 11.56 39.42 11.91 42.62 11.94 C43.81 11.95 45 11.96 46.23 11.96 C47.14 11.98 48.06 11.99 49 12 C48.01 10.68 47.02 9.36 46 8 C46.33 7.34 46.66 6.68 47 6 C49 7.12 49 7.12 51 9 C51.25 12.19 51.25 12.19 51 15 C51.66 15 52.32 15 53 15 C53 15.99 53 16.98 53 18 C53.95 17.84 54.9 17.67 55.88 17.5 C60.57 16.83 65.21 16.89 69.94 16.94 C70.81 16.94 71.69 16.95 72.59 16.95 C74.73 16.96 76.86 16.98 79 17 C79 17.33 79 17.66 79 18 C78.55 18.02 78.55 18.02 76.3 18.11 C75.71 18.15 75.71 18.15 72.75 18.31 C71.59 18.37 70.43 18.43 69.23 18.49 C65.89 19.02 64.45 19.74 62 22 C63.98 22.33 65.96 22.66 68 23 C68 23.66 68 24.32 68 25 C66.06 25.17 64.13 25.33 62.19 25.5 C61.11 25.59 60.03 25.69 58.92 25.78 C53.63 26.18 48.3 26 43 26 C43 26.66 43 27.32 43 28 C38.66 28.92 35.29 28.94 30.94 28.12 C29.94 27.94 28.93 27.76 27.9 27.57 C25.99 27.2 24.09 26.79 22.19 26.37 C21.47 26.25 20.75 26.12 20 26 C19.84 26.16 19.84 26.16 19 27 C17.02 27.13 15.04 27.18 13.06 27.19 C11.98 27.2 10.9 27.22 9.79 27.23 C7 27 7 27 5 25 C6.32 24.34 7.64 23.68 9 23 C8.47 23.01 8.47 23.01 5.81 23.06 C2.23 23.07 -1.28 22.82 -4.85 22.5 C-12.31 21.9 -19.71 21.93 -27.19 22 C-36.39 22.06 -45.54 22 -54.73 21.36 C-63.48 20.77 -72.24 20.92 -81 21 C-81.33 20.34 -81.66 19.68 -82 19 C-67.98 16.74 -54.19 15.42 -40 15 C-40 14.34 -40 13.68 -40 13 C-37.23 12.35 -34.85 12 -32 12.06 C-28.83 12 -26.88 11.25 -24 10 C-23.01 10 -22.02 10 -21 10 C-19.97 8.69 -18.97 7.35 -18 6 C-17.34 6 -16.68 6 -16 6 C-15.9 5.36 -15.79 4.72 -15.69 4.06 C-15.46 3.38 -15.23 2.7 -15 2 C-14.01 1.67 -13.02 1.34 -12 1 C-11.01 2.65 -10.02 4.3 -9 6 C-5.33 5.69 -4.22 5.24 -1.69 2.44 C-1.13 1.63 -0.57 0.83 0 0 Z M54 20 C54.66 20.33 54.66 20.33 58 22 C58.99 21.34 59.98 20.68 61 20 C58.69 20 56.38 20 54 20 Z M12 23 C14.97 23 17.94 23 21 23 C21 22.34 21 21.68 21 21 C17.03 20.78 15.77 21.12 12 23 Z " fill="#C6D1E0" transform="translate(273,52)"/>
<path d="M0 0 C0.99 0 1.98 0 3 0 C4.67 3.33 6.33 6.67 8 10 C9.32 10 10.64 10 12 10 C12 10.66 12 11.32 12 12 C12.99 11.67 13.98 11.34 15 11 C15.33 10.34 15.66 9.68 16 9 C16.66 9 17.32 9 18 9 C18.23 9.48 18.23 9.48 19.38 11.94 C20.42 13.61 20.42 13.61 22 15 C24.96 15.55 27.8 15.63 30.8 15.72 C35.62 16.14 39.67 17.94 44 20 C44 20.66 44 21.32 44 22 C41.79 22.17 39.58 22.34 37.38 22.5 C36.15 22.59 34.92 22.69 33.65 22.78 C31.33 22.92 29.01 23 26.68 23 C24 23 24 23 21.69 23.56 C17.72 24.21 13.96 23.56 10 23 C9.84 23.49 9.84 23.49 9 26 C7.93 25.99 6.86 25.98 5.75 25.96 C4.36 25.96 2.96 25.95 1.56 25.94 C1.21 25.93 1.21 25.93 -0.58 25.91 C-2.39 25.9 -4.19 25.95 -6 26 C-6.16 26.16 -6.16 26.16 -7 27 C-9.32 27.06 -11.64 27.06 -13.96 27.03 C-15.39 27.01 -16.83 27 -18.27 26.99 C-20.54 26.97 -22.81 26.94 -25.08 26.9 C-27.27 26.87 -29.46 26.86 -31.64 26.84 C-32.96 26.82 -34.27 26.81 -35.62 26.79 C-38.85 26.99 -40.25 27.51 -43 29 C-45.01 29.04 -45.01 29.04 -47.11 28.76 C-47.86 28.66 -48.62 28.56 -49.39 28.46 C-50.17 28.35 -50.95 28.24 -51.75 28.12 C-52.54 28.02 -53.34 27.92 -54.15 27.81 C-56.1 27.55 -58.05 27.28 -60 27 C-60 26.01 -60 25.02 -60 24 C-51.89 21.98 -51.89 21.98 -47.88 22.06 C-45.02 22 -43.82 21.57 -41.31 20.38 C-40.77 20.15 -40.77 20.15 -38 19 C-37.01 19.66 -36.02 20.32 -35 21 C-35 20.01 -35 19.02 -35 18 C-34.65 17.88 -34.65 17.88 -32.88 17.3 C-32.43 17.14 -32.43 17.14 -30.12 16.31 C-29.22 16 -28.32 15.69 -27.38 15.36 C-24.39 13.65 -24.06 12.2 -23 9 C-21.06 8 -21.06 8 -19 8 C-18 9 -17 10 -16 11 C-14.12 10.62 -14.12 10.62 -12 10 C-9.25 10.44 -9.25 10.44 -7 11 C-6.67 9.35 -6.34 7.7 -6 6 C-5.01 6 -4.02 6 -3 6 C-2.94 5.69 -2.94 5.69 -2.62 4.12 C-2 2 -2 2 0 0 Z " fill="#B9C1CC" transform="translate(166,39)"/>
<path d="M0 0 C0 2.97 0 5.94 0 9 C0.66 9 1.32 9 2 9 C1.67 11.97 1.34 14.94 1 18 C-0.32 17.67 -1.64 17.34 -3 17 C-2.84 17.66 -2.84 17.66 -2 21 C-2.99 20.67 -3.98 20.34 -5 20 C-5.33 22.31 -5.66 24.62 -6 27 C-4 26 -4 26 -2 23 C-1.34 24.98 -0.68 26.96 0 29 C-0.99 29 -1.98 29 -3 29 C-2.84 30.32 -2.84 30.32 -2 37 C-4.97 37 -7.94 37 -11 37 C-11 36.34 -11 35.68 -11 35 C-11.99 35 -12.98 35 -14 35 C-14 35.99 -14 36.98 -14 38 C-13.01 38 -12.02 38 -11 38 C-11 38.66 -11 39.32 -11 40 C-9.68 40.33 -8.36 40.66 -7 41 C-7 40.34 -7 39.68 -7 39 C-4.36 38.67 -1.72 38.34 1 38 C1 35.69 1 33.38 1 31 C3.47 31.33 3.47 31.33 16 33 C16 33.99 16 34.98 16 36 C14.68 36 13.36 36 12 36 C12 36.66 12 37.32 12 38 C12.45 37.98 12.45 37.98 14.75 37.88 C17.88 38 19.39 38.39 22 40 C21.67 40.99 21.34 41.98 21 43 C18.79 43.03 16.58 43.05 14.38 43.06 C13.76 43.07 13.76 43.07 10.65 43.1 C7.32 43.01 4.26 42.64 1 42 C1 41.34 1 40.68 1 40 C0.34 40 -0.32 40 -1 40 C-1 40.99 -1 41.98 -1 43 C-2.65 43 -4.3 43 -6 43 C-6 43.66 -6 44.32 -6 45 C-3.69 45 -1.38 45 1 45 C0.34 46.65 -0.32 48.3 -1 50 C-3.64 49.67 -6.28 49.34 -9 49 C-9 48.01 -9 47.02 -9 46 C-9.99 45.67 -10.98 45.34 -12 45 C-11.67 44.67 -11.34 44.34 -11 44 C-11.76 43.86 -12.53 43.71 -13.31 43.56 C-16 43 -16 43 -19 42 C-19.56 42.49 -20.11 42.99 -20.69 43.5 C-24.26 45.82 -26.9 44.75 -31 44 C-31 43.01 -31 42.02 -31 41 C-31.66 41 -32.32 41 -33 41 C-33 40.01 -33 39.02 -33 38 C-39.75 38.88 -39.75 38.88 -42 40 C-43.21 36.38 -42.54 35.36 -41 32 C-40.34 32 -39.68 32 -39 32 C-38.67 32.99 -38.34 33.98 -38 35 C-35.36 35 -32.72 35 -30 35 C-29.67 35.66 -29.34 36.32 -29 37 C-27.68 37 -26.36 37 -25 37 C-25 36.34 -25 35.68 -25 35 C-24.67 34.84 -24.67 34.84 -23 34 C-23.66 33.67 -24.32 33.34 -25 33 C-25 32.34 -25 31.68 -25 31 C-19.25 28 -19.25 28 -17 28 C-17 29.32 -17 30.64 -17 32 C-15.02 32 -13.04 32 -11 32 C-11 31.34 -11 30.68 -11 30 C-12.32 30 -13.64 30 -15 30 C-14.81 29.07 -14.63 28.14 -14.44 27.19 C-14 24 -14 24 -15 21 C-14.34 21 -13.68 21 -13 21 C-13.23 20.03 -13.45 19.06 -13.69 18.06 C-14.49 12.68 -12.38 7.76 -10 3 C-9.34 3 -8.68 3 -8 3 C-7.84 3.33 -7.84 3.33 -7 5 C-6.22 4.18 -5.43 3.35 -4.62 2.5 C-2 0 -2 0 0 0 Z " fill="#96A6BA" transform="translate(78,13)"/>
<path d="M0 0 C0.99 0.33 1.98 0.66 3 1 C2.34 1 1.68 1 1 1 C1.65 3.27 2.29 5.54 2.94 7.81 C3.12 8.44 3.12 8.44 4.03 11.64 C4.64 13.78 5.3 15.9 6 18 C6.66 18 7.32 18 8 18 C11 21.46 11 21.46 11 24 C6.05 24.33 1.1 24.66 -4 25 C-4 25.66 -4 26.32 -4 27 C-3.01 26.67 -2.02 26.34 -1 26 C0.94 25.83 0.94 25.83 3 25.81 C3.68 25.8 4.36 25.78 5.06 25.77 C7 26 7 26 10 28 C10 28.66 10 29.32 10 30 C8.56 30.03 7.13 30.05 5.69 30.06 C5.29 30.07 5.29 30.07 3.26 30.1 C1 30 1 30 -2 29 C-2 29.99 -2 30.98 -2 32 C-4.64 32 -7.28 32 -10 32 C-8.25 28.12 -8.25 28.12 -6 27 C-6.99 26.67 -7.98 26.34 -9 26 C-7.12 22.12 -7.12 22.12 -6 21 C-4.14 21.09 -2.29 21.25 -0.44 21.44 C0.57 21.54 1.59 21.64 2.63 21.75 C3.02 21.79 3.02 21.79 5 22 C4.83 21.67 4.83 21.67 4 20 C-0.45 18.56 -2.85 19.25 -7.12 21 C-8.04 21.37 -8.95 21.74 -9.88 22.12 C-10.58 22.41 -11.28 22.7 -12 23 C-12 24.32 -12 25.64 -12 27 C-13.65 27.16 -13.65 27.16 -22 28 C-22 28.66 -22 29.32 -22 30 C-29.59 30 -37.18 30 -45 30 C-45 29.01 -45 28.02 -45 27 C-44.34 27 -43.68 27 -43 27 C-43 26.01 -43 25.02 -43 24 C-39.37 23.67 -35.74 23.34 -32 23 C-31.67 22.01 -31.34 21.02 -31 20 C-29.02 20.33 -27.04 20.66 -25 21 C-25 20.34 -25 19.68 -25 19 C-24.34 19 -23.68 19 -23 19 C-22.67 17.68 -22.34 16.36 -22 15 C-20.74 14.86 -19.48 14.71 -18.19 14.56 C-15.97 14.04 -15.97 14.04 -14 13 C-12.76 10.68 -12.15 8.56 -11.57 6 C-11.48 5.67 -11.48 5.67 -11 4 C-10.34 3.67 -9.68 3.34 -9 3 C-9 3.99 -9 4.98 -9 6 C-8.01 5.67 -7.02 5.34 -6 5 C-5.01 5.99 -4.02 6.98 -3 8 C-2.69 7.05 -2.38 6.1 -2.06 5.12 C-1 2 -1 2 0 0 Z " fill="#98A6B6" transform="translate(311,40)"/>
<path d="M0 0 C0.99 0.33 1.98 0.66 3 1 C3.23 1.48 3.23 1.48 4.38 3.94 C6.28 7.52 7.31 7.74 11 9 C11.33 9.99 11.66 10.98 12 12 C15.12 13.06 15.12 13.06 19 14 C24.64 15.46 29.74 17.54 35 20 C28.13 24.58 17.98 23.12 10 23 C10.99 23.33 11.98 23.66 13 24 C13 24.66 13 25.32 13 26 C4.57 27.85 -0.51 25.91 -8 22 C-8.99 21.67 -9.98 21.34 -11 21 C-11 20.34 -11 19.68 -11 19 C-12.32 18.67 -13.64 18.34 -15 18 C-13.02 17.67 -11.04 17.34 -9 17 C-9.66 16.34 -10.32 15.68 -11 15 C-9.68 15 -8.36 15 -7 15 C-7 15.66 -7 16.32 -7 17 C-5.68 16.84 -5.68 16.84 1 16 C1 16.66 1 17.32 1 18 C1.99 17.01 2.98 16.02 4 15 C3.01 15 2.02 15 1 15 C1 14.34 1 13.68 1 13 C2.32 13 3.64 13 5 13 C5 12.34 5 11.68 5 11 C2.03 11.99 -0.94 12.98 -4 14 C-4.33 13.01 -4.66 12.02 -5 11 C-6.65 11.33 -8.3 11.66 -10 12 C-9.67 11.01 -9.34 10.02 -9 9 C-8.38 8.86 -7.75 8.71 -7.11 8.57 C-5 8 -5 8 -3.52 6.15 C-3.1 5.42 -2.68 4.69 -2.25 3.94 C-1.82 3.2 -1.39 2.47 -0.95 1.71 C-0.8 1.43 -0.8 1.43 0 0 Z " fill="#C6CDD6" transform="translate(354,44)"/>
<path d="M0 0 C2.95 2.95 4.68 6.05 6 10 C7.32 10 8.64 10 10 10 C10 10.66 10 11.32 10 12 C10.99 11.67 11.98 11.34 13 11 C13.33 10.34 13.66 9.68 14 9 C14.66 9 15.32 9 16 9 C16.23 9.48 16.23 9.48 17.38 11.94 C18.42 13.61 18.42 13.61 20 15 C22.96 15.55 25.8 15.63 28.8 15.72 C33.62 16.14 37.67 17.94 42 20 C42 20.66 42 21.32 42 22 C39.79 22.17 37.58 22.34 35.38 22.5 C34.15 22.59 32.92 22.69 31.65 22.78 C29.33 22.92 27.01 23 24.68 23 C22 23 22 23 19.69 23.56 C15.72 24.21 11.96 23.56 8 23 C7.67 23.99 7.34 24.98 7 26 C5.93 25.99 4.86 25.98 3.75 25.96 C2.36 25.96 0.96 25.95 -0.44 25.94 C-0.79 25.93 -0.79 25.93 -2.58 25.91 C-4.39 25.9 -6.19 25.95 -8 26 C-8.33 26.33 -8.66 26.66 -9 27 C-11.02 27.07 -13.04 27.08 -15.06 27.06 C-16.17 27.05 -17.27 27.04 -18.41 27.04 C-18.84 27.03 -18.84 27.03 -21 27 C-21 26.67 -21 26.34 -21 26 C-18.03 25.67 -15.06 25.34 -12 25 C-12 24.67 -12 24.34 -12 24 C-10.02 24 -8.04 24 -6 24 C-6 23.34 -6 22.68 -6 22 C-5.01 22 -4.02 22 -3 22 C-3 22.99 -3 23.98 -3 25 C-1.68 25 -0.36 25 1 25 C0.44 23.06 0.44 23.06 -1 21 C-4.62 20.25 -4.62 20.25 -8 20 C-8 19.34 -8 18.68 -8 18 C-4.7 17.34 -1.4 16.68 2 16 C1.67 15.01 1.34 14.02 1 13 C0.34 12.67 -0.32 12.34 -1 12 C-0.67 10.68 -0.34 9.36 0 8 C0 8.66 0 9.32 0 10 C0.66 10 1.32 10 2 10 C2 9.01 2 8.02 2 7 C1.01 6.67 0.02 6.34 -1 6 C-0.67 4.02 -0.34 2.04 0 0 Z " fill="#CDD2DB" transform="translate(168,39)"/>
<path d="M0 0 C2.34 2.13 3.81 4.06 5 7 C5 7.99 5 8.98 5 10 C5.99 10.33 6.98 10.66 8 11 C8.7 12.99 9.37 14.99 10 17 C10.66 17.33 11.32 17.66 12 18 C12 19.32 12 20.64 12 22 C13.32 21.34 14.64 20.68 16 20 C15.67 20.99 15.34 21.98 15 23 C13.35 22.67 11.7 22.34 10 22 C9.67 23.98 9.34 25.96 9 28 C9.66 28 10.32 28 11 28 C11 28.66 11 29.32 11 30 C10.34 30 9.68 30 9 30 C9.33 30.99 9.66 31.98 10 33 C10.63 33.05 11.25 33.1 11.9 33.15 C12.72 33.22 13.53 33.3 14.38 33.38 C15.19 33.44 16 33.51 16.84 33.59 C19 34 19 34 21 36 C21.97 35.81 22.94 35.63 23.94 35.44 C24.95 35.29 25.96 35.15 27 35 C27.99 35.99 28.98 36.98 30 38 C27.03 38 24.06 38 21 38 C20.67 38.99 20.34 39.98 20 41 C17.36 41 14.72 41 12 41 C12 40.34 12 39.68 12 39 C13.32 38.34 14.64 37.68 16 37 C11.05 36.01 6.1 35.02 1 34 C1 36.31 1 38.62 1 41 C-1.71 42.35 -4.01 42.07 -7 42 C-7 42.66 -7 43.32 -7 44 C-8.32 43.67 -9.64 43.34 -11 43 C-11 42.34 -11 41.68 -11 41 C-11.99 41 -12.98 41 -14 41 C-14 40.01 -14 39.02 -14 38 C-13.01 38 -12.02 38 -11 38 C-11 38.66 -11 39.32 -11 40 C-8.03 40 -5.06 40 -2 40 C-2.33 37.36 -2.66 34.72 -3 32 C-2.01 32 -1.02 32 0 32 C-0.66 30.35 -1.32 28.7 -2 27 C-2.66 27.99 -3.32 28.98 -4 30 C-4.66 30 -5.32 30 -6 30 C-5.74 27.66 -5.41 25.32 -5 23 C-4.34 22.67 -3.68 22.34 -3 22 C-3.33 21.01 -3.66 20.02 -4 19 C-3.17 19.33 -3.17 19.33 1 21 C1 18.36 1 15.72 1 13 C0.34 12.67 -0.32 12.34 -1 12 C-1.03 10.19 -1.05 8.38 -1.06 6.56 C-1.07 5.55 -1.09 4.54 -1.1 3.5 C-1 1 -1 1 0 0 Z " fill="#CFCBC9" transform="translate(78,10)"/>
<path d="M0 0 C1.32 0.33 2.64 0.66 4 1 C4 2.32 4 3.64 4 5 C5.01 5.12 6.02 5.25 7.06 5.38 C11 6 11 6 14.44 7 C24.4 9.8 24.4 9.8 28 8 C27 11 27 11 23.62 12.69 C20 14 20 14 17 14 C17 14.99 17 15.98 17 17 C16.44 16.79 15.89 16.59 15.31 16.38 C13 16 13 16 10.89 16.95 C7.05 18.35 3.5 18.38 -0.56 18.5 C-8.83 18.85 -17.1 19.37 -25 22 C-28.19 21.06 -28.19 21.06 -31 20 C-31 19.67 -31 19.34 -31 19 C-29.78 18.9 -28.57 18.79 -27.31 18.69 C-23.54 18.22 -21.17 17.14 -18 15 C-14.7 13.51 -12.62 13 -9 13 C-9.33 12.01 -9.66 11.02 -10 10 C-8.35 9.67 -6.7 9.34 -5 9 C-4.34 6.36 -3.68 3.72 -3 1 C-2.01 1.33 -1.02 1.66 0 2 C0 1.34 0 0.68 0 0 Z " fill="#D6DBE0" transform="translate(114,43)"/>
<path d="M0 0 C2.5 1.12 2.5 1.12 5 3 C5.31 6.19 5.31 6.19 5 9 C5.66 9 6.32 9 7 9 C7 9.99 7 10.98 7 12 C7.48 11.92 7.48 11.92 9.88 11.5 C14.57 10.83 19.21 10.89 23.94 10.94 C24.81 10.94 25.69 10.95 26.59 10.95 C28.73 10.96 30.86 10.98 33 11 C33 11.33 33 11.66 33 12 C32.11 12.04 31.22 12.07 30.3 12.11 C29.71 12.15 29.71 12.15 26.75 12.31 C25.59 12.37 24.43 12.43 23.23 12.49 C19.89 13.02 18.45 13.74 16 16 C17.98 16.33 19.96 16.66 22 17 C22 17.66 22 18.32 22 19 C20.06 19.17 18.13 19.33 16.19 19.5 C15.11 19.59 14.03 19.69 12.92 19.78 C7.63 20.18 2.3 20 -3 20 C-3 20.66 -3 21.32 -3 22 C-7.34 22.92 -10.71 22.94 -15.06 22.12 C-16.06 21.94 -17.07 21.76 -18.1 21.57 C-20.01 21.2 -21.91 20.79 -23.81 20.37 C-24.53 20.25 -25.25 20.12 -26 20 C-26.33 20.33 -26.66 20.66 -27 21 C-28.98 21.13 -30.96 21.18 -32.94 21.19 C-34.02 21.2 -35.1 21.22 -36.21 21.23 C-39 21 -39 21 -41 19 C-35.58 16.29 -32.03 15.8 -26 16 C-25.01 15.67 -24.02 15.34 -23 15 C-23 15.66 -23 16.32 -23 17 C-17.46 18.43 -11.45 18.82 -6 17 C-6 15.68 -6 14.36 -6 13 C-7.32 13 -8.64 13 -10 13 C-10 12.34 -10 11.68 -10 11 C-6.04 11.33 -2.08 11.66 2 12 C2 11.34 2 10.68 2 10 C-1.15 8.95 -3.39 8.9 -6.69 8.94 C-7.68 8.95 -8.68 8.96 -9.7 8.96 C-10.46 8.98 -11.22 8.99 -12 9 C-12 8.34 -12 7.68 -12 7 C-9.12 5.56 -6.58 5.91 -3.38 5.94 C-2.19 5.95 -1 5.96 0.23 5.96 C1.14 5.98 2.06 5.99 3 6 C2.5 5.38 2.01 4.76 1.5 4.12 C0 2 0 2 0 0 Z M8 14 C8.66 14.33 8.66 14.33 12 16 C12.99 15.34 13.98 14.68 15 14 C12.69 14 10.38 14 8 14 Z " fill="#CCD5E0" transform="translate(319,58)"/>
<path d="M0 0 C0.66 0.33 1.32 0.66 2 1 C1.67 1.99 1.34 2.98 1 4 C1.66 4.33 2.32 4.66 3 5 C2.67 5.99 2.34 6.98 2 8 C1.34 8 0.68 8 0 8 C0.37 8.56 0.74 9.11 1.12 9.69 C2 12 2 12 1.12 14.75 C0.75 15.49 0.38 16.23 0 17 C1.32 17 2.64 17 4 17 C4 17.66 4 18.32 4 19 C2.02 19 0.04 19 -2 19 C-2 17.68 -2 16.36 -2 15 C-2.95 15.49 -3.9 15.99 -4.88 16.5 C-8 18 -8 18 -10 18 C-10 18.66 -10 19.32 -10 20 C-8.68 20.33 -7.36 20.66 -6 21 C-7.32 21.33 -8.64 21.66 -10 22 C-10 22.66 -10 23.32 -10 24 C-11.32 24 -12.64 24 -14 24 C-14.33 24.99 -14.66 25.98 -15 27 C-15 25.35 -15 23.7 -15 22 C-17.64 22 -20.28 22 -23 22 C-23.33 22.66 -23.66 23.32 -24 24 C-24 22.35 -24 20.7 -24 19 C-24.66 19.33 -25.32 19.66 -26 20 C-26.33 20.99 -26.66 21.98 -27 23 C-26.34 23.33 -25.68 23.66 -25 24 C-25.66 24.33 -26.32 24.66 -27 25 C-26.01 25 -25.02 25 -24 25 C-21.81 26 -21.81 26 -20 27 C-22.88 27.96 -24.7 28.11 -27.69 28.06 C-28.09 28.06 -28.09 28.06 -30.14 28.04 C-30.75 28.02 -31.37 28.01 -32 28 C-32 27.34 -32 26.68 -32 26 C-32.99 25.67 -33.98 25.34 -35 25 C-34.4 24.48 -33.8 23.97 -33.19 23.44 C-31 21 -31 21 -29.5 17.31 C-28 14 -28 14 -25.81 13.06 C-25.21 13.04 -24.62 13.02 -24 13 C-23.34 14.65 -22.68 16.3 -22 18 C-21.01 17.67 -20.02 17.34 -19 17 C-18.67 16.34 -18.34 15.68 -18 15 C-17.17 15.16 -17.17 15.16 -13 16 C-12.67 14.68 -12.34 13.36 -12 12 C-11.45 11.88 -11.45 11.88 -8.69 11.25 C-4.82 9.94 -3.85 9.5 -2 6 C-1.28 4.02 -0.6 2.02 0 0 Z " fill="#C5C9D0" transform="translate(63,26)"/>
<path d="M0 0 C0.33 0.66 0.66 1.32 1 2 C3.97 1.34 6.94 0.68 10 0 C10 0.66 10 1.32 10 2 C8.68 2 7.36 2 6 2 C6 2.66 6 3.32 6 4 C6.99 4 7.98 4 9 4 C8.67 4.99 8.34 5.98 8 7 C7.34 7 6.68 7 6 7 C6 6.34 6 5.68 6 5 C5.34 5.33 4.68 5.66 4 6 C2 6.04 -0 6.04 -2 6 C-2 5.34 -2 4.68 -2 4 C-2.33 4.16 -2.33 4.16 -4 5 C-3.67 5.66 -3.34 6.32 -3 7 C-3.99 7.33 -4.98 7.66 -6 8 C-6 8.66 -6 9.32 -6 10 C-5.63 10.05 -5.63 10.05 -3.75 10.31 C-1 11 -1 11 3 14 C-5.58 14.33 -14.16 14.66 -23 15 C-23 14.01 -23 13.02 -23 12 C-23.66 12 -24.32 12 -25 12 C-25 10.02 -25 8.04 -25 6 C-26.32 5.34 -27.64 4.68 -29 4 C-29 3.01 -29 2.02 -29 1 C-28.18 1.66 -28.18 1.66 -24 5 C-24 4.34 -24 3.68 -24 3 C-22.34 2.62 -20.68 2.29 -19 2 C-18.67 2.33 -18.34 2.66 -18 3 C-11.04 3.76 -6.33 0 0 0 Z " fill="#BDC1C0" transform="translate(349,55)"/>
<path d="M0 0 C-0.33 0.66 -0.66 1.32 -1 2 C-1.66 2 -2.32 2 -3 2 C-3 2.66 -3 3.32 -3 4 C0.96 4 4.92 4 9 4 C6 8 6 8 3.06 8.75 C-5.88 9.53 -14.83 8.92 -23.76 8.36 C-32.84 7.83 -41.91 7.91 -51 8 C-51.33 7.34 -51.66 6.68 -52 6 C-37.98 3.74 -24.19 2.42 -10 2 C-10 1.34 -10 0.68 -10 0 C-6.72 -1.64 -3.57 -0.52 0 0 Z " fill="#DDE3ED" transform="translate(243,65)"/>
<path d="M0 0 C0.99 0.66 1.98 1.32 3 2 C4.66 2.38 6.32 2.73 8 3 C7.67 3.99 7.34 4.98 7 6 C6.24 5.88 5.48 5.76 4.7 5.64 C3.71 5.51 2.71 5.38 1.69 5.25 C0.7 5.11 -0.28 4.97 -1.3 4.83 C-4 5 -4 5 -5.86 6.98 C-6.23 7.65 -6.61 8.31 -7 9 C-5.68 9.33 -4.36 9.66 -3 10 C-4.65 11.65 -6.3 13.3 -8 15 C-6.02 14.84 -6.02 14.84 4 14 C4 15.32 4 16.64 4 18 C-0.33 20.23 -3.28 19.92 -8 19 C-8.33 19.66 -8.66 20.32 -9 21 C-9.33 20.34 -9.66 19.68 -10 19 C-10.99 18.67 -11.98 18.34 -13 18 C-13 17.34 -13 16.68 -13 16 C-13.44 16.08 -13.44 16.08 -15.69 16.5 C-22.13 17.42 -30.86 18.5 -37 16 C-37.33 15.01 -37.66 14.02 -38 13 C-33.9 11.96 -30.39 12.06 -26.19 12.44 C-25.03 12.54 -23.86 12.64 -22.67 12.75 C-21.79 12.83 -20.91 12.91 -20 13 C-20 12.34 -20 11.68 -20 11 C-16.7 10.67 -13.4 10.34 -10 10 C-10.33 8.68 -10.66 7.36 -11 6 C-4.5 2 -4.5 2 0 2 C0 1.34 0 0.68 0 0 Z " fill="#BAC8DA" transform="translate(309,57)"/>
<path d="M0 0 C0 2.97 0 5.94 0 9 C0.66 9 1.32 9 2 9 C1.67 11.97 1.34 14.94 1 18 C-0.32 17.67 -1.64 17.34 -3 17 C-2.67 18.32 -2.34 19.64 -2 21 C-2.99 20.67 -3.98 20.34 -5 20 C-5.33 22.31 -5.66 24.62 -6 27 C-5.01 26.67 -4.02 26.34 -3 26 C-3 26.66 -3 27.32 -3 28 C-4.65 28 -6.3 28 -8 28 C-8.33 27.34 -8.66 26.68 -9 26 C-9.83 25.69 -10.65 25.38 -11.5 25.06 C-11.91 24.89 -11.91 24.89 -14 24 C-14.33 23.01 -14.66 22.02 -15 21 C-14.34 21 -13.68 21 -13 21 C-13.23 20.03 -13.45 19.06 -13.69 18.06 C-14.49 12.68 -12.38 7.76 -10 3 C-9.34 3 -8.68 3 -8 3 C-7.67 3.66 -7.34 4.32 -7 5 C-6.22 4.18 -5.43 3.35 -4.62 2.5 C-2 0 -2 0 0 0 Z " fill="#B2B7C2" transform="translate(78,13)"/>
<path d="M0 0 C2.95 2.95 4.68 6.05 6 10 C7.32 10 8.64 10 10 10 C10 10.66 10 11.32 10 12 C11.32 11.67 12.64 11.34 14 11 C14 11.66 14 12.32 14 13 C10.81 15.13 8.73 15.5 5 16 C4.67 16.99 4.34 17.98 4 19 C4.58 19.1 5.16 19.21 5.75 19.31 C8.32 20.1 9.94 21.31 12 23 C10.35 23 8.7 23 7 23 C7 23.99 7 24.98 7 26 C5.93 25.99 4.86 25.98 3.75 25.96 C2.36 25.96 0.96 25.95 -0.44 25.94 C-0.79 25.93 -0.79 25.93 -2.58 25.91 C-4.39 25.9 -6.19 25.95 -8 26 C-8.33 26.33 -8.66 26.66 -9 27 C-11.02 27.07 -13.04 27.08 -15.06 27.06 C-16.17 27.05 -17.27 27.04 -18.41 27.04 C-18.84 27.03 -18.84 27.03 -21 27 C-21 26.67 -21 26.34 -21 26 C-18.03 25.67 -15.06 25.34 -12 25 C-12 24.67 -12 24.34 -12 24 C-10.02 24 -8.04 24 -6 24 C-6 23.34 -6 22.68 -6 22 C-5.01 22 -4.02 22 -3 22 C-3 22.99 -3 23.98 -3 25 C-1.68 25 -0.36 25 1 25 C0.44 23.06 0.44 23.06 -1 21 C-4.62 20.25 -4.62 20.25 -8 20 C-8 19.34 -8 18.68 -8 18 C-4.7 17.34 -1.4 16.68 2 16 C1.67 15.01 1.34 14.02 1 13 C0.34 12.67 -0.32 12.34 -1 12 C-0.67 10.68 -0.34 9.36 0 8 C0 8.66 0 9.32 0 10 C0.66 10 1.32 10 2 10 C2 9.01 2 8.02 2 7 C1.01 6.67 0.02 6.34 -1 6 C-0.67 4.02 -0.34 2.04 0 0 Z " fill="#DEE0E4" transform="translate(168,39)"/>
<path d="M0 0 C0.66 0 1.32 0 2 0 C2.33 1.65 2.66 3.3 3 5 C3.99 5 4.98 5 6 5 C6 6.32 6 7.64 6 9 C7.16 9.5 7.16 9.5 13 12 C9.3 14.38 6.07 14.21 1.75 14.12 C0.49 14.11 -0.78 14.09 -2.08 14.07 C-3.04 14.05 -4.01 14.02 -5 14 C-5 14.66 -5 15.32 -5 16 C-7.97 16 -10.94 16 -14 16 C-14 15.01 -14 14.02 -14 13 C-15.98 13.33 -17.96 13.66 -20 14 C-19.67 13.01 -19.34 12.02 -19 11 C-17.12 10.19 -17.12 10.19 -15 10 C-14.01 10.66 -13.02 11.32 -12 12 C-12 11.01 -12 10.02 -12 9 C-11.3 8.77 -10.6 8.54 -9.88 8.3 C-9.43 8.14 -9.43 8.14 -7.12 7.31 C-6.22 7 -5.32 6.69 -4.38 6.36 C-1.41 4.66 -0.93 3.22 0 0 Z " fill="#A1AFC0" transform="translate(143,48)"/>
<path d="M0 0 C0.66 0.99 1.32 1.98 2 3 C-0.34 8.66 -0.34 8.66 -3.69 10.38 C-4.45 10.58 -5.21 10.79 -6 11 C-6 11.66 -6 12.32 -6 13 C-9.26 16.82 -11.88 18.89 -16.94 19.38 C-17.44 19.31 -17.44 19.31 -20 19 C-20 19.66 -20 20.32 -20 21 C-23.96 21 -27.92 21 -32 21 C-32 20.01 -32 19.02 -32 18 C-31.34 18 -30.68 18 -30 18 C-30 17.01 -30 16.02 -30 15 C-28.19 14.84 -28.19 14.84 -19 14 C-18.67 13.01 -18.34 12.02 -18 11 C-17.01 11.16 -17.01 11.16 -12 12 C-12 11.34 -12 10.68 -12 10 C-11.34 10 -10.68 10 -10 10 C-9.67 8.68 -9.34 7.36 -9 6 C-6.36 5.34 -3.72 4.68 -1 4 C-0.67 2.68 -0.34 1.36 0 0 Z " fill="#B1BBC6" transform="translate(298,49)"/>
<path d="M0 0 C0 0.99 0 1.98 0 3 C2.97 3 5.94 3 9 3 C9 2.34 9 1.68 9 1 C13.67 -0.5 18.36 -0.55 23 1 C23 1.66 23 2.32 23 3 C23.66 3.33 24.32 3.66 25 4 C16.88 4.68 8.89 5.09 0.74 4.84 C-2 5 -2 5 -3.82 6.06 C-7.42 7.61 -10.95 6.67 -14.75 6.12 C-15.54 6.02 -16.34 5.92 -17.15 5.81 C-19.1 5.55 -21.05 5.28 -23 5 C-23 4.01 -23 3.02 -23 2 C-15.26 -0.13 -8 -0.2 0 0 Z " fill="#CFD4D8" transform="translate(129,61)"/>
<path d="M0 0 C2.47 0.33 2.47 0.33 15 2 C15 2.99 15 3.98 15 5 C13.68 5 12.36 5 11 5 C11 5.66 11 6.32 11 7 C11.91 6.96 12.81 6.92 13.75 6.88 C16.88 7 18.39 7.39 21 9 C20.67 9.99 20.34 10.98 20 12 C17.79 12.03 15.58 12.05 13.38 12.06 C12.15 12.07 10.92 12.09 9.65 12.1 C6.32 12.01 3.26 11.64 0 11 C0.99 10.34 1.98 9.68 3 9 C1.35 8.67 -0.3 8.34 -2 8 C-1.34 7.67 -0.68 7.34 0 7 C0 4.69 0 2.38 0 0 Z " fill="#ABB2BA" transform="translate(79,44)"/>
<path d="M0 0 C0.66 0 1.32 0 2 0 C2.06 0.6 2.12 1.21 2.18 1.83 C2.23 2.23 2.23 2.23 2.44 4.25 C2.48 4.64 2.48 4.64 2.68 6.64 C3 9 3 9 4 13 C0.7 13 -2.6 13 -6 13 C-5.01 13.33 -4.02 13.66 -3 14 C-3 14.66 -3 15.32 -3 16 C-5.12 16.03 -7.25 16.05 -9.38 16.06 C-10.56 16.07 -11.74 16.09 -12.96 16.1 C-16 16 -16 16 -18 15 C-18 14.34 -18 13.68 -18 13 C-15.09 10.24 -12.32 8.03 -8.25 7.94 C-7.51 7.96 -6.76 7.98 -6 8 C-4.31 6 -4.31 6 -3 4 C-2.34 4 -1.68 4 -1 4 C-0.67 2.68 -0.34 1.36 0 0 Z " fill="#BEC9DB" transform="translate(258,54)"/>
<path d="M0 0 C0.66 0.33 1.32 0.66 2 1 C1.67 1.99 1.34 2.98 1 4 C1.66 4.33 2.32 4.66 3 5 C2.67 5.99 2.34 6.98 2 8 C1.34 8 0.68 8 0 8 C0.19 8.28 0.19 8.28 1.12 9.69 C2 12 2 12 1.12 14.75 C0.75 15.49 0.38 16.23 0 17 C1.32 17 2.64 17 4 17 C4 17.66 4 18.32 4 19 C2.02 19 0.04 19 -2 19 C-2 17.68 -2 16.36 -2 15 C-2.95 15.49 -3.9 15.99 -4.88 16.5 C-8 18 -8 18 -10 18 C-10.33 18.99 -10.66 19.98 -11 21 C-12.98 20.67 -14.96 20.34 -17 20 C-17 18.68 -17 17.36 -17 16 C-15.68 16 -14.36 16 -13 16 C-12.67 14.68 -12.34 13.36 -12 12 C-11.45 11.88 -11.45 11.88 -8.69 11.25 C-4.82 9.94 -3.85 9.5 -2 6 C-1.28 4.02 -0.6 2.02 0 0 Z " fill="#AFBBCC" transform="translate(63,26)"/>
<path d="M0 0 C0.66 0.33 1.32 0.66 2 1 C2.62 3.56 2.62 3.56 3 6 C2.01 6 1.02 6 0 6 C0.33 8.64 0.66 11.28 1 14 C-1.97 14 -4.94 14 -8 14 C-8 13.34 -8 12.68 -8 12 C-9.98 12 -11.96 12 -14 12 C-14 11.34 -14 10.68 -14 10 C-14.66 10 -15.32 10 -16 10 C-16 8.35 -16 6.7 -16 5 C-15.34 5 -14.68 5 -14 5 C-14 6.32 -14 7.64 -14 9 C-12.02 9 -10.04 9 -8 9 C-8 8.34 -8 7.68 -8 7 C-9.32 7 -10.64 7 -12 7 C-11.67 5.35 -11.34 3.7 -11 2 C-8.69 2 -6.38 2 -4 2 C-4.33 2.99 -4.66 3.98 -5 5 C-3.35 5 -1.7 5 0 5 C0 3.35 0 1.7 0 0 Z " fill="#8E9FB4" transform="translate(75,36)"/>
<path d="M0 0 C0.66 0 1.32 0 2 0 C2 0.66 2 1.32 2 2 C5.3 2.33 8.6 2.66 12 3 C12 3.66 12 4.32 12 5 C12.99 5.17 12.99 5.17 18 6 C18.33 5.01 18.66 4.02 19 3 C20.32 3 21.64 3 23 3 C23 2.01 23 1.02 23 0 C23.66 0 24.32 0 25 0 C25 0.99 25 1.98 25 3 C27.31 3.33 29.62 3.66 32 4 C32 4.33 32 4.66 32 5 C28.7 5 25.4 5 22 5 C22 5.66 22 6.32 22 7 C17.66 7.92 14.29 7.94 9.94 7.12 C8.94 6.94 7.93 6.76 6.9 6.57 C4.99 6.2 3.09 5.79 1.19 5.37 C0.83 5.31 0.83 5.31 -1 5 C-1.33 5.33 -1.66 5.66 -2 6 C-3.98 6.13 -5.96 6.18 -7.94 6.19 C-9.02 6.2 -10.1 6.22 -11.21 6.23 C-14 6 -14 6 -16 4 C-10.6 1.3 -7.01 0.79 -1 1 C-0.67 0.67 -0.34 0.34 0 0 Z " fill="#D9E1ED" transform="translate(294,73)"/>
<path d="M0 0 C0.83 0.16 0.83 0.16 5 1 C4.67 1.66 4.34 2.32 4 3 C6.31 3.33 8.62 3.66 11 4 C11 4.99 11 5.98 11 7 C7.92 7.91 5.2 8 2 8 C1.67 8.33 1.34 8.66 1 9 C-0.69 8.91 -2.38 8.75 -4.06 8.56 C-4.98 8.46 -5.9 8.36 -6.85 8.25 C-7.56 8.17 -8.27 8.09 -9 8 C-9 7.34 -9 6.68 -9 6 C-15.48 5.87 -15.48 5.87 -18.56 6.62 C-21.8 7.12 -23.99 6.19 -27 5 C-27 4.34 -27 3.68 -27 3 C-25.04 2.97 -23.08 2.95 -21.12 2.94 C-20.03 2.93 -18.94 2.91 -17.82 2.9 C-15 3 -15 3 -13 4 C-11.29 4.07 -9.58 4.08 -7.88 4.06 C-6.96 4.05 -6.05 4.04 -5.12 4.04 C-4.42 4.02 -3.72 4.01 -3 4 C-3.66 3.34 -4.32 2.68 -5 2 C-3.35 2 -1.7 2 0 2 C0 1.34 0 0.68 0 0 Z " fill="#DAE2ED" transform="translate(78,62)"/>
<path d="M0 0 C2.34 2.13 3.81 4.06 5 7 C5 7.99 5 8.98 5 10 C5.99 10.33 6.98 10.66 8 11 C8.7 12.99 9.37 14.99 10 17 C10.66 17.33 11.32 17.66 12 18 C12 19.32 12 20.64 12 22 C13.32 21.34 14.64 20.68 16 20 C15.67 20.99 15.34 21.98 15 23 C13.35 22.67 11.7 22.34 10 22 C9.34 22.99 8.68 23.98 8 25 C6.96 21.87 7.07 21.01 8 18 C7.34 18 6.68 18 6 18 C5.67 18.99 5.34 19.98 5 21 C4.67 19.68 4.34 18.36 4 17 C3.34 17 2.68 17 2 17 C1.67 17.99 1.34 18.98 1 20 C1 17.69 1 15.38 1 13 C0.34 12.67 -0.32 12.34 -1 12 C-1.03 10.19 -1.05 8.38 -1.06 6.56 C-1.07 5.55 -1.09 4.54 -1.1 3.5 C-1 1 -1 1 0 0 Z " fill="#DFD8D2" transform="translate(78,10)"/>
<path d="M0 0 C1.32 0 2.64 0 4 0 C4 0.66 4 1.32 4 2 C4.32 2.05 4.32 2.05 5.94 2.33 C12.69 3.57 18.23 5.15 24 9 C24 9.66 24 10.32 24 11 C15.57 12.85 10.49 10.91 3 7 C2.01 6.67 1.02 6.34 0 6 C0 5.34 0 4.68 0 4 C-1.32 3.67 -2.64 3.34 -4 3 C-2.02 2.67 -0.04 2.34 2 2 C1.34 1.34 0.68 0.68 0 0 Z " fill="#D6DADC" transform="translate(343,59)"/>
<path d="M0 0 C2 2 2 2 2 6 C2.66 6 3.32 6 4 6 C4 6.66 4 7.32 4 8 C5.32 8.33 6.64 8.66 8 9 C8.66 8.01 9.32 7.02 10 6 C11.32 6 12.64 6 14 6 C14.27 6.78 14.54 7.57 14.81 8.38 C16 11 16 11 19 13 C14.65 15.48 10.9 15.44 6 15 C2.44 14 2.44 14 0 13 C0.66 11.35 1.32 9.7 2 8 C1.01 7.67 0.02 7.34 -1 7 C-1.33 5.35 -1.66 3.7 -2 2 C-1.34 2 -0.68 2 0 2 C0 1.34 0 0.68 0 0 Z " fill="#D0D3D8" transform="translate(325,44)"/>
<path d="M0 0 C0.66 0 1.32 0 2 0 C2 1.98 2 3.96 2 6 C2.66 6.33 3.32 6.66 4 7 C4 7.99 4 8.98 4 10 C3.34 10 2.68 10 2 10 C1.67 10.66 1.34 11.32 1 12 C1.66 12.33 2.32 12.66 3 13 C2.34 13.33 2.34 13.33 -1 15 C-0.67 13.68 -0.34 12.36 0 11 C-0.85 11.52 -1.69 12.03 -2.56 12.56 C-6.67 14.28 -8.68 13.76 -13 13 C-15.34 13.26 -17.68 13.57 -20 14 C-20.66 12.02 -21.32 10.04 -22 8 C-19.74 8.48 -17.93 9.04 -15.88 10.12 C-15.57 10.27 -15.57 10.27 -14 11 C-13.34 10.67 -12.68 10.34 -12 10 C-10.32 10.28 -8.65 10.61 -7 11 C-6.67 9.35 -6.34 7.7 -6 6 C-5.01 6 -4.02 6 -3 6 C-2.88 5.38 -2.75 4.76 -2.62 4.12 C-2 2 -2 2 0 0 Z " fill="#C5CCD7" transform="translate(166,39)"/>
<path d="M0 0 C3.62 -0.19 3.62 -0.19 7 0 C7.03 2.29 7.05 4.58 7.06 6.88 C7.07 8.15 7.09 9.43 7.1 10.74 C7 14 7 14 6 16 C6.99 15.67 7.98 15.34 9 15 C9 15.66 9 16.32 9 17 C7.35 17 5.7 17 4 17 C3.67 16.34 3.34 15.68 3 15 C2.17 14.69 1.35 14.38 0.5 14.06 C-0.33 13.71 -1.15 13.36 -2 13 C-2.33 12.01 -2.66 11.02 -3 10 C-2.34 10 -1.68 10 -1 10 C-1.21 8.91 -1.41 7.81 -1.62 6.69 C-2 3 -2 3 0 0 Z " fill="#9EABC0" transform="translate(66,24)"/>
<path d="M0 0 C1.32 0.33 2.64 0.66 4 1 C4 2.32 4 3.64 4 5 C6.31 5.33 8.62 5.66 11 6 C11.33 7.32 11.66 8.64 12 10 C7.23 11.62 3.91 12.34 -1 11 C-1.99 10.34 -2.98 9.68 -4 9 C-4.31 6 -4.31 6 -4 3 C-3.34 2.34 -2.68 1.68 -2 1 C-1.34 1.33 -0.68 1.66 0 2 C0 1.34 0 0.68 0 0 Z " fill="#CBD0D9" transform="translate(114,43)"/>
<path d="M0 0 C0.33 0.66 0.66 1.32 1 2 C3.5 2.41 3.5 2.41 6.56 2.62 C7.07 2.66 7.07 2.66 9.63 2.85 C10.02 2.88 10.02 2.88 12 3 C8.65 5.03 6.19 5.19 2.31 5.06 C0.54 5.01 -1.23 4.98 -3 5 C-3.33 5.33 -3.66 5.66 -4 6 C-6.66 5.94 -9.28 5.81 -11.94 5.62 C-12.68 5.58 -13.42 5.54 -14.19 5.49 C-19.74 5.13 -19.74 5.13 -22 4 C-22 3.34 -22 2.68 -22 2 C-19.36 1.67 -16.72 1.34 -14 1 C-14 0.67 -14 0.34 -14 0 C-8.97 -1.13 -5.01 -0.93 0 0 Z " fill="#D1DCEC" transform="translate(46,59)"/>
<path d="M0 0 C-0.33 0.66 -0.66 1.32 -1 2 C-1.66 2 -2.32 2 -3 2 C-3 2.66 -3 3.32 -3 4 C0.96 4 4.92 4 9 4 C6 8 6 8 3.5 8.81 C-1.39 9.07 -6.14 8.56 -11 8 C-11 7.01 -11 6.02 -11 5 C-11.66 5 -12.32 5 -13 5 C-12.67 4.01 -12.34 3.02 -12 2 C-11.34 2 -10.68 2 -10 2 C-10 1.34 -10 0.68 -10 0 C-6.72 -1.64 -3.57 -0.52 0 0 Z " fill="#D3DAE5" transform="translate(243,65)"/>
<path d="M0 0 C1.71 1.63 2.93 2.87 4 5 C6.33 5.68 8.66 6.34 11 7 C11.66 7.66 12.32 8.32 13 9 C12.01 8.84 12.01 8.84 7 8 C6.67 9.32 6.34 10.64 6 12 C4.02 12.33 2.04 12.66 0 13 C0 12.34 0 11.68 0 11 C-2.31 10.67 -4.62 10.34 -7 10 C-7.33 9.01 -7.66 8.02 -8 7 C-7.24 6.59 -6.47 6.17 -5.69 5.75 C-3.06 4.04 -1.7 2.59 0 0 Z " fill="#C1CAD5" transform="translate(273,52)"/>
<path d="M0 0 C0.99 0.66 1.98 1.32 3 2 C4.66 2.38 6.32 2.73 8 3 C7.67 3.99 7.34 4.98 7 6 C6.24 5.88 5.48 5.76 4.7 5.64 C3.71 5.51 2.71 5.38 1.69 5.25 C1.19 5.18 1.19 5.18 -1.3 4.83 C-4 5 -4 5 -5.86 6.98 C-6.04 7.32 -6.04 7.32 -7 9 C-5.68 9.33 -4.36 9.66 -3 10 C-4.98 11.65 -6.96 13.3 -9 15 C-9 14.34 -9 13.68 -9 13 C-10.07 13.19 -11.14 13.37 -12.25 13.56 C-15.4 13.93 -17.1 14.04 -20 13 C-20 12.34 -20 11.68 -20 11 C-16.7 10.67 -13.4 10.34 -10 10 C-10.33 8.68 -10.66 7.36 -11 6 C-4.5 2 -4.5 2 0 2 C0 1.34 0 0.68 0 0 Z " fill="#BDC2BD" transform="translate(309,57)"/>
<path d="M0 0 C0.99 0.66 0.99 0.66 6 4 C6 3.34 6 2.68 6 2 C8.06 1.19 8.06 1.19 11 1 C13.55 2.41 15.77 4.14 18 6 C17.67 6.66 17.34 7.32 17 8 C15.35 7.01 13.7 6.02 12 5 C12 5.99 12 6.98 12 8 C13.32 8.33 14.64 8.66 16 9 C15.67 9.99 15.34 10.98 15 12 C15 11.34 15 10.68 15 10 C14.53 10.33 14.53 10.33 12.12 12 C9 14 9 14 7 14 C7 13.01 7 12.02 7 11 C6.34 11 5.68 11 5 11 C5 9.02 5 7.04 5 5 C4.36 4.73 3.72 4.46 3.06 4.19 C1 3 1 3 0 0 Z " fill="#A3ABAF" transform="translate(319,56)"/>
<path d="M0 0 C0.27 0.32 0.27 0.32 1.65 1.97 C4.53 4.46 5.87 4.46 9.62 4.5 C15.74 4.79 20.51 6.39 26 9 C26 9.66 26 10.32 26 11 C23.71 11.17 21.42 11.33 19.12 11.5 C17.85 11.59 16.57 11.69 15.26 11.78 C13.51 11.9 11.75 12 10 12 C9.67 10.35 9.34 8.7 9 7 C7.72 6.92 6.44 6.84 5.12 6.75 C1.22 6.27 1.22 6.27 -0.56 4.06 C-1 2 -1 2 0 0 Z " fill="#CCD3DF" transform="translate(184,50)"/>
<path d="M0 0 C1.88 0.12 1.88 0.12 4 1 C5.25 4.06 5.25 4.06 6 7 C6.77 7.05 7.54 7.1 8.34 7.15 C9.34 7.22 10.34 7.3 11.38 7.38 C11.87 7.41 11.87 7.41 14.4 7.59 C17 8 17 8 19 10 C19.97 9.81 20.94 9.63 21.94 9.44 C22.44 9.37 22.44 9.37 25 9 C25.99 9.99 26.98 10.98 28 12 C25.03 12 22.06 12 19 12 C18.67 12.99 18.34 13.98 18 15 C15.36 15 12.72 15 10 15 C10 14.34 10 13.68 10 13 C11.32 12.34 12.64 11.68 14 11 C12.91 10.88 11.81 10.75 10.69 10.62 C7 10 7 10 4 8 C4 7.34 4 6.68 4 6 C3.01 5.67 2.02 5.34 1 5 C0.67 3.35 0.34 1.7 0 0 Z " fill="#E1DCD2" transform="translate(80,36)"/>
<path d="M0 0 C2.95 2.95 4.68 6.05 6 10 C7.32 10 8.64 10 10 10 C10 10.66 10 11.32 10 12 C11.32 11.67 12.64 11.34 14 11 C14 11.66 14 12.32 14 13 C11 15 11 15 7.94 15.5 C5 16 5 16 3 18 C1.68 17.34 0.36 16.68 -1 16 C-0.01 16 0.98 16 2 16 C1.67 15.01 1.34 14.02 1 13 C0.34 12.67 -0.32 12.34 -1 12 C-0.67 10.68 -0.34 9.36 0 8 C0 8.66 0 9.32 0 10 C0.66 10 1.32 10 2 10 C2 9.01 2 8.02 2 7 C1.01 6.67 0.02 6.34 -1 6 C-0.67 4.02 -0.34 2.04 0 0 Z " fill="#D6D8DC" transform="translate(168,39)"/>
<path d="M0 0 C0.66 1.32 1.32 2.64 2 4 C2.66 4 3.32 4 4 4 C6.14 11.57 6.14 11.57 5 16 C5.33 16.99 5.66 17.98 6 19 C4.35 18.67 2.7 18.34 1 18 C0.67 17.01 0.34 16.02 0 15 C-3.06 13.81 -3.06 13.81 -6 13 C-5.67 12.01 -5.34 11.02 -5 10 C-5 10.66 -5 11.32 -5 12 C-4.34 12.16 -4.34 12.16 -1 13 C-1.33 11.35 -1.66 9.7 -2 8 C-1.34 8 -0.68 8 0 8 C0 6.68 0 5.36 0 4 C-0.66 3.67 -1.32 3.34 -2 3 C-1.34 2.01 -0.68 1.02 0 0 Z " fill="#D8D6D5" transform="translate(96,25)"/>
<path d="M0 0 C0.12 1.13 0.25 2.27 0.38 3.44 C0.58 4.61 0.79 5.79 1 7 C1.66 7.33 2.32 7.66 3 8 C3 8.99 3 9.98 3 11 C2.01 10.67 1.02 10.34 0 10 C-1.91 11.91 -2.82 14.6 -4 17 C-6.94 16.25 -6.94 16.25 -10 15 C-10.88 12.88 -10.88 12.88 -11 11 C-10.01 11 -9.02 11 -8 11 C-7.83 10.64 -7.83 10.64 -6.98 8.85 C-6.53 7.93 -6.08 7.01 -5.62 6.06 C-5.18 5.15 -4.74 4.23 -4.29 3.29 C-2.44 0 -2.44 0 0 0 Z " fill="#ACB8CD" transform="translate(312,31)"/>
<path d="M0 0 C3.37 1.12 3.69 1.52 5.31 4.5 C7.68 9.44 6.54 12.97 5 18 C5 18.66 5 19.32 5 20 C5.66 20 6.32 20 7 20 C7.62 22.81 7.62 22.81 8 26 C7.34 26.99 6.68 27.98 6 29 C2.36 24.2 1.86 18.8 1 13 C1.99 13 2.98 13 4 13 C4 12.01 4 11.02 4 10 C3.01 9.67 2.02 9.34 1 9 C0.46 5.94 0 3.11 0 0 Z " fill="#DEDAD5" transform="translate(311,29)"/>
<path d="M0 0 C0 0.99 0 1.98 0 3 C2.97 3 5.94 3 9 3 C9 3.66 9 4.32 9 5 C8.01 5.33 7.02 5.66 6 6 C6.66 6.66 7.32 7.32 8 8 C6.04 8.03 4.08 8.05 2.12 8.06 C1.03 8.07 -0.06 8.09 -1.18 8.1 C-4 8 -4 8 -6 7 C-6 6.34 -6 5.68 -6 5 C-6.66 5 -7.32 5 -8 5 C-8 4.34 -8 3.68 -8 3 C-8.99 2.67 -9.98 2.34 -11 2 C-7.18 0.58 -4.09 -0.24 0 0 Z " fill="#C0D0E4" transform="translate(69,59)"/>
<path d="M0 0 C0.66 0 1.32 0 2 0 C2.47 0.8 2.95 1.61 3.44 2.44 C5 5 5 5 8 6 C7.67 6.99 7.34 7.98 7 9 C9.31 9.33 11.62 9.66 14 10 C13.67 10.66 13.34 11.32 13 12 C11.68 11.67 10.36 11.34 9 11 C9 11.99 9 12.98 9 14 C5.38 15.32 2.9 16 -1 16 C-1 15.34 -1 14.68 -1 14 C0.32 14 1.64 14 3 14 C2.68 13.45 2.37 12.9 2.04 12.33 C0.87 9.72 0.6 7.59 0.38 4.75 C0.3 3.86 0.23 2.97 0.15 2.05 C0.1 1.37 0.05 0.7 0 0 Z " fill="#D2D6DB" transform="translate(259,53)"/>
<path d="M0 0 C2 0 2 0 3.62 1.38 C5 3 5 3 5 5 C5.66 5.33 6.32 5.66 7 6 C4.69 5.67 2.38 5.34 0 5 C0 7.31 0 9.62 0 12 C-2.71 13.35 -5.01 13.07 -8 13 C-8 13.66 -8 14.32 -8 15 C-9.32 14.67 -10.64 14.34 -12 14 C-12 13.34 -12 12.68 -12 12 C-12.99 12 -13.98 12 -15 12 C-15 11.01 -15 10.02 -15 9 C-14.01 9 -13.02 9 -12 9 C-12 9.66 -12 10.32 -12 11 C-9.03 11 -6.06 11 -3 11 C-3.33 8.36 -3.66 5.72 -4 3 C-3.01 2.67 -2.02 2.34 -1 2 C-0.67 1.34 -0.34 0.68 0 0 Z " fill="#C2C4C2" transform="translate(79,39)"/>
<path d="M0 0 C0 0.99 0 1.98 0 3 C-1.48 3.17 -1.48 3.17 -9 4 C-9 4.33 -9 4.66 -9 5 C-13.62 5 -18.24 5 -23 5 C-23 4.01 -23 3.02 -23 2 C-15.26 -0.13 -8 -0.2 0 0 Z " fill="#C1C9D3" transform="translate(129,61)"/>
<path d="M0 0 C0.33 1.32 0.66 2.64 1 4 C2.94 3.69 2.94 3.69 5 3 C5.33 2.01 5.66 1.02 6 0 C6.66 0 7.32 0 8 0 C7.67 2.97 7.34 5.94 7 9 C5.68 8.67 4.36 8.34 3 8 C3.33 8.33 3.66 8.66 4 9 C4.37 10.99 4.7 12.99 5 15 C3.35 15 1.7 15 0 15 C-0.33 13.68 -0.66 12.36 -1 11 C-0.34 11 0.32 11 1 11 C1 10.34 1 9.68 1 9 C0.34 9 -0.32 9 -1 9 C-0.67 6.03 -0.34 3.06 0 0 Z " fill="#A8AFC1" transform="translate(88,29)"/>
<path d="M0 0 C0.33 1.32 0.66 2.64 1 4 C1.66 4 2.32 4 3 4 C3 4.66 3 5.32 3 6 C3.99 6 4.98 6 6 6 C6 6.99 6 7.98 6 9 C6.99 9.33 7.98 9.66 9 10 C4.38 10 -0.24 10 -5 10 C-5.33 9.34 -5.66 8.68 -6 8 C-5.01 7.01 -4.02 6.02 -3 5 C-3.66 4.67 -4.32 4.34 -5 4 C-5 3.34 -5 2.68 -5 2 C-3.35 1.34 -1.7 0.68 0 0 Z " fill="#9EADBE" transform="translate(58,42)"/>
<path d="M0 0 C0.66 0 1.32 0 2 0 C2 0.99 2 1.98 2 3 C2.66 3 3.32 3 4 3 C4 3.99 4 4.98 4 6 C6.97 6 9.94 6 13 6 C13.33 6.99 13.66 7.98 14 9 C10.7 9 7.4 9 4 9 C4 8.34 4 7.68 4 7 C1.36 7.16 1.36 7.16 -12 8 C-12 7.34 -12 6.68 -12 6 C-9.57 4.78 -7.58 4.68 -4.88 4.44 C-3.96 4.35 -3.05 4.27 -2.12 4.18 C-1.77 4.15 -1.77 4.15 0 4 C0 2.68 0 1.36 0 0 Z " fill="#A7B9D0" transform="translate(43,51)"/>
<path d="M0 0 C0.33 0.99 0.66 1.98 1 3 C-0.6 4.6 -2.47 4.28 -4.69 4.44 C-7.76 4.71 -10.13 5.05 -13.06 6.06 C-17.07 7.34 -20.83 7.17 -25 7 C-25 6.67 -25 6.34 -25 6 C-23.02 6 -21.04 6 -19 6 C-19.33 4.68 -19.66 3.36 -20 2 C-14.92 1.26 -10.11 0.92 -4.98 1.06 C-3 1 -3 1 0 0 Z " fill="#D1D8E0" transform="translate(43,52)"/>
<path d="M0 0 C1.12 1.75 1.12 1.75 2 4 C1.12 6.25 1.12 6.25 0 8 C0.66 8.33 1.32 8.66 2 9 C1.67 9.16 1.67 9.16 0 10 C0.99 10 1.98 10 3 10 C5.19 11 5.19 11 7 12 C4.12 12.96 2.3 13.11 -0.69 13.06 C-1.09 13.06 -1.09 13.06 -3.14 13.04 C-3.44 13.03 -3.44 13.03 -5 13 C-5 12.34 -5 11.68 -5 11 C-5.99 10.67 -6.98 10.34 -8 10 C-7.38 9.44 -6.76 8.89 -6.12 8.31 C-3.93 5.92 -3.13 4 -2 1 C-1.34 0.67 -0.68 0.34 0 0 Z " fill="#B0BED2" transform="translate(36,41)"/>
<path d="M0 0 C0.33 0.66 0.66 1.32 1 2 C3.97 1.34 6.94 0.68 10 0 C10 0.66 10 1.32 10 2 C8.68 2 7.36 2 6 2 C6 2.66 6 3.32 6 4 C6.99 4 7.98 4 9 4 C8.67 4.99 8.34 5.98 8 7 C7.34 7 6.68 7 6 7 C6 6.34 6 5.68 6 5 C5.67 5.16 5.67 5.16 4 6 C2 6.04 -0 6.04 -2 6 C-2 5.34 -2 4.68 -2 4 C-2.38 4.16 -2.38 4.16 -4.31 5 C-7 6 -7 6 -10 6 C-9 3 -9 3 -6.12 1.31 C-3 0 -3 0 0 0 Z " fill="#A7B3C5" transform="translate(349,55)"/>
<path d="M0 0 C2.5 1.12 2.5 1.12 5 3 C5.31 6.19 5.31 6.19 5 9 C5.66 9 6.32 9 7 9 C7 9.99 7 10.98 7 12 C5.35 12 3.7 12 2 12 C2 11.34 2 10.68 2 10 C-1.15 8.95 -3.39 8.9 -6.69 8.94 C-7.68 8.95 -8.68 8.96 -9.7 8.96 C-10.46 8.98 -11.22 8.99 -12 9 C-12 8.34 -12 7.68 -12 7 C-9.12 5.56 -6.58 5.91 -3.38 5.94 C-2.19 5.95 -1 5.96 0.23 5.96 C1.14 5.98 2.06 5.99 3 6 C2.75 5.69 2.75 5.69 1.5 4.12 C0 2 0 2 0 0 Z " fill="#C6C7C0" transform="translate(319,58)"/>
<path d="M0 0 C0.66 0 1.32 0 2 0 C2.1 1.11 2.21 2.23 2.31 3.38 C2.43 3.97 2.43 3.97 3 7 C3.99 7.66 4.98 8.32 6 9 C5.67 9.66 5.34 10.32 5 11 C3.82 10.84 2.65 10.67 1.44 10.5 C-2.41 10.01 -6.12 9.92 -10 10 C-9.67 8.68 -9.34 7.36 -9 6 C-6.03 5.34 -3.06 4.68 0 4 C0 2.68 0 1.36 0 0 Z " fill="#B7C1D0" transform="translate(182,48)"/>
<path d="M0 0 C0.99 0.16 0.99 0.16 6 1 C5.34 1.66 4.68 2.32 4 3 C3.34 2.67 2.68 2.34 2 2 C1.67 2.99 1.34 3.98 1 5 C-0.98 5.33 -2.96 5.66 -5 6 C-5.33 7.32 -5.66 8.64 -6 10 C-8.64 10 -11.28 10 -14 10 C-14 9.01 -14 8.02 -14 7 C-13.34 7 -12.68 7 -12 7 C-12 6.01 -12 5.02 -12 4 C-10.19 3.84 -10.19 3.84 -1 3 C-0.67 2.01 -0.34 1.02 0 0 Z " fill="#94A6BC" transform="translate(280,60)"/>
<path d="M0 0 C1.46 0.14 2.92 0.29 4.38 0.44 C4.78 0.48 4.78 0.48 6.84 0.68 C9 1 9 1 11 2 C11 2.66 11 3.32 11 4 C11.99 4.33 12.98 4.66 14 5 C13 6 13 6 10.28 6.1 C9.73 6.09 9.73 6.09 6.94 6.06 C6.39 6.06 6.39 6.06 3.59 6.04 C2.74 6.02 1.88 6.01 1 6 C1 5.34 1 4.68 1 4 C-0.32 4 -1.64 4 -3 4 C-3 3.34 -3 2.68 -3 2 C-2.01 2 -1.02 2 0 2 C0 1.34 0 0.68 0 0 Z " fill="#B4BFCE" transform="translate(371,59)"/>
<path d="M0 0 C1.65 0.33 3.3 0.66 5 1 C4.67 1.66 4.34 2.32 4 3 C2.35 2.67 0.7 2.34 -1 2 C-0.67 1.34 -0.34 0.68 0 0 Z " fill="#EAEEF4" transform="translate(92,66)"/>
<path d="M0 0 C0.99 0.33 1.98 0.66 3 1 C2.01 1.33 1.02 1.66 0 2 C0 1.34 0 0.68 0 0 Z " fill="#EBEFF3" transform="translate(274,76)"/>
</svg>
