<?xml version="1.0" encoding="UTF-8"?>
<!-- Generator: visioncortex VTracer 0.6.12 -->
<svg version="1.1" xmlns="http://www.w3.org/2000/svg" width="164" height="69">
<path d="M0 0 C3.23 1.42 4.3 3.99 6.12 6.94 C6.68 7.47 7.24 8.01 7.81 8.56 C9.43 10.26 9.73 11.66 10.12 13.94 C11.11 13.61 12.11 13.28 13.12 12.94 C13.45 12.28 13.78 11.62 14.12 10.94 C14.78 10.94 15.44 10.94 16.12 10.94 C17.44 13.91 18.77 16.88 20.12 19.94 C21.44 19.61 22.77 19.28 24.12 18.94 C24.12 19.6 24.12 20.26 24.12 20.94 C24.78 20.94 25.44 20.94 26.12 20.94 C26.29 21.27 26.29 21.27 27.12 22.94 C29.5 22.69 29.5 22.69 32.12 21.94 C33.44 19.87 33.44 19.87 34.12 17.94 C34.78 17.94 35.44 17.94 36.12 17.94 C40.12 24.69 40.12 24.69 40.12 26.94 C41.2 26.71 42.27 26.48 43.38 26.25 C47.12 25.94 47.12 25.94 49.25 27.25 C49.87 27.81 50.49 28.36 51.12 28.94 C52.77 29.65 54.44 30.33 56.12 30.94 C52.63 33.06 49.61 33.28 45.56 33.5 C42.13 33.69 39.39 33.85 36.12 34.94 C36.78 35.27 37.44 35.6 38.12 35.94 C38.12 36.6 38.12 37.26 38.12 37.94 C37.57 37.96 37.02 37.98 36.44 38 C33.92 38.09 31.4 38.2 28.88 38.31 C28 38.34 27.13 38.37 26.23 38.41 C25.39 38.44 24.54 38.48 23.67 38.52 C22.9 38.55 22.12 38.59 21.32 38.62 C18.92 38.97 17.23 39.74 15.12 40.94 C17.77 41.6 20.41 42.26 23.12 42.94 C23.12 43.6 23.12 44.26 23.12 44.94 C18.05 45.65 13.24 46.04 8.12 45.94 C8.12 41.94 8.12 41.94 9.12 40.94 C8.14 40.94 7.14 40.94 6.12 40.94 C4.02 43.83 3.12 45.32 3.12 48.94 C-5.3 50.22 -5.3 50.22 -9.88 48.94 C-9.55 47.95 -9.22 46.96 -8.88 45.94 C-12.26 44.91 -13.9 44.94 -17.38 45.94 C-21.01 46.98 -22.34 46.91 -25.88 45.94 C-28.21 45.59 -30.54 45.26 -32.88 44.94 C-32.88 43.95 -32.88 42.96 -32.88 41.94 C-32.24 41.89 -31.6 41.84 -30.94 41.79 C-30.12 41.71 -29.29 41.64 -28.44 41.56 C-27.61 41.49 -26.79 41.42 -25.94 41.35 C-25.6 41.28 -25.6 41.28 -23.88 40.94 C-23.71 40.61 -23.71 40.61 -22.88 38.94 C-28.11 36.7 -31.82 37 -37.25 37.88 C-43.1 38.8 -48.01 38.9 -53.88 37.94 C-54.2 36.62 -54.53 35.3 -54.88 33.94 C-59.83 33.28 -64.78 32.62 -69.88 31.94 C-68.88 28.94 -68.88 28.94 -66.66 27.78 C-62.93 26.65 -59.37 26.5 -55.5 26.28 C-52.81 25.93 -51.13 25.42 -48.88 23.94 C-47.84 21.95 -46.84 19.95 -45.88 17.94 C-44.89 17.28 -43.89 16.62 -42.88 15.94 C-42.55 17.59 -42.22 19.24 -41.88 20.94 C-38.6 20.94 -36.03 20.64 -32.88 19.94 C-32.71 19.44 -32.71 19.44 -31.88 16.94 C-31.22 16.94 -30.55 16.94 -29.88 16.94 C-29.55 15.62 -29.22 14.3 -28.88 12.94 C-28.22 12.94 -27.55 12.94 -26.88 12.94 C-26.22 14.59 -25.55 16.24 -24.88 17.94 C-24.22 17.94 -23.55 17.94 -22.88 17.94 C-22.55 15.96 -22.22 13.98 -21.88 11.94 C-20.88 11.94 -19.9 11.94 -18.88 11.94 C-18.71 12.43 -18.71 12.43 -17.88 14.94 C-15 13.15 -13.89 11.97 -12.38 8.88 C-10.74 5.67 -10.07 5.24 -6.88 3.94 C-5.86 2.96 -4.85 1.96 -3.88 0.94 C-1.88 -0.06 -1.88 -0.06 0 0 Z M-16.88 39.94 C-15.56 40.93 -14.23 41.92 -12.88 42.94 C-12.22 41.95 -11.56 40.96 -10.88 39.94 C-12.86 39.94 -14.84 39.94 -16.88 39.94 Z " fill="#D2D2CF" transform="translate(79.875,10.0625)"/>
<path d="M0 0 C-0.33 2.31 -0.66 4.62 -1 7 C-0.34 7 0.32 7 1 7 C1.2 7.76 1.41 8.52 1.62 9.3 C1.89 10.29 2.16 11.29 2.44 12.31 C2.7 13.3 2.97 14.28 3.25 15.3 C3.78 17.22 4.37 19.11 5 21 C4.01 21 3.02 21 2 21 C2 20.34 2 19.68 2 19 C1.34 19.33 0.68 19.66 0 20 C0 21.32 0 22.64 0 24 C2.38 23.75 2.38 23.75 5 23 C6.51 20.73 7.13 18.6 8 16 C8.16 16.66 8.16 16.66 9 20 C9.66 20 10.32 20 11 20 C11 21.32 11 22.64 11 24 C10.34 24.33 9.68 24.66 9 25 C9.33 25.33 9.33 25.33 11 27 C10.67 27.66 10.34 28.32 10 29 C4.72 29 -0.56 29 -6 29 C-6 29.66 -6 30.32 -6 31 C-7.98 31 -9.96 31 -12 31 C-12 30.34 -12 29.68 -12 29 C-12.99 29 -13.98 29 -15 29 C-15 28.34 -15 27.68 -15 27 C-15.66 27 -16.32 27 -17 27 C-16.84 27.49 -16.84 27.49 -16 30 C-17.65 30.33 -19.3 30.66 -21 31 C-21 31.66 -21 32.32 -21 33 C-19.68 33 -18.36 33 -17 33 C-17 33.66 -17 34.32 -17 35 C-17.66 35 -18.32 35 -19 35 C-19 35.66 -19 36.32 -19 37 C-19.99 37 -20.98 37 -22 37 C-22 36.01 -22 35.02 -22 34 C-22.65 34.2 -23.31 34.41 -23.98 34.62 C-33.69 37.49 -42.98 38.73 -53 37 C-53.33 35.68 -53.66 34.36 -54 33 C-58.95 32.34 -63.9 31.68 -69 31 C-68 28 -68 28 -65.79 26.84 C-62.05 25.71 -58.49 25.56 -54.62 25.34 C-51.93 24.99 -50.26 24.49 -48 23 C-46.97 21.02 -45.97 19.02 -45 17 C-44.01 16.34 -43.02 15.68 -42 15 C-41.67 16.65 -41.34 18.3 -41 20 C-37.73 20 -35.15 19.7 -32 19 C-31.84 18.51 -31.84 18.51 -31 16 C-30.34 16 -29.68 16 -29 16 C-28.67 14.68 -28.34 13.36 -28 12 C-27.34 12 -26.68 12 -26 12 C-25.34 13.65 -24.68 15.3 -24 17 C-23.34 17 -22.68 17 -22 17 C-21.67 15.02 -21.34 13.04 -21 11 C-20.01 11 -19.02 11 -18 11 C-17.84 11.5 -17.84 11.5 -17 14 C-14.12 12.21 -13.02 11.03 -11.5 7.94 C-9.86 4.73 -9.2 4.3 -6 3 C-5.74 2.73 -5.74 2.73 -4.44 1.38 C-3 0 -3 0 0 0 Z " fill="#9FABB5" transform="translate(79,11)"/>
<path d="M0 0 C0.66 0 1.32 0 2 0 C2 0.66 2 1.32 2 2 C2.99 2 3.98 2 5 2 C5 2.66 5 3.32 5 4 C6.98 4 8.96 4 11 4 C11 3.34 11 2.68 11 2 C16.75 1.88 16.75 1.88 19 3 C19 3.99 19 4.98 19 6 C19.99 5.67 20.98 5.34 22 5 C24.23 4.93 26.46 4.92 28.69 4.94 C29.28 4.94 29.28 4.94 32.26 4.96 C33.17 4.98 34.07 4.99 35 5 C35 4.34 35 3.68 35 3 C33.02 3 31.04 3 29 3 C29 2.34 29 1.68 29 1 C35.33 1 41.67 1 48 1 C48 1.99 48 2.98 48 4 C50.64 4 53.28 4 56 4 C56 4.33 56 4.66 56 5 C51.71 5 47.42 5 43 5 C43 4.34 43 3.68 43 3 C42.01 3 41.02 3 40 3 C40 4.65 40 6.3 40 8 C39.22 8.08 38.43 8.16 37.62 8.25 C35 9 35 9 33.69 11.06 C33.57 11.38 33.57 11.38 33 13 C35.64 13.66 38.28 14.32 41 15 C41 15.66 41 16.32 41 17 C35.93 17.71 31.12 18.11 26 18 C26 14 26 14 27 13 C26.01 13 25.02 13 24 13 C21.89 15.89 21 17.38 21 21 C12.57 22.29 12.57 22.29 8 21 C8.33 20.01 8.66 19.02 9 18 C5.61 16.97 3.97 17.01 0.5 18 C-3.13 19.04 -4.46 18.97 -8 18 C-10.33 17.66 -12.66 17.32 -15 17 C-15 16.01 -15 15.02 -15 14 C-14.68 13.98 -14.68 13.98 -13.07 13.85 C-12.65 13.81 -12.65 13.81 -10.56 13.62 C-9.74 13.56 -8.92 13.49 -8.07 13.41 C-7.38 13.28 -6.7 13.14 -6 13 C-5.67 12.34 -5.34 11.68 -5 11 C-5.83 10.67 -5.83 10.67 -10 9 C-7 7 -7 7 -5 7 C-5 7.99 -5 8.98 -5 10 C-4.01 10 -3.02 10 -2 10 C-2 9.34 -2 8.68 -2 8 C-1.34 8 -0.68 8 0 8 C0 7.34 0 6.68 0 6 C-1.32 6 -2.64 6 -4 6 C-4 5.34 -4 4.68 -4 4 C-2.68 3.34 -1.36 2.68 0 2 C0 1.34 0 0.68 0 0 Z M1 12 C2.32 12.99 3.64 13.98 5 15 C5.66 14.01 6.32 13.02 7 12 C5.02 12 3.04 12 1 12 Z " fill="#C1C0B8" transform="translate(62,38)"/>
<path d="M0 0 C2.17 2.17 2.42 3.03 3.06 5.94 C3.61 8.37 4.21 10.63 5 13 C4.01 13 3.02 13 2 13 C2 12.34 2 11.68 2 11 C1.67 11.16 1.67 11.16 0 12 C0 13.32 0 14.64 0 16 C2.38 15.75 2.38 15.75 5 15 C6.51 12.73 7.13 10.6 8 8 C8.33 9.32 8.66 10.64 9 12 C9.66 12 10.32 12 11 12 C11 13.32 11 14.64 11 16 C10.67 16.16 10.67 16.16 9 17 C9.66 17.66 10.32 18.32 11 19 C10.67 19.66 10.34 20.32 10 21 C4.72 21 -0.56 21 -6 21 C-6 21.66 -6 22.32 -6 23 C-7.98 23 -9.96 23 -12 23 C-12 22.34 -12 21.68 -12 21 C-12.99 21 -13.98 21 -15 21 C-15 20.01 -15 19.02 -15 18 C-15.99 18 -16.98 18 -18 18 C-18 17.34 -18 16.68 -18 16 C-16.02 16 -14.04 16 -12 16 C-12 15.34 -12 14.68 -12 14 C-19.43 15 -19.43 15 -23 16 C-22.67 15.01 -22.34 14.02 -22 13 C-20.02 13 -18.04 13 -16 13 C-15.34 11.68 -14.68 10.36 -14 9 C-11.69 9.33 -9.38 9.66 -7 10 C-6.67 11.32 -6.34 12.64 -6 14 C-5.34 14 -4.68 14 -4 14 C-4 12.35 -4 10.7 -4 9 C-3.34 9 -2.68 9 -2 9 C-2 8.34 -2 7.68 -2 7 C-1.34 7 -0.68 7 0 7 C0 4.69 0 2.38 0 0 Z " fill="#969FA5" transform="translate(79,19)"/>
<path d="M0 0 C0.66 0.66 1.32 1.32 2 2 C2.66 2 3.32 2 4 2 C4 2.66 4 3.32 4 4 C7 6 7 6 10 7 C9.67 7.99 9.34 8.98 9 10 C9.66 9.67 10.32 9.34 11 9 C12.71 8.93 14.42 8.92 16.12 8.94 C17.04 8.95 17.95 8.96 18.88 8.96 C19.23 8.97 19.23 8.97 21 9 C21 9.99 21 10.98 21 12 C18.33 12.37 15.67 12.72 13 13.06 C12.26 13.17 11.51 13.27 10.75 13.38 C5.59 14.03 1.13 13.83 -4 13 C-4.33 11.68 -4.66 10.36 -5 9 C-7.48 8.67 -7.48 8.67 -20 7 C-19 4 -19 4 -16.79 2.85 C-13.92 1.97 -11.37 1.63 -8.38 1.44 C-5.29 1.23 -2.95 0.98 0 0 Z " fill="#C1CBD8" transform="translate(30,35)"/>
<path d="M0 0 C0 0.99 0 1.98 0 3 C0.99 3 1.98 3 3 3 C3 2.34 3 1.68 3 1 C4.98 0.67 6.96 0.34 9 0 C9.12 0.64 9.25 1.28 9.38 1.94 C9.58 2.62 9.79 3.3 10 4 C10.66 4.33 11.32 4.66 12 5 C10.68 5.33 9.36 5.66 8 6 C8.99 6 9.98 6 11 6 C11.33 6.66 11.66 7.32 12 8 C16.95 8 21.9 8 27 8 C26.01 7.34 25.02 6.68 24 6 C25.65 5.67 27.3 5.34 29 5 C28.69 5.74 28.38 6.48 28.06 7.25 C27.19 9.51 26.52 11.65 26 14 C17.57 15.29 17.57 15.29 13 14 C13.33 13.01 13.66 12.02 14 11 C10.61 9.97 8.97 10.01 5.5 11 C1.87 12.04 0.54 11.97 -3 11 C-5.33 10.66 -7.66 10.32 -10 10 C-10 9.01 -10 8.02 -10 7 C-9.68 6.98 -9.68 6.98 -8.07 6.85 C-7.24 6.78 -6.41 6.7 -5.56 6.62 C-4.74 6.56 -3.92 6.49 -3.07 6.41 C-2.38 6.28 -1.7 6.14 -1 6 C-0.67 5.34 -0.34 4.68 0 4 C-0.83 3.67 -0.83 3.67 -5 2 C-2 0 -2 0 0 0 Z " fill="#C7D1DE" transform="translate(57,45)"/>
<path d="M0 0 C0.99 0.33 1.98 0.66 3 1 C3 1.99 3 2.98 3 4 C5.64 4 8.28 4 11 4 C11 4.33 11 4.66 11 5 C6.71 5 2.42 5 -2 5 C-2 4.34 -2 3.68 -2 3 C-2.99 3 -3.98 3 -5 3 C-5 4.65 -5 6.3 -5 8 C-6.65 8.33 -8.3 8.66 -10 9 C-10 9.66 -10 10.32 -10 11 C-11.77 11.08 -13.54 11.14 -15.31 11.19 C-16.3 11.22 -17.28 11.26 -18.3 11.29 C-21 11 -21 11 -22.86 9.49 C-23.23 9 -23.61 8.51 -24 8 C-23.67 7.01 -23.34 6.02 -23 5 C-18.71 5 -14.42 5 -10 5 C-10 4.34 -10 3.68 -10 3 C-11.98 3 -13.96 3 -16 3 C-16 2.34 -16 1.68 -16 1 C-14.93 1.01 -13.86 1.02 -12.75 1.04 C-11.36 1.04 -9.96 1.05 -8.56 1.06 C-7.86 1.07 -7.15 1.08 -6.42 1.09 C-4.61 1.1 -2.81 1.05 -1 1 C-0.67 0.67 -0.34 0.34 0 0 Z " fill="#ACB4BD" transform="translate(107,38)"/>
<path d="M0 0 C1.75 0.12 1.75 0.12 4 1 C5.4 2.95 6.73 4.96 8 7 C8.56 7.54 9.11 8.07 9.69 8.62 C11.31 10.32 11.48 11.75 12 14 C12.66 14.33 13.32 14.66 14 15 C13.67 15.5 13.67 15.5 12 18 C10.68 17.67 9.36 17.34 8 17 C8.33 18.32 8.66 19.64 9 21 C8.34 21 7.68 21 7 21 C6.67 22.32 6.34 23.64 6 25 C4.35 25 2.7 25 1 25 C0.67 23.68 0.34 22.36 0 21 C0.99 20.67 1.98 20.34 3 20 C3 20.66 3 21.32 3 22 C3.99 22 4.98 22 6 22 C5.76 21.68 5.76 21.68 4.56 20.06 C2.53 16.08 2.28 12.42 2 8 C1.34 8 0.68 8 0 8 C0 5.36 0 2.72 0 0 Z " fill="#D3CFC9" transform="translate(78,10)"/>
<path d="M0 0 C0.66 0 1.32 0 2 0 C3.32 2.97 4.64 5.94 6 9 C6.99 9 7.98 9 9 9 C9.33 11.31 9.66 13.62 10 16 C5.73 17.17 2.34 16.66 -2 16 C-2.66 16.33 -3.32 16.66 -4 17 C-4.99 16.01 -5.98 15.02 -7 14 C-6.01 14 -5.02 14 -4 14 C-4 12.68 -4 11.36 -4 10 C-4.66 10 -5.32 10 -6 10 C-6.33 8.68 -6.66 7.36 -7 6 C-5 5.33 -3 4.67 -1 4 C-0.31 1.94 -0.31 1.94 0 0 Z " fill="#B4B7B7" transform="translate(94,21)"/>
<path d="M0 0 C2.31 0.33 4.62 0.66 7 1 C7 4.96 7 8.92 7 13 C5.35 13.33 3.7 13.66 2 14 C2 13.34 2 12.68 2 12 C1.01 12 0.02 12 -1 12 C-1 11.01 -1 10.02 -1 9 C-1.99 9 -2.98 9 -4 9 C-4 8.34 -4 7.68 -4 7 C-2.02 7 -0.04 7 2 7 C2 6.34 2 5.68 2 5 C-5.43 6 -5.43 6 -9 7 C-8.67 6.01 -8.34 5.02 -8 4 C-6.02 4 -4.04 4 -2 4 C-1.34 2.68 -0.68 1.36 0 0 Z " fill="#798894" transform="translate(65,28)"/>
<path d="M0 0 C0.35 0.16 0.35 0.16 2.12 1 C5.26 2.09 7.71 2.15 11 2 C11 2.66 11 3.32 11 4 C9.02 4.33 7.04 4.66 5 5 C5 5.66 5 6.32 5 7 C7.97 7.33 10.94 7.66 14 8 C14 8.66 14 9.32 14 10 C13.34 10 12.68 10 12 10 C12 10.66 12 11.32 12 12 C11.01 12 10.02 12 9 12 C9 11.01 9 10.02 9 9 C8.6 9.09 8.6 9.09 6.56 9.56 C5.72 9.71 4.87 9.85 4 10 C3.67 9.67 3.34 9.34 3 9 C0.98 8.93 -1.04 8.92 -3.06 8.94 C-4.17 8.95 -5.27 8.96 -6.41 8.96 C-7.26 8.98 -8.12 8.99 -9 9 C-9.33 7.35 -9.66 5.7 -10 4 C-8.19 3.84 -8.19 3.84 1 3 C0.67 2.01 0.34 1.02 0 0 Z " fill="#9FABB7" transform="translate(48,36)"/>
<path d="M0 0 C3.62 1.12 3.62 1.12 7 3 C7.8 3.39 8.61 3.78 9.44 4.19 C9.95 4.46 10.47 4.72 11 5 C10.67 5.66 10.34 6.32 10 7 C4.14 8.2 -2.26 8.91 -8 7 C-10 6.96 -12 6.96 -14 7 C-14 6.01 -14 5.02 -14 4 C-12.8 4.08 -11.61 4.16 -10.38 4.25 C-6.74 4.29 -6.08 4.06 -2.94 1.81 C-1.97 1.21 -1 0.62 0 0 Z " fill="#CBD1DB" transform="translate(144,41)"/>
<path d="M0 0 C2.06 0.44 2.06 0.44 4 1 C3.5 1.76 3.01 2.53 2.5 3.31 C1 6 1 6 1 9 C-7.43 10.29 -7.43 10.29 -12 9 C-11.67 8.01 -11.34 7.02 -11 6 C-13.31 5.67 -15.62 5.34 -18 5 C-16 2 -16 2 -13 1 C-13 1.66 -13 2.32 -13 3 C-8.05 3 -3.1 3 2 3 C1.01 2.34 0.02 1.68 -1 1 C-0.67 0.67 -0.34 0.34 0 0 Z " fill="#D6E0ED" transform="translate(82,50)"/>
<path d="M0 0 C1.58 -0.08 3.17 -0.14 4.75 -0.19 C5.19 -0.2 5.19 -0.2 7.42 -0.29 C10.49 0.06 11.68 1.03 14 3 C15.65 3.71 17.31 4.39 19 5 C16.04 6.67 13.63 7.33 10.25 7.62 C9.45 7.7 8.65 7.77 7.83 7.85 C7.22 7.9 6.62 7.95 6 8 C5.67 7.01 5.34 6.02 5 5 C4.01 5.33 3.02 5.66 2 6 C-0.19 5.56 -0.19 5.56 -2 5 C-2 4.01 -2 3.02 -2 2 C-1.34 2 -0.68 2 0 2 C0 1.34 0 0.68 0 0 Z " fill="#BDC3C9" transform="translate(117,36)"/>
<path d="M0 0 C0.66 0.66 1.32 1.32 2 2 C1.67 2.49 1.67 2.49 0 5 C1.98 4.67 3.96 4.34 6 4 C6.33 4.66 6.66 5.32 7 6 C6.19 6.06 5.38 6.12 4.55 6.18 C4.02 6.23 4.02 6.23 1.31 6.44 C0.26 6.52 -0.8 6.6 -1.89 6.68 C-4.65 6.96 -7.29 7.4 -10 8 C-9.67 6.35 -9.34 4.7 -9 3 C-10.32 3.33 -11.64 3.66 -13 4 C-12.67 3.01 -12.34 2.02 -12 1 C-7.95 0.23 -4.13 -0.28 0 0 Z " fill="#909EAB" transform="translate(43,34)"/>
<path d="M0 0 C-0.33 2.31 -0.66 4.62 -1 7 C-0.34 7.33 0.32 7.66 1 8 C0.67 10.31 0.34 12.62 0 15 C-0.66 15 -1.32 15 -2 15 C-2 15.66 -2 16.32 -2 17 C-2.66 17 -3.32 17 -4 17 C-4 18.65 -4 20.3 -4 22 C-5.32 22.33 -6.64 22.66 -8 23 C-7.55 21.73 -7.09 20.46 -6.62 19.19 C-6.37 18.48 -6.11 17.77 -5.85 17.04 C-5 15 -5 15 -3 12 C-2.88 9.31 -2.88 9.31 -3 7 C-3.66 7 -4.32 7 -5 7 C-5.69 5.19 -5.69 5.19 -6 3 C-4.05 0.27 -3.45 0 0 0 Z " fill="#B2B9BF" transform="translate(79,11)"/>
<path d="M0 0 C0.99 0 1.98 0 3 0 C3.33 0.99 3.66 1.98 4 3 C5.65 2.01 7.3 1.02 9 0 C10 1 10 1 10.06 4.06 C10.04 5.03 10.02 6 10 7 C8.67 7.33 7.33 7.67 6 8 C5.36 8.23 4.72 8.45 4.06 8.69 C1.26 9.11 -0.48 8.19 -3 7 C-2.34 6.67 -1.68 6.34 -1 6 C-0.38 2.94 -0.38 2.94 0 0 Z " fill="#AAB4BA" transform="translate(58,22)"/>
<path d="M0 0 C3.3 0 6.6 0 10 0 C9.67 0.66 9.34 1.32 9 2 C11.64 2.66 14.28 3.32 17 4 C17 4.66 17 5.32 17 6 C11.93 6.71 7.12 7.11 2 7 C2 3 2 3 3 2 C2.01 1.34 1.02 0.68 0 0 Z " fill="#DDE1E6" transform="translate(86,49)"/>
<path d="M0 0 C4.16 -0.08 7.95 0.02 12 1 C11.34 2.32 10.68 3.64 10 5 C10.66 5 11.32 5 12 5 C12 5.99 12 6.98 12 8 C10.39 7.74 8.79 7.47 7.19 7.19 C6.29 7.04 5.4 6.89 4.48 6.73 C1.82 5.95 0.74 5.11 -1 3 C-0.67 2.01 -0.34 1.02 0 0 Z " fill="#95A4B7" transform="translate(67,44)"/>
<path d="M0 0 C2.31 0 4.62 0 7 0 C7 0.66 7 1.32 7 2 C5.02 2 3.04 2 1 2 C1 2.66 1 3.32 1 4 C1.99 4.33 2.98 4.66 4 5 C3.34 5 2.68 5 2 5 C2.33 5.99 2.66 6.98 3 8 C-2.42 11.08 -2.42 11.08 -5.38 10.69 C-5.91 10.46 -6.45 10.23 -7 10 C-7 9.34 -7 8.68 -7 8 C-5.02 7.67 -3.04 7.34 -1 7 C-1 6.34 -1 5.68 -1 5 C-1.95 5.21 -2.9 5.41 -3.88 5.62 C-4.91 5.75 -5.94 5.87 -7 6 C-7.66 5.34 -8.32 4.68 -9 4 C-8 3 -8 3 -4.44 2.94 C-3.3 2.96 -2.17 2.98 -1 3 C-0.67 2.01 -0.34 1.02 0 0 Z " fill="#929EA9" transform="translate(60,33)"/>
<path d="M0 0 C1.65 0 3.3 0 5 0 C5.33 1.32 5.66 2.64 6 4 C5.67 4.16 5.67 4.16 4 5 C4 5.66 4 6.32 4 7 C-1.38 7.92 -6.54 8.11 -12 8 C-11.67 6.68 -11.34 5.36 -11 4 C-7.05 3.82 -4.4 3.91 -1 6 C-0.67 4.02 -0.34 2.04 0 0 Z " fill="#BEC9D7" transform="translate(80,46)"/>
</svg>
