<svg version="1.1" xmlns="http://www.w3.org/2000/svg" width="1200" height="694"><style>
  @keyframes sway   { from { transform: translateX(-3px);} to { transform: translateX(3px);} }
  @keyframes drift  { from { transform: translateX(-38px);} to { transform: translateX(38px);} }
  @keyframes flow   { 0% { transform: translateY(-10px); opacity: 0;}
                      25% { opacity: .55;} 75% { opacity: .55;}
                      100% { transform: translateY(14px); opacity: 0;} }
  @keyframes glim   { 0%,100% { opacity: .02;} 50% { opacity: .14;} }
  @keyframes wave   { 0%,100% { transform: skewX(-6deg);} 50% { transform: skewX(6deg);} }
  .cloud        { animation: sway 26s ease-in-out infinite alternate; }
  .cloud-clone  { animation: drift 70s ease-in-out infinite alternate; opacity: .5; }
  .fall-clone   { animation: flow 2.6s linear infinite; }
  .water-sheen  { animation: glim 7s ease-in-out infinite; fill: #ffffff; }
  .flag         { animation: wave 1.8s ease-in-out infinite; }
  .cloud, .cloud-clone, .fall-clone, .flag, .water-sheen { will-change: transform, opacity; }
  path { transform-box: fill-box; transform-origin: center; }
</style>
<path d="M0 0 C0.66 0 1.32 0 2 0 C1.67 1.98 1.34 3.96 1 6 C1.54 5.91 1.54 5.91 4.25 5.44 C7.4 5.07 9.1 4.96 12 6 C11.34 7.65 10.68 9.3 10 11 C8.93 11.12 7.86 11.25 6.75 11.38 C3 12 3 12 1 13.12 C-2.16 14.51 -4.71 13.72 -8 13 C-8.99 12.34 -9.98 11.68 -11 11 C-11 13.64 -11 16.28 -11 19 C-14.3 19 -17.6 19 -21 19 C-21 14.71 -21 10.42 -21 6 C-19.02 6 -17.04 6 -15 6 C-14.42 5.36 -13.85 4.72 -13.25 4.06 C-10.1 1.17 -7.31 1.39 -3.14 1.18 C-1 1 -1 1 0 0 Z " fill="#686456" transform="translate(970,675)" id="p646" class="grass"/>
<path d="M0 0 C0.33 0 0.66 0 1 0 C1.86 11.27 -0.97 22.5 -5 33 C-7.12 34.38 -7.12 34.38 -9 35 C-9 35.66 -9 36.32 -9 37 C-9.99 37 -10.98 37 -12 37 C-14.36 33.46 -14.54 30.61 -14.81 26.5 C-14.88 25.82 -14.94 25.15 -15.01 24.45 C-15.35 19.51 -15.35 19.51 -13.64 17.03 C-12 16 -12 16 -10 16 C-9.01 13.03 -8.02 10.06 -7 7 C-6.01 7 -5.02 7 -4 7 C-3.71 6.22 -3.42 5.43 -3.12 4.62 C-2 2 -2 2 0 0 Z " fill="#9D9D9C" transform="translate(331,649)" id="p690" class="grass"/>
<path d="M0 0 C2.64 0 5.28 0 8 0 C8.33 1.65 8.66 3.3 9 5 C9.66 4.67 10.32 4.34 11 4 C10.67 4.99 10.34 5.98 10 7 C7.94 7.69 7.94 7.69 6 8 C5.63 13.55 5.63 13.55 7.5 15.81 C8 16.2 8.49 16.6 9 17 C9 17.33 9 17.66 9 18 C8.21 17.98 7.43 17.95 6.62 17.93 C0.62 17.83 -4.33 18.03 -10 20 C-10.66 20 -11.32 20 -12 20 C-12.33 19.01 -12.66 18.02 -13 17 C-15.06 16.31 -15.06 16.31 -17 16 C-17.62 13.62 -17.62 13.62 -18 11 C-17.34 10.34 -16.68 9.68 -16 9 C-14.68 9 -13.36 9 -12 9 C-12 9.99 -12 10.98 -12 12 C-10.02 12 -8.04 12 -6 12 C-6.99 9.69 -7.98 7.38 -9 5 C-7.35 5 -5.7 5 -4 5 C-3.67 4.34 -3.34 3.68 -3 3 C-2.01 3 -1.02 3 0 3 C0 2.01 0 1.02 0 0 Z " fill="#6F6A3F" transform="translate(774,671)" id="p695" class="grass"/>
<path d="M0 0 C5.3 0.2 8.15 1.38 12 5 C12.64 4.7 13.28 4.4 13.94 4.09 C19.34 1.71 23.11 0.23 29 2 C31.44 3.38 31.44 3.38 33 5 C33 5.99 33 6.98 33 8 C32.01 8 31.02 8 30 8 C30 8.99 30 9.98 30 11 C18.45 11 6.9 11 -5 11 C-5 9.68 -5 8.36 -5 7 C-3.68 7 -2.36 7 -1 7 C-1.21 6.22 -1.41 5.43 -1.62 4.62 C-1.75 3.76 -1.87 2.89 -2 2 C-1.34 1.34 -0.68 0.68 0 0 Z " fill="#938868" transform="translate(1144,683)" id="p701" class="grass"/>
<path d="M0 0 C2.31 0 4.62 0 7 0 C7.93 2.61 8.15 3.64 7.06 6.25 C6.89 6.54 6.89 6.54 6 8 C6.44 7.98 6.44 7.98 8.69 7.88 C12 8 13.99 8.7 17 10 C17.99 10 18.98 10 20 10 C20 12.31 20 14.62 20 17 C18.02 17 16.04 17 14 17 C13.67 17.99 13.34 18.98 13 20 C11.35 20 9.7 20 8 20 C7.67 18.68 7.34 17.36 7 16 C5.02 16.66 3.04 17.32 1 18 C1 17.34 1 16.68 1 16 C-0.65 16 -2.3 16 -4 16 C-4 15.34 -4 14.68 -4 14 C-6.31 13.34 -8.62 12.68 -11 12 C-11.33 13.65 -11.66 15.3 -12 17 C-12.66 17 -13.32 17 -14 17 C-13.67 13.7 -13.34 10.4 -13 7 C-12.01 7.33 -11.02 7.66 -10 8 C-10 8.66 -10 9.32 -10 10 C-9.28 9.79 -8.56 9.59 -7.81 9.38 C-4.55 8.94 -2.92 9.58 0 11 C0 9.02 0 7.04 0 5 C-0.99 5 -1.98 5 -3 5 C-3 4.34 -3 3.68 -3 3 C-2.01 3 -1.02 3 0 3 C0 2.01 0 1.02 0 0 Z " fill="#AF9F74" transform="translate(516,648)" id="p711" class="dirt"/>
<path d="M0 0 C0.99 0.66 1.98 1.32 3 2 C3.29 4.16 3.29 4.16 3.19 6.62 C3.16 7.44 3.13 8.26 3.11 9.1 C3.07 9.73 3.04 10.35 3 11 C4.32 11.33 5.64 11.66 7 12 C4.36 12.33 1.72 12.66 -1 13 C-0.01 14.65 0.98 16.3 2 18 C1.01 19.32 0.02 20.64 -1 22 C-4 21 -4 21 -5.24 18.98 C-7 17 -7 17 -10.36 16.39 C-11.62 16.34 -12.88 16.3 -14.19 16.25 C-15.46 16.19 -16.73 16.14 -18.04 16.08 C-18.53 16.07 -18.53 16.07 -21 16 C-20.34 13.36 -19.68 10.72 -19 8 C-17.35 8 -15.7 8 -14 8 C-14 6.68 -14 5.36 -14 4 C-13.43 3.93 -13.43 3.93 -10.56 3.56 C-7 3 -7 3 -6 2 C-4 1.96 -2 1.96 0 2 C0 1.34 0 0.68 0 0 Z " fill="#897A4A" transform="translate(183,664)" id="p739" class="grass"/>
<path d="M0 0 C2.05 0.03 4.1 0.07 6.15 0.1 C6.48 1.09 6.81 2.08 7.15 3.1 C8.14 3.43 9.13 3.76 10.15 4.1 C11.89 7.56 10.64 11.34 10.15 15.1 C6.85 15.1 3.55 15.1 0.15 15.1 C0.48 12.13 0.81 9.16 1.15 6.1 C-1.16 6.1 -3.47 6.1 -5.85 6.1 C-4.2 7.75 -2.55 9.4 -0.85 11.1 C-1.18 11.76 -1.51 12.42 -1.85 13.1 C-2.51 12.44 -3.17 11.78 -3.85 11.1 C-4.18 11.76 -4.51 12.42 -4.85 13.1 C-8.81 13.1 -12.77 13.1 -16.85 13.1 C-16.85 11.78 -16.85 10.46 -16.85 9.1 C-17.84 8.77 -18.83 8.44 -19.85 8.1 C-19.29 6.16 -19.29 6.16 -17.85 4.1 C-14.29 3.41 -14.29 3.41 -10.85 3.1 C-10.52 2.77 -10.19 2.44 -9.85 2.1 C-7.51 1.76 -5.18 1.43 -2.85 1.1 C-1.85 0.1 -1.85 0.1 0 0 Z " fill="#A09363" transform="translate(872.84765625,678.90234375)" id="p756" class="dirt"/>
<path d="M0 0 C0.68 0.14 1.35 0.29 2.05 0.44 C2.94 0.62 3.83 0.81 4.75 1 C5.63 1.19 6.51 1.37 7.42 1.56 C10 2 10 2 14 2 C14 3.32 14 4.64 14 6 C14.66 5.67 15.32 5.34 16 5 C18.33 4.96 20.67 4.96 23 5 C23 6.32 23 7.64 23 9 C24.32 9.33 25.64 9.66 27 10 C27 10.99 27 11.98 27 13 C27.66 13.33 28.32 13.66 29 14 C22.31 13.1 22.31 13.1 19.88 12.31 C17.18 11.86 15.42 12.86 13 14 C13 15.32 13 16.64 13 18 C11.02 17.34 9.04 16.68 7 16 C7 16.66 7 17.32 7 18 C6.34 18 5.68 18 5 18 C4.34 16.35 3.68 14.7 3 13 C1.68 13.33 0.36 13.66 -1 14 C-1 13.34 -1 12.68 -1 12 C-0.34 12 0.32 12 1 12 C1 11.34 1 10.68 1 10 C-0.32 10 -1.64 10 -3 10 C-2.67 11.98 -2.34 13.96 -2 16 C-3.32 16.33 -4.64 16.66 -6 17 C-6 14.36 -6 11.72 -6 9 C-4.52 8.97 -3.04 8.95 -1.56 8.94 C-0.74 8.93 0.08 8.91 0.93 8.9 C3 9 3 9 4 10 C4.33 8.68 4.66 7.36 5 6 C4.01 5.84 4.01 5.84 -1 5 C-0.67 3.35 -0.34 1.7 0 0 Z " fill="#91835C" transform="translate(915,652)" id="p757" class="grass"/>
<path d="M0 0 C3.33 1.11 4.54 2.69 6.31 5.56 C8.45 8.78 8.76 8.94 12.81 9.94 C13.86 9.96 14.92 9.98 16 10 C16 10.99 16 11.98 16 13 C17.32 12.67 18.64 12.34 20 12 C18.75 13.56 18.75 13.56 17 15 C14.81 14.69 14.81 14.69 13 14 C13 14.99 13 15.98 13 17 C12.01 17 11.02 17 10 17 C10 17.99 10 18.98 10 20 C7.69 20.66 5.38 21.32 3 22 C3 20.68 3 19.36 3 18 C2.36 18.66 1.72 19.32 1.06 20 C-3.21 22.79 -5.97 22.3 -11 22 C-10.67 18.7 -10.34 15.4 -10 12 C-8.68 12.66 -7.36 13.32 -6 14 C-6 14.66 -6 15.32 -6 16 C-5.01 16 -4.02 16 -3 16 C-3.33 15.34 -3.66 14.68 -4 14 C-2.87 13.71 -1.73 13.42 -0.56 13.12 C0.61 12.75 1.79 12.38 3 12 C3.33 11.34 3.66 10.68 4 10 C3.07 10.06 2.14 10.12 1.19 10.19 C-2 10 -2 10 -3.88 8.5 C-4.25 8 -4.62 7.51 -5 7 C-4.34 6.67 -3.68 6.34 -3 6 C-1.95 4.02 -0.95 2.03 0 0 Z " fill="#505446" transform="translate(506,631)" id="p761" class="grass"/>
<path d="M0 0 C4.8 2.46 4.8 2.46 5.81 5.19 C5.87 5.79 5.94 6.38 6 7 C8.64 7.33 11.28 7.66 14 8 C14 6.68 14 5.36 14 4 C15.75 2.19 15.75 2.19 18 1 C20.19 1.19 20.19 1.19 22 2 C22.33 2.66 22.66 3.32 23 4 C26 4.69 26 4.69 29 5 C29.33 4.67 29.66 4.34 30 4 C37.26 3.41 37.26 3.41 40.5 6 C41 6.66 41.49 7.32 42 8 C39.06 10.5 36.82 11.47 33 12 C32.34 11.01 31.68 10.02 31 9 C25.24 9.37 21.15 10.25 16 13 C11.35 14.26 8.41 13.95 4 12 C3.67 11.34 3.34 10.68 3 10 C1.15 9.37 1.15 9.37 -1.06 8.88 C-1.43 8.79 -1.43 8.79 -3.29 8.37 C-3.85 8.25 -4.42 8.12 -5 8 C-4.67 7.01 -4.34 6.02 -4 5 C-3.01 5 -2.02 5 -1 5 C-1 4.34 -1 3.68 -1 3 C-2.32 2.67 -3.64 2.34 -5 2 C-3.35 2 -1.7 2 0 2 C0 1.34 0 0.68 0 0 Z " fill="#928565" transform="translate(938,644)" id="p765" class="grass"/>
<path d="M0 0 C0.99 0.33 1.98 0.66 3 1 C3.25 6.62 3.25 6.62 1 10 C0.01 10 -0.98 10 -2 10 C-2 10.66 -2 11.32 -2 12 C-1.68 12.12 -1.68 12.12 -0.06 12.75 C2 14 2 14 2.75 16.12 C2.79 16.43 2.79 16.43 3 18 C-4.38 17.51 -4.38 17.51 -7.5 14.94 C-7.75 14.62 -7.75 14.62 -9 13 C-9 14.98 -9 16.96 -9 19 C-3.25 20 -3.25 20 -1 20 C-1 21.65 -1 23.3 -1 25 C-1.66 25 -2.32 25 -3 25 C-3.33 25.66 -3.66 26.32 -4 27 C-5.07 26.69 -6.14 26.38 -7.25 26.06 C-9.83 25.33 -12.4 24.63 -15 24 C-14.67 21.36 -14.34 18.72 -14 16 C-15.32 16 -16.64 16 -18 16 C-18 15.01 -18 14.02 -18 13 C-16.35 12.67 -14.7 12.34 -13 12 C-13.66 12 -14.32 12 -15 12 C-15.33 10.35 -15.66 8.7 -16 7 C-13.39 6.07 -12.36 5.85 -9.75 6.94 C-9.17 7.29 -8.6 7.64 -8 8 C-8 7.01 -8 6.02 -8 5 C-7.34 5 -6.68 5 -6 5 C-6 4.34 -6 3.68 -6 3 C-5.34 3 -4.68 3 -4 3 C-4 3.66 -4 4.32 -4 5 C-3.34 5 -2.68 5 -2 5 C-1.86 4.36 -1.71 3.72 -1.56 3.06 C-1 1 -1 1 0 0 Z " fill="#7A715B" transform="translate(537,632)" id="p768" class="grass"/>
<path d="M0 0 C1.9 0.14 3.79 0.29 5.69 0.44 C6.74 0.52 7.8 0.6 8.89 0.68 C11.65 0.96 14.28 1.45 17 2 C19 2.04 21 2.05 23 2 C23.17 2.5 23.17 2.5 24 5 C25.41 6.39 25.41 6.39 27.06 7.69 C27.55 8.07 27.55 8.07 30 10 C29.67 10.66 29.34 11.32 29 12 C26.03 11.67 23.06 11.34 20 11 C20 9.35 20 7.7 20 6 C19.18 5.84 19.18 5.84 15 5 C15 5.99 15 6.98 15 8 C11.7 8 8.4 8 5 8 C4.67 9.65 4.34 11.3 4 13 C3.67 12.34 3.34 11.68 3 11 C1.35 11 -0.3 11 -2 11 C-2.33 11.99 -2.66 12.98 -3 14 C-3 12.35 -3 10.7 -3 9 C-4.32 9 -5.64 9 -7 9 C-7.33 10.32 -7.66 11.64 -8 13 C-8.66 12.67 -9.32 12.34 -10 12 C-10 11.01 -10 10.02 -10 9 C-11.32 8.34 -12.64 7.68 -14 7 C-13.34 7 -12.68 7 -12 7 C-12 6.34 -12 5.68 -12 5 C-4.38 3 -4.38 3 -1 3 C-0.67 2.01 -0.34 1.02 0 0 Z " fill="#9B8645" transform="translate(369,664)" id="p774" class="grass"/>
<path d="M0 0 C1.58 1 1.58 1 3.25 2.44 C6.85 5.22 9.42 5.47 14 5 C12.85 8.9 11.82 12.03 9 15 C5.62 15.82 2.41 15.68 -1 15 C-3.19 12.56 -3.19 12.56 -5 10 C-8 9.31 -8 9.31 -9.79 9.18 C-12.7 8.94 -15.55 8.43 -18.44 7.94 C-18.96 7.85 -18.96 7.85 -21.62 7.4 C-22.41 7.27 -23.19 7.14 -24 7 C-24 6.34 -24 5.68 -24 5 C-20.74 2.83 -18.05 2.95 -14.23 3.06 C-9.34 2.93 -4.61 1.54 0 0 Z " fill="#8D8272" transform="translate(720,679)" id="p779" class="grass"/>
<path d="M0 0 C1.65 0 3.3 0 5 0 C5.33 2.31 5.66 4.62 6 7 C7.32 6.34 8.64 5.68 10 5 C10.87 9.19 11.14 12.16 10 16.31 C9 20 9 20 10 22 C8.02 22.66 6.04 23.32 4 24 C4 25.32 4 26.64 4 28 C4.66 28 5.32 28 6 28 C5.34 31.3 4.68 34.6 4 38 C2.68 37.67 1.36 37.34 0 37 C-2.29 29.82 -1.83 23.6 -0.82 16.28 C-0.06 10.8 0.18 5.54 0 0 Z " fill="#766B5E" transform="translate(234,643)" id="p781" class="grass"/>
<path d="M0 0 C0 0.66 0 1.32 0 2 C0.84 1.99 1.69 1.98 2.55 1.96 C3.65 1.96 4.75 1.95 5.88 1.94 C6.97 1.93 8.06 1.91 9.18 1.9 C12 2 12 2 14 3 C16.56 3.19 19.12 3.32 21.69 3.43 C22.45 3.62 23.21 3.8 24 4 C24.66 5.32 25.32 6.64 26 8 C23.03 8 20.06 8 17 8 C17.99 9.98 18.98 11.96 20 14 C16.08 15.16 12.49 15.04 8.44 14.94 C6.12 15 4.21 15.34 2 16 C2.33 14.68 2.66 13.36 3 12 C1.68 12 0.36 12 -1 12 C-1.33 12 -1.66 12 -2 12 C-2 10.02 -2 8.04 -2 6 C-2.66 6 -3.32 6 -4 6 C-4.33 5.01 -4.66 4.02 -5 3 C-2.25 0 -2.25 0 0 0 Z " fill="#A69045" transform="translate(66,678)" id="p795" class="grass"/>
<path d="M0 0 C1.65 0.66 1.65 0.66 10 4 C10.66 3.01 11.32 2.02 12 1 C12.36 7.33 12.36 7.33 11 9.88 C7.8 11.67 4.64 11.7 1 12 C0.9 12.62 0.79 13.24 0.69 13.88 C0 16 0 16 -3 18 C-3.99 18 -4.98 18 -6 18 C-6.33 18.99 -6.66 19.98 -7 21 C-9.07 21.73 -9.07 21.73 -11.56 22.19 C-12.39 22.35 -13.22 22.5 -14.07 22.67 C-14.7 22.78 -15.34 22.89 -16 23 C-16 22.34 -16 21.68 -16 21 C-16.66 21.33 -17.32 21.66 -18 22 C-20.67 22.13 -23.32 22.04 -26 22 C-26 20.68 -26 19.36 -26 18 C-25.01 18 -24.02 18 -23 18 C-23 17.01 -23 16.02 -23 15 C-21.52 15.33 -21.52 15.33 -14 17 C-14 16.34 -14 15.68 -14 15 C-11.69 15 -9.38 15 -7 15 C-7 14.34 -7 13.68 -7 13 C-5.35 12.67 -3.7 12.34 -2 12 C-2.14 10.72 -2.29 9.44 -2.44 8.12 C-2.48 7.77 -2.48 7.77 -2.68 5.95 C-3 4 -3 4 -4 2 C-3.01 2 -2.02 2 -1 2 C-0.67 1.34 -0.34 0.68 0 0 Z " fill="#B09451" transform="translate(1188,608)" id="p802" class="dirt"/>
<path d="M0 0 C0.76 0.33 1.53 0.66 2.31 1 C5 2 5 2 8 2 C7.01 4.97 6.02 7.94 5 11 C6.32 11.66 7.64 12.32 9 13 C8.67 14.32 8.34 15.64 8 17 C12.75 19.88 12.75 19.88 15 21 C15 21.66 15 22.32 15 23 C14.01 23.33 13.02 23.66 12 24 C10.81 26.06 10.81 26.06 10 28 C9.66 27.49 9.66 27.49 7.94 24.94 C6.57 23.27 6.57 23.27 5 22 C1.51 22.06 -0.89 22.44 -4 24 C-3.69 23.4 -3.38 22.8 -3.06 22.19 C-2 20 -2 20 -1 17 C-5.88 19.75 -5.88 19.75 -7 22 C-7.66 21.67 -8.32 21.34 -9 21 C-8.83 20.38 -8.67 19.76 -8.5 19.12 C-8 17 -8 17 -8 15 C-9.5 13.38 -9.5 13.38 -11 12 C-10.23 11.77 -9.46 11.54 -8.66 11.3 C-7.66 10.97 -6.66 10.65 -5.62 10.31 C-4.63 10 -3.63 9.69 -2.6 9.36 C0 8 0 8 1.35 5.36 C1.57 4.58 1.78 3.8 2 3 C1.34 2.67 0.68 2.34 0 2 C0 1.34 0 0.68 0 0 Z " fill="#82763D" transform="translate(436,598)" id="p825" class="grass"/>
<path d="M0 0 C0 0.99 0 1.98 0 3 C-0.85 3.18 -1.71 3.36 -2.59 3.55 C-3.14 3.68 -3.14 3.68 -5.94 4.31 C-7.04 4.56 -8.14 4.8 -9.28 5.05 C-10.18 5.36 -11.07 5.68 -12 6 C-12.33 6.99 -12.66 7.98 -13 9 C-12.51 8.98 -12.51 8.98 -10.01 8.89 C-8.73 8.87 -7.45 8.84 -6.12 8.81 C-4.85 8.78 -3.57 8.74 -2.26 8.71 C-1.18 8.8 -0.11 8.9 1 9 C1.66 9.99 2.32 10.98 3 12 C-2.38 13.19 -7.45 14.29 -13 14 C-13 13.01 -13 12.02 -13 11 C-13.61 11.11 -14.23 11.21 -14.86 11.32 C-15.67 11.44 -16.48 11.56 -17.31 11.69 C-17.71 11.75 -17.71 11.75 -19.74 12.07 C-22.66 11.98 -22.99 11.01 -25 9 C-27.7 8.49 -27.7 8.49 -30.69 8.31 C-31.68 8.25 -32.68 8.18 -33.7 8.11 C-34.08 8.09 -34.08 8.09 -36 8 C-36.33 7.01 -36.66 6.02 -37 5 C-32.05 5 -27.1 5 -22 5 C-21.67 4.01 -21.34 3.02 -21 2 C-14.09 -1.16 -7.36 -1.32 0 0 Z " fill="#D2B488" transform="translate(1152,614)" id="p830" class="dirt"/>
<path d="M0 0 C0.66 0 1.32 0 2 0 C2.33 1.65 2.66 3.3 3 5 C3.33 4.34 3.66 3.68 4 3 C10.62 3.75 10.62 3.75 14 6 C14 6.99 14 7.98 14 9 C15.65 9 17.3 9 19 9 C19.66 7.68 20.32 6.36 21 5 C21.33 5 21.66 5 22 5 C21.67 7.64 21.34 10.28 21 13 C22.26 12.65 23.52 12.3 24.81 11.94 C27.95 11.06 28.78 10.93 32 12 C30.12 15.88 30.12 15.88 29 17 C26.81 17.07 24.62 17.08 22.44 17.06 C21.84 17.06 21.84 17.06 18.81 17.04 C17.88 17.02 16.95 17.01 16 17 C16 15 16 15 17.5 13.38 C18 12.92 18.49 12.47 19 12 C18.24 12 17.47 12 16.69 12 C14.79 12 12.9 12 11 12 C10.67 12.33 10.34 12.66 10 13 C7.81 13.07 5.62 13.08 3.44 13.06 C2.84 13.06 2.84 13.06 -0.19 13.04 C-1.12 13.02 -2.05 13.01 -3 13 C-2.79 11.89 -2.59 10.77 -2.38 9.62 C-2.25 8.43 -2.13 7.23 -2 6 C-2.66 5.34 -3.32 4.68 -4 4 C-4 3.01 -4 2.02 -4 1 C-2.68 1.33 -1.36 1.66 0 2 C0 1.34 0 0.68 0 0 Z " fill="#978A52" transform="translate(803,677)" id="p855" class="dirt"/>
<path d="M0 0 C0 0.99 0 1.98 0 3 C1.32 3.33 2.64 3.66 4 4 C2.43 6.56 1.64 7.83 -1.31 8.62 C-1.76 8.69 -1.76 8.69 -4 9 C-4.91 9.35 -5.82 9.7 -6.75 10.06 C-10.28 11.08 -13.13 11.1 -16.77 11 C-19 11 -19 11 -22.69 11.56 C-26.08 12.01 -28.68 11.73 -32 11 C-32 10.01 -32 9.02 -32 8 C-31.34 8 -30.68 8 -30 8 C-30 7.01 -30 6.02 -30 5 C-26.85 3.95 -24.61 3.9 -21.31 3.94 C-20.32 3.95 -19.32 3.96 -18.3 3.96 C-17.92 3.97 -17.92 3.97 -16 4 C-16 3.34 -16 2.68 -16 2 C-13.71 1.66 -11.42 1.33 -9.12 1 C-8.49 0.91 -8.49 0.91 -5.26 0.44 C-2 0 -2 0 0 0 Z " fill="#8F7A3F" transform="translate(1077,613)" id="p864" class="grass"/>
<path d="M0 0 C0.66 0.33 1.32 0.66 2 1 C2 1.33 2 1.66 2 2 C3.65 2 5.3 2 7 2 C6.67 2.99 6.34 3.98 6 5 C6.99 4.34 7.98 3.68 9 3 C9.99 3 10.98 3 12 3 C12.33 3.99 12.66 4.98 13 6 C16.56 7.19 16.56 7.19 20 8 C20 7.34 20 6.68 20 6 C21.65 5.67 23.3 5.34 25 5 C25.33 7.64 25.66 10.28 26 13 C24.87 12.9 23.73 12.79 22.56 12.69 C17.82 12.64 14.8 14.49 10.88 17 C10.26 17.33 9.64 17.66 9 18 C8.34 17.67 7.68 17.34 7 17 C7 16.01 7 15.02 7 14 C3.7 13.01 0.4 12.02 -3 11 C-2.45 7.05 -1.61 3.65 0 0 Z " fill="#7C7457" transform="translate(511,661)" id="p866" class="grass"/>
<path d="M0 0 C0.33 0.66 0.66 1.32 1 2 C2.65 2 4.3 2 6 2 C6.33 1.34 6.66 0.68 7 0 C7.66 0 8.32 0 9 0 C9.33 1.65 9.66 3.3 10 5 C12.31 5.33 14.62 5.66 17 6 C16.97 6.39 16.97 6.39 16.81 8.38 C16.87 9.24 16.94 10.11 17 11 C17.99 11.66 18.98 12.32 20 13 C19.65 16.24 19.44 17.62 16.94 19.81 C16.3 20.2 15.66 20.6 15 21 C15 19.68 15 18.36 15 17 C14.34 17 13.68 17 13 17 C12.67 17.99 12.34 18.98 12 20 C10.35 19.67 8.7 19.34 7 19 C6.84 17.35 6.84 17.35 6 9 C4.02 8.5 4.02 8.5 -6 6 C-6 5.34 -6 4.68 -6 4 C-7.65 3.67 -9.3 3.34 -11 3 C-7.47 0.88 -4.06 0.47 0 0 Z " fill="#8C7C3C" transform="translate(33,592)" id="p870" class="grass"/>
<path d="M0 0 C0.33 0.99 0.66 1.98 1 3 C0.34 3 -0.32 3 -1 3 C-0.89 3.66 -0.79 4.33 -0.68 5.01 C0.06 10.45 0.39 13.43 -3 18 C-3.69 20.81 -3.69 20.81 -4 23 C-3.34 23.33 -2.68 23.66 -2 24 C-2.75 26.94 -2.75 26.94 -4 30 C-7.3 31.71 -11.36 31.07 -15 31 C-15 31.66 -15 32.32 -15 33 C-17.64 33 -20.28 33 -23 33 C-23 32.01 -23 31.02 -23 30 C-19.67 27 -19.67 27 -17 27 C-17 27.66 -17 28.32 -17 29 C-15.35 29 -13.7 29 -12 29 C-12.02 28.35 -12.05 27.7 -12.07 27.02 C-12.27 17.43 -12.27 17.43 -10 13 C-7.38 11.12 -7.38 11.12 -5 10 C-5.33 7.69 -5.66 5.38 -6 3 C-4.02 2.67 -2.04 2.34 0 2 C0 1.34 0 0.68 0 0 Z " fill="#A59485" transform="translate(289,661)" id="p875" class="dirt"/>
<path d="M0 0 C1.32 0.33 2.64 0.66 4 1 C3.67 1.99 3.34 2.98 3 4 C5.97 4 8.94 4 12 4 C11.67 4.99 11.34 5.98 11 7 C10.68 7.02 10.68 7.02 9.07 7.15 C8.24 7.22 7.41 7.3 6.56 7.38 C5.74 7.44 4.92 7.51 4.07 7.59 C3.38 7.72 2.7 7.86 2 8 C1.67 8.66 1.34 9.32 1 10 C1.83 10.33 1.83 10.33 6 12 C6 12.99 6 13.98 6 15 C4.68 14.67 3.36 14.34 2 14 C2 13.34 2 12.68 2 12 C-1.63 12.99 -5.26 13.98 -9 15 C-9 15.66 -9 16.32 -9 17 C-7.68 17.33 -6.36 17.66 -5 18 C-8.12 19.6 -9.39 20.19 -12.81 19.12 C-13.53 18.75 -14.26 18.38 -15 18 C-15 17.01 -15 16.02 -15 15 C-15.33 15.99 -15.66 16.98 -16 18 C-17.22 17.79 -18.43 17.59 -19.69 17.38 C-23.35 16.9 -25.68 17.23 -29 19 C-29 18.34 -29 17.68 -29 17 C-28.01 16.67 -27.02 16.34 -26 16 C-26.33 14.68 -26.66 13.36 -27 12 C-25.74 12.23 -24.48 12.45 -23.19 12.69 C-18.16 13.28 -14.16 12.21 -9.38 10.69 C-7 10 -7 10 -4 10 C-4 10.66 -4 11.32 -4 12 C-3.34 11.34 -2.68 10.68 -2 10 C-2.33 9.01 -2.66 8.02 -3 7 C-3.76 7 -4.53 7 -5.31 7 C-9.7 7 -12.84 6.48 -17 5 C-16.67 4.34 -16.34 3.68 -16 3 C-10.72 3 -5.44 3 0 3 C0 2.01 0 1.02 0 0 Z " fill="#CBB98C" transform="translate(823,603)" id="p877" class="dirt"/>
<path d="M0 0 C0 0.99 0 1.98 0 3 C0.89 2.84 1.77 2.67 2.69 2.5 C5.54 2.07 8.13 1.92 11 2 C11.17 2.66 11.17 2.66 12 6 C12.99 6 13.98 6 15 6 C15 6.66 15 7.32 15 8 C9.96 9.51 5.12 8.65 0 8 C0 7.01 0 6.02 0 5 C-2.97 4.67 -5.94 4.34 -9 4 C-9 5.32 -9 6.64 -9 8 C-8.18 8.16 -8.18 8.16 -4 9 C-4 9.66 -4 10.32 -4 11 C-4.66 11 -5.32 11 -6 11 C-6 11.66 -6 12.32 -6 13 C-7.32 12.67 -8.64 12.34 -10 12 C-10 11.34 -10 10.68 -10 10 C-10.33 10.16 -10.33 10.16 -12 11 C-12 12.65 -12 14.3 -12 16 C-15.53 18.12 -18.94 18.53 -23 19 C-23.33 18.34 -23.66 17.68 -24 17 C-22.69 14.38 -22.69 14.38 -21 12 C-20.34 12 -19.68 12 -19 12 C-18.67 10.35 -18.34 8.7 -18 7 C-17.01 6.67 -16.02 6.34 -15 6 C-14.01 6.99 -13.02 7.98 -12 9 C-11.88 8.24 -11.75 7.47 -11.62 6.69 C-11 4 -11 4 -9 1 C-6.01 -0.13 -3.17 -0.09 0 0 Z " fill="#C8AF70" transform="translate(442,666)" id="p880" class="dirt"/>
<path d="M0 0 C3.3 0.66 6.6 1.32 10 2 C10 2.66 10 3.32 10 4 C10.39 3.97 10.39 3.97 12.38 3.81 C12.81 3.84 12.81 3.84 15 4 C15.33 4.5 15.33 4.5 17 7 C13.36 9.43 11.29 9.16 7 9 C7 9.99 7 10.98 7 12 C5.02 12 3.04 12 1 12 C1 12.99 1 13.98 1 15 C-1.64 15 -4.28 15 -7 15 C-7 13.68 -7 12.36 -7 11 C-8.65 11.33 -10.3 11.66 -12 12 C-12 10.35 -12 8.7 -12 7 C-9.47 5.69 -6.96 4.58 -4.31 3.5 C-1 2 -1 2 0 0 Z " fill="#897332" transform="translate(66,591)" id="p885" class="grass"/>
<path d="M0 0 C0.66 0.33 1.32 0.66 2 1 C3.54 1.22 5.08 1.41 6.62 1.56 C7.44 1.65 8.26 1.73 9.1 1.82 C9.73 1.88 10.35 1.94 11 2 C11 2.66 11 3.32 11 4 C4.73 6.72 -1.14 7.95 -8 8 C-8.66 7.67 -9.32 7.34 -10 7 C-10 7.66 -10 8.32 -10 9 C-13.63 8.34 -17.26 7.68 -21 7 C-20.67 6.01 -20.34 5.02 -20 4 C-20.66 4 -21.32 4 -22 4 C-22 4.99 -22 5.98 -22 7 C-27.42 8.23 -27.42 8.23 -30.38 7.06 C-30.91 6.71 -31.45 6.36 -32 6 C-32 5.34 -32 4.68 -32 4 C-28.53 2.84 -25.64 2.93 -22 3 C-21.67 2.01 -21.34 1.02 -21 0 C-20.08 0.01 -19.17 0.02 -18.23 0.04 C-17.04 0.04 -15.85 0.05 -14.62 0.06 C-13.44 0.07 -12.26 0.09 -11.04 0.1 C-1.07 -0.22 -1.07 -0.22 0 0 Z M-11 1 C-10.67 1.99 -10.34 2.98 -10 4 C-9.67 3.01 -9.34 2.02 -9 1 C-9.66 1 -10.32 1 -11 1 Z " fill="#9D8849" transform="translate(1031,653)" id="p888" class="grass"/>
<path d="M0 0 C0.99 0.66 1.98 1.32 3 2 C3.41 4.71 3.13 7.24 3 10 C3.99 10.33 4.98 10.66 6 11 C5.24 12.82 4.47 14.63 3.69 16.44 C3.26 17.45 2.83 18.46 2.39 19.5 C1 22 1 22 -2 23 C-2 23.66 -2 24.32 -2 25 C-1.34 25 -0.68 25 0 25 C0.08 27.46 0.14 29.92 0.19 32.38 C0.2 32.72 0.2 32.72 0.26 34.49 C0.29 36.52 0.29 36.52 0 40 C-0.99 40.66 -1.98 41.32 -3 42 C-6.96 36.06 -7.66 27.02 -7 20 C-6.22 16.91 -5.35 13.89 -4 11 C-3.34 10.67 -2.68 10.34 -2 10 C-1.71 7.98 -1.43 5.95 -1.25 3.91 C-1 2 -1 2 0 0 Z " fill="#9E8468" transform="translate(308,597)" id="p889" class="dirt"/>
<path d="M0 0 C0.66 0 1.32 0 2 0 C2 0.66 2 1.32 2 2 C3.32 2 4.64 2 6 2 C5.67 3.65 5.34 5.3 5 7 C8.41 7.78 11.51 8.1 15 8 C15 9.67 15 11.33 15 13 C12.03 13 9.06 13 6 13 C6.99 13.99 7.98 14.98 9 16 C9 16.99 9 17.98 9 19 C8.34 19 7.68 19 7 19 C7 20.65 7 22.3 7 24 C6.34 24 5.68 24 5 24 C4.83 23.61 4.83 23.61 4 21.62 C1.21 17.96 -1.51 17.95 -5.92 17.26 C-6.61 17.18 -7.29 17.09 -8 17 C-7.67 16.5 -7.67 16.5 -6 14 C-5.56 12.12 -5.19 10.22 -4.88 8.31 C-4.71 7.32 -4.54 6.32 -4.37 5.3 C-4.25 4.54 -4.12 3.78 -4 3 C-3.01 3.33 -2.02 3.66 -1 4 C-0.67 2.68 -0.34 1.36 0 0 Z " fill="#474D3D" transform="translate(444,633)" id="p896" class="grass"/>
<path d="M0 0 C2.47 1.15 4.05 2.05 6 4 C6.22 9.84 5.08 15 2 20 C1.67 20.33 1.34 20.66 1 21 C0.87 22.66 0.77 24.33 0.69 26 C0.24 31.54 -1.07 36.25 -4 41 C-4.33 41.16 -4.33 41.16 -6 42 C-6.33 39.36 -6.66 36.72 -7 34 C-7.33 34 -7.66 34 -8 34 C-8.33 31.36 -8.66 28.72 -9 26 C-8.34 26 -7.68 26 -7 26 C-6.67 24.68 -6.34 23.36 -6 22 C-5.34 22.66 -4.68 23.32 -4 24 C-3.67 22.02 -3.34 20.04 -3 18 C-2.34 18.33 -1.68 18.66 -1 19 C-0.01 15.37 0.98 11.74 2 8 C1.34 8.33 1.34 8.33 -2 10 C-5.25 8.62 -5.25 8.62 -8 7 C-7.67 6.01 -7.34 5.02 -7 4 C-5.02 4 -3.04 4 -1 4 C-0.67 2.68 -0.34 1.36 0 0 Z " fill="#AB9F8B" transform="translate(884,599)" id="p897" class="dirt"/>
<path d="M0 0 C0.33 0.99 0.66 1.98 1 3 C4.03 4.65 7.15 6.01 10.31 7.4 C13 9 13 9 13.93 10.96 C14.04 14.17 12.99 16.97 12 20 C11.34 20 10.68 20 10 20 C10 20.66 10 21.32 10 22 C9.34 22 8.68 22 8 22 C7.5 20.71 7 19.42 6.5 18.12 C6.22 17.41 5.94 16.69 5.66 15.95 C5 14 5 14 5 12 C3.68 12 2.36 12 1 12 C0.67 12.66 0.34 13.32 0 14 C-1.27 13.38 -2.54 12.75 -3.81 12.12 C-4.52 11.78 -5.23 11.43 -5.96 11.07 C-8 10 -8 10 -11 8 C-10.27 6.68 -9.51 5.37 -8.75 4.06 C-8.33 3.33 -7.91 2.6 -7.48 1.85 C-6 0 -6 0 -3.95 -0.82 C-2 -1 -2 -1 0 0 Z " fill="#B0995D" transform="translate(241,612)" id="p899" class="dirt"/>
<path d="M0 0 C0.33 0.66 0.66 1.32 1 2 C0.01 2.99 -0.98 3.98 -2 5 C-1.01 5.33 -0.02 5.66 1 6 C1 6.66 1 7.32 1 8 C-0.49 8.16 -0.49 8.16 -8 9 C-7.34 10.32 -6.68 11.64 -6 13 C-7.32 13.33 -8.64 13.66 -10 14 C-10 14.66 -10 15.32 -10 16 C-11.05 16.41 -12.1 16.83 -13.19 17.25 C-16.6 18.69 -19.11 20.68 -22 23 C-22.99 23 -23.98 23 -25 23 C-25 21.68 -25 20.36 -25 19 C-25.66 18.67 -26.32 18.34 -27 18 C-25.55 14.17 -23.64 12.78 -20 11 C-19.01 11 -18.02 11 -17 11 C-16.34 9.35 -15.68 7.7 -15 6 C-14.01 6 -13.02 6 -12 6 C-11.77 5.38 -11.55 4.76 -11.31 4.12 C-8.72 -0.07 -4.61 -0.26 0 0 Z " fill="#8B7E42" transform="translate(692,646)" id="p903" class="grass"/>
<path d="M0 0 C4.55 -0.37 4.55 -0.37 6.81 1.5 C7.01 1.75 7.01 1.75 8 3 C6.02 3.73 4.02 4.39 2 5 C1.34 4.67 0.68 4.34 0 4 C0 4.66 0 5.32 0 6 C0.6 6.1 1.2 6.21 1.81 6.31 C4.28 7.09 5.32 8.07 7 10 C6.2 10.25 5.39 10.5 4.56 10.75 C2 12 2 12 1.19 14.12 C1.16 14.43 1.16 14.43 1 16 C-2.31 16.69 -2.31 16.69 -6 17 C-7.94 15.56 -7.94 15.56 -9 14 C-6.54 10.18 -6.54 10.18 -3.81 9.25 C-3.51 9.21 -3.51 9.21 -2 9 C-1.67 7.68 -1.34 6.36 -1 5 C-7.29 5.41 -12.88 7.22 -18 11 C-19.68 13.72 -20.25 15.84 -21 19 C-22.65 19 -24.3 19 -26 19 C-25.83 18.58 -25.83 18.58 -25 16.44 C-23.94 12.79 -23.85 9.78 -24 6 C-20.85 4.42 -18.35 3.88 -14.88 3.94 C-11 4 -11 4 -8 3 C-5.66 3.28 -3.32 3.61 -1 4 C-0.67 2.68 -0.34 1.36 0 0 Z " fill="#998C6D" transform="translate(522,609)" id="p904" class="dirt"/>
<path d="M0 0 C0.43 0.47 0.87 0.95 1.31 1.44 C3 3 3 3 6 4 C6.91 6.48 7 8.34 7 11 C6.67 11.66 6.34 12.32 6 13 C7.32 13.66 8.64 14.32 10 15 C9.67 15.66 9.34 16.32 9 17 C0.09 17 -8.82 17 -18 17 C-12.92 11.92 -12.23 11.34 -6 10 C-5.46 6.94 -5 4.11 -5 1 C-3.68 1.33 -2.36 1.66 -1 2 C-0.67 1.34 -0.34 0.68 0 0 Z " fill="#8B804B" transform="translate(479,677)" id="p905" class="grass"/>
<path d="M0 0 C3.15 0.7 6.03 1.76 9 3 C9 3.66 9 4.32 9 5 C7.35 5 5.7 5 4 5 C3.34 7.31 2.68 9.62 2 12 C0.35 12.33 -1.3 12.66 -3 13 C-3 14.65 -3 16.3 -3 18 C-6.02 19.51 -8.67 19.18 -12 19 C-12.99 18.34 -13.98 17.68 -15 17 C-15.66 17.33 -16.32 17.66 -17 18 C-19.35 17.39 -21.69 16.73 -24 16 C-23.51 11.6 -22.17 9.98 -19 7 C-17.75 4.75 -17.75 4.75 -17 3 C-16.67 3 -16.34 3 -16 3 C-15.88 9.75 -15.88 9.75 -17 12 C-16.24 12 -15.47 12 -14.69 12 C-12.79 12 -10.9 12 -9 12 C-8.34 11.67 -7.68 11.34 -7 11 C-6.67 10.01 -6.34 9.02 -6 8 C-5.34 7.69 -4.68 7.38 -4 7.06 C-2 6 -2 6 -1.31 4 C-1.21 3.34 -1.11 2.68 -1 2 C-0.67 1.34 -0.34 0.68 0 0 Z " fill="#3D4538" transform="translate(449,576)" id="p918" class="grass"/>
<path d="M0 0 C0.79 0.11 1.58 0.22 2.39 0.33 C4.2 0.62 6.01 0.93 7.81 1.25 C10.79 1.71 13.62 1.76 16.62 1.69 C16.12 3.86 15.63 5.69 14.62 7.69 C0.1 7.69 -14.42 7.69 -29.38 7.69 C-29.7 6.37 -30.03 5.05 -30.38 3.69 C-29.77 3.8 -29.77 3.8 -26.69 4.38 C-19.95 5.15 -12.27 3.76 -6.26 0.56 C-3.91 -0.53 -2.54 -0.37 0 0 Z " fill="#BA9C45" transform="translate(125.375,686.3125)" id="p926" class="grass"/>
<path d="M0 0 C0.82 0.16 0.82 0.16 5 1 C5.33 2.32 5.66 3.64 6 5 C7.32 5.33 8.64 5.66 10 6 C10 7.32 10 8.64 10 10 C9.34 10 8.68 10 8 10 C8 10.99 8 11.98 8 13 C6.35 13 4.7 13 3 13 C2.67 11.35 2.34 9.7 2 8 C1.01 7.84 1.01 7.84 -4 7 C-4.33 7.99 -4.66 8.98 -5 10 C-5.99 10 -6.98 10 -8 10 C-8 10.99 -8 11.98 -8 13 C-8.66 13 -9.32 13 -10 13 C-10 12.01 -10 11.02 -10 10 C-10.99 10.33 -11.98 10.66 -13 11 C-14.39 11.07 -15.79 11.09 -17.19 11.06 C-17.82 11.05 -17.82 11.05 -21 11 C-21 11.66 -21 12.32 -21 13 C-21.82 12.67 -21.82 12.67 -26 11 C-26 10.34 -26 9.68 -26 9 C-25.34 9 -24.68 9 -24 9 C-24 7.68 -24 6.36 -24 5 C-23.34 5 -22.68 5 -22 5 C-22 4.34 -22 3.68 -22 3 C-20.02 3 -18.04 3 -16 3 C-15.67 3.99 -15.34 4.98 -15 6 C-12.94 6.69 -12.94 6.69 -11 7 C-11 6.01 -11 5.02 -11 4 C-10.29 3.88 -9.58 3.76 -8.85 3.63 C-7.93 3.47 -7.01 3.3 -6.06 3.12 C-5.15 2.96 -4.23 2.8 -3.29 2.63 C-2.53 2.42 -1.78 2.22 -1 2 C-0.67 1.34 -0.34 0.68 0 0 Z " fill="#CFB37A" transform="translate(418,658)" id="p937" class="dirt"/>
<path d="M0 0 C2.42 0.23 4.83 0.48 7.25 0.75 C7.93 0.81 8.61 0.87 9.32 0.94 C12.69 1.33 14.74 1.79 17.41 3.93 C20.82 8.38 22 13.45 22 19 C22.21 19.68 22.41 20.36 22.62 21.06 C22.75 21.7 22.87 22.34 23 23 C21 25 21 25 17.88 25.12 C17.4 25.1 17.4 25.1 15 25 C14.67 23.68 14.34 22.36 14 21 C14.66 20.67 15.32 20.34 16 20 C16.33 19.01 16.66 18.02 17 17 C16.31 17.02 15.63 17.05 14.92 17.07 C14.47 17.08 14.47 17.08 12.19 17.12 C11.29 17.15 10.4 17.17 9.48 17.2 C7 17 7 17 4 15 C6 13 6 13 8.5 12.19 C11 11 11 11 12.31 8.38 C12.54 7.59 12.77 6.81 13 6 C12.01 5.34 11.02 4.68 10 4 C9.67 4.33 9.34 4.66 9 5 C7.47 4.91 5.95 4.75 4.44 4.56 C4.02 4.51 4.02 4.51 1.93 4.25 C1.3 4.17 0.66 4.09 0 4 C0 2.68 0 1.36 0 0 Z " fill="#C2AF97" transform="translate(1062,590)" id="p938" class="dirt"/>
<path d="M0 0 C0.66 0 1.32 0 2 0 C1.67 5.28 1.34 10.56 1 16 C1.99 15.67 2.98 15.34 4 15 C4 15.99 4 16.98 4 18 C3.34 18 2.68 18 2 18 C0.91 22.58 0.68 27.13 0.44 31.81 C0.39 32.6 0.35 33.39 0.31 34.2 C0.2 36.13 0.1 38.07 0 40 C-0.33 40 -0.66 40 -1 40 C-1.33 36.04 -1.66 32.08 -2 28 C-4.31 27.34 -6.62 26.68 -9 26 C-9.63 17.29 -7.92 10.19 -5 2 C-4.01 2.66 -3.02 3.32 -2 4 C-1.34 2.68 -0.68 1.36 0 0 Z " fill="#9E846A" transform="translate(337,587)" id="p939" class="dirt"/>
<path d="M0 0 C0 0.66 0 1.32 0 2 C0.68 1.65 1.36 1.3 2.06 0.94 C5.71 -0.23 8.28 0.27 12 1 C11.67 1.99 11.34 2.98 11 4 C10.34 4 9.68 4 9 4 C9 6.31 9 8.62 9 11 C8.34 11 7.68 11 7 11 C7 10.34 7 9.68 7 9 C6.34 9 5.68 9 5 9 C5 10.32 5 11.64 5 13 C1.53 13.16 1.53 13.16 -16 14 C-16.33 13.34 -16.66 12.68 -17 12 C-13.77 9.85 -12.72 9.8 -9 10 C-8.88 9.55 -8.88 9.55 -8.25 7.25 C-6.55 2.83 -4.97 0 0 0 Z " fill="#6B6A4C" transform="translate(995,632)" id="p940" class="grass"/>
<path d="M0 0 C5.5 -0.18 10.54 0.47 15.94 1.5 C16.72 1.64 17.5 1.79 18.3 1.93 C20.2 2.28 22.1 2.64 24 3 C23.69 4.92 23.69 4.92 23 7 C19.94 8.25 19.94 8.25 17 9 C17 9.99 17 10.98 17 12 C10.38 12.12 10.38 12.12 7 11 C5.32 11.64 3.66 12.31 2 13 C0.68 13 -0.64 13 -2 13 C-1.34 8.71 -0.68 4.42 0 0 Z " fill="#8C7F4A" transform="translate(333,650)" id="p943" class="grass"/>
<path d="M0 0 C3.3 0 6.6 0 10 0 C10 0.33 10 0.66 10 1 C8.02 1.33 6.04 1.66 4 2 C4.57 4.87 4.86 5.86 7 8 C3.7 8.66 0.4 9.32 -3 10 C-2.34 11.32 -1.68 12.64 -1 14 C-2.18 15.98 -2.18 15.98 -4 18 C-6.48 18.39 -6.48 18.39 -9.19 18.25 C-10.09 18.21 -10.99 18.18 -11.92 18.14 C-12.61 18.09 -13.29 18.05 -14 18 C-14.66 16.68 -15.32 15.36 -16 14 C-15.01 13.34 -14.02 12.68 -13 12 C-13.72 11.86 -14.44 11.71 -15.19 11.56 C-16.94 11.21 -18.69 10.86 -20.44 10.5 C-23.28 9.94 -26.14 9.47 -29 9 C-29 8.34 -29 7.68 -29 7 C-23.24 5.79 -17.96 6.22 -12.11 6.74 C-8.72 7.02 -5.41 7.08 -2 7 C-2 6.01 -2 5.02 -2 4 C-1.01 3.67 -0.02 3.34 1 3 C0.67 2.01 0.34 1.02 0 0 Z " fill="#D4B27A" transform="translate(544,674)" id="p953" class="dirt"/>
<path d="M0 0 C1.51 5.69 0.94 10.47 -1 16 C-1.38 17.31 -1.76 18.62 -2.12 19.94 C-2.41 20.95 -2.7 21.96 -3 23 C-3.33 23 -3.66 23 -4 23 C-4 21.02 -4 19.04 -4 17 C-4.66 17.33 -5.32 17.66 -6 18 C-6.05 18.32 -6.05 18.32 -6.31 19.94 C-6.54 20.62 -6.77 21.3 -7 22 C-9.54 23.13 -9.54 23.13 -12 24 C-11.86 21.12 -11.71 18.25 -11.56 15.38 C-11.52 14.57 -11.48 13.76 -11.44 12.93 C-11.21 8.55 -10.83 4.31 -10 0 C-2.25 -1.12 -2.25 -1.12 0 0 Z " fill="#8B7C68" transform="translate(220,655)" id="p965" class="grass"/>
<path d="M0 0 C0.66 0 1.32 0 2 0 C2.33 0.99 2.66 1.98 3 3 C3.99 2.67 4.98 2.34 6 2 C6 2.66 6 3.32 6 4 C6.99 4 7.98 4 9 4 C9 5.98 9 7.96 9 10 C7.37 9.89 5.75 9.76 4.12 9.62 C3.22 9.56 2.32 9.49 1.38 9.41 C-1 9 -1 9 -3 7 C-3.07 7.46 -3.07 7.46 -3.44 9.81 C-4 13 -4 13 -5 16 C-8.44 18.29 -9.99 18.18 -14 18 C-13.48 18.93 -12.97 19.86 -12.44 20.81 C-11 24 -11 24 -12 27 C-12.66 27 -13.32 27 -14 27 C-14 26.34 -14 25.68 -14 25 C-14.99 24.67 -15.98 24.34 -17 24 C-17 21.03 -17 18.06 -17 15 C-15.68 14.67 -14.36 14.34 -13 14 C-12.67 13.01 -12.34 12.02 -12 11 C-12.66 10.67 -13.32 10.34 -14 10 C-13.01 9.67 -12.02 9.34 -11 9 C-10.34 9.33 -9.68 9.66 -9 10 C-9 8.68 -9 7.36 -9 6 C-9.99 5.67 -10.98 5.34 -12 5 C-12 4.67 -12 4.34 -12 4 C-11.39 3.96 -10.77 3.93 -10.14 3.89 C-9.73 3.85 -9.73 3.85 -7.69 3.69 C-6.89 3.63 -6.09 3.57 -5.26 3.51 C-2.61 2.91 -1.8 1.96 0 0 Z " fill="#8F8554" transform="translate(507,649)" id="p973" class="grass"/>
<path d="M0 0 C3.99 0.61 6.74 2.71 10 5 C9.67 5.99 9.34 6.98 9 8 C10.65 8 12.3 8 14 8 C13.67 8.66 13.34 9.32 13 10 C10.36 10 7.72 10 5 10 C5 10.99 5 11.98 5 13 C6.32 13 7.64 13 9 13 C9 13.66 9 14.32 9 15 C3.39 15 -2.22 15 -8 15 C-8 14.01 -8 13.02 -8 12 C-7.01 12 -6.02 12 -5 12 C-5.33 11.01 -5.66 10.02 -6 9 C-9.56 7.31 -9.56 7.31 -13 6 C-12.67 5.01 -12.34 4.02 -12 3 C-4.62 1.65 -4.62 1.65 -1.5 3.44 C-1.01 3.95 -0.51 4.47 0 5 C0 3.35 0 1.7 0 0 Z " fill="#AB9E73" transform="translate(1182,679)" id="p987" class="dirt"/>
<path d="M0 0 C0 6.93 0 13.86 0 21 C-1.65 21 -3.3 21 -5 21 C-5 18.03 -5 15.06 -5 12 C-5.66 12 -6.32 12 -7 12 C-7.66 14.64 -8.32 17.28 -9 20 C-9.66 20 -10.32 20 -11 20 C-11.04 19.31 -11.07 18.63 -11.11 17.92 C-11.18 17.02 -11.24 16.12 -11.31 15.19 C-11.37 14.29 -11.43 13.4 -11.49 12.48 C-12.06 9.69 -12.82 8.76 -15 7 C-14.56 4.69 -14.56 4.69 -13 2 C-8.4 -0.39 -5.07 -1.27 0 0 Z " fill="#B1996E" transform="translate(315,587)" id="p1016" class="dirt"/>
<path d="M0 0 C0.99 0 1.98 0 3 0 C3 2.31 3 4.62 3 7 C4.65 6.67 6.3 6.34 8 6 C8 6.99 8 7.98 8 9 C6.68 9 5.36 9 4 9 C4.66 11.31 5.32 13.62 6 16 C4.38 17.62 2.61 17.17 0.38 17.19 C-4.13 17.16 -7.76 16.48 -12 15 C-12 15.66 -12 16.32 -12 17 C-12.66 17 -13.32 17 -14 17 C-14.33 15.35 -14.66 13.7 -15 12 C-13.68 11.34 -12.36 10.68 -11 10 C-11 9.34 -11 8.68 -11 8 C-10.66 8.07 -10.66 8.07 -8.94 8.44 C-5.64 9.07 -2.33 9.54 1 10 C1 9.01 1 8.02 1 7 C0.34 7 -0.32 7 -1 7 C-0.67 4.69 -0.34 2.38 0 0 Z M-19 10 C-17.68 11.32 -16.36 12.64 -15 14 C-16 15 -16 15 -18.5 15.1 C-19.01 15.09 -19.01 15.09 -21.56 15.06 C-22.57 15.05 -23.59 15.04 -24.63 15.04 C-25.41 15.02 -26.19 15.01 -27 15 C-24.34 12.02 -24.34 12.02 -21.31 11.81 C-20.55 11.87 -19.79 11.94 -19 12 C-19 11.34 -19 10.68 -19 10 Z " fill="#A1904B" transform="translate(687,573)" id="p1020" class="grass"/>
<path d="M0 0 C2.75 2 2.75 2 5 4 C5.99 4.33 6.98 4.66 8 5 C8.04 5.6 8.04 5.6 8.25 8.62 C8.76 12.91 10.43 15.52 13 19 C13 19.66 13 20.32 13 21 C10.69 21.66 8.38 22.32 6 23 C6.33 20.36 6.66 17.72 7 15 C3.49 16.64 0.54 18.03 -2 21 C-2.99 20.67 -3.98 20.34 -5 20 C-4.67 19.34 -4.34 18.68 -4 18 C-3.78 16.46 -3.59 14.92 -3.44 13.38 C-3.35 12.56 -3.27 11.74 -3.18 10.9 C-3.12 10.27 -3.06 9.65 -3 9 C-1.68 9 -0.36 9 1 9 C1.33 7.35 1.66 5.7 2 4 C0.52 4.16 0.52 4.16 -7 5 C-7 4.01 -7 3.02 -7 2 C-7.66 2 -8.32 2 -9 2 C-9 1.34 -9 0.68 -9 0 C-5.81 -1.59 -3.41 -0.75 0 0 Z " fill="#918143" transform="translate(1177,539)" id="p1021" class="grass"/>
<path d="M0 0 C10.25 -0.22 19.9 0.03 30 2 C30 2.99 30 3.98 30 5 C32.97 5 35.94 5 39 5 C39 5.99 39 6.98 39 8 C32.85 9.63 27.36 10.2 21 10 C21 9.34 21 8.68 21 8 C18.03 8 15.06 8 12 8 C12.33 6.35 12.66 4.7 13 3 C12.23 3.01 11.46 3.02 10.66 3.04 C10.16 3.04 10.16 3.04 7.62 3.06 C6.63 3.07 5.63 3.09 4.6 3.1 C2 3 2 3 0 2 C0 1.34 0 0.68 0 0 Z " fill="#DCB578" transform="translate(1135,630)" id="p1026" class="dirt"/>
<path d="M0 0 C0.99 0 1.98 0 3 0 C2.67 1.32 2.34 2.64 2 4 C3.65 4 5.3 4 7 4 C8.46 6.65 9 7.89 9 11 C9.99 10.67 10.98 10.34 12 10 C13.12 13.75 13.12 13.75 12 16 C14.31 16 16.62 16 19 16 C19 17.32 19 18.64 19 20 C17.35 19.67 15.7 19.34 14 19 C14 18.34 14 17.68 14 17 C13.34 17.22 12.67 17.43 11.99 17.65 C8 18.12 4.88 16.91 1.19 15.56 C0.49 15.32 -0.2 15.08 -0.91 14.83 C-2.61 14.23 -4.31 13.62 -6 13 C-6 12.01 -6 11.02 -6 10 C-5.34 10 -4.68 10 -4 10 C-3.67 7.36 -3.34 4.72 -3 2 C-2.01 2 -1.02 2 0 2 C0 1.34 0 0.68 0 0 Z " fill="#93834D" transform="translate(513,554)" id="p1031" class="grass"/>
<path d="M0 0 C3.69 0.88 3.69 0.88 7 2 C7 3.32 7 4.64 7 6 C8.11 5.65 9.23 5.3 10.38 4.94 C14 4 14 4 16 5 C16 5.66 16 6.32 16 7 C18.31 7 20.62 7 23 7 C23 7.33 23 7.66 23 8 C20.03 8.66 17.06 9.32 14 10 C14 10.66 14 11.32 14 12 C15.65 12 17.3 12 19 12 C19 12.33 19 12.66 19 13 C11.57 13.14 11.57 13.14 8 12 C8 11.34 8 10.68 8 10 C6.06 10.31 6.06 10.31 4 11 C3.67 11.99 3.34 12.98 3 14 C0.12 13.81 0.12 13.81 -3 13 C-4.25 10.56 -4.25 10.56 -5 8 C-5.66 7.34 -6.32 6.68 -7 6 C-6.34 6 -5.68 6 -5 6 C-4.73 5.38 -4.46 4.76 -4.19 4.12 C-3 2 -3 2 0 0 Z " fill="#BBA357" transform="translate(58,668)" id="p1043" class="dirt"/>
<path d="M0 0 C1.6 0.71 3.21 1.42 4.81 2.12 C6.21 2.75 7.6 3.37 9 4 C9 5.65 9 7.3 9 9 C6.04 8.39 4.62 7.75 2 6 C0.34 5.62 -1.32 5.27 -3 5 C-2.5 5.41 -2.01 5.83 -1.5 6.25 C0 8 0 8 0 12 C-1.65 12 -3.3 12 -5 12 C-5 10.02 -5 8.04 -5 6 C-5.99 6 -6.98 6 -8 6 C-8.33 5.34 -8.66 4.68 -9 4 C-9.99 4 -10.98 4 -12 4 C-12.33 4.99 -12.66 5.98 -13 7 C-15.07 7.95 -15.07 7.95 -17.56 8.69 C-17.98 8.81 -17.98 8.81 -20.07 9.45 C-20.7 9.63 -21.34 9.81 -22 10 C-21.67 8.68 -21.34 7.36 -21 6 C-21.66 6 -22.32 6 -23 6 C-23 5.34 -23 4.68 -23 4 C-20.36 4 -17.72 4 -15 4 C-15.66 2.35 -16.32 0.7 -17 -1 C-11.21 -2.93 -5.42 -2.64 0 0 Z " fill="#D7B77A" transform="translate(200,604)" id="p1044" class="dirt"/>
<path d="M0 0 C1 1 2 2 3 3 C5.48 3.73 5.48 3.73 8.19 4.19 C9.09 4.35 9.99 4.5 10.92 4.67 C11.61 4.78 12.29 4.89 13 5 C13 5.66 13 6.32 13 7 C12.34 7 11.68 7 11 7 C10.67 7.66 10.34 8.32 10 9 C7.03 8.01 4.06 7.02 1 6 C1 6.78 1 7.57 1 8.38 C1 9.92 1 11.46 1 13 C1.99 13.66 2.98 14.32 4 15 C3 18 3 18 1 20 C-2.62 20.12 -2.62 20.12 -6 20 C-6 19.34 -6 18.68 -6 18 C-5.01 18 -4.02 18 -3 18 C-3.66 15.36 -4.32 12.72 -5 10 C-5.99 10 -6.98 10 -8 10 C-8 10.66 -8 11.32 -8 12 C-8.66 12 -9.32 12 -10 12 C-10 9.03 -10 6.06 -10 3 C-11.32 2.67 -12.64 2.34 -14 2 C-12.42 1.66 -10.83 1.33 -9.25 1 C-8.37 0.81 -7.49 0.63 -6.58 0.44 C-4 0 -4 0 0 0 Z " fill="#AE9769" transform="translate(232,530)" id="p1045" class="dirt"/>
<path d="M0 0 C3.3 0 6.6 0 10 0 C10.33 0.66 10.66 1.32 11 2 C11.99 2.33 12.98 2.66 14 3 C14 3.66 14 4.32 14 5 C14.63 5.05 15.25 5.1 15.9 5.15 C16.72 5.22 17.53 5.3 18.38 5.38 C18.78 5.41 18.78 5.41 20.84 5.59 C23 6 23 6 25 8 C24.05 8.29 23.1 8.58 22.12 8.88 C19 10 19 10 17 12 C14.84 12.2 14.84 12.2 12.38 12.12 C11.56 12.11 10.74 12.09 9.9 12.07 C9.27 12.05 8.65 12.02 8 12 C7.34 10.68 6.68 9.36 6 8 C0.72 8 -4.56 8 -10 8 C-10 7.01 -10 6.02 -10 5 C-8.91 4.86 -7.81 4.71 -6.69 4.56 C-3 4 -3 4 0 3 C0 2.01 0 1.02 0 0 Z M21 9 C23 10 23 10 23 10 Z " fill="#C6AF7A" transform="translate(668,670)" id="p1056" class="dirt"/>
<path d="M0 0 C0 0.99 0 1.98 0 3 C0.56 2.67 1.11 2.34 1.69 2 C4.3 0.87 6.18 0.84 9 1 C8.38 1.25 7.76 1.5 7.12 1.75 C4.65 3.21 4.05 4.38 3 7 C2.34 6.34 1.68 5.68 1 5 C0.01 5.66 -0.98 6.32 -2 7 C-2.66 6.67 -3.32 6.34 -4 6 C-4 5.34 -4 4.68 -4 4 C-4.45 4.08 -4.45 4.08 -6.75 4.5 C-10 5 -10 5 -14 5 C-14 5.99 -14 6.98 -14 8 C-12.68 8 -11.36 8 -10 8 C-10.33 9.32 -10.66 10.64 -11 12 C-11.64 11.69 -12.28 11.38 -12.94 11.06 C-16.92 9.68 -20.82 9.35 -25 9 C-25 8.01 -25 7.02 -25 6 C-28.63 5.67 -32.26 5.34 -36 5 C-36 4.01 -36 3.02 -36 2 C-32.16 1.1 -28.62 0.89 -24.69 0.94 C-24.15 0.94 -24.15 0.94 -21.45 0.96 C-20.64 0.98 -19.83 0.99 -19 1 C-18.67 1.66 -18.34 2.32 -18 3 C-19.32 3.33 -20.64 3.66 -22 4 C-17.66 4.53 -15.65 3.15 -12.05 0.89 C-8.21 -0.78 -4.1 -0.3 0 0 Z " fill="#8E7E43" transform="translate(1037,665)" id="p1057" class="grass"/>
<g class="fork">
<path d="M 582.2,644.9 L 587.9,647.8 L 593.2,652.5 L 611.1,643.7 L 640.1,623.0 L 663.4,610.8 L 699.9,595.8 L 681.7,596.4 L 685.5,599.1 L 677.4,603.3 L 669.9,591.3 L 676.2,597.6 L 675.7,594.3 L 688.5,588.9 L 691.7,595.1 L 700.0,586.5 L 708.5,583.5 L 709.7,592.0 L 723.7,581.6 L 724.2,577.5 L 739.7,570.3 L 749.0,562.8 L 754.7,560.8 L 755.7,558.0 L 764.6,559.0 L 775.6,554.6 L 771.6,559.8 L 780.6,554.7 L 792.3,558.9 L 808.1,550.5 L 829.0,552.2 L 829.2,550.5 L 838.3,536.7 L 853.0,535.6 L 861.4,524.1 L 873.5,524.6 L 885.0,517.2 L 892.8,520.3 L 896.0,515.8 L 909.7,517.8 L 922.8,514.4 L 923.4,511.4 L 942.0,503.7 L 951.2,516.0 L 969.3,518.5 L 970.5,516.0 L 993.6,512.2 L 999.1,499.5 L 1019.9,506.1 L 1028.8,497.5 L 1043.5,501.6 L 1054.5,496.7 L 1058.8,486.3 L 1069.1,480.4 L 1081.0,471.2 L 1097.8,476.2 L 1104.2,476.9 L 1121.3,481.2 L 1135.5,470.2 L 1136.9,466.2 L 1145.3,465.8 L 1158.9,451.3 L 1179.4,455.3 L 1197.6,447.7 L 1195.9,456.1 L 1206.5,454.6 L 1209.2,464.8 L 1224.2,462.5 L 1221.8,452.1 L 1234.8,447.7 L 1248.5,441.4 L 1259.2,443.7 L 1264.5,436.6 L 1274.9,434.3 L 1280.5,434.5 L 1283.8,430.9 L 1287.7,420.6 L 1299.0,420.9 L 1298.4,421.0 L 1308.2,401.0 L 1320.7,393.5 L 1330.1,381.5 L 1296.0,363.8 L 1252.7,352.6 L 1226.4,342.3 L 1229.0,322.7 L 1229.8,311.3 L 1233.8,313.4 L 1234.6,312.7 L 1239.4,307.8 L 1241.4,309.6 L 1230.0,314.0 L 1224.6,316.8 L 1224.0,309.9 L 1227.1,303.8 L 1223.4,303.8 L 1214.0,313.1 L 1213.3,314.9 L 1206.9,324.6 L 1194.7,323.9 L 1183.1,325.1 L 1176.3,323.7 L 1174.1,322.3 L 1160.0,320.7 L 1141.8,332.8 L 1140.2,330.4 L 1119.3,324.5 L 1114.3,321.4 L 1107.6,315.7 L 1094.9,326.1 L 1082.9,329.4 L 1066.3,326.8 L 1057.6,325.7 L 1045.8,326.3 L 1030.5,325.4 L 1017.7,323.4 L 1003.4,328.8 L 987.3,327.0 L 975.7,326.4 L 961.9,328.6 L 953.4,324.7 L 933.3,340.3 L 920.1,346.8 L 916.6,345.9 L 904.4,350.5 L 897.2,353.9 L 876.4,355.9 L 872.1,354.1 L 854.2,360.3 L 847.4,353.0 L 833.1,357.3 L 813.3,365.2 L 805.5,371.4 L 797.5,367.4 L 782.8,363.5 L 774.9,352.4 L 767.8,363.6 L 758.5,368.4 L 748.7,365.8 L 729.9,364.0 L 728.8,376.7 L 719.5,370.5 L 708.4,379.5 L 693.7,384.8 L 682.8,380.6 L 672.6,380.8 L 672.7,371.4 L 660.2,371.7 L 647.7,373.6 L 641.5,376.3 L 625.5,384.4 L 626.2,377.1 L 621.7,382.9 L 616.6,384.1 L 597.8,389.5 L 581.5,395.0 L 564.6,397.1 L 556.7,406.0 L 545.4,407.8 L 534.3,410.2 L 555.2,397.3 L 577.5,383.7 L 606.2,380.8 L 589.2,370.9 L 581.5,372.5 L 578.1,360.5 L 580.6,461.0 L 576.2,555.0 Z" fill="#515547"/>
<path d="M 573.6,646.8 L 577.9,643.8 L 593.4,651.4 L 602.9,651.9 L 638.2,635.5 L 667.4,620.9 L 710.7,606.1 L 701.1,610.1 L 692.6,616.6 L 691.6,620.5 L 695.1,619.7 L 698.7,624.8 L 696.1,616.4 L 700.0,617.9 L 705.0,612.4 L 709.8,614.4 L 714.1,604.0 L 717.9,608.4 L 721.7,610.3 L 724.1,597.1 L 737.7,593.6 L 739.3,596.2 L 750.6,596.0 L 763.9,593.2 L 768.8,586.9 L 783.7,590.8 L 792.0,583.6 L 794.9,581.1 L 804.6,572.7 L 810.1,570.6 L 818.8,565.1 L 837.4,567.2 L 847.2,558.7 L 856.6,551.0 L 865.1,558.2 L 876.7,557.7 L 885.0,550.6 L 889.7,545.8 L 908.0,543.8 L 916.5,542.0 L 925.4,532.4 L 943.1,533.6 L 946.9,531.2 L 963.2,530.7 L 967.0,524.8 L 982.3,527.5 L 991.0,526.8 L 1002.9,522.4 L 1013.6,514.7 L 1034.4,512.8 L 1044.7,510.5 L 1056.0,503.0 L 1068.1,499.2 L 1079.6,497.7 L 1080.7,489.5 L 1102.6,483.4 L 1107.8,483.4 L 1127.7,482.8 L 1140.9,478.5 L 1148.9,476.7 L 1160.8,477.4 L 1162.8,472.2 L 1170.9,464.9 L 1182.5,466.0 L 1193.0,456.2 L 1208.0,450.0 L 1218.5,446.3 L 1228.4,450.0 L 1234.3,449.7 L 1240.7,447.5 L 1244.6,440.4 L 1254.5,441.6 L 1263.9,433.1 L 1270.6,434.3 L 1277.2,428.6 L 1280.7,424.3 L 1285.1,419.9 L 1288.2,418.2 L 1293.7,420.0 L 1308.8,407.8 L 1314.4,398.3 L 1325.3,386.8 L 1290.6,375.5 L 1257.3,351.8 L 1214.1,336.5 L 1225.8,326.5 L 1225.2,326.4 L 1234.4,320.2 L 1238.6,323.7 L 1236.7,317.6 L 1238.3,321.8 L 1233.6,321.0 L 1233.6,315.4 L 1225.3,316.5 L 1219.6,316.6 L 1222.2,320.3 L 1210.4,318.0 L 1203.6,323.1 L 1193.0,324.5 L 1191.0,320.0 L 1182.8,320.4 L 1167.8,318.0 L 1158.4,318.2 L 1157.2,317.4 L 1143.6,316.5 L 1133.3,315.8 L 1124.2,316.6 L 1106.6,316.9 L 1093.3,316.0 L 1088.6,319.1 L 1074.7,319.9 L 1067.2,328.6 L 1049.6,317.5 L 1036.1,323.2 L 1024.7,314.3 L 1007.1,322.8 L 994.5,322.3 L 987.1,320.4 L 974.3,328.2 L 968.4,321.9 L 947.9,324.9 L 935.7,332.0 L 923.7,327.2 L 918.8,328.8 L 899.6,324.0 L 886.4,325.5 L 879.2,325.7 L 866.4,326.2 L 855.0,334.7 L 842.3,334.7 L 830.8,333.9 L 821.3,335.2 L 805.7,338.5 L 795.5,333.6 L 784.5,335.7 L 774.5,333.9 L 764.6,339.9 L 750.8,335.2 L 745.0,341.7 L 738.4,336.5 L 721.7,342.0 L 714.5,341.0 L 702.8,338.9 L 693.0,343.0 L 679.8,350.2 L 669.1,349.8 L 657.2,343.3 L 647.9,344.3 L 644.1,343.9 L 637.2,346.1 L 627.3,347.4 L 612.7,349.6 L 608.7,352.0 L 596.1,358.4 L 585.0,362.2 L 571.4,373.5 L 558.0,379.4 L 549.4,385.1 L 526.7,394.5 L 519.6,400.6 L 546.6,390.9 L 569.4,383.0 L 592.4,370.8 L 590.4,382.4 L 578.7,386.3 L 572.8,385.4 L 568.7,466.9 L 572.3,560.8 Z" fill="#726F58"/>
<path d="M 1243.9,386.3 L 1224.9,405.4 L 1203.3,408.9 L 1173.2,406.2 L 1171.0,386.3 L 1183.2,369.9 L 1203.3,363.2 L 1223.4,370.4 Z" fill="#726F58" opacity="0.85"/>
<path d="M 1206.7,391.5 L 1200.3,413.2 L 1175.5,412.9 L 1158.7,406.2 L 1148.7,391.5 L 1147.0,369.2 L 1175.5,362.0 L 1202.5,379.1 Z" fill="#726F58" opacity="0.85"/>
<path d="M 670.0,489.6 L 671.7,509.4 L 643.8,522.5 L 619.9,510.6 L 601.1,489.6 L 622.7,475.2 L 643.8,465.6 L 672.0,477.4 Z" fill="#726F58" opacity="0.85"/>
<path d="M 925.1,434.6 L 917.4,456.5 L 896.5,472.1 L 874.6,451.1 L 850.7,434.6 L 871.7,417.7 L 896.5,400.2 L 916.8,414.1 Z" fill="#5B5E47" opacity="0.85"/>
<path d="M 702.0,489.6 L 692.2,511.7 L 643.8,520.1 L 608.1,511.9 L 582.5,489.6 L 614.0,463.3 L 643.8,447.5 L 672.2,459.1 Z" fill="#5B5E47" opacity="0.85"/>
<path d="M 910.3,440.3 L 895.5,466.2 L 862.8,469.0 L 838.4,465.3 L 809.1,440.3 L 831.9,421.0 L 862.8,416.5 L 894.6,413.2 Z" fill="#726F58" opacity="0.85"/>
<path d="M 1234.0,386.3 L 1224.7,397.3 L 1203.3,401.6 L 1186.0,396.0 L 1172.6,386.3 L 1180.0,376.2 L 1203.3,370.8 L 1223.5,376.5 Z" fill="#726F58" opacity="0.85"/>
<path d="M 1052.7,418.1 L 1026.9,440.4 L 1003.4,449.3 L 978.8,442.9 L 953.7,418.1 L 969.8,392.6 L 1003.4,388.5 L 1023.5,403.4 Z" fill="#5B5E47" opacity="0.85"/>
<path d="M 971.3,429.1 L 955.7,444.8 L 931.4,467.6 L 908.5,444.6 L 892.2,429.1 L 907.2,407.1 L 931.4,394.3 L 966.3,410.3 Z" fill="#726F58" opacity="0.85"/>
<path d="M 1215.0,391.5 L 1195.4,405.2 L 1175.5,410.9 L 1146.4,407.3 L 1138.6,391.5 L 1150.6,368.3 L 1175.5,360.3 L 1195.6,370.5 Z" fill="#726F58" opacity="0.85"/>
<path d="M 493.3,629.7 L 493.0,647.7 L 489.3,669.5 L 491.2,691.6 L 523.7,701.1 L 567.4,716.0 L 596.7,728.8 L 634.7,720.5 L 673.5,707.6 L 712.7,702.5 L 712.7,679.1 L 715.5,647.2 L 709.7,628.1 L 634.6,622.5 L 563.8,620.9 Z" fill="#9D9FA1"/>
<path d="M 490.2,620.5 L 487.6,654.4 L 491.9,682.4 L 544.4,698.5 L 600.3,716.3 L 653.9,709.8 L 711.4,696.1 L 713.8,662.1 L 708.1,627.5 L 601.1,625.3 Z" fill="#9D9FA1" opacity="0.8"/>
<path d="M 512.5,596.8 L 509.9,633.5 L 511.6,668.3 L 506.7,696.4 L 536.0,715.3 L 560.7,743.0 L 588.0,763.5 L 608.5,759.9 L 634.8,759.0 L 666.2,764.2 L 684.5,726.8 L 718.4,696.7 L 739.7,668.2 L 737.7,643.8 L 735.6,623.0 L 736.9,597.8 L 667.2,601.8 L 591.1,595.7 Z" fill="#666A6C"/>
<path d="M 511.8,603.7 L 513.6,642.3 L 514.2,686.9 L 550.1,715.0 L 586.2,744.1 L 622.8,745.5 L 663.1,749.2 L 703.9,704.2 L 741.6,663.3 L 742.8,629.1 L 735.9,598.9 L 628.9,604.5 Z" fill="#9D9FA1" opacity="0.8"/>
<path d="M 578.0,581.7 L 579.1,599.2 L 584.4,615.2 L 583.2,638.4 L 595.0,661.7 L 608.8,677.9 L 619.5,700.3 L 639.4,707.2 L 647.7,714.9 L 660.3,715.0 L 678.7,699.6 L 693.7,681.1 L 704.0,659.9 L 723.2,650.2 L 736.6,642.5 L 746.7,633.0 L 750.0,621.2 L 743.8,595.1 L 744.1,576.0 L 692.8,579.8 L 639.1,575.6 Z" fill="#666A6C"/>
<path d="M 578.7,578.2 L 578.0,607.1 L 586.0,630.7 L 607.2,667.1 L 624.0,689.7 L 644.7,701.7 L 664.3,701.3 L 688.5,682.3 L 706.6,657.4 L 729.9,646.1 L 743.8,634.2 L 750.2,602.4 L 746.9,579.0 L 669.1,581.8 Z" fill="#9D9FA1" opacity="0.8"/>
<path d="M 656.3,564.5 L 654.3,587.0 L 648.4,609.2 L 657.6,638.0 L 670.7,643.0 L 683.1,656.4 L 695.8,659.7 L 711.9,667.0 L 725.4,679.9 L 730.3,678.6 L 746.9,664.6 L 760.4,648.0 L 777.3,631.3 L 775.9,608.5 L 773.4,586.2 L 770.3,562.6 L 733.9,562.5 L 696.7,564.2 Z" fill="#9D9FA1"/>
<path d="M 650.5,558.6 L 652.4,599.6 L 656.9,633.4 L 675.7,640.2 L 689.7,650.6 L 716.2,658.8 L 734.9,671.7 L 757.0,646.9 L 773.7,628.5 L 777.4,591.1 L 770.8,563.7 L 713.9,562.8 Z" fill="#9D9FA1" opacity="0.8"/>
<path d="M 675.8,538.4 L 679.4,558.9 L 674.4,566.7 L 681.1,575.7 L 691.0,587.7 L 712.0,587.6 L 728.7,594.3 L 742.6,621.2 L 754.0,642.5 L 765.5,667.0 L 786.6,654.4 L 797.6,642.3 L 810.4,635.4 L 830.9,618.3 L 847.8,603.4 L 858.6,591.1 L 856.9,574.9 L 864.1,553.8 L 857.0,541.0 L 801.6,542.4 L 738.4,546.1 Z" fill="#5B6470"/>
<path d="M 681.7,539.4 L 679.4,563.1 L 682.8,577.1 L 702.6,583.4 L 728.5,591.4 L 744.0,627.9 L 772.9,658.2 L 789.4,639.2 L 813.8,622.0 L 833.5,609.0 L 860.0,584.1 L 855.5,559.0 L 862.9,541.0 L 766.7,546.9 Z" fill="#9D9FA1" opacity="0.8"/>
<path d="M 764.7,525.8 L 766.1,543.6 L 773.3,564.0 L 769.5,583.6 L 781.8,586.2 L 800.4,594.7 L 805.1,596.0 L 825.9,594.2 L 837.3,583.3 L 850.1,580.9 L 864.5,576.4 L 874.5,581.2 L 891.5,576.6 L 892.9,556.6 L 892.8,545.2 L 888.4,526.8 L 855.3,529.7 L 810.5,520.8 Z" fill="#5B6470"/>
<path d="M 766.8,520.9 L 771.9,550.3 L 767.1,574.6 L 790.9,585.0 L 809.6,584.9 L 827.3,585.3 L 854.6,581.2 L 867.8,575.8 L 894.8,571.2 L 888.1,545.5 L 896.3,522.5 L 832.3,522.9 Z" fill="#9D9FA1" opacity="0.8"/>
<path d="M 814.5,509.3 L 816.7,524.8 L 819.0,530.1 L 819.0,544.0 L 840.1,576.2 L 871.6,603.1 L 899.8,632.1 L 917.8,603.0 L 949.6,574.5 L 975.0,548.3 L 970.2,531.5 L 977.0,519.5 L 978.3,512.7 L 923.0,510.7 L 866.4,506.5 Z" fill="#9D9FA1"/>
<path d="M 820.0,507.0 L 820.2,527.5 L 822.6,544.8 L 857.0,580.0 L 897.4,617.8 L 936.7,579.9 L 969.3,544.1 L 970.1,528.5 L 972.4,508.9 L 898.5,509.0 Z" fill="#9D9FA1" opacity="0.8"/>
<path d="M 889.1,496.6 L 898.0,511.0 L 894.2,517.9 L 894.2,535.1 L 905.6,541.0 L 915.2,539.4 L 926.9,533.0 L 939.0,550.3 L 951.2,568.0 L 966.4,579.7 L 976.6,567.2 L 987.0,549.4 L 1000.5,537.8 L 1019.2,529.9 L 1025.4,524.1 L 1035.6,515.3 L 1041.5,509.4 L 1043.9,500.2 L 1040.8,489.1 L 991.9,496.4 L 943.7,488.4 Z" fill="#5B6470"/>
<path d="M 896.1,496.1 L 889.9,513.5 L 890.3,533.5 L 910.1,537.6 L 933.9,536.8 L 951.2,555.5 L 967.5,577.6 L 983.5,555.5 L 1006.4,534.9 L 1020.1,529.2 L 1041.2,518.7 L 1042.6,501.6 L 1042.0,493.1 L 965.9,488.4 Z" fill="#9D9FA1" opacity="0.8"/>
<path d="M 998.6,475.2 L 992.6,491.8 L 996.2,505.6 L 994.4,518.2 L 1014.0,538.6 L 1027.2,557.7 L 1040.9,571.2 L 1054.5,557.3 L 1065.3,544.6 L 1083.1,521.8 L 1082.1,505.5 L 1082.2,497.1 L 1082.8,473.1 L 1052.6,475.1 L 1029.3,476.3 Z" fill="#9D9FA1"/>
<path d="M 995.6,480.8 L 998.4,492.8 L 999.1,519.5 L 1017.1,543.4 L 1035.7,569.5 L 1066.8,548.4 L 1088.3,523.9 L 1085.7,498.9 L 1083.9,476.4 L 1036.8,472.7 Z" fill="#9D9FA1" opacity="0.8"/>
<path d="M 1036.5,464.1 L 1040.6,470.1 L 1042.5,475.4 L 1041.2,489.8 L 1063.1,512.0 L 1085.7,536.5 L 1114.5,553.7 L 1136.3,540.1 L 1159.0,528.3 L 1183.4,506.4 L 1185.9,491.4 L 1179.7,479.4 L 1177.8,465.5 L 1139.2,464.6 L 1091.3,460.8 Z" fill="#666A6C"/>
<path d="M 1041.8,463.4 L 1040.8,472.8 L 1039.8,488.8 L 1071.2,517.4 L 1111.7,549.9 L 1150.7,532.7 L 1184.2,503.0 L 1179.2,486.6 L 1184.9,458.5 L 1115.5,463.8 Z" fill="#9D9FA1" opacity="0.8"/>
<path d="M 1133.6,450.5 L 1138.0,464.1 L 1139.0,481.2 L 1140.6,500.0 L 1149.8,508.1 L 1157.5,511.8 L 1162.9,514.5 L 1169.4,509.7 L 1180.0,506.0 L 1189.5,507.4 L 1195.2,505.9 L 1203.2,507.0 L 1215.6,501.5 L 1216.3,484.7 L 1211.8,464.7 L 1209.3,451.2 L 1189.7,447.4 L 1163.2,444.5 Z" fill="#85888D"/>
<path d="M 1138.1,443.0 L 1139.0,475.4 L 1142.4,498.9 L 1148.1,506.1 L 1164.3,510.1 L 1171.3,504.9 L 1192.8,499.7 L 1198.3,496.9 L 1217.6,500.8 L 1210.7,472.8 L 1215.1,446.0 L 1180.1,444.7 Z" fill="#9D9FA1" opacity="0.8"/>
<path d="M 1183.3,431.5 L 1181.4,443.0 L 1187.5,457.9 L 1184.2,467.3 L 1188.9,473.5 L 1200.7,472.2 L 1205.9,481.9 L 1216.3,484.2 L 1222.4,495.8 L 1224.1,494.1 L 1231.8,502.4 L 1245.8,504.7 L 1252.2,504.8 L 1256.0,498.2 L 1261.7,493.0 L 1265.1,481.3 L 1267.4,465.4 L 1266.4,446.1 L 1266.9,429.5 L 1240.1,436.0 L 1215.6,430.3 Z" fill="#85888D"/>
<path d="M 1185.5,433.7 L 1189.3,452.2 L 1183.5,465.8 L 1191.9,468.4 L 1205.9,478.9 L 1220.0,488.2 L 1230.1,494.2 L 1235.1,497.3 L 1251.0,500.5 L 1261.4,486.4 L 1272.5,478.8 L 1265.4,456.0 L 1267.3,430.9 L 1228.6,430.4 Z" fill="#9D9FA1" opacity="0.8"/>
<path d="M 1217.0,419.9 L 1214.0,428.1 L 1213.5,437.9 L 1212.9,447.5 L 1226.4,464.3 L 1237.5,485.1 L 1248.5,501.5 L 1258.7,501.1 L 1265.8,504.3 L 1275.2,499.5 L 1285.0,483.4 L 1295.3,467.1 L 1305.1,446.7 L 1310.6,440.0 L 1304.8,430.4 L 1307.5,424.1 L 1273.2,415.2 L 1243.9,423.5 Z" fill="#9D9FA1"/>
<path d="M 1211.0,418.9 L 1211.8,435.9 L 1215.3,451.4 L 1230.1,472.4 L 1242.4,498.0 L 1262.8,493.2 L 1274.0,493.2 L 1295.9,476.3 L 1303.8,447.7 L 1310.0,431.1 L 1305.4,421.8 L 1259.1,422.5 Z" fill="#9D9FA1" opacity="0.8"/>
<path d="M 571.6,579.7 L 578.4,583.1 L 590.0,584.3 L 598.3,586.9 L 617.2,571.8 L 631.1,557.3 L 647.2,550.9 L 652.1,545.4 L 658.0,550.9 L 657.4,550.6 L 661.8,548.5 L 658.7,543.6 L 659.4,548.8 L 675.4,542.5 L 682.9,543.8 L 687.9,545.5 L 698.7,539.7 L 698.8,538.5 L 702.4,531.3 L 715.4,532.4 L 719.8,532.2 L 729.3,535.4 L 742.3,533.9 L 745.9,524.9 L 760.7,525.0 L 763.1,518.6 L 774.9,518.5 L 783.2,523.6 L 788.0,509.0 L 795.3,510.8 L 806.0,506.8 L 822.6,502.1 L 825.3,503.5 L 840.1,497.5 L 844.3,498.1 L 859.1,491.7 L 868.0,492.4 L 879.3,488.3 L 888.0,490.6 L 899.3,482.5 L 913.9,482.7 L 925.1,472.9 L 943.2,472.2 L 951.5,465.2 L 963.5,469.7 L 969.9,468.9 L 982.9,463.6 L 998.8,463.6 L 1005.1,456.2 L 1020.4,454.6 L 1028.9,450.3 L 1041.0,454.2 L 1054.7,455.1 L 1071.5,453.8 L 1084.5,443.2 L 1090.3,447.7 L 1107.6,441.9 L 1117.8,438.5 L 1131.7,440.2 L 1139.3,434.1 L 1152.6,425.6 L 1163.4,430.0 L 1174.7,428.4 L 1178.5,420.7 L 1191.8,423.9 L 1197.6,414.9 L 1207.6,408.7 L 1221.4,410.4 L 1231.7,412.4 L 1233.5,411.9 L 1245.8,405.2 L 1248.0,401.3 L 1255.9,403.4 L 1256.8,401.5 L 1262.7,393.9 L 1269.1,395.3 L 1269.5,386.9 L 1275.2,392.8 L 1276.9,384.9 L 1278.6,377.2 L 1289.4,378.0 L 1297.4,365.0 L 1274.5,363.8 L 1268.8,356.4 L 1254.4,345.0 L 1255.8,340.8 L 1255.0,344.8 L 1257.1,334.9 L 1257.0,345.7 L 1252.6,344.6 L 1251.7,347.0 L 1251.7,348.5 L 1243.9,342.9 L 1239.5,345.6 L 1230.6,353.4 L 1231.7,349.9 L 1225.6,348.9 L 1213.4,353.5 L 1213.0,357.0 L 1201.3,351.7 L 1190.6,355.9 L 1182.5,355.8 L 1172.7,365.0 L 1159.4,365.1 L 1146.2,355.9 L 1140.7,356.4 L 1125.3,365.5 L 1120.5,359.0 L 1110.7,360.0 L 1098.4,362.6 L 1079.6,362.4 L 1063.1,362.5 L 1057.8,369.6 L 1045.0,374.6 L 1034.3,380.4 L 1017.3,380.3 L 1006.4,380.0 L 998.5,384.4 L 984.7,375.6 L 971.6,382.7 L 952.6,374.6 L 950.6,382.3 L 935.9,384.6 L 922.5,386.7 L 913.4,388.2 L 905.1,390.9 L 884.9,387.1 L 879.7,388.1 L 860.8,386.7 L 853.9,383.2 L 844.6,387.8 L 831.3,393.1 L 819.5,393.4 L 810.5,393.1 L 799.7,390.5 L 785.9,399.2 L 776.7,397.0 L 767.2,396.7 L 764.3,395.5 L 752.0,401.1 L 737.7,403.1 L 725.1,407.8 L 714.9,406.9 L 702.0,406.9 L 694.5,400.5 L 689.7,409.9 L 682.1,409.3 L 671.5,420.4 L 668.0,423.2 L 658.9,420.7 L 650.0,420.8 L 639.3,429.9 L 631.5,432.4 L 622.2,430.9 L 608.7,431.8 L 600.7,438.0 L 598.9,437.9 L 581.6,448.4 L 571.3,452.2 L 558.2,454.3 L 578.2,450.6 L 593.5,445.7 L 604.4,439.2 L 594.4,445.1 L 578.6,451.9 L 573.5,447.2 L 576.5,494.0 L 569.0,530.8 Z" fill="#988C5D"/>
<path d="M 575.7,566.6 L 580.5,568.9 L 593.2,559.9 L 602.0,558.2 L 613.2,555.4 L 628.0,547.6 L 638.4,536.2 L 639.4,540.4 L 643.9,535.9 L 646.9,537.2 L 654.0,534.3 L 653.0,532.4 L 663.5,528.3 L 668.0,526.8 L 675.1,523.5 L 676.6,514.7 L 686.4,518.9 L 692.3,511.5 L 700.3,511.7 L 705.1,510.0 L 713.6,510.3 L 721.0,501.1 L 731.7,497.6 L 738.8,497.8 L 742.3,491.4 L 757.3,490.9 L 771.7,492.5 L 779.5,491.1 L 787.7,484.0 L 792.9,486.5 L 808.5,483.7 L 817.7,488.8 L 828.0,488.1 L 839.2,483.9 L 845.7,483.3 L 858.1,479.1 L 872.9,476.4 L 882.4,470.0 L 894.8,466.9 L 903.3,460.9 L 918.6,466.8 L 925.6,460.0 L 937.7,464.2 L 947.5,457.8 L 958.5,454.4 L 972.2,457.3 L 981.9,449.9 L 993.8,449.1 L 1009.2,447.4 L 1023.7,441.2 L 1032.7,437.2 L 1044.5,433.0 L 1052.0,436.0 L 1065.4,430.3 L 1079.3,431.1 L 1085.8,431.2 L 1097.2,424.0 L 1110.6,426.4 L 1124.5,421.8 L 1137.7,421.5 L 1148.9,421.4 L 1158.9,421.0 L 1167.5,414.9 L 1179.7,412.6 L 1189.5,411.0 L 1197.9,409.2 L 1206.8,406.9 L 1218.5,402.1 L 1223.1,400.5 L 1229.9,401.3 L 1240.2,400.7 L 1248.3,397.1 L 1248.5,395.4 L 1256.9,393.3 L 1260.7,394.0 L 1270.0,387.2 L 1273.9,385.5 L 1276.1,385.8 L 1278.3,381.4 L 1285.9,381.8 L 1291.4,375.4 L 1297.3,370.6 L 1279.3,368.4 L 1267.0,358.8 L 1254.7,351.6 L 1255.3,346.6 L 1259.3,347.1 L 1257.9,349.6 L 1258.8,350.0 L 1252.9,350.6 L 1254.5,354.6 L 1251.9,349.5 L 1242.1,352.3 L 1241.0,355.6 L 1238.9,358.9 L 1232.9,357.3 L 1224.2,364.2 L 1215.2,360.3 L 1209.0,367.2 L 1198.0,369.4 L 1194.0,363.2 L 1183.4,367.5 L 1170.4,361.9 L 1159.4,369.2 L 1155.2,371.4 L 1140.1,370.8 L 1132.9,377.0 L 1120.2,379.6 L 1108.6,377.1 L 1099.9,375.7 L 1083.3,377.7 L 1075.6,376.9 L 1061.9,378.8 L 1049.5,387.3 L 1038.1,391.6 L 1023.3,393.3 L 1010.1,387.9 L 1003.2,393.7 L 987.0,392.6 L 976.6,393.4 L 962.1,397.2 L 952.9,399.9 L 941.4,396.1 L 928.0,397.5 L 914.3,402.5 L 903.2,400.8 L 890.6,401.1 L 876.5,408.9 L 864.5,408.9 L 853.9,403.2 L 844.0,407.6 L 832.6,415.4 L 819.3,412.5 L 811.0,417.4 L 802.8,417.1 L 791.3,418.0 L 776.6,421.3 L 771.5,425.3 L 759.9,426.8 L 747.5,425.4 L 744.6,430.6 L 731.6,437.0 L 725.8,437.3 L 719.5,437.8 L 706.9,437.2 L 696.5,437.0 L 690.6,443.1 L 678.3,438.7 L 671.8,446.3 L 662.6,442.0 L 656.3,443.2 L 647.1,446.8 L 636.4,450.2 L 629.1,449.7 L 621.2,451.5 L 613.9,453.2 L 603.9,454.7 L 595.6,461.4 L 581.0,464.9 L 575.0,468.1 L 585.5,463.8 L 594.3,470.7 L 602.4,464.9 L 589.4,464.3 L 587.2,462.0 L 572.4,457.7 L 576.2,498.1 L 577.3,528.7 Z" fill="#B8A45F"/>
<path d="M 569.5,539.4 L 580.3,541.1 L 592.7,538.1 L 597.4,539.3 L 609.2,533.5 L 618.0,523.2 L 623.5,519.6 L 625.9,520.4 L 628.6,519.1 L 631.6,513.7 L 637.9,515.4 L 647.9,508.1 L 652.3,509.2 L 658.7,504.6 L 663.0,503.4 L 669.2,501.1 L 673.7,495.6 L 682.1,496.2 L 692.6,492.2 L 703.1,491.8 L 707.0,490.4 L 719.7,484.2 L 729.3,483.7 L 737.2,480.8 L 744.3,479.3 L 751.9,473.0 L 764.2,476.9 L 770.2,469.9 L 779.5,471.4 L 789.2,470.2 L 804.3,469.7 L 814.1,465.8 L 824.8,465.1 L 833.4,460.5 L 844.0,460.1 L 854.6,459.2 L 868.1,453.7 L 879.2,453.8 L 888.4,452.6 L 903.1,453.4 L 914.5,453.7 L 921.7,448.1 L 935.6,444.9 L 947.6,444.2 L 959.4,444.6 L 968.5,443.0 L 982.5,438.8 L 993.2,437.9 L 1003.5,430.3 L 1016.4,433.5 L 1029.3,434.0 L 1038.9,429.3 L 1053.7,429.0 L 1063.6,424.4 L 1075.5,423.8 L 1086.5,422.4 L 1102.0,419.5 L 1112.0,412.4 L 1123.5,413.5 L 1132.0,412.9 L 1145.6,409.7 L 1154.9,412.0 L 1165.9,406.9 L 1172.9,402.6 L 1188.9,400.1 L 1196.1,401.7 L 1208.5,399.0 L 1214.3,398.8 L 1221.5,397.5 L 1227.2,395.1 L 1233.7,391.1 L 1243.4,387.4 L 1248.8,385.6 L 1255.1,382.8 L 1258.1,381.3 L 1261.2,378.9 L 1269.2,378.2 L 1269.3,376.0 L 1269.4,371.0 L 1275.4,369.3 L 1276.3,368.3 L 1278.0,369.4 L 1271.9,364.8 L 1266.6,359.2 L 1262.4,358.2 L 1263.7,358.1 L 1265.9,356.0 L 1261.3,352.8 L 1264.6,359.0 L 1260.9,355.1 L 1260.2,360.6 L 1250.7,361.2 L 1249.4,363.2 L 1241.4,364.1 L 1237.5,366.9 L 1229.1,367.1 L 1227.2,366.7 L 1218.6,368.2 L 1210.0,371.5 L 1202.9,370.6 L 1190.5,373.8 L 1179.7,376.3 L 1173.4,380.2 L 1165.7,381.3 L 1154.8,378.2 L 1140.2,380.9 L 1128.3,385.3 L 1119.0,387.5 L 1109.2,388.1 L 1097.7,389.6 L 1086.5,391.3 L 1074.3,391.5 L 1063.1,390.3 L 1050.5,395.5 L 1037.9,392.3 L 1027.4,396.6 L 1011.5,401.7 L 997.3,405.8 L 984.5,407.3 L 977.7,403.8 L 964.6,405.1 L 953.7,409.4 L 943.1,409.5 L 927.9,409.0 L 919.8,415.8 L 907.6,417.3 L 893.6,419.8 L 879.7,421.7 L 867.4,422.8 L 854.7,423.5 L 846.8,425.3 L 838.4,427.5 L 827.4,429.8 L 816.5,434.4 L 808.5,433.2 L 795.5,437.5 L 785.1,438.0 L 774.6,438.7 L 764.0,444.1 L 756.3,442.5 L 746.8,449.9 L 735.4,448.4 L 727.7,450.6 L 717.5,453.9 L 709.9,456.5 L 700.4,454.0 L 695.2,459.5 L 686.7,458.9 L 679.4,462.1 L 669.1,462.9 L 658.8,464.6 L 652.0,467.7 L 646.6,469.7 L 637.6,468.7 L 630.9,477.0 L 623.2,479.3 L 615.9,481.5 L 611.2,481.7 L 602.8,486.8 L 591.9,488.7 L 599.3,491.0 L 600.4,491.8 L 600.5,492.6 L 592.2,492.4 L 580.5,486.6 L 570.2,486.9 L 572.7,502.1 L 571.2,522.2 Z" fill="#ECD1A7" opacity="0.85"/>
<circle cx="601.7" cy="508.6" r="6.0" fill="#988C5D" opacity=".5"/>
<circle cx="1179.1" cy="399.2" r="1.8" fill="#988C5D" opacity=".5"/>
<circle cx="1146.2" cy="380.1" r="2.3" fill="#988C5D" opacity=".5"/>
<circle cx="681.6" cy="501.0" r="4.0" fill="#988C5D" opacity=".5"/>
<circle cx="840.2" cy="451.1" r="2.3" fill="#988C5D" opacity=".5"/>
<circle cx="763.6" cy="460.1" r="3.9" fill="#988C5D" opacity=".5"/>
<circle cx="682.7" cy="487.1" r="4.7" fill="#988C5D" opacity=".5"/>
<circle cx="587.2" cy="527.4" r="7.6" fill="#988C5D" opacity=".5"/>
<circle cx="1001.5" cy="404.7" r="3.9" fill="#988C5D" opacity=".5"/>
<circle cx="864.3" cy="414.9" r="2.4" fill="#988C5D" opacity=".5"/>
<circle cx="1270.8" cy="363.4" r="2.8" fill="#988C5D" opacity=".5"/>
<circle cx="612.0" cy="505.0" r="3.6" fill="#988C5D" opacity=".5"/>
<circle cx="1133.3" cy="405.8" r="3.0" fill="#988C5D" opacity=".5"/>
<circle cx="686.9" cy="462.3" r="5.0" fill="#988C5D" opacity=".5"/>
<circle cx="1254.0" cy="371.6" r="2.7" fill="#988C5D" opacity=".5"/>
<circle cx="1263.0" cy="354.6" r="1.7" fill="#988C5D" opacity=".5"/>
<circle cx="1162.8" cy="385.0" r="2.2" fill="#988C5D" opacity=".5"/>
<circle cx="773.7" cy="430.4" r="4.7" fill="#988C5D" opacity=".5"/>
<circle cx="900.8" cy="413.8" r="4.3" fill="#988C5D" opacity=".5"/>
<circle cx="727.4" cy="472.1" r="4.2" fill="#988C5D" opacity=".5"/>
<circle cx="1198.1" cy="373.1" r="2.6" fill="#988C5D" opacity=".5"/>
<circle cx="1235.7" cy="368.7" r="2.2" fill="#988C5D" opacity=".5"/>
<circle cx="1184.2" cy="388.9" r="3.0" fill="#988C5D" opacity=".5"/>
<circle cx="619.3" cy="545.2" r="4.2" fill="#988C5D" opacity=".5"/>
<path d="M 908.3,248.9 L 888.0,299.8 L 875.8,343.8 L 852.2,390.4 L 840.3,432.1 L 871.9,431.0 L 910.8,439.4 L 947.7,436.1 L 979.1,432.3 L 962.5,384.9 L 939.5,343.5 L 924.8,298.6 Z" fill="#5B5E47"/>
<path d="M 910.0,251.4 L 889.7,286.6 L 872.4,327.4 L 859.4,368.2 L 891.8,370.6 L 922.2,372.7 L 955.2,369.5 L 937.8,327.7 L 923.1,290.7 Z" fill="#726F58"/>
<path d="M 965.0,272.9 L 954.2,317.9 L 939.5,353.1 L 924.1,387.3 L 910.9,426.3 L 944.9,420.0 L 973.3,425.7 L 996.0,422.0 L 1026.0,421.3 L 1006.8,388.1 L 998.9,349.9 L 978.8,316.8 Z" fill="#5B5E47"/>
<path d="M 968.7,277.7 L 955.8,307.3 L 945.2,338.6 L 930.8,375.4 L 952.6,375.7 L 981.2,371.9 L 1005.9,371.9 L 992.2,342.3 L 984.5,310.8 Z" fill="#726F58"/>
<path d="M 828.3,274.4 L 810.2,309.7 L 796.6,344.5 L 783.5,383.6 L 766.2,423.4 L 797.0,423.3 L 821.5,426.2 L 848.6,429.1 L 886.0,423.4 L 868.2,386.5 L 853.1,348.6 L 835.7,313.3 Z" fill="#5B5E47"/>
<path d="M 824.8,276.3 L 812.1,305.5 L 796.9,338.9 L 784.5,372.2 L 808.3,370.7 L 834.4,372.9 L 861.2,370.6 L 848.6,341.2 L 834.4,308.8 Z" fill="#726F58"/>
<path d="M 758.2,249.8 L 737.3,301.5 L 718.8,362.4 L 698.7,413.5 L 675.1,467.1 L 719.6,465.2 L 758.2,472.1 L 802.1,465.3 L 841.6,471.6 L 818.6,416.0 L 804.8,359.9 L 776.5,305.8 Z" fill="#5B5E47"/>
<path d="M 761.8,250.6 L 744.0,295.4 L 718.8,346.7 L 699.5,392.2 L 741.5,389.9 L 776.6,392.2 L 814.8,394.3 L 799.5,345.4 L 778.0,300.4 Z" fill="#726F58"/>
<path d="M 1005.0,251.8 L 989.2,292.0 L 971.3,328.9 L 950.6,377.5 L 938.0,418.2 L 969.3,422.7 L 997.2,415.0 L 1030.7,423.6 L 1066.6,419.1 L 1051.2,381.0 L 1030.7,337.2 L 1016.8,293.9 Z" fill="#5B5E47"/>
<path d="M 1001.9,244.5 L 987.8,282.2 L 974.2,324.5 L 955.4,360.5 L 982.9,362.4 L 1016.2,356.1 L 1045.7,359.3 L 1031.2,319.1 L 1018.2,284.7 Z" fill="#726F58"/>
</g>
</svg>