<svg version="1.1" xmlns="http://www.w3.org/2000/svg" width="1200" height="694"><style>
  @keyframes sway   { from { transform: translateX(-3px);} to { transform: translateX(3px);} }
  @keyframes drift  { from { transform: translateX(-38px);} to { transform: translateX(38px);} }
  @keyframes flow   { 0% { transform: translateY(-10px); opacity: 0;}
                      25% { opacity: .55;} 75% { opacity: .55;}
                      100% { transform: translateY(14px); opacity: 0;} }
  @keyframes glim   { 0%,100% { opacity: .02;} 50% { opacity: .14;} }
  @keyframes wave   { 0%,100% { transform: skewX(-6deg);} 50% { transform: skewX(6deg);} }
  .cloud        { animation: sway 26s ease-in-out infinite alternate; }
  .cloud-clone  { animation: drift 70s ease-in-out infinite alternate; opacity: .5; }
  .fall-clone   { animation: flow 2.6s linear infinite; }
  .water-sheen  { animation: glim 7s ease-in-out infinite; fill: #ffffff; }
  .flag         { animation: wave 1.8s ease-in-out infinite; }
  .cloud, .cloud-clone, .fall-clone, .flag, .water-sheen { will-change: transform, opacity; }
  path { transform-box: fill-box; transform-origin: center; }
</style>
<path d="M0 0 C0.66 0 1.32 0 2 0 C1.67 1.98 1.34 3.96 1 6 C1.54 5.91 1.54 5.91 4.25 5.44 C7.4 5.07 9.1 4.96 12 6 C11.34 7.65 10.68 9.3 10 11 C8.93 11.12 7.86 11.25 6.75 11.38 C3 12 3 12 1 13.12 C-2.16 14.51 -4.71 13.72 -8 13 C-8.99 12.34 -9.98 11.68 -11 11 C-11 13.64 -11 16.28 -11 19 C-14.3 19 -17.6 19 -21 19 C-21 14.71 -21 10.42 -21 6 C-19.02 6 -17.04 6 -15 6 C-14.42 5.36 -13.85 4.72 -13.25 4.06 C-10.1 1.17 -7.31 1.39 -3.14 1.18 C-1 1 -1 1 0 0 Z " fill="#686456" transform="translate(970,675)" id="p646" class="grass"/>
<path d="M0 0 C0.33 0 0.66 0 1 0 C1.86 11.27 -0.97 22.5 -5 33 C-7.12 34.38 -7.12 34.38 -9 35 C-9 35.66 -9 36.32 -9 37 C-9.99 37 -10.98 37 -12 37 C-14.36 33.46 -14.54 30.61 -14.81 26.5 C-14.88 25.82 -14.94 25.15 -15.01 24.45 C-15.35 19.51 -15.35 19.51 -13.64 17.03 C-12 16 -12 16 -10 16 C-9.01 13.03 -8.02 10.06 -7 7 C-6.01 7 -5.02 7 -4 7 C-3.71 6.22 -3.42 5.43 -3.12 4.62 C-2 2 -2 2 0 0 Z " fill="#9D9D9C" transform="translate(331,649)" id="p690" class="grass"/>
<path d="M0 0 C2.64 0 5.28 0 8 0 C8.33 1.65 8.66 3.3 9 5 C9.66 4.67 10.32 4.34 11 4 C10.67 4.99 10.34 5.98 10 7 C7.94 7.69 7.94 7.69 6 8 C5.63 13.55 5.63 13.55 7.5 15.81 C8 16.2 8.49 16.6 9 17 C9 17.33 9 17.66 9 18 C8.21 17.98 7.43 17.95 6.62 17.93 C0.62 17.83 -4.33 18.03 -10 20 C-10.66 20 -11.32 20 -12 20 C-12.33 19.01 -12.66 18.02 -13 17 C-15.06 16.31 -15.06 16.31 -17 16 C-17.62 13.62 -17.62 13.62 -18 11 C-17.34 10.34 -16.68 9.68 -16 9 C-14.68 9 -13.36 9 -12 9 C-12 9.99 -12 10.98 -12 12 C-10.02 12 -8.04 12 -6 12 C-6.99 9.69 -7.98 7.38 -9 5 C-7.35 5 -5.7 5 -4 5 C-3.67 4.34 -3.34 3.68 -3 3 C-2.01 3 -1.02 3 0 3 C0 2.01 0 1.02 0 0 Z " fill="#6F6A3F" transform="translate(774,671)" id="p695" class="grass"/>
<path d="M0 0 C5.3 0.2 8.15 1.38 12 5 C12.64 4.7 13.28 4.4 13.94 4.09 C19.34 1.71 23.11 0.23 29 2 C31.44 3.38 31.44 3.38 33 5 C33 5.99 33 6.98 33 8 C32.01 8 31.02 8 30 8 C30 8.99 30 9.98 30 11 C18.45 11 6.9 11 -5 11 C-5 9.68 -5 8.36 -5 7 C-3.68 7 -2.36 7 -1 7 C-1.21 6.22 -1.41 5.43 -1.62 4.62 C-1.75 3.76 -1.87 2.89 -2 2 C-1.34 1.34 -0.68 0.68 0 0 Z " fill="#938868" transform="translate(1144,683)" id="p701" class="grass"/>
<path d="M0 0 C2.31 0 4.62 0 7 0 C7.93 2.61 8.15 3.64 7.06 6.25 C6.89 6.54 6.89 6.54 6 8 C6.44 7.98 6.44 7.98 8.69 7.88 C12 8 13.99 8.7 17 10 C17.99 10 18.98 10 20 10 C20 12.31 20 14.62 20 17 C18.02 17 16.04 17 14 17 C13.67 17.99 13.34 18.98 13 20 C11.35 20 9.7 20 8 20 C7.67 18.68 7.34 17.36 7 16 C5.02 16.66 3.04 17.32 1 18 C1 17.34 1 16.68 1 16 C-0.65 16 -2.3 16 -4 16 C-4 15.34 -4 14.68 -4 14 C-6.31 13.34 -8.62 12.68 -11 12 C-11.33 13.65 -11.66 15.3 -12 17 C-12.66 17 -13.32 17 -14 17 C-13.67 13.7 -13.34 10.4 -13 7 C-12.01 7.33 -11.02 7.66 -10 8 C-10 8.66 -10 9.32 -10 10 C-9.28 9.79 -8.56 9.59 -7.81 9.38 C-4.55 8.94 -2.92 9.58 0 11 C0 9.02 0 7.04 0 5 C-0.99 5 -1.98 5 -3 5 C-3 4.34 -3 3.68 -3 3 C-2.01 3 -1.02 3 0 3 C0 2.01 0 1.02 0 0 Z " fill="#AF9F74" transform="translate(516,648)" id="p711" class="dirt"/>
<path d="M0 0 C0.99 0.66 1.98 1.32 3 2 C3.29 4.16 3.29 4.16 3.19 6.62 C3.16 7.44 3.13 8.26 3.11 9.1 C3.07 9.73 3.04 10.35 3 11 C4.32 11.33 5.64 11.66 7 12 C4.36 12.33 1.72 12.66 -1 13 C-0.01 14.65 0.98 16.3 2 18 C1.01 19.32 0.02 20.64 -1 22 C-4 21 -4 21 -5.24 18.98 C-7 17 -7 17 -10.36 16.39 C-11.62 16.34 -12.88 16.3 -14.19 16.25 C-15.46 16.19 -16.73 16.14 -18.04 16.08 C-18.53 16.07 -18.53 16.07 -21 16 C-20.34 13.36 -19.68 10.72 -19 8 C-17.35 8 -15.7 8 -14 8 C-14 6.68 -14 5.36 -14 4 C-13.43 3.93 -13.43 3.93 -10.56 3.56 C-7 3 -7 3 -6 2 C-4 1.96 -2 1.96 0 2 C0 1.34 0 0.68 0 0 Z " fill="#897A4A" transform="translate(183,664)" id="p739" class="grass"/>
<path d="M0 0 C2.05 0.03 4.1 0.07 6.15 0.1 C6.48 1.09 6.81 2.08 7.15 3.1 C8.14 3.43 9.13 3.76 10.15 4.1 C11.89 7.56 10.64 11.34 10.15 15.1 C6.85 15.1 3.55 15.1 0.15 15.1 C0.48 12.13 0.81 9.16 1.15 6.1 C-1.16 6.1 -3.47 6.1 -5.85 6.1 C-4.2 7.75 -2.55 9.4 -0.85 11.1 C-1.18 11.76 -1.51 12.42 -1.85 13.1 C-2.51 12.44 -3.17 11.78 -3.85 11.1 C-4.18 11.76 -4.51 12.42 -4.85 13.1 C-8.81 13.1 -12.77 13.1 -16.85 13.1 C-16.85 11.78 -16.85 10.46 -16.85 9.1 C-17.84 8.77 -18.83 8.44 -19.85 8.1 C-19.29 6.16 -19.29 6.16 -17.85 4.1 C-14.29 3.41 -14.29 3.41 -10.85 3.1 C-10.52 2.77 -10.19 2.44 -9.85 2.1 C-7.51 1.76 -5.18 1.43 -2.85 1.1 C-1.85 0.1 -1.85 0.1 0 0 Z " fill="#A09363" transform="translate(872.84765625,678.90234375)" id="p756" class="dirt"/>
<path d="M0 0 C0.68 0.14 1.35 0.29 2.05 0.44 C2.94 0.62 3.83 0.81 4.75 1 C5.63 1.19 6.51 1.37 7.42 1.56 C10 2 10 2 14 2 C14 3.32 14 4.64 14 6 C14.66 5.67 15.32 5.34 16 5 C18.33 4.96 20.67 4.96 23 5 C23 6.32 23 7.64 23 9 C24.32 9.33 25.64 9.66 27 10 C27 10.99 27 11.98 27 13 C27.66 13.33 28.32 13.66 29 14 C22.31 13.1 22.31 13.1 19.88 12.31 C17.18 11.86 15.42 12.86 13 14 C13 15.32 13 16.64 13 18 C11.02 17.34 9.04 16.68 7 16 C7 16.66 7 17.32 7 18 C6.34 18 5.68 18 5 18 C4.34 16.35 3.68 14.7 3 13 C1.68 13.33 0.36 13.66 -1 14 C-1 13.34 -1 12.68 -1 12 C-0.34 12 0.32 12 1 12 C1 11.34 1 10.68 1 10 C-0.32 10 -1.64 10 -3 10 C-2.67 11.98 -2.34 13.96 -2 16 C-3.32 16.33 -4.64 16.66 -6 17 C-6 14.36 -6 11.72 -6 9 C-4.52 8.97 -3.04 8.95 -1.56 8.94 C-0.74 8.93 0.08 8.91 0.93 8.9 C3 9 3 9 4 10 C4.33 8.68 4.66 7.36 5 6 C4.01 5.84 4.01 5.84 -1 5 C-0.67 3.35 -0.34 1.7 0 0 Z " fill="#91835C" transform="translate(915,652)" id="p757" class="grass"/>
<path d="M0 0 C3.33 1.11 4.54 2.69 6.31 5.56 C8.45 8.78 8.76 8.94 12.81 9.94 C13.86 9.96 14.92 9.98 16 10 C16 10.99 16 11.98 16 13 C17.32 12.67 18.64 12.34 20 12 C18.75 13.56 18.75 13.56 17 15 C14.81 14.69 14.81 14.69 13 14 C13 14.99 13 15.98 13 17 C12.01 17 11.02 17 10 17 C10 17.99 10 18.98 10 20 C7.69 20.66 5.38 21.32 3 22 C3 20.68 3 19.36 3 18 C2.36 18.66 1.72 19.32 1.06 20 C-3.21 22.79 -5.97 22.3 -11 22 C-10.67 18.7 -10.34 15.4 -10 12 C-8.68 12.66 -7.36 13.32 -6 14 C-6 14.66 -6 15.32 -6 16 C-5.01 16 -4.02 16 -3 16 C-3.33 15.34 -3.66 14.68 -4 14 C-2.87 13.71 -1.73 13.42 -0.56 13.12 C0.61 12.75 1.79 12.38 3 12 C3.33 11.34 3.66 10.68 4 10 C3.07 10.06 2.14 10.12 1.19 10.19 C-2 10 -2 10 -3.88 8.5 C-4.25 8 -4.62 7.51 -5 7 C-4.34 6.67 -3.68 6.34 -3 6 C-1.95 4.02 -0.95 2.03 0 0 Z " fill="#505446" transform="translate(506,631)" id="p761" class="grass"/>
<path d="M0 0 C4.8 2.46 4.8 2.46 5.81 5.19 C5.87 5.79 5.94 6.38 6 7 C8.64 7.33 11.28 7.66 14 8 C14 6.68 14 5.36 14 4 C15.75 2.19 15.75 2.19 18 1 C20.19 1.19 20.19 1.19 22 2 C22.33 2.66 22.66 3.32 23 4 C26 4.69 26 4.69 29 5 C29.33 4.67 29.66 4.34 30 4 C37.26 3.41 37.26 3.41 40.5 6 C41 6.66 41.49 7.32 42 8 C39.06 10.5 36.82 11.47 33 12 C32.34 11.01 31.68 10.02 31 9 C25.24 9.37 21.15 10.25 16 13 C11.35 14.26 8.41 13.95 4 12 C3.67 11.34 3.34 10.68 3 10 C1.15 9.37 1.15 9.37 -1.06 8.88 C-1.43 8.79 -1.43 8.79 -3.29 8.37 C-3.85 8.25 -4.42 8.12 -5 8 C-4.67 7.01 -4.34 6.02 -4 5 C-3.01 5 -2.02 5 -1 5 C-1 4.34 -1 3.68 -1 3 C-2.32 2.67 -3.64 2.34 -5 2 C-3.35 2 -1.7 2 0 2 C0 1.34 0 0.68 0 0 Z " fill="#928565" transform="translate(938,644)" id="p765" class="grass"/>
<path d="M0 0 C0.99 0.33 1.98 0.66 3 1 C3.25 6.62 3.25 6.62 1 10 C0.01 10 -0.98 10 -2 10 C-2 10.66 -2 11.32 -2 12 C-1.68 12.12 -1.68 12.12 -0.06 12.75 C2 14 2 14 2.75 16.12 C2.79 16.43 2.79 16.43 3 18 C-4.38 17.51 -4.38 17.51 -7.5 14.94 C-7.75 14.62 -7.75 14.62 -9 13 C-9 14.98 -9 16.96 -9 19 C-3.25 20 -3.25 20 -1 20 C-1 21.65 -1 23.3 -1 25 C-1.66 25 -2.32 25 -3 25 C-3.33 25.66 -3.66 26.32 -4 27 C-5.07 26.69 -6.14 26.38 -7.25 26.06 C-9.83 25.33 -12.4 24.63 -15 24 C-14.67 21.36 -14.34 18.72 -14 16 C-15.32 16 -16.64 16 -18 16 C-18 15.01 -18 14.02 -18 13 C-16.35 12.67 -14.7 12.34 -13 12 C-13.66 12 -14.32 12 -15 12 C-15.33 10.35 -15.66 8.7 -16 7 C-13.39 6.07 -12.36 5.85 -9.75 6.94 C-9.17 7.29 -8.6 7.64 -8 8 C-8 7.01 -8 6.02 -8 5 C-7.34 5 -6.68 5 -6 5 C-6 4.34 -6 3.68 -6 3 C-5.34 3 -4.68 3 -4 3 C-4 3.66 -4 4.32 -4 5 C-3.34 5 -2.68 5 -2 5 C-1.86 4.36 -1.71 3.72 -1.56 3.06 C-1 1 -1 1 0 0 Z " fill="#7A715B" transform="translate(537,632)" id="p768" class="grass"/>
<path d="M0 0 C1.9 0.14 3.79 0.29 5.69 0.44 C6.74 0.52 7.8 0.6 8.89 0.68 C11.65 0.96 14.28 1.45 17 2 C19 2.04 21 2.05 23 2 C23.17 2.5 23.17 2.5 24 5 C25.41 6.39 25.41 6.39 27.06 7.69 C27.55 8.07 27.55 8.07 30 10 C29.67 10.66 29.34 11.32 29 12 C26.03 11.67 23.06 11.34 20 11 C20 9.35 20 7.7 20 6 C19.18 5.84 19.18 5.84 15 5 C15 5.99 15 6.98 15 8 C11.7 8 8.4 8 5 8 C4.67 9.65 4.34 11.3 4 13 C3.67 12.34 3.34 11.68 3 11 C1.35 11 -0.3 11 -2 11 C-2.33 11.99 -2.66 12.98 -3 14 C-3 12.35 -3 10.7 -3 9 C-4.32 9 -5.64 9 -7 9 C-7.33 10.32 -7.66 11.64 -8 13 C-8.66 12.67 -9.32 12.34 -10 12 C-10 11.01 -10 10.02 -10 9 C-11.32 8.34 -12.64 7.68 -14 7 C-13.34 7 -12.68 7 -12 7 C-12 6.34 -12 5.68 -12 5 C-4.38 3 -4.38 3 -1 3 C-0.67 2.01 -0.34 1.02 0 0 Z " fill="#9B8645" transform="translate(369,664)" id="p774" class="grass"/>
<path d="M0 0 C1.58 1 1.58 1 3.25 2.44 C6.85 5.22 9.42 5.47 14 5 C12.85 8.9 11.82 12.03 9 15 C5.62 15.82 2.41 15.68 -1 15 C-3.19 12.56 -3.19 12.56 -5 10 C-8 9.31 -8 9.31 -9.79 9.18 C-12.7 8.94 -15.55 8.43 -18.44 7.94 C-18.96 7.85 -18.96 7.85 -21.62 7.4 C-22.41 7.27 -23.19 7.14 -24 7 C-24 6.34 -24 5.68 -24 5 C-20.74 2.83 -18.05 2.95 -14.23 3.06 C-9.34 2.93 -4.61 1.54 0 0 Z " fill="#8D8272" transform="translate(720,679)" id="p779" class="grass"/>
<path d="M0 0 C1.65 0 3.3 0 5 0 C5.33 2.31 5.66 4.62 6 7 C7.32 6.34 8.64 5.68 10 5 C10.87 9.19 11.14 12.16 10 16.31 C9 20 9 20 10 22 C8.02 22.66 6.04 23.32 4 24 C4 25.32 4 26.64 4 28 C4.66 28 5.32 28 6 28 C5.34 31.3 4.68 34.6 4 38 C2.68 37.67 1.36 37.34 0 37 C-2.29 29.82 -1.83 23.6 -0.82 16.28 C-0.06 10.8 0.18 5.54 0 0 Z " fill="#766B5E" transform="translate(234,643)" id="p781" class="grass"/>
<path d="M0 0 C0 0.66 0 1.32 0 2 C0.84 1.99 1.69 1.98 2.55 1.96 C3.65 1.96 4.75 1.95 5.88 1.94 C6.97 1.93 8.06 1.91 9.18 1.9 C12 2 12 2 14 3 C16.56 3.19 19.12 3.32 21.69 3.43 C22.45 3.62 23.21 3.8 24 4 C24.66 5.32 25.32 6.64 26 8 C23.03 8 20.06 8 17 8 C17.99 9.98 18.98 11.96 20 14 C16.08 15.16 12.49 15.04 8.44 14.94 C6.12 15 4.21 15.34 2 16 C2.33 14.68 2.66 13.36 3 12 C1.68 12 0.36 12 -1 12 C-1.33 12 -1.66 12 -2 12 C-2 10.02 -2 8.04 -2 6 C-2.66 6 -3.32 6 -4 6 C-4.33 5.01 -4.66 4.02 -5 3 C-2.25 0 -2.25 0 0 0 Z " fill="#A69045" transform="translate(66,678)" id="p795" class="grass"/>
<path d="M0 0 C1.65 0.66 1.65 0.66 10 4 C10.66 3.01 11.32 2.02 12 1 C12.36 7.33 12.36 7.33 11 9.88 C7.8 11.67 4.64 11.7 1 12 C0.9 12.62 0.79 13.24 0.69 13.88 C0 16 0 16 -3 18 C-3.99 18 -4.98 18 -6 18 C-6.33 18.99 -6.66 19.98 -7 21 C-9.07 21.73 -9.07 21.73 -11.56 22.19 C-12.39 22.35 -13.22 22.5 -14.07 22.67 C-14.7 22.78 -15.34 22.89 -16 23 C-16 22.34 -16 21.68 -16 21 C-16.66 21.33 -17.32 21.66 -18 22 C-20.67 22.13 -23.32 22.04 -26 22 C-26 20.68 -26 19.36 -26 18 C-25.01 18 -24.02 18 -23 18 C-23 17.01 -23 16.02 -23 15 C-21.52 15.33 -21.52 15.33 -14 17 C-14 16.34 -14 15.68 -14 15 C-11.69 15 -9.38 15 -7 15 C-7 14.34 -7 13.68 -7 13 C-5.35 12.67 -3.7 12.34 -2 12 C-2.14 10.72 -2.29 9.44 -2.44 8.12 C-2.48 7.77 -2.48 7.77 -2.68 5.95 C-3 4 -3 4 -4 2 C-3.01 2 -2.02 2 -1 2 C-0.67 1.34 -0.34 0.68 0 0 Z " fill="#B09451" transform="translate(1188,608)" id="p802" class="dirt"/>
<path d="M0 0 C0.76 0.33 1.53 0.66 2.31 1 C5 2 5 2 8 2 C7.01 4.97 6.02 7.94 5 11 C6.32 11.66 7.64 12.32 9 13 C8.67 14.32 8.34 15.64 8 17 C12.75 19.88 12.75 19.88 15 21 C15 21.66 15 22.32 15 23 C14.01 23.33 13.02 23.66 12 24 C10.81 26.06 10.81 26.06 10 28 C9.66 27.49 9.66 27.49 7.94 24.94 C6.57 23.27 6.57 23.27 5 22 C1.51 22.06 -0.89 22.44 -4 24 C-3.69 23.4 -3.38 22.8 -3.06 22.19 C-2 20 -2 20 -1 17 C-5.88 19.75 -5.88 19.75 -7 22 C-7.66 21.67 -8.32 21.34 -9 21 C-8.83 20.38 -8.67 19.76 -8.5 19.12 C-8 17 -8 17 -8 15 C-9.5 13.38 -9.5 13.38 -11 12 C-10.23 11.77 -9.46 11.54 -8.66 11.3 C-7.66 10.97 -6.66 10.65 -5.62 10.31 C-4.63 10 -3.63 9.69 -2.6 9.36 C0 8 0 8 1.35 5.36 C1.57 4.58 1.78 3.8 2 3 C1.34 2.67 0.68 2.34 0 2 C0 1.34 0 0.68 0 0 Z " fill="#82763D" transform="translate(436,598)" id="p825" class="grass"/>
<path d="M0 0 C0 0.99 0 1.98 0 3 C-0.85 3.18 -1.71 3.36 -2.59 3.55 C-3.14 3.68 -3.14 3.68 -5.94 4.31 C-7.04 4.56 -8.14 4.8 -9.28 5.05 C-10.18 5.36 -11.07 5.68 -12 6 C-12.33 6.99 -12.66 7.98 -13 9 C-12.51 8.98 -12.51 8.98 -10.01 8.89 C-8.73 8.87 -7.45 8.84 -6.12 8.81 C-4.85 8.78 -3.57 8.74 -2.26 8.71 C-1.18 8.8 -0.11 8.9 1 9 C1.66 9.99 2.32 10.98 3 12 C-2.38 13.19 -7.45 14.29 -13 14 C-13 13.01 -13 12.02 -13 11 C-13.61 11.11 -14.23 11.21 -14.86 11.32 C-15.67 11.44 -16.48 11.56 -17.31 11.69 C-17.71 11.75 -17.71 11.75 -19.74 12.07 C-22.66 11.98 -22.99 11.01 -25 9 C-27.7 8.49 -27.7 8.49 -30.69 8.31 C-31.68 8.25 -32.68 8.18 -33.7 8.11 C-34.08 8.09 -34.08 8.09 -36 8 C-36.33 7.01 -36.66 6.02 -37 5 C-32.05 5 -27.1 5 -22 5 C-21.67 4.01 -21.34 3.02 -21 2 C-14.09 -1.16 -7.36 -1.32 0 0 Z " fill="#D2B488" transform="translate(1152,614)" id="p830" class="dirt"/>
<path d="M0 0 C0.66 0 1.32 0 2 0 C2.33 1.65 2.66 3.3 3 5 C3.33 4.34 3.66 3.68 4 3 C10.62 3.75 10.62 3.75 14 6 C14 6.99 14 7.98 14 9 C15.65 9 17.3 9 19 9 C19.66 7.68 20.32 6.36 21 5 C21.33 5 21.66 5 22 5 C21.67 7.64 21.34 10.28 21 13 C22.26 12.65 23.52 12.3 24.81 11.94 C27.95 11.06 28.78 10.93 32 12 C30.12 15.88 30.12 15.88 29 17 C26.81 17.07 24.62 17.08 22.44 17.06 C21.84 17.06 21.84 17.06 18.81 17.04 C17.88 17.02 16.95 17.01 16 17 C16 15 16 15 17.5 13.38 C18 12.92 18.49 12.47 19 12 C18.24 12 17.47 12 16.69 12 C14.79 12 12.9 12 11 12 C10.67 12.33 10.34 12.66 10 13 C7.81 13.07 5.62 13.08 3.44 13.06 C2.84 13.06 2.84 13.06 -0.19 13.04 C-1.12 13.02 -2.05 13.01 -3 13 C-2.79 11.89 -2.59 10.77 -2.38 9.62 C-2.25 8.43 -2.13 7.23 -2 6 C-2.66 5.34 -3.32 4.68 -4 4 C-4 3.01 -4 2.02 -4 1 C-2.68 1.33 -1.36 1.66 0 2 C0 1.34 0 0.68 0 0 Z " fill="#978A52" transform="translate(803,677)" id="p855" class="dirt"/>
<path d="M0 0 C0 0.99 0 1.98 0 3 C1.32 3.33 2.64 3.66 4 4 C2.43 6.56 1.64 7.83 -1.31 8.62 C-1.76 8.69 -1.76 8.69 -4 9 C-4.91 9.35 -5.82 9.7 -6.75 10.06 C-10.28 11.08 -13.13 11.1 -16.77 11 C-19 11 -19 11 -22.69 11.56 C-26.08 12.01 -28.68 11.73 -32 11 C-32 10.01 -32 9.02 -32 8 C-31.34 8 -30.68 8 -30 8 C-30 7.01 -30 6.02 -30 5 C-26.85 3.95 -24.61 3.9 -21.31 3.94 C-20.32 3.95 -19.32 3.96 -18.3 3.96 C-17.92 3.97 -17.92 3.97 -16 4 C-16 3.34 -16 2.68 -16 2 C-13.71 1.66 -11.42 1.33 -9.12 1 C-8.49 0.91 -8.49 0.91 -5.26 0.44 C-2 0 -2 0 0 0 Z " fill="#8F7A3F" transform="translate(1077,613)" id="p864" class="grass"/>
<path d="M0 0 C0.66 0.33 1.32 0.66 2 1 C2 1.33 2 1.66 2 2 C3.65 2 5.3 2 7 2 C6.67 2.99 6.34 3.98 6 5 C6.99 4.34 7.98 3.68 9 3 C9.99 3 10.98 3 12 3 C12.33 3.99 12.66 4.98 13 6 C16.56 7.19 16.56 7.19 20 8 C20 7.34 20 6.68 20 6 C21.65 5.67 23.3 5.34 25 5 C25.33 7.64 25.66 10.28 26 13 C24.87 12.9 23.73 12.79 22.56 12.69 C17.82 12.64 14.8 14.49 10.88 17 C10.26 17.33 9.64 17.66 9 18 C8.34 17.67 7.68 17.34 7 17 C7 16.01 7 15.02 7 14 C3.7 13.01 0.4 12.02 -3 11 C-2.45 7.05 -1.61 3.65 0 0 Z " fill="#7C7457" transform="translate(511,661)" id="p866" class="grass"/>
<path d="M0 0 C0.33 0.66 0.66 1.32 1 2 C2.65 2 4.3 2 6 2 C6.33 1.34 6.66 0.68 7 0 C7.66 0 8.32 0 9 0 C9.33 1.65 9.66 3.3 10 5 C12.31 5.33 14.62 5.66 17 6 C16.97 6.39 16.97 6.39 16.81 8.38 C16.87 9.24 16.94 10.11 17 11 C17.99 11.66 18.98 12.32 20 13 C19.65 16.24 19.44 17.62 16.94 19.81 C16.3 20.2 15.66 20.6 15 21 C15 19.68 15 18.36 15 17 C14.34 17 13.68 17 13 17 C12.67 17.99 12.34 18.98 12 20 C10.35 19.67 8.7 19.34 7 19 C6.84 17.35 6.84 17.35 6 9 C4.02 8.5 4.02 8.5 -6 6 C-6 5.34 -6 4.68 -6 4 C-7.65 3.67 -9.3 3.34 -11 3 C-7.47 0.88 -4.06 0.47 0 0 Z " fill="#8C7C3C" transform="translate(33,592)" id="p870" class="grass"/>
<path d="M0 0 C0.33 0.99 0.66 1.98 1 3 C0.34 3 -0.32 3 -1 3 C-0.89 3.66 -0.79 4.33 -0.68 5.01 C0.06 10.45 0.39 13.43 -3 18 C-3.69 20.81 -3.69 20.81 -4 23 C-3.34 23.33 -2.68 23.66 -2 24 C-2.75 26.94 -2.75 26.94 -4 30 C-7.3 31.71 -11.36 31.07 -15 31 C-15 31.66 -15 32.32 -15 33 C-17.64 33 -20.28 33 -23 33 C-23 32.01 -23 31.02 -23 30 C-19.67 27 -19.67 27 -17 27 C-17 27.66 -17 28.32 -17 29 C-15.35 29 -13.7 29 -12 29 C-12.02 28.35 -12.05 27.7 -12.07 27.02 C-12.27 17.43 -12.27 17.43 -10 13 C-7.38 11.12 -7.38 11.12 -5 10 C-5.33 7.69 -5.66 5.38 -6 3 C-4.02 2.67 -2.04 2.34 0 2 C0 1.34 0 0.68 0 0 Z " fill="#A59485" transform="translate(289,661)" id="p875" class="dirt"/>
<path d="M0 0 C1.32 0.33 2.64 0.66 4 1 C3.67 1.99 3.34 2.98 3 4 C5.97 4 8.94 4 12 4 C11.67 4.99 11.34 5.98 11 7 C10.68 7.02 10.68 7.02 9.07 7.15 C8.24 7.22 7.41 7.3 6.56 7.38 C5.74 7.44 4.92 7.51 4.07 7.59 C3.38 7.72 2.7 7.86 2 8 C1.67 8.66 1.34 9.32 1 10 C1.83 10.33 1.83 10.33 6 12 C6 12.99 6 13.98 6 15 C4.68 14.67 3.36 14.34 2 14 C2 13.34 2 12.68 2 12 C-1.63 12.99 -5.26 13.98 -9 15 C-9 15.66 -9 16.32 -9 17 C-7.68 17.33 -6.36 17.66 -5 18 C-8.12 19.6 -9.39 20.19 -12.81 19.12 C-13.53 18.75 -14.26 18.38 -15 18 C-15 17.01 -15 16.02 -15 15 C-15.33 15.99 -15.66 16.98 -16 18 C-17.22 17.79 -18.43 17.59 -19.69 17.38 C-23.35 16.9 -25.68 17.23 -29 19 C-29 18.34 -29 17.68 -29 17 C-28.01 16.67 -27.02 16.34 -26 16 C-26.33 14.68 -26.66 13.36 -27 12 C-25.74 12.23 -24.48 12.45 -23.19 12.69 C-18.16 13.28 -14.16 12.21 -9.38 10.69 C-7 10 -7 10 -4 10 C-4 10.66 -4 11.32 -4 12 C-3.34 11.34 -2.68 10.68 -2 10 C-2.33 9.01 -2.66 8.02 -3 7 C-3.76 7 -4.53 7 -5.31 7 C-9.7 7 -12.84 6.48 -17 5 C-16.67 4.34 -16.34 3.68 -16 3 C-10.72 3 -5.44 3 0 3 C0 2.01 0 1.02 0 0 Z " fill="#CBB98C" transform="translate(823,603)" id="p877" class="dirt"/>
<path d="M0 0 C0 0.99 0 1.98 0 3 C0.89 2.84 1.77 2.67 2.69 2.5 C5.54 2.07 8.13 1.92 11 2 C11.17 2.66 11.17 2.66 12 6 C12.99 6 13.98 6 15 6 C15 6.66 15 7.32 15 8 C9.96 9.51 5.12 8.65 0 8 C0 7.01 0 6.02 0 5 C-2.97 4.67 -5.94 4.34 -9 4 C-9 5.32 -9 6.64 -9 8 C-8.18 8.16 -8.18 8.16 -4 9 C-4 9.66 -4 10.32 -4 11 C-4.66 11 -5.32 11 -6 11 C-6 11.66 -6 12.32 -6 13 C-7.32 12.67 -8.64 12.34 -10 12 C-10 11.34 -10 10.68 -10 10 C-10.33 10.16 -10.33 10.16 -12 11 C-12 12.65 -12 14.3 -12 16 C-15.53 18.12 -18.94 18.53 -23 19 C-23.33 18.34 -23.66 17.68 -24 17 C-22.69 14.38 -22.69 14.38 -21 12 C-20.34 12 -19.68 12 -19 12 C-18.67 10.35 -18.34 8.7 -18 7 C-17.01 6.67 -16.02 6.34 -15 6 C-14.01 6.99 -13.02 7.98 -12 9 C-11.88 8.24 -11.75 7.47 -11.62 6.69 C-11 4 -11 4 -9 1 C-6.01 -0.13 -3.17 -0.09 0 0 Z " fill="#C8AF70" transform="translate(442,666)" id="p880" class="dirt"/>
<path d="M0 0 C3.3 0.66 6.6 1.32 10 2 C10 2.66 10 3.32 10 4 C10.39 3.97 10.39 3.97 12.38 3.81 C12.81 3.84 12.81 3.84 15 4 C15.33 4.5 15.33 4.5 17 7 C13.36 9.43 11.29 9.16 7 9 C7 9.99 7 10.98 7 12 C5.02 12 3.04 12 1 12 C1 12.99 1 13.98 1 15 C-1.64 15 -4.28 15 -7 15 C-7 13.68 -7 12.36 -7 11 C-8.65 11.33 -10.3 11.66 -12 12 C-12 10.35 -12 8.7 -12 7 C-9.47 5.69 -6.96 4.58 -4.31 3.5 C-1 2 -1 2 0 0 Z " fill="#897332" transform="translate(66,591)" id="p885" class="grass"/>
<path d="M0 0 C0.66 0.33 1.32 0.66 2 1 C3.54 1.22 5.08 1.41 6.62 1.56 C7.44 1.65 8.26 1.73 9.1 1.82 C9.73 1.88 10.35 1.94 11 2 C11 2.66 11 3.32 11 4 C4.73 6.72 -1.14 7.95 -8 8 C-8.66 7.67 -9.32 7.34 -10 7 C-10 7.66 -10 8.32 -10 9 C-13.63 8.34 -17.26 7.68 -21 7 C-20.67 6.01 -20.34 5.02 -20 4 C-20.66 4 -21.32 4 -22 4 C-22 4.99 -22 5.98 -22 7 C-27.42 8.23 -27.42 8.23 -30.38 7.06 C-30.91 6.71 -31.45 6.36 -32 6 C-32 5.34 -32 4.68 -32 4 C-28.53 2.84 -25.64 2.93 -22 3 C-21.67 2.01 -21.34 1.02 -21 0 C-20.08 0.01 -19.17 0.02 -18.23 0.04 C-17.04 0.04 -15.85 0.05 -14.62 0.06 C-13.44 0.07 -12.26 0.09 -11.04 0.1 C-1.07 -0.22 -1.07 -0.22 0 0 Z M-11 1 C-10.67 1.99 -10.34 2.98 -10 4 C-9.67 3.01 -9.34 2.02 -9 1 C-9.66 1 -10.32 1 -11 1 Z " fill="#9D8849" transform="translate(1031,653)" id="p888" class="grass"/>
<path d="M0 0 C0.99 0.66 1.98 1.32 3 2 C3.41 4.71 3.13 7.24 3 10 C3.99 10.33 4.98 10.66 6 11 C5.24 12.82 4.47 14.63 3.69 16.44 C3.26 17.45 2.83 18.46 2.39 19.5 C1 22 1 22 -2 23 C-2 23.66 -2 24.32 -2 25 C-1.34 25 -0.68 25 0 25 C0.08 27.46 0.14 29.92 0.19 32.38 C0.2 32.72 0.2 32.72 0.26 34.49 C0.29 36.52 0.29 36.52 0 40 C-0.99 40.66 -1.98 41.32 -3 42 C-6.96 36.06 -7.66 27.02 -7 20 C-6.22 16.91 -5.35 13.89 -4 11 C-3.34 10.67 -2.68 10.34 -2 10 C-1.71 7.98 -1.43 5.95 -1.25 3.91 C-1 2 -1 2 0 0 Z " fill="#9E8468" transform="translate(308,597)" id="p889" class="dirt"/>
<path d="M0 0 C0.66 0 1.32 0 2 0 C2 0.66 2 1.32 2 2 C3.32 2 4.64 2 6 2 C5.67 3.65 5.34 5.3 5 7 C8.41 7.78 11.51 8.1 15 8 C15 9.67 15 11.33 15 13 C12.03 13 9.06 13 6 13 C6.99 13.99 7.98 14.98 9 16 C9 16.99 9 17.98 9 19 C8.34 19 7.68 19 7 19 C7 20.65 7 22.3 7 24 C6.34 24 5.68 24 5 24 C4.83 23.61 4.83 23.61 4 21.62 C1.21 17.96 -1.51 17.95 -5.92 17.26 C-6.61 17.18 -7.29 17.09 -8 17 C-7.67 16.5 -7.67 16.5 -6 14 C-5.56 12.12 -5.19 10.22 -4.88 8.31 C-4.71 7.32 -4.54 6.32 -4.37 5.3 C-4.25 4.54 -4.12 3.78 -4 3 C-3.01 3.33 -2.02 3.66 -1 4 C-0.67 2.68 -0.34 1.36 0 0 Z " fill="#474D3D" transform="translate(444,633)" id="p896" class="grass"/>
<path d="M0 0 C2.47 1.15 4.05 2.05 6 4 C6.22 9.84 5.08 15 2 20 C1.67 20.33 1.34 20.66 1 21 C0.87 22.66 0.77 24.33 0.69 26 C0.24 31.54 -1.07 36.25 -4 41 C-4.33 41.16 -4.33 41.16 -6 42 C-6.33 39.36 -6.66 36.72 -7 34 C-7.33 34 -7.66 34 -8 34 C-8.33 31.36 -8.66 28.72 -9 26 C-8.34 26 -7.68 26 -7 26 C-6.67 24.68 -6.34 23.36 -6 22 C-5.34 22.66 -4.68 23.32 -4 24 C-3.67 22.02 -3.34 20.04 -3 18 C-2.34 18.33 -1.68 18.66 -1 19 C-0.01 15.37 0.98 11.74 2 8 C1.34 8.33 1.34 8.33 -2 10 C-5.25 8.62 -5.25 8.62 -8 7 C-7.67 6.01 -7.34 5.02 -7 4 C-5.02 4 -3.04 4 -1 4 C-0.67 2.68 -0.34 1.36 0 0 Z " fill="#AB9F8B" transform="translate(884,599)" id="p897" class="dirt"/>
<path d="M0 0 C0.33 0.99 0.66 1.98 1 3 C4.03 4.65 7.15 6.01 10.31 7.4 C13 9 13 9 13.93 10.96 C14.04 14.17 12.99 16.97 12 20 C11.34 20 10.68 20 10 20 C10 20.66 10 21.32 10 22 C9.34 22 8.68 22 8 22 C7.5 20.71 7 19.42 6.5 18.12 C6.22 17.41 5.94 16.69 5.66 15.95 C5 14 5 14 5 12 C3.68 12 2.36 12 1 12 C0.67 12.66 0.34 13.32 0 14 C-1.27 13.38 -2.54 12.75 -3.81 12.12 C-4.52 11.78 -5.23 11.43 -5.96 11.07 C-8 10 -8 10 -11 8 C-10.27 6.68 -9.51 5.37 -8.75 4.06 C-8.33 3.33 -7.91 2.6 -7.48 1.85 C-6 0 -6 0 -3.95 -0.82 C-2 -1 -2 -1 0 0 Z " fill="#B0995D" transform="translate(241,612)" id="p899" class="dirt"/>
<path d="M0 0 C0.33 0.66 0.66 1.32 1 2 C0.01 2.99 -0.98 3.98 -2 5 C-1.01 5.33 -0.02 5.66 1 6 C1 6.66 1 7.32 1 8 C-0.49 8.16 -0.49 8.16 -8 9 C-7.34 10.32 -6.68 11.64 -6 13 C-7.32 13.33 -8.64 13.66 -10 14 C-10 14.66 -10 15.32 -10 16 C-11.05 16.41 -12.1 16.83 -13.19 17.25 C-16.6 18.69 -19.11 20.68 -22 23 C-22.99 23 -23.98 23 -25 23 C-25 21.68 -25 20.36 -25 19 C-25.66 18.67 -26.32 18.34 -27 18 C-25.55 14.17 -23.64 12.78 -20 11 C-19.01 11 -18.02 11 -17 11 C-16.34 9.35 -15.68 7.7 -15 6 C-14.01 6 -13.02 6 -12 6 C-11.77 5.38 -11.55 4.76 -11.31 4.12 C-8.72 -0.07 -4.61 -0.26 0 0 Z " fill="#8B7E42" transform="translate(692,646)" id="p903" class="grass"/>
<path d="M0 0 C4.55 -0.37 4.55 -0.37 6.81 1.5 C7.01 1.75 7.01 1.75 8 3 C6.02 3.73 4.02 4.39 2 5 C1.34 4.67 0.68 4.34 0 4 C0 4.66 0 5.32 0 6 C0.6 6.1 1.2 6.21 1.81 6.31 C4.28 7.09 5.32 8.07 7 10 C6.2 10.25 5.39 10.5 4.56 10.75 C2 12 2 12 1.19 14.12 C1.16 14.43 1.16 14.43 1 16 C-2.31 16.69 -2.31 16.69 -6 17 C-7.94 15.56 -7.94 15.56 -9 14 C-6.54 10.18 -6.54 10.18 -3.81 9.25 C-3.51 9.21 -3.51 9.21 -2 9 C-1.67 7.68 -1.34 6.36 -1 5 C-7.29 5.41 -12.88 7.22 -18 11 C-19.68 13.72 -20.25 15.84 -21 19 C-22.65 19 -24.3 19 -26 19 C-25.83 18.58 -25.83 18.58 -25 16.44 C-23.94 12.79 -23.85 9.78 -24 6 C-20.85 4.42 -18.35 3.88 -14.88 3.94 C-11 4 -11 4 -8 3 C-5.66 3.28 -3.32 3.61 -1 4 C-0.67 2.68 -0.34 1.36 0 0 Z " fill="#998C6D" transform="translate(522,609)" id="p904" class="dirt"/>
<path d="M0 0 C0.43 0.47 0.87 0.95 1.31 1.44 C3 3 3 3 6 4 C6.91 6.48 7 8.34 7 11 C6.67 11.66 6.34 12.32 6 13 C7.32 13.66 8.64 14.32 10 15 C9.67 15.66 9.34 16.32 9 17 C0.09 17 -8.82 17 -18 17 C-12.92 11.92 -12.23 11.34 -6 10 C-5.46 6.94 -5 4.11 -5 1 C-3.68 1.33 -2.36 1.66 -1 2 C-0.67 1.34 -0.34 0.68 0 0 Z " fill="#8B804B" transform="translate(479,677)" id="p905" class="grass"/>
<path d="M0 0 C3.15 0.7 6.03 1.76 9 3 C9 3.66 9 4.32 9 5 C7.35 5 5.7 5 4 5 C3.34 7.31 2.68 9.62 2 12 C0.35 12.33 -1.3 12.66 -3 13 C-3 14.65 -3 16.3 -3 18 C-6.02 19.51 -8.67 19.18 -12 19 C-12.99 18.34 -13.98 17.68 -15 17 C-15.66 17.33 -16.32 17.66 -17 18 C-19.35 17.39 -21.69 16.73 -24 16 C-23.51 11.6 -22.17 9.98 -19 7 C-17.75 4.75 -17.75 4.75 -17 3 C-16.67 3 -16.34 3 -16 3 C-15.88 9.75 -15.88 9.75 -17 12 C-16.24 12 -15.47 12 -14.69 12 C-12.79 12 -10.9 12 -9 12 C-8.34 11.67 -7.68 11.34 -7 11 C-6.67 10.01 -6.34 9.02 -6 8 C-5.34 7.69 -4.68 7.38 -4 7.06 C-2 6 -2 6 -1.31 4 C-1.21 3.34 -1.11 2.68 -1 2 C-0.67 1.34 -0.34 0.68 0 0 Z " fill="#3D4538" transform="translate(449,576)" id="p918" class="grass"/>
<path d="M0 0 C0.79 0.11 1.58 0.22 2.39 0.33 C4.2 0.62 6.01 0.93 7.81 1.25 C10.79 1.71 13.62 1.76 16.62 1.69 C16.12 3.86 15.63 5.69 14.62 7.69 C0.1 7.69 -14.42 7.69 -29.38 7.69 C-29.7 6.37 -30.03 5.05 -30.38 3.69 C-29.77 3.8 -29.77 3.8 -26.69 4.38 C-19.95 5.15 -12.27 3.76 -6.26 0.56 C-3.91 -0.53 -2.54 -0.37 0 0 Z " fill="#BA9C45" transform="translate(125.375,686.3125)" id="p926" class="grass"/>
<path d="M0 0 C0.82 0.16 0.82 0.16 5 1 C5.33 2.32 5.66 3.64 6 5 C7.32 5.33 8.64 5.66 10 6 C10 7.32 10 8.64 10 10 C9.34 10 8.68 10 8 10 C8 10.99 8 11.98 8 13 C6.35 13 4.7 13 3 13 C2.67 11.35 2.34 9.7 2 8 C1.01 7.84 1.01 7.84 -4 7 C-4.33 7.99 -4.66 8.98 -5 10 C-5.99 10 -6.98 10 -8 10 C-8 10.99 -8 11.98 -8 13 C-8.66 13 -9.32 13 -10 13 C-10 12.01 -10 11.02 -10 10 C-10.99 10.33 -11.98 10.66 -13 11 C-14.39 11.07 -15.79 11.09 -17.19 11.06 C-17.82 11.05 -17.82 11.05 -21 11 C-21 11.66 -21 12.32 -21 13 C-21.82 12.67 -21.82 12.67 -26 11 C-26 10.34 -26 9.68 -26 9 C-25.34 9 -24.68 9 -24 9 C-24 7.68 -24 6.36 -24 5 C-23.34 5 -22.68 5 -22 5 C-22 4.34 -22 3.68 -22 3 C-20.02 3 -18.04 3 -16 3 C-15.67 3.99 -15.34 4.98 -15 6 C-12.94 6.69 -12.94 6.69 -11 7 C-11 6.01 -11 5.02 -11 4 C-10.29 3.88 -9.58 3.76 -8.85 3.63 C-7.93 3.47 -7.01 3.3 -6.06 3.12 C-5.15 2.96 -4.23 2.8 -3.29 2.63 C-2.53 2.42 -1.78 2.22 -1 2 C-0.67 1.34 -0.34 0.68 0 0 Z " fill="#CFB37A" transform="translate(418,658)" id="p937" class="dirt"/>
<path d="M0 0 C2.42 0.23 4.83 0.48 7.25 0.75 C7.93 0.81 8.61 0.87 9.32 0.94 C12.69 1.33 14.74 1.79 17.41 3.93 C20.82 8.38 22 13.45 22 19 C22.21 19.68 22.41 20.36 22.62 21.06 C22.75 21.7 22.87 22.34 23 23 C21 25 21 25 17.88 25.12 C17.4 25.1 17.4 25.1 15 25 C14.67 23.68 14.34 22.36 14 21 C14.66 20.67 15.32 20.34 16 20 C16.33 19.01 16.66 18.02 17 17 C16.31 17.02 15.63 17.05 14.92 17.07 C14.47 17.08 14.47 17.08 12.19 17.12 C11.29 17.15 10.4 17.17 9.48 17.2 C7 17 7 17 4 15 C6 13 6 13 8.5 12.19 C11 11 11 11 12.31 8.38 C12.54 7.59 12.77 6.81 13 6 C12.01 5.34 11.02 4.68 10 4 C9.67 4.33 9.34 4.66 9 5 C7.47 4.91 5.95 4.75 4.44 4.56 C4.02 4.51 4.02 4.51 1.93 4.25 C1.3 4.17 0.66 4.09 0 4 C0 2.68 0 1.36 0 0 Z " fill="#C2AF97" transform="translate(1062,590)" id="p938" class="dirt"/>
<path d="M0 0 C0.66 0 1.32 0 2 0 C1.67 5.28 1.34 10.56 1 16 C1.99 15.67 2.98 15.34 4 15 C4 15.99 4 16.98 4 18 C3.34 18 2.68 18 2 18 C0.91 22.58 0.68 27.13 0.44 31.81 C0.39 32.6 0.35 33.39 0.31 34.2 C0.2 36.13 0.1 38.07 0 40 C-0.33 40 -0.66 40 -1 40 C-1.33 36.04 -1.66 32.08 -2 28 C-4.31 27.34 -6.62 26.68 -9 26 C-9.63 17.29 -7.92 10.19 -5 2 C-4.01 2.66 -3.02 3.32 -2 4 C-1.34 2.68 -0.68 1.36 0 0 Z " fill="#9E846A" transform="translate(337,587)" id="p939" class="dirt"/>
<path d="M0 0 C0 0.66 0 1.32 0 2 C0.68 1.65 1.36 1.3 2.06 0.94 C5.71 -0.23 8.28 0.27 12 1 C11.67 1.99 11.34 2.98 11 4 C10.34 4 9.68 4 9 4 C9 6.31 9 8.62 9 11 C8.34 11 7.68 11 7 11 C7 10.34 7 9.68 7 9 C6.34 9 5.68 9 5 9 C5 10.32 5 11.64 5 13 C1.53 13.16 1.53 13.16 -16 14 C-16.33 13.34 -16.66 12.68 -17 12 C-13.77 9.85 -12.72 9.8 -9 10 C-8.88 9.55 -8.88 9.55 -8.25 7.25 C-6.55 2.83 -4.97 0 0 0 Z " fill="#6B6A4C" transform="translate(995,632)" id="p940" class="grass"/>
<path d="M0 0 C5.5 -0.18 10.54 0.47 15.94 1.5 C16.72 1.64 17.5 1.79 18.3 1.93 C20.2 2.28 22.1 2.64 24 3 C23.69 4.92 23.69 4.92 23 7 C19.94 8.25 19.94 8.25 17 9 C17 9.99 17 10.98 17 12 C10.38 12.12 10.38 12.12 7 11 C5.32 11.64 3.66 12.31 2 13 C0.68 13 -0.64 13 -2 13 C-1.34 8.71 -0.68 4.42 0 0 Z " fill="#8C7F4A" transform="translate(333,650)" id="p943" class="grass"/>
<path d="M0 0 C3.3 0 6.6 0 10 0 C10 0.33 10 0.66 10 1 C8.02 1.33 6.04 1.66 4 2 C4.57 4.87 4.86 5.86 7 8 C3.7 8.66 0.4 9.32 -3 10 C-2.34 11.32 -1.68 12.64 -1 14 C-2.18 15.98 -2.18 15.98 -4 18 C-6.48 18.39 -6.48 18.39 -9.19 18.25 C-10.09 18.21 -10.99 18.18 -11.92 18.14 C-12.61 18.09 -13.29 18.05 -14 18 C-14.66 16.68 -15.32 15.36 -16 14 C-15.01 13.34 -14.02 12.68 -13 12 C-13.72 11.86 -14.44 11.71 -15.19 11.56 C-16.94 11.21 -18.69 10.86 -20.44 10.5 C-23.28 9.94 -26.14 9.47 -29 9 C-29 8.34 -29 7.68 -29 7 C-23.24 5.79 -17.96 6.22 -12.11 6.74 C-8.72 7.02 -5.41 7.08 -2 7 C-2 6.01 -2 5.02 -2 4 C-1.01 3.67 -0.02 3.34 1 3 C0.67 2.01 0.34 1.02 0 0 Z " fill="#D4B27A" transform="translate(544,674)" id="p953" class="dirt"/>
<path d="M0 0 C1.51 5.69 0.94 10.47 -1 16 C-1.38 17.31 -1.76 18.62 -2.12 19.94 C-2.41 20.95 -2.7 21.96 -3 23 C-3.33 23 -3.66 23 -4 23 C-4 21.02 -4 19.04 -4 17 C-4.66 17.33 -5.32 17.66 -6 18 C-6.05 18.32 -6.05 18.32 -6.31 19.94 C-6.54 20.62 -6.77 21.3 -7 22 C-9.54 23.13 -9.54 23.13 -12 24 C-11.86 21.12 -11.71 18.25 -11.56 15.38 C-11.52 14.57 -11.48 13.76 -11.44 12.93 C-11.21 8.55 -10.83 4.31 -10 0 C-2.25 -1.12 -2.25 -1.12 0 0 Z " fill="#8B7C68" transform="translate(220,655)" id="p965" class="grass"/>
<path d="M0 0 C0.66 0 1.32 0 2 0 C2.33 0.99 2.66 1.98 3 3 C3.99 2.67 4.98 2.34 6 2 C6 2.66 6 3.32 6 4 C6.99 4 7.98 4 9 4 C9 5.98 9 7.96 9 10 C7.37 9.89 5.75 9.76 4.12 9.62 C3.22 9.56 2.32 9.49 1.38 9.41 C-1 9 -1 9 -3 7 C-3.07 7.46 -3.07 7.46 -3.44 9.81 C-4 13 -4 13 -5 16 C-8.44 18.29 -9.99 18.18 -14 18 C-13.48 18.93 -12.97 19.86 -12.44 20.81 C-11 24 -11 24 -12 27 C-12.66 27 -13.32 27 -14 27 C-14 26.34 -14 25.68 -14 25 C-14.99 24.67 -15.98 24.34 -17 24 C-17 21.03 -17 18.06 -17 15 C-15.68 14.67 -14.36 14.34 -13 14 C-12.67 13.01 -12.34 12.02 -12 11 C-12.66 10.67 -13.32 10.34 -14 10 C-13.01 9.67 -12.02 9.34 -11 9 C-10.34 9.33 -9.68 9.66 -9 10 C-9 8.68 -9 7.36 -9 6 C-9.99 5.67 -10.98 5.34 -12 5 C-12 4.67 -12 4.34 -12 4 C-11.39 3.96 -10.77 3.93 -10.14 3.89 C-9.73 3.85 -9.73 3.85 -7.69 3.69 C-6.89 3.63 -6.09 3.57 -5.26 3.51 C-2.61 2.91 -1.8 1.96 0 0 Z " fill="#8F8554" transform="translate(507,649)" id="p973" class="grass"/>
<path d="M0 0 C3.99 0.61 6.74 2.71 10 5 C9.67 5.99 9.34 6.98 9 8 C10.65 8 12.3 8 14 8 C13.67 8.66 13.34 9.32 13 10 C10.36 10 7.72 10 5 10 C5 10.99 5 11.98 5 13 C6.32 13 7.64 13 9 13 C9 13.66 9 14.32 9 15 C3.39 15 -2.22 15 -8 15 C-8 14.01 -8 13.02 -8 12 C-7.01 12 -6.02 12 -5 12 C-5.33 11.01 -5.66 10.02 -6 9 C-9.56 7.31 -9.56 7.31 -13 6 C-12.67 5.01 -12.34 4.02 -12 3 C-4.62 1.65 -4.62 1.65 -1.5 3.44 C-1.01 3.95 -0.51 4.47 0 5 C0 3.35 0 1.7 0 0 Z " fill="#AB9E73" transform="translate(1182,679)" id="p987" class="dirt"/>
<path d="M0 0 C0 6.93 0 13.86 0 21 C-1.65 21 -3.3 21 -5 21 C-5 18.03 -5 15.06 -5 12 C-5.66 12 -6.32 12 -7 12 C-7.66 14.64 -8.32 17.28 -9 20 C-9.66 20 -10.32 20 -11 20 C-11.04 19.31 -11.07 18.63 -11.11 17.92 C-11.18 17.02 -11.24 16.12 -11.31 15.19 C-11.37 14.29 -11.43 13.4 -11.49 12.48 C-12.06 9.69 -12.82 8.76 -15 7 C-14.56 4.69 -14.56 4.69 -13 2 C-8.4 -0.39 -5.07 -1.27 0 0 Z " fill="#B1996E" transform="translate(315,587)" id="p1016" class="dirt"/>
<path d="M0 0 C0.99 0 1.98 0 3 0 C3 2.31 3 4.62 3 7 C4.65 6.67 6.3 6.34 8 6 C8 6.99 8 7.98 8 9 C6.68 9 5.36 9 4 9 C4.66 11.31 5.32 13.62 6 16 C4.38 17.62 2.61 17.17 0.38 17.19 C-4.13 17.16 -7.76 16.48 -12 15 C-12 15.66 -12 16.32 -12 17 C-12.66 17 -13.32 17 -14 17 C-14.33 15.35 -14.66 13.7 -15 12 C-13.68 11.34 -12.36 10.68 -11 10 C-11 9.34 -11 8.68 -11 8 C-10.66 8.07 -10.66 8.07 -8.94 8.44 C-5.64 9.07 -2.33 9.54 1 10 C1 9.01 1 8.02 1 7 C0.34 7 -0.32 7 -1 7 C-0.67 4.69 -0.34 2.38 0 0 Z M-19 10 C-17.68 11.32 -16.36 12.64 -15 14 C-16 15 -16 15 -18.5 15.1 C-19.01 15.09 -19.01 15.09 -21.56 15.06 C-22.57 15.05 -23.59 15.04 -24.63 15.04 C-25.41 15.02 -26.19 15.01 -27 15 C-24.34 12.02 -24.34 12.02 -21.31 11.81 C-20.55 11.87 -19.79 11.94 -19 12 C-19 11.34 -19 10.68 -19 10 Z " fill="#A1904B" transform="translate(687,573)" id="p1020" class="grass"/>
<path d="M0 0 C2.75 2 2.75 2 5 4 C5.99 4.33 6.98 4.66 8 5 C8.04 5.6 8.04 5.6 8.25 8.62 C8.76 12.91 10.43 15.52 13 19 C13 19.66 13 20.32 13 21 C10.69 21.66 8.38 22.32 6 23 C6.33 20.36 6.66 17.72 7 15 C3.49 16.64 0.54 18.03 -2 21 C-2.99 20.67 -3.98 20.34 -5 20 C-4.67 19.34 -4.34 18.68 -4 18 C-3.78 16.46 -3.59 14.92 -3.44 13.38 C-3.35 12.56 -3.27 11.74 -3.18 10.9 C-3.12 10.27 -3.06 9.65 -3 9 C-1.68 9 -0.36 9 1 9 C1.33 7.35 1.66 5.7 2 4 C0.52 4.16 0.52 4.16 -7 5 C-7 4.01 -7 3.02 -7 2 C-7.66 2 -8.32 2 -9 2 C-9 1.34 -9 0.68 -9 0 C-5.81 -1.59 -3.41 -0.75 0 0 Z " fill="#918143" transform="translate(1177,539)" id="p1021" class="grass"/>
<path d="M0 0 C10.25 -0.22 19.9 0.03 30 2 C30 2.99 30 3.98 30 5 C32.97 5 35.94 5 39 5 C39 5.99 39 6.98 39 8 C32.85 9.63 27.36 10.2 21 10 C21 9.34 21 8.68 21 8 C18.03 8 15.06 8 12 8 C12.33 6.35 12.66 4.7 13 3 C12.23 3.01 11.46 3.02 10.66 3.04 C10.16 3.04 10.16 3.04 7.62 3.06 C6.63 3.07 5.63 3.09 4.6 3.1 C2 3 2 3 0 2 C0 1.34 0 0.68 0 0 Z " fill="#DCB578" transform="translate(1135,630)" id="p1026" class="dirt"/>
<path d="M0 0 C0.99 0 1.98 0 3 0 C2.67 1.32 2.34 2.64 2 4 C3.65 4 5.3 4 7 4 C8.46 6.65 9 7.89 9 11 C9.99 10.67 10.98 10.34 12 10 C13.12 13.75 13.12 13.75 12 16 C14.31 16 16.62 16 19 16 C19 17.32 19 18.64 19 20 C17.35 19.67 15.7 19.34 14 19 C14 18.34 14 17.68 14 17 C13.34 17.22 12.67 17.43 11.99 17.65 C8 18.12 4.88 16.91 1.19 15.56 C0.49 15.32 -0.2 15.08 -0.91 14.83 C-2.61 14.23 -4.31 13.62 -6 13 C-6 12.01 -6 11.02 -6 10 C-5.34 10 -4.68 10 -4 10 C-3.67 7.36 -3.34 4.72 -3 2 C-2.01 2 -1.02 2 0 2 C0 1.34 0 0.68 0 0 Z " fill="#93834D" transform="translate(513,554)" id="p1031" class="grass"/>
<path d="M0 0 C3.69 0.88 3.69 0.88 7 2 C7 3.32 7 4.64 7 6 C8.11 5.65 9.23 5.3 10.38 4.94 C14 4 14 4 16 5 C16 5.66 16 6.32 16 7 C18.31 7 20.62 7 23 7 C23 7.33 23 7.66 23 8 C20.03 8.66 17.06 9.32 14 10 C14 10.66 14 11.32 14 12 C15.65 12 17.3 12 19 12 C19 12.33 19 12.66 19 13 C11.57 13.14 11.57 13.14 8 12 C8 11.34 8 10.68 8 10 C6.06 10.31 6.06 10.31 4 11 C3.67 11.99 3.34 12.98 3 14 C0.12 13.81 0.12 13.81 -3 13 C-4.25 10.56 -4.25 10.56 -5 8 C-5.66 7.34 -6.32 6.68 -7 6 C-6.34 6 -5.68 6 -5 6 C-4.73 5.38 -4.46 4.76 -4.19 4.12 C-3 2 -3 2 0 0 Z " fill="#BBA357" transform="translate(58,668)" id="p1043" class="dirt"/>
<path d="M0 0 C1.6 0.71 3.21 1.42 4.81 2.12 C6.21 2.75 7.6 3.37 9 4 C9 5.65 9 7.3 9 9 C6.04 8.39 4.62 7.75 2 6 C0.34 5.62 -1.32 5.27 -3 5 C-2.5 5.41 -2.01 5.83 -1.5 6.25 C0 8 0 8 0 12 C-1.65 12 -3.3 12 -5 12 C-5 10.02 -5 8.04 -5 6 C-5.99 6 -6.98 6 -8 6 C-8.33 5.34 -8.66 4.68 -9 4 C-9.99 4 -10.98 4 -12 4 C-12.33 4.99 -12.66 5.98 -13 7 C-15.07 7.95 -15.07 7.95 -17.56 8.69 C-17.98 8.81 -17.98 8.81 -20.07 9.45 C-20.7 9.63 -21.34 9.81 -22 10 C-21.67 8.68 -21.34 7.36 -21 6 C-21.66 6 -22.32 6 -23 6 C-23 5.34 -23 4.68 -23 4 C-20.36 4 -17.72 4 -15 4 C-15.66 2.35 -16.32 0.7 -17 -1 C-11.21 -2.93 -5.42 -2.64 0 0 Z " fill="#D7B77A" transform="translate(200,604)" id="p1044" class="dirt"/>
<path d="M0 0 C1 1 2 2 3 3 C5.48 3.73 5.48 3.73 8.19 4.19 C9.09 4.35 9.99 4.5 10.92 4.67 C11.61 4.78 12.29 4.89 13 5 C13 5.66 13 6.32 13 7 C12.34 7 11.68 7 11 7 C10.67 7.66 10.34 8.32 10 9 C7.03 8.01 4.06 7.02 1 6 C1 6.78 1 7.57 1 8.38 C1 9.92 1 11.46 1 13 C1.99 13.66 2.98 14.32 4 15 C3 18 3 18 1 20 C-2.62 20.12 -2.62 20.12 -6 20 C-6 19.34 -6 18.68 -6 18 C-5.01 18 -4.02 18 -3 18 C-3.66 15.36 -4.32 12.72 -5 10 C-5.99 10 -6.98 10 -8 10 C-8 10.66 -8 11.32 -8 12 C-8.66 12 -9.32 12 -10 12 C-10 9.03 -10 6.06 -10 3 C-11.32 2.67 -12.64 2.34 -14 2 C-12.42 1.66 -10.83 1.33 -9.25 1 C-8.37 0.81 -7.49 0.63 -6.58 0.44 C-4 0 -4 0 0 0 Z " fill="#AE9769" transform="translate(232,530)" id="p1045" class="dirt"/>
<path d="M0 0 C3.3 0 6.6 0 10 0 C10.33 0.66 10.66 1.32 11 2 C11.99 2.33 12.98 2.66 14 3 C14 3.66 14 4.32 14 5 C14.63 5.05 15.25 5.1 15.9 5.15 C16.72 5.22 17.53 5.3 18.38 5.38 C18.78 5.41 18.78 5.41 20.84 5.59 C23 6 23 6 25 8 C24.05 8.29 23.1 8.58 22.12 8.88 C19 10 19 10 17 12 C14.84 12.2 14.84 12.2 12.38 12.12 C11.56 12.11 10.74 12.09 9.9 12.07 C9.27 12.05 8.65 12.02 8 12 C7.34 10.68 6.68 9.36 6 8 C0.72 8 -4.56 8 -10 8 C-10 7.01 -10 6.02 -10 5 C-8.91 4.86 -7.81 4.71 -6.69 4.56 C-3 4 -3 4 0 3 C0 2.01 0 1.02 0 0 Z M21 9 C23 10 23 10 23 10 Z " fill="#C6AF7A" transform="translate(668,670)" id="p1056" class="dirt"/>
<path d="M0 0 C0 0.99 0 1.98 0 3 C0.56 2.67 1.11 2.34 1.69 2 C4.3 0.87 6.18 0.84 9 1 C8.38 1.25 7.76 1.5 7.12 1.75 C4.65 3.21 4.05 4.38 3 7 C2.34 6.34 1.68 5.68 1 5 C0.01 5.66 -0.98 6.32 -2 7 C-2.66 6.67 -3.32 6.34 -4 6 C-4 5.34 -4 4.68 -4 4 C-4.45 4.08 -4.45 4.08 -6.75 4.5 C-10 5 -10 5 -14 5 C-14 5.99 -14 6.98 -14 8 C-12.68 8 -11.36 8 -10 8 C-10.33 9.32 -10.66 10.64 -11 12 C-11.64 11.69 -12.28 11.38 -12.94 11.06 C-16.92 9.68 -20.82 9.35 -25 9 C-25 8.01 -25 7.02 -25 6 C-28.63 5.67 -32.26 5.34 -36 5 C-36 4.01 -36 3.02 -36 2 C-32.16 1.1 -28.62 0.89 -24.69 0.94 C-24.15 0.94 -24.15 0.94 -21.45 0.96 C-20.64 0.98 -19.83 0.99 -19 1 C-18.67 1.66 -18.34 2.32 -18 3 C-19.32 3.33 -20.64 3.66 -22 4 C-17.66 4.53 -15.65 3.15 -12.05 0.89 C-8.21 -0.78 -4.1 -0.3 0 0 Z " fill="#8E7E43" transform="translate(1037,665)" id="p1057" class="grass"/>
</svg>