<svg version="1.1" xmlns="http://www.w3.org/2000/svg" width="600" height="347"><rect width="600" height="347" fill="white"/><g id="obj_00_scene__road_03" class="obj_00_scene__road_03" data-label="road_03">
      <path d="M0 0 C0.16 0.33 0.16 0.33 1 2 C1.54 1.92 1.54 1.92 4.25 1.5 C8 1 8 1 12 1 C11.69 3.37 11.69 3.37 11 6 C10.01 6.66 9.02 7.32 8 8 C8.99 8.33 9.98 8.66 11 9 C11.69 11.06 11.69 11.06 12 13 C13.65 13.33 15.3 13.66 17 14 C17 14.66 17 15.32 17 16 C18.65 16.33 20.3 16.66 22 17 C21.67 19.31 21.34 21.62 21 24 C22.65 24.66 24.3 25.32 26 26 C26 26.33 26 26.66 26 27 C24.02 27 22.04 27 20 27 C20.16 27.5 20.16 27.5 21 30 C22.99 30.7 24.99 31.37 27 32 C27.33 32.66 27.66 33.32 28 34 C30.56 34.62 30.56 34.62 33 35 C33 34.34 33 33.68 33 33 C34.65 33.33 36.3 33.66 38 34 C37.84 34.33 37.84 34.33 37 36 C34.03 36 31.06 36 28 36 C27.67 37.32 27.34 38.64 27 40 C26.34 40 25.68 40 25 40 C25.16 40.66 25.16 40.66 26 44 C23.03 44 20.06 44 17 44 C17 44.66 17 45.32 17 46 C16.34 45.84 16.34 45.84 13 45 C13 45.99 13 46.98 13 48 C12.01 48 11.02 48 10 48 C10 48.66 10 49.32 10 50 C9.01 50 8.02 50 7 50 C7.99 53.63 8.98 57.26 10 61 C10 58.36 10 55.72 10 53 C11.32 52.67 12.64 52.34 14 52 C13.84 52.33 13.84 52.33 13 54 C12.93 55.54 12.92 57.08 12.94 58.62 C12.95 59.44 12.96 60.26 12.96 61.1 C12.98 61.73 12.99 62.35 13 63 C12.67 63 12.34 63 12 63 C12 64.65 12 66.3 12 68 C12.33 67.5 12.33 67.5 14 65 C14.66 65.66 15.32 66.32 16 67 C15.67 63.37 15.34 59.74 15 56 C17.31 55.34 19.62 54.68 22 54 C21.67 53.34 21.34 52.68 21 52 C22.65 52 24.3 52 26 52 C26.33 52.99 26.66 53.98 27 55 C26.67 55.16 26.67 55.16 25 56 C25 60.29 25 64.58 25 69 C25.66 69 26.32 69 27 69 C27.33 69.99 27.66 70.98 28 72 C28.5 72.16 28.5 72.16 31 73 C31 71.35 31 69.7 31 68 C33.97 68.99 36.94 69.98 40 71 C40.16 70.34 40.16 70.34 41 67 C41.66 67.33 42.32 67.66 43 68 C43.33 65.69 43.66 63.38 44 61 C44.33 61.66 44.33 61.66 46 65 C45.34 65 44.68 65 44 65 C44.33 65.99 44.66 66.98 45 68 C44.67 68.33 44.34 68.66 44 69 C44.5 69.16 44.5 69.16 47 70 C47 69.34 47 68.68 47 68 C47.66 68 48.32 68 49 68 C49 65.03 49 62.06 49 59 C50.65 58.67 52.3 58.34 54 58 C54 57.67 54 57.34 54 57 C57.3 57 60.6 57 64 57 C63.67 57.99 63.34 58.98 63 60 C59.44 61.19 59.44 61.19 56 62 C56.06 62.95 56.12 63.9 56.19 64.88 C56.16 65.39 56.16 65.39 56 68 C49.62 72.25 49.62 72.25 45 72 C44.9 72.78 44.79 73.57 44.69 74.38 C44 77 44 77 41 79 C37 77.67 33 76.33 29 75 C29 75.66 29 76.32 29 77 C29.66 77 30.32 77 31 77 C31 77.66 31 78.32 31 79 C31.66 79 32.32 79 33 79 C33 79.66 33 80.32 33 81 C33.99 81 34.98 81 36 81 C36 81.99 36 82.98 36 84 C35.34 84 34.68 84 34 84 C33.84 84.5 33.84 84.5 33 87 C32.5 87.16 32.5 87.16 30 88 C30 88.66 30 89.32 30 90 C31.65 90.33 33.3 90.66 35 91 C34.67 91.16 34.67 91.16 33 92 C33 92.99 33 93.98 33 95 C30.69 94.84 30.69 94.84 19 94 C19 93.34 19 92.68 19 92 C17.68 92.33 17.68 92.33 11 94 C9.67 103.41 9.67 103.41 11 108 C10.34 108 9.68 108 9 108 C9 108.99 9 109.98 9 111 C9.74 110.79 10.49 110.59 11.25 110.38 C14 110 14 110 16.25 110.5 C18 112 18 112 18.75 115.62 C18.83 116.74 18.92 117.85 19 119 C19.66 118.67 20.32 118.34 21 118 C22.54 117.93 24.08 117.92 25.62 117.94 C26.44 117.95 27.26 117.96 28.1 117.96 C28.73 117.98 29.35 117.99 30 118 C30 118.66 30 119.32 30 120 C26.49 121.6 23.86 122.22 20 122 C20.33 123.65 20.66 125.3 21 127 C20.67 126.34 20.34 125.68 20 125 C19.34 125 18.68 125 18 125 C18.33 125.99 18.66 126.98 19 128 C18.01 128.33 17.02 128.66 16 129 C16 128.34 16 127.68 16 127 C15.67 127.16 15.67 127.16 14 128 C12.4 128.1 10.79 128.18 9.19 128.25 C5.55 128.56 3.46 128.92 0.88 131.56 C0.26 132.37 -0.36 133.17 -1 134 C1.97 134.33 4.94 134.66 8 135 C8 134.34 8 133.68 8 133 C8.99 133 9.98 133 11 133 C10.67 132.01 10.34 131.02 10 130 C12.64 130.33 15.28 130.66 18 131 C18.33 130.34 18.66 129.68 19 129 C19.99 129 20.98 129 22 129 C22 129.66 22 130.32 22 131 C22.99 130.34 23.98 129.68 25 129 C27.04 128.8 27.04 128.8 29.19 128.88 C30.45 128.92 31.7 128.96 33 129 C33.33 130.32 33.66 131.64 34 133 C26.74 133 19.48 133 12 133 C12 133.66 12 134.32 12 135 C11.34 135.33 10.68 135.66 10 136 C12.97 136.33 15.94 136.66 19 137 C19 136.67 19 136.34 19 136 C20.94 136.11 22.88 136.24 24.81 136.38 C25.89 136.44 26.97 136.51 28.08 136.59 C31 137 31 137 34 139 C34 138.01 34 137.02 34 136 C33.34 135.67 32.68 135.34 32 135 C33.65 135 35.3 135 37 135 C36.34 133.02 35.68 131.04 35 129 C35.66 129 36.32 129 37 129 C37 127.68 37 126.36 37 125 C35.02 125 33.04 125 31 125 C31.16 124.34 31.16 124.34 32 121 C33.98 121 35.96 121 38 121 C38.33 121.66 38.66 122.32 39 123 C39.5 123.16 39.5 123.16 42 124 C41.67 123.01 41.34 122.02 41 121 C41.66 120.34 42.32 119.68 43 119 C43.24 119.53 43.48 120.06 43.73 120.61 C45.69 124.74 47.47 127.97 51 131 C50.34 131.33 49.68 131.66 49 132 C49.66 132.33 50.32 132.66 51 133 C51 133.66 51 134.32 51 135 C49.68 135 48.36 135 47 135 C47.33 136.98 47.66 138.96 48 141 C46.68 141.33 45.36 141.66 44 142 C44 141.34 44 140.68 44 140 C44.66 140 45.32 140 46 140 C46 139.01 46 138.02 46 137 C44.52 137.45 43.04 137.91 41.56 138.38 C40.74 138.63 39.92 138.89 39.07 139.15 C37 140 37 140 36 142 C36.66 142 37.32 142 38 142 C38 142.66 38 143.32 38 144 C37.34 144.33 36.68 144.66 36 145 C36.33 145.99 36.66 146.98 37 148 C37.66 148 38.32 148 39 148 C39 147.34 39 146.68 39 146 C40.65 145.67 42.3 145.34 44 145 C44 145.66 44 146.32 44 147 C43.01 147.33 42.02 147.66 41 148 C40.85 148.4 40.85 148.4 40.06 150.44 C39 153 39 153 37.31 154.13 C33.56 155.54 29.75 155.46 25.78 155.66 C23 156 23 156 20 158 C20.33 158.99 20.66 159.98 21 161 C21.99 160.34 22.98 159.68 24 159 C25.33 159.33 26.67 159.67 28 160 C30.34 159.73 32.68 159.4 35 159 C34.67 159.99 34.34 160.98 34 162 C30.69 163.12 30.69 163.12 27 164 C26.36 164.21 25.72 164.41 25.06 164.62 C21.71 165.23 18.4 165.06 15 165 C15 165.66 15 166.32 15 167 C15.99 167.33 16.98 167.66 18 168 C17.67 168.99 17.34 169.98 17 171 C16.34 171 15.68 171 15 171 C15.17 171.93 15.33 172.86 15.5 173.81 C16 177 16 177 16 180 C15.01 180 14.02 180 13 180 C13 180.66 13 181.32 13 182 C10.69 181.67 8.38 181.34 6 181 C5.67 180.01 5.34 179.02 5 178 C3.68 178.33 2.36 178.66 1 179 C0.67 178.01 0.34 177.02 0 176 C-0.66 176 -1.32 176 -2 176 C-2.66 178.64 -3.32 181.28 -4 184 C-7.3 184.33 -10.6 184.66 -14 185 C-14 185.66 -14 186.32 -14 187 C-14.66 187 -15.32 187 -16 187 C-15.34 188.65 -14.68 190.3 -14 192 C-10.7 192.33 -7.4 192.66 -4 193 C-3.67 194.32 -3.34 195.64 -3 197 C2.75 197.12 2.75 197.12 5 196 C5 195.34 5 194.68 5 194 C14.41 192.48 14.41 192.48 19 195 C19 194.34 19 193.68 19 193 C20.24 192.77 21.48 192.55 22.75 192.31 C26.92 191.3 28.68 189.68 31 186 C32.32 186.33 33.64 186.66 35 187 C35 187.66 35 188.32 35 189 C40.41 189.77 45.54 190.1 51 190 C50.67 190.99 50.34 191.98 50 193 C47.77 193.08 45.54 193.14 43.31 193.19 C42.07 193.22 40.83 193.26 39.55 193.29 C35.81 192.98 33.99 192.18 31 190 C31.16 190.82 31.16 190.82 32 195 C32.66 194.34 33.32 193.68 34 193 C34.43 193.5 34.87 193.99 35.31 194.5 C37 196 37 196 40 196 C39.67 196.99 39.34 197.98 39 199 C35.7 198.67 32.4 198.34 29 198 C28.67 197.01 28.34 196.02 28 195 C26.51 195.33 26.51 195.33 19 197 C19 197.33 19 197.66 19 198 C23.29 198.99 27.58 199.98 32 201 C32 201.66 32 202.32 32 203 C31.37 202.97 31.37 202.97 28.2 202.82 C26.55 202.78 24.9 202.73 23.25 202.69 C22.43 202.65 21.6 202.6 20.75 202.56 C18.4 202.51 16.31 202.53 14 203 C11.42 205.52 11.42 205.52 10 208 C10.76 207.67 11.53 207.34 12.31 207 C15 206 15 206 18 206 C18.33 206.66 18.66 207.32 19 208 C19.99 208.33 20.98 208.66 22 209 C22 208.34 22 207.68 22 207 C21.34 206.67 20.68 206.34 20 206 C25.66 204.44 28.8 205.76 34 208 C34 208.66 34 209.32 34 210 C32.68 210 31.36 210 30 210 C30 210.66 30 211.32 30 212 C28.8 211.81 27.61 211.63 26.38 211.44 C22.7 210.97 19.64 211.24 16 212 C15.01 212 14.02 212 13 212 C13 213.32 13 214.64 13 216 C14.65 216 16.3 216 18 216 C18 216.66 18 217.32 18 218 C15.03 219.64 12.4 220.42 9.06 221 C5.5 221.66 2.3 222.46 -1 224 C-0.81 224.76 -0.63 225.53 -0.44 226.31 C0 229 0 229 -1 232 C0.32 232 1.64 232 3 232 C3 231.01 3 230.02 3 229 C9.4 225.92 9.4 225.92 12.44 226.31 C12.7 226.43 12.7 226.43 14 227 C14 227.99 14 228.98 14 230 C14.74 230.08 15.49 230.16 16.25 230.25 C19.51 231.14 20.81 232.49 23 235 C22.67 235.66 22.34 236.32 22 237 C20.35 237 18.7 237 17 237 C16.67 237.99 16.34 238.98 16 240 C15.38 239.79 14.76 239.59 14.12 239.38 C13.77 239.31 13.77 239.31 12 239 C11.34 239.66 10.68 240.32 10 241 C10.66 241.33 11.32 241.66 12 242 C11.67 242.66 11.34 243.32 11 244 C9.68 243.67 8.36 243.34 7 243 C7 243.66 7 244.32 7 245 C7.66 244.92 8.33 244.83 9.01 244.75 C17.78 243.73 17.78 243.73 22 245 C22 245.99 22 246.98 22 248 C20.35 248 18.7 248 17 248 C17 248.66 17 249.32 17 250 C12.71 250 8.42 250 4 250 C4.66 249.67 5.32 249.34 6 249 C6 248.34 6 247.68 6 247 C5.01 247 4.02 247 3 247 C3 246.34 3 245.68 3 245 C1.35 244.67 -0.3 244.34 -2 244 C-1.67 244.66 -1.34 245.32 -1 246 C-0.01 246.33 0.98 246.66 2 247 C2 247.66 2 248.32 2 249 C-0.96 248.39 -2.38 247.75 -5 246 C-7.92 245.59 -7.92 245.59 -11.19 245.38 C-11.73 245.34 -11.73 245.34 -14.48 245.15 C-14.9 245.12 -14.9 245.12 -17 245 C-16.67 244.01 -16.34 243.02 -16 242 C-15.67 242.33 -15.34 242.66 -15 243 C-14.67 242.34 -14.34 241.68 -14 241 C-12.02 241 -10.04 241 -8 241 C-8 240.34 -8 239.68 -8 239 C-9.65 239 -11.3 239 -13 239 C-12.67 238.01 -12.34 237.02 -12 236 C-13.32 235.67 -14.64 235.34 -16 235 C-16.33 235.66 -16.66 236.32 -17 237 C-19.62 237.38 -19.62 237.38 -22.88 237.56 C-26.2 237.76 -28.83 237.94 -32 239 C-31.01 239.33 -30.02 239.66 -29 240 C-29 240.66 -29 241.32 -29 242 C-30.32 242.33 -31.64 242.66 -33 243 C-32.67 243.66 -32.34 244.32 -32 245 C-32.66 245.66 -33.32 246.32 -34 247 C-34.66 246.67 -35.32 246.34 -36 246 C-36.33 246.66 -36.66 247.32 -37 248 C-39.97 248 -42.94 248 -46 248 C-46.16 247.67 -46.16 247.67 -47 246 C-49.56 245.38 -49.56 245.38 -52 245 C-52 244.34 -52 243.68 -52 243 C-52.47 242.95 -52.47 242.95 -54.88 242.69 C-58 242 -58 242 -60 239 C-59.34 238.01 -58.68 237.02 -58 236 C-58.66 235.67 -59.32 235.34 -60 235 C-60 234.34 -60 233.68 -60 233 C-61.98 232.67 -63.96 232.34 -66 232 C-66 231.34 -66 230.68 -66 230 C-64.35 230.33 -62.7 230.66 -61 231 C-62 228 -62 228 -64 226 C-62.02 225.67 -60.04 225.34 -58 225 C-58 223.35 -58 221.7 -58 220 C-56.68 220.33 -55.36 220.66 -54 221 C-54 219.35 -54 217.7 -54 216 C-54.66 216 -55.32 216 -56 216 C-56 215.34 -56 214.68 -56 214 C-53.69 213.67 -51.38 213.34 -49 213 C-49 212.34 -49 211.68 -49 211 C-49.66 211 -50.32 211 -51 211 C-51 210.34 -51 209.68 -51 209 C-51.66 209 -52.32 209 -53 209 C-54.12 205.25 -54.12 205.25 -53 203 C-52.34 203 -51.68 203 -51 203 C-50.84 202.34 -50.84 202.34 -50 199 C-48.02 199.33 -46.04 199.66 -44 200 C-43.67 199.34 -43.34 198.68 -43 198 C-43.66 198 -44.32 198 -45 198 C-45 197.34 -45 196.68 -45 196 C-45.99 195.67 -46.98 195.34 -48 195 C-47.67 193.68 -47.34 192.36 -47 191 C-46.24 191.16 -45.47 191.33 -44.69 191.5 C-42 192 -42 192 -39 192 C-40.29 189.12 -41.66 187.13 -44 185 C-42.68 185 -41.36 185 -40 185 C-40 184.34 -40 183.68 -40 183 C-39.34 183 -38.68 183 -38 183 C-38.33 181.02 -38.66 179.04 -39 177 C-38.34 177 -37.68 177 -37 177 C-36.34 174.03 -35.68 171.06 -35 168 C-32.43 170.57 -32.46 172.48 -32 176 C-31.34 176 -30.68 176 -30 176 C-30 179 -30 182 -30 185 C-29.34 185 -28.68 185 -28 185 C-28.06 183.72 -28.12 182.44 -28.19 181.12 C-28.29 178.95 -28.29 178.95 -28 177 C-25 175 -25 175 -22 175 C-22 174.34 -22 173.68 -22 173 C-20.02 173 -18.04 173 -16 173 C-16.26 167.36 -16.53 161.72 -16.8 156.07 C-16.89 154.16 -16.98 152.24 -17.07 150.32 C-17.2 147.56 -17.33 144.8 -17.46 142.04 C-17.48 141.61 -17.48 141.61 -17.58 139.44 C-17.62 138.64 -17.66 137.84 -17.7 137.01 C-17.74 136.31 -17.77 135.6 -17.8 134.88 C-18 133 -18 133 -19 130 C-18.34 129.01 -17.68 128.02 -17 127 C-16.34 127 -15.68 127 -15 127 C-15.33 126.34 -15.66 125.68 -16 125 C-19.29 125.57 -20.97 126.32 -23 129 C-23.52 131.91 -23.52 131.91 -23.73 135.42 C-23.81 136.67 -23.89 137.93 -23.97 139.22 C-24.04 140.53 -24.12 141.84 -24.19 143.19 C-24.27 144.52 -24.35 145.86 -24.44 147.19 C-24.64 150.46 -24.82 153.73 -25 157 C-25.99 157.33 -26.98 157.66 -28 158 C-29.5 156.88 -29.5 156.88 -31 155 C-31.19 151.81 -31.19 151.81 -31 149 C-32.98 149 -34.96 149 -37 149 C-37 146.03 -37 143.06 -37 140 C-37.99 140 -38.98 140 -40 140 C-39.98 138.87 -39.96 137.73 -39.94 136.56 C-40 133 -40 133 -41 132 C-41.66 132.99 -42.32 133.98 -43 135 C-43 134.34 -43 133.68 -43 133 C-43.66 133.33 -43.66 133.33 -47 135 C-47.18 134.29 -47.36 133.58 -47.55 132.85 C-47.8 131.93 -48.05 131.01 -48.31 130.06 C-48.56 129.15 -48.8 128.23 -49.05 127.29 C-49.21 126.91 -49.21 126.91 -50 125 C-50.99 124.67 -51.98 124.34 -53 124 C-54.36 121.48 -55.02 119.69 -54.94 116.81 C-53.58 114.2 -51.7 114.07 -49 113 C-46.69 110.38 -46.69 110.38 -45 108 C-45 109.32 -45 110.64 -45 112 C-44.34 112 -43.68 112 -43 112 C-43 110.68 -43 109.36 -43 108 C-42.34 108 -41.68 108 -41 108 C-40.88 107.2 -40.75 106.39 -40.62 105.56 C-40.52 105.14 -40.52 105.14 -40 103 C-39.67 102.84 -39.67 102.84 -38 102 C-37.01 103.65 -36.02 105.3 -35 107 C-34.88 106.03 -34.75 105.06 -34.62 104.06 C-34.42 103.05 -34.21 102.04 -34 101 C-33.34 100.67 -32.68 100.34 -32 100 C-31.28 98.36 -30.61 96.69 -30 95 C-29.01 95 -28.02 95 -27 95 C-25.88 99.75 -25.88 99.75 -27 102 C-26.01 102 -25.02 102 -24 102 C-24.16 102.5 -24.16 102.5 -25 105 C-23.68 105 -22.36 105 -21 105 C-20.69 104.05 -20.38 103.1 -20.06 102.12 C-19 99 -19 99 -18 97 C-17.34 97 -16.68 97 -16 97 C-16 97.66 -16 98.32 -16 99 C-15.34 99 -14.68 99 -14 99 C-13.84 98.5 -13.84 98.5 -13 96 C-12.01 96 -11.02 96 -10 96 C-10.66 94.68 -11.32 93.36 -12 92 C-11.18 91.84 -11.18 91.84 -7 91 C-7 90.34 -7 89.68 -7 89 C-6.01 89 -5.02 89 -4 89 C-4 89.99 -4 90.98 -4 92 C-3.34 92 -2.68 92 -2 92 C-1.94 91.61 -1.94 91.61 -1.62 89.62 C-1 87 -1 87 1 85 C1.99 85.99 2.98 86.98 4 88 C6.23 83.67 5.92 80.72 5 76 C4.84 76.5 4.84 76.5 4 79 C3.34 79 2.68 79 2 79 C-1.59 72.14 -4.91 65.46 -7 58 C-7.28 57.04 -7.56 56.08 -7.84 55.09 C-9.54 48.88 -10.42 43.44 -10 37 C-9.67 36.67 -9.34 36.34 -9 36 C-10.98 36 -12.96 36 -15 36 C-15.33 44.25 -15.66 52.5 -16 61 C-16.99 61.33 -17.98 61.66 -19 62 C-19 62.99 -19 63.98 -19 65 C-19.66 65 -20.32 65 -21 65 C-21.16 63.84 -21.16 63.84 -22 58 C-22.66 58.16 -22.66 58.16 -26 59 C-29.42 54.61 -31.58 51.71 -32 46 C-32.66 46 -33.32 46 -34 46 C-34.33 46.66 -34.66 47.32 -35 48 C-35.16 47.18 -35.16 47.18 -36 43 C-36.99 43 -37.98 43 -39 43 C-39.33 41.02 -39.66 39.04 -40 37 C-40.62 36.92 -41.24 36.84 -41.88 36.75 C-44 36 -44 36 -45.25 34.38 C-46.27 31.13 -46.25 28.38 -46 25 C-44 22 -44 22 -41.38 21.31 C-40.59 21.21 -39.81 21.11 -39 21 C-39 20.34 -39 19.68 -39 19 C-31.49 18.06 -24.51 18.06 -17 19 C-17 18.34 -17 17.68 -17 17 C-16.43 17.18 -15.85 17.36 -15.26 17.55 C-12.78 18.04 -11.26 17.86 -8.81 17.25 C-8.12 17.09 -7.42 16.93 -6.71 16.77 C-6.14 16.51 -5.58 16.26 -5 16 C-4.67 15.01 -4.34 14.02 -4 13 C-3.01 12.67 -2.02 12.34 -1 12 C-1.99 11.34 -2.98 10.68 -4 10 C-3.67 9.34 -3.34 8.68 -3 8 C-3.99 7.67 -4.98 7.34 -6 7 C-4.68 6.67 -3.36 6.34 -2 6 C-2 4.68 -2 3.36 -2 2 C-1.34 2 -0.68 2 0 2 C0 1.34 0 0.68 0 0 Z " fill="#BBA46D" transform="translate(258,81)"/>
    </g><g id="obj_00_scene__road_03__p2" class="obj_00_scene__road_03" data-label="road_03">
      <path d="M0 0 C1.65 0.66 3.3 1.32 5 2 C5 2.66 5 3.32 5 4 C5.99 4 6.98 4 8 4 C8 5.32 8 6.64 8 8 C8.66 8 9.32 8 10 8 C10 7.34 10 6.68 10 6 C10.66 6 11.32 6 12 6 C12.33 7.32 12.66 8.64 13 10 C12.01 10.33 11.02 10.66 10 11 C9.67 11.99 9.34 12.98 9 14 C9 12.68 9 11.36 9 10 C8.34 10 7.68 10 7 10 C6.01 13.96 5.02 17.92 4 22 C3.34 22 2.68 22 2 22 C2.38 23.94 2.38 23.94 3 26 C3.66 26.33 4.32 26.66 5 27 C5 27.66 5 28.32 5 29 C5.66 29 6.32 29 7 29 C6.91 30.61 6.8 32.21 6.69 33.81 C6.63 34.71 6.57 35.6 6.51 36.52 C5.94 39.31 5.18 40.24 3 42 C2.88 41.2 2.75 40.39 2.62 39.56 C2.42 38.72 2.21 37.87 2 37 C1.34 36.67 0.68 36.34 0 36 C0.66 34.68 1.32 33.36 2 32 C1.34 32 0.68 32 0 32 C0 31.34 0 30.68 0 30 C-0.66 30 -1.32 30 -2 30 C-2.33 27.69 -2.66 25.38 -3 23 C-4.32 22.67 -5.64 22.34 -7 22 C-7 21.34 -7 20.68 -7 20 C-7.66 21.32 -8.32 22.64 -9 24 C-9.66 24 -10.32 24 -11 24 C-11 23.34 -11 22.68 -11 22 C-12.65 22 -14.3 22 -16 22 C-16.33 21.34 -16.66 20.68 -17 20 C-16.67 19.34 -16.34 18.68 -16 18 C-16.66 17.67 -17.32 17.34 -18 17 C-17.01 16.67 -16.02 16.34 -15 16 C-14.67 16.66 -14.34 17.32 -14 18 C-13.67 17.01 -13.34 16.02 -13 15 C-12.18 15.33 -12.18 15.33 -8 17 C-8 16.34 -8 15.68 -8 15 C-7.34 15 -6.68 15 -6 15 C-5.67 15.5 -5.67 15.5 -4 18 C-3.73 17.03 -3.46 16.06 -3.19 15.06 C-2.99 14.56 -2.99 14.56 -2 12 C-1.01 11.67 -0.02 11.34 1 11 C2.69 9.56 2.69 9.56 4 8 C4 7.34 4 6.68 4 6 C3.34 5.34 2.68 4.68 2 4 C1.34 3.34 0.68 2.68 0 2 C0 1.34 0 0.68 0 0 Z " fill="#B8AE9D" transform="translate(238,46)"/>
      <path d="M0 0 C3.63 0 7.26 0 11 0 C11.33 0.66 11.66 1.32 12 2 C14.06 2.62 14.06 2.62 16 3 C16 3.66 16 4.32 16 5 C17.32 5.33 18.64 5.66 20 6 C19.67 5.01 19.34 4.02 19 3 C27.57 2.86 27.57 2.86 31 4 C30.67 4.99 30.34 5.98 30 7 C29.67 7.17 29.67 7.17 28 8 C28.33 9.32 28.66 10.64 29 12 C21.87 12.35 16.53 11.96 10 9 C10 8.34 10 7.68 10 7 C10.99 7 11.98 7 13 7 C13 6.34 13 5.68 13 5 C11.35 5 9.7 5 8 5 C8 4.34 8 3.68 8 3 C7.24 2.88 6.47 2.75 5.69 2.62 C3 2 3 2 0 0 Z " fill="#DBBA89" transform="translate(120,278)"/>
      <path d="M0 0 C0.66 0.33 0.66 0.33 4 2 C4 2.66 4 3.32 4 4 C4.68 3.66 5.37 3.32 6.07 2.98 C9.6 1.8 12.13 2 15.81 2.38 C16.97 2.49 18.14 2.6 19.33 2.71 C20.21 2.81 21.09 2.9 22 3 C22 3.66 22 4.32 22 5 C23.65 5 25.3 5 27 5 C27.11 5.32 27.11 5.32 27.69 6.94 C29 9 29 9 31.62 9.75 C32.41 9.83 33.19 9.92 34 10 C33.43 13.28 32.63 14.93 30 17 C27.74 17.29 27.74 17.29 25.31 17.19 C24.5 17.16 23.7 17.13 22.86 17.11 C22.25 17.07 21.63 17.04 21 17 C20.67 16.34 20.34 15.68 20 15 C22.64 15 25.28 15 28 15 C28 14.34 28 13.68 28 13 C28.66 13 29.32 13 30 13 C30 12.34 30 11.68 30 11 C29.34 11 28.68 11 28 11 C28 10.01 28 9.02 28 8 C25.36 8.33 22.72 8.66 20 9 C20 8.34 20 7.68 20 7 C18.68 6.67 17.36 6.34 16 6 C16 6.66 16 7.32 16 8 C13.69 8 11.38 8 9 8 C9 7.34 9 6.68 9 6 C8.62 6.17 8.62 6.17 6.69 7 C4 8 4 8 1 8 C1.33 6.35 1.66 4.7 2 3 C1.34 2.67 0.68 2.34 0 2 C0 1.34 0 0.68 0 0 Z " fill="#BDAA80" transform="translate(133,263)"/>
    </g><g id="obj_00_scene__road_03__p3" class="obj_00_scene__road_03" data-label="road_03">
      <path d="M0 0 C0 0.66 0 1.32 0 2 C0.66 2 1.32 2 2 2 C2 1.34 2 0.68 2 0 C3.65 0 5.3 0 7 0 C6.01 0.33 5.02 0.66 4 1 C4 1.66 4 2.32 4 3 C4.85 2.84 5.71 2.68 6.59 2.51 C9.96 2.01 13.15 1.83 16.56 1.81 C17.66 1.8 18.75 1.78 19.88 1.77 C23 2 25.19 2.67 28 4 C28 4.33 28 4.66 28 5 C26.51 5.17 26.51 5.17 19 6 C19 6.66 19 7.32 19 8 C18.24 7.93 17.48 7.86 16.7 7.78 C15.71 7.69 14.71 7.6 13.69 7.5 C13.19 7.45 13.19 7.45 10.7 7.22 C8 7 8 7 5 7 C5.33 7.99 5.66 8.98 6 10 C-2.19 11.45 -2.19 11.45 -5.56 9.56 C-6.04 9.05 -6.51 8.53 -7 8 C-6.01 8 -5.02 8 -4 8 C-4 7.34 -4 6.68 -4 6 C-4.99 5.83 -4.99 5.83 -10 5 C-9.19 3.06 -9.19 3.06 -8 1 C-5.07 0.02 -3.04 -0.08 0 0 Z " fill="#BBA571" transform="translate(258,268)"/>
    </g></svg>