<svg version="1.1" xmlns="http://www.w3.org/2000/svg" width="600" height="347"><rect width="600" height="347" fill="white"/><g id="obj_00_scene__road_06" class="obj_00_scene__road_06" data-label="road_06">
      <path d="M0 0 C3.3 0 6.6 0 10 0 C10.85 5.08 11.09 9.85 11 15 C12 14 12 14 12.1 10.84 C12.09 9.55 12.07 8.26 12.06 6.94 C12.05 5.65 12.04 4.36 12.04 3.03 C12.02 2.03 12.01 1.03 12 0 C12.66 0 13.32 0 14 0 C14.19 2.6 14.38 5.21 14.56 7.81 C14.62 8.55 14.67 9.29 14.73 10.05 C14.96 13.37 15.06 15.81 14 19 C14 19.99 14 20.98 14 22 C13.2 22.12 12.39 22.25 11.56 22.38 C10.72 22.58 9.87 22.79 9 23 C8.67 23.66 8.34 24.32 8 25 C8.74 25.1 9.49 25.21 10.25 25.31 C13.22 26.05 14.81 26.89 17 29 C17 29.99 17 30.98 17 32 C15.68 32 14.36 32 13 32 C13 32.99 13 33.98 13 35 C12.23 35.31 11.46 35.63 10.66 35.95 C9.66 36.38 8.66 36.81 7.62 37.25 C6.63 37.67 5.63 38.09 4.6 38.52 C1.82 40.1 1.05 41.03 0 44 C0.78 44.31 1.57 44.62 2.38 44.94 C5 46 5 46 7 47 C7 47.66 7 48.32 7 49 C7.99 49.16 7.99 49.16 13 50 C13 50.66 13 51.32 13 52 C14.01 52.1 15.02 52.21 16.06 52.31 C20.12 53.02 23.26 54.3 27 56 C27.92 56.29 28.83 56.58 29.78 56.88 C33.99 58.34 37.85 60.38 41.79 62.43 C45.45 64.31 49.06 65.8 53 67 C52.67 67.99 52.34 68.98 52 70 C53.65 70.66 55.3 71.32 57 72 C57 73.32 57 74.64 57 76 C57.99 76.33 58.98 76.66 60 77 C59.34 77.33 58.68 77.66 58 78 C58 78.66 58 79.32 58 80 C57.01 80 56.02 80 55 80 C54.67 81.32 54.34 82.64 54 84 C53.01 84 52.02 84 51 84 C51 84.99 51 85.98 51 87 C48 89 48 89 45 89 C44.67 88.34 44.34 87.68 44 87 C43.67 87.66 43.34 88.32 43 89 C42.34 89 41.68 89 41 89 C40.69 89.64 40.38 90.28 40.06 90.94 C39 93 39 93 38 94 C36.33 94.04 34.67 94.04 33 94 C32.67 94.99 32.34 95.98 32 97 C30.68 97 29.36 97 28 97 C28 97.66 28 98.32 28 99 C26.68 99 25.36 99 24 99 C23.53 99.5 23.05 99.99 22.56 100.5 C21 102 21 102 18.31 102.19 C17.93 102.16 17.93 102.16 16 102 C16 102.99 16 103.98 16 105 C15.36 105.1 14.72 105.21 14.06 105.31 C13.38 105.54 12.7 105.77 12 106 C11.67 106.99 11.34 107.98 11 109 C9.35 109 7.7 109 6 109 C6 109.99 6 110.98 6 112 C5.01 112 4.02 112 3 112 C3.33 112.99 3.66 113.98 4 115 C3.34 115 2.68 115 2 115 C2 115.66 2 116.32 2 117 C2.66 117.33 3.32 117.66 4 118 C3.67 118.66 3.34 119.32 3 120 C3.8 120.27 4.61 120.54 5.44 120.81 C6.28 121.2 7.13 121.6 8 122 C8.33 122.99 8.66 123.98 9 125 C9.66 125.33 10.32 125.66 11 126 C11 126.66 11 127.32 11 128 C11.28 128.07 11.28 128.07 12.71 128.41 C15.05 129.01 17.33 129.7 19.62 130.44 C20.4 130.68 21.18 130.93 21.98 131.18 C24 132 24 132 26 134 C26.99 134.33 27.98 134.66 29 135 C29 135.66 29 136.32 29 137 C31.98 137.77 34.98 138.41 38 139 C38.33 139.99 38.66 140.98 39 142 C41.87 143.94 44.88 145.5 48 147 C47.34 147.33 46.68 147.66 46 148 C46 148.99 46 149.98 46 151 C46.66 151.33 47.32 151.66 48 152 C48.62 154.56 48.62 154.56 49 157 C48.34 157.33 47.68 157.66 47 158 C44 162.5 44 162.5 44 165 C42.68 165 41.36 165 40 165 C40.33 165.99 40.66 166.98 41 168 C36.25 171 36.25 171 34 171 C34 172.32 34 173.64 34 175 C32.35 175.33 30.7 175.66 29 176 C29 176.99 29 177.98 29 179 C28.01 179.33 27.02 179.66 26 180 C25.67 180.99 25.34 181.98 25 183 C22 185 22 185 19 185 C19 186.32 19 187.64 19 189 C18.01 189 17.02 189 16 189 C15.34 190.32 14.68 191.64 14 193 C13.34 193 12.68 193 12 193 C12 193.66 12 194.32 12 195 C10.68 195.33 9.36 195.66 8 196 C8 196.66 8 197.32 8 198 C9.32 197.34 10.64 196.68 12 196 C11.69 196.76 11.38 197.53 11.06 198.31 C9.65 201.89 9 204.09 9 208 C8.34 208.66 7.68 209.32 7 210 C7.99 210.66 8.98 211.32 10 212 C10.69 214.13 10.69 214.13 11 216 C12.32 216.33 13.64 216.66 15 217 C14.67 217.66 14.34 218.32 14 219 C14.99 219 15.98 219 17 219 C17 219.66 17 220.32 17 221 C18.65 221 20.3 221 22 221 C22 221.66 22 222.32 22 223 C22.99 223.66 23.98 224.32 25 225 C25 225.66 25 226.32 25 227 C26.32 227.33 27.64 227.66 29 228 C28.34 228.33 27.68 228.66 27 229 C28.32 229.66 29.64 230.32 31 231 C31 231.66 31 232.32 31 233 C31.99 233.33 32.98 233.66 34 234 C33.01 234 32.02 234 31 234 C31 234.66 31 235.32 31 236 C33.64 236.33 36.28 236.66 39 237 C39 237.66 39 238.32 39 239 C37.35 239.33 35.7 239.66 34 240 C34.99 240.66 35.98 241.32 37 242 C36.67 242.66 36.34 243.32 36 244 C36.99 244.33 37.98 244.66 39 245 C39.33 246.65 39.66 248.3 40 250 C37.69 250.33 35.38 250.66 33 251 C33 251.99 33 252.98 33 254 C34.65 254 36.3 254 38 254 C38 254.33 38 254.66 38 255 C35.69 255 33.38 255 31 255 C31 255.99 31 256.98 31 258 C31.99 258 32.98 258 34 258 C34 258.66 34 259.32 34 260 C32.02 260 30.04 260 28 260 C28 260.66 28 261.32 28 262 C28.66 262.33 29.32 262.66 30 263 C28.35 263.33 26.7 263.66 25 264 C25 264.99 25 265.98 25 267 C24.01 267 23.02 267 22 267 C22 267.66 22 268.32 22 269 C23.98 269 25.96 269 28 269 C27.67 269.66 27.34 270.32 27 271 C26.34 271 25.68 271 25 271 C25 271.66 25 272.32 25 273 C23.35 273 21.7 273 20 273 C20 273.66 20 274.32 20 275 C18.68 275 17.36 275 16 275 C16 275.66 16 276.32 16 277 C17.65 277 19.3 277 21 277 C19.68 277.66 18.36 278.32 17 279 C17.33 279.33 17.66 279.66 18 280 C18 280.66 18 281.32 18 282 C17.03 281.98 16.06 281.96 15.06 281.94 C12 282 12 282 11 283 C9.5 283.09 7.99 283.12 6.48 283.11 C6 283.11 6 283.11 3.57 283.11 C2.52 283.11 1.48 283.1 0.4 283.1 C-0.13 283.1 -0.13 283.1 -2.82 283.09 C-6.24 283.09 -9.65 283.08 -13.06 283.06 C-15.37 283.06 -17.68 283.05 -19.99 283.05 C-25.66 283.04 -31.33 283.02 -37 283 C-34.35 281.54 -33.11 281 -30 281 C-30.52 280.59 -31.03 280.18 -31.56 279.75 C-32.04 279.17 -32.51 278.6 -33 278 C-32.59 275.89 -32.59 275.89 -32 274 C-31.36 273.89 -30.72 273.78 -30.07 273.67 C-29.65 273.59 -29.65 273.59 -27.56 273.19 C-27.15 273.11 -27.15 273.11 -25.07 272.73 C-24.38 272.49 -23.7 272.25 -23 272 C-22.67 271.01 -22.34 270.02 -22 269 C-21.34 268.67 -20.68 268.34 -20 268 C-20.66 267.34 -21.32 266.68 -22 266 C-21 265 -21 265 -17.44 264.94 C-16.3 264.96 -15.17 264.98 -14 265 C-14 264.34 -14 263.68 -14 263 C-14.66 262.67 -15.32 262.34 -16 262 C-14.02 261.67 -12.04 261.34 -10 261 C-10.33 260.34 -10.66 259.68 -11 259 C-10.67 258.34 -10.34 257.68 -10 257 C-9.01 257 -8.02 257 -7 257 C-7 256.01 -7 255.02 -7 254 C-6.4 253.88 -5.8 253.75 -5.19 253.62 C-3 253 -3 253 0 251 C-0.33 250.01 -0.66 249.02 -1 248 C-0.01 248 0.98 248 2 248 C1.34 246.02 0.68 244.04 0 242 C0.99 241.34 1.98 240.68 3 240 C2.34 239.34 1.68 238.68 1 238 C0.67 237.01 0.34 236.02 0 235 C-0.99 235 -1.98 235 -3 235 C-3 233.68 -3 232.36 -3 231 C-5 228.75 -5 228.75 -7 227 C-6.67 226.34 -6.34 225.68 -6 225 C-7.32 225 -8.64 225 -10 225 C-9.67 223.68 -9.34 222.36 -9 221 C-10.32 220.67 -11.64 220.34 -13 220 C-12.67 219.01 -12.34 218.02 -12 217 C-13.32 216.67 -14.64 216.34 -16 216 C-15.67 215.34 -15.34 214.68 -15 214 C-15.99 213.67 -16.98 213.34 -18 213 C-17.01 213 -16.02 213 -15 213 C-15 212.34 -15 211.68 -15 211 C-16.32 210.67 -17.64 210.34 -19 210 C-19 209.34 -19 208.68 -19 208 C-18.01 208 -17.02 208 -16 208 C-16 207.34 -16 206.68 -16 206 C-16.99 205.67 -17.98 205.34 -19 205 C-18.34 203.68 -17.68 202.36 -17 201 C-17.66 200.67 -18.32 200.34 -19 200 C-18.67 199.34 -18.34 198.68 -18 198 C-17.34 198 -16.68 198 -16 198 C-16 197.34 -16 196.68 -16 196 C-16.66 196 -17.32 196 -18 196 C-18 195.34 -18 194.68 -18 194 C-18.66 193.67 -19.32 193.34 -20 193 C-19.67 192.34 -19.34 191.68 -19 191 C-19.66 191 -20.32 191 -21 191 C-21.33 189.68 -21.66 188.36 -22 187 C-23.65 186.67 -25.3 186.34 -27 186 C-27 185.01 -27 184.02 -27 183 C-27.99 183 -28.98 183 -30 183 C-30.33 181.68 -30.66 180.36 -31 179 C-32.32 178.67 -33.64 178.34 -35 178 C-35 177.01 -35 176.02 -35 175 C-36.65 174.67 -38.3 174.34 -40 174 C-40 173.01 -40 172.02 -40 171 C-41.65 171 -43.3 171 -45 171 C-45 170.01 -45 169.02 -45 168 C-45.72 167.87 -46.45 167.75 -47.2 167.62 C-49.92 167.02 -52.3 166.19 -54.88 165.12 C-55.31 164.95 -55.31 164.95 -57.52 164.05 C-59.56 163.18 -61.6 162.28 -63.62 161.38 C-66.72 160.11 -69.62 159.3 -72.86 158.56 C-75 158 -75 158 -78.69 156.57 C-83.05 154.91 -87.45 153.83 -92 152.81 C-92.77 152.64 -93.55 152.46 -94.35 152.28 C-96.23 151.85 -98.12 151.42 -100 151 C-100 150.34 -100 149.68 -100 149 C-101.26 148.92 -102.52 148.84 -103.81 148.75 C-112.32 147.92 -120.66 145.84 -129 144 C-129 143.34 -129 142.68 -129 142 C-129.52 141.95 -129.52 141.95 -132.12 141.69 C-144.91 140.04 -157.2 136.33 -169.53 132.72 C-171.75 132.07 -173.98 131.44 -176.21 130.83 C-182.04 129.21 -187.5 127.48 -193 125 C-195.98 123.95 -198.99 122.96 -202 122 C-202 121.34 -202 120.68 -202 120 C-202.99 120 -203.98 120 -205 120 C-205 119.34 -205 118.68 -205 118 C-206.32 117.67 -207.64 117.34 -209 117 C-209 116.01 -209 115.02 -209 114 C-209.99 114 -210.98 114 -212 114 C-213.25 107.38 -213.25 107.38 -211 104 C-210.34 104 -209.68 104 -209 104 C-209 103.34 -209 102.68 -209 102 C-208.34 102 -207.68 102 -207 102 C-207 101.34 -207 100.68 -207 100 C-199.6 95.92 -192.12 93.28 -184 91 C-186.14 88.86 -187.13 88.57 -190 88 C-190 87.34 -190 86.68 -190 86 C-188.51 85.84 -188.51 85.84 -181 85 C-181.33 85.66 -181.66 86.32 -182 87 C-179.69 87.99 -177.38 88.98 -175 90 C-175.13 91.83 -175.13 91.83 -176 94 C-178.65 95.48 -178.65 95.48 -181.94 96.75 C-183.02 97.18 -184.1 97.61 -185.21 98.05 C-188 99 -188 99 -190 99 C-190 99.66 -190 100.32 -190 101 C-190.99 101.33 -190.99 101.33 -196 103 C-196.33 105.97 -196.66 108.94 -197 112 C-196.34 112 -195.68 112 -195 112 C-195 112.66 -195 113.32 -195 114 C-194.34 114 -193.68 114 -193 114 C-193 114.66 -193 115.32 -193 116 C-192.4 116.14 -191.8 116.29 -191.19 116.44 C-189.44 116.89 -187.71 117.43 -186 118 C-186 118.66 -186 119.32 -186 120 C-185.05 120.1 -184.1 120.21 -183.12 120.31 C-177.51 121.11 -171.94 122.73 -166.73 124.98 C-163.06 126.35 -159.33 127.08 -155.5 127.88 C-150.11 129.02 -144.86 130.27 -139.62 132 C-134.24 133.74 -128.86 134.88 -123.31 135.94 C-116.13 137.31 -109.14 138.98 -102.12 141.01 C-95.83 142.81 -89.5 144.33 -83.12 145.81 C-73.53 148.06 -64.04 150.6 -54.56 153.31 C-53.95 153.49 -53.95 153.49 -50.86 154.37 C-42.29 156.86 -42.29 156.86 -40 158 C-40 158.66 -40 159.32 -40 160 C-39.24 160.14 -38.47 160.29 -37.69 160.44 C-35 161 -35 161 -32 162 C-32 162.66 -32 163.32 -32 164 C-30.91 164.12 -29.81 164.25 -28.69 164.38 C-25 165 -25 165 -22 167 C-22 167.66 -22 168.32 -22 169 C-20.35 169 -18.7 169 -17 169 C-16.67 169.66 -16.34 170.32 -16 171 C-15.01 171.33 -14.02 171.66 -13 172 C-13 172.99 -13 173.98 -13 175 C-12.4 175.12 -11.8 175.25 -11.19 175.38 C-8.14 176.25 -6.22 177.78 -4 180 C-3.01 180 -2.02 180 -1 180 C-1 179.34 -1 178.68 -1 178 C-0.01 177.67 0.98 177.34 2 177 C2 175.35 2 173.7 2 172 C2.99 172.33 3.98 172.66 5 173 C6.33 173.34 7.66 173.68 9 174 C9.33 172.68 9.66 171.36 10 170 C11.32 170 12.64 170 14 170 C14 169.01 14 168.02 14 167 C14.66 167 15.32 167 16 167 C16 166.34 16 165.68 16 165 C17.32 164.67 18.64 164.34 20 164 C20 163.01 20 162.02 20 161 C21.32 160.67 22.64 160.34 24 160 C23.67 158.02 23.34 156.04 23 154 C23.66 153.67 24.32 153.34 25 153 C24.34 152.34 23.68 151.68 23 151 C23.33 150.34 23.66 149.68 24 149 C23.34 149 22.68 149 22 149 C22 148.01 22 147.02 22 146 C21.42 145.9 20.85 145.79 20.25 145.69 C17.62 144.89 16.17 143.68 14 142 C11.69 140.61 9.35 139.31 7 138 C7 137.34 7 136.68 7 136 C6.01 136 5.02 136 4 136 C4 135.34 4 134.68 4 134 C3.27 134.05 2.54 134.09 1.79 134.14 C-1.33 133.98 -2.98 133.27 -5.69 131.75 C-6.45 131.33 -7.22 130.91 -8.01 130.48 C-10.23 128.83 -10.88 127.48 -12 125 C-12.66 124.67 -13.32 124.34 -14 124 C-14 123.34 -14 122.68 -14 122 C-14.66 122 -15.32 122 -16 122 C-15.67 120.68 -15.34 119.36 -15 118 C-15.66 118 -16.32 118 -17 118 C-17 116.68 -17 115.36 -17 114 C-17.66 113.34 -18.32 112.68 -19 112 C-18.2 111.88 -17.39 111.75 -16.56 111.62 C-15.72 111.42 -14.87 111.21 -14 111 C-13.67 110.34 -13.34 109.68 -13 109 C-12.01 109 -11.02 109 -10 109 C-9.67 108.01 -9.34 107.02 -9 106 C-10.65 105.67 -12.3 105.34 -14 105 C-13.67 104.34 -13.67 104.34 -12 101 C-11.01 101 -10.02 101 -9 101 C-9 101.66 -9 102.32 -9 103 C-6.36 103 -3.72 103 -1 103 C-1 102.34 -1 101.68 -1 101 C7.26 96.41 7.26 96.41 12 97 C12 96.34 12 95.68 12 95 C14.3 94.07 16.6 93.14 18.94 92.3 C22.93 90.87 26.41 89.3 30 87 C36.64 83 36.64 83 39 83 C41.6 79.1 41.15 75.53 41 71 C40.28 70.9 39.56 70.79 38.81 70.69 C35.72 69.93 33.58 68.84 31 67 C31 66.34 31 65.68 31 65 C29.58 64.52 28.17 64.04 26.75 63.56 C25.96 63.3 25.17 63.03 24.36 62.75 C22.25 62.08 20.15 61.51 18 61 C18 60.34 18 59.68 18 59 C16.35 59 14.7 59 13 59 C13 58.34 13 57.68 13 57 C12.28 56.86 11.56 56.73 10.82 56.59 C8.12 56.03 5.52 55.34 2.88 54.56 C2.03 54.32 1.18 54.07 0.3 53.82 C-2 53 -2 53 -5 51 C-6.99 49.98 -8.99 48.98 -11 48 C-11 47.34 -11 46.68 -11 46 C-12.65 45.67 -14.3 45.34 -16 45 C-16 44.34 -16 43.68 -16 43 C-15.34 43 -14.68 43 -14 43 C-13.79 42.36 -13.59 41.72 -13.38 41.06 C-12 39 -12 39 -8.88 38.25 C-7.93 38.17 -6.98 38.09 -6 38 C-6 37.34 -6 36.68 -6 36 C-5.22 35.67 -4.44 35.35 -3.63 35.01 C-2.62 34.57 -1.61 34.14 -0.56 33.69 C0.45 33.26 1.46 32.83 2.5 32.39 C5 31 5 31 6 28 C4.02 27.34 2.04 26.68 0 26 C0.33 25.84 0.33 25.84 2 25 C2 24.34 2 23.68 2 23 C-0.31 22.67 -2.62 22.34 -5 22 C-5.33 20.02 -5.66 18.04 -6 16 C-5.01 16.66 -4.02 17.32 -3 18 C-3 17.01 -3 16.02 -3 15 C-2.34 15 -1.68 15 -1 15 C-1 14.34 -1 13.68 -1 13 C0.98 12.67 2.96 12.34 5 12 C5 10.02 5 8.04 5 6 C3.35 6.33 1.7 6.66 0 7 C0 4.69 0 2.38 0 0 Z " fill="#EBD1A9" transform="translate(304,64)"/>
      <path d="M0 0 C0 0.66 0 1.32 0 2 C0.99 2.66 1.98 3.32 3 4 C3 4.66 3 5.32 3 6 C4.32 6.33 5.64 6.66 7 7 C6.34 7.33 5.68 7.66 5 8 C6.32 8.66 7.64 9.32 9 10 C9 10.66 9 11.32 9 12 C9.99 12.33 10.98 12.66 12 13 C11.01 13 10.02 13 9 13 C9 13.66 9 14.32 9 15 C11.64 15.33 14.28 15.66 17 16 C17 16.66 17 17.32 17 18 C15.35 18.33 13.7 18.66 12 19 C12.99 19.66 13.98 20.32 15 21 C14.67 21.66 14.34 22.32 14 23 C14.5 23.17 14.5 23.17 17 24 C17.16 24.82 17.16 24.82 18 29 C15.69 29.33 13.38 29.66 11 30 C11 30.99 11 31.98 11 33 C12.65 33 14.3 33 16 33 C16 33.33 16 33.66 16 34 C13.69 34 11.38 34 9 34 C9 34.99 9 35.98 9 37 C9.99 37 10.98 37 12 37 C12 37.66 12 38.32 12 39 C10.02 39 8.04 39 6 39 C6 39.66 6 40.32 6 41 C6.66 41.33 7.32 41.66 8 42 C6.35 42.33 4.7 42.66 3 43 C3 43.99 3 44.98 3 46 C2.01 46 1.02 46 0 46 C0 46.66 0 47.32 0 48 C1.98 48 3.96 48 6 48 C5.84 48.33 5.84 48.33 5 50 C4.34 50 3.68 50 3 50 C3 50.66 3 51.32 3 52 C1.35 52 -0.3 52 -2 52 C-2 52.66 -2 53.32 -2 54 C-3.32 54 -4.64 54 -6 54 C-6 54.66 -6 55.32 -6 56 C-4.35 56 -2.7 56 -1 56 C-2.32 56.66 -3.64 57.32 -5 58 C-4.67 58.33 -4.34 58.66 -4 59 C-4 59.66 -4 60.32 -4 61 C-4.97 60.98 -5.94 60.96 -6.94 60.94 C-10 61 -10 61 -11 62 C-12.5 62.09 -14.01 62.12 -15.52 62.11 C-16 62.11 -16 62.11 -18.43 62.11 C-19.48 62.11 -20.52 62.1 -21.6 62.1 C-22.66 62.1 -23.73 62.09 -24.82 62.09 C-28.24 62.09 -31.65 62.08 -35.06 62.06 C-37.37 62.06 -39.68 62.05 -41.99 62.05 C-47.66 62.04 -53.33 62.02 -59 62 C-56.35 60.54 -55.11 60 -52 60 C-52.26 59.79 -52.26 59.79 -53.56 58.75 C-54.04 58.17 -54.51 57.6 -55 57 C-54.59 54.89 -54.59 54.89 -54 53 C-53.36 52.89 -52.72 52.78 -52.07 52.67 C-51.24 52.51 -50.41 52.35 -49.56 52.19 C-48.74 52.04 -47.92 51.89 -47.07 51.73 C-46.38 51.49 -45.7 51.25 -45 51 C-44.67 50.01 -44.34 49.02 -44 48 C-43.67 47.83 -43.67 47.83 -42 47 C-42.66 46.34 -43.32 45.68 -44 45 C-43 44 -43 44 -39.44 43.94 C-38.3 43.96 -37.17 43.98 -36 44 C-36 43.34 -36 42.68 -36 42 C-36.66 41.67 -37.32 41.34 -38 41 C-37.01 40.83 -37.01 40.83 -32 40 C-32.33 39.34 -32.66 38.68 -33 38 C-32.67 37.34 -32.34 36.68 -32 36 C-31.01 36 -30.02 36 -29 36 C-29 35.01 -29 34.02 -29 33 C-28.4 32.88 -27.8 32.75 -27.19 32.62 C-25 32 -25 32 -22 30 C-22.17 29.5 -22.17 29.5 -23 27 C-22.01 27 -21.02 27 -20 27 C-20.66 25.02 -21.32 23.04 -22 21 C-20.81 19.5 -20.81 19.5 -19 18 C-16.31 17.81 -16.31 17.81 -14 18 C-13.83 18.33 -13.83 18.33 -13 20 C-13.66 20.33 -13.66 20.33 -17 22 C-15.68 22.66 -14.36 23.32 -13 24 C-13.99 25.65 -14.98 27.3 -16 29 C-15.34 29.66 -14.68 30.32 -14 31 C-15.32 31 -16.64 31 -18 31 C-18 31.99 -18 32.98 -18 34 C-18.33 34.17 -18.33 34.17 -20 35 C-19.67 35.66 -19.34 36.32 -19 37 C-19.99 37.33 -20.98 37.66 -22 38 C-20.68 38.66 -19.36 39.32 -18 40 C-18.66 40.17 -18.66 40.17 -22 41 C-22 41.66 -22 42.32 -22 43 C-16.62 43.92 -11.46 44.11 -6 44 C-6.99 43.67 -7.98 43.34 -9 43 C-9 42.34 -9 41.68 -9 41 C-5.37 41 -1.74 41 2 41 C2 40.34 2 39.68 2 39 C0.35 38.67 -1.3 38.34 -3 38 C-2.68 37.95 -2.68 37.95 -1.06 37.69 C-0.38 37.46 0.3 37.23 1 37 C1.33 36.01 1.66 35.02 2 34 C2.99 34 3.98 34 5 34 C5 33.34 5 32.68 5 32 C4.34 32 3.68 32 3 32 C3 31.01 3 30.02 3 29 C3.66 29 4.32 29 5 29 C5 28.34 5 27.68 5 27 C7.31 26.67 9.62 26.34 12 26 C12 25.34 12 24.68 12 24 C11.42 23.88 10.85 23.75 10.25 23.62 C7.98 22.99 6.07 22.11 4 21 C4 19.35 4 17.7 4 16 C2.68 15.67 1.36 15.34 0 15 C0 14.34 0 13.68 0 13 C1.32 13 2.64 13 4 13 C4 12.34 4 11.68 4 11 C3.01 10.67 2.02 10.34 1 10 C0.01 9.34 -0.98 8.68 -2 8 C-1.67 7.34 -1.34 6.68 -1 6 C-2.98 5.34 -4.96 4.68 -7 4 C-7 3.34 -7 2.68 -7 2 C-4.35 0.54 -3.11 0 0 0 Z " fill="#EACCA1" transform="translate(326,285)"/>
      <path d="M0 0 C2.28 0.02 4.52 0.12 6.8 0.33 C6.8 1.65 6.8 2.97 6.8 4.33 C7.46 4.33 8.12 4.33 8.8 4.33 C9.92 9.08 9.92 9.08 8.8 11.33 C8.14 11.33 7.48 11.33 6.8 11.33 C6.47 12.65 6.14 13.97 5.8 15.33 C4.15 15.33 2.5 15.33 0.8 15.33 C0.65 15.95 0.51 16.57 0.36 17.21 C-0.2 19.33 -0.2 19.33 -1.2 21.33 C-1.82 21.6 -2.44 21.87 -3.08 22.14 C-5.83 23.68 -6.65 25.64 -8.2 28.33 C-8.86 28.33 -9.52 28.33 -10.2 28.33 C-10.53 29.65 -10.86 30.97 -11.2 32.33 C-12.36 32.5 -12.36 32.5 -18.2 33.33 C-18.2 33.99 -18.2 34.65 -18.2 35.33 C-17.71 35.5 -17.71 35.5 -15.2 36.33 C-16.85 36.99 -18.5 37.65 -20.2 38.33 C-20.2 39.65 -20.2 40.97 -20.2 42.33 C-20.2 42.99 -20.2 43.65 -20.2 44.33 C-22.18 44.33 -24.16 44.33 -26.2 44.33 C-26.2 44.99 -26.2 45.65 -26.2 46.33 C-28.18 46.33 -30.16 46.33 -32.2 46.33 C-31.87 47.32 -31.54 48.31 -31.2 49.33 C-37.68 51.84 -43.39 51.16 -50.2 50.33 C-51.2 47.33 -51.2 47.33 -50.2 44.33 C-50.86 44.17 -50.86 44.17 -54.2 43.33 C-54.2 42.67 -54.2 42.01 -54.2 41.33 C-54.7 41.17 -54.7 41.17 -57.2 40.33 C-58.89 39.02 -58.89 39.02 -60.2 37.33 C-60.2 36.01 -60.2 34.69 -60.2 33.33 C-61.19 33.33 -62.18 33.33 -63.2 33.33 C-63.2 32.67 -63.2 32.01 -63.2 31.33 C-65.18 31.33 -67.16 31.33 -69.2 31.33 C-69.37 30.34 -69.37 30.34 -70.2 25.33 C-71.11 25.23 -72.02 25.13 -72.95 25.02 C-76.25 24.32 -77.84 23.69 -80.2 21.33 C-80.2 20.34 -80.2 19.35 -80.2 18.33 C-81.3 18.35 -82.39 18.37 -83.52 18.39 C-87.2 18.33 -87.2 18.33 -90.2 17.33 C-90.2 16.67 -90.2 16.01 -90.2 15.33 C-90.57 15.27 -90.57 15.27 -92.4 14.96 C-97.5 14.08 -102.31 13.08 -107.2 11.33 C-108.86 10.97 -110.53 10.63 -112.2 10.33 C-112.2 9.67 -112.2 9.01 -112.2 8.33 C-113.4 8.19 -114.6 8.04 -115.83 7.89 C-119.3 7.46 -122.75 6.94 -126.2 6.33 C-125.2 4.33 -125.2 4.33 -122.2 3.33 C-121.6 3.11 -121.01 2.88 -120.39 2.64 C-117.3 2.2 -115.07 3.22 -112.2 4.33 C-112.2 4.99 -112.2 5.65 -112.2 6.33 C-111.57 6.37 -110.94 6.41 -110.3 6.45 C-105.27 6.83 -101.07 7.56 -96.43 9.5 C-91.83 11.22 -86.98 12.21 -82.2 13.33 C-82.2 13.99 -82.2 14.65 -82.2 15.33 C-81.42 15.29 -80.64 15.25 -79.83 15.21 C-77.2 15.33 -77.2 15.33 -75.2 17.33 C-73.08 17.96 -73.08 17.96 -71.2 18.33 C-71.2 18.99 -71.2 19.65 -71.2 20.33 C-70.42 20.23 -69.64 20.13 -68.83 20.02 C-62.59 20.56 -57.35 23.9 -52.2 27.33 C-52.2 27.99 -52.2 28.65 -52.2 29.33 C-51.54 29.66 -50.88 29.99 -50.2 30.33 C-50.86 30.66 -51.52 30.99 -52.2 31.33 C-50.55 31.66 -48.9 31.99 -47.2 32.33 C-47.2 33.32 -47.2 34.31 -47.2 35.33 C-45.55 35.66 -43.9 35.99 -42.2 36.33 C-42.7 36.5 -42.7 36.5 -45.2 37.33 C-45.2 37.99 -45.2 38.65 -45.2 39.33 C-41.57 39.33 -37.94 39.33 -34.2 39.33 C-34.2 38.67 -34.2 38.01 -34.2 37.33 C-33.54 37.33 -32.88 37.33 -32.2 37.33 C-32.2 36.67 -32.2 36.01 -32.2 35.33 C-32.86 35 -33.52 34.67 -34.2 34.33 C-33.21 34 -32.22 33.67 -31.2 33.33 C-31.2 30.33 -31.2 30.33 -32.2 28.33 C-28.24 28.33 -24.28 28.33 -20.2 28.33 C-20.2 27.01 -20.2 25.69 -20.2 24.33 C-19.54 24.33 -18.88 24.33 -18.2 24.33 C-18.2 23.67 -18.2 23.01 -18.2 22.33 C-15.89 22.33 -13.58 22.33 -11.2 22.33 C-11.2 21.34 -11.2 20.35 -11.2 19.33 C-10.87 19.17 -10.87 19.17 -9.2 18.33 C-9.2 17.34 -9.2 16.35 -9.2 15.33 C-8.21 15.33 -7.22 15.33 -6.2 15.33 C-6.2 14.34 -6.2 13.35 -6.2 12.33 C-5.54 12 -4.88 11.67 -4.2 11.33 C-4.2 10.34 -4.2 9.35 -4.2 8.33 C-3.54 8.33 -2.88 8.33 -2.2 8.33 C-2.2 7.67 -2.2 7.01 -2.2 6.33 C-3.19 6 -4.18 5.67 -5.2 5.33 C-4.06 2.3 -3.37 0.51 0 0 Z " fill="#EFD6B1" transform="translate(339.203125,209.66796875)"/>
      <path d="M0 0 C1.13 0.02 2.27 0.04 3.44 0.06 C3.11 0.72 2.78 1.38 2.44 2.06 C3.26 2.39 3.26 2.39 7.44 4.06 C7.44 4.72 7.44 5.38 7.44 6.06 C8.43 6.39 9.42 6.72 10.44 7.06 C10.44 7.72 10.44 8.38 10.44 9.06 C13.08 9.39 15.72 9.72 18.44 10.06 C17.78 10.39 17.78 10.39 14.44 12.06 C15.44 14.06 15.44 14.06 18.5 15.19 C19.47 15.48 20.44 15.76 21.44 16.06 C21.11 16.72 20.78 17.38 20.44 18.06 C20.85 18.29 20.85 18.29 22.94 19.44 C23.76 19.97 24.59 20.51 25.44 21.06 C25.44 21.72 25.44 22.38 25.44 23.06 C24.12 23.06 22.8 23.06 21.44 23.06 C21.77 23.72 22.1 24.38 22.44 25.06 C23.43 25.39 24.42 25.72 25.44 26.06 C25.46 26.83 25.48 27.59 25.5 28.38 C26.44 31.06 26.44 31.06 30 32.88 C31.13 33.27 32.27 33.66 33.44 34.06 C33.44 34.72 33.44 35.38 33.44 36.06 C32.28 36.23 32.28 36.23 26.44 37.06 C26.44 37.72 26.44 38.38 26.44 39.06 C25.78 39.06 25.12 39.06 24.44 39.06 C24.44 40.05 24.44 41.04 24.44 42.06 C25.1 42.06 25.76 42.06 26.44 42.06 C26.44 42.72 26.44 43.38 26.44 44.06 C25.45 44.39 24.46 44.72 23.44 45.06 C23.27 45.39 23.27 45.39 22.44 47.06 C21.94 47.23 21.94 47.23 19.44 48.06 C20.76 48.39 22.08 48.72 23.44 49.06 C23.44 49.72 23.44 50.38 23.44 51.06 C19.81 51.06 16.18 51.06 12.44 51.06 C12.44 51.72 12.44 52.38 12.44 53.06 C13.76 53.39 15.08 53.72 16.44 54.06 C15.44 55.06 15.44 55.06 12.93 55.2 C2.42 55.17 2.42 55.17 -2.56 54.06 C-2.23 53.9 -2.23 53.9 -0.56 53.06 C-0.56 52.4 -0.56 51.74 -0.56 51.06 C-0.07 50.9 -0.07 50.9 2.44 50.06 C1.12 49.4 -0.2 48.74 -1.56 48.06 C-0.19 46.06 -0.19 46.06 1.44 44.06 C2.1 44.06 2.76 44.06 3.44 44.06 C3.54 43.34 3.64 42.62 3.75 41.88 C4.5 38.82 5.72 36.68 7.44 34.06 C6.12 33.4 4.8 32.74 3.44 32.06 C4.76 31.07 6.08 30.08 7.44 29.06 C5.79 28.73 4.14 28.4 2.44 28.06 C2.43 27.45 2.43 26.83 2.43 26.2 C2.31 23.69 2.12 21.48 1.44 19.06 C-1.62 17 -1.62 17 -4.56 16.06 C-4.23 14.08 -3.9 12.1 -3.56 10.06 C-4.22 10.06 -4.88 10.06 -5.56 10.06 C-5.67 9.28 -5.77 8.5 -5.88 7.69 C-6.56 5.06 -6.56 5.06 -9.56 3.06 C-8.76 2.75 -7.95 2.44 -7.12 2.12 C-2.09 0.04 -2.09 0.04 0 0 Z " fill="#F0D6AF" transform="translate(304.5625,274.9375)"/>
      <path d="M0 0 C3.5 0.65 5.99 2.12 9 4 C10.33 4.68 11.66 5.35 13 6 C12.34 6.33 11.68 6.66 11 7 C11 7.99 11 8.98 11 10 C11.33 10.16 11.33 10.16 13 11 C13.62 13.56 13.62 13.56 14 16 C13.34 16.33 12.68 16.66 12 17 C9 21.5 9 21.5 9 24 C7.68 24 6.36 24 5 24 C5.16 24.5 5.16 24.5 6 27 C1.25 30 1.25 30 -1 30 C-1 31.32 -1 32.64 -1 34 C-2.65 34.33 -4.3 34.66 -6 35 C-6 35.99 -6 36.98 -6 38 C-6.99 38.33 -7.98 38.66 -9 39 C-9.33 39.99 -9.66 40.98 -10 42 C-13 44 -13 44 -16 44 C-16 45.32 -16 46.64 -16 48 C-16.99 48 -17.98 48 -19 48 C-19.66 49.32 -20.32 50.64 -21 52 C-21.66 52 -22.32 52 -23 52 C-23 52.66 -23 53.32 -23 54 C-23.66 54.17 -23.66 54.17 -27 55 C-27 55.66 -27 56.32 -27 57 C-25.68 56.34 -24.36 55.68 -23 55 C-23.31 55.76 -23.62 56.53 -23.94 57.31 C-25.35 60.89 -26 63.09 -26 67 C-26.66 67.66 -27.32 68.32 -28 69 C-27.01 69.66 -26.02 70.32 -25 71 C-24.31 73.12 -24.31 73.12 -24 75 C-22.68 75.33 -21.36 75.66 -20 76 C-20.33 76.66 -20.66 77.32 -21 78 C-20.01 78 -19.02 78 -18 78 C-18 78.66 -18 79.32 -18 80 C-19.98 80 -21.96 80 -24 80 C-24.33 79.01 -24.66 78.02 -25 77 C-27 74.12 -28.12 73.98 -31.69 73.31 C-32.78 73.21 -33.87 73.11 -35 73 C-34.01 72.34 -33.02 71.68 -32 71 C-37.54 70.63 -37.54 70.63 -39.88 72.5 C-40.25 73 -40.62 73.49 -41 74 C-39.68 75.32 -38.36 76.64 -37 78 C-37.99 78 -38.98 78 -40 78 C-40 78.66 -40 79.32 -40 80 C-39.34 80 -38.68 80 -38 80 C-37.67 81.32 -37.34 82.64 -37 84 C-37.66 84 -38.32 84 -39 84 C-39 84.66 -39 85.32 -39 86 C-38.05 86.21 -37.1 86.41 -36.12 86.62 C-33 88 -33 88 -31.56 90.88 C-31.04 93.79 -30.96 95.29 -32 98 C-32.33 97.84 -32.33 97.84 -34 97 C-34.33 96.01 -34.66 95.02 -35 94 C-35.99 94 -36.98 94 -38 94 C-38 92.68 -38 91.36 -38 90 C-40 87.75 -40 87.75 -42 86 C-41.67 85.34 -41.34 84.68 -41 84 C-42.32 84 -43.64 84 -45 84 C-44.67 82.68 -44.34 81.36 -44 80 C-45.32 79.67 -46.64 79.34 -48 79 C-47.83 78.5 -47.83 78.5 -47 76 C-48.32 75.67 -49.64 75.34 -51 75 C-50.67 74.34 -50.34 73.68 -50 73 C-50.5 72.84 -50.5 72.84 -53 72 C-52.01 72 -51.02 72 -50 72 C-50 71.34 -50 70.68 -50 70 C-51.32 69.67 -52.64 69.34 -54 69 C-54 68.34 -54 67.68 -54 67 C-53.01 67 -52.02 67 -51 67 C-51 66.34 -51 65.68 -51 65 C-51.5 64.84 -51.5 64.84 -54 64 C-53.34 62.68 -52.68 61.36 -52 60 C-52.66 59.67 -53.32 59.34 -54 59 C-53.67 58.34 -53.34 57.68 -53 57 C-52.34 57 -51.68 57 -51 57 C-51 56.34 -51 55.68 -51 55 C-51.66 55 -52.32 55 -53 55 C-53 54.34 -53 53.68 -53 53 C-53.66 52.67 -54.32 52.34 -55 52 C-54.67 51.34 -54.34 50.68 -54 50 C-54.66 50 -55.32 50 -56 50 C-56.33 48.68 -56.66 47.36 -57 46 C-58.65 45.67 -60.3 45.34 -62 45 C-62 44.01 -62 43.02 -62 42 C-62.99 42 -63.98 42 -65 42 C-65.33 40.68 -65.66 39.36 -66 38 C-67.32 37.67 -68.64 37.34 -70 37 C-69.67 36.01 -69.34 35.02 -69 34 C-69 34.66 -69 35.32 -69 36 C-67.02 36 -65.04 36 -63 36 C-63 36.66 -63 37.32 -63 38 C-62.01 38 -61.02 38 -60 38 C-60 39.32 -60 40.64 -60 42 C-59.01 42.33 -58.02 42.66 -57 43 C-55.67 44.67 -54.33 46.33 -53 48 C-52.5 48.16 -52.5 48.16 -50 49 C-49 52 -49 52 -50 55 C-47.75 55.05 -45.5 55.09 -43.25 55.12 C-42 55.15 -40.74 55.17 -39.45 55.2 C-36.27 55.02 -34.63 54.69 -32 53 C-32 52.34 -32 51.68 -32 51 C-30.02 51 -28.04 51 -26 51 C-26 50.34 -26 49.68 -26 49 C-24.02 49 -22.04 49 -20 49 C-20.33 48.01 -20.66 47.02 -21 46 C-20.34 46 -19.68 46 -19 46 C-19.66 44.68 -20.32 43.36 -21 42 C-20.18 41.84 -20.18 41.84 -16 41 C-16.33 40.84 -16.33 40.84 -18 40 C-18 39.34 -18 38.68 -18 38 C-15.69 37.67 -13.38 37.34 -11 37 C-10.67 35.68 -10.34 34.36 -10 33 C-9.34 33 -8.68 33 -8 33 C-7.86 32.4 -7.71 31.8 -7.56 31.19 C-7.11 29.44 -6.57 27.71 -6 26 C-4.35 26 -2.7 26 -1 26 C-0.34 24.02 0.32 22.04 1 20 C1.76 19.96 2.53 19.92 3.31 19.88 C6 19 6 19 7.81 16.19 C9 13 9 13 9 9 C8.34 9 7.68 9 7 9 C7 7.68 7 6.36 7 5 C5.68 5 4.36 5 3 5 C2.88 4.36 2.75 3.72 2.62 3.06 C2.52 2.72 2.52 2.72 2 1 C1.67 0.84 1.67 0.84 0 0 Z " fill="#EFD4AC" transform="translate(339,205)"/>
    </g><g id="obj_00_scene__road_06__p2" class="obj_00_scene__road_06" data-label="road_06">
      <path d="M0 0 C0 0.66 0 1.32 0 2 C0.99 2.66 1.98 3.32 3 4 C3 4.66 3 5.32 3 6 C4.32 6.33 5.64 6.66 7 7 C6.67 7.17 6.67 7.17 5 8 C6.32 8.66 7.64 9.32 9 10 C9 10.66 9 11.32 9 12 C9.99 12.33 10.98 12.66 12 13 C11.01 13 10.02 13 9 13 C9 13.66 9 14.32 9 15 C11.64 15.33 14.28 15.66 17 16 C17 16.66 17 17.32 17 18 C15.35 18.33 13.7 18.66 12 19 C12.99 19.66 13.98 20.32 15 21 C14.67 21.66 14.34 22.32 14 23 C14.99 23.33 15.98 23.66 17 24 C17.17 24.82 17.17 24.82 18 29 C15.69 29.33 13.38 29.66 11 30 C11 30.99 11 31.98 11 33 C12.65 33 14.3 33 16 33 C16 33.33 16 33.66 16 34 C13.69 34 11.38 34 9 34 C9 34.99 9 35.98 9 37 C9.99 37 10.98 37 12 37 C12 37.66 12 38.32 12 39 C10.02 39 8.04 39 6 39 C6 39.66 6 40.32 6 41 C6.66 41.33 7.32 41.66 8 42 C7.18 42.17 7.18 42.17 3 43 C3 43.99 3 44.98 3 46 C2.01 46 1.02 46 0 46 C0 46.66 0 47.32 0 48 C1.98 48 3.96 48 6 48 C5.67 48.66 5.34 49.32 5 50 C4.34 50 3.68 50 3 50 C3 50.66 3 51.32 3 52 C1.35 52 -0.3 52 -2 52 C-2 52.66 -2 53.32 -2 54 C-3.32 54 -4.64 54 -6 54 C-6 54.66 -6 55.32 -6 56 C-4.35 56 -2.7 56 -1 56 C-2.32 56.66 -3.64 57.32 -5 58 C-4.67 58.33 -4.34 58.66 -4 59 C-4 59.66 -4 60.32 -4 61 C-4.91 60.98 -5.81 60.96 -6.75 60.94 C-9.43 60.99 -11.47 61.22 -14 62 C-13.67 61.4 -13.34 60.8 -13 60.19 C-12 58 -12 58 -12 55 C-13.98 55 -15.96 55 -18 55 C-14.25 53 -14.25 53 -12 53 C-12 52.34 -12 51.68 -12 51 C-11.01 51 -10.02 51 -9 51 C-9 50.34 -9 49.68 -9 49 C-8.34 49 -7.68 49 -7 49 C-5 45.25 -5 45.25 -5 43 C-6.32 43 -7.64 43 -9 43 C-9 42.34 -9 41.68 -9 41 C-5.37 41 -1.74 41 2 41 C2 40.34 2 39.68 2 39 C0.35 38.67 -1.3 38.34 -3 38 C-2.68 37.95 -2.68 37.95 -1.06 37.69 C-0.38 37.46 0.3 37.23 1 37 C1.33 36.01 1.66 35.02 2 34 C2.99 34 3.98 34 5 34 C5 33.34 5 32.68 5 32 C4.34 32 3.68 32 3 32 C3 31.01 3 30.02 3 29 C3.66 29 4.32 29 5 29 C5 28.34 5 27.68 5 27 C6.15 26.83 6.15 26.83 12 26 C12 25.34 12 24.68 12 24 C11.42 23.88 10.85 23.75 10.25 23.62 C7.98 22.99 6.07 22.11 4 21 C4 19.35 4 17.7 4 16 C2.68 15.67 1.36 15.34 0 15 C0 14.34 0 13.68 0 13 C1.32 13 2.64 13 4 13 C4 12.34 4 11.68 4 11 C3.01 10.67 2.02 10.34 1 10 C0.01 9.34 -0.98 8.68 -2 8 C-1.67 7.34 -1.34 6.68 -1 6 C-2.98 5.34 -4.96 4.68 -7 4 C-7 3.34 -7 2.68 -7 2 C-4.35 0.54 -3.11 0 0 0 Z " fill="#DFBB86" transform="translate(326,285)"/>
      <path d="M0 0 C0.66 0.33 1.32 0.66 2 1 C2 1.66 2 2.32 2 3 C2.69 2.67 3.38 2.33 4.1 1.99 C10.36 -0.14 17.66 1.14 23.75 3.38 C26 5 26 5 27 8 C27.75 8.03 28.5 8.05 29.27 8.08 C37.41 8.55 37.41 8.55 40.69 11.06 C41.12 11.7 41.55 12.34 42 13 C40.68 13 39.36 13 38 13 C38 13.66 38 14.32 38 15 C37.34 15 36.68 15 36 15 C36 15.66 36 16.32 36 17 C36.99 17.33 37.98 17.66 39 18 C39 18.33 39 18.66 39 19 C36.03 19 33.06 19 30 19 C30.33 18.34 30.66 17.68 31 17 C31.66 17 32.32 17 33 17 C32.01 16.01 31.02 15.02 30 14 C29.63 14.47 29.26 14.95 28.88 15.44 C26.37 17.52 24.18 17.65 21 18 C21 19.98 21 21.96 21 24 C20.34 24 19.68 24 19 24 C19 24.66 19 25.32 19 26 C18.34 26 17.68 26 17 26 C17 24.35 17 22.7 17 21 C15.68 21.33 14.36 21.66 13 22 C13.33 23.32 13.66 24.64 14 26 C6.87 26.35 1.53 25.96 -5 23 C-5 22.34 -5 21.68 -5 21 C-4.01 21 -3.02 21 -2 21 C-2 20.34 -2 19.68 -2 19 C-3.65 19 -5.3 19 -7 19 C-7 18.34 -7 17.68 -7 17 C-7.76 16.88 -8.53 16.75 -9.31 16.62 C-12 16 -12 16 -15 14 C-11.37 14 -7.74 14 -4 14 C-3.67 14.66 -3.34 15.32 -3 16 C-0.94 16.62 -0.94 16.62 1 17 C1 17.66 1 18.32 1 19 C2.32 19.33 3.64 19.66 5 20 C4.67 19.01 4.34 18.02 4 17 C7.9 15.09 10.18 13.99 14.56 14.06 C18.87 13.98 20.73 12.73 24 10 C24.33 9.01 24.66 8.02 25 7 C22.69 7.33 20.38 7.66 18 8 C18 7.34 18 6.68 18 6 C17.01 5.67 16.02 5.34 15 5 C15 5.66 15 6.32 15 7 C12.36 7 9.72 7 7 7 C7 6.34 7 5.68 7 5 C6.24 5.33 5.47 5.66 4.69 6 C2 7 2 7 -1 7 C-0.67 4.69 -0.34 2.38 0 0 Z " fill="#CDAD78" transform="translate(135,264)"/>
      <path d="M0 0 C3.3 0 6.6 0 10 0 C10.85 5.08 11.09 9.85 11 15 C12 14 12 14 12.1 10.84 C12.09 9.55 12.07 8.26 12.06 6.94 C12.05 5.65 12.04 4.36 12.04 3.03 C12.02 2.03 12.01 1.03 12 0 C12.66 0 13.32 0 14 0 C14.19 2.6 14.38 5.21 14.56 7.81 C14.62 8.55 14.67 9.29 14.73 10.05 C14.96 13.37 15.06 15.81 14 19 C14 19.99 14 20.98 14 22 C13.2 22.12 12.39 22.25 11.56 22.38 C10.72 22.58 9.87 22.79 9 23 C8.67 23.66 8.34 24.32 8 25 C8.74 25.1 9.49 25.21 10.25 25.31 C13.22 26.05 14.81 26.89 17 29 C17 29.99 17 30.98 17 32 C15.68 32 14.36 32 13 32 C13 32.99 13 33.98 13 35 C12.23 35.31 11.46 35.63 10.66 35.95 C9.66 36.38 8.66 36.81 7.62 37.25 C6.63 37.67 5.63 38.09 4.6 38.52 C1.82 40.1 1.05 41.03 0 44 C-0.66 44 -1.32 44 -2 44 C-2 42.68 -2 41.36 -2 40 C-3.32 39.84 -3.32 39.84 -10 39 C-9.34 38.84 -9.34 38.84 -6 38 C-6 37.34 -6 36.68 -6 36 C-5.61 35.84 -5.61 35.84 -3.63 35.01 C-2.62 34.57 -1.61 34.14 -0.56 33.69 C0.45 33.26 1.46 32.83 2.5 32.39 C5 31 5 31 6 28 C4.02 27.34 2.04 26.68 0 26 C0.66 25.67 1.32 25.34 2 25 C2 24.34 2 23.68 2 23 C-0.31 22.67 -2.62 22.34 -5 22 C-5.33 20.02 -5.66 18.04 -6 16 C-5.01 16.66 -4.02 17.32 -3 18 C-3 17.01 -3 16.02 -3 15 C-2.34 15 -1.68 15 -1 15 C-1 14.34 -1 13.68 -1 13 C0.98 12.67 2.96 12.34 5 12 C5 10.02 5 8.04 5 6 C3.35 6.33 1.7 6.66 0 7 C0 4.69 0 2.38 0 0 Z " fill="#E9D0A9" transform="translate(304,64)"/>
      <path d="M0 0 C0.17 0.33 0.17 0.33 1 2 C0.34 2.33 0.34 2.33 -3 4 C-1.68 4.66 -0.36 5.32 1 6 C0.01 7.65 -0.98 9.3 -2 11 C-1.34 11.66 -0.68 12.32 0 13 C-1.32 13 -2.64 13 -4 13 C-4 13.99 -4 14.98 -4 16 C-4.33 16.17 -4.33 16.17 -6 17 C-5.83 17.33 -5.83 17.33 -5 19 C-5.99 19.33 -6.98 19.66 -8 20 C-7.34 20.66 -6.68 21.32 -6 22 C-8.31 22.99 -10.62 23.98 -13 25 C-12.83 25.33 -12.83 25.33 -12 27 C-15.63 27.33 -19.26 27.66 -23 28 C-23 28.66 -23 29.32 -23 30 C-22.34 30.33 -21.68 30.66 -21 31 C-21.66 32.98 -22.32 34.96 -23 37 C-25.97 37 -28.94 37 -32 37 C-31.96 37.78 -31.92 38.57 -31.88 39.38 C-32 42 -32 42 -34 44 C-36.6 44.2 -36.6 44.2 -39.62 44.12 C-40.63 44.11 -41.63 44.09 -42.66 44.07 C-43.05 44.06 -43.05 44.06 -45 44 C-42.35 42.54 -41.11 42 -38 42 C-38.26 41.79 -38.26 41.79 -39.56 40.75 C-40.04 40.17 -40.51 39.6 -41 39 C-40.59 36.89 -40.59 36.89 -40 35 C-39.36 34.89 -38.72 34.78 -38.07 34.67 C-37.24 34.51 -36.41 34.35 -35.56 34.19 C-34.74 34.04 -33.92 33.89 -33.07 33.73 C-32.38 33.49 -31.7 33.25 -31 33 C-30.67 32.01 -30.34 31.02 -30 30 C-29.34 29.67 -28.68 29.34 -28 29 C-28.66 28.34 -29.32 27.68 -30 27 C-29 26 -29 26 -25.44 25.94 C-24.3 25.96 -23.17 25.98 -22 26 C-22 25.34 -22 24.68 -22 24 C-22.66 23.67 -23.32 23.34 -24 23 C-22.02 22.67 -20.04 22.34 -18 22 C-18.33 21.34 -18.66 20.68 -19 20 C-18.67 19.34 -18.34 18.68 -18 18 C-17.01 18 -16.02 18 -15 18 C-15 17.01 -15 16.02 -15 15 C-14.4 14.88 -13.8 14.75 -13.19 14.62 C-11 14 -11 14 -8 12 C-8.17 11.5 -8.17 11.5 -9 9 C-8.01 9 -7.02 9 -6 9 C-6.66 7.02 -7.32 5.04 -8 3 C-5.53 -0.12 -3.89 -0.32 0 0 Z " fill="#DAB57E" transform="translate(312,303)"/>
      <path d="M0 0 C3.3 0.66 6.6 1.32 10 2 C10 2.66 10 3.32 10 4 C11.2 3.67 12.39 3.34 13.62 3 C17.17 2.12 20.33 1.66 24 2 C24.99 2.66 25.98 3.32 27 4 C27 4.66 27 5.32 27 6 C25.02 6 23.04 6 21 6 C24.3 6.33 27.6 6.66 31 7 C29.68 8.32 28.36 9.64 27 11 C28.32 11.66 29.64 12.32 31 13 C30.67 13.99 30.34 14.98 30 16 C28.68 16 27.36 16 26 16 C26 16.66 26 17.32 26 18 C24.68 17.67 23.36 17.34 22 17 C22.66 17 23.32 17 24 17 C23.67 16.34 23.34 15.68 23 15 C22.67 15.33 22.34 15.66 22 16 C19.98 16.07 17.96 16.08 15.94 16.06 C14.83 16.05 13.73 16.04 12.59 16.04 C11.74 16.02 10.88 16.01 10 16 C9.67 14.68 9.34 13.36 9 12 C7.02 12.33 5.04 12.66 3 13 C3.02 11.87 3.04 10.73 3.06 9.56 C3 6 3 6 2 5 C1.34 6.32 0.68 7.64 0 9 C-0.82 8.67 -0.82 8.67 -5 7 C-5 5.68 -5 4.36 -5 3 C-3.35 2.67 -1.7 2.34 0 2 C0 1.34 0 0.68 0 0 Z " fill="#B9A268" transform="translate(386,135)"/>
      <path d="M0 0 C0.33 0.66 0.66 1.32 1 2 C2.98 2 4.96 2 7 2 C7 2.66 7 3.32 7 4 C7.99 4 8.98 4 10 4 C10 5.32 10 6.64 10 8 C10.99 8.33 11.98 8.66 13 9 C14.33 10.67 15.67 12.33 17 14 C17.99 14.33 18.98 14.66 20 15 C21 18 21 18 20 21 C21.32 21 22.64 21 24 21 C24 21.66 24 22.32 24 23 C23.34 23 22.68 23 22 23 C22 23.66 22 24.32 22 25 C22.99 25 23.98 25 25 25 C24.67 27.31 24.34 29.62 24 32 C24.66 32 25.32 32 26 32 C26 32.66 26 33.32 26 34 C25.67 34.17 25.67 34.17 24 35 C24 35.66 24 36.32 24 37 C24.66 37.33 25.32 37.66 26 38 C25.67 38.66 25.34 39.32 25 40 C25.95 40.1 26.9 40.21 27.88 40.31 C31 41 31 41 33 44 C32.01 44 31.02 44 30 44 C30 44.66 30 45.32 30 46 C30.66 46 31.32 46 32 46 C32.17 46.66 32.17 46.66 33 50 C32.34 50 31.68 50 31 50 C31 50.66 31 51.32 31 52 C31.95 52.21 32.9 52.41 33.88 52.62 C37 54 37 54 38.44 56.88 C38.96 59.79 39.04 61.29 38 64 C37.67 63.83 37.67 63.83 36 63 C35.67 62.01 35.34 61.02 35 60 C34.01 60 33.02 60 32 60 C32 58.68 32 57.36 32 56 C30 53.75 30 53.75 28 52 C28.33 51.34 28.66 50.68 29 50 C27.68 50 26.36 50 25 50 C25.33 48.68 25.66 47.36 26 46 C24.68 45.67 23.36 45.34 22 45 C22.33 44.01 22.66 43.02 23 42 C21.68 41.67 20.36 41.34 19 41 C19.33 40.34 19.66 39.68 20 39 C19.5 38.83 19.5 38.83 17 38 C17.99 38 18.98 38 20 38 C20 37.34 20 36.68 20 36 C18.68 35.67 17.36 35.34 16 35 C16 34.34 16 33.68 16 33 C16.99 33 17.98 33 19 33 C19 32.34 19 31.68 19 31 C18.01 30.67 17.02 30.34 16 30 C16.66 28.68 17.32 27.36 18 26 C17.34 25.67 16.68 25.34 16 25 C16.33 24.34 16.66 23.68 17 23 C17.66 23 18.32 23 19 23 C19 22.34 19 21.68 19 21 C18.34 21 17.68 21 17 21 C17 20.34 17 19.68 17 19 C16.34 18.67 15.68 18.34 15 18 C15.33 17.34 15.66 16.68 16 16 C15.34 16 14.68 16 14 16 C13.67 14.68 13.34 13.36 13 12 C11.35 11.67 9.7 11.34 8 11 C8 10.01 8 9.02 8 8 C7.01 8 6.02 8 5 8 C4.67 6.68 4.34 5.36 4 4 C2.68 3.67 1.36 3.34 0 3 C0 2.01 0 1.02 0 0 Z " fill="#DFBC87" transform="translate(269,239)"/>
      <path d="M0 0 C3.5 0.65 5.99 2.12 9 4 C10.33 4.68 11.66 5.35 13 6 C12.34 6.33 11.68 6.66 11 7 C11 7.99 11 8.98 11 10 C11.66 10.33 12.32 10.66 13 11 C13.62 13.56 13.62 13.56 14 16 C13.67 16.16 13.67 16.16 12 17 C9 21.5 9 21.5 9 24 C7.68 24 6.36 24 5 24 C5.17 24.5 5.17 24.5 6 27 C1.25 30 1.25 30 -1 30 C-1 31.32 -1 32.64 -1 34 C-1.82 34.16 -1.82 34.16 -6 35 C-6 35.99 -6 36.98 -6 38 C-6.5 38.16 -6.5 38.16 -9 39 C-9.33 39.99 -9.66 40.98 -10 42 C-13 44 -13 44 -16 44 C-16 45.32 -16 46.64 -16 48 C-16.99 48 -17.98 48 -19 48 C-19.66 49.32 -20.32 50.64 -21 52 C-21.66 52 -22.32 52 -23 52 C-23 52.66 -23 53.32 -23 54 C-23.66 54.17 -23.66 54.17 -27 55 C-27 54.34 -27 53.68 -27 53 C-27.66 53 -28.32 53 -29 53 C-29 52.34 -29 51.68 -29 51 C-28.01 51 -27.02 51 -26 51 C-26 50.34 -26 49.68 -26 49 C-24.02 49 -22.04 49 -20 49 C-20.17 48.5 -20.17 48.5 -21 46 C-20.34 46 -19.68 46 -19 46 C-19.66 44.68 -20.32 43.36 -21 42 C-20.18 41.84 -20.18 41.84 -16 41 C-16.66 40.67 -17.32 40.34 -18 40 C-18 39.34 -18 38.68 -18 38 C-16.85 37.84 -16.85 37.84 -11 37 C-10.67 35.68 -10.34 34.36 -10 33 C-9.34 33 -8.68 33 -8 33 C-7.86 32.4 -7.71 31.8 -7.56 31.19 C-7.11 29.44 -6.57 27.71 -6 26 C-4.35 26 -2.7 26 -1 26 C-0.34 24.02 0.32 22.04 1 20 C1.76 19.96 2.53 19.92 3.31 19.88 C6 19 6 19 7.81 16.19 C9 13 9 13 9 9 C8.34 9 7.68 9 7 9 C7 7.68 7 6.36 7 5 C5.68 5 4.36 5 3 5 C2.88 4.36 2.75 3.72 2.62 3.06 C2.42 2.38 2.21 1.7 2 1 C1.34 0.67 0.68 0.34 0 0 Z " fill="#E5C493" transform="translate(339,205)"/>
      <path d="M0 0 C-0.33 0.33 -0.66 0.66 -1 1 C1.31 1.99 3.62 2.98 6 4 C5.87 5.83 5.87 5.83 5 8 C2.35 9.48 2.35 9.48 -0.94 10.75 C-2.02 11.18 -3.1 11.61 -4.21 12.05 C-7 13 -7 13 -9 13 C-9 13.66 -9 14.32 -9 15 C-9.97 15.29 -10.94 15.58 -11.94 15.88 C-15 17 -15 17 -16 19 C-16.33 18.01 -16.66 17.02 -17 16 C-16.01 16 -15.02 16 -14 16 C-14 15.34 -14 14.68 -14 14 C-12.68 14 -11.36 14 -10 14 C-10 12.68 -10 11.36 -10 10 C-11.59 10.6 -13.17 11.2 -14.75 11.81 C-15.63 12.15 -16.51 12.49 -17.42 12.83 C-19.97 13.99 -21.92 15.14 -24 17 C-24.33 17.99 -24.66 18.98 -25 20 C-25.99 20 -26.98 20 -28 20 C-27.67 22.97 -27.34 25.94 -27 29 C-26.34 29 -25.68 29 -25 29 C-25 29.66 -25 30.32 -25 31 C-24.36 31.1 -23.72 31.21 -23.06 31.31 C-22.72 31.43 -22.72 31.43 -21 32 C-20.67 32.99 -20.34 33.98 -20 35 C-18.35 35 -16.7 35 -15 35 C-15 35.66 -15 36.32 -15 37 C-13.01 37.2 -11.03 37.39 -9.04 37.59 C-7 38 -7 38 -4 40 C-6.75 41.38 -7.92 40.6 -10.81 39.69 C-11.7 39.41 -12.59 39.13 -13.51 38.84 C-16.05 37.98 -18.54 37.07 -21 36 C-21 35.34 -21 34.68 -21 34 C-21.99 34 -22.98 34 -24 34 C-24 33.34 -24 32.68 -24 32 C-25.32 31.67 -26.64 31.34 -28 31 C-28 30.01 -28 29.02 -28 28 C-28.99 28 -29.98 28 -31 28 C-32.25 21.38 -32.25 21.38 -30 18 C-29.34 18 -28.68 18 -28 18 C-28 17.34 -28 16.68 -28 16 C-27.34 16 -26.68 16 -26 16 C-26 15.34 -26 14.68 -26 14 C-18.6 9.92 -11.12 7.28 -3 5 C-5.14 2.86 -6.13 2.57 -9 2 C-9 1.34 -9 0.68 -9 0 C-5.62 -0.84 -3.33 -1.11 0 0 Z " fill="#E2C598" transform="translate(123,150)"/>
      <path d="M0 0 C2.28 0.02 4.52 0.12 6.8 0.33 C6.8 1.65 6.8 2.97 6.8 4.33 C7.46 4.33 8.12 4.33 8.8 4.33 C9.92 9.08 9.92 9.08 8.8 11.33 C8.14 11.33 7.48 11.33 6.8 11.33 C6.47 12.65 6.14 13.97 5.8 15.33 C4.15 15.33 2.5 15.33 0.8 15.33 C0.65 15.95 0.51 16.57 0.36 17.21 C-0.32 19.79 -0.67 20.99 -2.95 22.46 C-5.51 23.45 -7.48 23.48 -10.2 23.33 C-10.53 22.01 -10.86 20.69 -11.2 19.33 C-10.54 19 -9.88 18.67 -9.2 18.33 C-9.2 17.34 -9.2 16.35 -9.2 15.33 C-8.21 15.33 -7.22 15.33 -6.2 15.33 C-6.2 14.34 -6.2 13.35 -6.2 12.33 C-5.54 12 -4.88 11.67 -4.2 11.33 C-4.2 10.34 -4.2 9.35 -4.2 8.33 C-3.54 8.33 -2.88 8.33 -2.2 8.33 C-2.2 7.67 -2.2 7.01 -2.2 6.33 C-3.19 6 -4.18 5.67 -5.2 5.33 C-4.06 2.3 -3.37 0.51 0 0 Z " fill="#F0D8B5" transform="translate(339.203125,209.66796875)"/>
      <path d="M0 0 C3.72 0.51 6.73 1.12 10 3 C10 3.66 10 4.32 10 5 C10.99 5 11.98 5 13 5 C13 5.66 13 6.32 13 7 C14.65 7 16.3 7 18 7 C17.67 7.99 17.34 8.98 17 10 C17.66 10.33 18.32 10.66 19 11 C19 11.66 19 12.32 19 13 C18.34 13 17.68 13 17 13 C17.33 14.32 17.66 15.64 18 17 C17.01 17 16.02 17 15 17 C15 17.99 15 18.98 15 20 C14.01 20 13.02 20 12 20 C12.33 21.32 12.66 22.64 13 24 C12.01 24 11.02 24 10 24 C10 24.99 10 25.98 10 27 C7.69 27 5.38 27 3 27 C1.88 31.75 1.88 31.75 3 34 C0.69 34 -1.62 34 -4 34 C-4.33 32.68 -4.66 31.36 -5 30 C-3.35 29.67 -1.7 29.34 0 29 C0 28.01 0 27.02 0 26 C0.66 26 1.32 26 2 26 C2 25.34 2 24.68 2 24 C3.32 23.67 4.64 23.34 6 23 C6 22.01 6 21.02 6 20 C7.32 19.67 8.64 19.34 10 19 C9.67 17.02 9.34 15.04 9 13 C9.66 12.67 10.32 12.34 11 12 C10.34 11.34 9.68 10.68 9 10 C9.33 9.34 9.66 8.68 10 8 C9.34 8 8.68 8 8 8 C8 7.01 8 6.02 8 5 C7.42 4.92 6.85 4.84 6.25 4.75 C3.38 3.79 2 2.22 0 0 Z " fill="#E3C393" transform="translate(318,205)"/>
      <path d="M0 0 C0.99 0.16 0.99 0.16 6 1 C6 1.66 6 2.32 6 3 C6.38 3.07 6.38 3.07 8.31 3.44 C11 4 11 4 14 5 C14 5.66 14 6.32 14 7 C15.09 7.12 16.19 7.25 17.31 7.38 C21 8 21 8 24 10 C24 10.66 24 11.32 24 12 C25.65 12 27.3 12 29 12 C29.33 12.66 29.66 13.32 30 14 C30.99 14.33 31.98 14.66 33 15 C33 15.99 33 16.98 33 18 C33.6 18.12 34.2 18.25 34.81 18.38 C37.86 19.25 39.78 20.78 42 23 C42.99 23 43.98 23 45 23 C45 22.34 45 21.68 45 21 C45.99 20.67 46.98 20.34 48 20 C48 18.35 48 16.7 48 15 C48.99 15.33 49.98 15.66 51 16 C50.67 16.66 50.34 17.32 50 18 C50.66 18.33 51.32 18.66 52 19 C50.68 20.32 49.36 21.64 48 23 C48.17 23.5 48.17 23.5 49 26 C48.34 26 47.68 26 47 26 C47 26.66 47 27.32 47 28 C43.37 28 39.74 28 36 28 C36 27.34 36 26.68 36 26 C36.66 25.67 37.32 25.34 38 25 C36.68 24.67 35.36 24.34 34 24 C34 23.01 34 22.02 34 21 C32.02 21 30.04 21 28 21 C28.33 19.35 28.66 17.7 29 16 C28.44 15.9 27.89 15.79 27.31 15.69 C25 15 25 15 22.81 13.62 C19.06 11.46 15.13 10.27 11 9 C11 8.34 11 7.68 11 7 C10.01 6.67 9.02 6.34 8 6 C8 5.34 8 4.68 8 4 C7.01 3.84 7.01 3.84 2 3 C2 2.34 2 1.68 2 1 C1.34 0.67 0.68 0.34 0 0 Z " fill="#E0BF8E" transform="translate(258,221)"/>
      <path d="M0 0 C10.56 0.96 10.56 0.96 15 2 C15 2.66 15 3.32 15 4 C16.09 4.1 17.19 4.21 18.31 4.31 C23.69 4.97 28.81 6.48 34 8 C32 10 32 10 29.38 10.12 C28.59 10.08 27.81 10.04 27 10 C27 10.66 27 11.32 27 12 C23.42 13.24 20.66 12.75 17 12 C17 11.34 17 10.68 17 10 C15.58 9.83 14.17 9.66 12.75 9.5 C11.96 9.41 11.17 9.31 10.36 9.22 C8 9 8 9 4 9 C3.34 8.34 2.68 7.68 2 7 C2.33 6.34 2.66 5.68 3 5 C2.18 4.67 2.18 4.67 -2 3 C-1.34 2.67 -0.68 2.34 0 2 C0 1.34 0 0.68 0 0 Z " fill="#B9A367" transform="translate(189,211)"/>
      <path d="M0 0 C1.65 0.66 1.65 0.66 10 4 C10 4.66 10 5.32 10 6 C10.54 6.1 11.07 6.21 11.62 6.31 C14.84 7.24 17.22 8.08 20 10 C20.85 12.76 20.9 15.07 21 18 C17.36 20.42 14.64 20.3 10.44 20.25 C9.75 20.26 9.07 20.27 8.36 20.27 C3.25 20.25 3.25 20.25 1 18 C2 17 2 17 4.29 16.9 C4.74 16.91 4.74 16.91 7.06 16.94 C7.98 16.95 8.9 16.96 9.85 16.96 C10.56 16.98 11.27 16.99 12 17 C12 16.01 12 15.02 12 14 C12.66 14 13.32 14 14 14 C14 13.34 14 12.68 14 12 C11.69 12.33 9.38 12.66 7 13 C6.67 11.68 6.34 10.36 6 9 C5.01 9 4.02 9 3 9 C3 8.01 3 7.02 3 6 C2.34 6 1.68 6 1 6 C0.67 5.34 0.34 4.68 0 4 C-0.66 4 -1.32 4 -2 4 C-2 3.34 -2 2.68 -2 2 C-1.34 2 -0.68 2 0 2 C0 1.34 0 0.68 0 0 Z " fill="#BBA567" transform="translate(325,125)"/>
      <path d="M0 0 C6.65 0.68 13.01 2.05 19.5 3.62 C20.04 3.75 20.04 3.75 22.76 4.41 C34.28 7.24 45.65 10.56 57 14 C57 14.66 57 15.32 57 16 C57.66 16 58.32 16 59 16 C59 16.66 59 17.32 59 18 C60.98 18.33 62.96 18.66 65 19 C65 19.66 65 20.32 65 21 C65.66 21.16 65.66 21.16 69 22 C68.34 22.66 67.68 23.32 67 24 C67 23.34 67 22.68 67 22 C66.46 21.94 66.46 21.94 63.75 21.62 C60.62 21.1 58.67 20.6 56 19 C56 18.34 56 17.68 56 17 C55.27 16.9 54.55 16.8 53.8 16.7 C47.17 15.72 41.09 14.2 34.79 11.9 C31.87 10.96 29.03 10.43 26 10 C26 9.34 26 8.68 26 8 C25.34 7.88 24.67 7.76 23.99 7.63 C19.42 6.77 15.32 5.75 11 4 C9.82 3.86 8.65 3.71 7.44 3.56 C3.98 3 2.53 2.33 0 0 Z " fill="#E5C79A" transform="translate(201,206)"/>
      <path d="M0 0 C1.65 0 3.3 0 5 0 C4.67 1.32 4.34 2.64 4 4 C5.32 4.33 6.64 4.66 8 5 C5.69 5.66 3.38 6.32 1 7 C1 7.66 1 8.32 1 9 C4.3 9 7.6 9 11 9 C11.66 10.32 12.32 11.64 13 13 C12.67 13.99 12.34 14.98 12 16 C10.02 16 8.04 16 6 16 C5.67 16.66 5.34 17.32 5 18 C4.01 17.67 3.02 17.34 2 17 C2 16.01 2 15.02 2 14 C-2.62 14 -7.24 14 -12 14 C-11.67 13.34 -11.34 12.68 -11 12 C-8.93 11.59 -8.93 11.59 -6.44 11.38 C-6.02 11.34 -6.02 11.34 -3.93 11.15 C-3.61 11.12 -3.61 11.12 -2 11 C-2 10.34 -2 9.68 -2 9 C-1.34 9 -0.68 9 0 9 C0 8.34 0 7.68 0 7 C-0.66 6.67 -1.32 6.34 -2 6 C-1.01 5.67 -0.02 5.34 1 5 C1 2 1 2 0 0 Z " fill="#EBCFA4" transform="translate(307,238)"/>
      <path d="M0 0 C2.97 0.33 5.94 0.66 9 1 C9 1.66 9 2.32 9 3 C9.3 3.03 9.3 3.03 10.79 3.18 C14.91 3.62 18.96 4.09 23 5 C23 5.66 23 6.32 23 7 C23.62 7.04 24.23 7.07 24.87 7.11 C30.99 7.59 36.27 8.84 42 11 C42.99 11.33 43.98 11.66 45 12 C45 12.66 45 13.32 45 14 C48.3 14.33 51.6 14.66 55 15 C55 15.99 55 16.98 55 18 C58.23 19.74 61.51 20.89 65 22 C65 23.32 65 24.64 65 26 C63.35 25.67 61.7 25.34 60 25 C60 24.01 60 23.02 60 22 C58.35 22 56.7 22 55 22 C55 21.01 55 20.02 55 19 C54.28 18.87 53.55 18.75 52.8 18.62 C50.08 18.02 47.7 17.19 45.12 16.12 C44.25 15.77 43.38 15.41 42.48 15.05 C40.44 14.18 38.4 13.28 36.38 12.38 C33.28 11.11 30.38 10.3 27.14 9.56 C25 9 25 9 21.31 7.57 C16.95 5.91 12.55 4.83 8 3.81 C7.61 3.72 7.61 3.72 5.65 3.28 C3.77 2.85 1.88 2.42 0 2 C0 1.34 0 0.68 0 0 Z " fill="#E2C291" transform="translate(204,213)"/>
    </g><g id="obj_00_scene__road_06__p3" class="obj_00_scene__road_06" data-label="road_06">
      <path d="M0 0 C0.33 0.66 0.66 1.32 1 2 C3.97 1.34 6.94 0.68 10 0 C10.17 0.5 10.17 0.5 11 3 C10.31 3.14 9.63 3.27 8.92 3.41 C7.96 3.61 6.99 3.8 6 4 C4.91 4.21 3.82 4.43 2.7 4.65 C1.56 4.89 0.42 5.13 -0.75 5.38 C-1.32 5.49 -1.32 5.49 -4.23 6.09 C-5.15 6.39 -6.06 6.69 -7 7 C-7.33 7.99 -7.66 8.98 -8 10 C-6.02 10.66 -4.04 11.32 -2 12 C-2.66 13.32 -3.32 14.64 -4 16 C-0.7 16 2.6 16 6 16 C6 16.66 6 17.32 6 18 C6.66 18 7.32 18 8 18 C7.67 16.35 7.34 14.7 7 13 C10 11 10 11 14 11 C13.83 10.5 13.83 10.5 13 8 C13.66 8 14.32 8 15 8 C15 8.66 15 9.32 15 10 C16.32 10 17.64 10 19 10 C17.51 14.7 17.51 14.7 14.94 16.19 C14.3 16.46 13.66 16.72 13 17 C12.67 17.66 12.34 18.32 12 19 C11.34 19 10.68 19 10 19 C9.83 19.5 9.83 19.5 9 22 C7.82 21.98 6.65 21.96 5.44 21.94 C1.53 21.93 -2.14 22.36 -6 23 C-6.08 22.48 -6.08 22.48 -6.5 19.88 C-7.71 15.41 -10.6 13.64 -14.32 11.16 C-14.87 10.78 -15.43 10.4 -16 10 C-16 9.67 -16 9.34 -16 9 C-16.76 8.88 -17.53 8.75 -18.31 8.62 C-21 8 -21 8 -24 6 C-24 5.34 -24 4.68 -24 4 C-24.99 3.67 -25.98 3.34 -27 3 C-20.38 2.88 -20.38 2.88 -17 4 C-15.1 4.02 -15.1 4.02 -12.99 3.88 C-12.61 3.85 -12.61 3.85 -10.69 3.73 C-9.91 3.68 -9.12 3.62 -8.31 3.56 C-7.52 3.51 -6.72 3.46 -5.9 3.4 C-3.93 3.27 -1.97 3.14 0 3 C0 2.01 0 1.02 0 0 Z " fill="#B8A266" transform="translate(357,195)"/>
      <path d="M0 0 C0 -0.66 0 -1.32 0 -2 C0.66 -2 1.32 -2 2 -2 C2.25 -1.38 2.5 -0.76 2.75 -0.12 C4.24 2.42 5.25 3.03 8 4 C9.32 4 10.64 4 12 4 C11.67 5.32 11.34 6.64 11 8 C12.32 8.33 13.64 8.66 15 9 C14.67 9.66 14.34 10.32 14 11 C9.71 11 5.42 11 1 11 C1 11.66 1 12.32 1 13 C0.34 13 -0.32 13 -1 13 C-1 11.35 -1 9.7 -1 8 C-2.65 8.33 -4.3 8.66 -6 9 C-6 9.66 -6 10.32 -6 11 C-7.48 10.89 -8.96 10.76 -10.44 10.62 C-11.26 10.56 -12.08 10.49 -12.93 10.41 C-13.62 10.28 -14.3 10.14 -15 10 C-15.33 9.34 -15.66 8.68 -16 8 C-15.34 8 -14.68 8 -14 8 C-14 7.34 -14 6.68 -14 6 C-15.32 6 -16.64 6 -18 6 C-18 5.34 -18 4.68 -18 4 C-16.68 3.67 -15.36 3.34 -14 3 C-14.99 2.83 -14.99 2.83 -20 2 C-20.33 2.66 -20.66 3.32 -21 4 C-22.32 3.01 -23.64 2.02 -25 1 C-17.58 -4.56 -8.44 -1.58 0 0 Z " fill="#BCA472" transform="translate(525,312)"/>
      <path d="M0 0 C0.5 0.33 0.5 0.33 3 2 C4.66 2.38 6.32 2.73 8 3 C8.33 4.32 8.66 5.64 9 7 C10.32 7.33 11.64 7.66 13 8 C12.34 9.65 11.68 11.3 11 13 C14.63 12.34 18.26 11.68 22 11 C22 10.34 22 9.68 22 9 C21.18 8.83 21.18 8.83 17 8 C17.66 6.68 18.32 5.36 19 4 C20.65 4 22.3 4 24 4 C24 4.99 24 5.98 24 7 C25.65 8.03 27.32 9.03 29 10 C29 10.66 29 11.32 29 12 C26.52 12.5 26.52 12.5 14 15 C15.32 15.99 16.64 16.98 18 18 C17.67 18.66 17.34 19.32 17 20 C14.69 20.56 14.69 20.56 12 21 C10.66 21.32 9.33 21.66 8 22 C7.67 21.34 7.34 20.68 7 20 C8.32 19.34 9.64 18.68 11 18 C9.35 17.67 7.7 17.34 6 17 C6 16.39 5.99 15.77 5.99 15.14 C5.87 12.63 5.68 10.42 5 8 C1.94 5.94 1.94 5.94 -1 5 C-0.67 3.35 -0.34 1.7 0 0 Z " fill="#ECCDA1" transform="translate(301,286)"/>
      <path d="M0 0 C0.66 0 1.32 0 2 0 C2 0.66 2 1.32 2 2 C3.32 1.34 4.64 0.68 6 0 C5.69 0.76 5.38 1.53 5.06 2.31 C3.65 5.89 3 8.09 3 12 C2.34 12.66 1.68 13.32 1 14 C1.99 14.66 2.98 15.32 4 16 C4.69 18.12 4.69 18.12 5 20 C6.32 20.33 7.64 20.66 9 21 C8.67 21.66 8.34 22.32 8 23 C8.99 23 9.98 23 11 23 C11 23.66 11 24.32 11 25 C9.02 25 7.04 25 5 25 C4.67 24.01 4.34 23.02 4 22 C2 19.12 0.88 18.98 -2.69 18.31 C-3.78 18.21 -4.87 18.11 -6 18 C-5.01 17.34 -4.02 16.68 -3 16 C-3.33 15.01 -3.66 14.02 -4 13 C-4.66 13 -5.32 13 -6 13 C-6 12.34 -6 11.68 -6 11 C-6.99 10.34 -7.98 9.68 -9 9 C-7.35 8.34 -5.7 7.68 -4 7 C-4.33 6.34 -4.66 5.68 -5 5 C-3.02 4.34 -1.04 3.68 1 3 C0.34 2.34 -0.32 1.68 -1 1 C-0.67 0.67 -0.34 0.34 0 0 Z " fill="#E1BF8C" transform="translate(310,260)"/>
    </g><g id="obj_00_scene__road_06__p4" class="obj_00_scene__road_06" data-label="road_06">
      <path d="M0 0 C3.3 0 6.6 0 10 0 C10.85 5.08 11.09 9.85 11 15 C12 14 12 14 12.1 10.84 C12.09 9.55 12.07 8.26 12.06 6.94 C12.05 5.65 12.04 4.36 12.04 3.03 C12.02 2.03 12.01 1.03 12 0 C12.66 0 13.32 0 14 0 C14.19 2.6 14.38 5.21 14.56 7.81 C14.62 8.55 14.67 9.29 14.73 10.05 C14.96 13.37 15.06 15.81 14 19 C14 19.99 14 20.98 14 22 C11.36 22.66 8.72 23.32 6 24 C6 22.35 6 20.7 6 19 C7.32 18.67 8.64 18.34 10 18 C10 17.34 10 16.68 10 16 C8.68 16 7.36 16 6 16 C6 15.34 6 14.68 6 14 C4.68 14 3.36 14 2 14 C2.04 14.93 2.08 15.86 2.12 16.81 C2 20 2 20 0 23 C-1.65 22.67 -3.3 22.34 -5 22 C-5.33 20.02 -5.66 18.04 -6 16 C-5.5 16.33 -5.5 16.33 -3 18 C-3 17.01 -3 16.02 -3 15 C-2.34 15 -1.68 15 -1 15 C-1 14.34 -1 13.68 -1 13 C0.98 12.67 2.96 12.34 5 12 C5 10.02 5 8.04 5 6 C3.35 6.33 1.7 6.66 0 7 C0 4.69 0 2.38 0 0 Z " fill="#D4BB98" transform="translate(304,64)"/>
      <path d="M0 0 C0.33 0.66 0.66 1.32 1 2 C-3.11 5.97 -6.03 8.71 -12 9 C-12 9.99 -12 10.98 -12 12 C-12.66 12 -13.32 12 -14 12 C-13.67 12.99 -13.34 13.98 -13 15 C-13.66 15.33 -13.66 15.33 -17 17 C-17 19.64 -17 22.28 -17 25 C-15.35 25 -13.7 25 -12 25 C-11.88 25.62 -11.75 26.24 -11.62 26.88 C-11 29 -11 29 -9 31 C-9.33 31.66 -9.66 32.32 -10 33 C-9.43 33.06 -9.43 33.06 -6.56 33.38 C-5.39 33.58 -4.21 33.79 -3 34 C-2.67 34.66 -2.34 35.32 -2 36 C-5.93 36.25 -8.27 35.68 -11.69 33.75 C-12.07 33.54 -12.07 33.54 -14.01 32.48 C-16.23 30.83 -16.88 29.48 -18 27 C-18.66 26.67 -19.32 26.34 -20 26 C-20 25.34 -20 24.68 -20 24 C-20.66 24 -21.32 24 -22 24 C-21.67 22.68 -21.34 21.36 -21 20 C-21.66 20 -22.32 20 -23 20 C-23 18.68 -23 17.36 -23 16 C-23.66 15.34 -24.32 14.68 -25 14 C-24.2 13.88 -23.39 13.75 -22.56 13.62 C-21.72 13.42 -20.87 13.21 -20 13 C-19.67 12.34 -19.34 11.68 -19 11 C-18.01 11 -17.02 11 -16 11 C-15.67 10.01 -15.34 9.02 -15 8 C-16.65 7.67 -18.3 7.34 -20 7 C-19.34 5.68 -18.68 4.36 -18 3 C-17.01 3 -16.02 3 -15 3 C-15 3.66 -15 4.32 -15 5 C-12.36 5 -9.72 5 -7 5 C-7 4.34 -7 3.68 -7 3 C-4.69 2.01 -2.38 1.02 0 0 Z " fill="#E0C292" transform="translate(310,162)"/>
    </g></svg>