<svg version="1.1" xmlns="http://www.w3.org/2000/svg" width="600" height="347"><rect width="600" height="347" fill="white"/><g id="obj_00_scene__sand_36" class="obj_00_scene__sand_36" data-label="sand_36">
      <path d="M0 0 C0.17 0.33 0.17 0.33 1 2 C2.01 1.81 3.02 1.63 4.06 1.44 C7.98 1 11.14 1.29 15 2 C14.67 3.98 14.34 5.96 14 8 C14.66 8 15.32 8 16 8 C16.33 7.34 16.66 6.68 17 6 C17.17 6.83 17.17 6.83 18 11 C18.54 10.63 19.07 10.26 19.62 9.88 C22.95 8.65 24.81 9.7 28 11 C27.01 11.33 26.02 11.66 25 12 C25 12.66 25 13.32 25 14 C26.77 14.03 28.54 14.05 30.31 14.06 C31.3 14.07 32.28 14.09 33.3 14.1 C36 14 36 14 39 13 C39 12.34 39 11.68 39 11 C39.66 11 40.32 11 41 11 C41.33 9.02 41.66 7.04 42 5 C42.99 5.17 42.99 5.17 48 6 C48 6.99 48 7.98 48 9 C49.32 9.66 50.64 10.32 52 11 C51.78 12.86 51.78 12.86 51 15 C49 16.27 49 16.27 46.56 17.25 C45.76 17.59 44.96 17.92 44.13 18.27 C42 19 42 19 40 19 C40 19.66 40 20.32 40 21 C38.87 21.45 37.73 21.91 36.56 22.38 C33 24 33 24 32 26 C31.34 26 30.68 26 30 26 C30.16 26.33 30.16 26.33 31 28 C33.06 28.62 33.06 28.62 35 29 C35 29.66 35 30.32 35 31 C35.66 31.33 36.32 31.66 37 32 C34.36 32.33 31.72 32.66 29 33 C28.67 32.34 28.34 31.68 28 31 C28.66 31 29.32 31 30 31 C30 30.34 30 29.68 30 29 C29.01 29 28.02 29 27 29 C27 29.66 27 30.32 27 31 C24.36 31 21.72 31 19 31 C19.31 29.12 19.31 29.12 20 27 C20.99 26.34 21.98 25.68 23 25 C22.01 24.67 21.02 24.34 20 24 C20 23.34 20 22.68 20 22 C19.55 22.5 19.09 22.99 18.62 23.5 C17 25 17 25 15 25 C14.34 23.35 13.68 21.7 13 20 C11.68 20 10.36 20 9 20 C7.25 18.5 7.25 18.5 6 17 C5.83 17.5 5.83 17.5 5 20 C1.7 19.67 -1.6 19.34 -5 19 C-5 19.66 -5 20.32 -5 21 C-2.36 21 0.28 21 3 21 C2.83 21.5 2.83 21.5 2 24 C2 23.34 2 22.68 2 22 C-2.62 22 -7.24 22 -12 22 C-12 21.34 -12 20.68 -12 20 C-13.92 20.14 -15.83 20.29 -17.75 20.44 C-18.82 20.52 -19.88 20.6 -20.98 20.68 C-23.44 20.94 -25.64 21.32 -28 22 C-27.34 22.33 -26.68 22.66 -26 23 C-26 23.66 -26 24.32 -26 25 C-31.22 25.18 -35.07 24.97 -40 23 C-39.67 21.68 -39.34 20.36 -39 19 C-31.49 18.06 -24.51 18.06 -17 19 C-19.31 18.34 -21.62 17.68 -24 17 C-24 16.34 -24 15.68 -24 15 C-22.35 15 -20.7 15 -19 15 C-19 14.34 -19 13.68 -19 13 C-17.35 12.34 -15.7 11.68 -14 11 C-14 11.66 -14 12.32 -14 13 C-13.01 13.16 -13.01 13.16 -8 14 C-8 14.66 -8 15.32 -8 16 C-6.68 15.67 -5.36 15.34 -4 15 C-4 14.34 -4 13.68 -4 13 C-2.02 12.01 -0.04 11.02 2 10 C1.01 10 0.02 10 -1 10 C-1 9.34 -1 8.68 -1 8 C-2.65 8 -4.3 8 -6 8 C-5.67 7.34 -5.34 6.68 -5 6 C-4.01 6 -3.02 6 -2 6 C-2 4.68 -2 3.36 -2 2 C-1.34 2 -0.68 2 0 2 C0 1.34 0 0.68 0 0 Z " fill="#B8A166" transform="translate(258,81)"/>
      <path d="M0 0 C0.66 0 1.32 0 2 0 C6 5.29 6 5.29 6 9 C5.34 9 4.68 9 4 9 C4.33 10.65 4.66 12.3 5 14 C5.78 13.51 6.57 13.01 7.38 12.5 C12.05 10.57 16.01 10.23 21 11 C23.4 12.1 24.96 13.28 27 15 C26.67 16.65 26.34 18.3 26 20 C25.01 20 24.02 20 23 20 C22.67 21.65 22.34 23.3 22 25 C22.64 24.99 22.64 24.99 25.88 24.94 C29.75 24.87 29.75 24.87 32 26 C31.67 26.99 31.34 27.98 31 29 C28.69 29.33 26.38 29.66 24 30 C23.9 30.6 23.79 31.2 23.69 31.81 C22.91 34.28 21.93 35.32 20 37 C19.01 36.01 18.02 35.02 17 34 C15.88 38.75 15.88 38.75 17 41 C15.68 41 14.36 41 13 41 C12.67 41.66 12.34 42.32 12 43 C10.68 42.67 9.36 42.34 8 42 C8.14 42.58 8.29 43.16 8.44 43.75 C8.96 45.83 9.48 47.92 10 50 C9.67 50.16 9.67 50.16 8 51 C8 50.01 8 49.02 8 48 C6.68 48 5.36 48 4 48 C3.67 48.99 3.34 49.98 3 51 C2.34 50.67 1.68 50.34 1 50 C1.5 49.28 1.99 48.56 2.5 47.81 C4.08 44.85 4.28 43.29 4 40 C7.51 38.4 10.14 37.78 14 38 C14 36.68 14 35.36 14 34 C13.32 34.19 12.65 34.38 11.95 34.58 C4.77 36.36 4.77 36.36 1.38 34.75 C-0.71 30.58 -0.31 26.58 0 22 C1.65 22 3.3 22 5 22 C5.33 20.35 5.66 18.7 6 17 C4.68 17 3.36 17 2 17 C2 17.66 2 18.32 2 19 C1.34 19 0.68 19 0 19 C0 14.71 0 10.42 0 6 C0.66 5.67 1.32 5.34 2 5 C1.34 3.35 0.68 1.7 0 0 Z " fill="#E3CA96" transform="translate(518,7)"/>
    </g><g id="obj_00_scene__sand_36__p2" class="obj_00_scene__sand_36" data-label="sand_36">
      <path d="M0 0 C1.32 0.33 2.64 0.66 4 1 C4 1.66 4 2.32 4 3 C5.32 3 6.64 3 8 3 C9.32 3 10.64 3 12 3 C12.5 3.99 12.5 3.99 15 9 C9.25 13 9.25 13 7 13 C7 11.35 7 9.7 7 8 C6.34 8 5.68 8 5 8 C4.88 8.66 4.75 9.32 4.62 10 C3.85 13.7 2.93 17.34 2 21 C1.34 21 0.68 21 0 21 C0.38 22.94 0.38 22.94 1 25 C1.66 25.33 2.32 25.66 3 26 C3 26.66 3 27.32 3 28 C3.66 28 4.32 28 5 28 C5 28.99 5 29.98 5 31 C6.32 30.67 7.64 30.34 9 30 C9.86 32.41 10.09 33.69 9.38 36.19 C8 38 8 38 5.38 38.75 C4.59 38.83 3.81 38.91 3 39 C3 39.66 3 40.32 3 41 C2.34 41 1.68 41 1 41 C0.88 40.2 0.75 39.39 0.62 38.56 C0.42 37.72 0.21 36.87 0 36 C-0.66 35.67 -1.32 35.34 -2 35 C-1.34 33.68 -0.68 32.36 0 31 C-0.66 31 -1.32 31 -2 31 C-5 24.25 -5 24.25 -5 22 C-6.32 21.67 -7.64 21.34 -9 21 C-9 20.34 -9 19.68 -9 19 C-9.33 19.66 -9.66 20.32 -10 21 C-12.64 21 -15.28 21 -18 21 C-18.33 19.35 -18.66 17.7 -19 16 C-18.01 16 -17.02 16 -16 16 C-15.67 15.34 -15.34 14.68 -15 14 C-13.68 14.66 -12.36 15.32 -11 16 C-10.67 15.34 -10.34 14.68 -10 14 C-9.34 14 -8.68 14 -8 14 C-7.67 14.5 -7.67 14.5 -6 17 C-5.73 16.03 -5.46 15.06 -5.19 14.06 C-4.99 13.56 -4.99 13.56 -4 11 C-3.01 10.67 -2.02 10.34 -1 10 C0.69 8.56 0.69 8.56 2 7 C2 6.34 2 5.68 2 5 C1.34 4.34 0.68 3.68 0 3 C0 2.01 0 1.02 0 0 Z " fill="#BAB09E" transform="translate(240,47)"/>
      <path d="M0 0 C1.32 0.66 2.64 1.32 4 2 C4 3.32 4 4.64 4 6 C4.64 5.99 4.64 5.99 7.88 5.94 C11.75 5.88 11.75 5.88 14 7 C13.67 7.99 13.34 8.98 13 10 C10.69 10.33 8.38 10.66 6 11 C5.9 11.6 5.79 12.2 5.69 12.81 C4.91 15.28 3.93 16.32 2 18 C1.01 17.01 0.02 16.02 -1 15 C-2.12 19.75 -2.12 19.75 -1 22 C-2.32 22 -3.64 22 -5 22 C-5.33 22.66 -5.66 23.32 -6 24 C-7.32 23.67 -8.64 23.34 -10 23 C-9.86 23.58 -9.71 24.16 -9.56 24.75 C-9.04 26.83 -8.52 28.92 -8 31 C-8.66 31.33 -9.32 31.66 -10 32 C-10 31.01 -10 30.02 -10 29 C-11.32 29 -12.64 29 -14 29 C-14.33 29.99 -14.66 30.98 -15 32 C-15.66 31.67 -16.32 31.34 -17 31 C-16.5 30.28 -16.01 29.56 -15.5 28.81 C-13.92 25.85 -13.72 24.29 -14 21 C-10.49 19.4 -7.86 18.78 -4 19 C-4 17.68 -4 16.36 -4 15 C-7.3 15.66 -10.6 16.32 -14 17 C-16 13 -16 13 -15.62 10.75 C-15.42 10.17 -15.21 9.59 -15 9 C-11.28 8.8 -10.23 8.85 -7 11 C-7 10.01 -7 9.02 -7 8 C-5.68 8 -4.36 8 -3 8 C-2.67 7.34 -2.34 6.68 -2 6 C-1.01 5.67 -0.02 5.34 1 5 C0.01 4.34 -0.98 3.68 -2 3 C-1.34 2.01 -0.68 1.02 0 0 Z " fill="#C5BAA5" transform="translate(536,26)"/>
    </g><g id="obj_00_scene__sand_36__p3" class="obj_00_scene__sand_36" data-label="sand_36">
      <path d="M0 0 C0.99 0.33 1.98 0.66 3 1 C3 2.65 3 4.3 3 6 C2.34 6 1.68 6 1 6 C1 7.32 1 8.64 1 10 C0.34 10 -0.32 10 -1 10 C-1 11.32 -1 12.64 -1 14 C-3.64 14 -6.28 14 -9 14 C-9 13.34 -9 12.68 -9 12 C-10.09 12.19 -11.19 12.37 -12.31 12.56 C-16 13 -16 13 -19 12 C-19 11.34 -19 10.68 -19 10 C-18.01 10 -17.02 10 -16 10 C-16 9.34 -16 8.68 -16 8 C-16.66 8 -17.32 8 -18 8 C-18.33 7.01 -18.66 6.02 -19 5 C-15.7 5 -12.4 5 -9 5 C-9 5.66 -9 6.32 -9 7 C-6.03 6.01 -3.06 5.02 0 4 C-0.33 3.34 -0.66 2.68 -1 2 C-0.67 1.34 -0.34 0.68 0 0 Z " fill="#BCA778" transform="translate(228,72)"/>
    </g></svg>