<svg version="1.1" xmlns="http://www.w3.org/2000/svg" width="600" height="347"><rect width="600" height="347" fill="white"/><g id="obj_00_scene__road_05" class="obj_00_scene__road_05" data-label="road_05">
      <path d="M0 0 C1.65 0 3.3 0 5 0 C5.16 0.33 5.16 0.33 6 2 C6.99 2 7.98 2 9 2 C9.33 2.16 9.33 2.16 11 3 C11.37 14.43 11.37 14.43 9 20 C8.84 20.5 8.84 20.5 8 23 C7.34 23 6.68 23 6 23 C5.34 24.32 4.68 25.64 4 27 C4.99 27.66 5.98 28.32 7 29 C6.67 29.66 6.34 30.32 6 31 C3.83 30.49 2 30 0 29 C0 30.98 0 32.96 0 35 C1.65 34.34 3.3 33.68 5 33 C5 33.99 5 34.98 5 36 C3.02 36.66 1.04 37.32 -1 38 C-0.67 38.21 -0.67 38.21 1 39.25 C1.33 39.54 1.33 39.54 3 41 C3 45 3 45 2 47 C0.02 47.73 -1.98 48.4 -4 49 C-2.02 49.33 -0.04 49.66 2 50 C2 49.34 2 48.68 2 48 C4.97 47.34 7.94 46.68 11 46 C9.72 47.71 8.38 49.37 7 51 C6.34 51 5.68 51 5 51 C5 51.66 5 52.32 5 53 C4.31 52.88 3.63 52.76 2.92 52.64 C2.02 52.51 1.12 52.38 0.19 52.25 C-0.71 52.11 -1.6 51.97 -2.52 51.83 C-3.34 51.88 -4.16 51.94 -5 52 C-6.62 53.94 -6.62 53.94 -8 56 C-11.19 56.75 -11.19 56.75 -14 57 C-13.83 56.67 -13.83 56.67 -13 55 C-12.34 55 -11.68 55 -11 55 C-11 54.34 -11 53.68 -11 53 C-12.15 53.16 -12.15 53.16 -18 54 C-18.33 55.32 -18.66 56.64 -19 58 C-18.22 58.31 -17.43 58.62 -16.62 58.94 C-14 60 -14 60 -12 61 C-12 61.66 -12 62.32 -12 63 C-11.01 63.16 -11.01 63.16 -6 64 C-6 64.66 -6 65.32 -6 66 C-4.99 66.1 -3.98 66.21 -2.94 66.31 C1.12 67.02 4.26 68.3 8 70 C8.92 70.29 9.83 70.58 10.77 70.88 C14.36 72.12 17.69 73.72 21.06 75.44 C21.66 75.74 22.26 76.04 22.88 76.35 C29.87 79.88 29.87 79.88 33 82 C33 82.66 33 83.32 33 84 C33.5 84.16 33.5 84.16 36 85 C36.75 86.94 36.75 86.94 37 89 C36.67 89.66 36.34 90.32 36 91 C35.64 93.33 35.3 95.66 35 98 C33.35 98 31.7 98 30 98 C30 98.66 30 99.32 30 100 C29.34 100 28.68 100 28 100 C27.84 100.5 27.84 100.5 27 103 C26.34 102.34 25.68 101.68 25 101 C24.67 101.66 24.34 102.32 24 103 C23.34 103 22.68 103 22 103 C21.85 103.32 21.85 103.32 21.06 104.94 C20 107 20 107 19 108 C17.33 108.04 15.67 108.04 14 108 C13.84 108.5 13.84 108.5 13 111 C11.68 111 10.36 111 9 111 C9 111.66 9 112.32 9 113 C7.68 113 6.36 113 5 113 C3.98 113.98 2.98 114.98 2 116 C0.67 116.35 -0.66 116.69 -2 117 C-2.33 117.66 -2.66 118.32 -3 119 C-4.32 119 -5.64 119 -7 119 C-7 120.32 -7 121.64 -7 123 C-8.98 123 -10.96 123 -13 123 C-13 124.32 -13 125.64 -13 127 C-13.66 127.66 -14.32 128.32 -15 129 C-15.75 131 -15.75 131 -16 133 C-15.67 133.33 -15.67 133.33 -14 135 C-14.33 135.33 -14.66 135.66 -15 136 C-14.4 136.29 -13.8 136.58 -13.19 136.88 C-11 138 -11 138 -8 140 C-8 140.66 -8 141.32 -8 142 C-4.77 143.74 -1.49 144.89 2 146 C2 146.99 2 147.98 2 149 C3.65 149 5.3 149 7 149 C7 149.99 7 150.98 7 152 C7.99 152 8.98 152 10 152 C10 152.66 10 153.32 10 154 C10.32 154.06 10.32 154.06 11.94 154.38 C12.62 154.58 13.3 154.79 14 155 C14.33 155.66 14.66 156.32 15 157 C15.5 157.33 15.5 157.33 18 159 C17.67 159.66 17.34 160.32 17 161 C18.98 161.33 20.96 161.66 23 162 C23.33 162.99 23.66 163.98 24 165 C24.66 165.66 25.32 166.32 26 167 C25.67 167.33 25.34 167.66 25 168 C26.65 168.66 28.3 169.32 30 170 C29.34 170.33 28.68 170.66 28 171 C28 171.66 28 172.32 28 173 C28.66 173 29.32 173 30 173 C30 173.66 30 174.32 30 175 C30.99 175.33 31.98 175.66 33 176 C32.67 176.33 32.34 176.66 32 177 C32.99 177.33 33.98 177.66 35 178 C34.67 178.99 34.34 179.98 34 181 C34.5 181.33 34.5 181.33 37 183 C37 183.66 37 184.32 37 185 C36.34 185 35.68 185 35 185 C35.33 185.66 35.66 186.32 36 187 C38.06 187.62 38.06 187.62 40 188 C40 188.99 40 189.98 40 191 C38.68 191 37.36 191 36 191 C36 191.66 36 192.32 36 193 C36.99 193 37.98 193 39 193 C39 193.66 39 194.32 39 195 C38.34 195 37.68 195 37 195 C37 195.66 37 196.32 37 197 C37.99 197 38.98 197 40 197 C40 196.34 40 195.68 40 195 C42.31 195.33 44.62 195.66 47 196 C47 195.34 47 194.68 47 194 C49.31 194 51.62 194 54 194 C54 193.34 54 192.68 54 192 C57.21 190.39 60.44 190.94 64 191 C64 190.34 64 189.68 64 189 C68.54 187.55 72.18 186.76 77 187 C77 186.34 77 185.68 77 185 C82.23 183.53 86.58 182.77 92 183 C92 182.34 92 181.68 92 181 C93.05 180.81 94.1 180.61 95.18 180.41 C96.6 180.15 98.02 179.89 99.44 179.62 C100.13 179.5 100.81 179.37 101.52 179.24 C105.12 178.57 108.7 177.85 112.27 177.03 C117.87 175.76 123.52 174.86 129.19 173.94 C130.24 173.76 131.3 173.59 132.38 173.41 C134.39 173.08 136.39 172.75 138.4 172.43 C141.27 171.96 144.13 171.48 147 171 C147 170.34 147 169.68 147 169 C149.91 167.74 151.8 167 155 167 C155.33 166.01 155.66 165.02 156 164 C156.99 164 157.98 164 159 164 C159 163.34 159 162.68 159 162 C159.66 162 160.32 162 161 162 C161.33 161.01 161.66 160.02 162 159 C162.66 159 163.32 159 164 159 C164 158.34 164 157.68 164 157 C181.21 148.27 181.21 148.27 189.68 146.53 C195.07 145.3 200.23 143.31 205.38 141.31 C209 140 209 140 212 140 C211 137 211 137 208 135 C207.81 131.37 207.81 131.37 208 128 C209.32 128 210.64 128 212 128 C213 131 213 131 212 134 C213.49 134.5 213.49 134.5 221 137 C221.33 138.65 221.66 140.3 222 142 C221.34 142 220.68 142 220 142 C220 142.66 220 143.32 220 144 C218.87 144.33 217.73 144.65 216.56 144.99 C215.04 145.43 213.52 145.87 212 146.31 C211.26 146.53 210.51 146.74 209.75 146.96 C205.37 148.23 201.1 149.66 196.84 151.3 C193.33 152.64 189.77 153.82 186.22 155.04 C184 156 184 156 183 158 C181.68 158 180.36 158 179 158 C179 158.66 179 159.32 179 160 C178.34 160 177.68 160 177 160 C177 160.66 177 161.32 177 162 C176.34 162 175.68 162 175 162 C174.67 163.65 174.34 165.3 174 167 C173.01 167 172.02 167 171 167 C171 167.66 171 168.32 171 169 C170.34 169 169.68 169 169 169 C169 169.66 169 170.32 169 171 C168.01 171 167.02 171 166 171 C166 171.66 166 172.32 166 173 C164.35 173.33 162.7 173.66 161 174 C161 174.66 161 175.32 161 176 C159.35 176 157.7 176 156 176 C156 176.66 156 177.32 156 178 C151.71 178.33 147.42 178.66 143 179 C143 179.66 143 180.32 143 181 C142.43 181.07 142.43 181.07 139.56 181.44 C136 182 136 182 135 183 C132.65 183.4 130.3 183.74 127.94 184.06 C127.29 184.15 127.29 184.15 124.03 184.6 C123.03 184.73 122.03 184.86 121 185 C121 185.66 121 186.32 121 187 C120.72 186.99 120.72 186.99 119.31 186.96 C114.1 186.9 109.16 187.25 104 188 C104 188.66 104 189.32 104 190 C100.37 190.33 96.74 190.66 93 191 C93 191.66 93 192.32 93 193 C91.02 193 89.04 193 87 193 C87 193.66 87 194.32 87 195 C86.07 195.28 85.15 195.55 84.19 195.84 C82.99 196.2 81.8 196.56 80.56 196.94 C79.37 197.3 78.17 197.66 76.94 198.03 C74 199 74 199 73 200 C71.33 200.04 69.67 200.04 68 200 C68 200.66 68 201.32 68 202 C65.36 202.33 62.72 202.66 60 203 C60 203.66 60 204.32 60 205 C59.2 205.12 58.39 205.25 57.56 205.38 C56.72 205.58 55.87 205.79 55 206 C54.67 206.66 54.34 207.32 54 208 C52 208.33 50 208.67 48 209 C47.67 209.66 47.34 210.32 47 211 C44.35 211.59 41.71 211.74 39 212 C39.33 212.99 39.66 213.98 40 215 C38.89 215.08 37.77 215.16 36.62 215.25 C33 216 33 216 31.56 218.06 C31.47 218.38 31.47 218.38 31 220 C30.01 220 29.02 220 28 220 C28.33 220.99 28.66 221.98 29 223 C28 224 28 224 25.44 224.06 C24.63 224.04 23.83 224.02 23 224 C23.33 225.32 23.66 226.64 24 228 C22.35 228.66 20.7 229.32 19 230 C19.66 230.66 20.32 231.32 21 232 C19.68 232 18.36 232 17 232 C17 232.66 17 233.32 17 234 C15.68 234.33 14.36 234.66 13 235 C13 235.66 13 236.32 13 237 C13.99 237.33 14.98 237.66 16 238 C15.34 238.33 15.34 238.33 12 240 C12 240.66 12 241.32 12 242 C11.01 242 10.02 242 9 242 C9 242.66 9 243.32 9 244 C9.66 244.33 10.32 244.66 11 245 C11.33 245.66 11.66 246.32 12 247 C10.68 247 9.36 247 8 247 C8 247.66 8 248.32 8 249 C7.34 249.33 6.68 249.66 6 250 C6.99 250.33 7.98 250.66 9 251 C9.81 252.94 9.81 252.94 10 255 C9.34 255.66 8.68 256.32 8 257 C8 257.66 8 258.32 8 259 C7.34 259 6.68 259 6 259 C6 259.66 6 260.32 6 261 C7.32 261.33 8.64 261.66 10 262 C10 262.66 10 263.32 10 264 C7.69 264.33 5.38 264.66 3 265 C3.33 265.66 3.66 266.32 4 267 C6.56 267.62 6.56 267.62 9 268 C8.01 268.33 7.02 268.66 6 269 C6 269.66 6 270.32 6 271 C7.65 271.33 9.3 271.66 11 272 C8 274 8 274 5 274 C5 274.66 5 275.32 5 276 C5.66 276 6.32 276 7 276 C6.67 277.65 6.34 279.3 6 281 C4.68 281 3.36 281 2 281 C2 281.66 2 282.32 2 283 C2.99 283.33 3.98 283.66 5 284 C5 284.99 5 285.98 5 287 C2.36 287.66 -0.28 288.32 -3 289 C-1.35 289.66 0.3 290.32 2 291 C0 293 0 293 -2.62 293.12 C-3.41 293.08 -4.19 293.04 -5 293 C-5 293.66 -5 294.32 -5 295 C-6.98 294.67 -8.96 294.34 -11 294 C-11 294.66 -11 295.32 -11 296 C-10.34 296.33 -9.68 296.66 -9 297 C-15.64 297.08 -22.28 297.13 -28.92 297.16 C-31.17 297.18 -33.43 297.2 -35.69 297.23 C-38.94 297.26 -42.18 297.28 -45.43 297.29 C-46.44 297.31 -47.45 297.32 -48.49 297.34 C-48.96 297.34 -48.96 297.34 -51.34 297.34 C-52.17 297.35 -53 297.35 -53.85 297.36 C-56.47 296.92 -57.35 296.02 -59 294 C-58.67 293.34 -58.34 292.68 -58 292 C-58.57 292.19 -59.14 292.39 -59.73 292.59 C-62.45 293.08 -63.73 292.61 -66.25 291.56 C-66.96 291.28 -67.66 290.99 -68.39 290.69 C-68.66 290.58 -68.66 290.58 -70 290 C-66.11 288.6 -62.77 289.3 -58.75 289.94 C-58.12 290.03 -58.12 290.03 -54.92 290.53 C-53.96 290.68 -52.99 290.84 -52 291 C-51.67 289.68 -51.34 288.36 -51 287 C-49.4 286.83 -47.79 286.67 -46.19 286.5 C-45.29 286.41 -44.4 286.31 -43.48 286.22 C-41 286 -41 286 -38 286 C-38 285.34 -38 284.68 -38 284 C-39.32 283.67 -40.64 283.34 -42 283 C-41.01 282.67 -40.02 282.34 -39 282 C-39.66 281.67 -40.32 281.34 -41 281 C-40.67 280.01 -40.34 279.02 -40 278 C-38.35 277.67 -36.7 277.34 -35 277 C-35.66 276.34 -36.32 275.68 -37 275 C-36.34 275 -35.68 275 -35 275 C-35 274.34 -35 273.68 -35 273 C-34.34 273 -33.68 273 -33 273 C-33 272.34 -33 271.68 -33 271 C-31.68 271 -30.36 271 -29 271 C-31.31 270.67 -33.62 270.34 -36 270 C-33.74 266.62 -32.64 266.4 -29 265 C-28.67 264.34 -28.34 263.68 -28 263 C-29.98 263 -31.96 263 -34 263 C-33.67 261.35 -33.34 259.7 -33 258 C-31.02 258 -29.04 258 -27 258 C-27 257.01 -27 256.02 -27 255 C-27.99 255 -28.98 255 -30 255 C-30.33 253.68 -30.66 252.36 -31 251 C-28.69 250.67 -26.38 250.34 -24 250 C-24 249.34 -24 248.68 -24 248 C-25.32 247.34 -26.64 246.68 -28 246 C-27.01 246 -26.02 246 -25 246 C-25 245.01 -25 244.02 -25 243 C-23.68 242.67 -22.36 242.34 -21 242 C-21.66 241.67 -22.32 241.34 -23 241 C-23 237.99 -21.06 237.06 -19 235 C-19 234.34 -19 233.68 -19 233 C-17.25 231.71 -17.25 231.71 -15 230.38 C-14.26 229.93 -13.51 229.48 -12.75 229.02 C-12.46 228.85 -12.46 228.85 -11 228 C-11.33 227.67 -11.33 227.67 -13 226 C-11.85 225.67 -11.85 225.67 -6 224 C-6 223.34 -6 222.68 -6 222 C-6.66 221.67 -7.32 221.34 -8 221 C-5.69 220.67 -3.38 220.34 -1 220 C-1 219.34 -1 218.68 -1 218 C-1.66 217.67 -2.32 217.34 -3 217 C-2 215 -2 215 1 213 C1.33 212.34 1.66 211.68 2 211 C4.06 210.38 4.06 210.38 6 210 C5.67 209.34 5.34 208.68 5 208 C5.99 207.34 6.98 206.68 8 206 C8.33 205.01 8.66 204.02 9 203 C10.32 203 11.64 203 13 203 C13 202.34 13 201.68 13 201 C12.34 200.67 11.68 200.34 11 200 C12.32 199.34 13.64 198.68 15 198 C15 197.34 15 196.68 15 196 C14.01 195.67 13.02 195.34 12 195 C12.33 194.34 12.66 193.68 13 193 C13.66 193 14.32 193 15 193 C15 192.34 15 191.68 15 191 C14.34 191 13.68 191 13 191 C13.33 189.68 13.66 188.36 14 187 C13.34 186.67 12.68 186.34 12 186 C12.33 185.01 12.66 184.02 13 183 C12.34 182.67 11.68 182.34 11 182 C11.33 180.68 11.66 179.36 12 178 C11.01 177.67 10.02 177.34 9 177 C9.33 176.01 9.66 175.02 10 174 C8.35 173.67 6.7 173.34 5 173 C5.33 171.35 5.66 169.7 6 168 C4.68 167.67 3.36 167.34 2 167 C2 166.01 2 165.02 2 164 C0.68 163.67 -0.64 163.34 -2 163 C-2 162.34 -2 161.68 -2 161 C-2.66 160.67 -2.66 160.67 -6 159 C-6 158.34 -6 157.68 -6 157 C-7.65 156.34 -9.3 155.68 -11 155 C-11 154.34 -11 153.68 -11 153 C-11.99 153 -12.98 153 -14 153 C-14 152.34 -14 151.68 -14 151 C-14.99 151 -15.98 151 -17 151 C-17 150.01 -17 149.02 -17 148 C-17.72 147.88 -18.44 147.75 -19.19 147.62 C-22.03 146.99 -24.42 146.36 -27 145 C-27.81 142.88 -27.81 142.88 -28 141 C-28.99 141 -29.98 141 -31 141 C-31 140.34 -31 139.68 -31 139 C-31.99 138.67 -32.98 138.34 -34 138 C-33.67 137.34 -33.34 136.68 -33 136 C-33.66 136 -34.32 136 -35 136 C-34.67 134.68 -34.34 133.36 -34 132 C-34.66 132 -35.32 132 -36 132 C-35.67 130.35 -35.34 128.7 -35 127 C-33.35 127 -31.7 127 -30 127 C-29.67 125.35 -29.34 123.7 -29 122 C-28.42 121.96 -27.85 121.92 -27.25 121.88 C-25 121 -25 121 -23.31 118.19 C-20.24 113.96 -16.92 112.52 -12 111 C-8.94 110.75 -8.94 110.75 -7 111 C-7 110.34 -7 109.68 -7 109 C-5.68 109 -4.36 109 -3 109 C-3 108.34 -3 107.68 -3 107 C-2.22 106.88 -1.43 106.75 -0.62 106.62 C2 106 2 106 4 104 C6.31 103.15 8.64 102.48 11 101.78 C13 101 13 101 14 99 C14.99 99 15.98 99 17 99 C17 98.34 17 97.68 17 97 C17.82 96.4 18.65 95.8 19.5 95.19 C22 93 22 93 22.44 90.59 C22 88 22 88 20.03 86.05 C19.2 85.48 18.36 84.9 17.5 84.31 C15.97 83.25 14.46 82.15 13 81 C13 80.34 13 79.68 13 79 C12.18 78.92 11.35 78.83 10.5 78.75 C6.84 77.97 4.18 76.66 0.9 74.92 C-1.36 73.83 -3.51 73.31 -6 73 C-6 72.34 -6 71.68 -6 71 C-6.72 70.87 -7.43 70.73 -8.17 70.6 C-10.94 70.01 -13.6 69.27 -16.31 68.44 C-17.2 68.17 -18.08 67.9 -18.99 67.62 C-19.65 67.42 -20.32 67.21 -21 67 C-21 66.34 -21 65.68 -21 65 C-23.97 64.34 -26.94 63.68 -30 63 C-30 62.01 -30 61.02 -30 60 C-30.66 60 -31.32 60 -32 60 C-32.33 59.01 -32.66 58.02 -33 57 C-31.31 54.31 -31.31 54.31 -29 52 C-27.68 52 -26.36 52 -25 52 C-25 51.34 -25 50.68 -25 50 C-24.22 49.67 -23.44 49.35 -22.63 49.01 C-21.62 48.57 -20.61 48.14 -19.56 47.69 C-18.55 47.26 -17.54 46.83 -16.5 46.39 C-14 45 -14 45 -13 42 C-14.98 41.34 -16.96 40.68 -19 40 C-19 39.34 -19 38.68 -19 38 C-19.8 37.79 -20.61 37.59 -21.44 37.38 C-22.28 36.92 -23.13 36.47 -24 36 C-24.81 32.88 -24.81 32.88 -25 30 C-24.01 30.66 -23.02 31.32 -22 32 C-22 31.01 -22 30.02 -22 29 C-21.34 29 -20.68 29 -20 29 C-20 28.34 -20 27.68 -20 27 C-18.02 26.67 -16.04 26.34 -14 26 C-14 24.02 -14 22.04 -14 20 C-15.65 20.33 -17.3 20.66 -19 21 C-19 18.69 -19 16.38 -19 14 C-14.33 12.79 -9.79 12.91 -5 13 C-3.53 15.94 -3.83 18.6 -3.81 21.88 C-3.8 23.11 -3.78 24.34 -3.77 25.62 C-3.98 28.74 -4.35 30.4 -6 33 C-5.34 33 -4.68 33 -4 33 C-4 33.66 -4 34.32 -4 35 C-3.34 35 -2.68 35 -2 35 C-2 31.37 -2 27.74 -2 24 C-0.68 23.67 0.64 23.34 2 23 C1.93 22.45 1.93 22.45 1.56 19.64 C1.37 18.18 1.19 16.71 1 15.25 C0.9 14.52 0.81 13.79 0.71 13.04 C0.28 9.65 0 6.42 0 3 C0.33 2.67 0.66 2.34 1 2 C0.84 1.67 0.84 1.67 0 0 Z " fill="#EACDA5" transform="translate(323,50)"/>
      <path d="M0 0 C0 0.66 0 1.32 0 2 C-3.64 4.43 -5.71 4.16 -10 4 C-10 4.66 -10 5.32 -10 6 C-8.02 6 -6.04 6 -4 6 C-4 6.66 -4 7.32 -4 8 C-6.31 8.33 -8.62 8.66 -11 9 C-11 9.99 -11 10.98 -11 12 C-10.34 12 -9.68 12 -9 12 C-9 12.66 -9 13.32 -9 14 C-7.68 14.33 -6.36 14.66 -5 15 C-8.09 16.76 -9.23 17 -13 17 C-13 17.66 -13 18.32 -13 19 C-12.03 19.12 -11.06 19.25 -10.06 19.38 C-9.05 19.58 -8.04 19.79 -7 20 C-6.83 20.33 -6.83 20.33 -6 22 C-6.66 22.99 -7.32 23.98 -8 25 C-9.32 25 -10.64 25 -12 25 C-11.83 25.33 -11.83 25.33 -11 27 C-10.01 27.33 -9.02 27.66 -8 28 C-8 28.66 -8 29.32 -8 30 C-8.62 30.08 -9.24 30.17 -9.88 30.25 C-12 31 -12 31 -13.25 32.88 C-14 35 -14 35 -14 38 C-11.69 38.66 -9.38 39.32 -7 40 C-7.17 40.33 -7.17 40.33 -8 42 C-10.32 42.41 -12.66 42.74 -15 43 C-12.69 43.66 -10.38 44.32 -8 45 C-8.17 45.33 -8.17 45.33 -9 47 C-12.47 48.16 -15.54 48.33 -19.19 48.56 C-20.46 48.65 -21.73 48.73 -23.04 48.82 C-24.02 48.88 -24.99 48.94 -26 49 C-22.04 49.66 -18.08 50.32 -14 51 C-14 51.66 -14 52.32 -14 53 C-14.32 53.14 -14.32 53.14 -15.94 53.88 C-18 55 -18 55 -19 57 C-19.99 57 -20.98 57 -22 57 C-21.67 57.99 -21.34 58.98 -21 60 C-23.65 61.46 -24.89 62 -28 62 C-27.67 63.32 -27.34 64.64 -27 66 C-39.54 66 -52.08 66 -65 66 C-61.58 63.72 -60.32 63.78 -56.31 63.88 C-55.32 63.89 -54.32 63.91 -53.3 63.93 C-52.54 63.95 -51.78 63.98 -51 64 C-51.36 63.98 -51.36 63.98 -53.15 63.85 C-54.07 63.78 -54.99 63.7 -55.94 63.62 C-56.85 63.56 -57.77 63.49 -58.71 63.41 C-59.47 63.28 -60.22 63.14 -61 63 C-61.33 62.34 -61.66 61.68 -62 61 C-60.85 60.83 -60.85 60.83 -55 60 C-54.67 59.01 -54.34 58.02 -54 57 C-51.36 57 -48.72 57 -46 57 C-46 56.34 -46 55.68 -46 55 C-45.34 55 -44.68 55 -44 55 C-44 54.34 -44 53.68 -44 53 C-43.34 53 -42.68 53 -42 53 C-41.67 50.69 -41.34 48.38 -41 46 C-40.34 46 -39.68 46 -39 46 C-39 45.01 -39 44.02 -39 43 C-37.35 42.34 -35.7 41.68 -34 41 C-34 39.68 -34 38.36 -34 37 C-34.66 36.67 -35.32 36.34 -36 36 C-35.5 35.4 -35.01 34.8 -34.5 34.19 C-33 32 -33 32 -33 29 C-34.65 29 -36.3 29 -38 29 C-35.69 26.69 -34.52 26.5 -31.38 25.88 C-30.56 25.71 -29.74 25.54 -28.9 25.37 C-28.27 25.25 -27.65 25.12 -27 25 C-27.99 24.34 -28.98 23.68 -30 23 C-29 20 -29 20 -26 18 C-26.66 17.01 -27.32 16.02 -28 15 C-26.68 15 -25.36 15 -24 15 C-24 14.01 -24 13.02 -24 12 C-23.34 11.34 -22.68 10.68 -22 10 C-22.17 9.67 -22.17 9.67 -23 8 C-21.85 7.5 -21.85 7.5 -16 5 C-16.17 4.67 -16.17 4.67 -17 3 C-16.01 3 -15.02 3 -14 3 C-14 2.01 -14 1.02 -14 0 C-14.66 -0.33 -15.32 -0.66 -16 -1 C-10.5 -2.33 -4.96 -3.18 0 0 Z " fill="#EDD3AD" transform="translate(333,281)"/>
      <path d="M0 0 C0.66 0 1.32 0 2 0 C2.14 0.78 2.29 1.57 2.44 2.38 C3 5 3 5 4 7 C3.01 7 2.02 7 1 7 C0.67 8.65 0.34 10.3 0 12 C-0.99 12.33 -1.98 12.66 -3 13 C-3 13.99 -3 14.98 -3 16 C-2.01 16 -1.02 16 0 16 C0 16.66 0 17.32 0 18 C0.66 18.33 1.32 18.66 2 19 C2 19.66 2 20.32 2 21 C4.31 21.33 6.62 21.66 9 22 C9 23.65 9 25.3 9 27 C9.93 27.14 10.86 27.29 11.81 27.44 C15.87 28.15 18.39 28.77 21 32 C21 32.99 21 33.98 21 35 C22.32 35 23.64 35 25 35 C25 35.66 25 36.32 25 37 C25.99 37 26.98 37 28 37 C28 37.66 28 38.32 28 39 C29.65 39.66 31.3 40.32 33 41 C32.34 41.66 31.68 42.32 31 43 C31.91 43.21 32.81 43.41 33.75 43.62 C37.79 45.33 38.83 47.27 41 51 C41.66 51.66 42.32 52.32 43 53 C42.67 53.16 42.67 53.16 41 54 C41.33 54.16 41.33 54.16 43 55 C43 55.66 43 56.32 43 57 C43.33 57.16 43.33 57.16 45 58 C43.85 58.16 43.85 58.16 38 59 C38 58.34 38 57.68 38 57 C37.01 57 36.02 57 35 57 C34.83 56.34 34.83 56.34 34 53 C32.35 53 30.7 53 29 53 C28.67 52.01 28.34 51.02 28 50 C24.94 48.81 24.94 48.81 22 48 C21.67 46.35 21.34 44.7 21 43 C20.34 43 19.68 43 19 43 C19 42.34 19 41.68 19 41 C18.01 41 17.02 41 16 41 C15.67 39.84 15.67 39.84 14 34 C13.24 34.04 12.47 34.08 11.69 34.12 C9 34 9 34 6 32 C5.01 31.67 4.02 31.34 3 31 C2.83 30.18 2.83 30.18 2 26 C0.68 26 -0.64 26 -2 26 C-2 25.34 -2 24.68 -2 24 C-2.99 23.67 -3.98 23.34 -5 23 C-5.33 22.34 -5.66 21.68 -6 21 C-8.56 20.38 -8.56 20.38 -11 20 C-11 18.02 -11 16.04 -11 14 C-12.32 13.34 -13.64 12.68 -15 12 C-14.34 12 -13.68 12 -13 12 C-13 11.34 -13 10.68 -13 10 C-12.22 9.92 -11.43 9.84 -10.62 9.75 C-9.76 9.5 -8.89 9.25 -8 9 C-7.3 7.68 -6.63 6.35 -6 5 C-3.88 4.25 -3.88 4.25 -2 4 C-2 3.34 -2 2.68 -2 2 C-1.34 2 -0.68 2 0 2 C0 1.34 0 0.68 0 0 Z " fill="#EFD6B3" transform="translate(304,168)"/>
    </g><g id="obj_00_scene__road_05__p2" class="obj_00_scene__road_05" data-label="road_05">
      <path d="M0 0 C1.32 0 2.64 0 4 0 C5 3 5 3 4 6 C6.97 6.99 9.94 7.98 13 9 C13.33 10.65 13.66 12.3 14 14 C13.34 14 12.68 14 12 14 C12 14.66 12 15.32 12 16 C11.43 16.16 11.43 16.16 8.56 16.99 C7.04 17.43 5.52 17.87 4 18.31 C3.26 18.53 2.51 18.74 1.75 18.96 C-2.63 20.23 -6.9 21.66 -11.16 23.3 C-14.67 24.64 -18.23 25.82 -21.78 27.04 C-24 28 -24 28 -25 30 C-26.32 30 -27.64 30 -29 30 C-29 30.66 -29 31.32 -29 32 C-29.66 32 -30.32 32 -31 32 C-31 32.66 -31 33.32 -31 34 C-31.66 34 -32.32 34 -33 34 C-33.33 35.65 -33.66 37.3 -34 39 C-34.99 39 -35.98 39 -37 39 C-37 39.66 -37 40.32 -37 41 C-37.66 41 -38.32 41 -39 41 C-39 41.66 -39 42.32 -39 43 C-39.99 43 -40.98 43 -42 43 C-42 43.66 -42 44.32 -42 45 C-42.82 45.16 -42.82 45.16 -47 46 C-47 46.66 -47 47.32 -47 48 C-48.65 48 -50.3 48 -52 48 C-52 48.66 -52 49.32 -52 50 C-54.14 50.16 -54.14 50.16 -65 51 C-65 51.66 -65 52.32 -65 53 C-66.13 53.14 -67.27 53.29 -68.44 53.44 C-72 54 -72 54 -73 55 C-75.35 55.4 -77.7 55.74 -80.06 56.06 C-81.35 56.24 -82.64 56.42 -83.97 56.6 C-84.47 56.66 -84.47 56.66 -87 57 C-87 57.66 -87 58.32 -87 59 C-87.56 58.99 -88.11 58.98 -88.69 58.96 C-93.9 58.9 -98.84 59.25 -104 60 C-104 60.66 -104 61.32 -104 62 C-107.63 62.33 -111.26 62.66 -115 63 C-115 63.66 -115 64.32 -115 65 C-116.98 65 -118.96 65 -121 65 C-121 65.66 -121 66.32 -121 67 C-121.93 67.28 -122.85 67.55 -123.81 67.84 C-124.41 68.02 -124.41 68.02 -127.44 68.94 C-128.03 69.12 -128.03 69.12 -131.06 70.03 C-134 71 -134 71 -135 72 C-136.67 72.04 -138.33 72.04 -140 72 C-140 72.66 -140 73.32 -140 74 C-142.64 74.33 -145.28 74.66 -148 75 C-148 75.66 -148 76.32 -148 77 C-148.8 77.12 -149.61 77.25 -150.44 77.38 C-150.86 77.48 -150.86 77.48 -153 78 C-153.33 78.66 -153.66 79.32 -154 80 C-156 80.33 -158 80.67 -160 81 C-160.33 81.66 -160.66 82.32 -161 83 C-165.29 83 -169.58 83 -174 83 C-174 83.66 -174 84.32 -174 85 C-174.82 85.16 -174.82 85.16 -179 86 C-178.67 87.32 -178.34 88.64 -178 90 C-180.19 90.17 -182.37 90.34 -184.56 90.5 C-185.78 90.59 -187 90.69 -188.25 90.78 C-198.44 91.38 -198.44 91.38 -202 89 C-200.68 89 -199.36 89 -198 89 C-198 88.34 -198 87.68 -198 87 C-197.34 87 -196.68 87 -196 87 C-196 86.34 -196 85.68 -196 85 C-196.99 84.67 -197.98 84.34 -199 84 C-198.34 83.67 -198.34 83.67 -195 82 C-195.66 81.34 -196.32 80.68 -197 80 C-196.18 79.67 -196.18 79.67 -192 78 C-192.99 77.34 -193.98 76.68 -195 76 C-194.01 75.67 -194.01 75.67 -189 74 C-189.99 73.67 -190.98 73.34 -192 73 C-192 72.34 -192 71.68 -192 71 C-191.01 70.67 -191.01 70.67 -186 69 C-186.66 68.34 -187.32 67.68 -188 67 C-187.5 66.84 -187.5 66.84 -185 66 C-185 65.34 -185 64.68 -185 64 C-186.32 63.67 -187.64 63.34 -189 63 C-188.67 62.01 -188.34 61.02 -188 60 C-187.01 60 -186.02 60 -185 60 C-185 59.34 -185 58.68 -185 58 C-185.99 58 -186.98 58 -188 58 C-188 56.68 -188 55.36 -188 54 C-180.15 53.7 -180.15 53.7 -177 56 C-176.67 56.99 -176.34 57.98 -176 59 C-175.34 59.33 -174.68 59.66 -174 60 C-174 60.66 -174 61.32 -174 62 C-174.66 62 -175.32 62 -176 62 C-176 62.99 -176 63.98 -176 65 C-175.5 65.16 -175.5 65.16 -173 66 C-173.33 67.32 -173.66 68.64 -174 70 C-166.32 72.56 -159.05 69 -152 66 C-146.09 63.66 -141.37 62.65 -135 63 C-135 62.34 -135 61.68 -135 61 C-133.02 60.67 -131.04 60.34 -129 60 C-129 59.34 -129 58.68 -129 58 C-121.74 56.68 -114.48 55.36 -107 54 C-107 53.34 -107 52.68 -107 52 C-98.96 48.95 -90.78 47.66 -82.31 46.38 C-80.91 46.16 -79.51 45.94 -78.11 45.72 C-75.53 45.32 -72.96 44.92 -70.38 44.52 C-67.25 44.04 -64.13 43.53 -61 43 C-61 42.34 -61 41.68 -61 41 C-58.09 39.74 -56.2 39 -53 39 C-52.67 38.01 -52.34 37.02 -52 36 C-51.01 36 -50.02 36 -49 36 C-49 35.34 -49 34.68 -49 34 C-48.34 34 -47.68 34 -47 34 C-46.67 33.01 -46.34 32.02 -46 31 C-45.34 31 -44.68 31 -44 31 C-44 30.34 -44 29.68 -44 29 C-26.79 20.27 -26.79 20.27 -18.32 18.53 C-12.93 17.3 -7.77 15.31 -2.62 13.31 C1 12 1 12 4 12 C3 9 3 9 0 7 C-0.19 3.37 -0.19 3.37 0 0 Z " fill="#EED4AF" transform="translate(531,178)"/>
      <path d="M0 0 C1.32 0 2.64 0 4 0 C5 3 5 3 4 6 C6.97 6.99 9.94 7.98 13 9 C13.33 10.65 13.66 12.3 14 14 C13.34 14 12.68 14 12 14 C12 14.66 12 15.32 12 16 C11.43 16.16 11.43 16.16 8.56 16.99 C7.04 17.43 5.52 17.87 4 18.31 C3.26 18.53 2.51 18.74 1.75 18.96 C-2.63 20.23 -6.9 21.66 -11.16 23.3 C-14.67 24.64 -18.23 25.82 -21.78 27.04 C-24 28 -24 28 -25 30 C-26.32 30 -27.64 30 -29 30 C-29 30.66 -29 31.32 -29 32 C-29.66 32 -30.32 32 -31 32 C-31 32.66 -31 33.32 -31 34 C-31.66 34 -32.32 34 -33 34 C-33.33 35.65 -33.66 37.3 -34 39 C-34.99 39 -35.98 39 -37 39 C-37 39.66 -37 40.32 -37 41 C-37.66 41 -38.32 41 -39 41 C-39 41.66 -39 42.32 -39 43 C-39.99 43 -40.98 43 -42 43 C-42 43.66 -42 44.32 -42 45 C-43.65 45.33 -45.3 45.66 -47 46 C-47 46.66 -47 47.32 -47 48 C-48.65 48 -50.3 48 -52 48 C-52 48.66 -52 49.32 -52 50 C-56.29 50.33 -60.58 50.66 -65 51 C-65 51.66 -65 52.32 -65 53 C-66.13 53.14 -67.27 53.29 -68.44 53.44 C-72 54 -72 54 -73 55 C-75.35 55.4 -77.7 55.74 -80.06 56.06 C-81.35 56.24 -82.64 56.42 -83.97 56.6 C-84.47 56.66 -84.47 56.66 -87 57 C-87 57.66 -87 58.32 -87 59 C-87.56 58.99 -88.11 58.98 -88.69 58.96 C-93.9 58.9 -98.84 59.25 -104 60 C-104 60.66 -104 61.32 -104 62 C-107.63 62.33 -111.26 62.66 -115 63 C-115 63.66 -115 64.32 -115 65 C-116.98 65 -118.96 65 -121 65 C-121 65.66 -121 66.32 -121 67 C-121.93 67.28 -122.85 67.55 -123.81 67.84 C-124.41 68.02 -124.41 68.02 -127.44 68.94 C-128.03 69.12 -128.03 69.12 -131.06 70.03 C-134 71 -134 71 -135 72 C-136.67 72.04 -138.33 72.04 -140 72 C-140 72.66 -140 73.32 -140 74 C-142.64 74.33 -145.28 74.66 -148 75 C-148 75.66 -148 76.32 -148 77 C-148.8 77.12 -149.61 77.25 -150.44 77.38 C-150.86 77.48 -150.86 77.48 -153 78 C-153.17 78.33 -153.17 78.33 -154 80 C-156 80.33 -158 80.67 -160 81 C-160.17 81.33 -160.17 81.33 -161 83 C-161.99 82.67 -162.98 82.34 -164 82 C-164.66 80.68 -165.32 79.36 -166 78 C-164.02 77.84 -164.02 77.84 -154 77 C-154.33 76.01 -154.66 75.02 -155 74 C-153.19 73.84 -153.19 73.84 -144 73 C-144 72.01 -144 71.02 -144 70 C-143.01 69.84 -143.01 69.84 -138 69 C-138.17 68.67 -138.17 68.67 -139 67 C-134.38 66.67 -129.76 66.34 -125 66 C-125.33 65.01 -125.66 64.02 -126 63 C-119.93 61.77 -114.2 60.72 -108 61 C-108 60.01 -108 59.02 -108 58 C-104.65 57.32 -101.29 56.66 -97.94 56 C-96.99 55.81 -96.05 55.62 -95.08 55.42 C-89.95 54.42 -85.22 53.77 -80 54 C-79.84 53.67 -79.84 53.67 -79 52 C-76.36 52 -73.72 52 -71 52 C-71 51.34 -71 50.68 -71 50 C-70.34 49.67 -69.68 49.34 -69 49 C-70.98 48.67 -72.96 48.34 -75 48 C-75.16 48.33 -75.16 48.33 -76 50 C-76.85 49.79 -77.69 49.59 -78.56 49.38 C-82 49 -82 49 -85.19 49.94 C-89.35 51.1 -93.14 51.44 -97.44 51.62 C-98.17 51.66 -98.9 51.7 -99.65 51.74 C-101.44 51.84 -103.22 51.92 -105 52 C-105 51.67 -105 51.34 -105 51 C-93.26 48.27 -81.41 46.34 -69.52 44.41 C-66.68 43.95 -63.84 43.48 -61 43 C-61 42.34 -61 41.68 -61 41 C-58.09 39.74 -56.2 39 -53 39 C-52.67 38.01 -52.34 37.02 -52 36 C-51.01 36 -50.02 36 -49 36 C-49 35.34 -49 34.68 -49 34 C-48.34 34 -47.68 34 -47 34 C-46.67 33.01 -46.34 32.02 -46 31 C-45.34 31 -44.68 31 -44 31 C-44 30.34 -44 29.68 -44 29 C-26.79 20.27 -26.79 20.27 -18.32 18.53 C-12.93 17.3 -7.77 15.31 -2.62 13.31 C1 12 1 12 4 12 C3 9 3 9 0 7 C-0.19 3.37 -0.19 3.37 0 0 Z " fill="#E7CBA2" transform="translate(531,178)"/>
      <path d="M0 0 C-0.66 0.33 -0.66 0.33 -4 2 C-3.83 2.5 -3.83 2.5 -3 5 C-3.56 5.04 -3.56 5.04 -6.38 5.25 C-10 6 -10 6 -11.44 8.06 C-11.53 8.38 -11.53 8.38 -12 10 C-12.99 10 -13.98 10 -15 10 C-14.83 10.5 -14.83 10.5 -14 13 C-15 14 -15 14 -17.56 14.06 C-18.37 14.04 -19.17 14.02 -20 14 C-19.83 14.66 -19.83 14.66 -19 18 C-20.65 18.66 -22.3 19.32 -24 20 C-23.34 20.66 -22.68 21.32 -22 22 C-23.32 22 -24.64 22 -26 22 C-26 22.66 -26 23.32 -26 24 C-27.32 24.33 -28.64 24.66 -30 25 C-30 25.66 -30 26.32 -30 27 C-29.01 27.33 -28.02 27.66 -27 28 C-27.66 28.33 -27.66 28.33 -31 30 C-31 30.66 -31 31.32 -31 32 C-31.99 32 -32.98 32 -34 32 C-34 32.66 -34 33.32 -34 34 C-33.34 34.33 -32.68 34.66 -32 35 C-31.67 35.66 -31.34 36.32 -31 37 C-32.32 37 -33.64 37 -35 37 C-35 37.66 -35 38.32 -35 39 C-35.33 39.17 -35.33 39.17 -37 40 C-36.5 40.17 -36.5 40.17 -34 41 C-33.19 42.94 -33.19 42.94 -33 45 C-33.66 45.66 -34.32 46.32 -35 47 C-35 47.66 -35 48.32 -35 49 C-35.66 49 -36.32 49 -37 49 C-37 49.66 -37 50.32 -37 51 C-35.68 51.33 -34.36 51.66 -33 52 C-33 52.66 -33 53.32 -33 54 C-34.15 54.17 -34.15 54.17 -40 55 C-39.67 55.66 -39.34 56.32 -39 57 C-36.44 57.62 -36.44 57.62 -34 58 C-34.5 58.17 -34.5 58.17 -37 59 C-37 59.66 -37 60.32 -37 61 C-35.35 61.33 -33.7 61.66 -32 62 C-35 64 -35 64 -38 64 C-38 64.66 -38 65.32 -38 66 C-37.34 66 -36.68 66 -36 66 C-36.33 67.65 -36.66 69.3 -37 71 C-38.32 71 -39.64 71 -41 71 C-41 71.66 -41 72.32 -41 73 C-40.5 73.16 -40.5 73.16 -38 74 C-38 74.99 -38 75.98 -38 77 C-39.32 77.33 -39.32 77.33 -46 79 C-44.35 79.66 -42.7 80.32 -41 81 C-43 83 -43 83 -45.62 83.12 C-46.41 83.08 -47.19 83.04 -48 83 C-48 83.66 -48 84.32 -48 85 C-49.98 84.67 -51.96 84.34 -54 84 C-54 84.66 -54 85.32 -54 86 C-53.34 86.33 -52.68 86.66 -52 87 C-54.64 87 -57.28 87 -60 87 C-60.33 85.68 -60.66 84.36 -61 83 C-59.02 82.01 -57.04 81.02 -55 80 C-55 79.34 -55 78.68 -55 78 C-54.01 78 -53.02 78 -52 78 C-51.67 77.01 -51.34 76.02 -51 75 C-48.94 74.31 -48.94 74.31 -47 74 C-47 73.34 -47 72.68 -47 72 C-49.64 71.67 -49.64 71.67 -63 70 C-63 69.67 -63 69.34 -63 69 C-61.74 68.94 -60.47 68.88 -59.17 68.82 C-57.51 68.73 -55.85 68.65 -54.19 68.56 C-53.35 68.52 -52.52 68.48 -51.66 68.44 C-50.86 68.4 -50.06 68.36 -49.23 68.32 C-48.49 68.28 -47.75 68.24 -46.99 68.21 C-45 68 -45 68 -42 67 C-44.31 66.01 -46.62 65.02 -49 64 C-45.91 62.24 -44.77 62 -41 62 C-43.64 61.34 -46.28 60.68 -49 60 C-48.34 59.01 -47.68 58.02 -47 57 C-47 56.01 -47 55.02 -47 54 C-46.34 53.01 -45.68 52.02 -45 51 C-43.68 51 -42.36 51 -41 51 C-41 50.34 -41 49.68 -41 49 C-42.32 48.67 -43.64 48.34 -45 48 C-45 47.34 -45 46.68 -45 46 C-44.36 45.9 -43.72 45.79 -43.06 45.69 C-42.38 45.46 -41.7 45.23 -41 45 C-40.67 44.01 -40.34 43.02 -40 42 C-41.98 41.34 -43.96 40.68 -46 40 C-46 39.34 -46 38.68 -46 38 C-45.43 37.81 -44.87 37.61 -44.29 37.41 C-43.55 37.15 -42.82 36.89 -42.06 36.62 C-41.33 36.37 -40.6 36.11 -39.85 35.85 C-38 35 -38 35 -37 33 C-38.32 32.67 -39.64 32.34 -41 32 C-39.35 32 -37.7 32 -36 32 C-36 31.34 -36 30.68 -36 30 C-35.01 29.34 -34.02 28.68 -33 28 C-33.99 27.34 -34.98 26.68 -36 26 C-35.36 25.4 -34.72 24.8 -34.06 24.19 C-32 22 -32 22 -31 19 C-29.41 17.9 -29.41 17.9 -27.5 16.94 C-24.1 15.2 -24.1 15.2 -23 13 C-22.01 12.67 -21.02 12.34 -20 12 C-20.17 11.67 -20.17 11.67 -21 10 C-20.03 9.57 -19.06 9.13 -18.06 8.69 C-15 7 -15 7 -14 4 C-12.35 3.67 -10.7 3.34 -9 3 C-9 2.34 -9 1.68 -9 1 C-5.93 0.09 -3.2 -0.09 0 0 Z " fill="#E0BD8D" transform="translate(366,260)"/>
      <path d="M0 0 C3.06 0.25 3.06 0.25 6.06 2.25 C6.06 3.24 6.06 4.23 6.06 5.25 C8.7 4.92 11.34 4.59 14.06 4.25 C14.06 3.59 14.06 2.93 14.06 2.25 C15.88 2.58 15.88 2.58 25.06 4.25 C25.06 4.91 25.06 5.57 25.06 6.25 C26.26 5.92 27.45 5.59 28.69 5.25 C32.23 4.37 35.39 3.91 39.06 4.25 C40.05 4.91 41.04 5.57 42.06 6.25 C42.06 6.91 42.06 7.57 42.06 8.25 C36.45 8.25 30.84 8.25 25.06 8.25 C26.95 10.13 30.09 9.94 32.62 10.31 C33.22 10.4 33.22 10.4 36.25 10.85 C37.18 10.98 38.11 11.11 39.06 11.25 C39.23 11.75 39.23 11.75 40.06 14.25 C39.73 14.91 39.4 15.57 39.06 16.25 C38.4 16.25 37.74 16.25 37.06 16.25 C37.06 16.91 37.06 17.57 37.06 18.25 C33.1 18.25 29.14 18.25 25.06 18.25 C25.06 16.93 25.06 15.61 25.06 14.25 C24.07 13.92 23.08 13.59 22.06 13.25 C22.06 12.59 22.06 11.93 22.06 11.25 C21.07 11.25 20.08 11.25 19.06 11.25 C19.06 10.59 19.06 9.93 19.06 9.25 C18.07 9.25 17.08 9.25 16.06 9.25 C16.06 10.24 16.06 11.23 16.06 12.25 C15.4 12.25 14.74 12.25 14.06 12.25 C14.23 12.75 14.23 12.75 15.06 15.25 C14.42 14.92 13.78 14.59 13.12 14.25 C11.06 13.25 11.06 13.25 10.06 13.25 C10.06 14.24 10.06 15.23 10.06 16.25 C11.05 16.58 12.04 16.91 13.06 17.25 C13.06 17.91 13.06 18.57 13.06 19.25 C10.69 19 10.69 19 8.06 18.25 C5.96 15.35 6.06 13.97 6.06 10.25 C5.73 11.24 5.4 12.23 5.06 13.25 C1.1 13.91 -2.86 14.57 -6.94 15.25 C-5.94 16.25 -5.94 16.25 -2.88 16.31 C-2.39 16.3 -2.39 16.3 0.06 16.25 C-0.27 18.56 -0.6 20.87 -0.94 23.25 C-1.93 22.92 -2.92 22.59 -3.94 22.25 C-3.94 21.59 -3.94 20.93 -3.94 20.25 C-4.53 20.19 -5.12 20.13 -5.73 20.07 C-9.85 19.63 -13.89 19.16 -17.94 18.25 C-17.94 18.91 -17.94 19.57 -17.94 20.25 C-15.3 20.25 -12.66 20.25 -9.94 20.25 C-10.6 20.58 -11.26 20.91 -11.94 21.25 C-12.66 22.89 -13.33 24.56 -13.94 26.25 C-16.58 26.25 -19.22 26.25 -21.94 26.25 C-22.08 25.51 -22.23 24.76 -22.38 24 C-22.84 21.73 -23.36 19.49 -23.94 17.25 C-23.44 17.58 -23.44 17.58 -20.94 19.25 C-20.61 18.59 -20.28 17.93 -19.94 17.25 C-19.28 17.25 -18.62 17.25 -17.94 17.25 C-17.94 16.59 -17.94 15.93 -17.94 15.25 C-16.29 15.25 -14.64 15.25 -12.94 15.25 C-12.96 14.01 -12.98 12.78 -13 11.5 C-13.01 8.59 -12.87 6.04 -11.94 3.25 C-10.82 3.13 -9.71 3 -8.56 2.88 C-4.64 2.2 -3.8 0.32 0 0 Z " fill="#BDA76F" transform="translate(370.9375,132.75)"/>
      <path d="M0 0 C0.66 0.99 1.32 1.98 2 3 C1.67 3.99 1.34 4.98 1 6 C-0.32 6 -1.64 6 -3 6 C-2.49 8.17 -2 10 -1 12 C-2.19 13.5 -2.19 13.5 -4 15 C-6.69 15.19 -6.69 15.19 -9 15 C-8.83 15.17 -8.83 15.17 -8 16 C-8.42 19.26 -8.63 20.63 -11 23 C-9.68 23.66 -8.36 24.32 -7 25 C-7.17 25.5 -7.17 25.5 -8 28 C-10.06 28.69 -10.06 28.69 -12 29 C-11.01 29.33 -10.02 29.66 -9 30 C-9 30.99 -9 31.98 -9 33 C-7.68 33.33 -6.36 33.66 -5 34 C-7 35 -9 36 -11 37 C-10.83 37.66 -10.83 37.66 -10 41 C-8.68 41.33 -7.36 41.66 -6 42 C-8.97 42.66 -11.94 43.32 -15 44 C-15 44.99 -15 45.98 -15 47 C-15.66 47 -16.32 47 -17 47 C-17.33 49.31 -17.66 51.62 -18 54 C-18.66 54 -19.32 54 -20 54 C-20 54.66 -20 55.32 -20 56 C-20.66 56 -21.32 56 -22 56 C-22 56.66 -22 57.32 -22 58 C-24.64 58 -27.28 58 -30 58 C-30.33 59.32 -30.66 60.64 -31 62 C-31.99 62.17 -31.99 62.17 -37 63 C-32.05 63.66 -27.1 64.32 -22 65 C-22 65.33 -22 65.66 -22 66 C-23.11 65.99 -24.22 65.98 -25.36 65.96 C-26.82 65.96 -28.29 65.95 -29.75 65.94 C-30.11 65.93 -30.11 65.93 -31.96 65.91 C-37.59 65.89 -37.59 65.89 -40.13 66.6 C-40.75 66.73 -41.37 66.86 -42 67 C-43.75 65.56 -43.75 65.56 -45 64 C-44.67 63.34 -44.34 62.68 -44 62 C-44.29 62.1 -44.29 62.1 -45.73 62.59 C-48.45 63.08 -49.73 62.61 -52.25 61.56 C-52.6 61.42 -52.6 61.42 -54.39 60.69 C-54.92 60.46 -55.45 60.24 -56 60 C-52.11 58.6 -48.77 59.3 -44.75 59.94 C-43.49 60.13 -42.22 60.33 -40.92 60.53 C-40.44 60.61 -40.44 60.61 -38 61 C-37.67 59.68 -37.34 58.36 -37 57 C-35.4 56.83 -33.79 56.67 -32.19 56.5 C-31.29 56.41 -30.4 56.31 -29.48 56.22 C-27 56 -27 56 -24 56 C-24 55.34 -24 54.68 -24 54 C-25.32 53.67 -26.64 53.34 -28 53 C-27.5 52.83 -27.5 52.83 -25 52 C-25.66 51.67 -26.32 51.34 -27 51 C-26.67 50.01 -26.34 49.02 -26 48 C-25.18 47.83 -25.18 47.83 -21 47 C-21.66 46.34 -22.32 45.68 -23 45 C-22.34 45 -21.68 45 -21 45 C-21 44.34 -21 43.68 -21 43 C-20.34 43 -19.68 43 -19 43 C-19 42.34 -19 41.68 -19 41 C-17.68 41 -16.36 41 -15 41 C-17.31 40.67 -19.62 40.34 -22 40 C-19.74 36.62 -18.64 36.4 -15 35 C-14.83 34.67 -14.83 34.67 -14 33 C-15.98 33 -17.96 33 -20 33 C-19.67 31.35 -19.34 29.7 -19 28 C-17.02 28 -15.04 28 -13 28 C-13 27.01 -13 26.02 -13 25 C-13.99 25 -14.98 25 -16 25 C-16.17 24.34 -16.17 24.34 -17 21 C-14.69 20.67 -12.38 20.34 -10 20 C-10 19.34 -10 18.68 -10 18 C-11.32 17.34 -12.64 16.68 -14 16 C-13.01 16 -12.02 16 -11 16 C-11 15.01 -11 14.02 -11 13 C-9.68 12.67 -8.36 12.34 -7 12 C-7.66 11.67 -8.32 11.34 -9 11 C-9 7.99 -7.06 7.06 -5 5 C-5 4.34 -5 3.68 -5 3 C-2.5 1.38 -2.5 1.38 0 0 Z " fill="#DAB785" transform="translate(309,280)"/>
      <path d="M0 0 C0.66 0 1.32 0 2 0 C2 0.66 2 1.32 2 2 C5.23 3.74 8.51 4.89 12 6 C12 6.99 12 7.98 12 9 C13.65 9 15.3 9 17 9 C17 9.99 17 10.98 17 12 C17.99 12 18.98 12 20 12 C20 12.66 20 13.32 20 14 C20.64 14.12 21.28 14.25 21.94 14.38 C22.62 14.58 23.3 14.79 24 15 C24.33 15.66 24.66 16.32 25 17 C25.99 17.66 26.98 18.32 28 19 C27.67 19.66 27.34 20.32 27 21 C28.98 21.33 30.96 21.66 33 22 C33.17 22.5 33.17 22.5 34 25 C34.66 25.66 35.32 26.32 36 27 C35.83 27.16 35.83 27.16 35 28 C35.82 28.33 35.82 28.33 40 30 C39.67 30.16 39.67 30.16 38 31 C38 31.66 38 32.32 38 33 C38.66 33 39.32 33 40 33 C40 33.66 40 34.32 40 35 C40.99 35.33 41.98 35.66 43 36 C42.67 36.33 42.34 36.66 42 37 C42.99 37.33 43.98 37.66 45 38 C44.67 38.99 44.34 39.98 44 41 C44.99 41.66 45.98 42.32 47 43 C47 43.66 47 44.32 47 45 C46.34 45 45.68 45 45 45 C45.33 45.66 45.66 46.32 46 47 C48.06 47.62 48.06 47.62 50 48 C50 48.99 50 49.98 50 51 C48.68 51 47.36 51 46 51 C46 51.66 46 52.32 46 53 C46.99 53 47.98 53 49 53 C49 53.66 49 54.32 49 55 C48.34 55 47.68 55 47 55 C47 55.66 47 56.32 47 57 C47.99 57 48.98 57 50 57 C50 56.34 50 55.68 50 55 C52.31 55.33 54.62 55.66 57 56 C57 55.34 57 54.68 57 54 C59.31 54 61.62 54 64 54 C64 53.34 64 52.68 64 52 C67.21 50.39 70.44 50.94 74 51 C74 50.34 74 49.68 74 49 C78.54 47.55 82.18 46.76 87 47 C87 46.34 87 45.68 87 45 C92.23 43.53 96.58 42.77 102 43 C102 42.34 102 41.68 102 41 C103.49 40.84 103.49 40.84 111 40 C111 40.66 111 41.32 111 42 C108.65 42.68 106.29 43.34 103.94 44 C103.28 44.19 102.62 44.38 101.95 44.58 C97.53 45.8 93.62 46.19 89 46 C89 46.66 89 47.32 89 48 C87.02 48.33 85.04 48.66 83 49 C83 49.66 83 50.32 83 51 C82.24 51.1 81.48 51.2 80.69 51.3 C73.81 52.29 68.22 53.96 62 57 C56.75 59.12 51.6 59.58 46 60 C46 59.34 46 58.68 46 58 C45.34 58 44.68 58 44 58 C44 56.68 44 55.36 44 54 C43.67 53.84 43.67 53.84 42 53 C42 52.01 42 51.02 42 50 C42.66 50 43.32 50 44 50 C44 49.34 44 48.68 44 48 C43.01 47.67 42.02 47.34 41 47 C39.75 44.06 39.75 44.06 39 41 C39.17 40.67 39.17 40.67 40 39 C39.01 38.67 38.02 38.34 37 38 C37 37.01 37 36.02 37 35 C36.67 34.84 36.67 34.84 35 34 C35.33 32.68 35.66 31.36 36 30 C35.22 29.88 34.43 29.75 33.62 29.62 C31 29 31 29 29 27 C29.33 26.34 29.66 25.68 30 25 C29.01 24.67 28.02 24.34 27 24 C25 23.33 23 22.67 21 22 C21.66 21.01 22.32 20.02 23 19 C21.35 18.67 19.7 18.34 18 18 C18.33 17.01 18.66 16.02 19 15 C18.01 15 17.02 15 16 15 C16 14.34 16 13.68 16 13 C14.68 13 13.36 13 12 13 C12 12.01 12 11.02 12 10 C11.01 9.67 10.02 9.34 9 9 C9 8.34 9 7.68 9 7 C7.51 6.67 7.51 6.67 0 5 C0 3.35 0 1.7 0 0 Z " fill="#E0BF8F" transform="translate(313,190)"/>
      <path d="M0 0 C0 0.66 0 1.32 0 2 C-3.64 4.43 -5.71 4.16 -10 4 C-10 4.66 -10 5.32 -10 6 C-8.02 6 -6.04 6 -4 6 C-4 6.66 -4 7.32 -4 8 C-6.31 8.33 -8.62 8.66 -11 9 C-11 9.99 -11 10.98 -11 12 C-10.34 12 -9.68 12 -9 12 C-9 12.66 -9 13.32 -9 14 C-7.68 14.33 -6.36 14.66 -5 15 C-8.09 16.76 -9.23 17 -13 17 C-13 18.32 -13 19.64 -13 21 C-12.34 21 -11.68 21 -11 21 C-11 21.66 -11 22.32 -11 23 C-17.38 23.82 -23.57 24.12 -30 24 C-29.69 22.12 -29.69 22.12 -29 20 C-28.01 19.34 -27.02 18.68 -26 18 C-26.66 17.01 -27.32 16.02 -28 15 C-26.68 15 -25.36 15 -24 15 C-24 14.01 -24 13.02 -24 12 C-23.34 11.34 -22.68 10.68 -22 10 C-22.33 9.34 -22.66 8.68 -23 8 C-20.69 7.01 -18.38 6.02 -16 5 C-16.33 4.34 -16.66 3.68 -17 3 C-16.01 3 -15.02 3 -14 3 C-14 2.01 -14 1.02 -14 0 C-14.66 -0.33 -15.32 -0.66 -16 -1 C-10.5 -2.33 -4.96 -3.18 0 0 Z " fill="#EFD7B4" transform="translate(333,281)"/>
      <path d="M0 0 C1.68 0.64 3.34 1.31 5 2 C6.66 2.36 8.33 2.69 10 3 C12.66 3.53 15.33 4.07 17.99 4.6 C18.65 4.73 19.32 4.86 20 5 C20.17 5.5 20.17 5.5 21 8 C18.35 9.46 17.11 10 14 10 C14.17 10.66 14.17 10.66 15 14 C2.46 14 -10.08 14 -23 14 C-19.58 11.72 -18.32 11.78 -14.31 11.88 C-13.82 11.88 -13.82 11.88 -11.3 11.93 C-10.54 11.95 -9.78 11.98 -9 12 C-9.71 11.95 -10.42 11.9 -11.15 11.85 C-12.07 11.78 -12.99 11.7 -13.94 11.62 C-14.85 11.56 -15.77 11.49 -16.71 11.41 C-17.09 11.35 -17.09 11.35 -19 11 C-19.33 10.34 -19.66 9.68 -20 9 C-18.85 8.83 -18.85 8.83 -13 8 C-12.67 7.01 -12.34 6.02 -12 5 C-9.36 5 -6.72 5 -4 5 C-4 4.34 -4 3.68 -4 3 C-3.34 3 -2.68 3 -2 3 C-2 2.34 -2 1.68 -2 1 C-1.34 0.67 -0.68 0.34 0 0 Z " fill="#E7CAA0" transform="translate(291,333)"/>
      <path d="M0 0 C0 0.66 0 1.32 0 2 C-1.13 2.14 -2.27 2.29 -3.44 2.44 C-7 3 -7 3 -8 4 C-10.35 4.4 -12.7 4.74 -15.06 5.06 C-15.71 5.15 -15.71 5.15 -18.97 5.6 C-19.97 5.73 -20.97 5.86 -22 6 C-22 6.66 -22 7.32 -22 8 C-22.56 7.99 -23.11 7.98 -23.69 7.96 C-28.9 7.9 -33.84 8.25 -39 9 C-39 9.66 -39 10.32 -39 11 C-42.63 11.33 -46.26 11.66 -50 12 C-50 12.66 -50 13.32 -50 14 C-51.98 14 -53.96 14 -56 14 C-56 14.66 -56 15.32 -56 16 C-56.46 16.14 -56.46 16.14 -58.81 16.84 C-60.01 17.2 -61.2 17.56 -62.44 17.94 C-63.63 18.3 -64.83 18.66 -66.06 19.03 C-69 20 -69 20 -70 21 C-71.67 21.04 -73.33 21.04 -75 21 C-75 21.66 -75 22.32 -75 23 C-76.32 23.16 -76.32 23.16 -83 24 C-83 24.66 -83 25.32 -83 26 C-83.8 26.12 -84.61 26.25 -85.44 26.38 C-86.28 26.58 -87.13 26.79 -88 27 C-88.33 27.66 -88.66 28.32 -89 29 C-91 29.33 -93 29.67 -95 30 C-95.33 30.66 -95.66 31.32 -96 32 C-96.99 31.67 -97.98 31.34 -99 31 C-99.66 29.68 -100.32 28.36 -101 27 C-97.04 26.67 -93.08 26.34 -89 26 C-89.33 25.01 -89.66 24.02 -90 23 C-86.37 22.67 -82.74 22.34 -79 22 C-79 21.01 -79 20.02 -79 19 C-77.02 18.67 -75.04 18.34 -73 18 C-73.33 17.34 -73.66 16.68 -74 16 C-69.38 15.67 -64.76 15.34 -60 15 C-60.17 14.5 -60.17 14.5 -61 12 C-54.93 10.77 -49.2 9.72 -43 10 C-43 9.01 -43 8.02 -43 7 C-39.65 6.32 -36.29 5.66 -32.94 5 C-31.99 4.81 -31.05 4.62 -30.08 4.42 C-24.95 3.42 -20.22 2.77 -15 3 C-14.67 2.34 -14.34 1.68 -14 1 C-9.28 0.2 -4.79 -0.12 0 0 Z " fill="#DFBE8D" transform="translate(466,229)"/>
    </g><g id="obj_00_scene__road_05__p3" class="obj_00_scene__road_05" data-label="road_05">
      <path d="M0 0 C0.17 0.5 0.17 0.5 1 3 C1.99 3 2.98 3 4 3 C4 3.66 4 4.32 4 5 C2.02 5.66 0.04 6.32 -2 7 C0.97 7 3.94 7 7 7 C7 7.66 7 8.32 7 9 C7.51 9.05 7.51 9.05 10.06 9.31 C14.21 10.04 17.21 11.22 21 13 C19 15 19 15 16.4 15.2 C15.4 15.17 14.4 15.15 13.38 15.12 C12.87 15.12 12.87 15.12 10.34 15.07 C9.57 15.05 8.79 15.02 8 15 C8.99 15.99 9.98 16.98 11 18 C6.71 18 2.42 18 -2 18 C-2 18.99 -2 19.98 -2 21 C-1.34 21.33 -0.68 21.66 0 22 C-1.32 22.17 -1.32 22.17 -8 23 C-8 22.34 -8 21.68 -8 21 C-9.65 21.17 -9.65 21.17 -18 22 C-17.01 21.34 -16.02 20.68 -15 20 C-16.65 20.17 -16.65 20.17 -25 21 C-25.33 20.01 -25.66 19.02 -26 18 C-25.01 17.34 -24.02 16.68 -23 16 C-26.96 14.68 -30.92 13.36 -35 12 C-35.33 12.66 -35.66 13.32 -36 14 C-36 12.68 -36 11.36 -36 10 C-34.02 9.34 -32.04 8.68 -30 8 C-30 7.34 -30 6.68 -30 6 C-29.34 6 -28.68 6 -28 6 C-27.67 5.01 -27.34 4.02 -27 3 C-26.01 3.66 -25.02 4.32 -24 5 C-23.67 4.01 -23.34 3.02 -23 2 C-22.01 2.33 -21.02 2.66 -20 3 C-20 3.66 -20 4.32 -20 5 C-17.36 5 -14.72 5 -12 5 C-11.67 4.34 -11.34 3.68 -11 3 C-7.26 2.29 -3.81 2 0 2 C0 1.34 0 0.68 0 0 Z " fill="#BAA567" transform="translate(510,273)"/>
      <path d="M0 0 C1.65 0 3.3 0 5 0 C5.33 0.66 5.66 1.32 6 2 C6.99 2 7.98 2 9 2 C9.66 2.33 10.32 2.66 11 3 C11.37 14.43 11.37 14.43 9 20 C8.67 20.99 8.34 21.98 8 23 C7.34 23 6.68 23 6 23 C5.34 24.32 4.68 25.64 4 27 C4.99 27.66 5.98 28.32 7 29 C6.67 29.66 6.34 30.32 6 31 C3.83 30.49 2 30 0 29 C0 30.98 0 32.96 0 35 C1.65 34.34 3.3 33.68 5 33 C5 33.99 5 34.98 5 36 C3.02 36.66 1.04 37.32 -1 38 C-0.67 38.21 -0.67 38.21 1 39.25 C1.33 39.54 1.33 39.54 3 41 C3 45 3 45 2 47 C0.02 47.73 -1.98 48.4 -4 49 C-2.02 49.33 -0.04 49.66 2 50 C2 49.34 2 48.68 2 48 C4.97 47.34 7.94 46.68 11 46 C9.72 47.71 8.38 49.37 7 51 C6.34 51 5.68 51 5 51 C5 51.66 5 52.32 5 53 C4.31 52.88 3.63 52.76 2.92 52.64 C2.02 52.51 1.12 52.38 0.19 52.25 C-0.71 52.11 -1.6 51.97 -2.52 51.83 C-3.34 51.88 -4.16 51.94 -5 52 C-6.62 53.94 -6.62 53.94 -8 56 C-11.19 56.75 -11.19 56.75 -14 57 C-13.67 56.34 -13.34 55.68 -13 55 C-12.34 55 -11.68 55 -11 55 C-11 54.34 -11 53.68 -11 53 C-12.32 52.67 -13.64 52.34 -15 52 C-9.38 49 -9.38 49 -6 49 C-5.67 48.01 -5.34 47.02 -5 46 C-4.01 46 -3.02 46 -2 46 C-3.24 42.27 -4.84 41.25 -8 39 C-8.99 38.67 -9.98 38.34 -11 38 C-10.97 37.73 -10.97 37.73 -10.82 36.34 C-10.54 33.83 -10.27 31.32 -10 28.81 C-9.9 27.95 -9.81 27.08 -9.71 26.19 C-9.27 22.11 -8.86 18.11 -9 14 C-10.65 14 -12.3 14 -14 14 C-14 13.67 -14 13.34 -14 13 C-11.03 13 -8.06 13 -5 13 C-3.53 15.94 -3.83 18.6 -3.81 21.88 C-3.8 23.11 -3.78 24.34 -3.77 25.62 C-3.98 28.74 -4.35 30.4 -6 33 C-5.34 33 -4.68 33 -4 33 C-4 33.66 -4 34.32 -4 35 C-3.34 35 -2.68 35 -2 35 C-2 31.37 -2 27.74 -2 24 C-0.68 23.67 0.64 23.34 2 23 C1.86 21.89 1.71 20.78 1.56 19.64 C1.37 18.18 1.19 16.71 1 15.25 C0.9 14.52 0.81 13.79 0.71 13.04 C0.28 9.65 0 6.42 0 3 C0.33 2.67 0.66 2.34 1 2 C0.67 1.34 0.34 0.68 0 0 Z " fill="#BAA67E" transform="translate(323,50)"/>
      <path d="M0 0 C3.3 0 6.6 0 10 0 C11.61 8.07 11.11 16.33 8 24 C8.56 24.08 9.11 24.16 9.69 24.25 C12.76 25.25 14.66 26.79 17 29 C17 29.99 17 30.98 17 32 C16.5 32.16 16.5 32.16 14 33 C13.67 33.66 13.34 34.32 13 35 C9.93 36.31 6.82 37.44 3.69 38.59 C1 40 1 40 0.12 42.16 C0.08 42.77 0.04 43.38 0 44 C0.78 44.29 1.57 44.58 2.38 44.88 C5 46 5 46 7 48 C5.68 48 4.36 48 3 48 C3 47.34 3 46.68 3 46 C0.69 46 -1.62 46 -4 46 C-4.17 45.5 -4.17 45.5 -5 43 C-4.01 42.01 -3.02 41.02 -2 40 C-3.32 39.84 -3.32 39.84 -10 39 C-9.34 38.84 -9.34 38.84 -6 38 C-6 37.34 -6 36.68 -6 36 C-5.61 35.84 -5.61 35.84 -3.63 35.01 C-2.62 34.57 -1.61 34.14 -0.56 33.69 C0.45 33.26 1.46 32.83 2.5 32.39 C5 31 5 31 6 28 C4.02 27.34 2.04 26.68 0 26 C0 25.34 0 24.68 0 24 C-0.8 23.79 -1.61 23.59 -2.44 23.38 C-3.28 22.92 -4.13 22.47 -5 22 C-5.81 18.88 -5.81 18.88 -6 16 C-5.01 16.66 -4.02 17.32 -3 18 C-3 17.01 -3 16.02 -3 15 C-2.34 15 -1.68 15 -1 15 C-1 14.34 -1 13.68 -1 13 C0.98 12.67 2.96 12.34 5 12 C5 10.02 5 8.04 5 6 C3.35 6.33 1.7 6.66 0 7 C0 4.69 0 2.38 0 0 Z " fill="#E8CEA8" transform="translate(304,64)"/>
      <path d="M0 0 C2.42 1.08 3.95 2.28 6 4 C5.67 5.65 5.34 7.3 5 9 C4.01 9 3.02 9 2 9 C1.67 10.65 1.34 12.3 1 14 C1.64 13.99 1.64 13.99 4.88 13.94 C8.75 13.88 8.75 13.88 11 15 C10.67 15.99 10.34 16.98 10 18 C9.44 18.04 9.44 18.04 6.62 18.25 C3 19 3 19 1.56 21.06 C1.38 21.7 1.19 22.34 1 23 C0.34 23 -0.32 23 -1 23 C-1.33 21.02 -1.66 19.04 -2 17 C-3.65 17.33 -5.3 17.66 -7 18 C-7 18.99 -7 19.98 -7 21 C-11.88 19.12 -11.88 19.12 -13 18 C-15.69 18.18 -18.33 18.62 -21 19 C-21 17.35 -21 15.7 -21 14 C-17.7 12.68 -14.4 11.36 -11 10 C-11 6.89 -11.46 4.06 -12 1 C-8.3 -0.85 -4.04 -0.48 0 0 Z " fill="#E3C993" transform="translate(539,18)"/>
      <path d="M0 0 C1.32 0 2.64 0 4 0 C4 0.66 4 1.32 4 2 C4.66 2.33 5.32 2.66 6 3 C5.34 3 4.68 3 4 3 C4 3.66 4 4.32 4 5 C3.01 5 2.02 5 1 5 C1 6.32 1 7.64 1 9 C-0.31 10.56 -0.31 10.56 -2 12 C-2.56 12.56 -3.11 13.11 -3.69 13.69 C-4.12 14.12 -4.55 14.55 -5 15 C-4.67 15.99 -4.34 16.98 -4 18 C-4.66 18.66 -5.32 19.32 -6 20 C-6 20.99 -6 21.98 -6 23 C-6.66 23.33 -7.32 23.66 -8 24 C-6.68 24.66 -5.36 25.32 -4 26 C-6.97 26.66 -9.94 27.32 -13 28 C-13.33 29.32 -13.66 30.64 -14 32 C-14.66 32 -15.32 32 -16 32 C-16 32.99 -16 33.98 -16 35 C-16.5 35.17 -16.5 35.17 -19 36 C-17.68 36.99 -16.36 37.98 -15 39 C-15.99 39.17 -15.99 39.17 -21 40 C-21 40.99 -21 41.98 -21 43 C-19.68 43.66 -18.36 44.32 -17 45 C-17.99 45.17 -17.99 45.17 -23 46 C-23.66 45.01 -24.32 44.02 -25 43 C-28.12 42.81 -28.12 42.81 -31 43 C-27.25 40 -27.25 40 -25 40 C-24.67 38.35 -24.34 36.7 -24 35 C-24.66 35 -25.32 35 -26 35 C-25.67 34.34 -25.34 33.68 -25 33 C-23.35 33.33 -21.7 33.66 -20 34 C-19.34 32.68 -18.68 31.36 -18 30 C-18.66 29.01 -19.32 28.02 -20 27 C-19.67 26.34 -19.34 25.68 -19 25 C-17.67 24.67 -16.33 24.33 -15 24 C-14.67 23.34 -14.34 22.68 -14 22 C-14.66 21.67 -15.32 21.34 -16 21 C-15.01 19.68 -14.02 18.36 -13 17 C-13.66 16.34 -14.32 15.68 -15 15 C-12.69 14.34 -10.38 13.68 -8 13 C-8 12.34 -8 11.68 -8 11 C-8.66 10.67 -9.32 10.34 -10 10 C-8.85 9.83 -8.85 9.83 -3 9 C-3 8.34 -3 7.68 -3 7 C-3.66 6.67 -4.32 6.34 -5 6 C-4 4 -4 4 -1 2 C-0.67 1.34 -0.34 0.68 0 0 Z " fill="#E3C294" transform="translate(325,261)"/>
      <path d="M0 0 C0.33 1.65 0.66 3.3 1 5 C0.48 5.14 0.48 5.14 -2.12 5.88 C-4.52 6.55 -6.83 7.29 -9.19 8.12 C-12 9 -12 9 -16 9 C-16 9.66 -16 10.32 -16 11 C-13.36 11 -10.72 11 -8 11 C-11.12 13.08 -11.54 13.24 -15.01 12.98 C-15.77 12.93 -16.53 12.87 -17.31 12.82 C-17.7 12.79 -17.7 12.79 -19.69 12.62 C-20.48 12.57 -21.28 12.51 -22.1 12.45 C-24.07 12.31 -26.03 12.16 -28 12 C-28 10.68 -28 9.36 -28 8 C-26.58 7.52 -25.17 7.04 -23.75 6.56 C-22.96 6.3 -22.17 6.03 -21.36 5.75 C-14.99 3.72 -14.99 3.72 -11 5 C-10.75 4.38 -10.5 3.76 -10.25 3.12 C-7.65 -1.3 -4.66 -1.29 0 0 Z " fill="#C0A57F" transform="translate(585,301)"/>
      <path d="M0 0 C0.66 0 1.32 0 2 0 C2 0.66 2 1.32 2 2 C2.66 2 3.32 2 4 2 C3.67 3.65 3.34 5.3 3 7 C1.68 7 0.36 7 -1 7 C-1 7.66 -1 8.32 -1 9 C-0.01 9.33 0.98 9.66 2 10 C2 10.99 2 11.98 2 13 C-0.64 13.66 -3.28 14.32 -6 15 C-4.35 15.66 -2.7 16.32 -1 17 C-3 19 -3 19 -5.62 19.12 C-6.41 19.08 -7.19 19.04 -8 19 C-8 19.66 -8 20.32 -8 21 C-9.98 20.67 -11.96 20.34 -14 20 C-14 20.66 -14 21.32 -14 22 C-13.34 22.33 -12.68 22.66 -12 23 C-14.64 23 -17.28 23 -20 23 C-20.33 21.68 -20.66 20.36 -21 19 C-19.02 18.01 -17.04 17.02 -15 16 C-15 15.34 -15 14.68 -15 14 C-13.71 13.47 -12.42 12.95 -11.12 12.44 C-10.41 12.15 -9.69 11.86 -8.95 11.56 C-7 11 -7 11 -5 12 C-2.88 11.56 -2.88 11.56 -1 11 C-2.65 10.34 -4.3 9.68 -6 9 C-6 8.34 -6 7.68 -6 7 C-5.01 7 -4.02 7 -3 7 C-3 6.34 -3 5.68 -3 5 C-1.68 5 -0.36 5 1 5 C0.67 3.35 0.34 1.7 0 0 Z " fill="#DAB684" transform="translate(326,324)"/>
    </g><g id="obj_00_scene__road_05__p4" class="obj_00_scene__road_05" data-label="road_05">
      <path d="M0 0 C0 0.66 0 1.32 0 2 C1.2 1.67 2.39 1.34 3.62 1 C7.17 0.12 10.33 -0.34 14 0 C14.99 0.66 15.98 1.32 17 2 C17 2.66 17 3.32 17 4 C11.39 4 5.78 4 0 4 C1.88 5.88 5.03 5.69 7.56 6.06 C8.76 6.24 9.96 6.42 11.19 6.6 C12.12 6.73 13.05 6.86 14 7 C14.33 7.99 14.66 8.98 15 10 C14.67 10.66 14.34 11.32 14 12 C13.34 12 12.68 12 12 12 C12 12.66 12 13.32 12 14 C8.04 14 4.08 14 0 14 C0 12.68 0 11.36 0 10 C-0.99 9.67 -1.98 9.34 -3 9 C-3 8.34 -3 7.68 -3 7 C-3.99 7 -4.98 7 -6 7 C-6 5.35 -6 3.7 -6 2 C-2.25 0 -2.25 0 0 0 Z " fill="#CCB17B" transform="translate(396,137)"/>
      <path d="M0 0 C3.3 0 6.6 0 10 0 C11.07 5.58 10.83 10.39 10 16 C8.68 16 7.36 16 6 16 C6 15.34 6 14.68 6 14 C4.68 14 3.36 14 2 14 C2.02 14.47 2.02 14.47 2.12 16.88 C2 20 2 20 0 22 C-0.99 22.33 -1.98 22.66 -3 23 C-4.56 21.75 -4.56 21.75 -6 20 C-5.69 17.81 -5.69 17.81 -5 16 C-4.34 16.66 -3.68 17.32 -3 18 C-3 17.01 -3 16.02 -3 15 C-2.34 15 -1.68 15 -1 15 C-1 14.34 -1 13.68 -1 13 C0.98 12.67 2.96 12.34 5 12 C5 10.02 5 8.04 5 6 C3.35 6.33 1.7 6.66 0 7 C0 4.69 0 2.38 0 0 Z " fill="#D8BE9C" transform="translate(304,64)"/>
    </g></svg>