<svg version="1.1" xmlns="http://www.w3.org/2000/svg" width="600" height="347"><rect width="600" height="347" fill="white"/><g id="obj_00_scene__road_11" class="obj_00_scene__road_11" data-label="road_11">
      <path d="M0 0 C1.53 3.07 1.1 6.27 1.06 9.62 C1.06 10.33 1.05 11.04 1.05 11.77 C1.04 13.51 1.02 15.26 1 17 C2 16 2 16 2.06 14.14 C2.04 13.37 2.02 12.61 2 11.81 C1.95 8.09 2.25 4.66 3 1 C3.33 1.17 3.33 1.17 5 2 C5 9 5 16 5 23 C3.02 23 1.04 23 -1 23 C1.58 25.65 3.92 27.94 7 30 C6.87 31.8 6.87 31.8 6 34 C3.38 35.7 3.38 35.7 0.12 37.25 C-0.41 37.51 -0.41 37.51 -3.12 38.83 C-6 40 -6 40 -9 40 C-9.33 41.65 -9.66 43.3 -10 45 C-8.35 45.33 -6.7 45.66 -5 46 C-5 46.66 -5 47.32 -5 48 C-4.34 48 -3.68 48 -3 48 C-3 48.66 -3 49.32 -3 50 C-2.01 50.16 -2.01 50.16 3 51 C3 51.66 3 52.32 3 53 C3.76 53.08 4.53 53.16 5.31 53.25 C15.55 55.33 25.34 60.09 35 64 C35 64.66 35 65.32 35 66 C35.99 66 36.98 66 38 66 C38 66.66 38 67.32 38 68 C38.66 68.16 38.66 68.16 42 69 C42 69.66 42 70.32 42 71 C43.65 71.66 45.3 72.32 47 73 C47 75.31 47 77.62 47 80 C46.34 80 45.68 80 45 80 C44.67 81.65 44.34 83.3 44 85 C43.5 85.16 43.5 85.16 41 86 C41 86.66 41 87.32 41 88 C39.35 88.66 37.7 89.32 36 90 C35.34 89.34 34.68 88.68 34 88 C33.67 88.66 33.67 88.66 32 92 C31.01 92 30.02 92 29 92 C29 92.66 29 93.32 29 94 C27.35 94.33 25.7 94.66 24 95 C24 95.66 24 96.32 24 97 C22.02 97.33 20.04 97.66 18 98 C18 98.66 18 99.32 18 100 C16.68 100 15.36 100 14 100 C13.5 100.5 13.01 100.99 12.5 101.5 C12 102 11.51 102.49 11 103 C9.68 103 8.36 103 7 103 C6.84 103.5 6.84 103.5 6 106 C5.01 106 4.02 106 3 106 C2.83 106.66 2.83 106.66 2 110 C1.18 110.16 1.18 110.16 -3 111 C-3 111.99 -3 112.98 -3 114 C-3.99 114 -4.98 114 -6 114 C-6 115.32 -6 116.64 -6 118 C-6.17 118.5 -6.17 118.5 -7 121 C-5.35 121.66 -3.7 122.32 -2 123 C-2 124.32 -2 125.64 -2 127 C-1.01 127 -0.02 127 1 127 C1 127.66 1 128.32 1 129 C1.28 129.07 1.28 129.07 2.71 129.41 C5.05 130.01 7.33 130.7 9.62 131.44 C10.4 131.68 11.18 131.93 11.98 132.18 C14 133 14 133 16 135 C16.99 135.33 17.98 135.66 19 136 C19 136.66 19 137.32 19 138 C21.98 138.77 24.98 139.41 28 140 C28.33 140.99 28.66 141.98 29 143 C29.99 143.33 30.98 143.66 32 144 C36 148.34 36 148.34 36 152 C36.66 152.33 37.32 152.66 38 153 C38.62 155.56 38.62 155.56 39 158 C38.34 158 37.68 158 37 158 C35.92 160.65 34.91 163.28 34 166 C32.68 166 31.36 166 30 166 C30.33 166.99 30.66 167.98 31 169 C26.25 172 26.25 172 24 172 C23.92 172.58 23.83 173.16 23.75 173.75 C22.76 176.71 21.42 178.06 19 180 C17.68 180 16.36 180 15 180 C15 181.32 15 182.64 15 184 C13.02 184.66 11.04 185.32 9 186 C9 187.32 9 188.64 9 190 C8.01 190 7.02 190 6 190 C5.34 191.32 4.68 192.64 4 194 C3.34 194 2.68 194 2 194 C2 194.66 2 195.32 2 196 C0.68 196.33 -0.64 196.66 -2 197 C-2 197.66 -2 198.32 -2 199 C-0.68 198.67 0.64 198.34 2 198 C0.69 200 0.69 200 -1 202 C-1.99 202 -2.98 202 -4 202 C-3.65 202.93 -3.3 203.86 -2.94 204.81 C-2 208 -2 208 -3 211 C-2.67 211.33 -2.67 211.33 -1 213 C-1.33 213.66 -1.66 214.32 -2 215 C-1.34 215 -0.68 215 0 215 C0 215.66 0 216.32 0 217 C1.65 217 3.3 217 5 217 C5 217.66 5 218.32 5 219 C5.58 219.14 6.15 219.29 6.75 219.44 C8.83 219.96 10.92 220.48 13 221 C12.67 222.32 12.34 223.64 12 225 C13.65 225 15.3 225 17 225 C17.66 226.32 18.32 227.64 19 229 C18.67 229.33 18.34 229.66 18 230 C19.65 230.66 21.3 231.32 23 232 C23 232.66 23 233.32 23 234 C24.32 234.33 25.64 234.66 27 235 C25.68 235.33 24.36 235.66 23 236 C23.66 236.33 23.66 236.33 27 238 C27 240.31 27 242.62 27 245 C27.99 245.33 28.98 245.66 30 246 C30 246.66 30 247.32 30 248 C29.01 248.33 28.02 248.66 27 249 C27.5 249.33 27.5 249.33 30 251 C27.69 251.33 25.38 251.66 23 252 C24.26 254.51 25.5 254.87 28 256 C26.02 256 24.04 256 22 256 C22 256.66 22 257.32 22 258 C20.68 258 19.36 258 18 258 C19 259 19 259 21.56 259.06 C21.96 259.05 21.96 259.05 24 259 C22.68 259.99 21.36 260.98 20 262 C20.33 262.66 20.66 263.32 21 264 C19.02 264.33 17.04 264.66 15 265 C15 265.99 15 266.98 15 268 C14.01 268 13.02 268 12 268 C12 268.66 12 269.32 12 270 C13.98 270 15.96 270 18 270 C17.34 270.99 16.68 271.98 16 273 C17.32 273.33 18.64 273.66 20 274 C20 273.34 20 272.68 20 272 C22.31 272.33 24.62 272.66 27 273 C27 273.66 27 274.32 27 275 C27.66 275 28.32 275 29 275 C29 275.99 29 276.98 29 278 C27.02 278 25.04 278 23 278 C23 277.01 23 276.02 23 275 C20.36 275.33 17.72 275.66 15 276 C15 275.34 15 274.68 15 274 C12.69 274.66 10.38 275.32 8 276 C8.16 276.5 8.16 276.5 9 279 C6.36 279 3.72 279 1 279 C1 279.66 1 280.32 1 281 C0.34 281.33 -0.32 281.66 -1 282 C-0.34 282.66 0.32 283.32 1 284 C-5.78 284.08 -12.56 284.13 -19.34 284.16 C-21.65 284.18 -23.96 284.2 -26.27 284.23 C-29.58 284.26 -32.89 284.28 -36.21 284.29 C-36.72 284.3 -36.72 284.3 -39.34 284.34 C-40.3 284.34 -41.26 284.34 -42.25 284.34 C-43.1 284.35 -43.95 284.35 -44.82 284.36 C-47.46 283.92 -48.34 283.05 -50 281 C-49.34 281 -48.68 281 -48 281 C-48 280.34 -48 279.68 -48 279 C-48.6 279.01 -49.21 279.02 -49.83 279.04 C-50.23 279.04 -50.23 279.04 -52.25 279.06 C-52.64 279.07 -52.64 279.07 -54.64 279.1 C-56.91 279 -58.83 278.63 -61 278 C-61 277.34 -61 276.68 -61 276 C-55.06 276.66 -49.12 277.32 -43 278 C-42.67 276.68 -42.34 275.36 -42 274 C-39.03 273.34 -36.06 272.68 -33 272 C-33.99 271.34 -34.98 270.68 -36 270 C-33.36 270 -30.72 270 -28 270 C-28 269.34 -28 268.68 -28 268 C-29.32 268 -30.64 268 -32 268 C-31.67 267.01 -31.34 266.02 -31 265 C-28.94 264.31 -28.94 264.31 -27 264 C-27 263.34 -27 262.68 -27 262 C-25.57 261.33 -24.13 260.66 -22.69 260 C-21.89 259.63 -21.09 259.26 -20.26 258.88 C-18 258 -18 258 -15 258 C-15.66 257.67 -16.32 257.34 -17 257 C-17 256.34 -17 255.68 -17 255 C-16.11 254.86 -15.23 254.71 -14.31 254.56 C-11.53 254.09 -8.77 253.57 -6 253 C-7.32 252.34 -8.64 251.68 -10 251 C-10 250.34 -10 249.68 -10 249 C-7.69 248.67 -5.38 248.34 -3 248 C-3 247.34 -3 246.68 -3 246 C-4.65 245.67 -6.3 245.34 -8 245 C-8 244.34 -8 243.68 -8 243 C-6.68 243 -5.36 243 -4 243 C-4.52 242.61 -5.03 242.22 -5.56 241.81 C-6.04 241.21 -6.51 240.62 -7 240 C-6.69 237.31 -6.69 237.31 -6 235 C-7.65 235 -9.3 235 -11 235 C-10.67 234.01 -10.34 233.02 -10 232 C-11.98 231.01 -13.96 230.02 -16 229 C-16 228.34 -16 227.68 -16 227 C-17.32 226.67 -18.64 226.34 -20 226 C-19.67 224.68 -19.34 223.36 -19 222 C-19.74 222.52 -20.49 223.03 -21.25 223.56 C-24 225 -24 225 -26.25 224.88 C-26.83 224.59 -27.4 224.3 -28 224 C-28.33 223.01 -28.66 222.02 -29 221 C-27.68 220.67 -26.36 220.34 -25 220 C-26.32 219.34 -27.64 218.68 -29 218 C-28.67 217.34 -28.34 216.68 -28 216 C-29.32 215.34 -30.64 214.68 -32 214 C-32 213.01 -32 212.02 -32 211 C-32.66 210.34 -33.32 209.68 -34 209 C-32.68 209 -31.36 209 -30 209 C-30.17 208.34 -30.17 208.34 -31 205 C-30.34 204.67 -30.34 204.67 -27 203 C-27.33 202.67 -27.33 202.67 -29 201 C-28.01 200.34 -27.02 199.68 -26 199 C-26.33 198.34 -26.66 197.68 -27 197 C-25.62 195.5 -25.62 195.5 -24 194 C-23.34 194 -22.68 194 -22 194 C-22.33 193.01 -22.66 192.02 -23 191 C-21.68 191 -20.36 191 -19 191 C-18.67 189.35 -18.34 187.7 -18 186 C-16.35 186 -14.7 186 -13 186 C-13.33 185.01 -13.66 184.02 -14 183 C-13.01 182.67 -12.02 182.34 -11 182 C-9.83 180.37 -9.83 180.37 -8.81 178.44 C-8.51 177.87 -8.51 177.87 -7 175 C-5.02 175 -3.04 175 -1 175 C-0.67 173.68 -0.34 172.36 0 171 C1.32 171 2.64 171 4 171 C4 170.01 4 169.02 4 168 C4.66 168 5.32 168 6 168 C6 167.34 6 166.68 6 166 C6.8 165.73 7.61 165.46 8.44 165.19 C9.28 164.8 10.13 164.4 11 164 C11.33 163.01 11.66 162.02 12 161 C12.66 161 13.32 161 14 161 C13.84 160.18 13.84 160.18 13 156 C13.99 155.67 14.98 155.34 16 155 C15.5 154.24 15.01 153.47 14.5 152.69 C13 150 13 150 13 147 C11.02 146.34 9.04 145.68 7 145 C7 144.34 7 143.68 7 143 C5.35 143 3.7 143 2 143 C1.67 142.01 1.34 141.02 1 140 C-1.06 139.31 -1.06 139.31 -3 139 C-3 138.34 -3 137.68 -3 137 C-3.56 136.88 -4.11 136.75 -4.69 136.62 C-7.22 135.94 -9.58 135.01 -12 134 C-12 133.34 -12 132.68 -12 132 C-13.65 132 -15.3 132 -17 132 C-17.33 130.68 -17.66 129.36 -18 128 C-19.32 127.67 -20.64 127.34 -22 127 C-22 126.34 -22 125.68 -22 125 C-22.66 125 -23.32 125 -24 125 C-24 124.34 -24 123.68 -24 123 C-24.99 122.67 -25.98 122.34 -27 122 C-27 120.02 -27 118.04 -27 116 C-26.34 116 -25.68 116 -25 116 C-25.33 115.01 -25.66 114.02 -26 113 C-25.45 112.6 -24.89 112.2 -24.32 111.79 C-23.6 111.26 -22.87 110.73 -22.12 110.19 C-21.41 109.67 -20.69 109.14 -19.95 108.61 C-18 107 -18 107 -16 104 C-14.68 104 -13.36 104 -12 104 C-12.33 103.01 -12.66 102.02 -13 101 C-11.35 100.84 -11.35 100.84 -3 100 C-3 99.34 -3 98.68 -3 98 C0.37 96.5 2.2 96 6 96 C6 95.34 6 94.68 6 94 C8.08 93.18 10.17 92.37 12.25 91.56 C13.41 91.11 14.57 90.66 15.77 90.19 C18.19 89.3 20.48 88.54 23 88 C23 87.34 23 86.68 23 86 C24.65 84.97 26.32 83.98 28 83 C29.81 81.31 29.81 81.31 31 80 C28.6 71.08 28.6 71.08 27 69 C23.88 68.25 23.88 68.25 21 68 C21 67.34 21 66.68 21 66 C19.78 65.73 18.57 65.46 17.31 65.19 C14.71 64.54 12.94 63.96 10.62 62.56 C7.3 60.58 3.93 59.73 0.21 58.75 C-2 58 -2 58 -4 56 C-5.84 55.44 -5.84 55.44 -7.94 55 C-10.99 54.36 -12.29 53.81 -15 52 C-16.99 50.98 -18.99 49.98 -21 49 C-21 48.34 -21 47.68 -21 47 C-22.65 46.67 -24.3 46.34 -26 46 C-25.67 44.68 -25.34 43.36 -25 42 C-26.49 41.34 -26.49 41.34 -34 38 C-29.38 36.85 -26.93 37.57 -22.44 38.72 C-19.56 39.05 -18.47 38.41 -16 37 C-13.25 36.88 -13.25 36.88 -11 37 C-10.67 36.01 -10.34 35.02 -10 34 C-8.33 33.33 -6.67 32.67 -5 32 C-4.83 31.5 -4.83 31.5 -4 29 C-5.98 28.34 -7.96 27.68 -10 27 C-9.34 26.67 -8.68 26.34 -8 26 C-8 25.34 -8 24.68 -8 24 C-8.66 24 -9.32 24 -10 24 C-10 23.34 -10 22.68 -10 22 C-11.65 22.33 -13.3 22.66 -15 23 C-15.17 22.01 -15.17 22.01 -16 17 C-14 18 -14 18 -13 19 C-12.9 18.36 -12.79 17.72 -12.69 17.06 C-12.57 16.72 -12.57 16.72 -12 15 C-8.71 13.9 -7.29 14.2 -4 15 C-4 15.66 -4 16.32 -4 17 C-3.34 17 -2.68 17 -2 17 C-2.66 14.03 -3.32 11.06 -4 8 C-8 7 -8 7 -10 8 C-10 5.69 -10 3.38 -10 1 C-6.7 0.67 -3.4 0.34 0 0 Z " fill="#E7C99B" transform="translate(314,63)"/>
      <path d="M0 0 C1.53 3.07 1.1 6.27 1.06 9.62 C1.06 10.33 1.05 11.04 1.05 11.77 C1.04 13.51 1.02 15.26 1 17 C2 16 2 16 2.06 14.14 C2.04 13.37 2.02 12.61 2 11.81 C1.95 8.09 2.25 4.66 3 1 C3.66 1.33 4.32 1.66 5 2 C5 9 5 16 5 23 C3.02 23 1.04 23 -1 23 C1.58 25.65 3.92 27.94 7 30 C6.87 31.8 6.87 31.8 6 34 C3.38 35.7 3.38 35.7 0.12 37.25 C-0.41 37.51 -0.41 37.51 -3.12 38.83 C-6 40 -6 40 -9 40 C-9.33 41.65 -9.66 43.3 -10 45 C-8.35 45.33 -6.7 45.66 -5 46 C-5 46.66 -5 47.32 -5 48 C-4.34 48 -3.68 48 -3 48 C-3 48.66 -3 49.32 -3 50 C-2.01 50.16 -2.01 50.16 3 51 C3 51.66 3 52.32 3 53 C3.76 53.08 4.53 53.16 5.31 53.25 C15.55 55.33 25.34 60.09 35 64 C35 64.66 35 65.32 35 66 C35.99 66 36.98 66 38 66 C38 66.66 38 67.32 38 68 C38.66 68.16 38.66 68.16 42 69 C42 69.66 42 70.32 42 71 C43.65 71.66 45.3 72.32 47 73 C47 75.31 47 77.62 47 80 C46.34 80 45.68 80 45 80 C44.67 81.65 44.34 83.3 44 85 C43.5 85.16 43.5 85.16 41 86 C41 86.66 41 87.32 41 88 C39.35 88.66 37.7 89.32 36 90 C35.34 89.34 34.68 88.68 34 88 C33.67 88.66 33.67 88.66 32 92 C31.01 92 30.02 92 29 92 C29 92.66 29 93.32 29 94 C28.18 94.16 28.18 94.16 24 95 C24 95.66 24 96.32 24 97 C23.01 97.16 23.01 97.16 18 98 C18 98.66 18 99.32 18 100 C16.68 100 15.36 100 14 100 C13.5 100.5 13.01 100.99 12.5 101.5 C12 102 11.51 102.49 11 103 C9.68 103 8.36 103 7 103 C6.83 103.5 6.83 103.5 6 106 C5.01 106 4.02 106 3 106 C2.83 106.66 2.83 106.66 2 110 C1.18 110.16 1.18 110.16 -3 111 C-3 111.99 -3 112.98 -3 114 C-3.99 114 -4.98 114 -6 114 C-6 115.32 -6 116.64 -6 118 C-6.33 118.99 -6.66 119.98 -7 121 C-5.35 121.66 -3.7 122.32 -2 123 C-2 124.32 -2 125.64 -2 127 C-1.01 127 -0.02 127 1 127 C1 127.66 1 128.32 1 129 C1.28 129.07 1.28 129.07 2.71 129.41 C5.05 130.01 7.33 130.7 9.62 131.44 C10.4 131.68 11.18 131.93 11.98 132.18 C14 133 14 133 16 135 C16.99 135.33 17.98 135.66 19 136 C19 136.66 19 137.32 19 138 C21.98 138.77 24.98 139.41 28 140 C28.33 140.99 28.66 141.98 29 143 C29.99 143.33 30.98 143.66 32 144 C36 148.34 36 148.34 36 152 C36.66 152.33 37.32 152.66 38 153 C38.62 155.56 38.62 155.56 39 158 C38.34 158 37.68 158 37 158 C35.92 160.65 34.91 163.28 34 166 C32.68 166 31.36 166 30 166 C30.33 166.99 30.66 167.98 31 169 C26.25 172 26.25 172 24 172 C23.92 172.58 23.83 173.16 23.75 173.75 C22.73 176.81 21.6 178.09 19 180 C15.25 180.25 15.25 180.25 12 180 C11.67 181.32 11.34 182.64 11 184 C9.68 184.33 8.36 184.66 7 185 C7 185.99 7 186.98 7 188 C6.34 188 5.68 188 5 188 C5 188.99 5 189.98 5 191 C3.68 191 2.36 191 1 191 C1 191.66 1 192.32 1 193 C-1.31 193 -3.62 193 -6 193 C-5.67 193.99 -5.34 194.98 -5 196 C-8.9 198.6 -12.47 198.15 -17 198 C-17 197.01 -17 196.02 -17 195 C-16.05 194.69 -15.1 194.38 -14.12 194.06 C-11 193 -11 193 -9 192 C-10.65 191.34 -12.3 190.68 -14 190 C-11 188 -11 188 -7 188 C-7 187.34 -7 186.68 -7 186 C-6.34 186 -5.68 186 -5 186 C-5.17 185.34 -5.17 185.34 -6 182 C-4.35 181.01 -2.7 180.02 -1 179 C-1.33 178.67 -1.33 178.67 -3 177 C-1.85 176.67 -1.85 176.67 4 175 C4 174.34 4 173.68 4 173 C6.31 173 8.62 173 11 173 C11 171.68 11 170.36 11 169 C11.3 168.89 11.3 168.89 12.81 168.31 C15.63 166.62 16.6 164.95 18 162 C18 160.68 18 159.36 18 158 C18.66 158 19.32 158 20 158 C20 157.34 20 156.68 20 156 C19.4 155.94 18.8 155.88 18.19 155.81 C15.08 154.66 14.4 152.93 13 150 C13 149.01 13 148.02 13 147 C12.01 146.67 12.01 146.67 7 145 C7 144.34 7 143.68 7 143 C5.35 143 3.7 143 2 143 C1.67 142.01 1.34 141.02 1 140 C-1.06 139.31 -1.06 139.31 -3 139 C-3 138.34 -3 137.68 -3 137 C-3.28 136.94 -3.28 136.94 -4.69 136.62 C-7.22 135.94 -9.58 135.01 -12 134 C-12 133.34 -12 132.68 -12 132 C-13.65 132 -15.3 132 -17 132 C-17.17 131.34 -17.17 131.34 -18 128 C-19.32 127.67 -20.64 127.34 -22 127 C-22 126.34 -22 125.68 -22 125 C-22.66 125 -23.32 125 -24 125 C-24 124.34 -24 123.68 -24 123 C-24.99 122.67 -25.98 122.34 -27 122 C-27 120.02 -27 118.04 -27 116 C-26.34 116 -25.68 116 -25 116 C-25.33 115.01 -25.66 114.02 -26 113 C-25.45 112.6 -24.89 112.2 -24.32 111.79 C-23.6 111.26 -22.87 110.73 -22.12 110.19 C-21.41 109.67 -20.69 109.14 -19.95 108.61 C-18 107 -18 107 -16 104 C-14.68 104 -13.36 104 -12 104 C-12.33 103.01 -12.66 102.02 -13 101 C-11.35 100.84 -11.35 100.84 -3 100 C-3 99.34 -3 98.68 -3 98 C0.37 96.5 2.2 96 6 96 C6 95.34 6 94.68 6 94 C8.08 93.18 10.17 92.37 12.25 91.56 C13.41 91.11 14.57 90.66 15.77 90.19 C18.19 89.3 20.48 88.54 23 88 C23 87.34 23 86.68 23 86 C24.65 84.97 26.32 83.98 28 83 C29.81 81.31 29.81 81.31 31 80 C28.6 71.08 28.6 71.08 27 69 C23.88 68.25 23.88 68.25 21 68 C21 67.34 21 66.68 21 66 C19.78 65.73 18.57 65.46 17.31 65.19 C14.71 64.54 12.94 63.96 10.62 62.56 C7.3 60.58 3.93 59.73 0.21 58.75 C-2 58 -2 58 -4 56 C-5.84 55.44 -5.84 55.44 -7.94 55 C-10.99 54.36 -12.29 53.81 -15 52 C-16.99 50.98 -18.99 49.98 -21 49 C-21 48.34 -21 47.68 -21 47 C-22.65 46.67 -24.3 46.34 -26 46 C-25.67 44.68 -25.34 43.36 -25 42 C-26.49 41.34 -26.49 41.34 -34 38 C-29.38 36.85 -26.93 37.57 -22.44 38.72 C-19.56 39.05 -18.47 38.41 -16 37 C-13.25 36.88 -13.25 36.88 -11 37 C-10.67 36.01 -10.34 35.02 -10 34 C-8.33 33.33 -6.67 32.67 -5 32 C-4.67 31.01 -4.34 30.02 -4 29 C-5.98 28.34 -7.96 27.68 -10 27 C-9.34 26.67 -8.68 26.34 -8 26 C-8 25.34 -8 24.68 -8 24 C-8.66 24 -9.32 24 -10 24 C-10 23.34 -10 22.68 -10 22 C-11.65 22.33 -13.3 22.66 -15 23 C-15.33 21.02 -15.66 19.04 -16 17 C-14 18 -14 18 -13 19 C-12.9 18.36 -12.79 17.72 -12.69 17.06 C-12.57 16.72 -12.57 16.72 -12 15 C-8.71 13.9 -7.29 14.2 -4 15 C-4 15.66 -4 16.32 -4 17 C-3.34 17 -2.68 17 -2 17 C-2.66 14.03 -3.32 11.06 -4 8 C-8 7 -8 7 -10 8 C-10 5.69 -10 3.38 -10 1 C-6.7 0.67 -3.4 0.34 0 0 Z " fill="#EDD4AC" transform="translate(314,63)"/>
      <path d="M0 0 C1.02 -0.01 2.04 -0.03 3.1 -0.04 C5.92 0.19 7.54 0.73 9.94 2.19 C8.95 2.52 7.96 2.85 6.94 3.19 C6.61 4.18 6.28 5.17 5.94 6.19 C5.28 6.52 4.62 6.85 3.94 7.19 C5.75 7.68 5.75 7.68 14.94 10.19 C14.13 10.97 13.33 11.75 12.5 12.56 C9.94 15.19 9.94 15.19 8.94 17.19 C8.28 17.19 7.62 17.19 6.94 17.19 C7.1 17.85 7.1 17.85 7.94 21.19 C5.96 21.19 3.98 21.19 1.94 21.19 C1.94 21.85 1.94 22.51 1.94 23.19 C3.26 23.85 4.58 24.51 5.94 25.19 C5.64 25.33 5.64 25.33 4.15 26.05 C1.94 27.19 1.94 27.19 0.27 28.28 C-6.16 32.26 -12.3 31.24 -19.56 30.44 C-20.77 30.32 -21.97 30.21 -23.21 30.09 C-26.16 29.81 -29.11 29.51 -32.06 29.19 C-32.06 28.53 -32.06 27.87 -32.06 27.19 C-31.4 27.19 -30.74 27.19 -30.06 27.19 C-30.06 26.53 -30.06 25.87 -30.06 25.19 C-27.42 24.53 -24.78 23.87 -22.06 23.19 C-22.06 22.2 -22.06 21.21 -22.06 20.19 C-21.7 20.16 -21.7 20.16 -19.88 20 C-16.18 18.93 -14.62 17.01 -12.06 14.19 C-11.06 13.19 -10.06 12.19 -9.06 11.19 C-11.04 10.53 -13.02 9.87 -15.06 9.19 C-15.06 8.53 -15.06 7.87 -15.06 7.19 C-14.07 6.53 -13.08 5.87 -12.06 5.19 C-12.72 4.53 -13.38 3.87 -14.06 3.19 C-9.52 0.16 -5.38 0.03 0 0 Z " fill="#EED1A6" transform="translate(326.0625,298.8125)"/>
      <path d="M0 0 C1.02 -0.01 2.04 -0.03 3.1 -0.04 C5.92 0.19 7.54 0.73 9.94 2.19 C8.95 2.52 7.96 2.85 6.94 3.19 C6.61 4.18 6.28 5.17 5.94 6.19 C5.61 6.35 5.61 6.35 3.94 7.19 C4.42 7.33 4.42 7.33 6.88 8.06 C9.94 9.19 9.94 9.19 10.94 11.19 C9.8 11.48 8.67 11.76 7.5 12.06 C6.32 12.43 5.15 12.81 3.94 13.19 C3.61 13.85 3.28 14.51 2.94 15.19 C0.98 15.64 0.98 15.64 -1.44 15.88 C-2.23 15.96 -3.02 16.05 -3.84 16.14 C-6.06 16.19 -6.06 16.19 -9.06 15.19 C-9.39 14.2 -9.72 13.21 -10.06 12.19 C-9.73 11.86 -9.4 11.53 -9.06 11.19 C-11.04 10.53 -13.02 9.87 -15.06 9.19 C-15.06 8.53 -15.06 7.87 -15.06 7.19 C-14.07 6.53 -13.08 5.87 -12.06 5.19 C-12.72 4.53 -13.38 3.87 -14.06 3.19 C-9.52 0.16 -5.38 0.03 0 0 Z " fill="#F1DAB4" transform="translate(326.0625,298.8125)"/>
      <path d="M0 0 C2.64 0 5.28 0 8 0 C7.67 1.65 7.34 3.3 7 5 C6.01 5 5.02 5 4 5 C4 5.66 4 6.32 4 7 C4.99 7 5.98 7 7 7 C7 7.66 7 8.32 7 9 C5.91 9.29 4.81 9.58 3.69 9.88 C0 11 0 11 -3 13 C-9.34 13.6 -15.72 12.95 -22 12 C-22 11.34 -22 10.68 -22 10 C-21.34 10 -20.68 10 -20 10 C-20 9.34 -20 8.68 -20 8 C-16.84 7.06 -14.03 6.89 -10.75 6.94 C-9.86 6.95 -8.97 6.96 -8.05 6.96 C-7.37 6.98 -6.7 6.99 -6 7 C-5.67 6.01 -5.34 5.02 -5 4 C-3.35 4 -1.7 4 0 4 C0 2.68 0 1.36 0 0 Z " fill="#F0D8B2" transform="translate(316,316)"/>
    </g><g id="obj_00_scene__road_11__p2" class="obj_00_scene__road_11" data-label="road_11">
      <path d="M0 0 C3.3 0.33 6.6 0.66 10 1 C9.67 1.99 9.34 2.98 9 4 C9.99 4.17 9.99 4.17 15 5 C15.93 8.01 16.04 8.87 15 12 C15.66 12.66 16.32 13.32 17 14 C16.67 14.66 16.34 15.32 16 16 C16.66 16 17.32 16 18 16 C18 16.66 18 17.32 18 18 C19.32 18.33 20.64 18.66 22 19 C22 19.99 22 20.98 22 22 C23.98 22.33 25.96 22.66 28 23 C27.01 23.66 26.02 24.32 25 25 C25 25.66 25 26.32 25 27 C25.82 27.33 25.82 27.33 30 29 C29.34 29.33 29.34 29.33 26 31 C26 31.66 26 32.32 26 33 C27.65 33 29.3 33 31 33 C31 33.66 31 34.32 31 35 C26.33 35.67 21.67 36.33 17 37 C16.67 36.01 16.34 35.02 16 34 C15.5 33.83 15.5 33.83 13 33 C13.33 32.34 13.66 31.68 14 31 C11.36 31 8.72 31 6 31 C5.67 30.01 5.34 29.02 5 28 C6.65 27.01 8.3 26.02 10 25 C5.38 24.34 0.76 23.68 -4 23 C-4.33 22.01 -4.66 21.02 -5 20 C-4.01 19.67 -3.02 19.34 -2 19 C-2.33 18.01 -2.66 17.02 -3 16 C-3 15.67 -3 15.34 -3 15 C-4.65 14.67 -6.3 14.34 -8 14 C-7.67 12.68 -7.34 11.36 -7 10 C-5.68 10 -4.36 10 -3 10 C-3.33 9.01 -3.66 8.02 -4 7 C-3.34 6.01 -2.68 5.02 -2 4 C-1.34 4 -0.68 4 0 4 C0 2.68 0 1.36 0 0 Z " fill="#ECD2A9" transform="translate(296,262)"/>
      <path d="M0 0 C0.33 0.66 0.66 1.32 1 2 C2.65 1.34 4.3 0.68 6 0 C6 0.99 6 1.98 6 3 C4.85 3.5 4.85 3.5 -1 6 C-0.01 6.17 -0.01 6.17 5 7 C5 7.66 5 8.32 5 9 C7.31 9 9.62 9 12 9 C11.67 9.66 11.34 10.32 11 11 C10.01 11 9.02 11 8 11 C8.33 11.66 8.66 12.32 9 13 C9.99 13.33 10.98 13.66 12 14 C11.34 14 10.68 14 10 14 C9.34 15.32 8.68 16.64 8 18 C7.34 18 6.68 18 6 18 C6 18.66 6 19.32 6 20 C2.7 19.67 -0.6 19.34 -4 19 C-4.33 19.99 -4.66 20.98 -5 22 C-5.85 22.5 -6.69 22.99 -7.56 23.5 C-8.37 24 -9.17 24.49 -10 25 C-10 25.99 -10 26.98 -10 28 C-8.95 27.67 -7.9 27.34 -6.81 27 C-3.61 26.16 -1.26 25.8 2 26 C0 28 0 28 -3 29 C-0.69 29 1.62 29 4 29 C4 30.32 4 31.64 4 33 C5.65 33.33 7.3 33.66 9 34 C8.67 34.99 8.34 35.98 8 37 C3.71 35.68 -0.58 34.36 -5 33 C-5 32.34 -5 31.68 -5 31 C-6.98 30.67 -8.96 30.34 -11 30 C-11 29.34 -11 28.68 -11 28 C-11.66 28 -12.32 28 -13 28 C-13 27.34 -13 26.68 -13 26 C-14.65 25.67 -16.3 25.34 -18 25 C-17.87 22.67 -17.87 22.67 -17 20 C-14.38 18.49 -14.38 18.49 -11.12 17.31 C-7.74 16.06 -5.02 15.01 -2 13 C-2 12.01 -2 11.02 -2 10 C-3.53 8.68 -3.53 8.68 -5.5 7.44 C-7.47 6.18 -7.47 6.18 -9 5 C-9 4.34 -9 3.68 -9 3 C-8.43 2.87 -7.87 2.73 -7.29 2.6 C-6.92 2.51 -6.92 2.51 -5.06 2.06 C-4.33 1.89 -3.6 1.71 -2.85 1.54 C-1 1 -1 1 0 0 Z " fill="#B8A466" transform="translate(322,83)"/>
      <path d="M0 0 C0.33 0.66 0.66 1.32 1 2 C3.06 3.12 3.06 3.12 5 4 C3.68 4.33 2.36 4.66 1 5 C1 5.66 1 6.32 1 7 C1.71 7.05 2.42 7.1 3.15 7.15 C4.07 7.22 4.99 7.3 5.94 7.38 C6.4 7.41 6.4 7.41 8.71 7.59 C9.09 7.65 9.09 7.65 11 8 C11.33 8.66 11.66 9.32 12 10 C10.35 10.66 8.7 11.32 7 12 C10 13 10 13 13 13 C13 13.66 13 14.32 13 15 C10.67 15.33 10.67 15.33 -1 17 C-1.33 16.01 -1.66 15.02 -2 14 C-2.99 13.67 -3.98 13.34 -5 13 C-4.67 12.34 -4.34 11.68 -4 11 C-6.64 11 -9.28 11 -12 11 C-12.33 10.01 -12.66 9.02 -13 8 C-11.35 7.01 -9.7 6.02 -8 5 C-10.31 4.34 -12.62 3.68 -15 3 C-15 2.34 -15 1.68 -15 1 C-10.04 -0.32 -5.09 -0.09 0 0 Z " fill="#F2DBB6" transform="translate(314,282)"/>
      <path d="M0 0 C2.13 1.07 3.37 2.29 5 4 C3.02 4.33 1.04 4.66 -1 5 C-0.79 5.62 -0.59 6.24 -0.38 6.88 C-0.25 7.58 -0.13 8.28 0 9 C-2 11 -2 11 -4.62 11.12 C-5.41 11.08 -6.19 11.04 -7 11 C-7 11.66 -7 12.32 -7 13 C-7.68 12.84 -8.35 12.69 -9.05 12.53 C-9.94 12.33 -10.83 12.14 -11.75 11.94 C-12.63 11.74 -13.51 11.54 -14.42 11.34 C-16.99 11 -18.57 11.19 -21 12 C-20.67 12.99 -20.34 13.98 -20 15 C-20.99 15 -21.98 15 -23 15 C-23.33 15.66 -23.66 16.32 -24 17 C-24.66 16.67 -25.32 16.34 -26 16 C-26 15.34 -26 14.68 -26 14 C-26.3 14.09 -26.3 14.09 -27.81 14.56 C-30 15 -30 15 -33 14 C-33.33 12.02 -33.66 10.04 -34 8 C-36.31 7.67 -38.62 7.34 -41 7 C-37.79 5.09 -35.46 4.78 -31.75 4.88 C-30.86 4.89 -29.97 4.91 -29.05 4.93 C-28.71 4.94 -28.71 4.94 -27 5 C-26.67 4.34 -26.34 3.68 -26 3 C-25.67 3.99 -25.34 4.98 -25 6 C-21.83 7.59 -18.36 7.38 -14.88 7.56 C-14.5 7.58 -14.5 7.58 -12.59 7.69 C-10.73 7.8 -8.86 7.9 -7 8 C-6.67 7.01 -6.34 6.02 -6 5 C-5.01 5 -4.02 5 -3 5 C-3 3.68 -3 2.36 -3 1 C-2.01 0.67 -1.02 0.34 0 0 Z " fill="#BEA973" transform="translate(284,263)"/>
      <path d="M0 0 C5.99 -0.32 9.64 0.32 15 3 C15 3.33 15 3.66 15 4 C13.54 3.86 12.08 3.71 10.62 3.56 C10.22 3.52 10.22 3.52 8.16 3.32 C6 3 6 3 4 2 C4.33 2.99 4.66 3.98 5 5 C3.51 5.17 3.51 5.17 -4 6 C-4 6.99 -4 7.98 -4 9 C-3.03 9.45 -2.06 9.91 -1.06 10.38 C2 12 2 12 3 14 C5.06 14.62 5.06 14.62 7 15 C7 15.66 7 16.32 7 17 C3.7 16.34 0.4 15.68 -3 15 C-3 15.66 -3 16.32 -3 17 C-5.31 16.67 -7.62 16.34 -10 16 C-10.33 15.01 -10.66 14.02 -11 13 C-13.64 13.33 -16.28 13.66 -19 14 C-19.33 13.34 -19.66 12.68 -20 12 C-18.68 12 -17.36 12 -16 12 C-16 11.34 -16 10.68 -16 10 C-17.98 10 -19.96 10 -22 10 C-22 10.66 -22 11.32 -22 12 C-22.99 12 -23.98 12 -25 12 C-25 11.34 -25 10.68 -25 10 C-19.92 7.17 -15.82 5.72 -10 5 C-6.94 4.17 -3.9 3.3 -1 2 C-0.67 1.34 -0.34 0.68 0 0 Z " fill="#BAA98B" transform="translate(282,295)"/>
      <path d="M0 0 C3.3 0 6.6 0 10 0 C9.67 0.16 9.67 0.16 8 1 C7.38 3.06 7.38 3.06 7 5 C8.29 5.39 9.58 5.76 10.88 6.12 C11.59 6.33 12.31 6.54 13.05 6.76 C13.7 6.84 14.34 6.92 15 7 C15.66 6.34 16.32 5.68 17 5 C19.32 4.6 21.66 4.26 24 4 C24 3.01 24 2.02 24 1 C24.99 1 25.98 1 27 1 C27 1.66 27 2.32 27 3 C29.31 3 31.62 3 34 3 C34 2.34 34 1.68 34 1 C34.66 1 35.32 1 36 1 C36.17 1.5 36.17 1.5 37 4 C35.68 4.33 34.36 4.66 33 5 C33 5.66 33 6.32 33 7 C32.34 7 31.68 7 31 7 C30.67 7.66 30.34 8.32 30 9 C29.34 8.67 28.68 8.34 28 8 C28 8.66 28 9.32 28 10 C26.35 10.33 24.7 10.66 23 11 C23 10.01 23 9.02 23 8 C21.06 8.69 21.06 8.69 19 10 C18.25 12.62 18.25 12.62 18 15 C17.01 15 16.02 15 15 15 C15 14.34 15 13.68 15 13 C13.68 12.67 12.36 12.34 11 12 C11 11.01 11 10.02 11 9 C10.54 9.02 10.54 9.02 8.19 9.12 C5 9 5 9 2 7 C2 6.34 2 5.68 2 5 C1.01 4.67 0.02 4.34 -1 4 C-0.67 2.68 -0.34 1.36 0 0 Z " fill="#B8A467" transform="translate(331,194)"/>
      <path d="M0 0 C0 0.66 0 1.32 0 2 C0.57 1.81 1.14 1.61 1.73 1.41 C4.45 0.92 5.73 1.39 8.25 2.44 C8.96 2.72 9.66 3.01 10.39 3.31 C10.92 3.54 11.45 3.76 12 4 C11.67 4.66 11.34 5.32 11 6 C10.01 6.33 9.02 6.66 8 7 C8.99 7.16 8.99 7.16 14 8 C14 8.99 14 9.98 14 11 C14.99 11 15.98 11 17 11 C16.83 10.5 16.83 10.5 16 8 C18.19 7.25 18.19 7.25 21 7 C23.81 8.81 23.81 8.81 26 11 C26 11.66 26 12.32 26 13 C24.02 12.67 22.04 12.34 20 12 C20 11.01 20 10.02 20 9 C19.34 9.99 18.68 10.98 18 12 C11.88 12.44 11.88 12.44 9 11 C9 10.34 9 9.68 9 9 C3.39 9 -2.22 9 -8 9 C-8 9.66 -8 10.32 -8 11 C-11.3 10.01 -14.6 9.02 -18 8 C-18 7.34 -18 6.68 -18 6 C-15.33 6 -12.67 6 -10 6 C-10 5.34 -10 4.68 -10 4 C-8.35 3.67 -6.7 3.34 -5 3 C-5 2.34 -5 1.68 -5 1 C-2 0 -2 0 0 0 Z " fill="#C1AC6E" transform="translate(401,218)"/>
      <path d="M0 0 C1.26 0.09 2.52 0.18 3.82 0.27 C4.83 0.43 5.84 0.59 6.88 0.75 C7.2 1.41 7.53 2.07 7.88 2.75 C9.94 3.38 9.94 3.38 11.88 3.75 C11.88 4.41 11.88 5.07 11.88 5.75 C13.19 6.08 14.51 6.41 15.88 6.75 C15.55 5.76 15.22 4.77 14.88 3.75 C15.88 2.75 15.88 2.75 19.19 2.56 C22.52 2.73 24.13 2.99 26.88 4.75 C26.88 5.41 26.88 6.07 26.88 6.75 C25.56 7.08 24.24 7.41 22.88 7.75 C23.53 9.4 24.19 11.05 24.88 12.75 C22.27 12.5 19.67 12.22 17.06 11.94 C16.32 11.87 15.59 11.8 14.83 11.72 C9.33 11.1 9.33 11.1 6.86 9.18 C6.7 8.94 6.7 8.94 5.88 7.75 C7.19 7.75 8.51 7.75 9.88 7.75 C9.88 7.09 9.88 6.43 9.88 5.75 C8.29 5.55 6.71 5.37 5.12 5.19 C4.24 5.08 3.36 4.98 2.45 4.87 C-0.02 4.75 -1.76 5.14 -4.12 5.75 C-4.78 5.42 -5.44 5.09 -6.12 4.75 C-6.12 5.41 -6.12 6.07 -6.12 6.75 C-6.78 6.75 -7.44 6.75 -8.12 6.75 C-7.8 5.43 -7.47 4.11 -7.12 2.75 C-8.11 2.42 -9.11 2.09 -10.12 1.75 C-6.32 -0.79 -4.5 -0.35 0 0 Z " fill="#DCB982" transform="translate(124.125,277.25)"/>
      <path d="M0 0 C0.66 0.33 1.32 0.66 2 1 C2.33 2.33 2.67 3.67 3 5 C3.66 5.33 4.32 5.66 5 6 C5.62 8.56 5.62 8.56 6 11 C5.34 11 4.68 11 4 11 C2.92 13.65 1.91 16.28 1 19 C-0.32 19 -1.64 19 -3 19 C-2.67 19.99 -2.34 20.98 -2 22 C-6.75 25 -6.75 25 -9 25 C-9.1 25.62 -9.21 26.24 -9.31 26.88 C-10 29 -10 29 -13 31 C-15.19 30.62 -15.19 30.62 -17 30 C-17 29.34 -17 28.68 -17 28 C-15.68 27.67 -14.36 27.34 -13 27 C-13 25.02 -13 23.04 -13 21 C-11.35 21 -9.7 21 -8 21 C-7.67 19.02 -7.34 17.04 -7 15 C-5.02 15 -3.04 15 -1 15 C-0.34 13.02 0.32 11.04 1 9 C0.34 8.67 -0.32 8.34 -1 8 C-1 6 -1 6 1 4 C0.62 1.88 0.62 1.88 0 0 Z " fill="#E9CA9B" transform="translate(347,210)"/>
    </g><g id="obj_00_scene__road_11__p3" class="obj_00_scene__road_11" data-label="road_11">
      <path d="M0 0 C1.65 0.66 3.3 1.32 5 2 C5 2.66 5 3.32 5 4 C5.99 4 6.98 4 8 4 C8 5.32 8 6.64 8 8 C8.66 8 9.32 8 10 8 C10 7.34 10 6.68 10 6 C10.66 6 11.32 6 12 6 C12.33 7.65 12.66 9.3 13 11 C12.01 11 11.02 11 10 11 C9.67 11.99 9.34 12.98 9 14 C9 12.35 9 10.7 9 9 C8.34 9 7.68 9 7 9 C6.88 9.66 6.75 10.32 6.62 11 C5.85 14.7 4.93 18.34 4 22 C3.34 22 2.68 22 2 22 C2.38 23.94 2.38 23.94 3 26 C3.66 26.33 4.32 26.66 5 27 C5 27.66 5 28.32 5 29 C5.66 29 6.32 29 7 29 C7 29.99 7 30.98 7 32 C8.32 31.67 9.64 31.34 11 31 C11.93 33.61 12.15 34.64 11.06 37.25 C10.89 37.54 10.89 37.54 10 39 C9.34 38.34 8.68 37.68 8 37 C7.55 37.83 7.09 38.65 6.62 39.5 C6.09 40.33 5.55 41.15 5 42 C4.34 42 3.68 42 3 42 C2.88 41.2 2.75 40.39 2.62 39.56 C2.42 38.72 2.21 37.87 2 37 C1.34 36.67 0.68 36.34 0 36 C0.66 34.68 1.32 33.36 2 32 C1.34 32 0.68 32 0 32 C-0.13 31.68 -0.13 31.68 -0.77 30.07 C-0.94 29.65 -0.94 29.65 -1.81 27.56 C-2.15 26.74 -2.49 25.92 -2.83 25.07 C-4 23 -4 23 -7 22 C-6.67 21.34 -6.34 20.68 -6 20 C-6.66 20 -7.32 20 -8 20 C-8.33 21.32 -8.66 22.64 -9 24 C-9.66 24 -10.32 24 -11 24 C-11 23.34 -11 22.68 -11 22 C-12.65 22 -14.3 22 -16 22 C-16.66 20.35 -17.32 18.7 -18 17 C-17.34 17 -16.68 17 -16 17 C-16 16.34 -16 15.68 -16 15 C-16.99 15 -17.98 15 -19 15 C-18.67 14.01 -18.34 13.02 -18 12 C-18 12.66 -18 13.32 -18 14 C-17.34 14 -16.68 14 -16 14 C-15.67 13.34 -15.34 12.68 -15 12 C-15 12.66 -15 13.32 -15 14 C-12.24 14.6 -9.84 15 -7 15 C-5.31 16.5 -5.31 16.5 -4 18 C-3.34 16.02 -2.68 14.04 -2 12 C-1.01 12 -0.02 12 1 12 C1.33 11.34 1.66 10.68 2 10 C2.99 10 3.98 10 5 10 C4.67 8.68 4.34 7.36 4 6 C3.67 6.33 3.34 6.66 3 7 C2.67 7.16 2.67 7.16 1 8 C1 8.66 1 9.32 1 10 C0.01 9.84 0.01 9.84 -5 9 C-5.33 9.66 -5.66 10.32 -6 11 C-8.65 11.59 -11.29 11.74 -14 12 C-14 10.68 -14 9.36 -14 8 C-12.19 7.84 -12.19 7.84 -3 7 C-3.33 6.01 -3.66 5.02 -4 4 C-2.68 3.34 -1.36 2.68 0 2 C0 1.34 0 0.68 0 0 Z " fill="#BBAF97" transform="translate(238,46)"/>
      <path d="M0 0 C1.53 3.07 1.1 6.27 1.06 9.62 C1.06 10.33 1.05 11.04 1.05 11.77 C1.04 13.51 1.02 15.26 1 17 C2 16 2 16 2.06 14.14 C2.04 13.37 2.02 12.61 2 11.81 C1.95 8.09 2.25 4.66 3 1 C3.66 1.33 4.32 1.66 5 2 C5 9 5 16 5 23 C3.02 23 1.04 23 -1 23 C-0.67 23.99 -0.34 24.98 0 26 C-1.65 26 -3.3 26 -5 26 C-4.67 26.99 -4.34 27.98 -4 29 C-5.98 28.34 -7.96 27.68 -10 27 C-9.34 26.67 -8.68 26.34 -8 26 C-8 25.34 -8 24.68 -8 24 C-8.66 24 -9.32 24 -10 24 C-10 23.34 -10 22.68 -10 22 C-11.65 22.33 -13.3 22.66 -15 23 C-15.33 21.02 -15.66 19.04 -16 17 C-14 18 -14 18 -13 19 C-12.9 18.36 -12.79 17.72 -12.69 17.06 C-12.46 16.38 -12.23 15.7 -12 15 C-8.71 13.9 -7.29 14.2 -4 15 C-4 15.66 -4 16.32 -4 17 C-3.34 17 -2.68 17 -2 17 C-2.66 14.03 -3.32 11.06 -4 8 C-8 7 -8 7 -10 8 C-10 5.69 -10 3.38 -10 1 C-6.7 0.67 -3.4 0.34 0 0 Z " fill="#DEC7A4" transform="translate(314,63)"/>
      <path d="M0 0 C1.81 0.17 1.81 0.17 11 1 C11 1.66 11 2.32 11 3 C12.65 3.33 12.65 3.33 21 5 C21 5.66 21 6.32 21 7 C15.06 7 9.12 7 3 7 C2.67 7.66 2.34 8.32 2 9 C0.68 9.33 -0.64 9.66 -2 10 C-0.19 10.33 -0.19 10.33 9 12 C9 12.33 9 12.66 9 13 C4.22 13.74 -0.48 14.13 -5.31 14.25 C-6.32 14.28 -7.33 14.3 -8.36 14.33 C-11 14 -11 14 -12.86 12.48 C-13.23 11.99 -13.61 11.5 -14 11 C-13.34 11 -12.68 11 -12 11 C-12 10.34 -12 9.68 -12 9 C-12.6 9.01 -13.21 9.02 -13.83 9.04 C-14.23 9.04 -14.23 9.04 -16.25 9.06 C-16.64 9.07 -16.64 9.07 -18.64 9.1 C-20.91 9 -22.83 8.63 -25 8 C-25 7.34 -25 6.68 -25 6 C-19.06 6.66 -13.12 7.32 -7 8 C-6.67 6.68 -6.34 5.36 -6 4 C-3.03 3.34 -0.06 2.68 3 2 C2.01 1.34 1.02 0.68 0 0 Z " fill="#DAB885" transform="translate(278,333)"/>
      <path d="M0 0 C1.65 0 3.3 0 5 0 C5 0.66 5 1.32 5 2 C4.01 2 3.02 2 2 2 C2 2.66 2 3.32 2 4 C3.98 4 5.96 4 8 4 C7.67 4.5 7.67 4.5 6 7 C7.32 7.33 8.64 7.66 10 8 C10 7.34 10 6.68 10 6 C12.31 6.33 14.62 6.66 17 7 C17 7.66 17 8.32 17 9 C17.66 9 18.32 9 19 9 C19 9.99 19 10.98 19 12 C17.02 12 15.04 12 13 12 C13 11.01 13 10.02 13 9 C10.36 9.33 7.72 9.66 5 10 C5 9.34 5 8.68 5 8 C2.69 8.66 0.38 9.32 -2 10 C-1.67 10.99 -1.34 11.98 -1 13 C-3.64 13 -6.28 13 -9 13 C-9 13.66 -9 14.32 -9 15 C-9.33 15.17 -9.33 15.17 -11 16 C-10.34 16.66 -9.68 17.32 -9 18 C-11.97 18 -14.94 18 -18 18 C-18.33 16.68 -18.66 15.36 -19 14 C-18.01 14 -17.02 14 -16 14 C-16 13.01 -16 12.02 -16 11 C-17.98 10.34 -19.96 9.68 -22 9 C-18.91 7.97 -17.47 8.03 -14.31 8.44 C-13.5 8.54 -12.7 8.64 -11.86 8.75 C-11.25 8.83 -10.63 8.91 -10 9 C-10 8.34 -10 7.68 -10 7 C-6.71 6.2 -5.29 5.9 -2 7 C0.19 6.56 0.19 6.56 2 6 C0.35 4.68 -1.3 3.36 -3 2 C-2.01 2 -1.02 2 0 2 C0 1.34 0 0.68 0 0 Z " fill="#DCBC89" transform="translate(324,329)"/>
      <path d="M0 0 C0 2.31 0 4.62 0 7 C0.99 7.33 1.98 7.66 3 8 C3 8.66 3 9.32 3 10 C2.01 10.33 1.02 10.66 0 11 C0.99 11.66 1.98 12.32 3 13 C0.69 13.33 -1.62 13.66 -4 14 C-2.74 16.51 -1.5 16.87 1 18 C-0.98 18 -2.96 18 -5 18 C-5 18.66 -5 19.32 -5 20 C-6.32 20 -7.64 20 -9 20 C-8 21 -8 21 -5.44 21.06 C-5.04 21.05 -5.04 21.05 -3 21 C-4.32 21.99 -5.64 22.98 -7 24 C-6.67 24.66 -6.34 25.32 -6 26 C-10.75 27.12 -10.75 27.12 -13 26 C-13 25.34 -13 24.68 -13 24 C-12.01 23.67 -11.02 23.34 -10 23 C-12.31 22.67 -14.62 22.34 -17 22 C-15.68 21.67 -14.36 21.34 -13 21 C-13 20.34 -13 19.68 -13 19 C-11.35 18.67 -9.7 18.34 -8 18 C-8 17.01 -8 16.02 -8 15 C-7.34 14.67 -6.68 14.34 -6 14 C-6.66 13.34 -7.32 12.68 -8 12 C-6.02 11.01 -4.04 10.02 -2 9 C-5.53 6.88 -8.94 6.47 -13 6 C-12.36 5.75 -11.72 5.5 -11.06 5.25 C-9 4 -9 4 -8.44 1.94 C-8.29 1.3 -8.15 0.66 -8 0 C-4.71 -1.1 -3.29 -0.8 0 0 Z " fill="#E2C18C" transform="translate(341,301)"/>
      <path d="M0 0 C0.99 0 1.98 0 3 0 C3 0.66 3 1.32 3 2 C3.29 2.07 3.29 2.07 4.75 2.44 C6.83 2.96 8.92 3.48 11 4 C10.67 5.32 10.34 6.64 10 8 C11.65 8 13.3 8 15 8 C15.66 9.32 16.32 10.64 17 12 C16.67 12.33 16.34 12.66 16 13 C17.65 13.66 19.3 14.32 21 15 C21 15.66 21 16.32 21 17 C22.32 17.33 23.64 17.66 25 18 C20.43 20.29 16.37 20.3 11.38 20.25 C10.61 20.26 9.85 20.27 9.06 20.27 C5.19 20.26 3.29 20.19 0 18 C1.46 17.83 2.92 17.67 4.38 17.5 C5.19 17.41 6 17.31 6.84 17.22 C9 17 9 17 11 17 C11 16.34 11 15.68 11 15 C10.24 15.23 9.47 15.45 8.69 15.69 C7.8 15.79 6.91 15.89 6 16 C4.19 14.56 4.19 14.56 3 13 C4.98 12.34 6.96 11.68 9 11 C8.18 10.67 8.18 10.67 4 9 C4 7.68 4 6.36 4 5 C2.68 4.34 1.36 3.68 0 3 C0 2.01 0 1.02 0 0 Z " fill="#E7C999" transform="translate(316,280)"/>
    </g><g id="obj_00_scene__road_11__p4" class="obj_00_scene__road_11" data-label="road_11">
      <path d="M0 0 C0.99 0.33 1.98 0.66 3 1 C3 2.65 3 4.3 3 6 C2.34 6 1.68 6 1 6 C0.67 9.3 0.34 12.6 0 16 C-0.66 16 -1.32 16 -2 16 C-2 17.32 -2 18.64 -2 20 C-2.99 20 -3.98 20 -5 20 C0.67 22.28 4.87 23.59 11 22 C11.99 21.34 12.98 20.68 14 20 C14.99 20.33 15.98 20.66 17 21 C15.73 23.51 15.73 23.51 13 26 C9.05 26.51 5.21 26.15 1.25 25.81 C0.17 25.74 -0.91 25.67 -2.02 25.6 C-4.68 25.42 -7.34 25.22 -10 25 C-10 24.34 -10 23.68 -10 23 C-11.32 23.33 -12.64 23.66 -14 24 C-14.33 23.01 -14.66 22.02 -15 21 C-14.01 21 -13.02 21 -12 21 C-12 20.01 -12 19.02 -12 18 C-11.43 17.77 -11.43 17.77 -8.56 16.62 C-5 15 -5 15 -4 13 C-5.65 13.33 -7.3 13.66 -9 14 C-9 13.34 -9 12.68 -9 12 C-11.31 12.33 -13.62 12.66 -16 13 C-16 12.34 -16 11.68 -16 11 C-16.99 10.67 -17.98 10.34 -19 10 C-18.01 10 -17.02 10 -16 10 C-16 9.34 -16 8.68 -16 8 C-16.66 8 -17.32 8 -18 8 C-18 7.01 -18 6.02 -18 5 C-17.12 5.08 -16.24 5.17 -15.33 5.25 C-14.75 5.3 -14.75 5.3 -11.81 5.56 C-10.66 5.67 -9.52 5.77 -8.33 5.88 C-5.29 5.99 -2.9 5.89 0 5 C0.33 4.34 0.66 3.68 1 3 C0.01 2.67 -0.98 2.34 -2 2 C-1.34 2 -0.68 2 0 2 C0 1.34 0 0.68 0 0 Z " fill="#B9A573" transform="translate(228,72)"/>
      <path d="M0 0 C0 0.66 0 1.32 0 2 C-1.98 2 -3.96 2 -6 2 C-6 2.66 -6 3.32 -6 4 C-5.01 4 -4.02 4 -3 4 C-3 4.66 -3 5.32 -3 6 C-4.98 6 -6.96 6 -9 6 C-9.33 6.66 -9.66 7.32 -10 8 C-10.54 7.98 -10.54 7.98 -13.25 7.88 C-17 8 -17 8 -18.94 9.06 C-22.32 10.6 -25.39 9.6 -29 9 C-28.67 8.01 -28.34 7.02 -28 6 C-27.22 6.06 -26.43 6.12 -25.62 6.19 C-24.76 6.13 -23.89 6.06 -23 6 C-22.34 5.01 -21.68 4.02 -21 3 C-17.88 2.81 -17.88 2.81 -15 3 C-16.32 2.34 -17.64 1.68 -19 1 C-19 0.34 -19 -0.32 -19 -1 C-12.18 -1.83 -6.48 -2.5 0 0 Z " fill="#BAA876" transform="translate(418,303)"/>
    </g></svg>