<svg version="1.1" xmlns="http://www.w3.org/2000/svg" width="600" height="347"><rect width="600" height="347" fill="white"/><g id="obj_00_scene__road_32" class="obj_00_scene__road_32" data-label="road_32">
      <path d="M0 0 C2.68 0.65 5.19 0.9 7.94 1.08 C11.9 1.43 14.36 2.24 17.62 4.64 C18.95 5.32 20.28 5.99 21.62 6.64 C21.62 7.63 21.62 8.62 21.62 9.64 C22.94 9.97 24.26 10.3 25.62 10.64 C25.29 11.3 24.97 11.96 24.62 12.64 C21 12.64 17.37 12.64 13.62 12.64 C13.96 11.65 14.28 10.66 14.62 9.64 C15.28 9.64 15.94 9.64 16.62 9.64 C16.62 8.98 16.62 8.32 16.62 7.64 C14.64 8.3 12.66 8.96 10.62 9.64 C10.46 9.15 10.46 9.15 9.62 6.64 C8.31 6.64 6.99 6.64 5.62 6.64 C5.29 8.62 4.97 10.6 4.62 12.64 C4.34 12.63 4.34 12.63 2.9 12.57 C-2.27 12.45 -6.4 13.05 -11.38 14.64 C-13.37 15 -15.37 15.35 -17.38 15.64 C-16.38 15.97 -15.39 16.3 -14.38 16.64 C-14.38 17.96 -14.38 19.28 -14.38 20.64 C-15.08 20.82 -15.78 21 -16.5 21.19 C-21.06 22.4 -25.5 23.62 -29.88 25.39 C-33.38 26.64 -33.38 26.64 -36.38 25.64 C-36.38 26.3 -36.38 26.96 -36.38 27.64 C-39.01 27.64 -41.65 27.64 -44.38 27.64 C-44.7 26.65 -45.04 25.66 -45.38 24.64 C-44.38 24.64 -43.39 24.64 -42.38 24.64 C-42.38 23.98 -42.38 23.32 -42.38 22.64 C-43.69 22.31 -45.01 21.98 -46.38 21.64 C-46.38 20.65 -46.38 19.66 -46.38 18.64 C-49.01 18.31 -51.65 17.98 -54.38 17.64 C-54.38 18.96 -54.38 20.28 -54.38 21.64 C-55.69 21.31 -57.01 20.98 -58.38 20.64 C-58.05 23.28 -57.71 25.92 -57.38 28.64 C-56.38 28.64 -55.39 28.64 -54.38 28.64 C-52.45 30.46 -51 32.53 -49.38 34.64 C-50.04 34.64 -50.69 34.64 -51.38 34.64 C-51.38 35.3 -51.38 35.96 -51.38 36.64 C-52.69 36.64 -54.01 36.64 -55.38 36.64 C-55.38 35.98 -55.38 35.32 -55.38 34.64 C-56.37 34.31 -57.36 33.98 -58.38 33.64 C-58.38 31.99 -58.38 30.34 -58.38 28.64 C-59.37 28.64 -60.36 28.64 -61.38 28.64 C-61.18 19.68 -61.18 19.68 -58 15.58 C-53.76 12.45 -50.52 12.54 -45.38 12.64 C-45.38 11.98 -45.38 11.32 -45.38 10.64 C-42.4 9.4 -39.52 8.34 -36.38 7.64 C-36.38 6.98 -36.38 6.32 -36.38 5.64 C-32.68 6.53 -29.03 7.59 -25.38 8.64 C-26.03 8.97 -26.69 9.3 -27.38 9.64 C-27.38 10.3 -27.38 10.96 -27.38 11.64 C-20.77 11.64 -14.18 11.64 -7.38 11.64 C-7.38 10.98 -7.38 10.32 -7.38 9.64 C-8.37 9.31 -9.36 8.98 -10.38 8.64 C-10.72 7.31 -11.05 5.98 -11.38 4.64 C-12.37 3.98 -13.36 3.32 -14.38 2.64 C-9.04 -1.3 -6.36 -1.67 0 0 Z " fill="#BFA979" transform="translate(514.375,310.359375)"/>
      <path d="M0 0 C1.98 0 3.96 0 6 0 C6 0.99 6 1.98 6 3 C12.88 2.12 12.88 2.12 14 1 C16.35 0.76 18.71 0.59 21.06 0.44 C22.35 0.35 23.64 0.27 24.97 0.18 C25.97 0.12 26.97 0.06 28 0 C28.16 0.5 28.16 0.5 29 3 C28.34 3.33 28.34 3.33 25 5 C25.83 5.17 25.83 5.17 30 6 C29.01 6.66 28.02 7.32 27 8 C31.29 8.99 35.58 9.98 40 11 C40 11.66 40 12.32 40 13 C43.96 13 47.92 13 52 13 C51.84 12.18 51.84 12.18 51 8 C51.66 7.67 52.32 7.34 53 7 C53 12.61 53 18.22 53 24 C52.34 24 51.68 24 51 24 C51 23.34 51 22.68 51 22 C49.97 22.33 48.94 22.66 47.88 23 C41.69 24.59 35.34 24.16 29 24 C31 22 31 22 33.6 21.8 C34.6 21.83 35.6 21.85 36.62 21.88 C37.13 21.88 37.13 21.88 39.66 21.93 C40.43 21.95 41.21 21.98 42 22 C42 21.34 42 20.68 42 20 C38.04 20 34.08 20 30 20 C30 19.34 30 18.68 30 18 C31.32 18 32.64 18 34 18 C33.84 17.5 33.84 17.5 33 15 C29.44 13.81 29.44 13.81 26 13 C26 12.67 26 12.34 26 12 C20.77 10.53 16.47 9.89 11 10 C8.56 9.5 8.56 9.5 7 9 C7 9.66 7 10.32 7 11 C-7.78 10.41 -7.78 10.41 -14 7 C-14 6.67 -14 6.34 -14 6 C-13.26 5.92 -12.51 5.83 -11.75 5.75 C-9 5 -9 5 -7 2.88 C-6.34 2.26 -5.68 1.64 -5 1 C-2.25 1.25 -2.25 1.25 0 2 C0 1.34 0 0.68 0 0 Z " fill="#CFAC73" transform="translate(547,306)"/>
      <path d="M0 0 C3.11 1.34 5.45 2.9 7 6 C6.67 6.99 6.34 7.98 6 9 C4.68 9 3.36 9 2 9 C1.67 10.65 1.34 12.3 1 14 C4.3 14.33 7.6 14.66 11 15 C11 16.65 11 18.3 11 20 C11.16 20.33 11.16 20.33 12 22 C9.79 21.51 7.78 20.91 5.69 20.06 C1.51 18.41 -2.49 17 -7 17 C-7 17.99 -7 18.98 -7 20 C-7.52 19.86 -8.03 19.71 -8.56 19.56 C-11.69 18.84 -14.83 18.43 -18 18 C-18 19.65 -18 21.3 -18 23 C-17.34 23.33 -16.68 23.66 -16 24 C-16.89 24.12 -17.77 24.25 -18.69 24.38 C-21.7 24.94 -24.2 25.77 -27 27 C-27 26.01 -27 25.02 -27 24 C-28.98 23.67 -30.96 23.34 -33 23 C-33.56 21.06 -33.56 21.06 -34 19 C-33.67 18.67 -33.34 18.34 -33 18 C-33.66 17.67 -34.32 17.34 -35 17 C-35 16.34 -35 15.68 -35 15 C-33.51 14.84 -33.51 14.84 -26 14 C-26 13.67 -26 13.34 -26 13 C-24.35 13 -22.7 13 -21 13 C-21.33 12.01 -21.66 11.02 -22 10 C-21.01 10.16 -21.01 10.16 -16 11 C-14.96 7.87 -15.07 7.01 -16 4 C-10.94 -0.26 -6.55 -1.08 0 0 Z " fill="#DECBA2" transform="translate(539,18)"/>
    </g><g id="obj_00_scene__road_32__p2" class="obj_00_scene__road_32" data-label="road_32">
      <path d="M0 0 C3.7 0.89 7.35 1.95 11 3 C10.67 3.17 10.67 3.17 9 4 C9 4.66 9 5.32 9 6 C9.54 6.02 9.54 6.02 12.25 6.15 C13.64 6.22 15.04 6.3 16.44 6.38 C16.79 6.39 16.79 6.39 18.58 6.47 C20.39 6.57 22.2 6.78 24 7 C24.17 7.33 24.17 7.33 25 9 C23.02 9.33 21.04 9.66 19 10 C19.99 10.33 20.98 10.66 22 11 C22 12.32 22 13.64 22 15 C19.94 15.51 17.88 16.01 15.81 16.5 C14.66 16.78 13.52 17.06 12.33 17.34 C9.43 17.92 6.94 18.04 4 18 C3.67 18.33 3.34 18.66 3 19 C1.33 19.04 -0.33 19.04 -2 19 C-2.33 18.01 -2.66 17.02 -3 16 C-2.63 15.9 -2.63 15.9 -0.73 15.41 C-0.24 15.28 -0.24 15.28 2.25 14.62 C3.22 14.37 4.2 14.11 5.2 13.85 C7.66 13.1 9.76 12.23 12 11 C11.67 10.34 11.34 9.68 11 9 C8.03 9 5.06 9 2 9 C2 8.34 2 7.68 2 7 C-1 8 -1 8 -2 10 C-3.32 10 -4.64 10 -6 10 C-6 9.01 -6 8.02 -6 7 C-6.99 7 -7.98 7 -9 7 C-9 6.34 -9 5.68 -9 5 C-6.03 3.76 -3.15 2.7 0 2 C0 1.34 0 0.68 0 0 Z " fill="#C4A96D" transform="translate(478,316)"/>
      <path d="M0 0 C0 0.33 0 0.66 0 1 C-3.63 1.33 -7.26 1.66 -11 2 C-10.67 2.99 -10.34 3.98 -10 5 C-12.31 5 -14.62 5 -17 5 C-17 5.66 -17 6.32 -17 7 C-18.32 7 -19.64 7 -21 7 C-20.01 8.98 -19.02 10.96 -18 13 C-19.65 13 -21.3 13 -23 13 C-23 12.34 -23 11.68 -23 11 C-25.31 11 -27.62 11 -30 11 C-30 11.33 -30 11.66 -30 12 C-31.98 12 -33.96 12 -36 12 C-33.38 8.12 -33.38 8.12 -30 7 C-30.83 6.67 -30.83 6.67 -35 5 C-35 4.67 -35 4.34 -35 4 C-27.57 3.86 -27.57 3.86 -24 5 C-24 4.34 -24 3.68 -24 3 C-20.37 3 -16.74 3 -13 3 C-13 2.34 -13 1.68 -13 1 C-8.55 -1.97 -4.66 -3.05 0 0 Z " fill="#C5AF77" transform="translate(584,191)"/>
    </g></svg>