<?xml version="1.0" encoding="UTF-8"?>
<!-- Generator: visioncortex VTracer 0.6.12 -->
<svg version="1.1" xmlns="http://www.w3.org/2000/svg" width="154" height="107">
<path d="M0 0 C2.4 2.26 3.45 4 5 7 C5 8.32 5 9.64 5 11 C6.05 11.1 7.1 11.21 8.19 11.31 C12.01 12 14.07 12.49 17 15 C18.31 18.69 18.31 18.69 19 22 C19.62 21.79 20.24 21.59 20.88 21.38 C21.58 21.25 22.28 21.13 23 21 C23.33 21.33 23.33 21.33 25 23 C25.68 23.31 26.36 23.62 27.06 23.94 C29 25 29 25 30 28 C30.74 28.27 31.48 28.54 32.25 28.81 C36.03 30.44 38.3 32.28 40 36 C40.71 40.67 40.93 45.28 41 50 C41.5 50.16 41.5 50.16 44 51 C44.16 50.67 44.16 50.67 45 49 C45.66 49 46.32 49 47 49 C47.33 49.66 47.66 50.32 48 51 C48.66 51 49.32 51 50 51 C50 51.99 50 52.98 50 54 C50.82 54.78 51.65 55.57 52.5 56.38 C55 59 55 59 55.31 61.81 C55.26 62.17 55.26 62.17 55 64 C55.99 64.33 56.98 64.66 58 65 C57.67 66.32 57.34 67.64 57 69 C47.59 71.11 47.59 71.11 43 72 C44.65 72.66 46.3 73.32 48 74 C47.84 74.5 47.84 74.5 47 77 C45.11 77.7 45.11 77.7 42.75 78.12 C42.34 78.2 42.34 78.2 40.28 78.59 C39.53 78.73 38.78 78.86 38 79 C37.09 79.23 36.19 79.45 35.25 79.69 C32.61 80.05 30.56 79.66 28 79 C28 79.66 28 80.32 28 81 C19.2 85.04 7.41 84.91 -2 83 C-2.5 82.67 -2.5 82.67 -5 81 C-7.04 80.59 -7.04 80.59 -9.19 80.38 C-10.45 80.25 -11.7 80.13 -13 80 C-13 80.66 -13 81.32 -13 82 C-20.98 84.66 -27.52 84.34 -35.61 82.34 C-38.32 81.95 -40.33 82.45 -43 83 C-43.99 82.67 -44.98 82.34 -46 82 C-46 81.01 -46 80.02 -46 79 C-43.09 77.74 -41.2 77 -38 77 C-39.13 76.53 -40.27 76.05 -41.44 75.56 C-45 74 -45 74 -46 73 C-46.66 73.99 -47.32 74.98 -48 76 C-50.33 76.1 -52.67 76.07 -55 76 C-57.34 76.28 -59.66 76.61 -61.98 76.98 C-64 77 -64 77 -67 75 C-68.97 74.66 -68.97 74.66 -71.06 74.5 C-75 74 -75 74 -77 72 C-77.08 69.36 -77.08 69.36 -76.81 66.19 C-76.74 65.15 -76.66 64.11 -76.58 63.04 C-75.94 59.69 -75.08 57.7 -73 55 C-70.91 53.79 -70.91 53.79 -68.62 53.06 C-67.87 52.81 -67.12 52.55 -66.35 52.29 C-63.39 51.93 -61.65 52.72 -59 54 C-58.82 52.76 -58.64 51.52 -58.45 50.24 C-58.2 48.6 -57.94 46.95 -57.69 45.31 C-57.57 44.5 -57.45 43.68 -57.33 42.84 C-56.62 38.32 -55.93 34.66 -53 31 C-51.21 29.95 -51.21 29.95 -49.38 29.25 C-47.5 28.26 -47.5 28.26 -46 27 C-45.38 23.13 -45.38 23.13 -45.27 20.77 C-44.59 13.73 -42.67 6.45 -37.36 1.58 C-26.22 -5.64 -11.8 -6.91 0 0 Z " fill="#5A5C52" transform="translate(87,14)"/>
<path d="M0 0 C3.77 2.2 5.29 4.47 7.29 8.34 C7.29 9.66 7.29 10.98 7.29 12.34 C8.34 12.44 9.39 12.55 10.48 12.65 C14.3 13.34 16.36 13.82 19.29 16.34 C20.6 20.03 20.6 20.03 21.29 23.34 C21.91 23.13 22.53 22.93 23.16 22.71 C23.87 22.59 24.57 22.47 25.29 22.34 C25.62 22.67 25.62 22.67 27.29 24.34 C27.97 24.65 28.65 24.96 29.35 25.28 C31.29 26.34 31.29 26.34 32.29 29.34 C33.03 29.61 33.77 29.88 34.54 30.15 C38.32 31.78 40.59 33.62 42.29 37.34 C43 42.01 43.22 46.62 43.29 51.34 C43.78 51.5 43.78 51.5 46.29 52.34 C46.45 52.01 46.45 52.01 47.29 50.34 C47.95 50.34 48.61 50.34 49.29 50.34 C49.62 51 49.95 51.66 50.29 52.34 C50.95 52.34 51.61 52.34 52.29 52.34 C52.29 53.33 52.29 54.32 52.29 55.34 C53.11 56.12 53.94 56.91 54.79 57.71 C57.29 60.34 57.29 60.34 57.6 63.15 C57.5 63.87 57.4 64.6 57.29 65.34 C57.78 65.5 57.78 65.5 60.29 66.34 C60.12 67 60.12 67 59.29 70.34 C49.88 72.45 49.88 72.45 45.29 73.34 C46.94 74 48.59 74.66 50.29 75.34 C50.12 75.83 50.12 75.83 49.29 78.34 C47.4 79.04 47.4 79.04 45.04 79.46 C44.63 79.54 44.63 79.54 42.57 79.93 C41.82 80.07 41.06 80.2 40.29 80.34 C39.38 80.57 38.47 80.79 37.54 81.03 C34.9 81.39 32.85 81 30.29 80.34 C30.29 81 30.29 81.66 30.29 82.34 C21.49 86.38 9.69 86.25 0.29 84.34 C-0.7 83.68 -1.69 83.02 -2.71 82.34 C-4.75 81.93 -4.75 81.93 -6.9 81.71 C-7.53 81.65 -7.53 81.65 -10.71 81.34 C-10.71 82 -10.71 82.66 -10.71 83.34 C-16.53 85.28 -22.28 86.71 -28.21 84.34 C-28.46 84.17 -28.46 84.17 -29.71 83.34 C-27.07 83.34 -24.43 83.34 -21.71 83.34 C-21.71 82.02 -21.71 80.7 -21.71 79.34 C-14.63 79.22 -7.74 79.49 -0.71 80.34 C-0.55 79.68 -0.55 79.68 0.29 76.34 C2.6 76.67 4.91 77 7.29 77.34 C6.29 75.34 6.29 75.34 3.29 73.34 C4.6 71.84 4.6 71.84 6.29 70.34 C7.28 70.34 8.27 70.34 9.29 70.34 C9.29 69.68 9.29 69.02 9.29 68.34 C8.3 68.34 7.31 68.34 6.29 68.34 C7.04 63.59 7.04 63.59 9.29 61.34 C9.29 60.35 9.29 59.36 9.29 58.34 C8.3 58.01 7.31 57.68 6.29 57.34 C6.45 58.16 6.45 58.16 7.29 62.34 C6.3 62.67 5.31 63 4.29 63.34 C4.29 62.68 4.29 62.02 4.29 61.34 C3.63 61.34 2.97 61.34 2.29 61.34 C2.29 60.02 2.29 58.7 2.29 57.34 C2.95 57.34 3.61 57.34 4.29 57.34 C4.08 56.62 3.88 55.9 3.66 55.15 C3.22 51.86 4.05 50.36 5.29 47.34 C4.91 45.03 4.91 45.03 4.29 43.34 C10.04 41.34 10.04 41.34 12.29 41.34 C12.29 40.68 12.29 40.02 12.29 39.34 C10.64 39.01 8.99 38.68 7.29 38.34 C6.96 37.35 6.63 36.36 6.29 35.34 C4.97 35.34 3.65 35.34 2.29 35.34 C2.29 36.99 2.29 38.64 2.29 40.34 C2.95 40.34 3.61 40.34 4.29 40.34 C3.96 41.33 3.63 42.32 3.29 43.34 C2.63 43.34 1.97 43.34 1.29 43.34 C1.29 44 1.29 44.66 1.29 45.34 C0.63 45.34 -0.03 45.34 -0.71 45.34 C-0.88 44.18 -0.88 44.18 -1.71 38.34 C-2.27 38.48 -2.82 38.63 -3.4 38.78 C-5.82 39.37 -8.26 39.86 -10.71 40.34 C-11.37 38.69 -12.03 37.04 -12.71 35.34 C-12.07 35.24 -11.43 35.13 -10.77 35.03 C-10.09 34.8 -9.41 34.57 -8.71 34.34 C-8.38 33.35 -8.05 32.36 -7.71 31.34 C-6.39 31.67 -5.07 32 -3.71 32.34 C-4.02 31.74 -4.33 31.14 -4.65 30.53 C-5.71 28.34 -5.71 28.34 -6.71 25.34 C-7.7 25.34 -8.69 25.34 -9.71 25.34 C-9.71 24.02 -9.71 22.7 -9.71 21.34 C-10.02 21.38 -10.02 21.38 -11.61 21.59 C-12.43 21.7 -13.24 21.8 -14.09 21.9 C-14.9 22.01 -15.71 22.11 -16.55 22.22 C-18.71 22.34 -18.71 22.34 -20.71 21.34 C-20.71 20.68 -20.71 20.02 -20.71 19.34 C-18.9 18.84 -18.9 18.84 -9.71 16.34 C-9.71 15.68 -9.71 15.02 -9.71 14.34 C-13.01 12.69 -16.31 11.04 -19.71 9.34 C-19.05 10.66 -18.39 11.98 -17.71 13.34 C-15.09 14.09 -15.09 14.09 -12.71 14.34 C-12.71 15.33 -12.71 16.32 -12.71 17.34 C-15 17.56 -17.29 17.77 -19.59 17.96 C-20.22 18.02 -20.22 18.02 -23.45 18.32 C-24.53 18.32 -25.6 18.33 -26.71 18.34 C-27.37 17.68 -28.03 17.02 -28.71 16.34 C-28.71 15.02 -28.71 13.7 -28.71 12.34 C-29.49 12.03 -30.28 11.72 -31.09 11.4 C-33.71 10.34 -33.71 10.34 -35.71 9.34 C-35.65 10.25 -35.59 11.15 -35.52 12.09 C-35.73 15.64 -36.18 16.9 -38.71 19.34 C-39.7 19.34 -40.69 19.34 -41.71 19.34 C-39.21 6.08 -39.21 6.08 -34.69 2.93 C-32.4 1.63 -30.11 0.44 -27.71 -0.66 C-26.93 -1.03 -26.14 -1.4 -25.34 -1.78 C-17.25 -4.5 -7.76 -3.21 0 0 Z " fill="#877F73" transform="translate(84.7109375,12.66015625)"/>
<path d="M0 0 C3.77 2.2 5.29 4.47 7.29 8.34 C7.29 9.66 7.29 10.98 7.29 12.34 C8.34 12.44 9.39 12.55 10.48 12.65 C14.3 13.34 16.36 13.82 19.29 16.34 C20.6 20.03 20.6 20.03 21.29 23.34 C22.61 23.01 23.93 22.68 25.29 22.34 C25.62 23 25.62 23 27.29 26.34 C25.97 26.67 24.65 27 23.29 27.34 C23.45 26.84 23.45 26.84 24.29 24.34 C22.97 24.34 21.65 24.34 20.29 24.34 C20.29 25.33 20.29 26.32 20.29 27.34 C17.98 27.01 15.67 26.68 13.29 26.34 C12.3 27.99 11.31 29.64 10.29 31.34 C8.97 30.68 7.65 30.02 6.29 29.34 C6.29 26.04 6.29 22.74 6.29 19.34 C6.12 20.16 6.12 20.16 5.29 24.34 C2.98 24.34 0.67 24.34 -1.71 24.34 C-0.89 24.67 -0.89 24.67 3.29 26.34 C3.29 27 3.29 27.66 3.29 28.34 C3.95 28.34 4.61 28.34 5.29 28.34 C5.29 29.33 5.29 30.32 5.29 31.34 C4.63 31.5 4.63 31.5 1.29 32.34 C1.37 33.11 1.46 33.88 1.54 34.68 C1.59 35.18 1.59 35.18 1.85 37.71 C1.9 38.21 1.9 38.21 2.17 40.74 C2.29 43.34 2.29 43.34 1.29 45.34 C0.63 45.34 -0.03 45.34 -0.71 45.34 C-0.88 44.18 -0.88 44.18 -1.71 38.34 C-2.27 38.48 -2.82 38.63 -3.4 38.78 C-5.82 39.37 -8.26 39.86 -10.71 40.34 C-11.37 38.69 -12.03 37.04 -12.71 35.34 C-12.07 35.24 -11.43 35.13 -10.77 35.03 C-10.09 34.8 -9.41 34.57 -8.71 34.34 C-8.38 33.35 -8.05 32.36 -7.71 31.34 C-6.39 31.67 -5.07 32 -3.71 32.34 C-4.02 31.74 -4.33 31.14 -4.65 30.53 C-5.71 28.34 -5.71 28.34 -6.71 25.34 C-7.7 25.34 -8.69 25.34 -9.71 25.34 C-9.71 24.02 -9.71 22.7 -9.71 21.34 C-10.02 21.38 -10.02 21.38 -11.61 21.59 C-12.43 21.7 -13.24 21.8 -14.09 21.9 C-14.9 22.01 -15.71 22.11 -16.55 22.22 C-18.71 22.34 -18.71 22.34 -20.71 21.34 C-20.71 20.68 -20.71 20.02 -20.71 19.34 C-18.9 18.84 -18.9 18.84 -9.71 16.34 C-9.71 15.68 -9.71 15.02 -9.71 14.34 C-13.01 12.69 -16.31 11.04 -19.71 9.34 C-19.05 10.66 -18.39 11.98 -17.71 13.34 C-15.09 14.09 -15.09 14.09 -12.71 14.34 C-12.71 15.33 -12.71 16.32 -12.71 17.34 C-15 17.56 -17.29 17.77 -19.59 17.96 C-20.22 18.02 -20.22 18.02 -23.45 18.32 C-24.53 18.32 -25.6 18.33 -26.71 18.34 C-27.37 17.68 -28.03 17.02 -28.71 16.34 C-28.71 15.02 -28.71 13.7 -28.71 12.34 C-29.49 12.03 -30.28 11.72 -31.09 11.4 C-33.71 10.34 -33.71 10.34 -35.71 9.34 C-35.65 10.25 -35.59 11.15 -35.52 12.09 C-35.73 15.64 -36.18 16.9 -38.71 19.34 C-39.7 19.34 -40.69 19.34 -41.71 19.34 C-39.21 6.08 -39.21 6.08 -34.69 2.93 C-32.4 1.63 -30.11 0.44 -27.71 -0.66 C-26.93 -1.03 -26.14 -1.4 -25.34 -1.78 C-17.25 -4.5 -7.76 -3.21 0 0 Z " fill="#978A4A" transform="translate(84.7109375,12.66015625)"/>
<path d="M0 0 C1.94 0.81 1.94 0.81 4 2 C4.33 2.99 4.66 3.98 5 5 C5.74 5.27 6.48 5.54 7.25 5.81 C11.03 7.44 13.3 9.28 15 13 C15.71 17.67 15.93 22.28 16 27 C16.99 27.33 17.98 27.66 19 28 C19.33 27.34 19.66 26.68 20 26 C20.66 26 21.32 26 22 26 C22.16 26.33 22.16 26.33 23 28 C23.66 28 24.32 28 25 28 C25 28.99 25 29.98 25 31 C25.82 31.78 26.65 32.57 27.5 33.38 C30 36 30 36 30.31 38.81 C30.26 39.17 30.26 39.17 30 41 C30.99 41.33 31.98 41.66 33 42 C32.67 43.32 32.34 44.64 32 46 C22.59 48.48 22.59 48.48 18 47 C18.99 46.67 19.98 46.34 21 46 C21 44.02 21 42.04 21 40 C20.01 39.67 19.02 39.34 18 39 C18 38.34 18 37.68 18 37 C17.01 37 16.02 37 15 37 C15 39.31 15 41.62 15 44 C13.35 44 11.7 44 10 44 C9.34 45.32 8.68 46.64 8 48 C6.68 47.67 5.36 47.34 4 47 C4 46.01 4 45.02 4 44 C3.01 44 2.02 44 1 44 C0.01 41.36 -0.98 38.72 -2 36 C-4.97 35.67 -7.94 35.34 -11 35 C-11 37.31 -11 39.62 -11 42 C-11.66 42 -12.32 42 -13 42 C-13.77 36.59 -14.1 31.46 -14 26 C-13.01 25.67 -12.02 25.34 -11 25 C-11 24.34 -11 23.68 -11 23 C-13.97 23.33 -16.94 23.66 -20 24 C-20 23.34 -20 22.68 -20 22 C-15.05 22 -10.1 22 -5 22 C-5 21.01 -5 20.02 -5 19 C-5.99 18.67 -6.98 18.34 -8 18 C-7.67 17.34 -7.34 16.68 -7 16 C-6.34 16 -5.68 16 -5 16 C-5 15.34 -5 14.68 -5 14 C-3.35 14 -1.7 14 0 14 C-0.99 13.67 -1.98 13.34 -3 13 C-3.69 10.94 -3.69 10.94 -4 9 C-3.03 8.57 -2.06 8.13 -1.06 7.69 C2 6 2 6 3 3 C2.34 3 1.68 3 1 3 C0.67 2.01 0.34 1.02 0 0 Z " fill="#8C8068" transform="translate(112,37)"/>
<path d="M0 0 C6.87 2.71 6.87 2.71 8.12 5.56 C8.41 6.37 8.7 7.17 9 8 C9.84 7.92 10.69 7.83 11.55 7.75 C12.65 7.64 13.75 7.54 14.88 7.44 C15.42 7.39 15.42 7.39 18.18 7.12 C21 7 21 7 23 8 C23 7.01 23 6.02 23 5 C22.22 5.04 21.43 5.08 20.62 5.12 C18 5 18 5 16 3 C16 2.01 16 1.02 16 0 C20.19 0.67 23.4 2.86 27 5 C26.67 5.99 26.34 6.98 26 8 C24 8.73 24 8.73 21.56 9.19 C20.76 9.35 19.96 9.5 19.13 9.67 C17 10 17 10 15 10 C15 10.66 15 11.32 15 12 C18.63 12 22.26 12 26 12 C26 13.32 26 14.64 26 16 C24.68 15.67 23.36 15.34 22 15 C22.16 15.83 22.16 15.83 23 20 C20.69 20.33 18.38 20.66 16 21 C16 20.34 16 19.68 16 19 C10.12 22.63 10.12 22.63 9 26 C9.99 26 10.98 26 12 26 C12.66 27.32 13.32 28.64 14 30 C11.69 29.67 9.38 29.34 7 29 C6.59 29.74 6.17 30.48 5.75 31.25 C4.06 33.9 2.29 35.87 0 38 C1.65 38 3.3 38 5 38 C3.75 39.56 3.75 39.56 2 41 C-0.11 40.59 -0.11 40.59 -2 40 C-2.05 40.87 -2.1 41.74 -2.15 42.63 C-2.22 43.79 -2.3 44.94 -2.38 46.12 C-2.44 47.26 -2.51 48.4 -2.59 49.57 C-3 53 -3.62 55.83 -5 59 C-8.13 60.38 -8.13 60.38 -11 61 C-11.33 59.84 -11.33 59.84 -13 54 C-15.31 53.67 -17.62 53.34 -20 53 C-19.67 48.71 -19.34 44.42 -19 40 C-18.34 40 -17.68 40 -17 40 C-16.67 39.34 -16.34 38.68 -16 38 C-15.34 38 -14.68 38 -14 38 C-14.08 36.93 -14.16 35.85 -14.25 34.75 C-13.95 30.3 -13.1 29.92 -10 27 C-9.25 23.75 -9.25 23.75 -9 21 C-8.01 21 -7.02 21 -6 21 C-6.03 20.24 -6.07 19.48 -6.11 18.7 C-6.13 17.71 -6.16 16.71 -6.19 15.69 C-6.2 15.19 -6.2 15.19 -6.29 12.7 C-6 10 -6 10 -4.49 8.14 C-4 7.77 -3.51 7.39 -3 7 C-2.67 7.33 -2.34 7.66 -2 8 C-1.34 5.36 -0.68 2.72 0 0 Z " fill="#4C5150" transform="translate(49,22)"/>
<path d="M0 0 C13.86 0 27.72 0 42 0 C37.5 11.25 37.5 11.25 33 14 C31.44 12.31 31.44 12.31 30 10 C30.31 7.25 30.31 7.25 31 5 C30.01 5 29.02 5 28 5 C27.94 5.42 27.94 5.42 27.61 7.57 C26.99 11.07 26.17 14.4 25.19 17.81 C24.87 18.95 24.56 20.09 24.23 21.27 C23 24 23 24 20.86 24.89 C20.56 24.91 20.56 24.91 19 25 C18.34 24.01 17.68 23.02 17 22 C16.45 24.2 15.9 26.41 15.39 28.62 C14.07 33.94 12.99 38.01 9 42 C7.68 41.67 6.36 41.34 5 41 C4.34 38.36 3.68 35.72 3 33 C2.01 33.66 1.02 34.32 0 35 C0 23.45 0 11.9 0 0 Z " fill="#888583" transform="translate(0,0)"/>
<path d="M0 0 C1.32 0 2.64 0 4 0 C4.66 0.99 5.32 1.98 6 3 C8.12 3.69 8.12 3.69 10 4 C10 4.66 10 5.32 10 6 C7.69 6.66 5.38 7.32 3 8 C3.21 8.89 3.41 9.77 3.62 10.69 C4.03 14.28 3.48 15.78 2 19 C2 19.99 2 20.98 2 22 C1.34 22 0.68 22 0 22 C0 23.32 0 24.64 0 26 C1.32 26 2.64 26 4 26 C4 24.68 4 23.36 4 22 C5.32 22.33 6.64 22.66 8 23 C7.43 25.87 7.14 26.86 5 29 C4.38 31.12 4.38 31.12 4 33 C4.99 33 5.98 33 7 33 C7 33.66 7 34.32 7 35 C4.5 36.62 4.5 36.62 2 38 C2.99 38.66 3.98 39.32 5 40 C5 40.66 5 41.32 5 42 C2.69 41.67 0.38 41.34 -2 41 C-2.33 42.32 -2.66 43.64 -3 45 C-3.66 45 -4.32 45 -5 45 C-4.67 43.35 -4.34 41.7 -4 40 C-5.32 39.67 -6.64 39.34 -8 39 C-7.67 37.68 -7.34 36.36 -7 35 C-6.01 35 -5.02 35 -4 35 C-4 33.35 -4 31.7 -4 30 C-4.66 30 -5.32 30 -6 30 C-6 30.99 -6 31.98 -6 33 C-6.83 33.16 -6.83 33.16 -11 34 C-11.66 36.31 -12.32 38.62 -13 41 C-14.56 41.75 -14.56 41.75 -17 42 C-18.77 41.03 -20.54 40.06 -22.25 38.99 C-24.44 37.75 -26.51 37.3 -29 37 C-29 36.34 -29 35.68 -29 35 C-30.65 35 -32.3 35 -34 35 C-33.67 34.34 -33.34 33.68 -33 33 C-32.34 33.33 -31.68 33.66 -31 34 C-31.66 31.69 -32.32 29.38 -33 27 C-33.99 27.33 -34.98 27.66 -36 28 C-35.67 26.68 -35.34 25.36 -35 24 C-33.35 24 -31.7 24 -30 24 C-29.67 23.01 -29.34 22.02 -29 21 C-27.68 21.33 -26.36 21.66 -25 22 C-25.33 23.65 -25.66 25.3 -26 27 C-25.34 27 -24.68 27 -24 27 C-24 28.65 -24 30.3 -24 32 C-24.5 32.16 -24.5 32.16 -27 33 C-27 33.66 -27 34.32 -27 35 C-25.06 34.19 -25.06 34.19 -23 33 C-22.67 32.01 -22.34 31.02 -22 30 C-21.34 30 -20.68 30 -20 30 C-20.26 29.71 -20.26 29.71 -21.56 28.25 C-23 26 -23 26 -22.69 23.75 C-22.46 23.17 -22.23 22.59 -22 22 C-23.32 21.34 -24.64 20.68 -26 20 C-26 18.35 -26 16.7 -26 15 C-27.32 15 -28.64 15 -30 15 C-30 14.34 -30 13.68 -30 13 C-28.35 12.67 -26.7 12.34 -25 12 C-25 12.66 -25 13.32 -25 14 C-24.34 14 -23.68 14 -23 14 C-23 13.34 -23 12.68 -23 12 C-22.34 12 -21.68 12 -21 12 C-20.67 13.98 -20.34 15.96 -20 18 C-19.34 18 -18.68 18 -18 18 C-18.33 16.02 -18.66 14.04 -19 12 C-17.02 12 -15.04 12 -13 12 C-13 11.34 -13 10.68 -13 10 C-12.01 9.67 -11.02 9.34 -10 9 C-9.34 9.33 -8.68 9.66 -8 10 C-8 10.66 -8 11.32 -8 12 C-7.17 12.16 -7.17 12.16 -3 13 C-3 13.66 -3 14.32 -3 15 C-2.34 15 -1.68 15 -1 15 C-1.19 14.4 -1.37 13.8 -1.56 13.19 C-2 11 -2 11 -1 8 C0.56 6.31 0.56 6.31 2 5 C1.34 5 0.68 5 0 5 C0 3.35 0 1.7 0 0 Z " fill="#60615E" transform="translate(87,48)"/>
<path d="M0 0 C4.23 0.24 6.37 0.4 9.5 3.38 C10 4.24 10.49 5.11 11 6 C10.67 6.99 10.34 7.98 10 9 C8.68 8.67 7.36 8.34 6 8 C5.67 8.66 5.34 9.32 5 10 C4.01 10.33 3.02 10.66 2 11 C2.33 12.32 2.66 13.64 3 15 C5.44 14.52 7.85 14.04 10.25 13.38 C10.83 13.25 11.41 13.13 12 13 C13 14 13 14 13.06 17.56 C13.04 18.7 13.02 19.83 13 21 C13.66 21.33 14.32 21.66 15 22 C15 23.32 15 24.64 15 26 C14.34 26 13.68 26 13 26 C13 25.34 13 24.68 13 24 C11.35 23.67 9.7 23.34 8 23 C8 22.34 8 21.68 8 21 C6.35 21 4.7 21 3 21 C3 21.66 3 22.32 3 23 C1.35 23.33 -0.3 23.66 -2 24 C-1.67 24.99 -1.34 25.98 -1 27 C-1.33 27.66 -1.66 28.32 -2 29 C-2.66 29 -3.32 29 -4 29 C-4.33 27.02 -4.66 25.04 -5 23 C-5.66 23 -6.32 23 -7 23 C-7 23.66 -7 24.32 -7 25 C-7.66 25 -8.32 25 -9 25 C-9 24.34 -9 23.68 -9 23 C-10.65 23.33 -12.3 23.66 -14 24 C-14 24.66 -14 25.32 -14 26 C-12.68 26 -11.36 26 -10 26 C-9.71 26.97 -9.42 27.94 -9.12 28.94 C-8 32 -8 32 -6 33 C-5.61 34.65 -5.28 36.32 -5 38 C-4.67 38.99 -4.34 39.98 -4 41 C-4.66 41 -5.32 41 -6 41 C-5.67 42.32 -5.34 43.64 -5 45 C-5.99 45.16 -5.99 45.16 -11 46 C-11 45.34 -11 44.68 -11 44 C-10.67 43.84 -10.67 43.84 -9 43 C-8.38 40.44 -8.38 40.44 -8 38 C-8.66 38 -9.32 38 -10 38 C-9.67 36.35 -9.34 34.7 -9 33 C-10.32 33 -11.64 33 -13 33 C-13.33 33.66 -13.66 34.32 -14 35 C-15.65 35 -17.3 35 -19 35 C-19 35.99 -19 36.98 -19 38 C-18.34 38 -17.68 38 -17 38 C-16.67 39.65 -16.34 41.3 -16 43 C-16.66 43 -17.32 43 -18 43 C-18 42.34 -18 41.68 -18 41 C-19.98 41 -21.96 41 -24 41 C-23.36 41.1 -22.72 41.21 -22.06 41.31 C-21.38 41.54 -20.7 41.77 -20 42 C-19.67 42.99 -19.34 43.98 -19 45 C-20.32 45.66 -21.64 46.32 -23 47 C-23 46.34 -23 45.68 -23 45 C-23.66 45 -24.32 45 -25 45 C-25.66 43.02 -26.32 41.04 -27 39 C-26.84 38.84 -26.84 38.84 -26 38 C-25.6 35.82 -25.26 33.63 -24.94 31.44 C-24.76 30.24 -24.58 29.04 -24.4 27.81 C-24.27 26.88 -24.14 25.95 -24 25 C-22.02 24.67 -20.04 24.34 -18 24 C-19.32 23.67 -20.64 23.34 -22 23 C-21.34 21.68 -20.68 20.36 -20 19 C-19.34 19 -18.68 19 -18 19 C-17.71 18.2 -17.42 17.39 -17.12 16.56 C-16 14 -16 14 -14 13 C-12.32 13.28 -10.65 13.61 -9 14 C-9.33 13.01 -9.66 12.02 -10 11 C-10.99 11 -11.98 11 -13 11 C-12.61 8.2 -12.2 7.18 -10.06 5.25 C-8 4 -8 4 -6 4 C-6 4.66 -6 5.32 -6 6 C-4.84 5.84 -4.84 5.84 1 5 C0.67 3.35 0.34 1.7 0 0 Z " fill="#646464" transform="translate(71,37)"/>
<path d="M0 0 C1.94 0.81 1.94 0.81 4 2 C4.33 2.99 4.66 3.98 5 5 C5.74 5.27 6.48 5.54 7.25 5.81 C10.9 7.39 13.06 9.59 15 13 C15.71 16.13 15.79 19.17 15.81 22.38 C15.84 23.21 15.86 24.04 15.89 24.89 C15.95 26.93 15.98 28.96 16 31 C15.34 31 14.68 31 14 31 C14 34.96 14 38.92 14 43 C13.84 42.34 13.84 42.34 13 39 C12.5 39.16 12.5 39.16 10 40 C9.34 39.67 8.68 39.34 8 39 C8.33 38.01 8.66 37.02 9 36 C9.99 36 10.98 36 12 36 C11.34 34.68 10.68 33.36 10 32 C8.68 32 7.36 32 6 32 C6 33.65 6 35.3 6 37 C5.5 37.16 5.5 37.16 3 38 C3 34.7 3 31.4 3 28 C2.67 28.33 2.34 28.66 2 29 C0.68 29 -0.64 29 -2 29 C-2.16 28.17 -2.16 28.17 -3 24 C-6.87 25.04 -10.49 26.04 -14 28 C-13.67 27.01 -13.34 26.02 -13 25 C-12.34 25 -11.68 25 -11 25 C-11 24.34 -11 23.68 -11 23 C-13.97 23.33 -16.94 23.66 -20 24 C-20 23.34 -20 22.68 -20 22 C-15.05 22 -10.1 22 -5 22 C-5 21.01 -5 20.02 -5 19 C-5.99 18.67 -6.98 18.34 -8 18 C-7.67 17.34 -7.34 16.68 -7 16 C-6.34 16 -5.68 16 -5 16 C-5 15.34 -5 14.68 -5 14 C-3.35 14 -1.7 14 0 14 C-0.99 13.67 -1.98 13.34 -3 13 C-3.69 10.94 -3.69 10.94 -4 9 C-3.03 8.57 -2.06 8.13 -1.06 7.69 C2 6 2 6 3 3 C2.34 3 1.68 3 1 3 C0.67 2.01 0.34 1.02 0 0 Z " fill="#A99883" transform="translate(112,37)"/>
<path d="M0 0 C10.89 0 21.78 0 33 0 C33 2.97 33 5.94 33 9 C32.59 8.36 32.18 7.72 31.75 7.06 C30 5 30 5 27.94 4.12 C27.3 4.08 26.66 4.04 26 4 C23.5 6.5 23.64 7.67 23.38 11.12 C23.3 12.04 23.23 12.95 23.15 13.88 C23.1 14.58 23.05 15.28 23 16 C21.68 16.33 20.36 16.66 19 17 C18.88 18.28 18.75 19.56 18.62 20.88 C18.25 24.75 18.25 24.75 16 27 C14.06 26.94 14.06 26.94 12 26 C9.86 23.22 9.04 21.37 8.62 17.88 C8.42 16.93 8.21 15.98 8 15 C6.36 13.96 4.69 12.96 3 12 C0.08 7.47 0 5.67 0 0 Z " fill="#7E858E" transform="translate(121,0)"/>
<path d="M0 0 C0.33 0 0.66 0 1 0 C1 3.63 1 7.26 1 11 C0.34 11.33 -0.32 11.66 -1 12 C-1.73 13.98 -2.4 15.98 -3 18 C-3.66 18 -4.32 18 -5 18 C-5.66 21.3 -6.32 24.6 -7 28 C-7.66 28 -8.32 28 -9 28 C-10.81 31.2 -11.52 34.13 -12.12 37.75 C-12.29 38.73 -12.46 39.72 -12.63 40.73 C-12.75 41.48 -12.88 42.23 -13 43 C-11.02 43 -9.04 43 -7 43 C-9.18 45.18 -10.14 45.46 -13.06 46.12 C-13.42 46.21 -13.42 46.21 -15.22 46.63 C-17 47 -17 47 -18 47 C-17.94 48.63 -17.85 50.25 -17.75 51.88 C-17.7 52.78 -17.66 53.68 -17.61 54.62 C-17 57 -17 57 -14.95 58.32 C-14.31 58.54 -13.66 58.77 -13 59 C-18.62 59.25 -18.62 59.25 -22 57 C-23.97 56.66 -23.97 56.66 -26.06 56.5 C-30 56 -30 56 -32 54 C-32.08 51.36 -32.08 51.36 -31.81 48.19 C-31.74 47.15 -31.66 46.11 -31.58 45.04 C-30.94 41.69 -30.08 39.7 -28 37 C-25.91 35.79 -25.91 35.79 -23.62 35.06 C-22.87 34.81 -22.12 34.55 -21.35 34.29 C-18.39 33.93 -16.65 34.72 -14 36 C-13.82 34.76 -13.64 33.52 -13.45 32.24 C-13.2 30.6 -12.94 28.95 -12.69 27.31 C-12.57 26.5 -12.45 25.68 -12.33 24.84 C-11.62 20.32 -10.93 16.66 -8 13 C-6.21 11.95 -6.21 11.95 -4.38 11.25 C-2.52 10.31 -2.52 10.31 -1 9 C-0.1 5.99 0.05 3.13 0 0 Z " fill="#898580" transform="translate(42,32)"/>
<path d="M0 0 C2.94 -0.25 4.59 -0.23 7.19 1.25 C9.07 3.07 9.9 4.65 11 7 C11.66 7.33 12.32 7.66 13 8 C13 7.34 13 6.68 13 6 C13.99 6 14.98 6 16 6 C16 5.34 16 4.68 16 4 C17.65 4 19.3 4 21 4 C21.33 2.68 21.66 1.36 22 0 C24.31 0.33 26.62 0.66 29 1 C29 1.66 29 2.32 29 3 C30.65 3.66 32.3 4.32 34 5 C33.67 5.99 33.34 6.98 33 8 C31.11 8.7 31.11 8.7 28.75 9.12 C27.94 9.28 27.12 9.43 26.28 9.59 C25.53 9.73 24.78 9.86 24 10 C23.09 10.23 22.19 10.45 21.25 10.69 C18.61 11.05 16.56 10.66 14 10 C14 10.66 14 11.32 14 12 C5.2 16.04 -6.59 15.91 -16 14 C-16.99 13.34 -17.98 12.68 -19 12 C-21.04 11.59 -21.04 11.59 -23.19 11.38 C-24.45 11.25 -25.7 11.13 -27 11 C-27 11.66 -27 12.32 -27 13 C-32.82 14.94 -38.56 16.37 -44.5 14 C-44.99 13.67 -45.49 13.34 -46 13 C-43.36 13 -40.72 13 -38 13 C-38 11.68 -38 10.36 -38 9 C-37.38 9.01 -36.75 9.01 -36.11 9.02 C-33.24 9.04 -30.37 9.05 -27.5 9.06 C-27.01 9.07 -27.01 9.07 -24.52 9.09 C-18.91 9.11 -13.55 8.84 -8 8 C-7.34 9.32 -6.68 10.64 -6 12 C-5.88 6.25 -5.88 6.25 -7 4 C-5.97 3.9 -5.97 3.9 -0.85 3.41 C-0.24 3.28 0.37 3.14 1 3 C1.33 2.34 1.66 1.68 2 1 C1.34 0.67 0.68 0.34 0 0 Z " fill="#9F8E7B" transform="translate(101,83)"/>
<path d="M0 0 C0.66 0 1.32 0 2 0 C2.04 0.7 2.07 1.4 2.11 2.12 C2.15 2.57 2.15 2.57 2.31 4.88 C2.34 5.33 2.34 5.33 2.49 7.62 C3 10 3 10 6 12 C6.25 11.2 6.5 10.39 6.75 9.56 C8 7 8 7 9.88 6.06 C12.45 5.99 13.82 6.68 16 8 C16 7.01 16 6.02 16 5 C17.32 5 18.64 5 20 5 C20.33 5.66 20.66 6.32 21 7 C21.99 6.67 22.98 6.34 24 6 C24 6.66 24 7.32 24 8 C24.66 8 25.32 8 26 8 C25.69 9.87 25.69 9.87 25 12 C22 14 22 14 19 14 C19.33 15.32 19.66 16.64 20 18 C21.65 18 23.3 18 25 18 C23.19 19.06 23.19 19.06 21 20 C20.01 19.67 19.02 19.34 18 19 C18 19.66 18 20.32 18 21 C17.34 21.66 16.68 22.32 16 23 C16.66 23.33 17.32 23.66 18 24 C18 24.99 18 25.98 18 27 C15.19 27.16 15.19 27.16 1 28 C0.67 26.68 0.34 25.36 0 24 C5.75 22 5.75 22 8 22 C8 21.34 8 20.68 8 20 C6.35 19.67 4.7 19.34 3 19 C2.67 18.01 2.34 17.02 2 16 C0.68 16 -0.64 16 -2 16 C-2 17.65 -2 19.3 -2 21 C-1.34 21 -0.68 21 0 21 C-0.33 21.99 -0.66 22.98 -1 24 C-3.4 21.6 -3.34 20.67 -3.62 17.38 C-3.7 16.56 -3.77 15.74 -3.85 14.9 C-3.88 14.59 -3.88 14.59 -4 13 C-2.35 12.67 -0.7 12.34 1 12 C1 11.01 1 10.02 1 9 C0.34 9 -0.32 9 -1 9 C-1 8.34 -1 7.68 -1 7 C-2.48 6.67 -2.48 6.67 -10 5 C-10 4.67 -10 4.34 -10 4 C-6.37 4.33 -2.74 4.66 1 5 C0.67 3.35 0.34 1.7 0 0 Z " fill="#988A78" transform="translate(89,32)"/>
<path d="M0 0 C3.79 2.22 5.33 4.42 7.29 8.34 C6.9 10.56 6.9 10.56 6.29 12.34 C6.13 11.84 6.13 11.84 5.29 9.34 C4.63 9.01 3.97 8.68 3.29 8.34 C2.17 6.28 2.17 6.28 1.29 4.34 C-1.35 5 -3.99 5.66 -6.71 6.34 C-6.71 7 -6.71 7.66 -6.71 8.34 C-6.05 8.34 -5.39 8.34 -4.71 8.34 C-4.71 9 -4.71 9.66 -4.71 10.34 C-5.7 10.67 -6.69 11 -7.71 11.34 C-10.71 7.59 -10.71 7.59 -10.71 5.34 C-11.37 5.34 -12.03 5.34 -12.71 5.34 C-13.37 4.68 -14.03 4.02 -14.71 3.34 C-14.71 2.35 -14.71 1.36 -14.71 0.34 C-18.67 1 -22.63 1.66 -26.71 2.34 C-27.04 3.99 -27.37 5.64 -27.71 7.34 C-29.27 9.15 -29.27 9.15 -30.71 10.34 C-29.06 9.68 -27.41 9.02 -25.71 8.34 C-25.05 9.66 -24.39 10.98 -23.71 12.34 C-23.05 12.34 -22.39 12.34 -21.71 12.34 C-21.71 11.02 -21.71 9.7 -21.71 8.34 C-21.05 8.34 -20.39 8.34 -19.71 8.34 C-19.59 8.74 -19.59 8.74 -19.02 10.78 C-18.59 11.62 -18.15 12.47 -17.71 13.34 C-15.08 14.15 -15.08 14.15 -12.71 14.34 C-12.71 15.33 -12.71 16.32 -12.71 17.34 C-15 17.56 -17.29 17.77 -19.58 17.96 C-20.22 18.02 -20.22 18.02 -23.45 18.32 C-24.52 18.32 -25.6 18.33 -26.71 18.34 C-27.37 17.68 -28.03 17.02 -28.71 16.34 C-28.71 15.02 -28.71 13.7 -28.71 12.34 C-29.49 12.03 -30.27 11.72 -31.08 11.4 C-33.71 10.34 -33.71 10.34 -35.71 9.34 C-35.65 10.25 -35.58 11.15 -35.52 12.09 C-35.72 15.64 -36.17 16.9 -38.71 19.34 C-39.7 19.34 -40.69 19.34 -41.71 19.34 C-39.2 6.08 -39.2 6.08 -34.69 2.93 C-32.39 1.63 -30.11 0.44 -27.71 -0.66 C-26.92 -1.03 -26.14 -1.4 -25.33 -1.78 C-17.25 -4.5 -7.75 -3.22 0 0 Z " fill="#9E978D" transform="translate(84.70703125,12.66015625)"/>
<path d="M0 0 C6.87 2.71 6.87 2.71 8.12 5.56 C8.41 6.37 8.7 7.17 9 8 C9.84 7.92 10.69 7.83 11.55 7.75 C12.65 7.64 13.75 7.54 14.88 7.44 C15.42 7.39 15.42 7.39 18.18 7.12 C21 7 21 7 23 8 C23 7.01 23 6.02 23 5 C22.22 5.04 21.43 5.08 20.62 5.12 C18 5 18 5 16 3 C16 2.01 16 1.02 16 0 C20.19 0.67 23.4 2.86 27 5 C26.67 5.99 26.34 6.98 26 8 C24 8.73 24 8.73 21.56 9.19 C20.76 9.35 19.96 9.5 19.13 9.67 C17 10 17 10 15 10 C15 10.66 15 11.32 15 12 C15.66 12.33 16.32 12.66 17 13 C16.01 13 15.02 13 14 13 C14 12.01 14 11.02 14 10 C12.68 10 11.36 10 10 10 C10 11.32 10 12.64 10 14 C9.01 14 8.02 14 7 14 C6.67 14.5 6.67 14.5 5 17 C5 15.02 5 13.04 5 11 C3.35 11.33 1.7 11.66 0 12 C-0.66 14.97 -1.32 17.94 -2 21 C-1.34 21 -0.68 21 0 21 C-0.33 22.65 -0.66 24.3 -1 26 C-1.99 26 -2.98 26 -4 26 C-4 25.34 -4 24.68 -4 24 C-4.66 24 -5.32 24 -6 24 C-6 26 -6 26 -4.5 27.62 C-4.01 28.08 -3.51 28.53 -3 29 C-4.5 33.66 -7.88 34.87 -12 37 C-11.6 34.11 -11.21 33.18 -8.94 31.25 C-8.3 30.84 -7.66 30.42 -7 30 C-7.52 29.63 -8.03 29.26 -8.56 28.88 C-10 27 -10 27 -9.69 23.81 C-9.46 22.88 -9.23 21.96 -9 21 C-8.01 21 -7.02 21 -6 21 C-6.03 20.24 -6.07 19.48 -6.11 18.7 C-6.13 17.71 -6.16 16.71 -6.19 15.69 C-6.22 14.7 -6.26 13.72 -6.29 12.7 C-6 10 -6 10 -4.49 8.14 C-4 7.77 -3.51 7.39 -3 7 C-2.67 7.33 -2.34 7.66 -2 8 C-1.34 5.36 -0.68 2.72 0 0 Z " fill="#60676A" transform="translate(49,22)"/>
<path d="M0 0 C0.66 0 1.32 0 2 0 C2.06 3.44 2.09 6.87 2.12 10.31 C2.13 10.8 2.13 10.8 2.18 13.27 C2.18 14.21 2.19 15.15 2.2 16.11 C2.21 16.98 2.22 17.84 2.23 18.73 C2 21 2 21 0 24 C-0.34 25.45 -0.63 26.91 -0.88 28.38 C-1.7 32.48 -3.04 34.94 -6 38 C-7.32 37.67 -8.64 37.34 -10 37 C-10.28 35.57 -10.52 34.13 -10.75 32.69 C-10.82 32.29 -10.82 32.29 -11.17 30.26 C-11.12 29.52 -11.06 28.77 -11 28 C-9.68 26.98 -8.35 25.98 -7 25 C-5.32 19.38 -5.87 14.39 -8 9 C-8.12 6.12 -8.12 6.12 -8 4 C-7.34 3.67 -6.68 3.34 -6 3 C-4.68 4.32 -3.36 5.64 -2 7 C-1.34 4.69 -0.68 2.38 0 0 Z " fill="#B5A797" transform="translate(15,4)"/>
<path d="M0 0 C0.66 0 1.32 0 2 0 C2 0.66 2 1.32 2 2 C2.99 2.33 3.98 2.66 5 3 C5 3.99 5 4.98 5 6 C4.34 6 3.68 6 3 6 C3 7.32 3 8.64 3 10 C4.32 10 5.64 10 7 10 C7 8.68 7 7.36 7 6 C8.32 6.33 9.64 6.66 11 7 C10.43 9.87 10.14 10.86 8 13 C7.38 15.12 7.38 15.12 7 17 C7.99 17 8.98 17 10 17 C10 17.66 10 18.32 10 19 C7.5 20.63 7.5 20.63 5 22 C5.99 22.66 6.98 23.32 8 24 C8 24.66 8 25.32 8 26 C5.69 25.67 3.38 25.34 1 25 C0.67 26.32 0.34 27.64 0 29 C-0.66 29 -1.32 29 -2 29 C-1.67 27.35 -1.34 25.7 -1 24 C-2.32 23.67 -3.64 23.34 -5 23 C-4.67 21.68 -4.34 20.36 -4 19 C-3.01 19 -2.02 19 -1 19 C-1 17.35 -1 15.7 -1 14 C-1.66 14 -2.32 14 -3 14 C-3 14.99 -3 15.98 -3 17 C-4.98 17 -6.96 17 -9 17 C-9.33 16.01 -9.66 15.02 -10 14 C-8.35 14 -6.7 14 -5 14 C-4.67 13.01 -4.34 12.02 -4 11 C-1.94 9.81 -1.94 9.81 0 9 C-0.19 7.89 -0.37 6.77 -0.56 5.62 C-1 2 -1 2 0 0 Z " fill="#575549" transform="translate(84,64)"/>
<path d="M0 0 C2.54 0 5.04 0.1 7.57 0.31 C7.57 0.97 7.57 1.63 7.57 2.31 C7.24 2.48 7.24 2.48 5.57 3.31 C5.43 11.04 5.82 18.62 6.57 26.31 C3.6 26.31 0.63 26.31 -2.43 26.31 C-2.43 25.32 -2.43 24.33 -2.43 23.31 C-1.44 23.31 -0.45 23.31 0.57 23.31 C0.57 22.65 0.57 21.99 0.57 21.31 C-0.42 21.31 -1.41 21.31 -2.43 21.31 C-1.68 16.56 -1.68 16.56 0.57 14.31 C0.57 13.32 0.57 12.33 0.57 11.31 C-0.42 10.98 -1.41 10.65 -2.43 10.31 C-2.1 11.96 -1.77 13.61 -1.43 15.31 C-2.42 15.64 -3.41 15.97 -4.43 16.31 C-4.43 15.65 -4.43 14.99 -4.43 14.31 C-5.09 14.31 -5.75 14.31 -6.43 14.31 C-6.43 12.99 -6.43 11.67 -6.43 10.31 C-5.77 10.31 -5.11 10.31 -4.43 10.31 C-4.66 9.59 -4.88 8.87 -5.12 8.12 C-5.43 5.31 -5.43 5.31 -4.62 2.5 C-2.43 0.31 -2.43 0.31 0 0 Z " fill="#6F6C68" transform="translate(93.4296875,59.6875)"/>
<path d="M0 0 C0.66 0.33 1.32 0.66 2 1 C2.41 3.32 2.74 5.66 3 8 C5.31 8 7.62 8 10 8 C10 8.99 10 9.98 10 11 C9.34 11 8.68 11 8 11 C7.67 11.66 7.34 12.32 7 13 C6.67 12.67 6.34 12.34 6 12 C5.67 12.5 5.67 12.5 4 15 C0.81 15.36 0.81 15.36 -3 15.31 C-3.63 15.31 -3.63 15.31 -6.81 15.3 C-10 15 -10 15 -12 13 C-11.34 13 -10.68 13 -10 13 C-10.28 11.54 -10.58 10.08 -10.88 8.62 C-11.04 7.81 -11.2 7 -11.37 6.16 C-12 4 -12 4 -14 2 C-13.59 2.11 -13.59 2.11 -11.5 2.69 C-7.48 3.05 -5.34 2.21 -1.73 0.59 C-1.16 0.4 -0.59 0.2 0 0 Z " fill="#616060" transform="translate(35,75)"/>
<path d="M0 0 C1.32 0 2.64 0 4 0 C4 0.99 4 1.98 4 3 C5.98 2.84 5.98 2.84 16 2 C16 3.32 16 4.64 16 6 C14.68 5.67 13.36 5.34 12 5 C12.33 6.65 12.66 8.3 13 10 C10.69 10.33 8.38 10.66 6 11 C6 10.34 6 9.68 6 9 C0.12 12.62 0.12 12.62 -1 16 C-0.01 16 0.98 16 2 16 C2.66 17.32 3.32 18.64 4 20 C2.02 19.67 0.04 19.34 -2 19 C-2.33 18.01 -2.66 17.02 -3 16 C-3.66 16 -4.32 16 -5 16 C-5.33 14.35 -5.66 12.7 -6 11 C-5.01 11 -4.02 11 -3 11 C-3 10.34 -3 9.68 -3 9 C-3.99 8.67 -4.98 8.34 -6 8 C-8.19 6.06 -8.19 6.06 -10 4 C-10 3.34 -10 2.68 -10 2 C-8.35 1.67 -6.7 1.34 -5 1 C-4.67 1.99 -4.34 2.98 -4 4 C-3.34 3.34 -2.68 2.68 -2 2 C-2 2.66 -2 3.32 -2 4 C-1.34 4 -0.68 4 0 4 C0 2.68 0 1.36 0 0 Z " fill="#575841" transform="translate(59,32)"/>
<path d="M0 0 C0.29 0.64 0.58 1.28 0.88 1.94 C2 4 2 4 4 5 C4 4.34 4 3.68 4 3 C7.3 3.33 10.6 3.66 14 4 C14 2.68 14 1.36 14 0 C19.94 0.33 25.88 0.66 32 1 C31.67 1.66 31.34 2.32 31 3 C28.03 2.67 25.06 2.34 22 2 C22 2.66 22 3.32 22 4 C13.2 8.04 1.41 7.91 -8 6 C-8.99 5.34 -9.98 4.68 -11 4 C-13.04 3.59 -13.04 3.59 -15.19 3.38 C-16.45 3.25 -17.7 3.13 -19 3 C-19 3.66 -19 4.32 -19 5 C-24.82 6.94 -30.56 8.37 -36.5 6 C-36.99 5.67 -37.49 5.34 -38 5 C-35.36 5 -32.72 5 -30 5 C-30 3.68 -30 2.36 -30 1 C-29.35 1.01 -28.7 1.01 -28.03 1.02 C-25.08 1.04 -22.13 1.05 -19.19 1.06 C-18.68 1.07 -18.68 1.07 -16.08 1.09 C-15.1 1.09 -14.12 1.09 -13.11 1.1 C-12.2 1.1 -11.29 1.11 -10.36 1.11 C-6.76 0.94 -3.7 -0.1 0 0 Z " fill="#AFA69C" transform="translate(93,91)"/>
<path d="M0 0 C1.32 0.33 2.64 0.66 4 1 C3.34 1 2.68 1 2 1 C2 2.65 2 4.3 2 6 C1.01 6.33 0.02 6.66 -1 7 C-1.33 7.99 -1.66 8.98 -2 10 C-0.68 10.33 0.64 10.66 2 11 C1.67 12.65 1.34 14.3 1 16 C-1.79 16.03 -4.58 16.05 -7.38 16.06 C-8.17 16.07 -8.96 16.08 -9.78 16.09 C-15.77 16.11 -15.77 16.11 -18 15 C-17.67 16.65 -17.34 18.3 -17 20 C-19.31 19.67 -21.62 19.34 -24 19 C-24 18.34 -24 17.68 -24 17 C-22.35 16.67 -20.7 16.34 -19 16 C-19 15.34 -19 14.68 -19 14 C-19.78 13.69 -20.57 13.38 -21.38 13.06 C-24 12 -24 12 -26 11 C-26 10.34 -26 9.68 -26 9 C-19.2 7.57 -16.8 8.32 -11 12 C-9.68 12 -8.36 12 -7 12 C-6.67 9.69 -6.34 7.38 -6 5 C-5.2 4.73 -4.39 4.46 -3.56 4.19 C-2.72 3.8 -1.87 3.4 -1 3 C-0.67 2.01 -0.34 1.02 0 0 Z " fill="#756D49" transform="translate(81,77)"/>
<path d="M0 0 C0.66 0.66 1.32 1.32 2 2 C4.5 1.67 6.82 1.05 9.25 0.38 C9.54 0.31 9.54 0.31 11 0 C12 1 12 1 12.06 4.56 C12.04 5.7 12.02 6.83 12 8 C12.66 8.33 13.32 8.66 14 9 C14 10.32 14 11.64 14 13 C13.34 13 12.68 13 12 13 C12 12.34 12 11.68 12 11 C11.17 10.84 11.17 10.84 7 10 C7 9.34 7 8.68 7 8 C5.35 8 3.7 8 2 8 C2 8.66 2 9.32 2 10 C0.35 10.33 -1.3 10.66 -3 11 C-2.67 11.99 -2.34 12.98 -2 14 C-2.33 14.66 -2.66 15.32 -3 16 C-3.66 16 -4.32 16 -5 16 C-5.33 14.02 -5.66 12.04 -6 10 C-6.66 10 -7.32 10 -8 10 C-8 10.66 -8 11.32 -8 12 C-8.66 12 -9.32 12 -10 12 C-10 11.34 -10 10.68 -10 10 C-10.66 10 -11.32 10 -12 10 C-11.67 7.69 -11.34 5.38 -11 3 C-8.36 3.33 -5.72 3.66 -3 4 C-2.67 3.34 -2.34 2.68 -2 2 C-1.34 2 -0.68 2 0 2 C0 1.34 0 0.68 0 0 Z " fill="#958267" transform="translate(72,50)"/>
<path d="M0 0 C3.09 0.34 4.77 0.82 7.25 2.75 C9.18 5.23 9.66 6.91 10 10 C11.32 9.67 12.64 9.34 14 9 C14.66 10.32 15.32 11.64 16 13 C14.68 13.33 13.36 13.66 12 14 C12.33 13.01 12.66 12.02 13 11 C11.68 11 10.36 11 9 11 C9 11.99 9 12.98 9 14 C6.69 13.67 4.38 13.34 2 13 C1.5 13.83 1.5 13.83 -1 18 C-2.32 17.34 -3.64 16.68 -5 16 C-5 12.7 -5 9.4 -5 6 C-5.99 5.67 -6.98 5.34 -8 5 C-5.11 4.17 -3.11 4 0 4 C0 2.68 0 1.36 0 0 Z " fill="#C8B398" transform="translate(96,26)"/>
<path d="M0 0 C4.32 6.49 4.09 11.56 3 19 C2.01 19.33 1.02 19.66 0 20 C0 22.31 0 24.62 0 27 C-0.33 27 -0.66 27 -1 27 C-1 25.35 -1 23.7 -1 22 C-2.65 22.99 -4.3 23.98 -6 25 C-6.09 21.54 -6.14 18.08 -6.19 14.62 C-6.21 13.64 -6.24 12.66 -6.26 11.64 C-6.27 10.7 -6.28 9.76 -6.29 8.79 C-6.31 7.92 -6.32 7.05 -6.34 6.15 C-6.23 5.44 -6.12 4.73 -6 4 C-3 2 -3 2 0 2 C0 1.34 0 0.68 0 0 Z " fill="#A5947F" transform="translate(6,10)"/>
<path d="M0 0 C2.98 0.7 5.85 1.58 8.75 2.56 C9.15 2.7 9.15 2.7 11.17 3.38 C11.78 3.58 12.38 3.79 13 4 C13 4.66 13 5.32 13 6 C13.66 6 14.32 6 15 6 C15 6.99 15 7.98 15 9 C13.68 9.33 12.36 9.66 11 10 C11.08 10.77 11.17 11.54 11.25 12.34 C11.36 13.34 11.46 14.34 11.56 15.38 C11.67 16.37 11.77 17.37 11.88 18.4 C12 21 12 21 11 23 C10.34 23 9.68 23 9 23 C8.67 20.69 8.34 18.38 8 16 C7.44 16.14 6.89 16.29 6.31 16.44 C3.89 17.03 1.45 17.52 -1 18 C-1.66 16.35 -2.32 14.7 -3 13 C-2.36 12.9 -1.72 12.79 -1.06 12.69 C-0.72 12.57 -0.72 12.57 1 12 C1.33 11.01 1.66 10.02 2 9 C3.32 9.33 4.64 9.66 6 10 C5.85 9.7 5.85 9.7 5.06 8.19 C4 6 4 6 3 3 C2.01 3 1.02 3 0 3 C0 2.01 0 1.02 0 0 Z " fill="#B09E8A" transform="translate(75,35)"/>
<path d="M0 0 C2 0.25 2 0.25 4 1 C4.33 1.99 4.66 2.98 5 4 C7.06 4.69 7.06 4.69 9 5 C8.67 5.99 8.34 6.98 8 8 C7.34 7.67 6.68 7.34 6 7 C6 8.65 6 10.3 6 12 C6.66 12 7.32 12 8 12 C7.59 16.83 5.54 18.83 2 22 C1.17 21.67 1.17 21.67 -3 20 C-3 17.69 -3 15.38 -3 13 C-3.99 12.67 -4.98 12.34 -6 12 C-5.67 11.01 -5.34 10.02 -5 9 C-4.34 9.33 -3.68 9.66 -3 10 C-3 10.66 -3 11.32 -3 12 C-2.01 12 -1.02 12 0 12 C0.33 10.35 0.66 8.7 1 7 C0.34 7 -0.32 7 -1 7 C-1.04 5 -1.04 3 -1 1 C-0.67 0.67 -0.34 0.34 0 0 Z " fill="#43463B" transform="translate(48,36)"/>
<path d="M0 0 C0.33 0 0.66 0 1 0 C1 3.63 1 7.26 1 11 C0.67 11.16 0.67 11.16 -1 12 C-1.73 13.98 -2.4 15.98 -3 18 C-3.66 18 -4.32 18 -5 18 C-5.66 21.3 -6.32 24.6 -7 28 C-7.66 28 -8.32 28 -9 28 C-10.88 31.27 -11.49 34.28 -12 38 C-13.11 37.96 -14.23 37.92 -15.38 37.88 C-19 38 -19 38 -21 40 C-23.31 39.34 -25.62 38.68 -28 38 C-24.93 35.95 -22.58 34.86 -19 34 C-16.3 34.95 -16.3 34.95 -14 36 C-13.82 34.76 -13.64 33.52 -13.45 32.24 C-13.2 30.6 -12.94 28.95 -12.69 27.31 C-12.57 26.5 -12.45 25.68 -12.33 24.84 C-11.62 20.32 -10.93 16.66 -8 13 C-6.21 11.95 -6.21 11.95 -4.38 11.25 C-2.52 10.31 -2.52 10.31 -1 9 C-0.1 5.99 0.05 3.13 0 0 Z " fill="#949390" transform="translate(42,32)"/>
<path d="M0 0 C1.32 0.33 2.64 0.66 4 1 C3.67 2.65 3.34 4.3 3 6 C3.66 6 4.32 6 5 6 C5 7.65 5 9.3 5 11 C4.01 11.33 3.02 11.66 2 12 C2 12.66 2 13.32 2 14 C3.98 13.67 5.96 13.34 8 13 C8 13.99 8 14.98 8 16 C9.98 15.67 11.96 15.34 14 15 C14.33 16.65 14.66 18.3 15 20 C10.59 20 8.85 18.96 5 17 C2.12 16.31 2.12 16.31 0 16 C0 15.34 0 14.68 0 14 C-1.65 14 -3.3 14 -5 14 C-4.67 13.34 -4.34 12.68 -4 12 C-3.34 12.33 -2.68 12.66 -2 13 C-2.66 10.69 -3.32 8.38 -4 6 C-4.99 6.33 -5.98 6.66 -7 7 C-6.67 5.68 -6.34 4.36 -6 3 C-4.35 3 -2.7 3 -1 3 C-0.67 2.01 -0.34 1.02 0 0 Z " fill="#515046" transform="translate(58,69)"/>
<path d="M0 0 C8.87 -0.47 17.13 -0.6 25 4 C27.46 6.27 28.46 7.92 30 11 C29.61 13.22 29.61 13.22 29 15 C28.67 14.01 28.34 13.02 28 12 C27.34 11.67 26.68 11.34 26 11 C24.88 8.94 24.88 8.94 24 7 C21.36 7.66 18.72 8.32 16 9 C16 9.66 16 10.32 16 11 C16.66 11 17.32 11 18 11 C18 11.66 18 12.32 18 13 C17.01 13.33 16.02 13.66 15 14 C12 10.25 12 10.25 12 8 C11.34 8 10.68 8 10 8 C9.34 7.34 8.68 6.68 8 6 C8 5.01 8 4.02 8 3 C6.68 3 5.36 3 4 3 C4 2.34 4 1.68 4 1 C2.68 0.67 1.36 0.34 0 0 Z " fill="#CEBDA7" transform="translate(62,10)"/>
<path d="M0 0 C0 0.66 0 1.32 0 2 C0.66 2 1.32 2 2 2 C2 1.34 2 0.68 2 0 C2.66 0 3.32 0 4 0 C4.33 1.98 4.66 3.96 5 6 C5.66 6 6.32 6 7 6 C6.67 4.02 6.34 2.04 6 0 C6.99 0.33 7.98 0.66 9 1 C9 1.99 9 2.98 9 4 C9.99 4.33 10.98 4.66 12 5 C12 5.66 12 6.32 12 7 C10.68 7 9.36 7 8 7 C8 8.98 8 10.96 8 13 C9.32 13 10.64 13 12 13 C12 13.99 12 14.98 12 16 C5.57 17.34 5.57 17.34 3 15.81 C2 14 2 14 2.31 11.81 C2.54 11.21 2.77 10.62 3 10 C1.68 9.34 0.36 8.68 -1 8 C-1 6.35 -1 4.7 -1 3 C-2.32 3 -3.64 3 -5 3 C-5 2.34 -5 1.68 -5 1 C-3 0 -3 0 0 0 Z " fill="#60574D" transform="translate(62,60)"/>
<path d="M0 0 C1.32 0 2.64 0 4 0 C4.66 0.99 5.32 1.98 6 3 C8.12 3.69 8.12 3.69 10 4 C10 4.66 10 5.32 10 6 C7.69 6.66 5.38 7.32 3 8 C3.23 8.91 3.45 9.81 3.69 10.75 C4 14 4 14 2.69 16.38 C1 18 1 18 -1 18 C-1 17.34 -1 16.68 -1 16 C-1.66 16 -2.32 16 -3 16 C-3.33 16.66 -3.66 17.32 -4 18 C-4.33 17.67 -4.66 17.34 -5 17 C-5.33 17.66 -5.66 18.32 -6 19 C-7.32 18.34 -8.64 17.68 -10 17 C-10 15.68 -10 14.36 -10 13 C-10.66 13 -11.32 13 -12 13 C-11.67 11.68 -11.34 10.36 -11 9 C-10.01 9.33 -9.02 9.66 -8 10 C-8 10.66 -8 11.32 -8 12 C-6.35 12.33 -4.7 12.66 -3 13 C-3 13.66 -3 14.32 -3 15 C-2.34 15 -1.68 15 -1 15 C-1.19 14.4 -1.37 13.8 -1.56 13.19 C-2 11 -2 11 -1 8 C0.56 6.31 0.56 6.31 2 5 C1.34 5 0.68 5 0 5 C0 3.35 0 1.7 0 0 Z " fill="#5E5C52" transform="translate(87,48)"/>
<path d="M0 0 C0.66 1.32 1.32 2.64 2 4 C3.32 3.67 4.64 3.34 6 3 C6.33 3.66 6.66 4.32 7 5 C6.01 5 5.02 5 4 5 C4 5.66 4 6.32 4 7 C2.54 7.36 1.08 7.71 -0.38 8.06 C-1.19 8.26 -2 8.46 -2.84 8.66 C-5 9 -5 9 -7 8 C-7 9.32 -7 10.64 -7 12 C-7.66 12 -8.32 12 -9 12 C-9.45 11.48 -9.91 10.97 -10.38 10.44 C-10.91 9.96 -11.45 9.49 -12 9 C-14.19 9.31 -14.19 9.31 -16 10 C-15 7 -15 7 -13 5 C-12.38 2.87 -12.38 2.87 -12 1 C-8.02 -0.33 -4.15 -0.07 0 0 Z " fill="#948A78" transform="translate(70,13)"/>
<path d="M0 0 C1.65 0 3.3 0 5 0 C5.23 2.02 5.46 4.04 5.68 6.05 C6 8 6 8 7 10 C6.34 10 5.68 10 5 10 C5 10.99 5 11.98 5 13 C5.66 13 6.32 13 7 13 C7.33 14.65 7.66 16.3 8 18 C7.34 18 6.68 18 6 18 C6 17.34 6 16.68 6 16 C4.02 16 2.04 16 0 16 C0.64 16.1 1.28 16.21 1.94 16.31 C2.62 16.54 3.3 16.77 4 17 C4.33 17.99 4.66 18.98 5 20 C4.34 20.33 4.34 20.33 1 22 C1 21.34 1 20.68 1 20 C0.34 20 -0.32 20 -1 20 C-1.66 18.02 -2.32 16.04 -3 14 C-2.67 13.67 -2.34 13.34 -2 13 C-1.6 10.82 -1.26 8.63 -0.94 6.44 C-0.76 5.24 -0.58 4.04 -0.4 2.81 C-0.27 1.88 -0.14 0.95 0 0 Z " fill="#656A6F" transform="translate(47,62)"/>
<path d="M0 0 C0 1.32 0 2.64 0 4 C0.99 4.33 1.98 4.66 3 5 C3 5.99 3 6.98 3 8 C4.65 8 6.3 8 8 8 C8 9.65 8 11.3 8 13 C7.44 13.07 7.44 13.07 4.62 13.44 C1 14 1 14 -1 15 C-1 13.02 -1 11.04 -1 9 C-1.99 8.84 -1.99 8.84 -7 8 C-7.33 6.68 -7.66 5.36 -8 4 C-8.66 4 -9.32 4 -10 4 C-10 3.34 -10 2.68 -10 2 C-8.71 1.47 -7.42 0.95 -6.12 0.44 C-5.41 0.15 -4.69 -0.14 -3.95 -0.44 C-2 -1 -2 -1 0 0 Z " fill="#A59358" transform="translate(88,17)"/>
<path d="M0 0 C4.19 0.67 7.4 2.86 11 5 C10.67 5.99 10.34 6.98 10 8 C8 8.73 8 8.73 5.56 9.19 C4.76 9.35 3.96 9.5 3.13 9.67 C1 10 1 10 -1 10 C-1 10.66 -1 11.32 -1 12 C-0.34 12.33 0.32 12.66 1 13 C0.01 13 -0.98 13 -2 13 C-2 12.01 -2 11.02 -2 10 C-3.32 10 -4.64 10 -6 10 C-6 11.32 -6 12.64 -6 14 C-6.99 14 -7.98 14 -9 14 C-9.33 14.5 -9.33 14.5 -11 17 C-11 15.02 -11 13.04 -11 11 C-12.98 11.66 -14.96 12.32 -17 13 C-16.67 12.01 -16.34 11.02 -16 10 C-15.34 10 -14.68 10 -14 10 C-14 8.02 -14 6.04 -14 4 C-12.68 4.33 -11.36 4.66 -10 5 C-10 5.66 -10 6.32 -10 7 C-5.39 8.06 -1.57 7.85 3.05 7.16 C5 7 5 7 7 8 C7 7.01 7 6.02 7 5 C6.22 5.04 5.43 5.08 4.62 5.12 C2 5 2 5 0 3 C0 2.01 0 1.02 0 0 Z " fill="#727166" transform="translate(65,22)"/>
<path d="M0 0 C0.66 1.32 1.32 2.64 2 4 C2.99 4 3.98 4 5 4 C5.33 6.31 5.66 8.62 6 11 C7.32 11.33 8.64 11.66 10 12 C10 14.64 10 17.28 10 20 C10.66 20 11.32 20 12 20 C12.33 19.34 12.66 18.68 13 18 C13.66 18.99 14.32 19.98 15 21 C16 20 16 20 16.06 17.44 C16.04 16.63 16.02 15.83 16 15 C19 15 19 15 22 17 C21.01 17 20.02 17 19 17 C18.88 18.28 18.75 19.56 18.62 20.88 C18.25 24.75 18.25 24.75 16 27 C14.06 26.94 14.06 26.94 12 26 C9.86 23.22 9.04 21.37 8.62 17.88 C8.42 16.93 8.21 15.98 8 15 C6.36 13.96 4.69 12.96 3 12 C0.35 7.88 -0.35 4.87 0 0 Z " fill="#A6ACB5" transform="translate(121,0)"/>
<path d="M0 0 C0.66 0 1.32 0 2 0 C2 0.66 2 1.32 2 2 C3.98 2 5.96 2 8 2 C8.29 2.97 8.58 3.94 8.88 4.94 C10 8 10 8 12 9 C12.39 10.65 12.72 12.32 13 14 C13.33 14.99 13.66 15.98 14 17 C13.34 17 12.68 17 12 17 C12.33 18.32 12.66 19.64 13 21 C11.02 21.33 9.04 21.66 7 22 C7 21.34 7 20.68 7 20 C7.66 19.67 8.32 19.34 9 19 C9.62 16.44 9.62 16.44 10 14 C9.34 14 8.68 14 8 14 C8.33 12.35 8.66 10.7 9 9 C7.68 9 6.36 9 5 9 C4.67 9.66 4.34 10.32 4 11 C0.12 10.12 0.12 10.12 -1 9 C-1.13 7.19 -1.13 7.19 -1.12 5 C-1.13 4.28 -1.13 3.56 -1.13 2.81 C-1 1 -1 1 0 0 Z " fill="#817664" transform="translate(53,61)"/>
<path d="M0 0 C1.32 0.33 2.64 0.66 4 1 C3.26 2.61 2.51 4.21 1.75 5.81 C1.54 6.26 1.54 6.26 0.48 8.52 C-1.07 11.11 -2.48 12.38 -5 14 C-6.56 12.31 -6.56 12.31 -8 10 C-7.69 7.25 -7.69 7.25 -7 5 C-7.99 5 -8.98 5 -10 5 C-10.06 5.42 -10.06 5.42 -10.38 7.56 C-11.03 11.15 -11.95 14.51 -13 18 C-15.15 14.77 -15.2 13.72 -15 10 C-14.67 10 -14.34 10 -14 10 C-13.67 8.02 -13.34 6.04 -13 4 C-13.66 3.67 -14.32 3.34 -15 3 C-14.01 3 -13.02 3 -12 3 C-12 2.34 -12 1.68 -12 1 C-10.68 1.33 -9.36 1.66 -8 2 C-8 2.66 -8 3.32 -8 4 C-7.34 4 -6.68 4 -6 4 C-5.67 3.34 -5.34 2.68 -5 2 C-5 2.99 -5 3.98 -5 5 C-3.02 5 -1.04 5 1 5 C0.67 3.35 0.34 1.7 0 0 Z " fill="#A5A8AE" transform="translate(38,0)"/>
<path d="M0 0 C0.33 0.99 0.66 1.98 1 3 C1.66 3 2.32 3 3 3 C3.07 6.9 2.94 10.24 2 14 C2.02 15.18 2.04 16.35 2.06 17.56 C2 21 2 21 0 24 C-0.99 24 -1.98 24 -3 24 C-4.93 18.64 -4.86 16.27 -3 11 C-2.82 7.66 -2.88 4.34 -3 1 C-2.01 0.67 -1.02 0.34 0 0 Z " fill="#8A929B" transform="translate(22,1)"/>
<path d="M0 0 C4.62 0 9.24 0 14 0 C13.67 0.66 13.34 1.32 13 2 C12.34 2 11.68 2 11 2 C10.67 3.32 10.34 4.64 10 6 C9.34 6 8.68 6 8 6 C7.79 6.95 7.59 7.9 7.38 8.88 C6.92 9.91 6.47 10.94 6 12 C4.02 12.66 2.04 13.32 0 14 C0 9.38 0 4.76 0 0 Z " fill="#79726A" transform="translate(0,0)"/>
<path d="M0 0 C2.31 0.33 4.62 0.66 7 1 C7 1.66 7 2.32 7 3 C8.65 3.66 10.3 4.32 12 5 C11.67 5.99 11.34 6.98 11 8 C4.65 9.69 -2.65 9.69 -9 8 C-9 7.34 -9 6.68 -9 6 C-8.01 6 -7.02 6 -6 6 C-6 5.34 -6 4.68 -6 4 C-4.35 4 -2.7 4 -1 4 C-0.67 2.68 -0.34 1.36 0 0 Z " fill="#9C9366" transform="translate(123,83)"/>
<path d="M0 0 C5.28 0 10.56 0 16 0 C15.34 1.65 14.68 3.3 14 5 C13.67 4.34 13.34 3.68 13 3 C12.01 3 11.02 3 10 3 C10 4.32 10 5.64 10 7 C9.34 7 8.68 7 8 7 C8 8.65 8 10.3 8 12 C6.35 12 4.7 12 3 12 C2.49 10.56 2 9.13 1.5 7.69 C1.22 6.89 0.94 6.09 0.66 5.26 C0 3 0 3 0 0 Z " fill="#676C72" transform="translate(130,0)"/>
<path d="M0 0 C1.32 0 2.64 0 4 0 C4.33 0.66 4.66 1.32 5 2 C5.99 1.67 6.98 1.34 8 1 C8 1.66 8 2.32 8 3 C8.66 3 9.32 3 10 3 C9.69 4.88 9.69 4.88 9 7 C6 9 6 9 3 9 C3.33 10.32 3.66 11.64 4 13 C5.65 13 7.3 13 9 13 C7.19 14.06 7.19 14.06 5 15 C4.01 14.67 3.02 14.34 2 14 C2 14.66 2 15.32 2 16 C0.68 16 -0.64 16 -2 16 C-2 15.01 -2 14.02 -2 13 C-3.32 13.33 -4.64 13.66 -6 14 C-5.67 12.35 -5.34 10.7 -5 9 C-3.68 9 -2.36 9 -1 9 C-0.67 9.66 -0.34 10.32 0 11 C1.37 7.18 0.68 3.93 0 0 Z " fill="#7D734A" transform="translate(105,37)"/>
<path d="M0 0 C3 0 3 0 4.69 1.12 C6.54 3.76 6.21 5.86 6 9 C-0.29 11.43 -0.29 11.43 -4 10 C-4.33 10.99 -4.66 11.98 -5 13 C-6.65 13 -8.3 13 -10 13 C-10 13.66 -10 14.32 -10 15 C-10.99 15 -11.98 15 -13 15 C-13 15.66 -13 16.32 -13 17 C-13.99 16.67 -14.98 16.34 -16 16 C-16 14.68 -16 13.36 -16 12 C-10.36 10.08 -10.36 10.08 -7.69 9.5 C-7.13 9.34 -6.57 9.17 -6 9 C-5.67 8.34 -5.34 7.68 -5 7 C-3.35 7 -1.7 7 0 7 C0 4.69 0 2.38 0 0 Z " fill="#565344" transform="translate(127,74)"/>
<path d="M0 0 C2 2 2 2 2.12 5.62 C2.08 6.74 2.04 7.85 2 9 C2.66 9 3.32 9 4 9 C4 9.66 4 10.32 4 11 C3.67 11.16 3.67 11.16 2 12 C1.38 14.06 1.38 14.06 1 16 C1.66 16 2.32 16 3 16 C3.33 15.01 3.66 14.02 4 13 C4.66 13 5.32 13 6 13 C6.33 12.34 6.66 11.68 7 11 C6.67 13.64 6.34 16.28 6 19 C4.02 19.66 2.04 20.32 0 21 C-0.18 20.46 -0.36 19.91 -0.55 19.36 C-0.8 18.64 -1.05 17.92 -1.31 17.19 C-1.56 16.48 -1.8 15.77 -2.05 15.04 C-3.07 12.85 -4.29 11.67 -6 10 C-6 9.34 -6 8.68 -6 8 C-5.34 8 -4.68 8 -4 8 C-4 7.34 -4 6.68 -4 6 C-3.01 6 -2.02 6 -1 6 C-0.67 4.02 -0.34 2.04 0 0 Z " fill="#3B3F34" transform="translate(38,62)"/>
<path d="M0 0 C0 0.99 0 1.98 0 3 C0.66 3.33 1.32 3.66 2 4 C4 6 4 6 4 9 C1.19 9.16 1.19 9.16 -13 10 C-13.33 8.68 -13.66 7.36 -14 6 C-8.25 4 -8.25 4 -6 4 C-6 3.01 -6 2.02 -6 1 C-3.92 0.45 -2.16 0 0 0 Z " fill="#9D8D56" transform="translate(103,50)"/>
<path d="M0 0 C1.94 0.81 1.94 0.81 4 2 C4.33 2.99 4.66 3.98 5 5 C7.06 5.69 7.06 5.69 9 6 C9 6.66 9 7.32 9 8 C8.67 8.16 8.67 8.16 7 9 C7.66 10.32 8.32 11.64 9 13 C5.51 15.33 4.11 15.5 0 15 C-2.38 13.12 -2.38 13.12 -4 11 C-4 10.34 -4 9.68 -4 9 C-3.03 8.57 -2.06 8.13 -1.06 7.69 C2 6 2 6 3 3 C2.34 3 1.68 3 1 3 C0.67 2.01 0.34 1.02 0 0 Z " fill="#AA9B6E" transform="translate(112,37)"/>
<path d="M0 0 C0.66 0 1.32 0 2 0 C2.33 0.66 2.66 1.32 3 2 C3.66 2 4.32 2 5 2 C5 2.99 5 3.98 5 5 C5.82 5.78 6.65 6.57 7.5 7.38 C10 10 10 10 10.31 12.81 C10.26 13.17 10.26 13.17 10 15 C10.99 15.33 11.98 15.66 13 16 C12.67 17.32 12.34 18.64 12 20 C9.03 20.33 6.06 20.66 3 21 C3 20.67 3 20.34 3 20 C5.31 19.34 7.62 18.68 10 18 C9.34 17.55 8.68 17.09 8 16.62 C7.34 16.09 6.68 15.55 6 15 C6 14.34 6 13.68 6 13 C6.66 13 7.32 13 8 13 C8.33 12.34 8.66 11.68 9 11 C7.02 11.33 5.04 11.66 3 12 C2.67 9.69 2.34 7.38 2 5 C0.68 5 -0.64 5 -2 5 C-2 5.66 -2 6.32 -2 7 C-2.66 6.67 -3.32 6.34 -4 6 C-4 4.35 -4 2.7 -4 1 C-3.01 1.33 -2.02 1.66 -1 2 C-0.67 1.34 -0.34 0.68 0 0 Z " fill="#C8BCAC" transform="translate(132,63)"/>
<path d="M0 0 C5.94 0.33 11.88 0.66 18 1 C17.67 1.66 17.34 2.32 17 3 C14.03 2.67 11.06 2.34 8 2 C8 2.66 8 3.32 8 4 C-0.8 8.04 -12.59 7.91 -22 6 C-22.99 5.34 -23.98 4.68 -25 4 C-20.05 4.33 -15.1 4.66 -10 5 C-10 4.34 -10 3.68 -10 3 C-6.7 3.33 -3.4 3.66 0 4 C0 2.68 0 1.36 0 0 Z " fill="#CABEB1" transform="translate(107,91)"/>
<path d="M0 0 C1.43 2.35 2.09 3.48 1.62 6.25 C1.42 6.83 1.21 7.41 1 8 C2.98 7.67 4.96 7.34 7 7 C6.67 7.99 6.34 8.98 6 10 C5.34 9.67 4.68 9.34 4 9 C4.45 9.43 4.91 9.87 5.38 10.31 C7 12 7 12 9 15 C6.36 15.33 3.72 15.66 1 16 C1 16.66 1 17.32 1 18 C-0.65 17.67 -2.3 17.34 -4 17 C-3.01 16.67 -2.02 16.34 -1 16 C-1 14.02 -1 12.04 -1 10 C-1.66 10 -2.32 10 -3 10 C-3 8 -3 8 -1.5 6.38 C-1 5.92 -0.51 5.47 0 5 C-0.66 5 -1.32 5 -2 5 C-1.12 1.12 -1.12 1.12 0 0 Z " fill="#9A8E7A" transform="translate(134,67)"/>
<path d="M0 0 C5.54 5.25 6.17 8.78 6.56 16.19 C6.61 16.94 6.65 17.69 6.69 18.46 C6.8 20.31 6.9 22.15 7 24 C6.01 24 5.02 24 4 24 C3.23 18.59 2.9 13.46 3 8 C2.45 8.29 1.89 8.58 1.32 8.88 C0.6 9.25 -0.13 9.62 -0.88 10 C-1.59 10.37 -2.31 10.74 -3.05 11.12 C-5 12 -5 12 -7 12 C-7.66 10.68 -8.32 9.36 -9 8 C-6.36 7.34 -3.72 6.68 -1 6 C-1.66 4.35 -2.32 2.7 -3 1 C-2.01 0.67 -1.02 0.34 0 0 Z " fill="#CEBFAB" transform="translate(121,44)"/>
<path d="M0 0 C0.33 0.66 0.66 1.32 1 2 C1.99 2 2.98 2 4 2 C4.33 5.96 4.66 9.92 5 14 C2.03 14 -0.94 14 -4 14 C-4 13.01 -4 12.02 -4 11 C-3.01 11 -2.02 11 -1 11 C-1 10.34 -1 9.68 -1 9 C-1.99 9 -2.98 9 -4 9 C-3.47 5.18 -2.5 2.94 0 0 Z " fill="#726851" transform="translate(95,72)"/>
<path d="M0 0 C0.33 0.99 0.66 1.98 1 3 C1.66 2.34 2.32 1.68 3 1 C3 1.66 3 2.32 3 3 C3.66 3 4.32 3 5 3 C6.43 11.57 6.43 11.57 4 15 C4.99 15 5.98 15 7 15 C7.66 16.32 8.32 17.64 9 19 C7.02 18.67 5.04 18.34 3 18 C2.67 17.01 2.34 16.02 2 15 C1.34 15 0.68 15 0 15 C-0.33 13.35 -0.66 11.7 -1 10 C-0.01 10 0.98 10 2 10 C2 9.34 2 8.68 2 8 C1.01 7.67 0.02 7.34 -1 7 C-3.19 5.06 -3.19 5.06 -5 3 C-5 2.34 -5 1.68 -5 1 C-3 0 -3 0 0 0 Z " fill="#535451" transform="translate(54,33)"/>
<path d="M0 0 C0 6.09 -1.75 12.18 -5.19 17.19 C-5.79 17.79 -6.38 18.38 -7 19 C-8.32 18.67 -9.64 18.34 -11 18 C-11.33 15.03 -11.66 12.06 -12 9 C-11.18 9.16 -11.18 9.16 -7 10 C-6.34 8.68 -5.68 7.36 -5 6 C-4.34 6.33 -3.68 6.66 -3 7 C-3.33 5.68 -3.66 4.36 -4 3 C-2.68 2.01 -1.36 1.02 0 0 Z " fill="#C8BCB1" transform="translate(16,23)"/>
<path d="M0 0 C2.02 0.07 4.04 0.13 6.05 0.2 C6.05 3.17 6.05 6.14 6.05 9.2 C5.64 8.56 5.23 7.92 4.8 7.26 C3.05 5.2 3.05 5.2 0.99 4.32 C0.35 4.28 -0.29 4.24 -0.95 4.2 C-3.44 6.69 -3.3 7.87 -3.57 11.32 C-3.65 12.23 -3.72 13.14 -3.8 14.08 C-3.85 14.78 -3.89 15.48 -3.95 16.2 C-6.2 13.27 -7.88 10.76 -8.95 7.2 C-8.57 4.88 -8.57 4.88 -7.95 3.2 C-7.33 3.07 -6.71 2.95 -6.07 2.82 C-3.46 2.05 -2.7 0.27 0 0 Z " fill="#8A929D" transform="translate(147.9453125,-0.1953125)"/>
<path d="M0 0 C0.99 0 1.98 0 3 0 C4.75 2.31 4.75 2.31 6 5 C5 8 5 8 2.86 9.1 C1.98 9.42 1.09 9.73 0.19 10.06 C-2.98 11.23 -6.01 12.43 -9 14 C-8.67 13.01 -8.34 12.02 -8 11 C-7.34 11 -6.68 11 -6 11 C-6 10.34 -6 9.68 -6 9 C-7.48 9.16 -7.48 9.16 -15 10 C-15 9.34 -15 8.68 -15 8 C-10.05 8 -5.1 8 0 8 C0 7.01 0 6.02 0 5 C-0.99 4.67 -1.98 4.34 -3 4 C-2.67 3.34 -2.34 2.68 -2 2 C-1.34 2 -0.68 2 0 2 C0 1.34 0 0.68 0 0 Z " fill="#C5B191" transform="translate(107,51)"/>
<path d="M0 0 C2.07 2.28 2.98 3.44 3.07 6.58 C2.95 7.46 2.82 8.34 2.69 9.25 C2.57 10.14 2.45 11.03 2.32 11.95 C2.22 12.63 2.11 13.3 2 14 C1.01 14.33 0.02 14.66 -1 15 C-1 17.31 -1 19.62 -1 22 C-1.33 22 -1.66 22 -2 22 C-2 20.02 -2 18.04 -2 16 C-2.66 16 -3.32 16 -4 16 C-3.66 10.01 -3.18 5.25 0 0 Z " fill="#7F7F83" transform="translate(7,15)"/>
<path d="M0 0 C5.23 -0.38 8.38 0.78 13 3 C12.67 4.65 12.34 6.3 12 8 C11.11 7.98 10.23 7.96 9.31 7.94 C6 8 6 8 3.31 8.56 C1 9 1 9 -2 8 C-2 7.01 -2 6.02 -2 5 C0.91 3.74 2.8 3 6 3 C4.02 2.34 2.04 1.68 0 1 C0 0.67 0 0.34 0 0 Z " fill="#A09E9C" transform="translate(43,88)"/>
<path d="M0 0 C0.22 5.44 0.1 9.87 -2 15 C-2.66 15 -3.32 15 -4 15 C-4 11.7 -4 8.4 -4 5 C-4.33 5.33 -4.66 5.66 -5 6 C-6.32 6 -7.64 6 -9 6 C-9 4.35 -9 2.7 -9 1 C-6.04 -0.48 -3.26 -0.06 0 0 Z " fill="#BEAA90" transform="translate(119,60)"/>
<path d="M0 0 C0.99 0 1.98 0 3 0 C3 1.32 3 2.64 3 4 C3.99 4.33 4.98 4.66 6 5 C6 6.32 6 7.64 6 9 C-0.58 8.59 -6.74 8.13 -13 6 C-12.67 5.34 -12.34 4.68 -12 4 C-8.04 4 -4.08 4 0 4 C0 2.68 0 1.36 0 0 Z " fill="#79735A" transform="translate(84,28)"/>
<path d="M0 0 C2.05 0.03 4.1 0.07 6.15 0.1 C6.15 0.76 6.15 1.42 6.15 2.1 C3.51 2.76 0.87 3.42 -1.85 4.1 C-1.97 4.9 -2.1 5.71 -2.22 6.54 C-2.43 7.38 -2.64 8.23 -2.85 9.1 C-5.59 10.47 -7.82 10.22 -10.85 10.1 C-11.51 9.77 -12.17 9.44 -12.85 9.1 C-11.62 5.41 -10.7 5.2 -7.35 3.47 C-0.78 0.04 -0.78 0.04 0 0 Z " fill="#B0A497" transform="translate(59.84765625,10.90234375)"/>
<path d="M0 0 C2.12 0.38 2.12 0.38 4 1 C4 3.31 4 5.62 4 8 C4.66 8.33 5.32 8.66 6 9 C6 10.32 6 11.64 6 13 C5.34 13 4.68 13 4 13 C4 12.34 4 11.68 4 11 C2.35 10.67 0.7 10.34 -1 10 C-1 9.34 -1 8.68 -1 8 C-2.32 8 -3.64 8 -5 8 C-5 7.34 -5 6.68 -5 6 C-4.34 6 -3.68 6 -3 6 C-2.88 5.38 -2.75 4.76 -2.62 4.12 C-2 2 -2 2 0 0 Z " fill="#717071" transform="translate(80,50)"/>
<path d="M0 0 C1.98 0.33 1.98 0.33 12 2 C12 2.99 12 3.98 12 5 C11.34 5 10.68 5 10 5 C9.67 5.66 9.34 6.32 9 7 C8.67 6.67 8.34 6.34 8 6 C7.67 6.5 7.67 6.5 6 9 C3.62 9.29 3.62 9.29 0.88 9.19 C-0.04 9.16 -0.95 9.13 -1.88 9.11 C-2.58 9.07 -3.28 9.04 -4 9 C-3.34 8.34 -2.68 7.68 -2 7 C-1.01 7 -0.02 7 1 7 C1.33 5.35 1.66 3.7 2 2 C1.34 2 0.68 2 0 2 C0 1.34 0 0.68 0 0 Z " fill="#88867A" transform="translate(33,81)"/>
<path d="M0 0 C2.98 0.7 5.85 1.58 8.75 2.56 C9.15 2.7 9.15 2.7 11.17 3.38 C11.78 3.58 12.38 3.79 13 4 C13 4.66 13 5.32 13 6 C13.66 6 14.32 6 15 6 C15 6.99 15 7.98 15 9 C12.69 9.66 10.38 10.32 8 11 C3 5.25 3 5.25 3 3 C2.01 3 1.02 3 0 3 C0 2.01 0 1.02 0 0 Z " fill="#C5B096" transform="translate(75,35)"/>
<path d="M0 0 C0.66 0 1.32 0 2 0 C2 0.66 2 1.32 2 2 C2.99 2.33 3.98 2.66 5 3 C5 3.99 5 4.98 5 6 C4.34 6 3.68 6 3 6 C3 7.65 3 9.3 3 11 C1.02 11.99 -0.96 12.98 -3 14 C-3 14.99 -3 15.98 -3 17 C-4.98 17 -6.96 17 -9 17 C-9.33 16.01 -9.66 15.02 -10 14 C-8.35 14 -6.7 14 -5 14 C-4.67 13.01 -4.34 12.02 -4 11 C-1.94 9.81 -1.94 9.81 0 9 C-0.19 7.89 -0.37 6.77 -0.56 5.62 C-1 2 -1 2 0 0 Z " fill="#47463F" transform="translate(84,64)"/>
<path d="M0 0 C0.66 0.33 1.32 0.66 2 1 C2 4.63 2 8.26 2 12 C1.34 12 0.68 12 0 12 C0 12.66 0 13.32 0 14 C-0.66 14 -1.32 14 -2 14 C-2.21 13.2 -2.41 12.39 -2.62 11.56 C-3.08 10.72 -3.53 9.87 -4 9 C-7.12 8.19 -7.12 8.19 -10 8 C-9.01 7.67 -8.02 7.34 -7 7 C-5.81 4.44 -5.81 4.44 -5 2 C-3.35 2 -1.7 2 0 2 C0 1.34 0 0.68 0 0 Z " fill="#AC9A84" transform="translate(114,64)"/>
<path d="M0 0 C0.66 0 1.32 0 2 0 C2.05 1.62 2.09 3.25 2.12 4.88 C2.15 5.78 2.17 6.68 2.2 7.62 C2 10 2 10 0 12 C-2.43 12 -4.63 11.5 -7 11 C-7.33 8.69 -7.66 6.38 -8 4 C-7.34 3.67 -6.68 3.34 -6 3 C-4.68 4.32 -3.36 5.64 -2 7 C-1.34 4.69 -0.68 2.38 0 0 Z " fill="#CEB89D" transform="translate(15,4)"/>
<path d="M0 0 C4.23 0.24 6.37 0.4 9.5 3.38 C10 4.24 10.49 5.11 11 6 C10.67 6.99 10.34 7.98 10 9 C9.01 8.34 8.02 7.68 7 7 C7 6.01 7 5.02 7 4 C5.35 4.33 3.7 4.66 2 5 C1.73 5.93 1.46 6.86 1.19 7.81 C0.09 10.76 -0.62 12.06 -3 14 C-5 11 -5 11 -5 7 C-3.02 6.67 -1.04 6.34 1 6 C0.67 4.02 0.34 2.04 0 0 Z " fill="#7C786F" transform="translate(71,37)"/>
<path d="M0 0 C4.75 1.88 4.75 1.88 7 3 C6.67 4.32 6.34 5.64 6 7 C5.67 6.34 5.34 5.68 5 5 C4.01 4.67 3.02 4.34 2 4 C2 5.98 2 7.96 2 10 C1.67 10.16 1.67 10.16 0 11 C-0.62 13.06 -0.62 13.06 -1 15 C-2.32 15 -3.64 15 -5 15 C-5.33 15.66 -5.66 16.32 -6 17 C-6.37 10.48 -6.37 10.48 -4.5 8.06 C-4.01 7.71 -3.51 7.36 -3 7 C-2.67 7.33 -2.34 7.66 -2 8 C-1.34 5.36 -0.68 2.72 0 0 Z " fill="#5C5F64" transform="translate(49,22)"/>
<path d="M0 0 C0.66 0.99 1.32 1.98 2 3 C2.66 3 3.32 3 4 3 C4 5.31 4 7.62 4 10 C3.67 9.34 3.34 8.68 3 8 C2.34 8 1.68 8 1 8 C1 8.66 1 9.32 1 10 C0.34 10 -0.32 10 -1 10 C-0.62 11.94 -0.62 11.94 0 14 C0.66 14.33 1.32 14.66 2 15 C0.02 15 -1.96 15 -4 15 C-3.67 10.71 -3.34 6.42 -3 2 C-2.34 2 -1.68 2 -1 2 C-0.67 1.34 -0.34 0.68 0 0 Z " fill="#626359" transform="translate(33,60)"/>
<path d="M0 0 C0 3.79 -0.43 7.27 -1 11 C-3.31 10.67 -5.62 10.34 -8 10 C-8 9.34 -8 8.68 -8 8 C-6.35 7.67 -4.7 7.34 -3 7 C-3 6.34 -3 5.68 -3 5 C-3.78 4.69 -4.57 4.38 -5.38 4.06 C-8 3 -8 3 -10 2 C-10 1.34 -10 0.68 -10 0 C-6.3 -0.95 -3.7 -0.95 0 0 Z " fill="#8A8176" transform="translate(65,86)"/>
<path d="M0 0 C0.75 2.12 0.75 2.12 1 4 C0.34 4 -0.32 4 -1 4 C-1.33 5.32 -1.66 6.64 -2 8 C-2.66 8 -3.32 8 -4 8 C-4.33 7.34 -4.66 6.68 -5 6 C-7.06 5.38 -7.06 5.38 -9 5 C-9 3.02 -9 1.04 -9 -1 C-5.31 -2.03 -3.16 -2.37 0 0 Z " fill="#716D6B" transform="translate(79,68)"/>
<path d="M0 0 C0.5 0.33 0.5 0.33 3 2 C2.01 2 1.02 2 0 2 C0 1.34 0 0.68 0 0 Z " fill="#F7F6F3" transform="translate(93,22)"/>
<path d="M0 0 C2 1 2 1 2 1 Z " fill="#F7F6F4" transform="translate(79,95)"/>
<path d="M0 0 C2 1 2 1 2 1 Z " fill="#F5F5F4" transform="translate(26,65)"/>
<path d="" fill="#F2F3F5" transform="translate(0,0)"/>
<path d="" fill="#F4F6F6" transform="translate(0,0)"/>
</svg>
