<?xml version="1.0" encoding="UTF-8"?>
<!-- Generator: visioncortex VTracer 0.6.12 -->
<svg version="1.1" xmlns="http://www.w3.org/2000/svg" width="146" height="109">
<path d="M0 0 C1.94 1.5 1.94 1.5 3 3 C3 3.66 3 4.32 3 5 C3.36 5.02 3.36 5.02 5.19 5.12 C9.06 6.33 11.01 8.58 13 12 C13.95 15.28 14.33 18.55 14.69 21.94 C14.9 23.68 15.11 25.41 15.32 27.15 C15.43 27.98 15.53 28.82 15.63 29.68 C16 32 16 32 17.07 35.63 C18.15 39.53 18.2 42.9 18.12 46.94 C18.12 47.62 18.11 48.31 18.1 49.01 C18.07 50.67 18.04 52.34 18 54 C18.44 53.52 18.88 53.04 19.33 52.54 C21.45 50.58 23.18 50.38 26 50 C26.56 51.94 26.56 51.94 27 54 C26.67 54.33 26.34 54.66 26 55 C26.5 55.33 26.5 55.33 29 57 C28.67 58.32 28.34 59.64 28 61 C27.01 61 26.02 61 25 61 C24.67 61.99 24.34 62.98 24 64 C26.64 64.99 29.28 65.98 32 67 C32 67.99 32 68.98 32 70 C33.65 70.33 35.3 70.66 37 71 C36.69 72.94 36.69 72.94 36 75 C33 76 33 76 30 75 C30 75.66 30 76.32 30 77 C28.35 77.33 28.35 77.33 20 79 C19.84 79.66 19.84 79.66 19 83 C14.57 85.14 10.95 85.12 6.12 84.62 C4.97 84.51 3.82 84.4 2.63 84.29 C1.76 84.19 0.9 84.1 0 84 C0 84.66 0 85.32 0 86 C-6.02 87.47 -10.9 88.33 -17 87 C-17 86.34 -17 85.68 -17 85 C-17.53 85.34 -18.07 85.67 -18.62 86.02 C-21.69 87.28 -23.84 87.02 -27.12 86.69 C-27.65 86.64 -27.65 86.64 -30.32 86.39 C-33 86 -33 86 -35 85 C-34.84 84.5 -34.84 84.5 -34 82 C-34.99 81.67 -34.99 81.67 -40 80 C-40 80.66 -40 81.32 -40 82 C-45.38 82.85 -49.58 82.89 -55 82 C-56.06 82.03 -57.11 82.05 -58.2 82.08 C-62.44 81.99 -66.1 81.24 -70.19 80.19 C-70.89 80.02 -71.58 79.86 -72.3 79.69 C-76.1 78.73 -79.17 77.78 -82 75 C-82 74.34 -82 73.68 -82 73 C-82.66 72.67 -83.32 72.34 -84 72 C-84 71.34 -84 70.68 -84 70 C-85.98 70 -87.96 70 -90 70 C-90 66 -90 66 -88.44 64.38 C-85.4 62.66 -82.36 61.9 -79 61 C-77.65 60.38 -76.3 59.73 -75 59 C-75 57.68 -75 56.36 -75 55 C-73.68 55.33 -72.36 55.66 -71 56 C-71 55.34 -71 54.68 -71 54 C-73.64 53.34 -76.28 52.68 -79 52 C-80 48 -80 48 -79 46 C-76.94 45.38 -76.94 45.38 -75 45 C-75 43.68 -75 42.36 -75 41 C-73.68 41 -72.36 41 -71 41 C-70.34 41.66 -69.68 42.32 -69 43 C-68.34 43 -67.68 43 -67 43 C-66.34 44.98 -65.68 46.96 -65 49 C-64.84 48.4 -64.68 47.81 -64.52 47.19 C-64.01 45.31 -63.5 43.43 -62.98 41.56 C-62.46 39.67 -61.94 37.78 -61.45 35.89 C-60.86 33.63 -60.24 31.38 -59.62 29.12 C-59.44 28.4 -59.26 27.67 -59.07 26.93 C-57.27 20.52 -54.08 17.11 -48.33 13.75 C-46.97 13.02 -45.61 12.29 -44.25 11.56 C-39.72 9.11 -35.36 6.66 -31.19 3.62 C-22.05 -2.64 -10.3 -3.91 0 0 Z " fill="#867E6D" transform="translate(100,12)"/>
<path d="M0 0 C1.94 1.5 1.94 1.5 3 3 C3 3.66 3 4.32 3 5 C3.36 5.02 3.36 5.02 5.19 5.12 C9.06 6.33 11.01 8.58 13 12 C13.95 15.28 14.33 18.55 14.69 21.94 C14.9 23.68 15.11 25.41 15.32 27.15 C15.43 27.98 15.53 28.82 15.63 29.68 C16 32 16 32 17.07 35.63 C18.15 39.53 18.2 42.9 18.12 46.94 C18.12 47.62 18.11 48.31 18.1 49.01 C18.07 50.67 18.04 52.34 18 54 C18.44 53.52 18.88 53.04 19.33 52.54 C21.45 50.58 23.18 50.38 26 50 C26.56 51.94 26.56 51.94 27 54 C26.67 54.33 26.34 54.66 26 55 C26.5 55.33 26.5 55.33 29 57 C28.67 58.32 28.34 59.64 28 61 C27.01 61 26.02 61 25 61 C24.67 61.99 24.34 62.98 24 64 C23.34 63.84 23.34 63.84 20 63 C20.33 61.02 20.66 59.04 21 57 C19.93 57.52 18.86 58.03 17.75 58.56 C15.35 59.6 14.27 60.03 11.62 59.75 C10 59 10 59 9 58 C8.74 54.05 8.91 51.4 11 48 C10.34 47.01 9.68 46.02 9 45 C9 44.01 9 43.02 9 42 C7.68 42.33 6.36 42.66 5 43 C5 40.36 5 37.72 5 35 C6.65 34.67 8.3 34.34 10 34 C10.33 32.35 10.66 30.7 11 29 C11.66 29 12.32 29 13 29 C13.16 28.51 13.16 28.51 14 26 C13.34 26 12.68 26 12 26 C12 25.34 12 24.68 12 24 C11.2 24.02 10.39 24.04 9.56 24.06 C7 24 7 24 6 23 C5.83 19.8 6.09 17.07 7 14 C6.05 14.76 5.1 15.53 4.12 16.31 C3.59 16.74 3.06 17.17 2.51 17.61 C0.22 19.72 -0.95 21.35 -1.2 24.48 C-1.17 25.37 -1.15 26.27 -1.12 27.19 C-1.11 28.09 -1.09 28.99 -1.07 29.92 C-1.05 30.61 -1.02 31.29 -1 32 C-1.66 31.67 -2.32 31.34 -3 31 C-3.41 28.68 -3.74 26.34 -4 24 C-12.57 23.86 -12.57 23.86 -16 25 C-16 24.34 -16 23.68 -16 23 C-16.99 23 -17.98 23 -19 23 C-19 22.01 -19 21.02 -19 20 C-19.66 20 -20.32 20 -21 20 C-21 21.65 -21 23.3 -21 25 C-21.66 25 -22.32 25 -23 25 C-23 22.03 -23 19.06 -23 16 C-27.72 14.27 -30.4 13.46 -35.23 15.1 C-38.3 16.59 -41.2 18.05 -44 20 C-44.16 20.49 -44.16 20.49 -45 23 C-44.69 23.07 -44.69 23.07 -43.12 23.44 C-41 24 -41 24 -39 25 C-39 24.34 -39 23.68 -39 23 C-31.98 24.6 -24.51 27.31 -19 32 C-17.81 35.19 -17.81 35.19 -17 38 C-16.01 38.33 -15.02 38.66 -14 39 C-14.33 40.32 -14.66 41.64 -15 43 C-16.09 42.77 -17.19 42.55 -18.31 42.31 C-22 42 -22 42 -23.94 43.44 C-24.11 43.7 -24.11 43.7 -25 45 C-25.99 44.67 -26.98 44.34 -28 44 C-27.67 42.02 -27.34 40.04 -27 38 C-29.64 38.66 -32.28 39.32 -35 40 C-35 39.01 -35 38.02 -35 37 C-32.69 36.34 -30.38 35.68 -28 35 C-28 34.34 -28 33.68 -28 33 C-28.57 33.01 -28.57 33.01 -31.44 33.06 C-35 33 -35 33 -36 32 C-37.69 32.09 -39.38 32.25 -41.06 32.44 C-41.98 32.54 -42.9 32.64 -43.85 32.75 C-44.56 32.83 -45.27 32.91 -46 33 C-46.33 34.65 -46.66 36.3 -47 38 C-47.66 38 -48.32 38 -49 38 C-49.33 37.34 -49.66 36.68 -50 36 C-50.31 36.62 -50.62 37.24 -50.94 37.88 C-51.62 39.25 -52.31 40.62 -53 42 C-52.34 42.33 -51.68 42.66 -51 43 C-51.33 43.66 -51.66 44.32 -52 45 C-54.31 45 -56.62 45 -59 45 C-58.67 46.32 -58.34 47.64 -58 49 C-58.66 49 -59.32 49 -60 49 C-60.33 49.66 -60.66 50.32 -61 51 C-61.66 50.67 -62.32 50.34 -63 50 C-63.66 52.64 -64.32 55.28 -65 58 C-65.33 57.34 -65.66 56.68 -66 56 C-66.66 56 -67.32 56 -68 56 C-68 55.34 -68 54.68 -68 54 C-68.66 54 -69.32 54 -70 54 C-70.33 54.66 -70.66 55.32 -71 56 C-71 55.34 -71 54.68 -71 54 C-73.64 53.34 -76.28 52.68 -79 52 C-80 48 -80 48 -79 46 C-76.94 45.38 -76.94 45.38 -75 45 C-75 43.68 -75 42.36 -75 41 C-73.68 41 -72.36 41 -71 41 C-70.34 41.66 -69.68 42.32 -69 43 C-68.34 43 -67.68 43 -67 43 C-66.34 44.98 -65.68 46.96 -65 49 C-64.84 48.4 -64.68 47.81 -64.52 47.19 C-64.01 45.31 -63.5 43.43 -62.98 41.56 C-62.46 39.67 -61.94 37.78 -61.45 35.89 C-60.86 33.63 -60.24 31.38 -59.62 29.12 C-59.44 28.4 -59.26 27.67 -59.07 26.93 C-57.27 20.52 -54.08 17.11 -48.33 13.75 C-46.97 13.02 -45.61 12.29 -44.25 11.56 C-39.72 9.11 -35.36 6.66 -31.19 3.62 C-22.05 -2.64 -10.3 -3.91 0 0 Z " fill="#BDAA91" transform="translate(100,12)"/>
<path d="M0 0 C0.33 0.33 0.66 0.66 1 1 C0.91 2.53 0.75 4.05 0.56 5.56 C0.46 6.39 0.36 7.22 0.25 8.07 C0.17 8.7 0.09 9.34 0 10 C0.66 10 1.32 10 2 10 C2 8.35 2 6.7 2 5 C2.66 5 3.32 5 4 5 C4 5.99 4 6.98 4 8 C4.99 8 5.98 8 7 8 C7 8.66 7 9.32 7 10 C7.25 9.82 7.25 9.82 8.5 8.94 C12.23 7.54 15.1 8.35 19 9 C19.66 11.31 20.32 13.62 21 16 C20.84 14.7 20.67 13.4 20.5 12.06 C20.44 7.42 21.93 5.35 25 1.94 C26.31 0.6 27.64 -0.72 29 -2 C29.66 -1.67 30.32 -1.34 31 -1 C31.09 2.2 30.91 4.93 30 8 C30.83 8.16 30.83 8.16 35 9 C35 9.66 35 10.32 35 11 C35.66 11 36.32 11 37 11 C36.67 12.32 36.34 13.64 36 15 C35.34 14.67 34.68 14.34 34 14 C34.02 14.8 34.04 15.61 34.06 16.44 C34 19 34 19 33 20 C31.33 20.04 29.67 20.04 28 20 C28.16 21.16 28.16 21.16 29 27 C29.99 27 30.98 27 32 27 C33.62 30.31 33.62 30.31 35 34 C34.34 34.99 33.68 35.98 33 37 C32.88 40.19 32.88 40.19 33 43 C34.65 43.33 36.3 43.66 38 44 C38.36 51.38 38.36 51.38 36.88 53.94 C34.32 55.39 31.9 55.68 29 56 C29 55.34 29 54.68 29 54 C28.34 54.16 28.34 54.16 25 55 C25 54.34 25 53.68 25 53 C27.61 52.07 28.64 51.85 31.25 52.94 C31.54 53.11 31.54 53.11 33 54 C33 53.01 33 52.02 33 51 C32.34 51 31.68 51 31 51 C30.84 50.34 30.84 50.34 30 47 C29.34 47 28.68 47 28 47 C27.34 45.35 26.68 43.7 26 42 C25.01 42.66 24.02 43.32 23 44 C21 42 21 42 20.88 38.88 C20.92 37.93 20.96 36.98 21 36 C20.34 36 19.68 36 19 36 C18.67 39.63 18.34 43.26 18 47 C19.32 47 20.64 47 22 47 C21.67 47.99 21.34 48.98 21 50 C17.71 50.8 16.29 51.1 13 50 C13 49.01 13 48.02 13 47 C12.34 47 11.68 47 11 47 C11 47.66 11 48.32 11 49 C10.01 48.67 9.02 48.34 8 48 C8 46.68 8 45.36 8 44 C7.34 44 6.68 44 6 44 C6 44.66 6 45.32 6 46 C5.5 45.84 5.5 45.84 3 45 C3 43.35 3 41.7 3 40 C0.31 39.62 0.31 39.62 -3 40 C-5.06 41.82 -6.39 43.73 -8 46 C-12.09 39.87 -12.09 39.87 -11 34 C-11 31.65 -11.06 29.31 -11.16 26.95 C-11 25 -11 25 -9 23 C-6.38 22.88 -6.38 22.88 -4 23 C-3.45 25.08 -3 26.84 -3 29 C-2.34 29 -1.68 29 -1 29 C-0.34 28.01 0.32 27.02 1 26 C3.31 26.33 5.62 26.66 8 27 C8.33 26.01 8.66 25.02 9 24 C8.4 23.98 7.8 23.96 7.19 23.94 C6.47 23.63 5.74 23.32 5 23 C4.65 21.92 4.3 20.83 3.94 19.72 C2.56 16.31 1.07 15.15 -2.23 13.57 C-3.87 12.87 -5.53 12.21 -7.19 11.56 C-8.03 11.21 -8.88 10.86 -9.75 10.5 C-11.82 9.65 -13.91 8.81 -16 8 C-16 8.66 -16 9.32 -16 10 C-17.98 9.34 -19.96 8.68 -22 8 C-21.84 6.21 -21.84 6.21 -21 4 C-14.31 -0.93 -7.85 -3.56 0 0 Z " fill="#A3917A" transform="translate(77,27)"/>
<path d="M0 0 C2.31 0.33 4.62 0.66 7 1 C7.16 2.16 7.16 2.16 8 8 C7.01 8.33 6.02 8.66 5 9 C5 10.32 5 11.64 5 13 C7.39 12.42 9.67 11.78 12 11 C10.33 16 10.33 16 9 18 C6.38 18.75 6.38 18.75 4 19 C4.93 20.18 5.87 21.34 6.81 22.5 C7.07 22.82 7.07 22.82 8.39 24.47 C10 26 10 26 13 26 C13 27.32 13 28.64 13 30 C13.66 30 14.32 30 15 30 C15.66 30.66 16.32 31.32 17 32 C17.33 32.16 17.33 32.16 19 33 C18.84 33.33 18.84 33.33 18 35 C18.99 35 19.98 35 21 35 C21.33 35.99 21.66 36.98 22 38 C16.25 39.12 16.25 39.12 14 38 C13.67 40.31 13.34 42.62 13 45 C11.02 44.34 9.04 43.68 7 43 C7.33 43.99 7.66 44.98 8 46 C7.01 45.84 7.01 45.84 2 45 C2 44.34 2 43.68 2 43 C1.34 43.16 1.34 43.16 -2 44 C-2.25 43.11 -2.5 42.23 -2.75 41.31 C-4.49 36.7 -6.23 33.85 -10.75 31.69 C-16.32 30.51 -21.9 30.02 -27 33 C-28.34 34.66 -29.68 36.32 -31 38 C-31.99 38 -32.98 38 -34 38 C-34 37.34 -34 36.68 -34 36 C-33.34 36 -32.68 36 -32 36 C-32 35.34 -32 34.68 -32 34 C-30.63 32.38 -30.63 32.38 -29 31 C-28.34 31 -27.68 31 -27 31 C-27 30.34 -27 29.68 -27 29 C-25.68 28.67 -24.36 28.34 -23 28 C-23.33 25.69 -23.66 23.38 -24 21 C-23.34 21 -22.68 21 -22 21 C-22 21.66 -22 22.32 -22 23 C-21.01 23 -20.02 23 -19 23 C-18.34 21.02 -17.68 19.04 -17 17 C-15.35 16.67 -13.7 16.34 -12 16 C-12.33 14.68 -12.66 13.36 -13 12 C-9.87 10.96 -9.01 11.07 -6 12 C-6.33 9.69 -6.66 7.38 -7 5 C-5.68 4.01 -4.36 3.02 -3 2 C-3 2.99 -3 3.98 -3 5 C-2.34 5 -1.68 5 -1 5 C-0.67 3.35 -0.34 1.7 0 0 Z " fill="#4D4D3B" transform="translate(54,45)"/>
<path d="M0 0 C12.74 -0.52 12.74 -0.52 17.94 3.5 C19 5 19 5 19 7 C19.72 7.04 20.44 7.08 21.19 7.12 C25.06 8.33 27.01 10.58 29 14 C29.95 17.28 30.33 20.55 30.69 23.94 C30.9 25.68 31.11 27.41 31.32 29.15 C31.43 29.98 31.53 30.82 31.63 31.68 C32 34 32 34 33.07 37.63 C34.15 41.53 34.2 44.9 34.12 48.94 C34.12 49.62 34.11 50.31 34.1 51.01 C34.07 52.67 34.04 54.34 34 56 C34.44 55.52 34.88 55.04 35.33 54.54 C37.45 52.58 39.18 52.38 42 52 C42.56 53.94 42.56 53.94 43 56 C42.67 56.33 42.34 56.66 42 57 C42.99 57.66 43.98 58.32 45 59 C44.67 60.32 44.34 61.64 44 63 C43.01 63 42.02 63 41 63 C40.67 63.99 40.34 64.98 40 66 C38.68 65.67 37.36 65.34 36 65 C36.33 63.02 36.66 61.04 37 59 C35.93 59.52 34.85 60.03 33.75 60.56 C31.35 61.6 30.27 62.03 27.62 61.75 C26 61 26 61 25 60 C24.74 56.05 24.91 53.4 27 50 C26.34 49.01 25.68 48.02 25 47 C25 46.01 25 45.02 25 44 C24.34 44.16 24.34 44.16 21 45 C21 42.36 21 39.72 21 37 C21.83 36.84 21.83 36.84 26 36 C26.33 34.35 26.66 32.7 27 31 C27.66 31 28.32 31 29 31 C29.16 30.51 29.16 30.51 30 28 C29.34 28 28.68 28 28 28 C28 27.34 28 26.68 28 26 C27.2 26.02 26.39 26.04 25.56 26.06 C23 26 23 26 22 25 C21.83 21.8 22.09 19.07 23 16 C22.05 16.76 21.1 17.53 20.12 18.31 C19.59 18.74 19.06 19.17 18.51 19.61 C16.22 21.72 15.05 23.35 14.8 26.48 C14.83 27.37 14.85 28.27 14.88 29.19 C14.88 29.64 14.88 29.64 14.93 31.92 C14.95 32.61 14.98 33.29 15 34 C14.34 33.67 13.68 33.34 13 33 C12.59 30.68 12.26 28.34 12 26 C3.43 25.86 3.43 25.86 0 27 C0 26.34 0 25.68 0 25 C-0.99 25 -1.98 25 -3 25 C-3 24.01 -3 23.02 -3 22 C-3.66 22 -4.32 22 -5 22 C-5 23.65 -5 25.3 -5 27 C-5.66 27 -6.32 27 -7 27 C-7 23.37 -7 19.74 -7 16 C-5.68 15.67 -4.36 15.34 -3 15 C-0.75 12.94 -0.75 12.94 1 11 C1 11.99 1 12.98 1 14 C1.58 14.12 2.16 14.25 2.75 14.38 C5 15 5 15 9 17 C8.34 13.7 7.68 10.4 7 7 C6.01 6.67 5.02 6.34 4 6 C4.33 4.35 4.66 2.7 5 1 C3.35 1 1.7 1 0 1 C0 0.67 0 0.34 0 0 Z " fill="#DCC4A5" transform="translate(84,10)"/>
<path d="M0 0 C0.66 0 1.32 0 2 0 C2.66 2.31 3.32 4.62 4 7 C5.32 6.34 6.64 5.68 8 5 C8.25 5.76 8.5 6.53 8.75 7.31 C10.11 10.24 11.32 11.3 14 13 C13.34 13 12.68 13 12 13 C12 13.66 12 14.32 12 15 C12.66 15 13.32 15 14 15 C14 15.99 14 16.98 14 18 C11.36 17.67 8.72 17.34 6 17 C6 17.66 6 18.32 6 19 C7.32 18.67 8.64 18.34 10 18 C10 18.66 10 19.32 10 20 C12.64 19.34 15.28 18.68 18 18 C18.33 14.37 18.66 10.74 19 7 C20.98 6.67 22.96 6.34 25 6 C25.25 11.63 25.25 11.63 23 15 C23.99 15 24.98 15 26 15 C26 16.98 26 18.96 26 21 C25.01 21 24.02 21 23 21 C22.67 21.66 22.34 22.32 22 23 C22 22.34 22 21.68 22 21 C18.12 24.75 18.12 24.75 17 27 C16.01 26.67 15.02 26.34 14 26 C12.67 25.66 11.34 25.32 10 25 C8.67 24.67 7.33 24.33 6 24 C6 22.68 6 21.36 6 20 C4.68 20 3.36 20 2 20 C2 19.34 2 18.68 2 18 C1.34 18 0.68 18 0 18 C-0.33 19.98 -0.66 21.96 -1 24 C0.65 24 2.3 24 4 24 C4 25.32 4 26.64 4 28 C-0.82 30.97 -5.42 32.08 -11 31 C-12.63 29.52 -12.63 29.52 -14 28 C-16.19 27.31 -16.19 27.31 -18 27 C-17.67 26.01 -17.34 25.02 -17 24 C-16.34 24.33 -15.68 24.66 -15 25 C-15.25 24.82 -15.25 24.82 -16.5 23.94 C-18.73 21.06 -18.2 18.53 -18 15 C-16.35 15.99 -14.7 16.98 -13 18 C-13.64 16.95 -14.28 15.9 -14.94 14.81 C-16.62 11.89 -17.59 9.38 -18 6 C-19.32 5.67 -20.64 5.34 -22 5 C-22 4.34 -22 3.68 -22 3 C-21.01 3.17 -21.01 3.17 -16 4 C-15.88 4.8 -15.75 5.61 -15.62 6.44 C-15.52 6.86 -15.52 6.86 -15 9 C-14.34 9.33 -13.68 9.66 -13 10 C-13 9.34 -13 8.68 -13 8 C-12.34 8 -11.68 8 -11 8 C-10.88 8.64 -10.75 9.28 -10.62 9.94 C-10.42 10.62 -10.21 11.3 -10 12 C-9.34 12.33 -8.68 12.66 -8 13 C-8 12.34 -8 11.68 -8 11 C-7.34 11 -6.68 11 -6 11 C-6 11.99 -6 12.98 -6 14 C-5.35 13.94 -5.35 13.94 -2.06 13.62 C-1.33 13.56 -0.6 13.49 0.15 13.41 C0.76 13.28 1.37 13.14 2 13 C2.33 12.34 2.66 11.68 3 11 C1.35 11.33 -0.3 11.66 -2 12 C-1.86 10.37 -1.71 8.75 -1.56 7.12 C-1.48 6.22 -1.4 5.32 -1.32 4.38 C-1 2 -1 2 0 0 Z " fill="#6C6A4C" transform="translate(96,63)"/>
<path d="M0 0 C1.98 0.33 1.98 0.33 12 2 C12.16 2.66 12.16 2.66 13 6 C14.65 6.33 16.3 6.66 18 7 C17.69 8.94 17.69 8.94 17 11 C14 12 14 12 11 11 C11 11.66 11 12.32 11 13 C7.7 13.66 4.4 14.32 1 15 C0.67 16.32 0.34 17.64 0 19 C-4.43 21.14 -8.05 21.12 -12.88 20.62 C-14.03 20.51 -15.18 20.4 -16.37 20.29 C-17.24 20.19 -18.1 20.1 -19 20 C-19 20.66 -19 21.32 -19 22 C-25.02 23.47 -29.9 24.33 -36 23 C-36 22.34 -36 21.68 -36 21 C-36.53 21.34 -37.07 21.67 -37.62 22.02 C-40.69 23.28 -42.84 23.02 -46.12 22.69 C-46.65 22.64 -46.65 22.64 -49.32 22.39 C-52 22 -52 22 -54 21 C-53.67 20.01 -53.34 19.02 -53 18 C-54.32 17.34 -55.64 16.68 -57 16 C-52 16 -47 16 -42 16 C-41.67 15.67 -41.34 15.34 -41 15 C-38.56 14.81 -38.56 14.81 -36 15 C-35.34 15.66 -34.68 16.32 -34 17 C-28.33 17.87 -23.91 17.02 -19 14 C-19 13.34 -19 12.68 -19 12 C-19.83 11.84 -19.83 11.84 -24 11 C-23.67 9.02 -23.34 7.04 -23 5 C-22.34 5 -21.68 5 -21 5 C-21 5.66 -21 6.32 -21 7 C-19.68 7 -18.36 7 -17 7 C-17 8.32 -17 9.64 -17 11 C-14.03 11 -11.06 11 -8 11 C-8 11.66 -8 12.32 -8 13 C-7.34 13.33 -6.68 13.66 -6 14 C-5.75 13.2 -5.5 12.39 -5.25 11.56 C-4 9 -4 9 -2.06 8.19 C0 8 0 8 3 8 C2.91 7.69 2.91 7.69 2.44 6.12 C2 4 2 4 3 2 C2.01 2 1.02 2 0 2 C0 1.34 0 0.68 0 0 Z " fill="#BFB585" transform="translate(119,76)"/>
<path d="M0 0 C0.33 0.33 0.66 0.66 1 1 C0.91 2.53 0.75 4.05 0.56 5.56 C0.46 6.39 0.36 7.22 0.25 8.07 C0.17 8.7 0.09 9.34 0 10 C0.66 10 1.32 10 2 10 C2 8.35 2 6.7 2 5 C2.66 5 3.32 5 4 5 C4 5.99 4 6.98 4 8 C4.99 8 5.98 8 7 8 C7 8.66 7 9.32 7 10 C7.6 9.67 8.2 9.34 8.81 9 C11 8 11 8 14 8 C13.25 12.75 13.25 12.75 11 15 C10.59 16.95 10.59 16.95 10.38 19.12 C10.31 19.76 10.31 19.76 10 23 C11.65 23.33 13.3 23.66 15 24 C15 23.34 15 22.68 15 22 C16.65 21.67 18.3 21.34 20 21 C20 22.65 20 24.3 20 26 C18.35 26 16.7 26 15 26 C15.23 26.93 15.45 27.86 15.69 28.81 C16 32 16 32 14.56 33.88 C14.05 34.25 13.53 34.62 13 35 C13.99 35 14.98 35 16 35 C15.84 35.33 15.84 35.33 15 37 C13.35 36.34 11.7 35.68 10 35 C10 31.37 10 27.74 10 24 C8.35 23.67 6.7 23.34 5 23 C4.35 21.27 3.7 19.54 3.07 17.8 C0.89 14.13 -3.37 13.04 -7.19 11.56 C-8.03 11.21 -8.88 10.86 -9.75 10.5 C-11.82 9.65 -13.91 8.81 -16 8 C-16 8.66 -16 9.32 -16 10 C-17.98 9.34 -19.96 8.68 -22 8 C-21.84 6.21 -21.84 6.21 -21 4 C-14.31 -0.93 -7.85 -3.56 0 0 Z " fill="#A4947B" transform="translate(77,27)"/>
<path d="M0 0 C-0.33 0.99 -0.66 1.98 -1 3 C-1.99 3 -2.98 3 -4 3 C-3.34 6.63 -2.68 10.26 -2 14 C-1.34 14 -0.68 14 0 14 C-0.33 15.32 -0.66 16.64 -1 18 C-1.66 18 -2.32 18 -3 18 C-3.33 17.34 -3.66 16.68 -4 16 C-4.15 16.31 -4.15 16.31 -4.94 17.88 C-5.62 19.25 -6.31 20.62 -7 22 C-6.34 22.33 -5.68 22.66 -5 23 C-5.33 23.66 -5.66 24.32 -6 25 C-8.31 25 -10.62 25 -13 25 C-12.67 26.32 -12.34 27.64 -12 29 C-12.66 29 -13.32 29 -14 29 C-14.33 29.66 -14.66 30.32 -15 31 C-15.66 30.67 -16.32 30.34 -17 30 C-17.66 32.64 -18.32 35.28 -19 38 C-19.33 37.34 -19.66 36.68 -20 36 C-20.66 36 -21.32 36 -22 36 C-22 35.34 -22 34.68 -22 34 C-22.66 34 -23.32 34 -24 34 C-24.33 34.66 -24.66 35.32 -25 36 C-25 35.34 -25 34.68 -25 34 C-27.64 33.34 -30.28 32.68 -33 32 C-34 28 -34 28 -33 26 C-30.94 25.38 -30.94 25.38 -29 25 C-29 23.68 -29 22.36 -29 21 C-27.68 21 -26.36 21 -25 21 C-24.34 21.66 -23.68 22.32 -23 23 C-22.34 23 -21.68 23 -21 23 C-20.34 24.98 -19.68 26.96 -19 29 C-18.84 28.4 -18.68 27.81 -18.52 27.19 C-18.02 25.32 -17.5 23.44 -16.98 21.57 C-16.46 19.66 -15.93 17.75 -15.43 15.83 C-14.82 13.5 -14.19 11.19 -13.56 8.88 C-13.37 8.12 -13.18 7.36 -12.98 6.58 C-12.38 4.43 -12.38 4.43 -11 1 C-9.04 0.32 -9.04 0.32 -7 0 C-6.32 -0.21 -5.64 -0.41 -4.94 -0.62 C-3 -1 -3 -1 0 0 Z " fill="#6E695F" transform="translate(54,32)"/>
<path d="M0 0 C0.66 0 1.32 0 2 0 C0.33 5 0.33 5 -1 7 C-3.62 7.75 -3.62 7.75 -6 8 C-5.07 9.18 -4.13 10.34 -3.19 11.5 C-2.93 11.82 -2.93 11.82 -1.61 13.47 C0 15 0 15 3 15 C3 16.32 3 17.64 3 19 C3.66 19 4.32 19 5 19 C5.66 19.66 6.32 20.32 7 21 C7.66 21.33 8.32 21.66 9 22 C8.67 22.66 8.34 23.32 8 24 C8.99 24 9.98 24 11 24 C11.33 24.99 11.66 25.98 12 27 C6.25 28.12 6.25 28.12 4 27 C3.67 29.31 3.34 31.62 3 34 C1.02 33.34 -0.96 32.68 -3 32 C-2.67 32.99 -2.34 33.98 -2 35 C-3.98 34.67 -5.96 34.34 -8 34 C-8.33 32.68 -8.66 31.36 -9 30 C-8.34 30 -7.68 30 -7 30 C-7 29.34 -7 28.68 -7 28 C-5.68 28 -4.36 28 -3 28 C-3.33 26.68 -3.66 25.36 -4 24 C-5.65 24.33 -7.3 24.66 -9 25 C-9.33 23.35 -9.66 21.7 -10 20 C-11.32 20 -12.64 20 -14 20 C-14 19.34 -14 18.68 -14 18 C-13.34 18 -12.68 18 -12 18 C-12 17.01 -12 16.02 -12 15 C-12.99 14.67 -13.98 14.34 -15 14 C-13.68 11.69 -12.36 9.38 -11 7 C-10.34 7 -9.68 7 -9 7 C-8.67 5.68 -8.34 4.36 -8 3 C-6.87 2.69 -5.73 2.38 -4.56 2.06 C-1 1 -1 1 0 0 Z " fill="#61605D" transform="translate(64,56)"/>
<path d="M0 0 C4.9 0.09 8.98 1.31 12.73 4.61 C14.99 7.06 16.14 8.79 16.5 12.12 C16.4 12.83 16.29 13.53 16.19 14.25 C17.51 13.92 18.83 13.59 20.19 13.25 C20.19 13.91 20.19 14.57 20.19 15.25 C21.51 15.58 22.83 15.91 24.19 16.25 C23.86 16.91 23.53 17.57 23.19 18.25 C21.75 18.33 20.31 18.39 18.88 18.44 C18.47 18.45 18.47 18.45 16.45 18.54 C13.71 18.19 12.9 17.36 11.19 15.25 C12.18 15.25 13.17 15.25 14.19 15.25 C14.19 14.59 14.19 13.93 14.19 13.25 C12.54 13.25 10.89 13.25 9.19 13.25 C9.19 13.91 9.19 14.57 9.19 15.25 C8.53 15.25 7.87 15.25 7.19 15.25 C7.19 14.59 7.19 13.93 7.19 13.25 C6.78 13.32 6.78 13.32 4.74 13.69 C3.67 13.87 2.6 14.06 1.5 14.25 C0.44 14.44 -0.61 14.62 -1.7 14.81 C-4.46 15.2 -7.03 15.33 -9.81 15.25 C-9.81 14.59 -9.81 13.93 -9.81 13.25 C-10.47 13.25 -11.13 13.25 -11.81 13.25 C-12.62 10.62 -12.62 10.62 -12.81 7.25 C-10.85 4.27 -9.27 1.95 -6 0.38 C-4 0.26 -2 0.13 0 0 Z " fill="#787A7E" transform="translate(35.8125,74.75)"/>
<path d="M0 0 C5.78 -0.24 10.51 0.13 16 2 C15.67 2.99 15.34 3.98 15 5 C13.35 5.33 11.7 5.66 10 6 C10.33 7.65 10.66 9.3 11 11 C11.99 11.33 12.98 11.66 14 12 C13.67 12.5 13.67 12.5 12 15 C14.64 15.33 17.28 15.66 20 16 C20 15.34 20 14.68 20 14 C21.65 13.34 23.3 12.68 25 12 C25.16 12.33 25.16 12.33 26 14 C25.3 14.35 24.6 14.7 23.88 15.06 C20.16 17.57 17.17 20.03 15 24 C14.52 27.4 14.63 30.59 15 34 C14.34 33.67 13.68 33.34 13 33 C12.59 30.68 12.26 28.34 12 26 C3.43 25.86 3.43 25.86 0 27 C0 26.34 0 25.68 0 25 C-0.99 25 -1.98 25 -3 25 C-3 24.01 -3 23.02 -3 22 C-3.66 22 -4.32 22 -5 22 C-5 23.65 -5 25.3 -5 27 C-5.66 27 -6.32 27 -7 27 C-7 23.37 -7 19.74 -7 16 C-5.68 15.67 -4.36 15.34 -3 15 C-0.75 12.94 -0.75 12.94 1 11 C1 11.99 1 12.98 1 14 C1.58 14.12 2.16 14.25 2.75 14.38 C5 15 5 15 9 17 C8.34 13.7 7.68 10.4 7 7 C6.01 6.67 5.02 6.34 4 6 C4.33 4.35 4.66 2.7 5 1 C3.35 1 1.7 1 0 1 C0 0.67 0 0.34 0 0 Z " fill="#EDD7B5" transform="translate(84,10)"/>
<path d="M0 0 C-0.33 1.65 -0.66 3.3 -1 5 C-0.36 5.12 0.28 5.25 0.94 5.38 C1.28 5.48 1.28 5.48 3 6 C4.61 9.21 4.06 12.44 4 16 C1.07 15.37 -1.41 14.52 -4 13 C-4.33 12.34 -4.66 11.68 -5 11 C-5.19 11.32 -5.19 11.32 -6.12 12.94 C-8 15 -8 15 -10.69 15.88 C-14.86 16.03 -18 15.17 -22 14 C-21.65 13.07 -21.3 12.14 -20.94 11.19 C-20 8 -20 8 -21 5 C-14.24 0.5 -7.91 -0.32 0 0 Z " fill="#C3AB90" transform="translate(89,11)"/>
<path d="M0 0 C2.31 0.66 4.62 1.32 7 2 C6.67 3.65 6.34 5.3 6 7 C4.68 7 3.36 7 2 7 C2 7.66 2 8.32 2 9 C1.34 9 0.68 9 0 9 C-0.33 9.99 -0.66 10.98 -1 12 C-1.66 12 -2.32 12 -3 12 C-3 12.66 -3 13.32 -3 14 C-3.66 14 -4.32 14 -5 14 C-5 14.66 -5 15.32 -5 16 C-4.01 16 -3.02 16 -2 16 C-1.67 17.65 -1.34 19.3 -1 21 C-0.34 21 0.32 21 1 21 C1 21.66 1 22.32 1 23 C3.8 22.67 3.8 22.67 18 21 C18 21.66 18 22.32 18 23 C18.66 23 19.32 23 20 23 C20 22.34 20 21.68 20 21 C21.65 21 23.3 21 25 21 C25 22.32 25 23.64 25 25 C27.97 25.33 30.94 25.66 34 26 C34 25.34 34 24.68 34 24 C34.66 24.33 35.32 24.66 36 25 C35.67 25.66 35.34 26.32 35 27 C29.62 28.02 25.42 27.89 20 27 C19.47 27.01 19.47 27.01 16.8 27.08 C12.56 26.99 8.9 26.24 4.81 25.19 C4.11 25.02 3.42 24.86 2.7 24.69 C-1.1 23.73 -4.17 22.78 -7 20 C-7 19.34 -7 18.68 -7 18 C-7.66 17.67 -8.32 17.34 -9 17 C-9 16.34 -9 15.68 -9 15 C-10.98 15 -12.96 15 -15 15 C-15 11 -15 11 -13.44 9.38 C-10.4 7.66 -7.36 6.9 -4 6 C-2.65 5.38 -1.3 4.73 0 4 C0 2.68 0 1.36 0 0 Z " fill="#B3B3AA" transform="translate(25,67)"/>
<path d="M0 0 C1.98 0.33 1.98 0.33 12 2 C12.16 2.66 12.16 2.66 13 6 C13.82 6.17 13.82 6.17 18 7 C17.69 8.94 17.69 8.94 17 11 C14 12 14 12 11 11 C11 11.66 11 12.32 11 13 C7.41 14.8 3.21 14.43 -0.75 14.62 C-1.64 14.68 -2.54 14.73 -3.46 14.78 C-8.14 15.02 -12.39 15.02 -17 14 C-17.33 15.32 -17.66 16.64 -18 18 C-18.99 18 -19.98 18 -21 18 C-21.33 17.01 -21.66 16.02 -22 15 C-21.01 14.67 -20.02 14.34 -19 14 C-19 13.34 -19 12.68 -19 12 C-20.65 11.67 -22.3 11.34 -24 11 C-23.67 9.02 -23.34 7.04 -23 5 C-22.34 5 -21.68 5 -21 5 C-21 5.66 -21 6.32 -21 7 C-19.68 7 -18.36 7 -17 7 C-17 8.32 -17 9.64 -17 11 C-14.03 11 -11.06 11 -8 11 C-8 11.66 -8 12.32 -8 13 C-7.34 13.33 -6.68 13.66 -6 14 C-5.75 13.2 -5.5 12.39 -5.25 11.56 C-4 9 -4 9 -2.06 8.19 C0 8 0 8 3 8 C2.81 7.38 2.63 6.76 2.44 6.12 C2 4 2 4 3 2 C2.01 2 1.02 2 0 2 C0 1.34 0 0.68 0 0 Z " fill="#A18F55" transform="translate(119,76)"/>
<path d="M0 0 C1.32 0.33 2.64 0.66 4 1 C3.34 1 2.68 1 2 1 C2.33 2.65 2.66 4.3 3 6 C3.66 5.67 4.32 5.34 5 5 C5.62 2.94 5.62 2.94 6 1 C6.66 1 7.32 1 8 1 C8 2.32 8 3.64 8 5 C9.65 4.67 11.3 4.34 13 4 C13 8.95 13 13.9 13 19 C13.99 18.01 14.98 17.02 16 16 C18.69 15.31 18.69 15.31 21 15 C21.56 16.94 21.56 16.94 22 19 C21.67 19.33 21.34 19.66 21 20 C21.99 20.66 22.98 21.32 24 22 C23.67 23.32 23.34 24.64 23 26 C22.01 26 21.02 26 20 26 C19.67 26.99 19.34 27.98 19 29 C17.68 28.67 16.36 28.34 15 28 C15.33 26.02 15.66 24.04 16 22 C14.93 22.52 13.86 23.03 12.75 23.56 C10.35 24.6 9.27 25.03 6.62 24.75 C5 24 5 24 4 23 C3.74 19.05 3.91 16.4 6 13 C5.34 12.01 4.68 11.02 4 10 C4 9.01 4 8.02 4 7 C2.68 7.33 1.36 7.66 0 8 C0 5.36 0 2.72 0 0 Z " fill="#BAB39E" transform="translate(105,47)"/>
<path d="M0 0 C0.99 0 1.98 0 3 0 C4.62 3.31 4.62 3.31 6 7 C5.67 7.49 5.67 7.49 4 10 C3.88 13.19 3.88 13.19 4 16 C5.65 16.33 7.3 16.66 9 17 C9.36 24.38 9.36 24.38 7.88 26.94 C5.32 28.39 2.9 28.68 0 29 C0 28.34 0 27.68 0 27 C-1.32 27.33 -2.64 27.66 -4 28 C-4 27.34 -4 26.68 -4 26 C-1.39 25.07 -0.36 24.85 2.25 25.94 C2.54 26.11 2.54 26.11 4 27 C4 26.01 4 25.02 4 24 C3.34 24 2.68 24 2 24 C1.67 22.68 1.34 21.36 1 20 C0.34 20 -0.32 20 -1 20 C-1.66 18.35 -2.32 16.7 -3 15 C-3.99 15.66 -4.98 16.32 -6 17 C-8 15 -8 15 -8.12 11.88 C-8.08 10.93 -8.04 9.98 -8 9 C-8.66 9 -9.32 9 -10 9 C-9.67 6.69 -9.34 4.38 -9 2 C-8.01 2.33 -7.02 2.66 -6 3 C-6.33 4.65 -6.66 6.3 -7 8 C-5.68 7.67 -4.36 7.34 -3 7 C-3 6.01 -3 5.02 -3 4 C-2.34 4 -1.68 4 -1 4 C-0.67 2.68 -0.34 1.36 0 0 Z " fill="#8B8165" transform="translate(106,54)"/>
<path d="M0 0 C0.99 0 1.98 0 3 0 C3.92 2.49 4.04 3.84 3.4 6.45 C1.51 9.89 -0.5 10.57 -4.06 12.12 C-7.35 13.57 -7.35 13.57 -10 15 C-10.33 15.99 -10.66 16.98 -11 18 C-10.69 18.07 -10.69 18.07 -9.12 18.44 C-7 19 -7 19 -5 20 C-5 19.34 -5 18.68 -5 18 C-4.01 18.33 -3.02 18.66 -2 19 C-2.66 19.99 -3.32 20.98 -4 22 C-6.57 22.44 -6.57 22.44 -9.56 22.56 C-12.57 22.69 -12.57 22.69 -15 23 C-15.33 23.66 -15.66 24.32 -16 25 C-16 22.69 -16 20.38 -16 18 C-15.01 17.67 -14.02 17.34 -13 17 C-13 16.34 -13 15.68 -13 15 C-13.47 15.09 -13.47 15.09 -15.88 15.56 C-19 16 -19 16 -21 15 C-19.82 11.45 -19.22 11.28 -16.04 9.59 C-15.24 9.16 -14.44 8.72 -13.61 8.28 C-12.77 7.84 -11.93 7.39 -11.06 6.94 C-9.41 6.05 -7.75 5.17 -6.1 4.28 C-5.36 3.89 -4.62 3.5 -3.86 3.1 C-2 2 -2 2 0 0 Z " fill="#AEA292" transform="translate(66,17)"/>
<path d="M0 0 C0.99 0 1.98 0 3 0 C3.33 2.31 3.66 4.62 4 7 C5.65 7 7.3 7 9 7 C9 8.32 9 9.64 9 11 C4.18 13.97 -0.42 15.08 -6 14 C-7.63 12.52 -7.63 12.52 -9 11 C-11.19 10.31 -11.19 10.31 -13 10 C-12.67 9.01 -12.34 8.02 -12 7 C-11.34 7.33 -10.68 7.66 -10 8 C-10.25 7.77 -10.25 7.77 -11.5 6.62 C-13 5 -13 5 -13 3 C-12.22 3.04 -11.43 3.08 -10.62 3.12 C-8 3 -8 3 -6 1 C-4.02 1.66 -2.04 2.32 0 3 C0 2.01 0 1.02 0 0 Z " fill="#7A6F3C" transform="translate(91,80)"/>
<path d="M0 0 C-0.75 4.75 -0.75 4.75 -3 7 C-3.41 8.95 -3.41 8.95 -3.62 11.12 C-3.75 12.4 -3.87 13.68 -4 15 C-2.35 15.33 -0.7 15.66 1 16 C1 15.34 1 14.68 1 14 C2.65 13.67 4.3 13.34 6 13 C6 14.65 6 16.3 6 18 C4.35 18 2.7 18 1 18 C1.23 18.93 1.45 19.86 1.69 20.81 C2 24 2 24 0.56 25.88 C0.05 26.25 -0.47 26.62 -1 27 C-0.01 27 0.98 27 2 27 C1.67 27.66 1.34 28.32 1 29 C0.17 28.67 0.17 28.67 -4 27 C-4 23.37 -4 19.74 -4 16 C-5.65 15.67 -7.3 15.34 -9 15 C-9.99 12.03 -10.98 9.06 -12 6 C-4.8 0 -4.8 0 0 0 Z " fill="#888076" transform="translate(91,35)"/>
<path d="M0 0 C3.16 1.37 3.99 1.99 6 5 C6.12 7.69 6.12 7.69 6 10 C7.32 9.67 8.64 9.34 10 9 C10 9.66 10 10.32 10 11 C11.32 11.33 12.64 11.66 14 12 C13.67 12.66 13.34 13.32 13 14 C11.56 14.08 10.13 14.14 8.69 14.19 C7.89 14.22 7.09 14.26 6.26 14.29 C3.52 13.94 2.71 13.11 1 11 C1.99 11 2.98 11 4 11 C4 10.34 4 9.68 4 9 C2.35 9 0.7 9 -1 9 C-1 9.66 -1 10.32 -1 11 C-1.66 11 -2.32 11 -3 11 C-3 10.34 -3 9.68 -3 9 C-3.99 9 -4.98 9 -6 9 C-6 8.01 -6 7.02 -6 6 C-6.8 5.73 -7.61 5.46 -8.44 5.19 C-9.28 4.8 -10.13 4.4 -11 4 C-11.33 3.01 -11.66 2.02 -12 1 C-7.84 0.92 -4.05 1.02 0 2 C0 1.34 0 0.68 0 0 Z " fill="#878374" transform="translate(46,79)"/>
<path d="M0 0 C1.32 0 2.64 0 4 0 C4.66 0.66 5.32 1.32 6 2 C6.66 2 7.32 2 8 2 C8.66 3.98 9.32 5.96 10 8 C10.66 7.34 11.32 6.68 12 6 C11.89 7.46 11.76 8.92 11.62 10.38 C11.56 11.19 11.49 12 11.41 12.84 C11 15 11 15 9 17 C9 16.34 9 15.68 9 15 C8.34 15 7.68 15 7 15 C7 14.34 7 13.68 7 13 C6.34 13 5.68 13 5 13 C4.67 13.66 4.34 14.32 4 15 C4 14.34 4 13.68 4 13 C1.36 12.34 -1.28 11.68 -4 11 C-5 7 -5 7 -4 5 C-1.94 4.38 -1.94 4.38 0 4 C0 2.68 0 1.36 0 0 Z " fill="#A5A18A" transform="translate(25,53)"/>
<path d="M0 0 C1.33 0.33 2.67 0.67 4 1 C5.67 1.04 7.33 1.05 9 1 C8.67 1.99 8.34 2.98 8 4 C4.44 5.19 4.44 5.19 1 6 C1.16 6.25 1.16 6.25 2 7.5 C3.4 11.01 3.59 14.3 3 18 C1.31 21 1.31 21 -1 23 C-3.75 23.31 -3.75 23.31 -6 23 C-6 22.34 -6 21.68 -6 21 C-4.35 20.67 -2.7 20.34 -1 20 C0 15.12 0 15.12 0 14 C-0.99 14.66 -1.98 15.32 -3 16 C-3.99 15.01 -4.98 14.02 -6 13 C-5.67 12.01 -5.34 11.02 -5 10 C-4.34 9.67 -3.68 9.34 -3 9 C-3 7.02 -3 5.04 -3 3 C-4.65 2.67 -6.3 2.34 -8 2 C-4.72 -0.19 -3.79 -0.28 0 0 Z " fill="#756F69" transform="translate(64,43)"/>
<path d="M0 0 C0.66 0 1.32 0 2 0 C2.48 3.19 2.96 6.37 3.44 9.56 C3.57 10.46 3.71 11.35 3.85 12.28 C4.58 17.18 5.31 22.09 6 27 C5.34 27.33 5.34 27.33 2 29 C1.67 28.01 1.34 27.02 1 26 C1.33 25.34 1.66 24.68 2 24 C1.34 24 0.68 24 0 24 C-0.33 25.65 -0.66 27.3 -1 29 C-1.66 29 -2.32 29 -3 29 C-3.33 27.35 -3.66 25.7 -4 24 C-3.01 23.34 -2.02 22.68 -1 22 C-0.31 19.38 -0.31 19.38 0 17 C0.66 17 1.32 17 2 17 C2.33 16.01 2.66 15.02 3 14 C2.34 14 1.68 14 1 14 C1 13.34 1 12.68 1 12 C0.2 12.02 -0.61 12.04 -1.44 12.06 C-4 12 -4 12 -5 11 C-5.17 7.84 -5.07 5 -4 2 C-3.34 1.67 -2.68 1.34 -2 1 C-1.67 2.65 -1.34 4.3 -1 6 C-0.67 4.02 -0.34 2.04 0 0 Z " fill="#D8C2A3" transform="translate(111,24)"/>
<path d="M0 0 C0 0.66 0 1.32 0 2 C-0.66 2 -1.32 2 -2 2 C-1.19 3.94 -1.19 3.94 0 6 C0.99 6.33 1.98 6.66 3 7 C2.67 8.32 2.34 9.64 2 11 C3.32 11 4.64 11 6 11 C6.33 12.65 6.66 14.3 7 16 C8.65 15.67 10.3 15.34 12 15 C12.33 16.32 12.66 17.64 13 19 C11.68 19 10.36 19 9 19 C9 19.66 9 20.32 9 21 C8.34 21 7.68 21 7 21 C6.67 21.99 6.34 22.98 6 24 C5.34 24 4.68 24 4 24 C3.75 23.11 3.51 22.23 3.25 21.31 C1.94 17.85 0.53 15.68 -2 13 C-2.99 12.67 -3.98 12.34 -5 12 C-4.89 10.19 -4.76 8.37 -4.62 6.56 C-4.56 5.55 -4.49 4.54 -4.41 3.5 C-4.28 2.68 -4.14 1.85 -4 1 C-2 0 -2 0 0 0 Z " fill="#454534" transform="translate(48,65)"/>
<path d="M0 0 C1.65 0 3.3 0 5 0 C5 1.98 5 3.96 5 6 C3.35 6 1.7 6 0 6 C-0.12 7.01 -0.25 8.02 -0.38 9.06 C-0.98 12.88 -1.87 16.32 -3 20 C-6.88 18.25 -6.88 18.25 -8 16 C-8.33 17.32 -8.66 18.64 -9 20 C-8.34 20 -7.68 20 -7 20 C-7 20.66 -7 21.32 -7 22 C-8.94 21.69 -8.94 21.69 -11 21 C-12.16 17.53 -12.07 14.64 -12 11 C-9.69 11.66 -7.38 12.32 -5 13 C-4.67 12.67 -4.34 12.34 -4 12 C-4.99 12 -5.98 12 -7 12 C-6.67 11.01 -6.34 10.02 -6 9 C-5.34 9 -4.68 9 -4 9 C-4.66 6.69 -5.32 4.38 -6 2 C-5.01 2.16 -5.01 2.16 0 3 C0 2.01 0 1.02 0 0 Z " fill="#A79B89" transform="translate(97,50)"/>
<path d="M0 0 C0.99 0.17 0.99 0.17 6 1 C6.12 1.8 6.25 2.61 6.38 3.44 C6.48 3.86 6.48 3.86 7 6 C7.66 6.33 8.32 6.66 9 7 C9 6.34 9 5.68 9 5 C9.66 5 10.32 5 11 5 C11.12 5.64 11.25 6.28 11.38 6.94 C11.58 7.62 11.79 8.3 12 9 C12.66 9.33 13.32 9.66 14 10 C14 9.34 14 8.68 14 8 C14.66 8 15.32 8 16 8 C16 8.99 16 9.98 16 11 C16.83 11.16 16.83 11.16 21 12 C20.67 12.66 20.34 13.32 20 14 C19.01 14 18.02 14 17 14 C17 14.99 17 15.98 17 17 C15.33 17.04 13.67 17.04 12 17 C11.67 16.67 11.34 16.34 11 16 C10.34 16.66 9.68 17.32 9 18 C6.38 17.62 6.38 17.62 4 17 C4 15.35 4 13.7 4 12 C5.65 12.99 7.3 13.98 9 15 C8.36 13.95 7.72 12.9 7.06 11.81 C5.38 8.89 4.41 6.38 4 3 C2.68 2.67 1.36 2.34 0 2 C0 1.34 0 0.68 0 0 Z " fill="#716A55" transform="translate(74,66)"/>
<path d="M0 0 C1.32 0.33 2.64 0.66 4 1 C3.34 1 2.68 1 2 1 C2.33 2.65 2.66 4.3 3 6 C3.66 5.67 4.32 5.34 5 5 C5.62 2.94 5.62 2.94 6 1 C6.66 1 7.32 1 8 1 C8 2.98 8 4.96 8 7 C8.66 7.33 9.32 7.66 10 8 C9.34 8 8.68 8 8 8 C8.5 9.01 8.99 10.02 9.5 11.06 C11.12 14.78 11.25 17.94 11 22 C11.66 22.33 12.32 22.66 13 23 C10.7 24.4 9.52 25.07 6.81 24.69 C5 24 5 24 4 23 C3.74 19.05 3.91 16.4 6 13 C5.34 12.01 4.68 11.02 4 10 C4 9.01 4 8.02 4 7 C2.68 7.33 1.36 7.66 0 8 C0 5.36 0 2.72 0 0 Z " fill="#B3A38D" transform="translate(105,47)"/>
<path d="M0 0 C2.31 0.33 4.62 0.66 7 1 C7.33 3.31 7.66 5.62 8 8 C7.34 8 6.68 8 6 8 C6 7.01 6 6.02 6 5 C5.4 5.33 4.8 5.66 4.19 6 C2 7 2 7 -1 7 C-1.33 8.98 -1.66 10.96 -2 13 C-3.65 13.33 -5.3 13.66 -7 14 C-7 14.99 -7 15.98 -7 17 C-8.65 16.67 -10.3 16.34 -12 16 C-12.33 14.68 -12.66 13.36 -13 12 C-9.87 10.96 -9.01 11.07 -6 12 C-6.33 9.69 -6.66 7.38 -7 5 C-5.68 4.01 -4.36 3.02 -3 2 C-3 2.99 -3 3.98 -3 5 C-2.34 5 -1.68 5 -1 5 C-0.67 3.35 -0.34 1.7 0 0 Z " fill="#5B594D" transform="translate(54,45)"/>
<path d="M0 0 C0.33 1.32 0.66 2.64 1 4 C1.66 4 2.32 4 3 4 C3.66 4.66 4.32 5.32 5 6 C5.66 6.33 6.32 6.66 7 7 C6.67 7.66 6.34 8.32 6 9 C6.99 9 7.98 9 9 9 C9.33 9.99 9.66 10.98 10 12 C4.25 13.12 4.25 13.12 2 12 C1.67 14.31 1.34 16.62 1 19 C-0.98 18.34 -2.96 17.68 -5 17 C-4.67 17.99 -4.34 18.98 -4 20 C-5.98 19.67 -7.96 19.34 -10 19 C-10.33 17.68 -10.66 16.36 -11 15 C-10.34 15 -9.68 15 -9 15 C-9 14.34 -9 13.68 -9 13 C-7.84 12.84 -7.84 12.84 -2 12 C-1.67 12.66 -1.34 13.32 -1 14 C-0.28 9.26 0.14 5.7 -1 1 C-0.67 0.67 -0.34 0.34 0 0 Z " fill="#6B685C" transform="translate(66,71)"/>
<path d="M0 0 C-0.33 0.66 -0.66 1.32 -1 2 C-1.99 2 -2.98 2 -4 2 C-3.67 3.32 -3.34 4.64 -3 6 C-3.66 6 -4.32 6 -5 6 C-5 6.99 -5 7.98 -5 9 C-4.37 8.99 -3.75 8.98 -3.1 8.96 C-2.28 8.96 -1.47 8.95 -0.62 8.94 C0.19 8.93 1 8.91 1.84 8.9 C4 9 4 9 6 10 C6.33 11.98 6.66 13.96 7 16 C1.72 13.69 -3.56 11.38 -9 9 C-9 9.66 -9 10.32 -9 11 C-10.98 10.34 -12.96 9.68 -15 9 C-14.65 6.26 -14.32 5.25 -12.11 3.52 C-11.33 3.1 -10.55 2.68 -9.75 2.25 C-8.98 1.82 -8.21 1.39 -7.42 0.95 C-4.77 -0.09 -2.82 -0.18 0 0 Z " fill="#80786B" transform="translate(70,26)"/>
<path d="M0 0 C3.45 0.4 4.49 1.71 6.69 4.31 C6.36 4.81 6.36 4.81 4.69 7.31 C4.69 6.32 4.69 5.33 4.69 4.31 C3.04 4.64 1.39 4.97 -0.31 5.31 C-0.64 6.3 -0.97 7.29 -1.31 8.31 C-3.27 8.17 -5.23 8.02 -7.19 7.88 C-8.28 7.79 -9.37 7.71 -10.49 7.63 C-13.31 7.31 -13.31 7.31 -15.31 6.31 C-14.98 5.32 -14.65 4.33 -14.31 3.31 C-15.63 2.65 -16.95 1.99 -18.31 1.31 C-13.31 1.31 -8.31 1.31 -3.31 1.31 C-2.31 0.31 -2.31 0.31 0 0 Z " fill="#AEA98D" transform="translate(80.3125,90.6875)"/>
<path d="M0 0 C0.99 0 1.98 0 3 0 C3.33 1.32 3.66 2.64 4 4 C3.01 4.66 2.02 5.32 1 6 C-0.39 8.38 -0.39 8.38 -1.69 11.12 C-2.12 12.04 -2.56 12.95 -3.01 13.88 C-3.34 14.58 -3.66 15.28 -4 16 C-4.99 16 -5.98 16 -7 16 C-8 15 -8 15 -8.06 11.94 C-8.04 10.97 -8.02 10 -8 9 C-8.66 9 -9.32 9 -10 9 C-9.67 6.69 -9.34 4.38 -9 2 C-8.01 2.33 -7.02 2.66 -6 3 C-6.33 4.65 -6.66 6.3 -7 8 C-5.68 7.67 -4.36 7.34 -3 7 C-3 6.01 -3 5.02 -3 4 C-2.34 4 -1.68 4 -1 4 C-0.67 2.68 -0.34 1.36 0 0 Z " fill="#958674" transform="translate(106,54)"/>
<path d="M0 0 C0.66 0 1.32 0 2 0 C2.66 2.31 3.32 4.62 4 7 C5.32 6.34 6.64 5.68 8 5 C8.25 5.76 8.5 6.53 8.75 7.31 C10.11 10.24 11.32 11.3 14 13 C13.34 13 12.68 13 12 13 C12 13.66 12 14.32 12 15 C5.85 14.41 5.85 14.41 4 14 C3.67 13.34 3.34 12.68 3 12 C1.35 12 -0.3 12 -2 12 C-1.86 10.37 -1.71 8.75 -1.56 7.12 C-1.48 6.22 -1.4 5.32 -1.32 4.38 C-1 2 -1 2 0 0 Z " fill="#726B5E" transform="translate(96,63)"/>
<path d="M0 0 C2 2 2 2 2.01 4.09 C1.9 4.89 1.8 5.68 1.69 6.5 C1.59 7.29 1.49 8.09 1.39 8.91 C1 11 1 11 0 13 C-0.23 14.7 -0.41 16.41 -0.56 18.12 C-0.6 18.58 -0.6 18.58 -0.82 20.88 C-0.88 21.58 -0.94 22.28 -1 23 C-1.99 23.33 -2.98 23.66 -4 24 C-4 23.34 -4 22.68 -4 22 C-4.66 22 -5.32 22 -6 22 C-6 23.65 -6 25.3 -6 27 C-6.33 27 -6.66 27 -7 27 C-7.3 22.12 -6.77 18.86 -4.86 14.26 C-3.49 10.67 -2.6 6.95 -1.65 3.22 C-1 1 -1 1 0 0 Z " fill="#979694" transform="translate(44,32)"/>
<path d="M0 0 C2.31 0.66 4.62 1.32 7 2 C7.33 4.31 7.66 6.62 8 9 C7.01 8.84 7.01 8.84 2 8 C2 8.99 2 9.98 2 11 C-0.67 10.33 -3.33 9.67 -6 9 C-5.67 8.01 -5.34 7.02 -5 6 C-4.34 6.33 -3.68 6.66 -3 7 C-3.25 6.77 -3.25 6.77 -4.5 5.62 C-6 4 -6 4 -6 2 C-4.35 2 -2.7 2 -1 2 C-0.67 1.34 -0.34 0.68 0 0 Z " fill="#4E5037" transform="translate(84,81)"/>
<path d="M0 0 C0.99 0.5 1.98 0.99 3 1.5 C2.67 2.49 2.34 3.48 2 4.5 C-2.29 4.17 -6.58 3.84 -11 3.5 C-11 4.16 -11 4.82 -11 5.5 C-12.32 5.5 -13.64 5.5 -15 5.5 C-15.66 3.85 -16.32 2.2 -17 0.5 C-11.31 -2.35 -5.77 -2.46 0 0 Z " fill="#656759" transform="translate(44,76.5)"/>
<path d="M0 0 C2.81 -0.31 2.81 -0.31 6 0 C7.88 2.5 7.88 2.5 9 5 C11.97 3.68 14.94 2.36 18 1 C16 5 16 5 14 7 C10.45 8.18 6.69 8.5 3 9 C3 8.34 3 7.68 3 7 C2.01 7 1.02 7 0 7 C-1.12 2.25 -1.12 2.25 0 0 Z " fill="#DBBD95" transform="translate(81,28)"/>
<path d="M0 0 C-0.33 0.99 -0.66 1.98 -1 3 C-1.99 3 -2.98 3 -4 3 C-3.34 6.63 -2.68 10.26 -2 14 C-1.34 14 -0.68 14 0 14 C-0.33 15.32 -0.66 16.64 -1 18 C-1.66 18 -2.32 18 -3 18 C-3.33 17.34 -3.66 16.68 -4 16 C-4.66 16 -5.32 16 -6 16 C-6.33 14.02 -6.66 12.04 -7 10 C-7.66 10 -8.32 10 -9 10 C-9 6.7 -9 3.4 -9 0 C-3.38 -1.12 -3.38 -1.12 0 0 Z " fill="#7D756C" transform="translate(54,32)"/>
<path d="M0 0 C0.33 0.66 0.66 1.32 1 2 C3.29 2.41 3.29 2.41 6.06 2.62 C6.52 2.66 6.52 2.66 8.85 2.85 C9.56 2.9 10.27 2.95 11 3 C11 3.99 11 4.98 11 6 C8.36 5.67 5.72 5.34 3 5 C3 5.66 3 6.32 3 7 C3.99 7 4.98 7 6 7 C6 8.98 6 10.96 6 13 C5.01 12.67 4.02 12.34 3 12 C3 10.68 3 9.36 3 8 C1.68 8 0.36 8 -1 8 C-1 7.34 -1 6.68 -1 6 C-1.66 6 -2.32 6 -3 6 C-3.33 6.99 -3.66 7.98 -4 9 C-4.33 9 -4.66 9 -5 9 C-4.75 5.62 -4.75 5.62 -4 2 C-1.94 0.56 -1.94 0.56 0 0 Z " fill="#5F563D" transform="translate(99,75)"/>
<path d="M0 0 C1.98 0.33 1.98 0.33 12 2 C12.33 3.32 12.66 4.64 13 6 C13.82 6.17 13.82 6.17 18 7 C17.69 8.94 17.69 8.94 17 11 C14 12 14 12 11 11 C11 11.66 11 12.32 11 13 C8.12 14.44 5.58 14.09 2.38 14.06 C1.19 14.05 -0 14.04 -1.23 14.04 C-2.14 14.02 -3.06 14.01 -4 14 C-4 13.67 -4 13.34 -4 13 C-0.04 13 3.92 13 8 13 C8 12.01 8 11.02 8 10 C9.32 9.67 10.64 9.34 12 9 C11.67 7.68 11.34 6.36 11 5 C9.68 4.67 8.36 4.34 7 4 C6.67 4.66 6.34 5.32 6 6 C6 4.68 6 3.36 6 2 C4.02 2 2.04 2 0 2 C0 1.34 0 0.68 0 0 Z " fill="#C8BEA5" transform="translate(119,76)"/>
<path d="M0 0 C0.99 0.66 1.98 1.32 3 2 C3.29 4.82 3.29 4.82 3.19 8.12 C3.16 9.22 3.13 10.32 3.11 11.45 C3.07 12.29 3.04 13.13 3 14 C2.01 14 1.02 14 0 14 C0 13.34 0 12.68 0 12 C-1.65 11.67 -3.3 11.34 -5 11 C-5 9.35 -5 7.7 -5 6 C-4.34 5.67 -3.68 5.34 -3 5 C-2.84 4.34 -2.67 3.68 -2.5 3 C-2.34 2.34 -2.17 1.68 -2 1 C-1.34 0.67 -0.68 0.34 0 0 Z " fill="#9AA095" transform="translate(143,42)"/>
<path d="M0 0 C1.53 3.07 0.55 5.7 0 9 C0.99 9 1.98 9 3 9 C3.81 12.19 3.81 12.19 4 16 C1.56 18.94 1.56 18.94 -1 21 C-2.84 17.91 -4.04 15.83 -3.88 12.19 C-2.74 8.07 -1.42 4.03 0 0 Z " fill="#BDA688" transform="translate(69,52)"/>
<path d="M0 0 C0 0.66 0 1.32 0 2 C-0.66 2 -1.32 2 -2 2 C-2.31 2.78 -2.62 3.57 -2.94 4.38 C-4 7 -4 7 -5 9 C-5.99 8.67 -6.98 8.34 -8 8 C-11.78 7 -11.78 7 -13 7 C-13.33 4.69 -13.66 2.38 -14 0 C-13.34 0 -12.68 0 -12 0 C-12 0.66 -12 1.32 -12 2 C-11.73 1.89 -11.73 1.89 -10.39 1.31 C-9.68 1.02 -8.98 0.73 -8.25 0.44 C-7.55 0.15 -6.86 -0.14 -6.14 -0.44 C-3.7 -1.08 -2.36 -0.8 0 0 Z " fill="#666343" transform="translate(118,81)"/>
<path d="M0 0 C2.31 0.66 4.62 1.32 7 2 C6.67 3.65 6.34 5.3 6 7 C4.68 7 3.36 7 2 7 C2 7.66 2 8.32 2 9 C1.34 9 0.68 9 0 9 C-0.33 9.99 -0.66 10.98 -1 12 C-1.66 12 -2.32 12 -3 12 C-3 12.66 -3 13.32 -3 14 C-5.97 13.67 -8.94 13.34 -12 13 C-12 12.67 -12 12.34 -12 12 C-10.02 12 -8.04 12 -6 12 C-6 11.34 -6 10.68 -6 10 C-6.99 9.67 -7.98 9.34 -9 9 C-5.7 8.67 -2.4 8.34 1 8 C1 7.34 1 6.68 1 6 C1.66 6 2.32 6 3 6 C3 5.34 3 4.68 3 4 C1.68 3.67 0.36 3.34 -1 3 C-0.67 2.01 -0.34 1.02 0 0 Z " fill="#898868" transform="translate(25,67)"/>
<path d="M0 0 C0.33 0.66 0.66 1.32 1 2 C1.99 2.33 2.98 2.66 4 3 C3.67 3.16 3.67 3.16 2 4 C1.67 4.99 1.34 5.98 1 7 C1.31 7.07 1.31 7.07 2.88 7.44 C5 8 5 8 7 9 C7 8.34 7 7.68 7 7 C7.99 7.33 8.98 7.66 10 8 C9.67 8.5 9.67 8.5 8 11 C5.43 11.44 5.43 11.44 2.44 11.56 C-0.57 11.69 -0.57 11.69 -3 12 C-3.33 12.66 -3.66 13.32 -4 14 C-4 11.69 -4 9.38 -4 7 C-3.01 6.67 -2.02 6.34 -1 6 C-1 5.34 -1 4.68 -1 4 C-2.32 3.67 -3.64 3.34 -5 3 C-3.35 2.67 -1.7 2.34 0 2 C0 1.34 0 0.68 0 0 Z " fill="#9C9389" transform="translate(54,28)"/>
<path d="M0 0 C5.78 -0.24 10.51 0.13 16 2 C15.67 2.99 15.34 3.98 15 5 C13.35 5.33 11.7 5.66 10 6 C10.33 7.65 10.66 9.3 11 11 C11.99 11.33 12.98 11.66 14 12 C12.68 12 11.36 12 10 12 C8.95 10.36 7.95 8.7 7 7 C6.01 6.67 5.02 6.34 4 6 C4.33 4.35 4.66 2.7 5 1 C3.35 1 1.7 1 0 1 C0 0.67 0 0.34 0 0 Z " fill="#F0E0C7" transform="translate(84,10)"/>
<path d="M0 0 C0.76 0.1 1.53 0.21 2.31 0.31 C2.64 2.29 2.97 4.27 3.31 6.31 C2.65 5.98 1.99 5.65 1.31 5.31 C1.41 5.7 1.41 5.7 1.88 7.69 C2.31 10.31 2.31 10.31 1.31 12.31 C0.65 12.31 -0.01 12.31 -0.69 12.31 C-0.69 11.65 -0.69 10.99 -0.69 10.31 C-2.34 10.64 -3.99 10.97 -5.69 11.31 C-6.04 6.29 -5.97 0.69 0 0 Z " fill="#AD9B88" transform="translate(93.6875,35.6875)"/>
<path d="M0 0 C1.26 2.52 0.92 3.85 0.56 6.62 C0.46 7.44 0.36 8.26 0.25 9.1 C0.17 9.73 0.09 10.35 0 11 C1.32 11 2.64 11 4 11 C3.67 11.99 3.34 12.98 3 14 C-0.29 14.8 -1.71 15.1 -5 14 C-5 13.01 -5 12.02 -5 11 C-5.66 10.67 -6.32 10.34 -7 10 C-6.34 9.01 -5.68 8.02 -5 7 C-5.66 7 -6.32 7 -7 7 C-7 5.35 -7 3.7 -7 2 C-5.02 3.65 -3.04 5.3 -1 7 C-1.02 6.03 -1.04 5.06 -1.06 4.06 C-1 1 -1 1 0 0 Z " fill="#A68C63" transform="translate(95,63)"/>
<path d="M0 0 C0 0.66 0 1.32 0 2 C0.66 2 1.32 2 2 2 C2 1.34 2 0.68 2 0 C3.65 0 5.3 0 7 0 C7 1.32 7 2.64 7 4 C9.97 4.33 12.94 4.66 16 5 C16 4.34 16 3.68 16 3 C16.66 3.33 17.32 3.66 18 4 C17.67 4.66 17.34 5.32 17 6 C11.1 7.19 6.33 6.83 0.5 5.56 C-0.23 5.41 -0.95 5.27 -1.7 5.12 C-3.47 4.75 -5.24 4.38 -7 4 C-3.38 0 -3.38 0 0 0 Z " fill="#ADA79A" transform="translate(43,88)"/>
<path d="M0 0 C0.33 0.66 0.66 1.32 1 2 C1.66 2.16 2.32 2.33 3 2.5 C3.66 2.66 4.32 2.83 5 3 C6.61 6.21 6.06 9.44 6 13 C3.07 12.37 0.52 11.65 -2 10 C-2.94 8.06 -2.94 8.06 -3 6 C-1.56 4.44 -1.56 4.44 0 3 C0 2.01 0 1.02 0 0 Z " fill="#E3C396" transform="translate(87,14)"/>
<path d="M0 0 C0.66 0 1.32 0 2 0 C2.33 4.62 2.66 9.24 3 14 C2.34 14 1.68 14 1 14 C1 13.34 1 12.68 1 12 C0.2 12.02 -0.61 12.04 -1.44 12.06 C-4 12 -4 12 -5 11 C-5.17 7.84 -5.07 5 -4 2 C-3.34 1.67 -2.68 1.34 -2 1 C-1.67 2.65 -1.34 4.3 -1 6 C-0.67 4.02 -0.34 2.04 0 0 Z " fill="#BDAB97" transform="translate(111,24)"/>
<path d="M0 0 C-0.66 0.33 -0.66 0.33 -4 2 C-3.34 2.66 -2.68 3.32 -2 4 C-3.41 4.7 -4.83 5.39 -6.25 6.06 C-7.04 6.45 -7.83 6.83 -8.64 7.22 C-11.29 8.1 -12.47 8.16 -15 7 C-15.33 6.01 -15.66 5.02 -16 4 C-11.26 0.84 -5.69 -2.28 0 0 Z " fill="#DFC7A6" transform="translate(84,12)"/>
<path d="M0 0 C2.79 4.18 1.8 6.15 1 11 C0.34 10.67 -0.32 10.34 -1 10 C-1 9.34 -1 8.68 -1 8 C-1.99 8.33 -2.98 8.66 -4 9 C-4.33 7.68 -4.66 6.36 -5 5 C-6.65 5.33 -8.3 5.66 -10 6 C-10.33 5.01 -10.66 4.02 -11 3 C-7.37 2.01 -3.74 1.02 0 0 Z " fill="#5D5D51" transform="translate(65,75)"/>
<path d="M0 0 C0.99 0 1.98 0 3 0 C3 3.3 3 6.6 3 10 C-0.29 10.8 -1.71 11.1 -5 10 C-5 9.01 -5 8.02 -5 7 C-2 5 -2 5 1 5 C0.67 3.35 0.34 1.7 0 0 Z " fill="#B9B69F" transform="translate(143,60)"/>
<path d="M0 0 C2 1 2 1 2 1 Z " fill="#F5F4F0" transform="translate(80,98)"/>
<path d="" fill="#F7F6F4" transform="translate(0,0)"/>
<path d="" fill="#F5F5F3" transform="translate(0,0)"/>
</svg>
