<?xml version="1.0" encoding="UTF-8"?>
<!-- Generator: visioncortex VTracer 0.6.12 -->
<svg version="1.1" xmlns="http://www.w3.org/2000/svg" width="144" height="96">
<path d="M0 0 C3 1.31 3 1.31 6 3 C8.08 3.76 10.16 4.47 12.27 5.16 C14 6 14 6 16 9 C17.18 13.09 18.04 16.95 18.44 21.19 C19 25 19 25 20.56 27.31 C22.55 31.04 22.18 34.22 22.01 38.38 C22 40.81 22.29 42.69 23 45 C23.66 45 24.32 45 25 45 C25 44.34 25 43.68 25 43 C25.99 43 26.98 43 28 43 C28 43.99 28 44.98 28 46 C28.72 46.25 29.44 46.49 30.19 46.75 C33.43 48.19 35.54 49.41 38 52 C38.72 54.73 38.86 57.15 39 60 C39.66 60.16 39.66 60.16 43 61 C42 64 42 64 40.25 64.88 C32.47 67.24 25.19 69.35 17 69 C17.33 69.5 17.33 69.5 19 72 C14.29 76.17 9.07 76.03 3 76 C0.45 75.57 -1.58 74.94 -4 74 C-4 73.34 -4 72.68 -4 72 C-5.98 72 -7.96 72 -10 72 C-10.16 72.66 -10.16 72.66 -11 76 C-21.73 77.57 -21.73 77.57 -27 75 C-27.33 74.34 -27.66 73.68 -28 73 C-28.71 73.32 -29.43 73.65 -30.16 73.98 C-34.73 75.62 -39.21 75.5 -44 75 C-46 74 -48 73 -50 72 C-52.34 72.65 -54.67 73.32 -57 74 C-59.96 73.73 -62.15 73.02 -65 72 C-65.66 71.01 -66.32 70.02 -67 69 C-69.38 68.27 -69.38 68.27 -72.12 67.81 C-72.58 67.73 -72.58 67.73 -74.88 67.33 C-75.58 67.22 -76.28 67.11 -77 67 C-77 66.34 -77 65.68 -77 65 C-78.65 65 -80.3 65 -82 65 C-81.67 63.68 -81.34 62.36 -81 61 C-80.01 61 -79.02 61 -78 61 C-77.95 60.68 -77.95 60.68 -77.69 59.06 C-77.46 58.38 -77.23 57.7 -77 57 C-76.5 56.84 -76.5 56.84 -74 56 C-73.9 55.25 -73.8 54.5 -73.7 53.73 C-72.5 45.79 -72.5 45.79 -70.5 42.62 C-68.04 41.03 -65.58 39.82 -62.94 38.56 C-58.96 36.65 -56.56 35.34 -55 31 C-55 29.68 -55 28.36 -55 27 C-54.01 27 -53.02 27 -52 27 C-52 26.01 -52 25.02 -52 24 C-48.12 25.88 -48.12 25.88 -47 27 C-46.89 26.69 -46.89 26.69 -46.34 25.09 C-41.13 11.04 -41.13 11.04 -33.44 7.24 C-26.5 4.4 -19.47 2.37 -12.04 1.32 C-2.22 -0.24 -2.22 -0.24 0 0 Z " fill="#7E7973" transform="translate(92,10)"/>
<path d="M0 0 C3 1.31 3 1.31 6 3 C8.08 3.76 10.16 4.47 12.27 5.16 C14 6 14 6 16 9 C17.18 13.09 18.04 16.95 18.44 21.19 C19 25 19 25 20.56 27.31 C22.55 31.04 22.18 34.22 22.01 38.38 C22 40.81 22.29 42.69 23 45 C23.66 45 24.32 45 25 45 C25 44.34 25 43.68 25 43 C25.99 43 26.98 43 28 43 C28 43.99 28 44.98 28 46 C28.72 46.25 29.44 46.49 30.19 46.75 C33.25 48.11 35.47 49.83 38 52 C37.67 53.32 37.34 54.64 37 56 C36.67 55.34 36.34 54.68 36 54 C32.3 54.89 28.65 55.95 25 57 C25.33 54.69 25.66 52.38 26 50 C21.64 51.16 19.35 52.08 17 56 C16.01 55.34 15.02 54.68 14 54 C12.37 54.77 10.74 55.54 9.12 56.33 C5.13 57.59 1.06 56.68 -3 56 C-2.29 54.07 -2.29 54.07 -1 52 C1.13 51.28 1.13 51.28 3.56 50.94 C6 50.59 6 50.59 8 50 C8.33 49.01 8.66 48.02 9 47 C12.96 47.33 16.92 47.66 21 48 C19.87 41.93 18.72 39.23 14 35 C14 34.34 14 33.68 14 33 C13.07 33.31 12.14 33.62 11.19 33.94 C9.12 34.62 7.06 35.31 5 36 C4.22 35.51 3.43 35.01 2.62 34.5 C0 33 0 33 -2.75 33.19 C-5 34 -5 34 -6 36 C-8.31 36 -10.62 36 -13 36 C-13 37.65 -13 39.3 -13 41 C-17 35 -17 35 -16.69 31.94 C-16 29 -16 29 -15 27 C-14.93 25.46 -14.92 23.92 -14.94 22.38 C-14.96 20.93 -14.98 19.49 -15 18 C-17.97 17.01 -20.94 16.02 -24 15 C-24 15.66 -24 16.32 -24 17 C-25.32 17 -26.64 17 -28 17 C-28.33 18.32 -28.66 19.64 -29 21 C-29.66 20.67 -30.32 20.34 -31 20 C-31 18.02 -31 16.04 -31 14 C-31.99 13.84 -31.99 13.84 -37 13 C-37.14 13.4 -37.14 13.4 -37.88 15.44 C-39 18 -39 18 -41 19 C-41.62 21.56 -41.62 21.56 -42 24 C-41.01 24.33 -40.02 24.66 -39 25 C-39.66 25 -40.32 25 -41 25 C-41.33 26.65 -41.66 28.3 -42 30 C-42.66 30 -43.32 30 -44 30 C-44.33 29.34 -44.66 28.68 -45 28 C-45.33 28.99 -45.66 29.98 -46 31 C-46.66 30.67 -47.32 30.34 -48 30 C-44.15 17.15 -44.15 17.15 -40 13 C-39.27 12.19 -38.54 11.38 -37.79 10.54 C-31.1 4.44 -20.87 2.65 -12.11 1.36 C-2.54 -0.27 -2.54 -0.27 0 0 Z " fill="#9F9083" transform="translate(92,10)"/>
<path d="M0 0 C0.99 0.16 0.99 0.16 6 1 C6.33 2.98 6.66 4.96 7 7 C7.66 6.01 8.32 5.02 9 4 C10.32 4 11.64 4 13 4 C13 3.34 13 2.68 13 2 C14.48 2.31 15.96 2.62 17.44 2.94 C18.26 3.11 19.08 3.29 19.93 3.46 C22 4 22 4 23 5 C23.46 10.19 23.06 14.2 21 19 C21.33 21.34 21.95 22.89 23 25 C23.33 24.34 23.66 23.68 24 23 C26.31 23 28.62 23 31 23 C31.16 22.51 31.16 22.51 32 20 C33.98 19.67 35.96 19.34 38 19 C38.16 19.33 38.16 19.33 39 21 C41.44 21.75 41.44 21.75 44 22 C44.66 21.34 45.32 20.68 46 20 C48.44 19.56 48.44 19.56 51 20 C52.56 22.25 52.56 22.25 54 25 C54.7 25.62 55.4 26.24 56.12 26.88 C58.67 29.76 58.71 32.24 59 36 C58.1 35.89 57.19 35.79 56.26 35.68 C55.08 35.56 53.9 35.44 52.69 35.31 C51.52 35.18 50.34 35.06 49.14 34.93 C46 35 46 35 44.33 36.39 C43.89 36.92 43.45 37.45 43 38 C41.06 38.81 41.06 38.81 39 39.44 C36.57 40.32 35.03 40.98 33 42.62 C31.44 46.34 31.77 50.03 32 54 C31.01 53.84 31.01 53.84 26 53 C26 50.67 26 48.33 26 46 C25.34 46 24.68 46 24 46 C24 45.34 24 44.68 24 44 C23.01 44.99 22.02 45.98 21 47 C21.99 47.33 22.98 47.66 24 48 C24 49.98 24 51.96 24 54 C23.37 54.19 22.75 54.39 22.1 54.59 C21.28 54.85 20.47 55.11 19.62 55.38 C18.81 55.63 18 55.89 17.16 56.15 C15 57 15 57 13 59 C10.88 58.62 10.88 58.62 9 58 C9.33 55.69 9.66 53.38 10 51 C14 51 14 51 16 52 C16.21 46.76 16.12 42.86 14 38 C13.9 36.65 13.82 35.29 13.75 33.94 C13.37 30.5 13.15 30.14 10.44 27.62 C6.6 25.81 3.14 24.91 -1 24 C-1.33 23.67 -1.66 23.34 -2 23 C-3.85 22.77 -5.7 22.59 -7.56 22.44 C-8.57 22.35 -9.59 22.27 -10.63 22.18 C-11.02 22.15 -11.02 22.15 -13 22 C-12.67 20.35 -12.34 18.7 -12 17 C-11.01 17.33 -10.02 17.66 -9 18 C-8.67 16.02 -8.34 14.04 -8 12 C-7.67 12 -7.34 12 -7 12 C-7 13.65 -7 15.3 -7 17 C-6.34 17 -5.68 17 -5 17 C-4.2 13.71 -3.9 12.29 -5 9 C-5 7.68 -5 6.36 -5 5 C-4.01 4.67 -3.02 4.34 -2 4 C-0.81 1.94 -0.81 1.94 0 0 Z " fill="#7A7674" transform="translate(55,23)"/>
<path d="M0 0 C0.33 0.66 0.66 1.32 1 2 C2.32 2 3.64 2 5 2 C4.72 4.06 4.42 6.13 4.12 8.19 C3.96 9.34 3.8 10.48 3.63 11.67 C3.06 14.69 2.25 17.21 1 20 C0.67 18.68 0.34 17.36 0 16 C-0.66 16.33 -1.32 16.66 -2 17 C-2.62 19.56 -2.62 19.56 -3 22 C-2.68 22.03 -2.68 22.03 -1.07 22.18 C-0.24 22.27 0.59 22.35 1.44 22.44 C1.85 22.48 1.85 22.48 3.93 22.68 C6 23 6 23 7 24 C7.66 23.01 8.32 22.02 9 21 C9.66 21.33 10.32 21.66 11 22 C11 22.66 11 23.32 11 24 C13.87 23.43 14.86 23.14 17 21 C17 21.66 17 22.32 17 23 C17.99 23 18.98 23 20 23 C20 23.99 20 24.98 20 26 C20.66 25.67 21.32 25.34 22 25 C25.5 24.81 25.5 24.81 29 25 C31 27 31 27 31 30 C31.66 29.67 32.32 29.34 33 29 C33 28.01 33 27.02 33 26 C38.75 24.88 38.75 24.88 41 26 C41 24.35 41 22.7 41 21 C41.66 21 42.32 21 43 21 C43.66 22.32 44.32 23.64 45 25 C44.34 25 43.68 25 43 25 C43 25.66 43 26.32 43 27 C46.99 26.38 50.51 25.11 54.23 23.62 C56 23 56 23 58 23 C57.62 20.06 57.62 20.06 57 17 C56.34 16.67 55.68 16.34 55 16 C55.33 15.01 55.66 14.02 56 13 C56.66 13 57.32 13 58 13 C58 13.66 58 14.32 58 15 C58.66 15 59.32 15 60 15 C61.12 18.75 61.12 18.75 60 21 C61.98 21.66 63.96 22.32 66 23 C65.84 22.67 65.84 22.67 65 21 C64.54 14.66 64.54 14.66 66.22 12.25 C68 11 68 11 70.23 11.03 C70.65 11.11 70.65 11.11 72.75 11.5 C76.4 12.02 78.61 12.08 81.94 10.44 C82.95 9.96 83.96 9.49 85 9 C85.99 9.66 86.98 10.32 88 11 C88.74 10.17 89.48 9.35 90.25 8.5 C93 6 93 6 97 6 C97.16 6.83 97.16 6.83 98 11 C99 11 99 11 101.31 9.94 C104.16 8.94 105.24 8.98 108 10 C108 10.66 108 11.32 108 12 C108.66 12 109.32 12 110 12 C110 13.32 110 14.64 110 16 C110.66 16.16 110.66 16.16 114 17 C113 20 113 20 111.25 20.88 C103.47 23.24 96.19 25.35 88 25 C88.33 25.5 88.33 25.5 90 28 C85.29 32.17 80.07 32.03 74 32 C71.45 31.57 69.42 30.94 67 30 C67 29.34 67 28.68 67 28 C65.02 28 63.04 28 61 28 C60.67 29.32 60.34 30.64 60 32 C49.27 33.57 49.27 33.57 44 31 C43.84 30.67 43.84 30.67 43 29 C42.29 29.32 41.57 29.65 40.84 29.98 C36.27 31.62 31.79 31.5 27 31 C25 30 23 29 21 28 C18.66 28.65 16.33 29.32 14 30 C11.04 29.73 8.85 29.02 6 28 C5.34 27.01 4.68 26.02 4 25 C1.62 24.27 1.62 24.27 -1.12 23.81 C-1.58 23.73 -1.58 23.73 -3.88 23.33 C-4.58 23.22 -5.28 23.11 -6 23 C-6 22.34 -6 21.68 -6 21 C-7.65 21 -9.3 21 -11 21 C-10.67 19.68 -10.34 18.36 -10 17 C-9.01 17 -8.02 17 -7 17 C-6.95 16.68 -6.95 16.68 -6.69 15.06 C-6.46 14.38 -6.23 13.7 -6 13 C-5.01 12.67 -4.02 12.34 -3 12 C-2.87 11.22 -2.73 10.44 -2.6 9.63 C-2.42 8.62 -2.24 7.61 -2.06 6.56 C-1.89 5.55 -1.71 4.54 -1.54 3.5 C-1 1 -1 1 0 0 Z " fill="#7C7876" transform="translate(21,54)"/>
<path d="M0 0 C-0.33 1.99 -0.65 3.97 -0.98 5.96 C-1 8 -1 8 1 11 C1.33 10.34 1.66 9.68 2 9 C4.31 9 6.62 9 9 9 C9.33 8.01 9.66 7.02 10 6 C11.98 5.67 13.96 5.34 16 5 C16.33 5.66 16.66 6.32 17 7 C19.44 7.75 19.44 7.75 22 8 C22.66 7.34 23.32 6.68 24 6 C26.44 5.56 26.44 5.56 29 6 C30.56 8.25 30.56 8.25 32 11 C32.7 11.62 33.4 12.24 34.12 12.88 C36.67 15.76 36.71 18.24 37 22 C36.1 21.89 35.19 21.79 34.26 21.68 C33.08 21.56 31.9 21.44 30.69 21.31 C29.52 21.18 28.34 21.06 27.14 20.93 C24 21 24 21 22.27 22.43 C22.06 22.69 22.06 22.69 21 24 C17.94 24.81 17.94 24.81 15 25 C14.34 24.34 13.68 23.68 13 23 C12.67 23.99 12.34 24.98 12 26 C10.68 25.67 9.36 25.34 8 25 C8 26.98 8 28.96 8 31 C5.04 30.39 3.62 29.75 1 28 C-0.48 24.56 0.27 21.58 1 18 C0.01 18 -0.98 18 -2 18 C-2 17.01 -2 16.02 -2 15 C-2.99 14.67 -3.98 14.34 -5 14 C-5 13.34 -5 12.68 -5 12 C-6.32 12 -7.64 12 -9 12 C-8.52 10.54 -8.04 9.08 -7.56 7.62 C-7.3 6.81 -7.03 6 -6.75 5.16 C-6 3 -6 3 -5 1 C-2 0 -2 0 0 0 Z " fill="#8C857E" transform="translate(77,37)"/>
<path d="M0 0 C3 1.31 3 1.31 6 3 C8.08 3.76 10.16 4.47 12.27 5.16 C14 6 14 6 16 9 C16.54 11.66 16.73 14.29 17 17 C15.06 16.31 15.06 16.31 13 15 C12.25 12.38 12.25 12.38 12 10 C11.43 10.07 10.86 10.14 10.28 10.22 C5.48 10.8 0.83 11.1 -4 11 C-4 11.66 -4 12.32 -4 13 C-3.34 13.33 -2.68 13.66 -2 14 C-5.75 17.06 -9.08 19 -14 19 C-15.75 18.38 -17.48 17.71 -19.19 17 C-20.09 16.63 -20.99 16.26 -21.92 15.88 C-22.61 15.59 -23.29 15.3 -24 15 C-24 15.66 -24 16.32 -24 17 C-25.32 17 -26.64 17 -28 17 C-28.33 18.32 -28.66 19.64 -29 21 C-29.66 20.67 -30.32 20.34 -31 20 C-31 18.02 -31 16.04 -31 14 C-31.99 13.84 -31.99 13.84 -37 13 C-37.14 13.4 -37.14 13.4 -37.88 15.44 C-39 18 -39 18 -41 19 C-41.62 21.56 -41.62 21.56 -42 24 C-41.01 24.33 -40.02 24.66 -39 25 C-39.66 25 -40.32 25 -41 25 C-41.33 26.65 -41.66 28.3 -42 30 C-42.66 30 -43.32 30 -44 30 C-44.33 29.34 -44.66 28.68 -45 28 C-45.33 28.99 -45.66 29.98 -46 31 C-46.66 30.67 -47.32 30.34 -48 30 C-44.15 17.15 -44.15 17.15 -40 13 C-39.27 12.19 -38.54 11.38 -37.79 10.54 C-31.1 4.44 -20.87 2.65 -12.11 1.36 C-2.54 -0.27 -2.54 -0.27 0 0 Z " fill="#EADBC9" transform="translate(92,10)"/>
<path d="M0 0 C0.33 0.66 0.66 1.32 1 2 C2.32 2 3.64 2 5 2 C4.72 4.06 4.42 6.13 4.12 8.19 C3.96 9.34 3.8 10.48 3.63 11.67 C3.06 14.69 2.25 17.21 1 20 C0.67 18.68 0.34 17.36 0 16 C-0.66 16.33 -1.32 16.66 -2 17 C-2.62 19.56 -2.62 19.56 -3 22 C-2.68 22.03 -2.68 22.03 -1.07 22.18 C-0.24 22.27 0.59 22.35 1.44 22.44 C1.85 22.48 1.85 22.48 3.93 22.68 C6 23 6 23 7 24 C7.66 23.01 8.32 22.02 9 21 C9.66 21.33 10.32 21.66 11 22 C11 22.66 11 23.32 11 24 C13.87 23.43 14.86 23.14 17 21 C17 21.66 17 22.32 17 23 C17.99 23 18.98 23 20 23 C20 23.99 20 24.98 20 26 C20.66 25.67 21.32 25.34 22 25 C25.5 24.81 25.5 24.81 29 25 C31 27 31 27 31 30 C31.66 29.67 32.32 29.34 33 29 C33 28.01 33 27.02 33 26 C38.75 24.88 38.75 24.88 41 26 C41 24.35 41 22.7 41 21 C41.66 21 42.32 21 43 21 C43.66 22.32 44.32 23.64 45 25 C44.34 25 43.68 25 43 25 C43 25.66 43 26.32 43 27 C47.88 26.12 47.88 26.12 49 25 C55.53 24.76 55.53 24.76 58 26 C59.88 25.91 61.75 25.76 63.62 25.56 C64.63 25.46 65.63 25.36 66.66 25.25 C67.05 25.21 67.05 25.21 69 25 C69 25.66 69 26.32 69 27 C67.68 27.16 67.68 27.16 61 28 C60.67 29.32 60.34 30.64 60 32 C49.27 33.57 49.27 33.57 44 31 C43.84 30.67 43.84 30.67 43 29 C42.29 29.32 41.57 29.65 40.84 29.98 C36.27 31.62 31.79 31.5 27 31 C25 30 23 29 21 28 C18.66 28.65 16.33 29.32 14 30 C11.04 29.73 8.85 29.02 6 28 C5.34 27.01 4.68 26.02 4 25 C1.62 24.27 1.62 24.27 -1.12 23.81 C-1.58 23.73 -1.58 23.73 -3.88 23.33 C-4.58 23.22 -5.28 23.11 -6 23 C-6 22.34 -6 21.68 -6 21 C-7.65 21 -9.3 21 -11 21 C-10.67 19.68 -10.34 18.36 -10 17 C-9.01 17 -8.02 17 -7 17 C-6.95 16.68 -6.95 16.68 -6.69 15.06 C-6.46 14.38 -6.23 13.7 -6 13 C-5.01 12.67 -4.02 12.34 -3 12 C-2.87 11.22 -2.73 10.44 -2.6 9.63 C-2.42 8.62 -2.24 7.61 -2.06 6.56 C-1.89 5.55 -1.71 4.54 -1.54 3.5 C-1 1 -1 1 0 0 Z " fill="#A8ABA7" transform="translate(21,54)"/>
<path d="M0 0 C1.32 0.66 2.64 1.32 4 2 C3.12 8.75 3.12 8.75 2 11 C2.76 10.98 3.52 10.95 4.3 10.93 C5.29 10.91 6.29 10.89 7.31 10.88 C8.3 10.85 9.28 10.83 10.3 10.8 C13 11 13 11 16 13 C17.13 13.29 18.27 13.58 19.44 13.88 C23.1 15.03 24.58 16.1 27 19 C25.35 19.66 23.7 20.32 22 21 C22 21.66 22 22.32 22 23 C20.35 23 18.7 23 17 23 C16.67 24.32 16.34 25.64 16 27 C15.34 27 14.68 27 14 27 C13.67 27.99 13.34 28.98 13 30 C12.34 30 11.68 30 11 30 C11 29.34 11 28.68 11 28 C9.68 28 8.36 28 7 28 C6.34 26.68 5.68 25.36 5 24 C4.34 24 3.68 24 3 24 C3 26.97 3 29.94 3 33 C1.35 33 -0.3 33 -2 33 C-1.67 31.68 -1.34 30.36 -1 29 C-1.95 28.92 -2.9 28.84 -3.88 28.75 C-7 28 -7 28 -8.38 25.94 C-8.58 25.3 -8.79 24.66 -9 24 C-8.34 24 -7.68 24 -7 24 C-7 24.66 -7 25.32 -7 26 C-5.02 25.67 -3.04 25.34 -1 25 C-0.88 24.44 -0.75 23.89 -0.62 23.31 C0.06 20.78 0.99 18.42 2 16 C1.34 16.33 1.34 16.33 -2 18 C-2 17.01 -2 16.02 -2 15 C-3.65 14.67 -5.3 14.34 -7 14 C-5.96 12.31 -4.92 10.61 -3.88 8.92 C-3 7 -3 7 -3 3 C-2.01 3 -1.02 3 0 3 C0 2.01 0 1.02 0 0 Z " fill="#9F8E6F" transform="translate(40,34)"/>
<path d="M0 0 C0.66 0 1.32 0 2 0 C2 2.97 2 5.94 2 9 C0.02 9.33 -1.96 9.66 -4 10 C-4.2 10.63 -4.41 11.25 -4.62 11.9 C-4.89 12.72 -5.16 13.53 -5.44 14.38 C-5.7 15.19 -5.97 16 -6.25 16.84 C-7 19 -7 19 -8 21 C-6.68 21 -5.36 21 -4 21 C-2.25 22.31 -2.25 22.31 -1 24 C-1 24.99 -1 25.98 -1 27 C-0.01 27 0.98 27 2 27 C2.93 30.01 3.04 30.87 2 34 C3 37 3 37 6.06 38.69 C7.03 39.12 8 39.55 9 40 C9 38.02 9 36.04 9 34 C10.32 34 11.64 34 13 34 C13.33 33.34 13.66 32.68 14 32 C14.5 32.16 14.5 32.16 17 33 C16.57 33.4 16.13 33.8 15.69 34.21 C12.28 37.7 10.58 39.95 10.62 44.94 C10.72 46.29 10.83 47.65 11 49 C9.02 48.67 7.04 48.34 5 48 C5 45.67 5 43.33 5 41 C4.34 41 3.68 41 3 41 C3 40.34 3 39.68 3 39 C2.01 39.99 1.02 40.98 0 42 C0.99 42.33 1.98 42.66 3 43 C3 44.98 3 46.96 3 49 C2.37 49.19 1.75 49.39 1.1 49.59 C0.69 49.72 0.69 49.72 -1.38 50.38 C-2.19 50.63 -3 50.89 -3.84 51.15 C-6 52 -6 52 -8 54 C-10.12 53.62 -10.12 53.62 -12 53 C-11.67 50.69 -11.34 48.38 -11 46 C-7 46 -7 46 -5 47 C-4.79 41.76 -4.88 37.86 -7 33 C-7.15 31.61 -7.27 30.21 -7.38 28.81 C-8 25 -8 25 -10.06 23.5 C-10.7 23.34 -11.34 23.17 -12 23 C-11.49 20.37 -10.76 18.56 -9.44 16.19 C-7.8 12.55 -7.76 9.95 -8 6 C-5.36 6 -2.72 6 0 6 C0 4.02 0 2.04 0 0 Z " fill="#4C5157" transform="translate(76,28)"/>
<path d="M0 0 C2 3 2 3 1.94 5.38 C2 8 2 8 3.5 10.12 C5.51 13.97 5.19 17.11 5.01 21.38 C5 23.81 5.29 25.69 6 28 C6.66 28 7.32 28 8 28 C8 27.34 8 26.68 8 26 C8.99 26 9.98 26 11 26 C11 26.99 11 27.98 11 29 C11.72 29.25 12.44 29.5 13.19 29.75 C16.25 31.11 18.47 32.83 21 35 C20.67 36.32 20.34 37.64 20 39 C19.67 38.34 19.34 37.68 19 37 C15.3 37.89 11.65 38.95 8 40 C8.33 37.69 8.66 35.38 9 33 C4.64 34.16 2.35 35.08 0 39 C-0.99 38.34 -1.98 37.68 -3 37 C-4.63 37.77 -6.26 38.54 -7.88 39.33 C-11.87 40.59 -15.94 39.68 -20 39 C-19.29 37.07 -19.29 37.07 -18 35 C-15.87 34.28 -15.87 34.28 -13.44 33.94 C-11 33.59 -11 33.59 -9 33 C-8.67 32.01 -8.34 31.02 -8 30 C-4.04 30.33 -0.08 30.66 4 31 C2.87 24.93 1.72 22.23 -3 18 C-3 17.34 -3 16.68 -3 16 C-8.75 17.88 -8.75 17.88 -11 19 C-10.25 17.06 -10.25 17.06 -9 15 C-6.88 14.25 -6.88 14.25 -5 14 C-4.88 13.32 -4.75 12.64 -4.62 11.94 C-2.65 2.65 -2.65 2.65 0 0 Z " fill="#B8A892" transform="translate(109,27)"/>
<path d="M0 0 C2.1 6.92 4.1 15.94 2 23 C0.35 22.34 -1.3 21.68 -3 21 C-3.66 21.99 -4.32 22.98 -5 24 C-5 23.34 -5 22.68 -5 22 C-5.66 22 -6.32 22 -7 22 C-7.33 22.99 -7.66 23.98 -8 25 C-9.48 24.6 -10.96 24.18 -12.44 23.75 C-13.26 23.52 -14.08 23.29 -14.93 23.05 C-17 22 -17 22 -17.8 20.11 C-18.11 16.86 -17.74 14.17 -17 11 C-15 8.75 -15 8.75 -13 7 C-12.67 6.01 -12.34 5.02 -12 4 C-10.35 4 -8.7 4 -7 4 C-7 3.34 -7 2.68 -7 2 C-7.66 1.67 -8.32 1.34 -9 1 C-2.25 -1.12 -2.25 -1.12 0 0 Z " fill="#948D87" transform="translate(69,53)"/>
<path d="M0 0 C1.65 0.66 3.3 1.32 5 2 C4.67 2.99 4.34 3.98 4 5 C5.32 5 6.64 5 8 5 C9.82 8.64 9.05 13.01 9 17 C10.65 17.66 10.65 17.66 19 21 C19 21.66 19 22.32 19 23 C16.36 23 13.72 23 11 23 C11.33 24.32 11.66 25.64 12 27 C11.01 27 10.02 27 9 27 C8.34 25.68 7.68 24.36 7 23 C4.03 23 1.06 23 -2 23 C-2 22.01 -2 21.02 -2 20 C-4.97 20.33 -7.94 20.66 -11 21 C-11 20.34 -11 19.68 -11 19 C-11.66 19 -12.32 19 -13 19 C-14.62 21 -14.62 21 -16 23 C-16.12 19.62 -16.12 19.62 -16 16 C-13.41 13.41 -11.97 13.63 -8.38 13.38 C-7.37 13.3 -6.37 13.23 -5.34 13.15 C-4.95 13.12 -4.95 13.12 -3 13 C-3 12.34 -3 11.68 -3 11 C-2.34 10.67 -1.68 10.34 -1 10 C-1.01 9.36 -1.02 8.72 -1.04 8.07 C-1.04 7.24 -1.05 6.41 -1.06 5.56 C-1.07 4.74 -1.09 3.92 -1.1 3.07 C-1 1 -1 1 0 0 Z " fill="#6A6F78" transform="translate(43,57)"/>
<path d="M0 0 C0.66 0.33 1.32 0.66 2 1 C2.34 3.21 2.34 3.21 2.5 5.94 C2.78 10.78 2.78 10.78 5 13 C5.57 15.66 5.74 18.29 6 21 C5.34 20.67 4.68 20.34 4 20 C4 19.34 4 18.68 4 18 C3.01 17.67 2.02 17.34 1 17 C1 16.34 1 15.68 1 15 C-0.32 15 -1.64 15 -3 15 C-2.98 15.95 -2.96 16.9 -2.94 17.88 C-3 21 -3 21 -4 23 C-6.31 23 -8.62 23 -11 23 C-11 24.65 -11 26.3 -11 28 C-15 22 -15 22 -14.75 19.44 C-14.5 18.3 -14.25 17.17 -14 16 C-13.87 15.16 -13.75 14.32 -13.62 13.46 C-13.48 12.56 -13.33 11.67 -13.19 10.75 C-13.06 9.9 -12.93 9.05 -12.79 8.17 C-12 6 -12 6 -10.16 4.8 C-9.44 4.54 -8.73 4.27 -8 4 C-7.69 3.87 -7.69 3.87 -6.11 3.18 C-5.82 3.06 -5.82 3.06 -4.31 2.44 C-1 1 -1 1 0 0 Z " fill="#AE9C8A" transform="translate(90,23)"/>
<path d="M0 0 C-0.33 1.99 -0.65 3.97 -0.98 5.96 C-1 8 -1 8 1 11 C1.33 10.34 1.66 9.68 2 9 C4.31 9 6.62 9 9 9 C9.33 8.01 9.66 7.02 10 6 C11.98 5.67 13.96 5.34 16 5 C16.33 5.66 16.66 6.32 17 7 C17.99 7.66 18.98 8.32 20 9 C19.01 9 18.02 9 17 9 C17 10.32 17 11.64 17 13 C16.34 13 15.68 13 15 13 C14.67 13.66 14.34 14.32 14 15 C14 14.34 14 13.68 14 13 C13.34 13 12.68 13 12 13 C12.33 13.66 12.66 14.32 13 15 C13.04 17 13.04 19 13 21 C12.01 21 11.02 21 10 21 C9.67 18.69 9.34 16.38 9 14 C7 15 7 15 5.56 17.56 C5.05 18.37 4.53 19.17 4 20 C3.01 20 2.02 20 1 20 C1 19.34 1 18.68 1 18 C0.01 18 -0.98 18 -2 18 C-2 17.01 -2 16.02 -2 15 C-2.99 14.67 -3.98 14.34 -5 14 C-5 13.34 -5 12.68 -5 12 C-6.32 12 -7.64 12 -9 12 C-8.52 10.54 -8.04 9.08 -7.56 7.62 C-7.3 6.81 -7.03 6 -6.75 5.16 C-6 3 -6 3 -5 1 C-2 0 -2 0 0 0 Z " fill="#998D7F" transform="translate(77,37)"/>
<path d="M0 0 C1.32 0.66 2.64 1.32 4 2 C4 5 4 5 3 8 C0.42 10.32 -0.45 11 -4 11 C-4 11.66 -4 12.32 -4 13 C-5.32 13 -6.64 13 -8 13 C-8.33 14.32 -8.66 15.64 -9 17 C-9.66 16.67 -10.32 16.34 -11 16 C-11 14.02 -11 12.04 -11 10 C-11.99 9.84 -11.99 9.84 -17 9 C-17.14 9.4 -17.14 9.4 -17.88 11.44 C-19 14 -19 14 -21 15 C-21.62 17.56 -21.62 17.56 -22 20 C-21.01 20.33 -20.02 20.66 -19 21 C-19.66 21 -20.32 21 -21 21 C-21.33 22.65 -21.66 24.3 -22 26 C-22.66 26 -23.32 26 -24 26 C-24.33 25.34 -24.66 24.68 -25 24 C-25.33 24.99 -25.66 25.98 -26 27 C-26.66 26.67 -27.32 26.34 -28 26 C-24.15 13.15 -24.15 13.15 -20 9 C-19.22 8.11 -18.43 7.23 -17.62 6.31 C-12.7 1.97 -7.27 1.74 -1 1 C-0.67 0.67 -0.34 0.34 0 0 Z " fill="#BAAB98" transform="translate(72,14)"/>
<path d="M0 0 C2.97 0.99 5.94 1.98 9 3 C9 4.98 9 6.96 9 9 C8.34 9.33 8.34 9.33 5 11 C5 11.66 5 12.32 5 13 C6.32 13.66 7.64 14.32 9 15 C9 15.99 9 16.98 9 18 C8 19 8 19 6.15 19.1 C4.1 19.07 2.05 19.03 0 19 C0.33 17.68 0.66 16.36 1 15 C0.26 15.1 -0.47 15.19 -1.23 15.29 C-2.21 15.4 -3.18 15.51 -4.19 15.62 C-5.15 15.74 -6.11 15.86 -7.11 15.98 C-10.24 16 -12.19 15.34 -15 14 C-11.25 12 -11.25 12 -9 12 C-9.38 9.06 -9.38 9.06 -10 6 C-10.66 5.67 -11.32 5.34 -12 5 C-11.67 4.01 -11.34 3.02 -11 2 C-10.34 2 -9.68 2 -9 2 C-9 2.66 -9 3.32 -9 4 C-8.34 4 -7.68 4 -7 4 C-5.88 7.75 -5.88 7.75 -7 10 C-5.02 10.66 -3.04 11.32 -1 12 C-1.33 11.34 -1.66 10.68 -2 10 C-2.35 3.53 -2.35 3.53 0 0 Z " fill="#74777A" transform="translate(88,65)"/>
<path d="M0 0 C0.66 0 1.32 0 2 0 C2.66 1.32 3.32 2.64 4 4 C3.34 4 2.68 4 2 4 C2 4.66 2 5.32 2 6 C6.88 5.12 6.88 5.12 8 4 C14.53 3.76 14.53 3.76 17 5 C18.88 4.91 20.75 4.76 22.62 4.56 C23.63 4.46 24.63 4.36 25.66 4.25 C26.05 4.21 26.05 4.21 28 4 C28 4.66 28 5.32 28 6 C25.36 6.33 22.72 6.66 20 7 C19.67 8.32 19.34 9.64 19 11 C8.27 12.57 8.27 12.57 3 10 C2.67 9.34 2.34 8.68 2 8 C1.29 8.32 0.57 8.64 -0.16 8.98 C-5.11 10.76 -11.14 11.26 -16.05 9.1 C-17.69 8 -17.69 8 -20 6 C-19.67 5.34 -19.34 4.68 -19 4 C-15.62 3.88 -15.62 3.88 -12 4 C-10 6 -10 6 -10 9 C-9.34 8.67 -8.68 8.34 -8 8 C-8 7.01 -8 6.02 -8 5 C-2.25 3.88 -2.25 3.88 0 5 C0 3.35 0 1.7 0 0 Z " fill="#9D9C9A" transform="translate(62,75)"/>
<path d="M0 0 C0.33 0.66 0.66 1.32 1 2 C1.66 2 2.32 2 3 2 C3.33 2.66 3.66 3.32 4 4 C4.99 3.67 5.98 3.34 7 3 C6.39 6.56 5.42 9.68 4 13 C2.02 13 0.04 13 -2 13 C-2 12.34 -2 11.68 -2 11 C-3.65 11.33 -5.3 11.66 -7 12 C-7.33 13.98 -7.66 15.96 -8 18 C-8.99 18 -9.98 18 -11 18 C-11.25 12.38 -11.25 12.38 -9 9 C-10.32 9 -11.64 9 -13 9 C-12.74 7.14 -12.74 7.14 -12 5 C-10.29 3.77 -10.29 3.77 -8.19 2.81 C-7.5 2.49 -6.81 2.17 -6.11 1.83 C-4.08 1.03 -2.12 0.47 0 0 Z " fill="#838061" transform="translate(35,47)"/>
<path d="M0 0 C0.16 0.66 0.16 0.66 1 4 C2.32 4.33 3.64 4.66 5 5 C4 8 4 8 2.25 8.88 C-5.53 11.24 -12.81 13.35 -21 13 C-20.67 13.5 -20.67 13.5 -19 16 C-23.71 20.19 -28.94 19.89 -35 20 C-38.75 19.56 -38.75 19.56 -41 19 C-41 18.67 -41 18.34 -41 18 C-39.84 17.84 -39.84 17.84 -34 17 C-34 16.01 -34 15.02 -34 14 C-34.99 13.34 -35.98 12.68 -37 12 C-37 11.34 -37 10.68 -37 10 C-33.95 8.48 -31.36 8.76 -28 9 C-26.06 10.5 -26.06 10.5 -25 12 C-25.99 12 -26.98 12 -28 12 C-28.66 13.98 -29.32 15.96 -30 18 C-28.35 17.67 -26.7 17.34 -25 17 C-25 16.34 -25 15.68 -25 15 C-24.34 15 -23.68 15 -23 15 C-23 13.68 -23 12.36 -23 11 C-18.71 11 -14.42 11 -10 11 C-9.67 9.35 -9.34 7.7 -9 6 C-6.03 6.33 -3.06 6.66 0 7 C0 4.69 0 2.38 0 0 Z " fill="#C7BEAE" transform="translate(130,66)"/>
<path d="M0 0 C1.48 2.96 1.06 5.74 1 9 C-1.97 9 -4.94 9 -8 9 C-8.33 10.32 -8.66 11.64 -9 13 C-9.99 13 -10.98 13 -12 13 C-12 11.35 -12 9.7 -12 8 C-15.81 8.52 -17.38 9.26 -20 12 C-20.99 12 -21.98 12 -23 12 C-23.33 10.68 -23.66 9.36 -24 8 C-23.01 8.33 -22.02 8.66 -21 9 C-20.34 7.02 -19.68 5.04 -19 3 C-14 2 -14 2 -11.5 1.56 C-9 1 -9 1 -6.44 -0.12 C-3.74 -1.09 -2.61 -1.12 0 0 Z " fill="#676768" transform="translate(129,64)"/>
<path d="M0 0 C12.59 -0.77 12.59 -0.77 16.04 1.11 C17.38 2.5 17.38 2.5 19 5 C17.35 5.66 15.7 6.32 14 7 C14 7.66 14 8.32 14 9 C12.35 9 10.7 9 9 9 C8.67 10.32 8.34 11.64 8 13 C7.34 13 6.68 13 6 13 C5.67 13.99 5.34 14.98 5 16 C4.34 16 3.68 16 3 16 C3 13.36 3 10.72 3 8 C2.01 7.67 1.02 7.34 0 7 C0 6.34 0 5.68 0 5 C-1.65 4.67 -3.3 4.34 -5 4 C-5 3.67 -5 3.34 -5 3 C-3.35 2.67 -1.7 2.34 0 2 C0 1.34 0 0.68 0 0 Z " fill="#C9B294" transform="translate(48,48)"/>
<path d="M0 0 C1.25 2.06 1.25 2.06 2 4 C2.66 4 3.32 4 4 4 C3.67 5.32 3.34 6.64 3 8 C2.17 7.84 2.17 7.84 -2 7 C-1.34 8.65 -0.68 10.3 0 12 C-1.67 12.04 -3.33 12.04 -5 12 C-5.33 11.67 -5.66 11.34 -6 11 C-7.85 10.77 -9.7 10.59 -11.56 10.44 C-12.57 10.35 -13.59 10.27 -14.63 10.18 C-15.41 10.12 -16.19 10.06 -17 10 C-16.67 8.35 -16.34 6.7 -16 5 C-15.01 5.33 -14.02 5.66 -13 6 C-12.67 4.02 -12.34 2.04 -12 0 C-11.67 0 -11.34 0 -11 0 C-11 1.65 -11 3.3 -11 5 C-10.34 5 -9.68 5 -9 5 C-8.67 3.35 -8.34 1.7 -8 0 C-4.99 -0.97 -2.95 -1.28 0 0 Z " fill="#5E5C50" transform="translate(59,35)"/>
<path d="M0 0 C2 3 2 3 1.94 5.38 C2 8 2 8 3.5 10.12 C5.5 13.97 5.17 17.06 5.04 21.33 C5 24.32 5.37 27.08 6 30 C5.34 30 4.68 30 4 30 C3.77 28.95 3.55 27.9 3.31 26.81 C2.21 22.83 0.03 20.79 -3 18 C-3 17.34 -3 16.68 -3 16 C-8.75 17.88 -8.75 17.88 -11 19 C-10.25 17.06 -10.25 17.06 -9 15 C-6.88 14.25 -6.88 14.25 -5 14 C-4.88 13.32 -4.75 12.64 -4.62 11.94 C-2.65 2.65 -2.65 2.65 0 0 Z " fill="#BDAE9F" transform="translate(109,27)"/>
<path d="M0 0 C0.99 0 1.98 0 3 0 C3 0.99 3 1.98 3 3 C2.34 3 1.68 3 1 3 C1 3.66 1 4.32 1 5 C0.34 5 -0.32 5 -1 5 C-1.33 7.97 -1.66 10.94 -2 14 C-2.66 14 -3.32 14 -4 14 C-4.33 14.99 -4.66 15.98 -5 17 C-6.32 16.67 -7.64 16.34 -9 16 C-9 17.98 -9 19.96 -9 22 C-11.96 21.39 -13.38 20.75 -16 19 C-17.07 16.53 -17.15 15.43 -16.25 12.88 C-15 11 -15 11 -12 9 C-10.81 6.88 -10.81 6.88 -10 5 C-9.34 5 -8.68 5 -8 5 C-7.34 6.98 -6.68 8.96 -6 11 C-5.67 11 -5.34 11 -5 11 C-5 8.69 -5 6.38 -5 4 C-3.35 4 -1.7 4 0 4 C0 2.68 0 1.36 0 0 Z " fill="#656463" transform="translate(94,46)"/>
<path d="M0 0 C0.63 0.01 0.63 0.01 3.81 0.06 C4.44 2.44 4.44 2.44 4.81 5.06 C4.15 5.72 3.49 6.38 2.81 7.06 C5.72 8.32 7.61 9.06 10.81 9.06 C10.15 8.73 9.49 8.4 8.81 8.06 C9.14 7.4 9.47 6.74 9.81 6.06 C10.8 6.72 11.79 7.38 12.81 8.06 C12.81 8.72 12.81 9.38 12.81 10.06 C13.47 10.39 14.13 10.72 14.81 11.06 C11.06 14.12 7.73 16.06 2.81 16.06 C0.46 15.11 -1.87 14.11 -4.19 13.06 C-2.89 10.18 -1.53 8.19 0.81 6.06 C0.15 5.73 -0.51 5.4 -1.19 5.06 C-0.86 4.4 -0.53 3.74 -0.19 3.06 C-1.18 2.73 -2.17 2.4 -3.19 2.06 C-3.52 2.39 -3.85 2.72 -4.19 3.06 C-5.85 3.1 -7.52 3.11 -9.19 3.06 C-6.31 0.18 -3.9 -0.06 0 0 Z " fill="#DEC8AA" transform="translate(75.1875,12.9375)"/>
<path d="M0 0 C1.65 0.33 3.3 0.66 5 1 C4.81 1.76 4.63 2.53 4.44 3.31 C4 6 4 6 5 9 C8.06 10.69 8.06 10.69 11 12 C11 10.02 11 8.04 11 6 C12.32 6 13.64 6 15 6 C15.33 5.34 15.66 4.68 16 4 C16.99 4.33 17.98 4.66 19 5 C18.57 5.4 18.13 5.8 17.69 6.21 C14.28 9.7 12.58 11.95 12.62 16.94 C12.72 18.29 12.83 19.65 13 21 C11.02 20.67 9.04 20.34 7 20 C7 17.67 7 15.33 7 13 C6.34 13 5.68 13 5 13 C5 12.34 5 11.68 5 11 C4.01 11 3.02 11 2 11 C1.71 10.22 1.42 9.43 1.12 8.62 C0 6 0 6 -2 4 C-1.34 2.68 -0.68 1.36 0 0 Z " fill="#4A4A46" transform="translate(74,56)"/>
<path d="M0 0 C0.66 0.33 1.32 0.66 2 1 C2.34 3.21 2.34 3.21 2.5 5.94 C2.78 10.78 2.78 10.78 5 13 C4.62 15.12 4.62 15.12 4 17 C3.67 15.68 3.34 14.36 3 13 C2.38 13.21 1.76 13.41 1.12 13.62 C0.42 13.75 -0.28 13.87 -1 14 C-1.66 13.34 -2.32 12.68 -3 12 C-2.67 11.34 -2.34 10.68 -2 10 C-2.66 9.67 -3.32 9.34 -4 9 C-4 9.99 -4 10.98 -4 12 C-5.65 11.67 -7.3 11.34 -9 11 C-9 10.34 -9 9.68 -9 9 C-9.66 9 -10.32 9 -11 9 C-9.61 5.53 -8.34 4.32 -4.94 2.81 C-1.05 1.05 -1.05 1.05 0 0 Z " fill="#C1AF9A" transform="translate(90,23)"/>
<path d="M0 0 C11.98 1.98 11.98 1.98 15 5 C16.01 8.3 16.57 11.58 17 15 C15.04 14.16 15.04 14.16 13 13 C12.63 11.34 12.29 9.67 12 8 C8.22 5.48 7.32 6.17 3 7 C0.67 7.04 -1.67 7.05 -4 7 C-4.66 5.68 -5.32 4.36 -6 3 C-5 2 -5 2 -1.94 1.94 C-1.45 1.95 -1.45 1.95 1 2 C0.67 1.34 0.34 0.68 0 0 Z " fill="#D5C6B2" transform="translate(92,12)"/>
<path d="M0 0 C0.76 0.21 1.53 0.41 2.31 0.62 C2.64 2.61 2.97 4.59 3.31 6.62 C1.66 6.95 0.01 7.29 -1.69 7.62 C-1.36 9.61 -1.03 11.59 -0.69 13.62 C-0.03 13.62 0.63 13.62 1.31 13.62 C1.31 14.62 1.31 15.61 1.31 16.62 C-0.01 16.62 -1.33 16.62 -2.69 16.62 C-2.69 17.28 -2.69 17.95 -2.69 18.62 C-3.35 18.62 -4.01 18.62 -4.69 18.62 C-5.02 19.28 -5.35 19.95 -5.69 20.62 C-6.35 16.62 -7.02 12.62 -7.69 8.62 C-6.37 8.95 -5.05 9.29 -3.69 9.62 C-4.35 6.98 -5.01 4.34 -5.69 1.62 C-2.69 -0.38 -2.69 -0.38 0 0 Z " fill="#B6A490" transform="translate(102.6875,19.375)"/>
<path d="M0 0 C1.32 0.66 2.64 1.32 4 2 C3.12 8.75 3.12 8.75 2 11 C3.65 11 5.3 11 7 11 C6.36 11.27 5.72 11.54 5.06 11.81 C3 13 3 13 2 16 C-0.06 17.19 -0.06 17.19 -2 18 C-2 17.01 -2 16.02 -2 15 C-3.65 14.67 -5.3 14.34 -7 14 C-5.96 12.31 -4.92 10.61 -3.88 8.92 C-3 7 -3 7 -3 3 C-2.01 3 -1.02 3 0 3 C0 2.01 0 1.02 0 0 Z " fill="#A9A790" transform="translate(40,34)"/>
<path d="M0 0 C-0.23 1.13 -0.45 2.27 -0.69 3.44 C-1.27 7.83 -0.26 10.97 1.41 15.02 C2 17 2 17 1 20 C1 19.34 1 18.68 1 18 C0.01 18 -0.98 18 -2 18 C-2 17.01 -2 16.02 -2 15 C-2.99 14.67 -3.98 14.34 -5 14 C-5 13.34 -5 12.68 -5 12 C-6.32 12 -7.64 12 -9 12 C-8.52 10.54 -8.04 9.08 -7.56 7.62 C-7.3 6.81 -7.03 6 -6.75 5.16 C-6 3 -6 3 -5 1 C-2 0 -2 0 0 0 Z " fill="#777371" transform="translate(77,37)"/>
<path d="M0 0 C0.83 0.33 0.83 0.33 5 2 C4.67 2.99 4.34 3.98 4 5 C5.32 5 6.64 5 8 5 C9.48 7.96 9.06 10.74 9 14 C8.01 14.33 7.02 14.66 6 15 C5.57 14.53 5.13 14.05 4.69 13.56 C3 12 3 12 0 11 C-0.19 9.35 -0.38 7.71 -0.56 6.06 C-0.67 5.15 -0.77 4.23 -0.88 3.29 C-0.92 2.53 -0.96 1.78 -1 1 C-0.67 0.67 -0.34 0.34 0 0 Z " fill="#5E5E63" transform="translate(43,57)"/>
<path d="M0 0 C0.33 1.65 0.66 3.3 1 5 C-2.13 6.86 -4.37 7.2 -8 7 C-8.66 8.32 -9.32 9.64 -10 11 C-11.65 10.67 -13.3 10.34 -15 10 C-15.33 8.02 -15.66 6.04 -16 4 C-13.62 3.38 -13.62 3.38 -11 3 C-10.34 3.66 -9.68 4.32 -9 5 C-8.26 4.17 -7.52 3.35 -6.75 2.5 C-4 0 -4 0 0 0 Z " fill="#817F7C" transform="translate(118,60)"/>
<path d="M0 0 C0.66 0 1.32 0 2 0 C2 2.97 2 5.94 2 9 C0.02 9.33 -1.96 9.66 -4 10 C-4.2 10.63 -4.41 11.25 -4.62 11.9 C-4.89 12.72 -5.16 13.53 -5.44 14.38 C-5.7 15.19 -5.97 16 -6.25 16.84 C-7 19 -7 19 -8 21 C-6.68 21.33 -5.36 21.66 -4 22 C-5.98 22.73 -7.98 23.39 -10 24 C-10.66 23.67 -11.32 23.34 -12 23 C-11.49 20.37 -10.76 18.56 -9.44 16.19 C-7.8 12.55 -7.76 9.95 -8 6 C-5.36 6 -2.72 6 0 6 C0 4.02 0 2.04 0 0 Z " fill="#5C5C5F" transform="translate(76,28)"/>
<path d="M0 0 C1.98 0.66 3.96 1.32 6 2 C5.39 5.56 4.42 8.68 3 12 C-3.75 12.12 -3.75 12.12 -6 11 C-6 9.35 -6 7.7 -6 6 C-4.68 6 -3.36 6 -2 6 C-1.34 4.02 -0.68 2.04 0 0 Z " fill="#72767B" transform="translate(24,65)"/>
<path d="M0 0 C0.33 0.66 0.66 1.32 1 2 C1.66 2 2.32 2 3 2 C3.33 2.66 3.66 3.32 4 4 C4.99 3.67 5.98 3.34 7 3 C6.39 6.56 5.42 9.68 4 13 C2.35 13 0.7 13 -1 13 C-0.34 11.35 0.32 9.7 1 8 C-1.64 7.67 -4.28 7.34 -7 7 C-7 6.34 -7 5.68 -7 5 C-6.36 4.9 -5.72 4.79 -5.06 4.69 C-4.38 4.46 -3.7 4.23 -3 4 C-2.67 3.01 -2.34 2.02 -2 1 C-1.34 0.67 -0.68 0.34 0 0 Z " fill="#6F6C55" transform="translate(35,47)"/>
<path d="M0 0 C0.33 0.99 0.66 1.98 1 3 C-1.64 3 -4.28 3 -7 3 C-6.67 4.32 -6.34 5.64 -6 7 C-6.99 7 -7.98 7 -9 7 C-9.66 5.68 -10.32 4.36 -11 3 C-13.97 3 -16.94 3 -20 3 C-19.67 1.68 -19.34 0.36 -19 -1 C-12.18 -3.44 -6.66 -3.05 0 0 Z " fill="#66676B" transform="translate(61,77)"/>
<path d="M0 0 C0.66 0 1.32 0 2 0 C3.09 3.38 3.09 4.77 1.75 8.12 C0.31 10.5 -0.91 12.21 -3 14 C-5.31 13.34 -7.62 12.68 -10 12 C-9.34 11.34 -8.68 10.68 -8 10 C-8.38 7.88 -8.38 7.88 -9 6 C-7.35 6 -5.7 6 -4 6 C-3.34 4.68 -2.68 3.36 -2 2 C-1.34 2 -0.68 2 0 2 C0 1.34 0 0.68 0 0 Z " fill="#686B6D" transform="translate(66,36)"/>
<path d="M0 0 C0.99 0.33 1.98 0.66 3 1 C3 1.66 3 2.32 3 3 C5.87 2.43 6.86 2.14 9 0 C9 0.66 9 1.32 9 2 C9.99 2 10.98 2 12 2 C12.33 3.65 12.66 5.3 13 7 C7.14 9.2 3.96 8.88 -2 7 C-1.34 4.69 -0.68 2.38 0 0 Z " fill="#8D939D" transform="translate(29,75)"/>
<path d="M0 0 C0 2.31 0 4.62 0 7 C-3 7 -3 7 -6 6 C-6.33 6.5 -6.33 6.5 -8 9 C-8 8.34 -8 7.68 -8 7 C-9.32 6.67 -10.64 6.34 -12 6 C-12.33 4.68 -12.66 3.36 -13 2 C-8.22 -0.91 -5.45 -1.2 0 0 Z " fill="#6E7478" transform="translate(72,68)"/>
<path d="M0 0 C1.48 2.96 1.06 5.74 1 9 C-2.3 9 -5.6 9 -9 9 C-9 8.34 -9 7.68 -9 7 C-7.35 7 -5.7 7 -4 7 C-4 6.01 -4 5.02 -4 4 C-4.99 4 -5.98 4 -7 4 C-7.33 4.66 -7.66 5.32 -8 6 C-8 5.34 -8 4.68 -8 4 C-8.66 4 -9.32 4 -10 4 C-10 4.66 -10 5.32 -10 6 C-10.66 6 -11.32 6 -12 6 C-12 5.01 -12 4.02 -12 3 C-10.76 2.3 -9.51 1.61 -8.25 0.94 C-7.9 0.75 -7.9 0.75 -6.14 -0.22 C-3.61 -1.14 -2.46 -1.02 0 0 Z " fill="#8B8682" transform="translate(129,64)"/>
<path d="M0 0 C2.97 0.99 5.94 1.98 9 3 C9.25 5.81 9.25 5.81 9 9 C7.19 10.88 7.19 10.88 5 12 C4.01 12 3.02 12 2 12 C2 11.34 2 10.68 2 10 C2.66 10 3.32 10 4 10 C4 9.01 4 8.02 4 7 C3.01 6.83 3.01 6.83 -2 6 C-1.12 1.12 -1.12 1.12 0 0 Z " fill="#606268" transform="translate(88,65)"/>
<path d="M0 0 C2 2 2 2 3 5 C4.85 5.95 4.85 5.95 7.06 6.69 C7.8 6.94 8.53 7.19 9.29 7.45 C9.85 7.63 10.42 7.81 11 8 C7.69 9.65 4.21 8.47 0.63 7.96 C-2 8 -2 8 -3.72 9.48 C-4.14 9.98 -4.57 10.48 -5 11 C-5.66 11 -6.32 11 -7 11 C-7.33 8.03 -7.66 5.06 -8 2 C-7.34 2 -6.68 2 -6 2 C-5.34 3.32 -4.68 4.64 -4 6 C-3.67 4.35 -3.34 2.7 -3 1 C-2.01 0.67 -1.02 0.34 0 0 Z " fill="#756E5C" transform="translate(103,50)"/>
<path d="M0 0 C0.66 0.33 1.32 0.66 2 1 C2 2.98 2 4.96 2 7 C1.37 7.19 0.75 7.39 0.1 7.59 C-0.72 7.85 -1.53 8.11 -2.38 8.38 C-3.19 8.63 -4 8.89 -4.84 9.15 C-7 10 -7 10 -9 12 C-11.12 11.62 -11.12 11.62 -13 11 C-12.67 8.69 -12.34 6.38 -12 4 C-9.67 4 -7.33 4 -5 4 C-3.33 3.69 -1.66 3.36 0 3 C0 2.01 0 1.02 0 0 Z " fill="#606252" transform="translate(77,70)"/>
<path d="M0 0 C5.75 -0.12 5.75 -0.12 8 1 C9.88 0.91 11.75 0.76 13.62 0.56 C14.13 0.51 14.13 0.51 16.66 0.25 C17.05 0.21 17.05 0.21 19 0 C19 0.66 19 1.32 19 2 C16.36 2.33 13.72 2.66 11 3 C10.67 4.32 10.34 5.64 10 7 C-0.56 8.33 -0.56 8.33 -5 7 C-5 6.67 -5 6.34 -5 6 C-3.52 5.83 -3.52 5.83 4 5 C3.67 4.77 3.67 4.77 2 3.62 C1.34 3.09 0.68 2.55 0 2 C0 1.34 0 0.68 0 0 Z " fill="#CFC9C2" transform="translate(71,79)"/>
<path d="M0 0 C0.99 0 1.98 0 3 0 C3 0.99 3 1.98 3 3 C2.34 3 1.68 3 1 3 C1 3.66 1 4.32 1 5 C0.34 5 -0.32 5 -1 5 C-1.33 7.97 -1.66 10.94 -2 14 C-2.66 14 -3.32 14 -4 14 C-4.33 14.99 -4.66 15.98 -5 17 C-6.98 16.34 -8.96 15.68 -11 15 C-11 14.01 -11 13.02 -11 12 C-10.34 12 -9.68 12 -9 12 C-9.33 9.69 -9.66 7.38 -10 5 C-9.34 5 -8.68 5 -8 5 C-7.34 6.98 -6.68 8.96 -6 11 C-5.67 11 -5.34 11 -5 11 C-5 8.69 -5 6.38 -5 4 C-3.35 4 -1.7 4 0 4 C0 2.68 0 1.36 0 0 Z " fill="#767371" transform="translate(94,46)"/>
<path d="M0 0 C1.65 0 3.3 0 5 0 C5 1.65 5 3.3 5 5 C1.7 5 -1.6 5 -5 5 C-5 6.32 -5 7.64 -5 9 C-5.66 9 -6.32 9 -7 9 C-7 9.66 -7 10.32 -7 11 C-8.65 11.33 -10.3 11.66 -12 12 C-11.4 8.63 -10.48 6.4 -8 4 C-4.31 3.25 -4.31 3.25 -1 3 C-0.67 2.01 -0.34 1.02 0 0 Z " fill="#9B9578" transform="translate(112,72)"/>
<path d="M0 0 C0.25 0.64 0.5 1.28 0.75 1.94 C2 4 2 4 4.12 4.75 C4.74 4.83 5.36 4.91 6 5 C5.01 5 4.02 5 3 5 C3 6.98 3 8.96 3 11 C2.01 10.67 1.02 10.34 0 10 C0 8.68 0 7.36 0 6 C-0.66 6 -1.32 6 -2 6 C-1.67 8.97 -1.34 11.94 -1 15 C-2.32 15.33 -3.64 15.66 -5 16 C-6.03 11.59 -6.04 9.07 -4 5 C-3.34 5 -2.68 5 -2 5 C-2 4.34 -2 3.68 -2 3 C-1.34 3 -0.68 3 0 3 C0 2.01 0 1.02 0 0 Z " fill="#8F846C" transform="translate(97,46)"/>
<path d="M0 0 C1.48 0.33 1.48 0.33 9 2 C8.67 4.31 8.34 6.62 8 9 C4.71 9.8 3.29 10.1 0 9 C0.02 8.2 0.04 7.39 0.06 6.56 C0 4 0 4 -1 3 C-0.67 2.01 -0.34 1.02 0 0 Z " fill="#6D6D71" transform="translate(68,25)"/>
<path d="M0 0 C0.66 0 1.32 0 2 0 C2 0.66 2 1.32 2 2 C2.66 2 3.32 2 4 2 C5.12 5.75 5.12 5.75 4 8 C6.64 9.32 9.28 10.64 12 12 C12 12.33 12 12.66 12 13 C10.27 13.22 8.54 13.43 6.81 13.62 C5.85 13.74 4.89 13.86 3.89 13.98 C0.76 14 -1.19 13.34 -4 12 C-0.25 10 -0.25 10 2 10 C1.62 7.06 1.62 7.06 1 4 C0.34 3.67 -0.32 3.34 -1 3 C-0.67 2.01 -0.34 1.02 0 0 Z " fill="#888668" transform="translate(77,67)"/>
<path d="M0 0 C0.41 2.29 0.41 2.29 0.62 5.06 C0.7 5.98 0.77 6.9 0.85 7.85 C0.9 8.56 0.95 9.27 1 10 C-0.98 10 -2.96 10 -5 10 C-6.76 6.91 -7 5.77 -7 2 C-7.66 1.67 -8.32 1.34 -9 1 C-2.25 -1.12 -2.25 -1.12 0 0 Z " fill="#877D76" transform="translate(69,53)"/>
<path d="M0 0 C2.24 3.36 2 4.16 2 8 C3 10.81 3 10.81 4 13 C1.03 13.66 -1.94 14.32 -5 15 C-5.2 11.28 -5.15 10.23 -3 7 C-2.83 6.15 -2.67 5.31 -2.5 4.44 C-2 2 -2 2 0 0 Z " fill="#DBC7B1" transform="translate(109,27)"/>
<path d="M0 0 C2.43 1.21 3.96 2.02 5.5 4.25 C5.19 6.44 5.19 6.44 4.5 8.25 C4.17 7.59 3.84 6.93 3.5 6.25 C-0.2 7.14 -3.85 8.2 -7.5 9.25 C-7.25 7.77 -6.97 6.29 -6.69 4.81 C-6.54 3.99 -6.39 3.17 -6.23 2.32 C-5.99 1.63 -5.75 0.95 -5.5 0.25 C-2.5 -0.75 -2.5 -0.75 0 0 Z " fill="#CEBFAE" transform="translate(124.5,57.75)"/>
<path d="M0 0 C3.69 0.5 5.6 1.1 8 4 C6.35 4.66 4.7 5.32 3 6 C3 6.66 3 7.32 3 8 C-0.95 7.45 -4.35 6.61 -8 5 C-8 4.01 -8 3.02 -8 2 C-4.7 2.33 -1.4 2.66 2 3 C2 2.34 2 1.68 2 1 C1.34 0.67 0.68 0.34 0 0 Z " fill="#DCC8B1" transform="translate(59,49)"/>
<path d="M0 0 C0.66 0.33 1.32 0.66 2 1 C2.33 1.99 2.66 2.98 3 4 C4.75 4.03 6.5 4.05 8.25 4.06 C9.22 4.07 10.2 4.09 11.2 4.1 C13.66 4.01 15.66 3.71 18 3 C15.73 5.79 14.65 6.92 11.02 7.39 C9.96 7.34 8.9 7.3 7.81 7.25 C6.75 7.21 5.68 7.18 4.58 7.14 C4.16 7.12 4.16 7.12 2 7 C1.67 7 1.34 7 1 7 C1.33 7.66 1.66 8.32 2 9 C-1.72 8.49 -4.73 7.88 -8 6 C-7.34 5.67 -6.68 5.34 -6 5 C-5.01 5.33 -4.02 5.66 -3 6 C-3 5.34 -3 4.68 -3 4 C-2.34 3.67 -1.68 3.34 -1 3 C-0.67 2.01 -0.34 1.02 0 0 Z " fill="#E8D5BC" transform="translate(85,14)"/>
<path d="M0 0 C2 1 2 1 2 1 Z " fill="#F6F6F4" transform="translate(84,82)"/>
</svg>
