<?xml version="1.0" encoding="UTF-8"?>
<!-- Generator: visioncortex VTracer 0.6.12 -->
<svg version="1.1" xmlns="http://www.w3.org/2000/svg" width="121" height="95">
<path d="M0 0 C2.02 1.64 4.02 3.31 6 5 C8.57 6.17 11.17 7.16 13.83 8.11 C16 9 16 9 18 11 C18.68 13 19.35 15 20 17 C20.33 17.49 20.33 17.49 22 20 C22.32 22.45 22.32 22.45 22.41 25.32 C22.45 26.35 22.49 27.38 22.53 28.44 C22.56 29.51 22.59 30.58 22.62 31.69 C22.66 32.77 22.7 33.85 22.74 34.97 C22.84 37.65 22.92 40.32 23 43 C26.3 43.99 29.6 44.98 33 46 C33.46 48.31 33.91 50.62 34.37 52.93 C34.47 53.27 34.47 53.27 35 55 C35.66 55.33 36.32 55.66 37 56 C36 59 36 59 33.75 60.19 C31 61 28.85 61.16 26 61 C26 61.66 26 62.32 26 63 C23.13 64.43 20.63 64.09 17.44 64.06 C16.26 64.05 15.08 64.04 13.87 64.04 C12.92 64.02 11.98 64.01 11 64 C10.67 64 10.34 64 10 64 C10.5 64.33 10.5 64.33 13 66 C13 66.99 13 67.98 13 69 C10.63 70.19 8.83 70.24 6.19 70.44 C3.2 70.7 1.09 70.96 -1.69 72.12 C-5.07 73.4 -7.48 72.7 -11 72 C-11.79 71.87 -12.57 71.75 -13.38 71.62 C-14.18 71.48 -14.99 71.33 -15.81 71.19 C-16.56 71.06 -17.31 70.93 -18.08 70.79 C-20 70 -20 70 -21.26 67.93 C-21.51 67.29 -21.75 66.65 -22 66 C-22.95 66.1 -23.91 66.19 -24.89 66.29 C-26.14 66.4 -27.4 66.51 -28.69 66.62 C-29.31 66.68 -29.31 66.68 -32.45 66.98 C-35.98 67 -37.83 66.37 -41 65 C-41.49 65.16 -41.49 65.16 -44 66 C-46.04 65.44 -46.04 65.44 -48.19 64.56 C-48.9 64.28 -49.62 63.99 -50.36 63.69 C-50.63 63.58 -50.63 63.58 -52 63 C-51.67 61.35 -51.34 59.7 -51 58 C-50.34 58 -49.68 58 -49 58 C-48.67 57.34 -48.34 56.68 -48 56 C-48.95 56.08 -49.9 56.16 -50.88 56.25 C-56.01 56.29 -60.4 54.07 -65 52 C-64.67 51.01 -64.34 50.02 -64 49 C-63.67 48.84 -63.67 48.84 -62 48 C-61.53 46.41 -61.12 44.8 -60.75 43.19 C-59.66 39.34 -59.18 38.17 -56.12 35.38 C-53 34 -51.33 33.88 -48 34 C-47.83 33.2 -47.66 32.41 -47.48 31.59 C-44.44 18.3 -44.44 18.3 -38 14 C-35.31 13.88 -35.31 13.88 -33 14 C-32.83 13.4 -32.66 12.79 -32.48 12.17 C-30.32 5.04 -27.73 1.4 -20.98 -2.24 C-14.21 -4.85 -6.41 -2.78 0 0 Z " fill="#73736E" transform="translate(75,13)"/>
<path d="M0 0 C2.02 1.64 4.02 3.31 6 5 C8.57 6.17 11.17 7.16 13.83 8.11 C16 9 16 9 18 11 C18.68 13 19.35 15 20 17 C20.33 17.49 20.33 17.49 22 20 C22.32 22.45 22.32 22.45 22.41 25.32 C22.45 26.35 22.49 27.38 22.53 28.44 C22.56 29.51 22.59 30.58 22.62 31.69 C22.66 32.77 22.7 33.85 22.74 34.97 C22.84 37.65 22.92 40.32 23 43 C26.3 43.99 29.6 44.98 33 46 C33.46 48.31 33.91 50.62 34.37 52.93 C34.47 53.27 34.47 53.27 35 55 C35.66 55.33 36.32 55.66 37 56 C36 59 36 59 33.75 60.19 C31 61 28.85 61.16 26 61 C26 61.66 26 62.32 26 63 C23.13 64.43 20.63 64.09 17.44 64.06 C16.26 64.05 15.08 64.04 13.87 64.04 C12.92 64.02 11.98 64.01 11 64 C10.67 64 10.34 64 10 64 C10.99 64.66 11.98 65.32 13 66 C13 66.99 13 67.98 13 69 C10.63 70.19 8.83 70.24 6.19 70.44 C3.2 70.7 1.09 70.96 -1.69 72.12 C-5.07 73.4 -7.48 72.7 -11 72 C-11.79 71.87 -12.57 71.75 -13.38 71.62 C-14.18 71.48 -14.99 71.33 -15.81 71.19 C-16.56 71.06 -17.31 70.93 -18.08 70.79 C-20 70 -20 70 -21.26 67.93 C-21.51 67.29 -21.75 66.65 -22 66 C-22.95 66.1 -23.91 66.19 -24.89 66.29 C-26.14 66.4 -27.4 66.51 -28.69 66.62 C-29.93 66.74 -31.17 66.86 -32.45 66.98 C-35.98 67 -37.83 66.37 -41 65 C-41.5 65.16 -41.5 65.16 -44 66 C-46.04 65.44 -46.04 65.44 -48.19 64.56 C-48.55 64.42 -48.55 64.42 -50.36 63.69 C-50.9 63.46 -51.44 63.24 -52 63 C-51.67 61.35 -51.34 59.7 -51 58 C-50.01 58 -49.02 58 -48 58 C-47.67 59.98 -47.34 61.96 -47 64 C-40.25 62.25 -40.25 62.25 -38 60 C-37.01 60 -36.02 60 -35 60 C-35 61.98 -35 63.96 -35 66 C-34.41 65.84 -34.41 65.84 -31.44 65 C-27.5 64 -24.05 63.83 -20 64 C-19.67 65.32 -19.34 66.64 -19 68 C-16.69 68 -14.38 68 -12 68 C-11.84 67.5 -11.84 67.5 -11 65 C-9 65 -7 65 -5 65 C-5 65.66 -5 66.32 -5 67 C-2.69 66.67 -0.38 66.34 2 66 C2 65.01 2 64.02 2 63 C1.3 63.02 0.6 63.05 -0.12 63.07 C-1.03 63.09 -1.94 63.11 -2.88 63.12 C-3.78 63.15 -4.68 63.17 -5.62 63.2 C-8 63 -8 63 -10 61 C-12.63 60.38 -12.63 60.38 -15 60 C-15 59.01 -15 58.02 -15 57 C-10.84 55.7 -7.35 54.88 -3 55 C-3.01 54 -3.02 53 -3.04 51.97 C-3.04 50.68 -3.05 49.39 -3.06 48.06 C-3.07 46.77 -3.09 45.49 -3.1 44.16 C-3 41 -3 41 -2 40 C-1.93 38.31 -1.92 36.62 -1.94 34.94 C-1.95 34.02 -1.96 33.1 -1.96 32.15 C-1.98 31.44 -1.99 30.73 -2 30 C-2.66 30 -3.32 30 -4 30 C-4.66 29.01 -5.32 28.02 -6 27 C-6.99 26.67 -7.98 26.34 -9 26 C-9 24.68 -9 23.36 -9 22 C-9.66 21.67 -10.32 21.34 -11 21 C-11 20.34 -11 19.68 -11 19 C-10.41 19.01 -9.82 19.02 -9.21 19.04 C-5 19.08 -1.11 19.06 3 18 C3.33 16.68 3.66 15.36 4 14 C5.65 14 7.3 14 9 14 C9 12.68 9 11.36 9 10 C7 9.96 5 9.96 3 10 C2.67 10.33 2.34 10.66 2 11 C1.37 11.04 1.37 11.04 -1.81 11.25 C-5.35 11.62 -5.8 11.79 -8.38 14.56 C-8.91 15.37 -9.45 16.17 -10 17 C-10.66 17 -11.32 17 -12 17 C-12 15.68 -12 14.36 -12 13 C-12.61 12.95 -13.23 12.9 -13.86 12.85 C-14.67 12.78 -15.48 12.7 -16.31 12.62 C-17.11 12.56 -17.91 12.49 -18.74 12.41 C-21 12 -21 12 -24 10 C-24 9.34 -24 8.68 -24 8 C-22.02 8 -20.04 8 -18 8 C-18.16 7.34 -18.16 7.34 -19 4 C-20.65 4 -22.3 4 -24 4 C-24 4.99 -24 5.98 -24 7 C-25.98 7 -27.96 7 -30 7 C-29.42 4.09 -28.51 2.41 -26.18 0.55 C-17.47 -4.76 -9.21 -3.99 0 0 Z " fill="#938B7A" transform="translate(75,13)"/>
<path d="M0 0 C0 1.32 0 2.64 0 4 C-1.98 4 -3.96 4 -6 4 C-5.01 4.99 -4.02 5.98 -3 7 C-4 10.79 -4.81 13.72 -7 17 C-7.66 17 -8.32 17 -9 17 C-9 15.68 -9 14.36 -9 13 C-9.6 13.49 -10.2 13.99 -10.81 14.5 C-13 16 -13 16 -16 16 C-16 17.32 -16 18.64 -16 20 C-16.66 20 -17.32 20 -18 20 C-18 20.66 -18 21.32 -18 22 C-18.66 22 -19.32 22 -20 22 C-19.67 23.65 -19.34 25.3 -19 27 C-20.98 27 -22.96 27 -25 27 C-25.12 27.64 -25.25 28.28 -25.38 28.94 C-25.48 29.28 -25.48 29.28 -26 31 C-26.33 31.16 -26.33 31.16 -28 32 C-27.67 33.65 -27.34 35.3 -27 37 C-27.99 37.66 -28.98 38.32 -30 39 C-29.93 39.63 -29.86 40.25 -29.78 40.9 C-29.69 41.72 -29.6 42.53 -29.5 43.38 C-29.41 44.19 -29.31 45 -29.22 45.84 C-29 48 -29 48 -29 50 C-28.61 49.05 -28.22 48.1 -27.81 47.12 C-26 44 -26 44 -23.75 42.62 C-17.31 41.16 -12.68 41.88 -7 45 C-5.56 47.19 -5.56 47.19 -5 49 C-5.66 49 -6.32 49 -7 49 C-7 49.99 -7 50.98 -7 52 C-6.01 52 -5.02 52 -4 52 C-4 52.99 -4 53.98 -4 55 C-1.69 54.67 0.62 54.34 3 54 C3 54.66 3 55.32 3 56 C3.39 55.98 3.39 55.98 5.38 55.88 C8 56 8 56 10 58 C12.38 58.41 12.38 58.41 15.12 58.62 C16.04 58.7 16.95 58.77 17.88 58.85 C18.58 58.9 19.28 58.95 20 59 C20 59.99 20 60.98 20 62 C18.84 62.16 18.84 62.16 13 63 C13 62.34 13 61.68 13 61 C12.34 61 11.68 61 11 61 C10.84 61.33 10.84 61.33 10 63 C9.01 62.67 8.02 62.34 7 62 C6.61 62.5 6.22 62.99 5.81 63.5 C3.45 65.46 1.99 65.24 -1 65 C-1.33 63.35 -1.66 61.7 -2 60 C-2.75 60.14 -3.5 60.29 -4.27 60.44 C-4.76 60.53 -4.76 60.53 -7.25 61 C-8.22 61.19 -9.2 61.37 -10.2 61.56 C-13 62 -13 62 -17 62 C-17 60.02 -17 58.04 -17 56 C-18.05 56.66 -19.1 57.32 -20.19 58 C-23.27 59.78 -25.39 60.44 -29 60 C-29.33 57.36 -29.66 54.72 -30 52 C-30.95 52.08 -31.9 52.16 -32.88 52.25 C-38.01 52.29 -42.4 50.07 -47 48 C-46.67 47.01 -46.34 46.02 -46 45 C-45.67 44.84 -45.67 44.84 -44 44 C-43.53 42.41 -43.12 40.8 -42.75 39.19 C-41.66 35.34 -41.18 34.17 -38.12 31.38 C-35 30 -33.33 29.88 -30 30 C-29.83 29.2 -29.66 28.41 -29.48 27.59 C-26.44 14.3 -26.44 14.3 -20 10 C-17.31 9.88 -17.31 9.88 -15 10 C-14.34 7.69 -13.68 5.38 -13 3 C-8.25 1.88 -8.25 1.88 -6 3 C-6 2.01 -6 1.02 -6 0 C-3.51 -1.25 -2.59 -0.78 0 0 Z " fill="#80817E" transform="translate(57,17)"/>
<path d="M0 0 C0.99 0.33 1.98 0.66 3 1 C3 3.31 3 5.62 3 8 C3.66 8 4.32 8 5 8 C5.33 9.65 5.66 11.3 6 13 C7.32 12.34 8.64 11.68 10 11 C10.33 12.32 10.66 13.64 11 15 C9.68 15 8.36 15 7 15 C7 15.66 7 16.32 7 17 C7.76 17.12 8.53 17.25 9.31 17.38 C12 18 12 18 15 20 C15.33 19.34 15.66 18.68 16 18 C16.99 18.66 17.98 19.32 19 20 C19 19.34 19 18.68 19 18 C19.66 18 20.32 18 21 18 C21 17.34 21 16.68 21 16 C21.66 15.67 22.32 15.34 23 15 C22.92 13.8 22.84 12.61 22.75 11.38 C22.73 6.92 24.19 4.49 27 1 C28 0 28 0 30.56 -0.06 C30.96 -0.05 30.96 -0.05 33 0 C33.16 0.49 33.16 0.49 34 3 C34.66 3 35.32 3 36 3 C37.16 6.49 37.14 9.34 37 13 C36.67 13.33 36.34 13.66 36 14 C35.76 16.35 35.59 18.71 35.44 21.06 C35.35 22.35 35.27 23.64 35.18 24.97 C35.15 25.47 35.15 25.47 35 28 C34.15 28.2 33.29 28.41 32.41 28.62 C31.31 28.89 30.2 29.16 29.06 29.44 C27.96 29.7 26.86 29.97 25.72 30.25 C23 31 23 31 22 32 C20 32.04 18 32.04 16 32 C16 31.01 16 30.02 16 29 C15.01 29 14.02 29 13 29 C13 28.01 13 27.02 13 26 C13.66 26 14.32 26 15 26 C13.34 23.24 12.22 22.1 9.25 20.75 C3.94 19.52 -1.21 19.07 -6 22 C-7.81 25.12 -7.81 25.12 -9 28 C-9.99 25.03 -10 23.09 -10 20 C-10.29 18.66 -10.61 17.32 -11 16 C-10.01 15.34 -9.02 14.68 -8 14 C-8.33 12.35 -8.66 10.7 -9 9 C-8.01 8.67 -7.02 8.34 -6 8 C-5.31 5.94 -5.31 5.94 -5 4 C-3.02 4 -1.04 4 1 4 C0.67 2.68 0.34 1.36 0 0 Z " fill="#5B5D5D" transform="translate(37,40)"/>
<path d="M0 0 C2.02 1.64 4.02 3.31 6 5 C8.57 6.17 11.17 7.16 13.83 8.11 C16 9 16 9 18 11 C18.68 13 19.35 15 20 17 C20.66 17.99 21.32 18.98 22 20 C22.14 22.6 22.19 25.09 22.12 27.69 C22.12 28.39 22.11 29.09 22.1 29.81 C22.07 31.54 22.04 33.27 22 35 C21.67 35 21.34 35 21 35 C21 30.38 21 25.76 21 21 C18.72 21.26 16.44 21.52 14.16 21.78 C12 22 12 22 10 22 C10.66 22.33 11.32 22.66 12 23 C11.25 24.94 11.25 24.94 10 27 C7.88 27.75 7.88 27.75 6 28 C6.99 27.01 7.98 26.02 9 25 C7.68 24.67 6.36 24.34 5 24 C4.91 24.32 4.91 24.32 4.44 25.94 C3 28 3 28 -0.31 28.94 C-4.35 29.01 -5.98 28.65 -9 26 C-9 24.68 -9 23.36 -9 22 C-9.66 21.67 -10.32 21.34 -11 21 C-11 20.34 -11 19.68 -11 19 C-10.7 19.01 -10.7 19.01 -9.21 19.04 C-5 19.08 -1.11 19.06 3 18 C3.33 16.68 3.66 15.36 4 14 C5.65 14 7.3 14 9 14 C9 12.68 9 11.36 9 10 C7 9.96 5 9.96 3 10 C2.67 10.33 2.34 10.66 2 11 C1.37 11.04 1.37 11.04 -1.81 11.25 C-5.35 11.62 -5.8 11.79 -8.38 14.56 C-8.91 15.37 -9.45 16.17 -10 17 C-10.66 17 -11.32 17 -12 17 C-12 15.68 -12 14.36 -12 13 C-12.61 12.95 -13.23 12.9 -13.86 12.85 C-14.67 12.78 -15.48 12.7 -16.31 12.62 C-16.71 12.59 -16.71 12.59 -18.74 12.41 C-21 12 -21 12 -24 10 C-24 9.34 -24 8.68 -24 8 C-22.02 8 -20.04 8 -18 8 C-18.33 6.68 -18.66 5.36 -19 4 C-20.65 4 -22.3 4 -24 4 C-24 4.99 -24 5.98 -24 7 C-25.98 7 -27.96 7 -30 7 C-29.42 4.09 -28.51 2.41 -26.18 0.55 C-17.47 -4.76 -9.21 -3.99 0 0 Z " fill="#D8BE9D" transform="translate(75,13)"/>
<path d="M0 0 C0.66 0 1.32 0 2 0 C2.33 1.98 2.66 3.96 3 6 C4.32 6 5.64 6 7 6 C7.12 8.88 7.12 8.88 7 12 C6.34 12.66 5.68 13.32 5 14 C4.01 14 3.02 14 2 14 C2.33 15.32 2.66 16.64 3 18 C3.66 17.34 4.32 16.68 5 16 C5.99 16.66 6.98 17.32 8 18 C8 19.32 8 20.64 8 22 C8.66 22 9.32 22 10 22 C10.33 22.99 10.66 23.98 11 25 C10.01 25.99 9.02 26.98 8 28 C9.32 28 10.64 28 12 28 C12 28.66 12 29.32 12 30 C12.66 30 13.32 30 14 30 C14 29.34 14 28.68 14 28 C15.98 27.34 17.96 26.68 20 26 C20 27.98 20 29.96 20 32 C19.17 32.16 19.17 32.16 15 33 C15 33.99 15 34.98 15 36 C15.66 36.33 16.32 36.66 17 37 C12.05 37.33 7.1 37.66 2 38 C2 37.01 2 36.02 2 35 C3.32 33.98 4.65 32.98 6 32 C6.33 31.01 6.66 30.02 7 29 C3.04 29 -0.92 29 -5 29 C-4.34 30.98 -3.68 32.96 -3 35 C-4.16 35.16 -4.16 35.16 -10 36 C-10.66 35.01 -11.32 34.02 -12 33 C-11.34 33 -10.68 33 -10 33 C-10 31.35 -10 29.7 -10 28 C-11.32 27.67 -12.64 27.34 -14 27 C-12.8 24.51 -11.55 22.32 -10 20 C-10.38 17.31 -10.38 17.31 -11 15 C-10.2 14.88 -9.39 14.75 -8.56 14.62 C-7.72 14.42 -6.87 14.21 -6 14 C-5.67 13.34 -5.34 12.68 -5 12 C-3.68 12 -2.36 12 -1 12 C-1.33 13.98 -1.66 15.96 -2 18 C-1.34 18 -0.68 18 0 18 C0.33 15.03 0.66 12.06 1 9 C0.34 9 -0.32 9 -1 9 C-1.12 2.25 -1.12 2.25 0 0 Z " fill="#827A6A" transform="translate(88,36)"/>
<path d="M0 0 C0 1.32 0 2.64 0 4 C-1.98 4 -3.96 4 -6 4 C-5.01 4.99 -4.02 5.98 -3 7 C-4 10.79 -4.81 13.72 -7 17 C-7.66 17 -8.32 17 -9 17 C-9 15.68 -9 14.36 -9 13 C-9.6 13.49 -10.2 13.99 -10.81 14.5 C-13 16 -13 16 -16 16 C-16 17.32 -16 18.64 -16 20 C-16.66 20 -17.32 20 -18 20 C-18 20.66 -18 21.32 -18 22 C-18.66 22 -19.32 22 -20 22 C-19.67 23.65 -19.34 25.3 -19 27 C-20.98 27 -22.96 27 -25 27 C-25.12 27.64 -25.25 28.28 -25.38 28.94 C-25.58 29.62 -25.79 30.3 -26 31 C-26.33 31.16 -26.33 31.16 -28 32 C-27.67 33.65 -27.34 35.3 -27 37 C-28.98 37.99 -30.96 38.98 -33 40 C-34.5 38.62 -34.5 38.62 -36 37 C-36 36.34 -36 35.68 -36 35 C-36.83 35.16 -36.83 35.16 -41 36 C-40.04 33.59 -39.35 32.24 -37.19 30.75 C-34.68 29.89 -32.63 29.95 -30 30 C-29.91 29.6 -29.91 29.6 -29.48 27.59 C-26.44 14.3 -26.44 14.3 -20 10 C-17.31 9.88 -17.31 9.88 -15 10 C-14.34 7.69 -13.68 5.38 -13 3 C-8.25 1.88 -8.25 1.88 -6 3 C-6 2.01 -6 1.02 -6 0 C-3.51 -1.25 -2.59 -0.78 0 0 Z " fill="#7E8286" transform="translate(57,17)"/>
<path d="M0 0 C0.99 0.16 0.99 0.16 6 1 C5.67 1.49 5.67 1.49 4 4 C5.32 3.34 6.64 2.68 8 2 C8 4.31 8 6.62 8 9 C8.66 9 9.32 9 10 9 C10.12 15.75 10.12 15.75 9 18 C8.34 18 7.68 18 7 18 C7.33 16.02 7.66 14.04 8 12 C6.68 12 5.36 12 4 12 C3.67 13.32 3.34 14.64 3 16 C3 15.34 3 14.68 3 14 C1.68 14.33 0.36 14.66 -1 15 C-0.73 15.87 -0.46 16.73 -0.19 17.62 C0.02 21.33 -0.18 21.71 -2.44 24.38 C-3.28 25.24 -4.13 26.11 -5 27 C-3.35 27 -1.7 27 0 27 C-0.32 29 -0.65 31 -1 33 C-1.12 33.74 -1.25 34.48 -1.38 35.25 C-2 37 -2 37 -5 39 C-10.25 39.34 -14.06 38.98 -19 37 C-19 36.01 -19 35.02 -19 34 C-14.84 32.7 -11.35 31.88 -7 32 C-7.01 31 -7.02 30 -7.04 28.97 C-7.04 27.68 -7.05 26.39 -7.06 25.06 C-7.07 23.77 -7.09 22.49 -7.1 21.16 C-7 18 -7 18 -6 17 C-5.93 15.31 -5.92 13.62 -5.94 11.94 C-5.94 11.48 -5.94 11.48 -5.96 9.15 C-5.98 8.44 -5.99 7.73 -6 7 C-6.66 6.67 -7.32 6.34 -8 6 C-5.36 5.01 -2.72 4.02 0 3 C0 2.01 0 1.02 0 0 Z " fill="#9E9284" transform="translate(79,36)"/>
<path d="M0 0 C5.75 1.75 5.75 1.75 8 4 C8.68 6 9.35 8 10 10 C10.33 10.5 10.33 10.5 12 13 C12.14 15.6 12.19 18.09 12.12 20.69 C12.12 21.39 12.11 22.09 12.1 22.81 C12.07 24.54 12.04 26.27 12 28 C11.67 28 11.34 28 11 28 C11 23.38 11 18.76 11 14 C9.86 14.13 9.86 14.13 4.16 14.78 C2 15 2 15 0 15 C0.66 15.33 1.32 15.66 2 16 C1.25 17.94 1.25 17.94 0 20 C-2.13 20.75 -2.13 20.75 -4 21 C-3.01 20.01 -2.02 19.02 -1 18 C-2.32 17.67 -3.64 17.34 -5 17 C-5.19 17.64 -5.37 18.28 -5.56 18.94 C-7 21 -7 21 -10.31 21.94 C-14.35 22.01 -15.98 21.65 -19 19 C-19 17.68 -19 16.36 -19 15 C-19.66 14.67 -20.32 14.34 -21 14 C-21 13.34 -21 12.68 -21 12 C-20.7 12.01 -20.7 12.01 -19.21 12.04 C-15 12.08 -11.11 12.06 -7 11 C-6.67 9.68 -6.34 8.36 -6 7 C-4.35 6.67 -2.7 6.34 -1 6 C-0.67 4.02 -0.34 2.04 0 0 Z " fill="#E0CBB2" transform="translate(85,20)"/>
<path d="M0 0 C0.4 0.01 0.4 0.01 2.44 0.06 C2.77 1.05 3.1 2.04 3.44 3.06 C4.1 3.06 4.76 3.06 5.44 3.06 C6.6 6.56 6.57 9.4 6.44 13.06 C6.11 13.39 5.78 13.72 5.44 14.06 C5.2 16.41 5.02 18.77 4.88 21.12 C4.79 22.42 4.71 23.71 4.62 25.04 C4.56 26.03 4.5 27.03 4.44 28.06 C2.13 28.39 -0.18 28.72 -2.56 29.06 C-2.89 28.07 -3.22 27.08 -3.56 26.06 C-4.22 26.06 -4.88 26.06 -5.56 26.06 C-5.89 27.05 -6.22 28.04 -6.56 29.06 C-7.22 29.06 -7.88 29.06 -8.56 29.06 C-7.9 26.42 -7.24 23.78 -6.56 21.06 C-7.22 21.06 -7.88 21.06 -8.56 21.06 C-8.56 21.72 -8.56 22.38 -8.56 23.06 C-9.22 23.06 -9.88 23.06 -10.56 23.06 C-10.23 21.74 -9.9 20.42 -9.56 19.06 C-7.91 19.06 -6.26 19.06 -4.56 19.06 C-4.74 18.18 -4.92 17.3 -5.11 16.39 C-5.32 15.23 -5.53 14.07 -5.75 12.88 C-5.97 11.73 -6.19 10.58 -6.42 9.39 C-6.58 5.55 -5.85 4.09 -3.56 1.06 C-2.56 0.06 -2.56 0.06 0 0 Z " fill="#585A57" transform="translate(67.5625,39.9375)"/>
<path d="M0 0 C2.01 0.29 4.01 0.62 6 1 C6 2.32 6 3.64 6 5 C4.35 5 2.7 5 1 5 C0.67 6.65 0.34 8.3 0 10 C-9.41 11.33 -9.41 11.33 -14 10 C-14 10.66 -14 11.32 -14 12 C-13.01 12.33 -12.02 12.66 -11 13 C-11.33 14.32 -11.66 15.64 -12 17 C-11.01 17.33 -10.02 17.66 -9 18 C-9.76 18.23 -10.53 18.45 -11.31 18.69 C-14 20 -14 20 -15.56 22.62 C-16.04 23.41 -16.51 24.19 -17 25 C-18.32 25 -19.64 25 -21 25 C-24 18.5 -24 18.5 -24 14 C-18.38 11 -18.38 11 -15 11 C-15 10.01 -15 9.02 -15 8 C-12.56 5.38 -12.56 5.38 -10 3 C-9.67 2.67 -9.34 2.34 -9 2 C-6.94 1.68 -4.88 1.49 -2.81 1.28 C-1 1 -1 1 0 0 Z " fill="#948980" transform="translate(78,22)"/>
<path d="M0 0 C4.62 0 9.24 0 14 0 C14.66 7.26 15.32 14.52 16 22 C19.3 22.99 22.6 23.98 26 25 C26.46 27.31 26.91 29.62 27.37 31.93 C27.58 32.62 27.78 33.3 28 34 C28.66 34.33 29.32 34.66 30 35 C29 38 29 38 26.75 39.19 C24 40 21.85 40.16 19 40 C19 40.66 19 41.32 19 42 C15.98 43.51 13.33 43.18 10 43 C9.01 42.34 8.02 41.68 7 41 C10.12 39.21 12.68 38.66 16.25 38.38 C17.14 38.3 18.03 38.23 18.95 38.15 C19.63 38.1 20.3 38.05 21 38 C21 37.01 21 36.02 21 35 C21.99 35 22.98 35 24 35 C24.66 32.69 25.32 30.38 26 28 C24.02 28.66 22.04 29.32 20 30 C20 30.66 20 31.32 20 32 C19.34 32 18.68 32 18 32 C18 31.34 18 30.68 18 30 C16.68 30 15.36 30 14 30 C14.66 28.02 15.32 26.04 16 24 C15.34 24 14.68 24 14 24 C14 22.68 14 21.36 14 20 C13.01 19.67 12.02 19.34 11 19 C10.34 19.66 9.68 20.32 9 21 C8.67 19.35 8.34 17.7 8 16 C8.99 16 9.98 16 11 16 C11.14 15.42 11.29 14.84 11.44 14.25 C11.96 12.17 12.48 10.08 13 8 C11.68 8 10.36 8 9 8 C8.67 6.02 8.34 4.04 8 2 C7.34 2 6.68 2 6 2 C5.67 2.66 5.34 3.32 5 4 C5 3.34 5 2.68 5 2 C3.35 1.67 1.7 1.34 0 1 C0 0.67 0 0.34 0 0 Z " fill="#C7B99E" transform="translate(82,34)"/>
<path d="M0 0 C0.33 0.66 0.66 1.32 1 2 C0.34 2 -0.32 2 -1 2 C-1 2.99 -1 3.98 -1 5 C-0.01 5 0.98 5 2 5 C2 5.99 2 6.98 2 8 C3.16 7.83 3.16 7.83 9 7 C9 7.66 9 8.32 9 9 C9.78 8.96 10.57 8.92 11.38 8.88 C14 9 14 9 16 11 C18.38 11.41 18.38 11.41 21.12 11.62 C22.04 11.7 22.95 11.77 23.88 11.85 C24.58 11.9 25.28 11.95 26 12 C26 12.99 26 13.98 26 15 C23.69 15.33 21.38 15.66 19 16 C19 15.34 19 14.68 19 14 C18.34 14 17.68 14 17 14 C16.67 14.66 16.34 15.32 16 16 C15.01 15.67 14.02 15.34 13 15 C12.61 15.5 12.22 15.99 11.81 16.5 C9.45 18.46 7.99 18.24 5 18 C4.67 16.35 4.34 14.7 4 13 C3.01 12.84 3.01 12.84 -2 12 C-2 11.34 -2 10.68 -2 10 C-7.75 9.88 -7.75 9.88 -10 11 C-10 10.01 -10 9.02 -10 8 C-9.34 8 -8.68 8 -8 8 C-8 6.35 -8 4.7 -8 3 C-5.36 2.01 -2.72 1.02 0 0 Z " fill="#6F6F69" transform="translate(51,64)"/>
<path d="M0 0 C0.66 0 1.32 0 2 0 C2.33 1.98 2.66 3.96 3 6 C4.32 6 5.64 6 7 6 C7.12 8.88 7.12 8.88 7 12 C6.34 12.66 5.68 13.32 5 14 C4.01 14 3.02 14 2 14 C2.09 14.36 2.09 14.36 2.56 16.19 C3.02 19.13 2.74 21.14 2 24 C-0.98 24.77 -3.98 25.41 -7 26 C-7 24.68 -7 23.36 -7 22 C-8.32 22.33 -9.64 22.66 -11 23 C-10.83 22.51 -10.83 22.51 -10 20 C-10.44 17.31 -10.44 17.31 -11 15 C-10.2 14.88 -9.39 14.75 -8.56 14.62 C-7.72 14.42 -6.87 14.21 -6 14 C-5.67 13.34 -5.34 12.68 -5 12 C-3.68 12 -2.36 12 -1 12 C-1.33 13.98 -1.66 15.96 -2 18 C-1.34 18 -0.68 18 0 18 C0.33 15.03 0.66 12.06 1 9 C0.34 9 -0.32 9 -1 9 C-1.12 2.25 -1.12 2.25 0 0 Z " fill="#78746E" transform="translate(88,36)"/>
<path d="M0 0 C0.66 0 1.32 0 2 0 C2.02 0.32 2.02 0.32 2.15 1.93 C2.22 2.76 2.3 3.59 2.38 4.44 C2.44 5.26 2.51 6.08 2.59 6.93 C2.72 7.62 2.86 8.3 3 9 C3.66 9.33 4.32 9.66 5 10 C4.34 10 3.68 10 3 10 C3 10.66 3 11.32 3 12 C1.35 12 -0.3 12 -2 12 C-2.33 13.32 -2.66 14.64 -3 16 C-2.34 16 -1.68 16 -1 16 C-1 15.34 -1 14.68 -1 14 C-0.34 14 0.32 14 1 14 C1.2 17.72 1.15 18.77 -1 22 C-0.55 21.5 -0.09 21.01 0.38 20.5 C2 19 2 19 4 19 C4.33 19.99 4.66 20.98 5 22 C0.77 24.42 -2.12 25.35 -7 25 C-7 24.01 -7 23.02 -7 22 C-7.99 22 -8.98 22 -10 22 C-10 21.01 -10 20.02 -10 19 C-9.34 19 -8.68 19 -8 19 C-8.66 17.35 -9.32 15.7 -10 14 C-9.01 13.01 -8.02 12.02 -7 11 C-6.01 11.66 -5.02 12.32 -4 13 C-4 12.34 -4 11.68 -4 11 C-3.34 11 -2.68 11 -2 11 C-2 10.34 -2 9.68 -2 9 C-1.34 8.67 -0.68 8.34 0 8 C0 5.36 0 2.72 0 0 Z " fill="#40413B" transform="translate(60,47)"/>
<path d="M0 0 C2.16 0.02 2.16 0.02 4.62 0.38 C5.03 0.43 5.03 0.43 7.1 0.71 C7.73 0.81 8.35 0.9 9 1 C9 3.31 9 5.62 9 8 C5.73 9.58 3.01 10.11 -0.56 10.31 C-4.25 10.63 -4.74 10.73 -7.44 13.56 C-7.95 14.37 -8.47 15.17 -9 16 C-9.66 16 -10.32 16 -11 16 C-11 14.35 -11 12.7 -11 11 C-11.66 10.67 -12.32 10.34 -13 10 C-13 9.34 -13 8.68 -13 8 C-8.62 5 -8.62 5 -6 5 C-6 6.32 -6 7.64 -6 9 C-5.34 9 -4.68 9 -4 9 C-3.71 7.89 -3.42 6.77 -3.12 5.62 C-2 2 -2 2 0 0 Z " fill="#595850" transform="translate(54,25)"/>
<path d="M0 0 C1.06 1.87 1.06 1.87 2 4 C1.67 4.66 1.34 5.32 1 6 C3.51 4.74 3.87 3.5 5 1 C5.92 4.68 5.96 6.16 5 10 C1.04 10 -2.92 10 -7 10 C-6.34 11.98 -5.68 13.96 -5 16 C-7.31 16.33 -9.62 16.66 -12 17 C-12.66 16.01 -13.32 15.02 -14 14 C-13.34 14 -12.68 14 -12 14 C-12 12.35 -12 10.7 -12 9 C-13.32 8.67 -14.64 8.34 -16 8 C-15.19 6.06 -15.19 6.06 -14 4 C-13.01 3.67 -12.02 3.34 -11 3 C-10.34 2.34 -9.68 1.68 -9 1 C-9 1.66 -9 2.32 -9 3 C-8.34 3.33 -7.68 3.66 -7 4 C-7.33 4.49 -7.33 4.49 -9 7 C-6.13 6.43 -5.14 6.14 -3 4 C-2.01 4.33 -1.02 4.66 0 5 C0 3.35 0 1.7 0 0 Z " fill="#5C5B4D" transform="translate(90,55)"/>
<path d="M0 0 C0.4 0.01 0.4 0.01 2.44 0.06 C2.77 1.05 3.1 2.04 3.44 3.06 C4.1 3.06 4.76 3.06 5.44 3.06 C6.62 6.62 6.7 9.33 6.44 13.06 C4.94 15 4.94 15 3.44 16.06 C3.44 15.4 3.44 14.74 3.44 14.06 C2.78 14.06 2.12 14.06 1.44 14.06 C1.44 13.4 1.44 12.74 1.44 12.06 C0.78 12.06 0.12 12.06 -0.56 12.06 C-0.56 11.4 -0.56 10.74 -0.56 10.06 C-2.21 10.06 -3.86 10.06 -5.56 10.06 C-6.25 8.38 -6.25 8.38 -6.56 6.06 C-3.5 0.09 -3.5 0.09 0 0 Z " fill="#666669" transform="translate(67.5625,39.9375)"/>
<path d="M0 0 C0.99 0 1.98 0 3 0 C2.67 1.65 2.34 3.3 2 5 C4.31 5 6.62 5 9 5 C9.33 6.32 9.66 7.64 10 9 C11.65 9.33 13.3 9.66 15 10 C14.67 11.32 14.34 12.64 14 14 C11 14 11 14 9 13 C9.33 14.65 9.66 16.3 10 18 C7.28 17.09 4.65 16.08 2 15 C2.33 14.01 2.66 13.02 3 12 C4.32 12.33 5.64 12.66 7 13 C6.67 12.01 6.34 11.02 6 10 C4.35 10.66 2.7 11.32 1 12 C1 10.02 1 8.04 1 6 C0.34 6 -0.32 6 -1 6 C-1.04 4.33 -1.04 2.67 -1 1 C-0.67 0.67 -0.34 0.34 0 0 Z " fill="#7A7979" transform="translate(41,42)"/>
<path d="M0 0 C3.41 1.14 4.6 2.38 7 5 C7.3 5.29 7.3 5.29 8.81 6.75 C10.68 10.3 9.71 13.11 9 17 C8.28 16.34 7.56 15.68 6.81 15 C3.78 12.85 2.6 12.59 -1 13 C-1 13.66 -1 14.32 -1 15 C-1.99 14.67 -2.98 14.34 -4 14 C-4 13.01 -4 12.02 -4 11 C-3.34 10.67 -2.68 10.34 -2 10 C-2 7.36 -2 4.72 -2 2 C-1.34 2 -0.68 2 0 2 C0 1.34 0 0.68 0 0 Z " fill="#6C6F76" transform="translate(18,51)"/>
<path d="M0 0 C2.01 0.29 4.01 0.62 6 1 C6 2.32 6 3.64 6 5 C4.35 5 2.7 5 1 5 C0.67 6.65 0.34 8.3 0 10 C-1.48 10.16 -1.48 10.16 -9 11 C-8.67 10.34 -8.34 9.68 -8 9 C-9.65 8.67 -11.3 8.34 -13 8 C-11.5 5.06 -11.5 5.06 -9 2 C-6.27 1.21 -3.87 1.14 -1 1 C-0.67 0.67 -0.34 0.34 0 0 Z " fill="#A59574" transform="translate(78,22)"/>
<path d="M0 0 C0 1.32 0 2.64 0 4 C-1.98 4 -3.96 4 -6 4 C-5.01 4.99 -4.02 5.98 -3 7 C-4 10.79 -4.81 13.72 -7 17 C-7.66 17 -8.32 17 -9 17 C-9 15.68 -9 14.36 -9 13 C-9.99 13.33 -10.98 13.66 -12 14 C-12 10.37 -12 6.74 -12 3 C-8 2 -8 2 -6 3 C-6 2.01 -6 1.02 -6 0 C-3.51 -1.25 -2.59 -0.78 0 0 Z " fill="#7D7976" transform="translate(57,17)"/>
<path d="M0 0 C1.32 0.33 2.64 0.66 4 1 C4.33 2.32 4.66 3.64 5 5 C5.66 5 6.32 5 7 5 C6.67 6.65 6.34 8.3 6 10 C7.16 9.84 7.16 9.84 13 9 C13.33 11.31 13.66 13.62 14 16 C13.01 16.33 12.02 16.66 11 17 C11 17.66 11 18.32 11 19 C10.34 19 9.68 19 9 19 C9 19.66 9 20.32 9 21 C7.68 21 6.36 21 5 21 C3 18 3 18 3 16 C4.32 16.33 5.64 16.66 7 17 C7.33 15.68 7.66 14.36 8 13 C6.68 12.67 5.36 12.34 4 12 C3.67 10.35 3.34 8.7 3 7 C1.35 7 -0.3 7 -2 7 C-2 6.34 -2 5.68 -2 5 C-0.35 5 1.3 5 3 5 C3 4.01 3 3.02 3 2 C2.01 2 1.02 2 0 2 C0 1.34 0 0.68 0 0 Z " fill="#616160" transform="translate(47,39)"/>
<path d="M0 0 C0.33 0.99 0.66 1.98 1 3 C-7.8 6.39 -7.8 6.39 -12.44 4.88 C-16.53 1.88 -16.53 1.88 -18 0 C-18 -0.66 -18 -1.32 -18 -2 C-11.41 -4.11 -5.93 -3.2 0 0 Z " fill="#9E9386" transform="translate(50,62)"/>
<path d="M0 0 C2.97 0.33 5.94 0.66 9 1 C9.33 2.32 9.66 3.64 10 5 C11.32 5.33 12.64 5.66 14 6 C14 4.68 14 3.36 14 2 C20.75 2.88 20.75 2.88 23 4 C22.25 5.94 22.25 5.94 21 8 C18.88 8.75 18.88 8.75 17 9 C17.99 8.01 18.98 7.02 20 6 C18.68 5.67 17.36 5.34 16 5 C15.81 5.64 15.63 6.28 15.44 6.94 C14 9 14 9 10.69 9.94 C6.65 10.01 5.02 9.65 2 7 C2 5.68 2 4.36 2 3 C1.34 2.67 0.68 2.34 0 2 C0 1.34 0 0.68 0 0 Z " fill="#DBBE96" transform="translate(64,32)"/>
<path d="M0 0 C0.99 0 1.98 0 3 0 C3.33 1.98 3.66 3.96 4 6 C10.75 4.25 10.75 4.25 13 2 C13.99 2 14.98 2 16 2 C16 3.98 16 5.96 16 8 C16.59 7.83 16.59 7.83 19.56 7 C23.5 6 26.95 5.83 31 6 C31.16 6.66 31.16 6.66 32 10 C33.13 10.12 34.27 10.25 35.44 10.38 C36.61 10.58 37.79 10.79 39 11 C39.16 11.33 39.16 11.33 40 13 C38.54 12.94 37.08 12.85 35.62 12.75 C35.22 12.73 35.22 12.73 33.16 12.61 C31 12 31 12 29.71 9.95 C29.48 9.31 29.24 8.66 29 8 C28.05 8.1 27.09 8.19 26.11 8.29 C24.86 8.4 23.6 8.51 22.31 8.62 C21.69 8.68 21.69 8.68 18.55 8.98 C15.02 9 13.17 8.37 10 7 C9.01 7.33 8.02 7.66 7 8 C4.96 7.44 4.96 7.44 2.81 6.56 C2.1 6.28 1.38 5.99 0.64 5.69 C0.37 5.58 0.37 5.58 -1 5 C-0.67 3.35 -0.34 1.7 0 0 Z " fill="#BCBDB8" transform="translate(24,71)"/>
<path d="M0 0 C4.62 0 9.24 0 14 0 C14 6.6 14 13.2 14 20 C13.01 19.67 12.02 19.34 11 19 C10.34 19.66 9.68 20.32 9 21 C8.67 19.35 8.34 17.7 8 16 C8.99 16 9.98 16 11 16 C11.14 15.42 11.29 14.84 11.44 14.25 C11.96 12.17 12.48 10.08 13 8 C11.68 8 10.36 8 9 8 C8.67 6.02 8.34 4.04 8 2 C7.34 2 6.68 2 6 2 C5.67 2.66 5.34 3.32 5 4 C5 3.34 5 2.68 5 2 C3.35 1.67 1.7 1.34 0 1 C0 0.67 0 0.34 0 0 Z " fill="#A69A8C" transform="translate(82,34)"/>
<path d="M0 0 C2.64 0 5.28 0 8 0 C6.68 0.33 5.36 0.66 4 1 C5.98 1.99 7.96 2.98 10 4 C10 4.99 10 5.98 10 7 C7.63 8.19 5.83 8.24 3.19 8.44 C0.2 8.7 -1.91 8.96 -4.69 10.12 C-7.99 11.37 -10.6 10.67 -14 10 C-14 9.67 -14 9.34 -14 9 C-12.02 8.67 -10.04 8.34 -8 8 C-8 7.34 -8 6.68 -8 6 C-6.35 5.67 -4.7 5.34 -3 5 C-3 5.66 -3 6.32 -3 7 C-0.56 6.62 -0.56 6.62 2 6 C2.33 5.34 2.66 4.68 3 4 C2.01 4 1.02 4 0 4 C0 2.68 0 1.36 0 0 Z " fill="#C7BEAE" transform="translate(78,75)"/>
<path d="M0 0 C1.65 0 3.3 0 5 0 C4.67 0.99 4.34 1.98 4 3 C4.37 3.06 4.37 3.06 6.25 3.38 C8.8 3.95 10.73 4.74 13 6 C8.22 8.62 4.16 7.83 -1 7 C-1 8.32 -1 9.64 -1 11 C-2.65 10.67 -4.3 10.34 -6 10 C-6 8.35 -6 6.7 -6 5 C-4.35 4.67 -2.7 4.34 -1 4 C-0.67 2.68 -0.34 1.36 0 0 Z " fill="#E1C5A1" transform="translate(79,27)"/>
<path d="M0 0 C3.3 0.33 6.6 0.66 10 1 C10 1.66 10 2.32 10 3 C10.43 2.98 10.43 2.98 12.62 2.88 C16.18 3.01 18.75 3.57 22 5 C23 8 23 8 22.06 10.19 C21.89 10.49 21.89 10.49 21 12 C21 11.01 21 10.02 21 9 C15.25 8.88 15.25 8.88 13 10 C12.71 9.2 12.42 8.39 12.12 7.56 C9.56 4.46 8.69 4.55 4.81 4.19 C3.21 4.1 1.61 4.03 0 4 C0 2.68 0 1.36 0 0 Z " fill="#C8AC84" transform="translate(63,14)"/>
<path d="M0 0 C7.98 -0.39 15.23 0.49 22 5 C21.67 5.99 21.34 6.98 21 8 C19.68 7.67 18.36 7.34 17 7 C17 6.34 17 5.68 17 5 C16.55 5.1 16.55 5.1 14.25 5.62 C10.89 6.01 9.76 5.8 7 4 C7 5.32 7 6.64 7 8 C5.68 7.67 4.36 7.34 3 7 C3 7.66 3 8.32 3 9 C3.66 9 4.32 9 5 9 C5 9.66 5 10.32 5 11 C4.01 11 3.02 11 2 11 C2 9.35 2 7.7 2 6 C3.32 5.67 4.64 5.34 6 5 C5.67 4.01 5.34 3.02 5 2 C3.02 2 1.04 2 -1 2 C-0.67 1.34 -0.34 0.68 0 0 Z " fill="#DDCAB1" transform="translate(56,10)"/>
<path d="M0 0 C0.99 0.33 1.98 0.66 3 1 C2.7 3.81 1.95 5.06 0.12 7.25 C-4.49 9.83 -8.83 9.33 -14 9 C-12 7 -12 7 -9.38 6.88 C-8.59 6.92 -7.81 6.96 -7 7 C-7.66 6.01 -8.32 5.02 -9 4 C-9 3.01 -9 2.02 -9 1 C-6.01 -0.49 -3.3 -0.12 0 0 Z " fill="#9D8F75" transform="translate(92,64)"/>
<path d="M0 0 C0.77 2.98 1.41 5.98 2 9 C0.02 9.99 -1.96 10.98 -4 12 C-5.5 10.62 -5.5 10.62 -7 9 C-7 8.34 -7 7.68 -7 7 C-8.65 7.33 -10.3 7.66 -12 8 C-11.04 5.59 -10.35 4.24 -8.19 2.75 C-5.68 1.89 -3.64 1.85 -1 2 C-0.67 1.34 -0.34 0.68 0 0 Z " fill="#A59E8B" transform="translate(28,45)"/>
<path d="M0 0 C0.96 -0 1.91 -0.01 2.9 -0.01 C5.31 0.11 7.32 0.44 9.62 1.12 C9.62 2.11 9.62 3.11 9.62 4.12 C5.9 6.61 2.94 6.55 -1.38 6.12 C-4.88 5.12 -4.88 5.12 -7.38 4.12 C-7.38 3.14 -7.38 2.14 -7.38 1.12 C-4.79 -0.17 -2.88 -0.01 0 0 Z " fill="#C4B097" transform="translate(67.375,68.875)"/>
<path d="M0 0 C-0.66 2.31 -1.32 4.62 -2 7 C-3.98 7.33 -5.96 7.66 -8 8 C-8.14 8.78 -8.29 9.57 -8.44 10.38 C-9 13 -9 13 -10 15 C-10.66 15 -11.32 15 -12 15 C-12.33 15.66 -12.66 16.32 -13 17 C-12.59 6.32 -12.59 6.32 -8 2 C-4.77 -0.15 -3.72 -0.2 0 0 Z " fill="#A19FA1" transform="translate(42,27)"/>
<path d="M0 0 C2 -0.04 4 -0.04 6 0 C6.33 0.33 6.66 0.66 7 1 C8.68 1.23 10.37 1.41 12.06 1.56 C12.98 1.65 13.9 1.73 14.85 1.82 C15.2 1.85 15.2 1.85 17 2 C17 2.99 17 3.98 17 5 C14.69 5.33 12.38 5.66 10 6 C10 5.34 10 4.68 10 4 C9.34 4 8.68 4 8 4 C7.67 4.66 7.34 5.32 7 6 C6.01 5.67 5.02 5.34 4 5 C3.59 5.52 3.17 6.03 2.75 6.56 C2.17 7.04 1.59 7.51 1 8 C-1.19 7.69 -1.19 7.69 -3 7 C-2.34 7 -1.68 7 -1 7 C-0.67 4.69 -0.34 2.38 0 0 Z " fill="#64646A" transform="translate(60,74)"/>
<path d="M0 0 C0 0.99 0 1.98 0 3 C-3.82 4.42 -6.91 5.24 -11 5 C-11 5.99 -11 6.98 -11 8 C-12.98 8 -14.96 8 -17 8 C-16.05 4.82 -15.37 3.28 -12.69 1.25 C-8.1 -0.89 -4.92 -1.26 0 0 Z " fill="#AEA59D" transform="translate(62,12)"/>
<path d="M0 0 C2.16 0.02 2.16 0.02 4.62 0.38 C5.03 0.43 5.03 0.43 7.1 0.71 C7.73 0.81 8.35 0.9 9 1 C9 3.31 9 5.62 9 8 C6 9.27 4.95 8.98 1.81 7.81 C-1 6 -1 6 -2 3.94 C-2 2 -2 2 0 0 Z " fill="#6A6561" transform="translate(54,25)"/>
<path d="M0 0 C0.66 0 1.32 0 2 0 C2.33 1.98 2.66 3.96 3 6 C4.32 6 5.64 6 7 6 C7.12 8.88 7.12 8.88 7 12 C6.34 12.66 5.68 13.32 5 14 C4.01 14 3.02 14 2 14 C1.67 14.66 1.34 15.32 1 16 C1 13.69 1 11.38 1 9 C0.34 9 -0.32 9 -1 9 C-1.12 2.25 -1.12 2.25 0 0 Z " fill="#8C847D" transform="translate(88,36)"/>
<path d="M0 0 C0.66 0 1.32 0 2 0 C2.66 2.31 3.32 4.62 4 7 C4.66 7 5.32 7 6 7 C5 10 5 10 2.69 11.19 C0 12 0 12 -4 12 C-4.33 10.35 -4.66 8.7 -5 7 C-3.68 6.67 -2.36 6.34 -1 6 C-1.02 5.2 -1.04 4.39 -1.06 3.56 C-1 1 -1 1 0 0 Z " fill="#41453E" transform="translate(36,48)"/>
<path d="M0 0 C0.66 0 1.32 0 2 0 C2.2 3.72 2.15 4.77 0 8 C0.45 7.5 0.91 7.01 1.38 6.5 C3 5 3 5 5 5 C5.33 5.99 5.66 6.98 6 8 C1.77 10.42 -1.12 11.35 -6 11 C-6 10.01 -6 9.02 -6 8 C-6.99 8 -7.98 8 -9 8 C-9 7.01 -9 6.02 -9 5 C-8.01 4.67 -7.02 4.34 -6 4 C-5.67 4.5 -5.67 4.5 -4 7 C-3.34 5.35 -2.68 3.7 -2 2 C-1.34 2 -0.68 2 0 2 C0 1.34 0 0.68 0 0 Z " fill="#4C4F40" transform="translate(59,61)"/>
<path d="M0 0 C0.33 1.32 0.66 2.64 1 4 C0.01 3.01 -0.98 2.02 -2 1 C-1.34 0.67 -0.68 0.34 0 0 Z " fill="#BFC2BD" transform="translate(120,80)"/>
</svg>
