<?xml version="1.0" encoding="UTF-8"?>
<!-- Generator: visioncortex VTracer 0.6.12 -->
<svg version="1.1" xmlns="http://www.w3.org/2000/svg" width="148" height="107">
<path d="M0 0 C2.93 1.57 5.75 2.99 8.88 4.12 C12.62 5.96 14.93 8.15 17.06 11.69 C17.86 14.4 18.12 17.06 18.31 19.88 C19.01 27.52 19.01 27.52 20.06 30.69 C20.13 32.75 20.15 34.81 20.12 36.88 C20.12 37.96 20.11 39.05 20.1 40.17 C20.09 41 20.07 41.83 20.06 42.69 C20.62 42.94 21.17 43.2 21.74 43.46 C22.47 43.8 23.19 44.15 23.94 44.5 C24.66 44.84 25.38 45.17 26.12 45.52 C28.06 46.69 28.06 46.69 30.06 49.69 C30.29 52.1 30.29 52.1 30.25 54.75 C30.24 55.63 30.24 56.51 30.23 57.41 C30.06 59.69 30.06 59.69 29.06 61.69 C30.71 61.36 32.36 61.03 34.06 60.69 C34.06 61.35 34.06 62.01 34.06 62.69 C34.72 63.02 34.72 63.02 38.06 64.69 C38.06 65.68 38.06 66.67 38.06 67.69 C34 70.99 30.11 71.26 25.06 71.69 C25.06 72.68 25.06 73.67 25.06 74.69 C18.06 76.8 11.37 78.23 4.06 78.69 C4.72 80.01 5.38 81.33 6.06 82.69 C-1.81 85.43 -1.81 85.43 -4.94 85.69 C-5.37 85.21 -5.8 84.74 -6.25 84.25 C-7.94 82.69 -7.94 82.69 -11.81 82.62 C-12.51 82.65 -13.21 82.68 -13.93 82.71 C-16.58 82.68 -18.59 81.86 -20.94 80.69 C-20.94 79.37 -20.94 78.05 -20.94 76.69 C-21.1 77.35 -21.1 77.35 -21.94 80.69 C-33.46 83.35 -33.46 83.35 -38.94 80.69 C-38.94 80.03 -38.94 79.37 -38.94 78.69 C-39.51 78.83 -40.07 78.98 -40.66 79.12 C-49 81.13 -55.04 81.23 -62.94 77.69 C-63.1 77.36 -63.1 77.36 -63.94 75.69 C-64.41 75.79 -64.41 75.79 -66.81 76.31 C-74.35 77.38 -82.12 74.73 -88.94 71.69 C-89.6 70.7 -90.26 69.71 -90.94 68.69 C-90.11 68.36 -90.11 68.36 -85.94 66.69 C-85.94 65.7 -85.94 64.71 -85.94 63.69 C-84.95 63.69 -83.96 63.69 -82.94 63.69 C-82.95 62.91 -82.96 62.14 -82.97 61.34 C-83.11 45.42 -83.11 45.42 -80.38 41.38 C-77.58 39.44 -74.88 38.42 -71.64 37.4 C-69.94 36.69 -69.94 36.69 -68.94 34.69 C-69.6 34.69 -70.26 34.69 -70.94 34.69 C-70.94 34.03 -70.94 33.37 -70.94 32.69 C-70.61 32.52 -70.61 32.52 -68.94 31.69 C-69.6 30.37 -70.26 29.05 -70.94 27.69 C-70.28 27.36 -69.62 27.03 -68.94 26.69 C-67.95 27.02 -66.96 27.35 -65.94 27.69 C-64.95 26.7 -63.96 25.71 -62.94 24.69 C-62.61 25.02 -62.28 25.35 -61.94 25.69 C-61.72 25.05 -61.5 24.41 -61.27 23.75 C-58.78 16.94 -56.3 10.73 -49.42 7.51 C-47.63 6.87 -45.83 6.26 -44.01 5.71 C-41.43 4.85 -39.19 3.86 -36.75 2.68 C-31.68 0.39 -26.74 -0.39 -21.25 -1.06 C-20.79 -1.13 -20.79 -1.13 -18.49 -1.44 C-5.7 -3.13 -5.7 -3.13 0 0 Z M-2.94 76.69 C-2.94 77.02 -2.94 77.35 -2.94 77.69 C-1.29 77.69 0.36 77.69 2.06 77.69 C2.06 77.36 2.06 77.03 2.06 76.69 C0.41 76.69 -1.24 76.69 -2.94 76.69 Z " fill="#6B6965" transform="translate(100.9375,12.3125)"/>
<path d="M0 0 C1.59 0.25 3.17 0.51 4.75 0.81 C4.75 1.8 4.75 2.79 4.75 3.81 C5.41 3.81 6.07 3.81 6.75 3.81 C6.91 4.47 6.91 4.47 7.75 7.81 C8.41 7.81 9.07 7.81 9.75 7.81 C9.75 8.47 9.75 9.13 9.75 9.81 C13.05 9.48 16.35 9.15 19.75 8.81 C19.75 8.15 19.75 7.49 19.75 6.81 C18.8 6.85 17.85 6.89 16.88 6.94 C13.75 6.81 13.75 6.81 11.75 4.81 C12.41 4.81 13.07 4.81 13.75 4.81 C13.75 3.82 13.75 2.83 13.75 1.81 C16.76 0.88 17.62 0.77 20.75 1.81 C20.75 2.47 20.75 3.13 20.75 3.81 C21.41 3.81 22.07 3.81 22.75 3.81 C22.75 4.47 22.75 5.13 22.75 5.81 C24.23 6.14 24.23 6.14 31.75 7.81 C32.28 19.01 32.28 19.01 28.75 23.81 C28.06 26.63 28.06 26.63 27.75 28.81 C26.43 28.15 25.11 27.49 23.75 26.81 C23.75 27.8 23.75 28.79 23.75 29.81 C25.07 29.81 26.39 29.81 27.75 29.81 C29.35 33.32 29.97 35.96 29.75 39.81 C30.41 39.81 31.07 39.81 31.75 39.81 C32.08 40.8 32.08 40.8 33.75 45.81 C33.01 45.73 32.27 45.65 31.5 45.56 C28.75 45.81 28.75 45.81 26.44 47.62 C24.75 49.81 24.75 49.81 24.75 52.81 C24.91 52.48 24.91 52.48 25.75 50.81 C26.74 50.81 27.73 50.81 28.75 50.81 C28.75 51.8 28.75 52.79 28.75 53.81 C28.42 53.98 28.42 53.98 26.75 54.81 C26.42 55.8 26.09 56.79 25.75 57.81 C26.41 57.81 27.07 57.81 27.75 57.81 C27.91 58.47 27.91 58.47 28.75 61.81 C27.29 62.03 25.83 62.24 24.38 62.44 C23.56 62.55 22.75 62.67 21.91 62.79 C21.2 62.8 20.49 62.8 19.75 62.81 C19.09 62.15 18.43 61.49 17.75 60.81 C18.41 60.81 19.07 60.81 19.75 60.81 C18.01 45.07 18.01 45.07 14.75 37.81 C13.68 37.85 12.6 37.9 11.5 37.94 C7.9 37.82 6.75 37.46 3.75 35.81 C2.72 35.69 1.69 35.56 0.62 35.44 C-0.32 35.23 -1.27 35.02 -2.25 34.81 C-2.95 33.5 -3.62 32.16 -4.25 30.81 C-6.88 30.06 -6.88 30.06 -9.25 29.81 C-9.25 30.47 -9.25 31.13 -9.25 31.81 C-7.93 31.81 -6.61 31.81 -5.25 31.81 C-5.25 32.47 -5.25 33.13 -5.25 33.81 C-6.73 33.98 -6.73 33.98 -14.25 34.81 C-12.93 35.14 -11.61 35.47 -10.25 35.81 C-9.76 35.98 -9.76 35.98 -7.25 36.81 C-7.91 37.47 -8.57 38.13 -9.25 38.81 C-8.59 39.14 -7.93 39.47 -7.25 39.81 C-7.58 41.13 -7.91 42.45 -8.25 43.81 C-7.65 43.9 -7.05 43.98 -6.44 44.06 C-4.25 44.81 -4.25 44.81 -2.44 46.38 C-0.64 50.06 -1.61 52.79 -2.25 56.81 C-1.92 57.8 -1.59 58.79 -1.25 59.81 C1.06 59.15 3.37 58.49 5.75 57.81 C7.75 60.81 7.75 60.81 7.38 63 C7.17 63.6 6.96 64.2 6.75 64.81 C2 63.94 2 63.94 -0.25 62.81 C-0.25 64.46 -0.25 66.11 -0.25 67.81 C-2.23 67.81 -4.21 67.81 -6.25 67.81 C-6.09 67.32 -6.09 67.32 -5.25 64.81 C-6.18 64.59 -7.11 64.36 -8.06 64.12 C-11.79 62.59 -12.65 61.45 -14.25 57.81 C-14.25 56.82 -14.25 55.83 -14.25 54.81 C-16.23 54.81 -18.21 54.81 -20.25 54.81 C-20.58 52.83 -20.91 50.85 -21.25 48.81 C-22.24 48.81 -23.23 48.81 -24.25 48.81 C-23.92 50.79 -23.59 52.77 -23.25 54.81 C-22.59 54.81 -21.93 54.81 -21.25 54.81 C-21.25 56.13 -21.25 57.45 -21.25 58.81 C-20.59 58.81 -19.93 58.81 -19.25 58.81 C-19.58 59.8 -19.91 60.79 -20.25 61.81 C-21.9 61.98 -21.9 61.98 -30.25 62.81 C-30.25 61.49 -30.25 60.17 -30.25 58.81 C-31.24 58.81 -32.23 58.81 -33.25 58.81 C-33.25 57.82 -33.25 56.83 -33.25 55.81 C-32.26 55.81 -31.27 55.81 -30.25 55.81 C-30.58 51.19 -30.91 46.57 -31.25 41.81 C-31.58 41.81 -31.91 41.81 -32.25 41.81 C-32.33 40.21 -32.39 38.6 -32.44 37 C-32.45 36.55 -32.45 36.55 -32.54 34.29 C-32.25 31.81 -32.25 31.81 -31 30.09 C-29.08 28.69 -27.38 27.98 -25.12 27.25 C-22.99 26.56 -22.99 26.56 -21.25 25.81 C-20.92 25.15 -20.59 24.49 -20.25 23.81 C-20.91 23.81 -21.57 23.81 -22.25 23.81 C-22.25 23.15 -22.25 22.49 -22.25 21.81 C-21.59 21.48 -20.93 21.15 -20.25 20.81 C-20.91 19.49 -21.57 18.17 -22.25 16.81 C-21.59 16.48 -20.93 16.15 -20.25 15.81 C-19.26 16.14 -18.27 16.47 -17.25 16.81 C-16.26 15.82 -15.27 14.83 -14.25 13.81 C-13.92 14.14 -13.59 14.47 -13.25 14.81 C-13.13 14.48 -13.13 14.48 -12.52 12.8 C-7.4 -0.69 -7.4 -0.69 0 0 Z " fill="#6B696A" transform="translate(52.25,23.1875)"/>
<path d="M0 0 C2.93 1.57 5.75 2.99 8.88 4.12 C12.62 5.96 14.93 8.15 17.06 11.69 C17.86 14.4 18.12 17.06 18.31 19.88 C19.01 27.52 19.01 27.52 20.06 30.69 C20.13 32.75 20.15 34.81 20.12 36.88 C20.12 37.96 20.11 39.05 20.1 40.17 C20.09 41 20.07 41.83 20.06 42.69 C20.62 42.94 21.17 43.2 21.74 43.46 C22.47 43.8 23.19 44.15 23.94 44.5 C24.66 44.84 25.38 45.17 26.12 45.52 C28.06 46.69 28.06 46.69 30.06 49.69 C30.29 52.1 30.29 52.1 30.25 54.75 C30.24 55.63 30.24 56.51 30.23 57.41 C30.06 59.69 30.06 59.69 29.06 61.69 C30.71 61.36 32.36 61.03 34.06 60.69 C34.06 61.35 34.06 62.01 34.06 62.69 C34.72 63.02 34.72 63.02 38.06 64.69 C38.06 65.68 38.06 66.67 38.06 67.69 C34 70.99 30.11 71.26 25.06 71.69 C25.06 72.68 25.06 73.67 25.06 74.69 C18.06 76.8 11.37 78.23 4.06 78.69 C4.72 80.01 5.38 81.33 6.06 82.69 C-1.81 85.43 -1.81 85.43 -4.94 85.69 C-5.37 85.21 -5.8 84.74 -6.25 84.25 C-8.37 82.29 -9.12 82.53 -11.94 82.62 C-12.62 82.68 -13.3 82.73 -14 82.78 C-15.94 82.69 -15.94 82.69 -18.94 80.69 C-18.19 80.67 -17.44 80.66 -16.67 80.64 C-13.69 80.5 -10.87 80.29 -7.94 79.69 C-6.58 78.04 -5.24 76.37 -3.94 74.69 C-1.3 74.12 1.22 73.94 3.92 73.83 C6.06 73.69 6.06 73.69 7.06 72.69 C9.4 72.65 11.73 72.65 14.06 72.69 C14.06 72.03 14.06 71.37 14.06 70.69 C12.08 70.36 10.1 70.03 8.06 69.69 C8.06 69.03 8.06 68.37 8.06 67.69 C8.72 67.69 9.38 67.69 10.06 67.69 C10.06 67.03 10.06 66.37 10.06 65.69 C15.69 65.44 15.69 65.44 19.06 67.69 C19.39 67.36 19.72 67.03 20.06 66.69 C22.39 66.32 24.72 65.99 27.06 65.69 C27.06 65.03 27.06 64.37 27.06 63.69 C26.07 64.35 25.08 65.01 24.06 65.69 C24.39 63.38 24.72 61.07 25.06 58.69 C24.57 58.36 24.57 58.36 22.06 56.69 C22.06 57.35 22.06 58.01 22.06 58.69 C21.4 58.69 20.74 58.69 20.06 58.69 C19.73 58.03 19.4 57.37 19.06 56.69 C16.75 56.69 14.44 56.69 12.06 56.69 C12.06 55.37 12.06 54.05 12.06 52.69 C14.7 52.36 17.34 52.03 20.06 51.69 C19.56 49.52 19.06 47.69 18.06 45.69 C17.57 45.85 17.57 45.85 15.06 46.69 C12.88 46.25 12.88 46.25 11.06 45.69 C10.9 46.02 10.9 46.02 10.06 47.69 C9.9 46.53 9.9 46.53 9.06 40.69 C9.72 40.69 10.38 40.69 11.06 40.69 C11.06 39.37 11.06 38.05 11.06 36.69 C8.55 37.94 8.19 39.19 7.06 41.69 C6.23 35.97 5.94 30.47 6.06 24.69 C5.44 24.87 4.83 25.06 4.19 25.25 C2.06 25.69 2.06 25.69 0.06 24.69 C-0.27 25.35 -0.6 26.01 -0.94 26.69 C0.05 26.69 1.04 26.69 2.06 26.69 C2.06 27.68 2.06 28.67 2.06 29.69 C3.05 29.69 4.04 29.69 5.06 29.69 C5.06 31.67 5.06 33.65 5.06 35.69 C4.4 35.69 3.74 35.69 3.06 35.69 C2.73 34.7 2.4 33.71 2.06 32.69 C2 33.47 1.94 34.26 1.88 35.06 C1.61 35.93 1.34 36.8 1.06 37.69 C-1.5 39 -1.5 39 -3.94 39.69 C-4.6 38.37 -5.26 37.05 -5.94 35.69 C-6.93 35.69 -7.92 35.69 -8.94 35.69 C-9.27 36.68 -9.6 37.67 -9.94 38.69 C-10.6 38.69 -11.26 38.69 -11.94 38.69 C-12.27 35.39 -12.6 32.09 -12.94 28.69 C-13.6 28.69 -14.26 28.69 -14.94 28.69 C-14.94 29.68 -14.94 30.67 -14.94 31.69 C-15.27 31.85 -15.27 31.85 -16.94 32.69 C-17.27 33.68 -17.6 34.67 -17.94 35.69 C-16.95 35.69 -15.96 35.69 -14.94 35.69 C-15.27 37.34 -15.6 38.99 -15.94 40.69 C-17.26 40.69 -18.58 40.69 -19.94 40.69 C-20.19 33.06 -20.19 33.06 -17.94 29.69 C-17.52 26.99 -17.52 26.99 -17.31 24 C-17.24 23.01 -17.16 22.01 -17.09 20.99 C-17.04 20.23 -16.99 19.47 -16.94 18.69 C-19.91 18.03 -22.88 17.37 -25.94 16.69 C-25.94 16.03 -25.94 15.37 -25.94 14.69 C-26.6 14.69 -27.26 14.69 -27.94 14.69 C-27.94 14.03 -27.94 13.37 -27.94 12.69 C-30.25 12.69 -32.56 12.69 -34.94 12.69 C-34.94 14.01 -34.94 15.33 -34.94 16.69 C-32.96 17.02 -30.98 17.35 -28.94 17.69 C-28.94 18.35 -28.94 19.01 -28.94 19.69 C-30.59 19.85 -30.59 19.85 -38.94 20.69 C-38.94 20.03 -38.94 19.37 -38.94 18.69 C-39.6 18.69 -40.26 18.69 -40.94 18.69 C-41.27 17.37 -41.6 16.05 -41.94 14.69 C-42.6 14.69 -43.26 14.69 -43.94 14.69 C-43.94 13.7 -43.94 12.71 -43.94 11.69 C-44.49 11.71 -44.49 11.71 -47.31 11.81 C-50.94 11.69 -50.94 11.69 -52.94 9.69 C-49.05 7.09 -45.42 5.96 -40.94 4.69 C-39.58 4.05 -38.22 3.4 -36.87 2.73 C-31.76 0.42 -26.79 -0.39 -21.25 -1.06 C-20.79 -1.13 -20.79 -1.13 -18.49 -1.44 C-5.7 -3.13 -5.7 -3.13 0 0 Z M-2.94 76.69 C-2.94 77.02 -2.94 77.35 -2.94 77.69 C-1.29 77.69 0.36 77.69 2.06 77.69 C2.06 77.36 2.06 77.03 2.06 76.69 C0.41 76.69 -1.24 76.69 -2.94 76.69 Z " fill="#CEB990" transform="translate(100.9375,12.3125)"/>
<path d="M0 0 C2.38 -0.12 2.38 -0.12 5 0 C7 2 7 2 7 5 C7.91 4.96 8.81 4.92 9.75 4.88 C13 5 13 5 14.94 6 C17 7 17 7 20.62 7 C21.74 7 22.85 7 24 7 C28.27 11.27 28.83 19.24 29.19 25.08 C29.19 27.4 29.14 29.69 29 32 C32.64 33.98 35.88 34.53 40 35 C40 35.66 40 36.32 40 37 C39.34 37 38.68 37 38 37 C38.33 37.99 38.66 38.98 39 40 C38.34 40 37.68 40 37 40 C37 38.68 37 37.36 37 36 C36.67 37.32 36.34 38.64 36 40 C24.48 42.67 24.48 42.67 19 40 C19 39.34 19 38.68 19 38 C18.43 38.14 17.86 38.29 17.28 38.44 C8.93 40.44 2.9 40.54 -5 37 C-5.33 36.34 -5.66 35.68 -6 35 C-6.95 35.21 -7.9 35.41 -8.88 35.62 C-16.41 36.69 -24.18 34.04 -31 31 C-31.66 30.01 -32.32 29.02 -33 28 C-31.35 27.34 -29.7 26.68 -28 26 C-28 25.01 -28 24.02 -28 23 C-27.01 23 -26.02 23 -25 23 C-25.01 22.23 -25.02 21.45 -25.04 20.66 C-25.09 14.66 -24.91 8.93 -24 3 C-20.61 6.57 -20.5 9.69 -20.25 14.5 C-20.17 15.81 -20.1 17.12 -20.02 18.47 C-20 21.29 -20.11 23.36 -21 26 C-21.99 26 -22.98 26 -24 26 C-24 26.99 -24 27.98 -24 29 C-23.01 29 -22.02 29 -21 29 C-21 30.32 -21 31.64 -21 33 C-19.35 32.72 -17.71 32.42 -16.06 32.12 C-15.6 32.04 -15.6 32.04 -13.29 31.63 C-12.53 31.42 -11.78 31.22 -11 31 C-10.67 30.34 -10.34 29.68 -10 29 C-10.66 29 -11.32 29 -12 29 C-12 27.68 -12 26.36 -12 25 C-12.66 25 -13.32 25 -14 25 C-14.66 22.69 -15.32 20.38 -16 18 C-14.35 18.33 -12.7 18.66 -11 19 C-10.67 20.65 -10.34 22.3 -10 24 C-9.26 24 -8.52 24 -7.75 24 C-5 25 -5 25 -3.95 26.78 C-3.31 28.22 -2.68 29.67 -2.05 31.12 C-1 33 -1 33 1.75 34.5 C2.49 34.66 3.23 34.83 4 35 C4 35.66 4 36.32 4 37 C5.65 37.33 7.3 37.66 9 38 C9 36.35 9 34.7 9 33 C11.31 33.33 13.62 33.66 16 34 C15.67 32.35 15.34 30.7 15 29 C12.69 29.33 10.38 29.66 8 30 C5.58 26.38 6.25 25.06 6.89 20.94 C7 19 7 19 5.75 16.56 C4 15 4 15 1 14 C1.33 12.68 1.66 11.36 2 10 C0.68 9.34 -0.64 8.68 -2 8 C-1.67 7.67 -1.34 7.34 -1 7 C-1.64 6.88 -2.28 6.75 -2.94 6.62 C-3.28 6.52 -3.28 6.52 -5 6 C-5.33 5.34 -5.66 4.68 -6 4 C0.62 2.88 0.62 2.88 4 4 C4 3.34 4 2.68 4 2 C2.68 2 1.36 2 0 2 C0 1.34 0 0.68 0 0 Z " fill="#6E6A67" transform="translate(43,53)"/>
<path d="M0 0 C0.66 0.66 1.32 1.32 2 2 C1.74 5.49 1.26 8.4 -0.12 11.62 C-1.18 14.49 -0.83 16.11 0 19 C-0.99 18.67 -1.98 18.34 -3 18 C-2.67 19.98 -2.34 21.96 -2 24 C-2.99 23.67 -3.98 23.34 -5 23 C-5 22.34 -5 21.68 -5 21 C-5.66 21 -6.32 21 -7 21 C-7 21.99 -7 22.98 -7 24 C-7.99 24.33 -8.98 24.66 -10 25 C-10.66 25.66 -11.32 26.32 -12 27 C-12.66 27 -13.32 27 -14 27 C-14.33 28.32 -14.66 29.64 -15 31 C-14.34 31.33 -13.68 31.66 -13 32 C-12.71 31.36 -12.42 30.72 -12.12 30.06 C-11 28 -11 28 -9 27 C-7.05 27.34 -7.05 27.34 -4.88 27.94 C-4.51 28.03 -4.51 28.03 -2.68 28.53 C-2.13 28.68 -1.57 28.84 -1 29 C-1.99 29.33 -2.98 29.66 -4 30 C-4 30.66 -4 31.32 -4 32 C-2.68 32 -1.36 32 0 32 C0 32.66 0 33.32 0 34 C-1.48 34.16 -1.48 34.16 -9 35 C-7.68 35.33 -6.36 35.66 -5 36 C-4.51 36.16 -4.51 36.16 -2 37 C-2.66 37.66 -3.32 38.32 -4 39 C-3.34 39.33 -2.68 39.66 -2 40 C-2.33 41.32 -2.66 42.64 -3 44 C-2.4 44.08 -1.8 44.16 -1.19 44.25 C1 45 1 45 2.81 46.56 C4.61 50.25 3.64 52.97 3 57 C3.33 57.99 3.66 58.98 4 60 C6.31 59.34 8.62 58.68 11 58 C13 61 13 61 12.62 63.19 C12.42 63.79 12.21 64.38 12 65 C7.25 64.12 7.25 64.12 5 63 C5 64.65 5 66.3 5 68 C3.02 68 1.04 68 -1 68 C-0.84 67.5 -0.84 67.5 0 65 C-0.93 64.77 -1.86 64.55 -2.81 64.31 C-6.54 62.78 -7.4 61.64 -9 58 C-9 57.01 -9 56.02 -9 55 C-10.98 55 -12.96 55 -15 55 C-15.33 53.02 -15.66 51.04 -16 49 C-16.99 49 -17.98 49 -19 49 C-18.67 50.98 -18.34 52.96 -18 55 C-17.34 55 -16.68 55 -16 55 C-16 56.32 -16 57.64 -16 59 C-15.34 59 -14.68 59 -14 59 C-14.33 59.99 -14.66 60.98 -15 62 C-16.65 62.16 -16.65 62.16 -25 63 C-25 61.68 -25 60.36 -25 59 C-25.99 59 -26.98 59 -28 59 C-28 58.01 -28 57.02 -28 56 C-27.01 56 -26.02 56 -25 56 C-25.33 51.38 -25.66 46.76 -26 42 C-26.33 42 -26.66 42 -27 42 C-27.08 40.4 -27.14 38.79 -27.19 37.19 C-27.2 36.74 -27.2 36.74 -27.29 34.48 C-27 32 -27 32 -25.75 30.27 C-23.83 28.87 -22.13 28.17 -19.88 27.44 C-17.74 26.75 -17.74 26.75 -16 26 C-15.67 25.34 -15.34 24.68 -15 24 C-15.66 24 -16.32 24 -17 24 C-17 23.34 -17 22.68 -17 22 C-16.34 21.67 -15.68 21.34 -15 21 C-15.66 19.68 -16.32 18.36 -17 17 C-16.34 16.67 -15.68 16.34 -15 16 C-14.01 16.33 -13.02 16.66 -12 17 C-11.01 16.01 -10.02 15.02 -9 14 C-8.67 14.33 -8.34 14.66 -8 15 C-7.88 14.67 -7.88 14.67 -7.27 12.99 C-5.39 8.04 -3.67 3.93 0 0 Z " fill="#5A5B59" transform="translate(47,23)"/>
<path d="M0 0 C0.07 0.32 0.07 0.32 0.4 1.93 C0.58 2.76 0.76 3.59 0.94 4.44 C1.11 5.26 1.29 6.08 1.46 6.93 C2 9 2 9 3 10 C5.1 17.3 5.23 24.46 5 32 C5.28 32.13 5.28 32.13 6.68 32.77 C7.4 33.11 8.13 33.46 8.88 33.81 C9.59 34.15 10.31 34.49 11.05 34.83 C13 36 13 36 15 39 C15.23 41.41 15.23 41.41 15.19 44.06 C15.18 44.94 15.17 45.82 15.17 46.72 C15 49 15 49 14 51 C14.82 50.84 14.82 50.84 19 50 C19 50.66 19 51.32 19 52 C20.32 52.66 21.64 53.32 23 54 C23 54.99 23 55.98 23 57 C18.93 60.3 15.05 60.57 10 61 C10 61.99 10 62.98 10 64 C3 66.12 -3.69 67.54 -11 68 C-10.34 69.32 -9.68 70.64 -9 72 C-16.87 74.75 -16.87 74.75 -20 75 C-20.43 74.53 -20.87 74.05 -21.31 73.56 C-23.43 71.6 -24.18 71.85 -27 71.94 C-27.68 71.99 -28.36 72.04 -29.06 72.09 C-31 72 -31 72 -34 70 C-33.25 69.99 -32.5 69.97 -31.73 69.96 C-28.75 69.81 -25.93 69.6 -23 69 C-21.64 67.35 -20.31 65.69 -19 64 C-16.36 63.44 -13.84 63.25 -11.14 63.14 C-9 63 -9 63 -8 62 C-5.67 61.96 -3.33 61.96 -1 62 C-1 61.34 -1 60.68 -1 60 C-2.98 59.67 -4.96 59.34 -7 59 C-7 58.34 -7 57.68 -7 57 C-6.34 57 -5.68 57 -5 57 C-5 56.34 -5 55.68 -5 55 C0.62 54.75 0.62 54.75 4 57 C4.33 56.67 4.66 56.34 5 56 C7.33 55.63 9.66 55.3 12 55 C12 54.34 12 53.68 12 53 C11.01 53.66 10.02 54.32 9 55 C9.33 52.69 9.66 50.38 10 48 C9.01 47.34 8.02 46.68 7 46 C7 46.66 7 47.32 7 48 C6.34 48 5.68 48 5 48 C4.67 47.34 4.34 46.68 4 46 C1.69 46 -0.62 46 -3 46 C-3 44.68 -3 43.36 -3 42 C-0.36 41.67 2.28 41.34 5 41 C4.49 38.83 4 37 3 35 C2.01 35.33 1.02 35.66 0 36 C-2.19 35.56 -2.19 35.56 -4 35 C-4.33 35.66 -4.66 36.32 -5 37 C-5.33 34.69 -5.66 32.38 -6 30 C-5.34 30 -4.68 30 -4 30 C-4 28.68 -4 27.36 -4 26 C-6.51 27.26 -6.87 28.5 -8 31 C-8.83 25.28 -9.12 19.78 -9 14 C-9.3 14.09 -9.3 14.09 -10.81 14.56 C-13 15 -13 15 -16 14 C-16.12 13.23 -16.24 12.46 -16.37 11.66 C-16.53 10.66 -16.7 9.66 -16.88 8.62 C-16.96 8.13 -16.96 8.13 -17.37 5.6 C-18 3 -18 3 -20 1 C-13.62 -0.49 -6.39 -1.92 0 0 Z M-18 66 C-18 66.33 -18 66.66 -18 67 C-16.35 67 -14.7 67 -13 67 C-13 66.67 -13 66.34 -13 66 C-14.65 66 -16.3 66 -18 66 Z " fill="#A49788" transform="translate(116,23)"/>
<path d="M0 0 C0.99 0.16 0.99 0.16 6 1 C6.66 5.29 7.32 9.58 8 14 C8.99 13.67 9.98 13.34 11 13 C11 14.32 11 15.64 11 17 C10.34 17 9.68 17 9 17 C9.16 17.83 9.16 17.83 10 22 C16.75 22.12 16.75 22.12 19 21 C20.06 23.37 20.06 23.37 21 26 C20.67 26.66 20.34 27.32 20 28 C16.94 28.62 16.94 28.62 14 29 C13.84 28.67 13.84 28.67 13 27 C12.34 27 11.68 27 11 27 C10.84 27.49 10.84 27.49 10 30 C9.34 30 8.68 30 8 30 C8 28.35 8 26.7 8 25 C7.34 25 6.68 25 6 25 C6.08 25.64 6.08 25.64 6.5 28.88 C6.77 30.95 7 32.91 7 35 C8.65 35.66 10.3 36.32 12 37 C12 37.99 12 38.98 12 40 C7.88 41.29 4.33 42.26 0 42 C-0.66 40.35 -1.32 38.7 -2 37 C-1.34 37 -0.68 37 0 37 C0 36.34 0 35.68 0 35 C-0.99 35.16 -0.99 35.16 -6 36 C-5.67 33.69 -5.34 31.38 -5 29 C-4.01 29.33 -3.02 29.66 -2 30 C-1.67 30 -1.34 30 -1 30 C-1 29.34 -1 28.68 -1 28 C-2.65 28.33 -4.3 28.66 -6 29 C-6.33 29.99 -6.66 30.98 -7 32 C-7.66 32 -8.32 32 -9 32 C-9 31.34 -9 30.68 -9 30 C-9.66 30 -10.32 30 -11 30 C-11.33 28.35 -11.66 26.7 -12 25 C-12.66 25 -13.32 25 -14 25 C-14 26.65 -14 28.3 -14 30 C-14.99 29.67 -15.98 29.34 -17 29 C-17 28.34 -17 27.68 -17 27 C-17.66 27 -18.32 27 -19 27 C-19.66 23.7 -20.32 20.4 -21 17 C-22.32 17 -23.64 17 -25 17 C-25 16.01 -25 15.02 -25 14 C-24.01 14.33 -23.02 14.66 -22 15 C-21.34 13.68 -20.68 12.36 -20 11 C-20 12.98 -20 14.96 -20 17 C-18.68 16.67 -17.36 16.34 -16 16 C-15.67 14.68 -15.34 13.36 -15 12 C-15.99 12 -16.98 12 -18 12 C-17.67 10.68 -17.34 9.36 -17 8 C-16.34 8 -15.68 8 -15 8 C-15 7.01 -15 6.02 -15 5 C-14.34 5 -13.68 5 -13 5 C-11.39 8.21 -11.94 11.44 -12 15 C-11.57 14.51 -11.13 14.01 -10.69 13.5 C-9 12 -9 12 -6 12 C-5.53 12.52 -5.05 13.03 -4.56 13.56 C-4.3 13.8 -4.3 13.8 -3 15 C-0.81 14.69 -0.81 14.69 1 14 C1 11.69 1 9.38 1 7 C3 9 3 9 3 12 C3.66 12 4.32 12 5 12 C5 10.02 5 8.04 5 6 C4.01 6 3.02 6 2 6 C2 5.01 2 4.02 2 3 C1.01 3 0.02 3 -1 3 C-0.67 2.01 -0.34 1.02 0 0 Z " fill="#847C74" transform="translate(101,36)"/>
<path d="M0 0 C0.66 0.66 1.32 1.32 2 2 C1.74 5.49 1.26 8.4 -0.12 11.62 C-1.18 14.49 -0.83 16.11 0 19 C-0.99 18.67 -1.98 18.34 -3 18 C-2.67 19.98 -2.34 21.96 -2 24 C-2.99 23.67 -3.98 23.34 -5 23 C-5 22.34 -5 21.68 -5 21 C-5.66 21 -6.32 21 -7 21 C-7 21.99 -7 22.98 -7 24 C-7.99 24.33 -8.98 24.66 -10 25 C-10.66 25.66 -11.32 26.32 -12 27 C-12.66 27 -13.32 27 -14 27 C-14.33 28.32 -14.66 29.64 -15 31 C-14.34 31.33 -13.68 31.66 -13 32 C-12.71 31.36 -12.42 30.72 -12.12 30.06 C-11 28 -11 28 -9 27 C-7.05 27.34 -7.05 27.34 -4.88 27.94 C-4.51 28.03 -4.51 28.03 -2.68 28.53 C-2.13 28.68 -1.57 28.84 -1 29 C-1.99 29.33 -2.98 29.66 -4 30 C-4 30.66 -4 31.32 -4 32 C-2.68 32 -1.36 32 0 32 C0 32.66 0 33.32 0 34 C-0.61 34.01 -1.21 34.03 -1.84 34.04 C-8.88 34.44 -13.92 36.54 -20 40 C-20.33 40.16 -20.33 40.16 -22 41 C-22 38.69 -22 36.38 -22 34 C-22.99 34 -23.98 34 -25 34 C-24.86 34.7 -24.71 35.4 -24.56 36.12 C-24.38 37.03 -24.19 37.94 -24 38.88 C-23.81 39.78 -23.63 40.68 -23.44 41.62 C-23 44 -23 44 -23 46 C-22.34 45.84 -22.34 45.84 -19 45 C-18.67 43.35 -18.34 41.7 -18 40 C-17.67 40 -17.34 40 -17 40 C-17 42.64 -17 45.28 -17 48 C-17.33 48.16 -17.33 48.16 -19 49 C-18.67 50.98 -18.34 52.96 -18 55 C-17.34 55 -16.68 55 -16 55 C-16 56.32 -16 57.64 -16 59 C-15.34 59 -14.68 59 -14 59 C-14.33 59.99 -14.66 60.98 -15 62 C-16.65 62.16 -16.65 62.16 -25 63 C-25 61.68 -25 60.36 -25 59 C-25.99 59 -26.98 59 -28 59 C-28 58.01 -28 57.02 -28 56 C-27.01 56 -26.02 56 -25 56 C-25.33 51.38 -25.66 46.76 -26 42 C-26.33 42 -26.66 42 -27 42 C-27.08 40.4 -27.14 38.79 -27.19 37.19 C-27.2 36.74 -27.2 36.74 -27.29 34.48 C-27 32 -27 32 -25.75 30.27 C-23.83 28.87 -22.13 28.17 -19.88 27.44 C-17.74 26.75 -17.74 26.75 -16 26 C-15.67 25.34 -15.34 24.68 -15 24 C-15.66 24 -16.32 24 -17 24 C-17 23.34 -17 22.68 -17 22 C-16.34 21.67 -15.68 21.34 -15 21 C-15.66 19.68 -16.32 18.36 -17 17 C-16.34 16.67 -15.68 16.34 -15 16 C-14.01 16.33 -13.02 16.66 -12 17 C-11.01 16.01 -10.02 15.02 -9 14 C-8.67 14.33 -8.34 14.66 -8 15 C-7.88 14.67 -7.88 14.67 -7.27 12.99 C-5.39 8.04 -3.67 3.93 0 0 Z " fill="#727670" transform="translate(47,23)"/>
<path d="M0 0 C2.38 -0.12 2.38 -0.12 5 0 C7 2 7 2 7 5 C7.91 4.96 8.81 4.92 9.75 4.88 C13 5 13 5 14.94 6 C17 7 17 7 20.62 7 C21.74 7 22.85 7 24 7 C27.82 10.82 28.12 15.76 28.12 20.94 C28.09 22.29 28.06 23.65 28 25 C27.34 24.34 26.68 23.68 26 23 C22.91 22.76 20.97 23.01 18 24 C17.34 23.01 16.68 22.02 16 21 C14.68 21 13.36 21 12 21 C11.67 22.65 11.34 24.3 11 26 C11.99 25.34 12.98 24.68 14 24 C14.99 24 15.98 24 17 24 C16.67 24.99 16.34 25.98 16 27 C13.39 28.24 10.74 29.09 8 30 C5.58 26.38 6.25 25.06 6.89 20.94 C7 19 7 19 5.75 16.56 C4 15 4 15 1 14 C1.33 12.68 1.66 11.36 2 10 C0.68 9.34 -0.64 8.68 -2 8 C-1.67 7.67 -1.34 7.34 -1 7 C-1.64 6.88 -2.28 6.75 -2.94 6.62 C-3.62 6.42 -4.3 6.21 -5 6 C-5.33 5.34 -5.66 4.68 -6 4 C0.62 2.88 0.62 2.88 4 4 C4 3.34 4 2.68 4 2 C2.68 2 1.36 2 0 2 C0 1.34 0 0.68 0 0 Z " fill="#A09387" transform="translate(43,53)"/>
<path d="M0 0 C0.66 0 1.32 0 2 0 C2 1.65 2 3.3 2 5 C2.66 5 3.32 5 4 5 C4.33 3.68 4.66 2.36 5 1 C5.99 1.33 6.98 1.66 8 2 C8 2.66 8 3.32 8 4 C7.67 4.17 7.67 4.17 6 5 C6 5.66 6 6.32 6 7 C8.31 7 10.62 7 13 7 C13.16 7.5 13.16 7.5 14 10 C14.66 10 15.32 10 16 10 C15.84 9.34 15.84 9.34 15 6 C15.83 6.66 15.83 6.66 20 10 C19.67 11.98 19.34 13.96 19 16 C19.99 15.01 20.98 14.02 22 13 C22 14.32 22 15.64 22 17 C20.03 18.97 16.64 18.68 14 19 C13.01 19 12.02 19 11 19 C10.67 18.67 10.34 18.34 10 18 C8.31 17.93 6.62 17.92 4.94 17.94 C4.02 17.95 3.1 17.96 2.15 17.96 C1.44 17.98 0.73 17.99 0 18 C0 19.65 0 21.3 0 23 C-1.65 23.33 -3.3 23.66 -5 24 C-5 22.68 -5 21.36 -5 20 C-5.66 20 -6.32 20 -7 20 C-7 20.66 -7 21.32 -7 22 C-7.75 21.99 -8.5 21.98 -9.27 21.96 C-10.25 21.96 -11.24 21.95 -12.25 21.94 C-13.22 21.93 -14.2 21.91 -15.2 21.9 C-17.66 21.99 -19.66 22.29 -22 23 C-22.33 22.34 -22.66 21.68 -23 21 C-22.34 21 -21.68 21 -21 21 C-21 20.34 -21 19.68 -21 19 C-20.34 19 -19.68 19 -19 19 C-18.34 15.7 -17.68 12.4 -17 9 C-15.68 8.67 -14.36 8.34 -13 8 C-12.67 8.99 -12.34 9.98 -12 11 C-10.02 10.67 -8.04 10.34 -6 10 C-6 10.66 -6 11.32 -6 12 C-6.66 12 -7.32 12 -8 12 C-7.34 13.65 -6.68 15.3 -6 17 C-5.13 16.67 -4.27 16.34 -3.38 16 C-0.04 15.01 2.55 14.84 6 15 C6 14.01 6 13.02 6 12 C5.22 11.88 4.43 11.75 3.62 11.62 C1 11 1 11 -1 9 C-0.67 8.01 -0.34 7.02 0 6 C0.04 4 0.04 2 0 0 Z " fill="#786D55" transform="translate(107,61)"/>
<path d="M0 0 C3.39 3.57 3.5 6.69 3.75 11.5 C3.83 12.81 3.9 14.12 3.98 15.47 C4 18.29 3.89 20.36 3 23 C2.01 23 1.02 23 0 23 C0 23.99 0 24.98 0 26 C0.99 26 1.98 26 3 26 C3 27.32 3 28.64 3 30 C4.65 29.72 6.29 29.42 7.94 29.12 C8.4 29.04 8.4 29.04 10.71 28.63 C11.47 28.42 12.22 28.22 13 28 C13.33 27.34 13.66 26.68 14 26 C13.34 26 12.68 26 12 26 C12 24.68 12 23.36 12 22 C11.34 22 10.68 22 10 22 C9.34 19.69 8.68 17.38 8 15 C8.82 15.16 8.82 15.16 13 16 C13.33 17.65 13.66 19.3 14 21 C14.74 21 15.48 21 16.25 21 C19 22 19 22 20.05 23.78 C20.69 25.22 21.32 26.67 21.95 28.12 C23 30 23 30 25.75 31.5 C26.49 31.66 27.23 31.83 28 32 C28 32.66 28 33.32 28 34 C29.98 34.66 31.96 35.32 34 36 C34 36.33 34 36.66 34 37 C28.21 37.36 24.31 36.38 19 34 C18.67 33.34 18.34 32.68 18 32 C17.05 32.21 16.1 32.41 15.12 32.62 C7.59 33.69 -0.18 31.04 -7 28 C-7.66 27.01 -8.32 26.02 -9 25 C-7.35 24.34 -5.7 23.68 -4 23 C-4 22.01 -4 21.02 -4 20 C-3.01 20 -2.02 20 -1 20 C-1.01 19.23 -1.02 18.45 -1.04 17.66 C-1.09 11.66 -0.91 5.93 0 0 Z " fill="#757E8B" transform="translate(19,56)"/>
<path d="M0 0 C-0.33 0.99 -0.66 1.98 -1 3 C-0.66 5.04 -0.66 5.04 -0.06 7.19 C0.29 8.45 0.64 9.7 1 11 C1.66 11 2.32 11 3 11 C3 11.66 3 12.32 3 13 C3.66 13 4.32 13 5 13 C5.33 12.01 5.66 11.02 6 10 C6 10.99 6 11.98 6 13 C6.99 13 7.98 13 9 13 C9 14.98 9 16.96 9 19 C8.34 19 7.68 19 7 19 C6.67 18.01 6.34 17.02 6 16 C5.97 16.39 5.97 16.39 5.81 18.38 C5.54 19.24 5.28 20.11 5 21 C2.44 22.31 2.44 22.31 0 23 C-0.66 21.68 -1.32 20.36 -2 19 C-2.99 19 -3.98 19 -5 19 C-5.33 19.99 -5.66 20.98 -6 22 C-6.66 22 -7.32 22 -8 22 C-8.33 18.7 -8.66 15.4 -9 12 C-9.66 12 -10.32 12 -11 12 C-11 12.99 -11 13.98 -11 15 C-11.66 15.33 -12.32 15.66 -13 16 C-13.33 16.99 -13.66 17.98 -14 19 C-13.01 19 -12.02 19 -11 19 C-11.33 20.65 -11.66 22.3 -12 24 C-13.32 24 -14.64 24 -16 24 C-16.3 18.19 -15.85 15.17 -13 10 C-12.6 8.42 -12.2 6.83 -11.81 5.25 C-10.58 1.32 -10.58 1.32 -8.1 -0.05 C-5.11 -0.84 -2.84 -1.42 0 0 Z " fill="#BFAC96" transform="translate(97,29)"/>
<path d="M0 0 C0 0.66 0 1.32 0 2 C1.98 2 3.96 2 6 2 C6.33 2.66 6.66 3.32 7 4 C7.99 4 8.98 4 10 4 C9.67 4.99 9.34 5.98 9 7 C5.04 6.67 1.08 6.34 -3 6 C-2.67 6.66 -2.34 7.32 -2 8 C1.06 8.62 1.06 8.62 4 9 C2.68 9.99 1.36 10.98 0 12 C0 11.34 0 10.68 0 10 C-2.31 10 -4.62 10 -7 10 C-7 11.32 -7 12.64 -7 14 C-6.01 14.16 -6.01 14.16 -1 15 C-1 15.66 -1 16.32 -1 17 C-2.65 17.16 -2.65 17.16 -11 18 C-11 17.34 -11 16.68 -11 16 C-11.66 16 -12.32 16 -13 16 C-13.33 14.68 -13.66 13.36 -14 12 C-14.66 12 -15.32 12 -16 12 C-16 11.01 -16 10.02 -16 9 C-16.56 9.02 -16.56 9.02 -19.38 9.12 C-23 9 -23 9 -25 7 C-21.13 4.42 -17.46 3.24 -13 2 C-12.01 1.34 -11.02 0.68 -10 0 C-3.71 -1.24 -3.71 -1.24 0 0 Z " fill="#BDAD85" transform="translate(73,15)"/>
<path d="M0 0 C1.65 0.33 3.3 0.66 5 1 C5.33 3.64 5.66 6.28 6 9 C6.66 9 7.32 9 8 9 C8.66 10.98 9.32 12.96 10 15 C9.26 14.92 8.52 14.84 7.75 14.75 C5 15 5 15 2.69 16.81 C1 19 1 19 1 22 C1.33 21.34 1.66 20.68 2 20 C2.99 20 3.98 20 5 20 C5 20.99 5 21.98 5 23 C4.34 23.33 3.68 23.66 3 24 C2.67 24.99 2.34 25.98 2 27 C2.66 27 3.32 27 4 27 C4.33 28.32 4.66 29.64 5 31 C3.54 31.22 2.08 31.43 0.62 31.62 C0.22 31.68 0.22 31.68 -1.84 31.98 C-2.55 31.98 -3.26 31.99 -4 32 C-4.66 31.34 -5.32 30.68 -6 30 C-5.34 30 -4.68 30 -4 30 C-5 21.91 -6.05 13.93 -8 6 C-7.34 6 -6.68 6 -6 6 C-5.34 4.68 -4.68 3.36 -4 2 C-2.12 5.27 -1.51 8.28 -1 12 C-0.34 12 0.32 12 1 12 C1.33 10.68 1.66 9.36 2 8 C2.66 8 3.32 8 4 8 C2.25 3.12 2.25 3.12 0 2 C0 1.34 0 0.68 0 0 Z " fill="#525453" transform="translate(76,54)"/>
<path d="M0 0 C1.32 0 2.64 0 4 0 C4.41 3.6 4.15 4.78 2 7.81 C1.34 8.53 0.68 9.26 0 10 C2.94 11.52 5.92 12.8 9 14 C9.33 12.02 9.66 10.04 10 8 C13.25 10.83 14.52 12.69 15 17 C12.3 17.69 10.38 18.08 7.62 17.5 C4.24 16.85 1.37 17.4 -2 18 C-2.21 17.38 -2.43 16.75 -2.65 16.11 C-4.54 13.16 -6.27 13.03 -9.62 12.25 C-10.13 12.13 -10.13 12.13 -12.66 11.52 C-13.43 11.35 -14.21 11.18 -15 11 C-15.99 12.32 -16.98 13.64 -18 15 C-18.99 14.67 -19.98 14.34 -21 14 C-19.54 9.36 -19.54 9.36 -17.06 7.69 C-15 7 -15 7 -12 7 C-12 6.01 -12 5.02 -12 4 C-11.34 4 -10.68 4 -10 4 C-9.34 4.66 -8.68 5.32 -8 6 C-7.67 4.68 -7.34 3.36 -7 2 C-6.01 3.32 -5.02 4.64 -4 6 C-3.42 5.01 -2.84 4.02 -2.25 3 C-1.51 2.01 -0.77 1.02 0 0 Z " fill="#525143" transform="translate(52,40)"/>
<path d="M0 0 C0.16 0.5 0.16 0.5 1 3 C-3.34 6.12 -6.8 6.56 -12 7 C-12 7.99 -12 8.98 -12 10 C-19 12.12 -25.69 13.54 -33 14 C-32.34 15.32 -31.68 16.64 -31 18 C-38.87 20.75 -38.87 20.75 -42 21 C-42.43 20.53 -42.87 20.05 -43.31 19.56 C-45.43 17.6 -46.18 17.85 -49 17.94 C-49.68 17.99 -50.36 18.04 -51.06 18.09 C-53 18 -53 18 -56 16 C-55.25 15.99 -54.5 15.97 -53.73 15.96 C-50.75 15.81 -47.93 15.6 -45 15 C-43.64 13.35 -42.31 11.69 -41 10 C-38.45 9.42 -36.02 9.25 -33.41 9.12 C-31 9 -31 9 -28 8.31 C-27.34 8.21 -26.68 8.11 -26 8 C-25.34 8.66 -24.68 9.32 -24 10 C-23.01 9.67 -22.02 9.34 -21 9 C-20.67 8.01 -20.34 7.02 -20 6 C-19.34 6.33 -18.68 6.66 -18 7 C-18 6.34 -18 5.68 -18 5 C-13.71 5 -9.42 5 -5 5 C-5 4.01 -5 3.02 -5 2 C-3.35 2 -1.7 2 0 2 C0 1.34 0 0.68 0 0 Z M-40 12 C-40 12.33 -40 12.66 -40 13 C-38.35 13 -36.7 13 -35 13 C-35 12.67 -35 12.34 -35 12 C-36.65 12 -38.3 12 -40 12 Z " fill="#C9C2B7" transform="translate(138,77)"/>
<path d="M0 0 C0 0.66 0 1.32 0 2 C0.66 2 1.32 2 2 2 C2 2.66 2 3.32 2 4 C4.97 4.66 7.94 5.32 11 6 C10.67 6.16 10.67 6.16 9 7 C9 7.99 9 8.98 9 10 C7.35 10.66 5.7 11.32 4 12 C4 12.66 4 13.32 4 14 C2.5 15.63 2.5 15.63 1 17 C0.01 16.67 -0.98 16.34 -2 16 C-4.01 16.28 -6.01 16.6 -8 17 C-8.98 13.95 -8.98 12.05 -8 9 C-8.99 9 -9.98 9 -11 9 C-11 9.99 -11 10.98 -11 12 C-11.99 12 -12.98 12 -14 12 C-13.43 9.13 -13.14 8.14 -11 6 C-11 6.66 -11 7.32 -11 8 C-7.7 7.67 -4.4 7.34 -1 7 C-1 6.34 -1 5.68 -1 5 C-1.47 5.02 -1.47 5.02 -3.88 5.12 C-7 5 -7 5 -9 3 C-8.34 3 -7.68 3 -7 3 C-7 2.01 -7 1.02 -7 0 C-4.33 -1.33 -2.83 -0.67 0 0 Z " fill="#797574" transform="translate(73,25)"/>
<path d="M0 0 C2.97 0.33 5.94 0.66 9 1 C9 1.99 9 2.98 9 4 C9.66 4 10.32 4 11 4 C12.38 6.56 12.38 6.56 13 10 C11.44 12.78 9.51 15.03 7 17 C6.01 17 5.02 17 4 17 C3.87 17.29 3.87 17.29 3.19 18.75 C1.98 21.03 0.59 22.97 -1 25 C-1.99 22.69 -2.98 20.38 -4 18 C-3.34 17.67 -2.68 17.34 -2 17 C-2.23 16.32 -2.45 15.64 -2.69 14.94 C-3.11 10.98 -1.61 8.6 0 5 C0.19 2.06 0.19 2.06 0 0 Z " fill="#5F5D56" transform="translate(48,23)"/>
<path d="M0 0 C0.66 0.66 1.32 1.32 2 2 C1.74 5.49 1.26 8.4 -0.12 11.62 C-1.18 14.49 -0.83 16.11 0 19 C-0.99 18.67 -1.98 18.34 -3 18 C-2.67 19.98 -2.34 21.96 -2 24 C-2.99 23.67 -3.98 23.34 -5 23 C-5 22.34 -5 21.68 -5 21 C-5.66 21 -6.32 21 -7 21 C-7 21.99 -7 22.98 -7 24 C-7.99 24.33 -8.98 24.66 -10 25 C-10.66 25.66 -11.32 26.32 -12 27 C-14.12 26.62 -14.12 26.62 -16 26 C-15.67 25.34 -15.34 24.68 -15 24 C-15.66 24 -16.32 24 -17 24 C-17 23.34 -17 22.68 -17 22 C-16.34 21.67 -15.68 21.34 -15 21 C-15.66 19.68 -16.32 18.36 -17 17 C-16.34 16.67 -15.68 16.34 -15 16 C-14.01 16.33 -13.02 16.66 -12 17 C-11.01 16.01 -10.02 15.02 -9 14 C-8.67 14.33 -8.34 14.66 -8 15 C-7.88 14.67 -7.88 14.67 -7.27 12.99 C-5.39 8.04 -3.67 3.93 0 0 Z " fill="#96948A" transform="translate(47,23)"/>
<path d="M0 0 C0.66 0 1.32 0 2 0 C2 0.66 2 1.32 2 2 C1.34 2 0.68 2 0 2 C0 2.66 0 3.32 0 4 C1.32 4.33 2.64 4.66 4 5 C4.33 4.34 4.66 3.68 5 3 C5.66 4.98 6.32 6.96 7 9 C9.31 8.34 11.62 7.68 14 7 C16 10 16 10 15.62 12.19 C15.52 12.49 15.52 12.49 15 14 C10.25 13.12 10.25 13.12 8 12 C8 13.65 8 15.3 8 17 C6.02 17 4.04 17 2 17 C2.33 16.01 2.66 15.02 3 14 C2.07 13.77 1.14 13.55 0.19 13.31 C-3.54 11.78 -4.4 10.64 -6 7 C-6 6.01 -6 5.02 -6 4 C-3.56 2.38 -3.56 2.38 -1 1 C-0.67 0.67 -0.34 0.34 0 0 Z " fill="#6B6F75" transform="translate(44,74)"/>
<path d="M0 0 C0.99 0.33 1.98 0.66 3 1 C3 1.66 3 2.32 3 3 C4.98 2.67 6.96 2.34 9 2 C9 2.66 9 3.32 9 4 C8.34 4 7.68 4 7 4 C7.69 6.38 7.69 6.38 9 9 C11.62 10.31 11.62 10.31 14 11 C13.67 12.65 13.34 14.3 13 16 C12.01 16 11.02 16 10 16 C10 14.68 10 13.36 10 12 C9.34 12 8.68 12 8 12 C8 12.66 8 13.32 8 14 C7.25 13.99 6.5 13.98 5.73 13.96 C4.75 13.96 3.76 13.95 2.75 13.94 C1.78 13.93 0.8 13.91 -0.2 13.9 C-2.66 13.99 -4.66 14.29 -7 15 C-7.33 14.34 -7.66 13.68 -8 13 C-7.34 13 -6.68 13 -6 13 C-6 12.34 -6 11.68 -6 11 C-5.34 11 -4.68 11 -4 11 C-3.88 10.29 -3.76 9.58 -3.63 8.85 C-3.47 7.93 -3.3 7.01 -3.12 6.06 C-2.96 5.15 -2.8 4.23 -2.63 3.29 C-2.42 2.53 -2.22 1.78 -2 1 C-1.34 0.67 -0.68 0.34 0 0 Z " fill="#5D5842" transform="translate(92,69)"/>
<path d="M0 0 C0.33 0.99 0.66 1.98 1 3 C1.37 4.09 1.74 5.19 2.12 6.31 C3.17 10.71 3.03 13.94 1 18 C1.89 17.79 2.77 17.59 3.69 17.38 C7.23 16.97 8.87 17.43 12 19 C12 19.99 12 20.98 12 22 C7.88 23.29 4.33 24.26 0 24 C-0.66 22.35 -1.32 20.7 -2 19 C-1.34 19 -0.68 19 0 19 C0 18.34 0 17.68 0 17 C-1.98 17.33 -3.96 17.66 -6 18 C-5.67 15.69 -5.34 13.38 -5 11 C-4.01 11.33 -3.02 11.66 -2 12 C-1.67 12 -1.34 12 -1 12 C-1 11.34 -1 10.68 -1 10 C-2.65 10 -4.3 10 -6 10 C-5.67 9.01 -5.34 8.02 -5 7 C-4.34 6.67 -3.68 6.34 -3 6 C-2.38 3.94 -2.38 3.94 -2 2 C-1.34 2 -0.68 2 0 2 C0 1.34 0 0.68 0 0 Z " fill="#A38668" transform="translate(101,54)"/>
<path d="M0 0 C0 1.32 0 2.64 0 4 C-0.66 4 -1.32 4 -2 4 C-1.67 5.65 -1.34 7.3 -1 9 C5.75 9.12 5.75 9.12 8 8 C9.06 10.38 9.06 10.38 10 13 C9.67 13.66 9.34 14.32 9 15 C5.94 15.62 5.94 15.62 3 16 C2.67 15.34 2.34 14.68 2 14 C1.34 14 0.68 14 0 14 C-0.33 14.99 -0.66 15.98 -1 17 C-1.66 17 -2.32 17 -3 17 C-3 15.35 -3 13.7 -3 12 C-3.66 12 -4.32 12 -5 12 C-4.67 14.64 -4.34 17.28 -4 20 C-7.75 23 -7.75 23 -10 23 C-9.01 17.63 -7.89 12.3 -6.56 7 C-6.34 6.09 -6.11 5.19 -5.88 4.25 C-4.72 1.29 -3.27 0 0 0 Z " fill="#877D68" transform="translate(112,49)"/>
<path d="M0 0 C1.65 0.99 3.3 1.98 5 3 C5.66 2.34 6.32 1.68 7 1 C10.19 1.31 10.19 1.31 14 2 C15.3 2.19 16.6 2.37 17.94 2.56 C18.95 2.71 19.96 2.85 21 3 C21 3.66 21 4.32 21 5 C20.34 5 19.68 5 19 5 C19.33 5.99 19.66 6.98 20 8 C19.34 8 18.68 8 18 8 C18 6.68 18 5.36 18 4 C17.67 5.32 17.34 6.64 17 8 C5.48 10.67 5.48 10.67 0 8 C0 7.34 0 6.68 0 6 C-1.48 6.17 -1.48 6.17 -9 7 C-8.67 6.01 -8.34 5.02 -8 4 C-5.69 4.33 -3.38 4.66 -1 5 C-0.67 3.35 -0.34 1.7 0 0 Z " fill="#ACA79C" transform="translate(62,85)"/>
<path d="M0 0 C3.39 3.57 3.5 6.69 3.75 11.5 C3.83 12.81 3.9 14.12 3.98 15.47 C4 18.29 3.89 20.36 3 23 C2.01 23 1.02 23 0 23 C0 23.99 0 24.98 0 26 C0.99 26 1.98 26 3 26 C3 27.32 3 28.64 3 30 C4.98 30 6.96 30 9 30 C6 32 6 32 3.95 31.9 C-1.18 30.71 -4.82 29.22 -9 26 C-7 24 -7 24 -4 22 C-4 21.34 -4 20.68 -4 20 C-3.01 20 -2.02 20 -1 20 C-1.01 19.23 -1.02 18.45 -1.04 17.66 C-1.09 11.66 -0.91 5.93 0 0 Z " fill="#A4A9A8" transform="translate(19,56)"/>
<path d="M0 0 C0.4 0.01 0.4 0.01 2.44 0.06 C2.77 0.72 3.1 1.38 3.44 2.06 C4.1 2.06 4.76 2.06 5.44 2.06 C5.44 2.72 5.44 3.38 5.44 4.06 C6.1 4.06 6.76 4.06 7.44 4.06 C7.77 3.07 8.1 2.08 8.44 1.06 C8.44 2.05 8.44 3.04 8.44 4.06 C9.43 4.06 10.42 4.06 11.44 4.06 C11.44 6.04 11.44 8.02 11.44 10.06 C10.78 10.06 10.12 10.06 9.44 10.06 C9.11 9.07 8.78 8.08 8.44 7.06 C8.38 7.85 8.31 8.63 8.25 9.44 C7.98 10.3 7.71 11.17 7.44 12.06 C4.88 13.38 4.88 13.38 2.44 14.06 C1.78 12.74 1.12 11.42 0.44 10.06 C-0.55 10.06 -1.54 10.06 -2.56 10.06 C-2.89 11.05 -3.22 12.04 -3.56 13.06 C-4.22 13.06 -4.88 13.06 -5.56 13.06 C-5.56 11.41 -5.56 9.76 -5.56 8.06 C-4.57 8.06 -3.58 8.06 -2.56 8.06 C-2.66 7.5 -2.66 7.5 -3.12 4.62 C-3.27 3.45 -3.41 2.27 -3.56 1.06 C-2.56 0.06 -2.56 0.06 0 0 Z " fill="#A7978A" transform="translate(94.5625,37.9375)"/>
<path d="M0 0 C1.32 0.33 2.64 0.66 4 1 C3.34 1 2.68 1 2 1 C2 1.66 2 2.32 2 3 C2.99 3.17 2.99 3.17 8 4 C8 4.66 8 5.32 8 6 C7.47 6.07 7.47 6.07 4.81 6.44 C1.84 6.88 -1.06 7.4 -4 8 C-5.01 8.08 -6.02 8.16 -7.06 8.25 C-10.84 9.21 -11.68 10.98 -14 14 C-15.32 14 -16.64 14 -18 14 C-18 12.02 -18 10.04 -18 8 C-18.66 7.67 -19.32 7.34 -20 7 C-18.35 6.34 -16.7 5.68 -15 5 C-15 4.67 -15 4.34 -15 4 C-13.35 4 -11.7 4 -10 4 C-9.67 3.34 -9.34 2.68 -9 2 C-9 2.66 -9 3.32 -9 4 C-8.34 4 -7.68 4 -7 4 C-7 3.34 -7 2.68 -7 2 C-6.34 2 -5.68 2 -5 2 C-5 3.32 -5 4.64 -5 6 C-3.35 5.67 -1.7 5.34 0 5 C0 3.35 0 1.7 0 0 Z " fill="#93845D" transform="translate(107,79)"/>
<path d="M0 0 C-0.64 0.29 -1.28 0.58 -1.94 0.88 C-4 2 -4 2 -5 4 C-6.32 4 -7.64 4 -9 4 C-9 4.66 -9 5.32 -9 6 C-6.69 6.33 -4.38 6.66 -2 7 C-2 7.66 -2 8.32 -2 9 C-2.66 9 -3.32 9 -4 9 C-4 9.66 -4 10.32 -4 11 C-3.01 11.33 -2.02 11.66 -1 12 C-1 12.66 -1 13.32 -1 14 C-3.75 14.92 -5.36 15.11 -8.19 15.06 C-8.82 15.05 -8.82 15.05 -12 15 C-10.35 12.69 -8.7 10.38 -7 8 C-8.32 8.33 -9.64 8.66 -11 9 C-11 8.01 -11 7.02 -11 6 C-12.98 6 -14.96 6 -17 6 C-17.33 5.34 -17.66 4.68 -18 4 C-19.98 4 -21.96 4 -24 4 C-20.42 1.61 -17.29 1.33 -13.12 0.88 C-12.42 0.79 -11.71 0.7 -10.98 0.61 C-7.3 0.18 -3.7 -0.1 0 0 Z " fill="#E0D0B6" transform="translate(90,11)"/>
<path d="M0 0 C0.99 0.16 0.99 0.16 6 1 C7.1 10.04 7.11 17.39 4 26 C3.34 26 2.68 26 2 26 C1.71 25.2 1.42 24.39 1.12 23.56 C0 21 0 21 -2 20 C-2.62 17.44 -2.62 17.44 -3 15 C-1.68 14.67 -0.36 14.34 1 14 C1 11.69 1 9.38 1 7 C3 9 3 9 3 12 C3.66 12 4.32 12 5 12 C5 10.02 5 8.04 5 6 C4.01 6 3.02 6 2 6 C2 5.01 2 4.02 2 3 C1.01 3 0.02 3 -1 3 C-0.67 2.01 -0.34 1.02 0 0 Z " fill="#8E847C" transform="translate(101,36)"/>
<path d="M0 0 C0.33 0.66 0.66 1.32 1 2 C3.32 2.41 5.66 2.74 8 3 C7.67 3.66 7.34 4.32 7 5 C8.48 4.83 8.48 4.83 16 4 C16 4.99 16 5.98 16 7 C14.02 7.33 12.04 7.66 10 8 C10.33 8.33 10.66 8.66 11 9 C11.04 11 11.04 13 11 15 C8.69 15 6.38 15 4 15 C3.67 14.01 3.34 13.02 3 12 C3.66 12 4.32 12 5 12 C5 11.34 5 10.68 5 10 C4.45 10.02 4.45 10.02 1.69 10.12 C-2 10 -2 10 -5 8 C-2.69 7.34 -0.38 6.68 2 6 C2 5.01 2 4.02 2 3 C1.34 3 0.68 3 0 3 C0 2.01 0 1.02 0 0 Z " fill="#70694E" transform="translate(78,78)"/>
<path d="M0 0 C0.66 0.33 1.32 0.66 2 1 C1.67 1.66 1.34 2.32 1 3 C2.16 2.83 2.16 2.83 8 2 C8 2.66 8 3.32 8 4 C6.35 4 4.7 4 3 4 C3 4.99 3 5.98 3 7 C-1.29 7 -5.58 7 -10 7 C-10 7.66 -10 8.32 -10 9 C-10.66 9 -11.32 9 -12 9 C-13.62 11 -13.62 11 -15 13 C-15.99 12.67 -16.98 12.34 -18 12 C-18 11.34 -18 10.68 -18 10 C-17.01 10 -16.02 10 -15 10 C-15 9.34 -15 8.68 -15 8 C-15.99 7.83 -15.99 7.83 -21 7 C-21 6.34 -21 5.68 -21 5 C-20.34 5 -19.68 5 -19 5 C-19 4.34 -19 3.68 -19 3 C-13.38 2.75 -13.38 2.75 -10 5 C-9.67 4.67 -9.34 4.34 -9 4 C-7.87 3.88 -6.73 3.75 -5.56 3.62 C-4.39 3.42 -3.21 3.21 -2 3 C-1.34 2.01 -0.68 1.02 0 0 Z " fill="#AE9D6A" transform="translate(130,75)"/>
<path d="M0 0 C2.38 -0.12 2.38 -0.12 5 0 C7 2 7 2 7 5 C8.98 5 10.96 5 13 5 C13 5.33 13 5.66 13 6 C11.35 6.33 9.7 6.66 8 7 C8.33 9.31 8.66 11.62 9 14 C7.25 15.12 7.25 15.12 5 16 C2.75 15.12 2.75 15.12 1 14 C1.33 12.68 1.66 11.36 2 10 C0.68 9.34 -0.64 8.68 -2 8 C-1.67 7.67 -1.34 7.34 -1 7 C-1.64 6.88 -2.28 6.75 -2.94 6.62 C-3.62 6.42 -4.3 6.21 -5 6 C-5.33 5.34 -5.66 4.68 -6 4 C0.62 2.88 0.62 2.88 4 4 C4 3.34 4 2.68 4 2 C2.68 2 1.36 2 0 2 C0 1.34 0 0.68 0 0 Z " fill="#9A9173" transform="translate(43,53)"/>
<path d="M0 0 C0.33 0.66 0.66 1.32 1 2 C1.66 2 2.32 2 3 2 C3.33 3.65 3.66 5.3 4 7 C5.98 7 7.96 7 10 7 C10.31 12.24 9.78 15.51 7 20 C6.34 20.33 5.68 20.66 5 21 C5.33 18.69 5.66 16.38 6 14 C5.01 13.34 4.02 12.68 3 12 C3 12.66 3 13.32 3 14 C2.34 14 1.68 14 1 14 C0.67 13.34 0.34 12.68 0 12 C-2.31 12 -4.62 12 -7 12 C-7 10.68 -7 9.36 -7 8 C-4.36 7.67 -1.72 7.34 1 7 C0.67 4.69 0.34 2.38 0 0 Z " fill="#A4967E" transform="translate(120,57)"/>
<path d="M0 0 C0.5 0.33 0.5 0.33 3 2 C2.67 3.65 2.34 5.3 2 7 C2.99 6.67 3.98 6.34 5 6 C5.66 7.98 6.32 9.96 7 12 C7.33 11.34 7.66 10.68 8 10 C8.99 10 9.98 10 11 10 C11 10.99 11 11.98 11 13 C10.67 13.16 10.67 13.16 9 14 C8.67 14.99 8.34 15.98 8 17 C8.66 17 9.32 17 10 17 C10.33 18.32 10.66 19.64 11 21 C9.54 21.22 8.08 21.43 6.62 21.62 C6.22 21.68 6.22 21.68 4.16 21.98 C3.45 21.98 2.74 21.99 2 22 C1.34 21.34 0.68 20.68 0 20 C0.66 20 1.32 20 2 20 C1.86 18.98 1.71 17.95 1.56 16.89 C1.37 15.53 1.19 14.17 1 12.81 C0.9 12.14 0.81 11.47 0.71 10.77 C0.22 7.15 -0.11 3.65 0 0 Z " fill="#494836" transform="translate(70,64)"/>
<path d="M0 0 C0.16 0.5 0.16 0.5 1 3 C-3.34 6.12 -6.8 6.56 -12 7 C-12 7.99 -12 8.98 -12 10 C-21.58 12.6 -31.24 12.82 -41 11 C-41 10.67 -41 10.34 -41 10 C-40.34 9.94 -39.67 9.88 -38.99 9.82 C-31.43 9.1 -31.43 9.1 -28 8.31 C-27.34 8.21 -26.68 8.11 -26 8 C-25.34 8.66 -24.68 9.32 -24 10 C-23.01 9.67 -22.02 9.34 -21 9 C-20.67 8.01 -20.34 7.02 -20 6 C-19.34 6.33 -18.68 6.66 -18 7 C-18 6.34 -18 5.68 -18 5 C-13.71 5 -9.42 5 -5 5 C-5 4.01 -5 3.02 -5 2 C-3.35 2 -1.7 2 0 2 C0 1.34 0 0.68 0 0 Z " fill="#C4B690" transform="translate(138,77)"/>
<path d="M0 0 C0.66 0 1.32 0 2 0 C1.67 2.31 1.34 4.62 1 7 C0.01 7 -0.98 7 -2 7 C-2 7.66 -2 8.32 -2 9 C-4.31 9.66 -6.62 10.32 -9 11 C-8.34 14.3 -7.68 17.6 -7 21 C-9.31 21 -11.62 21 -14 21 C-14 20.34 -14 19.68 -14 19 C-14.66 19 -15.32 19 -16 19 C-16 17.68 -16 16.36 -16 15 C-15.01 15 -14.02 15 -13 15 C-12.34 12.69 -11.68 10.38 -11 8 C-10.67 8.66 -10.34 9.32 -10 10 C-9.34 10 -8.68 10 -8 10 C-7.67 9.01 -7.34 8.02 -7 7 C-6.34 7 -5.68 7 -5 7 C-5 6.34 -5 5.68 -5 5 C-3.35 4.34 -1.7 3.68 0 3 C0 2.01 0 1.02 0 0 Z " fill="#585453" transform="translate(82,32)"/>
<path d="M0 0 C0.66 0 1.32 0 2 0 C2.3 0.39 2.3 0.39 3.81 2.38 C6.18 5.22 7.56 5.88 11 7 C12.34 7.65 13.68 8.31 15 9 C14.67 9.99 14.34 10.98 14 12 C13.34 12 12.68 12 12 12 C12 12.66 12 13.32 12 14 C11.34 14 10.68 14 10 14 C9.79 13.38 9.57 12.75 9.35 12.11 C7.46 9.16 5.73 9.03 2.38 8.25 C1.87 8.13 1.87 8.13 -0.66 7.52 C-1.43 7.35 -2.21 7.18 -3 7 C-3.99 8.32 -4.98 9.64 -6 11 C-6.99 10.67 -7.98 10.34 -9 10 C-7.54 5.36 -7.54 5.36 -5.06 3.69 C-3 3 -3 3 0 3 C0 2.01 0 1.02 0 0 Z " fill="#5B5C40" transform="translate(40,44)"/>
<path d="M0 0 C6.67 0.88 11.7 2.6 16 8 C17.18 11.68 17.26 14.35 16 18 C15.67 17.01 15.34 16.02 15 15 C14.67 15.16 14.67 15.16 13 16 C12.67 13.69 12.34 11.38 12 9 C11.37 9.08 10.75 9.17 10.1 9.25 C9.28 9.36 8.47 9.46 7.62 9.56 C6.81 9.67 6 9.77 5.16 9.88 C3 10 3 10 1 9 C1.33 6.36 1.66 3.72 2 1 C1.34 0.67 0.68 0.34 0 0 Z " fill="#E3D4BF" transform="translate(101,14)"/>
<path d="M0 0 C4.04 0.26 6.35 1.23 9.81 3.25 C9.46 3.97 9.11 4.69 8.75 5.44 C7.71 8.56 7.92 10.13 8.81 13.25 C8.15 13.25 7.49 13.25 6.81 13.25 C6.15 10.28 5.49 7.31 4.81 4.25 C3.82 4.25 2.83 4.25 1.81 4.25 C2.14 5.9 2.47 7.55 2.81 9.25 C1.66 9.75 1.66 9.75 -4.19 12.25 C-4.52 11.26 -4.85 10.27 -5.19 9.25 C-4.53 8.92 -3.87 8.59 -3.19 8.25 C-3.28 7.68 -3.28 7.68 -3.75 4.81 C-3.82 4.22 -3.82 4.22 -4.19 1.25 C-3.19 0.25 -3.19 0.25 0 0 Z " fill="#D2BEA8" transform="translate(54.1875,58.75)"/>
<path d="M0 0 C2.91 2.25 3.43 5.01 3.94 8.5 C4.08 11.51 4.06 14.49 3.94 17.5 C2.76 16.77 1.6 16.01 0.44 15.25 C0.11 15.04 0.11 15.04 -1.53 13.98 C-2.04 13.49 -2.54 13 -3.06 12.5 C-3.06 11.18 -3.06 9.86 -3.06 8.5 C-3.72 8.5 -4.38 8.5 -5.06 8.5 C-5.69 6.62 -5.69 6.62 -6.06 4.5 C-5.4 3.84 -4.74 3.18 -4.06 2.5 C-4.39 1.84 -4.72 1.18 -5.06 0.5 C-2.06 -0.5 -2.06 -0.5 0 0 Z " fill="#8F8780" transform="translate(67.0625,60.5)"/>
<path d="M0 0 C0 0.66 0 1.32 0 2 C1.98 2 3.96 2 6 2 C6.33 2.66 6.66 3.32 7 4 C7.99 4 8.98 4 10 4 C9.67 4.99 9.34 5.98 9 7 C-8.36 7 -8.36 7 -11 6 C-11.33 5.01 -11.66 4.02 -12 3 C-11.36 2.88 -10.72 2.75 -10.06 2.62 C-9.72 2.52 -9.72 2.52 -8 2 C-7.67 1.34 -7.34 0.68 -7 0 C-4.03 -1.09 -3.12 -1.04 0 0 Z " fill="#A59560" transform="translate(73,15)"/>
<path d="M0 0 C0.99 0 1.98 0 3 0 C3.33 1.98 3.66 3.96 4 6 C4.54 5.64 5.09 5.28 5.64 4.91 C6.36 4.44 7.08 3.98 7.81 3.5 C8.52 3.04 9.23 2.57 9.96 2.09 C12 1 12 1 15 1 C15 2.32 15 3.64 15 5 C14.34 5 13.68 5 13 5 C13 5.99 13 6.98 13 8 C12.01 8 11.02 8 10 8 C10 8.99 10 9.98 10 11 C7.36 11.33 4.72 11.66 2 12 C1.66 10.38 1.33 8.75 1 7.12 C0.81 6.22 0.63 5.32 0.44 4.38 C0 2 0 2 0 0 Z " fill="#535242" transform="translate(22,57)"/>
<path d="M0 0 C10.62 6.25 10.62 6.25 12 9 C12.1 10.66 12.13 12.33 12.12 14 C12.13 14.89 12.13 15.77 12.13 16.69 C12 19 12 19 11 21 C12.65 20.67 14.3 20.34 16 20 C16 20.66 16 21.32 16 22 C16.99 22.66 17.98 23.32 19 24 C16.69 24.33 14.38 24.66 12 25 C12 24.34 12 23.68 12 23 C11.34 22.67 10.68 22.34 10 22 C10.33 18.37 10.66 14.74 11 11 C8.69 11.33 6.38 11.66 4 12 C4 10.02 4 8.04 4 6 C3.34 6 2.68 6 2 6 C0 3 0 3 0 0 Z " fill="#D2C6B1" transform="translate(119,53)"/>
<path d="M0 0 C0.33 0 0.66 0 1 0 C2.4 6.12 3.23 11.72 3 18 C2.67 18 2.34 18 2 18 C2 16.35 2 14.7 2 13 C1.24 13.04 0.47 13.08 -0.31 13.12 C-3 13 -3 13 -6 11 C-6.33 12.65 -6.66 14.3 -7 16 C-7.66 16 -8.32 16 -9 16 C-8.56 11.16 -7.57 9.24 -4 6 C-3.67 5.01 -3.34 4.02 -3 3 C-2.01 3 -1.02 3 0 3 C0 2.01 0 1.02 0 0 Z " fill="#D8C8B6" transform="translate(118,33)"/>
<path d="M0 0 C0.33 0 0.66 0 1 0 C1.28 5.56 1.18 8.3 -2 13 C-2.69 15.81 -2.69 15.81 -3 18 C-4.98 17.34 -6.96 16.68 -9 16 C-9.33 13.69 -9.66 11.38 -10 9 C-7.35 7.54 -6.11 7 -3 7 C-3 6.34 -3 5.68 -3 5 C-2.01 5 -1.02 5 0 5 C0 3.35 0 1.7 0 0 Z " fill="#776D63" transform="translate(83,34)"/>
<path d="M0 0 C0.66 0 1.32 0 2 0 C3.61 3.21 3.06 6.44 3 10 C3.43 9.51 3.87 9.01 4.31 8.5 C6 7 6 7 9 7 C10.62 9.57 11.04 10.68 10.62 13.75 C10.42 14.49 10.21 15.23 10 16 C8.02 15.34 6.04 14.68 4 14 C4 13.34 4 12.68 4 12 C2.68 11.67 1.36 11.34 0 11 C0 9.68 0 8.36 0 7 C-0.99 7 -1.98 7 -3 7 C-2.67 5.68 -2.34 4.36 -2 3 C-1.34 3 -0.68 3 0 3 C0 2.01 0 1.02 0 0 Z " fill="#908479" transform="translate(86,41)"/>
<path d="M0 0 C0.12 0.64 0.25 1.28 0.38 1.94 C0.48 2.28 0.48 2.28 1 4 C1.66 4.33 2.32 4.66 3 5 C3.29 4.36 3.58 3.72 3.88 3.06 C5 1 5 1 7 0 C8.95 0.34 8.95 0.34 11.12 0.94 C11.49 1.03 11.49 1.03 13.32 1.53 C13.87 1.68 14.43 1.84 15 2 C14.01 2.33 13.02 2.66 12 3 C12 3.66 12 4.32 12 5 C13.32 5 14.64 5 16 5 C16 5.66 16 6.32 16 7 C13.86 7.16 13.86 7.16 3 8 C3 7.34 3 6.68 3 6 C2.05 6.02 1.1 6.04 0.12 6.06 C-3 6 -3 6 -5 5 C-4.67 4.34 -4.34 3.68 -4 3 C-3.01 3.33 -2.02 3.66 -1 4 C-1.33 3.01 -1.66 2.02 -2 1 C-1.34 0.67 -0.68 0.34 0 0 Z " fill="#6F6C4D" transform="translate(31,50)"/>
<path d="M0 0 C0.66 0 1.32 0 2 0 C2.33 0.66 2.66 1.32 3 2 C3.99 1.34 4.98 0.68 6 0 C6 1.98 6 3.96 6 6 C6.66 4.68 7.32 3.36 8 2 C8.33 3.32 8.66 4.64 9 6 C9.66 6 10.32 6 11 6 C10.67 6.99 10.34 7.98 10 9 C6.7 9.33 3.4 9.66 0 10 C0 8.68 0 7.36 0 6 C-0.99 6 -1.98 6 -3 6 C-3 5.01 -3 4.02 -3 3 C-2.01 3 -1.02 3 0 3 C0 2.01 0 1.02 0 0 Z " fill="#575E5B" transform="translate(22,76)"/>
<path d="M0 0 C0.87 0.46 1.75 0.92 2.64 1.39 C3.52 1.84 4.41 2.29 5.31 2.75 C7.46 4.21 7.46 4.21 8.46 7.21 C7.8 7.87 7.14 8.53 6.46 9.21 C4.81 8.22 3.16 7.23 1.46 6.21 C1.13 7.53 0.8 8.85 0.46 10.21 C-1.85 10.21 -4.16 10.21 -6.54 10.21 C-6.87 10.87 -7.2 11.53 -7.54 12.21 C-8.53 11.88 -9.52 11.55 -10.54 11.21 C-9.88 11.21 -9.22 11.21 -8.54 11.21 C-8.54 9.56 -8.54 7.91 -8.54 6.21 C-6.23 6.54 -3.92 6.87 -1.54 7.21 C-1.87 5.56 -2.2 3.91 -2.54 2.21 C-3.86 1.88 -5.18 1.55 -6.54 1.21 C-3.96 -0.55 -3.05 -0.95 0 0 Z " fill="#888169" transform="translate(60.54296875,79.79296875)"/>
<path d="M0 0 C5.26 -0.32 8.45 0.33 13 3 C13 3.66 13 4.32 13 5 C14.98 5.66 16.96 6.32 19 7 C19 7.33 19 7.66 19 8 C13.21 8.36 9.31 7.38 4 5 C3.67 4.34 3.34 3.68 3 3 C2.44 3.1 2.44 3.1 -0.38 3.62 C-1.57 3.75 -2.77 3.87 -4 4 C-4.66 3.34 -5.32 2.68 -6 2 C-4.02 2 -2.04 2 0 2 C0 1.34 0 0.68 0 0 Z " fill="#AEB3BB" transform="translate(34,85)"/>
<path d="M0 0 C0.66 0 1.32 0 2 0 C2 1.65 2 3.3 2 5 C2.66 5 3.32 5 4 5 C4.33 3.68 4.66 2.36 5 1 C5.99 1.33 6.98 1.66 8 2 C8 2.66 8 3.32 8 4 C7.67 4.17 7.67 4.17 6 5 C6.31 6.94 6.31 6.94 7 9 C7.99 9.33 8.98 9.66 10 10 C9.67 11.65 9.34 13.3 9 15 C8.34 15 7.68 15 7 15 C6.67 14.34 6.34 13.68 6 13 C3.69 11.95 1.36 10.94 -1 10 C-0.83 9.46 -0.67 8.93 -0.5 8.38 C0.1 5.54 0.07 2.89 0 0 Z " fill="#5B5648" transform="translate(107,61)"/>
<path d="M0 0 C2.76 0.52 5.33 1.11 8 2 C7.34 2.66 6.68 3.32 6 4 C6.66 4.33 7.32 4.66 8 5 C7.67 6.32 7.34 7.64 7 9 C7.99 9.33 8.98 9.66 10 10 C9.67 10.66 9.34 11.32 9 12 C9.66 12 10.32 12 11 12 C11 12.66 11 13.32 11 14 C10.01 14 9.02 14 8 14 C7.67 12.68 7.34 11.36 7 10 C6.34 10 5.68 10 5 10 C4.67 10.99 4.34 11.98 4 13 C2 10 2 10 2 7 C1.01 6.67 0.02 6.34 -1 6 C-0.67 4.02 -0.34 2.04 0 0 Z " fill="#6F6D5D" transform="translate(37,58)"/>
<path d="M0 0 C0.33 0.66 0.66 1.32 1 2 C1.66 2 2.32 2 3 2 C3.33 2.66 3.66 3.32 4 4 C4.99 3.01 5.98 2.02 7 1 C7.66 1.33 8.32 1.66 9 2 C8.67 2.5 8.67 2.5 7 5 C6.88 8.19 6.88 8.19 7 11 C5.93 10.98 4.86 10.96 3.75 10.94 C0.85 10.99 -1.29 11.13 -4 12 C-4.33 11.34 -4.66 10.68 -5 10 C-4.34 10 -3.68 10 -3 10 C-3 9.34 -3 8.68 -3 8 C-2.34 8 -1.68 8 -1 8 C-0.67 5.36 -0.34 2.72 0 0 Z " fill="#474738" transform="translate(89,72)"/>
<path d="M0 0 C0.33 0.66 0.66 1.32 1 2 C2.48 1.84 2.48 1.84 10 1 C9.67 3.97 9.34 6.94 9 10 C7.35 10.33 5.7 10.66 4 11 C3.02 7.95 3.02 6.05 4 3 C3.01 3 2.02 3 1 3 C1 3.99 1 4.98 1 6 C0.01 6 -0.98 6 -2 6 C-1.49 3.83 -1 2 0 0 Z " fill="#95877B" transform="translate(61,31)"/>
<path d="M0 0 C0.99 0.33 1.98 0.66 3 1 C2.34 3.64 1.68 6.28 1 9 C1.66 9 2.32 9 3 9 C2.67 9.99 2.34 10.98 2 12 C2 11.34 2 10.68 2 10 C1.34 10 0.68 10 0 10 C0 10.99 0 11.98 0 13 C-0.33 13.16 -0.33 13.16 -2 14 C-2.33 14.99 -2.66 15.98 -3 17 C-2.01 17 -1.02 17 0 17 C-0.33 18.65 -0.66 20.3 -1 22 C-2.32 22 -3.64 22 -5 22 C-5.3 16.18 -4.81 13.19 -2 8 C-1.21 5.35 -0.61 2.7 0 0 Z " fill="#AA9A89" transform="translate(86,31)"/>
<path d="M0 0 C0.33 0 0.66 0 1 0 C1.12 1.13 1.25 2.27 1.38 3.44 C1.58 4.61 1.79 5.79 2 7 C2.66 7.33 3.32 7.66 4 8 C3.67 8.99 3.34 9.98 3 11 C2.01 11.33 1.02 11.66 0 12 C0 8.04 0 4.08 0 0 Z " fill="#D0C5B4" transform="translate(0,61)"/>
<path d="" fill="#F5F4F5" transform="translate(0,0)"/>
</svg>
