<svg xmlns="http://www.w3.org/2000/svg" viewBox="0 297 67 19" width="67" height="19">
<defs><clipPath id="chunk_25_cloud" clipPathUnits="userSpaceOnUse"><path d="M0 297L3 297L3 298L6 298L6 299L7 299L7 300L9 300L9 301L10 301L10 302L15 302L15 303L24 303L24 302L27 302L27 301L34 301L34 302L35 302L35 303L37 303L37 304L38 304L38 305L40 305L40 306L42 306L42 307L48 307L48 308L49 308L49 307L61 307L61 308L66 308L66 309L67 309L67 312L66 312L66 313L35 313L35 314L30 314L30 315L29 315L29 316L20 316L20 315L19 315L19 314L18 314L18 313L0 313L0 298Z" fill-rule="evenodd"/></clipPath></defs>
<g clip-path="url(#chunk_25_cloud)">
  <path d="M0 0 C5.05 1.01 6.22 1.9 10 5 C13.14 6.06 16.13 6.16 19.44 6.19 C20.36 6.2 21.29 6.22 22.25 6.23 C25 6 25 6 27.54 4.93 C30.54 3.8 31.97 4.07 35 5 C36.36 5.62 37.72 6.27 39.06 6.94 C47.17 10.34 56.32 10.38 65 11 C65 11.66 65 12.32 65 13 C64.09 13.02 63.18 13.04 62.25 13.06 C58.86 13.14 55.47 13.23 52.08 13.32 C50.62 13.36 49.16 13.39 47.7 13.42 C45.59 13.47 43.48 13.53 41.37 13.59 C40.1 13.62 38.83 13.65 37.53 13.68 C34.05 14 31.27 14.8 28 16 C25.29 16.23 22.73 16.09 20 16 C19.67 15.01 19.34 14.02 19 13 C12.73 13 6.46 13 0 13 C0 8.71 0 4.42 0 0 Z " fill="#D5DDE6" transform="translate(0,298)"/>
  <path d="M0 0 C-1 3 -1 3 -4.39 4.9 C-5.86 5.59 -7.33 6.27 -8.81 6.94 C-9.19 7.11 -9.19 7.11 -11.13 8.01 C-16.59 10.49 -22.1 12.53 -27.88 14.21 C-30 15 -30 15 -31 17 C-32.42 16.74 -33.84 16.47 -35.25 16.19 C-36.04 16.04 -36.83 15.89 -37.64 15.73 C-40.27 14.92 -41.85 13.68 -44 12 C-24.08 5.36 -24.08 5.36 -20.5 4.18 C-18.2 3.4 -15.9 2.6 -13.61 1.78 C-12.56 1.4 -11.5 1.03 -10.42 0.64 C-9.49 0.3 -8.57 -0.04 -7.61 -0.39 C-4.7 -1.07 -2.85 -0.8 0 0 Z " fill="#99C5D7" transform="translate(79,291)"/>
</g>
</svg>