<svg xmlns="http://www.w3.org/2000/svg" viewBox="0 163 133 76" width="133" height="76">
<defs><clipPath id="chunk_17_cloud" clipPathUnits="userSpaceOnUse"><path d="M32 163L35 163L35 164L36 164L36 173L37 173L37 171L38 171L38 170L42 170L42 171L43 171L43 180L44 180L44 181L45 181L45 184L47 184L47 185L48 185L48 184L49 184L49 183L51 183L51 184L52 184L52 188L53 188L53 189L54 189L54 193L55 193L55 200L56 200L56 202L59 202L59 200L60 200L60 199L64 199L64 197L63 197L63 192L64 192L64 191L67 191L67 192L71 192L71 190L72 190L72 189L73 189L73 188L76 188L76 187L80 187L80 188L81 188L81 190L82 190L82 191L83 191L83 192L85 192L85 191L87 191L87 192L88 192L88 196L91 196L91 197L94 197L94 198L95 198L95 199L96 199L96 204L97 204L97 203L98 203L98 202L102 202L102 199L103 199L103 198L105 198L105 197L109 197L109 198L111 198L111 199L113 199L113 200L114 200L114 201L115 201L115 203L116 203L116 207L117 207L117 208L118 208L118 209L119 209L119 211L120 211L120 212L121 212L121 216L120 216L120 217L118 217L118 218L119 218L119 219L122 219L122 220L123 220L123 221L125 221L125 222L126 222L126 225L127 225L127 226L130 226L130 227L131 227L131 228L132 228L132 230L133 230L133 231L132 231L132 232L128 232L128 233L122 233L122 234L121 234L121 233L109 233L109 237L108 237L108 238L101 238L101 239L100 239L100 238L99 238L99 237L98 237L98 236L94 236L94 235L87 235L87 236L85 236L85 237L81 237L81 238L72 238L72 237L71 237L71 233L68 233L68 234L66 234L66 237L65 237L65 238L60 238L60 237L59 237L59 235L51 235L51 236L47 236L47 237L30 237L30 236L29 236L29 235L28 235L28 234L25 234L25 235L20 235L20 234L17 234L17 233L15 233L15 234L16 234L16 237L15 237L15 238L14 238L14 237L5 237L5 236L4 236L4 235L3 235L3 233L2 233L2 232L1 232L1 225L2 225L2 224L3 224L3 223L4 223L4 222L6 222L6 221L5 221L5 220L4 220L4 219L5 219L5 218L0 218L0 209L1 209L1 208L2 208L2 207L4 207L4 206L8 206L8 207L12 207L12 206L13 206L13 205L15 205L15 204L20 204L20 203L22 203L22 204L23 204L23 205L24 205L24 206L25 206L25 207L26 207L26 208L27 208L27 209L28 209L28 213L29 213L29 216L30 216L30 215L34 215L34 211L35 211L35 209L36 209L36 207L37 207L37 205L38 205L38 204L39 204L39 203L40 203L40 202L46 202L46 203L48 203L48 204L49 204L49 202L48 202L48 198L47 198L47 196L46 196L46 199L45 199L45 200L39 200L39 199L38 199L38 202L37 202L37 203L34 203L34 206L33 206L33 207L29 207L29 206L28 206L28 204L27 204L27 198L28 198L28 197L29 197L29 196L33 196L33 190L34 190L34 189L35 189L35 179L34 179L34 177L33 177L33 169L32 169L32 168L31 168L31 164L32 164ZM7 222L8 222L8 221L7 221Z" fill-rule="evenodd"/></clipPath></defs>
<g clip-path="url(#chunk_17_cloud)">
  <path d="M0 0 C0.66 0 1.32 0 2 0 C2.05 0.32 2.05 0.32 2.33 1.93 C2.49 2.76 2.65 3.59 2.81 4.44 C2.96 5.26 3.11 6.08 3.27 6.93 C3.39 7.27 3.39 7.27 4 9 C4.99 9.33 5.98 9.66 7 10 C7 10.66 7 11.32 7 12 C6.34 12 5.68 12 5 12 C5 12.66 5 13.32 5 14 C6.65 14.33 8.3 14.66 10 15 C10 15.99 10 16.98 10 18 C10.33 17.34 10.66 16.68 11 16 C11.66 16 12.32 16 13 16 C13 14.68 13 13.36 13 12 C13.66 12 14.32 12 15 12 C15.16 12.5 15.16 12.5 16 15 C16.33 15.16 16.33 15.16 18 16 C17.67 18.31 17.34 20.62 17 23 C17.66 23 18.32 23 19 23 C19.33 22.34 19.66 21.68 20 21 C22.94 25.61 22.94 25.61 23.31 28.19 C23.54 28.79 23.77 29.38 24 30 C24.5 30.16 24.5 30.16 27 31 C27.5 31.16 27.5 31.16 30 32 C30.88 34.12 30.88 34.12 31 36 C31.66 36.16 31.66 36.16 35 37 C35.97 40.02 36.41 42.09 35 45 C34.01 45.47 33.02 45.95 32 46.44 C29 48 29 48 28.12 50.69 C28.08 51.45 28.04 52.21 28 53 C27.34 53 26.68 53 26 53 C26 52.01 26 51.02 26 50 C25.67 50.16 25.67 50.16 24 51 C23.37 53.29 23.37 53.29 22.88 56.06 C22.71 56.98 22.54 57.9 22.37 58.85 C22.31 59.2 22.31 59.2 22 61 C22.66 61 23.32 61 24 61 C24.16 60.67 24.16 60.67 25 59 C25.99 60.65 26.98 62.3 28 64 C28.76 63.65 29.53 63.3 30.31 62.94 C33 62 33 62 36 63 C36.33 61.02 36.66 59.04 37 57 C39.64 57 42.28 57 45 57 C44.81 56.36 44.63 55.72 44.44 55.06 C44.37 54.72 44.37 54.72 44 53 C45 52 45 52 47.38 51.62 C48.24 51.75 49.11 51.87 50 52 C51.03 53.65 52.03 55.32 53 57 C54.32 57 55.64 57 57 57 C57.33 56.34 57.66 55.68 58 55 C59.98 54.27 61.98 53.6 64 53 C64 51.68 64 50.36 64 49 C66.31 49.66 68.62 50.32 71 51 C70.01 51.33 69.02 51.66 68 52 C68.19 52.95 68.37 53.9 68.56 54.88 C69 58 69 58 68 60 C71.2 60.09 73.93 59.91 77 59 C77 60.65 77 62.3 77 64 C78.65 64 80.3 64 82 64 C82 64.66 82 65.32 82 66 C82.66 66 83.32 66 84 66 C84 65.34 84 64.68 84 64 C84.66 64 85.32 64 86 64 C86 63.34 86 62.68 86 62 C86.99 62 87.98 62 89 62 C89 62.66 89 63.32 89 64 C89.99 64.33 90.98 64.66 92 65 C91.01 65.33 91.01 65.33 86 67 C87.65 67.33 89.3 67.66 91 68 C91 68.66 91 69.32 91 70 C88.36 70.33 85.72 70.66 83 71 C82.67 70.34 82.34 69.68 82 69 C82.33 68.34 82.66 67.68 83 67 C80.36 67.33 77.72 67.66 75 68 C75 68.33 75 68.66 75 69 C73.84 69.16 73.84 69.16 68 70 C68 70.33 68 70.66 68 71 C66.35 71.16 66.35 71.16 58 72 C59.65 73.32 61.3 74.64 63 76 C62.01 76.33 62.01 76.33 57 78 C57 78.33 57 78.66 57 79 C59.97 79.33 62.94 79.66 66 80 C65.96 81.2 65.92 82.39 65.88 83.62 C65.86 87.42 66.58 90.45 68 94 C68.08 90.48 68.04 87.38 67 84 C67.66 83.67 68.32 83.34 69 83 C69 81.35 69 79.7 69 78 C72.2 77.91 74.93 78.09 78 79 C77.67 78.34 77.34 77.68 77 77 C74.94 76.38 74.94 76.38 73 76 C73 75.34 73 74.68 73 74 C75.56 72.62 75.56 72.62 79 72 C81.69 73.65 83.83 75.72 86 78 C86.33 76.68 86.66 75.36 87 74 C87.66 74.33 88.32 74.66 89 75 C88.67 74.01 88.34 73.02 88 72 C89.65 72 91.3 72 93 72 C93 74 93 74 91.62 75.62 C90 77 90 77 88 77 C88.04 78.11 88.08 79.23 88.12 80.38 C88 84 88 84 86 86 C86 84.02 86 82.04 86 80 C85.34 80 84.68 80 84 80 C84.33 83.63 84.66 87.26 85 91 C83.68 91.33 82.36 91.66 81 92 C79.75 94.06 79.75 94.06 79 96 C78.34 96 77.68 96 77 96 C76.67 94.35 76.34 92.7 76 91 C75.34 93.97 74.68 96.94 74 100 C73.67 100 73.34 100 73 100 C73 98.35 73 96.7 73 95 C72.01 95 71.02 95 70 95 C70 97.64 70 100.28 70 103 C69.67 103.16 69.67 103.16 68 104 C68 103.01 68 102.02 68 101 C67.34 101 66.68 101 66 101 C65.67 103.97 65.34 106.94 65 110 C63.35 110 61.7 110 60 110 C59.01 107.36 58.02 104.72 57 102 C55.84 102.16 55.84 102.16 50 103 C50.99 101.35 51.98 99.7 53 98 C52.01 97.84 52.01 97.84 47 97 C46.67 95.02 46.34 93.04 46 91 C44.68 90.67 43.36 90.34 42 90 C42 89.34 42 88.68 42 88 C42.66 88 43.32 88 44 88 C43.67 87.34 43.34 86.68 43 86 C41.68 85.63 40.34 85.31 39 85 C37.67 84.33 36.33 83.67 35 83 C34.34 83 33.68 83 33 83 C32.77 81.91 32.55 80.81 32.31 79.69 C31 76 31 76 28.38 74.06 C27.59 73.71 26.81 73.36 26 73 C26.08 74.07 26.17 75.14 26.25 76.25 C26 80 26 80 24.25 82.44 C22 84 22 84 18 84 C17.34 84.99 16.68 85.98 16 87 C14.68 87 13.36 87 12 87 C12 90.3 12 93.6 12 97 C7.31 98.12 4.46 97.81 0 96 C0 94.35 0 92.7 0 91 C-0.66 91 -1.32 91 -2 91 C-2.33 91.66 -2.66 92.32 -3 93 C-4.38 91.71 -5.71 90.37 -7 89 C-7 88.34 -7 87.68 -7 87 C-13.65 88.48 -13.65 88.48 -15.44 91.12 C-15.62 91.74 -15.81 92.36 -16 93 C-18.67 92.33 -21.33 91.67 -24 91 C-23.84 92.32 -23.84 92.32 -23 99 C-24.65 99 -26.3 99 -28 99 C-28.33 102.3 -28.66 105.6 -29 109 C-29.83 109.16 -29.83 109.16 -34 110 C-34.23 109.4 -34.45 108.8 -34.69 108.19 C-36.42 105.29 -37.92 104.37 -41 103 C-44.81 102.81 -44.81 102.81 -48 103 C-48.45 103.91 -48.91 104.81 -49.38 105.75 C-50.3 107.59 -51.23 109.43 -52.19 111.25 C-53 113 -53 113 -53 115 C-53.83 115.16 -53.83 115.16 -58 116 C-58.41 114.76 -58.83 113.53 -59.25 112.25 C-60.62 108.69 -61.65 106.08 -65 104 C-67.92 103.88 -70.09 104.34 -73 105 C-73.33 105.33 -73.33 105.33 -75 107 C-77.29 107.14 -79.52 107 -81.81 106.88 C-84 107 -84 107 -87 109 C-87.07 97.82 -87.12 86.64 -87.16 75.46 C-87.17 70.27 -87.19 65.08 -87.23 59.89 C-87.26 54.89 -87.28 49.88 -87.28 44.88 C-87.29 42.96 -87.3 41.05 -87.32 39.14 C-87.34 36.47 -87.34 33.79 -87.34 31.12 C-87.35 30.32 -87.36 29.53 -87.37 28.71 C-87.36 26.51 -87.36 26.51 -87 23 C-86.01 22.34 -85.02 21.68 -84 21 C-81 27.75 -81 27.75 -81 30 C-78.69 30.33 -76.38 30.66 -74 31 C-74 32.32 -74 33.64 -74 35 C-72.35 35.33 -70.7 35.66 -69 36 C-69.47 40.06 -69.88 43.47 -72 47 C-70.02 47.33 -68.04 47.66 -66 48 C-66.33 47.01 -66.66 46.02 -67 45 C-66.5 44.84 -66.5 44.84 -64 44 C-64.33 43.01 -64.66 42.02 -65 41 C-64.71 39.33 -64.37 37.66 -64 36 C-64 35.01 -64 34.02 -64 33 C-63.01 32.84 -63.01 32.84 -58 32 C-57.67 30.68 -57.34 29.36 -57 28 C-54.69 28 -52.38 28 -50 28 C-49.84 27.5 -49.84 27.5 -49 25 C-48.01 25 -47.02 25 -46 25 C-46 25.99 -46 26.98 -46 28 C-44.06 27.25 -44.06 27.25 -42 26 C-41.38 23.94 -41.38 23.94 -41 22 C-40.34 21.67 -39.68 21.34 -39 21 C-38.34 20.01 -37.68 19.02 -37 18 C-37 19.32 -37 20.64 -37 22 C-35.35 22.33 -33.7 22.66 -32 23 C-31.9 22.4 -31.79 21.8 -31.69 21.19 C-30.89 18.64 -30.14 17.58 -28 16 C-26.68 16 -25.36 16 -24 16 C-24.04 15.28 -24.08 14.56 -24.12 13.81 C-23.99 10.79 -23.25 8.73 -22 6 C-21.34 6 -20.68 6 -20 6 C-20 5.01 -20 4.02 -20 3 C-17.69 2.31 -17.69 2.31 -15 2 C-13.31 3.37 -13.31 3.37 -12 5 C-11.67 5.17 -11.67 5.17 -10 6 C-10 7.32 -10 8.64 -10 10 C-9.67 10.16 -9.67 10.16 -8 11 C-8 11.99 -8 12.98 -8 14 C-8.99 14 -9.98 14 -11 14 C-11 14.66 -11 15.32 -11 16 C-10.38 16.06 -9.76 16.12 -9.12 16.19 C-8.42 16.46 -7.72 16.72 -7 17 C-6.28 18.65 -5.62 20.31 -5 22 C-4.01 22.66 -3.02 23.32 -2 24 C-2.19 23.09 -2.37 22.19 -2.56 21.25 C-2.96 18.32 -2.95 16.74 -2 14 C-1.34 14 -0.68 14 0 14 C-0.19 13.36 -0.37 12.72 -0.56 12.06 C-1.15 7.93 -0.58 4.11 0 0 Z " fill="#6F6751" transform="translate(87,100)"/>
  <path d="M0 0 C0.99 0.33 1.98 0.66 3 1 C2.67 1.99 2.34 2.98 2 4 C1.01 4 0.02 4 -1 4 C-1 4.99 -1 5.98 -1 7 C-0.01 7 0.98 7 2 7 C1.67 8.98 1.34 10.96 1 13 C1.99 13 2.98 13 4 13 C4 13.66 4 14.32 4 15 C1.35 16.46 0.11 17 -3 17 C-3.33 17.66 -3.66 18.32 -4 19 C-6.56 19.62 -6.56 19.62 -9 20 C-9.16 20.5 -9.16 20.5 -10 23 C-10.66 23 -11.32 23 -12 23 C-11.84 23.83 -11.84 23.83 -11 28 C-11.66 28 -12.32 28 -13 28 C-13.16 27.34 -13.16 27.34 -14 24 C-14.66 24 -15.32 24 -16 24 C-16.16 23.34 -16.16 23.34 -17 20 C-17.33 21.32 -17.66 22.64 -18 24 C-18.99 24 -19.98 24 -21 24 C-21.33 25.98 -21.66 27.96 -22 30 C-19.69 30.33 -17.38 30.66 -15 31 C-14.84 31.82 -14.84 31.82 -14 36 C-16.64 36.66 -19.28 37.32 -22 38 C-22 39.32 -22 40.64 -22 42 C-21.34 42 -20.68 42 -20 42 C-20 43.32 -20 44.64 -20 46 C-19.34 46 -18.68 46 -18 46 C-17.67 44.35 -17.34 42.7 -17 41 C-15.68 41 -14.36 41 -13 41 C-13 40.34 -13 39.68 -13 39 C-13.33 38.84 -13.33 38.84 -15 38 C-13.68 38 -12.36 38 -11 38 C-11 37.34 -11 36.68 -11 36 C-7.53 34.84 -4.46 34.67 -0.81 34.44 C0.46 34.35 1.73 34.27 3.04 34.18 C4.02 34.12 4.99 34.06 6 34 C6 33.34 6 32.68 6 32 C5.01 32 4.02 32 3 32 C3 31.34 3 30.68 3 30 C1.68 30.33 0.36 30.66 -1 31 C-1.33 30.34 -1.33 30.34 -3 27 C2.75 27.88 2.75 27.88 5 29 C5 29.66 5 30.32 5 31 C5.58 30.81 6.16 30.63 6.75 30.44 C9 30 9 30 10.72 30.44 C13.72 31.18 16.67 31.35 19.75 31.56 C20.92 31.65 22.09 31.73 23.3 31.82 C23.74 31.85 23.74 31.85 26 32 C25.67 33.65 25.34 35.3 25 37 C22.36 37.33 19.72 37.66 17 38 C16.67 39.32 16.34 40.64 16 42 C16.66 42 17.32 42 18 42 C17.98 43.11 17.96 44.23 17.94 45.38 C18 49 18 49 19 51 C11.25 52.12 11.25 52.12 9 51 C9.33 49.68 9.66 48.36 10 47 C10.66 47 11.32 47 12 47 C12 45.35 12 43.7 12 42 C12.66 42 13.32 42 14 42 C14 41.34 14 40.68 14 40 C13.34 39.84 13.34 39.84 10 39 C10 38.34 10 37.68 10 37 C9.34 37 8.68 37 8 37 C7.3 40.15 7 42.73 7 46 C4.69 46.66 2.38 47.32 0 48 C-0.16 47.01 -0.16 47.01 -1 42 C-0.34 42 0.32 42 1 42 C0.67 41.01 0.34 40.02 0 39 C-3.08 40.54 -4.24 43.12 -6 46 C-6 46.66 -6 47.32 -6 48 C-8.64 48 -11.28 48 -14 48 C-14 48.99 -14 49.98 -14 51 C-13.34 51.66 -12.68 52.32 -12 53 C-12.16 53.33 -12.16 53.33 -13 55 C-9.7 55.33 -6.4 55.66 -3 56 C-3 56.66 -3 57.32 -3 58 C-2.28 57.99 -1.55 57.98 -0.8 57.96 C4.25 57.92 9.03 57.93 14 59 C14.16 58.67 14.16 58.67 15 57 C15 57.66 15 58.32 15 59 C18.3 59.33 21.6 59.66 25 60 C21.66 63.34 20.55 63.63 16 64 C13.62 63.56 13.62 63.56 12 63 C12 62.34 12 61.68 12 61 C10.84 61.16 10.84 61.16 5 62 C5 61.34 5 60.68 5 60 C3.7 60.12 2.4 60.25 1.06 60.38 C0.33 60.44 -0.4 60.51 -1.15 60.59 C-1.46 60.65 -1.46 60.65 -3 61 C-3.16 61.33 -3.16 61.33 -4 63 C-4.99 62.67 -5.98 62.34 -7 62 C-6.01 63.32 -5.02 64.64 -4 66 C-4.33 66.16 -4.33 66.16 -6 67 C-5.67 67.33 -5.67 67.33 -4 69 C-5.16 69.33 -5.16 69.33 -11 71 C-11 70.34 -11 69.68 -11 69 C-15.75 68.88 -15.75 68.88 -18 70 C-17.84 69.5 -17.84 69.5 -17 67 C-19.31 66.34 -21.62 65.68 -24 65 C-20.97 76.03 -20.97 76.03 -19 78 C-18.67 76.02 -18.34 74.04 -18 72 C-16.5 73.19 -16.5 73.19 -15 75 C-14.81 77.69 -14.81 77.69 -15 80 C-14.34 80 -13.68 80 -13 80 C-13 78.02 -13 76.04 -13 74 C-11.5 75.31 -11.5 75.31 -10 77 C-10 77.99 -10 78.98 -10 80 C-9.34 80 -8.68 80 -8 80 C-7.84 82.31 -7.84 82.31 -7 94 C-6.34 93.84 -6.34 93.84 -3 93 C-3 93.66 -3 94.32 -3 95 C-4.65 95 -6.3 95 -8 95 C-8.33 98.3 -8.66 101.6 -9 105 C-9.83 105.16 -9.83 105.16 -14 106 C-14.23 105.4 -14.45 104.8 -14.69 104.19 C-16.42 101.29 -17.92 100.37 -21 99 C-24.81 98.81 -24.81 98.81 -28 99 C-28.45 99.91 -28.91 100.81 -29.38 101.75 C-30.3 103.59 -31.23 105.43 -32.19 107.25 C-33 109 -33 109 -33 111 C-33.83 111.16 -33.83 111.16 -38 112 C-38.41 110.76 -38.83 109.53 -39.25 108.25 C-40.62 104.69 -41.65 102.08 -45 100 C-47.92 99.88 -50.09 100.34 -53 101 C-53.33 101.33 -53.33 101.33 -55 103 C-57.29 103.14 -59.52 103 -61.81 102.88 C-64 103 -64 103 -67 105 C-67.07 93.82 -67.12 82.64 -67.16 71.46 C-67.17 66.27 -67.19 61.08 -67.23 55.89 C-67.26 50.89 -67.28 45.88 -67.28 40.88 C-67.29 38.96 -67.3 37.05 -67.32 35.14 C-67.34 32.47 -67.34 29.79 -67.34 27.12 C-67.35 26.32 -67.36 25.53 -67.37 24.71 C-67.36 22.51 -67.36 22.51 -67 19 C-66.01 18.34 -65.02 17.68 -64 17 C-61 23.75 -61 23.75 -61 26 C-58.69 26.33 -56.38 26.66 -54 27 C-54 28.32 -54 29.64 -54 31 C-52.35 31.33 -50.7 31.66 -49 32 C-49.47 36.06 -49.88 39.47 -52 43 C-50.02 43.33 -48.04 43.66 -46 44 C-46.33 43.01 -46.66 42.02 -47 41 C-46.51 40.84 -46.51 40.84 -44 40 C-44.33 39.01 -44.66 38.02 -45 37 C-44.71 35.33 -44.37 33.66 -44 32 C-44 31.01 -44 30.02 -44 29 C-42.02 28.67 -40.04 28.34 -38 28 C-37.67 26.68 -37.34 25.36 -37 24 C-34.69 24 -32.38 24 -30 24 C-29.84 23.5 -29.84 23.5 -29 21 C-28.01 21 -27.02 21 -26 21 C-26 21.99 -26 22.98 -26 24 C-24.06 23.25 -24.06 23.25 -22 22 C-21.38 19.94 -21.38 19.94 -21 18 C-20.34 17.67 -19.68 17.34 -19 17 C-18.34 16.01 -17.68 15.02 -17 14 C-17 15.32 -17 16.64 -17 18 C-15.35 18.33 -13.7 18.66 -12 19 C-11.9 18.4 -11.79 17.8 -11.69 17.19 C-10.89 14.64 -10.14 13.58 -8 12 C-6.68 12 -5.36 12 -4 12 C-4.04 11.28 -4.08 10.56 -4.12 9.81 C-3.99 6.79 -3.25 4.73 -2 2 C-1.34 2 -0.68 2 0 2 C0 1.34 0 0.68 0 0 Z " fill="#ACA489" transform="translate(67,104)"/>
  <path d="M0 0 C3.19 -0.31 3.19 -0.31 6 0 C6.33 0.82 6.33 0.82 8 5 C8.83 4.84 8.83 4.84 13 4 C13 5.65 13 7.3 13 9 C13.95 9.06 14.9 9.12 15.88 9.19 C19 10 19 10 20.38 12.31 C21 15 21 15 21 19 C21.66 19 22.32 19 23 19 C23.16 18.5 23.16 18.5 24 16 C25.65 16 27.3 16 29 16 C29.33 14.68 29.66 13.36 30 12 C33.25 11.78 35.43 11.71 38.38 13.19 C40.5 15.56 40.08 16.9 40 20 C40.99 20.66 41.98 21.32 43 22 C43 22.99 43 23.98 43 25 C43.66 25 44.32 25 45 25 C45 25.99 45 26.98 45 28 C44.01 28 43.02 28 42 28 C42 29.32 42 30.64 42 32 C44.64 32.99 47.28 33.98 50 35 C50 36.32 50 37.64 50 39 C50.97 39.29 51.94 39.58 52.94 39.88 C56 41 56 41 57 43 C50.19 45.79 44.07 45.41 37 44 C34.69 44.44 34.69 44.44 33 45 C33 46.32 33 47.64 33 49 C29.63 49.62 29.63 49.62 26 50 C25.34 49.34 24.68 48.68 24 48 C20.28 46.57 15.93 46.55 12 47 C11.37 47.33 10.73 47.66 10.08 48 C7.49 49.24 5.6 49.2 2.75 49.12 C2.3 49.12 2.3 49.12 0.05 49.07 C-0.63 49.05 -1.3 49.02 -2 49 C-2 47.35 -2 45.7 -2 44 C-4.39 44.58 -6.67 45.22 -9 46 C-9.33 46.99 -9.66 47.98 -10 49 C-11.32 49 -12.64 49 -14 49 C-14 48.34 -14 47.68 -14 47 C-16.86 45.86 -18.04 46.01 -21.03 46.97 C-25.65 48.36 -30.15 48.22 -34.94 48.12 C-35.81 48.12 -36.69 48.11 -37.59 48.1 C-39.73 48.07 -41.86 48.04 -44 48 C-44 47.34 -44 46.68 -44 46 C-43.2 45.88 -42.39 45.75 -41.56 45.62 C-40.72 45.42 -39.87 45.21 -39 45 C-38.84 44.67 -38.84 44.67 -38 43 C-38.63 43.22 -39.26 43.43 -39.91 43.66 C-52.5 47.75 -52.5 47.75 -59 44.5 C-59.66 44 -60.32 43.51 -61 43 C-61.33 44.32 -61.66 45.64 -62 47 C-61.34 47 -60.68 47 -60 47 C-60 47.66 -60 48.32 -60 49 C-62.97 48.67 -65.94 48.34 -69 48 C-69 46.68 -69 45.36 -69 44 C-69.99 44 -70.98 44 -72 44 C-71.12 38.12 -71.12 38.12 -70 37 C-68.33 36.96 -66.67 36.96 -65 37 C-65 35.35 -65 33.7 -65 32 C-65.5 32.16 -65.5 32.16 -68 33 C-68 32.01 -68 31.02 -68 30 C-69.98 29.67 -71.96 29.34 -74 29 C-74.37 22.51 -74.37 22.51 -72.76 20.27 C-70.51 18.65 -69.36 18.78 -66.62 19 C-62.45 19.16 -60.51 18.34 -57 16 C-54.56 15.44 -54.56 15.44 -52 16 C-48.3 18.61 -46.27 20.97 -45.12 25.38 C-45.08 26.24 -45.04 27.11 -45 28 C-43.35 28 -41.7 28 -40 28 C-40.23 27.4 -40.45 26.8 -40.69 26.19 C-40.74 25.83 -40.74 25.83 -41 24 C-39.69 22.56 -39.69 22.56 -38 21 C-37.29 19.35 -36.62 17.68 -36 16 C-35 15 -35 15 -31.81 14.69 C-27.35 15.05 -25.38 16.11 -22 19 C-21.12 21.25 -21.12 21.25 -21 23 C-19.35 22.67 -17.7 22.34 -16 22 C-15.67 18.7 -15.34 15.4 -15 12 C-13.35 12 -11.7 12 -10 12 C-10.16 11.67 -10.16 11.67 -11 10 C-11.04 8 -11.04 6 -11 4 C-8.36 4.33 -5.72 4.66 -3 5 C-2.81 4.59 -2.81 4.59 -1.88 2.5 C-1.26 1.68 -0.64 0.85 0 0 Z " fill="#D5E1EC" transform="translate(74,187)"/>
  <path d="M0 0 C0 0.99 0 1.98 0 3 C-0.57 3.16 -1.13 3.32 -1.71 3.48 C-3.93 4.19 -5.95 4.89 -8 6 C-9 8.69 -9 8.69 -9 11 C-8.01 11 -7.02 11 -6 11 C-6 11.66 -6 12.32 -6 13 C-4.68 13.33 -3.36 13.66 -2 14 C-2 15.65 -2 17.3 -2 19 C-2.66 19 -3.32 19 -4 19 C-3.34 20.32 -2.68 21.64 -2 23 C-1.01 22.01 -0.02 21.02 1 20 C1.66 21.98 2.32 23.96 3 26 C2.34 26 1.68 26 1 26 C1 26.99 1 27.98 1 29 C1.99 29.33 2.98 29.66 4 30 C4.33 31.65 4.66 33.3 5 35 C5.66 35 6.32 35 7 35 C7.33 34.34 7.66 33.68 8 33 C10 33 12 33 14 33 C14 33.99 14 34.98 14 36 C14.66 36 15.32 36 16 36 C16.14 35.24 16.29 34.47 16.44 33.69 C17 31 17 31 18 28 C18.08 26.66 18.11 25.33 18.1 23.99 C18.09 23.23 18.09 22.47 18.09 21.69 C18.08 20.91 18.07 20.12 18.06 19.31 C18.06 18.52 18.05 17.72 18.05 16.9 C18.04 14.93 18.02 12.97 18 11 C18.33 11 18.66 11 19 11 C19.16 12.65 19.16 12.65 20 21 C20.99 21 21.98 21 23 21 C23.16 20.5 23.16 20.5 24 18 C24.66 18 25.32 18 26 18 C26 21.3 26 24.6 26 28 C26.66 28 27.32 28 28 28 C28 30.97 28 33.94 28 37 C28.66 37 29.32 37 30 37 C30 35.35 30 33.7 30 32 C30.99 32.66 31.98 33.32 33 34 C33.66 33.01 34.32 32.02 35 31 C35 32.65 35 34.3 35 36 C35.66 36 36.32 36 37 36 C38.59 40.87 39.21 44.81 39 50 C40.65 50 42.3 50 44 50 C43.67 51.98 43.34 53.96 43 56 C42.17 56.16 42.17 56.16 38 57 C37.77 56.4 37.55 55.8 37.31 55.19 C35.58 52.29 34.08 51.37 31 50 C27.19 49.81 27.19 49.81 24 50 C23.55 50.91 23.09 51.81 22.62 52.75 C21.7 54.59 20.77 56.43 19.81 58.25 C19 60 19 60 19 62 C18.17 62.16 18.17 62.16 14 63 C13.59 61.76 13.18 60.53 12.75 59.25 C11.38 55.69 10.35 53.08 7 51 C4.08 50.88 1.91 51.34 -1 52 C-1.66 52.66 -2.32 53.32 -3 54 C-5.29 54.14 -7.52 54 -9.81 53.88 C-12 54 -12 54 -15 56 C-15 39.83 -15 23.66 -15 7 C-14.34 7 -13.68 7 -13 7 C-13 6.34 -13 5.68 -13 5 C-12.34 5 -11.68 5 -11 5 C-10.77 4.36 -10.55 3.72 -10.31 3.06 C-9 1 -9 1 -6.62 0.25 C-4 0 -4 0 0 0 Z " fill="#8DB5C8" transform="translate(15,153)"/>
  <path d="M0 0 C2 1 2 1 3.12 3.94 C4 7 4 7 4 9 C6.31 9.33 8.62 9.66 11 10 C11 11.32 11 12.64 11 14 C12.65 14.33 14.3 14.66 16 15 C15.53 19.06 15.12 22.47 13 26 C15.93 26.98 17.96 27.08 21 27 C21.33 26.01 21.66 25.02 22 24 C26.88 24.88 26.88 24.88 28 26 C28.66 24.35 29.32 22.7 30 21 C30.66 21 31.32 21 32 21 C32 21.99 32 22.98 32 24 C32.66 24 33.32 24 34 24 C34 23.34 34 22.68 34 22 C34.99 22.33 35.98 22.66 37 23 C37 23.66 37 24.32 37 25 C37.66 25 38.32 25 39 25 C39.16 26.16 39.16 26.16 40 32 C39.68 32.14 39.68 32.14 38.06 32.88 C36 34 36 34 35 36 C32.37 37.58 31.13 38 28 38 C27.67 39.32 27.34 40.64 27 42 C23.95 42.98 22.05 42.98 19 42 C19 42.66 19 43.32 19 44 C18.01 44.16 18.01 44.16 13 45 C13 45.66 13 46.32 13 47 C13.68 46.98 14.35 46.95 15.05 46.93 C15.49 46.92 15.49 46.92 17.75 46.88 C18.63 46.85 19.51 46.83 20.42 46.8 C23.11 47.01 24.7 47.63 27 49 C27 48.34 27 47.68 27 47 C28.32 47 29.64 47 31 47 C31.99 54.86 32.54 60.79 29 68 C28.34 68 27.68 68 27 68 C27 67.01 27 66.02 27 65 C26.63 65.16 26.63 65.16 24.75 66 C22 67 22 67 18 67 C17.71 66.2 17.42 65.39 17.12 64.56 C16 62 16 62 14 61 C14 60.01 14 59.02 14 58 C14.66 58 15.32 58 16 58 C15.34 56.68 14.68 55.36 14 54 C13.01 54.66 12.02 55.32 11 56 C10.34 55.34 9.68 54.68 9 54 C9 53.01 9 52.02 9 51 C9.66 51 10.32 51 11 51 C10.67 49.35 10.34 47.7 10 46 C9.01 45.67 8.02 45.34 7 45 C7 44.34 7 43.68 7 43 C6.01 43 5.02 43 4 43 C3.88 40.62 3.88 40.62 4 38 C6.76 35.24 9.21 35.42 13 35 C13 34.01 13 33.02 13 32 C12.54 32.16 12.54 32.16 10.19 33 C7 34 7 34 4 34 C3.34 35.32 2.68 36.64 2 38 C1.34 37.67 0.68 37.34 0 37 C0 37.66 0 38.32 0 39 C-0.66 39 -1.32 39 -2 39 C-2.05 33.77 -2.09 28.53 -2.11 23.3 C-2.12 21.52 -2.13 19.74 -2.15 17.96 C-2.18 15.4 -2.19 12.85 -2.2 10.29 C-2.21 9.49 -2.22 8.69 -2.23 7.87 C-2.23 5.91 -2.12 3.95 -2 2 C-1.34 1.34 -0.68 0.68 0 0 Z " fill="#6B6B5B" transform="translate(2,121)"/>
  <path d="M0 0 C1.63 0.06 3.25 0.15 4.88 0.25 C5.33 0.27 5.33 0.27 7.62 0.39 C10 1 10 1 11.2 2.92 C11.33 3.26 11.33 3.26 12 5 C12.66 5.66 13.32 6.32 14 7 C13.67 7.66 13.34 8.32 13 9 C16.3 9.33 19.6 9.66 23 10 C23 10.66 23 11.32 23 12 C23.36 11.99 23.36 11.99 25.2 11.96 C30.25 11.92 35.03 11.93 40 13 C40.33 12.34 40.66 11.68 41 11 C41 11.66 41 12.32 41 13 C42.65 13.16 42.65 13.16 51 14 C47.66 17.34 46.55 17.63 42 18 C39.63 17.56 39.63 17.56 38 17 C38 16.34 38 15.68 38 15 C35.69 15.33 33.38 15.66 31 16 C31 15.34 31 14.68 31 14 C30.35 14.06 30.35 14.06 27.06 14.38 C26.33 14.44 25.6 14.51 24.85 14.59 C24.24 14.72 23.63 14.86 23 15 C22.67 15.66 22.34 16.32 22 17 C21.01 16.67 20.02 16.34 19 16 C19.99 17.32 20.98 18.64 22 20 C21.67 20.16 21.67 20.16 20 21 C20.66 21.66 21.32 22.32 22 23 C19.69 23.66 17.38 24.32 15 25 C15 24.34 15 23.68 15 23 C10.25 22.88 10.25 22.88 8 24 C8.16 23.5 8.16 23.5 9 21 C6.69 20.34 4.38 19.68 2 19 C5.03 30.03 5.03 30.03 7 32 C7.33 30.02 7.66 28.04 8 26 C9.5 27.19 9.5 27.19 11 29 C11.19 31.69 11.19 31.69 11 34 C11.66 34 12.32 34 13 34 C13 32.02 13 30.04 13 28 C14.5 29.31 14.5 29.31 16 31 C16 31.99 16 32.98 16 34 C16.66 34 17.32 34 18 34 C18.16 36.31 18.16 36.31 19 48 C19.66 47.84 19.66 47.84 23 47 C23 47.66 23 48.32 23 49 C21.35 49 19.7 49 18 49 C18 50.32 18 51.64 18 53 C16.35 53 14.7 53 13 53 C10.7 43.59 10.7 43.59 11 39 C10.34 39.16 10.34 39.16 7 40 C6.34 38.68 5.68 37.36 5 36 C4.67 37.32 4.34 38.64 4 40 C3.34 40 2.68 40 2 40 C2 37.03 2 34.06 2 31 C1.34 31 0.68 31 0 31 C0 27.7 0 24.4 0 21 C-0.66 21 -1.32 21 -2 21 C-2.33 22.32 -2.66 23.64 -3 25 C-3.99 24.67 -4.98 24.34 -6 24 C-7.19 20.94 -7.19 20.94 -8 18 C-9.32 18 -10.64 18 -12 18 C-12 18.66 -12 19.32 -12 20 C-13.65 20 -15.3 20 -17 20 C-17 19.67 -17 19.34 -17 19 C-19.97 18.67 -22.94 18.34 -26 18 C-26 17.34 -26 16.68 -26 16 C-24.13 14.94 -24.13 14.94 -22 14 C-21.34 14.33 -20.68 14.66 -20 15 C-20 14.34 -20 13.68 -20 13 C-17.69 13 -15.38 13 -13 13 C-12.88 12.69 -12.88 12.69 -12.25 11.12 C-10.77 8.6 -9.72 7.99 -7 7 C-6.01 7 -5.02 7 -4 7 C-3.67 6.01 -3.34 5.02 -3 4 C-0.94 3.31 -0.94 3.31 1 3 C0.67 2.01 0.34 1.02 0 0 Z " fill="#C9B06E" transform="translate(41,150)"/>
  <path d="M0 0 C0.66 0 1.32 0 2 0 C2 0.66 2 1.32 2 2 C3.13 2.27 4.27 2.54 5.44 2.81 C6.61 3.2 7.79 3.6 9 4 C9.16 4.5 9.16 4.5 10 7 C9.67 7.33 9.34 7.66 9 8 C9.08 8.32 9.08 8.32 9.5 9.94 C10 12 10 12 9 14 C9.66 14 10.32 14 11 14 C11 14.66 11 15.32 11 16 C13 15 13 15 14.07 12.28 C14.24 11.73 14.24 11.73 15.12 8.94 C15.48 7.83 15.83 6.73 16.2 5.59 C16.46 4.74 16.73 3.88 17 3 C17.66 3 18.32 3 19 3 C19 3.99 19 4.98 19 6 C19.66 6.33 20.32 6.66 21 7 C20.34 7 19.68 7 19 7 C19.08 8.07 19.16 9.15 19.25 10.25 C19 14 19 14 17.25 16.44 C15 18 15 18 11 18 C10.34 18.99 9.68 19.98 9 21 C7.68 21 6.36 21 5 21 C5 24.3 5 27.6 5 31 C0.31 32.12 -2.54 31.81 -7 30 C-7 28.35 -7 26.7 -7 25 C-7.66 25 -8.32 25 -9 25 C-9.33 25.66 -9.66 26.32 -10 27 C-11.38 25.71 -12.71 24.37 -14 23 C-14 22.34 -14 21.68 -14 21 C-20.75 22.62 -20.75 22.62 -23 26 C-23.06 24.89 -23.12 23.78 -23.18 22.64 C-23.27 21.18 -23.35 19.71 -23.44 18.25 C-23.48 17.52 -23.52 16.79 -23.56 16.04 C-23.89 10.42 -23.89 10.42 -24.58 7.82 C-24.72 7.22 -24.86 6.62 -25 6 C-24 5 -24 5 -21.02 4.94 C-18.52 4.98 -16.02 5.02 -13.52 5.06 C-10.5 5.01 -7.92 4.71 -5 4 C-5 3.34 -5 2.68 -5 2 C-3.35 2 -1.7 2 0 2 C0 1.34 0 0.68 0 0 Z " fill="#8C9497" transform="translate(94,166)"/>
  <path d="M0 0 C0.33 0.66 0.66 1.32 1 2 C3.64 2 6.28 2 9 2 C9.33 3.32 9.66 4.64 10 6 C9.34 6 8.68 6 8 6 C8 6.66 8 7.32 8 8 C8.99 8.33 9.98 8.66 11 9 C10.67 9.66 10.34 10.32 10 11 C10.99 11 11.98 11 13 11 C13.19 11.61 13.39 12.23 13.59 12.86 C13.72 13.27 13.72 13.27 14.38 15.31 C14.5 15.71 14.5 15.71 15.15 17.74 C16 20 16 20 18 23 C18.33 21.02 18.66 19.04 19 17 C20.5 18.19 20.5 18.19 22 20 C22.19 22.69 22.19 22.69 22 25 C22.66 25 23.32 25 24 25 C24 23.02 24 21.04 24 19 C25.5 20.31 25.5 20.31 27 22 C27 22.99 27 23.98 27 25 C27.66 25 28.32 25 29 25 C29.16 27.31 29.16 27.31 30 39 C30.66 38.84 30.66 38.84 34 38 C34 38.66 34 39.32 34 40 C32.35 40 30.7 40 29 40 C29 41.32 29 42.64 29 44 C27.35 44 25.7 44 24 44 C21.7 34.59 21.7 34.59 22 30 C20.68 30.33 19.36 30.66 18 31 C17.34 29.68 16.68 28.36 16 27 C15.67 28.32 15.34 29.64 15 31 C14.34 31 13.68 31 13 31 C13 28.03 13 25.06 13 22 C12.34 22 11.68 22 11 22 C11 18.7 11 15.4 11 12 C10.34 12 9.68 12 9 12 C8.67 13.32 8.34 14.64 8 16 C7.01 15.67 6.02 15.34 5 15 C3.81 11.94 3.81 11.94 3 9 C1.68 9 0.36 9 -1 9 C-1 9.66 -1 10.32 -1 11 C-2.65 11 -4.3 11 -6 11 C-6 10.67 -6 10.34 -6 10 C-8.97 9.67 -11.94 9.34 -15 9 C-15 8.34 -15 7.68 -15 7 C-13.12 5.94 -13.12 5.94 -11 5 C-10.34 5.33 -9.68 5.66 -9 6 C-9 5.34 -9 4.68 -9 4 C-6.69 4 -4.38 4 -2 4 C-1.34 2.68 -0.68 1.36 0 0 Z " fill="#9F9481" transform="translate(30,159)"/>
  <path d="M0 0 C0.33 1.33 0.67 2.67 1 4 C1.17 4.62 1.35 5.24 1.53 5.88 C2.01 8.04 2.11 9.91 2.1 12.11 C2.09 12.86 2.09 13.62 2.09 14.39 C2.08 15.17 2.07 15.95 2.06 16.75 C2.06 17.54 2.05 18.34 2.05 19.15 C2.04 21.1 2.02 23.05 2 25 C-0.67 24.33 -3.33 23.67 -6 23 C-6 25.31 -6 27.62 -6 30 C-6.99 30 -7.98 30 -9 30 C-9.33 25.38 -9.66 20.76 -10 16 C-10.66 16 -11.32 16 -12 16 C-12.66 14.35 -13.32 12.7 -14 11 C-14.33 12.65 -14.66 14.3 -15 16 C-15.66 16 -16.32 16 -17 16 C-17.66 13.69 -18.32 11.38 -19 9 C-19.33 10.98 -19.66 12.96 -20 15 C-23.08 12.23 -24.83 10 -26 6 C-26.12 3.19 -26.12 3.19 -26 1 C-23.03 1.33 -20.06 1.66 -17 2 C-17.33 2.66 -17.66 3.32 -18 4 C-16.02 4 -14.04 4 -12 4 C-12.33 4.99 -12.66 5.98 -13 7 C-11.02 6.34 -9.04 5.68 -7 5 C-7.66 4.34 -8.32 3.68 -9 3 C-6.43 1.38 -5.32 0.96 -2.25 1.38 C-1.88 1.48 -1.88 1.48 0 2 C0 1.34 0 0.68 0 0 Z " fill="#766F68" transform="translate(69,168)"/>
  <path d="M0 0 C0.33 0 0.66 0 1 0 C1.33 3.3 1.66 6.6 2 10 C2.99 10 3.98 10 5 10 C5.33 9.01 5.66 8.02 6 7 C6.66 7 7.32 7 8 7 C8 10.3 8 13.6 8 17 C8.66 17 9.32 17 10 17 C10 19.97 10 22.94 10 26 C10.66 26 11.32 26 12 26 C12 24.35 12 22.7 12 21 C12.99 21.66 13.98 22.32 15 23 C15.66 22.01 16.32 21.02 17 20 C17 21.65 17 23.3 17 25 C17.66 25 18.32 25 19 25 C20.59 29.87 21.21 33.81 21 39 C22.65 39 24.3 39 26 39 C25.67 40.98 25.34 42.96 25 45 C24.17 45.16 24.17 45.16 20 46 C19.35 44.27 18.7 42.54 18.06 40.81 C17.7 39.85 17.34 38.89 16.97 37.89 C16.09 35.26 15.47 32.73 15 30 C13.68 30.33 12.36 30.66 11 31 C11 31.99 11 32.98 11 34 C9.35 34 7.7 34 6 34 C6 32.68 6 31.36 6 30 C5.34 30 4.68 30 4 30 C3.67 32.31 3.34 34.62 3 37 C2.51 37.16 2.51 37.16 0 38 C-0.33 38.99 -0.66 39.98 -1 41 C-1.99 41 -2.98 41 -4 41 C-4.62 38.12 -4.62 38.12 -5 35 C-4.34 34.34 -3.68 33.68 -3 33 C-0.37 33.38 -0.37 33.38 2 34 C2.08 30.96 1.98 28.93 1 26 C1.66 26 2.32 26 3 26 C3.33 22.04 3.66 18.08 4 14 C3.34 14 2.68 14 2 14 C0.09 10.79 -0.22 8.46 -0.12 4.75 C-0.11 3.86 -0.09 2.97 -0.07 2.05 C-0.06 1.71 -0.06 1.71 0 0 Z " fill="#BBB9B7" transform="translate(33,164)"/>
  <path d="M0 0 C1.58 -0.05 3.17 -0.09 4.75 -0.12 C5.63 -0.15 6.51 -0.17 7.42 -0.2 C10.11 0.01 11.7 0.63 14 2 C14 1.34 14 0.68 14 0 C15.32 0 16.64 0 18 0 C18.99 7.86 19.54 13.79 16 21 C15.34 21 14.68 21 14 21 C14 20.01 14 19.02 14 18 C13.26 18.33 12.52 18.66 11.75 19 C9 20 9 20 5 20 C4.71 19.2 4.42 18.39 4.12 17.56 C3 15 3 15 1 14 C1 13.01 1 12.02 1 11 C1.66 11 2.32 11 3 11 C2.34 9.68 1.68 8.36 1 7 C0.67 7.16 0.67 7.16 -1 8 C-0.67 5.36 -0.34 2.72 0 0 Z " fill="#74767A" transform="translate(15,168)"/>
  <path d="M0 0 C5.54 -0.37 5.54 -0.37 7.88 1.5 C8.25 2 8.62 2.49 9 3 C8.67 3.33 8.34 3.66 8 4 C7.63 6.33 7.3 8.66 7 11 C6.01 11 5.02 11 4 11 C4 12.65 4 14.3 4 16 C4.66 16 5.32 16 6 16 C6.33 17.65 6.66 19.3 7 21 C7.66 20.67 8.32 20.34 9 20 C9.62 17.94 9.62 17.94 10 16 C11.32 16 12.64 16 14 16 C14 18.97 14 21.94 14 25 C9.31 26.12 6.46 25.81 2 24 C2 22.35 2 20.7 2 19 C1.34 19 0.68 19 0 19 C-0.33 19.66 -0.66 20.32 -1 21 C-3.31 17.34 -3.3 14.14 -3.31 9.88 C-3.33 8.63 -3.35 7.39 -3.36 6.12 C-3.24 5.09 -3.12 4.06 -3 3 C-2.01 2.34 -1.02 1.68 0 1 C0 0.67 0 0.34 0 0 Z " fill="#676A74" transform="translate(85,172)"/>
</g>
</svg>