<svg xmlns="http://www.w3.org/2000/svg" viewBox="281 258 104 30" width="104" height="30">
<defs><clipPath id="chunk_22_cloud" clipPathUnits="userSpaceOnUse"><path d="M314 258L321 258L321 259L324 259L324 260L325 260L325 262L326 262L326 263L327 263L327 264L328 264L328 265L329 265L329 268L330 268L330 267L334 267L334 266L336 266L336 267L338 267L338 268L339 268L339 269L341 269L341 270L342 270L342 271L343 271L343 270L344 270L344 269L345 269L345 268L346 268L346 267L347 267L347 266L348 266L348 265L360 265L360 266L362 266L362 267L363 267L363 269L364 269L364 270L365 270L365 275L368 275L368 276L370 276L370 277L371 277L371 278L372 278L372 279L380 279L380 280L382 280L382 281L383 281L383 282L384 282L384 283L385 283L385 284L384 284L384 286L383 286L383 287L382 287L382 286L373 286L373 287L366 287L366 288L352 288L352 287L351 287L351 285L350 285L350 286L349 286L349 287L347 287L347 288L346 288L346 287L345 287L345 286L346 286L346 285L347 285L347 284L340 284L340 285L339 285L339 286L337 286L337 285L325 285L325 284L324 284L324 282L325 282L325 281L322 281L322 283L321 283L321 284L319 284L319 286L318 286L318 287L316 287L316 286L314 286L314 285L307 285L307 284L306 284L306 285L303 285L303 286L287 286L287 285L286 285L286 282L287 282L287 281L288 281L288 280L289 280L289 278L285 278L285 277L283 277L283 276L282 276L282 273L281 273L281 272L282 272L282 271L290 271L290 272L293 272L293 270L294 270L294 269L295 269L295 268L296 268L296 267L297 267L297 266L299 266L299 265L303 265L303 266L305 266L305 263L306 263L306 262L309 262L309 261L310 261L310 260L312 260L312 259L314 259Z" fill-rule="evenodd"/></clipPath></defs>
<g clip-path="url(#chunk_22_cloud)">
  <path d="M0 0 C0.17 0.5 0.17 0.5 1 3 C1.99 3.66 2.98 4.32 4 5 C4.19 7.62 4.19 7.62 4 10 C4.72 9.67 5.44 9.34 6.19 9 C9.02 7.99 11.03 7.83 14 8 C14 8.66 14 9.32 14 10 C15.32 10.33 16.64 10.66 18 11 C18 11.99 18 12.98 18 14 C20.76 12.62 21.49 10.63 23 8 C24.87 6.13 27.87 6.78 30.38 6.75 C31.54 6.72 32.7 6.7 33.9 6.67 C37 7 37 7 38.87 8.36 C40.37 10.54 40.73 12.38 41 15 C40.67 15.66 40.34 16.32 40 17 C40.91 16.94 41.81 16.88 42.75 16.81 C46.45 17.03 47.15 17.86 50 20 C50.99 20 51.98 20 53 20 C56.45 20 57.52 20.71 60 23 C59.67 23.66 59.34 24.32 59 25 C58.32 24.98 57.64 24.95 56.95 24.93 C52.08 24.84 47.63 24.95 42.88 26.06 C37.95 27.19 33.97 26.8 29 26 C29 25.01 29 24.02 29 23 C28.61 23.24 28.61 23.24 26.62 24.44 C23.32 26.41 20.77 27.3 17 28 C17.5 28.41 17.99 28.82 18.5 29.25 C20 31 20 31 20 35 C14.27 37.86 6.87 35.48 1 34 C-1.29 33.43 -3.58 32.87 -5.88 32.31 C-6.97 32.04 -8.06 31.77 -9.18 31.49 C-12 31 -12 31 -15 32 C-15 31.01 -15 30.02 -15 29 C-20.83 27.42 -26.9 28.02 -32.87 28.21 C-33.31 28.22 -33.31 28.22 -35.51 28.26 C-36.3 28.28 -37.09 28.3 -37.9 28.32 C-40.5 27.92 -41.36 27 -43 25 C-42.67 24.01 -42.34 23.02 -42 22 C-42.95 21.92 -43.9 21.83 -44.88 21.75 C-48 21 -48 21 -49.38 18.94 C-49.58 18.3 -49.79 17.66 -50 17 C-45.24 12.88 -41.71 12.6 -35.49 12.76 C-33 13 -33 13 -30 14 C-29.73 13.4 -29.46 12.8 -29.19 12.19 C-27.94 9.9 -27.12 8.52 -25 7 C-21.81 6.81 -21.81 6.81 -19 7 C-19 7.66 -19 8.32 -19 9 C-18.34 9 -17.68 9 -17 9 C-17 7.35 -17 5.7 -17 4 C-15.68 3.67 -14.36 3.34 -13 3 C-13 2.34 -13 1.68 -13 1 C-8.32 -1.49 -5.06 -0.86 0 0 Z " fill="#C2D8E4" transform="translate(323,260)"/>
  <path d="M0 0 C-0.12 1.88 -0.12 1.88 -1 4 C-10.32 7.62 -20.35 9.14 -30.21 10.46 C-34.6 11.08 -38.95 11.8 -43.31 12.56 C-44.06 12.69 -44.81 12.82 -45.58 12.95 C-50.88 13.88 -50.88 13.88 -52 15 C-51.39 15.18 -50.79 15.36 -50.16 15.55 C-48.39 16.08 -46.62 16.61 -44.85 17.15 C-43.06 17.68 -41.26 18.21 -39.46 18.73 C-35.07 19.99 -30.73 21.37 -26.44 22.94 C-25.61 23.24 -24.78 23.53 -23.93 23.84 C-22 25 -22 25 -21.16 27.07 C-21.11 27.7 -21.05 28.34 -21 29 C-21.17 29.17 -21.17 29.17 -22 30 C-28.86 29.77 -34.44 27.87 -40.84 25.46 C-46.62 23.35 -52.59 21.81 -58.54 20.23 C-64.1 18.71 -68.92 16.74 -74 14 C-73.67 12.68 -73.34 11.36 -73 10 C-72.45 9.94 -72.45 9.94 -69.69 9.62 C-66 9 -66 9 -63 7 C-60.34 6.62 -60.34 6.62 -57.38 6.44 C-52.1 6.1 -52.1 6.1 -51 5 C-49.2 4.68 -47.38 4.43 -45.56 4.19 C-40.56 3.51 -35.58 2.78 -30.6 1.98 C-29.47 1.8 -28.33 1.62 -27.16 1.43 C-24.88 1.07 -22.6 0.7 -20.33 0.32 C-4.41 -2.2 -4.41 -2.2 0 0 Z " fill="#9BC7D9" transform="translate(431,282)"/>
  <path d="M0 0 C-0.33 0.17 -0.33 0.17 -2 1 C0 4 0 4 3.12 4.69 C3.6 4.74 3.6 4.74 6 5 C5 7 5 7 2 9 C2.33 9.99 2.66 10.98 3 12 C5.65 12.03 8.29 12.05 10.94 12.06 C11.69 12.07 12.45 12.08 13.22 12.09 C15.15 12.1 17.08 12.05 19 12 C19.33 11.67 19.66 11.34 20 11 C25.17 10.69 29.15 11.42 34 13 C34.33 12.01 34.66 11.02 35 10 C35.66 10 36.32 10 37 10 C37 9.01 37 8.02 37 7 C38.32 7.33 39.64 7.66 41 8 C40.67 9.32 40.34 10.64 40 12 C40.62 11.81 41.24 11.63 41.88 11.44 C46.33 10.81 50.55 11.44 55 12 C55 11.34 55 10.68 55 10 C58.3 10 61.6 10 65 10 C62.17 13.25 60.31 14.52 56 15 C56.5 15.41 56.99 15.82 57.5 16.25 C59 18 59 18 59 22 C53.27 24.86 45.87 22.48 40 21 C37.71 20.43 35.42 19.87 33.12 19.31 C32.03 19.04 30.94 18.77 29.82 18.49 C27 18 27 18 24 19 C24 18.01 24 17.02 24 16 C18.17 14.42 12.1 15.02 6.13 15.21 C5.69 15.22 5.69 15.22 3.49 15.26 C2.7 15.28 1.91 15.3 1.1 15.32 C-1.5 14.92 -2.36 14 -4 12 C-3.67 11.01 -3.34 10.02 -3 9 C-3.95 8.92 -4.9 8.83 -5.88 8.75 C-9 8 -9 8 -10.38 5.94 C-10.58 5.3 -10.79 4.66 -11 4 C-7.2 1.17 -4.81 -0.57 0 0 Z " fill="#9CC9DB" transform="translate(284,273)"/>
</g>
</svg>