<svg xmlns="http://www.w3.org/2000/svg" viewBox="386 578 75 67" width="75" height="67">
<defs><clipPath id="chunk_20_platform" clipPathUnits="userSpaceOnUse"><path d="M405 578L406 578L406 579L409 579L409 580L411 580L411 581L414 581L414 582L415 582L415 583L416 583L416 584L417 584L417 585L418 585L418 586L419 586L419 587L420 587L420 588L421 588L421 589L422 589L422 590L424 590L424 591L425 591L425 592L426 592L426 593L427 593L427 594L428 594L428 595L429 595L429 596L430 596L430 597L431 597L431 598L432 598L432 599L437 599L437 600L441 600L441 601L443 601L443 602L444 602L444 603L445 603L445 604L446 604L446 605L447 605L447 606L448 606L448 607L449 607L449 608L450 608L450 609L451 609L451 610L452 610L452 611L453 611L453 612L454 612L454 613L455 613L455 614L456 614L456 615L457 615L457 616L458 616L458 617L459 617L459 618L460 618L460 622L461 622L461 623L460 623L460 624L459 624L459 625L458 625L458 626L457 626L457 627L456 627L456 628L455 628L455 629L454 629L454 630L453 630L453 631L452 631L452 632L451 632L451 633L450 633L450 634L449 634L449 635L448 635L448 636L447 636L447 637L446 637L446 638L445 638L445 639L444 639L444 640L443 640L443 641L442 641L442 642L441 642L441 643L440 643L440 644L439 644L439 645L420 645L420 644L419 644L419 635L418 635L418 634L417 634L417 633L416 633L416 632L415 632L415 631L414 631L414 630L413 630L413 629L412 629L412 628L411 628L411 627L410 627L410 626L409 626L409 625L408 625L408 624L406 624L406 623L405 623L405 622L404 622L404 621L403 621L403 620L402 620L402 619L401 619L401 618L400 618L400 617L399 617L399 616L398 616L398 615L397 615L397 614L396 614L396 613L395 613L395 612L394 612L394 611L393 611L393 610L392 610L392 608L391 608L391 607L390 607L390 606L387 606L387 605L386 605L386 601L387 601L387 600L393 600L393 596L389 596L389 595L388 595L388 594L387 594L387 591L386 591L386 588L387 588L387 587L392 587L392 588L393 588L393 585L392 585L392 582L393 582L393 581L394 581L394 582L396 582L396 583L398 583L398 584L402 584L402 582L403 582L403 580L404 580L404 579L405 579ZM393 590L394 590L394 588L393 588L393 589Z" fill-rule="evenodd"/></clipPath></defs>
<g clip-path="url(#chunk_20_platform)">
  <path d="M0 0 C1.1 0.19 2.19 0.39 3.32 0.59 C3.74 0.67 3.74 0.67 5.88 1.06 C5.88 1.72 5.88 2.38 5.88 3.06 C6.49 2.97 7.1 2.87 7.74 2.77 C8.14 2.72 8.14 2.72 10.19 2.44 C10.59 2.38 10.59 2.38 12.61 2.09 C14.88 2.06 14.88 2.06 17.88 4.06 C17.88 4.72 17.88 5.38 17.88 6.06 C22.07 5.46 25.88 4.49 29.88 3.06 C29.88 4.05 29.88 5.04 29.88 6.06 C30.78 6.04 31.68 6.02 32.61 5.99 C33.79 5.97 34.97 5.96 36.19 5.94 C36.77 5.93 36.77 5.93 39.74 5.87 C42.88 6.06 42.88 6.06 45.88 8.06 C46.27 7.59 46.66 7.11 47.06 6.62 C50.52 3.65 55.53 3.8 59.94 3.38 C60.45 3.32 60.45 3.32 63.04 3.05 C66.01 3.06 67.47 3.34 69.88 5.06 C70.21 6.05 70.53 7.04 70.88 8.06 C72.13 7.96 73.39 7.86 74.69 7.75 C76.92 7.74 76.92 7.74 78.88 8.06 C80.44 10.44 80.44 10.44 81.88 13.06 C85.12 14.25 85.12 14.25 88.88 15.06 C90.19 15.43 91.5 15.8 92.81 16.19 C93.82 16.48 94.83 16.76 95.88 17.06 C95.88 16.4 95.88 15.74 95.88 15.06 C97.85 15.06 99.84 15.06 101.88 15.06 C102.21 14.4 102.53 13.74 102.88 13.06 C108.62 13.94 108.62 13.94 110.88 15.06 C110.81 14.7 110.81 14.7 110.5 12.88 C110.88 10.06 110.88 10.06 113.19 7.44 C118.18 3.74 124.43 1.69 130.63 2.36 C132.3 2.73 133.95 3.14 135.59 3.62 C138.43 4.17 140.12 3.96 142.88 3.06 C143.59 2.39 144.31 1.72 145.05 1.03 C149.24 -1.89 153.02 -1.49 158 -1.38 C158.91 -1.38 159.81 -1.39 160.75 -1.4 C167.45 -1.33 167.45 -1.33 169.44 0.53 C169.91 1.03 170.39 1.54 170.88 2.06 C172.03 2.39 173.19 2.72 174.38 3.06 C179.26 4.46 179.26 4.46 180.88 7.06 C181.56 10.75 181.56 10.75 181.88 14.06 C182.41 13.98 182.41 13.98 185.12 13.56 C190.16 12.89 195.44 12.22 199.69 15.44 C200.88 17.06 200.88 17.06 200.88 20.06 C202.31 19.95 203.75 19.82 205.19 19.69 C205.99 19.62 206.79 19.55 207.61 19.48 C209.88 19.06 209.88 19.06 212.88 17.06 C221.49 16.32 230.29 17.28 238.88 18.06 C238.88 19.38 238.88 20.7 238.88 22.06 C239.4 22.02 239.4 22.02 242.06 21.81 C246.41 22.1 247.81 23.09 250.88 26.06 C250.55 28.04 250.21 30.02 249.88 32.06 C250.17 32.07 250.17 32.07 251.66 32.09 C254.38 32.15 257.09 32.23 259.81 32.31 C260.74 32.33 261.66 32.34 262.62 32.36 C270.94 32.65 278.38 34.72 284.44 40.75 C289.07 46.31 288.8 52.17 288.35 59.07 C287.81 64.47 286.83 69.1 282.88 73.06 C281.3 77.93 280.49 82.95 280.88 88.06 C281.2 88.39 281.54 88.72 281.88 89.06 C282.33 95.1 281.63 101.08 280.88 107.06 C282.19 107.06 283.51 107.06 284.88 107.06 C284.88 106.4 284.88 105.74 284.88 105.06 C285.87 105.06 286.86 105.06 287.88 105.06 C287.88 106.38 287.88 107.7 287.88 109.06 C289.19 109.06 290.51 109.06 291.88 109.06 C292.2 108.07 292.54 107.08 292.88 106.06 C294.62 106.04 296.37 106.02 298.12 106 C298.61 105.99 298.61 105.99 301.08 105.96 C303.88 106.06 303.88 106.06 307.88 107.06 C307.21 103.76 306.56 100.46 305.88 97.06 C310.82 97.06 315.77 97.06 320.88 97.06 C317.87 92.06 317.87 92.06 315.69 91.25 C315.09 91.19 314.49 91.13 313.88 91.06 C313.88 90.4 313.88 89.74 313.88 89.06 C316.51 88.73 319.15 88.4 321.88 88.06 C321.67 87.46 321.46 86.87 321.25 86.25 C320.88 84.06 320.88 84.06 322.88 81.06 C320.56 81.06 318.25 81.06 315.88 81.06 C315.21 79.41 314.56 77.76 313.88 76.06 C315.19 76.06 316.51 76.06 317.88 76.06 C318.2 76.72 318.54 77.38 318.88 78.06 C320.19 78.39 321.51 78.72 322.88 79.06 C321.88 76.09 320.89 73.12 319.88 70.06 C320.62 70.37 321.36 70.68 322.12 71 C324.38 71.87 326.52 72.54 328.88 73.06 C329.37 72.07 329.37 72.07 331.88 67.06 C335.75 67.94 335.75 67.94 336.88 69.06 C338.39 69.13 339.92 69.15 341.44 69.12 C342.26 69.12 343.09 69.11 343.94 69.1 C344.58 69.09 345.22 69.07 345.88 69.06 C345.88 70.71 345.88 72.36 345.88 74.06 C344.82 74.35 343.77 74.64 342.69 74.94 C338.88 76.06 338.88 76.06 336.12 77.25 C333.88 78.06 333.88 78.06 330.88 77.06 C330.55 77.72 330.21 78.38 329.88 79.06 C330.54 79.06 331.19 79.06 331.88 79.06 C331.88 80.05 331.88 81.04 331.88 82.06 C332.87 82.06 333.86 82.06 334.88 82.06 C335.24 87.6 335.24 87.6 333.38 89.94 C332.88 90.31 332.38 90.68 331.88 91.06 C331.88 90.07 331.88 89.08 331.88 88.06 C330.56 88.06 329.24 88.06 327.88 88.06 C328.2 91.69 328.54 95.32 328.88 99.06 C327.23 99.23 327.23 99.23 318.88 100.06 C319.54 101.38 320.19 102.7 320.88 104.06 C326.63 102.19 326.63 102.19 328.88 101.06 C327.32 104.89 324.92 107.31 321.88 110.06 C317.94 111.37 315.75 110.31 311.88 109.06 C311.88 109.72 311.88 110.38 311.88 111.06 C312.54 111.06 313.19 111.06 313.88 111.06 C314.54 112.05 315.19 113.04 315.88 114.06 C319 114.25 319 114.25 321.88 114.06 C321.88 115.05 321.88 116.04 321.88 117.06 C319.23 118.52 317.98 119.06 314.88 119.06 C314.88 119.72 314.88 120.38 314.88 121.06 C315.87 121.06 316.86 121.06 317.88 121.06 C317.88 121.72 317.88 122.38 317.88 123.06 C313.88 124.4 309.87 125.73 305.88 127.06 C305.88 126.4 305.88 125.74 305.88 125.06 C302.9 125.06 299.94 125.06 296.88 125.06 C296.88 126.05 296.88 127.04 296.88 128.06 C300.31 128.69 303.37 129.06 306.88 129.06 C307.2 129.06 307.54 129.06 307.88 129.06 C307.88 130.71 307.88 132.36 307.88 134.06 C309.86 133.73 311.83 133.4 313.88 133.06 C314.2 132.07 314.54 131.08 314.88 130.06 C315.2 130.06 315.54 130.06 315.88 130.06 C316.2 131.71 316.54 133.36 316.88 135.06 C318.52 134.4 320.18 133.74 321.88 133.06 C322.2 134.05 322.54 135.04 322.88 136.06 C323.43 135.71 323.99 135.36 324.56 135 C327.41 133.84 328.96 134.25 331.88 135.06 C331.88 136.05 331.88 137.04 331.88 138.06 C331.21 138.06 330.56 138.06 329.88 138.06 C329.88 138.72 329.88 139.38 329.88 140.06 C328.88 140.06 327.89 140.06 326.88 140.06 C326.88 139.4 326.88 138.74 326.88 138.06 C325.88 138.06 324.89 138.06 323.88 138.06 C323.21 139.38 322.56 140.7 321.88 142.06 C325.33 143.95 326.64 144.12 330.56 143.19 C331.66 142.82 332.75 142.44 333.88 142.06 C334.54 142.06 335.19 142.06 335.88 142.06 C335.88 140.41 335.88 138.76 335.88 137.06 C337.19 137.06 338.51 137.06 339.88 137.06 C339.88 137.72 339.88 138.38 339.88 139.06 C341.86 138.4 343.83 137.74 345.88 137.06 C345.88 140.83 345.64 141.97 343.88 145.06 C345.86 145.39 347.83 145.72 349.88 146.06 C350.2 147.38 350.54 148.7 350.88 150.06 C352.19 150.39 353.51 150.72 354.88 151.06 C354.88 152.38 354.88 153.7 354.88 155.06 C354.21 155.06 353.56 155.06 352.88 155.06 C352.88 156.05 352.88 157.04 352.88 158.06 C351.23 158.06 349.57 158.06 347.88 158.06 C347.55 156.41 347.21 154.76 346.88 153.06 C344.89 152.73 342.92 152.4 340.88 152.06 C340.55 153.05 340.21 154.04 339.88 155.06 C338.88 155.06 337.89 155.06 336.88 155.06 C336.88 156.05 336.88 157.04 336.88 158.06 C336.21 158.06 335.56 158.06 334.88 158.06 C334.88 157.07 334.88 156.08 334.88 155.06 C333.88 155.39 332.89 155.72 331.88 156.06 C330.48 156.13 329.08 156.15 327.69 156.12 C326.43 156.1 325.17 156.08 323.88 156.06 C323.88 156.72 323.88 157.38 323.88 158.06 C322.23 157.4 320.57 156.74 318.88 156.06 C318.88 155.07 318.88 154.08 318.88 153.06 C316.89 153.36 314.9 153.65 312.92 153.94 C310.88 154.06 310.88 154.06 307.88 153.06 C305.82 152.84 303.75 152.66 301.69 152.5 C300.6 152.42 299.51 152.33 298.39 152.25 C297.56 152.19 296.73 152.12 295.88 152.06 C295.55 153.38 295.21 154.7 294.88 156.06 C294.17 155.88 293.47 155.69 292.75 155.5 C289.54 155.01 287.04 155.4 283.88 156.06 C283.88 156.72 283.88 157.38 283.88 158.06 C282.9 159.08 281.9 160.08 280.88 161.06 C280.55 161.72 280.21 162.38 279.88 163.06 C278.56 163.06 277.24 163.06 275.88 163.06 C275.88 163.72 275.88 164.38 275.88 165.06 C273.56 164.73 271.25 164.4 268.88 164.06 C268.55 163.07 268.21 162.08 267.88 161.06 C268.2 160.4 268.54 159.74 268.88 159.06 C270.19 159.06 271.51 159.06 272.88 159.06 C273 158.49 273.12 157.91 273.25 157.31 C273.88 155.04 274.76 153.14 275.88 151.06 C274.88 151.39 273.89 151.72 272.88 152.06 C270.87 151.79 268.86 151.46 266.88 151.06 C266.88 151.72 266.88 152.38 266.88 153.06 C266.13 152.73 265.39 152.4 264.62 152.06 C261.88 151.06 261.88 151.06 257.88 151.06 C257.68 151.86 257.49 152.66 257.29 153.48 C253.57 168.61 253.57 168.61 250.75 170.44 C250.13 170.64 249.51 170.85 248.88 171.06 C248.88 171.72 248.88 172.38 248.88 173.06 C247.88 173.06 246.89 173.06 245.88 173.06 C243.52 169.53 243.33 166.67 243.06 162.56 C243 161.89 242.93 161.21 242.87 160.51 C242.52 155.57 242.52 155.57 244.24 153.09 C245.88 152.06 245.88 152.06 247.88 152.06 C248.37 150.58 248.37 150.58 250.88 143.06 C251.87 143.06 252.86 143.06 253.88 143.06 C254.16 142.3 254.45 141.54 254.75 140.75 C255.88 138.06 255.88 138.06 257.88 135.06 C258.54 135.06 259.19 135.06 259.88 135.06 C259.85 134.29 259.83 133.52 259.8 132.72 C259.64 123.17 259.64 123.17 260.88 119.12 C262.54 113.59 262.03 107.78 261.88 102.06 C259.56 101.4 257.25 100.74 254.88 100.06 C254.25 91.35 255.96 84.25 258.88 76.06 C259.87 76.72 260.86 77.38 261.88 78.06 C262.54 76.74 263.19 75.42 263.88 74.06 C264.54 74.06 265.19 74.06 265.88 74.06 C265.55 79.34 265.21 84.62 264.88 90.06 C269.21 87.17 269.42 83.58 270.81 78.71 C271.16 77.84 271.51 76.96 271.88 76.06 C272.37 75.9 272.37 75.9 274.88 75.06 C275.24 73.74 275.57 72.4 275.88 71.06 C277.44 68.81 277.44 68.81 278.88 67.06 C278.55 66.4 278.21 65.74 277.88 65.06 C276.23 65.06 274.57 65.06 272.88 65.06 C272.88 61.43 272.88 57.8 272.88 54.06 C271.39 54.08 269.9 54.1 268.38 54.12 C263.78 54.13 259.42 53.74 254.88 53.06 C254.88 54.38 254.88 55.7 254.88 57.06 C253.56 57.06 252.24 57.06 250.88 57.06 C250.88 55.08 250.88 53.1 250.88 51.06 C249.23 51.23 249.23 51.23 240.88 52.06 C240.88 54.04 240.88 56.02 240.88 58.06 C244.12 59.03 247.06 59.2 250.44 59.19 C251.39 59.19 252.34 59.19 253.32 59.2 C255.88 59.06 255.88 59.06 258.88 58.06 C258.88 58.72 258.88 59.38 258.88 60.06 C260.19 60.06 261.51 60.06 262.88 60.06 C262.55 62.04 262.21 64.02 261.88 66.06 C263.86 66.06 265.83 66.06 267.88 66.06 C267.55 67.38 267.21 68.7 266.88 70.06 C265.6 70.19 264.32 70.31 263 70.44 C259.12 70.81 259.12 70.81 256.88 73.06 C254.25 73.19 254.25 73.19 251.88 73.06 C251.88 72.4 251.88 71.74 251.88 71.06 C251.18 71 250.48 70.94 249.76 70.88 C248.85 70.8 247.94 70.71 247 70.62 C246.55 70.58 246.55 70.58 244.26 70.38 C241.88 70.06 241.88 70.06 239.88 69.06 C240.2 69.67 240.52 70.28 240.86 70.9 C242.33 75.48 242.2 79.85 242.19 84.62 C242.2 85.57 242.22 86.52 242.24 87.49 C242.24 88.4 242.24 89.31 242.24 90.25 C242.24 90.67 242.24 90.67 242.25 92.76 C241.8 95.55 240.71 96.95 238.88 99.06 C239.54 99.06 240.19 99.06 240.88 99.06 C241.22 112.72 241.22 112.72 239.88 117.38 C239 120.59 238.84 122.36 239 125.56 C239.13 129.86 237.93 132.44 235.83 136.13 C234.37 139.08 234.15 141.81 233.88 145.06 C231.88 144.06 231.88 144.06 230.81 141.56 C229.7 137.41 229.24 133.34 228.88 129.06 C228.21 129.06 227.56 129.06 226.88 129.06 C226.69 129.7 226.51 130.34 226.32 131 C226.07 131.82 225.82 132.65 225.56 133.5 C225.32 134.32 225.08 135.15 224.82 136 C224.67 136.34 224.67 136.34 223.88 138.06 C220.88 139.06 220.88 139.06 217.88 138.06 C217.88 138.36 217.88 138.36 217.91 139.89 C217.91 140.29 217.91 140.29 217.94 142.31 C217.95 143.1 217.96 143.89 217.97 144.7 C217.88 146.97 217.51 148.89 216.88 151.06 C216.21 151.06 215.56 151.06 214.88 151.06 C214.93 151.39 214.93 151.39 215.2 153.07 C215.94 158.51 216.27 161.49 212.88 166.06 C212.19 168.88 212.19 168.88 211.88 171.06 C212.54 171.39 213.19 171.72 213.88 172.06 C213.13 175 213.13 175 211.88 178.06 C208.58 179.77 204.52 179.13 200.88 179.06 C200.88 179.72 200.88 180.38 200.88 181.06 C110.45 181.06 20.03 181.06 -73.12 181.06 C-73.12 123.31 -73.12 65.56 -73.12 6.06 C-71.47 5.4 -69.83 4.74 -68.12 4.06 C-67.8 3.73 -67.47 3.4 -67.12 3.06 C-61.59 2.62 -58.11 3.75 -53.12 6.06 C-51.84 6.42 -50.55 6.75 -49.25 7.06 C-48.22 7.39 -47.19 7.72 -46.12 8.06 C-45.8 9.05 -45.47 10.04 -45.12 11.06 C-44.68 11.05 -44.68 11.05 -42.42 10.96 C-41.25 10.93 -40.08 10.9 -38.88 10.88 C-37.71 10.84 -36.55 10.81 -35.36 10.77 C-31.9 11.08 -30.61 11.72 -28.12 14.06 C-28.12 13.07 -28.12 12.08 -28.12 11.06 C-26.8 11.06 -25.48 11.06 -24.12 11.06 C-24.12 9.74 -24.12 8.42 -24.12 7.06 C-22.64 6.9 -22.64 6.9 -15.12 6.06 C-15.45 7.05 -15.78 8.04 -16.12 9.06 C-14.15 9.06 -12.16 9.06 -10.12 9.06 C-10.06 8.74 -10.06 8.74 -9.76 7.13 C-9.59 6.3 -9.42 5.48 -9.25 4.62 C-9.09 3.8 -8.93 2.98 -8.76 2.13 C-8.55 1.45 -8.34 0.77 -8.12 0.06 C-5.21 -1.39 -3.17 -0.57 0 0 Z " fill="#B19546" transform="translate(73.125,512.9375)"/>
  <path d="M0 0 C0.66 0 1.32 0 2 0 C2.15 0.88 2.29 1.76 2.45 2.67 C4.5 13.33 4.5 13.33 8.19 16.19 C8.65 16.49 8.65 16.49 11 18 C11 18.66 11 19.32 11 20 C9.35 20 7.7 20 6 20 C6 20.66 6 21.32 6 22 C6.64 22.27 7.28 22.54 7.94 22.81 C10 24 10 24 11 27 C10.34 27 9.68 27 9 27 C9.33 27.6 9.66 28.2 10 28.81 C11 31 11 31 11 34 C11.66 34 12.32 34 13 34 C12.97 33.1 12.93 32.19 12.89 31.26 C12.87 30.08 12.84 28.9 12.81 27.69 C12.78 26.52 12.74 25.34 12.71 24.14 C13 21 13 21 14.33 19.22 C14.88 18.82 15.43 18.42 16 18 C16.97 17.26 17.94 16.51 18.94 15.75 C22 14 22 14 24.38 14.25 C24.91 14.5 25.45 14.75 26 15 C26.33 13.68 26.66 12.36 27 11 C27.56 11.21 28.11 11.41 28.69 11.62 C31.65 12.11 33.27 11.15 36 10 C36.33 10.17 36.33 10.17 38 11 C38 10.34 38 9.68 38 9 C40.31 9.33 42.62 9.66 45 10 C45 10.66 45 11.32 45 12 C43.35 12.17 43.35 12.17 35 13 C35 13.99 35 14.98 35 16 C35.99 16.33 36.98 16.66 38 17 C38.33 17.66 38.66 18.32 39 19 C42.06 19.62 42.06 19.62 45 20 C42.48 22.7 40.31 24.4 37 26 C36.67 26.66 36.34 27.32 36 28 C37.32 28.33 38.64 28.66 40 29 C39.39 29.23 38.77 29.46 38.14 29.7 C31.45 32.4 31.45 32.4 28.94 35.75 C28.63 36.49 28.32 37.24 28 38 C28.99 37.84 28.99 37.84 34 37 C33.31 38.94 33.31 38.94 32 41 C29.44 41.62 29.44 41.62 27 42 C26.67 42.66 26.34 43.32 26 44 C27.81 43.72 29.63 43.42 31.44 43.12 C32.45 42.96 33.46 42.8 34.5 42.63 C35.32 42.42 36.15 42.22 37 42 C37.33 41.34 37.66 40.68 38 40 C41.7 38.94 45.18 39 49 39 C49.32 38.92 49.32 38.92 50.94 38.5 C53.95 37.77 56.91 38 60 38 C63 37 63 37 64.19 34.94 C64.46 34.3 64.72 33.66 65 33 C65.62 33.16 66.24 33.33 66.88 33.5 C69.87 34.21 70.99 34 74 33 C74.66 33.33 75.32 33.66 76 34 C75.67 35.32 75.34 36.64 75 38 C78.3 38 81.6 38 85 38 C85 38.99 85 39.98 85 41 C83.87 41.12 82.73 41.25 81.56 41.38 C80.39 41.58 79.21 41.79 78 42 C77.67 42.66 77.34 43.32 77 44 C80.63 44 84.26 44 88 44 C88.33 43.01 88.66 42.02 89 41 C89.33 41.99 89.66 42.98 90 44 C92.97 44.33 95.94 44.66 99 45 C99.33 44.34 99.66 43.68 100 43 C100 43.66 100 44.32 100 45 C102.31 44.01 104.62 43.02 107 42 C107 41.34 107 40.68 107 40 C100.38 39 100.38 39 97 39 C97.33 37.68 97.66 36.36 98 35 C94.37 34.34 90.74 33.68 87 33 C86.67 33.66 86.34 34.32 86 35 C83.1 36.37 81.24 37 78 37 C78.51 34.83 79 33 80 31 C83.06 30.38 83.06 30.38 86 30 C86.33 28.68 86.66 27.36 87 26 C88.65 26 90.3 26 92 26 C92 27.32 92 28.64 92 30 C93.62 30.08 95.25 30.14 96.88 30.19 C97.78 30.22 98.68 30.26 99.62 30.29 C100.01 30.24 100.01 30.24 102 30 C102.66 29.01 103.32 28.02 104 27 C103.34 27 102.68 27 102 27 C102 26.34 102 25.68 102 25 C102.66 25 103.32 25 104 25 C104 24.34 104 23.68 104 23 C103.01 23 102.02 23 101 23 C101 22.34 101 21.68 101 21 C100.01 21.33 99.02 21.66 98 22 C98.33 21.01 98.66 20.02 99 19 C101.5 18.05 101.5 18.05 104.56 17.31 C105.07 17.19 105.07 17.19 107.63 16.55 C108.02 16.46 108.02 16.46 110 16 C109.34 15.34 109.34 15.34 106 12 C109.36 10.16 111.57 9.96 115.25 10.56 C119.75 11.23 122.87 10.36 127.05 8.69 C129 8 129 8 132 8 C131.34 6.35 130.68 4.7 130 3 C130.89 3.31 131.77 3.62 132.69 3.94 C136 5 136 5 138.75 5.31 C139.49 5.54 140.24 5.77 141 6 C142.31 8.56 142.31 8.56 143 11 C141.02 11.33 139.04 11.66 137 12 C137.33 13.65 137.66 15.3 138 17 C136.35 17.33 134.7 17.66 133 18 C133.33 19.65 133.66 21.3 134 23 C133.01 23 132.02 23 131 23 C131.66 24.65 132.32 26.3 133 28 C131.35 28.16 131.35 28.16 123 29 C123.33 29.99 123.66 30.98 124 32 C124.99 32.33 125.98 32.66 127 33 C127 33.99 127 34.98 127 36 C126.22 36.25 125.43 36.5 124.62 36.75 C121.68 38.15 121.1 39.01 120 42 C121.32 42.66 122.64 43.32 124 44 C123.34 44 122.68 44 122 44 C122 44.99 122 45.98 122 47 C120.02 47.33 118.04 47.66 116 48 C116 48.66 116 49.32 116 50 C116.93 50.08 117.86 50.16 118.81 50.25 C122 51 122 51 123.88 53.06 C124.25 53.7 124.62 54.34 125 55 C122 57 122 57 118 57 C118 57.66 118 58.32 118 59 C119.99 58.93 121.97 58.87 123.96 58.8 C126 59 126 59 129 61 C129 61.66 129 62.32 129 63 C128.34 63.33 128.34 63.33 125 65 C128.7 65.95 131.3 65.95 135 65 C134.67 66.65 134.34 68.3 134 70 C133.34 70 132.68 70 132 70 C132 70.66 132 71.32 132 72 C129.36 72.33 126.72 72.66 124 73 C124 73.66 124 74.32 124 75 C129.4 78.07 129.4 78.07 132.19 77.75 C132.79 77.5 133.38 77.25 134 77 C134.5 76.84 134.5 76.84 137 76 C136.67 75.01 136.34 74.02 136 73 C138.97 73.33 141.94 73.66 145 74 C144.67 76.31 144.34 78.62 144 81 C144.69 81.04 145.37 81.07 146.08 81.11 C146.98 81.18 147.88 81.24 148.81 81.31 C149.71 81.37 150.6 81.43 151.52 81.49 C154 82 154 82 155.89 83.23 C157 85 157 85 156 90 C157.98 90.16 157.98 90.16 168 91 C167.67 91.66 167.34 92.32 167 93 C163.94 93.62 163.94 93.62 161 94 C161 94.66 161 95.32 161 96 C161.66 96.33 162.32 96.66 163 97 C162.34 97 161.68 97 161 97 C161 97.66 161 98.32 161 99 C161.5 98.84 161.5 98.84 164 98 C164 98.66 164 99.32 164 100 C165.98 100 167.96 100 170 100 C169.49 102.17 169 104 168 106 C166.68 106 165.36 106 164 106 C164 106.66 164 107.32 164 108 C165.32 108 166.64 108 168 108 C168 108.66 168 109.32 168 110 C169.65 110 171.3 110 173 110 C173.33 111.32 173.66 112.64 174 114 C172.02 114.66 170.04 115.32 168 116 C169.32 116.33 170.64 116.66 172 117 C172 117.66 172 118.32 172 119 C171.34 119 170.68 119 170 119 C170 119.66 170 120.32 170 121 C172.31 121 174.62 121 177 121 C177 121.99 177 122.98 177 124 C174.03 124.66 171.06 125.32 168 126 C168 126.66 168 127.32 168 128 C166.02 128 164.04 128 162 128 C163.75 130.06 163.75 130.06 166 132 C168.12 131.69 168.12 131.69 170 131 C170.66 131.33 171.32 131.66 172 132 C172 132.66 172 133.32 172 134 C168.37 134.99 164.74 135.98 161 137 C161 137.66 161 138.32 161 139 C159.56 139.34 158.13 139.67 156.69 140 C155.89 140.19 155.09 140.37 154.26 140.56 C152 141 152 141 149 141 C148.67 141.66 148.34 142.32 148 143 C149.98 143.66 151.96 144.32 154 145 C154 145.66 154 146.32 154 147 C147.38 147.12 147.38 147.12 144 146 C143.34 146.99 142.68 147.98 142 149 C139.38 149.19 139.38 149.19 137 149 C137 149.99 137 150.98 137 152 C134.03 152.66 131.06 153.32 128 154 C128 154.66 128 155.32 128 156 C129.13 156.12 130.27 156.25 131.44 156.38 C132.61 156.58 133.79 156.79 135 157 C135.33 157.66 135.66 158.32 136 159 C132.32 161.45 129.56 161.23 125.31 161.12 C124.61 161.12 123.91 161.11 123.19 161.1 C121.46 161.07 119.73 161.04 118 161 C117.67 162.32 117.34 163.64 117 165 C119.97 165.33 122.94 165.66 126 166 C126 166.66 126 167.32 126 168 C123.36 168 120.72 168 118 168 C117.67 169.32 117.34 170.64 117 172 C122.28 172 127.56 172 133 172 C133 172.66 133 173.32 133 174 C132.11 174.12 131.22 174.24 130.3 174.37 C129.13 174.53 127.96 174.7 126.75 174.88 C125.59 175.04 124.43 175.2 123.23 175.37 C120.42 175.92 118.45 176.56 116 178 C115.34 177.34 114.68 176.68 114 176 C111.38 175.38 111.38 175.38 109 175 C109 175.66 109 176.32 109 177 C107.54 177.19 106.08 177.38 104.62 177.56 C103.81 177.67 103 177.77 102.16 177.88 C100 178 100 178 98 177 C98.66 178.32 99.32 179.64 100 181 C98.68 181 97.36 181 96 181 C96.33 182.32 96.66 183.64 97 185 C90.02 185.1 83.16 185.07 76.22 184.22 C73.8 183.98 71.43 183.97 69 184 C69 184.66 69 185.32 69 186 C69.44 185.99 69.44 185.99 71.69 185.94 C74.66 185.99 77.12 186.35 80 187 C82 187.34 84 187.67 86 188 C85.34 188.99 84.68 189.98 84 191 C83.34 191 82.68 191 82 191 C84.22 194.33 85.35 194.75 89 196 C89 196.33 89 196.66 89 197 C2.87 197 -83.26 197 -172 197 C-172 196.34 -172 195.68 -172 195 C-168.37 194.67 -164.74 194.34 -161 194 C-161 192.35 -161 190.7 -161 189 C-161 184.43 -160.55 180.82 -158 177 C-157.8 174.52 -157.8 174.52 -157.88 171.81 C-157.89 170.91 -157.91 170.01 -157.93 169.08 C-157.95 168.39 -157.98 167.71 -158 167 C-157.34 167 -156.68 167 -156 167 C-155.67 162.71 -155.34 158.42 -155 154 C-153.35 154 -151.7 154 -150 154 C-148.68 150.7 -147.36 147.4 -146 144 C-145.01 144.33 -144.02 144.66 -143 145 C-142.87 145.83 -142.73 146.66 -142.6 147.52 C-142.42 148.61 -142.24 149.69 -142.06 150.81 C-141.89 151.89 -141.71 152.97 -141.54 154.08 C-141 157 -141 157 -140 160 C-139.73 158.8 -139.46 157.61 -139.19 156.38 C-138.5 153.57 -137.82 151.68 -136.38 149.12 C-134.7 145.32 -134.89 142.52 -135.02 138.43 C-135 136 -135 136 -134.06 132.75 C-132.42 126.94 -132.32 121.01 -132 115 C-132.66 115 -133.32 115 -134 115 C-133.67 114.44 -133.35 113.88 -133.01 113.3 C-131.88 110.72 -131.76 108.99 -131.77 106.19 C-131.77 105.28 -131.77 104.37 -131.78 103.43 C-131.79 102.48 -131.8 101.54 -131.81 100.56 C-131.81 99.62 -131.81 98.68 -131.81 97.71 C-131.84 93.23 -132.11 89.44 -133 85 C-129.04 85.66 -125.08 86.32 -121 87 C-121 87.66 -121 88.32 -121 89 C-115.12 87.12 -115.12 87.12 -114 86 C-111.67 85.66 -109.33 85.33 -107 85 C-106.34 84.67 -105.68 84.34 -105 84 C-105 83.34 -105 82.68 -105 82 C-106.98 82 -108.96 82 -111 82 C-110.67 80.02 -110.34 78.04 -110 76 C-111.32 76 -112.64 76 -114 76 C-114 75.34 -114 74.68 -114 74 C-114.99 74.66 -115.98 75.32 -117 76 C-119.52 76.27 -119.52 76.27 -122.38 76.25 C-123.31 76.26 -124.25 76.26 -125.21 76.27 C-128.14 75.99 -130.33 75.22 -133 74 C-132.67 72.02 -132.34 70.04 -132 68 C-130.35 67.84 -130.35 67.84 -122 67 C-122 68.98 -122 70.96 -122 73 C-120.68 73 -119.36 73 -118 73 C-118 71.68 -118 70.36 -118 69 C-112.06 69.33 -106.12 69.66 -100 70 C-100 73.63 -100 77.26 -100 81 C-98.35 80.67 -96.7 80.34 -95 80 C-94.34 81.32 -93.68 82.64 -93 84 C-93.5 84.16 -93.5 84.16 -96 85 C-96.69 86.99 -97.36 88.99 -98 91 C-98.49 91.46 -98.97 91.91 -99.48 92.38 C-101.93 94.99 -102.2 98.2 -102.96 101.62 C-104.32 104.73 -106.03 105.53 -109 107 C-108.86 104.54 -108.71 102.08 -108.56 99.62 C-108.52 98.93 -108.48 98.23 -108.44 97.51 C-108.11 92.23 -108.11 92.23 -107 90 C-107.66 90 -108.32 90 -109 90 C-109.06 90.32 -109.06 90.32 -109.38 91.94 C-109.58 92.62 -109.79 93.3 -110 94 C-110.33 94.16 -110.33 94.16 -112 95 C-112.33 94.34 -112.66 93.68 -113 93 C-115.89 100.7 -117.68 107.77 -118 116 C-115.36 116.33 -112.72 116.66 -110 117 C-109.65 130.94 -109.65 130.94 -111.49 136.91 C-112.61 141.5 -112.7 146.3 -113 151 C-113.66 151 -114.32 151 -115 151 C-115.29 151.58 -115.58 152.15 -115.88 152.75 C-116.92 154.83 -117.96 156.92 -119 159 C-119.99 159 -120.98 159 -122 159 C-122.12 160.09 -122.25 161.19 -122.38 162.31 C-123 166 -123 166 -125 169 C-127.13 170.19 -127.13 170.19 -129 171 C-128.86 173.44 -128.71 175.88 -128.56 178.31 C-128.52 179 -128.48 179.69 -128.44 180.4 C-128.25 183.47 -127.98 186.07 -127 189 C-126.01 189 -125.02 189 -124 189 C-124 188.34 -124 187.68 -124 187 C-123.37 186.62 -122.75 186.24 -122.1 185.84 C-119.11 183.22 -118.93 180.26 -118.38 176.5 C-117.23 169.35 -117.23 169.35 -115 166 C-111.66 166.56 -108.97 167.35 -106 169 C-106 168.34 -106 167.68 -106 167 C-103.03 167 -100.06 167 -97 167 C-97.78 170.1 -98.53 172.25 -100 175 C-101.32 175 -102.64 175 -104 175 C-104 176.32 -104 177.64 -104 179 C-101.69 179.66 -99.38 180.32 -97 181 C-97 180.34 -97 179.68 -97 179 C-95.68 179 -94.36 179 -93 179 C-92.34 177.35 -91.68 175.7 -91 174 C-90.34 174 -89.68 174 -89 174 C-89 173.34 -89 172.68 -89 172 C-81.37 170 -81.37 170 -78 170 C-77.67 169.01 -77.34 168.02 -77 167 C-75.1 167.14 -73.21 167.29 -71.31 167.44 C-70.78 167.48 -70.78 167.48 -68.11 167.68 C-65.35 167.96 -62.72 168.45 -60 169 C-58 169.04 -56 169.05 -54 169 C-53.67 169.99 -53.34 170.98 -53 172 C-50.94 173.19 -50.94 173.19 -49 174 C-49 173.34 -49 172.68 -49 172 C-45.37 171.67 -41.74 171.34 -38 171 C-38 171.99 -38 172.98 -38 174 C-37.34 174 -36.68 174 -36 174 C-36 173.01 -36 172.02 -36 171 C-35.01 171 -34.02 171 -33 171 C-32.67 169.68 -32.34 168.36 -32 167 C-29.69 167.33 -27.38 167.66 -25 168 C-25 169.98 -25 171.96 -25 174 C-24.01 173.67 -23.02 173.34 -22 173 C-21.34 173.33 -20.68 173.66 -20 174 C-20 173.01 -20 172.02 -20 171 C-19.34 171 -18.68 171 -18 171 C-18 169.68 -18 168.36 -18 167 C-19.65 166.67 -21.3 166.34 -23 166 C-23 165.01 -23 164.02 -23 163 C-25.31 162.34 -27.62 161.68 -30 161 C-29.67 160.4 -29.34 159.8 -29 159.19 C-28 157 -28 157 -28 154 C-29.65 154.33 -31.3 154.66 -33 155 C-33 154.34 -33 153.68 -33 153 C-34.32 153 -35.64 153 -37 153 C-37 154.65 -37 156.3 -37 158 C-46.02 161.26 -46.02 161.26 -50.12 160.19 C-50.74 159.8 -51.36 159.4 -52 159 C-50.69 156.5 -50.69 156.5 -49 154 C-48.01 154 -47.02 154 -46 154 C-46 154.66 -46 155.32 -46 156 C-45.01 156 -44.02 156 -43 156 C-43 155.34 -43 154.68 -43 154 C-42.34 154 -41.68 154 -41 154 C-41 153.01 -41 152.02 -41 151 C-41.31 151.05 -41.31 151.05 -42.9 151.29 C-43.72 151.4 -44.53 151.51 -45.38 151.62 C-46.19 151.74 -47 151.86 -47.84 151.98 C-48.55 151.98 -49.26 151.99 -50 152 C-50.66 151.34 -51.32 150.68 -52 150 C-52.66 150.33 -52.66 150.33 -56 152 C-56.33 151.17 -56.33 151.17 -58 147 C-58.41 147.5 -58.82 147.99 -59.25 148.5 C-61 150 -61 150 -65 150 C-65.33 148.68 -65.66 147.36 -66 146 C-66.66 146.33 -67.32 146.66 -68 147 C-68 146.34 -68 145.68 -68 145 C-68.93 145.21 -69.86 145.41 -70.81 145.62 C-74 146 -74 146 -77 144 C-76.67 142.68 -76.34 141.36 -76 140 C-73.03 140.33 -70.06 140.66 -67 141 C-67 141.66 -67 142.32 -67 143 C-66.5 142.53 -66.01 142.05 -65.5 141.56 C-62.01 139.38 -59.09 139.34 -55 139 C-55 138.34 -55 137.68 -55 137 C-55.99 137 -56.98 137 -58 137 C-58 136.34 -58 135.68 -58 135 C-55.69 134.01 -53.38 133.02 -51 132 C-53.31 130.85 -55.47 130.47 -58 130 C-58.33 129.01 -58.66 128.02 -59 127 C-59.66 127 -60.32 127 -61 127 C-61 126.34 -61 125.68 -61 125 C-60.4 125.13 -59.79 125.26 -59.17 125.39 C-56.71 125.82 -54.5 126.12 -52 126 C-49.5 123.62 -49.5 123.62 -48 121 C-47.67 120.67 -47.34 120.34 -47 120 C-47.76 120.08 -48.53 120.16 -49.31 120.25 C-52 120 -52 120 -53.81 118 C-54.2 117.34 -54.6 116.68 -55 116 C-54 115 -54 115 -51.71 114.9 C-50.8 114.91 -49.88 114.93 -48.94 114.94 C-48.48 114.94 -48.48 114.94 -46.15 114.96 C-45.8 114.97 -45.8 114.97 -44 115 C-44.35 113.74 -44.7 112.48 -45.06 111.19 C-45.94 108.05 -46.07 107.22 -45 104 C-43.35 104.33 -41.7 104.66 -40 105 C-39.34 102.69 -38.68 100.38 -38 98 C-38.99 98 -39.98 98 -41 98 C-41 97.01 -41 96.02 -41 95 C-41.66 95 -42.32 95 -43 95 C-42.67 94.01 -42.34 93.02 -42 92 C-41.28 92.23 -40.56 92.45 -39.81 92.69 C-36.2 93.09 -34.97 91.98 -32 90 C-29.69 89.31 -29.69 89.31 -28 89 C-28 88.01 -28 87.02 -28 86 C-28.99 86 -29.98 86 -31 86 C-31.33 85.01 -31.66 84.02 -32 83 C-32.99 82.67 -33.98 82.34 -35 82 C-34.34 80.35 -33.68 78.7 -33 77 C-33.99 77 -34.98 77 -36 77 C-36 75.68 -36 74.36 -36 73 C-36.3 71.66 -36.62 70.32 -37 69 C-35.68 69.33 -34.36 69.66 -33 70 C-32.67 67.69 -32.34 65.38 -32 63 C-30.35 63 -28.7 63 -27 63 C-27 57.39 -27 51.78 -27 46 C-23 46 -23 46 -21.25 47.38 C-20 49 -20 49 -20 51 C-19.34 51 -18.68 51 -18 51 C-18 50.34 -18 49.68 -18 49 C-14.7 48.67 -11.4 48.34 -8 48 C-7.67 46.68 -7.34 45.36 -7 44 C-7.99 44 -8.98 44 -10 44 C-10 43.01 -10 42.02 -10 41 C-10.99 41 -11.98 41 -13 41 C-13 40.34 -13 39.68 -13 39 C-13.99 39 -14.98 39 -16 39 C-16 38.34 -16 37.68 -16 37 C-16.66 37 -17.32 37 -18 37 C-18 36.34 -18 35.68 -18 35 C-15.36 34.67 -12.72 34.34 -10 34 C-9.67 33.01 -9.34 32.02 -9 31 C-7.68 31 -6.36 31 -5 31 C-5.33 29.68 -5.66 28.36 -6 27 C-5.67 26.84 -5.67 26.84 -4 26 C-4.33 25.67 -4.66 25.34 -5 25 C-5.66 25 -6.32 25 -7 25 C-6.67 23.68 -6.34 22.36 -6 21 C-7.32 20.67 -8.64 20.34 -10 20 C-10 19.01 -10 18.02 -10 17 C-8.35 17 -6.7 17 -5 17 C-3.41 13.28 -2.32 9.61 -1.38 5.69 C-1.11 4.62 -0.85 3.55 -0.59 2.45 C-0.49 2.05 -0.49 2.05 0 0 Z " fill="#AA9858" transform="translate(446,497)"/>
  <path d="M0 0 C2.79 0.29 4.56 0.67 6.81 2.38 C8 4 8 4 8 7 C9.44 6.89 10.88 6.76 12.31 6.62 C12.71 6.59 12.71 6.59 14.74 6.41 C17 6 17 6 20 4 C28.61 3.26 37.42 4.21 46 5 C46 6.32 46 7.64 46 9 C46.53 8.96 46.53 8.96 49.19 8.75 C53.54 9.04 54.93 10.02 58 13 C57.67 14.98 57.34 16.96 57 19 C57.29 19 57.29 19 58.78 19.03 C61.5 19.08 64.22 19.17 66.94 19.25 C67.86 19.26 68.79 19.28 69.74 19.29 C78.07 19.59 85.51 21.66 91.56 27.69 C96.2 33.25 95.92 39.11 95.47 46.01 C94.93 51.4 93.96 56.04 90 60 C88.42 64.87 87.62 69.89 88 75 C88.33 75.33 88.66 75.66 89 76 C89.46 82.03 88.76 88.02 88 94 C89.32 94 90.64 94 92 94 C92 93.34 92 92.68 92 92 C92.99 92 93.98 92 95 92 C95 93.32 95 94.64 95 96 C96.32 96 97.64 96 99 96 C99.33 95.01 99.66 94.02 100 93 C101.75 92.97 103.5 92.95 105.25 92.94 C105.74 92.93 105.74 92.93 108.2 92.9 C111 93 111 93 115 94 C114.34 90.7 113.68 87.4 113 84 C117.95 84 122.9 84 128 84 C125 79 125 79 122.81 78.19 C122.21 78.13 121.62 78.06 121 78 C121 77.34 121 76.68 121 76 C123.64 75.67 126.28 75.34 129 75 C128.79 74.4 128.59 73.8 128.38 73.19 C128 71 128 71 130 68 C127.69 68 125.38 68 123 68 C122.34 66.35 121.68 64.7 121 63 C122.32 63 123.64 63 125 63 C125.33 63.66 125.66 64.32 126 65 C127.32 65.33 128.64 65.66 130 66 C129.01 63.03 128.02 60.06 127 57 C127.37 57.15 127.37 57.15 129.25 57.94 C131.51 58.81 133.65 59.48 136 60 C136.99 58.02 137.98 56.04 139 54 C142.88 54.88 142.88 54.88 144 56 C145.52 56.07 147.04 56.08 148.56 56.06 C149.39 56.05 150.22 56.04 151.07 56.04 C151.7 56.02 152.34 56.01 153 56 C153 57.65 153 59.3 153 61 C151.95 61.29 150.9 61.58 149.81 61.88 C146 63 146 63 143.25 64.19 C141 65 141 65 138 64 C137.67 64.66 137.34 65.32 137 66 C137.66 66 138.32 66 139 66 C139 66.99 139 67.98 139 69 C139.99 69 140.98 69 142 69 C142.37 74.54 142.37 74.54 140.5 76.88 C140 77.25 139.51 77.62 139 78 C139 77.01 139 76.02 139 75 C137.68 75 136.36 75 135 75 C135.33 78.63 135.66 82.26 136 86 C134.35 86.16 134.35 86.16 126 87 C126.66 88.32 127.32 89.64 128 91 C133.75 89.12 133.75 89.12 136 88 C134.44 91.83 132.05 94.25 129 97 C125.06 98.31 122.88 97.24 119 96 C119 96.66 119 97.32 119 98 C119.66 98 120.32 98 121 98 C121.33 98.5 121.33 98.5 123 101 C126.12 101.19 126.12 101.19 129 101 C129 101.99 129 102.98 129 104 C126.35 105.46 125.11 106 122 106 C122 106.66 122 107.32 122 108 C122.99 108 123.98 108 125 108 C125 108.66 125 109.32 125 110 C121 111.33 117 112.67 113 114 C113 113.34 113 112.68 113 112 C110.03 112 107.06 112 104 112 C104 112.99 104 113.98 104 115 C107.44 115.62 110.49 116 114 116 C114.33 116 114.66 116 115 116 C115 117.65 115 119.3 115 121 C115.99 120.84 115.99 120.84 121 120 C121.33 119.01 121.66 118.02 122 117 C122.33 117 122.66 117 123 117 C123.33 118.65 123.66 120.3 124 122 C124.82 121.67 124.82 121.67 129 120 C129.33 120.99 129.66 121.98 130 123 C130.28 122.82 130.28 122.82 131.69 121.94 C134.54 120.78 136.09 121.19 139 122 C139 122.99 139 123.98 139 125 C138.34 125 137.68 125 137 125 C137 125.66 137 126.32 137 127 C136.01 127 135.02 127 134 127 C134 126.34 134 125.68 134 125 C133.01 125 132.02 125 131 125 C130.67 125.66 130.67 125.66 129 129 C132.46 130.88 133.76 131.06 137.69 130.12 C138.78 129.75 139.87 129.38 141 129 C141.66 129 142.32 129 143 129 C143 127.35 143 125.7 143 124 C144.32 124 145.64 124 147 124 C147 124.66 147 125.32 147 126 C148.98 125.34 150.96 124.68 153 124 C153 127.77 152.76 128.91 151 132 C152.98 132.33 154.96 132.66 157 133 C157.33 134.32 157.66 135.64 158 137 C159.32 137.33 160.64 137.66 162 138 C162 139.32 162 140.64 162 142 C161.34 142 160.68 142 160 142 C160 142.99 160 143.98 160 145 C158.35 145 156.7 145 155 145 C154.67 143.35 154.34 141.7 154 140 C152.02 139.67 150.04 139.34 148 139 C147.67 139.99 147.34 140.98 147 142 C146.01 142 145.02 142 144 142 C144 142.99 144 143.98 144 145 C143.34 145 142.68 145 142 145 C142 144.01 142 143.02 142 142 C141.01 142.33 140.02 142.66 139 143 C137.61 143.07 136.21 143.09 134.81 143.06 C133.55 143.04 132.3 143.02 131 143 C131 143.66 131 144.32 131 145 C129.35 144.34 127.7 143.68 126 143 C126 142.01 126 141.02 126 140 C124.01 140.29 122.03 140.59 120.04 140.88 C118 141 118 141 115 140 C112.94 139.78 110.88 139.59 108.81 139.44 C107.73 139.35 106.64 139.27 105.52 139.18 C104.69 139.12 103.86 139.06 103 139 C102.67 140.32 102.34 141.64 102 143 C101.3 142.81 100.6 142.63 99.88 142.44 C96.66 141.95 94.16 142.34 91 143 C91 143.66 91 144.32 91 145 C90.02 146.02 89.02 147.02 88 148 C87.67 148.66 87.34 149.32 87 150 C85.68 150 84.36 150 83 150 C83 150.66 83 151.32 83 152 C80.69 151.67 78.38 151.34 76 151 C75.67 150.01 75.34 149.02 75 148 C75.33 147.34 75.66 146.68 76 146 C77.32 146 78.64 146 80 146 C80.12 145.42 80.25 144.85 80.38 144.25 C81.01 141.98 81.89 140.07 83 138 C82.01 138.33 81.02 138.66 80 139 C77.99 138.72 75.99 138.4 74 138 C74 138.66 74 139.32 74 140 C73.26 139.67 72.51 139.34 71.75 139 C69 138 69 138 65 138 C64.81 138.8 64.61 139.59 64.41 140.41 C60.69 155.55 60.69 155.55 57.88 157.38 C57.26 157.58 56.64 157.79 56 158 C56 158.66 56 159.32 56 160 C55.01 160 54.02 160 53 160 C50.64 156.46 50.46 153.61 50.19 149.5 C50.16 149.16 50.16 149.16 49.99 147.45 C49.65 142.51 49.65 142.51 51.36 140.03 C53 139 53 139 55 139 C55.99 136.03 56.98 133.06 58 130 C58.99 130 59.98 130 61 130 C61.29 129.24 61.58 128.47 61.88 127.69 C63 125 63 125 65 122 C65.66 122 66.32 122 67 122 C66.98 121.23 66.95 120.45 66.93 119.66 C66.76 110.11 66.76 110.11 68 106.06 C69.67 100.53 69.16 94.72 69 89 C66.69 88.34 64.38 87.68 62 87 C61.37 78.29 63.08 71.19 66 63 C66.5 63.33 66.5 63.33 69 65 C69.66 63.68 70.32 62.36 71 61 C71.66 61 72.32 61 73 61 C72.67 66.28 72.34 71.56 72 77 C76.33 74.11 76.55 70.52 77.94 65.65 C78.29 64.78 78.64 63.9 79 63 C79.99 62.67 80.98 62.34 82 62 C82.37 60.68 82.69 59.34 83 58 C84.56 55.75 84.56 55.75 86 54 C85.67 53.34 85.34 52.68 85 52 C83.35 52 81.7 52 80 52 C80 48.37 80 44.74 80 41 C78.51 41.02 77.03 41.04 75.5 41.06 C70.91 41.07 66.54 40.67 62 40 C62 41.32 62 42.64 62 44 C60.68 44 59.36 44 58 44 C58 42.02 58 40.04 58 38 C56.35 38.16 56.35 38.16 48 39 C48 40.98 48 42.96 48 45 C51.24 45.97 54.19 46.13 57.56 46.12 C58.51 46.13 59.46 46.13 60.44 46.13 C63 46 63 46 66 45 C66 45.66 66 46.32 66 47 C67.32 47 68.64 47 70 47 C69.67 48.98 69.34 50.96 69 53 C70.98 53 72.96 53 75 53 C74.67 54.32 74.34 55.64 74 57 C72.72 57.12 71.44 57.25 70.12 57.38 C66.25 57.75 66.25 57.75 64 60 C61.38 60.12 61.38 60.12 59 60 C59 59.34 59 58.68 59 58 C58.3 57.94 57.6 57.88 56.88 57.82 C55.97 57.73 55.06 57.65 54.12 57.56 C53.22 57.48 52.32 57.4 51.38 57.32 C49 57 49 57 47 56 C47.32 56.61 47.65 57.21 47.98 57.84 C49.46 62.41 49.33 66.79 49.31 71.56 C49.33 72.51 49.34 73.45 49.36 74.43 C49.36 75.34 49.36 76.25 49.36 77.19 C49.37 78.02 49.37 78.85 49.37 79.7 C48.92 82.49 47.84 83.89 46 86 C46.66 86 47.32 86 48 86 C48.35 99.66 48.35 99.66 47 104.31 C46.13 107.52 45.96 109.29 46.12 112.5 C46.25 116.8 45.05 119.38 42.96 123.07 C41.5 126.02 41.27 128.74 41 132 C39 131 39 131 37.94 128.5 C36.82 124.34 36.36 120.28 36 116 C35.34 116 34.68 116 34 116 C33.82 116.64 33.64 117.28 33.45 117.93 C33.2 118.76 32.95 119.59 32.69 120.44 C32.44 121.26 32.2 122.08 31.95 122.93 C31.64 123.62 31.32 124.3 31 125 C28 126 28 126 25 125 C25.01 125.6 25.02 126.21 25.04 126.83 C25.04 127.63 25.05 128.43 25.06 129.25 C25.07 130.04 25.09 130.83 25.1 131.64 C25 133.91 24.63 135.83 24 138 C23.34 138 22.68 138 22 138 C22.11 138.66 22.21 139.33 22.32 140.01 C23.06 145.45 23.39 148.43 20 153 C19.31 155.81 19.31 155.81 19 158 C19.66 158.33 20.32 158.66 21 159 C20.25 161.94 20.25 161.94 19 165 C15.7 166.71 11.64 166.07 8 166 C8 166.66 8 167.32 8 168 C5.36 168 2.72 168 0 168 C0 167.01 0 166.02 0 165 C3.33 162 3.33 162 6 162 C6 162.66 6 163.32 6 164 C7.65 164 9.3 164 11 164 C10.98 163.35 10.95 162.7 10.93 162.02 C10.73 152.43 10.73 152.43 13 148 C13.87 147.5 14.73 147.01 15.62 146.5 C16.41 146 17.19 145.51 18 145 C18.31 141.81 18.31 141.81 18 139 C17.69 139.33 17.69 139.33 16.12 141 C14 143 14 143 12 143 C11.94 142.04 11.88 141.07 11.82 140.08 C11.73 138.81 11.65 137.55 11.56 136.25 C11.48 135 11.4 133.74 11.32 132.45 C11.07 129.79 10.65 127.56 10 125 C9.34 116.55 10.59 109.09 13 101 C14.65 101.33 16.3 101.66 18 102 C18.33 103.32 18.66 104.64 19 106 C19.66 106 20.32 106 21 106 C21.66 103.69 22.32 101.38 23 99 C21.68 98.67 20.36 98.34 19 98 C19.33 95.03 19.66 92.06 20 89 C20.99 89 21.98 89 23 89 C24.69 86.5 24.69 86.5 26 84 C27.24 87.71 27.36 91.31 27.56 95.19 C27.61 95.94 27.65 96.69 27.69 97.46 C27.8 99.31 27.9 101.15 28 103 C28.99 102.84 28.99 102.84 34 102 C34.02 101.7 34.02 101.7 34.11 100.16 C34.48 95.54 35.08 91.45 36.62 87.06 C38.36 81.69 38.44 76.48 37 71 C35.45 69.18 35.45 69.18 34 68 C34.75 65.62 34.75 65.62 36 63 C36.66 62.71 37.32 62.42 38 62.12 C40 61 40 61 41.25 57.38 C41.37 56.82 41.37 56.82 42 54 C41.5 53.84 41.5 53.84 39 53 C39.03 50.95 39.07 48.9 39.1 46.85 C39 45 39 45 38 44 C36.48 43.93 34.96 43.92 33.44 43.94 C32.61 43.95 31.78 43.96 30.93 43.96 C30.3 43.98 29.66 43.99 29 44 C29.66 46.31 30.32 48.62 31 51 C31.66 51 32.32 51 33 51 C33 51.66 33 52.32 33 53 C5.61 54.01 5.61 54.01 -6 46 C-6 45.34 -6 44.68 -6 44 C-3.36 43.67 -0.72 43.34 2 43 C2 42.34 2 41.68 2 41 C-8.64 39.02 -8.64 39.02 -13.12 38.44 C-16 38 -16 38 -17 37 C-18.68 37.29 -20.34 37.62 -22 38 C-22.33 38.99 -22.66 39.98 -23 41 C-24.98 40.34 -26.96 39.68 -29 39 C-29.66 39.99 -30.32 40.98 -31 42 C-31.99 41.67 -32.98 41.34 -34 41 C-34 40.34 -34 39.68 -34 39 C-33.01 39 -32.02 39 -31 39 C-30.67 37.68 -30.34 36.36 -30 35 C-26.7 35 -23.4 35 -20 35 C-21.32 34.67 -22.64 34.34 -24 34 C-24.33 33.34 -24.66 32.68 -25 32 C-26.85 31.37 -26.85 31.37 -29.06 30.88 C-29.8 30.71 -30.53 30.54 -31.29 30.37 C-31.85 30.25 -32.42 30.12 -33 30 C-33 29.34 -33 28.68 -33 28 C-28.38 28 -23.76 28 -19 28 C-19 26.68 -19 25.36 -19 24 C-17.54 24.14 -16.08 24.29 -14.62 24.44 C-13.81 24.52 -13 24.6 -12.16 24.68 C-10 25 -10 25 -8 26 C-6.23 25.96 -4.45 25.85 -2.69 25.69 C-1.74 25.61 -0.8 25.53 0.18 25.45 C3.03 24.99 5.37 24.18 8 23 C8 23.66 8 24.32 8 25 C9.32 25 10.64 25 12 25 C12 25.66 12 26.32 12 27 C13.01 26.96 14.02 26.91 15.07 26.87 C19.11 27 22.12 27.79 25.94 29.06 C31.6 30.77 35.27 31.38 41 30 C41.8 29.88 42.61 29.75 43.44 29.62 C43.95 29.42 44.47 29.21 45 29 C45.16 28.5 45.16 28.5 46 26 C49.56 26.61 52.68 27.58 56 29 C56 28.34 56 27.68 56 27 C57.32 26.67 58.64 26.34 60 26 C60.33 24.68 60.66 23.36 61 22 C60.03 21.75 59.06 21.5 58.06 21.25 C57.05 20.84 56.04 20.42 55 20 C54.12 17.88 54.12 17.88 54 16 C49.48 15.92 45.41 15.9 41 17 C41 16.01 41 15.02 41 14 C42.32 14 43.64 14 45 14 C45 13.01 45 12.02 45 11 C44.32 11.16 43.64 11.33 42.94 11.5 C39.58 12.07 36.4 12.07 33 12 C33.16 12.66 33.16 12.66 34 16 C31.62 16.12 31.62 16.12 29 16 C28.34 15.34 27.68 14.68 27 14 C26.01 14 25.02 14 24 14 C23.34 14.99 22.68 15.98 22 17 C19.38 17.19 19.38 17.19 17 17 C17.33 15.35 17.66 13.7 18 12 C17.42 12.22 16.84 12.43 16.24 12.66 C11.67 14.28 7.92 15.38 3 15 C1.75 12.51 2.22 11.59 3 9 C3.66 9 4.32 9 5 9 C5 7.35 5 5.7 5 4 C4.34 4 3.68 4 3 4 C3 3.34 3 2.68 3 2 C1.68 1.67 0.36 1.34 -1 1 C-0.67 0.67 -0.34 0.34 0 0 Z " fill="#AC985D" transform="translate(266,526)"/>
  <path d="M0 0 C0.99 0 1.98 0 3 0 C4.82 5.45 4.43 11.46 3 17 C3.66 17 4.32 17 5 17 C8 21.38 8 21.38 8 24 C6.68 24.33 5.36 24.66 4 25 C4.23 25.19 4.23 25.19 5.38 26.12 C7.47 28.54 8.12 30.95 9 34 C9.16 33.67 9.16 33.67 10 32 C10.66 32.16 10.66 32.16 14 33 C13.41 36.02 12.77 39.02 12 42 C11.5 41.84 11.5 41.84 9 41 C10 43 10 43 13 45 C12.67 46.98 12.34 48.96 12 51 C12.99 51 13.98 51 15 51 C15.13 51.47 15.13 51.47 15.81 53.88 C17 57 17 57 20 59 C19.67 57.35 19.34 55.7 19 54 C19.64 53.73 20.28 53.46 20.94 53.19 C23 52 23 52 24 49 C24.91 49.21 25.81 49.41 26.75 49.62 C30.2 50.02 31.11 49.65 34 48 C34.66 48.33 35.32 48.66 36 49 C36 50.32 36 51.64 36 53 C36.66 52.01 37.32 51.02 38 50 C40.12 49.31 40.12 49.31 42 49 C41.62 47.06 41.62 47.06 41 45 C40.34 44.67 39.68 44.34 39 44 C42 43 42 43 44.56 43.06 C47 43 47 43 49 41 C52.28 40.64 54.23 40.47 57 42.38 C57.66 42.91 58.32 43.45 59 44 C60.98 44.72 62.98 45.4 65 46 C65 46.33 65 46.66 65 47 C62.69 47 60.38 47 58 47 C58 47.66 58 48.32 58 49 C58.7 49.12 59.4 49.25 60.12 49.38 C63.18 50.04 66.05 50.97 69 52 C69 51.34 69 50.68 69 50 C69.99 50 70.98 50 72 50 C71.67 51.32 71.34 52.64 71 54 C72.65 54 74.3 54 76 54 C77.46 56.65 78 57.89 78 61 C78.99 60.67 79.98 60.34 81 60 C82.12 63.75 82.12 63.75 81 66 C82.98 66 84.96 66 87 66 C87 65.01 87 64.02 87 63 C88.32 63.33 89.64 63.66 91 64 C91 64.99 91 65.98 91 67 C91.83 66.67 91.83 66.67 96 65 C96.99 65.99 97.98 66.98 99 68 C97.85 68.16 97.85 68.16 92 69 C92 71.31 92 73.62 92 76 C93.65 76 95.3 76 97 76 C95.68 76.33 94.36 76.66 93 77 C93.33 77.99 93.66 78.98 94 80 C90.04 80 86.08 80 82 80 C82 79.34 82 78.68 82 78 C81.32 78.23 80.64 78.45 79.94 78.69 C75.84 79.12 73.67 77.8 70 76 C70.33 73.69 70.66 71.38 71 69 C70.01 68.67 69.02 68.34 68 68 C68 69.98 68 71.96 68 74 C66.35 74 64.7 74 63 74 C63 73.01 63 72.02 63 71 C62.34 71 61.68 71 61 71 C60.67 72.65 60.34 74.3 60 76 C59.63 76.07 59.63 76.07 57.75 76.44 C55.48 76.9 53.24 77.42 51 78 C51 76.68 51 75.36 51 74 C50.34 74 49.68 74 49 74 C49 74.66 49 75.32 49 76 C47.02 76 45.04 76 43 76 C43 76.66 43 77.32 43 78 C41.35 77.67 39.7 77.34 38 77 C38 76.01 38 75.02 38 74 C36.02 73.34 34.04 72.68 32 72 C32 71.34 32 70.68 32 70 C30.02 70 28.04 70 26 70 C26 70.99 26 71.98 26 73 C22.26 71.75 21.81 70.37 20 67 C19.84 67.66 19.84 67.66 19 71 C18.34 70.84 18.34 70.84 15 70 C17.13 72.34 19.12 73.71 22 75 C22 76.32 22 77.64 22 79 C23.98 79 25.96 79 28 79 C28 79.66 28 80.32 28 81 C28.76 80.84 29.53 80.67 30.31 80.5 C33 80 33 80 36 80 C35.75 81.88 35.75 81.88 35 84 C32.06 86.03 30.72 86 27 86 C27 86.66 27 87.32 27 88 C29.31 88.66 31.62 89.32 34 90 C33.67 90.66 33.34 91.32 33 92 C32.34 92 31.68 92 31 92 C31.33 92.5 31.33 92.5 33 95 C35.6 95.51 35.6 95.51 38.62 95.69 C39.63 95.75 40.63 95.82 41.66 95.89 C42.43 95.92 43.21 95.96 44 96 C44.33 94.02 44.66 92.04 45 90 C46.94 90.31 46.94 90.31 49 91 C49.33 91.99 49.66 92.98 50 94 C48.6 96.26 46.8 98.02 45 100 C46.98 100.99 48.96 101.98 51 103 C50.67 105.31 50.34 107.62 50 110 C48.68 110.33 47.36 110.66 46 111 C46.16 112.32 46.16 112.32 47 119 C46.01 119 45.02 119 44 119 C43.77 118.62 43.77 118.62 42.62 116.69 C40.78 113.63 39.05 112.73 36 111 C36 110.34 36 109.68 36 109 C35.34 109 34.68 109 34 109 C34 108.34 34 107.68 34 107 C33.34 106.84 33.34 106.84 30 106 C30.33 107.98 30.66 109.96 31 112 C30.5 112.16 30.5 112.16 28 113 C27.67 111.68 27.34 110.36 27 109 C26.34 108.84 26.34 108.84 23 108 C23 108.66 23 109.32 23 110 C22.01 110 21.02 110 20 110 C20 110.66 20 111.32 20 112 C20.66 112 21.32 112 22 112 C22 112.66 22 113.32 22 114 C22.99 114 23.98 114 25 114 C25 114.66 25 115.32 25 116 C26.98 115.67 28.96 115.34 31 115 C30.34 117.64 29.68 120.28 29 123 C28.34 122.67 27.68 122.34 27 122 C27.16 121.34 27.16 121.34 28 118 C27.44 118.23 26.89 118.45 26.31 118.69 C23.08 119.12 21.71 117.69 19 116 C17.68 116 16.36 116 15 116 C15.33 116.99 15.66 117.98 16 119 C16.5 119.16 16.5 119.16 19 120 C19 120.99 19 121.98 19 123 C20.32 122.67 21.64 122.34 23 122 C23 122.99 23 123.98 23 125 C24.98 125 26.96 125 29 125 C29.33 124.34 29.66 123.68 30 123 C31.32 123 32.64 123 34 123 C34.66 124.65 35.32 126.3 36 128 C36.41 126.87 36.82 125.73 37.25 124.56 C39 121 39 121 41.19 120.06 C41.79 120.04 42.38 120.02 43 120 C42.67 122.31 42.34 124.62 42 127 C41.34 126.84 41.34 126.84 38 126 C38.16 127.15 38.16 127.15 39 133 C38.4 132.84 37.79 132.69 37.17 132.53 C36.37 132.33 35.57 132.14 34.75 131.94 C33.96 131.74 33.17 131.54 32.36 131.34 C29.9 130.99 28.34 131.23 26 132 C26 131.01 26 130.02 26 129 C24.35 129.33 24.35 129.33 16 131 C16 129.35 16 127.7 16 126 C12.85 127.1 9.86 128.27 7 130 C5.44 133.25 5.44 133.25 5 136 C8.41 136.78 11.51 137.1 15 137 C15 138.67 15 140.33 15 142 C12.03 142 9.06 142 6 142 C6.99 142.99 7.98 143.98 9 145 C9 145.99 9 146.98 9 148 C8.34 148 7.68 148 7 148 C7 149.65 7 151.3 7 153 C6.34 153 5.68 153 5 153 C3.98 151.34 2.98 149.68 2 148 C1.34 147.67 0.68 147.34 0 147 C-0.66 149.31 -1.32 151.62 -2 154 C-3.65 153.34 -5.3 152.68 -7 152 C-6.77 152.93 -6.55 153.86 -6.31 154.81 C-6 158 -6 158 -7.06 159.81 C-9.64 161.39 -12.02 161.67 -15 162 C-15.75 160.25 -15.75 160.25 -16 158 C-14.19 155.75 -14.19 155.75 -12 154 C-11.34 154 -10.68 154 -10 154 C-10 153.34 -10 152.68 -10 152 C-10.89 152.47 -11.77 152.95 -12.69 153.44 C-18.65 156.25 -21.7 156.1 -28 154 C-27.67 153.4 -27.34 152.8 -27 152.19 C-26 150 -26 150 -26 147 C-27.65 147.33 -29.3 147.66 -31 148 C-31 147.34 -31 146.68 -31 146 C-32.32 146 -33.64 146 -35 146 C-35 147.65 -35 149.3 -35 151 C-44.02 154.26 -44.02 154.26 -48.12 153.19 C-48.43 152.99 -48.43 152.99 -50 152 C-48.69 149.5 -48.69 149.5 -47 147 C-46.01 147 -45.02 147 -44 147 C-44 147.66 -44 148.32 -44 149 C-43.01 149 -42.02 149 -41 149 C-41 148.34 -41 147.68 -41 147 C-40.34 147 -39.68 147 -39 147 C-39 146.01 -39 145.02 -39 144 C-39.31 144.05 -39.31 144.05 -40.9 144.29 C-41.72 144.4 -42.53 144.51 -43.38 144.62 C-44.19 144.74 -45 144.86 -45.84 144.98 C-46.55 144.98 -47.26 144.99 -48 145 C-48.66 144.34 -49.32 143.68 -50 143 C-50.66 143.33 -50.66 143.33 -54 145 C-54.33 144.17 -54.33 144.17 -56 140 C-56.21 140.25 -56.21 140.25 -57.25 141.5 C-59 143 -59 143 -63 143 C-63.33 141.68 -63.66 140.36 -64 139 C-64.66 139.33 -65.32 139.66 -66 140 C-66 139.34 -66 138.68 -66 138 C-66.93 138.21 -67.86 138.41 -68.81 138.62 C-72 139 -72 139 -75 137 C-74.83 136.34 -74.83 136.34 -74 133 C-71.03 133.33 -68.06 133.66 -65 134 C-65 134.66 -65 135.32 -65 136 C-64.5 135.53 -64.01 135.05 -63.5 134.56 C-60.01 132.38 -57.09 132.34 -53 132 C-53 131.34 -53 130.68 -53 130 C-53.99 130 -54.98 130 -56 130 C-56 129.34 -56 128.68 -56 128 C-53.69 127.01 -51.38 126.02 -49 125 C-51.31 123.85 -53.47 123.47 -56 123 C-56.33 122.01 -56.66 121.02 -57 120 C-57.66 120 -58.32 120 -59 120 C-59 119.34 -59 118.68 -59 118 C-58.4 118.13 -57.79 118.26 -57.17 118.39 C-54.71 118.82 -52.5 119.12 -50 119 C-47.5 116.62 -47.5 116.62 -46 114 C-45.67 113.67 -45.34 113.34 -45 113 C-45.76 113.08 -46.53 113.16 -47.31 113.25 C-50 113 -50 113 -51.81 111 C-52.01 110.67 -52.01 110.67 -53 109 C-52 108 -52 108 -49.71 107.9 C-48.8 107.91 -47.88 107.93 -46.94 107.94 C-46.48 107.94 -46.48 107.94 -44.15 107.96 C-43.8 107.97 -43.8 107.97 -42 108 C-42.35 106.74 -42.7 105.48 -43.06 104.19 C-43.94 101.05 -44.07 100.22 -43 97 C-41.35 97.33 -39.7 97.66 -38 98 C-37.34 95.69 -36.68 93.38 -36 91 C-36.99 91 -37.98 91 -39 91 C-39 90.01 -39 89.02 -39 88 C-39.66 88 -40.32 88 -41 88 C-40.83 87.5 -40.83 87.5 -40 85 C-39.28 85.23 -38.56 85.45 -37.81 85.69 C-34.2 86.09 -32.97 84.98 -30 83 C-27.69 82.31 -27.69 82.31 -26 82 C-26 81.01 -26 80.02 -26 79 C-26.99 79 -27.98 79 -29 79 C-29.33 78.01 -29.66 77.02 -30 76 C-30.99 75.67 -31.98 75.34 -33 75 C-32.34 73.35 -31.68 71.7 -31 70 C-31.99 70 -32.98 70 -34 70 C-34 68.68 -34 67.36 -34 66 C-34.3 64.66 -34.62 63.32 -35 62 C-33.68 62.33 -32.36 62.66 -31 63 C-30.67 60.69 -30.34 58.38 -30 56 C-28.35 56 -26.7 56 -25 56 C-25 50.39 -25 44.78 -25 39 C-21 39 -21 39 -19.25 40.38 C-18 42 -18 42 -18 44 C-17.34 44 -16.68 44 -16 44 C-16 43.34 -16 42.68 -16 42 C-14.35 41.84 -14.35 41.84 -6 41 C-5.67 39.68 -5.34 38.36 -5 37 C-5.99 37 -6.98 37 -8 37 C-8 36.01 -8 35.02 -8 34 C-8.99 34 -9.98 34 -11 34 C-11 33.34 -11 32.68 -11 32 C-11.99 32 -12.98 32 -14 32 C-14 31.34 -14 30.68 -14 30 C-14.66 30 -15.32 30 -16 30 C-16 29.34 -16 28.68 -16 28 C-14.68 27.84 -14.68 27.84 -8 27 C-7.84 26.5 -7.84 26.5 -7 24 C-5.68 24 -4.36 24 -3 24 C-3.16 23.34 -3.16 23.34 -4 20 C-3.67 19.84 -3.67 19.84 -2 19 C-2.33 18.67 -2.66 18.34 -3 18 C-3.66 18 -4.32 18 -5 18 C-4.67 16.68 -4.34 15.36 -4 14 C-5.32 13.67 -6.64 13.34 -8 13 C-8 12.01 -8 11.02 -8 10 C-6.35 10 -4.7 10 -3 10 C-1.58 6.68 -0.61 3.56 0 0 Z " fill="#5F5D3D" transform="translate(444,504)"/>
  <path d="M0 0 C2.33 2.33 4.67 4.67 7 7 C7 6.01 7 5.02 7 4 C8.98 4 10.96 4 13 4 C13 4.66 13 5.32 13 6 C15.31 6.33 17.62 6.66 20 7 C19.67 8.32 19.34 9.64 19 11 C19.82 11.16 19.82 11.16 24 12 C24 11.34 24 10.68 24 10 C25.65 10 27.3 10 29 10 C27.68 10.33 26.36 10.66 25 11 C25.17 11.66 25.17 11.66 26 15 C24.35 15.33 22.7 15.66 21 16 C24.78 17.41 27.96 18.53 32 18 C32.6 17.47 33.2 16.94 33.82 16.4 C36 15 36 15 38.58 15.36 C39.46 15.68 40.34 15.99 41.25 16.31 C42.14 16.62 43.03 16.92 43.95 17.24 C44.63 17.49 45.3 17.74 46 18 C44.53 20.94 42.41 21.33 39.44 22.62 C38.43 23.07 37.41 23.52 36.37 23.98 C35.59 24.31 34.81 24.65 34 25 C34 25.99 34 26.98 34 28 C35.65 28 37.3 28 39 28 C39.33 27.34 39.66 26.68 40 26 C40.66 26 41.32 26 42 26 C40.5 29.82 38.2 31.54 35 34 C34.83 34.33 34.83 34.33 34 36 C36.31 36.33 38.62 36.66 41 37 C41.66 35.68 42.32 34.36 43 33 C44.98 33 46.96 33 49 33 C48.67 33.16 48.67 33.16 47 34 C47 35.32 47 36.64 47 38 C48.32 38 49.64 38 51 38 C51 37.34 51 36.68 51 36 C51.99 36 52.98 36 54 36 C54 35.01 54 34.02 54 33 C53.01 33 52.02 33 51 33 C51 31.02 51 29.04 51 27 C52.32 26.67 53.64 26.34 55 26 C55 26.99 55 27.98 55 29 C55.66 29 56.32 29 57 29 C57.21 27.89 57.41 26.77 57.62 25.62 C58.08 24.43 58.53 23.23 59 22 C62.06 20.75 62.06 20.75 65 20 C65.16 19.5 65.16 19.5 66 17 C67.05 17.19 68.1 17.37 69.19 17.56 C72.61 17.96 74.72 17.75 78 17 C78.66 17.33 79.32 17.66 80 18 C80.16 18.66 80.16 18.66 81 22 C84.63 22 88.26 22 92 22 C91.67 23.32 91.34 24.64 91 26 C91.99 26.99 92.98 27.98 94 29 C90.37 29.33 86.74 29.66 83 30 C83.66 30.16 83.66 30.16 87 31 C87 31.66 87 32.32 87 33 C94.43 33.14 94.43 33.14 98 32 C98 32.99 98 33.98 98 35 C98.33 34.67 98.33 34.67 100 33 C99.67 32.34 99.34 31.68 99 31 C100.6 30.8 102.21 30.62 103.81 30.44 C104.71 30.33 105.6 30.23 106.52 30.12 C109 30 109 30 112 31 C112 30.34 112 29.68 112 29 C110.68 28.67 109.36 28.34 108 28 C108 26.68 108 25.36 108 24 C109.67 23.96 111.33 23.96 113 24 C113.33 24.33 113.66 24.66 114 25 C116.85 25.56 119.7 26.08 122.56 26.56 C123.37 26.7 124.18 26.84 125.01 26.98 C127 27.33 129 27.66 131 28 C131 27.34 131 26.68 131 26 C133.31 26.66 135.62 27.32 138 28 C137.67 28.99 137.34 29.98 137 31 C137.33 31.5 137.33 31.5 139 34 C138.59 33.82 138.59 33.82 136.51 32.92 C132.14 31.78 129.14 32.35 124.81 33.31 C124.1 33.46 123.39 33.6 122.66 33.75 C119.7 34.36 116.86 35.05 114 36 C113.13 36.14 112.27 36.29 111.38 36.44 C110.59 36.62 109.81 36.81 109 37 C108.84 37.33 108.84 37.33 108 39 C104.94 39.62 104.94 39.62 102 40 C102 40.66 102 41.32 102 42 C98.62 41.46 95.3 40.89 92 40 C92 41.32 92 42.64 92 44 C91.5 44.16 91.5 44.16 89 45 C89.5 45.33 89.5 45.33 92 47 C91.67 48.32 91.34 49.64 91 51 C90.67 50.67 90.34 50.34 90 50 C88.65 49.77 87.3 49.59 85.94 49.44 C84.64 49.29 83.34 49.15 82 49 C82.16 49.66 82.16 49.66 83 53 C84.2 52.94 85.39 52.88 86.62 52.81 C90.73 52.79 93.45 53.87 97 56 C96.67 55.17 96.67 55.17 95 51 C102.91 49.57 102.91 49.57 107 51.19 C109.16 53.14 109.7 54.14 110 57 C110.66 57 111.32 57 112 57 C112 56.34 112 55.68 112 55 C112.62 54.86 113.24 54.71 113.88 54.56 C116 54 116 54 118 53 C118.33 53.83 118.33 53.83 120 58 C120.66 58 121.32 58 122 58 C122 58.66 122 59.32 122 60 C125.3 60 128.6 60 132 60 C132 60.66 132 61.32 132 62 C134.31 62 136.62 62 139 62 C139 62.66 139 63.32 139 64 C137.02 64.03 135.04 64.05 133.06 64.06 C131.96 64.07 130.86 64.09 129.72 64.1 C127 64 127 64 126 63 C122.76 62.82 120.11 63.18 117 64 C114.67 64.35 112.34 64.69 110 65 C109.67 64.34 109.34 63.68 109 63 C108.34 63.99 107.68 64.98 107 66 C106.5 65.84 106.5 65.84 104 65 C104 64.01 104 63.02 104 62 C101 63 101 63 100 65 C97.28 65.41 97.28 65.41 93.94 65.62 C93.39 65.66 93.39 65.66 90.59 65.85 C89.74 65.9 88.88 65.95 88 66 C89.26 68.51 90.5 68.87 93 70 C92.67 70.66 92.34 71.32 92 72 C90.02 72 88.04 72 86 72 C86 72.66 86 73.32 86 74 C84.33 73.17 84.33 73.17 76 69 C75.84 69.5 75.84 69.5 75 72 C74.01 72 73.02 72 72 72 C72 72.66 72 73.32 72 74 C72.32 74.12 72.32 74.12 73.94 74.75 C76 76 76 76 76.75 78.12 C76.83 78.74 76.91 79.36 77 80 C69.62 79.51 69.62 79.51 66.5 76.94 C66 76.3 65.51 75.66 65 75 C65 76.98 65 78.96 65 81 C70.75 82 70.75 82 73 82 C73 83.65 73 85.3 73 87 C72.34 87 71.68 87 71 87 C70.67 87.66 70.34 88.32 70 89 C69.46 88.85 69.46 88.85 66.75 88.06 C64.17 87.33 61.6 86.63 59 86 C59.33 83.36 59.66 80.72 60 78 C57.69 78 55.38 78 53 78 C53 78.99 53 79.98 53 81 C51.85 81.33 51.85 81.33 46 83 C46 81.68 46 80.36 46 79 C45.69 79.33 45.69 79.33 44.12 81 C39.77 83.79 36.04 83.5 31 83 C30.32 82.83 29.64 82.66 28.94 82.48 C27 82 27 82 23 82 C23.33 80.35 23.66 78.7 24 77 C23.01 77 22.02 77 21 77 C20.67 77.66 20.34 78.32 20 79 C19.67 78.01 19.34 77.02 19 76 C18.34 76 17.68 76 17 76 C17 75.01 17 74.02 17 73 C14.69 72.34 12.38 71.68 10 71 C10 71.99 10 72.98 10 74 C9.63 74.13 9.63 74.13 7.75 74.81 C5.07 75.97 3.14 77.02 1 79 C0.67 80.32 0.34 81.64 0 83 C-3.96 83.99 -7.92 84.98 -12 86 C-12 84.68 -12 83.36 -12 82 C-11.34 82 -10.68 82 -10 82 C-10 81.01 -10 80.02 -10 79 C-10.99 78.67 -11.98 78.34 -13 78 C-13 77.34 -13 76.68 -13 76 C-10.03 76 -7.06 76 -4 76 C-4 75.34 -4 74.68 -4 74 C-4.66 73.67 -5.32 73.34 -6 73 C-5.83 72.84 -5.83 72.84 -5 72 C-6.07 72.04 -7.14 72.08 -8.25 72.12 C-11.66 72.01 -13.21 71.79 -16 70 C-15.67 69.67 -15.67 69.67 -14 68 C-13.94 67.2 -13.88 66.39 -13.81 65.56 C-13 63 -13 63 -9.62 61.19 C-6 60 -6 60 -3 60 C-2.67 61.32 -2.34 62.64 -2 64 C-0.51 63.84 -0.51 63.84 7 63 C7 63.99 7 64.98 7 66 C7.85 65.61 8.69 65.22 9.56 64.81 C14.19 63.72 15.86 64.85 20 67 C19.83 65.85 19.83 65.85 19 60 C19.99 60 20.98 60 22 60 C22.33 58.35 22.66 56.7 23 55 C22.34 55 21.68 55 21 55 C19.05 57.92 18.55 59.63 18 63 C17.01 62.34 16.02 61.68 15 61 C15 59.68 15 58.36 15 57 C13.68 57 12.36 57 11 57 C10.67 57.99 10.34 58.98 10 60 C8.02 59.67 6.04 59.34 4 59 C4 58.01 4 57.02 4 56 C2.35 56.66 0.7 57.32 -1 58 C-0.67 56.68 -0.34 55.36 0 54 C-1.32 53.67 -2.64 53.34 -4 53 C-4 52.01 -4 51.02 -4 50 C-2.31 49.31 -2.31 49.31 0 49 C1.68 49.97 3.35 50.97 5 52 C6.32 52 7.64 52 9 52 C9.33 53.65 9.66 55.3 10 57 C10.14 56.05 10.29 55.1 10.44 54.12 C11 51 11 51 12 49 C11.01 49.16 11.01 49.16 6 50 C6 49.34 6 48.68 6 48 C5.01 48 4.02 48 3 48 C3 47.34 3 46.68 3 46 C2.34 46 1.68 46 1 46 C1 45.34 1 44.68 1 44 C1.99 44 2.98 44 4 44 C4 43.34 4 42.68 4 42 C5.65 42.33 7.3 42.66 9 43 C9 44.32 9 45.64 9 47 C9.66 46.34 10.32 45.68 11 45 C10.83 44.84 10.83 44.84 10 44 C9.96 42.33 9.96 40.67 10 39 C11.65 39.66 13.3 40.32 15 41 C15 41.66 15 42.32 15 43 C15.66 43 16.32 43 17 43 C17.66 43.99 18.32 44.98 19 46 C19.82 46.47 20.65 46.95 21.5 47.44 C24.16 49.1 24.91 50.13 26 53 C26.83 50.11 27 48.11 27 45 C27.99 44.67 28.98 44.34 30 44 C30.33 41.69 30.66 39.38 31 37 C29.02 36.34 27.04 35.68 25 35 C26.29 32.12 27.66 30.13 30 28 C29.83 27.5 29.83 27.5 29 25 C28.01 24.67 27.02 24.34 26 24 C25.67 25.98 25.34 27.96 25 30 C21.04 30 17.08 30 13 30 C12.67 28.68 12.34 27.36 12 26 C12.66 25.67 13.32 25.34 14 25 C12.02 24.01 10.04 23.02 8 22 C8 21.34 8 20.68 8 20 C8.66 20 9.32 20 10 20 C10.33 19.34 10.66 18.68 11 18 C12.32 18 13.64 18 15 18 C15.33 16.68 15.66 15.36 16 14 C15.67 14.33 15.34 14.66 15 15 C13 15.04 11 15.04 9 15 C9 14.34 9 13.68 9 13 C7.02 13.33 5.04 13.66 3 14 C2.98 13.26 2.96 12.51 2.94 11.75 C1.85 8.57 1.26 8.27 -1.56 6.69 C-2.7 6.13 -3.83 5.57 -5 5 C-4.67 4.34 -4.34 3.68 -4 3 C-2.68 3.33 -1.36 3.66 0 4 C0 2.68 0 1.36 0 0 Z " fill="#817B70" transform="translate(463,570)"/>
  <path d="M0 0 C3.15 0.7 6.03 1.76 9 3 C9 3.66 9 4.32 9 5 C7.35 5 5.7 5 4 5 C3.34 7.31 2.68 9.62 2 12 C2.66 11.01 3.32 10.02 4 9 C7.12 8.31 7.12 8.31 10 8 C11.62 10.69 11.62 10.69 13 14 C12.19 16.88 12.19 16.88 11 19 C11.33 18.84 11.33 18.84 13 18 C13.62 15.44 13.62 15.44 14 13 C14.66 13 15.32 13 16 13 C16.16 13.5 16.16 13.5 17 16 C18.98 16.33 20.96 16.66 23 17 C22.5 17.45 22.01 17.91 21.5 18.38 C20 20 20 20 20 22 C20.5 22.16 20.5 22.16 23 23 C23.69 25.06 23.69 25.06 24 27 C21.36 27 18.72 27 16 27 C17.51 30.01 20.03 30.61 23 32 C23 33.32 23 34.64 23 36 C21.35 36 19.7 36 18 36 C18 36.66 18 37.32 18 38 C17.01 38 16.02 38 15 38 C15 38.66 15 39.32 15 40 C15.66 40 16.32 40 17 40 C17 40.66 17 41.32 17 42 C17.99 42 18.98 42 20 42 C20 42.66 20 43.32 20 44 C21.98 43.67 23.96 43.34 26 43 C25.34 45.64 24.68 48.28 24 51 C23.34 50.67 22.68 50.34 22 50 C22.33 48.68 22.66 47.36 23 46 C22.44 46.23 21.89 46.45 21.31 46.69 C18.08 47.12 16.71 45.69 14 44 C12.68 44 11.36 44 10 44 C10.33 44.99 10.66 45.98 11 47 C11.5 47.16 11.5 47.16 14 48 C14 48.99 14 49.98 14 51 C15.32 50.67 16.64 50.34 18 50 C18 50.99 18 51.98 18 53 C19.98 53 21.96 53 24 53 C24.16 52.67 24.16 52.67 25 51 C26.32 51 27.64 51 29 51 C29.33 51.83 29.33 51.83 31 56 C31.41 54.87 31.82 53.73 32.25 52.56 C34 49 34 49 36.19 48.06 C36.79 48.04 37.38 48.02 38 48 C37.67 50.31 37.34 52.62 37 55 C36.34 54.84 36.34 54.84 33 54 C33.16 55.15 33.16 55.15 34 61 C33.4 60.84 32.79 60.69 32.17 60.53 C31.37 60.33 30.57 60.14 29.75 59.94 C29.36 59.84 29.36 59.84 27.36 59.34 C24.9 58.99 23.34 59.23 21 60 C21 59.01 21 58.02 21 57 C17.7 57.66 14.4 58.32 11 59 C11 57.35 11 55.7 11 54 C7.85 55.1 4.86 56.27 2 58 C0.44 61.25 0.44 61.25 0 64 C3.41 64.78 6.51 65.1 10 65 C10 66.67 10 68.33 10 70 C7.03 70 4.06 70 1 70 C1.99 70.99 2.98 71.98 4 73 C4 73.99 4 74.98 4 76 C3.34 76 2.68 76 2 76 C2 77.65 2 79.3 2 81 C1.34 81 0.68 81 0 81 C-1.02 79.34 -2.02 77.68 -3 76 C-3.66 75.67 -4.32 75.34 -5 75 C-5.66 77.31 -6.32 79.62 -7 82 C-8.65 81.34 -10.3 80.68 -12 80 C-11.77 80.93 -11.55 81.86 -11.31 82.81 C-11 86 -11 86 -12.06 87.81 C-14.64 89.39 -17.02 89.67 -20 90 C-20.75 88.25 -20.75 88.25 -21 86 C-19.19 83.75 -19.19 83.75 -17 82 C-16.34 82 -15.68 82 -15 82 C-15 81.34 -15 80.68 -15 80 C-15.89 80.47 -16.77 80.95 -17.69 81.44 C-23.65 84.25 -26.7 84.1 -33 82 C-32.67 81.4 -32.34 80.8 -32 80.19 C-31 78 -31 78 -31 75 C-31.82 75.16 -31.82 75.16 -36 76 C-36 75.34 -36 74.68 -36 74 C-37.32 74 -38.64 74 -40 74 C-40 75.65 -40 77.3 -40 79 C-49.02 82.26 -49.02 82.26 -53.12 81.19 C-53.43 80.99 -53.43 80.99 -55 80 C-53.69 77.5 -53.69 77.5 -52 75 C-51.01 75 -50.02 75 -49 75 C-49 75.66 -49 76.32 -49 77 C-48.01 77 -47.02 77 -46 77 C-46 76.34 -46 75.68 -46 75 C-45.34 75 -44.68 75 -44 75 C-44 74.01 -44 73.02 -44 72 C-44.63 72.1 -45.25 72.19 -45.9 72.29 C-46.72 72.4 -47.53 72.51 -48.38 72.62 C-49.19 72.74 -50 72.86 -50.84 72.98 C-51.55 72.98 -52.26 72.99 -53 73 C-53.66 72.34 -54.32 71.68 -55 71 C-55.66 71.33 -55.66 71.33 -59 73 C-59.66 71.35 -60.32 69.7 -61 68 C-61.41 68.5 -61.82 68.99 -62.25 69.5 C-64 71 -64 71 -68 71 C-68.33 69.68 -68.66 68.36 -69 67 C-69.33 67.16 -69.33 67.16 -71 68 C-71 67.34 -71 66.68 -71 66 C-71.46 66.1 -71.46 66.1 -73.81 66.62 C-77 67 -77 67 -80 65 C-79.67 63.68 -79.34 62.36 -79 61 C-76.03 61.33 -73.06 61.66 -70 62 C-70 62.66 -70 63.32 -70 64 C-69.5 63.53 -69.01 63.05 -68.5 62.56 C-65.95 60.97 -64.84 60.75 -61.94 60.5 C-57.97 60 -57.37 59.87 -55 57 C-54.01 57 -53.02 57 -52 57 C-52 58.98 -52 60.96 -52 63 C-50.35 61.68 -48.7 60.36 -47 59 C-42.12 60.88 -42.12 60.88 -41 62 C-39 56.25 -39 56.25 -39 54 C-38.18 53.84 -38.18 53.84 -34 53 C-33.69 51.72 -33.38 50.44 -33.06 49.12 C-32.52 46.9 -32.03 45.05 -31 43 C-32.65 43 -34.3 43 -36 43 C-35.83 43.66 -35.83 43.66 -35 47 C-36.65 46.67 -38.3 46.34 -40 46 C-39.67 44.35 -39.34 42.7 -39 41 C-40.32 40.34 -41.64 39.68 -43 39 C-43 38.34 -43 37.68 -43 37 C-43.99 36.67 -44.98 36.34 -46 36 C-45.01 35.34 -44.02 34.68 -43 34 C-43 34.66 -43 35.32 -43 36 C-42.18 35.84 -42.18 35.84 -38 35 C-38.17 33.85 -38.17 33.85 -39 28 C-38.01 28 -37.02 28 -36 28 C-36 28.66 -36 29.32 -36 30 C-34.11 28.35 -33.1 27.42 -32.5 24.94 C-32 23 -32 23 -29 21 C-26.68 20.64 -24.4 20.5 -22.06 20.34 C-20 20 -20 20 -18 18 C-19.98 17.34 -21.96 16.68 -24 16 C-23.51 11.6 -22.17 9.98 -19 7 C-17.75 4.75 -17.75 4.75 -17 3 C-16.67 3 -16.34 3 -16 3 C-15.88 9.75 -15.88 9.75 -17 12 C-16.24 12 -15.47 12 -14.69 12 C-12.79 12 -10.9 12 -9 12 C-8.34 11.67 -7.68 11.34 -7 11 C-6.67 10.01 -6.34 9.02 -6 8 C-5.34 7.69 -4.68 7.38 -4 7.06 C-2 6 -2 6 -1.31 4 C-1.21 3.34 -1.11 2.68 -1 2 C-0.67 1.34 -0.34 0.68 0 0 Z " fill="#474C3B" transform="translate(449,576)"/>
  <path d="M0 0 C0.99 0 1.98 0 3 0 C3.41 0.64 3.82 1.28 4.25 1.94 C6 4 6 4 9.69 4.75 C10.78 4.83 11.87 4.91 13 5 C13 5.66 13 6.32 13 7 C11.68 7.33 10.36 7.66 9 8 C9.31 8.28 9.31 8.28 10.88 9.69 C13 12 13 12 14 14.62 C15 17 15 17 17.12 18.31 C17.74 18.54 18.36 18.77 19 19 C20.32 16.69 21.64 14.38 23 12 C23.66 12 24.32 12 25 12 C25.33 9.69 25.66 7.38 26 5 C26.58 5.31 27.15 5.62 27.75 5.94 C29.84 6.93 31.75 7.52 34 8 C34.33 7.01 34.66 6.02 35 5 C36.74 4.02 36.74 4.02 38.88 3.25 C39.57 2.99 40.27 2.72 40.99 2.45 C43 2 43 2 46 3 C46 3.99 46 4.98 46 6 C47.32 5.67 48.64 5.34 50 5 C50 5.99 50 6.98 50 8 C51.98 8 53.96 8 56 8 C56.33 7.34 56.66 6.68 57 6 C58.32 6 59.64 6 61 6 C61.33 6.83 61.33 6.83 63 11 C63.41 9.87 63.82 8.73 64.25 7.56 C66 4 66 4 68.19 3.06 C68.79 3.04 69.38 3.02 70 3 C69.67 5.31 69.34 7.62 69 10 C67.68 9.67 66.36 9.34 65 9 C65.16 10.15 65.16 10.15 66 16 C65.4 15.84 64.79 15.69 64.17 15.53 C63.37 15.33 62.57 15.14 61.75 14.94 C61.36 14.84 61.36 14.84 59.36 14.34 C56.9 13.99 55.34 14.23 53 15 C53 14.01 53 13.02 53 12 C49.7 12.66 46.4 13.32 43 14 C43 12.35 43 10.7 43 9 C39.85 10.1 36.86 11.27 34 13 C32.44 16.25 32.44 16.25 32 19 C35.41 19.78 38.51 20.1 42 20 C42 21.67 42 23.33 42 25 C39.03 25 36.06 25 33 25 C33.99 25.99 34.98 26.98 36 28 C36 28.99 36 29.98 36 31 C35.34 31 34.68 31 34 31 C34 32.65 34 34.3 34 36 C33.34 36 32.68 36 32 36 C30.98 34.34 29.98 32.68 29 31 C28.34 30.67 27.68 30.34 27 30 C26.34 32.31 25.68 34.62 25 37 C23.35 36.34 21.7 35.68 20 35 C20.23 35.93 20.45 36.86 20.69 37.81 C21 41 21 41 19.94 42.81 C17.36 44.39 14.98 44.67 12 45 C11.25 43.25 11.25 43.25 11 41 C12.81 38.75 12.81 38.75 15 37 C15.66 37 16.32 37 17 37 C17 36.34 17 35.68 17 35 C16.11 35.47 15.23 35.95 14.31 36.44 C8.35 39.25 5.3 39.1 -1 37 C-0.67 36.4 -0.34 35.8 0 35.19 C1 33 1 33 1 30 C-0.65 30.33 -2.3 30.66 -4 31 C-4 30.34 -4 29.68 -4 29 C-5.32 29 -6.64 29 -8 29 C-8 30.65 -8 32.3 -8 34 C-17.02 37.26 -17.02 37.26 -21.12 36.19 C-21.43 35.99 -21.43 35.99 -23 35 C-21.69 32.5 -21.69 32.5 -20 30 C-19.01 30 -18.02 30 -17 30 C-17 30.66 -17 31.32 -17 32 C-16.01 32 -15.02 32 -14 32 C-14 31.34 -14 30.68 -14 30 C-13.34 30 -12.68 30 -12 30 C-12 29.01 -12 28.02 -12 27 C-12.63 27.1 -13.25 27.19 -13.9 27.29 C-14.72 27.4 -15.53 27.51 -16.38 27.62 C-16.78 27.68 -16.78 27.68 -18.84 27.98 C-19.55 27.98 -20.26 27.99 -21 28 C-21.66 27.34 -22.32 26.68 -23 26 C-23.66 26.33 -23.66 26.33 -27 28 C-27.66 26.35 -28.32 24.7 -29 23 C-29.21 23.25 -29.21 23.25 -30.25 24.5 C-32 26 -32 26 -36 26 C-36.33 24.68 -36.66 23.36 -37 22 C-37.66 22.33 -38.32 22.66 -39 23 C-39 22.34 -39 21.68 -39 21 C-39.93 21.21 -40.86 21.41 -41.81 21.62 C-45 22 -45 22 -48 20 C-47.67 18.68 -47.34 17.36 -47 16 C-44.03 16.33 -41.06 16.66 -38 17 C-38 17.66 -38 18.32 -38 19 C-37.5 18.53 -37.01 18.05 -36.5 17.56 C-33.95 15.97 -32.84 15.75 -29.94 15.5 C-25.97 15 -25.37 14.87 -23 12 C-22.01 12 -21.02 12 -20 12 C-20 13.98 -20 15.96 -20 18 C-18.35 16.68 -16.7 15.36 -15 14 C-10.12 15.88 -10.12 15.88 -9 17 C-7 11.25 -7 11.25 -7 9 C-5.35 8.67 -3.7 8.34 -2 8 C-1.34 5.36 -0.68 2.72 0 0 Z " fill="#595A42" transform="translate(417,621)"/>
  <path d="M0 0 C3.88 0.88 3.88 0.88 5 2 C6.52 2.07 8.04 2.08 9.56 2.06 C10.39 2.05 11.22 2.04 12.07 2.04 C12.39 2.03 12.39 2.03 14 2 C14 3.65 14 5.3 14 7 C12.95 7.29 11.9 7.58 10.81 7.88 C7 9 7 9 4.25 10.19 C2 11 2 11 -1 10 C-1.33 10.66 -1.66 11.32 -2 12 C-1.34 12 -0.68 12 0 12 C0 12.99 0 13.98 0 15 C0.99 15 1.98 15 3 15 C3.37 20.54 3.37 20.54 1.5 22.88 C1 23.25 0.51 23.62 0 24 C0 23.01 0 22.02 0 21 C-1.32 21 -2.64 21 -4 21 C-3.83 22.82 -3.83 22.82 -3 32 C-4.65 32.16 -4.65 32.16 -13 33 C-12.34 34.32 -11.68 35.64 -11 37 C-5.25 35.12 -5.25 35.12 -3 34 C-4.56 37.83 -6.95 40.25 -10 43 C-13.94 44.31 -16.12 43.24 -20 42 C-20 42.66 -20 43.32 -20 44 C-19.34 44 -18.68 44 -18 44 C-17.34 44.99 -16.68 45.98 -16 47 C-12.88 47.19 -12.88 47.19 -10 47 C-10 47.99 -10 48.98 -10 50 C-12.65 51.46 -13.89 52 -17 52 C-17 52.66 -17 53.32 -17 54 C-16.01 54 -15.02 54 -14 54 C-14 54.66 -14 55.32 -14 56 C-18 57.33 -22 58.67 -26 60 C-26 59.34 -26 58.68 -26 58 C-28.31 58 -30.62 58 -33 58 C-33.33 56.68 -33.66 55.36 -34 54 C-40.27 52.68 -46.54 51.36 -53 50 C-52.34 49.34 -51.68 48.68 -51 48 C-51.38 45.38 -51.38 45.38 -52 43 C-49.33 41.67 -46.67 40.33 -44 39 C-44 39.99 -44 40.98 -44 42 C-42.68 42 -41.36 42 -40 42 C-39.67 41.01 -39.34 40.02 -39 39 C-37.25 38.97 -35.5 38.95 -33.75 38.94 C-32.78 38.93 -31.8 38.91 -30.8 38.9 C-28 39 -28 39 -24 40 C-24.66 36.7 -25.32 33.4 -26 30 C-21.05 30 -16.1 30 -11 30 C-14 25 -14 25 -16.19 24.19 C-16.49 24.16 -16.49 24.16 -18 24 C-18 23.34 -18 22.68 -18 22 C-16.68 21.84 -16.68 21.84 -10 21 C-10.21 20.4 -10.41 19.8 -10.62 19.19 C-11 17 -11 17 -9 14 C-11.31 14 -13.62 14 -16 14 C-16.66 12.35 -17.32 10.7 -18 9 C-16.68 9 -15.36 9 -14 9 C-13.83 9.33 -13.83 9.33 -13 11 C-11.68 11.33 -10.36 11.66 -9 12 C-9.99 9.03 -10.98 6.06 -12 3 C-11.63 3.15 -11.63 3.15 -9.75 3.94 C-7.49 4.81 -5.35 5.48 -3 6 C-2.01 4.02 -1.02 2.04 0 0 Z " fill="#979B75" transform="translate(405,580)"/>
  <path d="M0 0 C1.62 2.69 1.62 2.69 3 6 C2.19 8.88 2.19 8.88 1 11 C1.66 10.67 2.32 10.34 3 10 C3.62 7.44 3.62 7.44 4 5 C4.66 5 5.32 5 6 5 C6.17 5.5 6.17 5.5 7 8 C8.98 8.33 10.96 8.66 13 9 C12.5 9.45 12.01 9.91 11.5 10.38 C10 12 10 12 10 14 C10.99 14.33 11.98 14.66 13 15 C13.69 17.06 13.69 17.06 14 19 C11.36 19 8.72 19 6 19 C7.51 22.01 10.03 22.61 13 24 C13 25.32 13 26.64 13 28 C11.35 28 9.7 28 8 28 C8 28.66 8 29.32 8 30 C7.01 30 6.02 30 5 30 C5 30.66 5 31.32 5 32 C5.66 32 6.32 32 7 32 C7 32.66 7 33.32 7 34 C7.99 34 8.98 34 10 34 C10 34.66 10 35.32 10 36 C10.99 35.84 10.99 35.84 16 35 C15.34 37.64 14.68 40.28 14 43 C13.67 42.84 13.67 42.84 12 42 C12.33 40.68 12.66 39.36 13 38 C12.44 38.23 11.89 38.45 11.31 38.69 C8.08 39.12 6.71 37.69 4 36 C2.68 36 1.36 36 0 36 C-0.17 36.33 -0.17 36.33 -1 38 C-4.3 38 -7.6 38 -11 38 C-11.66 39.32 -12.32 40.64 -13 42 C-13.68 40.99 -14.36 39.98 -15.06 38.94 C-16.43 37.27 -16.43 37.27 -18 36 C-21.49 36.06 -23.89 36.44 -27 38 C-26.69 37.4 -26.38 36.8 -26.06 36.19 C-25 34 -25 34 -24 31 C-28.88 33.75 -28.88 33.75 -30 36 C-30.66 35.67 -31.32 35.34 -32 35 C-31.92 34.69 -31.92 34.69 -31.5 33.12 C-31 31 -31 31 -31 29 C-32.5 27.38 -32.5 27.38 -34 26 C-33.23 25.77 -32.46 25.54 -31.66 25.3 C-31.16 25.14 -31.16 25.14 -28.62 24.31 C-27.63 24 -26.63 23.69 -25.6 23.36 C-23 22 -23 22 -21.65 19.36 C-21.43 18.58 -21.22 17.8 -21 17 C-21.66 16.67 -22.32 16.34 -23 16 C-22.67 15.34 -22.34 14.68 -22 14 C-20.68 14.66 -19.36 15.32 -18 16 C-15.35 13.42 -13.06 11.08 -11 8 C-10.67 8.5 -10.67 8.5 -9 11 C-6.7 7.56 -6.46 5.06 -6 1 C-3.92 0.45 -2.16 0 0 0 Z " fill="#4C4F3B" transform="translate(459,584)"/>
  <path d="M0 0 C1.65 0.66 3.3 1.32 5 2 C5 2.66 5 3.32 5 4 C5.66 4 6.32 4 7 4 C7.66 4.99 8.32 5.98 9 7 C9.82 7.47 10.65 7.95 11.5 8.44 C14.16 10.1 14.91 11.13 16 14 C16.99 13.67 17.98 13.34 19 13 C19.66 14.32 20.32 15.64 21 17 C20.36 17.25 19.72 17.5 19.06 17.75 C17 19 17 19 16.25 21.12 C16.17 21.74 16.08 22.36 16 23 C16.82 23.33 16.82 23.33 21 25 C20.68 25.22 20.68 25.22 19.06 26.31 C17 28 17 28 16 31 C19.96 31 23.92 31 28 31 C28 32.98 28 34.96 28 37 C26.35 36.01 24.7 35.02 23 34 C23.23 34.91 23.45 35.82 23.69 36.75 C24 40 24 40 22.56 42.38 C22.05 42.91 21.53 43.45 21 44 C20.42 43.84 19.85 43.67 19.25 43.5 C17 43 17 43 13 43 C13.33 41.35 13.66 39.7 14 38 C13.01 38 12.02 38 11 38 C10.83 38.33 10.83 38.33 10 40 C9.67 39.01 9.34 38.02 9 37 C8.34 37 7.68 37 7 37 C7 36.01 7 35.02 7 34 C4.69 33.34 2.38 32.68 0 32 C0 32.99 0 33.98 0 35 C-0.74 35.27 -1.49 35.54 -2.25 35.81 C-4.93 36.97 -6.86 38.02 -9 40 C-9.33 41.32 -9.66 42.64 -10 44 C-13.96 44.99 -17.92 45.98 -22 47 C-22 45.68 -22 44.36 -22 43 C-21.34 43 -20.68 43 -20 43 C-20 42.01 -20 41.02 -20 40 C-20.99 39.67 -21.98 39.34 -23 39 C-23 38.34 -23 37.68 -23 37 C-20.03 37 -17.06 37 -14 37 C-14 36.34 -14 35.68 -14 35 C-14.66 34.67 -15.32 34.34 -16 34 C-15.83 33.84 -15.83 33.84 -15 33 C-16.07 33.04 -17.14 33.08 -18.25 33.12 C-21.66 33.01 -23.21 32.79 -26 31 C-25.34 30.34 -24.68 29.68 -24 29 C-23.97 28.6 -23.97 28.6 -23.81 26.56 C-23 24 -23 24 -19.62 22.19 C-16 21 -16 21 -13 21 C-12.67 22.32 -12.34 23.64 -12 25 C-9.03 24.67 -6.06 24.34 -3 24 C-3 24.99 -3 25.98 -3 27 C-2.58 26.8 -2.58 26.8 -0.44 25.81 C4.19 24.72 5.86 25.85 10 28 C9.83 26.85 9.83 26.85 9 21 C9.99 21 10.98 21 12 21 C12.33 19.35 12.66 17.7 13 16 C12.34 16 11.68 16 11 16 C9.05 18.92 8.55 20.63 8 24 C7.01 23.34 6.02 22.68 5 22 C5 20.68 5 19.36 5 18 C3.68 18 2.36 18 1 18 C0.67 18.99 0.34 19.98 0 21 C-1.98 20.67 -3.96 20.34 -6 20 C-6 19.01 -6 18.02 -6 17 C-7.65 17.66 -9.3 18.32 -11 19 C-10.67 17.68 -10.34 16.36 -10 15 C-11.32 14.67 -12.64 14.34 -14 14 C-14 13.01 -14 12.02 -14 11 C-12.31 10.31 -12.31 10.31 -10 10 C-8.32 10.97 -6.65 11.97 -5 13 C-3.68 13 -2.36 13 -1 13 C-0.67 14.65 -0.34 16.3 0 18 C0.07 17.53 0.07 17.53 0.44 15.12 C1 12 1 12 2 10 C0.02 10.33 -1.96 10.66 -4 11 C-4 10.34 -4 9.68 -4 9 C-4.99 9 -5.98 9 -7 9 C-7 8.34 -7 7.68 -7 7 C-7.66 7 -8.32 7 -9 7 C-9 6.34 -9 5.68 -9 5 C-8.01 5 -7.02 5 -6 5 C-6 4.34 -6 3.68 -6 3 C-5.18 3.16 -5.18 3.16 -1 4 C-1 5.32 -1 6.64 -1 8 C-0.34 7.34 0.32 6.68 1 6 C0.67 5.67 0.34 5.34 0 5 C-0.04 3.33 -0.04 1.67 0 0 Z " fill="#8C8148" transform="translate(473,609)"/>
  <path d="M0 0 C-0.66 1.32 -1.32 2.64 -2 4 C-0.02 4.66 1.96 5.32 4 6 C4 5.34 4 4.68 4 4 C5.49 4.33 5.49 4.33 13 6 C12.34 7.65 11.68 9.3 11 11 C10.83 10.67 10.83 10.67 10 9 C-0.04 10.79 -0.04 10.79 -2.4 13.76 C-3.19 15.69 -3.19 15.69 -4 19 C-4.66 19 -5.32 19 -6 19 C-6 18.34 -6 17.68 -6 17 C-6.99 17 -7.98 17 -9 17 C-8.67 19.31 -8.34 21.62 -8 24 C-12.75 25 -12.75 25 -15 25 C-14.34 25.33 -13.68 25.66 -13 26 C-13 26.66 -13 27.32 -13 28 C-11.35 28.33 -9.7 28.66 -8 29 C-8.33 30.98 -8.66 32.96 -9 35 C-7.68 35.33 -6.36 35.66 -5 36 C-5.33 34.68 -5.66 33.36 -6 32 C-4.35 32 -2.7 32 -1 32 C-1.31 33.65 -1.62 35.29 -1.94 36.94 C-2.11 37.85 -2.29 38.77 -2.46 39.71 C-3 42 -3 42 -4 43 C-5.67 43.04 -7.33 43.04 -9 43 C-8.77 43.56 -8.55 44.11 -8.31 44.69 C-7.88 47.92 -9.19 49.39 -11 52 C-11.33 51.34 -11.66 50.68 -12 50 C-14.31 49.12 -14.31 49.12 -17 49 C-19.31 50.94 -19.31 50.94 -21 53 C-21.66 52.67 -22.32 52.34 -23 52 C-22.83 51.01 -22.83 51.01 -22 46 C-22.82 46.16 -22.82 46.16 -27 47 C-27.33 47.99 -27.66 48.98 -28 50 C-28 49.01 -28 48.02 -28 47 C-28.99 47 -29.98 47 -31 47 C-31 46.34 -31 45.68 -31 45 C-28.69 44.01 -26.38 43.02 -24 42 C-26.31 40.85 -28.47 40.47 -31 40 C-31.17 39.5 -31.17 39.5 -32 37 C-32.66 37 -33.32 37 -34 37 C-34 36.34 -34 35.68 -34 35 C-33.4 35.13 -32.79 35.26 -32.17 35.39 C-29.71 35.82 -27.5 36.12 -25 36 C-22.5 33.62 -22.5 33.62 -21 31 C-20.67 30.67 -20.34 30.34 -20 30 C-20.76 30.08 -21.53 30.16 -22.31 30.25 C-25 30 -25 30 -26.81 28 C-27.01 27.67 -27.01 27.67 -28 26 C-27 25 -27 25 -24.71 24.9 C-24.26 24.91 -24.26 24.91 -21.94 24.94 C-21.02 24.95 -20.1 24.96 -19.15 24.96 C-18.44 24.98 -17.73 24.99 -17 25 C-17.35 23.74 -17.7 22.48 -18.06 21.19 C-18.94 18.05 -19.07 17.22 -18 14 C-17.18 14.16 -17.18 14.16 -13 15 C-12.34 12.69 -11.68 10.38 -11 8 C-11.99 8 -12.98 8 -14 8 C-14 7.01 -14 6.02 -14 5 C-14.66 5 -15.32 5 -16 5 C-15.67 4.01 -15.34 3.02 -15 2 C-14.64 2.11 -14.64 2.11 -12.81 2.69 C-7.97 3.23 -5.2 -0.45 0 0 Z " fill="#7F7540" transform="translate(419,587)"/>
  <path d="M0 0 C0.66 0 1.32 0 2 0 C1.83 0.64 1.67 1.28 1.5 1.94 C1 4 1 4 1 5 C2.05 4.71 3.1 4.42 4.19 4.12 C8 4 8 4 9.58 5.27 C10.94 6.94 10.94 6.94 13 10 C13.66 8.68 14.32 7.36 15 6 C18.3 6 21.6 6 25 6 C25.17 6.5 25.17 6.5 26 9 C23.35 10.46 22.11 11 19 11 C18.67 12.32 18.34 13.64 18 15 C14.64 14.4 12.62 13.15 10 11 C9.88 12.11 9.75 13.23 9.62 14.38 C9 18 9 18 7 20 C6.5 20.83 6.01 21.65 5.5 22.5 C4 25 4 25 2 27 C-1.74 23.78 -3.12 20.5 -5 16 C-6.69 14.06 -6.69 14.06 -8 13 C-6.35 13 -4.7 13 -3 13 C-3 12.34 -3 11.68 -3 11 C-4.09 11.06 -5.19 11.12 -6.31 11.19 C-10 11 -10 11 -11.94 9.62 C-13 8 -13 8 -13 6 C-12.39 5.97 -12.39 5.97 -9.31 5.81 C-4.81 5.29 -2.97 3.41 0 0 Z " fill="#3C4336" transform="translate(433,615)"/>
  <path d="M0 0 C-0.66 1.32 -1.32 2.64 -2 4 C-0.02 4.66 1.96 5.32 4 6 C4 5.34 4 4.68 4 4 C5.49 4.33 5.49 4.33 13 6 C12.34 7.65 11.68 9.3 11 11 C10.83 10.67 10.83 10.67 10 9 C-0.04 10.79 -0.04 10.79 -2.4 13.76 C-3.19 15.69 -3.19 15.69 -4 19 C-4.66 19 -5.32 19 -6 19 C-6 18.34 -6 17.68 -6 17 C-6.99 17 -7.98 17 -9 17 C-8.67 19.31 -8.34 21.62 -8 24 C-12.75 25 -12.75 25 -15 25 C-15.38 25.41 -15.38 25.41 -17.31 27.5 C-20 30 -20 30 -22.62 30.56 C-25 30 -25 30 -26.81 28 C-27.2 27.34 -27.6 26.68 -28 26 C-27 25 -27 25 -24.71 24.9 C-24.26 24.91 -24.26 24.91 -21.94 24.94 C-21.02 24.95 -20.1 24.96 -19.15 24.96 C-18.44 24.98 -17.73 24.99 -17 25 C-17.35 23.74 -17.7 22.48 -18.06 21.19 C-18.94 18.05 -19.07 17.22 -18 14 C-16.35 14.33 -14.7 14.66 -13 15 C-12.34 12.69 -11.68 10.38 -11 8 C-11.99 8 -12.98 8 -14 8 C-14 7.01 -14 6.02 -14 5 C-14.66 5 -15.32 5 -16 5 C-15.67 4.01 -15.34 3.02 -15 2 C-14.64 2.11 -14.64 2.11 -12.81 2.69 C-7.97 3.23 -5.2 -0.45 0 0 Z " fill="#716F4C" transform="translate(419,587)"/>
  <path d="M0 0 C-0.33 0.93 -0.66 1.86 -1 2.81 C-2 6 -2 6 -2 9 C-1.34 9.66 -0.68 10.32 0 11 C-0.33 11.6 -0.66 12.2 -1 12.81 C-2 15 -2 15 -2 18 C-3.65 18.16 -3.65 18.16 -12 19 C-12 18.01 -12 17.02 -12 16 C-13.65 16 -15.3 16 -17 16 C-16.67 17.32 -16.34 18.64 -16 20 C-17.65 19.67 -19.3 19.34 -21 19 C-20.67 17.35 -20.34 15.7 -20 14 C-21.32 13.34 -22.64 12.68 -24 12 C-24 11.34 -24 10.68 -24 10 C-24.99 9.67 -25.98 9.34 -27 9 C-26.01 8.34 -25.02 7.68 -24 7 C-24 7.66 -24 8.32 -24 9 C-22.35 8.67 -20.7 8.34 -19 8 C-19.33 5.69 -19.66 3.38 -20 1 C-19.01 1 -18.02 1 -17 1 C-17 1.66 -17 2.32 -17 3 C-15.72 2.69 -14.44 2.38 -13.12 2.06 C-12.41 1.89 -11.69 1.71 -10.95 1.54 C-7 0.45 -4.25 -0.08 0 0 Z " fill="#4B5039" transform="translate(430,603)"/>
  <path d="M0 0 C0.82 0.33 0.82 0.33 5 2 C5 2.66 5 3.32 5 4 C5.66 4 6.32 4 7 4 C7.33 4.5 7.33 4.5 9 7 C9.85 7.45 10.69 7.91 11.56 8.38 C14 10 14 10 14.81 12.69 C14.87 13.45 14.94 14.21 15 15 C14.38 15.1 13.76 15.21 13.12 15.31 C11 16 11 16 9 19 C8.62 20.66 8.27 22.32 8 24 C7.01 23.34 6.02 22.68 5 22 C5 20.68 5 19.36 5 18 C3.68 18 2.36 18 1 18 C0.67 18.99 0.34 19.98 0 21 C-1.98 20.67 -3.96 20.34 -6 20 C-6 19.01 -6 18.02 -6 17 C-7.65 17.66 -9.3 18.32 -11 19 C-10.67 17.68 -10.34 16.36 -10 15 C-11.32 14.67 -12.64 14.34 -14 14 C-14 13.01 -14 12.02 -14 11 C-12.31 10.31 -12.31 10.31 -10 10 C-8.32 10.97 -6.65 11.97 -5 13 C-3.68 13 -2.36 13 -1 13 C-0.67 14.65 -0.34 16.3 0 18 C0.07 17.53 0.07 17.53 0.44 15.12 C1 12 1 12 2 10 C0.02 10.33 -1.96 10.66 -4 11 C-4 10.34 -4 9.68 -4 9 C-4.99 9 -5.98 9 -7 9 C-7 8.34 -7 7.68 -7 7 C-7.66 7 -8.32 7 -9 7 C-9 6.34 -9 5.68 -9 5 C-8.01 5 -7.02 5 -6 5 C-6 4.34 -6 3.68 -6 3 C-4.35 3.33 -2.7 3.66 -1 4 C-1 5.32 -1 6.64 -1 8 C-0.34 7.34 0.32 6.68 1 6 C0.67 5.67 0.34 5.34 0 5 C-0.04 3.33 -0.04 1.67 0 0 Z " fill="#7F95A3" transform="translate(473,609)"/>
  <path d="M0 0 C0 0.99 0 1.98 0 3 C1.32 2.67 2.64 2.34 4 2 C4 2.99 4 3.98 4 5 C5.98 5 7.96 5 10 5 C10.33 4.34 10.66 3.68 11 3 C12.32 3 13.64 3 15 3 C15.66 4.65 16.32 6.3 17 8 C17.21 7.43 17.21 7.43 18.25 4.56 C20 1 20 1 22.19 0.06 C22.49 0.05 22.49 0.05 24 0 C23.67 2.31 23.34 4.62 23 7 C21.68 6.67 20.36 6.34 19 6 C19.17 7.15 19.17 7.15 20 13 C19.4 12.84 18.79 12.69 18.17 12.53 C17.37 12.33 16.57 12.14 15.75 11.94 C15.36 11.84 15.36 11.84 13.36 11.34 C10.9 10.99 9.34 11.23 7 12 C7 11.01 7 10.02 7 9 C3.7 9.66 0.4 10.32 -3 11 C-3 9.35 -3 7.7 -3 6 C-4.48 6.62 -5.96 7.24 -7.44 7.88 C-8.26 8.22 -9.08 8.57 -9.93 8.93 C-12 10 -12 10 -13 12 C-14.32 11.67 -15.64 11.34 -17 11 C-17 10.34 -17 9.68 -17 9 C-17.66 9 -18.32 9 -19 9 C-19.33 10.32 -19.66 11.64 -20 13 C-21.32 12.34 -22.64 11.68 -24 11 C-23.67 10.34 -23.34 9.68 -23 9 C-22.34 9 -21.68 9 -21 9 C-20.67 6.69 -20.34 4.38 -20 2 C-19.42 2.31 -18.85 2.62 -18.25 2.94 C-16.16 3.93 -14.25 4.52 -12 5 C-11.67 4.01 -11.34 3.02 -11 2 C-3.94 -1.73 -3.94 -1.73 0 0 Z " fill="#5F644F" transform="translate(463,624)"/>
  <path d="M0 0 C0.76 0.33 1.53 0.66 2.31 1 C5 2 5 2 8 2 C7.01 4.97 6.02 7.94 5 11 C6.32 11.66 7.64 12.32 9 13 C8.67 14.32 8.34 15.64 8 17 C12.75 19.88 12.75 19.88 15 21 C15 21.66 15 22.32 15 23 C14.01 23.33 13.02 23.66 12 24 C10.81 26.06 10.81 26.06 10 28 C9.66 27.49 9.66 27.49 7.94 24.94 C6.57 23.27 6.57 23.27 5 22 C1.51 22.06 -0.89 22.44 -4 24 C-3.69 23.4 -3.38 22.8 -3.06 22.19 C-2 20 -2 20 -1 17 C-5.88 19.75 -5.88 19.75 -7 22 C-7.66 21.67 -8.32 21.34 -9 21 C-8.83 20.38 -8.67 19.76 -8.5 19.12 C-8 17 -8 17 -8 15 C-9.5 13.38 -9.5 13.38 -11 12 C-10.23 11.77 -9.46 11.54 -8.66 11.3 C-7.66 10.97 -6.66 10.65 -5.62 10.31 C-4.63 10 -3.63 9.69 -2.6 9.36 C0 8 0 8 1.35 5.36 C1.57 4.58 1.78 3.8 2 3 C1.34 2.67 0.68 2.34 0 2 C0 1.34 0 0.68 0 0 Z " fill="#82763D" transform="translate(436,598)"/>
  <path d="M0 0 C3 1 3 1 4.06 3 C4.37 3.66 4.68 4.32 5 5 C5.66 5.33 6.32 5.66 7 6 C7.33 6.99 7.66 7.98 8 9 C9.98 8.67 11.96 8.34 14 8 C14.33 10.31 14.66 12.62 15 15 C14.34 15 13.68 15 13 15 C12.67 13.35 12.34 11.7 12 10 C11.75 10.76 11.5 11.53 11.25 12.31 C9.87 15.28 8.61 16.15 6 18 C5.67 18.99 5.34 19.98 5 21 C4.34 21 3.68 21 3 21 C3 21.66 3 22.32 3 23 C1.02 22.67 -0.96 22.34 -3 22 C-3 20.68 -3 19.36 -3 18 C-2.34 18 -1.68 18 -1 18 C-1.33 16.35 -1.66 14.7 -2 13 C-2.99 13 -3.98 13 -5 13 C-5.33 12.01 -5.66 11.02 -6 10 C-6.99 9.67 -7.98 9.34 -9 9 C-8.34 7.35 -7.68 5.7 -7 4 C-7.99 3.67 -8.98 3.34 -10 3 C-9.01 3 -8.02 3 -7 3 C-6.67 2.34 -6.34 1.68 -6 1 C-6 1.66 -6 2.32 -6 3 C-3 2 -3 2 0 0 Z " fill="#5B604D" transform="translate(420,570)"/>
  <path d="M0 0 C3.88 0.88 3.88 0.88 5 2 C6.52 2.07 8.04 2.08 9.56 2.06 C10.39 2.05 11.22 2.04 12.07 2.04 C12.39 2.03 12.39 2.03 14 2 C14 3.65 14 5.3 14 7 C12.95 7.29 11.9 7.58 10.81 7.88 C7 9 7 9 4.25 10.19 C2 11 2 11 -1 10 C-1.33 10.66 -1.66 11.32 -2 12 C-1.34 12 -0.68 12 0 12 C1.12 17.75 1.12 17.75 0 20 C-1.98 20 -3.96 20 -6 20 C-6.33 19.01 -6.66 18.02 -7 17 C-7.66 17 -8.32 17 -9 17 C-9.33 17.66 -9.66 18.32 -10 19 C-9.67 17.35 -9.34 15.7 -9 14 C-11.31 14 -13.62 14 -16 14 C-16.66 12.35 -17.32 10.7 -18 9 C-16.68 9 -15.36 9 -14 9 C-13.67 9.66 -13.34 10.32 -13 11 C-11.68 11.33 -10.36 11.66 -9 12 C-9.99 9.03 -10.98 6.06 -12 3 C-11.26 3.31 -10.51 3.62 -9.75 3.94 C-7.49 4.81 -5.35 5.48 -3 6 C-2.01 4.02 -1.02 2.04 0 0 Z " fill="#A9A576" transform="translate(405,580)"/>
  <path d="M0 0 C0.66 0 1.32 0 2 0 C2 0.66 2 1.32 2 2 C3.32 2 4.64 2 6 2 C5.67 3.65 5.34 5.3 5 7 C8.41 7.78 11.51 8.1 15 8 C15 9.67 15 11.33 15 13 C12.03 13 9.06 13 6 13 C6.99 13.99 7.98 14.98 9 16 C9 16.99 9 17.98 9 19 C8.34 19 7.68 19 7 19 C7 20.65 7 22.3 7 24 C6.34 24 5.68 24 5 24 C4.83 23.61 4.83 23.61 4 21.62 C1.21 17.96 -1.51 17.95 -5.92 17.26 C-6.61 17.18 -7.29 17.09 -8 17 C-7.67 16.5 -7.67 16.5 -6 14 C-5.56 12.12 -5.19 10.22 -4.88 8.31 C-4.71 7.32 -4.54 6.32 -4.37 5.3 C-4.25 4.54 -4.12 3.78 -4 3 C-3.01 3.33 -2.02 3.66 -1 4 C-0.67 2.68 -0.34 1.36 0 0 Z " fill="#474D3D" transform="translate(444,633)"/>
  <path d="M0 0 C3.15 0.7 6.03 1.76 9 3 C9 3.66 9 4.32 9 5 C7.35 5 5.7 5 4 5 C3.34 7.31 2.68 9.62 2 12 C0.35 12.33 -1.3 12.66 -3 13 C-3 14.65 -3 16.3 -3 18 C-6.02 19.51 -8.67 19.18 -12 19 C-12.99 18.34 -13.98 17.68 -15 17 C-15.66 17.33 -16.32 17.66 -17 18 C-19.35 17.39 -21.69 16.73 -24 16 C-23.51 11.6 -22.17 9.98 -19 7 C-17.75 4.75 -17.75 4.75 -17 3 C-16.67 3 -16.34 3 -16 3 C-15.88 9.75 -15.88 9.75 -17 12 C-16.24 12 -15.47 12 -14.69 12 C-12.79 12 -10.9 12 -9 12 C-8.34 11.67 -7.68 11.34 -7 11 C-6.67 10.01 -6.34 9.02 -6 8 C-5.34 7.69 -4.68 7.38 -4 7.06 C-2 6 -2 6 -1.31 4 C-1.21 3.34 -1.11 2.68 -1 2 C-0.67 1.34 -0.34 0.68 0 0 Z " fill="#3D4538" transform="translate(449,576)"/>
</g>
</svg>