<svg xmlns="http://www.w3.org/2000/svg" viewBox="78 374 129 32" width="129" height="32">
<defs><clipPath id="chunk_21_cloud" clipPathUnits="userSpaceOnUse"><path d="M162 374L168 374L168 375L170 375L170 376L172 376L172 377L174 377L174 378L175 378L175 380L176 380L176 384L178 384L178 385L179 385L179 389L180 389L180 387L181 387L181 386L184 386L184 385L188 385L188 386L189 386L189 387L190 387L190 388L191 388L191 389L192 389L192 390L193 390L193 392L197 392L197 391L198 391L198 392L199 392L199 393L200 393L200 394L201 394L201 395L203 395L203 396L206 396L206 397L207 397L207 398L206 398L206 399L201 399L201 401L200 401L200 402L188 402L188 404L187 404L187 405L170 405L170 404L168 404L168 405L167 405L167 406L153 406L153 405L148 405L148 404L130 404L130 403L123 403L123 402L116 402L116 401L115 401L115 400L114 400L114 399L115 399L115 397L106 397L106 398L98 398L98 397L97 397L97 396L92 396L92 395L91 395L91 393L81 393L81 392L79 392L79 391L78 391L78 389L79 389L79 388L83 388L83 387L88 387L88 388L89 388L89 385L90 385L90 384L97 384L97 383L98 383L98 382L99 382L99 380L100 380L100 379L102 379L102 378L112 378L112 379L113 379L113 380L114 380L114 381L115 381L115 382L116 382L116 383L115 383L115 384L121 384L121 385L123 385L123 386L124 386L124 387L126 387L126 388L129 388L129 389L137 389L137 390L139 390L139 389L140 389L140 387L141 387L141 386L142 386L142 385L143 385L143 384L152 384L152 382L153 382L153 380L154 380L154 379L155 379L155 378L156 378L156 377L157 377L157 376L159 376L159 375L162 375ZM202 390L205 390L205 391L206 391L206 392L205 392L205 393L202 393L202 392L201 392L201 391L202 391Z" fill-rule="evenodd"/></clipPath></defs>
<g clip-path="url(#chunk_21_cloud)">
  <path d="M0 0 C2 3 2 3 2 7 C2.66 7 3.32 7 4 7 C4 8.65 4 10.3 4 12 C5.32 12 6.64 12 8 12 C8.33 11.01 8.66 10.02 9 9 C14.49 8.63 14.49 8.63 16.81 10.31 C18 12 18 12 19 15 C20.67 15.04 22.33 15.04 24 15 C24.33 14.67 24.66 14.34 25 14 C31.98 13.37 38.39 14.46 45.12 16.19 C45.58 16.3 45.58 16.3 47.88 16.87 C56.03 18.93 64.03 21.33 72 24 C73.11 24.35 74.22 24.7 75.36 25.06 C76.35 25.39 77.35 25.72 78.38 26.06 C79.23 26.34 80.08 26.62 80.96 26.91 C83.44 28.23 84.02 29.42 85 32 C84.67 32.33 84.34 32.66 84 33 C78.99 32.76 74.8 32.06 70.12 30.25 C68.09 29.49 66.04 28.74 64 28 C63.4 27.78 62.79 27.55 62.17 27.32 C46.14 21.64 29.75 22.5 13 23 C13 23.66 13 24.32 13 25 C10.23 25.03 7.46 25.05 4.69 25.06 C3.9 25.07 3.12 25.08 2.31 25.09 C1.55 25.09 0.79 25.09 0.01 25.1 C-0.34 25.1 -0.34 25.1 -2.1 25.11 C-4 25 -4 25 -7 24 C-7 24.66 -7 25.32 -7 26 C-9.44 26.03 -11.87 26.05 -14.31 26.06 C-15 26.07 -15.69 26.08 -16.4 26.09 C-19.55 26.1 -21.99 26 -25 25 C-26.41 24.88 -27.83 24.8 -29.25 24.75 C-30.08 24.72 -30.91 24.69 -31.77 24.66 C-32.65 24.63 -33.53 24.59 -34.44 24.56 C-42.11 24.24 -49.47 23.58 -57 22 C-57 21.01 -57 20.02 -57 19 C-55.35 18.34 -53.7 17.68 -52 17 C-52.57 17.07 -53.14 17.14 -53.73 17.22 C-60.84 18.03 -67.85 18.1 -75 18 C-75 17.34 -75 16.68 -75 16 C-79.29 16 -83.58 16 -88 16 C-88 16.66 -88 17.32 -88 18 C-88.68 18.17 -89.36 18.34 -90.05 18.52 C-95.68 19.98 -101.01 21.72 -106.38 23.95 C-118.98 29 -118.98 29 -125 29 C-124.78 26.66 -124.78 26.66 -124 24 C-122.07 22.56 -122.07 22.56 -119.56 21.44 C-118.66 21.03 -117.75 20.62 -116.81 20.19 C-115.88 19.8 -114.96 19.41 -114 19 C-113.17 18.64 -112.35 18.28 -111.5 17.9 C-106.16 15.65 -100.77 14.02 -95.15 12.61 C-93 12 -93 12 -92 11 C-85.47 10.76 -85.47 10.76 -83 12 C-82.67 10.35 -82.34 8.7 -82 7 C-80.91 7.1 -79.81 7.21 -78.69 7.31 C-77.47 7.21 -76.25 7.11 -75 7 C-73.95 5.36 -72.95 3.7 -72 2 C-67.52 0.51 -64.23 0.93 -60 3 C-59.06 5 -59.06 5 -59 7 C-59.33 7.66 -59.66 8.32 -60 9 C-59.44 8.65 -58.89 8.3 -58.31 7.94 C-55.38 6.75 -53.97 7.01 -51 8 C-50.56 8.49 -50.11 8.97 -49.65 9.48 C-47.54 11.43 -45.94 11.69 -43.12 12.19 C-42.28 12.35 -41.44 12.5 -40.57 12.67 C-38.01 13 -35.57 13.06 -33 13 C-32.69 12.36 -32.38 11.72 -32.06 11.06 C-31 9 -31 9 -30 8 C-28.19 7.87 -28.19 7.87 -26 7.88 C-25.28 7.87 -24.56 7.87 -23.81 7.87 C-22 8 -22 8 -21 9 C-20.79 8.11 -20.59 7.23 -20.38 6.31 C-18.45 1.67 -15.66 -0.87 -10.94 -2.88 C-6.92 -3.13 -3.4 -2.11 0 0 Z " fill="#C7D3DE" transform="translate(173,378)"/>
  <path d="M0 0 C0.79 0.08 1.59 0.16 2.41 0.24 C4.5 0.69 4.5 0.69 6.5 2.69 C6.12 5.31 6.12 5.31 5.5 7.69 C6.06 7.34 6.61 6.99 7.19 6.62 C10.12 5.44 11.53 5.7 14.5 6.69 C14.94 7.17 15.39 7.66 15.85 8.16 C17.96 10.11 19.56 10.37 22.38 10.88 C23.22 11.03 24.06 11.19 24.93 11.36 C27.49 11.69 29.93 11.75 32.5 11.69 C32.5 13.01 32.5 14.33 32.5 15.69 C28.48 17.5 24.89 19.02 20.5 19.69 C22.15 20.35 23.8 21.01 25.5 21.69 C25.5 22.02 25.5 22.35 25.5 22.69 C24.37 22.54 23.23 22.4 22.06 22.25 C17.55 21.68 13.02 21.18 8.5 20.69 C8.5 19.7 8.5 18.71 8.5 17.69 C10.15 17.03 11.8 16.37 13.5 15.69 C12.93 15.76 12.36 15.83 11.77 15.91 C4.66 16.72 -2.35 16.79 -9.5 16.69 C-9.5 16.03 -9.5 15.37 -9.5 14.69 C-13.79 14.69 -18.08 14.69 -22.5 14.69 C-22.5 15.35 -22.5 16.01 -22.5 16.69 C-23.18 16.86 -23.86 17.03 -24.55 17.2 C-30.18 18.67 -35.51 20.41 -40.88 22.64 C-53.48 27.69 -53.48 27.69 -59.5 27.69 C-59.28 25.35 -59.28 25.35 -58.5 22.69 C-56.57 21.25 -56.57 21.25 -54.06 20.12 C-53.16 19.71 -52.25 19.3 -51.31 18.88 C-50.38 18.49 -49.46 18.09 -48.5 17.69 C-47.67 17.33 -46.85 16.96 -46 16.59 C-40.66 14.34 -35.27 12.71 -29.65 11.3 C-27.5 10.69 -27.5 10.69 -26.5 9.69 C-19.97 9.45 -19.97 9.45 -17.5 10.69 C-17.17 9.04 -16.84 7.39 -16.5 5.69 C-15.41 5.79 -14.31 5.89 -13.19 6 C-11.97 5.9 -10.75 5.79 -9.5 5.69 C-7.69 3.25 -7.69 3.25 -6.5 0.69 C-4.03 -0.55 -2.73 -0.3 0 0 Z " fill="#BACFDB" transform="translate(107.5,379.3125)"/>
  <path d="M0 0 C7.06 -0.3 13.29 0.44 20.12 2.19 C21.03 2.41 21.94 2.64 22.88 2.87 C31.03 4.93 39.03 7.33 47 10 C48.11 10.35 49.22 10.7 50.36 11.06 C51.35 11.39 52.35 11.72 53.38 12.06 C54.23 12.34 55.08 12.62 55.96 12.91 C58.44 14.23 59.02 15.42 60 18 C59.83 18.17 59.83 18.17 59 19 C53.99 18.76 49.8 18.06 45.12 16.25 C30.92 10.84 17.18 8.2 2 8 C2 7.67 2 7.34 2 7 C3.81 6.83 3.81 6.83 13 6 C11.6 5.75 10.19 5.5 8.75 5.25 C4.75 4.38 2.56 3.34 0 0 Z " fill="#95C5D7" transform="translate(198,392)"/>
  <path d="M0 0 C0.16 0.17 0.16 0.17 1 1 C2.68 1.23 4.37 1.41 6.06 1.56 C6.98 1.65 7.9 1.73 8.85 1.82 C9.2 1.85 9.2 1.85 11 2 C11 2.33 11 2.66 11 3 C9.02 3 7.04 3 5 3 C5 3.66 5 4.32 5 5 C4.32 5.17 3.64 5.34 2.95 5.52 C-2.68 6.98 -8.01 8.72 -13.38 10.95 C-25.98 16 -25.98 16 -32 16 C-31.78 13.66 -31.78 13.66 -31 11 C-29.07 9.56 -29.07 9.56 -26.56 8.44 C-25.66 8.03 -24.76 7.62 -23.83 7.2 C-22.9 6.8 -21.96 6.41 -21 6 C-20.12 5.63 -19.23 5.25 -18.32 4.87 C-15.9 3.87 -13.46 2.92 -11 2 C-9.91 1.59 -8.81 1.18 -7.69 0.75 C-4.97 -0.01 -2.8 -0.24 0 0 Z " fill="#92C2D5" transform="translate(80,391)"/>
</g>
</svg>