<svg xmlns="http://www.w3.org/2000/svg" viewBox="1118 315 82 16" width="82" height="16">
<defs><clipPath id="chunk_23_cloud" clipPathUnits="userSpaceOnUse"><path d="M1165 315L1171 315L1171 316L1179 316L1179 317L1182 317L1182 318L1183 318L1183 319L1184 319L1184 321L1191 321L1191 322L1196 322L1196 323L1198 323L1198 324L1199 324L1199 325L1200 325L1200 328L1198 328L1198 329L1196 329L1196 330L1172 330L1172 331L1119 331L1119 330L1118 330L1118 326L1119 326L1119 325L1126 325L1126 324L1132 324L1132 323L1137 323L1137 322L1141 322L1141 321L1157 321L1157 320L1158 320L1158 319L1159 319L1159 318L1161 318L1161 317L1163 317L1163 316L1165 316Z" fill-rule="evenodd"/></clipPath></defs>
<g clip-path="url(#chunk_23_cloud)">
  <path d="M0 0 C0.82 0.11 1.65 0.22 2.5 0.33 C7.01 1.11 7.01 1.11 9 2 C10.25 4.08 10.25 4.08 11 6 C11.65 5.97 12.3 5.93 12.98 5.89 C18.49 5.72 22.19 5.96 27 9 C23.95 11.04 23.16 11.27 19.69 11.41 C19.25 11.43 19.25 11.43 17.03 11.53 C16.07 11.56 15.11 11.59 14.12 11.62 C13.11 11.66 12.1 11.7 11.06 11.74 C-1.94 12.17 -14.94 12.11 -27.94 12.06 C-30.48 12.06 -33.03 12.05 -35.57 12.05 C-41.71 12.04 -47.86 12.02 -54 12 C-54 11.34 -54 10.68 -54 10 C-52.7 9.81 -51.4 9.61 -50.05 9.41 C-48.33 9.15 -46.6 8.89 -44.88 8.62 C-44.02 8.5 -43.16 8.37 -42.28 8.24 C-38.6 7.68 -35.24 7.08 -31.71 5.85 C-28.61 4.88 -26.85 5.13 -23.69 5.75 C-17.94 6.46 -15.63 4.79 -11.18 1.38 C-7.49 -0.95 -4.19 -0.6 0 0 Z " fill="#D1DCE7" transform="translate(1173,317)"/>
</g>
</svg>