<?xml version="1.0" encoding="UTF-8"?>
<!-- Generator: visioncortex VTracer 0.6.12 -->
<svg version="1.1" xmlns="http://www.w3.org/2000/svg" width="85" height="119">
<path d="M0 0 C0.99 0 1.98 0 3 0 C3.19 0.74 3.39 1.47 3.59 2.23 C3.72 2.72 3.72 2.72 4.38 5.19 C4.63 6.15 4.89 7.11 5.15 8.11 C5.95 10.82 6.92 13.38 8 16 C8.16 16.49 8.16 16.49 9 19 C11.06 20.19 11.06 20.19 13 21 C13 21.99 13 22.98 13 24 C12.34 24 11.68 24 11 24 C11.66 24.99 12.32 25.98 13 27 C12.62 29.69 12.62 29.69 12 32 C12.99 32.33 13.98 32.66 15 33 C15 33.66 15 34.32 15 35 C15.56 34.99 15.56 34.99 18.38 34.94 C22 35 22 35 24 36 C23.65 39.24 23.44 40.62 20.94 42.81 C20.62 43.01 20.62 43.01 19 44 C19.33 44.99 19.66 45.98 20 47 C19.01 47.66 18.02 48.32 17 49 C19.97 49.99 22.94 50.98 26 52 C25.67 53.98 25.34 55.96 25 58 C28.3 58.33 31.6 58.66 35 59 C35.16 59.66 35.16 59.66 36 63 C35.68 63.2 35.68 63.2 34.06 64.19 C32 66 32 66 31.56 68.5 C31 71 31 71 28.62 72.75 C26 74 26 74 23 75 C23 75.66 23 76.32 23 77 C23.54 77.1 24.07 77.21 24.62 77.31 C27.63 78.18 30.24 79.56 33 81 C32.34 82.32 31.68 83.64 31 85 C30.01 85 29.02 85 28 85 C28 85.66 28 86.32 28 87 C27.24 86.98 26.47 86.96 25.69 86.94 C23 87 23 87 20 88 C19.01 87.34 18.02 86.68 17 86 C16.34 86.99 15.68 87.98 15 89 C16.98 89 18.96 89 21 89 C21 89.99 21 90.98 21 92 C22.65 92 24.3 92 26 92 C26 93.32 26 94.64 26 96 C25.07 95.98 24.14 95.96 23.19 95.94 C20 96 20 96 17 97 C14.26 96.54 11.68 95.75 9 95 C9.33 96.32 9.66 97.64 10 99 C5.61 99.78 2.33 99.94 -2 99 C-3.34 99.31 -4.68 99.63 -6 100 C-6.66 99.67 -7.32 99.34 -8 99 C-8 98.01 -8 97.02 -8 96 C-8.41 96.01 -8.41 96.01 -10.48 96.04 C-11.02 96.04 -11.02 96.04 -13.75 96.06 C-14.28 96.07 -14.28 96.07 -16.98 96.1 C-19.53 96.02 -21.58 95.75 -24 95 C-23.67 94.01 -23.34 93.02 -23 92 C-21.02 92 -19.04 92 -17 92 C-17 91.34 -17 90.68 -17 90 C-16.18 89.84 -16.18 89.84 -12 89 C-12 88.34 -12 87.68 -12 87 C-13.32 87 -14.64 87 -16 87 C-17.67 87 -19.33 87 -21 87 C-21.33 85.68 -21.66 84.36 -22 83 C-23.98 82.67 -25.96 82.34 -28 82 C-28 80.68 -28 79.36 -28 78 C-26.93 77.77 -25.86 77.55 -24.75 77.31 C-20.61 75.86 -19.29 74.66 -17 71 C-17 70.34 -17 69.68 -17 69 C-17.99 69.16 -17.99 69.16 -23 70 C-25 67 -25 67 -25 65 C-26.63 63.62 -28.29 62.28 -30 61 C-29.67 60.01 -29.34 59.02 -29 58 C-25.7 57.34 -22.4 56.68 -19 56 C-18.67 55.01 -18.34 54.02 -18 53 C-16.03 51.93 -14.03 50.93 -12 50 C-11.67 49.67 -11.34 49.34 -11 49 C-12.32 48.67 -13.64 48.34 -15 48 C-15.04 47.42 -15.08 46.84 -15.12 46.25 C-16.44 42.87 -18.97 41.81 -22 40 C-21.67 39.01 -21.34 38.02 -21 37 C-19.11 36.23 -19.11 36.23 -16.75 35.62 C-12.2 34.27 -10.02 32.61 -7 29 C-7.66 28.4 -8.32 27.8 -9 27.19 C-11 25 -11 25 -11 22 C-10.03 21.61 -9.06 21.22 -8.06 20.81 C-5 19 -5 19 -4.25 16.56 C-4.17 15.72 -4.09 14.87 -4 14 C-3.69 13.4 -3.38 12.79 -3.05 12.17 C-1.85 9.7 -1.37 7.44 -0.88 4.75 C-0.71 3.86 -0.54 2.97 -0.37 2.05 C-0.25 1.37 -0.12 0.7 0 0 Z M-5.06 85 C-5.7 85.66 -6.34 86.32 -7 87 C-5.68 87 -4.36 87 -3 87 C-2.67 85.68 -2.34 84.36 -2 83 C-3 83 -3 83 -5.06 85 Z M7 85 C7.33 85.66 7.66 86.32 8 87 C8.33 86.34 8.66 85.68 9 85 C8.34 85 7.68 85 7 85 Z " fill="#74785F" transform="translate(40,10)"/>
<path d="M0 0 C0.99 0.33 1.98 0.66 3 1 C3.38 3.25 3.38 3.25 3 6 C1.04 7.39 -0.96 8.73 -3 10 C-3 10.99 -3 11.98 -3 13 C-1.68 12.67 -0.36 12.34 1 12 C1 12.66 1 13.32 1 14 C1.99 14 2.98 14 4 14 C4.33 13.34 4.66 12.68 5 12 C5.66 13.65 6.32 15.3 7 17 C8.65 17 10.3 17 12 17 C10.68 18.32 9.36 19.64 8 21 C8.99 21 9.98 21 11 21 C11.47 20.34 11.95 19.68 12.44 19 C12.95 18.34 13.47 17.68 14 17 C15.32 17 16.64 17 18 17 C18.33 18.32 18.66 19.64 19 21 C19.28 20.89 19.28 20.89 20.69 20.31 C23 20 23 20 25.75 21.06 C28 23 28 23 28.31 26.19 C28.21 27.12 28.11 28.04 28 29 C34.53 27.52 34.53 27.52 36.81 25 C37.2 24.34 37.6 23.68 38 23 C38.66 22.34 39.32 21.68 40 21 C40.16 21.5 40.16 21.5 41 24 C42.32 24.39 43.66 24.71 45 25 C47.02 25.97 49.02 26.96 51 28 C50.34 29.32 49.68 30.64 49 32 C48.01 32 47.02 32 46 32 C46 32.66 46 33.32 46 34 C45.24 33.98 44.47 33.96 43.69 33.94 C41 34 41 34 38 35 C37.01 34.34 36.02 33.68 35 33 C34.34 33.99 33.68 34.98 33 36 C34.98 36 36.96 36 39 36 C39 36.99 39 37.98 39 39 C40.65 39 42.3 39 44 39 C44 40.32 44 41.64 44 43 C43.54 42.99 43.54 42.99 41.19 42.94 C38 43 38 43 35 44 C32.26 43.54 29.68 42.75 27 42 C27.16 42.66 27.16 42.66 28 46 C23.61 46.78 20.33 46.94 16 46 C14.66 46.31 13.32 46.63 12 47 C11.34 46.67 10.68 46.34 10 46 C10 45.01 10 44.02 10 43 C9.59 43.01 9.59 43.01 7.52 43.04 C6.98 43.04 6.98 43.04 4.25 43.06 C3.72 43.07 3.72 43.07 1.02 43.1 C-1.53 43.02 -3.58 42.75 -6 42 C-5.67 41.01 -5.34 40.02 -5 39 C-3.02 39 -1.04 39 1 39 C1 38.34 1 37.68 1 37 C1.82 36.84 1.82 36.84 6 36 C6 35.34 6 34.68 6 34 C4.68 34 3.36 34 2 34 C0.33 34 -1.33 34 -3 34 C-3.33 32.68 -3.66 31.36 -4 30 C-5.98 29.67 -7.96 29.34 -10 29 C-10 27.68 -10 26.36 -10 25 C-8.93 24.77 -7.86 24.55 -6.75 24.31 C-2.61 22.86 -1.29 21.66 1 18 C1 17.34 1 16.68 1 16 C-0.98 16.33 -2.96 16.66 -5 17 C-7 14 -7 14 -7 12 C-8.63 10.62 -10.29 9.28 -12 8 C-11.67 7.01 -11.34 6.02 -11 5 C-9.35 4.67 -9.35 4.67 -1 3 C-0.67 2.01 -0.34 1.02 0 0 Z M12.94 32 C12.3 32.66 11.66 33.32 11 34 C12.32 34 13.64 34 15 34 C15.33 32.68 15.66 31.36 16 30 C15 30 15 30 12.94 32 Z M25 32 C25.33 32.66 25.66 33.32 26 34 C26.33 33.34 26.66 32.68 27 32 C26.34 32 25.68 32 25 32 Z " fill="#7E8272" transform="translate(22,63)"/>
<path d="M0 0 C0.99 0 1.98 0 3 0 C3.19 0.74 3.39 1.47 3.59 2.23 C3.85 3.21 4.11 4.18 4.38 5.19 C4.63 6.15 4.89 7.11 5.15 8.11 C5.95 10.82 6.92 13.38 8 16 C8.33 16.99 8.66 17.98 9 19 C11.06 20.19 11.06 20.19 13 21 C13 21.99 13 22.98 13 24 C12.34 24 11.68 24 11 24 C11.66 24.99 12.32 25.98 13 27 C12.62 29.69 12.62 29.69 12 32 C12.49 32.16 12.49 32.16 15 33 C15 33.66 15 34.32 15 35 C15.56 34.99 15.56 34.99 18.38 34.94 C22 35 22 35 24 36 C23.65 39.24 23.44 40.62 20.94 42.81 C20.3 43.2 19.66 43.6 19 44 C19.33 44.99 19.66 45.98 20 47 C19.01 47.66 18.02 48.32 17 49 C19.97 49.99 22.94 50.98 26 52 C25.67 53.98 25.34 55.96 25 58 C28.3 58.33 31.6 58.66 35 59 C35.16 59.66 35.16 59.66 36 63 C35.68 63.2 35.68 63.2 34.06 64.19 C31.56 66.38 31.35 67.76 31 71 C29 68 29 68 29 66 C28.01 65.67 27.02 65.34 26 65 C26 64.34 26 63.68 26 63 C25.55 63.02 25.55 63.02 23.25 63.12 C20.12 63 18.61 62.61 16 61 C16 61.66 16 62.32 16 63 C15.51 63.16 15.51 63.16 13 64 C12.34 62.35 11.68 60.7 11 59 C12.32 59 13.64 59 15 59 C15 57.68 15 56.36 15 55 C14.17 55.16 14.17 55.16 10 56 C10 53.36 10 50.72 10 48 C10.66 48 11.32 48 12 48 C12 47.34 12 46.68 12 46 C12.33 45.84 12.33 45.84 14 45 C12.68 44.34 11.36 43.68 10 43 C10 44.32 10 45.64 10 47 C8 46 6 45 4 44 C3.01 44.99 2.02 45.98 1 47 C1.33 41.72 1.66 36.44 2 31 C2.66 31 3.32 31 4 31 C4 31.99 4 32.98 4 34 C4.66 34 5.32 34 6 34 C6.33 31.69 6.66 29.38 7 27 C6.34 27 5.68 27 5 27 C5 26.34 5 25.68 5 25 C4.34 25 3.68 25 3 25 C3 25.99 3 26.98 3 28 C2.34 28 1.68 28 1 28 C1 25.69 1 23.38 1 21 C1.99 20.67 2.98 20.34 4 20 C3 17 3 17 0.94 15.81 C0.3 15.54 -0.34 15.28 -1 15 C-1.33 15.99 -1.66 16.98 -2 18 C-2.99 18 -3.98 18 -5 18 C-4.73 17.26 -4.46 16.52 -4.19 15.75 C-2.54 10.56 -1.28 5.29 0 0 Z " fill="#89855E" transform="translate(40,10)"/>
<path d="M0 0 C0.99 0.16 0.99 0.16 6 1 C5.62 2.94 5.62 2.94 5 5 C4.67 5.16 4.67 5.16 3 6 C2.59 8.32 2.26 10.66 2 13 C2.66 13 3.32 13 4 13 C4 12.01 4 11.02 4 10 C4.66 10 5.32 10 6 10 C6 10.66 6 11.32 6 12 C6.66 12 7.32 12 8 12 C7.67 14.31 7.34 16.62 7 19 C6.34 19 5.68 19 5 19 C5 18.01 5 17.02 5 16 C4.34 16 3.68 16 3 16 C3 20.95 3 25.9 3 31 C3.99 30.01 4.98 29.02 6 28 C8 30 8 30 8.12 32.62 C8.08 33.41 8.04 34.19 8 35 C7.01 35 6.02 35 5 35 C4.67 36.32 4.34 37.64 4 39 C2.68 39 1.36 39 0 39 C0 38.34 0 37.68 0 37 C-0.99 37 -1.98 37 -3 37 C-3.66 38.32 -4.32 39.64 -5 41 C-5.66 41 -6.32 41 -7 41 C-8.35 38.29 -8.07 35.99 -8 33 C-9.98 33 -11.96 33 -14 33 C-14.04 32.42 -14.08 31.84 -14.12 31.25 C-15.44 27.87 -17.97 26.81 -21 25 C-20.84 24.51 -20.84 24.51 -20 22 C-18.11 21.23 -18.11 21.23 -15.75 20.62 C-11.2 19.27 -9.02 17.61 -6 14 C-6.66 13.4 -7.32 12.8 -8 12.19 C-10 10 -10 10 -10 7 C-9.36 6.66 -8.72 6.32 -8.07 5.98 C-7.24 5.53 -6.41 5.08 -5.56 4.62 C-5.15 4.4 -5.15 4.4 -3.07 3.29 C-1 2 -1 2 0 0 Z " fill="#666E5D" transform="translate(39,25)"/>
<path d="M0 0 C5.88 1.88 5.88 1.88 7 3 C7.04 5 7.04 7 7 9 C13.53 7.52 13.53 7.52 15.81 5 C16.2 4.34 16.6 3.68 17 3 C17.66 2.34 18.32 1.68 19 1 C19.33 1.99 19.66 2.98 20 4 C21.32 4.39 22.66 4.71 24 5 C26.02 5.97 28.02 6.96 30 8 C29.34 9.32 28.68 10.64 28 12 C27.01 12 26.02 12 25 12 C25 12.66 25 13.32 25 14 C24.24 13.98 23.47 13.96 22.69 13.94 C20 14 20 14 17 15 C16.01 14.34 15.02 13.68 14 13 C13.67 13.5 13.67 13.5 12 16 C13.98 16 15.96 16 18 16 C18 16.99 18 17.98 18 19 C19.65 19 21.3 19 23 19 C23 20.32 23 21.64 23 23 C22.07 22.98 21.14 22.96 20.19 22.94 C17 23 17 23 14 24 C11.96 23.44 11.96 23.44 9.81 22.56 C9.45 22.42 9.45 22.42 7.64 21.69 C7.37 21.58 7.37 21.58 6 21 C7.32 20.01 8.64 19.02 10 18 C9.01 17.67 8.02 17.34 7 17 C6.67 16.34 6.34 15.68 6 15 C5.01 15 4.02 15 3 15 C3 12.03 3 9.06 3 6 C1.68 5.67 0.36 5.34 -1 5 C-0.67 3.35 -0.34 1.7 0 0 Z M4 12 C4.33 12.66 4.66 13.32 5 14 C5.33 13.34 5.66 12.68 6 12 C5.34 12 4.68 12 4 12 Z " fill="#A39B7C" transform="translate(43,83)"/>
<path d="M0 0 C0.66 0 1.32 0 2 0 C2 0.66 2 1.32 2 2 C2.99 2 3.98 2 5 2 C5 4.64 5 7.28 5 10 C5.66 8.68 6.32 7.36 7 6 C7.66 6 8.32 6 9 6 C9.27 6.97 9.54 7.94 9.81 8.94 C10.2 9.95 10.6 10.96 11 12 C11.99 12.33 12.98 12.66 14 13 C14 11.35 14 9.7 14 8 C16.38 8.69 16.38 8.69 19 10 C20.31 12.62 20.31 12.62 21 15 C19.68 15 18.36 15 17 15 C16.67 15.66 16.34 16.32 16 17 C15.01 16.67 14.02 16.34 13 16 C12.34 16.33 11.68 16.66 11 17 C9.13 17.07 7.25 17.08 5.38 17.06 C4.37 17.05 3.37 17.04 2.34 17.04 C1.57 17.02 0.79 17.01 0 17 C-0.33 15.68 -0.66 14.36 -1 13 C-4.65 14.25 -5.78 14.67 -8 18 C-9.32 17.67 -10.64 17.34 -12 17 C-10.68 16.01 -9.36 15.02 -8 14 C-9.65 14 -11.3 14 -13 14 C-13.33 11.36 -13.66 8.72 -14 6 C-13.01 5.67 -12.02 5.34 -11 5 C-11 6.98 -11 8.96 -11 11 C-9.06 10.19 -9.06 10.19 -7 9 C-6.67 8.01 -6.34 7.02 -6 6 C-5.34 6 -4.68 6 -4 6 C-4 6.66 -4 7.32 -4 8 C-3.34 8 -2.68 8 -2 8 C-1.34 5.36 -0.68 2.72 0 0 Z " fill="#4D5143" transform="translate(41,67)"/>
<path d="M0 0 C0.6 0.33 1.2 0.66 1.81 1 C4 2 4 2 7 2 C7 2.66 7 3.32 7 4 C6.01 4.66 5.02 5.32 4 6 C6.97 6.99 9.94 7.98 13 9 C12.67 10.98 12.34 12.96 12 15 C15.3 15.33 18.6 15.66 22 16 C22.33 17.32 22.66 18.64 23 20 C22.36 20.39 21.72 20.78 21.06 21.19 C18.56 23.38 18.35 24.76 18 28 C16 25 16 25 16 23 C15.01 22.67 14.02 22.34 13 22 C13 21.34 13 20.68 13 20 C12.09 20.04 11.19 20.08 10.25 20.12 C7.12 20 5.61 19.61 3 18 C3 18.66 3 19.32 3 20 C2.01 20.33 1.02 20.66 0 21 C-0.66 19.35 -1.32 17.7 -2 16 C-0.68 16 0.64 16 2 16 C2 14.68 2 13.36 2 12 C0.35 12.33 -1.3 12.66 -3 13 C-3 10.36 -3 7.72 -3 5 C-2.34 5 -1.68 5 -1 5 C-1 4.34 -1 3.68 -1 3 C-0.34 2.67 0.32 2.34 1 2 C0.67 1.34 0.34 0.68 0 0 Z " fill="#A59A6B" transform="translate(53,53)"/>
<path d="M0 0 C1.65 0 3.3 0 5 0 C4.67 0.5 4.67 0.5 3 3 C3.33 3.66 3.66 4.32 4 5 C4.66 5 5.32 5 6 5 C6 4.34 6 3.68 6 3 C9.3 3.66 12.6 4.32 16 5 C16 5.66 16 6.32 16 7 C17.32 7.33 18.64 7.66 20 8 C20 9.98 20 11.96 20 14 C16.87 15.86 14.63 16.2 11 16 C11.33 16.99 11.66 17.98 12 19 C11.01 19.33 10.02 19.66 9 20 C8.69 20.34 8.69 20.34 7.12 22.06 C5 24 5 24 2.25 24.25 C1.51 24.17 0.77 24.09 0 24 C-0.06 23.53 -0.06 23.53 -0.38 21.12 C-1 18 -1 18 -3 16 C-1.54 15.66 -0.08 15.33 1.38 15 C1.78 14.91 1.78 14.91 3.84 14.44 C6 14 6 14 8 14 C8.99 13.67 9.98 13.34 11 13 C9.95 10.38 9.35 9.21 6.88 7.75 C6.26 7.5 5.64 7.25 5 7 C5 8.65 5 10.3 5 12 C3.68 11.67 2.36 11.34 1 11 C0.67 8.69 0.34 6.38 0 4 C-0.66 4 -1.32 4 -2 4 C-2 3.34 -2 2.68 -2 2 C-1.34 2 -0.68 2 0 2 C0 1.34 0 0.68 0 0 Z " fill="#969370" transform="translate(50,68)"/>
<path d="M0 0 C0.66 0.33 1.32 0.66 2 1 C1.67 1.99 1.34 2.98 1 4 C1.66 4.33 2.32 4.66 3 5 C2 13.57 2 13.57 1 17 C1.99 17 2.98 17 4 17 C4 17.66 4 18.32 4 19 C3.34 19 2.68 19 2 19 C1.88 19.64 1.76 20.28 1.63 20.93 C1.47 21.76 1.3 22.59 1.12 23.44 C0.96 24.26 0.8 25.08 0.63 25.93 C0.42 26.62 0.22 27.3 0 28 C-2.86 29.43 -4.93 28.6 -8 28 C-8.04 27.42 -8.08 26.84 -8.12 26.25 C-9.44 22.87 -11.97 21.81 -15 20 C-14.84 19.51 -14.84 19.51 -14 17 C-12.11 16.23 -12.11 16.23 -9.75 15.62 C-5.2 14.27 -3.02 12.61 0 9 C-0.66 8.4 -1.32 7.8 -2 7.19 C-4 5 -4 5 -4 2 C-2.12 0.94 -2.12 0.94 0 0 Z " fill="#8B958C" transform="translate(33,30)"/>
<path d="M0 0 C0.66 0 1.32 0 2 0 C2 0.66 2 1.32 2 2 C2.66 2.33 3.32 2.66 4 3 C3.67 3.33 3.34 3.66 3 4 C3.66 4.33 4.32 4.66 5 5 C5.33 4.34 5.66 3.68 6 3 C6 4.65 6 6.3 6 8 C4.34 8.38 2.68 8.71 1 9 C0.67 8.67 0.34 8.34 0 8 C-0.33 9.65 -0.66 11.3 -1 13 C0.32 13 1.64 13 3 13 C3 13.99 3 14.98 3 16 C3.78 15.5 4.57 15.01 5.38 14.5 C8 13 8 13 10 13 C10.33 12.34 10.66 11.68 11 11 C11.99 11.16 11.99 11.16 17 12 C17.16 12.83 17.16 12.83 18 17 C13.61 17.78 10.33 17.94 6 17 C4.66 17.31 3.32 17.63 2 18 C1.34 17.67 0.68 17.34 0 17 C0 16.01 0 15.02 0 14 C-0.41 14.01 -0.41 14.01 -2.48 14.04 C-3.02 14.04 -3.02 14.04 -5.75 14.06 C-6.28 14.07 -6.28 14.07 -8.98 14.1 C-11.53 14.02 -13.58 13.75 -16 13 C-15.67 12.01 -15.34 11.02 -15 10 C-13.02 10 -11.04 10 -9 10 C-9 9.34 -9 8.68 -9 8 C-7.35 7.67 -5.7 7.34 -4 7 C-4 6.34 -4 5.68 -4 5 C-2.68 4.67 -1.36 4.34 0 4 C-0.33 3.01 -0.66 2.02 -1 1 C-0.67 0.67 -0.34 0.34 0 0 Z " fill="#C1C1B3" transform="translate(32,92)"/>
<path d="M0 0 C0.99 0 1.98 0 3 0 C3.19 0.74 3.39 1.47 3.59 2.23 C3.85 3.21 4.11 4.18 4.38 5.19 C4.63 6.15 4.89 7.11 5.15 8.11 C5.95 10.82 6.92 13.38 8 16 C8.33 16.99 8.66 17.98 9 19 C11.06 20.19 11.06 20.19 13 21 C13 21.99 13 22.98 13 24 C12.34 24 11.68 24 11 24 C11 24.66 11 25.32 11 26 C10.01 25.67 9.02 25.34 8 25 C8 24.34 8 23.68 8 23 C7.75 22.77 7.75 22.77 6.5 21.62 C5 20 5 20 5 16 C4.01 16.33 3.02 16.66 2 17 C1.01 16.34 0.02 15.68 -1 15 C-1.33 15.99 -1.66 16.98 -2 18 C-2.99 18 -3.98 18 -5 18 C-4.73 17.26 -4.46 16.52 -4.19 15.75 C-2.54 10.56 -1.28 5.29 0 0 Z " fill="#B9B192" transform="translate(40,10)"/>
<path d="M0 0 C0.66 0 1.32 0 2 0 C1.34 1.65 0.68 3.3 0 5 C1.98 4.34 3.96 3.68 6 3 C6.33 3.99 6.66 4.98 7 6 C7.99 5.01 8.98 4.02 10 3 C12 5 12 5 12.12 7.62 C12.08 8.41 12.04 9.19 12 10 C11.01 10 10.02 10 9 10 C8.67 11.32 8.34 12.64 8 14 C6.68 14 5.36 14 4 14 C4 13.34 4 12.68 4 12 C3.01 12 2.02 12 1 12 C0.34 13.32 -0.32 14.64 -1 16 C-1.66 16 -2.32 16 -3 16 C-4.39 9.95 -3.54 6.67 -1 1 C-0.67 0.67 -0.34 0.34 0 0 Z " fill="#4D594D" transform="translate(35,50)"/>
<path d="M0 0 C0.99 0.33 1.98 0.66 3 1 C3.38 3.25 3.38 3.25 3 6 C1.04 7.39 -0.96 8.73 -3 10 C-3 10.99 -3 11.98 -3 13 C-1.68 12.67 -0.36 12.34 1 12 C1 12.66 1 13.32 1 14 C1.99 14 2.98 14 4 14 C4.33 13.34 4.66 12.68 5 12 C6.04 15.13 5.93 15.99 5 19 C3.68 18.67 2.36 18.34 1 18 C1 17.34 1 16.68 1 16 C-0.98 16.33 -2.96 16.66 -5 17 C-7 14 -7 14 -7 12 C-8.63 10.62 -10.29 9.28 -12 8 C-11.67 7.01 -11.34 6.02 -11 5 C-9.35 4.67 -9.35 4.67 -1 3 C-0.67 2.01 -0.34 1.02 0 0 Z " fill="#9A9E90" transform="translate(22,63)"/>
<path d="M0 0 C0.66 0.33 1.32 0.66 2 1 C1 3 0 5 -1 7 C0.65 7.33 2.3 7.66 4 8 C4.62 9.81 4.62 9.81 5 12 C4.67 12.5 4.67 12.5 3 15 C0.67 15 -1.67 15 -4 15 C-4.33 13.68 -4.66 12.36 -5 11 C-5.99 10.84 -5.99 10.84 -11 10 C-11 8.68 -11 7.36 -11 6 C-9.93 5.75 -8.86 5.5 -7.75 5.25 C-4 4 -2.48 2.98 0 0 Z " fill="#A7AA9A" transform="translate(23,82)"/>
<path d="M0 0 C0.66 0.66 1.32 1.32 2 2 C3.33 2.34 4.66 2.68 6 3 C6.99 3.66 7.98 4.32 9 5 C11 6 11 6 15 6 C15 6.99 15 7.98 15 9 C16.65 9 18.3 9 20 9 C20 10.32 20 11.64 20 13 C19.07 12.98 18.14 12.96 17.19 12.94 C14 13 14 13 11 14 C8.96 13.44 8.96 13.44 6.81 12.56 C6.1 12.28 5.38 11.99 4.64 11.69 C4.1 11.46 3.56 11.24 3 11 C4.32 10.01 5.64 9.02 7 8 C6.01 7.67 5.02 7.34 4 7 C3.67 6.34 3.34 5.68 3 5 C2.01 5 1.02 5 0 5 C0 3.35 0 1.7 0 0 Z " fill="#D4D2BD" transform="translate(46,93)"/>
<path d="M0 0 C0.66 0.33 1.32 0.66 2 1 C1.67 2.65 1.34 4.3 1 6 C1.99 6.33 2.98 6.66 4 7 C4 7.66 4 8.32 4 9 C4.56 8.99 4.56 8.99 7.38 8.94 C11 9 11 9 13 10 C12.88 12.31 12.88 12.31 12 15 C8.94 16.81 8.94 16.81 6 18 C5.67 16.68 5.34 15.36 5 14 C4.38 14.21 3.76 14.41 3.12 14.62 C2.42 14.75 1.72 14.87 1 15 C-1.66 12.34 -1.72 10.73 -2 7 C-1.06 3.12 -1.06 3.12 0 0 Z " fill="#BDB593" transform="translate(51,36)"/>
<path d="M0 0 C0.33 0.99 0.66 1.98 1 3 C3.06 3.69 3.06 3.69 5 4 C2.16 6.01 0.6 7.01 -2.94 6.94 C-6.95 7.02 -8.81 8.68 -12 11 C-12.66 11 -13.32 11 -14 11 C-14 10.01 -14 9.02 -14 8 C-15.32 8 -16.64 8 -18 8 C-18 6.02 -18 4.04 -18 2 C-16.02 2.66 -14.04 3.32 -12 4 C-12 4.66 -12 5.32 -12 6 C-10.06 5.19 -10.06 5.19 -8 4 C-7.67 3.01 -7.34 2.02 -7 1 C-5.84 0.83 -5.84 0.83 0 0 Z " fill="#9E9981" transform="translate(49,97)"/>
<path d="M0 0 C0.66 0 1.32 0 2 0 C2 0.66 2 1.32 2 2 C5.3 2.33 8.6 2.66 12 3 C12.33 4.32 12.66 5.64 13 7 C12.36 7.39 11.72 7.78 11.06 8.19 C8.56 10.38 8.35 11.76 8 15 C6 12 6 12 6 10 C5.01 9.67 4.02 9.34 3 9 C3 8.34 3 7.68 3 7 C1.02 7 -0.96 7 -3 7 C-3 5.68 -3 4.36 -3 3 C-2.34 3 -1.68 3 -1 3 C-0.67 2.01 -0.34 1.02 0 0 Z " fill="#C2BA99" transform="translate(63,66)"/>
<path d="M0 0 C0.66 0.33 1.32 0.66 2 1 C2 1.66 2 2.32 2 3 C2.54 3.1 3.07 3.21 3.62 3.31 C6.63 4.18 9.24 5.56 12 7 C11.34 8.32 10.68 9.64 10 11 C9.01 11 8.02 11 7 11 C7 11.66 7 12.32 7 13 C4.33 13 1.67 13 -1 13 C-1 10.03 -1 7.06 -1 4 C-0.34 4 0.32 4 1 4 C0.67 2.68 0.34 1.36 0 0 Z " fill="#B5AF93" transform="translate(61,84)"/>
<path d="M0 0 C2 3 2 3 2 5 C3.98 5 5.96 5 8 5 C6.68 5.33 5.36 5.66 4 6 C4.25 6.19 4.25 6.19 5.52 7.14 C7 9 7 9 7.07 11.7 C7.01 12.19 7.01 12.19 6.69 14.69 C6.63 15.18 6.63 15.18 6.32 17.7 C6.22 18.46 6.11 19.22 6 20 C5.34 20 4.68 20 4 20 C3.67 20.66 3.34 21.32 3 22 C2.67 21.01 2.34 20.02 2 19 C1.34 18.34 0.68 17.68 0 17 C0.66 17 1.32 17 2 17 C2.33 14.69 2.66 12.38 3 10 C2.34 10 1.68 10 1 10 C1 9.34 1 8.68 1 8 C0.34 8 -0.32 8 -1 8 C-1 8.99 -1 9.98 -1 11 C-1.66 11 -2.32 11 -3 11 C-3 8.69 -3 6.38 -3 4 C-2.01 3.67 -1.02 3.34 0 3 C0 2.01 0 1.02 0 0 Z " fill="#999163" transform="translate(44,27)"/>
<path d="M0 0 C0.33 0.66 0.66 1.32 1 2 C2.32 2 3.64 2 5 2 C5 4.97 5 7.94 5 11 C3.68 11 2.36 11 1 11 C0.67 12.32 0.34 13.64 0 15 C-1.32 15.33 -2.64 15.66 -4 16 C-3.72 13.71 -3.42 11.42 -3.12 9.12 C-2.96 7.85 -2.8 6.57 -2.63 5.26 C-2 2 -2 2 0 0 Z " fill="#6C6350" transform="translate(41,87)"/>
<path d="M0 0 C0.66 0 1.32 0 2 0 C2.33 0.66 2.66 1.32 3 2 C4.65 2 6.3 2 8 2 C6.68 3.32 5.36 4.64 4 6 C4.66 6.66 5.32 7.32 6 8 C5.76 9.95 5.76 9.95 5.12 12.12 C4.92 12.85 4.72 13.57 4.51 14.32 C4.42 14.6 4.42 14.6 4 16 C3.67 15.34 3.34 14.68 3 14 C2.34 14 1.68 14 1 14 C1 13.34 1 12.68 1 12 C-0.98 12 -2.96 12 -5 12 C-3.67 9.33 -2.33 6.67 -1 4 C-0.34 4 0.32 4 1 4 C0.67 2.68 0.34 1.36 0 0 Z " fill="#717864" transform="translate(26,78)"/>
<path d="M0 0 C0.33 0.66 0.66 1.32 1 2 C1.66 2 2.32 2 3 2 C3.33 2.99 3.66 3.98 4 5 C3.01 5.33 2.02 5.66 1 6 C0.69 6.34 0.69 6.34 -0.88 8.06 C-3 10 -3 10 -5.75 10.25 C-6.49 10.17 -7.23 10.09 -8 10 C-8.06 9.53 -8.06 9.53 -8.38 7.12 C-9 4 -9 4 -11 2 C-7.12 0.81 -4.08 0 0 0 Z " fill="#7B8169" transform="translate(58,82)"/>
<path d="M0 0 C2.38 0.69 2.38 0.69 5 2 C6.31 4.62 6.31 4.62 7 7 C5.68 7 4.36 7 3 7 C2.67 7.66 2.34 8.32 2 9 C1.01 8.67 0.02 8.34 -1 8 C-1.33 8.16 -1.33 8.16 -3 9 C-4.87 9.07 -6.75 9.08 -8.62 9.06 C-9.63 9.05 -10.63 9.04 -11.66 9.04 C-12.43 9.02 -13.21 9.01 -14 9 C-14 8.34 -14 7.68 -14 7 C-12.68 7 -11.36 7 -10 7 C-10 6.01 -10 5.02 -10 4 C-6.7 4.33 -3.4 4.66 0 5 C0 3.35 0 1.7 0 0 Z " fill="#5F6451" transform="translate(55,75)"/>
<path d="M0 0 C0.6 0.33 1.2 0.66 1.81 1 C4 2 4 2 7 2 C7 2.66 7 3.32 7 4 C6.01 4.66 5.02 5.32 4 6 C6.97 6.99 9.94 7.98 13 9 C12.67 10.32 12.34 11.64 12 13 C12 12.01 12 11.02 12 10 C11.01 10 10.02 10 9 10 C9 10.66 9 11.32 9 12 C7.02 11.34 5.04 10.68 3 10 C3 9.01 3 8.02 3 7 C2.01 7 1.02 7 0 7 C0 10 0 10 1 12 C-0.32 12.33 -1.64 12.66 -3 13 C-3 10.36 -3 7.72 -3 5 C-2.34 5 -1.68 5 -1 5 C-1 4.34 -1 3.68 -1 3 C-0.34 2.67 0.32 2.34 1 2 C0.67 1.34 0.34 0.68 0 0 Z " fill="#AFAA8A" transform="translate(53,53)"/>
<path d="M0 0 C0.66 0 1.32 0 2 0 C2 1.98 2 3.96 2 6 C3.94 5.19 3.94 5.19 6 4 C6.33 3.01 6.66 2.02 7 1 C7.66 1 8.32 1 9 1 C9 1.66 9 2.32 9 3 C9.66 3.33 10.32 3.66 11 4 C10.67 4.33 10.34 4.66 10 5 C10.99 5.33 11.98 5.66 13 6 C12.67 7.32 12.34 8.64 12 10 C12 9.34 12 8.68 12 8 C8.35 9.25 7.22 9.67 5 13 C3.68 12.67 2.36 12.34 1 12 C2.32 11.01 3.64 10.02 5 9 C3.35 9 1.7 9 0 9 C-0.88 2.85 -0.88 2.85 -1 1 C-0.67 0.67 -0.34 0.34 0 0 Z " fill="#4E594D" transform="translate(28,72)"/>
<path d="M0 0 C2.31 0.33 4.62 0.66 7 1 C7.33 2.65 7.66 4.3 8 6 C3.61 6.78 0.33 6.94 -4 6 C-5.34 6.31 -6.68 6.63 -8 7 C-8.66 6.67 -9.32 6.34 -10 6 C-10 5.01 -10 4.02 -10 3 C-10.99 2.67 -11.98 2.34 -13 2 C-10.51 0.75 -9.59 1.22 -7 2 C-7 2.99 -7 3.98 -7 5 C-6.22 4.5 -5.43 4.01 -4.62 3.5 C-2 2 -2 2 0 2 C0 1.34 0 0.68 0 0 Z " fill="#D6D4BE" transform="translate(42,103)"/>
<path d="M0 0 C0.99 0 1.98 0 3 0 C4.69 2 4.69 2 6 4 C5.01 4.99 4.02 5.98 3 7 C3 6.34 3 5.68 3 5 C1.29 6.63 0.07 7.87 -1 10 C-1.99 10 -2.98 10 -4 10 C-4 9.34 -4 8.68 -4 8 C-5.32 8.33 -6.64 8.66 -8 9 C-8 8.34 -8 7.68 -8 7 C-8.66 6.67 -9.32 6.34 -10 6 C-5.69 2.92 -5.69 2.92 -2.19 3.31 C-1.83 3.43 -1.83 3.43 0 4 C0 2.68 0 1.36 0 0 Z " fill="#696E58" transform="translate(27,67)"/>
<path d="M0 0 C0.99 0.33 1.98 0.66 3 1 C3.15 10.27 3.15 10.27 2 13 C-1 15 -1 15 -4 15 C-3.34 13.35 -2.68 11.7 -2 10 C-2.66 9.67 -3.32 9.34 -4 9 C-3.34 9 -2.68 9 -2 9 C-2 8.34 -2 7.68 -2 7 C-2.99 7 -3.98 7 -5 7 C-4.67 5.68 -4.34 4.36 -4 3 C-4 3.99 -4 4.98 -4 6 C-3.34 6 -2.68 6 -2 6 C-1.34 4.02 -0.68 2.04 0 0 Z " fill="#69766A" transform="translate(39,40)"/>
<path d="" fill="#D6D7D4" transform="translate(0,0)"/>
<path d="M0 0 C2 1 2 1 2 1 Z " fill="#F2F2F3" transform="translate(26,59)"/>
</svg>
