<svg xmlns="http://www.w3.org/2000/svg" width="1200" height="694" viewBox="0 0 1200 694">
<g class="fork">
<path d="M 582.2,644.9 L 587.9,647.8 L 593.2,652.5 L 611.1,643.7 L 640.1,623.0 L 663.4,610.8 L 699.9,595.8 L 681.7,596.4 L 685.5,599.1 L 677.4,603.3 L 669.9,591.3 L 676.2,597.6 L 675.7,594.3 L 688.5,588.9 L 691.7,595.1 L 700.0,586.5 L 708.5,583.5 L 709.7,592.0 L 723.7,581.6 L 724.2,577.5 L 739.7,570.3 L 749.0,562.8 L 754.7,560.8 L 755.7,558.0 L 764.6,559.0 L 775.6,554.6 L 771.6,559.8 L 780.6,554.7 L 792.3,558.9 L 808.1,550.5 L 829.0,552.2 L 829.2,550.5 L 838.3,536.7 L 853.0,535.6 L 861.4,524.1 L 873.5,524.6 L 885.0,517.2 L 892.8,520.3 L 896.0,515.8 L 909.7,517.8 L 922.8,514.4 L 923.4,511.4 L 942.0,503.7 L 951.2,516.0 L 969.3,518.5 L 970.5,516.0 L 993.6,512.2 L 999.1,499.5 L 1019.9,506.1 L 1028.8,497.5 L 1043.5,501.6 L 1054.5,496.7 L 1058.8,486.3 L 1069.1,480.4 L 1081.0,471.2 L 1097.8,476.2 L 1104.2,476.9 L 1121.3,481.2 L 1135.5,470.2 L 1136.9,466.2 L 1145.3,465.8 L 1158.9,451.3 L 1179.4,455.3 L 1197.6,447.7 L 1195.9,456.1 L 1206.5,454.6 L 1209.2,464.8 L 1224.2,462.5 L 1221.8,452.1 L 1234.8,447.7 L 1248.5,441.4 L 1259.2,443.7 L 1264.5,436.6 L 1274.9,434.3 L 1280.5,434.5 L 1283.8,430.9 L 1287.7,420.6 L 1299.0,420.9 L 1298.4,421.0 L 1308.2,401.0 L 1320.7,393.5 L 1330.1,381.5 L 1296.0,363.8 L 1252.7,352.6 L 1226.4,342.3 L 1229.0,322.7 L 1229.8,311.3 L 1233.8,313.4 L 1234.6,312.7 L 1239.4,307.8 L 1241.4,309.6 L 1230.0,314.0 L 1224.6,316.8 L 1224.0,309.9 L 1227.1,303.8 L 1223.4,303.8 L 1214.0,313.1 L 1213.3,314.9 L 1206.9,324.6 L 1194.7,323.9 L 1183.1,325.1 L 1176.3,323.7 L 1174.1,322.3 L 1160.0,320.7 L 1141.8,332.8 L 1140.2,330.4 L 1119.3,324.5 L 1114.3,321.4 L 1107.6,315.7 L 1094.9,326.1 L 1082.9,329.4 L 1066.3,326.8 L 1057.6,325.7 L 1045.8,326.3 L 1030.5,325.4 L 1017.7,323.4 L 1003.4,328.8 L 987.3,327.0 L 975.7,326.4 L 961.9,328.6 L 953.4,324.7 L 933.3,340.3 L 920.1,346.8 L 916.6,345.9 L 904.4,350.5 L 897.2,353.9 L 876.4,355.9 L 872.1,354.1 L 854.2,360.3 L 847.4,353.0 L 833.1,357.3 L 813.3,365.2 L 805.5,371.4 L 797.5,367.4 L 782.8,363.5 L 774.9,352.4 L 767.8,363.6 L 758.5,368.4 L 748.7,365.8 L 729.9,364.0 L 728.8,376.7 L 719.5,370.5 L 708.4,379.5 L 693.7,384.8 L 682.8,380.6 L 672.6,380.8 L 672.7,371.4 L 660.2,371.7 L 647.7,373.6 L 641.5,376.3 L 625.5,384.4 L 626.2,377.1 L 621.7,382.9 L 616.6,384.1 L 597.8,389.5 L 581.5,395.0 L 564.6,397.1 L 556.7,406.0 L 545.4,407.8 L 534.3,410.2 L 555.2,397.3 L 577.5,383.7 L 606.2,380.8 L 589.2,370.9 L 581.5,372.5 L 578.1,360.5 L 580.6,461.0 L 576.2,555.0 Z" fill="#515547"/>
<path d="M 573.6,646.8 L 577.9,643.8 L 593.4,651.4 L 602.9,651.9 L 638.2,635.5 L 667.4,620.9 L 710.7,606.1 L 701.1,610.1 L 692.6,616.6 L 691.6,620.5 L 695.1,619.7 L 698.7,624.8 L 696.1,616.4 L 700.0,617.9 L 705.0,612.4 L 709.8,614.4 L 714.1,604.0 L 717.9,608.4 L 721.7,610.3 L 724.1,597.1 L 737.7,593.6 L 739.3,596.2 L 750.6,596.0 L 763.9,593.2 L 768.8,586.9 L 783.7,590.8 L 792.0,583.6 L 794.9,581.1 L 804.6,572.7 L 810.1,570.6 L 818.8,565.1 L 837.4,567.2 L 847.2,558.7 L 856.6,551.0 L 865.1,558.2 L 876.7,557.7 L 885.0,550.6 L 889.7,545.8 L 908.0,543.8 L 916.5,542.0 L 925.4,532.4 L 943.1,533.6 L 946.9,531.2 L 963.2,530.7 L 967.0,524.8 L 982.3,527.5 L 991.0,526.8 L 1002.9,522.4 L 1013.6,514.7 L 1034.4,512.8 L 1044.7,510.5 L 1056.0,503.0 L 1068.1,499.2 L 1079.6,497.7 L 1080.7,489.5 L 1102.6,483.4 L 1107.8,483.4 L 1127.7,482.8 L 1140.9,478.5 L 1148.9,476.7 L 1160.8,477.4 L 1162.8,472.2 L 1170.9,464.9 L 1182.5,466.0 L 1193.0,456.2 L 1208.0,450.0 L 1218.5,446.3 L 1228.4,450.0 L 1234.3,449.7 L 1240.7,447.5 L 1244.6,440.4 L 1254.5,441.6 L 1263.9,433.1 L 1270.6,434.3 L 1277.2,428.6 L 1280.7,424.3 L 1285.1,419.9 L 1288.2,418.2 L 1293.7,420.0 L 1308.8,407.8 L 1314.4,398.3 L 1325.3,386.8 L 1290.6,375.5 L 1257.3,351.8 L 1214.1,336.5 L 1225.8,326.5 L 1225.2,326.4 L 1234.4,320.2 L 1238.6,323.7 L 1236.7,317.6 L 1238.3,321.8 L 1233.6,321.0 L 1233.6,315.4 L 1225.3,316.5 L 1219.6,316.6 L 1222.2,320.3 L 1210.4,318.0 L 1203.6,323.1 L 1193.0,324.5 L 1191.0,320.0 L 1182.8,320.4 L 1167.8,318.0 L 1158.4,318.2 L 1157.2,317.4 L 1143.6,316.5 L 1133.3,315.8 L 1124.2,316.6 L 1106.6,316.9 L 1093.3,316.0 L 1088.6,319.1 L 1074.7,319.9 L 1067.2,328.6 L 1049.6,317.5 L 1036.1,323.2 L 1024.7,314.3 L 1007.1,322.8 L 994.5,322.3 L 987.1,320.4 L 974.3,328.2 L 968.4,321.9 L 947.9,324.9 L 935.7,332.0 L 923.7,327.2 L 918.8,328.8 L 899.6,324.0 L 886.4,325.5 L 879.2,325.7 L 866.4,326.2 L 855.0,334.7 L 842.3,334.7 L 830.8,333.9 L 821.3,335.2 L 805.7,338.5 L 795.5,333.6 L 784.5,335.7 L 774.5,333.9 L 764.6,339.9 L 750.8,335.2 L 745.0,341.7 L 738.4,336.5 L 721.7,342.0 L 714.5,341.0 L 702.8,338.9 L 693.0,343.0 L 679.8,350.2 L 669.1,349.8 L 657.2,343.3 L 647.9,344.3 L 644.1,343.9 L 637.2,346.1 L 627.3,347.4 L 612.7,349.6 L 608.7,352.0 L 596.1,358.4 L 585.0,362.2 L 571.4,373.5 L 558.0,379.4 L 549.4,385.1 L 526.7,394.5 L 519.6,400.6 L 546.6,390.9 L 569.4,383.0 L 592.4,370.8 L 590.4,382.4 L 578.7,386.3 L 572.8,385.4 L 568.7,466.9 L 572.3,560.8 Z" fill="#726F58"/>
<path d="M 1243.9,386.3 L 1224.9,405.4 L 1203.3,408.9 L 1173.2,406.2 L 1171.0,386.3 L 1183.2,369.9 L 1203.3,363.2 L 1223.4,370.4 Z" fill="#726F58" opacity="0.85"/>
<path d="M 1206.7,391.5 L 1200.3,413.2 L 1175.5,412.9 L 1158.7,406.2 L 1148.7,391.5 L 1147.0,369.2 L 1175.5,362.0 L 1202.5,379.1 Z" fill="#726F58" opacity="0.85"/>
<path d="M 670.0,489.6 L 671.7,509.4 L 643.8,522.5 L 619.9,510.6 L 601.1,489.6 L 622.7,475.2 L 643.8,465.6 L 672.0,477.4 Z" fill="#726F58" opacity="0.85"/>
<path d="M 925.1,434.6 L 917.4,456.5 L 896.5,472.1 L 874.6,451.1 L 850.7,434.6 L 871.7,417.7 L 896.5,400.2 L 916.8,414.1 Z" fill="#5B5E47" opacity="0.85"/>
<path d="M 702.0,489.6 L 692.2,511.7 L 643.8,520.1 L 608.1,511.9 L 582.5,489.6 L 614.0,463.3 L 643.8,447.5 L 672.2,459.1 Z" fill="#5B5E47" opacity="0.85"/>
<path d="M 910.3,440.3 L 895.5,466.2 L 862.8,469.0 L 838.4,465.3 L 809.1,440.3 L 831.9,421.0 L 862.8,416.5 L 894.6,413.2 Z" fill="#726F58" opacity="0.85"/>
<path d="M 1234.0,386.3 L 1224.7,397.3 L 1203.3,401.6 L 1186.0,396.0 L 1172.6,386.3 L 1180.0,376.2 L 1203.3,370.8 L 1223.5,376.5 Z" fill="#726F58" opacity="0.85"/>
<path d="M 1052.7,418.1 L 1026.9,440.4 L 1003.4,449.3 L 978.8,442.9 L 953.7,418.1 L 969.8,392.6 L 1003.4,388.5 L 1023.5,403.4 Z" fill="#5B5E47" opacity="0.85"/>
<path d="M 971.3,429.1 L 955.7,444.8 L 931.4,467.6 L 908.5,444.6 L 892.2,429.1 L 907.2,407.1 L 931.4,394.3 L 966.3,410.3 Z" fill="#726F58" opacity="0.85"/>
<path d="M 1215.0,391.5 L 1195.4,405.2 L 1175.5,410.9 L 1146.4,407.3 L 1138.6,391.5 L 1150.6,368.3 L 1175.5,360.3 L 1195.6,370.5 Z" fill="#726F58" opacity="0.85"/>
<path d="M 493.3,629.7 L 493.0,647.7 L 489.3,669.5 L 491.2,691.6 L 523.7,701.1 L 567.4,716.0 L 596.7,728.8 L 634.7,720.5 L 673.5,707.6 L 712.7,702.5 L 712.7,679.1 L 715.5,647.2 L 709.7,628.1 L 634.6,622.5 L 563.8,620.9 Z" fill="#9D9FA1"/>
<path d="M 490.2,620.5 L 487.6,654.4 L 491.9,682.4 L 544.4,698.5 L 600.3,716.3 L 653.9,709.8 L 711.4,696.1 L 713.8,662.1 L 708.1,627.5 L 601.1,625.3 Z" fill="#9D9FA1" opacity="0.8"/>
<path d="M 512.5,596.8 L 509.9,633.5 L 511.6,668.3 L 506.7,696.4 L 536.0,715.3 L 560.7,743.0 L 588.0,763.5 L 608.5,759.9 L 634.8,759.0 L 666.2,764.2 L 684.5,726.8 L 718.4,696.7 L 739.7,668.2 L 737.7,643.8 L 735.6,623.0 L 736.9,597.8 L 667.2,601.8 L 591.1,595.7 Z" fill="#666A6C"/>
<path d="M 511.8,603.7 L 513.6,642.3 L 514.2,686.9 L 550.1,715.0 L 586.2,744.1 L 622.8,745.5 L 663.1,749.2 L 703.9,704.2 L 741.6,663.3 L 742.8,629.1 L 735.9,598.9 L 628.9,604.5 Z" fill="#9D9FA1" opacity="0.8"/>
<path d="M 578.0,581.7 L 579.1,599.2 L 584.4,615.2 L 583.2,638.4 L 595.0,661.7 L 608.8,677.9 L 619.5,700.3 L 639.4,707.2 L 647.7,714.9 L 660.3,715.0 L 678.7,699.6 L 693.7,681.1 L 704.0,659.9 L 723.2,650.2 L 736.6,642.5 L 746.7,633.0 L 750.0,621.2 L 743.8,595.1 L 744.1,576.0 L 692.8,579.8 L 639.1,575.6 Z" fill="#666A6C"/>
<path d="M 578.7,578.2 L 578.0,607.1 L 586.0,630.7 L 607.2,667.1 L 624.0,689.7 L 644.7,701.7 L 664.3,701.3 L 688.5,682.3 L 706.6,657.4 L 729.9,646.1 L 743.8,634.2 L 750.2,602.4 L 746.9,579.0 L 669.1,581.8 Z" fill="#9D9FA1" opacity="0.8"/>
<path d="M 656.3,564.5 L 654.3,587.0 L 648.4,609.2 L 657.6,638.0 L 670.7,643.0 L 683.1,656.4 L 695.8,659.7 L 711.9,667.0 L 725.4,679.9 L 730.3,678.6 L 746.9,664.6 L 760.4,648.0 L 777.3,631.3 L 775.9,608.5 L 773.4,586.2 L 770.3,562.6 L 733.9,562.5 L 696.7,564.2 Z" fill="#9D9FA1"/>
<path d="M 650.5,558.6 L 652.4,599.6 L 656.9,633.4 L 675.7,640.2 L 689.7,650.6 L 716.2,658.8 L 734.9,671.7 L 757.0,646.9 L 773.7,628.5 L 777.4,591.1 L 770.8,563.7 L 713.9,562.8 Z" fill="#9D9FA1" opacity="0.8"/>
<path d="M 675.8,538.4 L 679.4,558.9 L 674.4,566.7 L 681.1,575.7 L 691.0,587.7 L 712.0,587.6 L 728.7,594.3 L 742.6,621.2 L 754.0,642.5 L 765.5,667.0 L 786.6,654.4 L 797.6,642.3 L 810.4,635.4 L 830.9,618.3 L 847.8,603.4 L 858.6,591.1 L 856.9,574.9 L 864.1,553.8 L 857.0,541.0 L 801.6,542.4 L 738.4,546.1 Z" fill="#5B6470"/>
<path d="M 681.7,539.4 L 679.4,563.1 L 682.8,577.1 L 702.6,583.4 L 728.5,591.4 L 744.0,627.9 L 772.9,658.2 L 789.4,639.2 L 813.8,622.0 L 833.5,609.0 L 860.0,584.1 L 855.5,559.0 L 862.9,541.0 L 766.7,546.9 Z" fill="#9D9FA1" opacity="0.8"/>
<path d="M 764.7,525.8 L 766.1,543.6 L 773.3,564.0 L 769.5,583.6 L 781.8,586.2 L 800.4,594.7 L 805.1,596.0 L 825.9,594.2 L 837.3,583.3 L 850.1,580.9 L 864.5,576.4 L 874.5,581.2 L 891.5,576.6 L 892.9,556.6 L 892.8,545.2 L 888.4,526.8 L 855.3,529.7 L 810.5,520.8 Z" fill="#5B6470"/>
<path d="M 766.8,520.9 L 771.9,550.3 L 767.1,574.6 L 790.9,585.0 L 809.6,584.9 L 827.3,585.3 L 854.6,581.2 L 867.8,575.8 L 894.8,571.2 L 888.1,545.5 L 896.3,522.5 L 832.3,522.9 Z" fill="#9D9FA1" opacity="0.8"/>
<path d="M 814.5,509.3 L 816.7,524.8 L 819.0,530.1 L 819.0,544.0 L 840.1,576.2 L 871.6,603.1 L 899.8,632.1 L 917.8,603.0 L 949.6,574.5 L 975.0,548.3 L 970.2,531.5 L 977.0,519.5 L 978.3,512.7 L 923.0,510.7 L 866.4,506.5 Z" fill="#9D9FA1"/>
<path d="M 820.0,507.0 L 820.2,527.5 L 822.6,544.8 L 857.0,580.0 L 897.4,617.8 L 936.7,579.9 L 969.3,544.1 L 970.1,528.5 L 972.4,508.9 L 898.5,509.0 Z" fill="#9D9FA1" opacity="0.8"/>
<path d="M 889.1,496.6 L 898.0,511.0 L 894.2,517.9 L 894.2,535.1 L 905.6,541.0 L 915.2,539.4 L 926.9,533.0 L 939.0,550.3 L 951.2,568.0 L 966.4,579.7 L 976.6,567.2 L 987.0,549.4 L 1000.5,537.8 L 1019.2,529.9 L 1025.4,524.1 L 1035.6,515.3 L 1041.5,509.4 L 1043.9,500.2 L 1040.8,489.1 L 991.9,496.4 L 943.7,488.4 Z" fill="#5B6470"/>
<path d="M 896.1,496.1 L 889.9,513.5 L 890.3,533.5 L 910.1,537.6 L 933.9,536.8 L 951.2,555.5 L 967.5,577.6 L 983.5,555.5 L 1006.4,534.9 L 1020.1,529.2 L 1041.2,518.7 L 1042.6,501.6 L 1042.0,493.1 L 965.9,488.4 Z" fill="#9D9FA1" opacity="0.8"/>
<path d="M 998.6,475.2 L 992.6,491.8 L 996.2,505.6 L 994.4,518.2 L 1014.0,538.6 L 1027.2,557.7 L 1040.9,571.2 L 1054.5,557.3 L 1065.3,544.6 L 1083.1,521.8 L 1082.1,505.5 L 1082.2,497.1 L 1082.8,473.1 L 1052.6,475.1 L 1029.3,476.3 Z" fill="#9D9FA1"/>
<path d="M 995.6,480.8 L 998.4,492.8 L 999.1,519.5 L 1017.1,543.4 L 1035.7,569.5 L 1066.8,548.4 L 1088.3,523.9 L 1085.7,498.9 L 1083.9,476.4 L 1036.8,472.7 Z" fill="#9D9FA1" opacity="0.8"/>
<path d="M 1036.5,464.1 L 1040.6,470.1 L 1042.5,475.4 L 1041.2,489.8 L 1063.1,512.0 L 1085.7,536.5 L 1114.5,553.7 L 1136.3,540.1 L 1159.0,528.3 L 1183.4,506.4 L 1185.9,491.4 L 1179.7,479.4 L 1177.8,465.5 L 1139.2,464.6 L 1091.3,460.8 Z" fill="#666A6C"/>
<path d="M 1041.8,463.4 L 1040.8,472.8 L 1039.8,488.8 L 1071.2,517.4 L 1111.7,549.9 L 1150.7,532.7 L 1184.2,503.0 L 1179.2,486.6 L 1184.9,458.5 L 1115.5,463.8 Z" fill="#9D9FA1" opacity="0.8"/>
<path d="M 1133.6,450.5 L 1138.0,464.1 L 1139.0,481.2 L 1140.6,500.0 L 1149.8,508.1 L 1157.5,511.8 L 1162.9,514.5 L 1169.4,509.7 L 1180.0,506.0 L 1189.5,507.4 L 1195.2,505.9 L 1203.2,507.0 L 1215.6,501.5 L 1216.3,484.7 L 1211.8,464.7 L 1209.3,451.2 L 1189.7,447.4 L 1163.2,444.5 Z" fill="#85888D"/>
<path d="M 1138.1,443.0 L 1139.0,475.4 L 1142.4,498.9 L 1148.1,506.1 L 1164.3,510.1 L 1171.3,504.9 L 1192.8,499.7 L 1198.3,496.9 L 1217.6,500.8 L 1210.7,472.8 L 1215.1,446.0 L 1180.1,444.7 Z" fill="#9D9FA1" opacity="0.8"/>
<path d="M 1183.3,431.5 L 1181.4,443.0 L 1187.5,457.9 L 1184.2,467.3 L 1188.9,473.5 L 1200.7,472.2 L 1205.9,481.9 L 1216.3,484.2 L 1222.4,495.8 L 1224.1,494.1 L 1231.8,502.4 L 1245.8,504.7 L 1252.2,504.8 L 1256.0,498.2 L 1261.7,493.0 L 1265.1,481.3 L 1267.4,465.4 L 1266.4,446.1 L 1266.9,429.5 L 1240.1,436.0 L 1215.6,430.3 Z" fill="#85888D"/>
<path d="M 1185.5,433.7 L 1189.3,452.2 L 1183.5,465.8 L 1191.9,468.4 L 1205.9,478.9 L 1220.0,488.2 L 1230.1,494.2 L 1235.1,497.3 L 1251.0,500.5 L 1261.4,486.4 L 1272.5,478.8 L 1265.4,456.0 L 1267.3,430.9 L 1228.6,430.4 Z" fill="#9D9FA1" opacity="0.8"/>
<path d="M 1217.0,419.9 L 1214.0,428.1 L 1213.5,437.9 L 1212.9,447.5 L 1226.4,464.3 L 1237.5,485.1 L 1248.5,501.5 L 1258.7,501.1 L 1265.8,504.3 L 1275.2,499.5 L 1285.0,483.4 L 1295.3,467.1 L 1305.1,446.7 L 1310.6,440.0 L 1304.8,430.4 L 1307.5,424.1 L 1273.2,415.2 L 1243.9,423.5 Z" fill="#9D9FA1"/>
<path d="M 1211.0,418.9 L 1211.8,435.9 L 1215.3,451.4 L 1230.1,472.4 L 1242.4,498.0 L 1262.8,493.2 L 1274.0,493.2 L 1295.9,476.3 L 1303.8,447.7 L 1310.0,431.1 L 1305.4,421.8 L 1259.1,422.5 Z" fill="#9D9FA1" opacity="0.8"/>
<path d="M 571.6,579.7 L 578.4,583.1 L 590.0,584.3 L 598.3,586.9 L 617.2,571.8 L 631.1,557.3 L 647.2,550.9 L 652.1,545.4 L 658.0,550.9 L 657.4,550.6 L 661.8,548.5 L 658.7,543.6 L 659.4,548.8 L 675.4,542.5 L 682.9,543.8 L 687.9,545.5 L 698.7,539.7 L 698.8,538.5 L 702.4,531.3 L 715.4,532.4 L 719.8,532.2 L 729.3,535.4 L 742.3,533.9 L 745.9,524.9 L 760.7,525.0 L 763.1,518.6 L 774.9,518.5 L 783.2,523.6 L 788.0,509.0 L 795.3,510.8 L 806.0,506.8 L 822.6,502.1 L 825.3,503.5 L 840.1,497.5 L 844.3,498.1 L 859.1,491.7 L 868.0,492.4 L 879.3,488.3 L 888.0,490.6 L 899.3,482.5 L 913.9,482.7 L 925.1,472.9 L 943.2,472.2 L 951.5,465.2 L 963.5,469.7 L 969.9,468.9 L 982.9,463.6 L 998.8,463.6 L 1005.1,456.2 L 1020.4,454.6 L 1028.9,450.3 L 1041.0,454.2 L 1054.7,455.1 L 1071.5,453.8 L 1084.5,443.2 L 1090.3,447.7 L 1107.6,441.9 L 1117.8,438.5 L 1131.7,440.2 L 1139.3,434.1 L 1152.6,425.6 L 1163.4,430.0 L 1174.7,428.4 L 1178.5,420.7 L 1191.8,423.9 L 1197.6,414.9 L 1207.6,408.7 L 1221.4,410.4 L 1231.7,412.4 L 1233.5,411.9 L 1245.8,405.2 L 1248.0,401.3 L 1255.9,403.4 L 1256.8,401.5 L 1262.7,393.9 L 1269.1,395.3 L 1269.5,386.9 L 1275.2,392.8 L 1276.9,384.9 L 1278.6,377.2 L 1289.4,378.0 L 1297.4,365.0 L 1274.5,363.8 L 1268.8,356.4 L 1254.4,345.0 L 1255.8,340.8 L 1255.0,344.8 L 1257.1,334.9 L 1257.0,345.7 L 1252.6,344.6 L 1251.7,347.0 L 1251.7,348.5 L 1243.9,342.9 L 1239.5,345.6 L 1230.6,353.4 L 1231.7,349.9 L 1225.6,348.9 L 1213.4,353.5 L 1213.0,357.0 L 1201.3,351.7 L 1190.6,355.9 L 1182.5,355.8 L 1172.7,365.0 L 1159.4,365.1 L 1146.2,355.9 L 1140.7,356.4 L 1125.3,365.5 L 1120.5,359.0 L 1110.7,360.0 L 1098.4,362.6 L 1079.6,362.4 L 1063.1,362.5 L 1057.8,369.6 L 1045.0,374.6 L 1034.3,380.4 L 1017.3,380.3 L 1006.4,380.0 L 998.5,384.4 L 984.7,375.6 L 971.6,382.7 L 952.6,374.6 L 950.6,382.3 L 935.9,384.6 L 922.5,386.7 L 913.4,388.2 L 905.1,390.9 L 884.9,387.1 L 879.7,388.1 L 860.8,386.7 L 853.9,383.2 L 844.6,387.8 L 831.3,393.1 L 819.5,393.4 L 810.5,393.1 L 799.7,390.5 L 785.9,399.2 L 776.7,397.0 L 767.2,396.7 L 764.3,395.5 L 752.0,401.1 L 737.7,403.1 L 725.1,407.8 L 714.9,406.9 L 702.0,406.9 L 694.5,400.5 L 689.7,409.9 L 682.1,409.3 L 671.5,420.4 L 668.0,423.2 L 658.9,420.7 L 650.0,420.8 L 639.3,429.9 L 631.5,432.4 L 622.2,430.9 L 608.7,431.8 L 600.7,438.0 L 598.9,437.9 L 581.6,448.4 L 571.3,452.2 L 558.2,454.3 L 578.2,450.6 L 593.5,445.7 L 604.4,439.2 L 594.4,445.1 L 578.6,451.9 L 573.5,447.2 L 576.5,494.0 L 569.0,530.8 Z" fill="#988C5D"/>
<path d="M 575.7,566.6 L 580.5,568.9 L 593.2,559.9 L 602.0,558.2 L 613.2,555.4 L 628.0,547.6 L 638.4,536.2 L 639.4,540.4 L 643.9,535.9 L 646.9,537.2 L 654.0,534.3 L 653.0,532.4 L 663.5,528.3 L 668.0,526.8 L 675.1,523.5 L 676.6,514.7 L 686.4,518.9 L 692.3,511.5 L 700.3,511.7 L 705.1,510.0 L 713.6,510.3 L 721.0,501.1 L 731.7,497.6 L 738.8,497.8 L 742.3,491.4 L 757.3,490.9 L 771.7,492.5 L 779.5,491.1 L 787.7,484.0 L 792.9,486.5 L 808.5,483.7 L 817.7,488.8 L 828.0,488.1 L 839.2,483.9 L 845.7,483.3 L 858.1,479.1 L 872.9,476.4 L 882.4,470.0 L 894.8,466.9 L 903.3,460.9 L 918.6,466.8 L 925.6,460.0 L 937.7,464.2 L 947.5,457.8 L 958.5,454.4 L 972.2,457.3 L 981.9,449.9 L 993.8,449.1 L 1009.2,447.4 L 1023.7,441.2 L 1032.7,437.2 L 1044.5,433.0 L 1052.0,436.0 L 1065.4,430.3 L 1079.3,431.1 L 1085.8,431.2 L 1097.2,424.0 L 1110.6,426.4 L 1124.5,421.8 L 1137.7,421.5 L 1148.9,421.4 L 1158.9,421.0 L 1167.5,414.9 L 1179.7,412.6 L 1189.5,411.0 L 1197.9,409.2 L 1206.8,406.9 L 1218.5,402.1 L 1223.1,400.5 L 1229.9,401.3 L 1240.2,400.7 L 1248.3,397.1 L 1248.5,395.4 L 1256.9,393.3 L 1260.7,394.0 L 1270.0,387.2 L 1273.9,385.5 L 1276.1,385.8 L 1278.3,381.4 L 1285.9,381.8 L 1291.4,375.4 L 1297.3,370.6 L 1279.3,368.4 L 1267.0,358.8 L 1254.7,351.6 L 1255.3,346.6 L 1259.3,347.1 L 1257.9,349.6 L 1258.8,350.0 L 1252.9,350.6 L 1254.5,354.6 L 1251.9,349.5 L 1242.1,352.3 L 1241.0,355.6 L 1238.9,358.9 L 1232.9,357.3 L 1224.2,364.2 L 1215.2,360.3 L 1209.0,367.2 L 1198.0,369.4 L 1194.0,363.2 L 1183.4,367.5 L 1170.4,361.9 L 1159.4,369.2 L 1155.2,371.4 L 1140.1,370.8 L 1132.9,377.0 L 1120.2,379.6 L 1108.6,377.1 L 1099.9,375.7 L 1083.3,377.7 L 1075.6,376.9 L 1061.9,378.8 L 1049.5,387.3 L 1038.1,391.6 L 1023.3,393.3 L 1010.1,387.9 L 1003.2,393.7 L 987.0,392.6 L 976.6,393.4 L 962.1,397.2 L 952.9,399.9 L 941.4,396.1 L 928.0,397.5 L 914.3,402.5 L 903.2,400.8 L 890.6,401.1 L 876.5,408.9 L 864.5,408.9 L 853.9,403.2 L 844.0,407.6 L 832.6,415.4 L 819.3,412.5 L 811.0,417.4 L 802.8,417.1 L 791.3,418.0 L 776.6,421.3 L 771.5,425.3 L 759.9,426.8 L 747.5,425.4 L 744.6,430.6 L 731.6,437.0 L 725.8,437.3 L 719.5,437.8 L 706.9,437.2 L 696.5,437.0 L 690.6,443.1 L 678.3,438.7 L 671.8,446.3 L 662.6,442.0 L 656.3,443.2 L 647.1,446.8 L 636.4,450.2 L 629.1,449.7 L 621.2,451.5 L 613.9,453.2 L 603.9,454.7 L 595.6,461.4 L 581.0,464.9 L 575.0,468.1 L 585.5,463.8 L 594.3,470.7 L 602.4,464.9 L 589.4,464.3 L 587.2,462.0 L 572.4,457.7 L 576.2,498.1 L 577.3,528.7 Z" fill="#B8A45F"/>
<path d="M 569.5,539.4 L 580.3,541.1 L 592.7,538.1 L 597.4,539.3 L 609.2,533.5 L 618.0,523.2 L 623.5,519.6 L 625.9,520.4 L 628.6,519.1 L 631.6,513.7 L 637.9,515.4 L 647.9,508.1 L 652.3,509.2 L 658.7,504.6 L 663.0,503.4 L 669.2,501.1 L 673.7,495.6 L 682.1,496.2 L 692.6,492.2 L 703.1,491.8 L 707.0,490.4 L 719.7,484.2 L 729.3,483.7 L 737.2,480.8 L 744.3,479.3 L 751.9,473.0 L 764.2,476.9 L 770.2,469.9 L 779.5,471.4 L 789.2,470.2 L 804.3,469.7 L 814.1,465.8 L 824.8,465.1 L 833.4,460.5 L 844.0,460.1 L 854.6,459.2 L 868.1,453.7 L 879.2,453.8 L 888.4,452.6 L 903.1,453.4 L 914.5,453.7 L 921.7,448.1 L 935.6,444.9 L 947.6,444.2 L 959.4,444.6 L 968.5,443.0 L 982.5,438.8 L 993.2,437.9 L 1003.5,430.3 L 1016.4,433.5 L 1029.3,434.0 L 1038.9,429.3 L 1053.7,429.0 L 1063.6,424.4 L 1075.5,423.8 L 1086.5,422.4 L 1102.0,419.5 L 1112.0,412.4 L 1123.5,413.5 L 1132.0,412.9 L 1145.6,409.7 L 1154.9,412.0 L 1165.9,406.9 L 1172.9,402.6 L 1188.9,400.1 L 1196.1,401.7 L 1208.5,399.0 L 1214.3,398.8 L 1221.5,397.5 L 1227.2,395.1 L 1233.7,391.1 L 1243.4,387.4 L 1248.8,385.6 L 1255.1,382.8 L 1258.1,381.3 L 1261.2,378.9 L 1269.2,378.2 L 1269.3,376.0 L 1269.4,371.0 L 1275.4,369.3 L 1276.3,368.3 L 1278.0,369.4 L 1271.9,364.8 L 1266.6,359.2 L 1262.4,358.2 L 1263.7,358.1 L 1265.9,356.0 L 1261.3,352.8 L 1264.6,359.0 L 1260.9,355.1 L 1260.2,360.6 L 1250.7,361.2 L 1249.4,363.2 L 1241.4,364.1 L 1237.5,366.9 L 1229.1,367.1 L 1227.2,366.7 L 1218.6,368.2 L 1210.0,371.5 L 1202.9,370.6 L 1190.5,373.8 L 1179.7,376.3 L 1173.4,380.2 L 1165.7,381.3 L 1154.8,378.2 L 1140.2,380.9 L 1128.3,385.3 L 1119.0,387.5 L 1109.2,388.1 L 1097.7,389.6 L 1086.5,391.3 L 1074.3,391.5 L 1063.1,390.3 L 1050.5,395.5 L 1037.9,392.3 L 1027.4,396.6 L 1011.5,401.7 L 997.3,405.8 L 984.5,407.3 L 977.7,403.8 L 964.6,405.1 L 953.7,409.4 L 943.1,409.5 L 927.9,409.0 L 919.8,415.8 L 907.6,417.3 L 893.6,419.8 L 879.7,421.7 L 867.4,422.8 L 854.7,423.5 L 846.8,425.3 L 838.4,427.5 L 827.4,429.8 L 816.5,434.4 L 808.5,433.2 L 795.5,437.5 L 785.1,438.0 L 774.6,438.7 L 764.0,444.1 L 756.3,442.5 L 746.8,449.9 L 735.4,448.4 L 727.7,450.6 L 717.5,453.9 L 709.9,456.5 L 700.4,454.0 L 695.2,459.5 L 686.7,458.9 L 679.4,462.1 L 669.1,462.9 L 658.8,464.6 L 652.0,467.7 L 646.6,469.7 L 637.6,468.7 L 630.9,477.0 L 623.2,479.3 L 615.9,481.5 L 611.2,481.7 L 602.8,486.8 L 591.9,488.7 L 599.3,491.0 L 600.4,491.8 L 600.5,492.6 L 592.2,492.4 L 580.5,486.6 L 570.2,486.9 L 572.7,502.1 L 571.2,522.2 Z" fill="#ECD1A7" opacity="0.85"/>
<circle cx="601.7" cy="508.6" r="6.0" fill="#988C5D" opacity=".5"/>
<circle cx="1179.1" cy="399.2" r="1.8" fill="#988C5D" opacity=".5"/>
<circle cx="1146.2" cy="380.1" r="2.3" fill="#988C5D" opacity=".5"/>
<circle cx="681.6" cy="501.0" r="4.0" fill="#988C5D" opacity=".5"/>
<circle cx="840.2" cy="451.1" r="2.3" fill="#988C5D" opacity=".5"/>
<circle cx="763.6" cy="460.1" r="3.9" fill="#988C5D" opacity=".5"/>
<circle cx="682.7" cy="487.1" r="4.7" fill="#988C5D" opacity=".5"/>
<circle cx="587.2" cy="527.4" r="7.6" fill="#988C5D" opacity=".5"/>
<circle cx="1001.5" cy="404.7" r="3.9" fill="#988C5D" opacity=".5"/>
<circle cx="864.3" cy="414.9" r="2.4" fill="#988C5D" opacity=".5"/>
<circle cx="1270.8" cy="363.4" r="2.8" fill="#988C5D" opacity=".5"/>
<circle cx="612.0" cy="505.0" r="3.6" fill="#988C5D" opacity=".5"/>
<circle cx="1133.3" cy="405.8" r="3.0" fill="#988C5D" opacity=".5"/>
<circle cx="686.9" cy="462.3" r="5.0" fill="#988C5D" opacity=".5"/>
<circle cx="1254.0" cy="371.6" r="2.7" fill="#988C5D" opacity=".5"/>
<circle cx="1263.0" cy="354.6" r="1.7" fill="#988C5D" opacity=".5"/>
<circle cx="1162.8" cy="385.0" r="2.2" fill="#988C5D" opacity=".5"/>
<circle cx="773.7" cy="430.4" r="4.7" fill="#988C5D" opacity=".5"/>
<circle cx="900.8" cy="413.8" r="4.3" fill="#988C5D" opacity=".5"/>
<circle cx="727.4" cy="472.1" r="4.2" fill="#988C5D" opacity=".5"/>
<circle cx="1198.1" cy="373.1" r="2.6" fill="#988C5D" opacity=".5"/>
<circle cx="1235.7" cy="368.7" r="2.2" fill="#988C5D" opacity=".5"/>
<circle cx="1184.2" cy="388.9" r="3.0" fill="#988C5D" opacity=".5"/>
<circle cx="619.3" cy="545.2" r="4.2" fill="#988C5D" opacity=".5"/>
<path d="M 908.3,248.9 L 888.0,299.8 L 875.8,343.8 L 852.2,390.4 L 840.3,432.1 L 871.9,431.0 L 910.8,439.4 L 947.7,436.1 L 979.1,432.3 L 962.5,384.9 L 939.5,343.5 L 924.8,298.6 Z" fill="#5B5E47"/>
<path d="M 910.0,251.4 L 889.7,286.6 L 872.4,327.4 L 859.4,368.2 L 891.8,370.6 L 922.2,372.7 L 955.2,369.5 L 937.8,327.7 L 923.1,290.7 Z" fill="#726F58"/>
<path d="M 965.0,272.9 L 954.2,317.9 L 939.5,353.1 L 924.1,387.3 L 910.9,426.3 L 944.9,420.0 L 973.3,425.7 L 996.0,422.0 L 1026.0,421.3 L 1006.8,388.1 L 998.9,349.9 L 978.8,316.8 Z" fill="#5B5E47"/>
<path d="M 968.7,277.7 L 955.8,307.3 L 945.2,338.6 L 930.8,375.4 L 952.6,375.7 L 981.2,371.9 L 1005.9,371.9 L 992.2,342.3 L 984.5,310.8 Z" fill="#726F58"/>
<path d="M 828.3,274.4 L 810.2,309.7 L 796.6,344.5 L 783.5,383.6 L 766.2,423.4 L 797.0,423.3 L 821.5,426.2 L 848.6,429.1 L 886.0,423.4 L 868.2,386.5 L 853.1,348.6 L 835.7,313.3 Z" fill="#5B5E47"/>
<path d="M 824.8,276.3 L 812.1,305.5 L 796.9,338.9 L 784.5,372.2 L 808.3,370.7 L 834.4,372.9 L 861.2,370.6 L 848.6,341.2 L 834.4,308.8 Z" fill="#726F58"/>
<path d="M 758.2,249.8 L 737.3,301.5 L 718.8,362.4 L 698.7,413.5 L 675.1,467.1 L 719.6,465.2 L 758.2,472.1 L 802.1,465.3 L 841.6,471.6 L 818.6,416.0 L 804.8,359.9 L 776.5,305.8 Z" fill="#5B5E47"/>
<path d="M 761.8,250.6 L 744.0,295.4 L 718.8,346.7 L 699.5,392.2 L 741.5,389.9 L 776.6,392.2 L 814.8,394.3 L 799.5,345.4 L 778.0,300.4 Z" fill="#726F58"/>
<path d="M 1005.0,251.8 L 989.2,292.0 L 971.3,328.9 L 950.6,377.5 L 938.0,418.2 L 969.3,422.7 L 997.2,415.0 L 1030.7,423.6 L 1066.6,419.1 L 1051.2,381.0 L 1030.7,337.2 L 1016.8,293.9 Z" fill="#5B5E47"/>
<path d="M 1001.9,244.5 L 987.8,282.2 L 974.2,324.5 L 955.4,360.5 L 982.9,362.4 L 1016.2,356.1 L 1045.7,359.3 L 1031.2,319.1 L 1018.2,284.7 Z" fill="#726F58"/>
</g>
</svg>