<?xml version="1.0" encoding="UTF-8"?>
<!-- Generator: visioncortex VTracer 0.6.12 -->
<svg version="1.1" xmlns="http://www.w3.org/2000/svg" width="302" height="78">
<path d="M0 0 C5.77 0 11.54 0 17.3 -0 C26.96 -0 36.62 -0 46.27 0 C57.41 0.01 68.54 0.01 79.68 0 C89.3 -0 98.92 -0 108.54 -0 C114.26 0 119.98 0 125.71 -0 C131.07 -0 136.43 -0 141.8 0 C143.75 0 145.71 0 147.67 0 C175.76 -0.03 175.76 -0.03 179.39 3.51 C179.9 4.38 180.42 5.24 180.95 6.13 C181.79 6.55 182.64 6.96 183.51 7.38 C186.74 9.7 187 11.75 188.08 15.47 C190.7 23.55 194.62 30.51 200.73 36.42 C201.95 38.13 201.95 38.13 201.87 40.08 C200.72 42.65 199.19 44.4 197.32 46.51 C191.81 53.19 187.93 60.8 184.91 68.92 C183.6 71.93 181.55 73.2 178.95 75.13 C178.62 75.79 178.29 76.45 177.95 77.13 C172.31 78.32 166.69 78.28 160.95 78.26 C159.95 78.26 158.96 78.26 157.94 78.27 C154.63 78.27 151.32 78.27 148 78.26 C145.62 78.27 143.24 78.27 140.87 78.27 C135.08 78.27 129.3 78.27 123.51 78.27 C118.81 78.27 114.11 78.27 109.41 78.27 C108.74 78.27 108.07 78.27 107.38 78.27 C106.02 78.27 104.66 78.27 103.3 78.27 C90.56 78.27 77.81 78.27 65.07 78.26 C54.13 78.26 43.2 78.26 32.26 78.26 C19.55 78.27 6.85 78.27 -5.85 78.27 C-7.21 78.27 -8.56 78.27 -9.92 78.27 C-10.58 78.27 -11.25 78.27 -11.94 78.27 C-16.63 78.27 -21.33 78.27 -26.03 78.27 C-32.34 78.27 -38.66 78.27 -44.98 78.27 C-47.3 78.26 -49.62 78.26 -51.94 78.27 C-55.11 78.27 -58.27 78.27 -61.43 78.26 C-62.36 78.26 -63.28 78.27 -64.23 78.27 C-65.08 78.27 -65.93 78.26 -66.8 78.26 C-67.16 78.26 -67.16 78.26 -69.01 78.26 C-71.18 78.13 -73 77.84 -75.05 77.13 C-76.4 75.48 -77.73 73.81 -79.05 72.13 C-79.92 71.7 -80.78 71.27 -81.68 70.82 C-84.65 68.71 -84.72 67.03 -85.42 63.57 C-87.85 54.26 -93.37 46.85 -100.05 40.13 C-98.57 36.79 -96.62 34.34 -94.24 31.57 C-89.29 25.48 -85.81 18.89 -84.11 11.2 C-82.71 7.16 -80.67 6.24 -77.05 4.13 C-76.39 3.14 -75.73 2.15 -75.05 1.13 C-72.84 0.7 -72.84 0.7 -70 0.63 C-68.9 0.59 -67.81 0.56 -66.68 0.52 C-65.45 0.5 -64.22 0.48 -62.95 0.46 C-62.3 0.44 -62.3 0.44 -58.96 0.35 C-39.32 -0.1 -19.65 -0.01 0 0 Z " fill="#5A1A4D" transform="translate(100.051748752594,-0.13432550430297852)"/>
<path d="M0 0 C5.77 0 11.54 0 17.3 -0 C26.96 -0 36.62 -0 46.27 0 C57.41 0.01 68.54 0.01 79.68 0 C89.3 -0 98.92 -0 108.54 -0 C114.26 0 119.98 0 125.71 -0 C131.07 -0 136.43 -0 141.8 0 C143.75 0 145.71 0 147.67 0 C175.76 -0.03 175.76 -0.03 179.39 3.51 C179.9 4.38 180.42 5.24 180.95 6.13 C181.79 6.55 182.64 6.96 183.51 7.38 C186.74 9.7 187 11.75 188.08 15.47 C190.7 23.55 194.62 30.51 200.73 36.42 C201.95 38.13 201.95 38.13 201.87 40.08 C200.72 42.65 199.19 44.4 197.32 46.51 C191.81 53.19 187.93 60.8 184.91 68.92 C183.6 71.93 181.55 73.2 178.95 75.13 C178.62 75.79 178.29 76.45 177.95 77.13 C172.31 78.32 166.69 78.28 160.95 78.26 C159.95 78.26 158.96 78.26 157.94 78.27 C154.63 78.27 151.32 78.27 148 78.26 C145.62 78.27 143.24 78.27 140.87 78.27 C135.08 78.27 129.3 78.27 123.51 78.27 C118.81 78.27 114.11 78.27 109.41 78.27 C108.74 78.27 108.07 78.27 107.38 78.27 C106.02 78.27 104.66 78.27 103.3 78.27 C90.56 78.27 77.81 78.27 65.07 78.26 C54.13 78.26 43.2 78.26 32.26 78.26 C19.55 78.27 6.85 78.27 -5.85 78.27 C-7.21 78.27 -8.56 78.27 -9.92 78.27 C-10.58 78.27 -11.25 78.27 -11.94 78.27 C-16.63 78.27 -21.33 78.27 -26.03 78.27 C-32.34 78.27 -38.66 78.27 -44.98 78.27 C-47.3 78.26 -49.62 78.26 -51.94 78.27 C-55.11 78.27 -58.27 78.27 -61.43 78.26 C-62.36 78.26 -63.28 78.27 -64.23 78.27 C-65.08 78.27 -65.93 78.26 -66.8 78.26 C-67.16 78.26 -67.16 78.26 -69.01 78.26 C-71.18 78.13 -73 77.84 -75.05 77.13 C-76.4 75.48 -77.73 73.81 -79.05 72.13 C-79.92 71.7 -80.78 71.27 -81.68 70.82 C-84.65 68.71 -84.72 67.03 -85.42 63.57 C-87.85 54.26 -93.37 46.85 -100.05 40.13 C-98.57 36.79 -96.62 34.34 -94.24 31.57 C-89.29 25.48 -85.81 18.89 -84.11 11.2 C-82.71 7.16 -80.67 6.24 -77.05 4.13 C-76.39 3.14 -75.73 2.15 -75.05 1.13 C-72.84 0.7 -72.84 0.7 -70 0.63 C-68.9 0.59 -67.81 0.56 -66.68 0.52 C-65.45 0.5 -64.22 0.48 -62.95 0.46 C-62.3 0.44 -62.3 0.44 -58.96 0.35 C-39.32 -0.1 -19.65 -0.01 0 0 Z M-71.43 17.57 C-72.99 20.68 -74.03 23.81 -75.05 27.13 C-75.71 27.13 -76.37 27.13 -77.05 27.13 C-76 30.2 -75.02 32.17 -72.86 34.63 C-71.05 37.13 -71.05 37.13 -71.05 39.51 C-72.14 42.36 -73.56 44.69 -75.31 47.19 C-76.44 50.14 -75.86 52.12 -75.05 55.13 C-73.49 57.84 -73.49 57.84 -71.61 60.38 C-71 61.24 -70.38 62.09 -69.74 62.96 C-68.05 65.13 -68.05 65.13 -66.05 67.13 C-62.99 67.35 -60.03 67.43 -56.97 67.43 C-56.02 67.44 -55.06 67.44 -54.08 67.45 C-50.87 67.47 -47.65 67.48 -44.44 67.49 C-42.14 67.5 -39.85 67.51 -37.55 67.53 C-31.3 67.56 -25.05 67.58 -18.8 67.6 C-14.89 67.61 -10.99 67.62 -7.09 67.64 C3.72 67.67 14.53 67.7 25.33 67.71 C28.14 67.72 30.94 67.72 33.75 67.72 C34.44 67.73 35.14 67.73 35.86 67.73 C47.15 67.74 58.44 67.79 69.74 67.86 C81.33 67.93 92.92 67.96 104.51 67.97 C111.02 67.97 117.53 67.99 124.04 68.04 C130.16 68.09 136.28 68.1 142.41 68.08 C144.66 68.07 146.91 68.09 149.15 68.11 C152.22 68.15 155.29 68.14 158.36 68.11 C159.25 68.13 160.14 68.15 161.06 68.18 C164.79 68.1 167.03 68 169.81 65.37 C171.34 63.35 172.67 61.32 173.95 59.13 C174.53 58.35 175.1 57.56 175.7 56.74 C176.11 56.13 176.52 55.52 176.95 54.88 C177.38 54.26 177.81 53.64 178.26 52.99 C178.95 51.13 178.95 51.13 178.21 49.12 C177.79 48.46 177.38 47.81 176.95 47.13 C176.77 46.84 176.77 46.84 175.84 45.35 C175.49 44.79 175.13 44.22 174.76 43.63 C172.95 40.13 172.95 40.13 173.17 38.17 C174.33 35.15 176.2 32.74 178.08 30.13 C178.95 28.13 178.95 28.13 178.24 26.13 C177.81 25.47 177.39 24.81 176.95 24.13 C176.58 23.47 176.21 22.81 175.83 22.13 C175.44 21.47 175.04 20.81 174.64 20.13 C174.25 19.47 173.86 18.81 173.46 18.13 C171.48 15.52 169.71 13.94 166.95 12.13 C164.08 11.77 161.62 11.63 158.76 11.68 C158.36 11.68 158.36 11.68 156.31 11.68 C153.64 11.68 150.97 11.71 148.3 11.74 C146.45 11.75 144.6 11.76 142.74 11.76 C137.87 11.78 133 11.82 128.13 11.86 C123.16 11.9 118.18 11.92 113.21 11.94 C103.45 11.98 93.7 12.05 83.95 12.13 C83.95 12.46 83.95 12.79 83.95 13.13 C85.93 13.13 87.91 13.13 89.95 13.13 C90.09 13.68 90.09 13.68 90.82 16.45 C91.95 20.13 91.95 20.13 93.95 23.13 C93.29 22.8 93.29 22.8 89.95 21.13 C89.62 23.11 89.29 25.09 88.95 27.13 C87.96 27.13 86.97 27.13 85.95 27.13 C85.95 27.79 85.95 28.45 85.95 29.13 C84.63 29.79 83.31 30.45 81.95 31.13 C82.94 31.46 83.93 31.79 84.95 32.13 C84.62 32.63 84.62 32.63 82.95 35.13 C81.96 34.14 80.97 33.15 79.95 32.13 C79.95 33.78 79.95 35.43 79.95 37.13 C78.7 37.79 77.45 38.43 76.2 39.07 C75.5 39.43 74.81 39.79 74.09 40.16 C72.05 41.09 70.14 41.67 67.95 42.13 C67.95 43.12 67.95 44.11 67.95 45.13 C66.63 44.8 65.31 44.47 63.95 44.13 C64.28 45.12 64.61 46.11 64.95 47.13 C65.61 47.46 66.27 47.79 66.95 48.13 C65.3 48.79 63.65 49.45 61.95 50.13 C61.62 49.14 61.29 48.15 60.95 47.13 C59.63 47.46 58.31 47.79 56.95 48.13 C56.95 49.12 56.95 50.11 56.95 51.13 C53.28 51.13 49.61 51.13 45.95 51.13 C45.7 50.49 45.45 49.86 45.2 49.2 C43.95 47.13 43.95 47.13 41.95 46.32 C39.95 46.13 39.95 46.13 37.95 47.13 C37.95 47.79 37.95 48.45 37.95 49.13 C37.08 48.93 36.22 48.72 35.32 48.51 C31.54 48.09 29.47 48.83 25.95 50.13 C24.63 50.13 23.31 50.13 21.95 50.13 C21.45 50.3 21.45 50.3 18.95 51.13 C18.89 50.75 18.89 50.75 18.57 48.82 C17.95 46.13 17.95 46.13 15.95 43.13 C15.29 43.13 14.63 43.13 13.95 43.13 C13.29 44.12 12.63 45.11 11.95 46.13 C11.62 45.14 11.29 44.15 10.95 43.13 C11.94 42.8 12.93 42.47 13.95 42.13 C16.09 39.36 16.9 37.5 17.32 34.01 C16.9 30.73 16.48 30.12 13.95 28.13 C11.79 27.54 11.79 27.54 9.45 27.2 C5.16 26.39 5.16 26.39 3.14 24.01 C2.94 23.7 2.94 23.7 1.95 22.13 C0.63 22.13 -0.69 22.13 -2.05 22.13 C-3.44 20.17 -4.78 18.17 -6.05 16.13 C-6.71 16.13 -7.37 16.13 -8.05 16.13 C-8.05 15.47 -8.05 14.81 -8.05 14.13 C-6.9 13.97 -6.9 13.97 -1.05 13.13 C-1.05 12.8 -1.05 12.47 -1.05 12.13 C-9.37 11.79 -17.69 11.52 -26.01 11.36 C-29.88 11.28 -33.74 11.17 -37.6 11 C-66.15 9.77 -66.15 9.77 -71.43 17.57 Z " fill="#301024" transform="translate(100.051748752594,-0.13432550430297852)"/>
<path d="M0 0 C4.08 0.01 8.16 0 12.24 -0 C19.11 -0.01 25.99 -0 32.87 0.01 C39.8 0.02 46.72 0.02 53.65 0.01 C118.65 -0.08 118.65 -0.08 150.86 0.92 C153.24 1 155.62 1.06 158 1.13 C161.21 1.21 164.42 1.33 167.63 1.45 C168.1 1.46 168.1 1.46 170.46 1.52 C176.69 1.8 176.69 1.8 179.88 4.32 C180.34 4.96 180.81 5.61 181.28 6.27 C180.95 6.93 180.62 7.59 180.28 8.27 C179.94 7.78 179.6 7.29 179.24 6.79 C176.33 4.53 173.41 4.87 169.87 4.93 C169.5 4.93 169.5 4.93 167.59 4.93 C165.11 4.93 162.63 4.95 160.14 4.98 C158.42 4.98 156.7 4.99 154.98 4.99 C150.45 5 145.91 5.03 141.38 5.06 C136.76 5.09 132.13 5.11 127.51 5.12 C118.43 5.15 109.36 5.21 100.28 5.27 C100.43 5.55 100.43 5.55 101.16 6.95 C101.53 7.67 101.9 8.4 102.28 9.14 C102.65 9.86 103.02 10.58 103.41 11.32 C104.28 13.27 104.28 13.27 104.28 15.27 C103.29 14.94 102.3 14.61 101.28 14.27 C100.62 16.25 99.96 18.23 99.28 20.27 C98.62 19.94 97.96 19.61 97.28 19.27 C96.29 20.26 95.3 21.25 94.28 22.27 C95.27 22.93 96.26 23.59 97.28 24.27 C96.62 24.27 95.96 24.27 95.28 24.27 C94.62 25.59 93.96 26.91 93.28 28.27 C92.95 27.94 92.95 27.94 91.28 26.27 C91.28 27.59 91.28 28.91 91.28 30.27 C89.87 30.94 88.45 31.61 87.03 32.27 C86.24 32.64 85.45 33.01 84.64 33.39 C82.28 34.27 82.28 34.27 78.28 34.27 C78.28 35.26 78.28 36.25 78.28 37.27 C77.29 37.6 76.3 37.93 75.28 38.27 C76.27 38.93 77.26 39.59 78.28 40.27 C77.29 40.6 77.29 40.6 72.28 42.27 C71.62 41.61 70.96 40.95 70.28 40.27 C69.28 41.27 69.28 41.27 67.28 44.27 C64.28 44.46 64.28 44.46 61.28 44.27 C60.62 44.27 59.96 44.27 59.28 44.27 C58.29 44.27 57.3 44.27 56.28 44.27 C56.18 43.95 56.18 43.95 55.66 42.33 C54.28 40.27 54.28 40.27 51.16 39.52 C50.21 39.44 49.26 39.35 48.28 39.27 C48.28 39.93 48.28 40.59 48.28 41.27 C46.3 40.94 44.32 40.61 42.28 40.27 C42.12 40.6 42.12 40.6 41.28 42.27 C37.25 43.36 33.43 43.27 29.28 43.27 C28.21 40.62 27.19 37.98 26.28 35.27 C25.62 35.27 24.96 35.27 24.28 35.27 C23.62 36.59 22.96 37.91 22.28 39.27 C21.59 37.46 21.59 37.46 21.28 35.27 C22.59 33.71 22.59 33.71 24.28 32.27 C26.58 28.82 26.63 27.32 26.28 23.27 C23.96 20.94 23 20.9 19.84 20.39 C15.5 19.53 15.5 19.53 13.53 17.21 C13.12 16.57 12.71 15.93 12.28 15.27 C11.46 15.1 10.63 14.94 9.78 14.77 C7.28 14.27 7.28 14.27 5.47 12.33 C4.28 10.27 4.28 10.27 4.28 8.27 C3.62 8.27 2.96 8.27 2.28 8.27 C2.12 7.77 2.12 7.77 1.28 5.27 C-17.53 4.94 -36.34 4.61 -55.72 4.27 C-56.38 5.92 -57.04 7.57 -57.72 9.27 C-58.68 11.04 -59.68 12.79 -60.72 14.52 C-61.23 15.39 -61.75 16.26 -62.28 17.16 C-63.72 19.27 -63.72 19.27 -65.72 20.27 C-64.31 16.54 -62.63 13.08 -60.72 9.58 C-60.46 9.1 -60.46 9.1 -59.16 6.69 C-57.72 4.27 -57.72 4.27 -55.72 2.27 C-52.44 1.56 -49.07 1.42 -45.73 1.16 C-45.2 1.12 -45.2 1.12 -42.51 0.91 C-28.36 -0.1 -14.18 -0.02 0 0 Z " fill="#6F205C" transform="translate(89.71929860115051,7.731348991394043)"/>
<path d="M0 0 C7.83 -0.14 15.66 -0.25 23.5 -0.31 C27.14 -0.34 30.77 -0.38 34.41 -0.45 C37.92 -0.52 41.44 -0.55 44.95 -0.57 C46.94 -0.59 48.92 -0.63 50.91 -0.68 C61.01 -0.68 61.01 -0.68 65.22 2.81 C69.25 6.96 72 11.09 72 17 C70.87 18.96 70.87 18.96 69.44 20.94 C67.02 24.68 67.02 24.68 66.88 27.56 C68.22 30.49 70.02 32.74 72.14 35.16 C73 37 73 37 72.36 39.36 C70.87 42.24 69.26 44.96 67.5 47.69 C66.89 48.64 66.28 49.59 65.66 50.57 C64 53 64 53 62 55 C59.67 55.24 59.67 55.24 56.72 55.23 C55.62 55.23 54.52 55.23 53.39 55.23 C52.2 55.22 51 55.21 49.77 55.2 C48.56 55.19 47.34 55.19 46.08 55.19 C42.18 55.18 38.28 55.15 34.38 55.12 C31.73 55.11 29.09 55.11 26.45 55.1 C19.97 55.08 13.48 55.04 7 55 C7 54.34 7 53.68 7 53 C4.03 53 1.06 53 -2 53 C-1.67 52.34 -1.34 51.68 -1 51 C-0.63 50.95 -0.63 50.95 1.25 50.69 C4.94 49.76 6.41 47.72 9 45 C11.31 43.69 11.31 43.69 13 43 C12.79 42.22 12.59 41.43 12.38 40.62 C12.25 39.76 12.13 38.89 12 38 C12.66 37.34 13.32 36.68 14 36 C13.34 35.34 12.68 34.68 12 34 C16.61 32.7 20.34 33.29 25 34 C26 31 26 31 25.44 28.56 C24.93 25.59 25.42 24.51 27 22 C27.66 22 28.32 22 29 22 C29.33 20.68 29.66 19.36 30 18 C33.38 19.06 35.01 20.01 37.5 22.62 C40 25 40 25 42.81 25.31 C43.53 25.21 44.26 25.11 45 25 C45 23.68 45 22.36 45 21 C44.34 21 43.68 21 43 21 C42.84 20.51 42.84 20.51 42 18 C41.01 18.33 40.02 18.66 39 19 C32.85 18.11 32.85 18.11 30.73 15.34 C29.77 13.59 28.88 11.79 28 10 C27.34 9.67 26.68 9.34 26 9 C26 8.34 26 7.68 26 7 C25.34 7 24.68 7 24 7 C24.66 5.35 25.32 3.7 26 2 C26.99 2.33 27.98 2.66 29 3 C30.33 3.34 31.66 3.68 33 4 C33.16 4.66 33.16 4.66 34 8 C34.99 8 35.98 8 37 8 C37 6.02 37 4.04 37 2 C30.89 1.84 30.89 1.84 0 1 C0 0.67 0 0.34 0 0 Z " fill="#47143F" transform="translate(206,12)"/>
<path d="M0 0 C4.21 0.01 8.42 0.01 12.62 0.01 C20.54 0.01 28.45 0.02 36.37 0.03 C45.4 0.04 54.43 0.05 63.47 0.05 C82 0.06 100.53 0.08 119.06 0.1 C119.06 0.43 119.06 0.76 119.06 1.1 C130.28 1.27 130.28 1.27 187.06 2.1 C187.39 3.75 187.72 5.4 188.06 7.1 C190.37 7.76 192.68 8.42 195.06 9.1 C195.06 9.76 195.06 10.42 195.06 11.1 C193 11.98 193 11.98 190.06 12.1 C188.06 10.74 186.37 9.22 184.61 7.55 C180.93 4.11 176.53 4.95 171.78 4.95 C170.81 4.94 169.83 4.94 168.83 4.93 C165.55 4.92 162.26 4.91 158.98 4.91 C156.63 4.9 154.28 4.89 151.94 4.88 C144.88 4.86 137.82 4.84 130.76 4.83 C127.44 4.83 124.12 4.82 120.8 4.81 C109.76 4.79 98.71 4.77 87.67 4.76 C84.81 4.76 81.94 4.75 79.07 4.75 C78.36 4.75 77.65 4.75 76.92 4.75 C65.37 4.74 53.83 4.7 42.29 4.66 C30.44 4.62 18.6 4.6 6.75 4.59 C0.1 4.59 -6.55 4.57 -13.21 4.54 C-19.46 4.51 -25.72 4.51 -31.98 4.52 C-34.28 4.52 -36.58 4.51 -38.88 4.49 C-42.01 4.47 -45.14 4.48 -48.28 4.49 C-49.19 4.48 -50.1 4.47 -51.05 4.45 C-55.58 4.51 -57.34 4.62 -60.98 7.58 C-61.62 8.41 -62.27 9.24 -62.94 10.1 C-64.91 12.07 -68.29 11.76 -70.94 12.1 C-70.61 13.75 -70.28 15.4 -69.94 17.1 C-69.28 16.11 -68.62 15.12 -67.94 14.1 C-67.28 14.1 -66.62 14.1 -65.94 14.1 C-65.55 18.1 -65.92 20.4 -68.06 23.73 C-68.68 24.84 -69.3 25.95 -69.94 27.1 C-68.86 30.19 -66.96 32.42 -64.81 34.85 C-64.27 35.46 -63.73 36.08 -63.18 36.71 C-62.97 36.94 -62.97 36.94 -61.94 38.1 C-63.53 43.19 -66.68 46.98 -69.94 51.1 C-68.94 53.32 -67.91 55.52 -66.87 57.73 C-66.6 58.34 -66.32 58.96 -66.04 59.6 C-63.66 64.56 -60.7 68.25 -55.94 71.1 C-52.58 71.92 -49.35 71.89 -45.91 71.82 C-44.91 71.83 -43.92 71.83 -42.9 71.84 C-39.57 71.85 -36.25 71.82 -32.93 71.78 C-30.54 71.78 -28.16 71.78 -25.77 71.79 C-19.97 71.79 -14.17 71.76 -8.37 71.72 C-1.62 71.68 5.12 71.67 11.87 71.66 C23.91 71.65 35.95 71.61 47.98 71.55 C59.67 71.5 71.36 71.46 83.05 71.43 C83.78 71.43 84.5 71.43 85.24 71.43 C88.86 71.42 92.47 71.41 96.09 71.4 C126.08 71.34 156.07 71.24 186.06 71.1 C186.06 71.76 186.06 72.42 186.06 73.1 C183.78 74.24 182.53 74.23 179.99 74.22 C179.13 74.23 178.28 74.23 177.39 74.23 C176.44 74.23 175.5 74.22 174.52 74.22 C173.52 74.22 172.52 74.22 171.48 74.22 C168.1 74.23 164.73 74.22 161.35 74.21 C158.93 74.21 156.52 74.21 154.1 74.22 C148.9 74.22 143.69 74.21 138.48 74.21 C130.95 74.2 123.42 74.2 115.89 74.2 C103.67 74.19 91.45 74.19 79.24 74.18 C67.37 74.17 55.5 74.16 43.63 74.16 C43.26 74.16 43.26 74.16 41.41 74.16 C37.74 74.15 34.08 74.15 30.41 74.15 C-0.04 74.14 -30.49 74.12 -60.94 74.1 C-60.94 74.76 -60.94 75.42 -60.94 76.1 C-61.43 76.27 -61.43 76.27 -63.94 77.1 C-64.49 76.34 -65.05 75.58 -65.62 74.79 C-67.94 72.1 -67.94 72.1 -70.56 70.79 C-73.53 68.68 -73.61 67 -74.3 63.54 C-76.73 54.23 -82.26 46.81 -88.94 40.1 C-87.45 36.76 -85.51 34.3 -83.12 31.54 C-78.17 25.44 -74.69 18.86 -73 11.16 C-71.6 7.13 -69.55 6.21 -65.94 4.1 C-65.28 3.11 -64.62 2.12 -63.94 1.1 C-61.53 0.67 -61.53 0.67 -58.46 0.59 C-57.3 0.56 -56.14 0.52 -54.95 0.49 C-54.31 0.48 -54.31 0.48 -51.09 0.42 C-49.74 0.39 -48.39 0.35 -47.04 0.32 C-31.36 -0.05 -15.68 -0.03 0 0 Z " fill="#502E2D" transform="translate(88.93696928024292,-0.1013939380645752)"/>
<path d="M0 0 C2.33 0.06 4.66 0.11 6.99 0.16 C12.68 0.3 18.37 0.5 24.06 0.75 C24.06 1.08 24.06 1.41 24.06 1.75 C23.51 1.74 22.95 1.73 22.38 1.72 C16.32 1.96 12.84 3.64 8.46 7.83 C7.06 9.75 7.06 9.75 7.06 13.19 C7.23 13.61 7.23 13.61 8.06 15.75 C7.4 15.75 6.74 15.75 6.06 15.75 C6.06 15.09 6.06 14.43 6.06 13.75 C5.4 13.75 4.74 13.75 4.06 13.75 C4.06 14.74 4.06 15.73 4.06 16.75 C3.4 16.75 2.74 16.75 2.06 16.75 C1.79 17.29 1.53 17.82 1.25 18.38 C-0.15 21.17 -1.54 23.96 -2.94 26.75 C-2.28 26.75 -1.62 26.75 -0.94 26.75 C3.06 32.16 3.06 32.16 3.06 34.75 C3.56 34.56 4.05 34.38 4.56 34.19 C8.21 33.55 11.4 34.2 15.06 34.75 C14.77 35.91 14.48 37.06 14.19 38.25 C13.78 41.18 13.89 42.44 15.33 45.06 C16.84 47.04 18.38 48.92 20.06 50.75 C19.4 50.91 19.4 50.91 16.06 51.75 C17.71 51.75 19.36 51.75 21.06 51.75 C21.06 52.41 21.06 53.07 21.06 53.75 C14.64 54 8.22 54.18 1.79 54.3 C-0.39 54.35 -2.57 54.42 -4.76 54.5 C-22.83 55.2 -22.83 55.2 -27.93 51.69 C-31.14 47.32 -32.35 43.12 -32.94 37.75 C-31.91 35.59 -31.91 35.59 -30.44 33.69 C-27.94 30.03 -27.94 30.03 -27.94 27.06 C-29.06 24.47 -30.45 22.15 -31.94 19.75 C-31.94 19.09 -31.94 18.43 -31.94 17.75 C-32.6 17.75 -33.26 17.75 -33.94 17.75 C-33.65 17.05 -33.36 16.36 -33.07 15.64 C-31.94 12.75 -31.94 12.75 -31.09 9.66 C-25.91 -3.85 -12.1 -0.54 0 0 Z " fill="#43113B" transform="translate(58.9375,11.25)"/>
<path d="M0 0 C3.96 -0.03 7.92 -0.01 11.88 0.04 C11.88 0.37 11.88 0.7 11.88 1.04 C7.92 1.37 3.95 1.7 -0.12 2.04 C-0.45 3.36 -0.78 4.68 -1.12 6.04 C0.53 5.05 2.17 4.06 3.88 3.04 C3.88 5.02 3.88 7 3.88 9.04 C2.89 9.04 1.89 9.04 0.88 9.04 C-0.81 11.54 -0.81 11.54 -2.12 14.04 C-1.47 14.04 -0.81 14.04 -0.12 14.04 C-0.12 14.7 -0.12 15.36 -0.12 16.04 C2.52 15.38 5.16 14.72 7.88 14.04 C7.88 14.7 7.88 15.36 7.88 16.04 C9.19 16.7 10.52 17.36 11.88 18.04 C11.55 19.36 11.22 20.68 10.88 22.04 C9.56 22.37 8.23 22.7 6.88 23.04 C6.88 23.7 6.88 24.36 6.88 25.04 C7.8 24.83 8.73 24.62 9.69 24.41 C12.88 24.04 12.88 24.04 15.88 26.04 C15.55 26.7 15.22 27.36 14.88 28.04 C12.23 28.04 9.59 28.04 6.88 28.04 C6.88 28.7 6.88 29.36 6.88 30.04 C7.53 30.04 8.19 30.04 8.88 30.04 C9.2 29.38 9.53 28.72 9.88 28.04 C9.88 28.7 9.88 29.36 9.88 30.04 C10.53 30.04 11.19 30.04 11.88 30.04 C12.04 30.37 12.04 30.37 12.88 32.04 C14.19 31.71 15.52 31.38 16.88 31.04 C16.88 32.03 16.88 33.02 16.88 34.04 C18.9 36.06 21.49 37.46 23.88 39.04 C23.55 40.03 23.22 41.02 22.88 42.04 C23.86 42.04 24.86 42.04 25.88 42.04 C25.88 42.7 25.88 43.36 25.88 44.04 C26.53 44.04 27.19 44.04 27.88 44.04 C27.88 43.38 27.88 42.72 27.88 42.04 C28.53 42.04 29.19 42.04 29.88 42.04 C29.88 43.69 29.88 45.34 29.88 47.04 C30.53 47.04 31.19 47.04 31.88 47.04 C32.04 47.7 32.04 47.7 32.88 51.04 C35.52 51.04 38.16 51.04 40.88 51.04 C40.88 50.38 40.88 49.72 40.88 49.04 C44.36 50.2 47.61 51.35 50.88 53.04 C50.22 53.05 49.57 53.06 48.89 53.07 C41.93 53.18 34.97 53.29 28.01 53.41 C25.43 53.45 22.84 53.49 20.26 53.53 C-2.16 53.89 -24.57 54.49 -46.97 55.67 C-50.27 55.8 -52.29 55.71 -54.91 53.59 C-56.47 51.81 -57.82 50.01 -59.12 48.04 C-59.62 47.29 -60.11 46.55 -60.62 45.78 C-62.1 42.84 -63.12 40.73 -63.12 37.41 C-62.12 35.04 -62.12 35.04 -60 32.1 C-58.12 29.04 -58.12 29.04 -58.06 26.04 C-59.43 22.17 -61.34 20.03 -64.12 17.04 C-63.8 16.38 -63.47 15.72 -63.12 15.04 C-59.86 18.06 -57.28 21.12 -55.12 25.04 C-55.12 28.51 -56.46 30.62 -58.25 33.47 C-59.7 35.95 -60.12 36.96 -60.25 39.91 C-58.58 44.54 -56.62 48.51 -53.12 52.04 C-49.57 53.31 -46.22 53.23 -42.48 53.13 C-41.97 53.14 -41.97 53.14 -39.41 53.16 C-36.19 53.18 -32.97 53.14 -29.75 53.1 C-27.56 53.1 -25.37 53.11 -23.18 53.12 C-17.83 53.14 -12.48 53.11 -7.12 53.04 C-8.78 52.38 -10.42 51.72 -12.12 51.04 C-11.12 49.04 -11.12 49.04 -10.12 48.04 C-10.99 47.21 -11.86 46.39 -12.75 45.54 C-14.51 43.47 -15.15 42.6 -15.01 39.86 C-14.44 37.66 -14.44 37.66 -13.12 34.04 C-13.53 34.07 -13.53 34.07 -15.61 34.25 C-18.87 34.41 -21.89 34.47 -25.12 34.04 C-27.69 31.35 -29.12 29.81 -29.12 26.04 C-29.78 26.04 -30.45 26.04 -31.12 26.04 C-30.62 21.65 -29.14 19.24 -26.12 16.04 C-25.47 16.04 -24.8 16.04 -24.12 16.04 C-24.12 15.05 -24.12 14.06 -24.12 13.04 C-23.47 13.04 -22.81 13.04 -22.12 13.04 C-22.12 11.72 -22.12 10.4 -22.12 9.04 C-18.81 4.81 -14.55 0.75 -9.06 0.04 C-6.04 -0.05 -3.02 0.03 0 0 Z " fill="#551849" transform="translate(87.125,11.96484375)"/>
<path d="M0 0 C3.43 0.01 6.86 0 10.29 -0.01 C12.5 -0.01 14.72 -0 16.94 -0 C17.94 -0 18.95 -0.01 19.99 -0.01 C39.63 0.06 39.63 0.06 43.18 3.51 C43.69 4.37 44.21 5.24 44.74 6.13 C45.58 6.54 46.43 6.96 47.3 7.38 C50.53 9.7 50.79 11.75 51.87 15.47 C54.49 23.55 58.41 30.5 64.52 36.41 C65.74 38.13 65.74 38.13 65.66 40.08 C64.51 42.65 62.98 44.39 61.11 46.51 C55.6 53.18 51.72 60.8 48.7 68.91 C47.39 71.92 45.34 73.2 42.74 75.13 C42.41 75.79 42.08 76.45 41.74 77.13 C36.09 78.32 30.48 78.27 24.73 78.26 C23.74 78.27 22.75 78.27 21.72 78.27 C18.41 78.28 15.09 78.28 11.78 78.28 C9.4 78.28 7.02 78.28 4.64 78.29 C-1.15 78.29 -6.94 78.3 -12.73 78.3 C-17.43 78.3 -22.13 78.3 -26.84 78.3 C-40.17 78.31 -53.51 78.32 -66.84 78.32 C-67.56 78.32 -68.28 78.32 -69.02 78.32 C-69.74 78.32 -70.46 78.32 -71.2 78.32 C-82.87 78.32 -94.54 78.32 -106.21 78.34 C-118.19 78.35 -130.17 78.36 -142.16 78.36 C-148.89 78.36 -155.61 78.36 -162.34 78.37 C-168.66 78.38 -174.98 78.38 -181.3 78.37 C-183.63 78.37 -185.95 78.38 -188.27 78.38 C-191.44 78.39 -194.6 78.39 -197.76 78.38 C-198.69 78.38 -199.62 78.39 -200.57 78.39 C-201.42 78.39 -202.26 78.38 -203.13 78.38 C-203.5 78.38 -203.5 78.38 -205.35 78.38 C-207.26 78.13 -207.26 78.13 -210.26 76.13 C-209.6 76.13 -208.94 76.13 -208.26 76.13 C-208.26 75.47 -208.26 74.81 -208.26 74.13 C-126.75 73.8 -45.24 73.47 38.74 73.13 C38.74 72.47 38.74 71.81 38.74 71.13 C37.75 71.3 37.75 71.3 32.74 72.13 C33.5 71.39 34.26 70.65 35.05 69.88 C38.99 65.85 41.45 61.94 43.93 56.88 C44.46 55.8 44.99 54.73 45.53 53.61 C45.93 52.79 46.33 51.98 46.74 51.13 C47.4 51.79 48.06 52.45 48.74 53.13 C48.47 57.8 46.11 61.23 43.74 65.13 C44.4 65.13 45.06 65.13 45.74 65.13 C45.85 64.71 45.85 64.71 46.43 62.57 C48 58.46 50.08 55.63 52.74 52.13 C52.15 52.03 51.57 51.94 50.97 51.84 C48.28 50.98 47.03 49.82 45.05 47.82 C44.45 47.22 43.85 46.63 43.23 46.02 C41.65 44.02 41.15 42.61 40.74 40.13 C40.08 40.13 39.42 40.13 38.74 40.13 C40.37 36.37 42.75 33.51 45.36 30.38 C45.77 29.89 45.77 29.89 47.84 27.4 C48.47 26.65 49.09 25.9 49.74 25.13 C49.08 25.13 48.42 25.13 47.74 25.13 C47.41 25.79 47.08 26.45 46.74 27.13 C46.21 26.11 45.68 25.08 45.13 24.02 C44.42 22.66 43.7 21.3 42.99 19.94 C42.81 19.61 42.81 19.61 41.93 17.9 C39.86 13.97 37.66 10.52 34.74 7.13 C37.57 8.03 40.28 8.9 42.93 10.26 C44.74 11.13 44.74 11.13 47.74 11.13 C47.74 10.47 47.74 9.81 47.74 9.13 C46.62 9.05 45.51 8.97 44.36 8.88 C40.74 8.13 40.74 8.13 39.24 6.19 C38.74 4.13 38.74 4.13 39.74 2.13 C14.33 2.13 -11.08 2.13 -37.26 2.13 C-37.26 1.8 -37.26 1.47 -37.26 1.13 C-24.85 0.01 -12.46 -0.02 0 0 Z " fill="#7F5A35" transform="translate(236.261962890625,-0.13037109375)"/>
<path d="M0 0 C4.08 0.01 8.16 0 12.24 -0 C19.11 -0.01 25.99 -0 32.87 0.01 C39.8 0.02 46.72 0.02 53.65 0.01 C118.65 -0.08 118.65 -0.08 150.86 0.92 C153.24 1 155.62 1.06 158 1.13 C161.21 1.21 164.42 1.33 167.63 1.45 C168.1 1.46 168.1 1.46 170.46 1.52 C176.69 1.8 176.69 1.8 179.88 4.32 C180.34 4.96 180.81 5.61 181.28 6.27 C180.95 6.93 180.62 7.59 180.28 8.27 C179.95 7.78 179.61 7.29 179.27 6.79 C176.25 4.48 173.15 4.88 169.5 4.93 C168.71 4.93 167.92 4.93 167.11 4.93 C164.5 4.93 161.88 4.95 159.27 4.98 C157.46 4.98 155.65 4.99 153.83 4.99 C149.06 5 144.3 5.03 139.53 5.06 C134.66 5.09 129.79 5.11 124.93 5.12 C115.38 5.15 105.83 5.21 96.28 5.27 C95.95 6.92 95.62 8.57 95.28 10.27 C94.62 10.27 93.96 10.27 93.28 10.27 C93.28 10.93 93.28 11.59 93.28 12.27 C92.29 12.27 91.3 12.27 90.28 12.27 C90.28 12.93 90.28 13.59 90.28 14.27 C89.62 14.27 88.96 14.27 88.28 14.27 C88.28 13.61 88.28 12.95 88.28 12.27 C87.95 12.1 87.95 12.1 86.28 11.27 C86.14 12.05 85.99 12.84 85.84 13.64 C85.28 16.27 85.28 16.27 84.28 18.27 C83.62 18.27 82.96 18.27 82.28 18.27 C81.95 17.94 81.95 17.94 80.28 16.27 C80.61 16.76 80.61 16.76 82.28 19.27 C81.95 20.26 81.62 21.25 81.28 22.27 C80.29 22.27 79.3 22.27 78.28 22.27 C77.95 23.26 77.62 24.25 77.28 25.27 C76.29 24.94 75.3 24.61 74.28 24.27 C74.28 23.61 74.28 22.95 74.28 22.27 C65.27 19.99 65.27 19.99 61.16 21.14 C60.54 21.51 59.92 21.89 59.28 22.27 C59.28 21.61 59.28 20.95 59.28 20.27 C58.62 20.27 57.96 20.27 57.28 20.27 C53.28 15.92 53.28 15.92 53.28 12.27 C52.92 12.59 52.92 12.59 51.09 14.21 C46.8 17.35 46.8 17.35 43.28 17.27 C37.77 13.56 37.77 13.56 36.41 9.96 C36.36 9.4 36.32 8.84 36.28 8.27 C35.29 8.27 34.3 8.27 33.28 8.27 C33.28 7.61 33.28 6.95 33.28 6.27 C29.19 5.14 25.24 5.09 21.02 5.06 C20.19 5.05 19.36 5.04 18.51 5.03 C15.77 5 13.03 4.98 10.3 4.95 C8.4 4.93 6.5 4.91 4.6 4.89 C-0.4 4.83 -5.4 4.78 -10.4 4.74 C-15.5 4.69 -20.6 4.63 -25.7 4.58 C-35.71 4.47 -45.71 4.37 -55.72 4.27 C-56.02 5.04 -56.32 5.81 -56.63 6.6 C-57.78 9.42 -59.16 11.91 -60.72 14.52 C-61.23 15.39 -61.75 16.26 -62.28 17.16 C-63.72 19.27 -63.72 19.27 -65.72 20.27 C-64.31 16.54 -62.63 13.08 -60.72 9.58 C-60.46 9.1 -60.46 9.1 -59.16 6.69 C-57.72 4.27 -57.72 4.27 -55.72 2.27 C-52.44 1.56 -49.07 1.42 -45.73 1.16 C-45.2 1.12 -45.2 1.12 -42.51 0.91 C-28.36 -0.1 -14.18 -0.02 0 0 Z " fill="#9C4087" transform="translate(89.71929860115051,7.731348991394043)"/>
<path d="M0 0 C0.97 -0 1.95 -0.01 2.95 -0.01 C6.24 -0.02 9.52 -0.02 12.81 -0.02 C15.15 -0.03 17.5 -0.03 19.85 -0.04 C26.9 -0.05 33.96 -0.06 41.02 -0.06 C44.34 -0.06 47.66 -0.07 50.99 -0.07 C62.03 -0.08 73.07 -0.09 84.11 -0.1 C84.82 -0.1 85.52 -0.1 86.25 -0.1 C86.61 -0.1 86.61 -0.1 88.4 -0.1 C89.84 -0.1 91.27 -0.1 92.71 -0.1 C93.42 -0.1 94.13 -0.1 94.87 -0.1 C106.41 -0.1 117.95 -0.12 129.49 -0.15 C141.34 -0.17 153.19 -0.18 165.03 -0.18 C171.68 -0.18 178.34 -0.19 184.99 -0.21 C191.25 -0.22 197.5 -0.23 203.76 -0.22 C206.06 -0.22 208.36 -0.22 210.66 -0.23 C213.79 -0.24 216.92 -0.24 220.06 -0.23 C220.52 -0.23 220.52 -0.23 222.83 -0.25 C227.64 -0.21 230.77 0.06 234.72 3.14 C234.39 3.8 234.06 4.46 233.72 5.14 C232.89 4.82 232.05 4.49 231.19 4.16 C227.42 3.05 224.03 2.87 220.15 2.9 C219.41 2.9 218.67 2.89 217.91 2.89 C215.48 2.89 213.04 2.9 210.6 2.91 C208.87 2.91 207.13 2.91 205.4 2.91 C201.74 2.91 198.09 2.92 194.43 2.93 C189.87 2.95 185.32 2.96 180.76 2.95 C161.63 2.96 142.51 3.16 123.38 3.69 C110.05 4.06 96.73 4.27 83.41 4.39 C81.52 4.4 79.64 4.42 77.75 4.44 C70.15 4.5 62.54 4.57 54.93 4.62 C43.27 4.7 31.62 4.84 19.97 5.09 C17.85 5.14 15.74 5.17 13.62 5.2 C10.21 5.26 6.81 5.39 3.41 5.55 C2.48 5.56 1.55 5.57 0.59 5.58 C-2.06 5.75 -3.89 5.98 -6.28 7.14 C-8.84 10.23 -10.51 13.56 -12.28 17.14 C-13.09 18.26 -13.92 19.37 -14.78 20.45 C-16.28 23.14 -16.28 23.14 -15.78 25.7 C-14.28 28.14 -14.28 28.14 -12.09 30.64 C-10.28 33.14 -10.28 33.14 -10.28 35.52 C-11.37 38.37 -12.79 40.7 -14.54 43.2 C-15.67 46.15 -15.09 48.12 -14.28 51.14 C-12.69 53.88 -12.69 53.88 -10.78 56.45 C-10.47 56.88 -10.47 56.88 -8.87 59.07 C-7.28 61.14 -7.28 61.14 -6.28 62.14 C-4.93 62.29 -3.58 62.38 -2.22 62.44 C-1.36 62.48 -0.5 62.52 0.39 62.56 C0.86 62.58 0.86 62.58 3.22 62.68 C4.18 62.72 5.13 62.76 6.11 62.81 C9.17 62.94 12.23 63.07 15.28 63.2 C17.35 63.29 19.42 63.39 21.48 63.48 C26.56 63.7 31.64 63.92 36.72 64.14 C36.72 64.47 36.72 64.8 36.72 65.14 C24.84 65.47 12.96 65.8 0.72 66.14 C75.96 66.47 151.2 66.8 228.72 67.14 C228.72 67.47 228.72 67.8 228.72 68.14 C198.79 68.3 168.86 68.42 138.93 68.5 C135.4 68.51 131.86 68.52 128.33 68.52 C127.98 68.53 127.98 68.53 126.2 68.53 C114.81 68.56 103.42 68.62 92.03 68.68 C80.34 68.75 68.65 68.78 56.96 68.8 C50.4 68.81 43.84 68.83 37.27 68.88 C31.09 68.93 24.91 68.94 18.74 68.93 C16.47 68.93 14.2 68.95 11.93 68.97 C8.84 69.01 5.74 69 2.64 68.98 C1.75 69 0.85 69.02 -0.07 69.04 C-6.18 68.94 -9.25 67.21 -13.65 63.01 C-16.14 60.15 -17.77 57.15 -19.28 53.7 C-19.58 53.07 -19.88 52.43 -20.18 51.78 C-20.9 50.24 -21.59 48.69 -22.28 47.14 C-22.08 46.88 -22.08 46.88 -21.04 45.57 C-20.5 44.87 -19.96 44.17 -19.41 43.45 C-18.87 42.77 -18.34 42.08 -17.79 41.38 C-16.28 39.14 -16.28 39.14 -14.28 34.14 C-16.92 31.17 -19.56 28.2 -22.28 25.14 C-20.28 20.14 -20.28 20.14 -19.22 18.2 C-18.02 15.57 -17.67 13 -17.28 10.14 C-17.94 10.14 -18.6 10.14 -19.28 10.14 C-19.94 11.46 -20.6 12.78 -21.28 14.14 C-21.61 14.14 -21.94 14.14 -22.28 14.14 C-22.61 11.83 -22.94 9.52 -23.28 7.14 C-22.04 7.08 -20.81 7.02 -19.53 6.95 C-16.03 6.54 -15.47 6.34 -12.91 3.64 C-12.37 2.82 -11.83 1.99 -11.28 1.14 C-7.82 -0.59 -3.81 -0 0 0 Z " fill="#341B1E" transform="translate(40.28022766113281,3.85955810546875)"/>
<path d="M0 0 C1.65 0 3.3 0 5 0 C5.16 0.49 5.16 0.49 6 3 C6.66 3 7.32 3 8 3 C8.6 3.97 9.2 4.94 9.81 5.94 C12 9 12 9 14.62 9.69 C15.41 9.79 16.19 9.89 17 10 C17.66 10.99 18.32 11.98 19 13 C21.06 13.62 21.06 13.62 23.44 14 C26.94 14.55 28.8 15.14 31 18 C31.63 22.04 31.13 23.77 29.12 27.38 C28.77 27.81 28.77 27.81 27 30 C26.34 30 25.68 30 25 30 C25.16 30.49 25.16 30.49 26 33 C26.66 32.01 27.32 31.02 28 30 C28.66 30 29.32 30 30 30 C32.74 32.95 33 33.77 33 38 C33.45 37.84 33.45 37.84 35.75 37 C39 36 39 36 43 36 C43.51 35.91 43.51 35.91 46.06 35.44 C49 35 49 35 52 36 C52 35.34 52 34.68 52 34 C53.81 33.38 53.81 33.38 56 33 C56.5 33.33 56.5 33.33 59 35 C59.37 37.33 59.7 39.66 60 42 C60.66 42.33 61.32 42.66 62 43 C61.67 43.99 61.34 44.98 61 46 C61.44 48.19 61.44 48.19 62 50 C63.3 49.98 64.6 49.96 65.94 49.94 C67.29 49.92 68.65 49.93 70 50 C70.33 50.33 70.66 50.66 71 51 C72.75 51.12 74.5 51.18 76.25 51.21 C77.38 51.23 78.5 51.25 79.65 51.27 C80.87 51.28 82.09 51.3 83.35 51.32 C84.59 51.34 85.83 51.36 87.11 51.38 C90.42 51.43 93.72 51.48 97.03 51.53 C100.4 51.58 103.77 51.64 107.14 51.69 C113.76 51.8 120.38 51.9 127 52 C127 52.66 127 53.32 127 54 C74.53 54 22.06 54 -32 54 C-32 53.67 -32 53.34 -32 53 C-6.35 51.84 19.33 51.47 45 51 C44.01 50.01 43.02 49.02 42 48 C42 48.66 42 49.32 42 50 C39.36 50 36.72 50 34 50 C33.84 49.34 33.84 49.34 33 46 C32.34 46 31.68 46 31 46 C31 44.35 31 42.7 31 41 C30.34 41 29.68 41 29 41 C29 41.66 29 42.32 29 43 C28.34 43 27.68 43 27 43 C27 42.34 27 41.68 27 41 C26.01 41 25.02 41 24 41 C23.73 40.38 23.46 39.76 23.19 39.12 C21.43 35.98 19.34 35.11 16 34 C16.66 33.01 17.32 32.02 18 31 C16.68 31.33 15.36 31.66 14 32 C13.84 31.51 13.84 31.51 13 29 C11.35 29 9.7 29 8 29 C7.84 28.51 7.84 28.51 7 26 C9.97 26 12.94 26 16 26 C14.53 24.53 13.01 24.41 11 24 C10.01 24 9.02 24 8 24 C8 23.34 8 22.68 8 22 C9.32 21.34 10.64 20.68 12 20 C11.62 18.06 11.62 18.06 11 16 C10.34 15.67 9.68 15.34 9 15 C9 14.34 9 13.68 9 13 C8.24 13.33 7.47 13.66 6.69 14 C4 15 4 15 1 15 C1 14.34 1 13.68 1 13 C0.34 13 -0.32 13 -1 13 C-0 10.01 0.75 9.05 3 7 C3.66 7.33 4.32 7.66 5 8 C4.84 7.18 4.84 7.18 4 3 C3.34 3.33 3.34 3.33 0 5 C0 3.35 0 1.7 0 0 Z " fill="#641E56" transform="translate(86,13)"/>
<path d="M0 0 C23.79 -0.21 23.79 -0.21 34 1 C34 5.53 33.58 5.66 31 9 C29.9 11.3 28.96 13.63 28 16 C27.34 16 26.68 16 26 16 C26 16.66 26 17.32 26 18 C25.34 18 24.68 18 24 18 C24 17.34 24 16.68 24 16 C22.02 15.67 20.04 15.34 18 15 C17.79 15.37 17.79 15.37 16.75 17.25 C15.06 19.9 13.29 21.87 11 24 C11.99 24 12.98 24 14 24 C13.67 25.32 13.34 26.64 13 28 C12.01 28 11.02 28 10 28 C9.67 28.66 9.34 29.32 9 30 C8.01 29.01 7.02 28.02 6 27 C5.34 27.99 4.68 28.98 4 30 C5.65 30.33 7.3 30.66 9 31 C6.43 34.86 4.39 34.94 0 36 C-0.35 35.38 -0.7 34.76 -1.06 34.12 C-3.69 31.24 -6.27 30.85 -10 30 C-10.66 31.32 -11.32 32.64 -12 34 C-12.66 34 -13.32 34 -14 34 C-13.48 34.6 -12.97 35.2 -12.44 35.81 C-11.96 36.53 -11.49 37.26 -11 38 C-11.33 38.99 -11.66 39.98 -12 41 C-12.66 41 -13.32 41 -14 41 C-14.64 41.21 -15.28 41.41 -15.94 41.62 C-18 42 -18 42 -21 40 C-21.43 40.66 -21.87 41.32 -22.31 42 C-22.87 42.66 -23.43 43.32 -24 44 C-24.99 44 -25.98 44 -27 44 C-26.67 45.65 -26.34 47.3 -26 49 C-26.66 49 -27.32 49 -28 49 C-28 48.34 -28 47.68 -28 47 C-28.99 47 -29.98 47 -31 47 C-29.89 44.69 -28.73 42.58 -27.31 40.44 C-26.88 39.63 -26.45 38.83 -26 38 C-26.16 37.5 -26.16 37.5 -27 35 C-25.35 35 -23.7 35 -22 35 C-22 35.99 -22 36.98 -22 38 C-20.35 37.34 -18.7 36.68 -17 36 C-17.99 35.34 -18.98 34.68 -20 34 C-19.67 33.34 -19.34 32.68 -19 32 C-18.01 32.33 -17.02 32.66 -16 33 C-16 32.01 -16 31.02 -16 30 C-15.39 29.81 -14.77 29.61 -14.14 29.41 C-13.73 29.28 -13.73 29.28 -11.69 28.62 C-11.29 28.5 -11.29 28.5 -9.26 27.85 C-7 27 -7 27 -4 25 C-3.81 22.38 -3.81 22.38 -4 20 C-3.01 20.99 -2.02 21.98 -1 23 C-0.34 22.01 0.32 21.02 1 20 C0.01 19.34 -0.98 18.68 -2 18 C-1.36 17.9 -0.72 17.79 -0.06 17.69 C0.62 17.46 1.3 17.23 2 17 C2.16 16.51 2.16 16.51 3 14 C3.66 14.33 4.32 14.66 5 15 C5.33 13.02 5.66 11.04 6 9 C7.32 9.66 8.64 10.32 10 11 C9.71 10.45 9.42 9.89 9.12 9.32 C8.75 8.6 8.38 7.87 8 7.12 C7.63 6.41 7.26 5.69 6.88 4.95 C6 3 6 3 6 1 C4.02 1 2.04 1 0 1 C0 0.67 0 0.34 0 0 Z " fill="#641D54" transform="translate(184,12)"/>
<path d="M0 0 C81.18 0 162.36 0 246 0 C246 0.66 246 1.32 246 2 C246.99 2.33 247.98 2.66 249 3 C243.67 4.1 238.53 4.14 233.11 4.13 C232.12 4.14 231.13 4.14 230.11 4.14 C226.79 4.15 223.47 4.15 220.15 4.15 C217.77 4.15 215.39 4.15 213.01 4.16 C207.22 4.16 201.43 4.17 195.64 4.17 C190.93 4.17 186.23 4.17 181.52 4.17 C168.18 4.18 154.84 4.19 141.5 4.19 C140.78 4.19 140.06 4.19 139.32 4.19 C138.6 4.19 137.88 4.19 137.14 4.19 C125.46 4.18 113.79 4.19 102.11 4.21 C90.12 4.22 78.13 4.23 66.14 4.23 C59.41 4.23 52.68 4.23 45.95 4.24 C39.63 4.25 33.3 4.25 26.98 4.24 C24.65 4.24 22.33 4.25 20 4.25 C16.84 4.26 13.67 4.25 10.51 4.25 C10.04 4.25 10.04 4.25 7.69 4.26 C6.85 4.26 6 4.25 5.13 4.25 C4.4 4.25 3.67 4.25 2.92 4.25 C1 4 1 4 -2 2 C-1.34 2 -0.68 2 0 2 C0 1.34 0 0.68 0 0 Z " fill="#68411D" transform="translate(28,74)"/>
<path d="M0 0 C1.3 0 2.6 0.01 3.94 0.01 C7.13 0.03 10.31 0.04 13.5 0.06 C13.5 0.39 13.5 0.72 13.5 1.06 C10.86 1.23 10.86 1.23 -2.5 2.06 C-2.5 2.72 -2.5 3.38 -2.5 4.06 C-1.51 4.06 -0.52 4.06 0.5 4.06 C1.84 6.06 3.18 8.06 4.5 10.06 C6.44 11.56 6.44 11.56 8.5 12.06 C11 11.31 11 11.31 13.5 10.06 C14.26 9.69 15.03 9.32 15.81 8.94 C16.37 8.65 16.93 8.36 17.5 8.06 C19.16 10.74 20.5 13.06 21.5 16.06 C22.49 16.39 23.48 16.72 24.5 17.06 C24.78 16.9 24.78 16.9 26.19 16.06 C29.84 14.48 32.62 15.3 36.5 16.06 C36.66 16.39 36.66 16.39 37.5 18.06 C37.17 18.72 36.84 19.38 36.5 20.06 C35.84 20.06 35.18 20.06 34.5 20.06 C34.5 20.72 34.5 21.38 34.5 22.06 C32.54 23.45 30.54 24.79 28.5 26.06 C29.16 26.06 29.82 26.06 30.5 26.06 C30.5 26.72 30.5 27.38 30.5 28.06 C31.16 28.39 31.82 28.72 32.5 29.06 C31.18 29.06 29.86 29.06 28.5 29.06 C28.5 29.72 28.5 30.38 28.5 31.06 C29.82 31.39 31.14 31.72 32.5 32.06 C32.5 32.72 32.5 33.38 32.5 34.06 C30.19 33.4 27.88 32.74 25.5 32.06 C25.5 31.4 25.5 30.74 25.5 30.06 C24.04 30.18 22.58 30.3 21.12 30.44 C20.72 30.47 20.72 30.47 18.66 30.65 C16.5 31.06 16.5 31.06 14.5 33.06 C14.34 31.91 14.34 31.91 13.5 26.06 C12.51 26.39 11.52 26.72 10.5 27.06 C10.34 26.57 10.34 26.57 9.5 24.06 C8.68 23.75 7.85 23.44 7 23.12 C6.59 22.95 6.59 22.95 4.5 22.06 C3.69 19.94 3.69 19.94 3.5 18.06 C1.52 18.72 -0.46 19.38 -2.5 20.06 C-4.5 18.06 -4.5 18.06 -5 14.5 C-5.08 13.93 -5.08 13.93 -5.5 11.06 C-6.16 10.73 -6.82 10.4 -7.5 10.06 C-7.5 10.72 -7.5 11.38 -7.5 12.06 C-9.48 11.4 -11.46 10.74 -13.5 10.06 C-13.5 10.72 -13.5 11.38 -13.5 12.06 C-15.81 11.73 -18.12 11.4 -20.5 11.06 C-19.84 10.07 -19.18 9.08 -18.5 8.06 C-18.5 7.4 -18.5 6.74 -18.5 6.06 C-19.16 6.06 -19.82 6.06 -20.5 6.06 C-21.16 4.41 -21.82 2.76 -22.5 1.06 C-15 -0.14 -7.58 -0.05 0 0 Z " fill="#7E2568" transform="translate(125.5,11.9375)"/>
<path d="M0 0 C68.31 0 136.62 0 207 0 C207 0.99 207 1.98 207 3 C132.42 3 57.84 3 -19 3 C-19 2.67 -19 2.34 -19 2 C-12.73 1.67 -6.46 1.34 0 1 C0 0.67 0 0.34 0 0 Z " fill="#410C2F" transform="translate(60,67)"/>
<path d="M0 0 C0.97 -0 1.95 -0.01 2.95 -0.01 C6.24 -0.02 9.52 -0.02 12.81 -0.02 C15.15 -0.03 17.5 -0.03 19.85 -0.04 C26.9 -0.05 33.96 -0.06 41.02 -0.06 C44.34 -0.06 47.66 -0.07 50.99 -0.07 C62.03 -0.08 73.07 -0.09 84.11 -0.1 C84.82 -0.1 85.52 -0.1 86.25 -0.1 C86.61 -0.1 86.61 -0.1 88.4 -0.1 C89.84 -0.1 91.27 -0.1 92.71 -0.1 C93.42 -0.1 94.13 -0.1 94.87 -0.1 C106.41 -0.1 117.95 -0.12 129.49 -0.15 C141.34 -0.17 153.19 -0.18 165.03 -0.18 C171.68 -0.18 178.34 -0.19 184.99 -0.21 C191.25 -0.22 197.5 -0.23 203.76 -0.22 C206.06 -0.22 208.36 -0.22 210.66 -0.23 C213.79 -0.24 216.92 -0.24 220.06 -0.23 C220.52 -0.23 220.52 -0.23 222.83 -0.25 C227.64 -0.21 230.77 0.06 234.72 3.14 C234.39 3.8 234.06 4.46 233.72 5.14 C232.89 4.82 232.05 4.49 231.19 4.16 C227.42 3.05 224.03 2.87 220.15 2.9 C219.41 2.9 218.67 2.89 217.91 2.89 C215.48 2.89 213.04 2.9 210.6 2.91 C208.87 2.91 207.13 2.91 205.4 2.91 C201.74 2.91 198.09 2.92 194.43 2.93 C189.87 2.95 185.32 2.96 180.76 2.95 C160.26 2.96 139.78 3.19 119.29 3.78 C70.8 5.18 70.8 5.18 64.72 2.14 C62.5 2.06 60.28 2.05 58.05 2.07 C57.37 2.08 56.68 2.08 55.98 2.09 C53.71 2.1 51.44 2.13 49.17 2.16 C47.59 2.17 46.01 2.19 44.44 2.21 C41.13 2.24 37.82 2.28 34.51 2.33 C30.27 2.38 26.04 2.42 21.8 2.45 C18.54 2.48 15.28 2.52 12.02 2.56 C10.46 2.58 8.9 2.6 7.34 2.61 C5.15 2.62 2.96 2.65 0.77 2.69 C-0.47 2.71 -1.72 2.72 -3 2.73 C-7.8 3.33 -10.32 5.04 -13.47 8.64 C-14.78 10.45 -16.04 12.28 -17.28 14.14 C-17.28 12.82 -17.28 11.5 -17.28 10.14 C-17.94 10.14 -18.6 10.14 -19.28 10.14 C-19.94 11.46 -20.6 12.78 -21.28 14.14 C-21.61 14.14 -21.94 14.14 -22.28 14.14 C-22.61 11.83 -22.94 9.52 -23.28 7.14 C-22.04 7.08 -20.81 7.02 -19.53 6.95 C-16.03 6.54 -15.47 6.34 -12.91 3.64 C-12.37 2.82 -11.83 1.99 -11.28 1.14 C-7.82 -0.59 -3.81 -0 0 0 Z " fill="#5D3413" transform="translate(40.28022766113281,3.85955810546875)"/>
<path d="M0 0 C9.9 0 19.8 0 30 0 C30 0.33 30 0.66 30 1 C41.22 1.17 41.22 1.17 98 2 C98.33 3.65 98.66 5.3 99 7 C101.31 7.66 103.62 8.32 106 9 C106 9.66 106 10.32 106 11 C103.94 11.88 103.94 11.88 101 12 C98.99 10.64 97.31 9.12 95.55 7.45 C91.87 4.01 87.46 4.85 82.72 4.85 C81.75 4.84 80.77 4.84 79.77 4.83 C76.48 4.82 73.2 4.81 69.91 4.81 C67.57 4.8 65.22 4.79 62.87 4.78 C55.81 4.76 48.76 4.74 41.7 4.73 C38.38 4.72 35.06 4.72 31.73 4.71 C20.69 4.69 9.65 4.67 -1.39 4.66 C-4.26 4.66 -7.12 4.65 -9.99 4.65 C-10.7 4.65 -11.41 4.65 -12.15 4.65 C-23.69 4.63 -35.23 4.6 -46.77 4.56 C-58.62 4.52 -70.47 4.49 -82.31 4.49 C-88.96 4.49 -95.62 4.47 -102.27 4.44 C-108.53 4.41 -114.78 4.4 -121.04 4.42 C-123.34 4.42 -125.64 4.41 -127.94 4.39 C-131.07 4.37 -134.2 4.38 -137.34 4.39 C-138.25 4.38 -139.17 4.36 -140.11 4.35 C-144.65 4.41 -146.4 4.52 -150.04 7.48 C-150.69 8.31 -151.33 9.14 -152 10 C-153 11 -153 11 -156.56 11.06 C-157.7 11.04 -158.83 11.02 -160 11 C-160 10.34 -160 9.68 -160 9 C-158.35 8.34 -156.7 7.68 -155 7 C-155 7.66 -155 8.32 -155 9 C-154.34 9 -153.68 9 -153 9 C-152.34 6.69 -151.68 4.38 -151 2 C-101.17 1.67 -51.34 1.34 0 1 C0 0.67 0 0.34 0 0 Z " fill="#EDE2B5" transform="translate(178,0)"/>
<path d="M0 0 C0.33 0.17 0.33 0.17 2 1 C3.36 1.09 4.72 1.12 6.09 1.12 C6.52 1.12 6.52 1.12 8.7 1.13 C9.65 1.13 10.6 1.12 11.58 1.12 C12.08 1.12 12.08 1.12 14.63 1.12 C18.02 1.12 21.42 1.12 24.81 1.11 C27.23 1.11 29.66 1.11 32.08 1.11 C37.31 1.11 42.54 1.11 47.77 1.11 C55.33 1.1 62.89 1.09 70.45 1.09 C82.72 1.09 94.99 1.08 107.25 1.08 C119.17 1.07 131.09 1.06 143.01 1.05 C143.74 1.05 144.48 1.05 145.23 1.05 C148.92 1.05 152.6 1.05 156.28 1.05 C186.86 1.04 217.43 1.02 248 1 C248 1.66 248 2.32 248 3 C245.72 4.14 244.47 4.12 241.93 4.12 C241.07 4.13 240.21 4.13 239.33 4.13 C238.38 4.13 237.43 4.12 236.46 4.12 C235.46 4.12 234.45 4.12 233.42 4.12 C230.04 4.12 226.66 4.12 223.28 4.11 C220.87 4.11 218.45 4.11 216.04 4.11 C210.83 4.11 205.62 4.11 200.42 4.11 C192.89 4.1 185.35 4.09 177.82 4.09 C165.61 4.09 153.39 4.08 141.17 4.08 C129.3 4.07 117.43 4.06 105.57 4.05 C104.83 4.05 104.1 4.05 103.35 4.05 C99.68 4.05 96.01 4.05 92.34 4.05 C61.9 4.04 31.45 4.02 1 4 C0.67 2.68 0.34 1.36 0 0 Z " fill="#E9CC91" transform="translate(27,70)"/>
<path d="M0 0 C4.17 0.01 8.35 0.01 12.52 0.01 C19.52 0.01 26.52 0.02 33.53 0.03 C41.55 0.05 49.57 0.05 57.59 0.05 C66.24 0.05 74.88 0.06 83.53 0.07 C85.97 0.07 88.42 0.07 90.86 0.07 C109.36 0.07 127.81 0.29 146.29 1.24 C146.29 1.57 146.29 1.9 146.29 2.24 C122.86 2.4 122.86 2.4 4.29 3.24 C4.29 3.57 4.29 3.9 4.29 4.24 C-15.84 4.24 -35.97 4.24 -56.71 4.24 C-57.37 5.89 -58.03 7.54 -58.71 9.24 C-59.67 11.01 -60.67 12.76 -61.71 14.49 C-62.22 15.36 -62.74 16.23 -63.27 17.13 C-64.71 19.24 -64.71 19.24 -66.71 20.24 C-65.29 16.51 -63.62 13.05 -61.71 9.55 C-61.45 9.07 -61.45 9.07 -60.14 6.66 C-58.71 4.24 -58.71 4.24 -56.71 2.24 C-53.45 1.53 -50.1 1.38 -46.78 1.13 C-46.25 1.08 -46.25 1.08 -43.57 0.87 C-29.07 -0.16 -14.53 -0.04 0 0 Z " fill="#802867" transform="translate(90.70724558830261,7.764280557632446)"/>
<path d="M0 0 C2.62 -0 5.23 -0 7.85 -0 C13.26 -0 18.68 -0 24.1 0 C30.32 0.01 36.53 0.01 42.75 0 C48.82 -0 54.88 -0 60.95 -0 C63.5 -0 66.05 -0 68.6 -0 C72.15 -0.01 75.71 -0 79.26 0 C80.29 0 81.32 -0 82.38 -0 C89.71 0.02 96.97 0.49 104.28 1.13 C104.28 1.46 104.28 1.79 104.28 2.13 C51.15 2.13 -1.98 2.13 -56.72 2.13 C-57.05 3.78 -57.38 5.43 -57.72 7.13 C-58.05 7.79 -58.38 8.45 -58.72 9.13 C-61.06 9.13 -63.39 9.13 -65.72 9.13 C-65.39 11.77 -65.06 14.41 -64.72 17.13 C-64.06 16.14 -63.4 15.15 -62.72 14.13 C-62.06 14.13 -61.4 14.13 -60.72 14.13 C-60.33 18.14 -60.71 20.43 -62.85 23.76 C-63.47 24.87 -64.09 25.99 -64.72 27.13 C-63.61 30.27 -61.61 32.76 -59.6 35.38 C-59.06 36.09 -58.52 36.8 -57.96 37.52 C-57.55 38.05 -57.14 38.59 -56.72 39.13 C-57.38 39.3 -57.38 39.3 -60.72 40.13 C-61.11 39.56 -61.5 38.98 -61.89 38.38 C-62.15 38.01 -62.15 38.01 -63.47 36.13 C-63.98 35.39 -64.49 34.65 -65.02 33.88 C-65.58 33.31 -66.14 32.73 -66.72 32.13 C-70.72 32.13 -70.72 32.13 -72.43 33.66 C-72.71 33.99 -72.71 33.99 -74.1 35.63 C-77.31 39.08 -77.31 39.08 -81.16 39.57 C-82.01 39.43 -82.85 39.28 -83.72 39.13 C-82.81 37.9 -81.89 36.67 -80.97 35.45 C-80.42 34.71 -79.87 33.97 -79.3 33.2 C-77.72 31.13 -77.72 31.13 -75.66 28.82 C-71.91 23.61 -69.13 17.48 -67.79 11.2 C-66.38 7.16 -64.34 6.24 -60.72 4.13 C-60.06 3.14 -59.4 2.15 -58.72 1.13 C-56.2 0.7 -56.2 0.7 -52.97 0.63 C-51.78 0.59 -50.58 0.56 -49.34 0.52 C-48.04 0.5 -46.74 0.48 -45.39 0.45 C-44.03 0.42 -42.67 0.39 -41.3 0.35 C-27.54 0.03 -13.77 -0.01 0 0 Z " fill="#B18E6A" transform="translate(83.72265625,-0.1328125)"/>
<path d="M0 0 C0.99 0 1.98 0 3 0 C3 0.66 3 1.32 3 2 C4.65 2 6.3 2 8 2 C6.68 2.99 5.36 3.98 4 5 C4.16 5.83 4.16 5.83 5 10 C3.95 10.56 2.9 11.11 1.81 11.69 C-0.85 13.19 -2.46 14.46 -4.69 16.69 C-7.51 19.51 -9.25 19.9 -13.15 20.12 C-13.92 20.12 -14.7 20.12 -15.49 20.11 C-15.93 20.11 -15.93 20.11 -18.16 20.11 C-19.1 20.11 -20.05 20.1 -21.02 20.1 C-21.5 20.1 -21.5 20.1 -23.96 20.09 C-27.06 20.09 -30.15 20.08 -33.25 20.06 C-35.35 20.06 -37.45 20.05 -39.55 20.05 C-44.7 20.04 -49.85 20.02 -55 20 C-51.19 17.9 -48.5 17.82 -44.12 17.94 C-39.59 18.05 -35.46 17.88 -31 17 C-31 16.34 -31 15.68 -31 15 C-30.2 14.71 -29.39 14.42 -28.56 14.12 C-26 13 -26 13 -25 11 C-25.99 10.67 -26.98 10.34 -28 10 C-29.19 7.44 -29.19 7.44 -30 5 C-29.34 4.67 -28.68 4.34 -28 4 C-27.01 4.99 -26.02 5.98 -25 7 C-24.4 6.48 -23.8 5.97 -23.19 5.44 C-22.47 4.96 -21.74 4.49 -21 4 C-20.01 4.33 -19.02 4.66 -18 5 C-17.34 4.01 -16.68 3.02 -16 2 C-14.44 3.25 -14.44 3.25 -13 5 C-13.31 7.19 -13.31 7.19 -14 9 C-13.34 9.33 -12.68 9.66 -12 10 C-11.67 8.68 -11.34 7.36 -11 6 C-9.02 6.33 -7.04 6.66 -5 7 C-4.67 6.49 -4.35 5.99 -4.01 5.47 C-3.57 4.82 -3.14 4.17 -2.69 3.5 C-2.26 2.85 -1.83 2.2 -1.39 1.53 C-0.93 1.03 -0.47 0.52 0 0 Z " fill="#521647" transform="translate(215,45)"/>
<path d="M0 0 C0.66 0 1.32 0 2 0 C2 0.66 2 1.32 2 2 C2.66 2 3.32 2 4 2 C4.33 1.34 4.66 0.68 5 0 C5.41 0.55 5.82 1.11 6.24 1.68 C6.78 2.4 7.32 3.13 7.88 3.88 C8.41 4.59 8.94 5.31 9.49 6.05 C11 8 11 8 13 10 C12.57 10.41 12.13 10.83 11.69 11.25 C10 13 10 13 8.69 14.75 C8.13 15.49 7.57 16.23 7 17 C6.69 17.57 6.38 18.15 6.06 18.74 C4.56 21.07 3.32 22.44 1 24 C-4.14 24.89 -9.19 24.66 -14.38 24.44 C-15.79 24.4 -17.21 24.37 -18.63 24.34 C-22.09 24.27 -25.54 24.14 -29 24 C-29 23.34 -29 22.68 -29 22 C-26.36 22 -23.72 22 -21 22 C-21 21.34 -21 20.68 -21 20 C-20.34 20 -19.68 20 -19 20 C-19 20.66 -19 21.32 -19 22 C-14.12 17.38 -14.12 17.38 -13 14 C-13.99 13.67 -14.98 13.34 -16 13 C-16 12.34 -16 11.68 -16 11 C-15.01 11 -14.02 11 -13 11 C-13 10.34 -13 9.68 -13 9 C-12.61 8.86 -12.61 8.86 -10.62 8.12 C-8 7 -8 7 -6 5 C-6 5.99 -6 6.98 -6 8 C-5.01 7.24 -4.02 6.47 -3 5.69 C-2.44 5.26 -1.89 4.83 -1.31 4.39 C0 3 0 3 0 0 Z " fill="#3C0F35" transform="translate(266,41)"/>
<path d="M0 0 C3.43 0.01 6.86 0 10.29 -0.01 C12.5 -0.01 14.72 -0 16.94 -0 C17.94 -0 18.95 -0.01 19.99 -0.01 C39.63 0.06 39.63 0.06 43.18 3.51 C43.69 4.37 44.21 5.24 44.74 6.13 C45.16 6.34 45.16 6.34 47.3 7.38 C50.52 9.69 50.79 11.73 51.86 15.44 C53.74 21.19 56.43 27.82 60.74 32.13 C61.44 33.78 62.11 35.45 62.74 37.13 C63.07 37.79 63.4 38.45 63.74 39.13 C62.75 39.13 61.76 39.13 60.74 39.13 C60.51 39.71 60.28 40.29 60.05 40.88 C58.41 43.7 56.34 45.21 53.74 47.13 C55.03 44.25 56.4 42.26 58.74 40.13 C57.18 36.31 54.78 33.87 51.74 31.13 C51.08 31.13 50.42 31.13 49.74 31.13 C47.88 33.13 46.2 35.25 44.49 37.38 C42.74 39.13 42.74 39.13 39.74 39.13 C41.3 35.61 43.43 32.86 45.86 29.88 C46.23 29.43 46.23 29.43 48.06 27.18 C48.61 26.5 49.17 25.83 49.74 25.13 C49.08 25.13 48.42 25.13 47.74 25.13 C47.41 25.79 47.08 26.45 46.74 27.13 C46.21 26.11 45.68 25.08 45.13 24.02 C44.42 22.66 43.7 21.3 42.99 19.94 C42.64 19.27 42.29 18.6 41.93 17.9 C39.86 13.97 37.66 10.52 34.74 7.13 C37.57 8.03 40.28 8.9 42.93 10.26 C44.74 11.13 44.74 11.13 47.74 11.13 C47.74 10.47 47.74 9.81 47.74 9.13 C47.18 9.09 47.18 9.09 44.36 8.88 C40.74 8.13 40.74 8.13 39.24 6.19 C38.74 4.13 38.74 4.13 39.74 2.13 C14.33 2.13 -11.08 2.13 -37.26 2.13 C-37.26 1.8 -37.26 1.47 -37.26 1.13 C-24.85 0.01 -12.46 -0.02 0 0 Z " fill="#99764E" transform="translate(236.261962890625,-0.13037109375)"/>
<path d="M0 0 C0.33 0.66 0.33 0.66 2 4 C1.34 4.99 0.68 5.98 0 7 C-3.13 7.29 -6.07 7.39 -9.2 7.36 C-10.17 7.36 -11.13 7.37 -12.13 7.37 C-15.38 7.37 -18.64 7.36 -21.89 7.34 C-24.22 7.34 -26.54 7.34 -28.87 7.34 C-35.2 7.34 -41.53 7.33 -47.86 7.3 C-53.8 7.29 -59.74 7.28 -65.68 7.28 C-77.45 7.27 -89.21 7.25 -100.98 7.23 C-112.41 7.2 -123.85 7.18 -135.28 7.16 C-135.98 7.16 -136.69 7.16 -137.41 7.16 C-140.95 7.16 -144.48 7.15 -148.02 7.15 C-177.34 7.12 -206.67 7.07 -236 7 C-236 6.67 -236 6.34 -236 6 C-159.11 6 -82.22 6 -3 6 C-2.67 4.68 -2.34 3.36 -2 2 C-1.34 1.34 -0.68 0.68 0 0 Z " fill="#1A020C" transform="translate(270,64)"/>
<path d="M0 0 C4.6 -0.01 9.21 -0.03 13.81 -0.06 C17.42 -0.08 21.02 -0.08 24.63 -0.08 C26.33 -0.09 28.03 -0.09 29.73 -0.11 C32.07 -0.12 34.42 -0.12 36.76 -0.12 C37.45 -0.13 38.13 -0.13 38.84 -0.14 C44.29 -0.1 47.24 1.61 51.35 4.99 C53.76 7.88 55 10.69 56.22 14.24 C55.89 15.23 55.56 16.22 55.22 17.24 C52.22 12.49 52.22 12.49 52.22 10.24 C51.62 9.99 51.03 9.75 50.41 9.49 C47.91 8.06 46.74 6.67 45.22 4.24 C45.22 3.58 45.22 2.92 45.22 2.24 C4.63 2.24 -35.96 2.24 -77.78 2.24 C-77.78 1.91 -77.78 1.58 -77.78 1.24 C-51.85 0.48 -25.94 0.03 0 0 Z " fill="#360E15" transform="translate(223.777099609375,5.759765625)"/>
<path d="M0 0 C-0.8 0.76 -1.61 1.53 -2.44 2.31 C-5 5 -5 5 -6 8 C-9.34 6.89 -10.64 5.53 -13 3 C-13.59 3.57 -14.18 4.13 -14.79 4.71 C-15.58 5.45 -16.37 6.18 -17.19 6.94 C-17.96 7.67 -18.74 8.4 -19.54 9.15 C-22.18 11.14 -23.72 11.85 -27 12 C-32.51 8.29 -32.51 8.29 -33.88 4.69 C-33.92 4.13 -33.96 3.57 -34 3 C-34.99 3 -35.98 3 -37 3 C-37 2.34 -37 1.68 -37 1 C-38.32 0.67 -39.64 0.34 -41 0 C-12.75 -1.55 -12.75 -1.55 0 0 Z " fill="#952F79" transform="translate(160,13)"/>
<path d="M0 0 C0.95 0.35 1.9 0.7 2.88 1.06 C6 2 6 2 8 1 C8.33 1.66 8.66 2.32 9 3 C10.16 2.84 10.16 2.84 16 2 C16.66 4.31 17.32 6.62 18 9 C17.34 9.66 16.68 10.32 16 11 C15.73 11.68 15.46 12.36 15.19 13.06 C14 15 14 15 11.62 15.75 C8.41 16.06 5.23 16 2 16 C0.92 13.35 -0.09 10.72 -1 8 C-1.66 8 -2.32 8 -3 8 C-3.66 9.32 -4.32 10.64 -5 12 C-5.69 10.19 -5.69 10.19 -6 8 C-4.75 6.56 -4.75 6.56 -3 5 C-1.97 3.35 -0.96 1.69 0 0 Z " fill="#671D57" transform="translate(117,35)"/>
<path d="M0 0 C1.17 0.95 2.34 1.91 3.5 2.88 C4.15 3.41 4.8 3.94 5.47 4.49 C5.97 4.99 6.48 5.49 7 6 C7 6.66 7 7.32 7 8 C7.66 8 8.32 8 9 8 C9.12 7.62 9.12 7.62 9.75 5.69 C11.11 2.76 12.32 1.7 15 0 C14.69 0.54 14.38 1.07 14.06 1.62 C12.12 5.96 11.61 8.88 13.19 13.44 C16.64 20.22 19.61 25.57 26 30 C25.36 30.14 24.72 30.29 24.06 30.44 C22 31 22 31 21 32 C21 32.99 21 33.98 21 35 C20.51 35.16 20.51 35.16 18 36 C17.72 35.62 17.72 35.62 16.31 33.69 C14 31 14 31 11.25 29.62 C10.51 29.09 9.77 28.55 9 28 C8.95 25.67 8.96 23.33 9 21 C7.89 17.88 6.5 14.95 5 12 C5.99 12.33 6.98 12.66 8 13 C8 13.66 8 14.32 8 15 C8.66 15 9.32 15 10 15 C10 13.35 10 11.7 10 10 C9.41 9.91 8.81 9.81 8.2 9.71 C5.51 8.84 4.54 7.73 2.75 5.56 C2.49 5.25 2.49 5.25 1.17 3.69 C0 2 0 2 0 0 Z " fill="#A27D49" transform="translate(7,41)"/>
<path d="M0 0 C1.32 0 2.64 0 4 0 C4.67 1.29 5.34 2.58 6 3.88 C6.37 4.59 6.74 5.31 7.12 6.05 C8 8 8 8 8 10 C7.01 9.67 6.02 9.34 5 9 C4.34 10.98 3.68 12.96 3 15 C2.34 14.67 1.68 14.34 1 14 C0.67 14.66 0.34 15.32 0 16 C-2.97 15.67 -5.94 15.34 -9 15 C-9 15.66 -9 16.32 -9 17 C-9.99 17 -10.98 17 -12 17 C-12 17.66 -12 18.32 -12 19 C-13.65 19.66 -15.3 20.32 -17 21 C-17.33 19.68 -17.66 18.36 -18 17 C-17.01 16.67 -16.02 16.34 -15 16 C-15.66 13.69 -16.32 11.38 -17 9 C-16.5 9.33 -16.5 9.33 -14 11 C-14 11.66 -14 12.32 -14 13 C-13.34 13 -12.68 13 -12 13 C-12.33 11.68 -12.66 10.36 -13 9 C-12.01 9 -11.02 9 -10 9 C-10 8.01 -10 7.02 -10 6 C-9.01 6.33 -8.02 6.66 -7 7 C-7.33 7.66 -7.66 8.32 -8 9 C-7.34 9 -6.68 9 -6 9 C-6 8.34 -6 7.68 -6 7 C-5.01 7 -4.02 7 -3 7 C-3 6.34 -3 5.68 -3 5 C-2.34 5 -1.68 5 -1 5 C-0.67 3.35 -0.34 1.7 0 0 Z " fill="#772362" transform="translate(186,13)"/>
<path d="M0 0 C1 3 1 3 0 6 C0.78 5.01 1.57 4.02 2.38 3 C2.81 2.5 2.81 2.5 5 0 C5.66 0 6.32 0 7 0 C7.39 4 7.01 6.3 4.88 9.62 C4.26 10.74 3.64 11.85 3 13 C4.11 16.14 6.11 18.63 8.12 21.25 C8.66 21.96 9.2 22.66 9.76 23.39 C10.17 23.92 10.58 24.45 11 25 C9.68 25.33 8.36 25.66 7 26 C6.61 25.42 6.23 24.84 5.83 24.25 C5.57 23.88 5.57 23.88 4.25 22 C3.74 21.26 3.23 20.52 2.7 19.75 C2.14 19.17 1.58 18.59 1 18 C-3 18 -3 18 -4.71 19.53 C-5.26 20.18 -5.81 20.83 -6.38 21.5 C-9.59 24.95 -9.59 24.95 -13.44 25.44 C-14.28 25.29 -15.13 25.15 -16 25 C-15.08 23.77 -14.17 22.54 -13.25 21.31 C-12.74 20.63 -12.23 19.94 -11.7 19.24 C-10.51 17.67 -9.27 16.13 -8 14.62 C-5.83 11.77 -4.31 8.91 -2.75 5.69 C-2.23 4.62 -1.71 3.55 -1.17 2.45 C-0.98 2.05 -0.98 2.05 0 0 Z " fill="#A08050" transform="translate(16,14)"/>
<path d="M0 0 C0 0.99 0 1.98 0 3 C-22.4 3.16 -44.79 2.89 -67.19 2.5 C-67.88 2.49 -68.56 2.48 -69.27 2.46 C-77.85 2.31 -86.42 2.16 -95 2 C-95 1.67 -95 1.34 -95 1 C-63.33 -0.04 -31.68 -0.12 0 0 Z " fill="#300823" transform="translate(267,67)"/>
<path d="M0 0 C7.88 -0.12 15.77 -0.2 23.65 -0.26 C27.31 -0.29 30.98 -0.32 34.64 -0.38 C38.17 -0.43 41.7 -0.46 45.24 -0.47 C47.24 -0.49 49.24 -0.53 51.25 -0.57 C52.47 -0.57 53.69 -0.57 54.95 -0.57 C56.02 -0.58 57.1 -0.59 58.2 -0.6 C61.96 0.21 62.93 1.85 65 5 C65.5 5.75 66 6.51 66.52 7.28 C66.73 7.65 66.73 7.65 67.81 9.5 C68.25 10.23 68.69 10.96 69.14 11.72 C70.24 14.64 69.98 16.06 69 19 C67.59 21.24 67.59 21.24 65.94 23.31 C65.39 24.01 64.84 24.71 64.28 25.43 C63.86 25.95 63.43 26.46 63 27 C62.01 26.67 61.02 26.34 60 26 C59.95 25.29 59.9 24.58 59.85 23.85 C59.78 22.93 59.7 22.01 59.62 21.06 C59.59 20.6 59.59 20.6 59.41 18.29 C59.35 17.91 59.35 17.91 59 16 C58.34 15.67 57.68 15.34 57 15 C57.99 14.67 58.98 14.34 60 14 C60.66 14.33 61.32 14.66 62 15 C61.83 15.82 61.83 15.82 61 20 C61.66 20.33 62.32 20.66 63 21 C63.66 21.33 64.32 21.66 65 22 C64.34 20.02 63.68 18.04 63 16 C63.66 16 64.32 16 65 16 C65 15.34 65 14.68 65 14 C64.01 13.67 63.02 13.34 62 13 C62.23 11.93 62.45 10.86 62.69 9.75 C63 6 63 6 61.89 3.8 C59.29 1.32 57.7 1.48 54.15 1.45 C52.95 1.43 51.75 1.41 50.51 1.39 C49.22 1.39 47.92 1.39 46.58 1.39 C45.24 1.38 43.9 1.36 42.56 1.34 C39.03 1.3 35.51 1.28 31.98 1.26 C28.38 1.24 24.78 1.2 21.18 1.16 C14.12 1.08 7.06 1.03 0 1 C0 0.67 0 0.34 0 0 Z " fill="#440F3A" transform="translate(206,12)"/>
<path d="M0 0 C4.29 1.65 6.88 4.74 10 8 C8.64 10.99 7.05 13.29 4.88 15.75 C4.61 16.06 4.61 16.06 3.24 17.61 C2.83 18.07 2.42 18.53 2 19 C-4.38 12.8 -4.38 12.8 -6 10 C-6 5.82 -2.62 2.95 0 0 Z " fill="#602A60" transform="translate(286,30)"/>
<path d="M0 0 C0 0.33 0 0.66 0 1 C-13.86 1.33 -27.72 1.66 -42 2 C-42 2.33 -42 2.66 -42 3 C-69.02 3.15 -95.99 2.77 -123 2 C-123 1.67 -123 1.34 -123 1 C-112.25 0.83 -101.5 0.66 -90.75 0.5 C-89.95 0.49 -89.15 0.48 -88.33 0.46 C-58.88 0.03 -29.45 -0.13 0 0 Z " fill="#3F1716" transform="translate(157,5)"/>
<path d="M0 0 C4.48 0.71 6.29 3.16 9.22 6.41 C11.16 8.15 12.45 8.6 15 9 C14.59 9.6 14.18 10.21 13.76 10.83 C13.22 11.63 12.68 12.43 12.12 13.25 C11.59 14.04 11.06 14.83 10.51 15.64 C9.18 17.72 8.05 19.78 7 22 C6.34 22 5.68 22 5 22 C5.95 19.55 6.88 17.22 8.19 14.94 C9.2 12.52 8.72 11.45 8 9 C7.54 9.98 7.08 10.95 6.61 11.96 C5.99 13.24 5.37 14.53 4.75 15.81 C4.45 16.46 4.15 17.1 3.84 17.76 C2.06 21.42 0.53 23.9 -3 26 C-4 25 -4 25 -4.29 22.29 C-3.86 17.35 -1.2 14.5 1.66 10.59 C2.1 9.73 2.55 8.88 3 8 C2.25 5.8 2.25 5.8 1 4 C0.63 2.68 0.29 1.34 0 0 Z " fill="#2C1117" transform="translate(275,43)"/>
<path d="M0 0 C5.87 -0.02 11.73 -0.04 17.6 -0.05 C19.59 -0.06 21.58 -0.07 23.57 -0.08 C34.77 -0.12 45.85 -0.06 57 1 C57 1.33 57 1.66 57 2 C52.57 2.85 48.4 3.12 43.89 3.11 C43.21 3.11 42.53 3.11 41.82 3.11 C39.58 3.11 37.34 3.11 35.1 3.1 C33.54 3.1 31.98 3.09 30.42 3.09 C26.33 3.09 22.23 3.08 18.14 3.07 C13.96 3.06 9.77 3.05 5.59 3.05 C-2.61 3.04 -10.8 3.02 -19 3 C-19 2.67 -19 2.34 -19 2 C-12.73 1.67 -6.46 1.34 0 1 C0 0.67 0 0.34 0 0 Z " fill="#370B28" transform="translate(60,67)"/>
<path d="M0 0 C4.82 2.01 6.87 5.35 9 10 C9.09 13.53 7.68 15.54 5.88 18.44 C4.43 20.91 4 21.92 3.88 24.88 C5.54 29.51 7.48 33.48 11 37 C14.63 38.28 18.05 38.19 21.87 38.1 C22.9 38.11 23.94 38.12 25 38.13 C28.29 38.15 31.58 38.11 34.88 38.06 C37.11 38.07 39.35 38.07 41.59 38.08 C47.06 38.1 52.53 38.07 58 38 C58 38.33 58 38.66 58 39 C50.19 39.33 42.38 39.62 34.57 39.87 C31.37 39.99 28.17 40.14 24.96 40.31 C23.21 40.38 21.45 40.44 19.69 40.5 C19.29 40.53 19.29 40.53 17.27 40.67 C13.93 40.74 11.87 40.7 9.22 38.55 C7.65 36.77 6.3 34.98 5 33 C4.51 32.25 4.01 31.51 3.5 30.74 C2.02 27.81 1 25.7 1 22.38 C2 20 2 20 4.12 17.06 C6 14 6 14 6.06 11 C4.7 7.15 2.7 5.05 0 2 C0 1.34 0 0.68 0 0 Z " fill="#541F4D" transform="translate(23,27)"/>
<path d="M0 0 C0.72 0.01 1.44 0.02 2.19 0.03 C4.58 0.06 6.97 0.1 9.36 0.14 C11.02 0.17 12.68 0.19 14.33 0.21 C18.69 0.28 23.06 0.35 27.42 0.42 C31.87 0.49 36.32 0.55 40.77 0.62 C49.51 0.75 58.24 0.88 66.98 1.02 C66.98 1.35 66.98 1.68 66.98 2.02 C66.1 2.03 65.22 2.03 64.32 2.04 C56.03 2.1 47.75 2.17 39.47 2.26 C35.21 2.3 30.95 2.34 26.69 2.37 C22.58 2.39 18.47 2.43 14.36 2.48 C12.79 2.5 11.22 2.51 9.66 2.52 C7.46 2.53 5.26 2.56 3.07 2.59 C1.81 2.6 0.56 2.61 -0.72 2.62 C-5.54 3.21 -8.05 4.92 -11.21 8.52 C-12.52 10.33 -13.78 12.17 -15.02 14.02 C-15.02 12.7 -15.02 11.38 -15.02 10.02 C-15.68 10.02 -16.34 10.02 -17.02 10.02 C-17.68 11.34 -18.34 12.66 -19.02 14.02 C-19.35 14.02 -19.68 14.02 -20.02 14.02 C-20.35 11.71 -20.68 9.4 -21.02 7.02 C-19.78 6.96 -18.55 6.9 -17.27 6.83 C-13.77 6.42 -13.21 6.22 -10.65 3.52 C-10.11 2.7 -9.57 1.87 -9.02 1.02 C-6.03 -0.48 -3.34 -0.05 0 0 Z " fill="#694421" transform="translate(38.02001953125,3.978271484375)"/>
<path d="M0 0 C0.17 0.33 0.17 0.33 1 2 C-0.14 4.31 -0.14 4.31 -1.81 7 C-2.08 7.44 -2.08 7.44 -3.46 9.69 C-5 12 -5 12 -7 14 C-9.33 14.24 -9.33 14.24 -12.28 14.23 C-13.38 14.23 -14.48 14.23 -15.61 14.23 C-16.8 14.22 -18 14.21 -19.23 14.2 C-20.44 14.19 -21.66 14.19 -22.92 14.19 C-26.82 14.18 -30.72 14.15 -34.62 14.12 C-37.27 14.11 -39.91 14.11 -42.55 14.1 C-49.03 14.08 -55.52 14.04 -62 14 C-62 13.34 -62 12.68 -62 12 C-61.33 12 -60.67 12 -59.98 12 C-53.06 12 -46.13 11.97 -39.2 11.9 C-36.62 11.88 -34.03 11.88 -31.45 11.88 C-27.73 11.88 -24.02 11.85 -20.3 11.8 C-19.15 11.81 -17.99 11.82 -16.8 11.83 C-8.97 11.69 -8.97 11.69 -6.19 9.71 C-4.84 8.13 -4.84 8.13 -3 5 C-2.4 4.05 -1.8 3.1 -1.19 2.12 C-0.8 1.42 -0.4 0.72 0 0 Z " fill="#55214E" transform="translate(275,53)"/>
<path d="M0 0 C0 0.33 0 0.66 0 1 C-20.79 1 -41.58 1 -63 1 C-63.33 2.65 -63.66 4.3 -64 6 C-64.33 6.66 -64.66 7.32 -65 8 C-67.33 8 -69.67 8 -72 8 C-71.95 8.57 -71.91 9.14 -71.86 9.72 C-71.58 15.77 -72.59 19 -76 24 C-76.33 23.34 -76.66 22.68 -77 22 C-76.53 21.13 -76.05 20.27 -75.56 19.38 C-74.02 16.04 -73.91 15.33 -74.25 11.94 C-74 8 -74 8 -72.52 6.48 C-70.62 5.19 -70.62 5.19 -68.73 4.11 C-67 3 -67 3 -65 0 C-62.57 -0.45 -62.57 -0.45 -59.47 -0.55 C-58.3 -0.59 -57.13 -0.63 -55.93 -0.67 C-54.65 -0.7 -53.38 -0.72 -52.06 -0.75 C-51.41 -0.77 -51.41 -0.77 -48.09 -0.86 C-32.06 -1.24 -16.02 -0.63 0 0 Z " fill="#A07E51" transform="translate(90,1)"/>
<path d="M0 0 C27.72 0 55.44 0 84 0 C84.16 0.83 84.16 0.83 85 5 C87.31 5.66 89.62 6.32 92 7 C92 7.66 92 8.32 92 9 C89.94 9.88 89.94 9.88 87 10 C83.61 7.77 80.86 4.86 78 2 C75.5 1.78 73.11 1.69 70.61 1.68 C70.23 1.68 70.23 1.68 68.31 1.65 C65.79 1.62 63.26 1.6 60.74 1.59 C59 1.57 57.25 1.55 55.5 1.53 C50.9 1.48 46.3 1.44 41.7 1.4 C37.01 1.36 32.32 1.31 27.63 1.26 C18.42 1.16 9.21 1.08 0 1 C0 0.67 0 0.34 0 0 Z " fill="#F2DF9A" transform="translate(192,2)"/>
<path d="M0 0 C0.66 0.66 1.32 1.32 2 2 C1.73 6.67 -0.63 10.1 -3 14 C-2.34 14 -1.68 14 -1 14 C-0.77 13.11 -0.55 12.23 -0.31 11.31 C1.17 7.57 3.02 5.66 6 3 C3.01 12.95 3.01 12.95 0 17 C-3.25 18 -3.25 18 -6 18 C-6.33 19.98 -6.66 21.96 -7 24 C-7.33 22.68 -7.66 21.36 -8 20 C-9.98 20.33 -11.96 20.66 -14 21 C-13.24 20.26 -12.47 19.52 -11.69 18.75 C-7.75 14.72 -5.29 10.81 -2.81 5.75 C-2.55 5.21 -2.55 5.21 -1.21 2.48 C-0.81 1.66 -0.41 0.84 0 0 Z " fill="#B38D4F" transform="translate(283,51)"/>
<path d="M0 0 C6.07 2.82 10.98 6.96 14 13 C13.01 13 12.02 13 11 13 C10.77 13.58 10.55 14.16 10.31 14.75 C8.67 17.57 6.6 19.08 4 21 C5.29 18.12 6.66 16.13 9 14 C7.44 10.18 5.04 7.74 2 5 C1.34 5 0.68 5 0 5 C-1.86 7 -3.53 9.12 -5.25 11.25 C-7 13 -7 13 -10 13 C-8.48 9.52 -6.42 7.04 -3.88 4.25 C-3.15 3.45 -2.43 2.65 -1.68 1.83 C-1.4 1.53 -1.4 1.53 0 0 Z " fill="#E1C988" transform="translate(286,26)"/>
<path d="M0 0 C2 3 2 3 2.88 4.88 C4.94 8.77 6.75 11.58 11 13 C11.33 15.31 11.66 17.62 12 20 C11.67 19.34 11.34 18.68 11 18 C10.34 18 9.68 18 9 18 C8.67 18 8.34 18 8 18 C8.52 18.93 9.03 19.86 9.56 20.81 C11 24 11 24 10 27 C9.52 25.95 9.03 24.9 8.53 23.82 C4.92 16.2 1.46 9.58 -4.53 3.5 C-6 2 -6 2 -6 1 C-4.02 0.67 -2.04 0.34 0 0 Z " fill="#6D4828" transform="translate(6,38)"/>
<path d="M0 0 C2.63 -0.05 5.25 -0.09 7.88 -0.12 C8.62 -0.14 9.37 -0.16 10.14 -0.18 C12.09 -0.19 14.05 -0.1 16 0 C16.66 0.66 17.32 1.32 18 2 C17.01 2.33 16.02 2.66 15 3 C15 3.99 15 4.98 15 6 C15.99 5.67 16.98 5.34 18 5 C18.33 5.99 18.66 6.98 19 8 C18.67 8.66 18.34 9.32 18 10 C10.53 9.51 10.53 9.51 8 7.06 C7 5 7 5 7 3 C6.01 3 5.02 3 4 3 C4 2.34 4 1.68 4 1 C2.68 0.67 1.36 0.34 0 0 Z " fill="#8C2B73" transform="translate(119,13)"/>
<path d="M0 0 C0.66 0.33 1.32 0.66 2 1 C1.59 4.36 0.68 6.63 -1.12 9.44 C-2.77 12.17 -3.01 12.84 -2.81 16.19 C-2.54 17.12 -2.28 18.04 -2 19 C-1.81 19.78 -1.63 20.57 -1.44 21.38 C-1.29 21.91 -1.15 22.45 -1 23 C-2.32 22.67 -3.64 22.34 -5 22 C-5 21.34 -5 20.68 -5 20 C-5.99 20 -6.98 20 -8 20 C-9.23 17.32 -9.23 17.32 -10 14 C-8.52 11.37 -8.52 11.37 -6.25 8.88 C-3.7 6.01 -1.53 3.54 0 0 Z " fill="#1E0815" transform="translate(28,36)"/>
<path d="M0 0 C0 0.99 0 1.98 0 3 C1.32 3.66 2.64 4.32 4 5 C2.94 8.4 1.99 11.01 0 14 C-3.35 12.61 -5.11 11.11 -7 8 C-7 5 -7 5 -4.62 2.31 C-2 0 -2 0 0 0 Z " fill="#863D8C" transform="translate(16,32)"/>
<path d="M0 0 C18.81 0 37.62 0 57 0 C56.67 0.99 56.34 1.98 56 3 C46.76 2.67 46.76 2.67 0 1 C0 0.67 0 0.34 0 0 Z " fill="#541542" transform="translate(212,8)"/>
<path d="M0 0 C3.88 1.55 6.03 4 8.75 7.12 C9.55 8.04 10.35 8.95 11.17 9.88 C11.78 10.58 12.38 11.28 13 12 C12.34 12.33 12.34 12.33 9 14 C8.81 13.71 8.81 13.71 7.83 12.25 C7.57 11.88 7.57 11.88 6.25 10 C5.74 9.26 5.23 8.52 4.7 7.75 C4.14 7.17 3.58 6.59 3 6 C-1 6 -1 6 -2.78 7.57 C-3.93 8.9 -5.07 10.23 -6.22 11.57 C-6.81 12.04 -7.39 12.51 -8 13 C-10.22 12.71 -10.22 12.71 -12 12 C-8 8 -4 4 0 0 Z " fill="#E1CE94" transform="translate(14,26)"/>
<path d="M0 0 C0.33 0.17 0.33 0.17 2 1 C10.57 2.12 19.23 2.2 27.86 2.32 C28.49 2.33 28.49 2.33 31.71 2.38 C35.04 2.43 38.38 2.48 41.71 2.53 C45.13 2.58 48.55 2.64 51.97 2.69 C58.65 2.8 65.32 2.9 72 3 C72 3.33 72 3.66 72 4 C48.57 4 25.14 4 1 4 C0.67 2.68 0.34 1.36 0 0 Z " fill="#E0BD75" transform="translate(27,70)"/>
<path d="M0 0 C1.16 0.01 2.33 0.02 3.53 0.03 C4.74 0.05 5.96 0.08 7.21 0.11 C8.43 0.12 9.66 0.13 10.92 0.15 C13.96 0.18 16.99 0.23 20.02 0.29 C20.02 0.62 20.02 0.95 20.02 1.29 C19.32 1.3 18.63 1.31 17.91 1.32 C14.74 1.38 11.57 1.53 8.39 1.67 C7.3 1.68 6.21 1.69 5.08 1.7 C-2.93 2.14 -2.93 2.14 -6.01 5.52 C-7.52 8.05 -8.76 10.61 -9.98 13.29 C-11.27 14.99 -12.58 16.68 -13.98 18.29 C-13.36 14.74 -12.43 11.52 -11.11 8.17 C-10.78 7.32 -10.45 6.47 -10.11 5.6 C-7.64 0.58 -5.55 -0.08 0 0 Z " fill="#410E35" transform="translate(37.98046875,7.70703125)"/>
<path d="M0 0 C5.02 -0.15 10.03 -0.26 15.05 -0.33 C16.76 -0.36 18.46 -0.4 20.17 -0.45 C22.62 -0.53 25.08 -0.56 27.54 -0.59 C27.92 -0.6 27.92 -0.6 29.83 -0.68 C34.05 -0.68 36.32 -0.17 39.41 2.81 C42.22 5.93 43.72 9 45 13 C44.67 13.99 44.34 14.98 44 16 C41 11.25 41 11.25 41 9 C40.4 8.75 39.8 8.51 39.19 8.25 C36.68 6.82 35.52 5.43 34 3 C34 2.34 34 1.68 34 1 C22.78 1 11.56 1 0 1 C0 0.67 0 0.34 0 0 Z " fill="#260814" transform="translate(235,7)"/>
<path d="M0 0 C5.94 0 11.88 0 18 0 C17.67 1.65 17.34 3.3 17 5 C16.34 5 15.68 5 15 5 C15 4.34 15 3.68 15 3 C13.68 2.67 12.36 2.34 11 2 C11 3.32 11 4.64 11 6 C9 7.75 9 7.75 7 9 C6.34 7.68 5.68 6.36 5 5 C4.34 5 3.68 5 3 5 C2.88 4.36 2.75 3.72 2.62 3.06 C2.52 2.72 2.52 2.72 2 1 C1.34 0.67 0.68 0.34 0 0 Z " fill="#882B6F" transform="translate(163,13)"/>
<path d="M0 0 C3.92 1.55 5.89 3.28 8.62 6.44 C6.98 6.11 5.32 5.78 3.62 5.44 C3.62 7.09 3.62 8.74 3.62 10.44 C2.63 10.77 1.64 11.1 0.62 11.44 C0.4 10.49 0.17 9.54 -0.06 8.56 C-1.38 5.44 -1.38 5.44 -4 4.06 C-4.78 3.86 -5.57 3.65 -6.38 3.44 C-6.38 2.78 -6.38 2.12 -6.38 1.44 C-3.38 -0.56 -3.38 -0.56 0 0 Z " fill="#9C733C" transform="translate(24.375,65.5625)"/>
<path d="M0 0 C0.66 0 1.32 0 2 0 C2 0.66 2 1.32 2 2 C2.72 1.86 3.44 1.71 4.19 1.56 C7.47 2.07 7.85 2.58 9.81 5.12 C12 8.49 12.49 10.95 12 15 C6.29 11.87 3.11 7.71 0 2 C0 1.34 0 0.68 0 0 Z " fill="#2E1017" transform="translate(21,56)"/>
<path d="M0 0 C3.1 1.32 4.62 2.42 6.25 5.38 C6.42 5.67 6.42 5.67 7.27 7.15 C8 9 8 9 8 13 C6.87 14.96 6.87 14.96 5.44 16.94 C3.02 20.68 3.02 20.68 2.88 23.5 C4.55 27.23 6.72 30.61 9 34 C4.53 32.06 2.21 29.29 0 25 C-0.09 21.49 1.34 19.4 3.12 16.5 C5 13 5 13 5 10.56 C3.58 6.91 1.84 3.45 0 0 Z " fill="#5A2353" transform="translate(270,16)"/>
<path d="M0 0 C5.69 1.48 5.69 1.48 7.12 3.88 C7.41 4.58 7.7 5.28 8 6 C8.64 6.64 9.28 7.28 9.94 7.94 C12.14 10.14 13.58 12.23 15 15 C15 15.99 15 16.98 15 18 C14.34 18 13.68 18 13 18 C12.67 18.66 12.34 19.32 12 20 C11.73 19.49 11.73 19.49 10.39 16.89 C9.68 15.53 8.96 14.17 8.25 12.81 C7.9 12.14 7.55 11.47 7.2 10.77 C5.12 6.83 2.92 3.39 0 0 Z " fill="#B08747" transform="translate(271,7)"/>
</svg>
