<svg xmlns="http://www.w3.org/2000/svg" width="140" height="360" viewBox="0 0 140 360">
  <defs>
    <linearGradient id="fall-wash" x1="0" y1="0" x2="1" y2="0">
      <stop offset="0" stop-color="#f8ffff" stop-opacity=".26"/>
      <stop offset=".23" stop-color="#d7f5f7" stop-opacity=".9"/>
      <stop offset=".55" stop-color="#70cce0" stop-opacity=".76"/>
      <stop offset=".82" stop-color="#f5ffff" stop-opacity=".84"/>
      <stop offset="1" stop-color="#62b9d5" stop-opacity=".18"/>
    </linearGradient>
    <filter id="fall-edge" x="-30%" y="-6%" width="160%" height="116%">
      <feTurbulence type="fractalNoise" baseFrequency=".025 .012" numOctaves="2" seed="8" result="noise"/>
      <feDisplacementMap in="SourceGraphic" in2="noise" scale="8" xChannelSelector="R" yChannelSelector="B"/>
    </filter>
  </defs>
  <g filter="url(#fall-edge)">
    <path d="M23-8 C30 66 19 114 32 183 42 236 26 292 41 337 50 361 87 361 98 337 115 289 96 233 108 177 121 116 105 55 116-8Z" fill="url(#fall-wash)" opacity=".92"/>
    <path d="M48 2 C58 72 42 130 58 198 68 244 56 293 69 339" fill="none" stroke="#fff" stroke-width="8" stroke-linecap="round" stroke-dasharray="46 28" opacity=".72">
      <animate attributeName="stroke-dashoffset" from="0" to="-148" dur="3.4s" repeatCount="indefinite"/>
    </path>
    <path d="M89 0 C78 58 98 119 83 178 71 228 91 281 79 344" fill="none" stroke="#3aa7ca" stroke-width="7" stroke-linecap="round" stroke-dasharray="35 36" opacity=".38">
      <animate attributeName="stroke-dashoffset" from="0" to="142" dur="4.2s" repeatCount="indefinite"/>
    </path>
  </g>
  <g fill="none" stroke-linecap="round">
    <path d="M13 344 C35 325 52 351 70 337 88 323 106 350 129 338" stroke="#eaffff" stroke-width="10" opacity=".8"/>
    <path d="M4 355 C28 337 47 362 68 349 90 334 112 360 138 347" stroke="#63bfd5" stroke-width="8" opacity=".46"/>
  </g>
</svg>
