<svg xmlns="http://www.w3.org/2000/svg" width="1200" height="694" viewBox="0 0 1200 694">
<g class="fork">
<path d="M 686.7,305.9 L 672.5,321.5 L 657.5,320.7 L 652.6,327.0 L 681.6,376.9 L 725.8,419.6 L 758.0,469.9 L 762.8,442.6 L 761.0,410.2 L 751.9,387.9 L 741.4,366.4 L 714.7,343.2 L 700.9,325.3 L 694.7,330.1 L 676.4,318.6 L 674.8,319.6 L 664.5,311.7 L 645.2,307.0 L 643.8,302.8 L 626.7,299.2 L 616.6,293.6 L 612.2,284.6 L 585.6,294.1 L 583.1,293.6 L 562.8,292.0 L 555.4,281.5 L 538.9,289.1 L 523.7,284.2 L 507.4,281.2 L 495.3,277.0 L 488.9,279.4 L 476.3,277.4 L 462.0,287.4 L 446.6,291.4 L 427.7,284.4 L 397.2,283.9 L 380.8,275.2 L 374.9,280.2 L 359.1,287.6 L 349.3,281.5 L 325.4,284.3 L 309.4,279.1 L 288.7,267.0 L 278.2,275.0 L 260.4,274.4 L 257.6,274.3 L 243.9,263.2 L 228.9,274.3 L 208.7,266.0 L 195.7,267.7 L 181.9,265.2 L 170.7,257.2 L 145.9,257.4 L 131.8,255.1 L 128.1,264.2 L 108.3,258.3 L 103.5,254.7 L 96.1,258.1 L 87.0,253.6 L 69.4,252.5 L 56.2,255.0 L 53.7,252.4 L 34.7,249.5 L 28.1,255.1 L 26.0,248.6 L 18.7,248.3 L 6.1,241.5 L -2.5,245.1 L -13.0,244.2 L -21.9,237.4 L -23.9,242.6 L -33.1,238.1 L -31.2,243.3 L -29.7,232.1 L -35.6,233.3 L -49.5,224.5 L -50.0,232.9 L -41.3,237.5 L -38.1,238.2 L -35.2,241.0 L -40.0,245.5 L -37.7,243.7 L -56.3,261.6 L -94.5,281.6 L -113.0,302.0 L -117.9,318.3 L -110.0,325.8 L -96.0,333.1 L -85.2,337.0 L -80.3,337.0 L -73.7,350.8 L -70.0,346.1 L -65.1,358.1 L -69.9,350.7 L -54.8,356.4 L -50.8,346.5 L -42.4,351.3 L -30.9,352.4 L -31.3,356.5 L -26.8,360.9 L -20.0,362.3 L 2.4,361.4 L 9.8,358.2 L 21.1,372.0 L 32.9,374.5 L 42.3,381.9 L 58.3,375.1 L 57.8,382.9 L 79.2,379.6 L 87.3,381.9 L 98.2,375.5 L 112.8,379.4 L 124.0,377.2 L 138.6,389.4 L 142.9,388.5 L 162.1,394.3 L 182.1,390.2 L 194.8,390.7 L 211.5,396.5 L 220.6,397.3 L 235.8,403.9 L 248.3,414.2 L 267.7,416.3 L 282.4,426.9 L 298.8,425.9 L 305.8,430.8 L 322.4,429.2 L 338.1,438.9 L 351.9,431.3 L 366.1,440.1 L 388.6,446.5 L 407.6,440.1 L 415.3,443.6 L 429.6,454.7 L 453.0,462.4 L 459.2,467.1 L 471.2,464.3 L 488.0,462.9 L 490.6,476.2 L 503.4,471.3 L 517.4,477.1 L 519.9,474.0 L 535.1,474.8 L 541.6,475.0 L 561.1,471.1 L 567.1,468.8 L 574.9,477.5 L 584.2,481.8 L 599.1,474.2 L 603.7,480.9 L 605.5,489.1 L 595.3,487.1 L 596.4,487.9 L 587.4,486.2 L 587.8,473.9 L 573.2,455.1 L 563.8,447.1 L 565.4,427.1 L 562.0,396.1 L 561.6,377.8 L 586.2,432.8 L 623.5,474.0 L 658.1,525.8 L 660.6,539.2 L 674.7,542.7 L 686.0,547.1 L 681.2,464.9 L 677.6,393.6 Z" fill="#515547"/>
<path d="M 680.1,326.7 L 674.8,326.4 L 668.5,327.1 L 656.0,323.2 L 691.4,369.6 L 721.6,415.7 L 752.6,458.4 L 746.7,432.5 L 752.7,410.4 L 748.8,379.7 L 734.5,372.3 L 716.1,347.2 L 693.1,332.1 L 682.7,328.1 L 669.8,330.4 L 666.1,322.5 L 655.3,321.4 L 642.3,321.8 L 632.1,309.5 L 615.0,312.6 L 610.1,305.2 L 592.8,310.1 L 581.3,305.2 L 573.6,307.5 L 569.4,302.2 L 553.5,306.1 L 540.3,302.9 L 527.0,299.5 L 507.6,294.4 L 496.5,293.0 L 477.1,286.1 L 467.2,287.8 L 452.8,283.2 L 436.4,278.4 L 422.6,275.9 L 404.4,281.7 L 390.4,274.0 L 370.8,283.3 L 359.3,285.7 L 346.1,283.7 L 331.2,281.4 L 310.8,272.9 L 293.2,268.1 L 286.2,268.6 L 267.0,271.9 L 246.8,280.3 L 232.7,272.6 L 216.2,276.4 L 204.6,268.3 L 189.5,274.1 L 177.7,266.8 L 167.9,265.5 L 156.0,264.7 L 141.6,258.1 L 124.5,256.3 L 117.5,255.2 L 96.5,262.0 L 85.0,259.9 L 74.6,254.9 L 66.7,257.5 L 61.2,254.8 L 53.6,256.0 L 40.6,252.5 L 32.6,246.8 L 26.8,249.8 L 17.1,244.3 L 4.9,245.1 L -1.6,240.7 L -13.6,243.8 L -24.5,243.8 L -23.0,241.7 L -28.7,242.7 L -37.7,239.4 L -34.5,239.0 L -44.3,236.3 L -50.7,236.9 L -45.3,244.1 L -47.4,248.5 L -51.4,249.8 L -48.6,247.8 L -41.1,255.4 L -37.6,254.4 L -61.2,270.2 L -80.9,291.6 L -109.6,308.3 L -104.7,305.9 L -93.6,313.4 L -89.7,322.3 L -90.6,326.8 L -84.6,327.2 L -80.3,333.7 L -71.0,332.4 L -71.8,335.7 L -63.5,336.7 L -57.3,345.1 L -43.5,348.9 L -32.2,349.7 L -31.1,347.5 L -24.8,355.0 L -15.9,360.4 L -9.6,366.2 L -2.3,365.3 L 11.4,371.4 L 17.3,366.7 L 33.7,365.1 L 38.7,370.8 L 52.3,369.7 L 57.2,372.6 L 73.7,377.6 L 88.7,383.4 L 101.6,378.9 L 106.9,381.3 L 123.4,388.5 L 133.9,394.5 L 148.5,396.3 L 163.2,402.8 L 178.0,399.4 L 187.6,402.9 L 206.8,406.9 L 223.2,409.9 L 230.4,405.2 L 250.1,413.6 L 262.5,416.0 L 277.8,412.8 L 291.1,411.6 L 312.6,421.3 L 332.1,418.4 L 343.6,427.4 L 358.9,428.8 L 368.9,432.5 L 381.3,432.7 L 400.9,443.8 L 414.3,441.6 L 427.5,442.3 L 446.8,442.5 L 463.2,439.9 L 470.4,445.6 L 484.6,451.0 L 501.9,454.0 L 510.8,448.6 L 521.3,456.8 L 531.4,457.4 L 545.1,463.2 L 550.9,460.6 L 565.1,458.8 L 576.0,467.0 L 579.5,463.5 L 588.0,467.2 L 589.4,475.7 L 595.3,472.7 L 607.9,481.5 L 599.7,475.4 L 597.2,472.2 L 594.7,479.6 L 580.8,461.7 L 569.6,449.6 L 560.4,445.4 L 566.7,423.1 L 569.8,395.9 L 568.0,383.8 L 594.6,425.9 L 627.2,474.7 L 656.5,521.3 L 661.8,531.3 L 669.3,532.1 L 678.0,534.1 L 683.3,464.6 L 678.8,392.6 Z" fill="#726F58"/>
<path d="M 8.9,302.9 L 9.8,309.4 L -5.3,316.3 L -16.8,309.7 L -21.6,302.9 L -16.0,295.9 L -5.3,293.1 L 5.9,291.1 Z" fill="#726F58" opacity="0.85"/>
<path d="M 568.8,380.0 L 563.5,388.9 L 547.1,402.3 L 534.4,395.4 L 524.0,380.0 L 530.2,364.6 L 547.1,363.5 L 564.1,369.2 Z" fill="#726F58" opacity="0.85"/>
<path d="M 106.2,318.5 L 98.5,333.8 L 83.1,334.6 L 61.9,335.7 L 61.1,318.5 L 69.5,304.5 L 83.1,298.5 L 97.3,304.7 Z" fill="#726F58" opacity="0.85"/>
<path d="M 697.0,399.0 L 668.0,430.4 L 631.8,437.8 L 597.4,419.4 L 578.4,399.0 L 596.0,374.5 L 631.8,364.7 L 669.6,363.7 Z" fill="#5B5E47" opacity="0.85"/>
<path d="M -22.3,292.7 L -29.4,303.3 L -45.7,315.9 L -62.9,308.3 L -69.1,292.7 L -64.2,278.6 L -45.7,267.5 L -21.2,278.2 Z" fill="#5B5E47" opacity="0.85"/>
<path d="M 35.8,308.1 L 32.7,315.3 L 20.7,319.0 L 11.5,314.1 L 4.7,308.1 L 9.6,301.8 L 20.7,297.1 L 32.3,302.4 Z" fill="#5B5E47" opacity="0.85"/>
<path d="M 142.2,323.8 L 137.9,333.1 L 119.1,339.6 L 107.3,332.8 L 102.3,323.8 L 105.1,311.6 L 119.1,311.5 L 138.4,312.7 Z" fill="#5B5E47" opacity="0.85"/>
<path d="M 380.3,351.0 L 359.9,374.3 L 333.1,387.9 L 307.4,371.5 L 284.7,351.0 L 310.6,325.7 L 333.1,329.7 L 353.0,332.3 Z" fill="#726F58" opacity="0.85"/>
<path d="M 185.7,329.1 L 180.5,347.4 L 157.9,357.0 L 131.3,346.5 L 131.9,329.1 L 130.9,316.0 L 157.9,299.1 L 189.3,316.2 Z" fill="#726F58" opacity="0.85"/>
<path d="M 409.6,356.6 L 406.2,371.7 L 379.1,382.0 L 351.2,370.3 L 349.1,356.6 L 354.5,345.0 L 379.1,332.2 L 402.7,344.3 Z" fill="#726F58" opacity="0.85"/>
<path d="M 557.4,518.2 L 557.6,544.5 L 555.4,567.8 L 554.9,595.1 L 574.1,604.4 L 590.1,612.4 L 608.5,626.9 L 624.2,638.8 L 642.8,651.2 L 652.2,669.2 L 676.7,670.2 L 692.4,668.9 L 708.1,669.5 L 719.8,645.4 L 740.5,614.5 L 752.8,581.6 L 752.6,559.8 L 753.8,536.5 L 759.8,522.0 L 686.3,517.9 L 619.8,516.6 Z" fill="#5B6470"/>
<path d="M 558.9,517.0 L 558.7,553.8 L 553.9,588.3 L 580.7,600.9 L 607.4,616.4 L 630.7,632.2 L 658.8,661.1 L 680.7,659.1 L 703.3,662.8 L 732.0,615.8 L 758.0,582.5 L 753.5,553.5 L 754.8,516.7 L 658.1,518.2 Z" fill="#9D9FA1" opacity="0.8"/>
<path d="M 577.8,492.5 L 580.6,514.9 L 572.2,535.0 L 577.9,557.9 L 605.6,575.5 L 631.6,586.0 L 659.5,597.4 L 683.1,583.5 L 716.0,570.9 L 743.0,553.7 L 739.5,537.4 L 738.2,514.1 L 735.9,493.8 L 681.9,499.0 L 632.8,494.1 Z" fill="#666A6C"/>
<path d="M 575.1,498.0 L 573.7,522.8 L 573.9,551.0 L 618.0,567.7 L 653.5,590.9 L 695.4,570.5 L 735.5,545.9 L 739.1,526.8 L 742.3,495.9 L 656.8,491.6 Z" fill="#9D9FA1" opacity="0.8"/>
<path d="M 564.9,480.8 L 564.2,488.4 L 567.3,496.1 L 564.6,514.9 L 584.4,534.1 L 599.8,549.5 L 612.2,577.3 L 622.0,566.6 L 643.5,557.4 L 655.8,547.9 L 669.3,538.5 L 682.1,529.1 L 699.9,522.2 L 696.4,507.2 L 695.7,493.8 L 694.0,476.8 L 654.1,475.3 L 605.9,473.2 Z" fill="#9D9FA1"/>
<path d="M 564.6,478.8 L 567.5,496.3 L 570.7,509.7 L 587.6,532.9 L 610.9,569.4 L 635.8,553.2 L 650.0,549.7 L 677.0,530.6 L 698.5,513.0 L 696.6,498.0 L 697.2,473.1 L 628.3,477.6 Z" fill="#9D9FA1" opacity="0.8"/>
<path d="M 529.1,459.0 L 528.7,482.3 L 524.0,510.3 L 523.0,533.2 L 544.2,549.1 L 561.2,578.4 L 583.9,597.2 L 594.1,570.9 L 611.6,549.0 L 638.4,525.9 L 635.4,501.4 L 631.7,475.5 L 631.4,455.2 L 597.5,457.5 L 567.4,454.8 Z" fill="#666A6C"/>
<path d="M 525.3,453.9 L 522.7,490.5 L 524.4,526.3 L 551.7,559.0 L 581.6,588.9 L 609.6,553.2 L 633.3,516.7 L 629.8,491.3 L 634.0,454.6 L 584.8,459.3 Z" fill="#9D9FA1" opacity="0.8"/>
<path d="M 448.7,439.6 L 444.3,452.4 L 451.3,473.8 L 451.0,481.9 L 464.1,507.5 L 484.8,526.3 L 509.1,541.4 L 528.1,523.3 L 552.9,504.4 L 572.8,486.6 L 568.3,470.2 L 569.2,457.1 L 566.4,443.3 L 527.0,438.3 L 488.0,444.0 Z" fill="#666A6C"/>
<path d="M 449.9,437.6 L 450.3,462.4 L 453.1,478.2 L 474.8,512.0 L 513.4,536.9 L 541.6,509.6 L 568.9,480.0 L 570.9,456.4 L 568.1,443.9 L 507.0,441.3 Z" fill="#9D9FA1" opacity="0.8"/>
<path d="M 371.2,427.1 L 375.0,431.4 L 369.3,444.9 L 368.5,457.7 L 383.2,463.5 L 387.6,471.0 L 398.0,478.3 L 409.4,483.2 L 418.4,488.6 L 428.2,493.6 L 433.6,489.5 L 446.0,493.8 L 446.9,488.7 L 463.7,483.1 L 468.5,474.5 L 478.5,467.9 L 479.6,453.1 L 474.2,440.0 L 475.2,420.9 L 443.0,427.2 L 410.7,421.6 Z" fill="#666A6C"/>
<path d="M 369.4,425.6 L 366.7,435.8 L 367.6,457.8 L 384.3,460.9 L 396.6,479.9 L 407.6,484.0 L 425.6,489.1 L 439.0,486.9 L 446.8,484.9 L 465.7,472.7 L 478.8,461.3 L 474.7,441.9 L 475.5,424.4 L 427.7,429.1 Z" fill="#9D9FA1" opacity="0.8"/>
<path d="M 271.0,410.6 L 269.6,420.9 L 268.6,434.8 L 274.7,444.8 L 294.5,448.5 L 309.9,460.1 L 329.8,477.7 L 357.9,466.0 L 375.4,447.1 L 395.0,435.2 L 399.6,427.4 L 393.7,424.1 L 392.8,414.1 L 352.2,411.6 L 308.5,413.8 Z" fill="#5B6470"/>
<path d="M 272.8,412.8 L 273.4,422.4 L 273.1,440.8 L 298.3,450.8 L 331.4,469.2 L 361.7,448.3 L 398.2,438.2 L 391.4,427.3 L 396.1,405.4 L 332.6,412.0 Z" fill="#9D9FA1" opacity="0.8"/>
<path d="M 200.6,393.9 L 201.0,411.4 L 199.6,419.8 L 199.5,429.4 L 215.1,448.1 L 228.6,462.0 L 242.2,478.7 L 253.4,475.5 L 266.6,468.7 L 281.1,462.3 L 281.9,433.9 L 284.6,419.8 L 287.5,398.7 L 261.0,390.8 L 227.4,391.3 Z" fill="#5B6470"/>
<path d="M 199.5,394.9 L 196.2,412.6 L 200.3,432.4 L 224.0,446.8 L 245.0,471.7 L 260.4,458.4 L 280.1,452.7 L 286.9,420.4 L 283.5,391.4 L 246.2,397.2 Z" fill="#9D9FA1" opacity="0.8"/>
<path d="M 112.8,375.9 L 113.8,389.1 L 113.3,397.4 L 111.6,407.1 L 118.9,413.9 L 130.9,415.6 L 135.9,418.2 L 144.9,436.2 L 148.5,452.2 L 155.4,466.7 L 166.0,452.9 L 171.9,449.5 L 178.0,438.0 L 185.9,430.5 L 194.8,423.6 L 208.9,416.5 L 207.5,408.5 L 205.6,387.8 L 206.6,380.0 L 169.1,381.9 L 142.7,383.7 Z" fill="#85888D"/>
<path d="M 112.7,380.5 L 111.8,393.1 L 114.7,402.8 L 125.9,410.4 L 138.1,414.8 L 146.2,437.0 L 159.9,453.3 L 167.2,441.8 L 181.7,435.3 L 187.9,420.9 L 201.4,417.9 L 203.8,397.7 L 202.2,382.1 L 160.9,382.2 Z" fill="#9D9FA1" opacity="0.8"/>
<path d="M 36.8,366.1 L 40.5,372.4 L 44.5,381.6 L 37.4,386.7 L 45.0,400.8 L 55.0,407.9 L 65.7,412.2 L 76.7,407.1 L 86.7,411.2 L 97.3,405.9 L 107.5,396.6 L 117.2,398.5 L 124.7,392.9 L 127.0,382.2 L 129.1,373.6 L 125.2,366.1 L 99.2,365.6 L 68.4,365.6 Z" fill="#9D9FA1"/>
<path d="M 44.2,368.4 L 41.2,381.7 L 37.8,385.9 L 50.8,395.2 L 71.6,404.9 L 85.5,404.8 L 101.1,405.2 L 113.7,399.7 L 121.9,387.9 L 125.0,377.7 L 127.9,370.1 L 85.5,370.6 Z" fill="#9D9FA1" opacity="0.8"/>
<path d="M -20.9,351.5 L -15.4,360.2 L -20.9,370.1 L -21.1,385.7 L -6.6,398.1 L -4.6,412.1 L 1.0,426.2 L 10.3,420.3 L 12.0,418.8 L 21.4,414.8 L 25.9,413.1 L 37.1,416.7 L 38.6,416.1 L 44.0,406.6 L 54.6,394.8 L 60.5,386.1 L 55.7,371.8 L 55.0,367.7 L 57.4,353.8 L 36.4,355.0 L 5.0,354.7 Z" fill="#5B6470"/>
<path d="M -16.0,350.1 L -15.4,366.5 L -18.7,380.7 L -8.4,399.8 L 4.0,421.6 L 7.4,415.8 L 25.0,414.9 L 31.0,414.3 L 35.3,411.3 L 50.6,395.6 L 57.1,382.2 L 55.4,367.2 L 56.6,357.0 L 23.6,352.6 Z" fill="#9D9FA1" opacity="0.8"/>
<path d="M -66.9,338.1 L -59.2,350.6 L -60.4,359.1 L -64.6,364.3 L -58.9,376.9 L -53.7,388.9 L -44.9,400.7 L -40.0,399.5 L -31.9,406.8 L -25.3,410.2 L -25.6,406.1 L -15.0,402.7 L -8.0,398.6 L -1.6,395.8 L 6.2,378.4 L 4.7,374.2 L 5.4,363.4 L 10.3,347.0 L 7.4,339.8 L -19.4,338.5 L -39.6,334.9 Z" fill="#9D9FA1"/>
<path d="M -60.7,336.7 L -61.1,351.8 L -66.5,361.4 L -52.8,379.8 L -47.6,395.9 L -39.5,399.1 L -31.5,405.2 L -14.8,401.4 L -12.8,393.6 L 1.0,381.3 L 12.4,366.6 L 12.2,356.3 L 11.8,338.1 L -31.7,336.3 Z" fill="#9D9FA1" opacity="0.8"/>
<path d="M -89.1,322.9 L -81.6,336.4 L -88.7,352.4 L -81.8,359.5 L -77.7,366.1 L -70.9,369.8 L -56.1,376.5 L -49.7,363.1 L -40.4,361.0 L -32.8,344.5 L -33.4,344.6 L -29.3,338.4 L -37.6,325.4 L -47.5,326.9 L -64.8,323.2 Z" fill="#9D9FA1"/>
<path d="M -81.8,321.9 L -81.4,340.0 L -82.8,361.7 L -68.3,364.7 L -57.6,369.4 L -43.1,355.3 L -29.5,347.5 L -37.4,340.8 L -34.9,322.3 L -61.8,321.9 Z" fill="#9D9FA1" opacity="0.8"/>
<path d="M 688.7,387.3 L 675.4,389.7 L 664.4,380.5 L 661.3,379.3 L 675.6,404.5 L 684.4,420.1 L 695.5,445.7 L 699.4,424.9 L 697.4,408.0 L 704.6,391.4 L 692.5,390.3 L 683.1,383.3 L 672.9,374.5 L 669.4,376.3 L 659.4,365.0 L 655.2,359.5 L 637.4,362.3 L 633.1,360.5 L 615.5,363.1 L 606.7,355.0 L 605.5,357.4 L 594.0,348.6 L 583.7,347.2 L 564.5,346.4 L 562.1,334.8 L 543.7,343.5 L 528.8,338.3 L 519.4,340.2 L 508.4,342.4 L 494.0,339.1 L 474.5,337.1 L 462.3,333.9 L 446.3,330.9 L 426.8,335.5 L 413.4,324.0 L 404.1,324.0 L 386.1,318.5 L 366.3,318.9 L 358.2,318.9 L 344.2,319.6 L 327.2,317.0 L 306.0,315.0 L 286.3,317.3 L 274.1,315.0 L 258.3,310.3 L 245.1,313.5 L 227.0,306.5 L 218.7,305.7 L 197.3,307.4 L 182.7,300.4 L 168.7,304.6 L 163.6,304.4 L 147.0,307.0 L 133.9,297.1 L 128.3,295.4 L 112.6,294.2 L 98.9,299.2 L 83.0,291.8 L 76.2,295.7 L 62.4,291.0 L 57.0,293.3 L 45.2,293.2 L 34.2,294.0 L 24.3,285.8 L 11.8,283.4 L 3.2,289.2 L -4.8,283.6 L -4.4,285.5 L -11.1,275.4 L -20.2,274.9 L -28.0,272.2 L -35.5,270.1 L -37.5,272.4 L -43.6,269.9 L -45.3,270.6 L -54.2,270.9 L -54.7,264.6 L -54.6,267.2 L -65.2,258.7 L -63.2,264.1 L -62.6,262.2 L -59.6,265.2 L -66.0,274.1 L -78.7,283.2 L -85.4,282.3 L -85.6,287.0 L -82.8,300.2 L -76.5,302.7 L -79.3,298.6 L -74.1,299.8 L -65.2,296.2 L -60.1,302.3 L -52.0,308.3 L -48.0,308.3 L -43.2,310.3 L -33.6,309.8 L -28.7,317.5 L -23.9,315.7 L -9.7,317.3 L -7.8,317.2 L 2.9,321.6 L 8.9,324.1 L 15.1,329.1 L 28.8,327.8 L 38.7,332.7 L 52.5,341.5 L 55.5,340.2 L 68.8,335.6 L 85.0,344.3 L 94.4,343.0 L 106.4,343.5 L 113.8,345.7 L 130.5,350.5 L 140.2,347.0 L 157.6,353.5 L 168.5,359.3 L 186.1,360.8 L 195.8,364.1 L 208.0,365.8 L 222.8,367.3 L 243.0,362.0 L 253.5,367.6 L 270.9,371.1 L 282.1,375.4 L 300.9,373.7 L 319.5,377.8 L 332.3,377.3 L 346.3,377.4 L 358.2,387.6 L 370.8,383.1 L 394.1,387.3 L 407.5,390.8 L 425.7,389.7 L 440.4,389.3 L 455.3,395.0 L 467.3,397.6 L 480.8,401.0 L 491.6,403.1 L 506.1,410.2 L 511.5,414.4 L 530.1,413.9 L 534.4,424.9 L 552.4,418.5 L 561.2,427.5 L 566.9,427.4 L 577.1,428.8 L 589.0,427.1 L 595.2,430.2 L 607.5,429.7 L 608.0,430.7 L 616.8,442.3 L 622.7,443.1 L 624.1,437.5 L 621.9,447.1 L 623.2,443.0 L 619.7,435.7 L 615.9,433.1 L 613.9,415.6 L 614.0,406.3 L 614.8,402.7 L 627.0,423.7 L 637.5,448.9 L 653.8,475.4 L 667.9,472.0 L 671.3,473.7 L 687.8,480.6 L 685.4,452.1 L 679.4,422.8 Z" fill="#988C5D"/>
<path d="M 680.1,390.3 L 670.6,390.0 L 660.2,392.3 L 651.4,397.5 L 665.9,410.0 L 679.3,419.5 L 695.2,432.4 L 692.7,423.8 L 696.4,413.0 L 689.2,399.7 L 686.6,394.7 L 672.7,381.0 L 662.4,377.7 L 655.2,376.3 L 649.3,372.4 L 646.0,366.5 L 635.3,366.5 L 624.0,362.9 L 617.4,363.2 L 604.5,356.0 L 596.0,358.0 L 585.6,359.2 L 573.0,354.7 L 564.7,351.0 L 554.2,351.7 L 539.3,350.6 L 529.6,348.6 L 509.4,340.5 L 500.6,338.2 L 479.6,338.1 L 471.9,341.4 L 454.4,337.8 L 444.4,344.1 L 429.5,343.0 L 413.2,337.2 L 394.8,335.9 L 379.2,335.2 L 363.8,330.1 L 355.6,333.7 L 340.3,327.4 L 320.4,327.6 L 305.9,324.5 L 286.7,325.1 L 275.1,322.6 L 254.6,321.9 L 247.2,319.2 L 232.0,317.7 L 216.1,320.3 L 201.6,317.8 L 191.3,315.3 L 178.6,316.9 L 160.9,314.2 L 152.1,310.5 L 138.4,307.7 L 127.1,306.1 L 110.2,305.1 L 100.3,302.9 L 88.5,301.0 L 75.1,301.3 L 64.7,296.8 L 54.5,294.6 L 43.6,296.7 L 34.9,299.3 L 27.2,293.9 L 18.6,293.0 L 7.4,286.8 L 2.0,285.4 L -11.5,285.2 L -20.8,284.3 L -29.5,285.3 L -32.7,285.1 L -32.2,284.5 L -40.3,280.7 L -43.3,280.8 L -51.6,276.5 L -54.7,279.8 L -59.1,278.1 L -62.5,277.2 L -57.4,276.8 L -64.7,272.9 L -61.0,266.9 L -63.6,265.6 L -72.3,270.0 L -77.5,281.9 L -80.9,287.1 L -75.9,285.3 L -74.7,294.2 L -74.1,293.0 L -74.4,295.6 L -69.6,296.1 L -64.0,300.7 L -61.0,299.7 L -53.1,306.4 L -45.7,308.4 L -37.7,311.3 L -35.1,313.3 L -27.3,312.3 L -23.7,314.5 L -12.2,319.4 L -8.0,319.8 L -2.7,320.6 L 7.3,322.2 L 17.6,317.1 L 30.3,322.4 L 42.3,333.0 L 48.6,332.0 L 58.2,338.7 L 73.1,341.0 L 83.8,338.3 L 93.9,338.8 L 100.9,339.9 L 114.2,339.7 L 128.2,343.5 L 145.1,344.7 L 157.3,347.3 L 171.3,351.4 L 182.3,350.0 L 195.4,354.6 L 216.0,357.7 L 228.6,362.0 L 244.3,358.7 L 255.1,361.6 L 270.5,363.1 L 284.6,362.6 L 303.7,365.3 L 313.5,372.9 L 328.0,377.8 L 346.3,378.1 L 360.7,375.5 L 373.7,372.6 L 393.9,377.8 L 402.1,387.3 L 420.4,388.6 L 437.4,392.2 L 446.3,391.2 L 463.4,396.7 L 474.8,396.5 L 491.8,398.2 L 508.8,405.9 L 515.2,407.9 L 529.9,406.7 L 540.1,414.6 L 552.3,417.0 L 562.7,422.0 L 578.2,421.5 L 581.6,422.0 L 589.9,424.7 L 599.7,425.3 L 605.4,425.6 L 609.8,429.4 L 613.4,431.0 L 624.4,433.8 L 629.2,430.7 L 631.7,433.3 L 633.0,432.6 L 630.6,432.1 L 625.3,424.3 L 630.9,423.5 L 628.5,411.1 L 625.8,410.7 L 639.7,426.3 L 648.3,448.5 L 651.9,466.9 L 668.9,469.0 L 677.7,466.8 L 685.1,465.5 L 686.2,443.3 L 683.0,412.2 Z" fill="#B8A45F"/>
<path d="M 684.2,413.6 L 673.0,416.3 L 663.8,412.3 L 652.6,409.6 L 663.0,419.3 L 665.0,423.5 L 671.2,429.2 L 672.6,422.1 L 673.7,411.8 L 674.2,408.4 L 666.6,400.1 L 663.3,399.4 L 662.8,393.1 L 655.0,391.3 L 644.4,386.5 L 640.6,383.4 L 629.8,382.2 L 619.0,378.1 L 612.3,376.1 L 603.0,373.0 L 591.4,372.7 L 578.9,373.3 L 572.7,370.1 L 558.5,367.2 L 547.6,365.3 L 534.0,366.4 L 521.9,359.9 L 511.0,356.4 L 496.4,358.8 L 486.2,356.4 L 468.9,359.3 L 453.0,353.3 L 440.3,353.6 L 423.8,346.4 L 408.4,345.4 L 392.6,346.6 L 379.7,343.9 L 362.6,341.6 L 350.6,337.2 L 335.1,335.7 L 320.1,338.9 L 305.0,338.3 L 291.0,334.9 L 278.0,333.8 L 257.0,329.0 L 243.8,328.0 L 226.0,328.5 L 212.5,326.7 L 197.6,320.3 L 184.8,322.6 L 174.5,319.8 L 157.7,318.2 L 144.7,316.4 L 130.2,313.7 L 122.5,317.2 L 106.1,313.7 L 92.5,312.4 L 83.4,309.2 L 71.5,306.7 L 62.9,305.1 L 47.7,303.1 L 42.5,300.8 L 27.6,299.1 L 17.9,295.0 L 13.6,294.0 L 3.5,298.1 L -2.1,297.8 L -14.8,295.9 L -19.7,288.7 L -25.2,286.1 L -30.8,284.8 L -41.5,286.5 L -44.0,286.3 L -46.9,281.0 L -51.6,279.7 L -54.3,278.9 L -58.9,275.9 L -60.7,276.6 L -67.8,277.2 L -64.1,274.9 L -65.5,274.7 L -66.3,270.1 L -70.4,277.1 L -73.9,277.8 L -79.0,285.0 L -75.7,283.1 L -76.4,289.6 L -69.5,287.3 L -67.5,291.2 L -66.3,292.0 L -64.2,294.2 L -59.8,295.5 L -51.8,300.3 L -48.3,297.4 L -42.8,302.6 L -36.4,299.6 L -27.9,303.4 L -24.0,308.6 L -13.1,312.7 L -2.9,316.0 L 5.2,314.6 L 12.5,316.4 L 19.4,315.9 L 29.0,316.7 L 40.1,318.8 L 48.2,324.2 L 61.6,326.2 L 71.2,323.5 L 86.4,326.7 L 97.7,330.1 L 107.3,333.6 L 120.0,337.8 L 132.5,335.2 L 144.4,335.8 L 158.6,337.2 L 168.8,342.4 L 181.7,346.9 L 197.3,346.5 L 211.3,350.9 L 227.8,352.4 L 242.9,354.1 L 258.8,356.7 L 271.9,356.8 L 285.6,354.6 L 300.9,361.3 L 315.4,360.6 L 332.9,366.1 L 347.8,364.4 L 360.1,369.5 L 372.6,367.7 L 391.9,369.0 L 403.0,372.0 L 422.7,374.9 L 435.6,376.8 L 453.5,374.6 L 464.8,377.5 L 480.0,378.9 L 491.4,384.3 L 502.0,385.9 L 515.9,390.5 L 529.6,387.5 L 547.1,389.1 L 557.6,392.7 L 570.8,396.9 L 578.0,397.5 L 587.3,403.8 L 597.4,406.2 L 604.9,410.4 L 610.5,410.1 L 620.0,413.4 L 623.6,415.4 L 630.3,413.3 L 633.2,416.7 L 638.0,415.1 L 640.4,414.0 L 640.2,419.7 L 641.6,419.2 L 641.4,415.9 L 645.5,415.6 L 649.1,419.0 L 648.1,424.7 L 654.4,439.0 L 654.9,445.3 L 661.1,449.5 L 674.1,448.8 L 681.3,448.3 L 681.4,437.6 L 682.6,426.0 Z" fill="#ECD1A7" opacity="0.85"/>
<circle cx="445.7" cy="383.1" r="2.8" fill="#988C5D" opacity=".5"/>
<circle cx="393.1" cy="361.9" r="2.0" fill="#988C5D" opacity=".5"/>
<circle cx="582.7" cy="373.6" r="4.4" fill="#988C5D" opacity=".5"/>
<circle cx="223.9" cy="350.0" r="1.6" fill="#988C5D" opacity=".5"/>
<circle cx="379.3" cy="362.2" r="3.0" fill="#988C5D" opacity=".5"/>
<circle cx="558.4" cy="401.6" r="3.4" fill="#988C5D" opacity=".5"/>
<circle cx="7.9" cy="294.9" r="1.7" fill="#988C5D" opacity=".5"/>
<circle cx="656.0" cy="394.4" r="2.2" fill="#988C5D" opacity=".5"/>
<circle cx="11.3" cy="316.7" r="1.2" fill="#988C5D" opacity=".5"/>
<circle cx="410.2" cy="350.6" r="3.7" fill="#988C5D" opacity=".5"/>
<circle cx="523.5" cy="394.2" r="2.8" fill="#988C5D" opacity=".5"/>
<circle cx="5.7" cy="314.4" r="1.8" fill="#988C5D" opacity=".5"/>
<circle cx="-48.5" cy="290.6" r="1.4" fill="#988C5D" opacity=".5"/>
<circle cx="561.7" cy="388.2" r="2.4" fill="#988C5D" opacity=".5"/>
<circle cx="569.9" cy="370.4" r="4.4" fill="#988C5D" opacity=".5"/>
<circle cx="676.2" cy="412.0" r="3.7" fill="#988C5D" opacity=".5"/>
<circle cx="680.3" cy="450.5" r="2.5" fill="#988C5D" opacity=".5"/>
<circle cx="485.8" cy="357.4" r="4.2" fill="#988C5D" opacity=".5"/>
<circle cx="-35.3" cy="301.3" r="1.8" fill="#988C5D" opacity=".5"/>
<circle cx="463.9" cy="382.6" r="2.6" fill="#988C5D" opacity=".5"/>
<circle cx="615.3" cy="408.5" r="2.5" fill="#988C5D" opacity=".5"/>
<circle cx="497.8" cy="371.6" r="4.4" fill="#988C5D" opacity=".5"/>
<circle cx="515.5" cy="387.6" r="3.8" fill="#988C5D" opacity=".5"/>
<circle cx="46.9" cy="317.3" r="2.4" fill="#988C5D" opacity=".5"/>
<path d="M 36.7,223.8 L 30.5,242.8 L 19.6,262.5 L 11.7,279.4 L 2.7,300.5 L 22.6,295.7 L 33.1,294.6 L 47.5,292.9 L 59.5,301.4 L 53.7,277.3 L 45.7,260.8 L 42.2,239.7 Z" fill="#5B5E47"/>
<path d="M 34.8,226.2 L 30.4,240.4 L 23.0,252.0 L 16.7,271.7 L 26.3,270.1 L 40.2,271.5 L 51.4,269.2 L 50.1,257.2 L 42.6,237.5 Z" fill="#726F58"/>
<path d="M 447.0,209.1 L 425.8,254.1 L 413.2,286.0 L 403.5,326.0 L 384.8,363.2 L 417.2,367.4 L 440.9,362.0 L 473.0,368.0 L 503.4,364.1 L 490.6,323.0 L 474.4,292.3 L 453.6,248.1 Z" fill="#5B5E47"/>
<path d="M 442.8,210.9 L 431.4,243.8 L 416.3,276.1 L 405.1,310.9 L 431.8,310.2 L 458.4,310.4 L 483.6,314.2 L 472.2,281.8 L 457.6,246.1 Z" fill="#726F58"/>
<path d="M 127.0,196.4 L 114.5,226.4 L 102.3,253.3 L 96.2,282.0 L 81.4,316.2 L 108.5,310.2 L 126.6,309.1 L 149.3,311.9 L 172.3,312.5 L 164.4,279.0 L 150.4,249.3 L 138.9,220.5 Z" fill="#5B5E47"/>
<path d="M 129.9,193.9 L 121.3,221.2 L 111.6,241.6 L 100.3,269.1 L 118.9,272.5 L 137.1,269.9 L 159.7,271.3 L 150.3,243.7 L 142.5,217.1 Z" fill="#726F58"/>
</g>
</svg>