<?xml version="1.0" encoding="UTF-8"?>
<!-- Generator: visioncortex VTracer 0.6.12 -->
<svg version="1.1" xmlns="http://www.w3.org/2000/svg" width="68" height="63">
<path d="M0 0 C0.66 0 1.32 0 2 0 C2.23 0.57 2.23 0.57 3.38 3.44 C5 7 5 7 7 8 C6.67 9.65 6.34 11.3 6 13 C7.94 12.62 7.94 12.62 10 12 C10.33 11.34 10.66 10.68 11 10 C11.99 10.33 12.98 10.66 14 11 C14 11.66 14 12.32 14 13 C14.99 12.67 15.98 12.34 17 12 C17.16 12.66 17.16 12.66 18 16 C19.65 16.33 21.3 16.66 23 17 C23 17.99 23 18.98 23 20 C21.35 20.33 19.7 20.66 18 21 C17.9 21.33 17.9 21.33 17.41 23.01 C14.83 31.78 14.83 31.78 13 36 C11.68 35.34 10.36 34.68 9 34 C9.33 33.01 9.66 32.02 10 31 C9.34 31 8.68 31 8 31 C7.73 31.97 7.46 32.94 7.19 33.94 C6.99 34.44 6.99 34.44 6 37 C5.51 37.16 5.51 37.16 3 38 C2.69 38.83 2.38 39.65 2.06 40.5 C1.71 41.33 1.36 42.15 1 43 C-1.13 43.81 -1.13 43.81 -3 44 C-3 43.34 -3 42.68 -3 42 C-3.66 42 -4.32 42 -5 42 C-5 41.01 -5 40.02 -5 39 C-5.49 38.84 -5.49 38.84 -8 38 C-8.73 36.15 -8.73 36.15 -9.19 33.94 C-9.35 33.2 -9.5 32.47 -9.67 31.71 C-9.78 31.15 -9.89 30.58 -10 30 C-10.33 30.66 -10.66 31.32 -11 32 C-12.65 31.67 -14.3 31.34 -16 31 C-15.67 32.65 -15.34 34.3 -15 36 C-15.99 36 -16.98 36 -18 36 C-20 30.38 -20 30.38 -20 27 C-20.98 25.32 -21.98 23.66 -23 22 C-23 21.34 -23 20.68 -23 20 C-23.99 20 -24.98 20 -26 20 C-25.84 19.51 -25.84 19.51 -25 17 C-22.44 15.81 -22.44 15.81 -20 15 C-20 14.34 -20 13.68 -20 13 C-19.34 13 -18.68 13 -18 13 C-18 12.34 -18 11.68 -18 11 C-16 11.67 -14 12.33 -12 13 C-11.34 11.35 -10.68 9.7 -10 8 C-8.68 8.66 -7.36 9.32 -6 10 C-5.73 9.4 -5.46 8.8 -5.19 8.19 C-4.01 6.01 -2.73 4.73 -1 3 C-0.67 2.01 -0.34 1.02 0 0 Z " fill="#929798" transform="translate(36,10)"/>
<path d="M0 0 C0.66 0 1.32 0 2 0 C2.23 0.57 2.23 0.57 3.38 3.44 C5 7 5 7 7 8 C6.67 9.65 6.34 11.3 6 13 C7.94 12.62 7.94 12.62 10 12 C10.33 11.34 10.66 10.68 11 10 C11.99 10.33 12.98 10.66 14 11 C14 11.66 14 12.32 14 13 C14.99 12.67 15.98 12.34 17 12 C17.33 13.32 17.66 14.64 18 16 C19.65 16.33 21.3 16.66 23 17 C23 17.99 23 18.98 23 20 C21.35 20.33 19.7 20.66 18 21 C17.9 21.33 17.9 21.33 17.41 23.01 C14.83 31.78 14.83 31.78 13 36 C11.68 35.34 10.36 34.68 9 34 C9.33 33.01 9.66 32.02 10 31 C9.34 31 8.68 31 8 31 C7.73 31.97 7.46 32.94 7.19 33.94 C6.8 34.95 6.4 35.96 6 37 C5.51 37.16 5.51 37.16 3 38 C2.69 38.83 2.38 39.65 2.06 40.5 C1.71 41.33 1.36 42.15 1 43 C-1.13 43.81 -1.13 43.81 -3 44 C-3 43.34 -3 42.68 -3 42 C-3.66 42 -4.32 42 -5 42 C-5 41.01 -5 40.02 -5 39 C-5.99 38.67 -6.98 38.34 -8 38 C-8.73 36.15 -8.73 36.15 -9.19 33.94 C-9.35 33.2 -9.5 32.47 -9.67 31.71 C-9.78 31.15 -9.89 30.58 -10 30 C-10.33 30.66 -10.66 31.32 -11 32 C-11.99 31.67 -12.98 31.34 -14 31 C-13.34 31 -12.68 31 -12 31 C-12 30.01 -12 29.02 -12 28 C-11.34 27.67 -10.68 27.34 -10 27 C-9.67 26.34 -9.34 25.68 -9 25 C-8.34 25.33 -7.68 25.66 -7 26 C-7 26.66 -7 27.32 -7 28 C-6.34 28 -5.68 28 -5 28 C-5.33 29.32 -5.66 30.64 -6 32 C-6.66 32 -7.32 32 -8 32 C-7.67 32.66 -7.34 33.32 -7 34 C-6.38 33.65 -5.76 33.3 -5.12 32.94 C-4.42 32.63 -3.72 32.32 -3 32 C-2.34 32.33 -1.68 32.66 -1 33 C-1.33 31.02 -1.66 29.04 -2 27 C-1.34 27 -0.68 27 0 27 C0.66 25.68 1.32 24.36 2 23 C2.66 23 3.32 23 4 23 C4 22.34 4 21.68 4 21 C2.91 21.35 1.81 21.7 0.69 22.06 C-3 23 -3 23 -6 22 C-6 21.34 -6 20.68 -6 20 C-5.34 19.67 -4.68 19.34 -4 19 C-4.33 18.34 -4.66 17.68 -5 17 C-2.36 17 0.28 17 3 17 C3 17.66 3 18.32 3 19 C4.32 19.33 5.64 19.66 7 20 C7 20.99 7 21.98 7 23 C8.98 22.67 10.96 22.34 13 22 C13 21.34 13 20.68 13 20 C12.26 19.9 11.52 19.79 10.75 19.69 C7.83 18.96 6.27 17.93 4 16 C6.64 15.67 9.28 15.34 12 15 C11 14 11 14 7.94 13.94 C7.45 13.95 7.45 13.95 5 14 C5 13.34 5 12.68 5 12 C4.38 11.81 3.76 11.63 3.12 11.44 C1 10 1 10 -0.31 6.56 C-1 3 -1 3 0 0 Z " fill="#C6C5C5" transform="translate(36,10)"/>
<path d="M0 0 C0.66 0 1.32 0 2 0 C2.23 0.57 2.23 0.57 3.38 3.44 C5 7 5 7 7 8 C7 8.66 7 9.32 7 10 C8.16 9.84 8.16 9.84 14 9 C14.16 9.5 14.16 9.5 15 12 C13.35 12 11.7 12 10 12 C11.63 13.71 12.87 14.93 15 16 C15 16.66 15 17.32 15 18 C14.01 18.16 14.01 18.16 9 19 C9 18.01 9 17.02 9 16 C7.68 15.67 6.36 15.34 5 15 C5 14.34 5 13.68 5 13 C0.38 13.66 -4.24 14.32 -9 15 C-9 15.66 -9 16.32 -9 17 C-13.75 16.13 -13.75 16.13 -16 15 C-16 14.34 -16 13.68 -16 13 C-15.34 13 -14.68 13 -14 13 C-14.99 12.01 -15.98 11.02 -17 10 C-17 10.66 -17 11.32 -17 12 C-17.99 11.67 -18.98 11.34 -20 11 C-19.34 11 -18.68 11 -18 11 C-18 10.34 -18 9.68 -18 9 C-17.34 9 -16.68 9 -16 9 C-16 8.34 -16 7.68 -16 7 C-14 7.67 -12 8.33 -10 9 C-9.34 7.35 -8.68 5.7 -8 4 C-6.68 4.66 -5.36 5.32 -4 6 C-3.86 5.69 -3.86 5.69 -3.12 4.12 C-2 2 -2 2 0 0 Z " fill="#9CA6A9" transform="translate(34,14)"/>
<path d="M0 0 C0.66 0 1.32 0 2 0 C2.45 1.13 2.91 2.27 3.38 3.44 C5 7 5 7 7 8 C6.67 9.65 6.34 11.3 6 13 C7.94 12.62 7.94 12.62 10 12 C10.33 11.34 10.66 10.68 11 10 C11.99 10.33 12.98 10.66 14 11 C14 11.66 14 12.32 14 13 C14.99 12.67 15.98 12.34 17 12 C17.33 13.32 17.66 14.64 18 16 C19.65 16.33 21.3 16.66 23 17 C23 17.99 23 18.98 23 20 C21.35 20.33 19.7 20.66 18 21 C17.34 23.64 16.68 26.28 16 29 C14.35 28.67 12.7 28.34 11 28 C11 26 11 24 11 22 C11.66 22 12.32 22 13 22 C13 21.34 13 20.68 13 20 C12.26 19.9 11.52 19.79 10.75 19.69 C7.83 18.96 6.27 17.93 4 16 C6.64 15.67 9.28 15.34 12 15 C11 14 11 14 7.94 13.94 C7.45 13.95 7.45 13.95 5 14 C5 13.34 5 12.68 5 12 C4.38 11.81 3.76 11.63 3.12 11.44 C1 10 1 10 -0.31 6.56 C-1 3 -1 3 0 0 Z " fill="#D6CFC4" transform="translate(36,10)"/>
<path d="M0 0 C0.33 0.66 0.66 1.32 1 2 C1.99 2.33 2.98 2.66 4 3 C3.01 3 2.02 3 1 3 C1.33 3.66 1.66 4.32 2 5 C2.8 5.1 3.61 5.21 4.44 5.31 C5.28 5.54 6.13 5.77 7 6 C8.86 9.28 9 11.17 9 15 C8.34 15 7.68 15 7 15 C7.33 16.65 7.66 18.3 8 20 C7.01 20 6.02 20 5 20 C3 14.38 3 14.38 3 11 C2.02 9.32 1.02 7.66 0 6 C0 5.34 0 4.68 0 4 C-0.99 4 -1.98 4 -3 4 C-2.67 3.01 -2.34 2.02 -2 1 C-1.34 0.67 -0.68 0.34 0 0 Z " fill="#CDD0D5" transform="translate(13,26)"/>
<path d="M0 0 C0.33 0.99 0.66 1.98 1 3 C0.36 3.12 -0.28 3.25 -0.94 3.38 C-1.62 3.58 -2.3 3.79 -3 4 C-3.33 4.66 -3.66 5.32 -4 6 C-4.66 6 -5.32 6 -6 6 C-5.67 7.98 -5.34 9.96 -5 12 C-5.78 12.14 -6.57 12.29 -7.38 12.44 C-10 13 -10 13 -12 14 C-12 13.01 -12 12.02 -12 11 C-11.34 10.67 -10.68 10.34 -10 10 C-9.67 9.01 -9.34 8.02 -9 7 C-9.66 7 -10.32 7 -11 7 C-11 6.34 -11 5.68 -11 5 C-11.99 4.67 -12.98 4.34 -14 4 C-13.67 3.01 -13.34 2.02 -13 1 C-11.68 1.66 -10.36 2.32 -9 3 C-8.34 2.34 -7.68 1.68 -7 1 C-4.5 0.19 -2.66 0 0 0 Z " fill="#989BA0" transform="translate(40,31)"/>
<path d="M0 0 C0.66 0 1.32 0 2 0 C2.45 1.13 2.91 2.27 3.38 3.44 C5 7 5 7 7 8 C6.67 9.65 6.34 11.3 6 13 C7.94 12.62 7.94 12.62 10 12 C10.33 11.34 10.66 10.68 11 10 C11.99 10.33 12.98 10.66 14 11 C14 11.66 14 12.32 14 13 C14.99 12.67 15.98 12.34 17 12 C17.33 13.32 17.66 14.64 18 16 C17.67 15.34 17.34 14.68 17 14 C16.6 14.09 16.6 14.09 14.56 14.56 C13.72 14.71 12.87 14.85 12 15 C11.67 14.67 11.34 14.34 11 14 C9 13.96 7 13.96 5 14 C5 13.34 5 12.68 5 12 C4.38 11.81 3.76 11.63 3.12 11.44 C1 10 1 10 -0.31 6.56 C-1 3 -1 3 0 0 Z " fill="#CFD4DB" transform="translate(36,10)"/>
<path d="M0 0 C0.3 0.18 0.3 0.18 1.81 1.06 C4 2 4 2 7 1 C7 1.66 7 2.32 7 3 C6.34 3 5.68 3 5 3 C5 3.66 5 4.32 5 5 C4.24 5.06 3.47 5.12 2.69 5.19 C0 6 0 6 -1.81 8.44 C-3 11 -3 11 -3 13 C-3.82 12.67 -3.82 12.67 -8 11 C-8 10.34 -8 9.68 -8 9 C-7.34 9 -6.68 9 -6 9 C-6.99 8.01 -7.98 7.02 -9 6 C-9 6.66 -9 7.32 -9 8 C-9.99 7.67 -10.98 7.34 -12 7 C-11.34 7 -10.68 7 -10 7 C-10 6.34 -10 5.68 -10 5 C-9.34 5 -8.68 5 -8 5 C-8 4.34 -8 3.68 -8 3 C-7 3.33 -7 3.33 -2 5 C-1.34 3.35 -0.68 1.7 0 0 Z " fill="#D3D4CB" transform="translate(26,18)"/>
<path d="M0 0 C0.66 0 1.32 0 2 0 C2 0.99 2 1.98 2 3 C1.01 2.67 0.02 2.34 -1 2 C-0.67 1.34 -0.34 0.68 0 0 Z " fill="#DBE2EA" transform="translate(24,43)"/>
</svg>
