<?xml version="1.0" encoding="UTF-8"?>
<!-- Generator: visioncortex VTracer 0.6.12 -->
<svg version="1.1" xmlns="http://www.w3.org/2000/svg" width="157" height="44">
<path d="M0 0 C2.43 2.31 3.65 4.21 5 7.25 C6 9 6 9 8.12 9.75 C8.74 9.83 9.36 9.91 10 10 C10.33 8.68 10.66 7.36 11 6 C14.03 5.33 16.89 4.87 20 5 C22.68 7.1 24.38 9.11 26.31 11.88 C29.31 13.88 32.58 12.62 36 12 C36.31 12.68 36.62 13.36 36.94 14.06 C37.62 14.7 38.3 15.34 39 16 C41.27 15.93 43.34 15.56 45.55 15.07 C48 15 48 15 50.46 16.4 C55.87 18.85 61.37 18.76 67.25 19.06 C69.61 19.19 71.97 19.33 74.33 19.47 C74.85 19.5 74.85 19.5 77.48 19.64 C80 20 80 20 82 22 C78.75 22.97 75.84 23.12 72.45 23.1 C71.9 23.1 71.9 23.1 69.09 23.09 C67.89 23.08 66.7 23.07 65.46 23.06 C64.23 23.06 63 23.05 61.74 23.05 C57.14 23.04 52.53 23.01 47.93 22.99 C43.42 22.97 38.91 22.95 34.4 22.94 C33.21 22.93 32.01 22.92 30.78 22.91 C29.67 22.91 28.56 22.91 27.42 22.9 C26.44 22.9 25.47 22.89 24.46 22.89 C22 23 22 23 19 24 C17.38 23.73 15.75 23.46 14.12 23.19 C11.66 22.97 9.45 23.21 7 23.5 C-0.07 24.28 -6.94 23.62 -14 23 C-14 22.01 -14 21.02 -14 20 C-10.7 20 -7.4 20 -4 20 C-4 19.34 -4 18.68 -4 18 C-4.62 18.06 -5.24 18.12 -5.88 18.18 C-8.73 18.46 -11.58 18.73 -14.44 19 C-15.41 19.1 -16.39 19.19 -17.39 19.29 C-25.69 20.07 -33.01 20.72 -41 18 C-42.99 17.97 -44.98 17.94 -46.96 18 C-50.04 18 -52.97 17.51 -56 17 C-55.67 16.34 -55.34 15.68 -55 15 C-52.5 14.59 -52.5 14.59 -49.44 14.38 C-48.43 14.3 -47.41 14.23 -46.37 14.15 C-45.59 14.1 -44.81 14.05 -44 14 C-43.67 13.01 -43.34 12.02 -43 11 C-42.54 11.09 -42.54 11.09 -40.19 11.56 C-37 12 -37 12 -34 11 C-33.34 11.33 -32.68 11.66 -32 12 C-32.33 11.01 -32.66 10.02 -33 9 C-31.44 6.94 -31.44 6.94 -29 5 C-25.44 5.25 -25.44 5.25 -22 6 C-21.01 6 -20.02 6 -19 6 C-18.4 5.22 -17.8 4.43 -17.19 3.62 C-12.73 -1.72 -6.37 -1.89 0 0 Z " fill="#EAE9EC" transform="translate(66,11)"/>
<path d="M0 0 C2.25 0.25 2.25 0.25 4 1 C4 1.99 4 2.98 4 4 C4.66 4.33 5.32 4.66 6 5 C6 5.99 6 6.98 6 8 C13.54 7.38 13.54 7.38 15.88 5.44 C16.25 4.96 16.62 4.49 17 4 C17.66 4 18.32 4 19 4 C18.67 4.99 18.34 5.98 18 7 C18.83 7.5 18.83 7.5 23 10 C22.67 10.66 22.34 11.32 22 12 C20.35 12 18.7 12 17 12 C17 12.66 17 13.32 17 14 C-4.12 15.68 -4.12 15.68 -12 13 C-13.99 12.97 -15.98 12.94 -17.96 13 C-21.04 13 -23.97 12.51 -27 12 C-26.67 11.34 -26.34 10.68 -26 10 C-23.5 9.59 -23.5 9.59 -20.44 9.38 C-19.43 9.3 -18.41 9.23 -17.37 9.15 C-16.59 9.1 -15.81 9.05 -15 9 C-14.67 8.01 -14.34 7.02 -14 6 C-13.54 6.09 -13.54 6.09 -11.19 6.56 C-8 7 -8 7 -5 6 C-4.34 6.33 -3.68 6.66 -3 7 C-3.33 6.01 -3.66 5.02 -4 4 C-2.25 1.94 -2.25 1.94 0 0 Z " fill="#DADEEA" transform="translate(37,16)"/>
<path d="M0 0 C6.48 0.49 6.48 0.49 9.51 3.37 C10.79 5.57 11.94 7.78 13.07 10.05 C13.73 10.38 14.39 10.71 15.07 11.05 C14.08 11.05 13.09 11.05 12.07 11.05 C12.07 12.04 12.07 13.03 12.07 14.05 C10.42 14.05 8.77 14.05 7.07 14.05 C6.74 13.06 6.41 12.07 6.07 11.05 C6.4 10.39 6.73 9.73 7.07 9.05 C6.08 9.05 5.09 9.05 4.07 9.05 C3.74 10.37 3.41 11.69 3.07 13.05 C2.74 12.39 2.41 11.73 2.07 11.05 C0.01 10.43 0.01 10.43 -1.93 10.05 C-0.61 9.72 0.71 9.39 2.07 9.05 C1.58 8.64 1.08 8.23 0.57 7.8 C-0.93 6.05 -0.93 6.05 -0.93 2.05 C-1.59 1.72 -2.25 1.39 -2.93 1.05 C-1.93 0.05 -1.93 0.05 0 0 Z " fill="#F6F2EE" transform="translate(58.92578125,9.9453125)"/>
<path d="M0 0 C2.67 3.15 4 4.83 4 9 C1.36 9 -1.28 9 -4 9 C-4 7.35 -4 5.7 -4 4 C-4.99 4 -5.98 4 -7 4 C-7 3.01 -7 2.02 -7 1 C-8.32 0.67 -9.64 0.34 -11 0 C-7.13 -1.39 -3.94 -1.05 0 0 Z " fill="#F7F2ED" transform="translate(88,17)"/>
<path d="M0 0 C2.31 0.33 4.62 0.66 7 1 C6.34 2.98 5.68 4.96 5 7 C-1.11 7.1 -6.97 7.07 -13 6 C-12.67 5.34 -12.34 4.68 -12 4 C-9.5 3.59 -9.5 3.59 -6.44 3.38 C-5.43 3.3 -4.41 3.23 -3.37 3.15 C-2.59 3.1 -1.81 3.05 -1 3 C-0.67 2.01 -0.34 1.02 0 0 Z " fill="#E2E4ED" transform="translate(23,22)"/>
<path d="M0 0 C1.32 0 2.64 0 4 0 C4.33 1.32 4.66 2.64 5 4 C5.69 4.12 6.37 4.24 7.08 4.37 C7.53 4.45 7.53 4.45 9.81 4.88 C10.71 5.04 11.6 5.2 12.52 5.37 C15 6 15 6 18 8 C14.77 9.62 11.41 8.63 7.94 8.19 C7.19 8.1 6.45 8.02 5.68 7.94 C3.77 7.7 1.88 7.36 0 7 C-0.33 6.34 -0.66 5.68 -1 5 C-2.65 5 -4.3 5 -6 5 C-6 4.34 -6 3.68 -6 3 C-4.02 2.67 -2.04 2.34 0 2 C0 1.34 0 0.68 0 0 Z " fill="#DBDFEB" transform="translate(69,26)"/>
<path d="M0 0 C4.29 0 8.58 0 13 0 C8.76 2.12 6.64 2.34 2 2 C1.34 1.34 0.68 0.68 0 0 Z " fill="#DEE2EC" transform="translate(143,0)"/>
</svg>
