<?xml version="1.0" encoding="UTF-8"?>
<!-- Generator: visioncortex VTracer 0.6.12 -->
<svg version="1.1" xmlns="http://www.w3.org/2000/svg" width="145" height="110">
<path d="M0 0 C2.76 2.83 4.42 5.06 5 9 C5.8 8.86 6.61 8.71 7.44 8.56 C12.79 9.22 16.13 12.39 20 16 C22.4 19.6 22.44 22.51 22.62 26.69 C22.66 27.39 22.7 28.09 22.74 28.81 C22.84 30.54 22.92 32.27 23 34 C26.1 34.88 27.91 34.99 31 34 C30.67 35.32 30.34 36.64 30 38 C30.58 38.08 31.16 38.16 31.75 38.25 C34.84 39.28 36.02 40.39 38 43 C38.29 45.89 38.38 48.38 38.25 51.25 C38.23 52 38.21 52.74 38.2 53.51 C38.15 55.34 38.08 57.17 38 59 C38.5 59.16 38.5 59.16 41 60 C42.69 61.38 42.69 61.38 44 63 C44 63.99 44 64.98 44 66 C43.07 66.29 42.14 66.58 41.19 66.88 C38 68 38 68 35 70 C32.42 70.46 29.91 70.83 27.31 71.12 C26.96 71.17 26.96 71.17 25.19 71.39 C23.46 71.6 21.73 71.8 20 72 C20.66 73.65 21.32 75.3 22 77 C18.9 80.1 15.25 79.84 11 80 C7.44 79.56 7.44 79.56 5 79 C5 78.01 5 77.02 5 76 C3.99 76.14 2.98 76.29 1.94 76.44 C0.64 76.62 -0.66 76.81 -2 77 C-3.11 77.25 -4.23 77.5 -5.38 77.75 C-9.52 78.04 -12.17 77.18 -15.98 75.69 C-18 75 -18 75 -21 75 C-20.34 77.31 -19.68 79.62 -19 82 C-22.62 84.48 -24.67 85.11 -29 85 C-29.4 85.16 -29.4 85.16 -31.44 86 C-36.87 88.12 -40.97 86.82 -46.12 84.73 C-48.39 83.85 -50.62 83.43 -53 83 C-55.34 82.35 -57.67 81.68 -60 81 C-60 80.01 -60 79.02 -60 78 C-59.17 77.84 -59.17 77.84 -55 77 C-55 76.01 -55 75.02 -55 74 C-55.93 74.06 -56.86 74.12 -57.81 74.19 C-63.02 74.2 -68.15 72.83 -73 71 C-73.33 70.34 -73.66 69.68 -74 69 C-74.58 68.85 -74.58 68.85 -77.5 68.06 C-78.66 67.71 -79.81 67.36 -81 67 C-81.33 66.01 -81.66 65.02 -82 64 C-81.5 63.84 -81.5 63.84 -79 63 C-79 62.01 -79 61.02 -79 60 C-78.01 60 -77.02 60 -76 60 C-74.89 56.36 -74.01 53.11 -73.56 49.31 C-72.96 45.79 -72.59 44.41 -70 42 C-65.17 39.4 -61.46 38.58 -56 39 C-55.51 39.16 -55.51 39.16 -53 40 C-52.9 38.81 -52.8 37.61 -52.7 36.38 C-51.32 21.1 -51.32 21.1 -48.07 15.02 C-46.42 11.91 -45.37 8.58 -44.22 5.26 C-42.53 2.13 -41.07 0.85 -38 -1 C-34.62 -1.9 -31.22 -2.34 -27.75 -2.75 C-26.85 -2.88 -25.94 -3 -25.01 -3.13 C-7.72 -5.39 -7.72 -5.39 0 0 Z " fill="#998A7C" transform="translate(92,14)"/>
<path d="M0 0 C1.32 0 2.64 0 4 0 C4 0.99 4 1.98 4 3 C5.32 3.33 6.64 3.66 8 4 C7.34 4.99 6.68 5.98 6 7 C6.66 7 7.32 7 8 7 C7.67 10.3 7.34 13.6 7 17 C7.66 17 8.32 17 9 17 C9.14 16.42 9.29 15.84 9.44 15.25 C9.96 13.17 10.48 11.08 11 9 C13.25 8.69 13.25 8.69 16 9 C16.64 9.82 17.28 10.65 17.94 11.5 C20 14 20 14 23.25 14.31 C24.16 14.21 25.06 14.11 26 14 C25.34 15.65 24.68 17.3 24 19 C26.31 19.33 28.62 19.66 31 20 C30.34 20.33 29.68 20.66 29 21 C29.35 21.56 29.7 22.11 30.06 22.69 C31.24 25.6 30.64 26.95 30 30 C30.37 33.53 30.88 36.63 32 40 C29.29 41.35 26.99 41.07 24 41 C24 41.66 24 42.32 24 43 C21.69 43 19.38 43 17 43 C17 43.66 17 44.32 17 45 C18.65 45.66 20.3 46.32 22 47 C22 47.66 22 48.32 22 49 C22.45 48.98 22.45 48.98 24.75 48.88 C27.9 49 29.42 49.28 32 51 C33.61 54.21 33.06 57.44 33 61 C33.76 60.81 34.53 60.63 35.31 60.44 C38 60 38 60 41 61 C41 59.35 41 57.7 41 56 C44.42 55.26 47.5 55 51 55 C51 55.99 51 56.98 51 58 C45.25 59.12 45.25 59.12 43 58 C42.67 60.64 42.34 63.28 42 66 C42.66 66.33 43.32 66.66 44 67 C43.01 67 42.02 67 41 67 C40.67 66.34 40.34 65.68 40 65 C39.26 65 38.52 65 37.75 65 C35.5 65 33.25 65 31 65 C31 64.34 31 63.68 31 63 C30.2 62.88 29.39 62.75 28.56 62.62 C27.72 62.42 26.87 62.21 26 62 C25.67 61.34 25.34 60.68 25 60 C22.79 59.55 22.79 59.55 20.06 59.31 C19.17 59.23 18.27 59.14 17.35 59.05 C15 59 15 59 13 60 C10.97 59.07 8.96 58.07 7 57 C7.66 56.67 8.32 56.34 9 56 C9 55.34 9 54.68 9 54 C8.01 54 7.02 54 6 54 C6 54.66 6 55.32 6 56 C5.15 56.19 4.29 56.39 3.41 56.59 C2.31 56.85 1.2 57.11 0.06 57.38 C-1.04 57.63 -2.14 57.89 -3.28 58.15 C-4.18 58.43 -5.07 58.71 -6 59 C-6.16 59.33 -6.16 59.33 -7 61 C-6.34 61 -5.68 61 -5 61 C-4.34 62.65 -3.68 64.3 -3 66 C-2.62 65.98 -2.62 65.98 -0.7 65.89 C-0.2 65.88 -0.2 65.88 2.31 65.81 C3.3 65.78 4.28 65.74 5.3 65.71 C8 66 8 66 9.81 67.38 C11.17 69.23 11.61 70.75 12 73 C12.66 72.67 13.32 72.34 14 72 C14 73.32 14 74.64 14 76 C10.7 75.67 7.4 75.34 4 75 C4 75.99 4 76.98 4 78 C2.35 78 0.7 78 -1 78 C-1 77.01 -1 76.02 -1 75 C-1.7 75.17 -2.4 75.34 -3.12 75.52 C-6.25 76.04 -8.96 75.99 -12.12 75.75 C-13.16 75.68 -14.19 75.62 -15.26 75.55 C-18.21 74.96 -19.18 74.33 -21 72 C-20.01 71.67 -20.01 71.67 -15 70 C-15 69.01 -15 68.02 -15 67 C-15.93 67.06 -16.86 67.12 -17.81 67.19 C-23.02 67.2 -28.15 65.83 -33 64 C-33.33 63.34 -33.66 62.68 -34 62 C-35.16 61.69 -36.31 61.38 -37.5 61.06 C-38.08 60.89 -38.08 60.89 -41 60 C-41.16 59.5 -41.16 59.5 -42 57 C-41.51 56.84 -41.51 56.84 -39 56 C-39 55.01 -39 54.02 -39 53 C-38.01 53 -37.02 53 -36 53 C-34.89 49.36 -34.01 46.11 -33.56 42.31 C-32.96 38.79 -32.59 37.41 -30 35 C-25.17 32.4 -21.46 31.58 -16 32 C-15.51 32.16 -15.51 32.16 -13 33 C-12.9 31.81 -12.8 30.61 -12.7 29.38 C-11.24 13.29 -11.24 13.29 -7 6 C-6.34 5.67 -5.68 5.34 -5 5 C-4.34 4.01 -3.68 3.02 -3 2 C-2.34 2 -1.68 2 -1 2 C-0.67 1.34 -0.34 0.68 0 0 Z " fill="#67686C" transform="translate(52,21)"/>
<path d="M0 0 C2.76 2.83 4.42 5.06 5 9 C5.4 8.93 5.4 8.93 7.44 8.56 C12.79 9.22 16.13 12.39 20 16 C22.15 19.23 22.2 20.28 22 24 C21.84 23.34 21.84 23.34 21 20 C20.46 20.1 20.46 20.1 17.75 20.62 C14.12 20.99 12.92 20.98 10 19 C10 16.36 10 13.72 10 11 C9.17 10.84 9.17 10.84 5 10 C4.67 11.32 4.34 12.64 4 14 C3.34 14 2.68 14 2 14 C0.52 11.04 0.94 8.26 1 5 C-0.32 5 -1.64 5 -3 5 C-3 6.65 -3 8.3 -3 10 C-4.65 10 -6.3 10 -8 10 C-8 9.34 -8 8.68 -8 8 C-9.65 8.66 -11.3 9.32 -13 10 C-13 10.66 -13 11.32 -13 12 C-12.01 12.33 -11.02 12.66 -10 13 C-9.88 13.8 -9.75 14.61 -9.62 15.44 C-9.42 16.28 -9.21 17.13 -9 18 C-8.34 18.33 -7.68 18.66 -7 19 C-7 19.99 -7 20.98 -7 22 C-10.36 23.12 -12.58 22.83 -16 22 C-16.87 21.9 -17.73 21.79 -18.62 21.69 C-21.64 20.81 -22.16 19.46 -24 17 C-26.69 16.25 -26.69 16.25 -29 16 C-28.67 16.99 -28.34 17.98 -28 19 C-29.31 21.69 -29.31 21.69 -31 24 C-31.66 24 -32.32 24 -33 24 C-33.12 17.38 -33.12 17.38 -32 14 C-32.66 14 -33.32 14 -34 14 C-33.67 13.01 -33.34 12.02 -33 11 C-33.99 10.67 -34.98 10.34 -36 10 C-36 9.01 -36 8.02 -36 7 C-37.32 7 -38.64 7 -40 7 C-40.25 7.62 -40.49 8.24 -40.75 8.88 C-42.22 11.37 -43.41 11.83 -46 13 C-45.63 11.41 -45.23 9.83 -44.81 8.25 C-44.7 7.81 -44.7 7.81 -44.14 5.58 C-42.6 2.11 -41.29 0.94 -38 -1 C-34.62 -1.9 -31.22 -2.34 -27.75 -2.75 C-26.85 -2.88 -25.94 -3 -25.01 -3.13 C-7.72 -5.39 -7.72 -5.39 0 0 Z " fill="#9D9384" transform="translate(92,14)"/>
<path d="M0 0 C0.99 0.66 1.98 1.32 3 2 C3.12 4.37 3.12 4.37 3 7 C3.29 8.34 3.61 9.68 4 11 C2.68 11 1.36 11 0 11 C0.66 14.96 1.32 18.92 2 23 C0.68 23.33 -0.64 23.66 -2 24 C-1.84 24.83 -1.84 24.83 -1 29 C-1.66 29 -2.32 29 -3 29 C-3 29.99 -3 30.98 -3 32 C-1.02 33.36 0.98 34.7 3 36 C3 36.66 3 37.32 3 38 C1.35 38 -0.3 38 -2 38 C-2 38.66 -2 39.32 -2 40 C-4.31 40 -6.62 40 -9 40 C-8.96 40.3 -8.96 40.3 -8.75 41.79 C-8.19 46.1 -7.77 49.76 -9 54 C-10.98 53.34 -12.96 52.68 -15 52 C-14.67 54.31 -14.34 56.62 -14 59 C-13.37 58.99 -12.75 58.98 -12.1 58.96 C-11.69 58.96 -11.69 58.96 -9.62 58.94 C-9.22 58.93 -9.22 58.93 -7.16 58.9 C-5 59 -5 59 -3 60 C-3 62.64 -3 65.28 -3 68 C-3.58 67.79 -4.16 67.59 -4.75 67.38 C-7.52 66.91 -8.65 67.57 -11 69 C-11.99 68.01 -12.98 67.02 -14 66 C-13.01 65.67 -13.01 65.67 -8 64 C-8 63.01 -8 62.02 -8 61 C-8.93 61.06 -9.86 61.12 -10.81 61.19 C-16.02 61.2 -21.15 59.83 -26 58 C-26.33 57.34 -26.66 56.68 -27 56 C-28.16 55.69 -29.31 55.38 -30.5 55.06 C-31.08 54.89 -31.08 54.89 -34 54 C-34.16 53.5 -34.16 53.5 -35 51 C-34.51 50.84 -34.51 50.84 -32 50 C-32 49.01 -32 48.02 -32 47 C-31.01 47 -30.02 47 -29 47 C-27.89 43.36 -27.01 40.11 -26.56 36.31 C-25.96 32.79 -25.59 31.41 -23 29 C-18.17 26.4 -14.46 25.58 -9 26 C-8.01 26.33 -7.02 26.66 -6 27 C-5.9 25.81 -5.8 24.61 -5.7 23.38 C-4.93 14.88 -4.21 7.59 0 0 Z " fill="#8B8F94" transform="translate(45,27)"/>
<path d="M0 0 C1.32 0 2.64 0 4 0 C4 0.99 4 1.98 4 3 C5.32 3.33 6.64 3.66 8 4 C7.67 4.5 7.67 4.5 6 7 C6.66 7 7.32 7 8 7 C7.67 10.3 7.34 13.6 7 17 C7.66 17 8.32 17 9 17 C9.14 16.42 9.29 15.84 9.44 15.25 C9.96 13.17 10.48 11.08 11 9 C13.25 8.69 13.25 8.69 16 9 C16.64 9.82 17.28 10.65 17.94 11.5 C20 14 20 14 23.25 14.31 C24.16 14.21 25.06 14.11 26 14 C25.34 15.65 24.68 17.3 24 19 C26.31 19.33 28.62 19.66 31 20 C30.67 20.16 30.67 20.16 29 21 C28.67 21.66 28.34 22.32 28 23 C25.36 22.34 22.72 21.68 20 21 C20.33 22.32 20.66 23.64 21 25 C20.34 25 19.68 25 19 25 C18.67 27.64 18.34 30.28 18 33 C17.34 33 16.68 33 16 33 C15.34 32.01 14.68 31.02 14 30 C12.35 30.66 10.7 31.32 9 32 C9 32.99 9 33.98 9 35 C9.49 35.16 9.49 35.16 12 36 C11.67 37.32 11.34 38.64 11 40 C9.68 39.67 8.36 39.34 7 39 C7.21 39.54 7.41 40.07 7.62 40.62 C8.13 43.83 7.15 46.01 6 49 C4.02 49 2.04 49 0 49 C0.33 47.68 0.66 46.36 1 45 C1.99 45 2.98 45 4 45 C3.34 43.68 2.68 42.36 2 41 C1.34 41 0.68 41 0 41 C-0.66 41.66 -1.32 42.32 -2 43 C-2.12 35.25 -2.12 35.25 -1 33 C-1.66 33 -2.32 33 -3 33 C-3 33.66 -3 34.32 -3 35 C-3.66 35 -4.32 35 -5 35 C-5.33 34.34 -5.66 33.68 -6 33 C-6.33 33.16 -6.33 33.16 -8 34 C-8.33 32.68 -8.66 31.36 -9 30 C-8.01 29.67 -7.02 29.34 -6 29 C-6.33 25.04 -6.66 21.08 -7 17 C-5.68 17 -4.36 17 -3 17 C-3 16.01 -3 15.02 -3 14 C-3.66 13.67 -4.32 13.34 -5 13 C-6.49 6.91 -6.49 6.91 -4.69 3.56 C-3 2 -3 2 -1 2 C-0.67 1.34 -0.34 0.68 0 0 Z " fill="#65686F" transform="translate(52,21)"/>
<path d="M0 0 C0.99 0 1.98 0 3 0 C2.67 0.99 2.34 1.98 2 3 C3.98 3.66 5.96 4.32 8 5 C8 4.67 8 4.34 8 4 C11.96 4.33 15.92 4.66 20 5 C20 5.99 20 6.98 20 8 C20.8 8.12 21.61 8.25 22.44 8.38 C23.28 8.58 24.13 8.79 25 9 C25.16 9.33 25.16 9.33 26 11 C28.64 10.67 31.28 10.34 34 10 C34.16 10.5 34.16 10.5 35 13 C35.66 11.02 36.32 9.04 37 7 C37.23 7.33 37.23 7.33 38.38 9 C38.91 9.66 39.45 10.32 40 11 C40.66 11 41.32 11 42 11 C42.66 9.35 43.32 7.7 44 6 C44.66 6 45.32 6 46 6 C45.67 7.65 45.34 9.3 45 11 C45.66 11 46.32 11 47 11 C47 10.01 47 9.02 47 8 C47.66 7.67 48.32 7.34 49 7 C49.33 6.01 49.66 5.02 50 4 C51.32 4.33 52.64 4.66 54 5 C54 6.32 54 7.64 54 9 C55.32 9.33 56.64 9.66 58 10 C56.68 10.33 55.36 10.66 54 11 C54.33 11.83 54.33 11.83 56 16 C52.9 19.1 49.25 18.84 45 19 C41.44 18.56 41.44 18.56 39 18 C39 17.01 39 16.02 39 15 C38.49 15.07 38.49 15.07 35.94 15.44 C35.29 15.53 35.29 15.53 32 16 C30.89 16.25 29.77 16.5 28.62 16.75 C24.48 17.04 21.83 16.18 18.02 14.69 C16 14 16 14 13 14 C13.66 16.31 14.32 18.62 15 21 C11.38 23.48 9.33 24.11 5 24 C4.2 24.33 3.39 24.66 2.56 25 C-2.86 27.12 -6.95 25.83 -12.1 23.73 C-14.36 22.86 -16.61 22.37 -19 22 C-19 21.67 -19 21.34 -19 21 C-15.04 21 -11.08 21 -7 21 C-7 21.99 -7 22.98 -7 24 C-6.01 23.67 -5.02 23.34 -4 23 C-3.34 23.33 -2.68 23.66 -2 24 C-2.33 22.68 -2.66 21.36 -3 20 C1.22 19.8 4.17 20.2 8 22 C7.67 21.01 7.34 20.02 7 19 C6.01 19 5.02 19 4 19 C4 17.02 4 15.04 4 13 C3.4 13.01 2.79 13.02 2.17 13.04 C1.77 13.04 1.77 13.04 -0.25 13.06 C-0.64 13.07 -0.64 13.07 -2.64 13.1 C-4.95 13 -6.83 12.8 -9 12 C-10.25 9.44 -10.25 9.44 -11 7 C-11.66 7 -12.32 7 -13 7 C-12.67 6.01 -12.34 5.02 -12 4 C-7.93 2.51 -4.33 1.74 0 2 C0 1.34 0 0.68 0 0 Z " fill="#95908C" transform="translate(58,75)"/>
<path d="M0 0 C1.32 0.33 2.64 0.66 4 1 C3.67 1.33 3.34 1.66 3 2 C3.62 2.23 4.24 2.45 4.88 2.69 C7.62 4.38 7.87 6.05 9 9 C12 10 12 10 14.19 9.06 C14.79 8.71 15.38 8.36 16 8 C16.25 10.92 16.47 13.83 16.69 16.75 C16.76 17.58 16.83 18.4 16.91 19.25 C17.33 25.35 17.33 25.35 15.71 28.58 C14 30 14 30 11 30 C10.88 29.36 10.75 28.72 10.62 28.06 C10.42 27.38 10.21 26.7 10 26 C9.34 25.67 8.68 25.34 8 25 C7.67 26.98 7.34 28.96 7 31 C5.68 31.33 4.36 31.66 3 32 C3 32.66 3 33.32 3 34 C1.02 33.67 -0.96 33.34 -3 33 C-3 31.68 -3 30.36 -3 29 C-3.66 29.33 -4.32 29.66 -5 30 C-5 30.99 -5 31.98 -5 33 C-5.66 33 -6.32 33 -7 33 C-8.52 29.96 -8.37 26.72 -8.56 23.38 C-8.61 22.67 -8.65 21.96 -8.69 21.23 C-8.8 19.49 -8.9 17.74 -9 16 C-9.78 15.69 -10.57 15.38 -11.38 15.06 C-14 14 -14 14 -16 13 C-15 10 -15 10 -12 8 C-8.81 7.88 -8.81 7.88 -6 8 C-6 7.34 -6 6.68 -6 6 C-4.35 6.33 -2.7 6.66 -1 7 C-0.67 4.69 -0.34 2.38 0 0 Z " fill="#918971" transform="translate(113,50)"/>
<path d="M0 0 C0.37 6.52 0.37 6.52 -1.5 8.94 C-2 9.29 -2.49 9.64 -3 10 C-2.22 10.31 -1.43 10.62 -0.62 10.94 C2 12 2 12 4 13 C5.13 16.4 5.36 19.42 5.62 23 C5.72 24.24 5.82 25.47 5.91 26.75 C6 30 6 30 5 33 C4.34 33 3.68 33 3 33 C3.33 31.35 3.66 29.7 4 28 C3.57 28.43 3.13 28.87 2.69 29.31 C1.12 30.88 -0.44 32.44 -2 34 C-4.06 32.25 -4.06 32.25 -6 30 C-5.75 27.75 -5.75 27.75 -5 26 C-2.36 26 0.28 26 3 26 C3 25.01 3 24.02 3 23 C1.35 23.66 -0.3 24.32 -2 25 C-2 24.34 -2 23.68 -2 23 C-3.65 23.33 -5.3 23.66 -7 24 C-7 25.65 -7 27.3 -7 29 C-9.64 29 -12.28 29 -15 29 C-15.33 25.7 -15.66 22.4 -16 19 C-19.3 18.34 -22.6 17.68 -26 17 C-26 16.34 -26 15.68 -26 15 C-26.83 14.67 -26.83 14.67 -31 13 C-31 12.34 -31 11.68 -31 11 C-28.69 11 -26.38 11 -24 11 C-24 10.34 -24 9.68 -24 9 C-21.36 8.67 -18.72 8.34 -16 8 C-16.33 7.01 -16.66 6.02 -17 5 C-13.3 4.05 -10.7 4.05 -7 5 C-7 3.35 -7 1.7 -7 0 C-4.33 -1.33 -2.83 -0.67 0 0 Z " fill="#93896E" transform="translate(100,53)"/>
<path d="M0 0 C1.65 0 3.3 0 5 0 C5.5 1.62 6 3.25 6.5 4.88 C6.78 5.78 7.06 6.68 7.34 7.62 C8 10 8 10 8 12 C8.66 12.33 9.32 12.66 10 13 C8.87 13.29 7.73 13.58 6.56 13.88 C5.39 14.25 4.21 14.62 3 15 C2.67 15.66 2.34 16.32 2 17 C2.66 17 3.32 17 4 17 C4.66 18.65 5.32 20.3 6 22 C6.76 21.97 7.52 21.93 8.3 21.89 C8.8 21.88 8.8 21.88 11.31 21.81 C12.3 21.78 13.28 21.74 14.3 21.71 C17 22 17 22 18.81 23.38 C20.17 25.23 20.61 26.75 21 29 C21.66 28.67 22.32 28.34 23 28 C23 29.32 23 30.64 23 32 C19.7 31.67 16.4 31.34 13 31 C13 31.99 13 32.98 13 34 C11.35 34 9.7 34 8 34 C8 33.01 8 32.02 8 31 C7.34 31.19 6.68 31.37 6 31.56 C2.11 32.13 -1.11 31.59 -5 31 C-5.33 30.01 -5.66 29.02 -6 28 C-5.34 27.67 -4.68 27.34 -4 27 C-3.01 27.99 -2.02 28.98 -1 30 C-1 27.36 -1 24.72 -1 22 C-4.63 21.67 -8.26 21.34 -12 21 C-12.33 18.69 -12.66 16.38 -13 14 C-12.18 14.16 -12.18 14.16 -8 15 C-6.9 10.59 -6.92 6.52 -7 2 C-4.69 2 -2.38 2 0 2 C0 1.34 0 0.68 0 0 Z " fill="#717680" transform="translate(43,65)"/>
<path d="M0 0 C1.32 0 2.64 0 4 0 C4.33 2.97 4.66 5.94 5 9 C5.66 8.67 6.32 8.34 7 8 C7.33 7.01 7.66 6.02 8 5 C9.67 4.96 11.33 4.96 13 5 C14 6 14 6 14.06 7.96 C14.02 9.57 13.98 11.17 13.94 12.77 C14 15 14 15 15 18 C14.67 18.66 14.34 19.32 14 20 C12.68 20 11.36 20 10 20 C10 20.66 10 21.32 10 22 C9.67 21.93 9.67 21.93 8.02 21.61 C0.94 20.49 0.94 20.49 -1.93 22.05 C-3.35 23.3 -4.68 24.65 -6 26 C-6.66 26 -7.32 26 -8 26 C-8.33 24.68 -8.66 23.36 -9 22 C-10.32 21.67 -11.64 21.34 -13 21 C-12.34 19.68 -11.68 18.36 -11 17 C-10.01 17 -9.02 17 -8 17 C-7.01 16.67 -6.02 16.34 -5 16 C-5.66 13.36 -6.32 10.72 -7 8 C-8.32 7.67 -9.64 7.34 -11 7 C-10.67 6.01 -10.34 5.02 -10 4 C-8.35 3.67 -6.7 3.34 -5 3 C-5 3.66 -5 4.32 -5 5 C-3.35 5 -1.7 5 0 5 C0 3.35 0 1.7 0 0 Z " fill="#A5966C" transform="translate(89,19)"/>
<path d="M0 0 C0.33 0.66 0.66 1.32 1 2 C2.64 2.72 4.31 3.39 6 4 C6 4.66 6 5.32 6 6 C6.91 5.96 7.81 5.92 8.75 5.88 C11.9 6 13.42 6.28 16 8 C17.61 11.21 17.06 14.44 17 18 C17.76 17.81 18.53 17.63 19.31 17.44 C22 17 22 17 25 18 C25 16.35 25 14.7 25 13 C28.42 12.26 31.5 12 35 12 C35 12.99 35 13.98 35 15 C29.25 16.12 29.25 16.12 27 15 C26.67 17.64 26.34 20.28 26 23 C26.66 23.33 27.32 23.66 28 24 C27.01 24 26.02 24 25 24 C24.67 23.34 24.34 22.68 24 22 C23.26 22 22.52 22 21.75 22 C19.5 22 17.25 22 15 22 C15 21.34 15 20.68 15 20 C14.2 19.88 13.39 19.75 12.56 19.62 C11.72 19.42 10.87 19.21 10 19 C9.67 18.34 9.34 17.68 9 17 C6.79 16.55 6.79 16.55 4.06 16.31 C3.17 16.23 2.27 16.14 1.35 16.05 C-1 16 -1 16 -3 17 C-3.99 16.34 -4.98 15.68 -6 15 C-5.57 13.25 -5.13 11.5 -4.69 9.75 C-4.44 8.78 -4.2 7.8 -3.95 6.8 C-3 4.01 -1.89 2.23 0 0 Z " fill="#6E7175" transform="translate(68,64)"/>
<path d="M0 0 C1.32 0 2.64 0 4 0 C4.33 2.97 4.66 5.94 5 9 C8.7 9.93 9.63 10.08 13 9 C12.67 10.32 12.34 11.64 12 13 C12.58 13.08 13.16 13.16 13.75 13.25 C16.84 14.28 18.02 15.39 20 18 C20.29 20.89 20.38 23.38 20.25 26.25 C20.23 27 20.21 27.74 20.2 28.51 C20.15 30.34 20.08 32.17 20 34 C20.99 34.33 21.98 34.66 23 35 C24.69 36.38 24.69 36.38 26 38 C26 38.99 26 39.98 26 41 C25.54 41.14 25.54 41.14 23.19 41.88 C20 43 20 43 17 45 C14.52 45.41 14.52 45.41 11.81 45.62 C10.91 45.7 10.01 45.77 9.08 45.85 C8.39 45.9 7.71 45.95 7 46 C6.67 45.01 6.34 44.02 6 43 C6.66 42.84 6.66 42.84 10 42 C9.67 40.02 9.34 38.04 9 36 C10.65 36.33 12.3 36.66 14 37 C14 38.32 14 39.64 14 41 C15.94 40.19 15.94 40.19 18 39 C19.28 35.17 18.86 31.77 18.56 27.81 C18.54 27.44 18.54 27.44 18.4 25.54 C18.27 23.69 18.14 21.85 18 20 C17.34 20.33 17.34 20.33 14 22 C10.12 19.5 10.12 19.5 9.5 16.94 C9 15 9 15 6.94 13.75 C6.3 13.5 5.66 13.26 5 13 C5.33 12.67 5.66 12.34 6 12 C5.01 11.67 4.02 11.34 3 11 C2.67 13.31 2.34 15.62 2 18 C1.67 18 1.34 18 1 18 C1 16.76 1 15.52 1 14.25 C0.67 11.46 0.44 10.37 -1.74 8.54 C-3.84 7.46 -5.71 6.57 -8 6 C-8.99 6.33 -9.98 6.66 -11 7 C-10.67 5.35 -10.34 3.7 -10 2 C-5.25 0.88 -5.25 0.88 -3 2 C-3 2.66 -3 3.32 -3 4 C-2.34 3.67 -1.68 3.34 -1 3 C-0.67 2.01 -0.34 1.02 0 0 Z " fill="#C0B2A1" transform="translate(110,39)"/>
<path d="M0 0 C2.76 2.83 4.42 5.06 5 9 C5.4 8.93 5.4 8.93 7.44 8.56 C12.79 9.22 16.13 12.39 20 16 C22.15 19.23 22.2 20.28 22 24 C21.84 23.34 21.84 23.34 21 20 C19.93 20.21 18.85 20.41 17.75 20.62 C14.12 20.99 12.92 20.98 10 19 C10 16.36 10 13.72 10 11 C9.17 10.84 9.17 10.84 5 10 C4.67 11.32 4.34 12.64 4 14 C3.34 14 2.68 14 2 14 C0.52 11.04 0.94 8.26 1 5 C-0.32 5 -1.64 5 -3 5 C-3 6.65 -3 8.3 -3 10 C-4.65 10 -6.3 10 -8 10 C-8 9.34 -8 8.68 -8 8 C-10.44 8.69 -10.44 8.69 -13 10 C-13.81 12.62 -13.81 12.62 -14 15 C-14.99 15 -15.98 15 -17 15 C-17.19 12.19 -17.19 12.19 -17 9 C-15.5 7.31 -15.5 7.31 -14 6 C-14 5.01 -14 4.02 -14 3 C-13.34 3 -12.68 3 -12 3 C-12 2.34 -12 1.68 -12 1 C-11.34 1 -10.68 1 -10 1 C-10.33 -0.32 -10.66 -1.64 -11 -3 C-12.65 -3 -14.3 -3 -16 -3 C-16 -2.34 -16 -1.68 -16 -1 C-16.56 -0.93 -16.56 -0.93 -19.38 -0.56 C-23 0 -23 0 -25 1 C-25 0.34 -25 -0.32 -25 -1 C-27.97 -1 -30.94 -1 -34 -1 C-34 -1.33 -34 -1.66 -34 -2 C-7.7 -5.38 -7.7 -5.38 0 0 Z " fill="#D5C4B1" transform="translate(92,14)"/>
<path d="M0 0 C0.33 0.99 0.66 1.98 1 3 C2.32 2.01 3.64 1.02 5 0 C5.33 0.99 5.66 1.98 6 3 C6.66 3 7.32 3 8 3 C8 2.34 8 1.68 8 1 C8.66 1 9.32 1 10 1 C10 3.64 10 6.28 10 9 C11.32 9 12.64 9 14 9 C14.33 10.32 14.66 11.64 15 13 C14.01 13 13.02 13 12 13 C11.67 14.32 11.34 15.64 11 17 C11.62 16.81 12.24 16.63 12.88 16.44 C15 16 15 16 17 17 C17 15.02 17 13.04 17 11 C17.66 11 18.32 11 19 11 C18.34 9.35 17.68 7.7 17 6 C20.35 7.12 21.55 8.55 24 11 C24.66 11 25.32 11 26 11 C26 10.34 26 9.68 26 9 C26.66 9 27.32 9 28 9 C28.33 8.34 28.66 7.68 29 7 C28.56 9.87 27.79 11.29 26.06 13.69 C23.56 17.7 22.78 21.39 22 26 C20.68 25.67 19.36 25.34 18 25 C18.66 24.67 19.32 24.34 20 24 C20 23.34 20 22.68 20 22 C19.01 22 18.02 22 17 22 C17 22.66 17 23.32 17 24 C14.69 24 12.38 24 10 24 C9.89 23.52 9.89 23.52 9.34 21.08 C9.02 19.81 8.7 18.55 8.38 17.25 C8.22 16.62 8.22 16.62 7.46 13.45 C5.7 9.29 3.78 8.3 0 6 C-0.38 2.75 -0.38 2.75 0 0 Z " fill="#505854" transform="translate(41,53)"/>
<path d="M0 0 C1.32 0.33 2.64 0.66 4 1 C4 2.32 4 3.64 4 5 C5.32 5.33 6.64 5.66 8 6 C6.68 6.33 5.36 6.66 4 7 C4.66 8.65 5.32 10.3 6 12 C2.9 15.1 -0.75 14.84 -5 15 C-8.56 14.56 -8.56 14.56 -11 14 C-11 13.01 -11 12.02 -11 11 C-12.01 11.14 -13.02 11.29 -14.06 11.44 C-14.71 11.53 -14.71 11.53 -18 12 C-18.58 12.11 -18.58 12.11 -21.5 12.69 C-25.65 13.06 -28.1 12.35 -32 11 C-32 10.67 -32 10.34 -32 10 C-28.37 10.33 -24.74 10.66 -21 11 C-21 9.35 -21 7.7 -21 6 C-19.35 6 -17.7 6 -16 6 C-15.67 6.99 -15.34 7.98 -15 9 C-14.34 7.02 -13.68 5.04 -13 3 C-12.77 3.33 -12.77 3.33 -11.62 5 C-11.09 5.66 -10.55 6.32 -10 7 C-9.34 7 -8.68 7 -8 7 C-7.34 5.35 -6.68 3.7 -6 2 C-5.34 2 -4.68 2 -4 2 C-4.33 3.65 -4.66 5.3 -5 7 C-4.34 7 -3.68 7 -3 7 C-3 6.01 -3 5.02 -3 4 C-2.34 3.67 -1.68 3.34 -1 3 C-0.67 2.01 -0.34 1.02 0 0 Z " fill="#9B9A9A" transform="translate(108,79)"/>
<path d="M0 0 C0.58 0.02 0.58 0.02 3.52 0.11 C4.4 0.16 5.28 0.2 6.19 0.25 C4.93 2.76 3.69 3.12 1.19 4.25 C2.18 4.91 3.17 5.57 4.19 6.25 C3.86 7.57 3.53 8.89 3.19 10.25 C4.18 9.92 5.17 9.59 6.19 9.25 C6.19 9.91 6.19 10.57 6.19 11.25 C6.85 11.25 7.51 11.25 8.19 11.25 C8.19 11.91 8.19 12.57 8.19 13.25 C9.18 13.25 10.17 13.25 11.19 13.25 C10.86 14.24 10.53 15.23 10.19 16.25 C8.4 16.28 6.6 16.3 4.81 16.31 C3.81 16.32 2.82 16.34 1.79 16.35 C-0.81 16.25 -0.81 16.25 -2.81 15.25 C-2.48 14.26 -2.15 13.27 -1.81 12.25 C-2.8 11.92 -3.79 11.59 -4.81 11.25 C-4.81 10.26 -4.81 9.27 -4.81 8.25 C-6.13 8.25 -7.45 8.25 -8.81 8.25 C-9.06 8.87 -9.31 9.49 -9.56 10.12 C-11.03 12.62 -12.23 13.08 -14.81 14.25 C-14.44 12.66 -14.04 11.08 -13.62 9.5 C-13.51 9.06 -13.51 9.06 -12.96 6.83 C-10.27 0.77 -6.25 -0.25 0 0 Z " fill="#AFA498" transform="translate(60.8125,12.75)"/>
<path d="M0 0 C1.32 0.33 2.64 0.66 4 1 C3.67 1.49 3.67 1.49 2 4 C2.66 4 3.32 4 4 4 C3.67 4.97 3.34 5.94 3 6.94 C2 10 2 10 2 11 C-0.97 11 -3.94 11 -7 11 C-7 11.66 -7 12.32 -7 13 C-6.22 12.94 -5.43 12.88 -4.62 12.81 C-3.76 12.87 -2.89 12.94 -2 13 C0 16 0 16 -0.31 18.5 C-0.82 20.35 -1.39 22.18 -2 24 C-2.66 24 -3.32 24 -4 24 C-4.29 24.78 -4.58 25.57 -4.88 26.38 C-6 29 -6 29 -8 31 C-8.33 26.05 -8.66 21.1 -9 16 C-9.83 15.67 -9.83 15.67 -14 14 C-14.66 13.67 -15.32 13.34 -16 13 C-15 10 -15 10 -12 8 C-8.81 7.88 -8.81 7.88 -6 8 C-6 7.34 -6 6.68 -6 6 C-4.35 6.33 -2.7 6.66 -1 7 C-0.67 4.69 -0.34 2.38 0 0 Z " fill="#595A52" transform="translate(113,50)"/>
<path d="M0 0 C1.65 0 3.3 0 5 0 C5.5 1.62 6 3.25 6.5 4.88 C6.78 5.78 7.06 6.68 7.34 7.62 C8 10 8 10 8 12 C8.66 12.33 9.32 12.66 10 13 C8.73 13.51 7.46 14 6.19 14.5 C5.48 14.78 4.77 15.06 4.04 15.34 C2 16 2 16 -1 16 C-1 15.34 -1 14.68 -1 14 C-1.99 14.66 -2.98 15.32 -4 16 C-4.99 16 -5.98 16 -7 16 C-7 11.38 -7 6.76 -7 2 C-4.69 2 -2.38 2 0 2 C0 1.34 0 0.68 0 0 Z " fill="#5C5D61" transform="translate(43,65)"/>
<path d="M0 0 C0.4 0.01 0.4 0.01 2.44 0.06 C2.64 0.66 2.85 1.26 3.06 1.88 C4.95 4.87 7.25 5.68 10.44 7.06 C10.44 9.37 10.44 11.68 10.44 14.06 C8.13 14.06 5.82 14.06 3.44 14.06 C3.11 16.7 2.78 19.34 2.44 22.06 C1.78 22.06 1.12 22.06 0.44 22.06 C0.44 21.07 0.44 20.08 0.44 19.06 C-1.21 19.06 -2.86 19.06 -4.56 19.06 C-4.56 19.72 -4.56 20.38 -4.56 21.06 C-6.21 21.06 -7.86 21.06 -9.56 21.06 C-9.56 20.07 -9.56 19.08 -9.56 18.06 C-8.63 17.81 -7.71 17.57 -6.75 17.31 C-3.36 15.98 -2.14 15.31 -0.56 12.06 C-0.88 9.31 -0.88 9.31 -1.56 7.06 C-2.55 6.73 -3.54 6.4 -4.56 6.06 C-3.49 0.09 -3.49 0.09 0 0 Z " fill="#75777A" transform="translate(23.5625,59.9375)"/>
<path d="M0 0 C0 1.65 0 3.3 0 5 C-1.65 5 -3.3 5 -5 5 C-4.67 5.99 -4.34 6.98 -4 8 C-10.43 10.23 -10.43 10.23 -13.06 9.19 C-13.7 8.8 -14.34 8.4 -15 8 C-16.99 7.62 -18.99 7.27 -21 7 C-21 6.34 -21 5.68 -21 5 C-21.83 4.67 -21.83 4.67 -26 3 C-26 2.34 -26 1.68 -26 1 C-23.69 1 -21.38 1 -19 1 C-19 0.34 -19 -0.32 -19 -1 C-12.02 -2.88 -6.56 -3.78 0 0 Z " fill="#C9B59E" transform="translate(95,63)"/>
<path d="M0 0 C0.33 0 0.66 0 1 0 C1.42 2.58 1.81 5.16 2.19 7.75 C2.31 8.48 2.43 9.21 2.55 9.96 C3.02 13.29 3.27 15.47 1.74 18.52 C0 20 0 20 -3 20 C-3.12 19.36 -3.25 18.72 -3.38 18.06 C-3.58 17.38 -3.79 16.7 -4 16 C-4.66 15.67 -5.32 15.34 -6 15 C-6.33 16.98 -6.66 18.96 -7 21 C-8.32 21.33 -9.64 21.66 -11 22 C-11 22.66 -11 23.32 -11 24 C-12.98 23.67 -14.96 23.34 -17 23 C-16.67 21.02 -16.34 19.04 -16 17 C-14.02 16.34 -12.04 15.68 -10 15 C-10.33 14.01 -10.66 13.02 -11 12 C-9.06 8.81 -9.06 8.81 -7 6 C-5.35 6.99 -3.7 7.98 -2 9 C-1.34 6.03 -0.68 3.06 0 0 Z " fill="#888681" transform="translate(127,60)"/>
<path d="M0 0 C0.66 0 1.32 0 2 0 C2.19 2.27 2.38 4.54 2.56 6.81 C2.67 8.08 2.77 9.34 2.88 10.64 C3 14 3 14 2 17 C1.34 17 0.68 17 0 17 C0.33 15.35 0.66 13.7 1 12 C0.57 12.43 0.13 12.87 -0.31 13.31 C-1.88 14.88 -3.44 16.44 -5 18 C-7.06 16.25 -7.06 16.25 -9 14 C-8.75 11.75 -8.75 11.75 -8 10 C-5.36 10 -2.72 10 0 10 C0 9.01 0 8.02 0 7 C-1.65 7.66 -3.3 8.32 -5 9 C-5 8.34 -5 7.68 -5 7 C-6.65 7.33 -8.3 7.66 -10 8 C-10 9.65 -10 11.3 -10 13 C-12.64 13 -15.28 13 -18 13 C-18.33 10.03 -18.66 7.06 -19 4 C-18.01 3.67 -17.02 3.34 -16 3 C-15.34 4.32 -14.68 5.64 -14 7 C-13.34 6.34 -12.68 5.68 -12 5 C-11.67 5.33 -11.34 5.66 -11 6 C-10.52 5.92 -10.52 5.92 -8.06 5.5 C-5 5 -5 5 -3 6 C-2.69 5.2 -2.38 4.39 -2.06 3.56 C-1 1 -1 1 0 0 Z " fill="#928A84" transform="translate(103,69)"/>
<path d="M0 0 C0.99 0 1.98 0 3 0 C2.67 0.99 2.34 1.98 2 3 C3.16 3.5 3.16 3.5 9 6 C9 6.66 9 7.32 9 8 C8.01 8.33 7.02 8.66 6 9 C5.67 9.66 5.34 10.32 5 11 C2.86 11.67 2.86 11.67 0.19 12.19 C-0.69 12.37 -1.56 12.55 -2.46 12.73 C-5.02 13 -6.62 12.96 -9 12 C-10.25 9.44 -10.25 9.44 -11 7 C-11.66 7 -12.32 7 -13 7 C-12.67 6.01 -12.34 5.02 -12 4 C-7.93 2.51 -4.33 1.74 0 2 C0 1.34 0 0.68 0 0 Z " fill="#BAA892" transform="translate(58,75)"/>
<path d="M0 0 C4.12 1.72 5.87 5.15 7.69 9.12 C7.69 10.12 7.69 11.11 7.69 12.12 C7.03 12.12 6.37 12.12 5.69 12.12 C5.03 11.13 4.37 10.14 3.69 9.12 C2.04 9.78 0.39 10.45 -1.31 11.12 C-1.31 12.12 -1.31 13.11 -1.31 14.12 C-0.32 14.45 0.67 14.78 1.69 15.12 C1.36 16.45 1.03 17.77 0.69 19.12 C-0.3 18.8 -1.29 18.47 -2.31 18.12 C-2.31 17.47 -2.31 16.8 -2.31 16.12 C-3.3 16.12 -4.29 16.12 -5.31 16.12 C-5.97 12.83 -6.63 9.52 -7.31 6.12 C-6.65 6.12 -5.99 6.12 -5.31 6.12 C-5.19 5.51 -5.06 4.89 -4.94 4.25 C-4.05 1.23 -3.2 0.17 0 0 Z " fill="#8E8278" transform="translate(62.3125,41.875)"/>
<path d="M0 0 C0.61 0.08 1.23 0.17 1.86 0.25 C2.27 0.3 2.27 0.3 4.31 0.56 C5.11 0.67 5.91 0.77 6.74 0.88 C9 1 9 1 12 0 C12 0.66 12 1.32 12 2 C13.65 2.33 15.3 2.66 17 3 C18.47 8.47 17.44 11.12 15 16 C14.34 16 13.68 16 13 16 C11.65 13.29 11.93 10.99 12 8 C8.37 7.67 4.74 7.34 1 7 C0.67 4.69 0.34 2.38 0 0 Z " fill="#727372" transform="translate(30,79)"/>
<path d="M0 0 C2 2 2 2 2.2 5.7 C2.18 7.17 2.16 8.65 2.12 10.12 C2.12 10.88 2.11 11.63 2.1 12.41 C2.07 14.27 2.04 16.14 2 18 C2.99 18.33 3.98 18.66 5 19 C6.69 20.38 6.69 20.38 8 22 C8 22.99 8 23.98 8 25 C7.54 25.14 7.54 25.14 5.19 25.88 C2 27 2 27 -1 29 C-3.48 29.41 -3.48 29.41 -6.19 29.62 C-7.09 29.7 -7.99 29.77 -8.92 29.85 C-9.61 29.9 -10.29 29.95 -11 30 C-11.33 29.01 -11.66 28.02 -12 27 C-10.68 26.67 -9.36 26.34 -8 26 C-8.33 24.02 -8.66 22.04 -9 20 C-7.35 20.33 -5.7 20.66 -4 21 C-4 22.32 -4 23.64 -4 25 C-2.06 24.19 -2.06 24.19 0 23 C0.9 20.29 1.12 18.76 1.1 15.99 C1.09 15.23 1.09 14.47 1.09 13.69 C1.08 13.3 1.08 13.3 1.06 11.31 C1.06 10.52 1.05 9.72 1.05 8.9 C1.04 6.93 1.02 4.97 1 3 C0.01 3 -0.98 3 -2 3 C-1 1 -1 1 0 0 Z " fill="#C1BDAC" transform="translate(128,55)"/>
<path d="M0 0 C0.33 0.99 0.66 1.98 1 3 C2.32 2.01 3.64 1.02 5 0 C5.33 0.99 5.66 1.98 6 3 C6.66 3 7.32 3 8 3 C8 2.34 8 1.68 8 1 C8.66 1 9.32 1 10 1 C10 3.64 10 6.28 10 9 C11.32 9 12.64 9 14 9 C14.33 10.32 14.66 11.64 15 13 C14.01 13 13.02 13 12 13 C11.93 15.53 11.93 17.72 12.56 20.19 C13 22 13 22 12 24 C11.34 24 10.68 24 10 24 C9.89 23.52 9.89 23.52 9.34 21.08 C9.02 19.81 8.7 18.55 8.38 17.25 C8.22 16.62 8.22 16.62 7.46 13.45 C5.7 9.29 3.78 8.3 0 6 C-0.38 2.75 -0.38 2.75 0 0 Z " fill="#424848" transform="translate(41,53)"/>
<path d="M0 0 C0.33 0.66 0.66 1.32 1 2 C3.32 2.7 5.66 3.37 8 4 C9 5 9 5 9.1 6.85 C9.08 7.87 9.08 7.87 9 13 C7.68 12.67 6.36 12.34 5 12 C5 12.66 5 13.32 5 14 C-0.75 15 -0.75 15 -3 15 C-3 10.67 -3 6.33 -3 2 C-2.01 1.34 -1.02 0.68 0 0 Z " fill="#968C7F" transform="translate(102,44)"/>
<path d="M0 0 C0.56 0.39 1.11 0.78 1.69 1.19 C2.35 1.19 3.01 1.19 3.69 1.19 C3.69 2.18 3.69 3.17 3.69 4.19 C4.35 4.52 5.01 4.85 5.69 5.19 C3.12 7.75 1.21 7.73 -2.31 8.19 C-2.31 9.84 -2.31 11.49 -2.31 13.19 C-5.61 13.19 -8.91 13.19 -12.31 13.19 C-11.98 11.54 -11.65 9.89 -11.31 8.19 C-9.33 7.53 -7.35 6.87 -5.31 6.19 C-6.31 4.19 -6.31 4.19 -9.31 2.19 C-2.9 -1.02 -2.9 -1.02 0 0 Z " fill="#B6A594" transform="translate(95.3125,44.8125)"/>
<path d="M0 0 C1.32 0 2.64 0 4 0 C4.69 1.75 4.69 1.75 5 4 C3.56 6.25 3.56 6.25 2 8 C0.35 7.67 -1.3 7.34 -3 7 C-2.78 7.8 -2.57 8.59 -2.34 9.41 C-2.2 9.94 -2.2 9.94 -1.5 12.62 C-1.22 13.67 -0.94 14.71 -0.66 15.79 C-0.01 18.96 0.12 21.78 0 25 C-1.32 25 -2.64 25 -4 25 C-4.33 25.66 -4.66 26.32 -5 27 C-7.09 23.6 -7.18 20.95 -7 17 C-5.68 17 -4.36 17 -3 17 C-3 16.01 -3 15.02 -3 14 C-3.66 13.67 -4.32 13.34 -5 13 C-6.49 6.91 -6.49 6.91 -4.69 3.56 C-3 2 -3 2 -1 2 C-0.67 1.34 -0.34 0.68 0 0 Z " fill="#7A7B7F" transform="translate(52,21)"/>
<path d="M0 0 C0.99 0.66 1.98 1.32 3 2 C3 2.66 3 3.32 3 4 C4.98 4 6.96 4 9 4 C9.33 4.99 9.66 5.98 10 7 C9.67 7.66 9.34 8.32 9 9 C7.68 9 6.36 9 5 9 C5 9.66 5 10.32 5 11 C4.67 10.93 4.67 10.93 3.02 10.61 C-4.06 9.49 -4.06 9.49 -6.93 11.05 C-8.35 12.3 -9.68 13.65 -11 15 C-11.66 15 -12.32 15 -13 15 C-13.33 13.02 -13.66 11.04 -14 9 C-12.01 8.77 -10.03 8.54 -8.04 8.32 C-6 8 -6 8 -3 7 C-3 6.01 -3 5.02 -3 4 C-3.99 3.67 -4.98 3.34 -6 3 C-4.02 3 -2.04 3 0 3 C0 2.01 0 1.02 0 0 Z " fill="#CAB592" transform="translate(94,30)"/>
<path d="M0 0 C0.99 0.66 1.98 1.32 3 2 C3 2.66 3 3.32 3 4 C3.99 4.33 4.98 4.66 6 5 C7.94 7.87 9.5 10.88 11 14 C8.69 14 6.38 14 4 14 C4 13.34 4 12.68 4 12 C3.34 12 2.68 12 2 12 C2 12.66 2 13.32 2 14 C1.01 14.33 0.02 14.66 -1 15 C-1 14.34 -1 13.68 -1 13 C-1.99 12.67 -2.98 12.34 -4 12 C-3.67 11.34 -3.34 10.68 -3 10 C-2.67 9.01 -2.34 8.02 -2 7 C-2.66 6.67 -3.32 6.34 -4 6 C-4 5.01 -4 4.02 -4 3 C-2.68 2.67 -1.36 2.34 0 2 C0 1.34 0 0.68 0 0 Z " fill="#6D6D62" transform="translate(65,50)"/>
<path d="M0 0 C0.61 0.15 1.21 0.31 1.84 0.46 C8.04 2 8.04 2 11 2 C10.34 3.65 9.68 5.3 9 7 C11.31 7.33 13.62 7.66 16 8 C15.67 8.16 15.67 8.16 14 9 C13.67 9.66 13.34 10.32 13 11 C10.36 10.34 7.72 9.68 5 9 C5.33 10.32 5.66 11.64 6 13 C5.34 13.33 5.34 13.33 2 15 C-0.35 11.47 -0.21 9.97 -0.12 5.81 C-0.11 4.73 -0.09 3.64 -0.07 2.52 C-0.05 1.69 -0.02 0.86 0 0 Z " fill="#877D74" transform="translate(67,33)"/>
<path d="M0 0 C1.65 0 3.3 0 5 0 C5.33 1.32 5.66 2.64 6 4 C5.34 4 4.68 4 4 4 C4 4.66 4 5.32 4 6 C3.34 6 2.68 6 2 6 C2.33 7.32 2.66 8.64 3 10 C2.17 10.5 2.17 10.5 -2 13 C-4.5 11.62 -4.5 11.62 -7 10 C-7 9.34 -7 8.68 -7 8 C-7.66 8 -8.32 8 -9 8 C-8.34 6.02 -7.68 4.04 -7 2 C-4.69 2 -2.38 2 0 2 C0 1.34 0 0.68 0 0 Z " fill="#BFAC88" transform="translate(76,11)"/>
<path d="M0 0 C-0.33 1.32 -0.66 2.64 -1 4 C0.32 4.66 1.64 5.32 3 6 C3 6.66 3 7.32 3 8 C3.44 7.98 3.44 7.98 5.69 7.88 C8.97 8 11.05 8.61 14 10 C14 10.66 14 11.32 14 12 C11.69 12 9.38 12 7 12 C6.67 12.99 6.34 13.98 6 15 C5.67 14.34 5.34 13.68 5 13 C3.24 11.93 1.43 11.03 -0.41 10.1 C-2 9 -2 9 -3 6 C-5.37 5.88 -5.37 5.88 -8 6 C-8.66 6.66 -9.32 7.32 -10 8 C-9.39 5.04 -8.75 3.62 -7 1 C-2.5 -1.25 -2.5 -1.25 0 0 Z " fill="#C9BBAF" transform="translate(29,55)"/>
<path d="M0 0 C1.32 0.33 2.64 0.66 4 1 C3.01 1 2.02 1 1 1 C1.66 3.31 2.32 5.62 3 8 C-0.62 10.48 -2.67 11.11 -7 11 C-7.8 11.33 -8.61 11.66 -9.44 12 C-14.86 14.12 -18.95 12.83 -24.1 10.73 C-26.36 9.86 -28.61 9.37 -31 9 C-31 8.67 -31 8.34 -31 8 C-27.04 8 -23.08 8 -19 8 C-19 8.99 -19 9.98 -19 11 C-18.01 10.67 -17.02 10.34 -16 10 C-15.34 10.33 -14.68 10.66 -14 11 C-14.33 9.68 -14.66 8.36 -15 7 C-13 6.96 -11 6.96 -9 7 C-8.67 7.33 -8.34 7.66 -8 8 C-6.65 8.23 -5.3 8.41 -3.94 8.56 C-2.64 8.71 -1.34 8.85 0 9 C-0.19 8.44 -0.37 7.89 -0.56 7.31 C-1.08 4.6 -0.66 2.66 0 0 Z " fill="#BEB9B4" transform="translate(70,88)"/>
<path d="M0 0 C2.64 0.33 5.28 0.66 8 1 C8 1.99 8 2.98 8 4 C8.4 4.06 8.4 4.06 10.44 4.38 C10.86 4.48 10.86 4.48 13 5 C13.33 5.66 13.66 6.32 14 7 C14.99 7 15.98 7 17 7 C17 8.32 17 9.64 17 11 C15.06 10.86 13.12 10.71 11.19 10.56 C10.11 10.48 9.03 10.4 7.92 10.32 C5 10 5 10 2 9 C1.27 6.93 1.27 6.93 0.81 4.44 C0.65 3.61 0.5 2.78 0.33 1.93 C0.28 1.61 0.28 1.61 0 0 Z " fill="#7E848C" transform="translate(70,79)"/>
<path d="M0 0 C0.09 0.61 0.17 1.23 0.26 1.86 C1.43 8.59 1.43 8.59 4.62 10.88 C5.41 11.25 6.19 11.62 7 12 C7 12.99 7 13.98 7 15 C3.6 17.27 1.83 17.37 -2.19 17.62 C-3.27 17.7 -4.36 17.77 -5.48 17.85 C-5.9 17.88 -5.9 17.88 -8 18 C-7.34 16.68 -6.68 15.36 -6 14 C-5.01 14 -4.02 14 -3 14 C-2.01 13.67 -1.02 13.34 0 13 C-0.66 10.36 -1.32 7.72 -2 5 C-3.32 4.67 -4.64 4.34 -6 4 C-5.67 3.01 -5.34 2.02 -5 1 C-3 0 -3 0 0 0 Z " fill="#BDA674" transform="translate(84,22)"/>
<path d="M0 0 C0.44 0.08 0.44 0.08 2.69 0.5 C5.54 0.93 8.13 1.08 11 1 C11 3.31 11 5.62 11 8 C10.67 7.34 10.34 6.68 10 6 C9.34 6 8.68 6 8 6 C7.67 7.32 7.34 8.64 7 10 C6.34 10 5.68 10 5 10 C5 9.34 5 8.68 5 8 C3.02 8 1.04 8 -1 8 C-1.25 8.8 -1.5 9.61 -1.75 10.44 C-3 13 -3 13 -5.12 13.81 C-5.74 13.87 -6.36 13.94 -7 14 C-7 13.01 -7 12.02 -7 11 C-6.01 10.67 -5.02 10.34 -4 10 C-4 8.35 -4 6.7 -4 5 C-2.35 5.33 -0.7 5.66 1 6 C0.67 4.02 0.34 2.04 0 0 Z " fill="#9E968E" transform="translate(102,33)"/>
<path d="M0 0 C0.99 0.33 1.98 0.66 3 1 C2.01 1.33 1.02 1.66 0 2 C-0.34 4.1 -0.67 6.21 -1 8.31 C-1.19 9.48 -1.37 10.66 -1.56 11.86 C-2 15 -2 15 -2 18 C-2 19.32 -2 20.64 -2 22 C-2.99 22 -3.98 22 -5 22 C-5.51 20.13 -6.01 18.25 -6.5 16.38 C-6.64 15.85 -6.64 15.85 -7.34 13.21 C-7.99 10.04 -8.12 7.22 -8 4 C-7.24 4.08 -6.47 4.16 -5.69 4.25 C-3 4 -3 4 -1.19 2 C-0.8 1.34 -0.4 0.68 0 0 Z " fill="#656362" transform="translate(57,24)"/>
<path d="M0 0 C-1.65 1.32 -3.3 2.64 -5 4 C-5 3.34 -5 2.68 -5 2 C-5.99 2 -6.98 2 -8 2 C-7.67 3.98 -7.34 5.96 -7 8 C-9.17 7.49 -11 7 -13 6 C-13 5.34 -13 4.68 -13 4 C-12.34 4 -11.68 4 -11 4 C-11 3.34 -11 2.68 -11 2 C-10.34 2 -9.68 2 -9 2 C-9.33 0.68 -9.66 -0.64 -10 -2 C-11.65 -2 -13.3 -2 -15 -2 C-15 -1.34 -15 -0.68 -15 0 C-15.56 0.07 -15.56 0.07 -18.38 0.44 C-22 1 -22 1 -24 2 C-24 1.34 -24 0.68 -24 0 C-26.97 0 -29.94 0 -33 0 C-33 -0.33 -33 -0.66 -33 -1 C-8.2 -4.19 -8.2 -4.19 0 0 Z " fill="#D8C8B5" transform="translate(91,13)"/>
<path d="M0 0 C0.33 0 0.66 0 1 0 C1.66 5.28 2.32 10.56 3 16 C1.35 16.33 -0.3 16.66 -2 17 C-2.33 16.01 -2.66 15.02 -3 14 C-5.56 12.81 -5.56 12.81 -8 12 C-8 12.66 -8 13.32 -8 14 C-8.99 14 -9.98 14 -11 14 C-9.81 10.62 -8.72 8.35 -6 6 C-5.67 6.66 -5.34 7.32 -5 8 C-4.01 8.33 -3.02 8.66 -2 9 C-1.34 6.03 -0.68 3.06 0 0 Z " fill="#A29C96" transform="translate(127,60)"/>
<path d="M0 0 C0 0.66 0 1.32 0 2 C2.31 2 4.62 2 7 2 C7.33 1.34 7.66 0.68 8 0 C8.33 1.32 8.66 2.64 9 4 C7.35 4 5.7 4 4 4 C4.33 4.99 4.66 5.98 5 7 C-1.43 9.23 -1.43 9.23 -4.06 8.19 C-4.7 7.8 -5.34 7.4 -6 7 C-7.99 6.62 -9.99 6.27 -12 6 C-11.34 5.67 -10.68 5.34 -10 5 C-10 4.34 -10 3.68 -10 3 C-3.38 0 -3.38 0 0 0 Z " fill="#B9A68E" transform="translate(86,64)"/>
<path d="M0 0 C0 0.66 0 1.32 0 2 C-2.31 2.66 -4.62 3.32 -7 4 C-7 4.66 -7 5.32 -7 6 C-6.01 5.67 -5.02 5.34 -4 5 C-4 6.32 -4 7.64 -4 9 C-5.65 9 -7.3 9 -9 9 C-9 8.34 -9 7.68 -9 7 C-11.44 7.69 -11.44 7.69 -14 9 C-14.81 11.62 -14.81 11.62 -15 14 C-15.99 14 -16.98 14 -18 14 C-18.37 8.58 -18.37 8.58 -16.5 5.62 C-16 5.09 -15.51 4.55 -15 4 C-13.02 4.66 -11.04 5.32 -9 6 C-9.33 4.02 -9.66 2.04 -10 0 C-6.3 -0.95 -3.7 -0.95 0 0 Z " fill="#D2BCA2" transform="translate(93,15)"/>
<path d="M0 0 C0 0.66 0 1.32 0 2 C0.63 1.99 1.25 1.98 1.9 1.96 C2.72 1.96 3.53 1.95 4.38 1.94 C5.19 1.93 6 1.91 6.84 1.9 C9 2 9 2 11 3 C11 5.64 11 8.28 11 11 C10.42 10.79 9.84 10.59 9.25 10.38 C6.48 9.91 5.35 10.57 3 12 C2.01 11.01 1.02 10.02 0 9 C1.98 8.34 3.96 7.68 6 7 C6 6.01 6 5.02 6 4 C5.54 4.03 5.54 4.03 3.19 4.19 C-2.08 4.22 -7 2.52 -12 1 C-12 0.67 -12 0.34 -12 0 C-7.67 -0.93 -4.33 -0.93 0 0 Z " fill="#AFB3B5" transform="translate(31,84)"/>
<path d="M0 0 C0.33 0.66 0.66 1.32 1 2 C1.66 2 2.32 2 3 2 C2.67 5.3 2.34 8.6 2 12 C2.66 12 3.32 12 4 12 C4.33 11.01 4.66 10.02 5 9 C5.33 10.65 5.66 12.3 6 14 C4.02 14 2.04 14 0 14 C0 14.99 0 15.98 0 17 C0.66 17.33 1.32 17.66 2 18 C1.34 19.32 0.68 20.64 0 22 C-0.66 22 -1.32 22 -2 22 C-2.33 22.66 -2.66 23.32 -3 24 C-3.33 22.68 -3.66 21.36 -4 20 C-3.34 20 -2.68 20 -2 20 C-2.37 18.74 -2.74 17.48 -3.12 16.19 C-3.76 14.04 -3.76 14.04 -4 12 C-3.34 11.01 -2.68 10.02 -2 9 C-1.37 6.74 -1.37 6.74 -0.88 4.31 C-0.71 3.5 -0.54 2.7 -0.37 1.86 C-0.25 1.25 -0.12 0.63 0 0 Z " fill="#72777F" transform="translate(57,26)"/>
<path d="M0 0 C1 3 1 3 -0.31 6.12 C-3.32 9.34 -3.96 9.44 -8.12 9.81 C-8.99 9.84 -9.86 9.87 -10.76 9.89 C-13 10 -13 10 -15 11 C-15.33 9.02 -15.66 7.04 -16 5 C-14.68 5 -13.36 5 -12 5 C-12 4.01 -12 3.02 -12 2 C-11.03 2.19 -10.06 2.37 -9.06 2.56 C-8.05 2.71 -7.04 2.85 -6 3 C-5.67 2.67 -5.34 2.34 -5 2 C-3.33 1.96 -1.67 1.96 0 2 C0 1.34 0 0.68 0 0 Z " fill="#777266" transform="translate(103,66)"/>
<path d="M0 0 C1.65 0 3.3 0 5 0 C5.66 1.98 6.32 3.96 7 6 C6.67 6.17 6.67 6.17 5 7 C4.48 6.53 3.97 6.05 3.44 5.56 C0.33 3.57 -2.37 3.35 -6 3 C-4.91 3.62 -3.81 4.24 -2.69 4.88 C-0.38 6.18 1.79 7.53 4 9 C4.66 8.67 5.32 8.34 6 8 C6 9.32 6 10.64 6 12 C1.12 11.12 1.12 11.12 0 10 C-2.33 9.96 -4.67 9.96 -7 10 C-7 7.36 -7 4.72 -7 2 C-4.69 2 -2.38 2 0 2 C0 1.34 0 0.68 0 0 Z " fill="#7F7975" transform="translate(43,65)"/>
<path d="M0 0 C1.98 0 3.96 0 6 0 C6.33 0.66 6.66 1.32 7 2 C7.99 1.67 8.98 1.34 10 1 C10 1.66 10 2.32 10 3 C10.66 3 11.32 3 12 3 C12 3.66 12 4.32 12 5 C12.99 5 13.98 5 15 5 C14.67 5.99 14.34 6.98 14 8 C12.21 8.03 10.42 8.05 8.62 8.06 C7.63 8.07 6.63 8.09 5.6 8.1 C3 8 3 8 1 7 C1.33 6.01 1.66 5.02 2 4 C1.01 3.67 0.02 3.34 -1 3 C-0.67 2.01 -0.34 1.02 0 0 Z " fill="#C3AB89" transform="translate(57,21)"/>
<path d="M0 0 C3.08 2.77 4.69 5.06 6 9 C3.77 12.35 2.74 13.82 -1.25 14.81 C-2.16 14.87 -3.07 14.94 -4 15 C-4 15.99 -4 16.98 -4 18 C-2.68 18.33 -1.36 18.66 0 19 C-2.31 18.67 -4.62 18.34 -7 18 C-7.33 17.01 -7.66 16.02 -8 15 C-7.01 14.67 -6.02 14.34 -5 14 C-5 13.01 -5 12.02 -5 11 C-4.01 11 -3.02 11 -2 11 C-0.81 7.12 0 4.08 0 0 Z " fill="#B1B5B7" transform="translate(18,63)"/>
<path d="M0 0 C1.32 0.33 2.64 0.66 4 1 C3.67 1.49 3.67 1.49 2 4 C2.66 4 3.32 4 4 4 C3.67 4.97 3.34 5.94 3 6.94 C2 10 2 10 2 11 C-0.97 11 -3.94 11 -7 11 C-6.67 12.32 -6.34 13.64 -6 15 C-6.99 14.67 -7.98 14.34 -9 14 C-9.33 12.02 -9.66 10.04 -10 8 C-8.68 8 -7.36 8 -6 8 C-6 7.34 -6 6.68 -6 6 C-4.35 6.33 -2.7 6.66 -1 7 C-0.67 4.69 -0.34 2.38 0 0 Z " fill="#6E6A4B" transform="translate(113,50)"/>
<path d="M0 0 C2.31 0.66 4.62 1.32 7 2 C7.62 3.88 7.62 3.88 8 6 C4.9 9.1 1.25 8.84 -3 9 C-6.56 8.56 -6.56 8.56 -9 8 C-8.67 7.01 -8.34 6.02 -8 5 C-7.67 5.33 -7.34 5.66 -7 6 C-4.67 6.04 -2.33 6.04 0 6 C-0.19 5.38 -0.37 4.76 -0.56 4.12 C-1 2 -1 2 0 0 Z " fill="#C8C3BE" transform="translate(106,85)"/>
<path d="M0 0 C0.66 0.33 1.32 0.66 2 1 C2.63 3.94 2.63 3.94 3.12 7.56 C3.29 8.76 3.46 9.96 3.63 11.19 C3.75 12.12 3.88 13.05 4 14 C4.66 14 5.32 14 6 14 C5.67 15.65 5.34 17.3 5 19 C3.02 19 1.04 19 -1 19 C-0.67 17.68 -0.34 16.36 0 15 C0.99 15 1.98 15 3 15 C2.34 13.68 1.68 12.36 1 11 C0.34 11 -0.32 11 -1 11 C-1.66 11.66 -2.32 12.32 -3 13 C-3 10.36 -3 7.72 -3 5 C-2.34 5 -1.68 5 -1 5 C-0.67 3.35 -0.34 1.7 0 0 Z " fill="#6C7480" transform="translate(53,51)"/>
<path d="M0 0 C0.99 0 1.98 0 3 0 C2.67 1.32 2.34 2.64 2 4 C2.31 4.07 2.31 4.07 3.88 4.44 C6 5 6 5 8 6 C7.67 6.99 7.34 7.98 7 9 C7.33 9.33 7.66 9.66 8 10 C6.68 10.99 5.36 11.98 4 13 C0.12 10.5 0.12 10.5 -0.5 7.94 C-1 6 -1 6 -3.06 4.75 C-3.7 4.5 -4.34 4.26 -5 4 C-4.68 3.95 -4.68 3.95 -3.06 3.69 C-2.38 3.46 -1.7 3.23 -1 3 C-0.67 2.01 -0.34 1.02 0 0 Z " fill="#B9AB79" transform="translate(120,48)"/>
<path d="M0 0 C2 3 2 3 2 5 C2.99 5 3.98 5 5 5 C4.67 5.99 4.34 6.98 4 8 C3.03 7.96 2.06 7.92 1.06 7.88 C-1.98 7.85 -4.56 8.34 -7.5 9.12 C-12 10.24 -14.71 9.64 -19 8 C-19 7.67 -19 7.34 -19 7 C-15.37 7.33 -11.74 7.66 -8 8 C-8 6.35 -8 4.7 -8 3 C-6.35 3 -4.7 3 -3 3 C-2.67 3.99 -2.34 4.98 -2 6 C-1.34 4.02 -0.68 2.04 0 0 Z " fill="#B9B3A6" transform="translate(95,82)"/>
<path d="M0 0 C0.66 0 1.32 0 2 0 C2.33 0.99 2.66 1.98 3 3 C4.98 3 6.96 3 9 3 C9 3.66 9 4.32 9 5 C7.68 5.33 6.36 5.66 5 6 C5 8.64 5 11.28 5 14 C2.71 13.08 1.25 12.31 -0.31 10.38 C-1.36 6.74 -0.62 3.72 0 0 Z " fill="#4E504B" transform="translate(71,47)"/>
<path d="M0 0 C0.33 0 0.66 0 1 0 C1.19 2.27 1.38 4.54 1.56 6.81 C1.67 8.08 1.77 9.34 1.88 10.64 C2 14 2 14 1 17 C0.34 17 -0.32 17 -1 17 C-0.67 15.35 -0.34 13.7 0 12 C-0.43 12.43 -0.87 12.87 -1.31 13.31 C-2.88 14.88 -4.44 16.44 -6 18 C-8.06 16.25 -8.06 16.25 -10 14 C-9.75 11.75 -9.75 11.75 -9 10 C-6.36 10 -3.72 10 -1 10 C-0.67 6.7 -0.34 3.4 0 0 Z " fill="#7A7C7C" transform="translate(104,69)"/>
<path d="M0 0 C2.66 0.36 4.58 0.71 6.81 2.25 C8 4 8 4 8 9 C4.37 8.67 0.74 8.34 -3 8 C-2.01 5.36 -1.02 2.72 0 0 Z " fill="#636266" transform="translate(77,70)"/>
<path d="M0 0 C0.99 0.33 1.98 0.66 3 1 C2.67 2.32 2.34 3.64 2 5 C2.66 5 3.32 5 4 5 C4 5.66 4 6.32 4 7 C4.8 7.25 5.61 7.5 6.44 7.75 C9 9 9 9 9.81 11.12 C9.87 11.74 9.94 12.36 10 13 C9.01 12.84 9.01 12.84 4 12 C4 11.34 4 10.68 4 10 C3.34 10 2.68 10 2 10 C2 9.34 2 8.68 2 8 C0.35 8.66 -1.3 9.32 -3 10 C-2.01 8.35 -1.02 6.7 0 5 C-1.32 4.34 -2.64 3.68 -4 3 C-2.68 2.67 -1.36 2.34 0 2 C0 1.34 0 0.68 0 0 Z " fill="#968962" transform="translate(65,14)"/>
<path d="M0 0 C0.66 0 1.32 0 2 0 C2 0.99 2 1.98 2 3 C0.68 3 -0.64 3 -2 3 C-1.34 6.96 -0.68 10.92 0 15 C-1.32 15.33 -2.64 15.66 -4 16 C-3.67 17.65 -3.34 19.3 -3 21 C-3.66 21 -4.32 21 -5 21 C-6.28 17.17 -5.86 13.77 -5.56 9.81 C-5.51 9.06 -5.46 8.31 -5.4 7.54 C-5.27 5.69 -5.14 3.85 -5 2 C-3.35 1.67 -1.7 1.34 0 1 C0 0.67 0 0.34 0 0 Z " fill="#878B92" transform="translate(47,35)"/>
<path d="M0 0 C0.99 0.66 1.98 1.32 3 2 C3.41 4.71 3.13 7.24 3 10 C1.68 10 0.36 10 -1 10 C-1 12.64 -1 15.28 -1 18 C-1.66 18.33 -2.32 18.66 -3 19 C-3.41 21.29 -3.41 21.29 -3.62 24.06 C-3.7 24.98 -3.77 25.9 -3.85 26.85 C-3.9 27.56 -3.95 28.27 -4 29 C-4.66 28.34 -5.32 27.68 -6 27 C-5.92 24.08 -5.72 21.33 -5.38 18.44 C-5.28 17.62 -5.19 16.81 -5.09 15.97 C-4.33 10.04 -2.93 5.27 0 0 Z " fill="#ADB0B5" transform="translate(45,27)"/>
</svg>
