<?xml version="1.0" encoding="UTF-8"?>
<!-- Generator: visioncortex VTracer 0.6.12 -->
<svg version="1.1" xmlns="http://www.w3.org/2000/svg" width="133" height="132">
<path d="M0 0 C0.99 0.16 0.99 0.16 6 1 C6.16 1.66 6.16 1.66 7 5 C8.32 5.33 9.64 5.66 11 6 C12.12 10.75 12.12 10.75 11 13 C10.01 13.33 9.02 13.66 8 14 C8.33 14.16 8.33 14.16 10 15 C10 16.32 10 17.64 10 19 C10.66 19 11.32 19 12 19 C12.33 18.51 12.33 18.51 14 16 C16.38 15.81 16.38 15.81 19 16 C20.32 16 21.64 16 23 16 C23.33 16.33 23.33 16.33 25 18 C26.32 19.01 27.66 20.01 29 21 C28.91 21.37 28.91 21.37 28.44 23.25 C28 26 28 26 28.56 28.19 C28.63 28.49 28.63 28.49 29 30 C28.34 30.66 27.68 31.32 27 32 C26.01 32 25.02 32 24 32 C23.94 32.32 23.94 32.32 23.62 33.94 C23.42 34.62 23.21 35.3 23 36 C22.67 36.16 22.67 36.16 21 37 C21.66 37.66 22.32 38.32 23 39 C23.16 38.67 23.16 38.67 24 37 C26.38 36.81 26.38 36.81 29 37 C29.66 37.99 30.32 38.98 31 40 C31.99 39.67 32.98 39.34 34 39 C35.56 40.25 35.56 40.25 37 42 C36.56 44.06 36.56 44.06 36 46 C36.66 46.66 37.32 47.32 38 48 C37.81 50.06 37.81 50.06 37 52 C36.5 52.16 36.5 52.16 34 53 C33.34 52.67 32.68 52.34 32 52 C32 53.65 32 55.3 32 57 C34.46 58.23 36.28 58.07 39 58 C39 58.66 39 59.32 39 60 C40.65 60 42.3 60 44 60 C44.62 62.31 44.62 62.31 45 65 C44.34 65.99 43.68 66.98 43 68 C44.32 69.32 45.64 70.64 47 72 C46.67 72.66 46.67 72.66 45 76 C44.01 76 43.02 76 42 76 C41.94 76.62 41.88 77.24 41.81 77.88 C41 80 41 80 38.62 81.19 C37.76 81.46 36.89 81.72 36 82 C35.5 82.16 35.5 82.16 33 83 C32.5 82.84 32.5 82.84 30 82 C33.21 84.14 35.25 84.44 39 85 C39.66 85.33 40.32 85.66 41 86 C40.98 86.93 40.96 87.86 40.94 88.81 C41 92 41 92 42 95 C43.65 95.33 45.3 95.66 47 96 C46.84 96.5 46.84 96.5 46 99 C40.7 101.4 35.53 101.84 30 100 C30 100.66 30 101.32 30 102 C30.66 102.33 30.66 102.33 34 104 C32.35 105.97 31.37 106.91 28.84 107.55 C28.07 107.61 27.3 107.68 26.5 107.75 C26.11 107.79 26.11 107.79 24.16 107.98 C22 108 22 108 19 107 C16.67 106.96 14.33 106.96 12 107 C12 106.01 12 105.02 12 104 C11.01 104.66 10.02 105.32 9 106 C9.33 107.32 9.66 108.64 10 110 C0 112.49 0 112.49 -5 112 C-5.33 111.67 -5.33 111.67 -7 110 C-9.69 109.73 -12.29 109.91 -15 110 C-15 110.66 -15 111.32 -15 112 C-15.95 111.98 -16.9 111.96 -17.88 111.94 C-21 112 -21 112 -23 113 C-25.62 112.06 -25.62 112.06 -28 111 C-28 110.01 -28 109.02 -28 108 C-30.31 107.34 -32.62 106.68 -35 106 C-35 106.66 -35 107.32 -35 108 C-39.32 108.76 -42.74 109.16 -47 108 C-47 107.34 -47 106.68 -47 106 C-47.83 106.16 -47.83 106.16 -52 107 C-52.66 106.01 -53.32 105.02 -54 104 C-53.5 103.67 -53.5 103.67 -51 102 C-51.64 101.71 -52.28 101.42 -52.94 101.12 C-55 100 -55 100 -56 98 C-56.29 98.19 -56.29 98.19 -57.75 99.12 C-60 100 -60 100 -62.06 99.19 C-62.7 98.8 -63.34 98.4 -64 98 C-64.99 97.67 -65.98 97.34 -67 97 C-66.67 96.01 -66.34 95.02 -66 94 C-65.01 94 -64.02 94 -63 94 C-62.67 93.01 -62.34 92.02 -62 91 C-61.17 90.84 -61.17 90.84 -57 90 C-57.68 89.42 -58.36 88.84 -59.06 88.25 C-61 86 -61 86 -61.12 83.94 C-59.38 80.93 -57.19 80.19 -54 79 C-51.75 79.24 -50.6 79.4 -49 81 C-49.33 80.01 -49.66 79.02 -50 78 C-48.56 75.81 -48.56 75.81 -47 74 C-47.72 74.5 -48.44 74.99 -49.19 75.5 C-52.17 77.09 -53.68 77.45 -57 77 C-57.66 76.34 -58.32 75.68 -59 75 C-58.62 72.87 -58.62 72.87 -58 71 C-58.3 71.1 -58.3 71.1 -59.81 71.62 C-62 72 -62 72 -65 70 C-64.33 66.18 -63.58 62.55 -62 59 C-59.08 57.35 -57.35 57 -54 57 C-53.67 56.01 -53.34 55.02 -53 54 C-53.5 54.16 -53.5 54.16 -56 55 C-56.99 54.34 -57.98 53.68 -59 53 C-58.49 50.83 -58 49 -57 47 C-56.92 46.17 -56.84 45.35 -56.75 44.5 C-56.5 43.67 -56.26 42.85 -56 42 C-53.5 40.75 -53.5 40.75 -51 40 C-50.67 39.67 -50.34 39.34 -50 39 C-47.56 38.75 -47.56 38.75 -45 39 C-44.34 39.99 -43.68 40.98 -43 42 C-42.34 41.01 -41.68 40.02 -41 39 C-38.62 38.71 -38.62 38.71 -35.88 38.81 C-34.96 38.84 -34.05 38.87 -33.12 38.89 C-32.42 38.93 -31.72 38.96 -31 39 C-31 38.67 -31 38.34 -31 38 C-32.65 38 -34.3 38 -36 38 C-36 36.68 -36 35.36 -36 34 C-37.65 33.67 -39.3 33.34 -41 33 C-40.91 31.56 -40.8 30.12 -40.69 28.69 C-40.63 27.89 -40.57 27.09 -40.51 26.26 C-39.91 23.6 -39.11 22.67 -37 21 C-35.06 20.38 -35.06 20.38 -33 20 C-32.38 19.77 -31.76 19.55 -31.12 19.31 C-28.07 18.86 -25.84 19.9 -23 21 C-23.16 20.67 -23.16 20.67 -24 19 C-24.99 18.67 -25.98 18.34 -27 18 C-27.16 17.51 -27.16 17.51 -28 15 C-27.51 14.59 -27.01 14.18 -26.5 13.75 C-25 12 -25 12 -25 8 C-23 6 -23 6 -20.12 5.94 C-19.61 5.95 -19.61 5.95 -17 6 C-16.63 5.9 -16.63 5.9 -14.75 5.38 C-14.46 5.31 -14.46 5.31 -13 5 C-12.34 5.66 -11.68 6.32 -11 7 C-11.38 9.62 -11.38 9.62 -12 12 C-11.34 12 -10.68 12 -10 12 C-10 11.34 -10 10.68 -10 10 C-9.01 9.67 -8.02 9.34 -7 9 C-7.21 8.22 -7.41 7.43 -7.62 6.62 C-7.75 5.76 -7.87 4.89 -8 4 C-6 2 -6 2 -3.38 1.88 C-2.59 1.92 -1.81 1.96 -1 2 C-0.67 1.34 -0.34 0.68 0 0 Z " fill="#6C775F" transform="translate(77,10)"/>
<path d="M0 0 C0.99 0.16 0.99 0.16 6 1 C6.16 1.66 6.16 1.66 7 5 C8.32 5.33 9.64 5.66 11 6 C12.12 10.75 12.12 10.75 11 13 C10.01 13.33 9.02 13.66 8 14 C8.33 14.16 8.33 14.16 10 15 C10 16.32 10 17.64 10 19 C10.66 19 11.32 19 12 19 C12.33 18.51 12.33 18.51 14 16 C16.38 15.81 16.38 15.81 19 16 C20.32 16 21.64 16 23 16 C23.33 16.33 23.33 16.33 25 18 C26.32 19.01 27.66 20.01 29 21 C28.91 21.37 28.91 21.37 28.44 23.25 C28 26 28 26 28.56 28.19 C28.63 28.49 28.63 28.49 29 30 C28.34 30.66 27.68 31.32 27 32 C26.01 32 25.02 32 24 32 C23.94 32.32 23.94 32.32 23.62 33.94 C23.42 34.62 23.21 35.3 23 36 C22.67 36.16 22.67 36.16 21 37 C21.66 37.66 22.32 38.32 23 39 C23.16 38.67 23.16 38.67 24 37 C26.37 36.81 26.37 36.81 29 37 C29.66 37.99 30.32 38.98 31 40 C31.99 39.67 32.98 39.34 34 39 C35.56 40.25 35.56 40.25 37 42 C36.56 44.06 36.56 44.06 36 46 C36.66 46.66 37.32 47.32 38 48 C37.81 50.06 37.81 50.06 37 52 C36.5 52.16 36.5 52.16 34 53 C33.34 52.67 32.68 52.34 32 52 C32 53.65 32 55.3 32 57 C34.46 58.23 36.28 58.07 39 58 C39 58.66 39 59.32 39 60 C40.65 60 42.3 60 44 60 C44.62 62.31 44.62 62.31 45 65 C44.34 65.99 43.68 66.98 43 68 C44.32 69.32 45.64 70.64 47 72 C46.67 72.66 46.67 72.66 45 76 C44.01 76 43.02 76 42 76 C41.94 76.62 41.88 77.24 41.81 77.88 C41 80 41 80 38.62 81.25 C36 82 36 82 33 82 C33.33 80.02 33.66 78.04 34 76 C33.67 76.33 33.34 76.66 33 77 C32.67 76.01 32.34 75.02 32 74 C33.44 71.81 33.44 71.81 35 70 C32.36 70.33 29.72 70.66 27 71 C26.84 71.5 26.84 71.5 26 74 C23.69 74 21.38 74 19 74 C19.21 72.91 19.41 71.81 19.62 70.69 C20 67 20 67 18 64 C17.4 64.17 16.8 64.33 16.19 64.5 C14 65 14 65 11 65 C10 64 10 64 9.94 60.44 C9.96 59.3 9.98 58.17 10 57 C10.99 56.67 11.98 56.34 13 56 C13.66 56.33 14.32 56.66 15 57 C15.33 57.99 15.66 58.98 16 60 C16.5 60.16 16.5 60.16 19 61 C18.67 59.35 18.34 57.7 18 56 C17.5 55.84 17.5 55.84 15 55 C15.33 53.35 15.66 51.7 16 50 C15.42 49.71 14.84 49.42 14.25 49.12 C12.17 48.08 10.08 47.04 8 46 C8.35 46.74 8.7 47.48 9.06 48.25 C10.05 51.13 10.03 52.21 9 55 C9 54.34 9 53.68 9 53 C7.35 52.67 5.7 52.34 4 52 C2.77 48.31 3.36 45.79 4 42 C2.35 42 0.7 42 -1 42 C-0.01 41.67 0.98 41.34 2 41 C2 40.34 2 39.68 2 39 C0.35 38.67 -1.3 38.34 -3 38 C-3 37.34 -3 36.68 -3 36 C-1.02 36.33 0.96 36.66 3 37 C2.67 36.67 2.34 36.34 2 36 C2.29 34.32 2.62 32.66 3 31 C4.65 31.33 6.3 31.66 8 32 C7.17 31.05 6.35 30.1 5.5 29.12 C3 26.25 3 26.25 3 24 C1.68 23.67 0.36 23.34 -1 23 C-1 24.65 -1 26.3 -1 28 C-4.25 29.62 -4.25 29.62 -8 31 C-10.44 30.19 -10.44 30.19 -12 29 C-12 28.01 -12 27.02 -12 26 C-13.65 26.33 -15.3 26.66 -17 27 C-17 26.01 -17 25.02 -17 24 C-18.98 24 -20.96 24 -23 24 C-23 25.65 -23 27.3 -23 29 C-20.69 28.67 -18.38 28.34 -16 28 C-15.84 28.49 -15.84 28.49 -15 31 C-13.68 30.67 -12.36 30.34 -11 30 C-11 30.99 -11 31.98 -11 33 C-11.66 33 -12.32 33 -13 33 C-12.55 34.61 -12.09 36.21 -11.62 37.81 C-11.5 38.26 -11.5 38.26 -10.85 40.52 C-10 43 -10 43 -8 46 C-8.33 46.16 -8.33 46.16 -10 47 C-12.12 46.06 -12.12 46.06 -14 45 C-14.14 45.78 -14.29 46.57 -14.44 47.38 C-15 50 -15 50 -16 52 C-16.66 52 -17.32 52 -18 52 C-18.33 51.34 -18.66 50.68 -19 50 C-20.65 50.66 -22.3 51.32 -24 52 C-24.33 51.01 -24.66 50.02 -25 49 C-29.88 50.75 -29.88 50.75 -31 53 C-30.01 53.16 -30.01 53.16 -25 54 C-25 54.66 -25 55.32 -25 56 C-23.35 55.34 -21.7 54.68 -20 54 C-19.84 54.83 -19.84 54.83 -19 59 C-17.35 59.33 -15.7 59.66 -14 60 C-14.33 60.99 -14.66 61.98 -15 63 C-15.99 63.16 -15.99 63.16 -21 64 C-21.66 66.64 -22.32 69.28 -23 72 C-26.33 72 -29.67 72 -33 72 C-35 69 -35 69 -35 66 C-36.16 65.84 -36.16 65.84 -42 65 C-42 65.66 -42 66.32 -42 67 C-41.26 66.88 -40.52 66.75 -39.75 66.62 C-37 67 -37 67 -34.69 69.88 C-33 73 -33 73 -33 75 C-33.99 75 -34.98 75 -36 75 C-36.33 75.33 -36.66 75.66 -37 76 C-37.49 75.84 -37.49 75.84 -40 75 C-40 74.34 -40 73.68 -40 73 C-40.66 73 -41.32 73 -42 73 C-42 73.66 -42 74.32 -42 75 C-42.49 75.33 -42.49 75.33 -45 77 C-45.49 76.84 -45.49 76.84 -48 76 C-48 75.34 -48 74.68 -48 74 C-48.56 74.5 -49.11 74.99 -49.69 75.5 C-52.42 77.27 -53.81 77.42 -57 77 C-57.66 76.34 -58.32 75.68 -59 75 C-58.62 72.87 -58.62 72.87 -58 71 C-58.3 71.1 -58.3 71.1 -59.81 71.62 C-62 72 -62 72 -65 70 C-64.33 66.18 -63.58 62.55 -62 59 C-59.08 57.35 -57.35 57 -54 57 C-53.67 56.01 -53.34 55.02 -53 54 C-53.5 54.16 -53.5 54.16 -56 55 C-56.99 54.34 -57.98 53.68 -59 53 C-58.49 50.83 -58 49 -57 47 C-56.92 46.17 -56.84 45.35 -56.75 44.5 C-56.5 43.67 -56.26 42.85 -56 42 C-53.5 40.75 -53.5 40.75 -51 40 C-50.84 39.84 -50.84 39.84 -50 39 C-47.56 38.75 -47.56 38.75 -45 39 C-44.34 39.99 -43.68 40.98 -43 42 C-42.34 41.01 -41.68 40.02 -41 39 C-38.62 38.71 -38.62 38.71 -35.88 38.81 C-34.96 38.84 -34.05 38.87 -33.12 38.89 C-32.42 38.93 -31.72 38.96 -31 39 C-31 38.67 -31 38.34 -31 38 C-32.65 38 -34.3 38 -36 38 C-36 36.68 -36 35.36 -36 34 C-37.65 33.67 -39.3 33.34 -41 33 C-40.91 31.56 -40.8 30.12 -40.69 28.69 C-40.63 27.89 -40.57 27.09 -40.51 26.26 C-39.91 23.6 -39.11 22.67 -37 21 C-35.06 20.38 -35.06 20.38 -33 20 C-32.38 19.77 -31.76 19.55 -31.12 19.31 C-28.07 18.86 -25.84 19.9 -23 21 C-23.16 20.67 -23.16 20.67 -24 19 C-24.99 18.67 -25.98 18.34 -27 18 C-27.16 17.51 -27.16 17.51 -28 15 C-27.51 14.59 -27.01 14.18 -26.5 13.75 C-25 12 -25 12 -25 8 C-23 6 -23 6 -20.12 5.94 C-19.61 5.95 -19.61 5.95 -17 6 C-16.63 5.9 -16.63 5.9 -14.75 5.38 C-14.46 5.31 -14.46 5.31 -13 5 C-12.34 5.66 -11.68 6.32 -11 7 C-11.38 9.62 -11.38 9.62 -12 12 C-11.34 12 -10.68 12 -10 12 C-10 11.34 -10 10.68 -10 10 C-9.01 9.67 -8.02 9.34 -7 9 C-7.21 8.22 -7.41 7.43 -7.62 6.62 C-7.75 5.76 -7.87 4.89 -8 4 C-6 2 -6 2 -3.38 1.88 C-2.59 1.92 -1.81 1.96 -1 2 C-0.67 1.34 -0.34 0.68 0 0 Z " fill="#546257" transform="translate(77,10)"/>
<path d="M0 0 C0.33 0.66 0.66 1.32 1 2 C0.67 2.66 0.34 3.32 0 4 C1.65 3.67 3.3 3.34 5 3 C5 3.99 5 4.98 5 6 C7.92 6.84 9.76 7.05 12.75 6.38 C15 5 15 5 15.81 2.38 C15.84 1.98 15.84 1.98 16 0 C17.32 0.33 18.64 0.66 20 1 C20.08 1.62 20.16 2.24 20.25 2.88 C21 5 21 5 23.06 6.25 C23.7 6.5 24.34 6.74 25 7 C25 7.66 25 8.32 25 9 C24.17 8.84 24.17 8.84 20 8 C19.67 9.65 19.34 11.3 19 13 C19.66 13 20.32 13 21 13 C20.67 13.66 20.34 14.32 20 15 C18.02 14.34 16.04 13.68 14 13 C14 13.66 14 14.32 14 15 C14.83 15.16 14.83 15.16 19 16 C19 16.66 19 17.32 19 18 C19.66 18.33 20.32 18.66 21 19 C21 21.97 21 24.94 21 28 C21.83 28.33 21.83 28.33 26 30 C25.84 28.84 25.84 28.84 25 23 C27.93 23.63 30.41 24.48 33 26 C34.25 28.49 33.78 29.41 33 32 C33.66 32.33 34.32 32.66 35 33 C35.62 35.56 35.62 35.56 36 38 C35.34 37.84 35.34 37.84 32 37 C32 36.01 32 35.02 32 34 C29.62 34.31 29.62 34.31 27 35 C26.34 35.99 25.68 36.98 25 38 C24.34 38 23.68 38 23 38 C23.09 38.3 23.09 38.3 23.56 39.81 C24 42 24 42 23 45 C22.34 45 21.68 45 21 45 C21 44.01 21 43.02 21 42 C20.01 42.33 19.02 42.66 18 43 C18 41.68 18 40.36 18 39 C15 40 15 40 14 42 C12.35 42 10.7 42 9 42 C9.66 44.31 10.32 46.62 11 49 C8.69 49.66 6.38 50.32 4 51 C3.84 50.34 3.84 50.34 3 47 C1.35 46.67 -0.3 46.34 -2 46 C-1.67 47.32 -1.34 48.64 -1 50 C-1.66 50 -2.32 50 -3 50 C-3 50.66 -3 51.32 -3 52 C-0.36 52.33 2.28 52.66 5 53 C5.12 54.03 5.25 55.06 5.38 56.12 C6 60 6 60 7 62.81 C8.08 66.24 8.41 69.29 8.62 72.88 C8.7 74.03 8.77 75.18 8.85 76.37 C8.9 77.24 8.95 78.1 9 79 C7.35 79 5.7 79 4 79 C4 79.99 4 80.98 4 82 C2.84 81.98 1.69 81.96 0.5 81.94 C-3.74 81.93 -7.8 82.4 -12 83 C-12 82.34 -12 81.68 -12 81 C-12.66 81 -13.32 81 -14 81 C-14 80.34 -14 79.68 -14 79 C-15.28 79.02 -16.56 79.04 -17.88 79.06 C-21.75 79.12 -21.75 79.12 -24 78 C-24 77.34 -24 76.68 -24 76 C-25.32 76 -26.64 76 -28 76 C-28 75.01 -28 74.02 -28 73 C-27.51 72.84 -27.51 72.84 -25 72 C-25.02 70.91 -25.04 69.81 -25.06 68.69 C-25 65 -25 65 -24 62 C-25.32 61.34 -26.64 60.68 -28 60 C-27.34 59.01 -26.68 58.02 -26 57 C-26.66 57 -27.32 57 -28 57 C-28 56.34 -28 55.68 -28 55 C-28.66 55 -29.32 55 -30 55 C-30.33 55.66 -30.66 56.32 -31 57 C-31 56.01 -31 55.02 -31 54 C-29.02 53.34 -27.04 52.68 -25 52 C-25 51.34 -25 50.68 -25 50 C-23 50 -23 50 -21.38 51.5 C-20.92 52 -20.47 52.49 -20 53 C-20 52.34 -20 51.68 -20 51 C-20.66 50.67 -21.32 50.34 -22 50 C-21.01 50 -20.02 50 -19 50 C-19 50.66 -19 51.32 -19 52 C-18.01 52 -17.02 52 -16 52 C-16.66 51.05 -17.32 50.1 -18 49.12 C-20 46 -20 46 -20 44 C-20.99 44.16 -20.99 44.16 -26 45 C-25.67 43.68 -25.34 42.36 -25 41 C-20.25 41.88 -20.25 41.88 -18 43 C-16.95 44.98 -15.95 46.97 -15 49 C-14.54 48.91 -14.54 48.91 -12.19 48.44 C-9 48 -9 48 -6 49 C-5.67 46.36 -5.34 43.72 -5 41 C-2.69 40.34 -0.38 39.68 2 39 C2 38.34 2 37.68 2 37 C1.38 36.92 0.76 36.84 0.12 36.75 C-2 36 -2 36 -3.25 33.94 C-3.5 33.3 -3.75 32.66 -4 32 C-4.66 32.16 -4.66 32.16 -8 33 C-8 32.34 -8 31.68 -8 31 C-9.98 30.67 -11.96 30.34 -14 30 C-13.25 28.06 -13.25 28.06 -12 26 C-9.87 25.25 -9.87 25.25 -8 25 C-7.34 25.99 -6.68 26.98 -6 28 C-4.68 27.34 -3.36 26.68 -2 26 C-1.67 26.99 -1.34 27.98 -1 29 C-0.34 29 0.32 29 1 29 C1.66 26.69 2.32 24.38 3 22 C4.65 22.33 6.3 22.66 8 23 C7.53 22.34 7.05 21.68 6.56 21 C4.59 17.21 4.36 14.24 4 10 C4.66 10 5.32 10 6 10 C6 9.01 6 8.02 6 7 C4.35 7.66 2.7 8.32 1 9 C1 7.68 1 6.36 1 5 C-1.31 5.33 -3.62 5.66 -6 6 C-6 4.35 -6 2.7 -6 1 C-4.02 0.67 -2.04 0.34 0 0 Z " fill="#3F4733" transform="translate(60,33)"/>
<path d="M0 0 C0.99 0.16 0.99 0.16 6 1 C6.16 1.66 6.16 1.66 7 5 C8.32 5.33 9.64 5.66 11 6 C12.12 10.75 12.12 10.75 11 13 C10.01 13.33 9.02 13.66 8 14 C8.66 14.33 9.32 14.66 10 15 C10 16.32 10 17.64 10 19 C10.66 19 11.32 19 12 19 C12.66 18.01 13.32 17.02 14 16 C16.38 15.81 16.38 15.81 19 16 C20.32 16 21.64 16 23 16 C23.66 16.66 24.32 17.32 25 18 C26.32 19.01 27.66 20.01 29 21 C28.91 21.37 28.91 21.37 28.44 23.25 C28 26 28 26 28.56 28.19 C28.71 28.79 28.85 29.38 29 30 C28.34 30.66 27.68 31.32 27 32 C26.01 32 25.02 32 24 32 C23.94 32.32 23.94 32.32 23.62 33.94 C23.42 34.62 23.21 35.3 23 36 C22.67 36.16 22.67 36.16 21 37 C21.66 37.66 22.32 38.32 23 39 C23.16 38.67 23.16 38.67 24 37 C26.38 36.81 26.38 36.81 29 37 C29.66 37.99 30.32 38.98 31 40 C31.99 39.67 32.98 39.34 34 39 C35.56 40.25 35.56 40.25 37 42 C36.56 44.06 36.56 44.06 36 46 C36.66 46.66 37.32 47.32 38 48 C37.81 50.06 37.81 50.06 37 52 C36.5 52.16 36.5 52.16 34 53 C33.67 52.84 33.67 52.84 32 52 C32 53.65 32 55.3 32 57 C34.46 58.23 36.28 58.07 39 58 C39 58.66 39 59.32 39 60 C40.65 60 42.3 60 44 60 C44.62 62.31 44.62 62.31 45 65 C44.34 65.99 43.68 66.98 43 68 C44.32 69.32 45.64 70.64 47 72 C46.67 72.66 46.67 72.66 45 76 C44.01 76 43.02 76 42 76 C41.94 76.62 41.88 77.24 41.81 77.88 C41 80 41 80 38.62 81.25 C36 82 36 82 33 82 C33.33 80.02 33.66 78.04 34 76 C33.67 76.33 33.34 76.66 33 77 C32.67 76.01 32.34 75.02 32 74 C33.44 71.81 33.44 71.81 35 70 C32.36 70.33 29.72 70.66 27 71 C26.84 71.5 26.84 71.5 26 74 C23.69 74 21.38 74 19 74 C19.21 72.91 19.41 71.81 19.62 70.69 C20 67 20 67 18 64 C17.4 64.17 16.8 64.33 16.19 64.5 C14 65 14 65 11 65 C10 64 10 64 9.94 60.44 C9.96 59.3 9.98 58.17 10 57 C10.99 56.67 11.98 56.34 13 56 C13.33 56.16 13.33 56.16 15 57 C15.33 57.99 15.66 58.98 16 60 C16.99 60.33 17.98 60.66 19 61 C18.67 59.35 18.34 57.7 18 56 C17.01 55.67 16.02 55.34 15 55 C15.33 53.35 15.66 51.7 16 50 C15.42 49.71 14.84 49.42 14.25 49.12 C13.21 48.6 13.21 48.6 8 46 C8.35 46.74 8.7 47.48 9.06 48.25 C10.05 51.13 10.03 52.21 9 55 C9 54.34 9 53.68 9 53 C7.35 52.67 5.7 52.34 4 52 C2.75 48.26 3.25 45.83 3.81 41.94 C3.9 41.31 3.9 41.31 4.33 38.15 C5 35 5 35 7 33 C9.46 32.73 9.46 32.73 12.38 32.75 C13.33 32.74 14.29 32.74 15.27 32.73 C18.01 33 19.66 33.6 22 35 C21.84 34.34 21.84 34.34 21 31 C20.01 31.33 19.02 31.66 18 32 C18.33 30.68 18.66 29.36 19 28 C17.68 27.01 16.36 26.02 15 25 C14.84 25.49 14.84 25.49 14 28 C12.35 28 10.7 28 9 28 C9 27.34 9 26.68 9 26 C8.01 26 7.02 26 6 26 C5.84 24.84 5.84 24.84 5 19 C4.24 19.23 3.47 19.45 2.69 19.69 C1.8 19.79 0.91 19.89 0 20 C-1.81 18.56 -1.81 18.56 -3 17 C-3 17.99 -3 18.98 -3 20 C-8.09 19.57 -11.85 19.25 -16 16 C-16 15.34 -16 14.68 -16 14 C-16.58 14.16 -17.16 14.33 -17.75 14.5 C-20 15 -20 15 -24 15 C-24 15.66 -24 16.32 -24 17 C-23.01 17 -22.02 17 -21 17 C-21.33 17.66 -21.66 18.32 -22 19 C-23.65 18.67 -25.3 18.34 -27 18 C-27.33 17.01 -27.66 16.02 -28 15 C-27.51 14.59 -27.01 14.18 -26.5 13.75 C-25 12 -25 12 -25 8 C-23 6 -23 6 -20.12 5.94 C-19.61 5.95 -19.61 5.95 -17 6 C-16.63 5.9 -16.63 5.9 -14.75 5.38 C-14.46 5.31 -14.46 5.31 -13 5 C-12.34 5.66 -11.68 6.32 -11 7 C-11.38 9.63 -11.38 9.63 -12 12 C-11.34 12 -10.68 12 -10 12 C-10 11.34 -10 10.68 -10 10 C-9.01 9.67 -8.02 9.34 -7 9 C-7.21 8.22 -7.41 7.43 -7.62 6.62 C-7.75 5.76 -7.87 4.89 -8 4 C-6 2 -6 2 -3.38 1.88 C-2.59 1.92 -1.81 1.96 -1 2 C-0.67 1.34 -0.34 0.68 0 0 Z " fill="#C4B780" transform="translate(77,10)"/>
<path d="M0 0 C4.75 0.88 4.75 0.88 7 2 C7.24 2.48 7.24 2.48 8.44 4.94 C10 8 10 8 13 10 C12.67 11.98 12.34 13.96 12 16 C12.99 16 13.98 16 15 16 C15 15.34 15 14.68 15 14 C15.66 14 16.32 14 17 14 C17 13.34 17 12.68 17 12 C19.5 10.38 19.5 10.38 22 9 C22 9.66 22 10.32 22 11 C24.64 11.33 27.28 11.66 30 12 C30.12 13.03 30.25 14.06 30.38 15.12 C31 19 31 19 32 21.81 C33.08 25.24 33.41 28.29 33.62 31.88 C33.7 33.03 33.77 34.18 33.85 35.37 C33.9 36.24 33.95 37.1 34 38 C32.35 38 30.7 38 29 38 C29 38.99 29 39.98 29 41 C27.84 40.98 26.69 40.96 25.5 40.94 C21.26 40.93 17.2 41.4 13 42 C13 41.34 13 40.68 13 40 C12.34 40 11.68 40 11 40 C11 39.34 11 38.68 11 38 C9.72 38.02 8.44 38.04 7.12 38.06 C3.25 38.12 3.25 38.12 1 37 C1 36.34 1 35.68 1 35 C-0.32 35 -1.64 35 -3 35 C-3 34.01 -3 33.02 -3 32 C-2.01 31.67 -1.02 31.34 0 31 C-0.02 29.91 -0.04 28.81 -0.06 27.69 C0 24 0 24 1 21 C-0.32 20.34 -1.64 19.68 -3 19 C-2.34 18.01 -1.68 17.02 -1 16 C-1.66 16 -2.32 16 -3 16 C-3 15.34 -3 14.68 -3 14 C-3.66 14 -4.32 14 -5 14 C-5.33 14.66 -5.66 15.32 -6 16 C-6 15.01 -6 14.02 -6 13 C-4.02 12.34 -2.04 11.68 0 11 C0 10.34 0 9.68 0 9 C2 9 2 9 3.62 10.5 C4.08 11 4.53 11.49 5 12 C5 11.34 5 10.68 5 10 C4.34 9.67 3.68 9.34 3 9 C3.99 9 4.98 9 6 9 C6 9.66 6 10.32 6 11 C6.99 11 7.98 11 9 11 C8.34 10.05 7.68 9.1 7 8.12 C5 5 5 5 5 3 C3.02 3.33 1.04 3.66 -1 4 C-0.67 2.68 -0.34 1.36 0 0 Z " fill="#47544A" transform="translate(35,74)"/>
<path d="M0 0 C0.33 0.66 0.66 1.32 1 2 C1.99 2 2.98 2 4 2 C4.33 2.66 4.66 3.32 5 4 C6.85 4.63 6.85 4.63 9.06 5.12 C9.8 5.29 10.53 5.46 11.29 5.63 C11.85 5.75 12.42 5.88 13 6 C13 5.01 13 4.02 13 3 C13.58 3.35 14.16 3.7 14.75 4.06 C17.36 5.15 18.39 4.93 21 4 C21.6 6.76 22 9.16 22 12 C22.99 12 23.98 12 25 12 C25 12.66 25 13.32 25 14 C27.44 13.62 27.44 13.62 30 13 C30.33 12.34 30.66 11.68 31 11 C31.83 11.33 31.83 11.33 36 13 C35.34 14.65 34.68 16.3 34 18 C34.66 18 35.32 18 36 18 C36.33 17.34 36.66 16.68 37 16 C37.16 16.83 37.16 16.83 38 21 C36.68 21 35.36 21 34 21 C34 20.34 34 19.68 34 19 C33.01 19 32.02 19 31 19 C30.67 19.66 30.34 20.32 30 21 C30 20.34 30 19.68 30 19 C27.69 19.33 25.38 19.66 23 20 C22.01 22.64 21.02 25.28 20 28 C18.35 28 16.7 28 15 28 C15.99 27.67 16.98 27.34 18 27 C18 26.34 18 25.68 18 25 C16.35 24.67 14.7 24.34 13 24 C13 23.34 13 22.68 13 22 C14.98 22.33 16.96 22.66 19 23 C18.67 22.67 18.34 22.34 18 22 C18.29 20.32 18.62 18.66 19 17 C20.65 17.33 22.3 17.66 24 18 C23.17 17.05 22.35 16.1 21.5 15.12 C19 12.25 19 12.25 19 10 C17.68 9.67 16.36 9.34 15 9 C15 10.65 15 12.3 15 14 C11.75 15.63 11.75 15.63 8 17 C5.56 16.19 5.56 16.19 4 15 C4 14.01 4 13.02 4 12 C2.35 12.33 0.7 12.66 -1 13 C-1 12.01 -1 11.02 -1 10 C-2.98 10 -4.96 10 -7 10 C-7 11.65 -7 13.3 -7 15 C-5.84 14.84 -5.84 14.84 0 14 C0.33 14.99 0.66 15.98 1 17 C2.32 16.67 3.64 16.34 5 16 C5 16.99 5 17.98 5 19 C4.34 19 3.68 19 3 19 C3.45 20.61 3.91 22.21 4.38 23.81 C4.63 24.71 4.89 25.6 5.15 26.52 C6 29 6 29 8 32 C3.67 34.17 -2.85 31.38 -7.25 29.94 C-7.7 29.78 -7.7 29.78 -10 29 C-11.99 28.63 -13.99 28.29 -16 28 C-15.67 26.68 -15.34 25.36 -15 24 C-16.65 24 -18.3 24 -20 24 C-20 22.68 -20 21.36 -20 20 C-21.65 19.67 -23.3 19.34 -25 19 C-24.91 17.56 -24.8 16.12 -24.69 14.69 C-24.63 13.89 -24.57 13.09 -24.51 12.26 C-23.91 9.6 -23.11 8.67 -21 7 C-19.06 6.38 -19.06 6.38 -17 6 C-16.69 5.89 -16.69 5.89 -15.12 5.31 C-12.07 4.86 -9.84 5.9 -7 7 C-7 6.34 -7 5.68 -7 5 C-6.34 5 -5.68 5 -5 5 C-5 4.34 -5 3.68 -5 3 C-5.99 3 -6.98 3 -8 3 C-8 2.34 -8 1.68 -8 1 C-8.66 0.67 -9.32 0.34 -10 0 C-6.27 -1.24 -3.82 -0.78 0 0 Z " fill="#8B8759" transform="translate(61,24)"/>
<path d="M0 0 C2.06 0.44 2.06 0.44 4 1 C4 1.66 4 2.32 4 3 C4.66 3 5.32 3 6 3 C5.67 3.99 5.34 4.98 5 6 C6.32 6.66 7.64 7.32 9 8 C8 15.43 8 15.43 7 19 C6.01 19 5.02 19 4 19 C4 19.99 4 20.98 4 22 C5.32 22 6.64 22 8 22 C8 22.66 8 23.32 8 24 C11.3 24.33 14.6 24.66 18 25 C18 25.66 18 26.32 18 27 C18.66 27 19.32 27 20 27 C20 27.66 20 28.32 20 29 C20.95 28.81 21.9 28.63 22.88 28.44 C26 28 26 28 28 29 C28 29.66 28 30.32 28 31 C31.68 32.36 33.5 31.58 37 30 C40.31 28.85 43.59 27.79 47 27 C47 25.68 47 24.36 47 23 C47.66 23 48.32 23 49 23 C49.16 23.5 49.16 23.5 50 26 C50.99 24.35 51.98 22.7 53 21 C53.58 21.47 54.16 21.95 54.75 22.44 C58.72 25.2 62.23 25.2 67 25 C69.38 24.5 69.38 24.5 71 24 C70.84 23.34 70.84 23.34 70 20 C70.56 20.31 71.11 20.62 71.69 20.94 C74.13 22.06 76.36 22.56 79 23 C79 23.66 79 24.32 79 25 C80.32 25.66 81.64 26.32 83 27 C81.35 28.97 80.37 29.91 77.84 30.55 C77.07 30.61 76.3 30.68 75.5 30.75 C74.73 30.83 73.95 30.9 73.16 30.98 C71 31 71 31 68 30 C65.67 29.96 63.33 29.96 61 30 C61 29.01 61 28.02 61 27 C60.01 27.66 59.02 28.32 58 29 C58.16 29.66 58.16 29.66 59 33 C49 35.49 49 35.49 44 35 C43.34 34.34 42.68 33.68 42 33 C39.31 32.73 36.71 32.91 34 33 C34 33.66 34 34.32 34 35 C33.05 34.98 32.1 34.96 31.12 34.94 C28 35 28 35 26 36 C23.38 35.06 23.38 35.06 21 34 C21 33.01 21 32.02 21 31 C18.69 30.34 16.38 29.68 14 29 C14 29.66 14 30.32 14 31 C9.68 31.76 6.26 32.16 2 31 C2 30.34 2 29.68 2 29 C0.35 29.33 -1.3 29.66 -3 30 C-3.66 29.01 -4.32 28.02 -5 27 C-4.01 26.34 -3.02 25.68 -2 25 C-2.32 24.86 -2.32 24.86 -3.94 24.12 C-6 23 -6 23 -7 21 C-7.29 21.19 -7.29 21.19 -8.75 22.12 C-11 23 -11 23 -13.06 22.19 C-13.7 21.8 -14.34 21.4 -15 21 C-15.99 20.67 -16.98 20.34 -18 20 C-17.84 19.5 -17.84 19.5 -17 17 C-16.01 17 -15.02 17 -14 17 C-13.67 16.01 -13.34 15.02 -13 14 C-11.35 13.67 -9.7 13.34 -8 13 C-8.68 12.42 -9.36 11.84 -10.06 11.25 C-12 9 -12 9 -12.12 6.94 C-10.38 3.93 -8.19 3.19 -5 2 C-2.75 2.24 -1.6 2.4 0 4 C-0.33 3.01 -0.66 2.02 -1 1 C-0.67 0.67 -0.34 0.34 0 0 Z " fill="#778886" transform="translate(28,87)"/>
<path d="M0 0 C3.96 0.33 7.92 0.66 12 1 C12.33 3.64 12.66 6.28 13 9 C13.66 9 14.32 9 15 9 C15.99 9 16.98 9 18 9 C18.93 11.61 19.15 12.64 18.06 15.25 C17.89 15.54 17.89 15.54 17 17 C16.34 17 15.68 17 15 17 C15 17.99 15 18.98 15 20 C19.95 20 24.9 20 30 20 C30 20.66 30 21.32 30 22 C31.65 22 33.3 22 35 22 C35.62 24.31 35.62 24.31 36 27 C35.34 27.99 34.68 28.98 34 30 C35.32 31.32 36.64 32.64 38 34 C37.34 35.32 36.68 36.64 36 38 C35.01 38 34.02 38 33 38 C32.97 38.31 32.97 38.31 32.81 39.88 C32 42 32 42 29.62 43.25 C27 44 27 44 24 44 C24.33 42.02 24.66 40.04 25 38 C24.67 38.33 24.34 38.66 24 39 C23.67 38.01 23.34 37.02 23 36 C24.44 33.81 24.44 33.81 26 32 C23.36 32.33 20.72 32.66 18 33 C17.67 33.99 17.34 34.98 17 36 C14.69 36 12.38 36 10 36 C10.1 35.45 10.1 35.45 10.62 32.69 C11 29 11 29 9 26 C8.7 26.08 8.7 26.08 7.19 26.5 C5 27 5 27 2 27 C1 26 1 26 0.94 22.44 C0.96 21.3 0.98 20.17 1 19 C1.99 18.67 2.98 18.34 4 18 C4.66 18.33 5.32 18.66 6 19 C6.33 19.99 6.66 20.98 7 22 C7.99 22.33 8.98 22.66 10 23 C9.67 21.35 9.34 19.7 9 18 C8.01 17.67 7.02 17.34 6 17 C6.33 15.35 6.66 13.7 7 12 C6.42 11.71 5.84 11.42 5.25 11.12 C3.17 10.08 1.08 9.04 -1 8 C-0.65 8.74 -0.3 9.48 0.06 10.25 C1.05 13.13 1.03 14.21 0 17 C0 16.34 0 15.68 0 15 C-1.65 14.67 -3.3 14.34 -5 14 C-6.16 10.52 -5.71 8.54 -5 5 C-4.01 5 -3.02 5 -2 5 C-2 4.34 -2 3.68 -2 3 C-1.34 3 -0.68 3 0 3 C0 2.01 0 1.02 0 0 Z " fill="#948D57" transform="translate(86,48)"/>
<path d="M0 0 C0.33 0.66 0.66 1.32 1 2 C0.67 2.66 0.34 3.32 0 4 C1.65 3.67 3.3 3.34 5 3 C5 3.99 5 4.98 5 6 C7.92 6.84 9.76 7.05 12.75 6.38 C15 5 15 5 15.81 2.38 C15.84 1.98 15.84 1.98 16 0 C17.32 0.33 18.64 0.66 20 1 C20.04 1.31 20.04 1.31 20.25 2.88 C21 5 21 5 23.06 6.25 C23.7 6.5 24.34 6.74 25 7 C25 7.66 25 8.32 25 9 C24.17 8.84 24.17 8.84 20 8 C19.67 9.65 19.34 11.3 19 13 C19.66 13 20.32 13 21 13 C20.67 13.66 20.34 14.32 20 15 C18.02 14.34 16.04 13.68 14 13 C14 13.66 14 14.32 14 15 C14.83 15.16 14.83 15.16 19 16 C19 16.66 19 17.32 19 18 C19.66 18.33 20.32 18.66 21 19 C21.38 22.25 21.38 22.25 21 26 C18.25 28.31 18.25 28.31 15 30 C14.22 30.41 13.43 30.83 12.62 31.25 C12.09 31.5 11.55 31.75 11 32 C10.67 29.69 10.34 27.38 10 25 C11.32 25 12.64 25 14 25 C13.67 23.68 13.34 22.36 13 21 C11.68 20.67 10.36 20.34 9 20 C9 19.01 9 18.02 9 17 C7.68 17.33 6.36 17.66 5 18 C4.67 15.36 4.34 12.72 4 10 C4.66 10 5.32 10 6 10 C6 9.01 6 8.02 6 7 C4.35 7.66 2.7 8.32 1 9 C1 7.68 1 6.36 1 5 C-1.31 5.33 -3.62 5.66 -6 6 C-6 4.35 -6 2.7 -6 1 C-4.02 0.67 -2.04 0.34 0 0 Z " fill="#596040" transform="translate(60,33)"/>
<path d="M0 0 C0.56 0.31 1.11 0.62 1.69 0.94 C4.13 2.06 6.36 2.56 9 3 C9 3.66 9 4.32 9 5 C10.32 5.66 11.64 6.32 13 7 C11.35 8.97 10.37 9.91 7.84 10.55 C7.46 10.58 7.46 10.58 5.5 10.75 C4.73 10.83 3.95 10.9 3.16 10.98 C1 11 1 11 -2 10 C-4.33 9.96 -6.67 9.96 -9 10 C-9 9.01 -9 8.02 -9 7 C-9.99 7.66 -10.98 8.32 -12 9 C-11.84 9.66 -11.84 9.66 -11 13 C-21 15.49 -21 15.49 -26 15 C-26.66 14.34 -27.32 13.68 -28 13 C-30.69 12.73 -33.29 12.91 -36 13 C-36 13.66 -36 14.32 -36 15 C-36.47 14.99 -36.47 14.99 -38.88 14.94 C-42 15 -42 15 -44 16 C-46.62 15.06 -46.62 15.06 -49 14 C-49 13.01 -49 12.02 -49 11 C-50.32 10.34 -51.64 9.68 -53 9 C-51.54 8.81 -50.08 8.62 -48.62 8.44 C-47.81 8.33 -47 8.23 -46.16 8.12 C-44 8 -44 8 -42 9 C-42 9.66 -42 10.32 -42 11 C-38.32 12.36 -36.5 11.58 -33 10 C-29.69 8.85 -26.41 7.79 -23 7 C-23 5.68 -23 4.36 -23 3 C-22.34 3 -21.68 3 -21 3 C-20.84 3.5 -20.84 3.5 -20 6 C-19.01 4.35 -18.02 2.7 -17 1 C-16.42 1.47 -15.84 1.95 -15.25 2.44 C-11.28 5.2 -7.77 5.2 -3 5 C-0.63 4.5 -0.63 4.5 1 4 C0.84 3.34 0.84 3.34 0 0 Z " fill="#C1B990" transform="translate(98,107)"/>
<path d="M0 0 C0.66 0.33 1.32 0.66 2 1 C1.62 3.44 1.62 3.44 1 6 C0.67 6.16 0.67 6.16 -1 7 C-0.34 7.66 0.32 8.32 1 9 C1.33 8.34 1.66 7.68 2 7 C4.38 6.81 4.38 6.81 7 7 C7.33 7.49 7.33 7.49 9 10 C9.99 9.67 10.98 9.34 12 9 C13.56 10.25 13.56 10.25 15 12 C14.56 14.06 14.56 14.06 14 16 C14.66 16.66 15.32 17.32 16 18 C15.81 20.06 15.81 20.06 15 22 C14.01 22.33 13.02 22.66 12 23 C11.34 22.67 10.68 22.34 10 22 C10 23.98 10 25.96 10 28 C4.25 29.12 4.25 29.12 2 28 C2 27.01 2 26.02 2 25 C2.66 25 3.32 25 4 25 C4.33 22.36 4.66 19.72 5 17 C2 18 2 18 0 20 C-0.57 16.27 -1 12.79 -1 9 C-1.35 9.01 -1.35 9.01 -3.12 9.04 C-4.03 9.04 -4.94 9.05 -5.88 9.06 C-6.78 9.07 -7.68 9.09 -8.62 9.1 C-11 9 -11 9 -13 8 C-13 8.99 -13 9.98 -13 11 C-13.66 11 -14.32 11 -15 11 C-15 11.66 -15 12.32 -15 13 C-13.68 13.66 -12.36 14.32 -11 15 C-11.99 14.84 -11.99 14.84 -17 14 C-18.16 9.95 -17.88 7.76 -16 4 C-14.28 2.28 -12.03 2.83 -9.69 2.81 C-9.2 2.81 -9.2 2.81 -6.76 2.77 C-3.98 3 -2.37 3.58 0 5 C0 3.35 0 1.7 0 0 Z " fill="#CCC6A8" transform="translate(99,40)"/>
<path d="M0 0 C0 0.66 0 1.32 0 2 C0.99 2.33 1.98 2.66 3 3 C3 3.66 3 4.32 3 5 C2.34 5 1.68 5 1 5 C1 6.65 1 8.3 1 10 C3.31 9.81 3.31 9.81 6 9 C6.5 8.15 6.99 7.31 7.5 6.44 C8 5.63 8.49 4.83 9 4 C11.69 3.69 11.69 3.69 14 4 C13.34 5.65 12.68 7.3 12 9 C12.74 8.88 13.48 8.75 14.25 8.62 C17 9 17 9 19.31 11.88 C21 15 21 15 21 17 C20.01 17 19.02 17 18 17 C17.67 17.33 17.34 17.66 17 18 C16.01 17.67 15.02 17.34 14 17 C14 16.34 14 15.68 14 15 C13.34 15 12.68 15 12 15 C12 15.66 12 16.32 12 17 C11.01 17.66 10.02 18.32 9 19 C8.01 18.67 7.02 18.34 6 18 C6 17.34 6 16.68 6 16 C5.72 16.25 5.72 16.25 4.31 17.5 C1.58 19.27 0.19 19.42 -3 19 C-3.66 18.34 -4.32 17.68 -5 17 C-4.62 14.88 -4.62 14.88 -4 13 C-4.6 13.21 -5.2 13.41 -5.81 13.62 C-8 14 -8 14 -11 12 C-10.33 8.18 -9.58 4.55 -8 1 C-4.7 -0.94 -3.68 -1.23 0 0 Z " fill="#758379" transform="translate(23,68)"/>
<path d="M0 0 C0.33 0 0.66 0 1 0 C1.66 2.31 2.32 4.62 3 7 C3.99 6.34 4.98 5.68 6 5 C8.19 5.38 8.19 5.38 10 6 C9.67 6.17 9.67 6.17 8 7 C7.73 7.83 7.46 8.65 7.19 9.5 C6.8 10.33 6.4 11.15 6 12 C3.38 12.81 3.38 12.81 1 13 C2.32 13.66 3.64 14.32 5 15 C5 16.65 5 18.3 5 20 C3.35 19.67 1.7 19.34 0 19 C0 19.66 0 20.32 0 21 C-1.32 21 -2.64 21 -4 21 C-4 21.66 -4 22.32 -4 23 C-3.01 23 -2.02 23 -1 23 C-1 23.66 -1 24.32 -1 25 C-3.87 24.43 -4.86 24.14 -7 22 C-7.12 19.38 -7.12 19.38 -7 17 C-7.99 17.66 -8.98 18.32 -10 19 C-12.69 19.12 -12.69 19.12 -15 19 C-15.14 17.95 -15.29 16.9 -15.44 15.81 C-15.88 12.85 -16.38 9.93 -17 7 C-15.35 7 -13.7 7 -12 7 C-11.67 6.01 -11.34 5.02 -11 4 C-10.01 4 -9.02 4 -8 4 C-7.67 4.99 -7.34 5.98 -7 7 C-6.34 7 -5.68 7 -5 7 C-5 7.99 -5 8.98 -5 10 C-4.34 10 -3.68 10 -3 10 C-3 7.69 -3 5.38 -3 3 C-2.34 3 -1.68 3 -1 3 C-0.67 2.01 -0.34 1.02 0 0 Z " fill="#827E4D" transform="translate(86,68)"/>
<path d="M0 0 C0.42 0.04 0.42 0.04 2.56 0.25 C3.22 1.24 3.88 2.23 4.56 3.25 C5.22 2.26 5.88 1.27 6.56 0.25 C8.73 -0.04 8.73 -0.04 11.19 0.06 C12 0.09 12.82 0.12 13.66 0.14 C13.98 0.16 13.98 0.16 15.56 0.25 C12.56 2.25 12.56 2.25 10.56 2.25 C10.56 2.91 10.56 3.57 10.56 4.25 C9.57 4.91 8.58 5.57 7.56 6.25 C8.88 6.91 10.2 7.57 11.56 8.25 C11.23 9.24 10.9 10.23 10.56 11.25 C10.23 10.59 9.9 9.93 9.56 9.25 C8.9 11.56 8.24 13.87 7.56 16.25 C6.9 16.25 6.24 16.25 5.56 16.25 C5.23 15.59 4.9 14.93 4.56 14.25 C2.07 15.45 -0.12 16.7 -2.44 18.25 C-2.44 19.24 -2.44 20.23 -2.44 21.25 C-3.43 20.92 -4.42 20.59 -5.44 20.25 C-5.11 18.6 -4.78 16.95 -4.44 15.25 C-5.04 15.46 -5.63 15.66 -6.25 15.88 C-8.44 16.25 -8.44 16.25 -11.44 14.25 C-10.93 12.08 -10.44 10.25 -9.44 8.25 C-9.36 7.42 -9.27 6.6 -9.19 5.75 C-8.94 4.92 -8.69 4.1 -8.44 3.25 C-5.94 2 -5.94 2 -3.44 1.25 C-2.44 0.25 -2.44 0.25 0 0 Z " fill="#8D927C" transform="translate(29.4375,48.75)"/>
<path d="M0 0 C0.66 0 1.32 0 2 0 C1.97 0.6 1.97 0.6 1.81 3.62 C1.79 7.73 2.87 10.45 5 14 C6 11 6 11 6 7 C6.66 7.33 7.32 7.66 8 8 C8.41 10.94 8.41 10.94 8.62 14.56 C8.7 15.76 8.77 16.96 8.85 18.19 C8.9 19.12 8.95 20.05 9 21 C7.35 21 5.7 21 4 21 C4 21.99 4 22.98 4 24 C0.7 24 -2.6 24 -6 24 C-6.33 22.35 -6.66 20.7 -7 19 C-5.02 19 -3.04 19 -1 19 C-3.97 18.01 -6.94 17.02 -10 16 C-9.34 14.68 -8.68 13.36 -8 12 C-6.68 12.33 -5.36 12.66 -4 13 C-4.33 12.34 -4.66 11.68 -5 11 C-7.29 10.37 -7.29 10.37 -10.06 9.88 C-10.52 9.79 -10.52 9.79 -12.85 9.37 C-13.56 9.25 -14.27 9.12 -15 9 C-14.67 8.01 -14.34 7.02 -14 6 C-12.68 6.66 -11.36 7.32 -10 8 C-10 6.68 -10 5.36 -10 4 C-8.68 4 -7.36 4 -6 4 C-6 3.34 -6 2.68 -6 2 C-2.25 0.88 -2.25 0.88 0 2 C0 1.34 0 0.68 0 0 Z " fill="#4A4F3D" transform="translate(60,91)"/>
<path d="M0 0 C0.99 0.15 0.99 0.15 5.96 0.88 C8 1 8 1 11 0 C11.25 0.95 11.5 1.9 11.75 2.88 C13 6 13 6 15.12 7.38 C15.74 7.58 16.36 7.79 17 8 C17 7.34 17 6.68 17 6 C17.66 6 18.32 6 19 6 C19.33 7.65 19.66 9.3 20 11 C20.99 11.33 21.98 11.66 23 12 C18.57 17.21 12.43 19.43 6 21 C5.67 19.35 5.34 17.7 5 16 C4.67 16.83 4.67 16.83 3 21 C2.67 21 2.34 21 2 21 C1.67 18.69 1.34 16.38 1 14 C1.99 14 2.98 14 4 14 C3.34 11.03 2.68 8.06 2 5 C1.34 5 0.68 5 0 5 C0 3.35 0 1.7 0 0 Z " fill="#353D34" transform="translate(68,85)"/>
<path d="M0 0 C2.31 0 4.62 0 7 0 C7 0.66 7 1.32 7 2 C8.65 2 10.3 2 12 2 C12.62 4.31 12.62 4.31 13 7 C12.67 7.5 12.67 7.5 11 10 C12.32 11.32 13.64 12.64 15 14 C14.34 15.32 13.68 16.64 13 18 C12.01 18 11.02 18 10 18 C9.94 18.62 9.88 19.24 9.81 19.88 C9 22 9 22 6.62 23.25 C4 24 4 24 1 24 C1.33 22.02 1.66 20.04 2 18 C1.67 18.33 1.34 18.66 1 19 C0.67 18.01 0.34 17.02 0 16 C1.44 13.81 1.44 13.81 3 12 C1.68 11.67 0.36 11.34 -1 11 C-2.26 6.71 -1.63 4.12 0 0 Z " fill="#B5B392" transform="translate(109,68)"/>
<path d="M0 0 C0.58 0.35 1.16 0.7 1.75 1.06 C4.36 2.15 5.39 1.93 8 1 C8.6 3.76 9 6.16 9 9 C9.99 9 10.98 9 12 9 C12 9.66 12 10.32 12 11 C14.44 10.62 14.44 10.62 17 10 C17.33 9.34 17.66 8.68 18 8 C19.65 8.66 21.3 9.32 23 10 C22.34 11.65 21.68 13.3 21 15 C21.66 15 22.32 15 23 15 C23.33 14.34 23.66 13.68 24 13 C24.16 13.83 24.16 13.83 25 18 C23.68 18 22.36 18 21 18 C21 17.34 21 16.68 21 16 C20.01 16 19.02 16 18 16 C17.67 16.66 17.34 17.32 17 18 C17 17.34 17 16.68 17 16 C14.69 16.33 12.38 16.66 10 17 C9.01 19.64 8.02 22.28 7 25 C5.35 25 3.7 25 2 25 C2.99 24.67 3.98 24.34 5 24 C5 23.34 5 22.68 5 22 C3.35 21.67 1.7 21.34 0 21 C0 20.34 0 19.68 0 19 C1.98 19.33 3.96 19.66 6 20 C5.67 19.67 5.34 19.34 5 19 C5.29 17.32 5.62 15.66 6 14 C6.83 14.16 6.83 14.16 11 15 C10.17 14.05 9.35 13.1 8.5 12.12 C6 9.25 6 9.25 6 7 C4.68 6.67 3.36 6.34 2 6 C2 7.65 2 9.3 2 11 C0.84 11.5 0.84 11.5 -5 14 C-5 12.35 -5 10.7 -5 9 C-6.32 8.34 -7.64 7.68 -9 7 C-7.03 4.48 -6.03 4.01 -2.81 3.31 C-2.35 3.26 -2.35 3.26 0 3 C0 2.01 0 1.02 0 0 Z " fill="#B7A966" transform="translate(74,27)"/>
<path d="M0 0 C1.32 0 2.64 0 4 0 C4.33 0.99 4.66 1.98 5 3 C8.21 5.14 10.25 5.44 14 6 C14.66 6.33 15.32 6.66 16 7 C15.98 7.93 15.96 8.86 15.94 9.81 C16 13 16 13 17 16 C18.65 16.33 20.3 16.66 22 17 C21.67 17.99 21.34 18.98 21 20 C16.62 21.98 12.77 22.36 8 22 C7.01 21.34 6.02 20.68 5 20 C5.66 18.35 6.32 16.7 7 15 C8.32 15 9.64 15 11 15 C11 14.01 11 13.02 11 12 C8.36 12 5.72 12 3 12 C2.34 13.32 1.68 14.64 1 16 C0.34 16 -0.32 16 -1 16 C-1 15.01 -1 14.02 -1 13 C-0.34 13 0.32 13 1 13 C1.33 11.68 1.66 10.36 2 9 C1.01 8.67 0.02 8.34 -1 8 C-1 7.01 -1 6.02 -1 5 C-1.66 5 -2.32 5 -3 5 C-3 4.34 -3 3.68 -3 3 C-2.34 3 -1.68 3 -1 3 C-0.67 2.01 -0.34 1.02 0 0 Z " fill="#A0A38C" transform="translate(102,89)"/>
<path d="M0 0 C1.53 0.25 3.05 0.58 4.56 0.94 C5.39 1.13 6.22 1.33 7.07 1.53 C7.7 1.68 8.34 1.84 9 2 C9.33 1.34 9.66 0.68 10 0 C10.33 1.32 10.66 2.64 11 4 C9.68 3.67 8.36 3.34 7 3 C7 3.99 7 4.98 7 6 C6.67 6.16 6.67 6.16 5 7 C5.66 7.66 6.32 8.32 7 9 C6.34 9 5.68 9 5 9 C5 9.66 5 10.32 5 11 C4.67 11.16 4.67 11.16 3 12 C3.19 13.09 3.37 14.19 3.56 15.31 C4 19 4 19 3 22 C2.01 21.67 1.02 21.34 0 21 C0.33 20.34 0.66 19.68 1 19 C-0.65 19 -2.3 19 -4 19 C-4 17.68 -4 16.36 -4 15 C-5.65 14.67 -7.3 14.34 -9 14 C-8.91 12.56 -8.8 11.12 -8.69 9.69 C-8.63 8.89 -8.57 8.09 -8.51 7.26 C-7.91 4.6 -7.12 3.67 -5 2 C-2.88 1.38 -2.88 1.38 -1 1 C-0.67 0.67 -0.34 0.34 0 0 Z " fill="#A3A796" transform="translate(45,29)"/>
<path d="M0 0 C2.06 0.44 2.06 0.44 4 1 C5.12 4.75 5.12 4.75 4 7 C4.6 6.86 5.21 6.71 5.83 6.56 C6.23 6.47 6.23 6.47 8.25 6 C8.64 5.91 8.64 5.91 10.64 5.44 C13 5 13 5 17 5 C15.62 6.5 15.62 6.5 14 8 C13.34 8 12.68 8 12 8 C11.67 8.66 11.34 9.32 11 10 C10.67 10.33 10.34 10.66 10 11 C10.33 11.66 10.66 12.32 11 13 C11.66 13 12.32 13 13 13 C13 13.66 13 14.32 13 15 C7.91 14.57 4.15 14.25 0 11 C0 10.34 0 9.68 0 9 C-0.58 9.16 -1.16 9.33 -1.75 9.5 C-4 10 -4 10 -8 10 C-8 10.66 -8 11.32 -8 12 C-7.01 12 -6.02 12 -5 12 C-5.33 12.66 -5.66 13.32 -6 14 C-7.65 13.67 -9.3 13.34 -11 13 C-11.33 12.01 -11.66 11.02 -12 10 C-11.51 9.59 -11.01 9.18 -10.5 8.75 C-9 7 -9 7 -9 3 C-7 1 -7 1 -3.94 0.94 C-3.45 0.95 -3.45 0.95 -1 1 C-0.67 0.67 -0.34 0.34 0 0 Z " fill="#B1AA7E" transform="translate(61,15)"/>
<path d="M0 0 C1.32 0.66 2.64 1.32 4 2 C4 3.65 4 5.3 4 7 C3.01 7 2.02 7 1 7 C1.66 8.32 2.32 9.64 3 11 C4.98 11 6.96 11 9 11 C9.33 10.34 9.66 9.68 10 9 C9.34 9 8.68 9 8 9 C7 6 7 6 8 3 C13.42 1.77 13.42 1.77 16.38 2.94 C16.91 3.29 17.45 3.64 18 4 C18 4.66 18 5.32 18 6 C16.68 6 15.36 6 14 6 C14 6.99 14 7.98 14 9 C16.97 9.99 19.94 10.98 23 12 C19.3 12.93 18.37 13.08 15 12 C15.33 13.65 15.66 15.3 16 17 C14.02 17.33 12.04 17.66 10 18 C10 17.34 10 16.68 10 16 C9.34 16 8.68 16 8 16 C8 15.34 8 14.68 8 14 C6.72 14.02 5.44 14.04 4.12 14.06 C0.25 14.12 0.25 14.12 -2 13 C-2 12.34 -2 11.68 -2 11 C-3.32 11 -4.64 11 -6 11 C-6 10.01 -6 9.02 -6 8 C-5.01 7.67 -4.02 7.34 -3 7 C-1.31 3.44 -1.31 3.44 0 0 Z " fill="#566453" transform="translate(38,98)"/>
<path d="M0 0 C3.96 0.33 7.92 0.66 12 1 C12.59 5.38 13.14 9.58 13 14 C11.68 13.67 10.36 13.34 9 13 C8.67 11.35 8.34 9.7 8 8 C7.67 9.32 7.34 10.64 7 12 C4.33 10.67 1.67 9.33 -1 8 C-0.65 8.74 -0.3 9.48 0.06 10.25 C1.05 13.13 1.03 14.21 0 17 C0 16.34 0 15.68 0 15 C-1.65 14.67 -3.3 14.34 -5 14 C-6.16 10.52 -5.71 8.54 -5 5 C-4.01 5 -3.02 5 -2 5 C-2 4.34 -2 3.68 -2 3 C-1.34 3 -0.68 3 0 3 C0 2.01 0 1.02 0 0 Z " fill="#ACA05E" transform="translate(86,48)"/>
<path d="M0 0 C0.66 0 1.32 0 2 0 C3.03 1.65 4.03 3.32 5 5 C5.33 5 5.66 5 6 5 C5.67 7.31 5.34 9.62 5 12 C5.66 12 6.32 12 7 12 C7.33 11.01 7.66 10.02 8 9 C8.66 9 9.32 9 10 9 C9.65 9.62 9.3 10.24 8.94 10.88 C8.63 11.58 8.32 12.28 8 13 C8.33 13.66 8.66 14.32 9 15 C8.67 15.99 8.34 16.98 8 18 C8.66 18 9.32 18 10 18 C10.33 19.98 10.66 21.96 11 24 C11.66 24 12.32 24 13 24 C12.67 24.99 12.34 25.98 12 27 C10.02 27 8.04 27 6 27 C5.34 25.35 4.68 23.7 4 22 C4.99 22 5.98 22 7 22 C6.34 20.02 5.68 18.04 5 16 C4.34 16 3.68 16 3 16 C2.67 16.99 2.34 17.98 2 19 C1.34 19 0.68 19 0 19 C0.33 16.69 0.66 14.38 1 12 C-0.32 11.34 -1.64 10.68 -3 10 C-2.34 9.01 -1.68 8.02 -1 7 C-1.66 7 -2.32 7 -3 7 C-3 6.34 -3 5.68 -3 5 C-3.66 5 -4.32 5 -5 5 C-5.33 5.66 -5.66 6.32 -6 7 C-6 6.01 -6 5.02 -6 4 C-4.02 3.34 -2.04 2.68 0 2 C0 1.34 0 0.68 0 0 Z " fill="#3B4B48" transform="translate(35,83)"/>
<path d="M0 0 C2.93 0.63 5.41 1.48 8 3 C9.25 5.49 8.78 6.41 8 9 C8.66 9.33 9.32 9.66 10 10 C10.62 12.56 10.62 12.56 11 15 C9.68 14.67 8.36 14.34 7 14 C7 13.01 7 12.02 7 11 C4.62 11.31 4.62 11.31 2 12 C1.67 12.5 1.67 12.5 0 15 C-0.66 15 -1.32 15 -2 15 C-1.81 15.6 -1.63 16.2 -1.44 16.81 C-1 19 -1 19 -2 22 C-2.66 22 -3.32 22 -4 22 C-4 21.01 -4 20.02 -4 19 C-4.99 19.33 -5.98 19.66 -7 20 C-6.99 19.4 -6.98 18.79 -6.96 18.17 C-6.96 17.37 -6.95 16.57 -6.94 15.75 C-6.93 14.96 -6.91 14.17 -6.9 13.36 C-7 11.09 -7.37 9.17 -8 7 C-4.62 6.16 -2.33 5.89 1 7 C0.67 4.69 0.34 2.38 0 0 Z " fill="#5B5F40" transform="translate(85,56)"/>
<path d="M0 0 C4.75 0.88 4.75 0.88 7 2 C7.24 2.48 7.24 2.48 8.44 4.94 C10 8 10 8 13 10 C12.67 11.98 12.34 13.96 12 16 C12.99 16.33 13.98 16.66 15 17 C14.67 17.66 14.34 18.32 14 19 C15.65 19.33 17.3 19.66 19 20 C17.68 20.33 16.36 20.66 15 21 C15 22.32 15 23.64 15 25 C14.01 24.67 13.02 24.34 12 24 C11.67 24.33 11.34 24.66 11 25 C11.66 25.66 12.32 26.32 13 27 C12.34 27 11.68 27 11 27 C10.67 27.66 10.34 28.32 10 29 C10 28.34 10 27.68 10 27 C9.34 27 8.68 27 8 27 C7.31 24.75 7.31 24.75 7 22 C8.44 19.69 8.44 19.69 10 18 C8.63 19.5 8.63 19.5 7 21 C6.34 21 5.68 21 5 21 C5.04 20.07 5.08 19.14 5.12 18.19 C5 15 5 15 3 12 C3.66 12 4.32 12 5 12 C5 11.34 5 10.68 5 10 C4.34 9.67 3.68 9.34 3 9 C3.99 9 4.98 9 6 9 C6 9.66 6 10.32 6 11 C6.99 11 7.98 11 9 11 C8.34 10.05 7.68 9.1 7 8.12 C5 5 5 5 5 3 C3.02 3.33 1.04 3.66 -1 4 C-0.67 2.68 -0.34 1.36 0 0 Z " fill="#43514A" transform="translate(35,74)"/>
<path d="M0 0 C0 0.99 0 1.98 0 3 C-1.32 3 -2.64 3 -4 3 C-4.14 3.8 -4.29 4.61 -4.44 5.44 C-5 8 -5 8 -6 9 C-9.17 9.34 -10.6 9.26 -13.31 7.5 C-13.87 7 -14.43 6.51 -15 6 C-14.67 7.32 -14.34 8.64 -14 10 C-16.96 11.69 -19.1 12.27 -22.5 12.25 C-23.25 12.26 -24.01 12.26 -24.78 12.27 C-27.23 11.97 -28.87 11.22 -31 10 C-30.21 6.17 -28.8 3.8 -26 1 C-26 2.65 -26 4.3 -26 6 C-24.68 6.66 -23.36 7.32 -22 8 C-22 8.66 -22 9.32 -22 10 C-21.34 10 -20.68 10 -20 10 C-19.73 9.2 -19.46 8.39 -19.19 7.56 C-18.8 6.72 -18.4 5.87 -18 5 C-15 4 -15 4 -12.44 3.62 C-10 3 -10 3 -8 0 C-5.02 -1.19 -3.02 -0.97 0 0 Z " fill="#83825C" transform="translate(113,101)"/>
<path d="M0 0 C1.65 0.33 3.3 0.66 5 1 C5.33 1.99 5.66 2.98 6 4 C7.16 3.83 7.16 3.83 13 3 C12.67 4.32 12.34 5.64 12 7 C11.34 6.67 10.68 6.34 10 6 C10 7.65 10 9.3 10 11 C10.66 11 11.32 11 12 11 C13.86 14.13 14.2 16.37 14 20 C13.01 20 12.02 20 11 20 C11.66 21.65 12.32 23.3 13 25 C13.66 23.68 14.32 22.36 15 21 C16.15 23.31 16.53 25.47 17 28 C16.01 28.66 15.02 29.32 14 30 C13.34 29.67 12.68 29.34 12 29 C11.67 29.99 11.34 30.98 11 32 C10.89 31.24 10.78 30.48 10.67 29.69 C9.77 23.84 8.67 18.38 6.59 12.84 C6 11 6 11 6 8 C3.69 7.34 1.38 6.68 -1 6 C-1 5.34 -1 4.68 -1 4 C-0.34 4 0.32 4 1 4 C0.67 2.68 0.34 1.36 0 0 Z " fill="#646544" transform="translate(58,79)"/>
<path d="M0 0 C0.66 0 1.32 0 2 0 C2 0.66 2 1.32 2 2 C2.66 2 3.32 2 4 2 C4.33 2.66 4.66 3.32 5 4 C5.99 4.33 6.98 4.66 8 5 C7.67 3.68 7.34 2.36 7 1 C8.32 0.67 9.64 0.34 11 0 C10.67 1.98 10.34 3.96 10 6 C11.32 6.33 12.64 6.66 14 7 C13.69 8.94 13.69 8.94 13 11 C12.01 11.33 11.02 11.66 10 12 C9.34 11.67 8.68 11.34 8 11 C8 12.98 8 14.96 8 17 C2.25 18.12 2.25 18.12 0 17 C0 16.01 0 15.02 0 14 C0.66 14 1.32 14 2 14 C2.33 11.36 2.66 8.72 3 6 C0 7 0 7 -2 9 C-3.12 4.25 -3.12 4.25 -2 2 C-1.34 2 -0.68 2 0 2 C0 1.34 0 0.68 0 0 Z " fill="#B5B290" transform="translate(101,51)"/>
<path d="M0 0 C0.99 0.33 1.98 0.66 3 1 C3 1.66 3 2.32 3 3 C4.32 3 5.64 3 7 3 C9.34 3.31 11.67 3.64 14 4 C14 6.64 14 9.28 14 12 C13.01 12.33 12.02 12.66 11 13 C10.34 11.68 9.68 10.36 9 9 C7.54 8.97 6.08 8.95 4.62 8.94 C4.22 8.93 4.22 8.93 2.16 8.9 C0 9 0 9 -2 10 C-2.66 9.67 -3.32 9.34 -4 9 C-4 9.66 -4 10.32 -4 11 C-4.66 11 -5.32 11 -6 11 C-6 10.34 -6 9.68 -6 9 C-6.64 8.88 -7.28 8.75 -7.94 8.62 C-8.62 8.42 -9.3 8.21 -10 8 C-10.33 7.34 -10.66 6.68 -11 6 C-10.01 6 -9.02 6 -8 6 C-8 6.66 -8 7.32 -8 8 C-7.01 8 -6.02 8 -5 8 C-5 7.01 -5 6.02 -5 5 C-5.66 4.67 -6.32 4.34 -7 4 C-6.52 3.76 -6.52 3.76 -4.06 2.56 C-1 1 -1 1 0 0 Z " fill="#687568" transform="translate(32,62)"/>
<path d="M0 0 C0 0.66 0 1.32 0 2 C0.71 2.05 1.43 2.1 2.16 2.15 C7.71 2.58 12.72 3.24 18 5 C17.12 9.75 17.12 9.75 16 12 C15.34 12 14.68 12 14 12 C13.67 11.34 13.34 10.68 13 10 C11.35 10.66 9.7 11.32 8 12 C7.67 11.01 7.34 10.02 7 9 C5.67 8.66 4.34 8.32 3 8 C2.34 7.01 1.68 6.02 1 5 C0.11 5.35 -0.77 5.7 -1.69 6.06 C-5.06 7.02 -6.7 6.97 -10 6 C-9.34 5.01 -8.68 4.02 -8 3 C-7.01 3 -6.02 3 -5 3 C-5 2.34 -5 1.68 -5 1 C-3 0 -3 0 0 0 Z " fill="#6E7252" transform="translate(45,50)"/>
<path d="M0 0 C0 0.66 0 1.32 0 2 C3.3 2.33 6.6 2.66 10 3 C10 3.66 10 4.32 10 5 C10.66 5 11.32 5 12 5 C12 5.66 12 6.32 12 7 C10.02 7 8.04 7 6 7 C6 7.66 6 8.32 6 9 C1.68 9.76 -1.74 10.16 -6 9 C-6 8.34 -6 7.68 -6 7 C-7.65 7.33 -9.3 7.66 -11 8 C-11.66 7.01 -12.32 6.02 -13 5 C-11 4 -9 3 -7 2 C-6.28 1.61 -5.56 1.22 -4.81 0.81 C-3 0 -3 0 0 0 Z " fill="#909681" transform="translate(36,109)"/>
<path d="M0 0 C0.66 0 1.32 0 2 0 C2 0.66 2 1.32 2 2 C2.99 2.33 3.98 2.66 5 3 C4.34 4.98 3.68 6.96 3 9 C2.34 8.67 1.68 8.34 1 8 C1 7.01 1 6.02 1 5 C0.34 5 -0.32 5 -1 5 C-1 6.32 -1 7.64 -1 9 C-4.69 12.21 -8.42 12.44 -13.11 12.69 C-13.73 12.79 -14.36 12.9 -15 13 C-15.33 13.66 -15.66 14.32 -16 15 C-16.99 14.84 -16.99 14.84 -22 14 C-21.34 13.67 -20.68 13.34 -20 13 C-20 12.34 -20 11.68 -20 11 C-20.66 10.67 -21.32 10.34 -22 10 C-19.26 8.63 -17.03 8.87 -14 9 C-13.34 9.33 -12.68 9.66 -12 10 C-12 9.01 -12 8.02 -12 7 C-10.35 6.67 -8.7 6.34 -7 6 C-6.67 5.01 -6.34 4.02 -6 3 C-4.06 2.44 -4.06 2.44 -2 2 C-1.34 1.34 -0.68 0.68 0 0 Z " fill="#8C8460" transform="translate(76,105)"/>
<path d="M0 0 C0.33 0 0.66 0 1 0 C1.66 2.31 2.32 4.62 3 7 C3.99 6.34 4.98 5.68 6 5 C8.19 5.38 8.19 5.38 10 6 C9.67 6.17 9.67 6.17 8 7 C7.73 7.83 7.46 8.65 7.19 9.5 C6.8 10.33 6.4 11.15 6 12 C3.38 12.81 3.38 12.81 1 13 C2.32 13.66 3.64 14.32 5 15 C5 16.65 5 18.3 5 20 C3.35 19.67 1.7 19.34 0 19 C0 19.66 0 20.32 0 21 C-1.32 21 -2.64 21 -4 21 C-4 21.66 -4 22.32 -4 23 C-3.01 23 -2.02 23 -1 23 C-1 23.66 -1 24.32 -1 25 C-2.88 24.69 -2.88 24.69 -5 24 C-5.66 23.01 -6.32 22.02 -7 21 C-5.62 19.5 -5.62 19.5 -4 18 C-3.34 18 -2.68 18 -2 18 C-2.02 17.46 -2.02 17.46 -2.12 14.75 C-2.01 11.34 -1.79 9.79 0 7 C-0.66 7 -1.32 7 -2 7 C-2.33 5.68 -2.66 4.36 -3 3 C-2.34 3 -1.68 3 -1 3 C-0.67 2.01 -0.34 1.02 0 0 Z " fill="#847B48" transform="translate(86,68)"/>
<path d="M0 0 C0.66 0.99 1.32 1.98 2 3 C5.68 2.4 9.35 1.75 13 1 C13 2.98 13 4.96 13 7 C12.62 6.95 12.62 6.95 10.69 6.69 C9.8 6.79 8.91 6.89 8 7 C6.31 9.5 6.31 9.5 5 12 C3 12 3 12 0.94 10.19 C-1 8 -1 8 -2 5 C-2.66 6.32 -3.32 7.64 -4 9 C-4.99 8.84 -4.99 8.84 -10 8 C-10.33 7.01 -10.66 6.02 -11 5 C-9.93 4.55 -8.86 4.09 -7.75 3.62 C-5.12 2.5 -2.54 1.32 0 0 Z " fill="#515846" transform="translate(88,99)"/>
<path d="M0 0 C1.13 0.02 2.27 0.04 3.44 0.06 C2.78 2.04 2.12 4.02 1.44 6.06 C2.1 6.39 2.76 6.72 3.44 7.06 C1.79 6.73 0.14 6.4 -1.56 6.06 C-1.23 7.38 -0.9 8.7 -0.56 10.06 C-5.31 13.06 -5.31 13.06 -7.56 13.06 C-7.56 13.72 -7.56 14.38 -7.56 15.06 C-8.22 15.06 -8.88 15.06 -9.56 15.06 C-9.56 15.72 -9.56 16.38 -9.56 17.06 C-10.55 17.06 -11.54 17.06 -12.56 17.06 C-13.82 13.3 -12.93 11.69 -11.56 8.06 C-10.57 8.23 -10.57 8.23 -5.56 9.06 C-5.42 7.76 -5.27 6.46 -5.12 5.12 C-4.56 0.08 -4.56 0.08 0 0 Z " fill="#363F33" transform="translate(59.5625,72.9375)"/>
<path d="M0 0 C1.32 0.66 2.64 1.32 4 2 C3.12 6.75 3.12 6.75 2 9 C2.99 9 3.98 9 5 9 C4.67 10.32 4.34 11.64 4 13 C3.01 13 2.02 13 1 13 C1 13.66 1 14.32 1 15 C0.67 15.16 0.67 15.16 -1 16 C-0.34 17.32 0.32 18.64 1 20 C-0.32 20 -1.64 20 -3 20 C-3.93 15.67 -3.93 12.33 -3 8 C-4.65 7.67 -6.3 7.34 -8 7 C-7.67 6.34 -7.34 5.68 -7 5 C-5.35 5 -3.7 5 -2 5 C-1.34 3.35 -0.68 1.7 0 0 Z " fill="#464D3A" transform="translate(94,75)"/>
<path d="M0 0 C0.66 0.33 1.32 0.66 2 1 C2 2.65 2 4.3 2 6 C3.32 6.33 4.64 6.66 6 7 C6.66 5.35 7.32 3.7 8 2 C8.99 2 9.98 2 11 2 C11.93 4.61 12.15 5.64 11.06 8.25 C10.71 8.83 10.36 9.41 10 10 C9.34 10 8.68 10 8 10 C8 10.99 8 11.98 8 13 C10.64 13 13.28 13 16 13 C15.67 14.65 15.34 16.3 15 18 C14.34 16.68 13.68 15.36 13 14 C12.67 15.32 12.34 16.64 12 18 C8.59 16.86 7.88 15.96 6 13 C6 12.34 6 11.68 6 11 C4.02 11 2.04 11 0 11 C-1.08 7.75 -0.85 7.13 0 4 C0 2.68 0 1.36 0 0 Z " fill="#898354" transform="translate(93,55)"/>
<path d="M0 0 C0.58 0.19 1.16 0.37 1.75 0.56 C4.21 1.04 5.64 0.76 8 0 C7.67 1.32 7.34 2.64 7 4 C7.66 4.33 8.32 4.66 9 5 C7.35 5.33 5.7 5.66 4 6 C3.67 7.32 3.34 8.64 3 10 C1.02 10 -0.96 10 -3 10 C-3 9.01 -3 8.02 -3 7 C-4.32 7 -5.64 7 -7 7 C-7 7.66 -7 8.32 -7 9 C-9.31 8.34 -11.62 7.68 -14 7 C-11.03 5.35 -8.34 4.56 -5 4 C-5 3.01 -5 2.02 -5 1 C-3.35 1.33 -1.7 1.66 0 2 C0 1.34 0 0.68 0 0 Z " fill="#5B695E" transform="translate(26,99)"/>
<path d="M0 0 C0.66 0 1.32 0 2 0 C1.97 0.6 1.97 0.6 1.81 3.62 C1.78 7.76 3.01 10.37 5 14 C4.67 14.66 4.34 15.32 4 16 C0.99 14.49 0.39 11.97 -1 9 C-1.66 10.32 -2.32 11.64 -3 13 C-3.68 12.53 -4.36 12.05 -5.06 11.56 C-8.42 9.78 -11.24 9.37 -15 9 C-14.67 8.01 -14.34 7.02 -14 6 C-12.68 6.66 -11.36 7.32 -10 8 C-10 6.68 -10 5.36 -10 4 C-8.68 4 -7.36 4 -6 4 C-6 3.34 -6 2.68 -6 2 C-2.25 0.88 -2.25 0.88 0 2 C0 1.34 0 0.68 0 0 Z " fill="#343D37" transform="translate(60,91)"/>
<path d="M0 0 C0.33 0.99 0.66 1.98 1 3 C2.32 2.67 3.64 2.34 5 2 C5 2.99 5 3.98 5 5 C4.34 5 3.68 5 3 5 C3 6.32 3 7.64 3 9 C2.01 9 1.02 9 0 9 C0.33 10.32 0.66 11.64 1 13 C-1.49 14.25 -2.41 13.78 -5 13 C-5 12.01 -5 11.02 -5 10 C-5.99 10 -6.98 10 -8 10 C-8 8.02 -8 6.04 -8 4 C-7.01 3.67 -6.02 3.34 -5 3 C-5 2.34 -5 1.68 -5 1 C-2 0 -2 0 0 0 Z " fill="#7A764A" transform="translate(61,38)"/>
<path d="M0 0 C0.41 0.05 0.41 0.05 2.5 0.31 C3.16 1.3 3.82 2.29 4.5 3.31 C5.16 2.32 5.82 1.33 6.5 0.31 C8.66 0.02 8.66 0.02 11.12 0.12 C11.94 0.15 12.76 0.18 13.6 0.21 C13.91 0.22 13.91 0.22 15.5 0.31 C12.5 2.31 12.5 2.31 10.5 2.31 C10.5 2.97 10.5 3.63 10.5 4.31 C9.51 4.97 8.52 5.63 7.5 6.31 C8.16 6.64 8.82 6.97 9.5 7.31 C7.85 7.97 6.2 8.63 4.5 9.31 C4.5 9.97 4.5 10.63 4.5 11.31 C3.84 11.31 3.18 11.31 2.5 11.31 C2.5 9.33 2.5 7.35 2.5 5.31 C1.84 5.31 1.18 5.31 0.5 5.31 C0.5 6.3 0.5 7.29 0.5 8.31 C-1.15 8.64 -2.8 8.97 -4.5 9.31 C-4.17 7.99 -3.84 6.67 -3.5 5.31 C-5.15 4.98 -6.8 4.65 -8.5 4.31 C-7.88 4.02 -7.26 3.73 -6.62 3.44 C-0.17 0.02 -0.17 0.02 0 0 Z " fill="#A3A38B" transform="translate(29.5,48.6875)"/>
<path d="M0 0 C1.48 0.33 1.48 0.33 9 2 C9.33 1.34 9.66 0.68 10 0 C10.33 1.32 10.66 2.64 11 4 C9.68 3.67 8.36 3.34 7 3 C7 3.99 7 4.98 7 6 C6.67 6.16 6.67 6.16 5 7 C5.66 7.66 6.32 8.32 7 9 C6.34 9 5.68 9 5 9 C5 9.66 5 10.32 5 11 C2.03 11 -0.94 11 -4 11 C-4.66 9.35 -5.32 7.7 -6 6 C-5.34 5.67 -4.68 5.34 -4 5 C-4 4.34 -4 3.68 -4 3 C-3.01 3 -2.02 3 -1 3 C-0.67 2.01 -0.34 1.02 0 0 Z " fill="#A5A37E" transform="translate(45,29)"/>
<path d="M0 0 C0.99 0.15 0.99 0.15 5.96 0.88 C8 1 8 1 11 0 C10.5 3.73 9.85 5.52 7 8 C7 8.33 7 8.66 7 9 C7.66 9 8.32 9 9 9 C8.25 13.75 8.25 13.75 6 16 C5.34 16.99 4.68 17.98 4 19 C3.34 19.66 2.68 20.32 2 21 C1.67 18.69 1.34 16.38 1 14 C1.99 14 2.98 14 4 14 C3.34 11.03 2.68 8.06 2 5 C1.34 5 0.68 5 0 5 C0 3.35 0 1.7 0 0 Z " fill="#4A4F3B" transform="translate(68,85)"/>
<path d="M0 0 C0.33 0.99 0.66 1.98 1 3 C-0.32 3 -1.64 3 -3 3 C-3 3.99 -3 4.98 -3 6 C-0.03 6.99 2.94 7.98 6 9 C2.3 9.93 1.37 10.08 -2 9 C-1.67 10.65 -1.34 12.3 -1 14 C-2.94 13.69 -2.94 13.69 -5 13 C-5.33 12.01 -5.66 11.02 -6 10 C-6.66 10 -7.32 10 -8 10 C-7.67 8.68 -7.34 7.36 -7 6 C-7.66 6 -8.32 6 -9 6 C-10 3 -10 3 -9 0 C-5.93 -1.53 -3.3 -0.55 0 0 Z " fill="#616F64" transform="translate(55,101)"/>
<path d="M0 0 C3.25 0.12 3.25 0.12 7 1 C11 5.82 11 5.82 11 9 C10.01 9 9.02 9 8 9 C7.67 9.33 7.34 9.66 7 10 C6.01 9.67 5.02 9.34 4 9 C4 8.34 4 7.68 4 7 C3.34 7 2.68 7 2 7 C2 7.66 2 8.32 2 9 C1.01 9.66 0.02 10.32 -1 11 C-1.99 10.67 -2.98 10.34 -4 10 C-4 9.34 -4 8.68 -4 8 C-4.31 6.66 -4.65 5.33 -5 4 C-3.68 4 -2.36 4 -1 4 C-0.67 2.68 -0.34 1.36 0 0 Z " fill="#708485" transform="translate(33,76)"/>
<path d="M0 0 C0.58 0.35 1.16 0.7 1.75 1.06 C4.36 2.15 5.39 1.93 8 1 C8.33 2.32 8.66 3.64 9 5 C6.36 4.67 3.72 4.34 1 4 C1.33 6.31 1.66 8.62 2 11 C0.84 11.5 0.84 11.5 -5 14 C-5 12.35 -5 10.7 -5 9 C-6.32 8.34 -7.64 7.68 -9 7 C-7.03 4.48 -6.03 4.01 -2.81 3.31 C-2.35 3.26 -2.35 3.26 0 3 C0 2.01 0 1.02 0 0 Z " fill="#9E9658" transform="translate(74,27)"/>
<path d="M0 0 C0 0.66 0 1.32 0 2 C1.65 2.33 3.3 2.66 5 3 C4.67 3.99 4.34 4.98 4 6 C-0.38 7.98 -4.23 8.36 -9 8 C-9.99 7.34 -10.98 6.68 -12 6 C-11.34 4.35 -10.68 2.7 -10 1 C-3.38 0 -3.38 0 0 0 Z " fill="#B3AB7F" transform="translate(119,103)"/>
<path d="M0 0 C0.5 0.01 0.5 0.01 3.06 0.04 C4.07 0.04 5.08 0.05 6.12 0.06 C6.52 0.07 6.52 0.07 8.5 0.1 C7.84 2.08 7.18 4.06 6.5 6.1 C4.19 5.77 1.88 5.44 -0.5 5.1 C-0.5 6.09 -0.5 7.08 -0.5 8.1 C-1.16 8.1 -1.82 8.1 -2.5 8.1 C-2.5 8.76 -2.5 9.42 -2.5 10.1 C-1.18 10.76 0.14 11.42 1.5 12.1 C0.51 11.93 0.51 11.93 -4.5 11.1 C-5.66 7.05 -5.39 4.86 -3.5 1.1 C-2.5 0.1 -2.5 0.1 0 0 Z " fill="#C9B878" transform="translate(86.50390625,42.90234375)"/>
<path d="M0 0 C1.65 0.33 3.3 0.66 5 1 C5 3.31 5 5.62 5 8 C5.66 8 6.32 8 7 8 C8.02 8.98 9.02 9.98 10 11 C10.99 11.66 11.98 12.32 13 13 C8.69 16.08 8.69 16.08 5.19 15.69 C4.47 15.46 3.74 15.23 3 15 C3.23 14.24 3.45 13.47 3.69 12.69 C3.74 12.24 3.74 12.24 4 10 C2.56 8.38 2.56 8.38 1 7 C1 6.01 1 5.02 1 4 C-0.65 4 -2.3 4 -4 4 C-4 3.34 -4 2.68 -4 2 C-2.68 2 -1.36 2 0 2 C0 1.34 0 0.68 0 0 Z " fill="#6D704C" transform="translate(86,87)"/>
<path d="M0 0 C0.33 0.66 0.66 1.32 1 2 C1.99 2 2.98 2 4 2 C5.03 4.79 5.05 5.87 4.06 8.75 C3.71 9.49 3.36 10.23 3 11 C2.34 10.67 1.68 10.34 1 10 C1.33 9.34 1.66 8.68 2 8 C-0.31 8.33 -2.62 8.66 -5 9 C-6.12 5.25 -6.12 5.25 -5 3 C-5.99 3 -6.98 3 -8 3 C-8 2.34 -8 1.68 -8 1 C-8.66 0.67 -9.32 0.34 -10 0 C-6.27 -1.24 -3.82 -0.78 0 0 Z " fill="#898A62" transform="translate(61,24)"/>
<path d="M0 0 C0 0.66 0 1.32 0 2 C1.94 2.56 1.94 2.56 4 3 C4.33 2.67 4.66 2.34 5 2 C10.96 1.56 16.44 1.6 22 4 C21.34 4.66 20.68 5.32 20 6 C15.44 5.44 15.44 5.44 14 4 C11.33 3.86 8.68 3.96 6 4 C6 4.66 6 5.32 6 6 C5.05 5.98 4.1 5.96 3.12 5.94 C0 6 0 6 -2 7 C-4.62 6.06 -4.62 6.06 -7 5 C-7 4.01 -7 3.02 -7 2 C-8.32 1.34 -9.64 0.68 -11 0 C-6.98 -0.84 -3.98 -1.05 0 0 Z " fill="#C7C5AE" transform="translate(56,116)"/>
<path d="M0 0 C0.66 0.66 1.32 1.32 2 2 C3.99 2.4 5.99 2.74 8 3 C8 3.66 8 4.32 8 5 C8.99 4.67 9.98 4.34 11 4 C11.66 4.33 12.32 4.66 13 5 C13 6.32 13 7.64 13 9 C13.66 9.33 14.32 9.66 15 10 C11.78 12.15 10.73 12.38 7 12 C6.34 11.34 5.68 10.68 5 10 C5.38 7.88 5.38 7.88 6 6 C5.7 6.1 5.7 6.1 4.19 6.62 C2 7 2 7 -1 5 C-0.67 3.35 -0.34 1.7 0 0 Z " fill="#8E9B97" transform="translate(13,75)"/>
<path d="M0 0 C0 0.66 0 1.32 0 2 C0.66 2.33 1.32 2.66 2 3 C2.38 6.25 2.38 6.25 2 10 C-0.75 12.31 -0.75 12.31 -4 14 C-4.78 14.41 -5.57 14.83 -6.38 15.25 C-6.91 15.5 -7.45 15.75 -8 16 C-8.33 14.02 -8.66 12.04 -9 10 C-7.35 10 -5.7 10 -4 10 C-4.17 9.07 -4.33 8.14 -4.5 7.19 C-5 4 -5 4 -5 1 C-2 0 -2 0 0 0 Z " fill="#847D42" transform="translate(79,49)"/>
<path d="M0 0 C2.31 0 4.62 0 7 0 C7 0.66 7 1.32 7 2 C8.65 2 10.3 2 12 2 C11.67 2.66 11.34 3.32 11 4 C10.01 3.67 9.02 3.34 8 3 C8.33 3.99 8.66 4.98 9 6 C7.68 6.33 6.36 6.66 5 7 C5 7.66 5 8.32 5 9 C4.34 9 3.68 9 3 9 C3 9.66 3 10.32 3 11 C1.68 11 0.36 11 -1 11 C-2.26 6.71 -1.63 4.12 0 0 Z " fill="#BBB68E" transform="translate(109,68)"/>
<path d="M0 0 C3.44 1.53 6.12 3.6 9 6 C8.67 7.32 8.34 8.64 8 10 C7.01 10 6.02 10 5 10 C4.77 9.36 4.55 8.72 4.31 8.06 C3 6 3 6 0.38 5.25 C-0.41 5.17 -1.19 5.09 -2 5 C-2 5.66 -2 6.32 -2 7 C-2.99 6.84 -2.99 6.84 -8 6 C-7.34 4.35 -6.68 2.7 -6 1 C-5.6 1.01 -5.6 1.01 -3.56 1.06 C-1 1 -1 1 0 0 Z " fill="#C5BC91" transform="translate(97,25)"/>
<path d="M0 0 C1.65 0.33 3.3 0.66 5 1 C4.67 2.32 4.34 3.64 4 5 C2.35 5 0.7 5 -1 5 C0 8 0 8 2.06 9.19 C2.7 9.46 3.34 9.72 4 10 C2.02 10 0.04 10 -2 10 C-2 9.01 -2 8.02 -2 7 C-2.66 7 -3.32 7 -4 7 C-4 9.31 -4 11.62 -4 14 C-3.34 14 -2.68 14 -2 14 C-1.63 18.55 -1.63 18.55 -3.5 20.81 C-4 21.2 -4.49 21.6 -5 22 C-5.66 21.67 -6.32 21.34 -7 21 C-6.67 19.02 -6.34 17.04 -6 15 C-6.33 15.33 -6.66 15.66 -7 16 C-7.33 15.01 -7.66 14.02 -8 13 C-6.56 10.81 -6.56 10.81 -5 9 C-5.66 8.67 -6.32 8.34 -7 8 C-6.34 8 -5.68 8 -5 8 C-5 7.34 -5 6.68 -5 6 C-4.34 6 -3.68 6 -3 6 C-3 5.34 -3 4.68 -3 4 C-2.01 3.34 -1.02 2.68 0 2 C0 1.34 0 0.68 0 0 Z " fill="#A5A279" transform="translate(117,71)"/>
<path d="M0 0 C0.66 0.33 1.32 0.66 2 1 C2 2.32 2 3.64 2 5 C3.65 5.33 5.3 5.66 7 6 C6.67 6.99 6.34 7.98 6 9 C3.93 9.73 3.93 9.73 1.44 10.19 C0.61 10.35 -0.22 10.5 -1.07 10.67 C-1.7 10.78 -2.34 10.89 -3 11 C-7 5.25 -7 5.25 -7 3 C-4.7 1.93 -2.36 0.94 0 0 Z " fill="#93783E" transform="translate(56,64)"/>
<path d="M0 0 C3 1 3 1 4 3 C5.32 2.34 6.64 1.68 8 1 C8.33 1.99 8.66 2.98 9 4 C9.66 4 10.32 4 11 4 C11.33 3.01 11.66 2.02 12 1 C12.99 1.99 13.98 2.98 15 4 C14.67 4.99 14.34 5.98 14 7 C13.34 7 12.68 7 12 7 C12 6.34 12 5.68 12 5 C11.45 5.22 10.89 5.43 10.32 5.66 C9.96 5.8 9.96 5.8 8.12 6.5 C7.41 6.78 6.69 7.06 5.95 7.34 C4 8 4 8 2 8 C2 7.34 2 6.68 2 6 C1.01 5.84 1.01 5.84 -4 5 C-2.25 1.12 -2.25 1.12 0 0 Z " fill="#455244" transform="translate(50,58)"/>
<path d="M0 0 C0.99 0 1.98 0 3 0 C3.33 0.99 3.66 1.98 4 3 C4.66 3 5.32 3 6 3 C6 3.99 6 4.98 6 6 C6.66 6 7.32 6 8 6 C8 5.01 8 4.02 8 3 C8.99 3 9.98 3 11 3 C10.34 6.63 9.68 10.26 9 14 C7.68 14.33 6.36 14.66 5 15 C4.67 15.66 4.34 16.32 4 17 C4 14.03 4 11.06 4 8 C3.34 7.67 2.68 7.34 2 7 C0.42 4.37 0 3.13 0 0 Z " fill="#AA914D" transform="translate(75,72)"/>
<path d="M0 0 C0 0.99 0 1.98 0 3 C0.66 3.33 1.32 3.66 2 4 C-1.29 7.67 -3.17 9.24 -8 10 C-8.99 10.99 -9.98 11.98 -11 13 C-11 9.7 -11 6.4 -11 3 C-10.01 3.33 -9.02 3.66 -8 4 C-7.67 3.01 -7.34 2.02 -7 1 C-2.56 -1.28 -2.56 -1.28 0 0 Z " fill="#5A6146" transform="translate(48,55)"/>
<path d="M0 0 C5.23 -0.38 8.38 0.78 13 3 C13 3.66 13 4.32 13 5 C12.01 5.66 11.02 6.32 10 7 C10.33 7 10.66 7 11 7 C11 9.31 11 11.62 11 14 C9.35 14 7.7 14 6 14 C7.32 13.67 8.64 13.34 10 13 C9.67 11.68 9.34 10.36 9 9 C7.68 8.67 6.36 8.34 5 8 C5 7.01 5 6.02 5 5 C3.68 5.33 2.36 5.66 1 6 C0.67 4.02 0.34 2.04 0 0 Z " fill="#64683D" transform="translate(64,45)"/>
<path d="M0 0 C0.66 0 1.32 0 2 0 C1.65 0.62 1.3 1.24 0.94 1.88 C0.78 2.23 0.78 2.23 0 4 C0.33 4.66 0.66 5.32 1 6 C0.67 6.99 0.34 7.98 0 9 C0.66 9 1.32 9 2 9 C2.33 10.98 2.66 12.96 3 15 C3.66 15 4.32 15 5 15 C4.67 15.99 4.34 16.98 4 18 C2.02 18 0.04 18 -2 18 C-2.66 16.35 -3.32 14.7 -4 13 C-3.01 13 -2.02 13 -1 13 C-1.66 10.36 -2.32 7.72 -3 5 C-3.66 5 -4.32 5 -5 5 C-5 4.34 -5 3.68 -5 3 C-3.68 3 -2.36 3 -1 3 C-0.67 2.01 -0.34 1.02 0 0 Z " fill="#364234" transform="translate(43,92)"/>
<path d="M0 0 C0.99 0.33 1.98 0.66 3 1 C3 1.66 3 2.32 3 3 C3.99 3.33 4.98 3.66 6 4 C7.19 7.56 7.19 7.56 8 11 C5.69 11.66 3.38 12.32 1 13 C0.67 11.35 0.34 9.7 0 8 C-0.66 8 -1.32 8 -2 8 C-1.12 1.12 -1.12 1.12 0 0 Z " fill="#49513B" transform="translate(63,71)"/>
<path d="M0 0 C0.66 0 1.32 0 2 0 C2 0.66 2 1.32 2 2 C2.66 2 3.32 2 4 2 C4.33 2.66 4.66 3.32 5 4 C5.99 4.33 6.98 4.66 8 5 C7.67 3.68 7.34 2.36 7 1 C8.32 0.67 9.64 0.34 11 0 C10.67 1.98 10.34 3.96 10 6 C10.99 6 11.98 6 13 6 C12.67 6.99 12.34 7.98 12 9 C10.68 8.67 9.36 8.34 8 8 C8 7.34 8 6.68 8 6 C7.01 6 6.02 6 5 6 C4.67 6.99 4.34 7.98 4 9 C3.67 8.01 3.34 7.02 3 6 C0 7 0 7 -2 9 C-3.12 4.25 -3.12 4.25 -2 2 C-1.34 2 -0.68 2 0 2 C0 1.34 0 0.68 0 0 Z " fill="#BFB379" transform="translate(101,51)"/>
<path d="M0 0 C0.83 0.33 0.83 0.33 5 2 C4.34 3.65 3.68 5.3 3 7 C3.66 7 4.32 7 5 7 C5.33 6.34 5.66 5.68 6 5 C6.33 6.65 6.66 8.3 7 10 C5.68 10 4.36 10 3 10 C3 9.34 3 8.68 3 8 C2.01 8 1.02 8 0 8 C-0.33 8.66 -0.66 9.32 -1 10 C-1 9.34 -1 8.68 -1 8 C-2.65 8 -4.3 8 -6 8 C-5.19 5.56 -5.19 5.56 -4 3 C-3.01 2.67 -2.02 2.34 -1 2 C-0.67 1.34 -0.34 0.68 0 0 Z " fill="#9B935A" transform="translate(92,35)"/>
<path d="M0 0 C1.68 0.29 3.34 0.62 5 1 C4.67 2.32 4.34 3.64 4 5 C4 4.01 4 3.02 4 2 C2.68 2.99 1.36 3.98 0 5 C0.99 5 1.98 5 3 5 C3.62 6.88 3.62 6.88 4 9 C3.34 9.66 2.68 10.32 2 11 C1.01 10.67 0.02 10.34 -1 10 C-1 9.01 -1 8.02 -1 7 C-2.65 7.33 -4.3 7.66 -6 8 C-6 7.01 -6 6.02 -6 5 C-7.98 5 -9.96 5 -12 5 C-12.33 6.32 -12.66 7.64 -13 9 C-13.33 7.02 -13.66 5.04 -14 3 C-10.37 3 -6.74 3 -3 3 C-2.67 3.99 -2.34 4.98 -2 6 C-1.86 5.2 -1.71 4.39 -1.56 3.56 C-1 1 -1 1 0 0 Z " fill="#747750" transform="translate(66,29)"/>
<path d="M0 0 C0 2.31 0 4.62 0 7 C-1.26 7.19 -2.52 7.37 -3.81 7.56 C-4.17 7.61 -4.17 7.61 -5.96 7.88 C-8 8 -8 8 -11 7 C-10.67 5.35 -10.34 3.7 -10 2 C-9.34 2 -8.68 2 -8 2 C-8 1.34 -8 0.68 -8 0 C-5.14 -1.43 -3.07 -0.6 0 0 Z " fill="#55624D" transform="translate(60,86)"/>
<path d="M0 0 C0.66 0 1.32 0 2 0 C2.45 1.11 2.91 2.23 3.38 3.38 C5 7 5 7 7 9 C6.34 9 5.68 9 5 9 C5 9.66 5 10.32 5 11 C0.05 10.01 -4.9 9.02 -10 8 C-10 7.67 -10 7.34 -10 7 C-6.69 5.87 -3.41 4.79 0 4 C0 2.68 0 1.36 0 0 Z " fill="#BEB075" transform="translate(75,110)"/>
<path d="M0 0 C0.33 0.99 0.66 1.98 1 3 C-0.65 3.66 -2.3 4.32 -4 5 C-3.01 5.99 -2.02 6.98 -1 8 C-1.33 7.01 -1.66 6.02 -2 5 C-0.35 5.33 1.3 5.66 3 6 C3 6.99 3 7.98 3 9 C4.98 9 6.96 9 9 9 C9 8.34 9 7.68 9 7 C9.66 7 10.32 7 11 7 C10.34 8.32 9.68 9.64 9 11 C6.66 10.74 4.32 10.41 2 10 C1.67 9.34 1.34 8.68 1 8 C0.71 8.19 0.71 8.19 -0.75 9.12 C-3 10 -3 10 -5.06 9.19 C-5.7 8.8 -6.34 8.4 -7 8 C-7.99 7.67 -8.98 7.34 -10 7 C-9.67 6.01 -9.34 5.02 -9 4 C-8.01 4 -7.02 4 -6 4 C-5.67 3.01 -5.34 2.02 -5 1 C-3.35 0.67 -1.7 0.34 0 0 Z " fill="#B9BEB5" transform="translate(20,100)"/>
<path d="M0 0 C1.65 0 3.3 0 5 0 C4.67 0.17 4.67 0.17 3 1 C3 1.66 3 2.32 3 3 C3.99 2.67 4.98 2.34 6 2 C6 2.99 6 3.98 6 5 C5.68 5.02 5.68 5.02 4.07 5.15 C3.24 5.22 2.41 5.3 1.56 5.38 C0.74 5.44 -0.08 5.51 -0.93 5.59 C-1.27 5.65 -1.27 5.65 -3 6 C-3.33 6.66 -3.66 7.32 -4 8 C-4.99 7.83 -4.99 7.83 -10 7 C-9.34 6.67 -8.68 6.34 -8 6 C-8 5.34 -8 4.68 -8 4 C-8.66 3.67 -9.32 3.34 -10 3 C-7.26 1.63 -5.03 1.87 -2 2 C-1.34 2.33 -0.68 2.66 0 3 C0 2.01 0 1.02 0 0 Z " fill="#73754E" transform="translate(64,112)"/>
<path d="M0 0 C3.96 0.33 7.92 0.66 12 1 C11.34 2.65 10.68 4.3 10 6 C8.35 6 6.7 6 5 6 C4.67 6.66 4.34 7.32 4 8 C2.02 7.01 0.04 6.02 -2 5 C-2 4.34 -2 3.68 -2 3 C-1.34 3 -0.68 3 0 3 C0 2.01 0 1.02 0 0 Z " fill="#9A8D4F" transform="translate(86,48)"/>
<path d="M0 0 C3 1 3 1 3 1 Z " fill="#F5F5F4" transform="translate(37,47)"/>
<path d="" fill="#F2F3F4" transform="translate(0,0)"/>
</svg>
