<?xml version="1.0" encoding="UTF-8"?>
<!-- Generator: visioncortex VTracer 0.6.12 -->
<svg version="1.1" xmlns="http://www.w3.org/2000/svg" width="82" height="46">
<path d="M0 0 C1.11 0.56 2.23 1.11 3.38 1.69 C6.93 4.82 7.65 7.5 9 12 C9.49 11.65 9.99 11.3 10.5 10.94 C14.38 9.48 16.96 10.09 21 11 C22.31 13 22.31 13 23 15 C23.99 15.33 24.98 15.66 26 16 C25.84 16.49 25.84 16.49 25 19 C20.4 20.09 16.22 19.96 11.52 19.74 C8.45 20.06 8.09 20.88 6 23 C-2.87 24.98 -13.22 24.29 -22 22 C-23.71 20.72 -25.39 19.4 -27 18 C-28.94 18.38 -28.94 18.38 -31 19 C-34.25 18.06 -34.25 18.06 -37 17 C-35.85 13.55 -34.89 12.18 -32 10 C-28.75 10.25 -28.75 10.25 -26 11 C-25.69 10.41 -25.39 9.82 -25.07 9.21 C-21.65 3.29 -18.2 0.14 -11.81 -2.39 C-7.18 -3.4 -4.08 -2.19 0 0 Z " fill="#8E8A7C" transform="translate(47,13)"/>
<path d="M0 0 C2 3 2 3 3 6 C3.5 5.65 3.99 5.3 4.5 4.94 C8.38 3.48 10.96 4.09 15 5 C16.31 7 16.31 7 17 9 C17.99 9.33 18.98 9.66 20 10 C19.67 10.99 19.34 11.98 19 13 C14.4 14.09 10.22 13.96 5.52 13.74 C3 14 3 14 1.55 15.46 C-0.79 17.78 -2.97 17.51 -6.19 17.69 C-6.73 17.72 -6.73 17.72 -9.48 17.89 C-10.31 17.92 -11.14 17.96 -12 18 C-12.33 17.34 -12.66 16.68 -13 16 C-10.24 15.4 -7.84 15 -5 15 C-6.32 13.68 -7.64 12.36 -9 11 C-6.69 10.34 -4.38 9.68 -2 9 C-2.04 7.89 -2.08 6.77 -2.12 5.62 C-2 2 -2 2 0 0 Z " fill="#AC9C8A" transform="translate(53,19)"/>
<path d="M0 0 C2.13 1.23 4.02 2.53 6 4 C5 6 5 6 3.15 6.63 C2.79 6.71 2.79 6.71 0.94 7.12 C0.57 7.21 0.57 7.21 -1.29 7.63 C-1.85 7.75 -2.42 7.88 -3 8 C-3 8.66 -3 9.32 -3 10 C-9.05 10.2 -9.05 10.2 -11 10 C-11.66 9.34 -12.32 8.68 -13 8 C-13.8 7.69 -14.61 7.38 -15.44 7.06 C-17.97 6.01 -19.23 5.05 -21 3 C-19.36 1.96 -17.69 0.97 -16 0 C-14.93 -0.62 -13.86 -1.24 -12.75 -1.88 C-7.66 -3.4 -4.68 -2.25 0 0 Z " fill="#E1CDB2" transform="translate(47,13)"/>
<path d="M0 0 C0.66 0.33 1.32 0.66 2 1 C1.93 1.28 1.93 1.28 1.56 2.69 C0.97 5.11 0.48 7.55 0 10 C-1.48 10.5 -1.48 10.5 -9 13 C-14 6.12 -14 6.12 -14 5 C-11.69 5 -9.38 5 -7 5 C-7 4.34 -7 3.68 -7 3 C-4.7 1.93 -2.36 0.94 0 0 Z " fill="#A08E79" transform="translate(51,18)"/>
<path d="M0 0 C1.78 2.67 2.88 5.03 4 8 C3.01 8 2.02 8 1 8 C1 9.32 1 10.64 1 12 C1.99 12.33 2.98 12.66 4 13 C1.74 15.74 0.52 16.89 -3.02 17.61 C-3.55 17.63 -3.55 17.63 -6.25 17.75 C-6.79 17.78 -6.79 17.78 -9.52 17.92 C-10.34 17.95 -11.16 17.97 -12 18 C-12.33 17.34 -12.66 16.68 -13 16 C-10.24 15.4 -7.84 15 -5 15 C-6.32 13.68 -7.64 12.36 -9 11 C-6.69 10.34 -4.38 9.68 -2 9 C-2.04 7.89 -2.08 6.77 -2.12 5.62 C-2 2 -2 2 0 0 Z " fill="#BAAD8D" transform="translate(53,19)"/>
<path d="M0 0 C0.56 0.29 1.11 0.58 1.69 0.88 C4 2 4 2 6.44 2.75 C10.06 4.52 11.63 6.75 14 10 C14 10.66 14 11.32 14 12 C12.35 12 10.7 12 9 12 C9 12.66 9 13.32 9 14 C8.34 14 7.68 14 7 14 C6.73 13.2 6.46 12.39 6.19 11.56 C5.8 10.72 5.4 9.87 5 9 C4.01 8.67 3.02 8.34 2 8 C2 6.02 2 4.04 2 2 C1.34 2 0.68 2 0 2 C0 1.34 0 0.68 0 0 Z " fill="#686A6B" transform="translate(26,17)"/>
<path d="M0 0 C0.33 2.31 0.66 4.62 1 7 C-0.32 7.99 -1.64 8.98 -3 10 C-6.51 8.36 -9.46 6.97 -12 4 C-5.17 -0.14 -5.17 -0.14 0 0 Z " fill="#AEA296" transform="translate(38,12)"/>
</svg>
