<?xml version="1.0" encoding="UTF-8"?>
<!-- Generator: visioncortex VTracer 0.6.12 -->
<svg version="1.1" xmlns="http://www.w3.org/2000/svg" width="115" height="77">
<path d="M0 0 C0.56 0.31 1.13 0.62 1.71 0.94 C4.73 2.34 7.71 2.78 10.98 3.34 C13 4 13 4 15 7 C15.56 6.81 16.11 6.63 16.69 6.44 C19.4 5.92 21.32 6.44 24 7 C24.66 6.67 25.32 6.34 26 6 C27.89 6.41 29.77 6.9 31.62 7.44 C32.63 7.72 33.63 8.01 34.66 8.31 C35.43 8.54 36.21 8.76 37 9 C37.16 9.82 37.16 9.82 38 14 C38.78 14.12 39.57 14.25 40.38 14.38 C43 15 43 15 45 17 C44.62 19.09 44.22 21.17 43.7 23.22 C43.19 25.24 42.76 27.27 42.37 29.31 C40.4 39.26 40.4 39.26 37.56 42.38 C35 44 35 44 32.88 43.75 C32.57 43.63 32.57 43.63 31 43 C27.45 44.18 27.35 44.77 25.69 47.94 C23.87 50.98 23.15 51.92 19.94 53.69 C17 54 17 54 14.75 52.88 C13 51 11.98 49.36 11 47 C10.05 47.35 9.1 47.7 8.12 48.06 C5 49 5 49 3 48 C2.73 48.78 2.46 49.57 2.19 50.38 C1 53 1 53 -2 55 C-5.69 54.62 -5.69 54.62 -9 54 C-9 54.66 -9 55.32 -9 56 C-11.75 57.87 -13.11 57.99 -16.5 57.81 C-19.87 57.03 -21.62 56.47 -24 54 C-24 53.01 -24 52.02 -24 51 C-24.66 51 -25.32 51 -26 51 C-26 51.66 -26 52.32 -26 53 C-30.75 52.25 -30.75 52.25 -33 50 C-33.72 47.68 -34.39 45.35 -35 43 C-38 43 -38 43 -40 44 C-43.44 43 -44.69 42.62 -47 40 C-48.55 35.06 -49.26 30.12 -50 25 C-50.22 24.24 -50.45 23.48 -50.68 22.7 C-51 21 -51 21 -49.31 18.25 C-47 16 -47 16 -43 16 C-42.93 15.68 -42.93 15.68 -42.56 14.06 C-42 12 -42 12 -41 11 C-38.28 10.93 -35.58 11 -32.86 11.06 C-30.11 11 -27.67 10.62 -25 10 C-24.67 9.01 -24.34 8.02 -24 7 C-20.94 5.81 -20.94 5.81 -18 5 C-18 5.66 -18 6.32 -18 7 C-17.01 6.34 -16.02 5.68 -15 5 C-12.31 4.88 -12.31 4.88 -10 5 C-10 4.34 -10 3.68 -10 3 C-9.68 2.93 -9.68 2.93 -8.07 2.6 C-7.24 2.42 -6.41 2.24 -5.56 2.06 C-4.74 1.89 -3.92 1.71 -3.07 1.54 C-1 1 -1 1 0 0 Z " fill="#887F63" transform="translate(61,10)"/>
<path d="M0 0 C0 0.66 0 1.32 0 2 C4.95 1.34 9.9 0.68 15 0 C14.67 0.99 14.34 1.98 14 3 C9.71 3.66 5.42 4.32 1 5 C0.67 5.99 0.34 6.98 0 8 C1.65 8 3.3 8 5 8 C5.33 9.32 5.66 10.64 6 12 C7.3 11.86 8.6 11.71 9.94 11.56 C10.67 11.48 11.4 11.4 12.15 11.32 C14 11 14 11 15 10 C20.53 9.76 20.53 9.76 23 11 C23 11.66 23 12.32 23 13 C23.92 12.84 24.83 12.69 25.77 12.53 C26.37 12.43 26.37 12.43 29.38 11.94 C30.56 11.74 31.74 11.54 32.96 11.34 C36 11 36 11 38 12 C36.24 9.82 35.31 9.06 32.52 8.49 C32.07 8.46 32.07 8.46 29.81 8.31 C28.91 8.25 28.01 8.18 27.08 8.11 C26.39 8.08 25.71 8.04 25 8 C24.84 7.51 24.84 7.51 24 5 C28.96 3.68 33.91 3.91 39 4 C38.67 4.99 38.34 5.98 38 7 C38.6 6.99 38.6 6.99 41.62 6.94 C45.18 6.93 48.51 7.3 52 8 C52 8.99 52 9.98 52 11 C53.32 10.34 54.64 9.68 56 9 C57 10 57 10 57.06 13.06 C57.04 14.03 57.02 15 57 16 C56.05 16.41 55.1 16.83 54.12 17.25 C50.99 19 50.13 19.71 49 23 C49 21.68 49 20.36 49 19 C46 21 46 21 45.06 23.06 C44 25 44 25 42.38 25.75 C38.9 26.12 35.49 26.06 32 26 C32 24.02 32 22.04 32 20 C31.34 20 30.68 20 30 20 C29.34 21.98 28.68 23.96 28 26 C24.71 26.8 23.29 27.1 20 26 C20 26.66 20 27.32 20 28 C19.01 28 18.02 28 17 28 C16.67 26.68 16.34 25.36 16 24 C15.34 24 14.68 24 14 24 C14.33 25.32 14.66 26.64 15 28 C13.02 28 11.04 28 9 28 C8.67 27.01 8.34 26.02 8 25 C7.01 24.67 6.02 24.34 5 24 C4.69 23.36 4.38 22.72 4.06 22.06 C2.77 19.55 1.58 19.03 -1 18 C-1.33 18.99 -1.66 19.98 -2 21 C-4.31 20.01 -6.62 19.02 -9 18 C-9 17.01 -9 16.02 -9 15 C-10.32 14.67 -11.64 14.34 -13 14 C-12.67 13.01 -12.34 12.02 -12 11 C-11.34 11.33 -10.68 11.66 -10 12 C-10.33 9.03 -10.66 6.06 -11 3 C-8.69 3 -6.38 3 -4 3 C-4 2.34 -4 1.68 -4 1 C-2 0 -2 0 0 0 Z " fill="#79725F" transform="translate(30,31)"/>
<path d="M0 0 C0.66 0.33 1.32 0.66 2 1 C2 1.66 2 2.32 2 3 C2.66 3.33 3.32 3.66 4 4 C3.67 4.99 3.34 5.98 3 7 C4.65 7 6.3 7 8 7 C8.16 7.66 8.16 7.66 9 11 C7.06 11.22 5.13 11.43 3.19 11.62 C2.65 11.68 2.65 11.68 -0.08 11.98 C-3 12 -3 12 -6 10 C-6 10.66 -6 11.32 -6 12 C-6.99 12 -7.98 12 -9 12 C-8.84 12.5 -8.84 12.5 -8 15 C-7.13 14.63 -6.27 14.26 -5.38 13.88 C-1.41 12.85 0.35 13.22 4 15 C4.16 15.5 4.16 15.5 5 18 C7.06 18.69 7.06 18.69 9 19 C9 18.34 9 17.68 9 17 C11.31 17 13.62 17 16 17 C16 17.66 16 18.32 16 19 C19.3 19 22.6 19 26 19 C26 19.66 26 20.32 26 21 C26.66 21 27.32 21 28 21 C28 21.66 28 22.32 28 23 C25.36 22.67 22.72 22.34 20 22 C20 22.66 20 23.32 20 24 C18.35 24 16.7 24 15 24 C15 23.34 15 22.68 15 22 C10.38 22 5.76 22 1 22 C1.16 22.33 1.16 22.33 2 24 C4.18 24.34 4.18 24.34 6.88 24.5 C10.58 24.72 11.81 24.87 15 27 C15 27.66 15 28.32 15 29 C9.92 29.85 5.15 30.09 0 30 C0 29.34 0 28.68 0 28 C-6.15 27.9 -6.15 27.9 -8 28 C-8.16 28.16 -8.16 28.16 -9 29 C-11.67 29.14 -14.32 29.04 -17 29 C-17.33 28.01 -17.66 27.02 -18 26 C-19.65 26 -21.3 26 -23 26 C-23 22 -23 22 -22 21 C-18.64 20.46 -15.28 20.03 -11.91 19.6 C-11.43 19.5 -11.43 19.5 -9 19 C-8.67 18.34 -8.34 17.68 -8 17 C-8.58 17.14 -9.16 17.29 -9.76 17.44 C-14.27 18.51 -18.33 19.24 -23 19 C-23 18.34 -23 17.68 -23 17 C-24.32 17.33 -25.64 17.66 -27 18 C-27 18.66 -27 19.32 -27 20 C-29.31 20 -31.62 20 -34 20 C-33.67 20.66 -33.34 21.32 -33 22 C-32.96 24.33 -32.96 26.67 -33 29 C-33.66 29 -34.32 29 -35 29 C-35 29.66 -35 30.32 -35 31 C-34.01 31.33 -33.02 31.66 -32 32 C-32 32.99 -32 33.98 -32 35 C-30.68 35.33 -29.36 35.66 -28 36 C-29.32 37.32 -30.64 38.64 -32 40 C-35.27 38.95 -36.69 38.46 -39 36 C-40.56 31.06 -41.26 26.12 -42 21 C-42.22 20.24 -42.45 19.48 -42.68 18.7 C-43 17 -43 17 -41.31 14.25 C-39 12 -39 12 -35 12 C-34.93 11.68 -34.93 11.68 -34.56 10.06 C-34 8 -34 8 -33 7 C-30.28 6.93 -27.58 7 -24.86 7.06 C-22.11 7 -19.67 6.62 -17 6 C-16.67 5.01 -16.34 4.02 -16 3 C-12.94 1.81 -12.94 1.81 -10 1 C-9.34 2.32 -8.68 3.64 -8 5 C-7.34 4.67 -6.68 4.34 -6 4 C-5.01 4.33 -4.02 4.66 -3 5 C-2.01 4.67 -1.02 4.34 0 4 C0 2.68 0 1.36 0 0 Z " fill="#B3985B" transform="translate(53,14)"/>
<path d="M0 0 C0.56 0.31 1.13 0.62 1.71 0.94 C4.73 2.34 7.71 2.78 10.98 3.34 C13 4 13 4 15 7 C15.56 6.81 16.11 6.63 16.69 6.44 C19.4 5.92 21.32 6.44 24 7 C24.66 6.67 25.32 6.34 26 6 C27.89 6.41 29.77 6.9 31.62 7.44 C32.63 7.72 33.63 8.01 34.66 8.31 C35.43 8.54 36.21 8.76 37 9 C36.67 9.99 36.34 10.98 36 12 C34.01 12.2 32.03 12.39 30.04 12.59 C28 13 28 13 25 15 C25 14.34 25 13.68 25 13 C24.01 13.33 23.02 13.66 22 14 C22.16 14.5 22.16 14.5 23 17 C22.67 17.66 22.34 18.32 22 19 C23.32 18.67 24.64 18.34 26 18 C26 18.99 26 19.98 26 21 C26.95 20.98 27.9 20.96 28.88 20.94 C32 21 32 21 34 22 C33.86 24.13 33.71 26.25 33.56 28.38 C33.48 29.56 33.4 30.74 33.32 31.96 C33 35 33 35 32 37 C31.34 37 30.68 37 30 37 C30.31 35.21 30.62 33.42 30.94 31.62 C31.11 30.63 31.29 29.63 31.46 28.6 C32 26 32 26 33 24 C32.01 24 31.02 24 30 24 C30.02 25.09 30.04 26.19 30.06 27.31 C30 31 30 31 29 34 C28.34 34 27.68 34 27 34 C27 32.68 27 31.36 27 30 C25.02 30.66 23.04 31.32 21 32 C21 31.01 21 30.02 21 29 C18.03 28.67 15.06 28.34 12 28 C12 27.34 12 26.68 12 26 C17.75 25.88 17.75 25.88 20 27 C20 26.34 20 25.68 20 25 C19.34 25 18.68 25 18 25 C18 24.34 18 23.68 18 23 C13.38 23.33 8.76 23.66 4 24 C5.32 23.67 6.64 23.34 8 23 C8 22.34 8 21.68 8 21 C5.69 21 3.38 21 1 21 C1 21.66 1 22.32 1 23 C-0.65 22.67 -2.3 22.34 -4 22 C-4 21.01 -4 20.02 -4 19 C-12.57 17.57 -12.57 17.57 -16 20 C-16.33 18.68 -16.66 17.36 -17 16 C-16.01 16 -15.02 16 -14 16 C-14 15.34 -14 14.68 -14 14 C-13.71 14.04 -13.71 14.04 -12.24 14.22 C-7.8 14.75 -3.48 15.11 1 15 C0.67 14.01 0.34 13.02 0 12 C-0.83 11.84 -0.83 11.84 -5 11 C-5.66 9.02 -6.32 7.04 -7 5 C-7.33 5.99 -7.66 6.98 -8 8 C-9.88 9.25 -9.88 9.25 -12 10 C-12.99 9.67 -13.98 9.34 -15 9 C-15.66 10.32 -16.32 11.64 -17 13 C-17.33 11.02 -17.66 9.04 -18 7 C-14.77 4.85 -13.72 4.8 -10 5 C-10 4.34 -10 3.68 -10 3 C-9.68 2.93 -9.68 2.93 -8.07 2.6 C-7.24 2.42 -6.41 2.24 -5.56 2.06 C-5.15 1.98 -5.15 1.98 -3.07 1.54 C-1 1 -1 1 0 0 Z " fill="#C3AC7F" transform="translate(61,10)"/>
<path d="M0 0 C4.7 1.48 4.7 1.48 6.12 3.94 C6.41 4.62 6.7 5.3 7 6 C8.31 7.75 8.31 7.75 10 9 C12.69 9.19 12.69 9.19 15 9 C15 8.01 15 7.02 15 6 C15.66 6 16.32 6 17 6 C17.33 7.32 17.66 8.64 18 10 C18.99 10 19.98 10 21 10 C21 9.34 21 8.68 21 8 C23.64 8 26.28 8 29 8 C29.66 6.02 30.32 4.04 31 2 C31.66 2 32.32 2 33 2 C33 3.98 33 5.96 33 8 C34.65 7.67 36.3 7.34 38 7 C38 6.67 38 6.34 38 6 C40.31 6 42.62 6 45 6 C45.16 6.33 45.16 6.33 46 8 C47.64 8.72 49.31 9.39 51 10 C51.33 9.67 51.66 9.34 52 9 C53.67 8.96 55.33 8.96 57 9 C55.94 12.17 55.18 12.91 52.12 14.44 C49 15 49 15 46.75 13.88 C45 12 43.98 10.36 43 8 C42.05 8.35 41.1 8.7 40.12 9.06 C37 10 37 10 35 9 C34.73 9.78 34.46 10.57 34.19 11.38 C33 14 33 14 30 16 C26.31 15.62 26.31 15.62 23 15 C23 15.66 23 16.32 23 17 C20.25 18.87 18.89 18.99 15.5 18.81 C12.13 18.03 10.38 17.47 8 15 C8 14.01 8 13.02 8 12 C7.34 12 6.68 12 6 12 C6 12.66 6 13.32 6 14 C1.25 13.25 1.25 13.25 -1 11 C-1.7 8.68 -2.37 6.34 -3 4 C-3.33 3.34 -3.66 2.68 -4 2 C-3.01 2 -2.02 2 -1 2 C-0.67 1.34 -0.34 0.68 0 0 Z " fill="#9A999B" transform="translate(29,49)"/>
<path d="M0 0 C-0.33 2.31 -0.66 4.62 -1 7 C-2.65 7.33 -4.3 7.66 -6 8 C-6 8.99 -6 9.98 -6 11 C-5.17 11.16 -5.17 11.16 -1 12 C-1 12.66 -1 13.32 -1 14 C-2.65 14 -4.3 14 -6 14 C-6 13.34 -6 12.68 -6 12 C-8.97 11.34 -11.94 10.68 -15 10 C-15.33 10.99 -15.66 11.98 -16 13 C-17.32 13 -18.64 13 -20 13 C-20 13.66 -20 14.32 -20 15 C-21.65 15.66 -23.3 16.32 -25 17 C-25 21.29 -25 25.58 -25 30 C-24.01 30.33 -23.02 30.66 -22 31 C-22 31.99 -22 32.98 -22 34 C-20.68 34.33 -19.36 34.66 -18 35 C-19.32 36.32 -20.64 37.64 -22 39 C-25.27 37.95 -26.69 37.46 -29 35 C-30.56 30.06 -31.26 25.12 -32 20 C-32.22 19.24 -32.45 18.48 -32.68 17.7 C-33 16 -33 16 -31.31 13.25 C-29 11 -29 11 -25 11 C-24.93 10.68 -24.93 10.68 -24.56 9.06 C-24 7 -24 7 -23 6 C-20.28 5.93 -17.58 6 -14.86 6.06 C-12.11 6 -9.67 5.62 -7 5 C-6.67 4.01 -6.34 3.02 -6 2 C-3.85 0.68 -2.53 0 0 0 Z " fill="#7D7C6E" transform="translate(43,15)"/>
<path d="M0 0 C0.66 0.33 1.32 0.66 2 1 C2 1.66 2 2.32 2 3 C2.66 3.33 3.32 3.66 4 4 C3.67 4.99 3.34 5.98 3 7 C4.65 7 6.3 7 8 7 C8.16 7.66 8.16 7.66 9 11 C7.06 11.22 5.13 11.43 3.19 11.62 C2.65 11.68 2.65 11.68 -0.08 11.98 C-3 12 -3 12 -6 10 C-6 10.66 -6 11.32 -6 12 C-6.99 12 -7.98 12 -9 12 C-8.65 12.6 -8.3 13.2 -7.94 13.81 C-7 16 -7 16 -8 19 C-8 18.34 -8 17.68 -8 17 C-8.58 17.14 -9.16 17.29 -9.76 17.44 C-14.27 18.51 -18.33 19.24 -23 19 C-23 18.34 -23 17.68 -23 17 C-24.32 17.33 -25.64 17.66 -27 18 C-27 18.66 -27 19.32 -27 20 C-29.31 20 -31.62 20 -34 20 C-33.67 20.66 -33.34 21.32 -33 22 C-32.96 24.33 -32.96 26.67 -33 29 C-33.66 29 -34.32 29 -35 29 C-35.33 25.37 -35.66 21.74 -36 18 C-33 16 -33 16 -30 16 C-30 15.34 -30 14.68 -30 14 C-29.36 13.88 -28.72 13.75 -28.06 13.62 C-27.38 13.42 -26.7 13.21 -26 13 C-25.67 12.34 -25.34 11.68 -25 11 C-23.52 11.33 -23.52 11.33 -16 13 C-16 13.66 -16 14.32 -16 15 C-14.35 15 -12.7 15 -11 15 C-11.33 14.34 -11.66 13.68 -12 13 C-14.06 12.38 -14.06 12.38 -16 12 C-16.33 10.68 -16.66 9.36 -17 8 C-15.02 8 -13.04 8 -11 8 C-11 6.35 -11 4.7 -11 3 C-10.01 3.66 -9.02 4.32 -8 5 C-7.34 4.67 -6.68 4.34 -6 4 C-5.01 4.33 -4.02 4.66 -3 5 C-2.01 4.67 -1.02 4.34 0 4 C0 2.68 0 1.36 0 0 Z " fill="#958F6B" transform="translate(53,14)"/>
<path d="M0 0 C0 0.66 0 1.32 0 2 C4.95 1.34 9.9 0.68 15 0 C14.67 0.99 14.34 1.98 14 3 C9.71 3.66 5.42 4.32 1 5 C0.67 5.99 0.34 6.98 0 8 C1.65 8 3.3 8 5 8 C5 8.99 5 9.98 5 11 C4.34 11 3.68 11 3 11 C3 12.32 3 13.64 3 15 C3.99 15 4.98 15 6 15 C6 14.34 6 13.68 6 13 C6.99 13 7.98 13 9 13 C8.67 14.32 8.34 15.64 8 17 C7.4 17.14 6.8 17.29 6.19 17.44 C4.44 17.89 2.71 18.43 1 19 C0.34 18.67 -0.32 18.34 -1 18 C-1.33 18.99 -1.66 19.98 -2 21 C-4.31 20.01 -6.62 19.02 -9 18 C-9 17.01 -9 16.02 -9 15 C-10.32 14.67 -11.64 14.34 -13 14 C-12.67 13.01 -12.34 12.02 -12 11 C-11.34 11.33 -10.68 11.66 -10 12 C-10.33 9.03 -10.66 6.06 -11 3 C-8.69 3 -6.38 3 -4 3 C-4 2.34 -4 1.68 -4 1 C-2 0 -2 0 0 0 Z " fill="#666764" transform="translate(30,31)"/>
<path d="M0 0 C0.28 0.16 0.28 0.16 1.71 0.95 C4.08 2.04 6.05 2.39 8.62 2.75 C11 3.23 11 3.23 13 4 C14.56 7.12 14.56 7.12 15 10 C11.7 10 8.4 10 5 10 C5 10.66 5 11.32 5 12 C4.34 12.33 4.34 12.33 1 14 C0.67 13.34 0.34 12.68 0 12 C-2.56 11.38 -2.56 11.38 -5 11 C-5.66 9.02 -6.32 7.04 -7 5 C-7.33 5.99 -7.66 6.98 -8 8 C-9.88 9.25 -9.88 9.25 -12 10 C-12.99 9.67 -13.98 9.34 -15 9 C-15.66 10.32 -16.32 11.64 -17 13 C-17.33 11.02 -17.66 9.04 -18 7 C-14.77 4.85 -13.72 4.8 -10 5 C-10 4.34 -10 3.68 -10 3 C-9.68 2.93 -9.68 2.93 -8.07 2.6 C-7.24 2.42 -6.41 2.24 -5.56 2.06 C-5.15 1.98 -5.15 1.98 -3.07 1.54 C-1 1 -1 1 0 0 Z " fill="#AEA277" transform="translate(61,10)"/>
<path d="M0 0 C1.65 0 3.3 0 5 0 C5 0.99 5 1.98 5 3 C6.32 2.34 7.64 1.68 9 1 C10 2 10 2 10.06 5.06 C10.04 6.03 10.02 7 10 8 C9.53 8.21 9.53 8.21 7.12 9.25 C3.99 11 3.13 11.71 2 15 C2 13.68 2 12.36 2 11 C-1 13 -1 13 -1.94 15.06 C-3 17 -3 17 -4.62 17.75 C-8.1 18.12 -11.51 18.06 -15 18 C-15 16.35 -15 14.7 -15 13 C-14.34 13 -13.68 13 -13 13 C-12.88 12.2 -12.75 11.39 -12.62 10.56 C-12.42 9.72 -12.21 8.87 -12 8 C-11.34 7.67 -10.68 7.34 -10 7 C-10 8.98 -10 10.96 -10 13 C-9.59 11.87 -9.17 10.73 -8.75 9.56 C-7 6 -7 6 -4.81 5.06 C-4.21 5.04 -3.62 5.02 -3 5 C-2.34 6.32 -1.68 7.64 -1 9 C1.14 6.86 1.43 5.87 2 3 C1.34 3 0.68 3 0 3 C0 2.01 0 1.02 0 0 Z " fill="#686665" transform="translate(77,39)"/>
<path d="M0 0 C0.33 1.32 0.66 2.64 1 4 C1.78 4.12 2.57 4.25 3.38 4.38 C6 5 6 5 8 7 C7.62 9.09 7.22 11.17 6.7 13.22 C6.19 15.24 5.76 17.27 5.37 19.31 C3.15 30.52 3.15 30.52 -2 34 C-2.99 34 -3.98 34 -5 34 C-5.33 32.35 -5.66 30.7 -6 29 C-5.34 29 -4.68 29 -4 29 C-3.34 26.03 -2.68 23.06 -2 20 C0 20 0 20 1.62 21.5 C2.08 22 2.53 22.49 3 23 C3 21.35 3 19.7 3 18 C2.34 18 1.68 18 1 18 C1.33 15.69 1.66 13.38 2 11 C1.34 11 0.68 11 0 11 C0 7.37 0 3.74 0 0 Z " fill="#AFA79E" transform="translate(98,20)"/>
<path d="M0 0 C4.7 1.48 4.7 1.48 6.12 3.94 C6.41 4.62 6.7 5.3 7 6 C8.31 7.75 8.31 7.75 10 9 C12.69 9.19 12.69 9.19 15 9 C15 8.01 15 7.02 15 6 C15.66 6 16.32 6 17 6 C17.33 7.32 17.66 8.64 18 10 C18.99 10 19.98 10 21 10 C21 10.66 21 11.32 21 12 C17.62 12.84 15.33 13.11 12 12 C11.67 12.5 11.67 12.5 10 15 C10 14.01 10 13.02 10 12 C8.68 12 7.36 12 6 12 C6 12.66 6 13.32 6 14 C1.25 13.25 1.25 13.25 -1 11 C-1.7 8.68 -2.37 6.34 -3 4 C-3.33 3.34 -3.66 2.68 -4 2 C-3.01 2 -2.02 2 -1 2 C-0.67 1.34 -0.34 0.68 0 0 Z " fill="#858D99" transform="translate(29,49)"/>
<path d="M0 0 C0.33 1.32 0.66 2.64 1 4 C2.98 4 4.96 4 7 4 C6.34 6.64 5.68 9.28 5 12 C4.34 12 3.68 12 3 12 C3.33 10.02 3.66 8.04 4 6 C2.35 6 0.7 6 -1 6 C-0.67 7.65 -0.34 9.3 0 11 C-1.98 11.33 -3.96 11.66 -6 12 C-6 11.34 -6 10.68 -6 10 C-7.32 10.33 -8.64 10.66 -10 11 C-10.49 3.6 -10.49 3.6 -8.38 1 C-5.45 -0.23 -3.15 -0.21 0 0 Z " fill="#5F5C49" transform="translate(51,41)"/>
<path d="M0 0 C0.16 0.33 0.16 0.33 1 2 C2.64 2.72 4.31 3.39 6 4 C6.33 3.67 6.66 3.34 7 3 C8.67 2.96 10.33 2.96 12 3 C10.94 6.17 10.18 6.91 7.12 8.44 C4 9 4 9 1.75 7.88 C-0 6 -1.02 4.36 -2 2 C-2.47 2.18 -2.47 2.18 -4.88 3.06 C-8 4 -8 4 -10 3 C-10.27 3.78 -10.54 4.57 -10.81 5.38 C-12 8 -12 8 -15 10 C-18.69 9.62 -18.69 9.62 -22 9 C-22 9.66 -22 10.32 -22 11 C-24.92 12.98 -26.12 12.99 -29.75 12.62 C-30.82 12.42 -31.9 12.21 -33 12 C-33 11.67 -33 11.34 -33 11 C-31.35 10.67 -29.7 10.34 -28 10 C-27.67 9.01 -27.34 8.02 -27 7 C-26.34 7 -25.68 7 -25 7 C-25 7.99 -25 8.98 -25 10 C-24.34 10 -23.68 10 -23 10 C-23 9.34 -23 8.68 -23 8 C-19.12 6.81 -16.08 6 -12 6 C-11.92 5.38 -11.84 4.76 -11.75 4.12 C-11 2 -11 2 -9.38 0.75 C-6.2 -0.25 -3.31 -0.13 0 0 Z " fill="#C5C0BC" transform="translate(74,55)"/>
<path d="M0 0 C0 1.98 0 3.96 0 6 C1.32 6.33 2.64 6.66 4 7 C3.01 7.33 2.02 7.66 1 8 C0.89 8.32 0.89 8.32 0.31 9.94 C-1.33 12.52 -2.22 12.54 -5.12 13.25 C-6.4 13.5 -7.68 13.74 -9 14 C-9 13.34 -9 12.68 -9 12 C-10.65 11.67 -12.3 11.34 -14 11 C-13.31 8.12 -13.31 8.12 -12 5 C-9.75 3.81 -9.75 3.81 -7 3 C-5.93 2.46 -4.86 1.93 -3.75 1.38 C-1 0 -1 0 0 0 Z " fill="#999694" transform="translate(88,46)"/>
<path d="M0 0 C-0.33 2.31 -0.66 4.62 -1 7 C-2.65 7.33 -4.3 7.66 -6 8 C-6 8.99 -6 9.98 -6 11 C-5.17 11.16 -5.17 11.16 -1 12 C-1 12.66 -1 13.32 -1 14 C-2.65 14 -4.3 14 -6 14 C-6 13.34 -6 12.68 -6 12 C-9.63 11.34 -13.26 10.68 -17 10 C-17.33 9.01 -17.66 8.02 -18 7 C-19.32 7.33 -20.64 7.66 -22 8 C-22.33 9.32 -22.66 10.64 -23 12 C-25.64 12.66 -28.28 13.32 -31 14 C-30.34 13.01 -29.68 12.02 -29 11 C-27.68 11 -26.36 11 -25 11 C-24.93 10.68 -24.93 10.68 -24.56 9.06 C-24 7 -24 7 -23 6 C-20.28 5.93 -17.58 6 -14.86 6.06 C-12.11 6 -9.67 5.62 -7 5 C-6.67 4.01 -6.34 3.02 -6 2 C-3.85 0.68 -2.53 0 0 0 Z " fill="#BEB18F" transform="translate(43,15)"/>
<path d="M0 0 C2.31 0 4.62 0 7 0 C7 0.33 7 0.66 7 1 C5.35 1 3.7 1 2 1 C2.33 1.66 2.66 2.32 3 3 C5.18 3.34 5.18 3.34 7.88 3.5 C11.58 3.72 12.81 3.87 16 6 C16 6.66 16 7.32 16 8 C10.92 8.85 6.15 9.09 1 9 C1 8.34 1 7.68 1 7 C-5.15 6.9 -5.15 6.9 -7 7 C-7.33 7.33 -7.66 7.66 -8 8 C-10.67 8.14 -13.32 8.04 -16 8 C-16 7.01 -16 6.02 -16 5 C-10.51 3.13 -5.78 2.76 0 3 C0 2.01 0 1.02 0 0 Z " fill="#B49C5D" transform="translate(52,35)"/>
<path d="M0 0 C0 0.99 0 1.98 0 3 C-1.32 3 -2.64 3 -4 3 C-4.33 3.99 -4.66 4.98 -5 6 C-5 5.34 -5 4.68 -5 4 C-5.99 4 -6.98 4 -8 4 C-7.67 4.99 -7.34 5.98 -7 7 C-8.98 7 -10.96 7 -13 7 C-13 7.66 -13 8.32 -13 9 C-14.32 9 -15.64 9 -17 9 C-17 8.01 -17 7.02 -17 6 C-25.57 4.57 -25.57 4.57 -29 7 C-29.33 5.68 -29.66 4.36 -30 3 C-29.01 3 -28.02 3 -27 3 C-27 2.34 -27 1.68 -27 1 C-25.84 1.21 -24.69 1.41 -23.5 1.62 C-17.36 2.34 -11.45 1.34 -5.38 0.47 C-2 0 -2 0 0 0 Z " fill="#DABC8C" transform="translate(74,23)"/>
<path d="M0 0 C4.29 0 8.58 0 13 0 C12.67 2.97 12.34 5.94 12 9 C11.01 9.33 10.02 9.66 9 10 C7.88 6.25 7.88 6.25 9 4 C7.68 4 6.36 4 5 4 C4.88 4.81 4.76 5.62 4.63 6.45 C4.55 6.98 4.55 6.98 4.12 9.69 C4.04 10.22 4.04 10.22 3.63 12.89 C3.04 15.8 2.2 18.29 1 21 C0.67 21 0.34 21 0 21 C0 14.07 0 7.14 0 0 Z " fill="#C6C0BC" transform="translate(0,0)"/>
<path d="M0 0 C1 3 1 3 0 6 C0.66 6 1.32 6 2 6 C2 7.65 2 9.3 2 11 C1.01 10.67 0.02 10.34 -1 10 C-1 9.34 -1 8.68 -1 8 C-1.66 8 -2.32 8 -3 8 C-3.33 9.65 -3.66 11.3 -4 13 C-3.34 13.33 -2.68 13.66 -2 14 C-3.38 15.5 -3.38 15.5 -5 17 C-5.66 17 -6.32 17 -7 17 C-7 17.99 -7 18.98 -7 20 C-8.32 20 -9.64 20 -11 20 C-11.66 16.04 -12.32 12.08 -13 8 C-12.34 8 -11.68 8 -11 8 C-11 9.32 -11 10.64 -11 12 C-10.34 12 -9.68 12 -9 12 C-8.67 8.7 -8.34 5.4 -8 2 C-7.01 2 -6.02 2 -5 2 C-5.99 6.29 -6.98 10.58 -8 15 C-7.34 15 -6.68 15 -6 15 C-5.34 10.38 -4.68 5.76 -4 1 C-3.01 1 -2.02 1 -1 1 C-0.67 0.67 -0.34 0.34 0 0 Z " fill="#88817C" transform="translate(99,32)"/>
<path d="M0 0 C0.33 0.99 0.66 1.98 1 3 C2.98 3 4.96 3 7 3 C6.67 5.97 6.34 8.94 6 12 C6.99 12 7.98 12 9 12 C7.95 14.62 7.35 15.79 4.88 17.25 C4.26 17.5 3.64 17.75 3 18 C3 17.34 3 16.68 3 16 C2.01 15.67 1.02 15.34 0 15 C-1.19 11.94 -1.19 11.94 -2 9 C-1.38 8.73 -0.76 8.46 -0.12 8.19 C2 7 2 7 4 4 C3.01 4 2.02 4 1 4 C1 4.66 1 5.32 1 6 C0.01 6 -0.98 6 -2 6 C-2 4.68 -2 3.36 -2 2 C-1.34 2 -0.68 2 0 2 C0 1.34 0 0.68 0 0 Z " fill="#7F7D7C" transform="translate(35,40)"/>
<path d="M0 0 C1.32 0.33 2.64 0.66 4 1 C4 1.66 4 2.32 4 3 C4.99 3 5.98 3 7 3 C7.33 4.65 7.66 6.3 8 8 C7.01 7.67 6.02 7.34 5 7 C4.71 8.13 4.42 9.27 4.12 10.44 C3.75 11.61 3.38 12.79 3 14 C2.67 14.16 2.67 14.16 1 15 C1 13.02 1 11.04 1 9 C0.34 10.65 -0.32 12.3 -1 14 C-2.98 14 -4.96 14 -7 14 C-6.12 9.25 -6.12 9.25 -5 7 C-4.34 7 -3.68 7 -3 7 C-2.67 6.01 -2.34 5.02 -2 4 C-0.35 4.33 1.3 4.66 3 5 C2.5 4.55 2.01 4.09 1.5 3.62 C0 2 0 2 0 0 Z " fill="#615C4F" transform="translate(65,38)"/>
<path d="M0 0 C0.66 0.33 1.32 0.66 2 1 C2 1.66 2 2.32 2 3 C2.66 3.33 3.32 3.66 4 4 C3.67 4.99 3.34 5.98 3 7 C4.65 7 6.3 7 8 7 C8.33 8.32 8.66 9.64 9 11 C7.08 11.22 5.17 11.43 3.25 11.62 C2.18 11.74 1.12 11.86 0.02 11.98 C-3.04 12 -4.46 11.61 -7 10 C-7 8.02 -7 6.04 -7 4 C-6.4 4.19 -5.8 4.37 -5.19 4.56 C-3 5 -3 5 0 4 C0 2.68 0 1.36 0 0 Z " fill="#857A58" transform="translate(53,14)"/>
<path d="M0 0 C0.33 0 0.66 0 1 0 C1.33 1.65 1.66 3.3 2 5 C2.99 5 3.98 5 5 5 C5.76 9.32 6.16 12.74 5 17 C5.66 16.67 6.32 16.34 7 16 C7.99 16.33 8.98 16.66 10 17 C10 17.99 10 18.98 10 20 C11.32 20.33 12.64 20.66 14 21 C12.68 22.32 11.36 23.64 10 25 C6.73 23.95 5.31 23.46 3 21 C1.44 16.06 0.74 11.12 0 6 C-0.21 5.23 -0.42 4.45 -0.63 3.66 C-1 2 -1 2 0 0 Z " fill="#989EA7" transform="translate(11,29)"/>
<path d="M0 0 C1.94 0.56 1.94 0.56 4 2 C4.75 5.62 4.75 5.62 5 9 C4.01 9 3.02 9 2 9 C2.35 9.6 2.7 10.2 3.06 10.81 C4 13 4 13 3 16 C3 15.34 3 14.68 3 14 C1.76 14.04 0.52 14.08 -0.75 14.12 C-4.02 14.14 -6.21 13.86 -9 12 C-9 11.34 -9 10.68 -9 10 C-10.65 9.67 -12.3 9.34 -14 9 C-10.8 7.4 -8.28 8.97 -5 10 C-5 10.66 -5 11.32 -5 12 C-3.35 12 -1.7 12 0 12 C-0.33 11.34 -0.66 10.68 -1 10 C-3.06 9.38 -3.06 9.38 -5 9 C-5.33 7.68 -5.66 6.36 -6 5 C-4.02 5 -2.04 5 0 5 C0 3.35 0 1.7 0 0 Z " fill="#9B885A" transform="translate(42,17)"/>
<path d="M0 0 C0 1.98 0 3.96 0 6 C-0.71 5.99 -1.42 5.98 -2.15 5.96 C-3.07 5.96 -3.99 5.95 -4.94 5.94 C-5.4 5.93 -5.4 5.93 -7.71 5.9 C-10 6 -10 6 -11 7 C-12.69 7.07 -14.38 7.08 -16.06 7.06 C-16.98 7.05 -17.9 7.04 -18.85 7.04 C-19.56 7.02 -20.27 7.01 -21 7 C-21 3 -21 3 -20 2 C-17.18 1.79 -14.38 1.62 -11.56 1.5 C-7.71 1.33 -3.54 0 0 0 Z " fill="#A3894C" transform="translate(51,33)"/>
<path d="M0 0 C0 0.66 0 1.32 0 2 C4.95 1.34 9.9 0.68 15 0 C14.67 0.99 14.34 1.98 14 3 C13.56 3.07 13.56 3.07 11.33 3.4 C10.17 3.58 9.01 3.76 7.81 3.94 C7.24 4.02 7.24 4.02 4.33 4.46 C1.54 4.91 -1.23 5.42 -4 6 C-4 7.65 -4 9.3 -4 11 C-4.66 10.34 -5.32 9.68 -6 9 C-6 7.68 -6 6.36 -6 5 C-7.32 4.34 -8.64 3.68 -10 3 C-8.02 3 -6.04 3 -4 3 C-4 2.34 -4 1.68 -4 1 C-2 0 -2 0 0 0 Z " fill="#5F5D4A" transform="translate(30,31)"/>
<path d="M0 0 C0.55 2.08 1 3.84 1 6 C1.33 5.34 1.66 4.68 2 4 C3.65 4.33 5.3 4.66 7 5 C7 6.32 7 7.64 7 9 C3.91 11.06 3.29 11.24 -0.19 11.12 C-0.82 11.1 -0.82 11.1 -4 11 C-4 9.35 -4 7.7 -4 6 C-3.34 6 -2.68 6 -2 6 C-1.86 5.2 -1.71 4.39 -1.56 3.56 C-1 1 -1 1 0 0 Z " fill="#8C8170" transform="translate(66,46)"/>
<path d="M0 0 C1.32 0.33 2.64 0.66 4 1 C2.68 1 1.36 1 0 1 C0 0.67 0 0.34 0 0 Z " fill="#CDCFD5" transform="translate(22,0)"/>
</svg>
