<?xml version="1.0" encoding="UTF-8"?>
<!-- Generator: visioncortex VTracer 0.6.12 -->
<svg version="1.1" xmlns="http://www.w3.org/2000/svg" width="181" height="91">
<path d="M0 0 C1.77 0.04 3.55 0.16 5.31 0.31 C5.8 0.35 5.8 0.35 8.24 0.55 C10.89 0.98 12.69 1.66 15 3 C15 3.66 15 4.32 15 5 C17.08 4.86 19.17 4.71 21.25 4.56 C22.41 4.48 23.57 4.4 24.77 4.32 C27.31 4.07 29.56 3.72 32 3 C32 3.66 32 4.32 32 5 C33.09 4.96 34.19 4.92 35.31 4.88 C39 5 39 5 42 7 C43.99 7.7 45.99 8.37 48 9 C49.12 14.63 49.12 14.63 48 18 C48.7 17.88 49.4 17.76 50.12 17.64 C56.12 16.83 60.11 16.83 65.44 19.8 C68.71 22.32 69.37 25.13 70 29 C70.94 29.04 71.88 29.07 72.85 29.11 C73.47 29.15 73.47 29.15 76.62 29.31 C77.24 29.34 77.24 29.34 80.35 29.49 C84.18 30.03 86.72 30.96 90 33 C90.31 33.85 90.62 34.69 90.94 35.56 C91.29 36.37 91.64 37.17 92 38 C94.32 38.71 96.66 39.37 99 40 C101.68 41.44 102.9 42.64 105 45 C104.94 48.31 104.94 48.31 104 52 C103.86 53.42 103.74 54.83 103.62 56.25 C103 60 103 60 101.75 61.94 C97.92 64.26 93.55 64.12 89.19 64.06 C88.7 64.06 88.7 64.06 86.23 64.04 C85.49 64.02 84.76 64.01 84 64 C84 65.32 84 66.64 84 68 C79.15 69.99 74.2 70.92 69 70 C68.49 69.48 67.99 68.96 67.46 68.43 C66.98 67.96 66.5 67.49 66 67 C64.03 67.43 62.06 67.87 60.12 68.44 C54.81 69.84 50.93 68.97 46 67 C43.67 66.92 41.33 66.91 39 67 C38.67 67.66 38.67 67.66 37 71 C35.89 70.98 34.77 70.96 33.62 70.94 C30 71 30 71 28 72 C22.82 72.3 18.86 71.59 14 70 C13.67 68.68 13.34 67.36 13 66 C11.8 66.04 10.61 66.08 9.38 66.12 C5.56 66.12 2.54 65.52 -1 64 C-3.76 61.24 -3.58 58.79 -4 55 C-5.32 54.67 -6.64 54.34 -8 54 C-8.16 54.62 -8.33 55.24 -8.5 55.88 C-10.57 58.81 -12.6 59.12 -16.03 59.81 C-18 60 -18 60 -20.44 59.38 C-22.35 57.69 -22.67 56.5 -23 54 C-23.91 54.21 -24.81 54.41 -25.75 54.62 C-29.11 55.01 -30.24 54.8 -33 53 C-33 52.34 -33 51.68 -33 51 C-33.78 51.21 -34.57 51.41 -35.38 51.62 C-36.24 51.75 -37.11 51.87 -38 52 C-40.69 49.31 -41.06 46.62 -42 43 C-42.99 43 -43.98 43 -45 43 C-48.03 42.7 -49.51 42.54 -51.59 40.25 C-53.12 37.81 -53.6 36.02 -54.06 33.19 C-54.6 30.08 -55.21 27.13 -56.19 24.12 C-57 21 -57.22 19.89 -56 17 C-54.19 16.02 -54.19 16.02 -52 15.38 C-49.81 14.71 -49.81 14.71 -48 14 C-47.67 13.34 -47.34 12.68 -47 12 C-43.56 11.16 -40.39 10.99 -36.88 11.12 C-33 11 -33 11 -31.26 9.5 C-27.97 7.32 -24.8 7.72 -21 7.88 C-12.37 8.14 -12.37 8.14 -9 7 C-8.67 5.68 -8.34 4.36 -8 3 C-6.87 2.69 -5.73 2.38 -4.56 2.06 C-1 1 -1 1 0 0 Z " fill="#D4B37F" transform="translate(67,10)"/>
<path d="M0 0 C6.93 0 13.86 0 21 0 C21 1.32 21 2.64 21 4 C23.31 4 25.62 4 28 4 C28.16 4.66 28.16 4.66 29 8 C28.01 8.33 27.02 8.66 26 9 C26 9.66 26 10.32 26 11 C23.03 11 20.06 11 17 11 C17 11.66 17 12.32 17 13 C14.36 13.33 11.72 13.66 9 14 C9 14.66 9 15.32 9 16 C12.3 15.34 15.6 14.68 19 14 C19 14.99 19 15.98 19 17 C18.01 17 17.02 17 16 17 C16.46 20.47 16.89 23.67 18 27 C18.66 27 19.32 27 20 27 C20 24.69 20 22.38 20 20 C21.98 19.67 23.96 19.34 26 19 C26 18.34 26 17.68 26 17 C24.68 16.34 23.36 15.68 22 15 C22 14.67 22 14.34 22 14 C23.98 14 25.96 14 28 14 C28 13.34 28 12.68 28 12 C28.66 12 29.32 12 30 12 C30 10.68 30 9.36 30 8 C33.63 7.67 37.26 7.34 41 7 C40.67 7.99 40.34 8.98 40 10 C42.31 10.66 44.62 11.32 47 12 C47 12.66 47 13.32 47 14 C47.66 14 48.32 14 49 14 C51.33 14 53.67 14 56 14 C56 14.66 56 15.32 56 16 C56.56 15.81 57.11 15.62 57.69 15.42 C62.33 14.07 65.16 13.62 69.56 15.88 C70.72 16.56 71.88 17.26 73 18 C73 17.34 73 16.68 73 16 C74.98 16 76.96 16 79 16 C79.16 16.49 79.16 16.49 80 19 C72.86 21.78 64.54 23.95 57 22 C57 22.99 57 23.98 57 25 C56.16 25.19 55.31 25.39 54.45 25.59 C53.9 25.72 53.9 25.72 51.12 26.38 C50.03 26.63 48.94 26.89 47.82 27.15 C45 28 45 28 43 30 C42.8 32.82 42.8 32.82 42.88 36.12 C42.89 37.22 42.91 38.32 42.93 39.45 C42.95 40.29 42.98 41.13 43 42 C41.68 42 40.36 42 39 42 C38.84 42.62 38.67 43.24 38.5 43.88 C36.43 46.81 34.4 47.12 30.97 47.81 C29 48 29 48 26.56 47.38 C24.65 45.69 24.33 44.5 24 42 C23.09 42.21 22.19 42.41 21.25 42.62 C17.89 43.01 16.76 42.8 14 41 C14 40.34 14 39.68 14 39 C13.22 39.21 12.43 39.41 11.62 39.62 C10.76 39.75 9.89 39.87 9 40 C6.31 37.31 5.94 34.62 5 31 C4.01 31 3.02 31 2 31 C-1.03 30.7 -2.51 30.54 -4.59 28.25 C-6.12 25.81 -6.6 24.02 -7.06 21.19 C-7.6 18.08 -8.21 15.13 -9.19 12.12 C-10 9 -10.22 7.89 -9 5 C-7.19 4.02 -7.19 4.02 -5 3.38 C-2.81 2.71 -2.81 2.71 -1 2 C-0.67 1.34 -0.34 0.68 0 0 Z " fill="#757372" transform="translate(20,22)"/>
<path d="M0 0 C1.77 0.04 3.55 0.16 5.31 0.31 C5.8 0.35 5.8 0.35 8.24 0.55 C10.89 0.98 12.69 1.66 15 3 C15 3.66 15 4.32 15 5 C17.08 4.86 19.17 4.71 21.25 4.56 C22.41 4.48 23.57 4.4 24.77 4.32 C27.31 4.07 29.56 3.72 32 3 C32 3.66 32 4.32 32 5 C33.09 4.94 34.19 4.88 35.31 4.81 C39 5 39 5 40.94 6.5 C41.29 7 41.64 7.49 42 8 C40.12 8.62 40.12 8.62 38 9 C37.67 8.67 37.67 8.67 36 7 C35.01 6.67 34.02 6.34 33 6 C33 6.66 33 7.32 33 8 C33.33 8.33 33.33 8.33 35 10 C32 12 32 12 30.11 11.63 C29.41 11.42 28.72 11.21 28 11 C26.42 10.93 24.83 10.91 23.25 10.94 C22.85 10.94 22.85 10.94 20.83 10.96 C20.22 10.98 19.62 10.99 19 11 C19 11.66 19 12.32 19 13 C18.52 13.05 18.52 13.05 16.06 13.31 C12.16 13.85 8.61 15.05 4.92 16.38 C3 17 3 17 1 17 C1 17.99 1 18.98 1 20 C3.08 20.03 5.17 20.05 7.25 20.06 C7.83 20.07 7.83 20.07 10.77 20.1 C13.41 20.02 15.5 19.79 18 19 C18.21 19.64 18.41 20.28 18.62 20.94 C20 23 20 23 23.12 23.75 C24.07 23.83 25.02 23.91 26 24 C26 24.33 26 24.66 26 25 C18.87 25.35 13.53 24.96 7 22 C8.51 25.01 11.03 25.61 14 27 C14 27.33 14 27.66 14 28 C12.35 28 10.7 28 9 28 C9 27.34 9 26.68 9 26 C5.04 26.66 1.08 27.32 -3 28 C-2.67 27.34 -2.34 26.68 -2 26 C-1.34 26 -0.68 26 0 26 C0 25.34 0 24.68 0 24 C-1.98 24 -3.96 24 -6 24 C-6.16 23.34 -6.16 23.34 -7 20 C-10.3 20 -13.6 20 -17 20 C-17 21.32 -17 22.64 -17 24 C-17.66 24 -18.32 24 -19 24 C-19 24.66 -19 25.32 -19 26 C-19.66 26.66 -20.32 27.32 -21 28 C-21 28.99 -21 29.98 -21 31 C-22.98 31.33 -24.96 31.66 -27 32 C-27 34.31 -27 36.62 -27 39 C-27.66 39 -28.32 39 -29 39 C-31.43 35.36 -31.16 33.29 -31 29 C-30.01 29 -29.02 29 -28 29 C-28 28.01 -28 27.02 -28 26 C-28.72 26.33 -29.44 26.66 -30.19 27 C-33.02 28.01 -35.03 28.17 -38 28 C-38 27.34 -38 26.68 -38 26 C-36.68 25.84 -36.68 25.84 -30 25 C-30 24.34 -30 23.68 -30 23 C-27.03 23 -24.06 23 -21 23 C-21 22.34 -21 21.68 -21 21 C-20.34 20.67 -19.68 20.34 -19 20 C-19 19.01 -19 18.02 -19 17 C-21.31 16.67 -23.62 16.34 -26 16 C-26 14.68 -26 13.36 -26 12 C-26.78 12.16 -27.57 12.33 -28.38 12.5 C-32.89 13.12 -37.45 13.48 -42 13 C-42.66 12.34 -43.32 11.68 -44 11 C-43.25 11.03 -42.5 11.07 -41.73 11.11 C-40.75 11.13 -39.76 11.16 -38.75 11.19 C-37.78 11.22 -36.8 11.26 -35.8 11.29 C-33 11 -33 11 -31.14 9.5 C-27.95 7.26 -24.74 7.72 -21 7.88 C-12.37 8.14 -12.37 8.14 -9 7 C-8.67 5.68 -8.34 4.36 -8 3 C-6.87 2.69 -5.73 2.38 -4.56 2.06 C-1 1 -1 1 0 0 Z " fill="#AC9A5F" transform="translate(67,10)"/>
<path d="M0 0 C-0.33 0.99 -0.66 1.98 -1 3 C1.31 3.66 3.62 4.32 6 5 C6 5.66 6 6.32 6 7 C6.66 7 7.32 7 8 7 C10.33 7 12.67 7 15 7 C15 7.66 15 8.32 15 9 C15.56 8.81 16.11 8.62 16.69 8.42 C21.33 7.07 24.16 6.62 28.56 8.88 C29.72 9.56 30.88 10.26 32 11 C32 10.34 32 9.68 32 9 C33.98 9 35.96 9 38 9 C38.16 9.5 38.16 9.5 39 12 C31.86 14.78 23.54 16.95 16 15 C16 15.99 16 16.98 16 18 C15.16 18.19 14.31 18.39 13.45 18.59 C12.9 18.72 12.9 18.72 10.12 19.38 C9.58 19.5 9.58 19.5 6.82 20.15 C4 21 4 21 2 23 C1.8 25.82 1.8 25.82 1.88 29.12 C1.88 29.67 1.88 29.67 1.93 32.45 C1.95 33.29 1.98 34.13 2 35 C1.01 35 0.02 35 -1 35 C-1 34.34 -1 33.68 -1 33 C-4.63 33 -8.26 33 -12 33 C-12.33 29.37 -12.66 25.74 -13 22 C-14.65 22 -16.3 22 -18 22 C-18.33 20.67 -18.67 19.33 -19 18 C-19.21 17.3 -19.41 16.6 -19.62 15.88 C-20 14 -20 14 -19 12 C-17.68 12 -16.36 12 -15 12 C-15 11.34 -15 10.68 -15 10 C-16.32 9.34 -17.64 8.68 -19 8 C-19 7.67 -19 7.34 -19 7 C-17.02 7 -15.04 7 -13 7 C-13 6.34 -13 5.68 -13 5 C-12.34 5 -11.68 5 -11 5 C-11 3.68 -11 2.36 -11 1 C-7.28 0.31 -3.79 -0.11 0 0 Z " fill="#837650" transform="translate(61,29)"/>
<path d="M0 0 C4.62 0.66 9.24 1.32 14 2 C12.68 3.32 11.36 4.64 10 6 C10 7.32 10 8.64 10 10 C10.66 10 11.32 10 12 10 C12.08 9.22 12.16 8.43 12.25 7.62 C13 5 13 5 15.06 3.69 C15.7 3.46 16.34 3.23 17 3 C17 3.66 17 4.32 17 5 C18.98 4.67 20.96 4.34 23 4 C22.67 4.99 22.34 5.98 22 7 C19.44 8.19 19.44 8.19 17 9 C22.72 11 28.17 11.38 34.21 11.66 C37 12 37 12 39 14 C38.98 16.16 38.98 16.16 38.62 18.62 C38.51 19.44 38.4 20.26 38.29 21.1 C38.19 21.73 38.1 22.35 38 23 C36.68 23.33 35.36 23.66 34 24 C34 23.34 34 22.68 34 22 C32.68 22.33 31.36 22.66 30 23 C30.66 21.68 31.32 20.36 32 19 C30.35 19 28.7 19 27 19 C26.84 19.5 26.84 19.5 26 22 C20.72 21.67 15.44 21.34 10 21 C10 20.34 10 19.68 10 19 C9.01 19.33 8.02 19.66 7 20 C6.84 18.84 6.84 18.84 6 13 C4.97 13.68 3.94 14.36 2.88 15.06 C-0.07 16.77 -0.86 17.01 -4.44 16.75 C-5.28 16.5 -6.13 16.25 -7 16 C-6.34 14.02 -5.68 12.04 -5 10 C-6.32 10 -7.64 10 -9 10 C-9 11.65 -9 13.3 -9 15 C-11.33 15.38 -13.66 15.71 -16 16 C-17 15 -17 15 -17.06 12.44 C-17.04 11.63 -17.02 10.83 -17 10 C-17.66 10 -18.32 10 -19 10 C-19.33 13.63 -19.66 17.26 -20 21 C-20.66 21 -21.32 21 -22 21 C-22.33 19.68 -22.66 18.36 -23 17 C-23.66 17 -24.32 17 -25 17 C-25 17.99 -25 18.98 -25 20 C-25.66 20 -26.32 20 -27 20 C-28.1 16.71 -27.8 15.29 -27 12 C-25.68 11.67 -24.36 11.34 -23 11 C-23 10.34 -23 9.68 -23 9 C-24.65 8.67 -26.3 8.34 -28 8 C-28.04 6 -28.04 4 -28 2 C-27 1 -27 1 -24.5 0.9 C-23.99 0.91 -23.99 0.91 -21.44 0.94 C-20.43 0.95 -19.41 0.96 -18.37 0.96 C-17.98 0.97 -17.98 0.97 -16 1 C-17 3.99 -17.75 4.95 -20 7 C-18.84 6.48 -17.69 5.97 -16.5 5.44 C-11.93 3.69 -8.75 4.07 -4 5 C-4 4.34 -4 3.68 -4 3 C-2.68 2.67 -1.36 2.34 0 2 C0 1.34 0 0.68 0 0 Z " fill="#877D64" transform="translate(101,53)"/>
<path d="M0 0 C8.62 0.75 8.62 0.75 12 3 C11.67 4.98 11.34 6.96 11 9 C12.65 9 14.3 9 16 9 C16 10.32 16 11.64 16 13 C14.68 13 13.36 13 12 13 C12 15.64 12 18.28 12 21 C12.66 21 13.32 21 14 21 C14 20.01 14 19.02 14 18 C14.66 18 15.32 18 16 18 C16.33 19.32 16.66 20.64 17 22 C17.66 22 18.32 22 19 22 C19.33 18.37 19.66 14.74 20 11 C20.66 11 21.32 11 22 11 C22.33 12.65 22.66 14.3 23 16 C25.31 16 27.62 16 30 16 C30 14.35 30 12.7 30 11 C31.32 11 32.64 11 34 11 C33.67 12.65 33.34 14.3 33 16 C35.59 16.94 37.29 17.31 39.86 16.18 C41.59 15.15 43.3 14.08 45 13 C45.33 13 45.66 13 46 13 C46.16 14.16 46.16 14.16 47 20 C47.66 20 48.32 20 49 20 C49 20.66 49 21.32 49 22 C49.78 21.81 50.57 21.63 51.38 21.44 C56.04 20.87 60.36 21.4 65 22 C65.33 21.34 65.66 20.68 66 20 C67.65 20 69.3 20 71 20 C71 21.32 71 22.64 71 24 C66.2 27.2 61.71 27.31 56 27 C54.33 26.33 52.67 25.67 51 25 C48.67 24.92 46.33 24.91 44 25 C43.34 26.32 42.68 27.64 42 29 C40.89 28.98 39.77 28.96 38.62 28.94 C35 29 35 29 33 30 C27.82 30.3 23.86 29.59 19 28 C18.67 26.68 18.34 25.36 18 24 C16.8 24.04 15.61 24.08 14.38 24.12 C10.56 24.12 7.54 23.52 4 22 C1.24 19.24 1.42 16.79 1 13 C0.01 12.67 -0.98 12.34 -2 12 C-1.01 12 -0.02 12 1 12 C0.67 8.04 0.34 4.08 0 0 Z " fill="#998E81" transform="translate(62,52)"/>
<path d="M0 0 C5.88 0.88 5.88 0.88 7 2 C8.13 1.96 9.27 1.92 10.44 1.88 C11.61 1.92 12.79 1.96 14 2 C16.79 6.18 15.8 8.15 15 13 C18.63 13 22.26 13 26 13 C18.15 18.23 18.15 18.23 14 19 C14 20.32 14 21.64 14 23 C12.35 23 10.7 23 9 23 C9 22.01 9 21.02 9 20 C7.02 19.34 5.04 18.68 3 18 C2.84 18.16 2.84 18.16 2 19 C-3.7 19.53 -8.61 18.83 -14 17 C-14.33 15.68 -14.66 14.36 -15 13 C-15.54 13.33 -16.09 13.65 -16.65 13.99 C-19.47 15.2 -21.56 15.23 -24.62 15.19 C-25.59 15.18 -26.55 15.17 -27.54 15.17 C-30 15 -30 15 -32 14 C-32 13.01 -32 12.02 -32 11 C-31.37 10.8 -30.75 10.59 -30.1 10.38 C-29.28 10.11 -28.47 9.84 -27.62 9.56 C-26.81 9.3 -26 9.03 -25.16 8.75 C-23 8 -23 8 -21 7 C-18.67 6.96 -16.33 6.96 -14 7 C-14 6.34 -14 5.68 -14 5 C-9.92 2.96 -5.27 3.85 -1 5 C-0.67 4.67 -0.34 4.34 0 4 C-0.66 3.34 -1.32 2.68 -2 2 C-1.34 2 -0.68 2 0 2 C0 1.34 0 0.68 0 0 Z " fill="#928455" transform="translate(100,16)"/>
<path d="M0 0 C-0.66 0 -1.32 0 -2 0 C-1.67 0.66 -1.34 1.32 -1 2 C-0.32 1.86 0.36 1.71 1.06 1.56 C4.36 0.93 7.67 0.46 11 0 C9.68 0.33 8.36 0.66 7 1 C7 1.66 7 2.32 7 3 C9.97 3 12.94 3 16 3 C15.67 3.99 15.34 4.98 15 6 C16.65 6 18.3 6 20 6 C20 6.66 20 7.32 20 8 C20.99 8 21.98 8 23 8 C23 7.34 23 6.68 23 6 C22.34 5.67 21.68 5.34 21 5 C21.34 5.07 21.34 5.07 23.06 5.44 C26.36 6.07 29.67 6.54 33 7 C33 7.99 33 8.98 33 10 C36.3 10 39.6 10 43 10 C43 10.99 43 11.98 43 13 C37.98 13.63 33.07 14.13 28 14 C28 13.34 28 12.68 28 12 C24.18 14.46 24.18 14.46 23.25 17.19 C23.17 17.79 23.09 18.38 23 19 C22.34 19 21.68 19 21 19 C20.84 18.34 20.84 18.34 20 15 C21.32 14.01 22.64 13.02 24 12 C23.4 11.95 22.79 11.9 22.17 11.85 C21.37 11.78 20.57 11.7 19.75 11.62 C18.96 11.56 18.17 11.49 17.36 11.41 C14.91 10.98 13.15 10.21 11 9 C11 9.66 11 10.32 11 11 C9.68 11.33 8.36 11.66 7 12 C7 12.66 7 13.32 7 14 C5.76 13.96 4.53 13.92 3.25 13.88 C-0.1 13.86 -2.07 14.32 -5 16 C-6.32 16 -7.64 16 -9 16 C-8 13.01 -7.25 12.05 -5 10 C-5.46 10.01 -5.46 10.01 -7.78 10.07 C-14.57 10.17 -20.52 10.07 -27 8 C-24.54 4.32 -23.22 4.05 -19 3 C-15.62 2.88 -15.62 2.88 -13 3 C-13 2.01 -13 1.02 -13 0 C-11.89 0.02 -10.77 0.04 -9.62 0.06 C-0.33 -0.1 -0.33 -0.1 0 0 Z " fill="#B19667" transform="translate(90,44)"/>
<path d="M0 0 C6.93 0 13.86 0 21 0 C21 1.32 21 2.64 21 4 C23.31 4 25.62 4 28 4 C28.16 4.66 28.16 4.66 29 8 C28.01 8.33 27.02 8.66 26 9 C26 9.66 26 10.32 26 11 C23.03 11 20.06 11 17 11 C17 11.66 17 12.32 17 13 C13.37 13.66 9.74 14.32 6 15 C6.33 17.97 6.66 20.94 7 24 C6.01 23.67 5.02 23.34 4 23 C4 23.66 4 24.32 4 25 C3.34 25 2.68 25 2 25 C2 24.34 2 23.68 2 23 C1.38 22.96 0.76 22.92 0.12 22.88 C-0.23 22.73 -0.23 22.73 -2 22 C-3.25 18.94 -3.25 18.94 -4 16 C-5.65 15.67 -7.3 15.34 -9 15 C-10.34 7.59 -10.34 7.59 -8.94 5.12 C-6.41 3.66 -3.77 2.9 -1 2 C-0.67 1.34 -0.34 0.68 0 0 Z " fill="#94865D" transform="translate(20,22)"/>
<path d="M0 0 C0.15 0.42 0.15 0.42 0.94 2.56 C1.29 3.37 1.64 4.17 2 5 C4.32 5.71 6.66 6.37 9 7 C11.68 8.44 12.9 9.64 15 12 C14.94 15.31 14.94 15.31 14 19 C13.86 20.42 13.74 21.83 13.62 23.25 C13 27 13 27 11.75 28.94 C7.92 31.26 3.55 31.12 -0.81 31.06 C-1.79 31.05 -2.76 31.04 -3.77 31.04 C-4.14 31.03 -4.14 31.03 -6 31 C-6 32.32 -6 33.64 -6 35 C-11.13 37.1 -15.56 37.22 -21 37 C-21.33 36.34 -21.66 35.68 -22 35 C-20.02 35 -18.04 35 -16 35 C-15.67 34.34 -15.34 33.68 -15 33 C-14.01 33 -13.02 33 -12 33 C-12 32.34 -12 31.68 -12 31 C-11.36 30.88 -10.72 30.75 -10.06 30.62 C-9.38 30.42 -8.7 30.21 -8 30 C-7.67 29.34 -7.34 28.68 -7 28 C-7 28.66 -7 29.32 -7 30 C-5.35 29.84 -5.35 29.84 3 29 C3 27.35 3 25.7 3 24 C3.66 24 4.32 24 5 24 C5 24.99 5 25.98 5 27 C5.66 27 6.32 27 7 27 C7 26.34 7 25.68 7 25 C7.66 25 8.32 25 9 25 C9.03 24.69 9.03 24.69 9.18 23.1 C9.27 22.28 9.35 21.47 9.44 20.62 C9.52 19.81 9.6 19 9.68 18.16 C10 16 10 16 11 14 C7.75 15.62 7.3 18.75 6 22 C4 21 4 21 3 18 C-0.43 16.54 -3.94 15.78 -7.56 15 C-10.87 14.29 -13.95 13.52 -17 12 C-17.33 11.34 -17.66 10.68 -18 10 C-12.25 9.88 -12.25 9.88 -10 11 C-9.67 10.01 -9.34 9.02 -9 8 C-7.02 7.67 -5.04 7.34 -3 7 C-3 6.34 -3 5.68 -3 5 C-3.66 5 -4.32 5 -5 5 C-5 4.01 -5 3.02 -5 2 C-6.65 1.34 -8.3 0.68 -10 0 C-10.66 0.66 -11.32 1.32 -12 2 C-15.04 1.98 -15.04 1.98 -18.62 1.62 C-19.81 1.51 -21 1.4 -22.23 1.29 C-22.68 1.24 -22.68 1.24 -25 1 C-25 0.34 -25 -0.32 -25 -1 C-22.67 -1.67 -20.33 -2.34 -18 -3 C-17.36 -3.23 -16.72 -3.45 -16.06 -3.69 C-10.33 -4.56 -4.78 -3.18 0 0 Z " fill="#CFBB9F" transform="translate(157,43)"/>
<path d="M0 0 C0 1.65 0 3.3 0 5 C1.32 4.67 2.64 4.34 4 4 C3.67 4.99 3.34 5.98 3 7 C1.02 7 -0.96 7 -3 7 C-3 7.66 -3 8.32 -3 9 C-2.15 8.81 -1.31 8.63 -0.44 8.44 C3.28 7.96 6.33 8.34 10 9 C10 8.34 10 7.68 10 7 C12.93 7.63 15.36 8.59 18 10 C17.67 10.99 17.34 11.98 17 13 C17.66 13 18.32 13 19 13 C19.16 13.5 19.16 13.5 20 16 C18.87 16.12 17.73 16.25 16.56 16.38 C15.39 16.58 14.21 16.79 13 17 C12.67 17.66 12.34 18.32 12 19 C10.97 18.69 9.94 18.38 8.88 18.06 C2.7 16.49 -3.66 16.34 -10 16 C-10 15.34 -10 14.68 -10 14 C-11.32 13.67 -12.64 13.34 -14 13 C-13.01 12.34 -12.02 11.68 -11 11 C-12.67 10.96 -14.33 10.96 -16 11 C-16.33 11.33 -16.66 11.66 -17 12 C-19.33 12.04 -21.67 12.04 -24 12 C-24.66 10.35 -25.32 8.7 -26 7 C-23.36 6.67 -20.72 6.34 -18 6 C-18 5.34 -18 4.68 -18 4 C-16.68 4 -15.36 4 -14 4 C-14 3.34 -14 2.68 -14 2 C-14.66 2 -15.32 2 -16 2 C-16 1.34 -16 0.68 -16 0 C-10.47 -0.71 -5.5 -1.3 0 0 Z " fill="#B09D67" transform="translate(135,35)"/>
<path d="M0 0 C8.26 -0.16 8.26 -0.16 11 1 C11.33 1.99 11.66 2.98 12 4 C11.34 4 10.68 4 10 4 C10.33 6.31 10.66 8.62 11 11 C11.66 11 12.32 11 13 11 C13 10.01 13 9.02 13 8 C13.66 8 14.32 8 15 8 C14.67 6.35 14.34 4.7 14 3 C15.32 3 16.64 3 18 3 C18 3.66 18 4.32 18 5 C20.97 5.33 23.94 5.66 27 6 C27.33 4.35 27.66 2.7 28 1 C28.99 1 29.98 1 31 1 C31 1.66 31 2.32 31 3 C32.32 3.33 33.64 3.66 35 4 C35 4.66 35 5.32 35 6 C34.16 6.19 33.31 6.39 32.45 6.59 C31.35 6.85 30.25 7.11 29.12 7.38 C28.03 7.63 26.94 7.89 25.82 8.15 C23 9 23 9 21 11 C20.8 13.82 20.8 13.82 20.88 17.12 C20.88 17.67 20.88 17.67 20.93 20.45 C20.95 21.29 20.98 22.13 21 23 C20.01 23 19.02 23 18 23 C18 22.34 18 21.68 18 21 C14.37 21 10.74 21 7 21 C6.67 17.37 6.34 13.74 6 10 C4.35 10 2.7 10 1 10 C0.67 8.67 0.33 7.33 0 6 C-0.21 5.3 -0.41 4.6 -0.62 3.88 C-1 2 -1 2 0 0 Z " fill="#595851" transform="translate(42,41)"/>
<path d="M0 0 C0.33 0.66 0.66 1.32 1 2 C4.3 1.34 7.6 0.68 11 0 C11 0.99 11 1.98 11 3 C10.01 3 9.02 3 8 3 C7.67 3.66 7.34 4.32 7 5 C6.17 4.84 6.17 4.84 2 4 C1.71 9.63 1.88 13.1 5 18 C7.19 20.38 7.19 20.38 9 22 C8.84 21.17 8.84 21.17 8 17 C8.66 17 9.32 17 10 17 C10 17.66 10 18.32 10 19 C11.32 18.67 12.64 18.34 14 18 C13.75 19.48 13.47 20.96 13.19 22.44 C13.04 23.26 12.89 24.08 12.73 24.93 C12.49 25.62 12.25 26.3 12 27 C9 28 9 28 6 27 C6 26.34 6 25.68 6 25 C5.61 25.1 5.61 25.1 3.62 25.62 C2.76 25.75 1.89 25.87 1 26 C-1.69 23.31 -2.06 20.62 -3 17 C-3.99 17 -4.98 17 -6 17 C-8.98 16.7 -10.5 16.53 -12.58 14.31 C-14.25 11.59 -14.7 9.39 -15.19 6.25 C-15.35 5.27 -15.5 4.28 -15.67 3.27 C-15.78 2.52 -15.89 1.77 -16 1 C-15.18 1.16 -15.18 1.16 -11 2 C-10.73 2.97 -10.46 3.94 -10.19 4.94 C-9.8 5.95 -9.4 6.96 -9 8 C-8.01 8.33 -7.02 8.66 -6 9 C-6 9.66 -6 10.32 -6 11 C-5.34 11 -4.68 11 -4 11 C-4 10.34 -4 9.68 -4 9 C-3.34 9 -2.68 9 -2 9 C-2 6.36 -2 3.72 -2 1 C-1.34 0.67 -0.68 0.34 0 0 Z " fill="#8F867B" transform="translate(28,36)"/>
<path d="M0 0 C0.66 0 1.32 0 2 0 C1.34 3.63 0.68 7.26 0 11 C-0.66 11 -1.32 11 -2 11 C-2 11.66 -2 12.32 -2 13 C-2.66 13 -3.32 13 -4 13 C-4 12.01 -4 11.02 -4 10 C-4.66 10 -5.32 10 -6 10 C-6 11.65 -6 13.3 -6 15 C-6.33 15.03 -6.33 15.03 -8.01 15.18 C-16.78 16.02 -16.78 16.02 -21 17 C-21 17.66 -21 18.32 -21 19 C-21.99 19 -22.98 19 -24 19 C-24.33 19.99 -24.66 20.98 -25 22 C-27.31 21.67 -29.62 21.34 -32 21 C-32.33 20.01 -32.66 19.02 -33 18 C-32.01 18.33 -31.02 18.66 -30 19 C-29.34 18.67 -28.68 18.34 -28 18 C-27.86 17.26 -27.71 16.52 -27.56 15.75 C-26.91 12.55 -26.04 10.55 -24 8 C-21.31 7.69 -21.31 7.69 -19 8 C-19 7.34 -19 6.68 -19 6 C-18.01 6 -17.02 6 -16 6 C-16.33 4.68 -16.66 3.36 -17 2 C-12.5 1.82 -9.01 1.82 -5 4 C-4.67 4.49 -4.67 4.49 -3 7 C-2.01 4.69 -1.02 2.38 0 0 Z " fill="#AE9D81" transform="translate(166,57)"/>
<path d="M0 0 C0.16 0.33 0.16 0.33 1 2 C-0.65 2 -2.3 2 -4 2 C-4 2.66 -4 3.32 -4 4 C-5.65 4 -7.3 4 -9 4 C-9 4.66 -9 5.32 -9 6 C-6.03 6 -3.06 6 0 6 C0 6.66 0 7.32 0 8 C-1.98 8 -3.96 8 -6 8 C-5 10 -5 10 -2 12 C-3 13 -3 13 -6.06 13.06 C-7.03 13.04 -8 13.02 -9 13 C-9 14.32 -9 15.64 -9 17 C-9.66 17 -10.32 17 -11 17 C-11 17.66 -11 18.32 -11 19 C-11.66 19.66 -12.32 20.32 -13 21 C-13 21.99 -13 22.98 -13 24 C-14.98 24.33 -16.96 24.66 -19 25 C-19 27.31 -19 29.62 -19 32 C-19.66 32 -20.32 32 -21 32 C-23.43 28.36 -23.16 26.29 -23 22 C-22.01 22 -21.02 22 -20 22 C-20 21.01 -20 20.02 -20 19 C-20.72 19.33 -21.44 19.66 -22.19 20 C-25.02 21.01 -27.03 21.17 -30 21 C-30 20.34 -30 19.68 -30 19 C-28.68 18.84 -28.68 18.84 -22 18 C-22 17.34 -22 16.68 -22 16 C-19.03 16 -16.06 16 -13 16 C-13 15.34 -13 14.68 -13 14 C-12.34 13.67 -11.68 13.34 -11 13 C-11 12.01 -11 11.02 -11 10 C-13.31 9.67 -15.62 9.34 -18 9 C-18 7.68 -18 6.36 -18 5 C-18.78 5.16 -19.57 5.33 -20.38 5.5 C-24.89 6.12 -29.45 6.48 -34 6 C-34.66 5.34 -35.32 4.68 -36 4 C-35.63 4.02 -35.63 4.02 -33.73 4.11 C-33.24 4.12 -33.24 4.12 -30.75 4.19 C-29.78 4.22 -28.8 4.26 -27.8 4.29 C-25 4 -25 4 -23.14 2.5 C-19.96 0.27 -16.79 0.72 -13.06 0.88 C-8.58 1.01 -4.38 1.11 0 0 Z " fill="#DBC4A1" transform="translate(59,17)"/>
<path d="M0 0 C2.31 0.33 4.62 0.66 7 1 C6.34 1.33 6.34 1.33 3 3 C7.74 5.23 11.72 6.46 17 7 C17 7.33 17 7.66 17 8 C15.35 8 13.7 8 12 8 C12.16 8.66 12.16 8.66 13 12 C12.01 12 11.02 12 10 12 C10 12.66 10 13.32 10 14 C8.69 14.36 7.38 14.71 6.06 15.06 C5.7 15.16 5.7 15.16 3.85 15.66 C3.24 15.77 2.63 15.88 2 16 C1.67 15.67 1.34 15.34 1 15 C-1.02 14.84 -3.04 14.72 -5.06 14.62 C-10.65 14.25 -14.92 13.29 -20 11 C-15.09 7.73 -11.77 6.73 -5.93 6.34 C-5.29 6.23 -4.65 6.12 -4 6 C-3.67 5.34 -3.34 4.68 -3 4 C-1.68 4.33 -0.36 4.66 1 5 C0.67 3.35 0.34 1.7 0 0 Z " fill="#D0B98A" transform="translate(137,51)"/>
<path d="M0 0 C0.5 0.01 0.5 0.01 3.06 0.04 C4.07 0.04 5.08 0.05 6.12 0.06 C6.52 0.07 6.52 0.07 8.5 0.1 C7.5 3.09 6.74 4.05 4.5 6.1 C5.04 5.88 5.58 5.66 6.14 5.44 C6.86 5.16 7.57 4.88 8.31 4.6 C8.66 4.46 8.66 4.46 10.45 3.75 C12.5 3.1 12.5 3.1 15.5 3.1 C15.5 4.09 15.5 5.08 15.5 6.1 C16.21 6.15 16.92 6.2 17.65 6.25 C18.57 6.32 19.49 6.4 20.43 6.47 C20.89 6.51 20.89 6.51 23.21 6.68 C23.59 6.75 23.59 6.75 25.5 7.1 C25.83 7.76 26.16 8.42 26.5 9.1 C22.48 9.94 19.48 10.15 15.5 9.1 C15.5 10.75 15.5 12.4 15.5 14.1 C13.17 14.48 10.84 14.81 8.5 15.1 C7.5 14.1 7.5 14.1 7.43 11.54 C7.45 10.73 7.47 9.93 7.5 9.1 C6.84 9.1 6.18 9.1 5.5 9.1 C5.17 12.73 4.84 16.36 4.5 20.1 C3.84 20.1 3.18 20.1 2.5 20.1 C2.17 18.78 1.84 17.46 1.5 16.1 C0.84 16.1 0.18 16.1 -0.5 16.1 C-0.5 17.09 -0.5 18.08 -0.5 19.1 C-1.16 19.1 -1.82 19.1 -2.5 19.1 C-3.6 15.81 -3.3 14.38 -2.5 11.1 C-1.18 10.77 0.14 10.44 1.5 10.1 C1.5 9.44 1.5 8.78 1.5 8.1 C-0.15 7.77 -1.8 7.44 -3.5 7.1 C-3.55 5.1 -3.54 3.1 -3.5 1.1 C-2.5 0.1 -2.5 0.1 0 0 Z " fill="#615E53" transform="translate(76.50390625,53.90234375)"/>
<path d="M0 0 C-0.33 0.66 -0.66 1.32 -1 2 C0.65 2 2.3 2 4 2 C4 2.66 4 3.32 4 4 C4.99 4 5.98 4 7 4 C7 3.34 7 2.68 7 2 C6.34 1.67 5.68 1.34 5 1 C5.68 1.14 6.36 1.29 7.06 1.44 C10.36 2.07 13.67 2.54 17 3 C17 3.99 17 4.98 17 6 C20.3 6 23.6 6 27 6 C27 6.99 27 7.98 27 9 C21.98 9.63 17.07 10.13 12 10 C12 9.34 12 8.68 12 8 C8.18 10.46 8.18 10.46 7.25 13.19 C7.17 13.79 7.09 14.38 7 15 C6.34 15 5.68 15 5 15 C4.67 13.68 4.34 12.36 4 11 C5.32 10.01 6.64 9.02 8 8 C7.4 7.95 6.79 7.9 6.17 7.85 C5.37 7.78 4.57 7.7 3.75 7.62 C3.36 7.59 3.36 7.59 1.36 7.41 C-1.09 6.98 -2.85 6.21 -5 5 C-5 5.66 -5 6.32 -5 7 C-6.32 7.33 -7.64 7.66 -9 8 C-9 8.66 -9 9.32 -9 10 C-9.66 9.67 -10.32 9.34 -11 9 C-10.67 8.01 -10.34 7.02 -10 6 C-9.96 4.33 -9.95 2.67 -10 1 C-3.71 -1.43 -3.71 -1.43 0 0 Z " fill="#B49A5E" transform="translate(106,48)"/>
<path d="M0 0 C1.77 0.04 3.55 0.16 5.31 0.31 C5.8 0.35 5.8 0.35 8.24 0.55 C10.89 0.98 12.69 1.66 15 3 C15 3.66 15 4.32 15 5 C17.08 4.86 19.17 4.71 21.25 4.56 C22.41 4.48 23.57 4.4 24.77 4.32 C27.31 4.07 29.56 3.72 32 3 C32 3.66 32 4.32 32 5 C33.09 4.94 34.19 4.88 35.31 4.81 C39 5 39 5 40.94 6.5 C41.29 7 41.64 7.49 42 8 C40.12 8.62 40.12 8.62 38 9 C37.34 8.34 36.68 7.68 36 7 C35.01 6.67 34.02 6.34 33 6 C33 6.66 33 7.32 33 8 C33.66 8.66 34.32 9.32 35 10 C31.1 12.6 29.44 11.94 24.88 11.25 C23.61 11.07 22.35 10.89 21.05 10.7 C20.55 10.59 20.55 10.59 18 10 C17.67 9.34 17.34 8.68 17 8 C17.33 7.34 17.66 6.68 18 6 C16.68 6 15.36 6 14 6 C13.34 5.34 12.68 4.68 12 4 C11.01 4.33 10.02 4.66 9 5 C9 5.66 9 6.32 9 7 C2.9 7.22 -2.22 7.01 -8 5 C-8.33 5.66 -8.66 6.32 -9 7 C-8.67 5.68 -8.34 4.36 -8 3 C-6.87 2.69 -5.73 2.38 -4.56 2.06 C-1 1 -1 1 0 0 Z " fill="#CEC197" transform="translate(67,10)"/>
<path d="M0 0 C2.38 -0.19 2.38 -0.19 5 0 C7.79 4.18 6.8 6.15 6 11 C9.63 11 13.26 11 17 11 C9.15 16.23 9.15 16.23 5 17 C5 18.32 5 19.64 5 21 C3.35 21 1.7 21 0 21 C0 20.01 0 19.02 0 18 C-0.95 17.77 -1.9 17.55 -2.88 17.31 C-6 16 -6 16 -7.38 13.38 C-7.58 12.59 -7.79 11.81 -8 11 C-5.03 11 -2.06 11 1 11 C-0.75 5.25 -0.75 5.25 -3 3 C-2.01 2.67 -1.02 2.34 0 2 C0 1.34 0 0.68 0 0 Z " fill="#B7A47D" transform="translate(109,18)"/>
<path d="M0 0 C0.33 0.99 0.66 1.98 1 3 C2.95 2.48 4.91 1.96 6.86 1.44 C9 1 9 1 13 1 C13 1.66 13 2.32 13 3 C11.68 3.33 10.36 3.66 9 4 C9 4.99 9 5.98 9 7 C11.08 7.03 13.17 7.05 15.25 7.06 C15.83 7.07 15.83 7.07 18.77 7.1 C21.41 7.02 23.5 6.79 26 6 C26.21 6.64 26.41 7.28 26.62 7.94 C28 10 28 10 31.12 10.75 C32.07 10.83 33.02 10.91 34 11 C34 11.33 34 11.66 34 12 C26.87 12.35 21.53 11.96 15 9 C16.51 12.01 19.03 12.61 22 14 C22 14.33 22 14.66 22 15 C20.35 15 18.7 15 17 15 C17 14.34 17 13.68 17 13 C13.04 13.66 9.08 14.32 5 15 C5.33 14.34 5.66 13.68 6 13 C6.66 13 7.32 13 8 13 C8 12.34 8 11.68 8 11 C6.02 11 4.04 11 2 11 C1.98 10.4 1.96 9.8 1.94 9.19 C1 7 1 7 -2.56 5.25 C-3.7 4.84 -4.83 4.43 -6 4 C-6 3.34 -6 2.68 -6 2 C-4.02 2 -2.04 2 0 2 C0 1.34 0 0.68 0 0 Z " fill="#B49A67" transform="translate(59,23)"/>
<path d="M0 0 C3.13 0.28 6.25 0.57 9.38 0.88 C10.26 0.95 11.15 1.03 12.07 1.11 C12.5 1.16 12.5 1.16 14.65 1.37 C15.43 1.44 16.22 1.51 17.03 1.59 C19 2 19 2 21 4 C20.98 6.16 20.98 6.16 20.62 8.62 C20.57 9.03 20.57 9.03 20.29 11.1 C20.24 11.41 20.24 11.41 20 13 C18.68 13.33 17.36 13.66 16 14 C16 13.34 16 12.68 16 12 C14.68 12.33 13.36 12.66 12 13 C12.66 11.68 13.32 10.36 14 9 C12.35 9 10.7 9 9 9 C8.67 9.99 8.34 10.98 8 12 C3.71 11.67 -0.58 11.34 -5 11 C-4.67 8.69 -4.34 6.38 -4 4 C-3.34 4 -2.68 4 -2 4 C-2 5.32 -2 6.64 -2 8 C-1.34 8 -0.68 8 0 8 C0.33 7.01 0.66 6.02 1 5 C1.66 5.66 2.32 6.32 3 7 C3 4 3 4 1.5 2.38 C1 1.92 0.51 1.47 0 1 C0 0.67 0 0.34 0 0 Z " fill="#817C70" transform="translate(119,63)"/>
<path d="M0 0 C2.97 0.33 5.94 0.66 9 1 C9 2.32 9 3.64 9 5 C11.64 5 14.28 5 17 5 C16.69 5.04 16.69 5.04 15.12 5.25 C13 6 13 6 11.75 8.06 C11.5 8.7 11.25 9.34 11 10 C9.89 9.98 8.77 9.96 7.62 9.94 C4 10 4 10 2 11 C-3.18 11.3 -7.14 10.59 -12 9 C-12.1 8.36 -12.21 7.72 -12.31 7.06 C-12.54 6.38 -12.77 5.7 -13 5 C-13.99 4.67 -14.98 4.34 -16 4 C-6 2.39 -6 2.39 -1.81 4.94 C-1.51 5.28 -1.51 5.28 0 7 C0 4.69 0 2.38 0 0 Z " fill="#B3ADAB" transform="translate(93,71)"/>
<path d="M0 0 C1.51 3.12 1.08 6.58 1 10 C2.65 10 4.3 10 6 10 C6.33 11.32 6.66 12.64 7 14 C2.05 13.67 -2.9 13.34 -8 13 C-8 12.01 -8 11.02 -8 10 C-8.66 9.67 -9.32 9.34 -10 9 C-7.69 8.34 -5.38 7.68 -3 7 C-3 6.34 -3 5.68 -3 5 C-3.66 5 -4.32 5 -5 5 C-5 4.01 -5 3.02 -5 2 C-6.65 1.34 -8.3 0.68 -10 0 C-10.66 0.66 -11.32 1.32 -12 2 C-15.04 1.98 -15.04 1.98 -18.62 1.62 C-19.81 1.51 -21 1.4 -22.23 1.29 C-22.68 1.24 -22.68 1.24 -25 1 C-25 0.34 -25 -0.32 -25 -1 C-22.67 -1.67 -20.33 -2.34 -18 -3 C-17.36 -3.23 -16.72 -3.45 -16.06 -3.69 C-10.31 -4.56 -4.81 -3.17 0 0 Z " fill="#CEBC8D" transform="translate(157,43)"/>
<path d="M0 0 C0 0.66 0 1.32 0 2 C0.56 1.81 1.11 1.62 1.69 1.42 C6.33 0.07 9.16 -0.38 13.56 1.88 C14.72 2.56 15.88 3.26 17 4 C17 3.34 17 2.68 17 2 C18.98 2 20.96 2 23 2 C23.16 2.49 23.16 2.49 24 5 C16.47 7.93 8.07 9.34 0 9 C-0.66 8.67 -1.32 8.34 -2 8 C-2 7.01 -2 6.02 -2 5 C-2.99 4.84 -2.99 4.84 -8 4 C-8 3.34 -8 2.68 -8 2 C-8.66 1.67 -9.32 1.34 -10 1 C-6.53 -0.16 -3.64 -0.07 0 0 Z " fill="#998753" transform="translate(76,36)"/>
<path d="M0 0 C8.62 0.75 8.62 0.75 12 3 C11.67 4.98 11.34 6.96 11 9 C12.65 9 14.3 9 16 9 C16 10.32 16 11.64 16 13 C14.68 13 13.36 13 12 13 C12.02 13.38 12.02 13.38 12.12 15.31 C12 18 12 18 10 21 C9.34 21 8.68 21 8 21 C8 19.35 8 17.7 8 16 C8.99 16 9.98 16 11 16 C11 15.01 11 14.02 11 13 C9.91 13.02 8.81 13.04 7.69 13.06 C4 13 4 13 1 12 C0.67 8.04 0.34 4.08 0 0 Z " fill="#857E74" transform="translate(62,52)"/>
<path d="M0 0 C3.12 0.49 6 1 9 2 C9 2.66 9 3.32 9 4 C8.67 4.16 8.67 4.16 7 5 C7.5 5.76 7.99 6.53 8.5 7.31 C10 10 10 10 10 13 C4.39 13 -1.22 13 -7 13 C-7.33 11.35 -7.66 9.7 -8 8 C-5.54 5.54 -3.29 5 0 4 C-0.66 3.34 -1.32 2.68 -2 2 C-1.34 2 -0.68 2 0 2 C0 1.34 0 0.68 0 0 Z " fill="#847B5F" transform="translate(100,16)"/>
<path d="M0 0 C0.66 0 1.32 0 2 0 C2 0.66 2 1.32 2 2 C3.98 1.67 5.96 1.34 8 1 C7.67 1.99 7.34 2.98 7 4 C4.44 5.19 4.44 5.19 2 6 C2.81 7.94 2.81 7.94 4 10 C4.99 10.33 5.98 10.66 7 11 C6.67 12.32 6.34 13.64 6 15 C5.34 14.34 4.68 13.68 4 13 C3.01 13.99 2.02 14.98 1 16 C0.67 15.01 0.34 14.02 0 13 C0.33 12.34 0.66 11.68 1 11 C0.34 11 -0.32 11 -1 11 C-1.33 13.31 -1.66 15.62 -2 18 C-2.99 18 -3.98 18 -5 18 C-5 17.34 -5 16.68 -5 16 C-5.99 16.33 -6.98 16.66 -8 17 C-7.67 13.37 -7.34 9.74 -7 6 C-6.34 6.16 -6.34 6.16 -3 7 C-2.94 6.61 -2.94 6.61 -2.62 4.62 C-2 2 -2 2 0 0 Z " fill="#65625B" transform="translate(116,56)"/>
<path d="M0 0 C-1.32 0.33 -2.64 0.66 -4 1 C-4 1.66 -4 2.32 -4 3 C-2.35 3 -0.7 3 1 3 C1 3.33 1 3.66 1 4 C-0.65 4.33 -2.3 4.66 -4 5 C-3.96 5.93 -3.92 6.86 -3.88 7.81 C-4 11 -4 11 -6 14 C-8 14.04 -10 14.04 -12 14 C-13.35 14.63 -14.68 15.3 -16 16 C-17.32 16 -18.64 16 -20 16 C-19 13.01 -18.25 12.05 -16 10 C-16.99 10.01 -17.97 10.02 -18.99 10.04 C-20.27 10.04 -21.55 10.05 -22.88 10.06 C-24.15 10.07 -25.43 10.09 -26.74 10.1 C-30 10 -30 10 -32 9 C-32 8.34 -32 7.68 -32 7 C-29.46 7.09 -26.92 7.19 -24.38 7.31 C-23.66 7.34 -22.95 7.36 -22.21 7.38 C-17.47 7.62 -14.18 8.54 -10 11 C-10.19 10.22 -10.37 9.43 -10.56 8.62 C-11 6 -11 6 -10 4 C-10.66 3.67 -11.32 3.34 -12 3 C-4.71 -0.43 -4.71 -0.43 0 0 Z " fill="#C0A579" transform="translate(101,44)"/>
<path d="M0 0 C8.26 -0.16 8.26 -0.16 11 1 C11.33 1.99 11.66 2.98 12 4 C11.34 4 10.68 4 10 4 C10.16 4.54 10.33 5.08 10.5 5.64 C11.09 8.4 11.1 10.93 11.06 13.75 C11.05 14.73 11.04 15.72 11.04 16.73 C11.02 17.48 11.01 18.23 11 19 C9.68 19.33 8.36 19.66 7 20 C6.67 16.7 6.34 13.4 6 10 C4.35 10 2.7 10 1 10 C0.67 8.67 0.33 7.33 0 6 C-0.21 5.3 -0.41 4.6 -0.62 3.88 C-1 2 -1 2 0 0 Z " fill="#4E5349" transform="translate(42,41)"/>
<path d="M0 0 C0 1.65 0 3.3 0 5 C1.32 4.67 2.64 4.34 4 4 C3.67 4.99 3.34 5.98 3 7 C1.02 7 -0.96 7 -3 7 C-3 6.34 -3 5.68 -3 5 C-3.33 5.16 -3.33 5.16 -5 6 C-7 6.04 -9 6.04 -11 6 C-11 6.66 -11 7.32 -11 8 C-14.31 9 -17.3 9.1 -20.75 9.06 C-21.73 9.05 -22.72 9.04 -23.73 9.04 C-24.48 9.02 -25.23 9.01 -26 9 C-26 8.34 -26 7.68 -26 7 C-23.36 6.67 -20.72 6.34 -18 6 C-18 5.34 -18 4.68 -18 4 C-16.68 4 -15.36 4 -14 4 C-14 3.34 -14 2.68 -14 2 C-14.66 2 -15.32 2 -16 2 C-16 1.34 -16 0.68 -16 0 C-10.47 -0.71 -5.5 -1.3 0 0 Z " fill="#988568" transform="translate(135,35)"/>
<path d="M0 0 C0.66 0 1.32 0 2 0 C1.34 3.63 0.68 7.26 0 11 C-0.66 11 -1.32 11 -2 11 C-2 11.66 -2 12.32 -2 13 C-2.66 13 -3.32 13 -4 13 C-4 12.01 -4 11.02 -4 10 C-4.66 10 -5.32 10 -6 10 C-6 11.32 -6 12.64 -6 14 C-6.66 14 -7.32 14 -8 14 C-8 12.68 -8 11.36 -8 10 C-8.6 10.5 -9.2 10.99 -9.81 11.5 C-12 13 -12 13 -15 13 C-15 10.36 -15 7.72 -15 5 C-15.66 4.67 -16.32 4.34 -17 4 C-17 3.34 -17 2.68 -17 2 C-12.5 1.82 -9.01 1.82 -5 4 C-4.67 4.49 -4.67 4.49 -3 7 C-2.01 4.69 -1.02 2.38 0 0 Z " fill="#918370" transform="translate(166,57)"/>
<path d="M0 0 C1.44 1.31 1.44 1.31 3 3 C3.72 3.72 4.44 4.44 5.19 5.19 C5.79 5.79 6.38 6.38 7 7 C6.67 5.35 6.34 3.7 6 2 C6.66 2 7.32 2 8 2 C8 2.66 8 3.32 8 4 C9.32 3.67 10.64 3.34 12 3 C11.75 4.48 11.47 5.96 11.19 7.44 C11.04 8.26 10.89 9.08 10.73 9.93 C10.49 10.62 10.25 11.3 10 12 C7 13 7 13 4 12 C4 11.34 4 10.68 4 10 C3.22 10.21 2.43 10.41 1.62 10.62 C0.76 10.75 -0.11 10.87 -1 11 C-3.69 8.31 -4.03 5.63 -5 2 C-5.33 1.34 -5.66 0.68 -6 0 C-3 -1 -3 -1 0 0 Z " fill="#A2A4A9" transform="translate(30,51)"/>
<path d="M0 0 C0.33 0.66 0.66 1.32 1 2 C1.99 1.67 2.98 1.34 4 1 C4 1.66 4 2.32 4 3 C3.34 3 2.68 3 2 3 C2 3.66 2 4.32 2 5 C1.34 5.66 0.68 6.32 0 7 C0 7.99 0 8.98 0 10 C-1.98 10.33 -3.96 10.66 -6 11 C-6 13.31 -6 15.62 -6 18 C-6.66 18 -7.32 18 -8 18 C-10.43 14.36 -10.16 12.29 -10 8 C-9.01 8 -8.02 8 -7 8 C-7 7.01 -7 6.02 -7 5 C-7.36 5.16 -7.36 5.16 -9.19 6 C-12.02 7.01 -14.03 7.17 -17 7 C-17 6.34 -17 5.68 -17 5 C-14.36 4.67 -11.72 4.34 -9 4 C-9 3.34 -9 2.68 -9 2 C-6.03 2 -3.06 2 0 2 C0 1.34 0 0.68 0 0 Z " fill="#C8AB83" transform="translate(46,31)"/>
<path d="M0 0 C2.29 3.44 2.18 4.99 2 9 C1.67 9 1.34 9 1 9 C1 7.35 1 5.7 1 4 C0.01 4.33 -0.98 4.66 -2 5 C-2 4.34 -2 3.68 -2 3 C-2.77 3.16 -3.54 3.31 -4.34 3.47 C-4.84 3.57 -4.84 3.57 -7.38 4.06 C-8.37 4.26 -9.37 4.46 -10.4 4.66 C-13 5 -13 5 -15 4 C-15 4.66 -15 5.32 -15 6 C-14.34 6.33 -13.68 6.66 -13 7 C-14.98 7 -16.96 7 -19 7 C-19.66 5.68 -20.32 4.36 -21 3 C-20.09 2.71 -19.19 2.42 -18.25 2.12 C-15.68 1.23 -13.39 0.29 -11 -1 C-13.64 -1.33 -16.28 -1.66 -19 -2 C-19 -2.33 -19 -2.66 -19 -3 C-11.77 -4.39 -6.28 -4.17 0 0 Z " fill="#D2BA95" transform="translate(134,31)"/>
<path d="M0 0 C0.99 0 1.98 0 3 0 C3 1.65 3 3.3 3 5 C3.68 4.99 4.35 4.98 5.05 4.96 C5.49 4.96 5.49 4.96 7.75 4.94 C8.19 4.93 8.19 4.93 10.42 4.9 C12.78 4.99 14.74 5.33 17 6 C16.56 8.31 16.56 8.31 15 11 C12.12 12.54 9.25 13.6 6 14 C3.76 13.2 3.76 13.2 2 12 C1.25 9.88 1.25 9.88 1 8 C-0.98 8.33 -2.96 8.66 -5 9 C-2 7 -2 7 1 7 C0.67 4.69 0.34 2.38 0 0 Z " fill="#8E98A6" transform="translate(43,56)"/>
<path d="M0 0 C0.66 1.32 1.32 2.64 2 4 C2.66 4 3.32 4 4 4 C4 2.68 4 1.36 4 0 C7.63 0 11.26 0 15 0 C14.01 0.99 13.02 1.98 12 3 C11.34 3 10.68 3 10 3 C10.33 5.97 10.66 8.94 11 12 C10.01 11.67 9.02 11.34 8 11 C8 11.66 8 12.32 8 13 C7.34 13 6.68 13 6 13 C6 12.34 6 11.68 6 11 C5.38 10.96 4.76 10.92 4.12 10.88 C3.77 10.73 3.77 10.73 2 10 C1.33 8 0.67 6 0 4 C-2.12 3.12 -2.12 3.12 -4 3 C-4 2.34 -4 1.68 -4 1 C-2.68 0.67 -1.36 0.34 0 0 Z " fill="#5D5B4E" transform="translate(16,34)"/>
<path d="M0 0 C0.66 0.33 1.32 0.66 2 1 C1.67 1.99 1.34 2.98 1 4 C1.66 4 2.32 4 3 4 C3.33 4.99 3.66 5.98 4 7 C2.87 7.12 1.73 7.25 0.56 7.38 C-0.03 7.48 -0.03 7.48 -3 8 C-3.33 8.66 -3.66 9.32 -4 10 C-8.62 9.01 -13.24 8.02 -18 7 C-17.34 5.35 -16.68 3.7 -16 2 C-14.68 2 -13.36 2 -12 2 C-12 2.66 -12 3.32 -12 4 C-11.34 4 -10.68 4 -10 4 C-10 3.34 -10 2.68 -10 2 C-9.55 2.02 -9.55 2.02 -7.25 2.12 C-4.06 2 -2.72 1.46 0 0 Z " fill="#998B58" transform="translate(151,44)"/>
<path d="M0 0 C-0.5 0.49 -0.5 0.49 -3 3 C-2.01 3.33 -1.02 3.66 0 4 C0 4.66 0 5.32 0 6 C3.96 6 7.92 6 12 6 C12.33 7.65 12.66 9.3 13 11 C12.38 10.86 11.76 10.71 11.12 10.56 C6.77 9.78 2.4 9.4 -2 9 C-2 8.01 -2 7.02 -2 6 C-2.55 6.04 -2.55 6.04 -5.31 6.25 C-9 6 -9 6 -10.94 4 C-11.29 3.34 -11.64 2.68 -12 2 C-7.82 0.41 -4.47 -0.21 0 0 Z " fill="#E0C293" transform="translate(125,45)"/>
<path d="M0 0 C2.31 0.33 4.62 0.66 7 1 C6.34 1.33 6.34 1.33 3 3 C7.74 5.23 11.72 6.46 17 7 C17 7.33 17 7.66 17 8 C15.35 8 13.7 8 12 8 C12 8.66 12 9.32 12 10 C9.69 10 7.38 10 5 10 C5.66 10.66 6.32 11.32 7 12 C3.7 12.33 0.4 12.66 -3 13 C-3 11.68 -3 10.36 -3 9 C-2.34 9 -1.68 9 -1 9 C-1.99 8.01 -2.98 7.02 -4 6 C-3.67 5.34 -3.34 4.68 -3 4 C-2.34 4.16 -2.34 4.16 1 5 C0.67 3.35 0.34 1.7 0 0 Z " fill="#C3A677" transform="translate(137,51)"/>
<path d="M0 0 C0.33 0 0.66 0 1 0 C1.36 7.41 1.36 7.41 -0.19 9.94 C-4.08 12.22 -8.41 12.12 -12.81 12.06 C-13.3 12.06 -13.3 12.06 -15.77 12.04 C-16.14 12.03 -16.14 12.03 -18 12 C-18 13.32 -18 14.64 -18 16 C-23.13 18.1 -27.56 18.22 -33 18 C-33.33 17.34 -33.66 16.68 -34 16 C-32.02 16 -30.04 16 -28 16 C-27.67 15.34 -27.34 14.68 -27 14 C-26.01 14 -25.02 14 -24 14 C-24 13.34 -24 12.68 -24 12 C-23.36 11.88 -22.72 11.75 -22.06 11.62 C-21.38 11.42 -20.7 11.21 -20 11 C-19.67 10.34 -19.34 9.68 -19 9 C-19 9.66 -19 10.32 -19 11 C-16.58 10.52 -14.17 10.04 -11.75 9.56 C-11.07 9.43 -10.39 9.29 -9.68 9.15 C-6.44 8.51 -3.2 7.85 0 7 C0 4.69 0 2.38 0 0 Z " fill="#CFC5BC" transform="translate(169,62)"/>
<path d="M0 0 C0.5 0.01 0.5 0.01 3.06 0.04 C4.07 0.04 5.08 0.05 6.12 0.06 C6.52 0.07 6.52 0.07 8.5 0.1 C7.5 3.1 7.5 3.1 5.5 4.1 C5.08 6.16 5.08 6.16 4.87 8.66 C4.8 9.49 4.72 10.31 4.64 11.16 C4.6 11.8 4.55 12.44 4.5 13.1 C3.84 13.1 3.18 13.1 2.5 13.1 C2.5 13.76 2.5 14.42 2.5 15.1 C1.84 15.1 1.18 15.1 0.5 15.1 C0.5 14.11 0.5 13.12 0.5 12.1 C-0.49 11.77 -1.48 11.44 -2.5 11.1 C-1.18 10.77 0.14 10.44 1.5 10.1 C1.5 9.44 1.5 8.78 1.5 8.1 C-0.15 7.77 -1.8 7.44 -3.5 7.1 C-3.55 5.1 -3.54 3.1 -3.5 1.1 C-2.5 0.1 -2.5 0.1 0 0 Z " fill="#6B6343" transform="translate(76.50390625,53.90234375)"/>
<path d="M0 0 C1.65 0 3.3 0 5 0 C5 1.32 5 2.64 5 4 C0.22 7.18 -4.32 7.39 -10 7 C-12.46 6.17 -14.66 5.15 -17 4 C-14.55 1.69 -13.41 1.01 -9.98 0.93 C-8.92 1.05 -7.85 1.18 -6.75 1.31 C-5.67 1.43 -4.59 1.55 -3.48 1.68 C-2.66 1.78 -1.84 1.89 -1 2 C-0.67 1.34 -0.34 0.68 0 0 Z " fill="#B0ACAA" transform="translate(128,72)"/>
<path d="M0 0 C0.82 0.16 0.82 0.16 5 1 C5.27 1.97 5.54 2.94 5.81 3.94 C6.2 4.95 6.6 5.96 7 7 C7.99 7.33 8.98 7.66 10 8 C10 9.65 10 11.3 10 13 C10.66 13.33 11.32 13.66 12 14 C11.34 14.66 10.68 15.32 10 16 C6.98 15.85 5.5 15.54 3.41 13.3 C1.75 10.59 1.3 8.39 0.81 5.25 C0.65 4.27 0.5 3.28 0.33 2.27 C0.22 1.52 0.11 0.77 0 0 Z " fill="#9A9CA4" transform="translate(12,37)"/>
<path d="M0 0 C4.62 0.66 9.24 1.32 14 2 C10 6 10 6 7 7 C6.01 6.01 5.02 5.02 4 4 C3.62 4.65 3.24 5.31 2.86 5.98 C1 8 1 8 -1.7 8.39 C-2.19 8.37 -2.19 8.37 -4.69 8.25 C-5.68 8.21 -6.68 8.18 -7.7 8.14 C-8.08 8.12 -8.08 8.12 -10 8 C-9.67 7.01 -9.34 6.02 -9 5 C-7.35 5 -5.7 5 -4 5 C-4 4.34 -4 3.68 -4 3 C-2.68 2.67 -1.36 2.34 0 2 C0 1.34 0 0.68 0 0 Z " fill="#887B52" transform="translate(101,53)"/>
<path d="M0 0 C1.32 0 2.64 0 4 0 C4 0.66 4 1.32 4 2 C7.3 2 10.6 2 14 2 C14 2.99 14 3.98 14 5 C8.98 5.63 4.07 6.13 -1 6 C-1 5.34 -1 4.68 -1 4 C-4.82 6.46 -4.82 6.46 -5.75 9.19 C-5.83 9.79 -5.92 10.38 -6 11 C-6.66 11 -7.32 11 -8 11 C-8.33 9.68 -8.66 8.36 -9 7 C-7.68 6.01 -6.36 5.02 -5 4 C-6.32 3.34 -7.64 2.68 -9 2 C-6.03 2 -3.06 2 0 2 C0 1.34 0 0.68 0 0 Z " fill="#A08B5C" transform="translate(119,52)"/>
<path d="M0 0 C4.29 0.33 8.58 0.66 13 1 C13 1.99 13 2.98 13 4 C12.01 4 11.02 4 10 4 C10 5.65 10 7.3 10 9 C10.66 9 11.32 9 12 9 C12.33 8.34 12.66 7.68 13 7 C13.33 7.99 13.66 8.98 14 10 C14.66 10.33 15.32 10.66 16 11 C12.18 12.47 9.69 11.53 6 10 C3.24 7.24 3.42 4.79 3 1 C2.01 0.67 1.02 0.34 0 0 Z " fill="#B0B0B3" transform="translate(60,64)"/>
<path d="M0 0 C0.66 0 1.32 0 2 0 C2.12 0.78 2.25 1.57 2.38 2.38 C3 5 3 5 5 7 C5 7.66 5 8.32 5 9 C5.99 9.16 5.99 9.16 11 10 C11 11.65 11 13.3 11 15 C7.12 13.12 7.12 13.12 6 12 C3.47 11.93 0.97 11.91 -1.56 11.94 C-2.27 11.94 -2.98 11.95 -3.72 11.95 C-5.48 11.96 -7.24 11.98 -9 12 C-8.67 10.68 -8.34 9.36 -8 8 C-8 8.66 -8 9.32 -8 10 C-7.34 10 -6.68 10 -6 10 C-6 9.01 -6 8.02 -6 7 C-5.34 7 -4.68 7 -4 7 C-3.67 8.32 -3.34 9.64 -3 11 C-2.34 11 -1.68 11 -1 11 C-0.67 7.37 -0.34 3.74 0 0 Z " fill="#787B82" transform="translate(82,63)"/>
<path d="M0 0 C0.33 0.66 0.66 1.32 1 2 C1.99 2 2.98 2 4 2 C4.51 3.6 5 5.21 5.5 6.81 C5.78 7.71 6.06 8.6 6.34 9.52 C7 12 7 12 7 15 C6.34 15 5.68 15 5 15 C5 14.34 5 13.68 5 13 C1.37 13 -2.26 13 -6 13 C-5.01 12.34 -4.02 11.68 -3 11 C-2.49 9.05 -2.49 9.05 -2.31 6.88 C-2.21 5.6 -2.11 4.32 -2 3 C-1.34 3 -0.68 3 0 3 C0 2.01 0 1.02 0 0 Z " fill="#676F72" transform="translate(55,49)"/>
<path d="M0 0 C0.66 0.33 1.32 0.66 2 1 C2 1.99 2 2.98 2 4 C2.99 4 3.98 4 5 4 C5 5.65 5 7.3 5 9 C6.65 9 8.3 9 10 9 C10.33 10.32 10.66 11.64 11 13 C6.05 12.67 1.1 12.34 -4 12 C-4 11.01 -4 10.02 -4 9 C-4.66 8.67 -5.32 8.34 -6 8 C-3.69 7.34 -1.38 6.68 1 6 C1 5.34 1 4.68 1 4 C0.34 4 -0.32 4 -1 4 C-0.67 2.68 -0.34 1.36 0 0 Z " fill="#BEA26B" transform="translate(153,44)"/>
<path d="M0 0 C0.33 0.66 0.66 1.32 1 2 C-0.65 2 -2.3 2 -4 2 C-4 2.99 -4 3.98 -4 5 C-2.84 4.84 -2.84 4.84 3 4 C3.33 4.99 3.66 5.98 4 7 C1.36 7 -1.28 7 -4 7 C-4 7.66 -4 8.32 -4 9 C-1.36 9.33 1.28 9.66 4 10 C4 10.66 4 11.32 4 12 C2.56 11.69 1.12 11.38 -0.31 11.06 C-1.11 10.89 -1.91 10.71 -2.74 10.54 C-5 10 -5 10 -8 9 C-8 9.66 -8 10.32 -8 11 C-7.01 11.33 -6.02 11.66 -5 12 C-6.65 12 -8.3 12 -10 12 C-10 11.34 -10 10.68 -10 10 C-11.32 9.34 -12.64 8.68 -14 8 C-14 7.67 -14 7.34 -14 7 C-12.02 7 -10.04 7 -8 7 C-8 6.34 -8 5.68 -8 5 C-7.34 5 -6.68 5 -6 5 C-6 3.68 -6 2.36 -6 1 C-4.02 0.67 -2.04 0.34 0 0 Z " fill="#B0945D" transform="translate(56,29)"/>
<path d="M0 0 C0 0.66 0 1.32 0 2 C-1.65 2.66 -3.3 3.32 -5 4 C-4.01 4.33 -3.02 4.66 -2 5 C-2 5.99 -2 6.98 -2 8 C-2.99 8.33 -3.98 8.66 -5 9 C-5.66 9.66 -6.32 10.32 -7 11 C-7 10.34 -7 9.68 -7 9 C-8.32 8.67 -9.64 8.34 -11 8 C-10.01 7.34 -9.02 6.68 -8 6 C-9.67 5.96 -11.33 5.96 -13 6 C-13.33 6.33 -13.66 6.66 -14 7 C-16.33 7.04 -18.67 7.04 -21 7 C-21.33 6.01 -21.66 5.02 -22 4 C-17.38 3.67 -12.76 3.34 -8 3 C-8 2.34 -8 1.68 -8 1 C-2.25 0 -2.25 0 0 0 Z " fill="#BDA26F" transform="translate(132,40)"/>
<path d="M0 0 C5.42 0.69 10.68 1.76 16 3 C15.67 3.99 15.34 4.98 15 6 C13.87 5.77 12.73 5.55 11.56 5.31 C7.21 4.74 4.22 5.76 0.19 7.3 C-2.99 8.32 -5.69 8.21 -9 8 C-9 7.34 -9 6.68 -9 6 C-7.35 6 -5.7 6 -4 6 C-4 5.34 -4 4.68 -4 4 C-2.35 4 -0.7 4 1 4 C0.67 2.68 0.34 1.36 0 0 Z " fill="#837C59" transform="translate(59,15)"/>
<path d="M0 0 C1.65 0.33 3.3 0.66 5 1 C4.62 3.94 4.62 3.94 4 7 C1.29 8.35 -1.01 8.07 -4 8 C-4.33 7.34 -4.66 6.68 -5 6 C-5.99 6.66 -6.98 7.32 -8 8 C-10.69 7.62 -10.69 7.62 -13 7 C-13 6.34 -13 5.68 -13 5 C-8.5 3.24 -4.82 2.81 0 3 C0 2.01 0 1.02 0 0 Z " fill="#EBCA99" transform="translate(101,39)"/>
<path d="M0 0 C0 0.66 0 1.32 0 2 C1.09 1.94 2.19 1.88 3.31 1.81 C7 2 7 2 8.94 3.5 C9.29 4 9.64 4.49 10 5 C8.12 5.62 8.12 5.62 6 6 C5.34 5.34 4.68 4.68 4 4 C3.01 3.67 2.02 3.34 1 3 C1 3.66 1 4.32 1 5 C1.66 5.66 2.32 6.32 3 7 C0 9 0 9 -2.7 8.76 C-3.69 8.55 -4.67 8.34 -5.69 8.12 C-6.68 7.92 -7.68 7.72 -8.7 7.51 C-9.08 7.42 -9.08 7.42 -11 7 C-10.53 6.55 -10.05 6.09 -9.56 5.62 C-8 4 -8 4 -7 2 C-2.67 0 -2.67 0 0 0 Z " fill="#BEB38D" transform="translate(99,13)"/>
<path d="M0 0 C0.99 0.33 1.98 0.66 3 1 C2.34 1 1.68 1 1 1 C0.67 3.64 0.34 6.28 0 9 C0.66 9 1.32 9 2 9 C2 9.66 2 10.32 2 11 C0.68 11 -0.64 11 -2 11 C-2 10.34 -2 9.68 -2 9 C-3.32 9 -4.64 9 -6 9 C-6 9.99 -6 10.98 -6 12 C-6.66 12 -7.32 12 -8 12 C-8.33 12.99 -8.66 13.98 -9 15 C-10.34 7.59 -10.34 7.59 -8.94 5.12 C-6.41 3.66 -3.77 2.9 -1 2 C-0.67 1.34 -0.34 0.68 0 0 Z " fill="#BAAC8C" transform="translate(20,22)"/>
<path d="M0 0 C1.32 0.33 2.64 0.66 4 1 C3.67 1.66 3.34 2.32 3 3 C5.31 3.66 7.62 4.32 10 5 C10 5.66 10 6.32 10 7 C9.34 7.66 8.68 8.32 8 9 C8 9.66 8 10.32 8 11 C7.34 11 6.68 11 6 11 C6 10.34 6 9.68 6 9 C4.35 8.67 2.7 8.34 1 8 C1 8.66 1 9.32 1 10 C0.01 9.84 0.01 9.84 -5 9 C-5 8.34 -5 7.68 -5 7 C-2.36 7 0.28 7 3 7 C2.67 6.34 2.34 5.68 2 5 C-0.31 5 -2.62 5 -5 5 C-5 4.01 -5 3.02 -5 2 C-3.35 2 -1.7 2 0 2 C0 1.34 0 0.68 0 0 Z " fill="#978556" transform="translate(57,29)"/>
<path d="M0 0 C4.13 0.61 7.33 2.04 11 4 C11 3.34 11 2.68 11 2 C12.98 2 14.96 2 17 2 C17.33 2.99 17.66 3.98 18 5 C13.02 6.92 8.27 7.55 3 8 C1.94 5.62 1.94 5.62 1 3 C1.33 2.34 1.66 1.68 2 1 C1.34 0.67 0.68 0.34 0 0 Z " fill="#A18F56" transform="translate(82,36)"/>
<path d="M0 0 C0.33 0.99 0.66 1.98 1 3 C-0.32 3.33 -1.64 3.66 -3 4 C-3 5.32 -3 6.64 -3 8 C-4.65 8 -6.3 8 -8 8 C-8 7.01 -8 6.02 -8 5 C-9.65 4.67 -11.3 4.34 -13 4 C-13 3.01 -13 2.02 -13 1 C-11.59 0.63 -10.17 0.28 -8.75 -0.06 C-7.96 -0.26 -7.17 -0.46 -6.36 -0.66 C-3.84 -1.02 -2.34 -0.99 0 0 Z " fill="#9B8A59" transform="translate(117,31)"/>
<path d="M0 0 C-0.99 0.66 -1.98 1.32 -3 2 C-2.01 2.33 -1.02 2.66 0 3 C0 3.66 0 4.32 0 5 C-2.64 5 -5.28 5 -8 5 C-8 5.66 -8 6.32 -8 7 C-9.32 7 -10.64 7 -12 7 C-12.62 4.62 -12.62 4.62 -13 2 C-9.02 -1.98 -5.29 -0.92 0 0 Z " fill="#897D55" transform="translate(45,28)"/>
<path d="M0 0 C3.3 0 6.6 0 10 0 C10 0.99 10 1.98 10 3 C11.03 2.77 12.06 2.55 13.12 2.31 C17.48 1.96 19.33 2.76 23 5 C23 5.33 23 5.66 23 6 C15.4 6.28 7.9 5.45 1 2 C0.67 1.34 0.34 0.68 0 0 Z " fill="#E7C994" transform="translate(139,53)"/>
<path d="M0 0 C8.26 -0.16 8.26 -0.16 11 1 C11.33 1.99 11.66 2.98 12 4 C11.34 4 10.68 4 10 4 C10 4.99 10 5.98 10 7 C9.34 7 8.68 7 8 7 C7.67 7.66 7.34 8.32 7 9 C6.61 8.57 6.22 8.13 5.81 7.69 C3.72 5.74 1.48 4.41 -1 3 C-0.67 2.01 -0.34 1.02 0 0 Z " fill="#5B5C4E" transform="translate(42,41)"/>
<path d="M0 0 C0.33 0.99 0.66 1.98 1 3 C2.95 2.48 4.91 1.96 6.86 1.44 C9 1 9 1 13 1 C13 1.66 13 2.32 13 3 C11.35 3.33 9.7 3.66 8 4 C8 4.99 8 5.98 8 7 C6.42 6.89 4.83 6.76 3.25 6.62 C2.37 6.56 1.49 6.49 0.58 6.41 C-1.99 6 -3.76 5.29 -6 4 C-6 3.34 -6 2.68 -6 2 C-4.02 2 -2.04 2 0 2 C0 1.34 0 0.68 0 0 Z " fill="#CBAB75" transform="translate(59,23)"/>
<path d="M0 0 C0.99 0 1.98 0 3 0 C3.96 2.88 4.11 4.7 4.06 7.69 C4.05 8.5 4.04 9.3 4.04 10.14 C4.02 10.75 4.01 11.37 4 12 C3.34 12 2.68 12 2 12 C0 7.88 -0.18 4.55 0 0 Z " fill="#ABB6BF" transform="translate(177,10)"/>
<path d="M0 0 C2.31 0 4.62 0 7 0 C6.34 1.65 5.68 3.3 5 5 C3.68 4.67 2.36 4.34 1 4 C0.67 2.68 0.34 1.36 0 0 Z " fill="#A5AFBE" transform="translate(145,0)"/>
<path d="M0 0 C2.31 0 4.62 0 7 0 C6.67 0.99 6.34 1.98 6 3 C3.56 2.62 3.56 2.62 1 2 C0.67 1.34 0.34 0.68 0 0 Z " fill="#A1AEBD" transform="translate(174,0)"/>
<path d="M0 0 C1.65 0 3.3 0 5 0 C4.67 0.66 4.34 1.32 4 2 C2.68 1.67 1.36 1.34 0 1 C0 0.67 0 0.34 0 0 Z " fill="#C1C8D3" transform="translate(133,0)"/>
<path d="" fill="#F5F4F4" transform="translate(0,0)"/>
<path d="" fill="#F4F4F7" transform="translate(0,0)"/>
<path d="" fill="#EEF0F5" transform="translate(0,0)"/>
</svg>
