<?xml version="1.0" encoding="UTF-8"?>
<!-- Generator: visioncortex VTracer 0.6.12 -->
<svg version="1.1" xmlns="http://www.w3.org/2000/svg" width="94" height="80">
<path d="M0 0 C0.99 0 1.98 0 3 0 C3.27 0.72 3.54 1.44 3.81 2.19 C5 5 5 5 6.62 7.62 C8 10 8 10 8 13 C8.99 13.66 9.98 14.32 11 15 C11.33 14.34 11.66 13.68 12 13 C12.99 13 13.98 13 15 13 C15.25 13.8 15.49 14.61 15.75 15.44 C17 18 17 18 19.12 18.81 C19.43 18.84 19.43 18.84 21 19 C21 18.34 21 17.68 21 17 C21.66 16.67 22.32 16.34 23 16 C23.33 15.01 23.66 14.02 24 13 C24.99 13 25.98 13 27 13 C27 13.99 27 14.98 27 16 C27.66 16 28.32 16 29 16 C30.12 19.75 30.12 19.75 29 22 C31.31 22 33.62 22 36 22 C36.16 22.33 36.16 22.33 37 24 C38.85 24.85 38.85 24.85 41.06 25.62 C41.8 25.89 42.53 26.15 43.29 26.41 C43.85 26.61 44.42 26.8 45 27 C45 27.99 45 28.98 45 30 C44.34 30 43.68 30 43 30 C42.67 31.32 42.34 32.64 42 34 C41.34 34 40.68 34 40 34 C39.67 35.98 39.34 37.96 39 40 C37.35 40.33 35.7 40.66 34 41 C33.67 42.98 33.34 44.96 33 47 C34.96 48.51 36.78 49.89 39 51 C35.17 53.39 31.4 53.56 27 54 C27 54.66 27 55.32 27 56 C23.37 56.33 19.74 56.66 16 57 C16 56.34 16 55.68 16 55 C10.25 57.62 10.25 57.62 8 61 C5 61.31 5 61.31 2 61 C1.34 60.34 0.68 59.68 0 59 C-2.32 58.6 -4.66 58.26 -7 58 C-7.56 56.06 -7.56 56.06 -8 54 C-7.67 53.67 -7.34 53.34 -7 53 C-7.95 53.02 -8.9 53.04 -9.88 53.06 C-22.75 52.98 -22.75 52.98 -26.62 49.94 C-26.85 49.62 -26.85 49.62 -28 48 C-25.09 46.74 -23.2 46 -20 46 C-20.33 44.84 -20.33 44.84 -22 39 C-22.31 39.09 -22.31 39.09 -23.88 39.56 C-26 40 -26 40 -28 39 C-28 38.01 -28 37.02 -28 36 C-27.5 35.84 -27.5 35.84 -25 35 C-25.66 33.02 -26.32 31.04 -27 29 C-27.99 29 -28.98 29 -30 29 C-29.44 27.12 -29.44 27.12 -28 25 C-24.62 23.88 -24.62 23.88 -21 23 C-19.65 22.38 -18.3 21.73 -17 21 C-17 20.34 -17 19.68 -17 19 C-16.34 19 -15.68 19 -15 19 C-14.67 17.35 -14.34 15.7 -14 14 C-13.01 14 -12.02 14 -11 14 C-10.34 15.98 -9.68 17.96 -9 20 C-8.34 19.67 -7.68 19.34 -7 19 C-7.33 18.01 -7.66 17.02 -8 16 C-7.01 15.67 -6.02 15.34 -5 15 C-5.23 14.4 -5.45 13.8 -5.69 13.19 C-5.79 12.47 -5.89 11.74 -6 11 C-4.69 9.5 -4.69 9.5 -3 8 C-1.49 5.4 -0.63 2.94 0 0 Z M-13 44 C-12 46 -12 46 -12 46 Z M16 47 C17 49 17 49 17 49 Z M21 53 C25 54 25 54 25 54 Z " fill="#AFA897" transform="translate(40,10)"/>
<path d="M0 0 C0.97 3.26 1.13 6.23 1.12 9.62 C1.13 10.11 1.13 10.11 1.13 12.54 C1 15 1 15 0 17 C1.65 17 3.3 17 5 17 C5.16 17.99 5.16 17.99 6 23 C6.66 23 7.32 23 8 23 C8 23.66 8 24.32 8 25 C4.7 25.66 1.4 26.32 -2 27 C-2 28.32 -2 29.64 -2 31 C-2.66 31.33 -3.32 31.66 -4 32 C-2.93 32.12 -1.86 32.25 -0.75 32.38 C2.38 32.9 4.33 33.4 7 35 C7 35.66 7 36.32 7 37 C6.01 37 5.02 37 4 37 C3.97 38.44 3.95 39.87 3.94 41.31 C3.93 42.11 3.91 42.91 3.9 43.74 C4 46 4 46 5 49 C4.34 49.66 3.68 50.32 3 51 C2.67 50.34 2.34 49.68 2 49 C0.68 49 -0.64 49 -2 49 C-2 49.66 -2 50.32 -2 51 C-22.36 53.07 -22.36 53.07 -27.62 48.94 C-27.85 48.62 -27.85 48.62 -29 47 C-26.09 45.74 -24.2 45 -21 45 C-21.33 43.84 -21.33 43.84 -23 38 C-23.31 38.09 -23.31 38.09 -24.88 38.56 C-27 39 -27 39 -29 38 C-29 37.01 -29 36.02 -29 35 C-28.5 34.84 -28.5 34.84 -26 34 C-26.66 32.02 -27.32 30.04 -28 28 C-28.99 28 -29.98 28 -31 28 C-30.44 26.12 -30.44 26.12 -29 24 C-25.63 22.88 -25.63 22.88 -22 22 C-20.65 21.38 -19.3 20.73 -18 20 C-18 19.34 -18 18.68 -18 18 C-17.34 18 -16.68 18 -16 18 C-15.67 16.35 -15.34 14.7 -15 13 C-14.01 13 -13.02 13 -12 13 C-11.34 14.98 -10.68 16.96 -10 19 C-9.34 18.67 -8.68 18.34 -8 18 C-8.33 17.01 -8.66 16.02 -9 15 C-8.01 14.67 -7.02 14.34 -6 14 C-6.23 13.4 -6.45 12.8 -6.69 12.19 C-6.79 11.47 -6.89 10.74 -7 10 C-5.69 8.5 -5.69 8.5 -4 7 C-2.81 4.81 -2.81 4.81 -2 3 C-1.34 3 -0.68 3 0 3 C0 2.01 0 1.02 0 0 Z M-14 43 C-13 45 -13 45 -13 45 Z " fill="#838F93" transform="translate(41,11)"/>
<path d="M0 0 C2.31 0 4.62 0 7 0 C7.16 0.33 7.16 0.33 8 2 C9.85 2.85 9.85 2.85 12.06 3.62 C12.8 3.89 13.53 4.15 14.29 4.41 C14.85 4.61 15.42 4.8 16 5 C16 5.99 16 6.98 16 8 C15.34 8 14.68 8 14 8 C13.67 9.32 13.34 10.64 13 12 C12.34 12 11.68 12 11 12 C10.67 13.98 10.34 15.96 10 18 C8.35 18.33 6.7 18.66 5 19 C4.67 20.98 4.34 22.96 4 25 C5.96 26.51 7.78 27.89 10 29 C6.17 31.39 2.4 31.56 -2 32 C-2 32.66 -2 33.32 -2 34 C-3.81 34.16 -3.81 34.16 -13 35 C-13 34.34 -13 33.68 -13 33 C-18.75 35.62 -18.75 35.62 -21 39 C-24 39.31 -24 39.31 -27 39 C-27.66 38.34 -28.32 37.68 -29 37 C-31.32 36.6 -33.66 36.26 -36 36 C-36.33 34.68 -36.66 33.36 -37 32 C-34.69 31.34 -32.38 30.68 -30 30 C-30 29.34 -30 28.68 -30 28 C-30.66 27.67 -31.32 27.34 -32 27 C-26.25 26.88 -26.25 26.88 -24 28 C-24.19 27.13 -24.37 26.27 -24.56 25.38 C-25.01 21.95 -24.72 19.36 -24 16 C-22.68 16 -21.36 16 -20 16 C-20 17.65 -20 19.3 -20 21 C-18.35 21 -16.7 21 -15 21 C-14.67 20.34 -14.34 19.68 -14 19 C-14 20.65 -14 22.3 -14 24 C-13.01 24 -12.02 24 -11 24 C-10.67 22.68 -10.34 21.36 -10 20 C-8.68 19.67 -7.36 19.34 -6 19 C-6.66 20.32 -7.32 21.64 -8 23 C-7.01 22.67 -6.02 22.34 -5 22 C-4.31 19.94 -4.31 19.94 -4 18 C-2.68 17.67 -1.36 17.34 0 17 C-0.66 18.98 -1.32 20.96 -2 23 C-1.34 23 -0.68 23 0 23 C0.05 22.47 0.05 22.47 0.31 19.81 C0.98 16.13 1.89 14.03 4 11 C4.66 11.99 5.32 12.98 6 14 C6.66 14 7.32 14 8 14 C8 11.03 8 8.06 8 5 C6.35 5.33 4.7 5.66 3 6 C3.99 6.33 4.98 6.66 6 7 C6 7.66 6 8.32 6 9 C5.38 9.1 4.76 9.21 4.12 9.31 C2 10 2 10 0 13 C0 12.01 0 11.02 0 10 C-1.98 9.67 -3.96 9.34 -6 9 C-6 8.01 -6 7.02 -6 6 C-8.31 6 -10.62 6 -13 6 C-13.33 4.68 -13.66 3.36 -14 2 C-13.34 2 -12.68 2 -12 2 C-12 2.66 -12 3.32 -12 4 C-11.3 3.86 -10.6 3.71 -9.88 3.56 C-8.97 3.38 -8.06 3.19 -7.12 3 C-6.22 2.81 -5.32 2.63 -4.38 2.44 C-2 2 -2 2 0 2 C0 1.34 0 0.68 0 0 Z M-13 25 C-12 27 -12 27 -12 27 Z M-8 31 C-4 32 -4 32 -4 32 Z " fill="#CDC4A9" transform="translate(69,32)"/>
<path d="M0 0 C1.32 0 2.64 0 4 0 C4 1.65 4 3.3 4 5 C5.65 5 7.3 5 9 5 C9.33 4.34 9.66 3.68 10 3 C9.74 5.34 9.41 7.68 9 10 C8.67 10.16 8.67 10.16 7 11 C6.67 10.01 6.34 9.02 6 8 C5.01 8.33 4.02 8.66 3 9 C3 10.32 3 11.64 3 13 C5.31 13 7.62 13 10 13 C10.33 11.68 10.66 10.36 11 9 C11.66 9 12.32 9 13 9 C13.66 10.32 14.32 11.64 15 13 C18.34 13.07 20.8 13.07 24 12 C24 11.34 24 10.68 24 10 C23.34 9.34 22.68 8.68 22 8 C24.19 7.19 24.19 7.19 27 7 C29.69 9.38 29.69 9.38 32 12 C32.66 12.33 33.32 12.66 34 13 C30.17 15.39 26.4 15.56 22 16 C22 16.66 22 17.32 22 18 C18.37 18.33 14.74 18.66 11 19 C11 18.34 11 17.68 11 17 C5.25 19.62 5.25 19.62 3 23 C0 23.31 0 23.31 -3 23 C-3.66 22.34 -4.32 21.68 -5 21 C-7.32 20.6 -9.66 20.26 -12 20 C-12.33 18.68 -12.66 17.36 -13 16 C-10.69 15.34 -8.38 14.68 -6 14 C-6 13.34 -6 12.68 -6 12 C-6.66 11.67 -7.32 11.34 -8 11 C-2.25 10.88 -2.25 10.88 0 12 C-0.09 11.57 -0.09 11.57 -0.56 9.38 C-1.01 5.95 -0.72 3.36 0 0 Z M16 15 C20 16 20 16 20 16 Z " fill="#DDE2E9" transform="translate(45,48)"/>
<path d="M0 0 C2.06 0.44 2.06 0.44 4 1 C3.67 1.33 3.34 1.66 3 2 C3.99 2.99 4.98 3.98 6 5 C5.01 5.33 4.02 5.66 3 6 C2.67 7.65 2.34 9.3 2 11 C2.66 11 3.32 11 4 11 C4.79 12.73 5.58 14.46 6.38 16.19 C6.82 17.15 7.26 18.11 7.71 19.11 C8.87 21.72 9.96 24.34 11 27 C12.32 27 13.64 27 15 27 C15.33 27.99 15.66 28.98 16 30 C9.33 30.92 2.61 31.62 -4 30 C-6.63 27.94 -6.63 27.94 -8 26 C-5.09 24.74 -3.2 24 0 24 C-0.66 21.69 -1.32 19.38 -2 17 C-2.62 17.19 -3.24 17.37 -3.88 17.56 C-6 18 -6 18 -8 17 C-8 16.01 -8 15.02 -8 14 C-7.01 13.67 -6.02 13.34 -5 13 C-5.66 11.02 -6.32 9.04 -7 7 C-7.99 7 -8.98 7 -10 7 C-9.44 5.12 -9.44 5.12 -8 3 C-4.44 1.81 -4.44 1.81 -1 1 C-0.67 0.67 -0.34 0.34 0 0 Z M7 22 C8 24 8 24 8 24 Z " fill="#AEAFA7" transform="translate(20,32)"/>
<path d="M0 0 C1.98 0 3.96 0 6 0 C6 2.97 6 5.94 6 9 C5.01 9.33 4.02 9.66 3 10 C2.67 9.01 2.34 8.02 2 7 C1.01 8.98 0.02 10.96 -1 13 C-0.34 13.33 0.32 13.66 1 14 C0.34 14 -0.32 14 -1 14 C-1.33 15.32 -1.66 16.64 -2 18 C-2.66 18 -3.32 18 -4 18 C-3.67 16.35 -3.34 14.7 -3 13 C-3.99 13 -4.98 13 -6 13 C-6.33 14.65 -6.66 16.3 -7 18 C-8.32 18.33 -9.64 18.66 -11 19 C-10.67 17.68 -10.34 16.36 -10 15 C-10.33 15.16 -10.33 15.16 -12 16 C-12.33 16.99 -12.66 17.98 -13 19 C-13.99 19 -14.98 19 -16 19 C-15.67 15.04 -15.34 11.08 -15 7 C-15.66 6.67 -16.32 6.34 -17 6 C-17 5.34 -17 4.68 -17 4 C-15.35 3.67 -13.7 3.34 -12 3 C-12 2.34 -12 1.68 -12 1 C-10.68 1 -9.36 1 -8 1 C-8 1.99 -8 2.98 -8 4 C-3.68 4.76 -0.26 5.16 4 4 C4 3.34 4 2.68 4 2 C2.68 1.67 1.36 1.34 0 1 C0 0.67 0 0.34 0 0 Z " fill="#9F9EA1" transform="translate(71,37)"/>
<path d="M0 0 C0.66 0.33 1.32 0.66 2 1 C1.34 2.65 0.68 4.3 0 6 C0.66 6 1.32 6 2 6 C2.33 4.68 2.66 3.36 3 2 C3.66 2 4.32 2 5 2 C4.45 5.33 3.79 8.12 2 11 C-1.45 13.3 -2.95 13.34 -7 13 C-7.66 12.34 -8.32 11.68 -9 11 C-9 10.01 -9 9.02 -9 8 C-9.99 8 -10.98 8 -12 8 C-12 9.32 -12 10.64 -12 12 C-14.31 12 -16.62 12 -19 12 C-19.33 10.68 -19.66 9.36 -20 8 C-18.68 7.34 -17.36 6.68 -16 6 C-15.67 6.49 -15.67 6.49 -14 9 C-13.34 8.01 -12.68 7.02 -12 6 C-11.01 6.33 -10.02 6.66 -9 7 C-8.67 5.68 -8.34 4.36 -8 3 C-6.68 2.67 -5.36 2.34 -4 2 C-4.66 3.32 -5.32 4.64 -6 6 C-5.01 5.67 -4.02 5.34 -3 5 C-2.63 3.68 -2.29 2.34 -2 1 C-1.34 0.67 -0.68 0.34 0 0 Z " fill="#B3B8C1" transform="translate(67,49)"/>
<path d="M0 0 C0.99 0 1.98 0 3 0 C3 0.99 3 1.98 3 3 C3.66 3 4.32 3 5 3 C5.99 6.09 5.88 7.9 5 11 C3.38 11.34 1.75 11.67 0.12 12 C-0.33 12.09 -0.33 12.09 -2.62 12.56 C-5 13 -5 13 -7 13 C-7 12.34 -7 11.68 -7 11 C-8.32 11 -9.64 11 -11 11 C-11 10.34 -11 9.68 -11 9 C-12.65 9.33 -14.3 9.66 -16 10 C-15.67 9.01 -15.34 8.02 -15 7 C-13.35 7 -11.7 7 -10 7 C-9.67 5.35 -9.34 3.7 -9 2 C-8.67 2.5 -8.67 2.5 -7 5 C-4.88 5.69 -4.88 5.69 -3 6 C-3 5.34 -3 4.68 -3 4 C-2.34 3.67 -1.68 3.34 -1 3 C-0.67 2.01 -0.34 1.02 0 0 Z " fill="#B8B8AF" transform="translate(64,23)"/>
<path d="M0 0 C0 0.66 0 1.32 0 2 C-0.33 2.16 -0.33 2.16 -2 3 C0.31 3.33 2.62 3.66 5 4 C5 6.31 5 8.62 5 11 C4.67 10.34 4.34 9.68 4 9 C2.68 9.33 1.36 9.66 0 10 C0.33 11.32 0.66 12.64 1 14 C0.01 14 -0.98 14 -2 14 C-2 13.34 -2 12.68 -2 12 C-4.31 11.67 -6.62 11.34 -9 11 C-11.09 6.57 -11.09 6.57 -10.62 3.69 C-10.42 3.13 -10.21 2.57 -10 2 C-3.38 0 -3.38 0 0 0 Z " fill="#8D8C89" transform="translate(39,40)"/>
<path d="M0 0 C0 0.66 0 1.32 0 2 C1.32 2.66 2.64 3.32 4 4 C0.7 4 -2.6 4 -6 4 C-6 5.32 -6 6.64 -6 8 C-4.02 7.67 -2.04 7.34 0 7 C-0.33 10.3 -0.66 13.6 -1 17 C-0.01 17 0.98 17 2 17 C2.33 14.36 2.66 11.72 3 9 C3.99 9.33 4.98 9.66 6 10 C5.67 12.64 5.34 15.28 5 18 C2.69 18 0.38 18 -2 18 C-2.33 15.69 -2.66 13.38 -3 11 C-4.98 10.67 -4.98 10.67 -15 9 C-14.67 8.34 -14.34 7.68 -14 7 C-13.34 7 -12.68 7 -12 7 C-12.33 5.68 -12.66 4.36 -13 3 C-8.87 0.25 -4.98 0 0 0 Z " fill="#D3C49F" transform="translate(51,35)"/>
<path d="M0 0 C1.32 0.33 2.64 0.66 4 1 C4 1.66 4 2.32 4 3 C3.01 3 2.02 3 1 3 C0.97 4.44 0.95 5.87 0.94 7.31 C0.93 8.11 0.91 8.91 0.9 9.74 C1 12 1 12 2 15 C1.34 15.66 0.68 16.32 0 17 C-0.33 16.34 -0.66 15.68 -1 15 C-2.32 15 -3.64 15 -5 15 C-5 15.66 -5 16.32 -5 17 C-6.32 16.67 -7.64 16.34 -9 16 C-9 15.34 -9 14.68 -9 14 C-9.62 14.21 -10.24 14.41 -10.88 14.62 C-11.58 14.75 -12.28 14.87 -13 15 C-15.76 12.24 -15.58 9.79 -16 6 C-15.3 6.7 -14.6 7.4 -13.88 8.12 C-12.93 8.74 -11.98 9.36 -11 10 C-7.69 9.25 -7.69 9.25 -5 8 C-5 7.01 -5 6.02 -5 5 C-3.68 4.67 -2.36 4.34 -1 4 C-0.67 2.68 -0.34 1.36 0 0 Z " fill="#959FAD" transform="translate(44,45)"/>
<path d="M0 0 C1.32 1.65 2.64 3.3 4 5 C1.36 5 -1.28 5 -4 5 C-3.67 6.32 -3.34 7.64 -3 9 C-5.31 9 -7.62 9 -10 9 C-10.33 9.66 -10.66 10.32 -11 11 C-11.66 11 -12.32 11 -13 11 C-13.33 12.98 -13.66 14.96 -14 17 C-14.66 16.67 -15.32 16.34 -16 16 C-16 15.01 -16 14.02 -16 13 C-16.66 13 -17.32 13 -18 13 C-18.33 13.66 -18.66 14.32 -19 15 C-18.69 11.62 -18.69 11.62 -18 8 C-17.01 7.34 -16.02 6.68 -15 6 C-15.99 5.34 -16.98 4.68 -18 4 C-16 2 -16 2 -12.88 1.88 C-11.93 1.92 -10.98 1.96 -10 2 C-10.33 2.99 -10.66 3.98 -11 5 C-10.71 4.85 -10.71 4.85 -9.25 4.06 C-7.16 3.07 -5.25 2.48 -3 2 C-3 2.66 -3 3.32 -3 4 C-2.01 4 -1.02 4 0 4 C0 2.68 0 1.36 0 0 Z " fill="#767A75" transform="translate(40,30)"/>
<path d="M0 0 C0.33 0.99 0.66 1.98 1 3 C0.67 3.66 0.34 4.32 0 5 C1.32 5 2.64 5 4 5 C4.33 4.34 4.66 3.68 5 3 C5.66 3 6.32 3 7 3 C7.66 4.65 8.32 6.3 9 8 C10.32 8 11.64 8 13 8 C13.33 8.99 13.66 9.98 14 11 C7.33 11.92 0.61 12.62 -6 11 C-8.62 8.94 -8.62 8.94 -10 7 C-7.09 5.74 -5.2 5 -2 5 C-2.33 3.68 -2.66 2.36 -3 1 C-2.01 0.67 -1.02 0.34 0 0 Z " fill="#D5DEEB" transform="translate(22,51)"/>
<path d="M0 0 C1.32 0 2.64 0 4 0 C4 0.99 4 1.98 4 3 C5.65 3.33 7.3 3.66 9 4 C8.68 6.95 8.34 8.61 6.38 10.88 C3.01 12.47 0.57 11.75 -3 11 C-3 9.35 -3 7.7 -3 6 C-3.66 5.67 -4.32 5.34 -5 5 C-5 4.34 -5 3.68 -5 3 C-3.35 2.67 -1.7 2.34 0 2 C0 1.34 0 0.68 0 0 Z " fill="#82857F" transform="translate(59,38)"/>
<path d="M0 0 C0.99 0 1.98 0 3 0 C3 1.32 3 2.64 3 4 C4.32 4.33 5.64 4.66 7 5 C6.66 5.05 6.66 5.05 4.92 5.33 C4.02 5.49 3.12 5.65 2.19 5.81 C1.29 5.96 0.4 6.11 -0.52 6.27 C-3.25 7.07 -4.1 7.97 -6 10 C-8.31 10.74 -10.64 11.42 -13 12 C-12.67 14.64 -12.34 17.28 -12 20 C-9.69 20.33 -7.38 20.66 -5 21 C-5.33 21.99 -5.66 22.98 -6 24 C-8.06 24.69 -8.06 24.69 -10 25 C-10 24.34 -10 23.68 -10 23 C-10.99 22.67 -11.98 22.34 -13 22 C-13 21.34 -13 20.68 -13 20 C-13.99 19.67 -14.98 19.34 -16 19 C-17.27 15.2 -16.48 13.65 -15 10 C-13 8 -13 8 -10 7 C-7.31 7.44 -7.31 7.44 -5 8 C-5.33 6.68 -5.66 5.36 -6 4 C-4.02 3.67 -2.04 3.34 0 3 C0 2.01 0 1.02 0 0 Z " fill="#A39F92" transform="translate(42,31)"/>
<path d="M0 0 C0.66 0 1.32 0 2 0 C2 0.66 2 1.32 2 2 C2.66 2 3.32 2 4 2 C4 2.99 4 3.98 4 5 C2.68 5 1.36 5 0 5 C0 5.66 0 6.32 0 7 C0.99 7 1.98 7 3 7 C3 7.66 3 8.32 3 9 C3.66 9 4.32 9 5 9 C5.33 10.32 5.66 11.64 6 13 C5.01 13 4.02 13 3 13 C3 12.34 3 11.68 3 11 C2.07 11.68 1.14 12.36 0.19 13.06 C-0.86 13.7 -1.92 14.34 -3 15 C-3.99 14.67 -4.98 14.34 -6 14 C-5.34 13.01 -4.68 12.02 -4 11 C-5.98 11 -7.96 11 -10 11 C-10.33 10.01 -10.66 9.02 -11 8 C-10.34 8 -9.68 8 -9 8 C-8.67 6.35 -8.34 4.7 -8 3 C-7.01 3 -6.02 3 -5 3 C-4.34 4.98 -3.68 6.96 -3 9 C-2.34 8.67 -1.68 8.34 -1 8 C-1.33 7.01 -1.66 6.02 -2 5 C-1.01 4.67 -0.02 4.34 1 4 C0.67 2.68 0.34 1.36 0 0 Z " fill="#AEB1A6" transform="translate(34,21)"/>
<path d="M0 0 C0.99 0 1.98 0 3 0 C3.27 0.72 3.54 1.44 3.81 2.19 C5 5 5 5 6.62 7.62 C8 10 8 10 8 13 C8.99 13.66 9.98 14.32 11 15 C11.33 14.34 11.66 13.68 12 13 C12.99 13 13.98 13 15 13 C14.25 14.94 14.25 14.94 13 17 C10.87 17.75 10.87 17.75 9 18 C9 17.34 9 16.68 9 16 C8.34 16.66 7.68 17.32 7 18 C3.88 18.12 3.88 18.12 1 18 C1.01 17.04 1.02 16.07 1.04 15.08 C1.04 13.81 1.05 12.55 1.06 11.25 C1.07 10.62 1.07 10.62 1.1 7.45 C1.02 4.71 0.83 2.58 0 0 Z " fill="#C5C4B8" transform="translate(40,10)"/>
<path d="M0 0 C3.34 -0.07 5.8 -0.07 9 1 C9 1.99 9 2.98 9 4 C9.99 4 10.98 4 12 4 C12 4.99 12 5.98 12 7 C11.01 7 10.02 7 9 7 C9 6.34 9 5.68 9 5 C8.01 5 7.02 5 6 5 C6.33 6.32 6.66 7.64 7 9 C5.56 9.22 4.13 9.43 2.69 9.62 C1.89 9.74 1.09 9.86 0.26 9.98 C-2 10 -2 10 -5 8 C-4.67 6.68 -4.34 5.36 -4 4 C-2.02 3.67 -0.04 3.34 2 3 C2 2.34 2 1.68 2 1 C1.34 0.67 0.68 0.34 0 0 Z " fill="#BAC5D6" transform="translate(37,59)"/>
<path d="M0 0 C0 0.99 0 1.98 0 3 C0.63 2.96 0.63 2.96 3.81 2.75 C7.71 2.74 7.71 2.74 10.06 4.81 C11 7 11 7 10 10 C9.67 10.66 9.34 11.32 9 12 C7.68 12 6.36 12 5 12 C5 10.68 5 9.36 5 8 C3.68 7.67 2.36 7.34 1 7 C1 6.34 1 5.68 1 5 C0.38 5.19 -0.24 5.37 -0.88 5.56 C-3 6 -3 6 -5 5 C-5 4.01 -5 3.02 -5 2 C-2 0 -2 0 0 0 Z " fill="#B8BFCD" transform="translate(17,44)"/>
<path d="M0 0 C1.32 0 2.64 0 4 0 C4 1.65 4 3.3 4 5 C5.65 5 7.3 5 9 5 C9.33 4.34 9.66 3.68 10 3 C9.74 5.34 9.41 7.68 9 10 C8.67 10.16 8.67 10.16 7 11 C6.67 10.01 6.34 9.02 6 8 C5.01 8.33 4.02 8.66 3 9 C3 10.32 3 11.64 3 13 C3.99 13.33 4.98 13.66 6 14 C4.35 14.33 2.7 14.66 1 15 C-0.43 9.69 -1.4 5.46 0 0 Z " fill="#D7D2CA" transform="translate(45,48)"/>
<path d="M0 0 C0.4 0.01 0.4 0.01 2.44 0.06 C2.11 1.38 1.78 2.7 1.44 4.06 C0.78 4.06 0.12 4.06 -0.56 4.06 C-0.89 6.04 -1.22 8.02 -1.56 10.06 C-2.35 10.14 -3.13 10.23 -3.94 10.31 C-6.56 11.06 -6.56 11.06 -7.88 13.12 C-8.1 13.76 -8.33 14.4 -8.56 15.06 C-8.56 13.41 -8.56 11.76 -8.56 10.06 C-9.22 10.06 -9.88 10.06 -10.56 10.06 C-9.96 8.04 -9.29 6.04 -8.56 4.06 C-7.9 3.73 -7.24 3.4 -6.56 3.06 C-6.23 4.05 -5.9 5.04 -5.56 6.06 C-4.9 6.06 -4.24 6.06 -3.56 6.06 C-3.58 5.26 -3.6 4.45 -3.62 3.62 C-3.54 0.17 -3.46 0.08 0 0 Z " fill="#D1CCC8" transform="translate(80.5625,39.9375)"/>
<path d="M0 0 C0 0.66 0 1.32 0 2 C-1.16 2.49 -1.16 2.49 -7 5 C-7 6.32 -7 7.64 -7 9 C-6.01 9 -5.02 9 -4 9 C-4 8.01 -4 7.02 -4 6 C-4.66 5.67 -5.32 5.34 -6 5 C-3.36 5 -0.72 5 2 5 C1.01 5.33 0.02 5.66 -1 6 C-1.33 7.65 -1.66 9.3 -2 11 C-4.31 11 -6.62 11 -9 11 C-11.09 6.57 -11.09 6.57 -10.62 3.69 C-10.42 3.13 -10.21 2.57 -10 2 C-3.38 0 -3.38 0 0 0 Z " fill="#807E7C" transform="translate(39,40)"/>
<path d="M0 0 C0.66 0.33 1.32 0.66 2 1 C2 2.98 2 4.96 2 7 C1.01 6.84 1.01 6.84 -4 6 C-4 6.66 -4 7.32 -4 8 C-2.68 8 -1.36 8 0 8 C0 8.66 0 9.32 0 10 C0.66 10 1.32 10 2 10 C2.33 11.32 2.66 12.64 3 14 C1.02 14 -0.96 14 -3 14 C-2.67 13.01 -2.34 12.02 -2 11 C-3.32 10.67 -4.64 10.34 -6 10 C-6.33 7.36 -6.66 4.72 -7 2 C-6.01 2 -5.02 2 -4 2 C-4 2.66 -4 3.32 -4 4 C-3.01 3.67 -2.02 3.34 -1 3 C-0.67 2.01 -0.34 1.02 0 0 Z " fill="#9C9C96" transform="translate(53,24)"/>
<path d="M0 0 C0.99 0.33 1.98 0.66 3 1 C2.67 1.66 2.34 2.32 2 3 C1.34 3 0.68 3 0 3 C0 2.01 0 1.02 0 0 Z " fill="#E5EAED" transform="translate(77,53)"/>
<path d="M0 0 C0.66 0 1.32 0 2 0 C2 0.66 2 1.32 2 2 C1.34 2 0.68 2 0 2 C0 1.34 0 0.68 0 0 Z " fill="#E6EFF5" transform="translate(26,64)"/>
<path d="M0 0 C0.66 0 1.32 0 2 0 C1.67 0.66 1.34 1.32 1 2 C0.67 1.34 0.34 0.68 0 0 Z " fill="#F0F3F5" transform="translate(14,54)"/>
<path d="" fill="#F4F5F4" transform="translate(0,0)"/>
</svg>
