<?xml version="1.0" encoding="UTF-8"?>
<!-- Generator: visioncortex VTracer 0.6.12 -->
<svg version="1.1" xmlns="http://www.w3.org/2000/svg" width="206" height="65">
<path d="M0 0 C11 2 11 2 13.88 4.88 C14.98 6.97 15.51 8.69 16 11 C16.37 11.82 16.74 12.65 17.12 13.5 C18.08 16.22 17.98 17.35 17 20 C17.99 20 18.98 20 20 20 C20.16 20.33 20.16 20.33 21 22 C21.99 22 22.98 22 24 22 C24.16 21.51 24.16 21.51 25 19 C27.62 17.23 29.43 16.93 32.55 17.32 C35.06 17.82 37.53 18.38 40 19 C40.56 20.43 41.1 21.87 41.62 23.31 C41.78 23.71 41.78 23.71 42.54 25.74 C42.69 26.48 42.84 27.23 43 28 C42.67 28.49 42.67 28.49 41 31 C41.74 30.98 42.49 30.96 43.25 30.94 C46 31 46 31 47.94 31.62 C50 32 50 32 52.94 30.94 C56 30 56 30 58.75 30.75 C61 32 61 32 63 34 C63 35.32 63 36.64 63 38 C63.78 37.77 64.57 37.55 65.38 37.31 C69.61 36.95 72.4 37.85 76.39 39.16 C80.21 40.39 84.08 41.18 88 42 C88 42.33 88 42.66 88 43 C85.1 43.17 82.21 43.33 79.31 43.5 C78.5 43.55 77.68 43.6 76.84 43.64 C76.04 43.69 75.25 43.73 74.43 43.78 C73.66 43.83 72.89 43.87 72.09 43.91 C70.41 43.98 68.73 43.96 67.04 43.91 C65 44 65 44 63 46 C56.08 46.54 49.11 46.14 42.24 45.22 C37.84 44.79 33.42 44.93 29 45 C29 44.34 29 43.68 29 43 C28.42 43.01 27.84 43.01 27.24 43.02 C24.6 43.04 21.96 43.05 19.31 43.06 C18.86 43.07 18.86 43.07 16.55 43.09 C15.66 43.09 14.78 43.09 13.86 43.1 C13.05 43.1 12.24 43.11 11.4 43.11 C8.85 42.99 6.49 42.56 4 42 C4.16 41.67 4.16 41.67 5 40 C7.65 39.41 10.29 39.26 13 39 C12.35 39.01 11.7 39.01 11.03 39.02 C8.08 39.04 5.13 39.05 2.19 39.06 C1.68 39.07 1.68 39.07 -0.92 39.09 C-1.41 39.09 -1.41 39.09 -3.89 39.1 C-4.8 39.1 -5.71 39.11 -6.64 39.11 C-9 39 -9 39 -12 38 C-14.34 38.28 -16.68 38.61 -19 39 C-19.33 39.99 -19.66 40.98 -20 42 C-34.21 43.89 -34.21 43.89 -40 41 C-41.54 40.93 -43.08 40.92 -44.62 40.94 C-45.44 40.95 -46.26 40.96 -47.1 40.96 C-47.73 40.98 -48.35 40.99 -49 41 C-49 40.34 -49 39.68 -49 39 C-48.01 38.84 -48.01 38.84 -43 38 C-45.29 37.97 -47.58 37.95 -49.88 37.94 C-50.51 37.93 -50.51 37.93 -53.74 37.9 C-57 38 -57 38 -59 39 C-61.37 39.07 -63.75 39.08 -66.12 39.06 C-67.41 39.05 -68.69 39.04 -70.01 39.04 C-71 39.02 -71.98 39.01 -73 39 C-73.33 38.34 -73.66 37.68 -74 37 C-74.72 37.02 -75.43 37.05 -76.17 37.07 C-83.97 37.21 -91.33 36.39 -99 35 C-99 34.34 -99 33.68 -99 33 C-97.87 32.88 -96.73 32.75 -95.56 32.62 C-94.39 32.42 -93.21 32.21 -92 32 C-91.67 31.34 -91.34 30.68 -91 30 C-88.03 30 -85.06 30 -82 30 C-81.88 29.22 -81.75 28.43 -81.62 27.62 C-81 25 -81 25 -79 23 C-72.76 22.42 -72.76 22.42 -69.94 24.56 C-68 26 -68 26 -65 25.94 C-61.63 24.88 -60.37 23.54 -58 21 C-57.01 21 -56.02 21 -55 21 C-55 19.68 -55 18.36 -55 17 C-52.47 14.66 -50.5 13.07 -46.96 12.9 C-43.4 13.28 -39.87 13.79 -37 16 C-35.77 18.46 -35 20.25 -35 23 C-33.02 23.99 -31.04 24.98 -29 26 C-28.96 25.4 -28.92 24.8 -28.88 24.19 C-28 22 -28 22 -25.19 20.12 C-22 19 -22 19 -19.81 19.75 C-19.21 20.16 -18.62 20.57 -18 21 C-17.5 21.16 -17.5 21.16 -15 22 C-13 19 -13 19 -13.38 16.5 C-13.48 16.09 -13.48 16.09 -14 14 C-14 10.19 -12.96 8.25 -11 5 C-8.62 3.06 -8.62 3.06 -6 2 C-3.19 2.31 -3.19 2.31 -1 3 C-0.67 2.01 -0.34 1.02 0 0 Z M1 11 C1.66 11.33 1.66 11.33 5 13 C5 12.34 5 11.68 5 11 C3.68 11 2.36 11 1 11 Z M-47 24 C-47.33 24.66 -47.66 25.32 -48 26 C-47.34 26 -46.68 26 -46 26 C-46.33 25.34 -46.66 24.68 -47 24 Z M12 26 C12.5 26.33 12.5 26.33 15 28 C15.33 27.34 15.66 26.68 16 26 C14.68 26 13.36 26 12 26 Z " fill="#EBE9EA" transform="translate(109,10)"/>
<path d="M0 0 C2.27 1.75 2.81 3.55 3.62 6.25 C3.62 6.91 3.62 7.57 3.62 8.25 C7.31 10.71 9.28 10.33 13.62 10.25 C16 10.62 16 10.62 17.62 11.25 C17.79 11.58 17.79 11.58 18.62 13.25 C20.69 14.32 20.69 14.32 23.19 15.38 C24.01 15.73 24.84 16.08 25.69 16.45 C26.33 16.71 26.97 16.98 27.62 17.25 C26.64 19.56 25.64 21.87 24.62 24.25 C22.97 24.25 21.33 24.25 19.62 24.25 C19.46 24.74 19.46 24.74 18.62 27.25 C4.41 29.14 4.41 29.14 -1.38 26.25 C-2.92 26.18 -4.46 26.17 -6 26.19 C-6.82 26.2 -7.63 26.21 -8.48 26.21 C-9.1 26.23 -9.73 26.24 -10.38 26.25 C-10.38 25.59 -10.38 24.93 -10.38 24.25 C-8.4 23.92 -6.41 23.59 -4.38 23.25 C-6.67 23.22 -8.96 23.2 -11.25 23.19 C-11.89 23.18 -11.89 23.18 -15.12 23.15 C-18.38 23.25 -18.38 23.25 -20.38 24.25 C-22.75 24.32 -25.13 24.33 -27.5 24.31 C-28.78 24.3 -30.06 24.29 -31.38 24.29 C-32.37 24.27 -33.36 24.26 -34.38 24.25 C-34.7 23.59 -35.03 22.93 -35.38 22.25 C-35.73 22.26 -35.73 22.26 -37.54 22.32 C-45.35 22.46 -52.7 21.64 -60.38 20.25 C-60.38 19.59 -60.38 18.93 -60.38 18.25 C-59.24 18.13 -58.11 18 -56.94 17.88 C-55.76 17.67 -54.59 17.46 -53.38 17.25 C-53.05 16.59 -52.72 15.93 -52.38 15.25 C-49.41 15.25 -46.44 15.25 -43.38 15.25 C-43.25 14.47 -43.13 13.68 -43 12.88 C-42.38 10.25 -42.38 10.25 -40.38 8.25 C-34.14 7.67 -34.14 7.67 -31.31 9.81 C-29.38 11.25 -29.38 11.25 -26.38 11.19 C-23 10.13 -21.75 8.79 -19.38 6.25 C-18.38 6.25 -17.4 6.25 -16.38 6.25 C-16.38 4.93 -16.38 3.61 -16.38 2.25 C-10.88 -2.84 -6.78 -2.14 0 0 Z M-8.38 9.25 C-8.7 9.91 -9.03 10.57 -9.38 11.25 C-8.72 11.25 -8.05 11.25 -7.38 11.25 C-7.7 10.59 -8.03 9.93 -8.38 9.25 Z " fill="#E2E3EA" transform="translate(70.375,24.75)"/>
<path d="M0 0 C0.33 0.66 0.66 1.32 1 2 C3.07 3.07 3.07 3.07 5.56 4.12 C6.39 4.48 7.22 4.83 8.07 5.2 C8.7 5.46 9.34 5.73 10 6 C9.01 8.31 8.02 10.62 7 13 C5.35 13 3.7 13 2 13 C1.67 13.99 1.34 14.98 1 16 C-13.21 17.89 -13.21 17.89 -19 15 C-20.54 14.93 -22.08 14.92 -23.62 14.94 C-24.44 14.95 -25.26 14.96 -26.1 14.96 C-26.73 14.98 -27.35 14.99 -28 15 C-28 14.34 -28 13.68 -28 13 C-26.02 12.67 -24.04 12.34 -22 12 C-23.32 11.67 -24.64 11.34 -26 11 C-26 10.01 -26 9.02 -26 8 C-25.34 8 -24.68 8 -24 8 C-23.34 6.02 -22.68 4.04 -22 2 C-21.34 2 -20.68 2 -20 2 C-19.67 3.32 -19.34 4.64 -19 6 C-18.01 6 -17.02 6 -16 6 C-16 5.34 -16 4.68 -16 4 C-13.69 4.33 -11.38 4.66 -9 5 C-8.88 4.2 -8.75 3.39 -8.62 2.56 C-8.52 2.14 -8.52 2.14 -8 0 C-5.1 -1.45 -3.09 -0.72 0 0 Z " fill="#D7DDEA" transform="translate(88,36)"/>
<path d="M0 0 C0.33 0.66 0.66 1.32 1 2 C1.64 2.08 2.28 2.16 2.94 2.25 C3.28 2.37 3.28 2.37 5 3 C6.25 6.06 6.25 6.06 7 9 C6.34 9 5.68 9 5 9 C5.66 10.32 6.32 11.64 7 13 C7.78 12.79 8.57 12.59 9.38 12.38 C9.81 12.31 9.81 12.31 12 12 C14 14 14 14 14.12 16.62 C14.08 17.41 14.04 18.19 14 19 C14.66 19 15.32 19 16 19 C16 18.34 16 17.68 16 17 C16.6 17.08 17.21 17.17 17.83 17.25 C18.63 17.36 19.43 17.46 20.25 17.56 C21.04 17.67 21.83 17.77 22.64 17.88 C25.01 18 26.75 17.7 29 17 C29.16 17.49 29.16 17.49 30 20 C29.25 19.94 28.5 19.88 27.73 19.82 C24.75 19.69 21.96 19.63 19 20 C18.34 20.83 17.68 21.65 17 22.5 C15 25 15 25 12.33 25.33 C9.54 25.31 6.78 25.22 4 25 C4 24.34 4 23.68 4 23 C3.71 23 3.71 23 2.24 23.02 C-0.4 23.04 -3.04 23.05 -5.69 23.06 C-6.14 23.07 -6.14 23.07 -8.45 23.09 C-9.34 23.09 -10.22 23.09 -11.14 23.1 C-11.95 23.1 -12.76 23.11 -13.6 23.11 C-16.15 22.99 -18.51 22.56 -21 22 C-20.67 21.34 -20.34 20.68 -20 20 C-16.37 20 -12.74 20 -9 20 C-9 19.01 -9 18.02 -9 17 C-7.68 17.33 -6.36 17.66 -5 18 C-5 16.68 -5 15.36 -5 14 C-4.34 14 -3.68 14 -3 14 C-3.19 13.46 -3.37 12.93 -3.56 12.38 C-4.11 9.38 -3.61 6.96 -3 4 C-2.34 4 -1.68 4 -1 4 C-0.67 2.68 -0.34 1.36 0 0 Z " fill="#DBDEE8" transform="translate(134,30)"/>
<path d="M0 0 C0.99 0 1.98 0 3 0 C3 0.66 3 1.32 3 2 C3.66 2 4.32 2 5 2 C5 2.99 5 3.98 5 5 C5.99 5 6.98 5 8 5 C7.67 5.99 7.34 6.98 7 8 C6.34 8 5.68 8 5 8 C5 8.66 5 9.32 5 10 C8.63 10 12.26 10 16 10 C16.33 8.02 16.66 6.04 17 4 C16.34 3.67 15.68 3.34 15 3 C16.65 3 18.3 3 20 3 C20.33 2.34 20.66 1.68 21 1 C21.99 2.65 22.98 4.3 24 6 C23.01 6 22.02 6 21 6 C21 6.66 21 7.32 21 8 C21.99 8 22.98 8 24 8 C24 8.66 24 9.32 24 10 C25.98 10.66 27.96 11.32 30 12 C30 12.33 30 12.66 30 13 C25.97 12.45 21.98 11.84 18 11 C18 11.66 18 12.32 18 13 C18.66 13.33 19.32 13.66 20 14 C17.01 14.87 14.36 15.11 11.25 15.06 C10.45 15.05 9.65 15.04 8.83 15.04 C8.22 15.02 7.62 15.01 7 15 C6.67 14.34 6.34 13.68 6 13 C5.28 13.02 4.57 13.05 3.83 13.07 C-3.97 13.21 -11.33 12.39 -19 11 C-19 10.34 -19 9.68 -19 9 C-17.87 8.88 -16.73 8.75 -15.56 8.62 C-14.39 8.42 -13.21 8.21 -12 8 C-11.67 7.34 -11.34 6.68 -11 6 C-8.03 6 -5.06 6 -2 6 C-1.86 5.2 -1.71 4.39 -1.56 3.56 C-1 1 -1 1 0 0 Z " fill="#DCE1EC" transform="translate(29,34)"/>
<path d="M0 0 C2.5 1.31 2.5 1.31 5 3 C5 3.99 5 4.98 5 6 C5.66 6.33 6.32 6.66 7 7 C8.69 8.69 8.69 8.69 10 11 C9.69 14.25 9.69 14.25 9 17 C9.99 17 10.98 17 12 17 C12.33 17.66 12.66 18.32 13 19 C13.99 19.66 14.98 20.32 16 21 C15.34 21 14.68 21 14 21 C14.33 22.32 14.66 23.64 15 25 C13.35 25.33 11.7 25.66 10 26 C10 25.34 10 24.68 10 24 C6.7 24 3.4 24 0 24 C-0.33 22.35 -0.66 20.7 -1 19 C-1.78 19.19 -2.57 19.37 -3.38 19.56 C-6 20 -6 20 -8 19 C-8 19.66 -8 20.32 -8 21 C-7.01 21.33 -6.02 21.66 -5 22 C-6.32 22 -7.64 22 -9 22 C-9.33 20.68 -9.66 19.36 -10 18 C-9.54 17.96 -9.54 17.96 -7.19 17.75 C-4 17 -4 17 -2.12 14.94 C-1.94 14.62 -1.94 14.62 -1 13 C-0.01 13.99 0.98 14.98 2 16 C0.11 13.3 -1.2 11.87 -4 10 C-3.67 9.34 -3.34 8.68 -3 8 C-4.32 7.67 -5.64 7.34 -7 7 C-5.35 7 -3.7 7 -2 7 C-2.33 5.35 -2.66 3.7 -3 2 C-2.01 1.34 -1.02 0.68 0 0 Z " fill="#F6F1ED" transform="translate(117,13)"/>
<path d="M0 0 C9.31 0.93 9.31 0.93 12 3 C13.23 5.46 14 7.25 14 10 C15.98 10.99 17.96 11.98 20 13 C19.67 14.65 19.34 16.3 19 18 C16.69 17.67 14.38 17.34 12 17 C12.33 17.99 12.66 18.98 13 20 C11.68 19.67 10.36 19.34 9 19 C8.67 17.68 8.34 16.36 8 15 C7.36 14.86 6.72 14.71 6.06 14.56 C4 14 4 14 3 13 C1.95 9.97 2.02 8.04 3 5 C1.68 4.34 0.36 3.68 -1 3 C-0.67 2.01 -0.34 1.02 0 0 Z " fill="#F7F2ED" transform="translate(60,23)"/>
<path d="M0 0 C3.07 0.9 4.73 1.73 7 4 C7 5.32 7 6.64 7 8 C7.78 7.77 8.57 7.55 9.38 7.31 C13.61 6.95 16.4 7.85 20.39 9.16 C24.21 10.39 28.08 11.18 32 12 C32 12.33 32 12.66 32 13 C28.37 13.33 24.74 13.66 21 14 C21 13.34 21 12.68 21 12 C19.27 11.61 17.54 11.24 15.81 10.88 C14.85 10.67 13.89 10.46 12.89 10.24 C9.61 9.97 7.97 10.67 5 12 C2.67 12.08 0.33 12.09 -2 12 C-1.34 11.01 -0.68 10.02 0 9 C-0.33 8.34 -0.66 7.68 -1 7 C-3.56 6.38 -3.56 6.38 -6 6 C-5.34 5.67 -4.68 5.34 -4 5 C-3.67 4.01 -3.34 3.02 -3 2 C-2.01 1.34 -1.02 0.68 0 0 Z " fill="#F5F0EC" transform="translate(165,40)"/>
<path d="M0 0 C1.32 1.65 2.64 3.3 4 5 C3.01 5 2.02 5 1 5 C1 5.66 1 6.32 1 7 C1.99 7 2.98 7 4 7 C4 7.66 4 8.32 4 9 C5.98 9.66 7.96 10.32 10 11 C10 11.33 10 11.66 10 12 C5.97 11.45 1.98 10.84 -2 10 C-2 10.66 -2 11.32 -2 12 C-1.34 12.33 -0.68 12.66 0 13 C-2.99 13.87 -5.64 14.11 -8.75 14.06 C-9.55 14.05 -10.35 14.04 -11.17 14.04 C-11.78 14.02 -12.38 14.01 -13 14 C-13.33 13.34 -13.66 12.68 -14 12 C-13.01 12 -12.02 12 -11 12 C-11 11.34 -11 10.68 -11 10 C-13.31 10 -15.62 10 -18 10 C-17.49 7.83 -17 6 -16 4 C-14.68 4 -13.36 4 -12 4 C-12.33 4.99 -12.66 5.98 -13 7 C-13.66 7 -14.32 7 -15 7 C-15 7.66 -15 8.32 -15 9 C-11.37 9 -7.74 9 -4 9 C-3.67 7.02 -3.34 5.04 -3 3 C-3.66 2.67 -4.32 2.34 -5 2 C-3.35 2 -1.7 2 0 2 C0 1.34 0 0.68 0 0 Z " fill="#D2D8E8" transform="translate(49,35)"/>
<path d="M0 0 C3.88 2.58 3.81 4.63 5 9 C5.66 9.33 6.32 9.66 7 10 C7 10.66 7 11.32 7 12 C7.66 12.33 8.32 12.66 9 13 C5.75 13.23 2.5 13.43 -0.75 13.62 C-1.67 13.69 -2.59 13.75 -3.54 13.82 C-3.98 13.85 -3.98 13.85 -6.23 13.98 C-6.64 14 -6.64 14 -8.71 14.14 C-11.27 13.98 -12.81 13.29 -15 12 C-14.34 10.68 -13.68 9.36 -13 8 C-9.7 8.33 -6.4 8.66 -3 9 C-2.88 8.26 -2.75 7.52 -2.62 6.75 C-2.05 4.2 -1.26 2.27 0 0 Z " fill="#F2EFEE" transform="translate(113,35)"/>
<path d="M0 0 C3.26 0.42 4.63 0.63 7 3 C6.62 5.63 6.62 5.63 6 8 C4.35 8.33 2.7 8.66 1 9 C1 9.66 1 10.32 1 11 C0.34 11 -0.32 11 -1 11 C-1 11.66 -1 12.32 -1 13 C-1.99 13 -2.98 13 -4 13 C-4 12.01 -4 11.02 -4 10 C-4.66 10 -5.32 10 -6 10 C-6 9.01 -6 8.02 -6 7 C-4.68 7 -3.36 7 -2 7 C-1.86 6.03 -1.71 5.06 -1.56 4.06 C-1 1 -1 1 0 0 Z " fill="#D5DBE8" transform="translate(101,24)"/>
<path d="M0 0 C0.66 0 1.32 0 2 0 C2 0.99 2 1.98 2 3 C3.32 2.01 4.64 1.02 6 0 C6.66 0.33 7.32 0.66 8 1 C8.1 1.64 8.21 2.28 8.31 2.94 C8.43 3.28 8.43 3.28 9 5 C11.56 6.25 11.56 6.25 14 7 C13.67 7.99 13.34 8.98 13 10 C9.04 10 5.08 10 1 10 C1.33 9.01 1.66 8.02 2 7 C0.5 5.5 -0.99 5.67 -3.06 5.44 C-4.36 5.29 -5.66 5.15 -7 5 C-7 4.34 -7 3.68 -7 3 C-4.69 3.33 -2.38 3.66 0 4 C0 2.68 0 1.36 0 0 Z " fill="#C8D1E4" transform="translate(79,37)"/>
<path d="M0 0 C3.19 -0.31 3.19 -0.31 7 0 C9.75 2.38 9.75 2.38 12 5 C12.99 5.66 13.98 6.32 15 7 C15 8.32 15 9.64 15 11 C11.37 11 7.74 11 4 11 C4 9 4 9 5.5 7.38 C5.99 6.92 6.49 6.47 7 6 C6.01 6 5.02 6 4 6 C4 5.01 4 4.02 4 3 C3.34 3 2.68 3 2 3 C2 2.34 2 1.68 2 1 C1.34 0.67 0.68 0.34 0 0 Z " fill="#E8E8EC" transform="translate(30,33)"/>
<path d="M0 0 C2.97 1.12 5.33 2.22 8 4 C7.67 5.32 7.34 6.64 7 8 C4.69 7.67 2.38 7.34 0 7 C0.33 7.99 0.66 8.98 1 10 C-0.32 9.67 -1.64 9.34 -3 9 C-3.12 8.36 -3.25 7.72 -3.38 7.06 C-3.48 6.72 -3.48 6.72 -4 5 C-4.66 4.67 -5.32 4.34 -6 4 C-5.2 3.53 -4.39 3.05 -3.56 2.56 C-1 1 -1 1 0 0 Z " fill="#EAE9EA" transform="translate(72,33)"/>
<path d="M0 0 C3.78 0.92 5.57 1.39 7.88 4.62 C8.06 5.02 8.06 5.02 9 7 C7.35 7 5.7 7 4 7 C3.34 8.98 2.68 10.96 2 13 C0.68 12.67 -0.64 12.34 -2 12 C-2 10 -2 10 -1.5 7.06 C-1 4 -1 4 -1 1 C-0.67 0.67 -0.34 0.34 0 0 Z " fill="#E2E3EB" transform="translate(97,18)"/>
<path d="M0 0 C0.99 0.16 0.99 0.16 6 1 C6 1.33 6 1.66 6 2 C4.02 2 2.04 2 0 2 C0 1.34 0 0.68 0 0 Z " fill="#E7EAEF" transform="translate(91,49)"/>
<path d="" fill="#ECECF0" transform="translate(0,0)"/>
</svg>
