<?xml version="1.0" encoding="UTF-8"?>
<!-- Generator: visioncortex VTracer 0.6.12 -->
<svg version="1.1" xmlns="http://www.w3.org/2000/svg" width="160" height="168">
<path d="M0 0 C0.66 0 1.32 0 2 0 C2.19 0.64 2.39 1.28 2.59 1.93 C2.72 2.35 2.72 2.35 3.38 4.44 C3.63 5.26 3.89 6.08 4.15 6.93 C5 9 5 9 7 10 C7 10.99 7 11.98 7 13 C6.34 13 5.68 13 5 13 C5.16 13.5 5.16 13.5 6 16 C8.56 17.19 8.56 17.19 11 18 C10.67 19.32 10.34 20.64 10 22 C9.34 22 8.68 22 8 22 C8.62 24.44 8.62 24.44 10 27 C13.12 27.81 13.12 27.81 16 28 C16.66 25.69 17.32 23.38 18 21 C18.66 21 19.32 21 20 21 C20.16 22.16 20.16 22.16 21 28 C21.66 28 22.32 28 23 28 C23.77 30.98 24.41 33.98 25 37 C25.7 36.79 26.4 36.59 27.12 36.38 C30 36 30 36 32.88 37 C36 38 36 38 39.38 37.31 C43.83 36.93 45.84 37.91 49.46 40.39 C51 42 51 42 51.5 45.81 C51.34 46.86 51.17 47.92 51 49 C51.56 49.06 52.11 49.12 52.69 49.19 C56.11 50.39 57.75 52.19 60 55 C60.62 58.7 60.24 60.5 58.62 63.88 C58.09 64.58 57.55 65.28 57 66 C56.34 66 55.68 66 55 66 C54.88 66.55 54.88 66.55 54.27 69.32 C53.93 70.78 53.59 72.23 53.25 73.69 C53.09 74.41 52.94 75.13 52.77 75.87 C51.69 80.44 50.42 83.59 47 87 C46.34 87 45.68 87 45 87 C44.88 87.93 44.75 88.86 44.62 89.81 C44 93 44 93 42 96 C41.34 95.84 41.34 95.84 38 95 C38 94.01 38 93.02 38 92 C34.98 93.51 34.44 96.01 33 99 C32.48 99.74 31.97 100.48 31.44 101.25 C29.66 104.66 29.14 107.89 28.46 111.65 C27.94 114.29 27.07 116.54 26 119 C25.78 119.73 25.57 120.47 25.35 121.23 C25.11 122.04 24.87 122.85 24.62 123.69 C24.41 124.45 24.2 125.22 23.98 126.01 C23 128 23 128 19 130 C18.01 127.03 17.02 124.06 16 121 C15.67 121.16 15.67 121.16 14 122 C13.49 123.79 13.07 125.61 12.69 127.44 C11.28 133.49 9.02 138.6 6 144 C2.12 143.12 2.12 143.12 1 142 C-0.32 144.31 -1.64 146.62 -3 149 C-5.69 149.31 -5.69 149.31 -9 149 C-11.62 146.56 -11.62 146.56 -14 144 C-15.32 143.67 -16.64 143.34 -18 143 C-18.99 137.72 -19.98 132.44 -21 127 C-22.65 126.67 -24.3 126.34 -26 126 C-26.66 127.98 -27.32 129.96 -28 132 C-28.66 132 -29.32 132 -30 132 C-30.33 133.65 -30.66 135.3 -31 137 C-31.99 137.33 -32.98 137.66 -34 138 C-34.27 136.87 -34.54 135.73 -34.81 134.56 C-35.2 133.39 -35.6 132.21 -36 131 C-36.99 130.67 -37.98 130.34 -39 130 C-40.12 126.69 -40.12 126.69 -41 123 C-41.21 122.32 -41.41 121.64 -41.62 120.94 C-42.14 118.29 -42 115.69 -42 113 C-42.33 112.67 -42.66 112.34 -43 112 C-43.04 110 -43.04 108 -43 106 C-43.66 106 -44.32 106 -45 106 C-46.5 109.01 -47.07 110.57 -46.5 113.94 C-45.91 117.56 -46.64 119.64 -48 123 C-48.66 123 -49.32 123 -50 123 C-50.22 121.25 -50.43 119.5 -50.62 117.75 C-50.68 117.26 -50.68 117.26 -50.98 114.8 C-51 111.87 -50.53 110.45 -49 108 C-49.66 108 -50.32 108 -51 108 C-51.33 106.02 -51.66 104.04 -52 102 C-52.49 101.84 -52.49 101.84 -55 101 C-57.22 97.03 -57.18 93.48 -57 89 C-57.49 88.84 -57.49 88.84 -60 88 C-60.66 93.28 -61.32 98.56 -62 104 C-62.49 103.84 -62.49 103.84 -65 103 C-66.52 99.4 -67 96.95 -67 93 C-66.34 93 -65.68 93 -65 93 C-65.43 91.73 -65.87 90.46 -66.31 89.19 C-66.56 88.48 -66.8 87.77 -67.05 87.04 C-68.08 84.83 -69.28 83.7 -71 82 C-73.4 77.37 -74.25 73.23 -74 68 C-75 66 -75 66 -76.97 65.15 C-79 64 -79 64 -79.97 61.98 C-80.5 59.61 -80.94 57.43 -81 55 C-79.09 52.02 -77.6 51.22 -74.31 50 C-73.93 49.84 -73.93 49.84 -72 49 C-71.88 48.35 -71.76 47.71 -71.63 47.04 C-71.42 46.37 -71.22 45.69 -71 45 C-69 44.02 -69 44.02 -66.56 43.38 C-62.18 42.18 -62.18 42.18 -60 40 C-60 38.68 -60 37.36 -60 36 C-59.39 34.31 -58.73 32.64 -58 31 C-55 32 -55 32 -54 34 C-53.61 33.53 -53.22 33.05 -52.81 32.56 C-50.59 30.65 -48.87 30.39 -46 30 C-46 29.01 -46 28.02 -46 27 C-47.32 26.34 -48.64 25.68 -50 25 C-49.25 23.06 -49.25 23.06 -48 21 C-45.87 20.25 -45.87 20.25 -44 20 C-44 16.89 -44.54 15.65 -46 13 C-44.68 12.34 -43.36 11.68 -42 11 C-42 10.01 -42 9.02 -42 8 C-41.01 8 -40.02 8 -39 8 C-38.67 5.69 -38.34 3.38 -38 1 C-37.01 1.33 -36.02 1.66 -35 2 C-34.84 2.99 -34.84 2.99 -34 8 C-33.01 8 -32.02 8 -31 8 C-31.33 9.65 -31.66 11.3 -32 13 C-30.02 13.66 -28.04 14.32 -26 15 C-26.16 15.82 -26.16 15.82 -27 20 C-27.99 20.33 -28.98 20.66 -30 21 C-29.05 21.12 -28.1 21.25 -27.12 21.38 C-24 22 -24 22 -22 24 C-21.34 23.34 -20.68 22.68 -20 22 C-20.08 21.67 -20.08 21.67 -20.5 20 C-20.58 19.67 -20.58 19.67 -21 18 C-20.34 17.34 -19.68 16.68 -19 16 C-18.29 14.02 -17.61 12.02 -17 10 C-16.34 10 -15.68 10 -15 10 C-14.71 11.13 -14.42 12.27 -14.12 13.44 C-13.75 14.61 -13.38 15.79 -13 17 C-12.34 17.33 -11.68 17.66 -11 18 C-10.37 20.56 -10.37 20.56 -10 23 C-9.01 23 -8.02 23 -7 23 C-7 22.34 -7 21.68 -7 21 C-7.66 21 -8.32 21 -9 21 C-8.67 19.35 -8.34 17.7 -8 16 C-7.36 15.88 -6.72 15.75 -6.06 15.62 C-5.38 15.42 -4.7 15.21 -4 15 C-3.67 14.34 -3.34 13.68 -3 13 C-3.66 13 -4.32 13 -5 13 C-5.16 12.5 -5.16 12.5 -6 10 C-5.38 9.46 -4.76 8.93 -4.12 8.38 C-1.72 5.69 -0.94 3.45 0 0 Z M-26 28 C-26.33 28.99 -26.66 29.98 -27 31 C-25.84 30.84 -25.84 30.84 -20 30 C-23.75 28 -23.75 28 -26 28 Z M-30 29 C-29 31 -29 31 -29 31 Z M13 31 C13.33 31.66 13.66 32.32 14 33 C14.66 32.34 15.32 31.68 16 31 C15.01 31 14.02 31 13 31 Z M-52 37 C-52 37.66 -52 38.32 -52 39 C-51.01 38.67 -50.02 38.34 -49 38 C-49.99 37.67 -50.98 37.34 -52 37 Z M6 67 C6 67.66 6 68.32 6 69 C6.66 68.67 7.32 68.34 8 68 C7.34 67.67 6.68 67.34 6 67 Z " fill="#676E5E" transform="translate(91,10)"/>
<path d="M0 0 C0.66 0 1.32 0 2 0 C2.16 1.16 2.16 1.16 3 7 C3.66 7 4.32 7 5 7 C5.77 9.98 6.41 12.98 7 16 C7.7 15.79 8.4 15.59 9.12 15.38 C12 15 12 15 14.88 16 C18 17 18 17 21.38 16.31 C25.83 15.93 27.84 16.91 31.46 19.39 C33 21 33 21 33.5 24.81 C33.33 25.86 33.17 26.92 33 28 C33.56 28.06 34.11 28.12 34.69 28.19 C38.11 29.39 39.75 31.19 42 34 C42.62 37.7 42.24 39.5 40.62 42.88 C40.09 43.58 39.55 44.28 39 45 C38.34 45 37.68 45 37 45 C36.88 45.55 36.88 45.55 36.27 48.32 C35.93 49.78 35.59 51.23 35.25 52.69 C35.09 53.41 34.94 54.13 34.77 54.87 C33.69 59.44 32.42 62.59 29 66 C28.34 66 27.68 66 27 66 C26.88 66.93 26.75 67.86 26.62 68.81 C26 72 26 72 24 75 C23.34 74.84 23.34 74.84 20 74 C20.66 70.37 21.32 66.74 22 63 C22.66 63 23.32 63 24 63 C24 61.68 24 60.36 24 59 C23.34 59 22.68 59 22 59 C22 57.02 22 55.04 22 53 C22.66 53 23.32 53 24 53 C24 49.7 24 46.4 24 43 C23.34 42.67 22.68 42.34 22 42 C22 43.98 22 45.96 22 48 C21.34 47.01 20.68 46.02 20 45 C19.5 44.84 19.5 44.84 17 44 C17.23 44.76 17.45 45.53 17.69 46.31 C18 49 18 49 16.69 50.81 C15 52 15 52 13 52 C12.9 51.36 12.79 50.72 12.69 50.06 C12.46 49.38 12.23 48.7 12 48 C11.5 47.84 11.5 47.84 9 47 C8.67 46.01 8.34 45.02 8 44 C7.26 44.02 6.52 44.04 5.75 44.06 C3 44 3 44 0.94 43.31 C-1 43 -1 43 -3.25 44.31 C-3.83 44.87 -4.41 45.43 -5 46 C-5 46.66 -5 47.32 -5 48 C-3.68 48.33 -2.36 48.66 -1 49 C-1 48.34 -1 47.68 -1 47 C-0.34 46.84 -0.34 46.84 3 46 C2.79 46.78 2.59 47.57 2.38 48.38 C2.31 48.81 2.31 48.81 2 51 C2.66 51.66 3.32 52.32 4 53 C3.65 55.26 3.02 56.95 2 59 C1.34 59 0.68 59 0 59 C0 57.68 0 56.36 0 55 C-1.11 55.02 -2.23 55.04 -3.38 55.06 C-7 55 -7 55 -9 54 C-11.33 53.96 -13.67 53.96 -16 54 C-15.01 54.66 -14.02 55.32 -13 56 C-13 56.66 -13 57.32 -13 58 C-13.33 58.16 -13.33 58.16 -15 59 C-15.36 60.66 -15.69 62.33 -16 64 C-17.06 66.31 -17.06 66.31 -18 68 C-18.66 68 -19.32 68 -20 68 C-20.2 65.95 -20.39 63.9 -20.59 61.85 C-20.65 61.54 -20.65 61.54 -21 60 C-21.33 59.84 -21.33 59.84 -23 59 C-23 58.01 -23 57.02 -23 56 C-22.01 55.67 -21.02 55.34 -20 55 C-24.75 54.88 -24.75 54.88 -27 56 C-28.95 55.66 -28.95 55.66 -31.12 55.06 C-31.85 54.87 -32.57 54.67 -33.32 54.47 C-33.87 54.32 -34.43 54.16 -35 54 C-35 54.99 -35 55.98 -35 57 C-38.3 57 -41.6 57 -45 57 C-45 56.01 -45 55.02 -45 54 C-47.64 54 -50.28 54 -53 54 C-53 53.34 -53 52.68 -53 52 C-45.37 50.88 -45.37 50.88 -42 52 C-42.16 51.5 -42.16 51.5 -43 49 C-40.69 48.34 -38.38 47.68 -36 47 C-36.33 46.01 -36.66 45.02 -37 44 C-37.66 43.67 -38.32 43.34 -39 43 C-39 43.99 -39 44.98 -39 46 C-39.66 46 -40.32 46 -41 46 C-41 45.34 -41 44.68 -41 44 C-42.98 44 -44.96 44 -47 44 C-47 44.66 -47 45.32 -47 46 C-47.66 46 -48.32 46 -49 46 C-52 41.62 -52 41.62 -52 39 C-51.67 38.84 -51.67 38.84 -50 38 C-51.65 37.34 -53.3 36.68 -55 36 C-54.31 34.04 -54.31 34.04 -53 32 C-50.69 31.5 -50.69 31.5 -48 31.44 C-45.31 31.37 -45.31 31.37 -43 31 C-42.34 30.01 -41.68 29.02 -41 28 C-39.02 28.66 -37.04 29.32 -35 30 C-35 33 -35 33 -37 35.19 C-37.66 35.79 -38.32 36.38 -39 37 C-38.01 37 -37.02 37 -36 37 C-35.67 36.34 -35.34 35.68 -35 35 C-35 35.99 -35 36.98 -35 38 C-33.54 37.91 -32.08 37.8 -30.62 37.69 C-29.81 37.63 -29 37.57 -28.16 37.51 C-26 37 -26 37 -24 34 C-25.16 34.16 -25.16 34.16 -31 35 C-32.43 32.65 -33.09 31.52 -32.62 28.75 C-32.42 28.17 -32.21 27.59 -32 27 C-30.02 26.67 -28.04 26.34 -26 26 C-26 25.34 -26 24.68 -26 24 C-26.66 24 -27.32 24 -28 24 C-28.33 23.34 -28.66 22.68 -29 22 C-30.32 22.33 -31.64 22.66 -33 23 C-33 22.01 -33 21.02 -33 20 C-34.65 20.66 -36.3 21.32 -38 22 C-37.34 20.68 -36.68 19.36 -36 18 C-35.34 18 -34.68 18 -34 18 C-34 17.34 -34 16.68 -34 16 C-32.35 16.33 -30.7 16.66 -29 17 C-29 16.34 -29 15.68 -29 15 C-29.83 14.84 -29.83 14.84 -34 14 C-34 12.35 -34 10.7 -34 9 C-32.68 9 -31.36 9 -30 9 C-30 9.66 -30 10.32 -30 11 C-26.7 11.33 -23.4 11.66 -20 12 C-19.84 12.5 -19.84 12.5 -19 15 C-19.33 15.66 -19.66 16.32 -20 17 C-25.75 16.12 -25.75 16.12 -28 15 C-28 15.66 -28 16.32 -28 17 C-25.69 17.33 -23.38 17.66 -21 18 C-21.99 18.66 -22.98 19.32 -24 20 C-24.33 20.99 -24.66 21.98 -25 23 C-16.75 23 -8.5 23 0 23 C-0.33 19.7 -0.66 16.4 -1 13 C-2.65 13 -4.3 13 -6 13 C-6 13.99 -6 14.98 -6 16 C-5.01 16.33 -4.02 16.66 -3 17 C-3 17.66 -3 18.32 -3 19 C-6.3 18.67 -9.6 18.34 -13 18 C-13.16 17.51 -13.16 17.51 -14 15 C-14.66 15 -15.32 15 -16 15 C-17.19 11.12 -18 8.08 -18 4 C-16.68 4 -15.36 4 -14 4 C-14 3.01 -14 2.02 -14 1 C-12.68 1 -11.36 1 -10 1 C-9.79 1.8 -9.59 2.61 -9.38 3.44 C-9.15 3.86 -9.15 3.86 -8 6 C-4.88 6.81 -4.88 6.81 -2 7 C-1.34 4.69 -0.68 2.38 0 0 Z M-5 10 C-4.67 10.66 -4.34 11.32 -4 12 C-3.34 11.34 -2.68 10.68 -2 10 C-2.99 10 -3.98 10 -5 10 Z M-12 46 C-12 46.66 -12 47.32 -12 48 C-11.34 47.67 -10.68 47.34 -10 47 C-10.66 46.67 -11.32 46.34 -12 46 Z " fill="#B09C5D" transform="translate(109,31)"/>
<path d="M0 0 C0.66 0 1.32 0 2 0 C2 1.98 2 3.96 2 6 C1.34 6 0.68 6 0 6 C0.33 6.99 0.66 7.98 1 9 C1.66 9.33 2.32 9.66 3 10 C3 9.34 3 8.68 3 8 C3.66 8 4.32 8 5 8 C5 11.63 5 15.26 5 19 C5.66 18.67 6.32 18.34 7 18 C6.67 16.68 6.34 15.36 6 14 C7.32 14 8.64 14 10 14 C10.66 17.3 11.32 20.6 12 24 C12.99 23.67 13.98 23.34 15 23 C15.12 23.64 15.25 24.28 15.38 24.94 C15.58 25.62 15.79 26.3 16 27 C16.66 27.33 17.32 27.66 18 28 C18 27.01 18 26.02 18 25 C18.99 25 19.98 25 21 25 C21 26.32 21 27.64 21 29 C21.99 29 22.98 29 24 29 C24 30.32 24 31.64 24 33 C22.68 32.67 21.36 32.34 20 32 C19.96 33.67 19.96 35.33 20 37 C20.16 37.16 20.16 37.16 21 38 C21.33 37.34 21.66 36.68 22 36 C21.34 35.67 20.68 35.34 20 35 C21.32 35.33 22.64 35.66 24 36 C24 37.32 24 38.64 24 40 C24.33 40.16 24.33 40.16 26 41 C26.33 40.67 26.66 40.34 27 40 C27 39.01 27 38.02 27 37 C27.66 37 28.32 37 29 37 C29.66 39.31 30.32 41.62 31 44 C31.99 44 32.98 44 34 44 C33.67 43.24 33.34 42.47 33 41.69 C32 39 32 39 32 36 C32.83 35.84 32.83 35.84 37 35 C36.93 35.78 36.86 36.56 36.78 37.37 C36.69 38.38 36.6 39.39 36.5 40.44 C36.41 41.45 36.31 42.46 36.22 43.5 C36 46 36 46 36 47 C36.33 47.16 36.33 47.16 38 48 C38 48.66 38 49.32 38 50 C38.66 50 39.32 50 40 50 C40.33 48.68 40.66 47.36 41 46 C41.33 46.16 41.33 46.16 43 47 C43 47.66 43 48.32 43 49 C44.5 50.62 44.5 50.62 46 52 C46 50.35 46 48.7 46 47 C47.32 47.33 48.64 47.66 50 48 C50.16 48.66 50.16 48.66 51 52 C51.66 51.84 51.66 51.84 55 51 C55 55 55 55 53.56 56.62 C53.3 56.85 53.3 56.85 52 58 C51.84 58.33 51.84 58.33 51 60 C51.66 60 52.32 60 53 60 C53 60.66 53 61.32 53 62 C53.66 62 54.32 62 55 62 C55.33 61.01 55.66 60.02 56 59 C56.5 59.16 56.5 59.16 59 60 C59 61.65 59 63.3 59 65 C60.65 64.67 62.3 64.34 64 64 C64 63.01 64 62.02 64 61 C63.01 61 62.02 61 61 61 C60.84 60.01 60.84 60.01 60 55 C60.66 54.67 61.32 54.34 62 54 C62.25 47.6 62.25 47.6 60.94 44.44 C59.72 41.26 60.12 39.24 61 36 C61.66 35.67 62.32 35.34 63 35 C63 35.66 63 36.32 63 37 C63.99 37 64.98 37 66 37 C66 35.02 66 33.04 66 31 C67.65 30.67 69.3 30.34 71 30 C71.16 29.5 71.16 29.5 72 27 C72.66 27 73.32 27 74 27 C74.08 29.12 74.14 31.25 74.19 33.38 C74.2 33.97 74.2 33.97 74.29 36.96 C74.2 37.96 74.1 38.97 74 40 C73.01 40.66 72.02 41.32 71 42 C71.33 40.02 71.66 38.04 72 36 C70.68 36 69.36 36 68 36 C68.04 36.93 68.08 37.86 68.12 38.81 C68 42 68 42 66 45 C65.96 47.33 65.96 49.67 66 52 C65.67 52.99 65.34 53.98 65 55 C67.38 54.75 67.38 54.75 70 54 C71.31 51.94 71.31 51.94 72 50 C72.66 50 73.32 50 74 50 C74.33 49.01 74.66 48.02 75 47 C75.66 47.33 76.32 47.66 77 48 C77.33 46.68 77.66 45.36 78 44 C78.99 44 79.98 44 81 44 C81.33 44.99 81.66 45.98 82 47 C82.18 46.22 82.36 45.44 82.55 44.63 C82.8 43.62 83.05 42.61 83.31 41.56 C83.56 40.55 83.8 39.54 84.05 38.5 C84.36 37.68 84.68 36.85 85 36 C89.25 34.58 91.72 35.81 96 37 C96.66 35.68 97.32 34.36 98 33 C98.33 33 98.66 33 99 33 C99 34.65 99 36.3 99 38 C100.73 32.02 102.37 26.01 104 20 C103.01 20 102.02 20 101 20 C100.92 20.78 100.83 21.57 100.75 22.38 C100 25 100 25 97.94 26.31 C97.62 26.43 97.62 26.43 96 27 C96 26.34 96 25.68 96 25 C96.66 25 97.32 25 98 25 C98.12 24.46 98.12 24.46 98.75 21.75 C100 18 101.02 16.48 104 14 C104.99 14.33 105.98 14.66 107 15 C107.08 19.16 106.98 22.95 106 27 C106.66 27 107.32 27 108 27 C108 28.32 108 29.64 108 31 C107.34 31.33 106.68 31.66 106 32 C104.96 33.98 103.97 35.98 103 38 C102.74 38.37 102.74 38.37 101.44 40.25 C99.66 43.66 99.14 46.89 98.46 50.65 C97.94 53.29 97.07 55.54 96 58 C95.89 58.37 95.89 58.37 95.35 60.23 C95.11 61.04 94.87 61.85 94.62 62.69 C94.41 63.45 94.2 64.22 93.98 65.01 C93 67 93 67 89 69 C88.01 66.03 87.02 63.06 86 60 C85.67 60.16 85.67 60.16 84 61 C83.49 62.79 83.07 64.61 82.69 66.44 C81.28 72.49 79.02 77.6 76 83 C72.12 82.12 72.12 82.12 71 81 C69.68 83.31 68.36 85.62 67 88 C64.31 88.31 64.31 88.31 61 88 C58.38 85.56 58.38 85.56 56 83 C54.68 82.67 53.36 82.34 52 82 C51.01 76.72 50.02 71.44 49 66 C47.35 65.67 45.7 65.34 44 65 C43.34 66.98 42.68 68.96 42 71 C41.34 71 40.68 71 40 71 C39.67 72.65 39.34 74.3 39 76 C38.01 76.33 37.02 76.66 36 77 C35.73 75.87 35.46 74.73 35.19 73.56 C34.8 72.39 34.4 71.21 34 70 C33.01 69.67 32.02 69.34 31 69 C29.88 65.69 29.88 65.69 29 62 C28.79 61.32 28.59 60.64 28.38 59.94 C27.86 57.29 28 54.69 28 52 C27.67 51.67 27.34 51.34 27 51 C26.96 49 26.96 47 27 45 C26.34 45 25.68 45 25 45 C23.5 48.01 22.93 49.57 23.5 52.94 C24.09 56.56 23.36 58.64 22 62 C21.34 62 20.68 62 20 62 C19.78 60.25 19.57 58.5 19.38 56.75 C19.32 56.26 19.32 56.26 19.02 53.8 C19 50.87 19.47 49.45 21 47 C20.34 47 19.68 47 19 47 C18.67 45.02 18.34 43.04 18 41 C17.51 40.84 17.51 40.84 15 40 C12.78 36.03 12.82 32.48 13 28 C12.01 27.67 11.02 27.34 10 27 C9.34 32.28 8.68 37.56 8 43 C7.01 42.67 6.02 42.34 5 42 C3.48 38.4 3 35.95 3 32 C3.66 32 4.32 32 5 32 C4.57 30.73 4.13 29.46 3.69 28.19 C3.57 27.83 3.57 27.83 2.95 26.04 C1.92 23.83 0.72 22.7 -1 21 C-3.4 16.37 -4.25 12.23 -4 7 C-5 5 -5 5 -8 3 C-5.69 3 -3.38 3 -1 3 C-0.67 2.01 -0.34 1.02 0 0 Z " fill="#A1AABA" transform="translate(21,71)"/>
<path d="M0 0 C0.81 0.11 1.62 0.22 2.45 0.34 C2.76 0.38 2.76 0.38 4.31 0.62 C4.48 1.28 4.48 1.28 5.31 4.62 C6.63 4.95 7.95 5.28 9.31 5.62 C9.31 6.94 9.31 8.27 9.31 9.62 C11.86 8.35 12.24 7.22 13.31 4.62 C13.31 3.64 13.31 2.64 13.31 1.62 C14.63 1.95 15.95 2.28 17.31 2.62 C17.64 1.64 17.97 0.64 18.31 -0.38 C19.3 -0.05 20.29 0.28 21.31 0.62 C20.98 3.92 20.65 7.22 20.31 10.62 C19.65 10.62 18.99 10.62 18.31 10.62 C18.31 12.61 18.31 14.59 18.31 16.62 C18.97 16.62 19.63 16.62 20.31 16.62 C20.31 17.94 20.31 19.27 20.31 20.62 C19.65 20.62 18.99 20.62 18.31 20.62 C18.31 23.92 18.31 27.22 18.31 30.62 C16.99 29.31 15.67 27.98 14.31 26.62 C14.97 26.62 15.63 26.62 16.31 26.62 C16.31 25.97 16.31 25.31 16.31 24.62 C15.32 24.95 14.33 25.28 13.31 25.62 C13.64 21.34 13.97 17.05 14.31 12.62 C10.23 14.67 9.79 14.93 8.06 18.75 C7.73 19.47 7.39 20.2 7.05 20.95 C6.8 21.5 6.56 22.05 6.31 22.62 C5.65 22.62 4.99 22.62 4.31 22.62 C4.31 23.28 4.31 23.94 4.31 24.62 C6.84 22.26 8.2 20.96 9.31 17.62 C10.3 17.62 11.29 17.62 12.31 17.62 C11.51 23.66 10.43 29.64 9.31 35.62 C8.65 35.62 7.99 35.62 7.31 35.62 C7.15 34.97 7.15 34.97 6.31 31.62 C5.65 32.94 4.99 34.27 4.31 35.62 C1.01 34.97 -2.29 34.31 -5.69 33.62 C-5.88 34.41 -6.07 35.19 -6.27 36 C-6.4 36.5 -6.4 36.5 -7.06 39.06 C-7.32 40.07 -7.57 41.08 -7.84 42.12 C-8.69 44.62 -8.69 44.62 -10.69 45.62 C-10.69 44.31 -10.69 42.98 -10.69 41.62 C-11.18 41.79 -11.18 41.79 -13.69 42.62 C-14.02 43.62 -14.35 44.6 -14.69 45.62 C-15.35 45.62 -16.01 45.62 -16.69 45.62 C-17.45 46.59 -18.21 47.56 -19 48.56 C-20.9 50.97 -21.46 51.55 -24.5 52.5 C-25.22 52.54 -25.94 52.58 -26.69 52.62 C-26.74 51.02 -26.78 49.42 -26.81 47.81 C-26.84 46.92 -26.86 46.03 -26.88 45.11 C-26.69 42.62 -26.69 42.62 -24.69 39.62 C-24.3 37.64 -23.96 35.63 -23.69 33.62 C-22.37 33.62 -21.05 33.62 -19.69 33.62 C-19.69 35.28 -19.69 36.92 -19.69 38.62 C-17.81 36.75 -18.3 33.59 -18.12 31.06 C-18.04 29.86 -17.96 28.67 -17.87 27.43 C-17.84 26.97 -17.84 26.97 -17.69 24.62 C-18.14 25.11 -18.59 25.59 -19.05 26.08 C-20.91 27.84 -22.2 28.2 -24.69 28.62 C-25.02 30.61 -25.35 32.59 -25.69 34.62 C-27.01 34.3 -28.33 33.97 -29.69 33.62 C-30.75 38.19 -30.45 40.37 -28.69 44.62 C-28.61 46.96 -28.6 49.29 -28.69 51.62 C-29.18 51.79 -29.18 51.79 -31.69 52.62 C-31.36 54.6 -31.03 56.59 -30.69 58.62 C-29.7 58.62 -28.71 58.62 -27.69 58.62 C-27.69 59.62 -27.69 60.6 -27.69 61.62 C-28.51 61.79 -28.51 61.79 -32.69 62.62 C-32.81 61.82 -32.94 61.02 -33.06 60.19 C-33.27 59.34 -33.47 58.5 -33.69 57.62 C-34.35 57.3 -35.01 56.97 -35.69 56.62 C-36.02 57.94 -36.35 59.26 -36.69 60.62 C-37.35 60.3 -38.01 59.97 -38.69 59.62 C-38.69 58.97 -38.69 58.31 -38.69 57.62 C-39.35 57.62 -40.01 57.62 -40.69 57.62 C-40.03 55.97 -39.37 54.33 -38.69 52.62 C-38.03 52.62 -37.37 52.62 -36.69 52.62 C-36.69 51.31 -36.69 49.98 -36.69 48.62 C-37.35 48.79 -37.35 48.79 -40.69 49.62 C-40.36 46.98 -40.03 44.34 -39.69 41.62 C-39.03 41.95 -38.37 42.28 -37.69 42.62 C-37.06 44.69 -37.06 44.69 -36.69 46.62 C-36.52 45.64 -36.52 45.64 -35.69 40.62 C-36.68 40.62 -37.67 40.62 -38.69 40.62 C-38.36 37.98 -38.03 35.34 -37.69 32.62 C-37.03 32.62 -36.37 32.62 -35.69 32.62 C-35.36 31.97 -35.03 31.31 -34.69 30.62 C-34.36 30.3 -34.03 29.97 -33.69 29.62 C-33.62 27.77 -33.6 25.92 -33.62 24.06 C-33.63 23.05 -33.64 22.04 -33.65 21 C-33.66 20.21 -33.68 19.43 -33.69 18.62 C-34.68 18.62 -35.67 18.62 -36.69 18.62 C-36.69 19.94 -36.69 21.27 -36.69 22.62 C-38.01 22.3 -39.33 21.97 -40.69 21.62 C-40.69 19.31 -40.69 17 -40.69 14.62 C-40.03 14.62 -39.37 14.62 -38.69 14.62 C-38.69 13.64 -38.69 12.64 -38.69 11.62 C-38.05 11.71 -37.41 11.79 -36.75 11.88 C-35.93 11.98 -35.1 12.08 -34.25 12.19 C-33.43 12.29 -32.6 12.4 -31.75 12.5 C-31.07 12.54 -30.39 12.58 -29.69 12.62 C-29.36 12.3 -29.03 11.97 -28.69 11.62 C-26.35 11.91 -24.01 12.24 -21.69 12.62 C-21.69 12.95 -21.69 13.28 -21.69 13.62 C-23.34 13.62 -24.99 13.62 -26.69 13.62 C-26.69 14.61 -26.69 15.61 -26.69 16.62 C-25.7 16.95 -24.71 17.28 -23.69 17.62 C-23.69 20.27 -23.69 22.91 -23.69 25.62 C-23.03 25.62 -22.37 25.62 -21.69 25.62 C-20.7 22.66 -19.71 19.69 -18.69 16.62 C-19.35 16.3 -20.01 15.97 -20.69 15.62 C-19.37 15.62 -18.05 15.62 -16.69 15.62 C-16.69 14.97 -16.69 14.31 -16.69 13.62 C-18.01 12.97 -19.33 12.31 -20.69 11.62 C-20.69 11.3 -20.69 10.97 -20.69 10.62 C-14.49 10.52 -8.64 10.64 -2.69 12.62 C-3.02 13.94 -3.35 15.27 -3.69 16.62 C-3.03 16.62 -2.37 16.62 -1.69 16.62 C-1.06 13.75 -1.06 13.75 -0.69 10.62 C-1.35 9.97 -2.01 9.31 -2.69 8.62 C-2.31 6.5 -2.31 6.5 -1.69 4.62 C-2.68 4.62 -3.67 4.62 -4.69 4.62 C-4.69 5.28 -4.69 5.94 -4.69 6.62 C-5.51 6.46 -5.51 6.46 -9.69 5.62 C-7.56 0.71 -5.31 -0.77 0 0 Z " fill="#978B82" transform="translate(112.6875,73.375)"/>
<path d="M0 0 C0.99 0.33 1.98 0.66 3 1 C3.08 5.16 2.98 8.95 2 13 C2.66 13 3.32 13 4 13 C4 14.32 4 15.64 4 17 C3.67 17.16 3.67 17.16 2 18 C0.96 19.98 -0.03 21.98 -1 24 C-1.26 24.37 -1.26 24.37 -2.56 26.25 C-4.34 29.66 -4.86 32.89 -5.54 36.65 C-6.06 39.29 -6.93 41.54 -8 44 C-8.22 44.73 -8.43 45.47 -8.65 46.23 C-8.89 47.04 -9.13 47.85 -9.38 48.69 C-9.59 49.45 -9.8 50.22 -10.02 51.01 C-11 53 -11 53 -15 55 C-15.99 52.03 -16.98 49.06 -18 46 C-18.33 46.16 -18.33 46.16 -20 47 C-20.51 48.79 -20.93 50.61 -21.31 52.44 C-22.72 58.49 -24.98 63.6 -28 69 C-31.88 68.12 -31.88 68.12 -33 67 C-34.32 69.31 -35.64 71.62 -37 74 C-39.69 74.31 -39.69 74.31 -43 74 C-45.62 71.56 -45.62 71.56 -48 69 C-50.15 68.34 -50.15 68.34 -52 68 C-53.39 62.55 -54.24 57.63 -54 52 C-52.68 52 -51.36 52 -50 52 C-49 53 -49 53 -48.94 56.56 C-48.96 57.7 -48.98 58.83 -49 60 C-48.01 60.33 -47.02 60.66 -46 61 C-45.67 61.66 -45.34 62.32 -45 63 C-43.68 63 -42.36 63 -41 63 C-41 64.32 -41 65.64 -41 67 C-40.5 66.84 -40.5 66.84 -38 66 C-37.86 65.61 -37.86 65.61 -37.12 63.62 C-35.72 60.34 -34.13 59.57 -31 58 C-31 59.32 -31 60.64 -31 62 C-29.84 58.53 -29.93 55.64 -30 52 C-35.66 54.46 -35.66 54.46 -37.38 57.19 C-37.58 57.79 -37.79 58.38 -38 59 C-38.66 59 -39.32 59 -40 59 C-39.8 57.2 -39.56 55.41 -39.31 53.62 C-39.18 52.63 -39.06 51.63 -38.93 50.6 C-38 48 -38 48 -35.42 46.65 C-34.62 46.43 -33.82 46.22 -33 46 C-33 47.32 -33 48.64 -33 50 C-32.67 49.84 -32.67 49.84 -31 49 C-30.69 46.29 -30.49 43.66 -30.38 40.94 C-30.34 40.18 -30.3 39.42 -30.26 38.64 C-30.16 36.76 -30.08 34.88 -30 33 C-29.5 33.16 -29.5 33.16 -27 34 C-26.67 32.68 -26.34 31.36 -26 30 C-25.01 30 -24.02 30 -23 30 C-22.67 30.99 -22.34 31.98 -22 33 C-21.82 32.22 -21.64 31.44 -21.45 30.63 C-21.32 30.12 -21.32 30.12 -20.69 27.56 C-20.44 26.55 -20.2 25.54 -19.95 24.5 C-19.64 23.68 -19.32 22.85 -19 22 C-14.75 20.58 -12.28 21.81 -8 23 C-7.34 21.68 -6.68 20.36 -6 19 C-5.67 19 -5.34 19 -5 19 C-5 20.65 -5 22.3 -5 24 C-3.27 18.02 -1.63 12.01 0 6 C-0.99 6 -1.98 6 -3 6 C-3.08 6.78 -3.16 7.57 -3.25 8.38 C-4 11 -4 11 -6.06 12.31 C-6.38 12.43 -6.38 12.43 -8 13 C-8 12.34 -8 11.68 -8 11 C-7.34 11 -6.68 11 -6 11 C-5.75 9.93 -5.5 8.86 -5.25 7.75 C-4 4 -2.98 2.48 0 0 Z " fill="#CABDB0" transform="translate(125,85)"/>
<path d="M0 0 C0.66 0 1.32 0 2 0 C2.19 0.64 2.39 1.28 2.59 1.93 C2.72 2.35 2.72 2.35 3.38 4.44 C3.63 5.26 3.89 6.08 4.15 6.93 C5 9 5 9 7 10 C7 10.99 7 11.98 7 13 C6.34 13 5.68 13 5 13 C5.16 13.5 5.16 13.5 6 16 C8.56 17.19 8.56 17.19 11 18 C10.67 19.32 10.34 20.64 10 22 C8.02 22 6.04 22 4 22 C4 22.99 4 23.98 4 25 C2.68 25 1.36 25 0 25 C0.33 25.7 0.66 26.4 1 27.12 C2.09 30.26 2.15 32.71 2 36 C2.66 36 3.32 36 4 36 C4.33 36.66 4.66 37.32 5 38 C7.29 38.63 7.29 38.63 10.06 39.12 C10.98 39.29 11.9 39.46 12.85 39.63 C13.2 39.69 13.2 39.69 15 40 C14.5 39.57 14.01 39.13 13.5 38.69 C12 37 12 37 12 34 C13.65 34 15.3 34 17 34 C18.16 37.47 18.07 40.36 18 44 C9.53 45.12 1.49 44.81 -7 44 C-6.67 42.68 -6.34 41.36 -6 40 C-7.32 39.34 -8.64 38.68 -10 38 C-10 37.34 -10 36.68 -10 36 C-7.36 36.66 -4.72 37.32 -2 38 C-2 36.68 -2 35.36 -2 34 C-3.09 33.86 -4.19 33.71 -5.31 33.56 C-9 33 -9 33 -12 32 C-12 31.34 -12 30.68 -12 30 C-13.32 30 -14.64 30 -16 30 C-16 31.65 -16 33.3 -16 35 C-14.35 35.33 -12.7 35.66 -11 36 C-11 36.66 -11 37.32 -11 38 C-12.65 37.67 -14.3 37.34 -16 37 C-16 37.66 -16 38.32 -16 39 C-17.5 40.62 -17.5 40.62 -19 42 C-18.34 41.84 -18.34 41.84 -15 41 C-14.67 41.66 -14.34 42.32 -14 43 C-12.68 43 -11.36 43 -10 43 C-10 43.66 -10 44.32 -10 45 C-9.34 45 -8.68 45 -8 45 C-7.67 45.99 -7.34 46.98 -7 48 C-9.31 48 -11.62 48 -14 48 C-14 49.98 -14 51.96 -14 54 C-11.07 54.98 -9.04 55.08 -6 55 C-6.56 56.94 -6.56 56.94 -8 59 C-11.44 59.88 -11.44 59.88 -15 60 C-15.99 59.34 -16.98 58.68 -18 58 C-18.99 58 -19.98 58 -21 58 C-20.34 56.68 -19.68 55.36 -19 54 C-18.34 54 -17.68 54 -17 54 C-17 53.01 -17 52.02 -17 51 C-18.98 50.67 -20.96 50.34 -23 50 C-23.66 50.99 -24.32 51.98 -25 53 C-27.64 52.67 -30.28 52.34 -33 52 C-34.26 49.09 -35 47.2 -35 44 C-35.66 44 -36.32 44 -37 44 C-37 45.32 -37 46.64 -37 48 C-39.37 48.19 -39.37 48.19 -42 48 C-44 45 -44 45 -43.62 42.31 C-43.42 41.55 -43.21 40.79 -43 40 C-42.51 39.84 -42.51 39.84 -40 39 C-39.67 39.66 -39.34 40.32 -39 41 C-38.84 40.01 -38.84 40.01 -38 35 C-35.83 35.51 -34 36 -32 37 C-31.67 36.01 -31.34 35.02 -31 34 C-30.65 33.95 -30.65 33.95 -28.88 33.7 C-27.97 33.55 -27.06 33.4 -26.12 33.25 C-25.22 33.11 -24.32 32.97 -23.38 32.83 C-21 32 -21 32 -19.79 29.97 C-19.53 29.32 -19.27 28.67 -19 28 C-15.42 26.28 -11.78 27.35 -8 28 C-7.84 27.51 -7.84 27.51 -7 25 C-6.01 24.34 -5.02 23.68 -4 23 C-4.31 21.06 -4.31 21.06 -5 19 C-5.99 18.67 -6.98 18.34 -8 18 C-6.35 17.67 -4.7 17.34 -3 17 C-3 15.68 -3 14.36 -3 13 C-3.66 13 -4.32 13 -5 13 C-5.16 12.5 -5.16 12.5 -6 10 C-5.38 9.46 -4.76 8.93 -4.12 8.38 C-1.72 5.69 -0.94 3.45 0 0 Z " fill="#6A6C53" transform="translate(91,10)"/>
<path d="M0 0 C0 0.66 0 1.32 0 2 C0.66 2 1.32 2 2 2 C2 1.01 2 0.02 2 -1 C3.32 -0.34 4.64 0.32 6 1 C5.67 1.99 5.34 2.98 5 4 C1.94 5.19 1.94 5.19 -1 6 C-1 6.66 -1 7.32 -1 8 C-4.63 8 -8.26 8 -12 8 C-12 8.66 -12 9.32 -12 10 C-10.72 9.79 -9.44 9.59 -8.12 9.38 C-5.95 9.02 -5.95 9.02 -4 9 C-2 11 -2 11 -2 12 C-1.01 12.16 -1.01 12.16 4 13 C4.69 15.49 5 17.38 5 20 C5.99 20.33 6.98 20.66 8 21 C8 19.68 8 18.36 8 17 C8.99 17 9.98 17 11 17 C11.16 19.31 11.16 19.31 12 31 C10.33 31 8.67 31 7 31 C6.67 33.64 6.34 36.28 6 39 C6.99 39 7.98 39 9 39 C9 40.98 9 42.96 9 45 C8.67 45.16 8.67 45.16 7 46 C6.67 45.01 6.34 44.02 6 43 C5.67 43.99 5.34 44.98 5 46 C4.34 46 3.68 46 3 46 C2.34 45.34 1.68 44.68 1 44 C-0 46 -0.49 47.83 -1 50 C-1.1 49.36 -1.21 48.72 -1.31 48.06 C-1.54 47.38 -1.77 46.7 -2 46 C-2.5 45.84 -2.5 45.84 -5 45 C-5.16 44.84 -5.16 44.84 -6 44 C-6.33 44.66 -6.66 45.32 -7 46 C-7.66 46 -8.32 46 -9 46 C-9.33 45.34 -9.66 44.68 -10 44 C-10.66 44.99 -11.32 45.98 -12 47 C-13.01 43.85 -12.87 42.15 -12 39 C-11.62 36.34 -11.31 33.67 -11 31 C-11.99 30.67 -12.98 30.34 -14 30 C-14.33 29.34 -14.66 28.68 -15 28 C-15.99 28.33 -16.98 28.66 -18 29 C-18.47 28.03 -18.95 27.06 -19.44 26.06 C-21 23 -21 23 -22 22 C-22.14 19.33 -22.04 16.68 -22 14 C-21.34 14 -20.68 14 -20 14 C-20 12.02 -20 10.04 -20 8 C-19.34 8 -18.68 8 -18 8 C-18 7.01 -18 6.02 -18 5 C-19.32 4.34 -20.64 3.68 -22 3 C-16.25 2.88 -16.25 2.88 -14 4 C-14 4.66 -14 5.32 -14 6 C-13.34 6 -12.68 6 -12 6 C-11.67 4.02 -11.34 2.04 -11 0 C-10.01 0 -9.02 0 -8 0 C-8 0.66 -8 1.32 -8 2 C-7.34 2 -6.68 2 -6 2 C-6 1.34 -6 0.68 -6 0 C-3.51 -1.25 -2.59 -0.78 0 0 Z " fill="#5D5C4A" transform="translate(68,75)"/>
<path d="M0 0 C2.31 0.66 4.62 1.32 7 2 C7 5 7 5 5 7.19 C4.67 7.49 4.67 7.49 3 9 C3.99 9 4.98 9 6 9 C6.33 8.34 6.66 7.68 7 7 C7 7.99 7 8.98 7 10 C7.65 9.93 7.65 9.93 10.92 9.56 C20.66 8.51 30.19 7.68 40 8 C40.16 8.33 40.16 8.33 41 10 C38.07 12 35.96 13.09 32.38 12.75 C29.89 12.24 27.45 11.67 25 11 C25 11.66 25 12.32 25 13 C25.99 13 26.98 13 28 13 C28 13.66 28 14.32 28 15 C26.02 15.66 24.04 16.32 22 17 C23.3 17.14 24.6 17.29 25.94 17.44 C29.88 17.88 29.88 17.88 31 19 C31.66 18.67 32.32 18.34 33 18 C34.95 18.56 34.95 18.56 37.12 19.44 C37.85 19.72 38.57 20.01 39.32 20.31 C39.6 20.42 39.6 20.42 41 21 C41 20.34 41 19.68 41 19 C42.32 18.67 43.64 18.34 45 18 C44.79 18.78 44.59 19.57 44.38 20.38 C44.31 20.81 44.31 20.81 44 23 C44.66 23.66 45.32 24.32 46 25 C45.65 27.26 45.02 28.95 44 31 C43.34 31 42.68 31 42 31 C42 29.68 42 28.36 42 27 C40.89 27.02 39.77 27.04 38.62 27.06 C35 27 35 27 33 26 C30.67 25.96 28.33 25.96 26 26 C26.99 26.66 27.98 27.32 29 28 C29 28.66 29 29.32 29 30 C28.67 30.16 28.67 30.16 27 31 C26.64 32.66 26.31 34.33 26 36 C24.94 38.31 24.94 38.31 24 40 C23.34 40 22.68 40 22 40 C21.8 37.95 21.61 35.9 21.41 33.85 C21.35 33.54 21.35 33.54 21 32 C20.34 31.67 19.68 31.34 19 31 C19 30.01 19 29.02 19 28 C19.99 27.67 20.98 27.34 22 27 C17.25 26.88 17.25 26.88 15 28 C13.05 27.66 13.05 27.66 10.88 27.06 C10.15 26.87 9.43 26.67 8.68 26.47 C8.13 26.32 7.57 26.16 7 26 C7 26.99 7 27.98 7 29 C3.7 29 0.4 29 -3 29 C-3 28.01 -3 27.02 -3 26 C-5.64 26 -8.28 26 -11 26 C-11 25.34 -11 24.68 -11 24 C-3.38 22.88 -3.38 22.88 0 24 C-0.33 23.01 -0.66 22.02 -1 21 C1.31 20.34 3.62 19.68 6 19 C5.67 18.01 5.34 17.02 5 16 C4.34 15.67 3.68 15.34 3 15 C3 15.99 3 16.98 3 18 C2.34 18 1.68 18 1 18 C1 17.34 1 16.68 1 16 C-0.98 16 -2.96 16 -5 16 C-5 16.66 -5 17.32 -5 18 C-5.66 18 -6.32 18 -7 18 C-10 13.62 -10 13.62 -10 11 C-9.34 10.67 -8.68 10.34 -8 10 C-8.83 9.67 -8.83 9.67 -13 8 C-12.32 6.05 -12.32 6.05 -11 4 C-8.62 3.39 -8.62 3.39 -5.88 3.25 C-4.96 3.19 -4.05 3.14 -3.12 3.08 C-2.42 3.05 -1.72 3.03 -1 3 C-0.67 2.01 -0.34 1.02 0 0 Z " fill="#C6AB6F" transform="translate(67,59)"/>
<path d="M0 0 C0.99 0.33 1.98 0.66 3 1 C2.67 4.3 2.34 7.6 2 11 C1.34 11 0.68 11 0 11 C0 12.98 0 14.96 0 17 C0.66 17 1.32 17 2 17 C2 18.32 2 19.64 2 21 C1.34 21 0.68 21 0 21 C0 24.3 0 27.6 0 31 C-1.32 29.68 -2.64 28.36 -4 27 C-3.34 27 -2.68 27 -2 27 C-2 26.34 -2 25.68 -2 25 C-2.99 25.33 -3.98 25.66 -5 26 C-4.67 21.71 -4.34 17.42 -4 13 C-8.08 15.04 -8.52 15.3 -10.25 19.12 C-10.59 19.85 -10.92 20.57 -11.27 21.32 C-11.51 21.87 -11.75 22.43 -12 23 C-12.66 23 -13.32 23 -14 23 C-14 23.66 -14 24.32 -14 25 C-11.47 22.64 -10.11 21.34 -9 18 C-8.01 18 -7.02 18 -6 18 C-6.8 24.04 -7.88 30.01 -9 36 C-9.66 36 -10.32 36 -11 36 C-11.16 35.34 -11.16 35.34 -12 32 C-12.66 33.32 -13.32 34.64 -14 36 C-17.3 35.34 -20.6 34.68 -24 34 C-24.19 34.78 -24.39 35.56 -24.59 36.37 C-24.72 36.88 -24.72 36.88 -25.38 39.44 C-25.63 40.45 -25.89 41.46 -26.15 42.5 C-27 45 -27 45 -29 46 C-29 44.68 -29 43.36 -29 42 C-29.5 42.16 -29.5 42.16 -32 43 C-32.33 43.99 -32.66 44.98 -33 46 C-33.66 46 -34.32 46 -35 46 C-35.38 46.48 -35.38 46.48 -37.31 48.94 C-39.21 51.34 -39.77 51.93 -42.81 52.88 C-43.53 52.92 -44.26 52.96 -45 53 C-45.05 51.4 -45.09 49.79 -45.12 48.19 C-45.14 47.74 -45.14 47.74 -45.2 45.48 C-45 43 -45 43 -43 40 C-42.61 38.01 -42.27 36.01 -42 34 C-40.68 34 -39.36 34 -38 34 C-38 35.65 -38 37.3 -38 39 C-36.36 37.36 -36.68 35.32 -36.5 33.06 C-36.11 28.22 -36.11 28.22 -35 26 C-33.02 26 -31.04 26 -29 26 C-29 25.01 -29 24.02 -29 23 C-29.99 23.33 -30.98 23.66 -32 24 C-30.63 21.05 -29.12 18.48 -27 16 C-26.34 16 -25.68 16 -25 16 C-23.93 19.2 -23.93 21.66 -24 25 C-23.01 23.02 -22.02 21.04 -21 19 C-20.67 19 -20.34 19 -20 19 C-20.33 21.97 -20.66 24.94 -21 28 C-18.64 25.64 -18.51 24.22 -18 21 C-17.01 21 -16.02 21 -15 21 C-15 20.34 -15 19.68 -15 19 C-14.01 18.67 -13.02 18.34 -12 18 C-12.66 17.24 -13.32 16.47 -14 15.69 C-16 13 -16 13 -16 10 C-15.34 10 -14.68 10 -14 10 C-14 8.35 -14 6.7 -14 5 C-13.17 5.17 -13.17 5.17 -9 6 C-9 7.32 -9 8.64 -9 10 C-6.45 8.72 -6.07 7.6 -5 5 C-5 4.01 -5 3.02 -5 2 C-3.68 2.33 -2.36 2.66 -1 3 C-0.67 2.01 -0.34 1.02 0 0 Z " fill="#898683" transform="translate(131,73)"/>
<path d="M0 0 C0.66 0.66 1.32 1.32 2 2 C2.6 2.1 3.2 2.21 3.81 2.31 C7.21 3.38 8.8 5.25 11 8 C11.62 11.7 11.24 13.5 9.62 16.88 C9.09 17.58 8.55 18.28 8 19 C7.34 19 6.68 19 6 19 C5.76 20.1 5.52 21.19 5.27 22.32 C4.93 23.78 4.59 25.23 4.25 26.69 C4.17 27.05 4.17 27.05 3.77 28.87 C2.69 33.44 1.42 36.59 -2 40 C-2.66 40 -3.32 40 -4 40 C-4.12 40.93 -4.25 41.86 -4.38 42.81 C-5 46 -5 46 -7 49 C-8.32 48.67 -9.64 48.34 -11 48 C-10.34 44.37 -9.68 40.74 -9 37 C-8.34 37 -7.68 37 -7 37 C-7 35.68 -7 34.36 -7 33 C-7.66 33 -8.32 33 -9 33 C-9 31.02 -9 29.04 -9 27 C-8.34 27 -7.68 27 -7 27 C-7 23.7 -7 20.4 -7 17 C-7.66 16.67 -8.32 16.34 -9 16 C-9 17.98 -9 19.96 -9 22 C-9.66 21.01 -10.32 20.02 -11 19 C-11.99 18.67 -12.98 18.34 -14 18 C-13.77 18.76 -13.55 19.53 -13.31 20.31 C-13 23 -13 23 -14.31 24.81 C-16 26 -16 26 -18 26 C-18.12 25.36 -18.25 24.72 -18.38 24.06 C-18.58 23.38 -18.79 22.7 -19 22 C-19.66 21.67 -20.32 21.34 -21 21 C-21 20.34 -21 19.68 -21 19 C-19.68 19 -18.36 19 -17 19 C-16.67 17.35 -16.34 15.7 -16 14 C-14.54 13.97 -13.08 13.95 -11.62 13.94 C-10.81 13.93 -10 13.91 -9.16 13.9 C-7 14 -7 14 -5 15 C-4.88 21.75 -4.88 21.75 -6 24 C-5.01 24 -4.02 24 -3 24 C-3.04 22.93 -3.08 21.86 -3.12 20.75 C-3.01 17.34 -2.79 15.79 -1 13 C-1.66 13 -2.32 13 -3 13 C-3.33 11.35 -3.66 9.7 -4 8 C-4.66 8 -5.32 8 -6 8 C-6 7.34 -6 6.68 -6 6 C-7.07 6.52 -8.15 7.03 -9.25 7.56 C-11.71 8.63 -12.72 9.04 -15.44 8.69 C-15.95 8.46 -16.47 8.23 -17 8 C-16.67 7.01 -16.34 6.02 -16 5 C-13.94 4.31 -13.94 4.31 -12 4 C-12 3.01 -12 2.02 -12 1 C-10.02 1.33 -10.02 1.33 0 3 C0 2.01 0 1.02 0 0 Z " fill="#A89C8E" transform="translate(140,57)"/>
<path d="M0 0 C0.99 0.33 1.98 0.66 3 1 C3.33 2.98 3.66 4.96 4 7 C4.99 7 5.98 7 7 7 C6.67 8.65 6.34 10.3 6 12 C7.98 12.66 9.96 13.32 12 14 C11.67 15.65 11.34 17.3 11 19 C10.01 19.33 9.02 19.66 8 20 C8.95 20.12 9.9 20.25 10.88 20.38 C14 21 14 21 16 23 C16.66 22.34 17.32 21.68 18 21 C17.92 20.67 17.92 20.67 17.5 19 C17.42 18.67 17.42 18.67 17 17 C17.66 16.34 18.32 15.68 19 15 C19.71 13.02 20.39 11.02 21 9 C21.66 9 22.32 9 23 9 C23.29 10.13 23.58 11.27 23.88 12.44 C24.25 13.61 24.62 14.79 25 16 C25.66 16.33 26.32 16.66 27 17 C27.62 19.56 27.62 19.56 28 22 C28.99 22 29.98 22 31 22 C31 21.34 31 20.68 31 20 C30.34 20 29.68 20 29 20 C29.33 18.35 29.66 16.7 30 15 C31.65 14.67 33.3 14.34 35 14 C35 14.66 35 15.32 35 16 C34.34 16.66 33.68 17.32 33 18 C33.66 19.65 34.32 21.3 35 23 C34.7 23.13 34.7 23.13 33.19 23.81 C31 25 31 25 29.66 26.59 C28 28 28 28 25.74 28.07 C24.94 27.95 24.14 27.82 23.31 27.69 C22.5 27.57 21.7 27.45 20.86 27.32 C20.25 27.22 19.63 27.11 19 27 C18.67 28.65 18.34 30.3 18 32 C17.11 32.14 16.23 32.29 15.31 32.44 C14.22 32.62 13.13 32.81 12 33 C11.07 33.14 10.14 33.29 9.19 33.44 C8.47 33.62 7.74 33.81 7 34 C6.67 34.66 6.34 35.32 6 36 C4.68 35.34 3.36 34.68 2 34 C2 33.01 2 32.02 2 31 C3.65 30.67 5.3 30.34 7 30 C6.75 28.12 6.75 28.12 6 26 C4.06 24.88 4.06 24.88 2 24 C1.34 23.34 0.68 22.68 0 22 C-3.4 21.78 -5.76 21.92 -9 23 C-9 23.66 -9 24.32 -9 25 C-8.34 25 -7.68 25 -7 25 C-7 25.99 -7 26.98 -7 28 C-6.34 28 -5.68 28 -5 28 C-5 27.34 -5 26.68 -5 26 C-4.34 26.33 -3.68 26.66 -3 27 C-3.33 27.99 -3.66 28.98 -4 30 C-5.32 29.67 -6.64 29.34 -8 29 C-8 28.01 -8 27.02 -8 26 C-9.32 25.34 -10.64 24.68 -12 24 C-11.25 22.06 -11.25 22.06 -10 20 C-7.87 19.25 -7.87 19.25 -6 19 C-6 15.89 -6.54 14.65 -8 12 C-6.68 11.34 -5.36 10.68 -4 10 C-4 9.01 -4 8.02 -4 7 C-3.01 7 -2.02 7 -1 7 C-0.67 4.69 -0.34 2.38 0 0 Z M12 27 C11.67 27.99 11.34 28.98 11 30 C12.16 29.84 12.16 29.84 18 29 C14.25 27 14.25 27 12 27 Z M8 28 C9 30 9 30 9 30 Z " fill="#A19C81" transform="translate(53,11)"/>
<path d="M0 0 C0.66 0 1.32 0 2 0 C2 1.98 2 3.96 2 6 C1.34 6 0.68 6 0 6 C0.33 6.99 0.66 7.98 1 9 C1.66 9.33 2.32 9.66 3 10 C3 9.34 3 8.68 3 8 C3.66 8 4.32 8 5 8 C5 11.63 5 15.26 5 19 C5.66 18.67 6.32 18.34 7 18 C6.67 16.68 6.34 15.36 6 14 C7.32 14 8.64 14 10 14 C10.66 17.3 11.32 20.6 12 24 C12.99 23.67 13.98 23.34 15 23 C15.12 23.64 15.25 24.28 15.38 24.94 C15.58 25.62 15.79 26.3 16 27 C16.66 27.33 17.32 27.66 18 28 C18 27.01 18 26.02 18 25 C18.99 25 19.98 25 21 25 C21 26.32 21 27.64 21 29 C21.99 29 22.98 29 24 29 C24 30.32 24 31.64 24 33 C22.68 32.67 21.36 32.34 20 32 C19.96 33.67 19.96 35.33 20 37 C20.16 37.16 20.16 37.16 21 38 C21.33 37.34 21.66 36.68 22 36 C21.34 35.67 20.68 35.34 20 35 C21.32 35.33 22.64 35.66 24 36 C24 37.32 24 38.64 24 40 C24.33 40.16 24.33 40.16 26 41 C26 41.99 26 42.98 26 44 C26.99 44.33 27.98 44.66 29 45 C28.67 46.98 28.34 48.96 28 51 C27.67 51 27.34 51 27 51 C27 49.02 27 47.04 27 45 C26.34 45 25.68 45 25 45 C23.5 48.01 22.93 49.57 23.5 52.94 C24.09 56.56 23.36 58.64 22 62 C21.34 62 20.68 62 20 62 C19.78 60.25 19.57 58.5 19.38 56.75 C19.32 56.26 19.32 56.26 19.02 53.8 C19 50.87 19.47 49.45 21 47 C20.34 47 19.68 47 19 47 C18.67 45.02 18.34 43.04 18 41 C17.51 40.84 17.51 40.84 15 40 C12.78 36.03 12.82 32.48 13 28 C12.01 27.67 11.02 27.34 10 27 C9.34 32.28 8.68 37.56 8 43 C7.01 42.67 6.02 42.34 5 42 C3.48 38.4 3 35.95 3 32 C3.66 32 4.32 32 5 32 C4.57 30.73 4.13 29.46 3.69 28.19 C3.57 27.83 3.57 27.83 2.95 26.04 C1.92 23.83 0.72 22.7 -1 21 C-3.4 16.37 -4.25 12.23 -4 7 C-5 5 -5 5 -8 3 C-5.69 3 -3.38 3 -1 3 C-0.67 2.01 -0.34 1.02 0 0 Z " fill="#979FAC" transform="translate(21,71)"/>
<path d="M0 0 C0.99 0 1.98 0 3 0 C3.19 2.88 3.19 2.88 3 6 C2.01 6.66 1.02 7.32 0 8 C-0.69 10.12 -0.69 10.12 -1 12 C0.65 11.67 2.3 11.34 4 11 C4.33 9.02 4.66 7.04 5 5 C5.33 5 5.66 5 6 5 C6 7.97 6 10.94 6 14 C6.99 14.33 7.98 14.66 9 15 C8.34 15.33 7.68 15.66 7 16 C6.49 17.79 6.07 19.61 5.69 21.44 C4.28 27.49 2.02 32.6 -1 38 C-4.88 37.12 -4.88 37.12 -6 36 C-7.32 38.31 -8.64 40.62 -10 43 C-12.69 43.31 -12.69 43.31 -16 43 C-18.62 40.56 -18.62 40.56 -21 38 C-23.15 37.34 -23.15 37.34 -25 37 C-26.39 31.55 -27.24 26.63 -27 21 C-25.68 21 -24.36 21 -23 21 C-22 22 -22 22 -21.94 25.56 C-21.96 26.7 -21.98 27.83 -22 29 C-21.01 29.33 -20.02 29.66 -19 30 C-18.67 30.66 -18.34 31.32 -18 32 C-16.68 32 -15.36 32 -14 32 C-14 33.32 -14 34.64 -14 36 C-13.5 35.84 -13.5 35.84 -11 35 C-10.71 34.22 -10.42 33.43 -10.12 32.62 C-8.72 29.34 -7.13 28.57 -4 27 C-4 28.32 -4 29.64 -4 31 C-2.84 27.53 -2.93 24.64 -3 21 C-8.66 23.46 -8.66 23.46 -10.38 26.19 C-10.48 26.49 -10.48 26.49 -11 28 C-11.66 28 -12.32 28 -13 28 C-12.8 26.2 -12.56 24.41 -12.31 22.62 C-12.18 21.63 -12.06 20.63 -11.93 19.6 C-11 17 -11 17 -8.42 15.65 C-7.62 15.43 -6.82 15.22 -6 15 C-6 16.32 -6 17.64 -6 19 C-5.34 18.67 -4.68 18.34 -4 18 C-3.69 15.29 -3.49 12.66 -3.38 9.94 C-3.34 9.18 -3.3 8.42 -3.26 7.64 C-3.16 5.76 -3.08 3.88 -3 2 C-2.01 2.33 -1.02 2.66 0 3 C0 2.01 0 1.02 0 0 Z " fill="#E3E0DE" transform="translate(98,116)"/>
<path d="M0 0 C1.32 0 2.64 0 4 0 C4 0.66 4 1.32 4 2 C7.3 2.33 10.6 2.66 14 3 C14.33 3.99 14.66 4.98 15 6 C14.67 6.66 14.34 7.32 14 8 C8.25 7.12 8.25 7.12 6 6 C6 6.66 6 7.32 6 8 C8.31 8.33 10.62 8.66 13 9 C12.01 9.66 11.02 10.32 10 11 C9.67 11.99 9.34 12.98 9 14 C17.91 14 26.82 14 36 14 C36 15.32 36 16.64 36 18 C38.64 18.33 41.28 18.66 44 19 C44 19.66 44 20.32 44 21 C41.54 21.03 39.08 21.05 36.62 21.06 C35.93 21.07 35.23 21.08 34.51 21.09 C29.23 21.11 29.23 21.11 27 20 C27.33 21.65 27.66 23.3 28 25 C15.51 28.44 15.51 28.44 9 28 C9.33 27.01 9.66 26.02 10 25 C7.69 25.33 5.38 25.66 3 26 C1.57 23.65 0.91 22.52 1.38 19.75 C1.58 19.17 1.79 18.59 2 18 C3.98 17.67 5.96 17.34 8 17 C8 16.34 8 15.68 8 15 C7.34 15 6.68 15 6 15 C5.67 14.34 5.34 13.68 5 13 C3.68 13.33 2.36 13.66 1 14 C1 13.01 1 12.02 1 11 C-0.65 11.66 -2.3 12.32 -4 13 C-3.34 11.68 -2.68 10.36 -2 9 C-1.34 9 -0.68 9 0 9 C0 8.34 0 7.68 0 7 C1.65 7.33 3.3 7.66 5 8 C5 7.34 5 6.68 5 6 C3.35 5.67 1.7 5.34 0 5 C0 3.35 0 1.7 0 0 Z " fill="#948856" transform="translate(75,40)"/>
<path d="M0 0 C0.16 0.33 0.16 0.33 1 2 C3.06 3.12 3.06 3.12 5 4 C3.02 4.99 1.04 5.98 -1 7 C-1 7.66 -1 8.32 -1 9 C-0.68 9.05 -0.68 9.05 0.94 9.31 C1.62 9.54 2.3 9.77 3 10 C3.16 10.5 3.16 10.5 4 13 C3.2 13.29 2.39 13.58 1.56 13.88 C-1 15 -1 15 -2 17 C-3.32 16.67 -4.64 16.34 -6 16 C-5.34 16 -4.68 16 -4 16 C-4.52 15.42 -5.03 14.84 -5.56 14.25 C-7 12 -7 12 -6.69 9.75 C-6.46 9.17 -6.23 8.59 -6 8 C-7.98 8 -9.96 8 -12 8 C-11.34 8.33 -10.68 8.66 -10 9 C-11.62 14.75 -11.62 14.75 -15 17 C-14.38 23.34 -13.71 29.67 -13 36 C-13.66 36 -14.32 36 -15 36 C-15.18 35.36 -15.36 34.72 -15.55 34.07 C-15.8 33.24 -16.05 32.41 -16.31 31.56 C-16.43 31.15 -16.43 31.15 -17.05 29.07 C-17.36 28.38 -17.68 27.7 -18 27 C-18.99 26.67 -19.98 26.34 -21 26 C-20.34 27.98 -19.68 29.96 -19 32 C-19.99 31.67 -20.98 31.34 -22 31 C-22 27.37 -22 23.74 -22 20 C-22.66 20 -23.32 20 -24 20 C-24 20.66 -24 21.32 -24 22 C-24.99 21.67 -25.98 21.34 -27 21 C-27 20.01 -27 19.02 -27 18 C-26.34 18 -25.68 18 -25 18 C-25 16.02 -25 14.04 -25 12 C-25.66 12 -26.32 12 -27 12 C-27 13.65 -27 15.3 -27 17 C-27.33 16.34 -27.66 15.68 -28 15 C-30.31 15 -32.62 15 -35 15 C-34.67 13.68 -34.34 12.36 -34 11 C-33.01 11.33 -32.02 11.66 -31 12 C-31.99 10.35 -32.98 8.7 -34 7 C-32.35 6.5 -32.35 6.5 -24 4 C-24.33 4.99 -24.66 5.98 -25 7 C-26.65 7.33 -28.3 7.66 -30 8 C-29.67 8.66 -29.34 9.32 -29 10 C-28.67 9.67 -28.34 9.34 -28 9 C-26.33 8.96 -24.67 8.96 -23 9 C-22.67 9.99 -22.34 10.98 -22 12 C-20.68 12 -19.36 12 -18 12 C-18 11.34 -18 10.68 -18 10 C-18.66 10 -19.32 10 -20 10 C-20 8.68 -20 7.36 -20 6 C-19.01 6 -18.02 6 -17 6 C-16.5 5.5 -16.01 5.01 -15.5 4.5 C-15 4.01 -14.51 3.51 -14 3 C-13.01 3 -12.02 3 -11 3 C-11 3.66 -11 4.32 -11 5 C-10.01 5 -9.02 5 -8 5 C-8 4.01 -8 3.02 -8 2 C-5.09 0.74 -3.2 0 0 0 Z " fill="#5D604F" transform="translate(48,59)"/>
<path d="M0 0 C2.17 0.51 4 1 6 2 C6 1.34 6 0.68 6 0 C6.99 0 7.98 0 9 0 C9.33 2.64 9.66 5.28 10 8 C11.32 8.33 12.64 8.66 14 9 C13.67 7.68 13.34 6.36 13 5 C14.32 4.67 15.64 4.34 17 4 C17 3.01 17 2.02 17 1 C16.34 0.67 15.68 0.34 15 0 C16.62 -0.03 18.25 -0.05 19.88 -0.06 C20.33 -0.07 20.33 -0.07 22.62 -0.1 C25 0 25 0 27 1 C27 1.66 27 2.32 27 3 C26.17 2.84 26.17 2.84 22 2 C22 2.66 22 3.32 22 4 C20.5 5.62 20.5 5.62 19 7 C20.32 6.67 21.64 6.34 23 6 C23.33 6.66 23.66 7.32 24 8 C25.32 8 26.64 8 28 8 C28 8.66 28 9.32 28 10 C28.66 10 29.32 10 30 10 C30.16 10.5 30.16 10.5 31 13 C28.69 13 26.38 13 24 13 C24 14.98 24 16.96 24 19 C26.93 19.98 28.96 20.08 32 20 C31.44 21.94 31.44 21.94 30 24 C26.56 24.88 26.56 24.88 23 25 C22.01 24.34 21.02 23.68 20 23 C19.01 23 18.02 23 17 23 C17.66 21.68 18.32 20.36 19 19 C19.66 19 20.32 19 21 19 C21 18.01 21 17.02 21 16 C20.01 15.84 20.01 15.84 15 15 C14.67 15.5 14.67 15.5 13 18 C10.36 17.67 7.72 17.34 5 17 C3.74 14.09 3 12.2 3 9 C2.34 9 1.68 9 1 9 C1 10.32 1 11.64 1 13 C-1.38 13.19 -1.38 13.19 -4 13 C-6 10 -6 10 -5.62 7.31 C-5.42 6.55 -5.21 5.79 -5 5 C-4.01 4.67 -3.02 4.34 -2 4 C-1.67 4.66 -1.34 5.32 -1 6 C-0.67 4.02 -0.34 2.04 0 0 Z " fill="#585C48" transform="translate(53,45)"/>
<path d="M0 0 C1.65 0 3.3 0 5 0 C5 0.66 5 1.32 5 2 C5.66 2 6.32 2 7 2 C7 2.66 7 3.32 7 4 C8.22 3.5 9.43 3.01 10.69 2.5 C13.92 1.28 16.5 0.67 20 1 C20 1.66 20 2.32 20 3 C18.02 3.66 16.04 4.32 14 5 C15.3 5.14 16.6 5.29 17.94 5.44 C21.88 5.88 21.88 5.88 23 7 C23.66 6.67 24.32 6.34 25 6 C26.95 6.56 26.95 6.56 29.12 7.44 C29.85 7.72 30.57 8.01 31.32 8.31 C31.6 8.42 31.6 8.42 33 9 C33 8.34 33 7.68 33 7 C34.32 6.67 35.64 6.34 37 6 C36.79 6.78 36.59 7.57 36.38 8.38 C36.31 8.81 36.31 8.81 36 11 C36.66 11.66 37.32 12.32 38 13 C37.65 15.26 37.02 16.95 36 19 C35.34 19 34.68 19 34 19 C34 17.68 34 16.36 34 15 C32.89 15.02 31.77 15.04 30.62 15.06 C27 15 27 15 25 14 C22.67 13.96 20.33 13.96 18 14 C18.99 14.66 19.98 15.32 21 16 C21 16.66 21 17.32 21 18 C20.34 18.33 19.68 18.66 19 19 C18.64 20.66 18.31 22.33 18 24 C16.94 26.31 16.94 26.31 16 28 C15.34 28 14.68 28 14 28 C13.8 25.95 13.61 23.9 13.41 21.85 C13.28 21.24 13.14 20.63 13 20 C12.34 19.67 11.68 19.34 11 19 C11 18.01 11 17.02 11 16 C11.99 15.67 12.98 15.34 14 15 C9.25 14.88 9.25 14.88 7 16 C4.78 15.75 2.57 15.43 0.38 15.06 C-0.81 14.87 -2 14.67 -3.23 14.47 C-4.14 14.32 -5.06 14.16 -6 14 C-2.53 10.38 1.21 7.6 6 6 C6 5.34 6 4.68 6 4 C4.02 4.33 2.04 4.66 0 5 C0 3 0 3 1 2 C0.67 1.34 0.34 0.68 0 0 Z " fill="#E2C793" transform="translate(75,71)"/>
<path d="M0 0 C0.33 0.17 0.33 0.17 2 1 C2.59 3.65 2.74 6.29 3 9 C3.6 9.14 4.2 9.29 4.81 9.44 C6.56 9.89 8.29 10.43 10 11 C9.81 9.74 9.63 8.48 9.44 7.19 C8.99 4.17 9 3 10 0 C11.32 0 12.64 0 14 0 C14 0.66 14 1.32 14 2 C15.32 2.33 16.64 2.66 18 3 C18 3.99 18 4.98 18 6 C17.34 6 16.68 6 16 6 C16 7.98 16 9.96 16 12 C15.34 12 14.68 12 14 12 C14.67 20.1 14.67 20.1 18 24 C18 24.99 18 25.98 18 27 C18.66 27 19.32 27 20 27 C20.33 26.34 20.66 25.68 21 25 C21.33 25.99 21.66 26.98 22 28 C22.99 28.33 23.98 28.66 25 29 C23.68 29.33 22.36 29.66 21 30 C21.33 30.58 21.66 31.16 22 31.75 C23 34 23 34 23 38 C22.01 38 21.02 38 20 38 C18 35 18 35 18 31 C17.34 31 16.68 31 16 31 C16.21 31.78 16.41 32.57 16.62 33.38 C16.75 34.24 16.87 35.11 17 36 C16.34 36.66 15.68 37.32 15 38 C15 36.68 15 35.36 15 34 C14.34 34 13.68 34 13 34 C12.34 32.68 11.68 31.36 11 30 C10.67 30.99 10.34 31.98 10 33 C8 31 8 31 7.88 27.88 C7.92 26.93 7.96 25.98 8 25 C8.83 25.33 8.83 25.33 13 27 C13 25.68 13 24.36 13 23 C12.01 23 11.02 23 10 23 C10 21.68 10 20.36 10 19 C9.01 19 8.02 19 7 19 C7 19.99 7 20.98 7 22 C6.01 21.67 5.02 21.34 4 21 C3.11 18.2 2.42 15.55 1.81 12.69 C1.64 11.91 1.46 11.14 1.28 10.35 C0.47 6.74 0 3.74 0 0 Z " fill="#7C8085" transform="translate(32,77)"/>
<path d="M0 0 C0.66 0 1.32 0 2 0 C2.06 0.95 2.12 1.9 2.19 2.88 C2.46 3.91 2.72 4.94 3 6 C5.56 7.38 5.56 7.38 8 8 C8 8.33 8 8.66 8 9 C5.69 9.66 3.38 10.32 1 11 C1 11.66 1 12.32 1 13 C1.99 13.16 1.99 13.16 7 14 C6.34 14.33 6.34 14.33 3 16 C3.66 17.65 4.32 19.3 5 21 C4.34 21 3.68 21 3 21 C2.67 22.98 2.34 24.96 2 27 C1.34 27 0.68 27 0 27 C0 26.34 0 25.68 0 25 C-1.98 24.67 -1.98 24.67 -12 23 C-12 26.63 -12 30.26 -12 34 C-16 33 -16 33 -19 32 C-19.95 29.71 -19.95 29.71 -20.69 26.94 C-20.94 26.02 -21.19 25.1 -21.45 24.15 C-21.63 23.44 -21.81 22.73 -22 22 C-21.37 21.56 -20.73 21.12 -20.08 20.67 C-17.6 18.68 -16.97 16.98 -16 14 C-16.99 13.67 -17.98 13.34 -19 13 C-15.99 12.07 -15.13 11.96 -12 13 C-11.86 13.76 -11.71 14.53 -11.56 15.31 C-11 18 -11 18 -10 21 C-9.34 21.33 -8.68 21.66 -8 22 C-7.73 21.36 -7.46 20.72 -7.19 20.06 C-6 18 -6 18 -3 17 C-3 16.34 -3 15.68 -3 15 C-3.83 14.84 -3.83 14.84 -8 14 C-7.19 12.06 -7.19 12.06 -6 10 C-5.01 9.67 -4.02 9.34 -3 9 C-3.99 8.34 -4.98 7.68 -6 7 C-6 6.34 -6 5.68 -6 5 C-5.01 5.16 -5.01 5.16 0 6 C0 4.02 0 2.04 0 0 Z " fill="#857E55" transform="translate(54,54)"/>
<path d="M0 0 C0.81 0.11 1.62 0.22 2.45 0.34 C2.76 0.38 2.76 0.38 4.31 0.62 C5.29 4.01 5.17 6.19 4.31 9.62 C3.65 9.62 2.99 9.62 2.31 9.62 C2.64 11.28 2.97 12.92 3.31 14.62 C4.3 14.95 5.29 15.28 6.31 15.62 C6.64 16.61 6.97 17.61 7.31 18.62 C5.99 18.62 4.67 18.62 3.31 18.62 C3.31 19.28 3.31 19.94 3.31 20.62 C2.32 20.95 1.33 21.28 0.31 21.62 C0.31 23.61 0.31 25.59 0.31 27.62 C-0.35 27.62 -1.01 27.62 -1.69 27.62 C-2.35 28.28 -3.01 28.94 -3.69 29.62 C-3.36 26.33 -3.03 23.03 -2.69 19.62 C-3.68 22.27 -4.67 24.91 -5.69 27.62 C-6.02 27.62 -6.35 27.62 -6.69 27.62 C-6.69 23.66 -6.69 19.7 -6.69 15.62 C-11.56 20.38 -11.56 20.38 -12.69 22.62 C-12.03 22.62 -11.37 22.62 -10.69 22.62 C-10.69 23.61 -10.69 24.61 -10.69 25.62 C-12.67 25.62 -14.65 25.62 -16.69 25.62 C-16.64 24.88 -16.59 24.13 -16.55 23.36 C-16.25 15.22 -16.25 15.22 -18.69 11.94 C-19.35 11.5 -20.01 11.07 -20.69 10.62 C-14.49 10.52 -8.64 10.64 -2.69 12.62 C-3.02 13.94 -3.35 15.27 -3.69 16.62 C-3.03 16.62 -2.37 16.62 -1.69 16.62 C-1.06 13.75 -1.06 13.75 -0.69 10.62 C-1.35 9.97 -2.01 9.31 -2.69 8.62 C-2.31 6.5 -2.31 6.5 -1.69 4.62 C-2.68 4.62 -3.67 4.62 -4.69 4.62 C-4.69 5.28 -4.69 5.94 -4.69 6.62 C-6.34 6.3 -7.99 5.97 -9.69 5.62 C-7.56 0.71 -5.31 -0.77 0 0 Z " fill="#726B4C" transform="translate(112.6875,73.375)"/>
<path d="M0 0 C3 1 3 1 4 3 C4.37 2.51 4.74 2.01 5.12 1.5 C7.75 -0.6 9.74 -0.22 13 0 C12.67 0.66 12.34 1.32 12 2 C10.02 2 8.04 2 6 2 C6 2.99 6 3.98 6 5 C7.32 5.33 8.64 5.66 10 6 C10 6.99 10 7.98 10 9 C8.02 9 6.04 9 4 9 C4.33 8.01 4.66 7.02 5 6 C4.01 6.33 3.02 6.66 2 7 C1.34 7 0.68 7 0 7 C-0.12 7.78 -0.25 8.57 -0.38 9.38 C-1 12 -1 12 -3 14 C-2.67 14.99 -2.34 15.98 -2 17 C-0.35 17 1.3 17 3 17 C3 17.99 3 18.98 3 20 C2.34 20 1.68 20 1 20 C1 20.66 1 21.32 1 22 C0.34 22 -0.32 22 -1 22 C-1.33 22.99 -1.66 23.98 -2 25 C-2.99 24.67 -3.98 24.34 -5 24 C-5 25.32 -5 26.64 -5 28 C-4.34 28 -3.68 28 -3 28 C-3 28.66 -3 29.32 -3 30 C-4.32 30 -5.64 30 -7 30 C-7.33 29.34 -7.66 28.68 -8 28 C-12.75 27.88 -12.75 27.88 -15 29 C-15 28.01 -15 27.02 -15 26 C-14.2 25.71 -13.39 25.42 -12.56 25.12 C-10 24 -10 24 -9 22 C-11.97 23.32 -14.94 24.64 -18 26 C-17.34 27.32 -16.68 28.64 -16 30 C-16.99 30 -17.98 30 -19 30 C-19.66 30.99 -20.32 31.98 -21 33 C-21.94 30.02 -22.72 27.12 -23 24 C-21.09 21.02 -19.6 20.22 -16.31 19 C-15.55 18.67 -14.79 18.34 -14 18 C-13.88 17.35 -13.76 16.71 -13.63 16.04 C-13.42 15.37 -13.22 14.69 -13 14 C-11 13.02 -11 13.02 -8.56 12.38 C-4.18 11.18 -4.18 11.18 -2 9 C-2 7.68 -2 6.36 -2 5 C-1.39 3.31 -0.73 1.64 0 0 Z M6 6 C6 6.66 6 7.32 6 8 C6.99 7.67 7.98 7.34 9 7 C8.01 6.67 7.02 6.34 6 6 Z " fill="#91917D" transform="translate(33,41)"/>
<path d="M0 0 C3 2 3 2 3.75 4.94 C4 8 4 8 3 11 C3.99 10.67 4.98 10.34 6 10 C6.33 10.33 6.66 10.66 7 11 C7.33 8.69 7.66 6.38 8 4 C9.66 3.62 11.32 3.29 13 3 C14 4 14 4 14.06 6.56 C14.04 7.37 14.02 8.17 14 9 C13.34 9 12.68 9 12 9 C12 9.99 12 10.98 12 12 C12.99 12.33 13.98 12.66 15 13 C16.35 15.71 16.07 18.01 16 21 C15.34 21 14.68 21 14 21 C14 20.01 14 19.02 14 18 C12.35 18.66 10.7 19.32 9 20 C8.9 23.49 9.22 26.59 10 30 C11.98 30 13.96 30 16 30 C16 31.65 16 33.3 16 35 C14.68 34.34 13.36 33.68 12 33 C12 34.98 12 36.96 12 39 C11.73 38.36 11.46 37.72 11.19 37.06 C10 35 10 35 7 34 C6.67 33.67 6.34 33.34 6 33 C5.67 33.66 5.34 34.32 5 35 C4.34 35 3.68 35 3 35 C2.67 34.34 2.34 33.68 2 33 C1.34 33.99 0.68 34.98 0 36 C-1.47 32.19 -0.43 29.71 1 26 C1.99 26.66 2.98 27.32 4 28 C4.66 28 5.32 28 6 28 C6 28.66 6 29.32 6 30 C6.66 30 7.32 30 8 30 C6.45 26.82 4.88 23.81 2.94 20.84 C0.53 16.66 0.34 12.81 0.25 8.06 C0.24 7.67 0.24 7.67 0.16 5.7 C0.09 3.8 0.04 1.9 0 0 Z " fill="#87817A" transform="translate(56,86)"/>
<path d="M0 0 C4.5 0.33 7.01 0.59 10 4 C9.52 5.29 9.04 6.58 8.56 7.88 C8.3 8.59 8.03 9.31 7.75 10.05 C7 12 7 12 6 14 C5.34 14 4.68 14 4 14 C4 14.66 4 15.32 4 16 C4.66 16 5.32 16 6 16 C6 18.31 6 20.62 6 23 C5.01 23.33 4.02 23.66 3 24 C3 23.34 3 22.68 3 22 C2.34 22 1.68 22 1 22 C1.33 20.35 1.66 18.7 2 17 C1.34 17 0.68 17 0 17 C0 19.31 0 21.62 0 24 C-0.99 24 -1.98 24 -3 24 C-3.33 22.35 -3.66 20.7 -4 19 C-4.43 19.5 -4.87 19.99 -5.31 20.5 C-7 22 -7 22 -10 22 C-9.62 19.56 -9.62 19.56 -9 17 C-8.34 16.67 -7.68 16.34 -7 16 C-6.38 12.94 -6.38 12.94 -6 10 C-6.66 9.67 -7.32 9.34 -8 9 C-7.01 9 -6.02 9 -5 9 C-4.67 9.99 -4.34 10.98 -4 12 C-3.8 11.22 -3.59 10.44 -3.38 9.63 C-3.11 8.62 -2.84 7.61 -2.56 6.56 C-2.3 5.55 -2.03 4.54 -1.75 3.5 C-1 1 -1 1 0 0 Z " fill="#B6B0AB" transform="translate(107,106)"/>
<path d="M0 0 C0.99 0 1.98 0 3 0 C3.19 2.88 3.19 2.88 3 6 C2.01 6.66 1.02 7.32 0 8 C-0.69 10.12 -0.69 10.12 -1 12 C0.65 11.67 2.3 11.34 4 11 C4.33 9.02 4.66 7.04 5 5 C5.33 5 5.66 5 6 5 C6 7.97 6 10.94 6 14 C6.99 14.33 7.98 14.66 9 15 C8.67 15.16 8.67 15.16 7 16 C6.15 18.72 6.15 18.72 5.38 22.06 C5.11 23.17 4.85 24.27 4.59 25.41 C4.39 26.26 4.2 27.12 4 28 C3.34 28 2.68 28 2 28 C2 27.34 2 26.68 2 26 C0.68 25.67 -0.64 25.34 -2 25 C-2.33 25.99 -2.66 26.98 -3 28 C-3 25.69 -3 23.38 -3 21 C-8.66 23.46 -8.66 23.46 -10.38 26.19 C-10.58 26.79 -10.79 27.38 -11 28 C-11.66 28 -12.32 28 -13 28 C-12.8 26.2 -12.56 24.41 -12.31 22.62 C-12.18 21.63 -12.06 20.63 -11.93 19.6 C-11 17 -11 17 -8.42 15.65 C-7.62 15.43 -6.82 15.22 -6 15 C-6 16.32 -6 17.64 -6 19 C-5.34 18.67 -4.68 18.34 -4 18 C-3.69 15.29 -3.49 12.66 -3.38 9.94 C-3.36 9.56 -3.36 9.56 -3.26 7.64 C-3.16 5.76 -3.08 3.88 -3 2 C-2.01 2.33 -1.02 2.66 0 3 C0 2.01 0 1.02 0 0 Z " fill="#D6CABC" transform="translate(98,116)"/>
<path d="M0 0 C0.14 0.32 0.14 0.32 0.88 1.94 C2 4 2 4 4 5 C4 4.01 4 3.02 4 2 C4.99 2 5.98 2 7 2 C7 3.32 7 4.64 7 6 C7.99 6 8.98 6 10 6 C10 7.32 10 8.64 10 10 C8.68 9.67 7.36 9.34 6 9 C5.96 10.67 5.96 12.33 6 14 C6.33 14.33 6.66 14.66 7 15 C7.33 14.34 7.66 13.68 8 13 C7.34 12.67 6.68 12.34 6 12 C7.32 12.33 8.64 12.66 10 13 C10 14.32 10 15.64 10 17 C10.66 17.33 11.32 17.66 12 18 C12 18.99 12 19.98 12 21 C12.99 21.33 13.98 21.66 15 22 C14.67 23.98 14.34 25.96 14 28 C13.67 28 13.34 28 13 28 C13 26.02 13 24.04 13 22 C12.34 22 11.68 22 11 22 C9.5 25.01 8.93 26.57 9.5 29.94 C10.09 33.56 9.36 35.64 8 39 C7.34 39 6.68 39 6 39 C5.78 37.25 5.57 35.5 5.38 33.75 C5.26 32.78 5.14 31.8 5.02 30.8 C5 27.87 5.47 26.45 7 24 C6.34 24 5.68 24 5 24 C4.67 22.02 4.34 20.04 4 18 C3.01 17.67 2.02 17.34 1 17 C-1.22 13.03 -1.18 9.48 -1 5 C-1.66 4.67 -2.32 4.34 -3 4 C-2.01 4 -1.02 4 0 4 C0 2.68 0 1.36 0 0 Z " fill="#B6BDC7" transform="translate(35,94)"/>
<path d="M0 0 C1.88 0.94 1.88 0.94 4 3 C4.73 5.3 5.19 7.57 5.61 9.94 C6 12 6 12 7 14 C7.04 16.33 7.04 18.67 7 21 C6.01 21.33 5.02 21.66 4 22 C4.33 23.98 4.66 25.96 5 28 C5.99 28 6.98 28 8 28 C8 28.99 8 29.98 8 31 C6.35 31.33 4.7 31.66 3 32 C2.88 31.2 2.75 30.39 2.62 29.56 C2.42 28.72 2.21 27.87 2 27 C1.34 26.67 0.68 26.34 0 26 C-0.33 27.32 -0.66 28.64 -1 30 C-1.66 29.67 -2.32 29.34 -3 29 C-3 28.34 -3 27.68 -3 27 C-3.66 27 -4.32 27 -5 27 C-4.34 25.35 -3.68 23.7 -3 22 C-2.34 22 -1.68 22 -1 22 C-1 20.68 -1 19.36 -1 18 C-2.32 18.33 -3.64 18.66 -5 19 C-4.67 16.36 -4.34 13.72 -4 11 C-3.34 11.33 -2.68 11.66 -2 12 C-1.38 14.06 -1.38 14.06 -1 16 C-0.67 14.02 -0.34 12.04 0 10 C-0.99 10 -1.98 10 -3 10 C-2.67 7.36 -2.34 4.72 -2 2 C-1.34 2 -0.68 2 0 2 C0 1.34 0 0.68 0 0 Z " fill="#787C83" transform="translate(77,104)"/>
<path d="M0 0 C0.66 0 1.32 0 2 0 C2 1.98 2 3.96 2 6 C2.99 6.33 3.98 6.66 5 7 C5 5.68 5 4.36 5 3 C5.99 3 6.98 3 8 3 C8.33 7.62 8.66 12.24 9 17 C7.33 17 5.67 17 4 17 C3.67 19.64 3.34 22.28 3 25 C3.99 25 4.98 25 6 25 C6 26.98 6 28.96 6 31 C5.34 31.33 4.68 31.66 4 32 C3.67 31.01 3.34 30.02 3 29 C2.67 29.99 2.34 30.98 2 32 C1.77 31.36 1.55 30.72 1.31 30.06 C0.88 29.38 0.45 28.7 0 28 C-0.83 27.86 -1.65 27.71 -2.5 27.56 C-3.33 27.38 -4.15 27.19 -5 27 C-6.9 23.74 -7.51 20.75 -7 17 C-4 15 -4 15 -1 15 C-1 15.99 -1 16.98 -1 18 C-0.34 18 0.32 18 1 18 C0.83 17.26 0.67 16.52 0.5 15.75 C-0.2 10.5 -0.08 5.29 0 0 Z " fill="#5E5C5A" transform="translate(71,89)"/>
<path d="M0 0 C0.66 0 1.32 0 2 0 C2.33 2.31 2.66 4.62 3 7 C3.66 7 4.32 7 5 7 C5.77 9.98 6.41 12.98 7 16 C7.7 15.79 8.4 15.59 9.12 15.38 C12 15 12 15 14.88 16 C18 17 18 17 21.38 16.31 C25.87 15.92 27.83 17.02 31.46 19.52 C33 21 33 21 33.5 23.81 C33.34 24.53 33.17 25.26 33 26 C32.34 25.01 31.68 24.02 31 23 C28.69 23.33 26.38 23.66 24 24 C24 23.01 24 22.02 24 21 C22.54 21.14 21.08 21.29 19.62 21.44 C18.81 21.52 18 21.6 17.16 21.68 C15 22 15 22 13 23 C13 23.66 13 24.32 13 25 C13.66 25.66 14.32 26.32 15 27 C8.25 27.12 8.25 27.12 6 26 C6.33 25.01 6.66 24.02 7 23 C7.66 23 8.32 23 9 23 C9 22.01 9 21.02 9 20 C8.34 20 7.68 20 7 20 C6.67 17.69 6.34 15.38 6 13 C4.68 13 3.36 13 2 13 C-1.63 4.74 -1.63 4.74 0 0 Z " fill="#CCBE8E" transform="translate(109,31)"/>
<path d="M0 0 C-0.33 0.99 -0.66 1.98 -1 3 C-2.65 3.33 -4.3 3.66 -6 4 C-5.67 4.66 -5.34 5.32 -5 6 C-4.67 5.67 -4.34 5.34 -4 5 C-2.33 4.96 -0.67 4.96 1 5 C1.33 5.99 1.66 6.98 2 8 C2.99 8.33 3.98 8.66 5 9 C5.06 9.63 5.12 10.25 5.18 10.9 C5.23 11.31 5.23 11.31 5.44 13.38 C5.48 13.78 5.48 13.78 5.68 15.84 C6 18 6 18 7 20 C7.66 19.34 8.32 18.68 9 18 C10.34 22.84 11.25 26.93 11 32 C10.34 32 9.68 32 9 32 C8.82 31.36 8.64 30.72 8.45 30.07 C8.2 29.24 7.95 28.41 7.69 27.56 C7.57 27.15 7.57 27.15 6.95 25.07 C6.64 24.38 6.32 23.7 6 23 C5.01 22.67 4.02 22.34 3 22 C3.66 23.98 4.32 25.96 5 28 C4.01 27.67 3.02 27.34 2 27 C2 23.37 2 19.74 2 16 C1.34 16 0.68 16 0 16 C0 16.66 0 17.32 0 18 C-0.99 17.67 -1.98 17.34 -3 17 C-3 16.01 -3 15.02 -3 14 C-2.34 14 -1.68 14 -1 14 C-1 12.02 -1 10.04 -1 8 C-1.66 8 -2.32 8 -3 8 C-3 9.65 -3 11.3 -3 13 C-3.33 12.34 -3.66 11.68 -4 11 C-6.31 11 -8.62 11 -11 11 C-10.67 9.68 -10.34 8.36 -10 7 C-9.01 7.33 -8.02 7.66 -7 8 C-7.99 6.35 -8.98 4.7 -10 3 C-8.71 2.5 -7.42 2 -6.12 1.5 C-5.77 1.36 -5.77 1.36 -3.95 0.66 C-2 0 -2 0 0 0 Z " fill="#686C69" transform="translate(24,63)"/>
<path d="M0 0 C1.32 0 2.64 0 4 0 C4.87 2.99 5.11 5.64 5.06 8.75 C5.05 9.55 5.04 10.35 5.04 11.17 C5.03 11.47 5.03 11.47 5 13 C6.32 13 7.64 13 9 13 C9.33 11.68 9.66 10.36 10 9 C11.99 9.59 13.97 10.17 15.96 10.76 C18 11 18 11 21 9 C22 10 22 10 22.06 12.56 C22.04 13.37 22.02 14.17 22 15 C21.01 14.84 21.01 14.84 16 14 C15.34 15.98 14.68 17.96 14 20 C13.34 20 12.68 20 12 20 C11.67 21.65 11.34 23.3 11 25 C10.01 25.33 9.02 25.66 8 26 C7.73 24.87 7.46 23.73 7.19 22.56 C6.99 21.97 6.99 21.97 6 19 C5.01 18.67 4.02 18.34 3 18 C1.88 14.69 1.88 14.69 1 11 C0.79 10.34 0.59 9.68 0.38 9 C-0.19 6 -0.06 3.04 0 0 Z " fill="#B9BFCC" transform="translate(49,122)"/>
<path d="M0 0 C0.66 0 1.32 0 2 0 C2 1.65 2 3.3 2 5 C2.66 5 3.32 5 4 5 C4.33 5.66 4.66 6.32 5 7 C7.29 7.63 7.29 7.63 10.06 8.12 C10.52 8.21 10.52 8.21 12.85 8.63 C13.2 8.69 13.2 8.69 15 9 C14.5 8.57 14.01 8.13 13.5 7.69 C12 6 12 6 12 3 C13.65 3 15.3 3 17 3 C18.16 6.47 18.07 9.36 18 13 C9.53 14.12 1.49 13.81 -7 13 C-6.67 11.68 -6.34 10.36 -6 9 C-7.32 8.34 -8.64 7.68 -10 7 C-10 6.34 -10 5.68 -10 5 C-7.36 5.66 -4.72 6.32 -2 7 C-1.34 4.69 -0.68 2.38 0 0 Z " fill="#6C6845" transform="translate(91,41)"/>
<path d="M0 0 C-0.07 0.78 -0.14 1.56 -0.22 2.37 C-0.31 3.38 -0.4 4.39 -0.5 5.44 C-0.59 6.45 -0.69 7.46 -0.78 8.5 C-1 11 -1 11 -1 12 C-0.34 12.33 0.32 12.66 1 13 C1 13.66 1 14.32 1 15 C1.99 15 2.98 15 4 15 C4 15.66 4 16.32 4 17 C4.66 17 5.32 17 6 17 C5.67 18.32 5.34 19.64 5 21 C4.17 20.67 4.17 20.67 0 19 C0 22.3 0 25.6 0 29 C-1.32 29 -2.64 29 -4 29 C-4.33 24.71 -4.66 20.42 -5 16 C-6.32 16 -7.64 16 -9 16 C-8.98 15.11 -8.96 14.23 -8.94 13.31 C-8.99 10.37 -9.38 7.86 -10 5 C-10 4.01 -10 3.02 -10 2 C-9.34 2 -8.68 2 -8 2 C-7.34 4.31 -6.68 6.62 -6 9 C-5.01 9 -4.02 9 -3 9 C-3.33 8.24 -3.66 7.47 -4 6.69 C-5 4 -5 4 -5 1 C-3 0 -3 0 0 0 Z " fill="#9BA6B5" transform="translate(58,106)"/>
<path d="M0 0 C1.32 0 2.64 0 4 0 C4.21 0.8 4.41 1.61 4.62 2.44 C5.08 3.28 5.53 4.13 6 5 C9.12 5.81 9.12 5.81 12 6 C12.33 5.34 12.66 4.68 13 4 C13 4.99 13 5.98 13 7 C12.34 7.33 12.34 7.33 9 9 C9.99 9.66 10.98 10.32 12 11 C10.68 11.33 9.36 11.66 8 12 C8 12.99 8 13.98 8 15 C8.99 15.33 9.98 15.66 11 16 C11 16.66 11 17.32 11 18 C7.7 17.67 4.4 17.34 1 17 C0.67 16.01 0.34 15.02 0 14 C-0.66 14 -1.32 14 -2 14 C-3.19 10.12 -4 7.08 -4 3 C-2.68 3 -1.36 3 0 3 C0 2.01 0 1.02 0 0 Z " fill="#9F9464" transform="translate(95,32)"/>
<path d="M0 0 C0.66 0 1.32 0 2 0 C2.08 2.12 2.14 4.25 2.19 6.38 C2.22 7.56 2.26 8.74 2.29 9.96 C2.2 10.96 2.1 11.97 2 13 C1.01 13.66 0.02 14.32 -1 15 C-0.67 13.02 -0.34 11.04 0 9 C-1.32 9 -2.64 9 -4 9 C-3.96 9.93 -3.92 10.86 -3.88 11.81 C-4 15 -4 15 -6 18 C-5.98 19.03 -5.96 20.06 -5.94 21.12 C-6.01 25.87 -7.33 29.61 -9 34 C-9.66 34 -10.32 34 -11 34 C-11.33 32.02 -11.66 30.04 -12 28 C-11.34 27.67 -10.68 27.34 -10 27 C-9.75 20.6 -9.75 20.6 -11.06 17.44 C-12.28 14.26 -11.88 12.24 -11 9 C-10.34 8.67 -9.68 8.34 -9 8 C-9 8.66 -9 9.32 -9 10 C-8.01 10 -7.02 10 -6 10 C-6 8.02 -6 6.04 -6 4 C-4.35 3.67 -2.7 3.34 -1 3 C-0.67 2.01 -0.34 1.02 0 0 Z " fill="#C4B3A0" transform="translate(93,98)"/>
<path d="M0 0 C2.31 0.66 4.62 1.32 7 2 C7 5 7 5 5 7.19 C4.67 7.49 4.67 7.49 3 9 C3.99 9 4.98 9 6 9 C6.33 8.34 6.66 7.68 7 7 C7 7.99 7 8.98 7 10 C4.03 10.66 1.06 11.32 -2 12 C-2.33 13.32 -2.66 14.64 -3 16 C-3.66 16 -4.32 16 -5 16 C-5 16.66 -5 17.32 -5 18 C-5.66 18 -6.32 18 -7 18 C-10 13.62 -10 13.62 -10 11 C-9.34 10.67 -8.68 10.34 -8 10 C-8.83 9.67 -8.83 9.67 -13 8 C-12.32 6.05 -12.32 6.05 -11 4 C-8.62 3.39 -8.62 3.39 -5.88 3.25 C-4.96 3.19 -4.05 3.14 -3.12 3.08 C-2.42 3.05 -1.72 3.03 -1 3 C-0.67 2.01 -0.34 1.02 0 0 Z " fill="#9D8D54" transform="translate(67,59)"/>
<path d="M0 0 C0.99 0 1.98 0 3 0 C2.41 2.61 1.8 5.21 1.19 7.81 C1.02 8.55 0.86 9.29 0.69 10.05 C-0.98 16.99 -0.98 16.99 -4 19 C-4.66 19 -5.32 19 -6 19 C-6.12 19.93 -6.25 20.86 -6.38 21.81 C-7 25 -7 25 -9 28 C-10.32 27.67 -11.64 27.34 -13 27 C-12.34 23.37 -11.68 19.74 -11 16 C-10.34 16 -9.68 16 -9 16 C-9 14.68 -9 13.36 -9 12 C-9.66 12 -10.32 12 -11 12 C-10.67 11.01 -10.34 10.02 -10 9 C-7.94 8.31 -7.94 8.31 -6 8 C-6 6.68 -6 5.36 -6 4 C-5.34 4 -4.68 4 -4 4 C-4 5.32 -4 6.64 -4 8 C-2.68 8 -1.36 8 0 8 C0 7.34 0 6.68 0 6 C-0.66 5.67 -1.32 5.34 -2 5 C-1.34 5 -0.68 5 0 5 C0 3.35 0 1.7 0 0 Z " fill="#CEC1AF" transform="translate(142,78)"/>
<path d="M0 0 C0.66 0.66 1.32 1.32 2 2 C2.6 2.1 3.2 2.21 3.81 2.31 C7.21 3.38 8.8 5.25 11 8 C11.44 11.19 11.44 11.19 11 14 C10.34 14.66 9.68 15.32 9 16 C9 14.35 9 12.7 9 11 C8.67 11.16 8.67 11.16 7 12 C7 11.34 7 10.68 7 10 C5.68 9.34 4.36 8.68 3 8 C3.99 8 4.98 8 6 8 C5.67 6.68 5.34 5.36 5 4 C4.67 4.66 4.34 5.32 4 6 C2.68 6 1.36 6 0 6 C-0.33 6.66 -0.66 7.32 -1 8 C-0.34 8 0.32 8 1 8 C1 8.66 1 9.32 1 10 C1.99 10.33 2.98 10.66 4 11 C3.34 12.65 2.68 14.3 2 16 C1.34 15.67 0.68 15.34 0 15 C0.33 14.34 0.66 13.68 1 13 C-0.32 13 -1.64 13 -3 13 C-3.33 11.35 -3.66 9.7 -4 8 C-4.66 8 -5.32 8 -6 8 C-6 7.34 -6 6.68 -6 6 C-7.07 6.52 -8.15 7.03 -9.25 7.56 C-11.71 8.63 -12.72 9.04 -15.44 8.69 C-15.95 8.46 -16.47 8.23 -17 8 C-16.67 7.01 -16.34 6.02 -16 5 C-13.94 4.31 -13.94 4.31 -12 4 C-12 3.01 -12 2.02 -12 1 C-10.02 1.33 -10.02 1.33 0 3 C0 2.01 0 1.02 0 0 Z " fill="#C7B87F" transform="translate(140,57)"/>
<path d="M0 0 C0.66 0 1.32 0 2 0 C2.19 0.64 2.39 1.28 2.59 1.93 C2.85 2.76 3.11 3.59 3.38 4.44 C3.63 5.26 3.89 6.08 4.15 6.93 C5 9 5 9 7 10 C7 10.99 7 11.98 7 13 C6.34 13 5.68 13 5 13 C5.33 13.99 5.66 14.98 6 16 C8.56 17.19 8.56 17.19 11 18 C10.67 19.32 10.34 20.64 10 22 C8.93 21.69 7.86 21.38 6.75 21.06 C3 20 3 20 0.69 19.75 C-1 19 -1 19 -2.25 15.94 C-2.5 14.97 -2.75 14 -3 13 C-3.66 13 -4.32 13 -5 13 C-5.33 12.01 -5.66 11.02 -6 10 C-5.38 9.46 -4.76 8.93 -4.12 8.38 C-1.72 5.69 -0.94 3.45 0 0 Z " fill="#ACA890" transform="translate(91,10)"/>
<path d="M0 0 C0.33 0.66 0.66 1.32 1 2 C1.66 2 2.32 2 3 2 C3 2.66 3 3.32 3 4 C3.99 4.17 3.99 4.17 9 5 C8.5 5.39 8.01 5.78 7.5 6.19 C6 8 6 8 5.75 10.38 C6 12.97 6.42 15.46 7 18 C8.98 18 10.96 18 13 18 C13 19.65 13 21.3 13 23 C11.68 22.34 10.36 21.68 9 21 C9 22.98 9 24.96 9 27 C8.73 26.36 8.46 25.72 8.19 25.06 C7 23 7 23 4 22 C3.67 21.67 3.34 21.34 3 21 C2.67 21.66 2.34 22.32 2 23 C1.34 23 0.68 23 0 23 C-0.33 22.34 -0.66 21.68 -1 21 C-1.66 21.99 -2.32 22.98 -3 24 C-4.47 20.19 -3.43 17.71 -2 14 C-1.01 14.66 -0.02 15.32 1 16 C1.66 16 2.32 16 3 16 C3 16.66 3 17.32 3 18 C3.66 18 4.32 18 5 18 C4.57 17.13 4.13 16.27 3.69 15.38 C3.13 14.26 2.57 13.15 2 12 C1.71 11.5 1.71 11.5 0.25 9 C-1.21 5.49 -0.95 3.63 0 0 Z " fill="#88878B" transform="translate(59,98)"/>
<path d="M0 0 C1.68 0.29 3.34 0.62 5 1 C5 1.66 5 2.32 5 3 C6.98 3.66 8.96 4.32 11 5 C11 5.66 11 6.32 11 7 C11.66 7 12.32 7 13 7 C12.67 7.66 12.34 8.32 12 9 C11.01 8.67 10.02 8.34 9 8 C9 9.65 9 11.3 9 13 C8.01 13.33 7.02 13.66 6 14 C6.33 15.32 6.66 16.64 7 18 C6.01 18 5.02 18 4 18 C4 17.34 4 16.68 4 16 C3.01 15.67 2.02 15.34 1 15 C1.66 15 2.32 15 3 15 C3 14.01 3 13.02 3 12 C1.02 12.33 -0.96 12.66 -3 13 C-3.33 11.35 -3.66 9.7 -4 8 C-3.01 7.34 -2.02 6.68 -1 6 C-0.88 3.44 -0.88 3.44 -1 1 C-0.67 0.67 -0.34 0.34 0 0 Z " fill="#898362" transform="translate(33,46)"/>
<path d="M0 0 C7.26 0 14.52 0 22 0 C22 0.99 22 1.98 22 3 C20.87 3.12 19.73 3.25 18.56 3.38 C17.97 3.48 17.97 3.48 15 4 C14.67 4.66 14.34 5.32 14 6 C13.42 5.65 12.84 5.3 12.25 4.94 C9.53 3.8 8.71 3.93 6 5 C4.31 5.96 2.64 6.95 1 8 C1.66 8.33 2.32 8.66 3 9 C3 9.66 3 10.32 3 11 C-5.57 10.14 -5.57 10.14 -9 8 C-9 7.01 -9 6.02 -9 5 C-5.37 5 -1.74 5 2 5 C2 4.34 2 3.68 2 3 C1.01 2.67 0.02 2.34 -1 2 C-0.67 1.34 -0.34 0.68 0 0 Z " fill="#C7AD5C" transform="translate(87,54)"/>
<path d="M0 0 C0.33 0.17 0.33 0.17 2 1 C2.59 3.65 2.74 6.29 3 9 C3.6 9.14 4.2 9.29 4.81 9.44 C6.56 9.89 8.29 10.43 10 11 C10 8.69 10 6.38 10 4 C10.66 4 11.32 4 12 4 C13.15 10.34 13.1 16.57 13 23 C12.01 23 11.02 23 10 23 C10 21.68 10 20.36 10 19 C9.01 19 8.02 19 7 19 C7 19.99 7 20.98 7 22 C6.01 21.67 5.02 21.34 4 21 C3.11 18.2 2.42 15.55 1.81 12.69 C1.64 11.91 1.46 11.14 1.28 10.35 C0.47 6.74 0 3.74 0 0 Z " fill="#8F8D8D" transform="translate(32,77)"/>
<path d="M0 0 C0.66 0 1.32 0 2 0 C2 0.66 2 1.32 2 2 C10.57 1 10.57 1 14 0 C14 0.66 14 1.32 14 2 C14.66 2 15.32 2 16 2 C16.33 3.65 16.66 5.3 17 7 C17.66 7 18.32 7 19 7 C18.34 10.63 17.68 14.26 17 18 C16.01 18 15.02 18 14 18 C14.33 15.03 14.66 12.06 15 9 C12.98 9.1 10.96 9.2 8.95 9.29 C8.3 9.2 7.66 9.1 7 9 C6.34 8.01 5.68 7.02 5 6 C5 6.33 5 6.66 5 7 C2.69 6.67 0.38 6.34 -2 6 C-1.12 1.12 -1.12 1.12 0 0 Z " fill="#92845C" transform="translate(120,63)"/>
<path d="M0 0 C2.17 0.51 4 1 6 2 C6 1.34 6 0.68 6 0 C6.99 0 7.98 0 9 0 C9.59 3.01 10.06 5.92 10 9 C8.06 11.56 8.06 11.56 6 13 C5.01 12.67 4.02 12.34 3 12 C3 11.01 3 10.02 3 9 C2.34 9 1.68 9 1 9 C1 10.32 1 11.64 1 13 C-1.38 13.19 -1.38 13.19 -4 13 C-6 10 -6 10 -5.62 7.31 C-5.42 6.55 -5.21 5.79 -5 5 C-4.01 4.67 -3.02 4.34 -2 4 C-1.67 4.66 -1.34 5.32 -1 6 C-0.67 4.02 -0.34 2.04 0 0 Z " fill="#55553F" transform="translate(53,45)"/>
<path d="M0 0 C4.62 0 9.24 0 14 0 C13.01 2.31 12.02 4.62 11 7 C16.75 7.12 16.75 7.12 19 6 C19.99 6.66 20.98 7.32 22 8 C20.35 8.33 18.7 8.66 17 9 C17.33 9.99 17.66 10.98 18 12 C17.34 12 16.68 12 16 12 C16 12.66 16 13.32 16 14 C14.68 14 13.36 14 12 14 C11.67 14.66 11.34 15.32 11 16 C10.67 15.01 10.34 14.02 10 13 C8.35 13 6.7 13 5 13 C5.21 12.4 5.41 11.8 5.62 11.19 C6 9 6 9 4 6 C4 4.68 4 3.36 4 2 C2.68 1.34 1.36 0.68 0 0 Z " fill="#CDAE56" transform="translate(107,62)"/>
<path d="M0 0 C1.32 0.66 2.64 1.32 4 2 C4 4.31 4 6.62 4 9 C4.99 9.33 5.98 9.66 7 10 C7.33 10.66 7.66 11.32 8 12 C9.32 12 10.64 12 12 12 C12 13.32 12 14.64 12 16 C12.66 16.33 13.32 16.66 14 17 C13.34 17 12.68 17 12 17 C12 17.99 12 18.98 12 20 C9.62 20.12 9.62 20.12 7 20 C6.34 19.34 5.68 18.68 5 18 C2.88 17.38 2.88 17.38 1 17 C-0.38 11.57 -1.35 6.62 -1 1 C-0.67 0.67 -0.34 0.34 0 0 Z " fill="#C6CBD5" transform="translate(72,136)"/>
<path d="M0 0 C0.64 0.08 1.28 0.17 1.93 0.25 C2.35 0.3 2.35 0.3 4.44 0.56 C5.26 0.67 6.08 0.77 6.93 0.88 C7.62 0.92 8.3 0.96 9 1 C9.33 0.67 9.66 0.34 10 0 C12.34 0.29 14.67 0.62 17 1 C17 1.33 17 1.66 17 2 C15.35 2 13.7 2 12 2 C12 2.99 12 3.98 12 5 C12.66 5 13.32 5 14 5 C14 6.32 14 7.64 14 9 C12.35 9 10.7 9 9 9 C8.67 9.66 8.34 10.32 8 11 C7.01 10.34 6.02 9.68 5 9 C5 8.34 5 7.68 5 7 C4.01 7 3.02 7 2 7 C2 8.32 2 9.64 2 11 C0.68 10.67 -0.64 10.34 -2 10 C-2 7.69 -2 5.38 -2 3 C-1.34 3 -0.68 3 0 3 C0 2.01 0 1.02 0 0 Z " fill="#938258" transform="translate(74,85)"/>
<path d="M0 0 C0.66 0.33 1.32 0.66 2 1 C2 1.99 2 2.98 2 4 C4.64 4.33 7.28 4.66 10 5 C10 5.66 10 6.32 10 7 C7.54 7.03 5.08 7.05 2.62 7.06 C1.93 7.07 1.23 7.08 0.51 7.09 C-4.77 7.11 -4.77 7.11 -7 6 C-6.67 7.65 -6.34 9.3 -6 11 C-11.97 11.12 -16.73 10.93 -22 8 C-20.93 7.13 -19.84 6.28 -18.75 5.44 C-18.15 4.96 -17.54 4.49 -16.92 4 C-15 3 -15 3 -12.95 3.22 C-11 4 -11 4 -8 6 C-7.67 5.01 -7.34 4.02 -7 3 C-4.69 3 -2.38 3 0 3 C0 2.01 0 1.02 0 0 Z " fill="#706A43" transform="translate(109,54)"/>
<path d="M0 0 C2.57 2.57 2.54 4.48 3 8 C4.32 8 5.64 8 7 8 C7.33 10.31 7.66 12.62 8 15 C8.66 15 9.32 15 10 15 C10 18 10 18 8.5 19.69 C8 20.12 7.51 20.55 7 21 C8.32 21.66 9.64 22.32 11 23 C8.36 23 5.72 23 3 23 C0.88 18.76 0.62 14.76 0.34 10.11 C0.23 9.41 0.12 8.72 0 8 C-0.66 7.67 -1.32 7.34 -2 7 C-2.62 4.94 -2.62 4.94 -3 3 C-2.01 3 -1.02 3 0 3 C0 2.01 0 1.02 0 0 Z " fill="#918A61" transform="translate(108,36)"/>
<path d="M0 0 C0 0.66 0 1.32 0 2 C0.66 2.33 1.32 2.66 2 3 C-0.23 4.24 -1.96 4.99 -4.5 5.38 C-7 6 -7 6 -8.94 8.12 C-9.62 8.74 -10.3 9.36 -11 10 C-13.75 9.81 -13.75 9.81 -17 9 C-18.46 8.8 -19.91 8.61 -21.38 8.44 C-22.57 8.29 -23.77 8.15 -25 8 C-24.67 7.34 -24.34 6.68 -24 6 C-20.94 5.38 -20.94 5.38 -18 5 C-18 4.34 -18 3.68 -18 3 C-18.99 3 -19.98 3 -21 3 C-21 2.34 -21 1.68 -21 1 C-15.37 0.87 -15.37 0.87 -13 1.69 C-11 2 -11 2 -8.06 0.5 C-4.69 -1.15 -3.49 -1.13 0 0 Z " fill="#B39A55" transform="translate(113,69)"/>
<path d="M0 0 C0.16 0.33 0.16 0.33 1 2 C-1.93 4 -4.04 5.09 -7.62 4.75 C-10.11 4.24 -12.55 3.67 -15 3 C-15 3.66 -15 4.32 -15 5 C-21.62 8 -21.62 8 -25 8 C-25 7.34 -25 6.68 -25 6 C-25.66 6 -26.32 6 -27 6 C-27 5.34 -27 4.68 -27 4 C-30.3 3.67 -33.6 3.34 -37 3 C-37 2.67 -37 2.34 -37 2 C-35.95 2.04 -34.9 2.08 -33.81 2.12 C-30.1 2.14 -26.65 1.65 -23 1 C-15.31 -0.28 -7.76 -0.18 0 0 Z " fill="#C7AF5F" transform="translate(107,67)"/>
<path d="M0 0 C0.66 0.33 1.32 0.66 2 1 C1.9 1.31 1.9 1.31 1.38 2.88 C1.25 3.58 1.13 4.28 1 5 C1.66 5.66 2.32 6.32 3 7 C2.65 9.26 2.02 10.95 1 13 C0.34 13 -0.32 13 -1 13 C-1 11.68 -1 10.36 -1 9 C-2.11 9.02 -3.23 9.04 -4.38 9.06 C-8 9 -8 9 -10 8 C-11.44 8.03 -12.88 8.1 -14.31 8.19 C-17.98 8.25 -18.84 8.1 -22.06 6 C-22.7 5.34 -23.34 4.68 -24 4 C-19.03 2.68 -14.09 2.92 -9 3 C-8.01 3 -7.02 3 -6 3 C-4.68 3 -3.36 3 -2 3 C-2 2.34 -2 1.68 -2 1 C-1.34 0.67 -0.68 0.34 0 0 Z " fill="#C3A96B" transform="translate(110,77)"/>
<path d="M0 0 C0.66 0 1.32 0 2 0 C2.06 0.95 2.12 1.9 2.19 2.88 C2.46 3.91 2.72 4.94 3 6 C5.56 7.38 5.56 7.38 8 8 C8 8.33 8 8.66 8 9 C5.69 9.66 3.38 10.32 1 11 C1 11.66 1 12.32 1 13 C1.99 13.16 1.99 13.16 7 14 C6.34 14.33 6.34 14.33 3 16 C3.33 16.99 3.66 17.98 4 19 C3.34 19 2.68 19 2 19 C1.67 19.99 1.34 20.98 1 22 C0.67 21.01 0.34 20.02 0 19 C-0.99 18.34 -1.98 17.68 -3 17 C-3 16.34 -3 15.68 -3 15 C-4.65 14.67 -6.3 14.34 -8 14 C-7.19 12.06 -7.19 12.06 -6 10 C-5.01 9.67 -4.02 9.34 -3 9 C-3.99 8.34 -4.98 7.68 -6 7 C-6 6.34 -6 5.68 -6 5 C-5.01 5.16 -5.01 5.16 0 6 C0 4.02 0 2.04 0 0 Z " fill="#90815A" transform="translate(54,54)"/>
<path d="M0 0 C4.92 -0.17 8.5 -0.25 13 2 C13 2.66 13 3.32 13 4 C13.99 4 14.98 4 16 4 C15.98 4.78 15.96 5.57 15.94 6.38 C16 9 16 9 17 11 C16.39 13.02 15.73 15.02 15 17 C14.67 17 14.34 17 14 17 C14 13.04 14 9.08 14 5 C9.12 9.75 9.12 9.75 8 12 C8.66 12 9.32 12 10 12 C10 12.99 10 13.98 10 15 C8.02 15 6.04 15 4 15 C4.05 14.25 4.09 13.5 4.14 12.73 C4.44 4.59 4.44 4.59 2 1.31 C1.34 0.88 0.68 0.45 0 0 Z " fill="#7E745A" transform="translate(92,84)"/>
<path d="M0 0 C3 1 3 1 4 3 C4.37 2.51 4.74 2.01 5.12 1.5 C7.75 -0.6 9.74 -0.22 13 0 C12.67 0.66 12.34 1.32 12 2 C10.02 2 8.04 2 6 2 C6 2.99 6 3.98 6 5 C7.32 5.33 8.64 5.66 10 6 C10 6.99 10 7.98 10 9 C8.02 9 6.04 9 4 9 C4.33 8.01 4.66 7.02 5 6 C4.01 6.33 3.02 6.66 2 7 C1.34 7 0.68 7 0 7 C-0.12 7.78 -0.25 8.57 -0.38 9.38 C-1 12 -1 12 -3 14 C-2.67 14.99 -2.34 15.98 -2 17 C-0.35 17 1.3 17 3 17 C3 17.99 3 18.98 3 20 C-0.41 20.78 -3.51 21.1 -7 21 C-6.67 19.02 -6.34 17.04 -6 15 C-7.65 14.67 -9.3 14.34 -11 14 C-11 13.67 -11 13.34 -11 13 C-9.89 12.71 -8.77 12.42 -7.62 12.12 C-4 11 -4 11 -2 9 C-2 7.68 -2 6.36 -2 5 C-1.39 3.31 -0.73 1.64 0 0 Z M6 6 C6 6.66 6 7.32 6 8 C6.99 7.67 7.98 7.34 9 7 C8.01 6.67 7.02 6.34 6 6 Z " fill="#C0BBA3" transform="translate(33,41)"/>
<path d="M0 0 C0.66 0 1.32 0 2 0 C3.07 3.2 3.07 5.66 3 9 C3.99 7.02 4.98 5.04 6 3 C6.33 3 6.66 3 7 3 C6.49 7.32 5.8 11.03 4 15 C3.01 15 2.02 15 1 15 C0.67 15.99 0.34 16.98 0 18 C-0.33 17.34 -0.66 16.68 -1 16 C-2.65 16.33 -4.3 16.66 -6 17 C-6 15.02 -6 13.04 -6 11 C-5.01 10.67 -4.02 10.34 -3 10 C-2.67 9.01 -2.34 8.02 -2 7 C-2.99 7.33 -3.98 7.66 -5 8 C-3.63 5.05 -2.12 2.48 0 0 Z " fill="#BBA783" transform="translate(104,89)"/>
<path d="M0 0 C1.32 0 2.64 0 4 0 C4 1.32 4 2.64 4 4 C4.76 4.14 5.53 4.29 6.31 4.44 C9.98 6.57 10.14 8.73 11.24 12.68 C11.97 14.92 12.82 16.47 14.19 18.38 C16 21 16 21 16 24 C15.34 24 14.68 24 14 24 C14 23.34 14 22.68 14 22 C13.01 22.33 12.02 22.66 11 23 C8.71 19.56 8.82 18.01 9 14 C8.01 13.67 7.02 13.34 6 13 C5.67 12.34 5.34 11.68 5 11 C4.01 11 3.02 11 2 11 C1.94 10.55 1.94 10.55 1.62 8.25 C1.08 5.41 0.43 3.47 -1 1 C-0.67 0.67 -0.34 0.34 0 0 Z " fill="#6D6B68" transform="translate(48,92)"/>
<path d="M0 0 C1.46 -0.05 2.92 -0.09 4.38 -0.12 C5.19 -0.15 6 -0.17 6.84 -0.2 C9 0 9 0 11 2 C11 2.33 11 2.66 11 3 C11.99 3.17 11.99 3.17 17 4 C16.67 7.63 16.34 11.26 16 15 C15.01 14.67 14.02 14.34 13 14 C13 13.01 13 12.02 13 11 C13.66 11 14.32 11 15 11 C14.67 9.35 14.34 7.7 14 6 C12.35 6 10.7 6 9 6 C9 8.64 9 11.28 9 14 C7.35 13.67 5.7 13.34 4 13 C3.94 12.36 3.88 11.72 3.82 11.07 C3.73 10.24 3.65 9.41 3.56 8.56 C3.52 8.15 3.52 8.15 3.32 6.07 C3 4 3 4 2 3 C1.34 3.66 0.68 4.32 0 5 C0 3.35 0 1.7 0 0 Z " fill="#7A6F60" transform="translate(55,84)"/>
<path d="M0 0 C0.31 0.64 0.62 1.28 0.94 1.94 C4.1 5.1 7.68 4.82 12 5 C11.67 5.66 11.34 6.32 11 7 C9.68 7 8.36 7 7 7 C7 7.99 7 8.98 7 10 C5.68 10 4.36 10 3 10 C3.66 11.98 4.32 13.96 5 16 C3.68 16.99 2.36 17.98 1 19 C-0.12 15.25 -0.12 15.25 1 13 C-0.98 13 -2.96 13 -5 13 C-4 10 -4 10 -1 8 C-1.31 6.06 -1.31 6.06 -2 4 C-2.99 3.67 -3.98 3.34 -5 3 C-3.35 2.67 -1.7 2.34 0 2 C0 1.34 0 0.68 0 0 Z " fill="#697268" transform="translate(88,25)"/>
<path d="M0 0 C0.99 0 1.98 0 3 0 C2.2 6.04 1.12 12.01 0 18 C-0.66 18 -1.32 18 -2 18 C-2.33 16.68 -2.66 15.36 -3 14 C-3.33 14.5 -3.33 14.5 -5 17 C-5 16.34 -5 15.68 -5 15 C-5.99 15 -6.98 15 -8 15 C-7.86 13.4 -7.71 11.79 -7.56 10.19 C-7.48 9.29 -7.4 8.4 -7.32 7.48 C-7 5 -7 5 -6 2 C-5.01 2.33 -4.02 2.66 -3 3 C-3 3.66 -3 4.32 -3 5 C-3.66 5 -4.32 5 -5 5 C-5 5.66 -5 6.32 -5 7 C-2.47 4.64 -1.11 3.34 0 0 Z " fill="#918D8C" transform="translate(122,91)"/>
<path d="M0 0 C0.66 0 1.32 0 2 0 C2 2.64 2 5.28 2 8 C-0.33 8 -2.67 8 -5 8 C-5.66 10.64 -6.32 13.28 -7 16 C-7.99 16 -8.98 16 -10 16 C-10 17.32 -10 18.64 -10 20 C-11.32 20 -12.64 20 -14 20 C-13.67 21.98 -13.34 23.96 -13 26 C-14.56 24.88 -14.56 24.88 -16 23 C-15.93 19.45 -15.67 17.67 -13.12 15.12 C-11 14 -11 14 -8 14 C-8.19 13.46 -8.37 12.93 -8.56 12.38 C-9.11 9.38 -8.61 6.96 -8 4 C-6.02 4 -4.04 4 -2 4 C-1.34 2.68 -0.68 1.36 0 0 Z " fill="#8791A1" transform="translate(93,121)"/>
<path d="M0 0 C1.65 0.33 3.3 0.66 5 1 C5 2.32 5 3.64 5 5 C5.99 4.34 6.98 3.68 8 3 C8.99 3 9.98 3 11 3 C11 4.32 11 5.64 11 7 C10.62 7.23 10.62 7.23 8.69 8.38 C5.33 10.4 4.5 12.45 3 16 C1.68 15.34 0.36 14.68 -1 14 C-0.01 13.67 0.98 13.34 2 13 C1.34 12.24 0.68 11.47 0 10.69 C-2 8 -2 8 -2 5 C-1.34 5 -0.68 5 0 5 C0 3.35 0 1.7 0 0 Z " fill="#857C6D" transform="translate(117,78)"/>
<path d="M0 0 C0.66 0 1.32 0 2 0 C1.67 1.65 1.34 3.3 1 5 C1.66 5 2.32 5 3 5 C3 5.66 3 6.32 3 7 C6 5 6 5 6.69 2.38 C6.74 1.98 6.74 1.98 7 0 C8.32 0.33 9.64 0.66 11 1 C10.47 4.3 9.64 7.49 8.69 10.69 C8.46 11.45 8.24 12.22 8.01 13.01 C6.75 15.49 5.54 16.02 3 17 C2.3 15.11 1.61 13.21 0.94 11.31 C0.55 10.26 0.17 9.2 -0.22 8.11 C-1.02 4.91 -0.92 3.13 0 0 Z " fill="#DAD3CF" transform="translate(107,123)"/>
<path d="M0 0 C2.31 0 4.62 0 7 0 C7 0.99 7 1.98 7 3 C9.64 2.34 12.28 1.68 15 1 C14.67 3.31 14.34 5.62 14 8 C5.43 8.29 5.43 8.29 2 6 C2.33 7.32 2.66 8.64 3 10 C1.68 9.67 0.36 9.34 -1 9 C-0.67 7.35 -0.34 5.7 0 4 C1.32 4 2.64 4 4 4 C4 3.34 4 2.68 4 2 C2.68 2 1.36 2 0 2 C0 1.34 0 0.68 0 0 Z " fill="#8B816E" transform="translate(126,52)"/>
<path d="M0 0 C0 0.66 0 1.32 0 2 C0.66 2 1.32 2 2 2 C2 1.01 2 0.02 2 -1 C3.32 -0.34 4.64 0.32 6 1 C5.67 1.99 5.34 2.98 5 4 C1.94 5.19 1.94 5.19 -1 6 C-1 6.66 -1 7.32 -1 8 C-4.3 8 -7.6 8 -11 8 C-10.34 7.67 -9.68 7.34 -9 7 C-9 4.69 -9 2.38 -9 0 C-8.67 0.66 -8.34 1.32 -8 2 C-7.34 2 -6.68 2 -6 2 C-6 1.34 -6 0.68 -6 0 C-3.51 -1.25 -2.59 -0.78 0 0 Z " fill="#817A58" transform="translate(68,75)"/>
<path d="M0 0 C0.33 0 0.66 0 1 0 C1 2.31 1 4.62 1 7 C0.01 7.33 -0.98 7.66 -2 8 C-1.67 9.98 -1.34 11.96 -1 14 C-0.01 14 0.98 14 2 14 C2 14.99 2 15.98 2 17 C0.35 17.33 -1.3 17.66 -3 18 C-3.12 17.2 -3.25 16.39 -3.38 15.56 C-3.58 14.72 -3.79 13.87 -4 13 C-4.66 12.67 -5.32 12.34 -6 12 C-6.33 13.32 -6.66 14.64 -7 16 C-7.66 15.67 -8.32 15.34 -9 15 C-9 14.34 -9 13.68 -9 13 C-9.66 13 -10.32 13 -11 13 C-10.25 10.56 -10.25 10.56 -9 8 C-6.88 7.19 -6.88 7.19 -5 7 C-5 7.99 -5 8.98 -5 10 C-4.34 10 -3.68 10 -3 10 C-3.66 8.02 -4.32 6.04 -5 4 C-3.68 4 -2.36 4 -1 4 C-0.67 2.68 -0.34 1.36 0 0 Z " fill="#7D8594" transform="translate(83,118)"/>
<path d="M0 0 C0.99 0.33 1.98 0.66 3 1 C2.67 2.32 2.34 3.64 2 5 C2.66 5 3.32 5 4 5 C4 4.34 4 3.68 4 3 C6.25 2.25 6.25 2.25 9 2 C11.31 3.94 11.31 3.94 13 6 C11.68 6.33 10.36 6.66 9 7 C9 7.66 9 8.32 9 9 C8.01 9.33 7.02 9.66 6 10 C6 11.98 6 13.96 6 16 C5.34 16 4.68 16 4 16 C3.34 16.66 2.68 17.32 2 18 C2.33 14.7 2.66 11.4 3 8 C2.01 8 1.02 8 0 8 C0.33 6.35 0.66 4.7 1 3 C0.01 3 -0.98 3 -2 3 C-2 2.34 -2 1.68 -2 1 C-1.34 0.67 -0.68 0.34 0 0 Z " fill="#716B67" transform="translate(107,85)"/>
<path d="M0 0 C0.56 1.94 0.56 1.94 1 4 C0.67 4.33 0.34 4.66 0 5 C0.99 5.66 1.98 6.32 3 7 C3.66 6.67 4.32 6.34 5 6 C4.67 8.64 4.34 11.28 4 14 C3.01 14.33 2.02 14.66 1 15 C1 15.66 1 16.32 1 17 C0.01 17.33 -0.98 17.66 -2 18 C-2 14.37 -2 10.74 -2 7 C-2.66 6.67 -3.32 6.34 -4 6 C-4 5.34 -4 4.68 -4 4 C-4.66 4 -5.32 4 -6 4 C-5.67 3.01 -5.34 2.02 -5 1 C-2 0 -2 0 0 0 Z " fill="#918C79" transform="translate(145,61)"/>
<path d="M0 0 C0.99 0.33 1.98 0.66 3 1 C3.33 2.98 3.66 4.96 4 7 C4.99 7 5.98 7 7 7 C7 8.32 7 9.64 7 11 C4.69 10.67 2.38 10.34 0 10 C-0.33 10.66 -0.66 11.32 -1 12 C-3.06 13.13 -3.06 13.13 -5 14 C-3.68 14.66 -2.36 15.32 -1 16 C-1.33 16.99 -1.66 17.98 -2 19 C-5.4 17.87 -6.22 17.03 -8 14 C-7.67 13.01 -7.34 12.02 -7 11 C-6.01 10.67 -5.02 10.34 -4 10 C-4 9.01 -4 8.02 -4 7 C-3.01 7 -2.02 7 -1 7 C-0.67 4.69 -0.34 2.38 0 0 Z " fill="#B2AD99" transform="translate(53,11)"/>
<path d="M0 0 C6.75 1.75 6.75 1.75 9 4 C8.58 5.32 8.14 6.63 7.69 7.94 C7.44 8.67 7.2 9.4 6.95 10.15 C6 12 6 12 3 13 C3 12.34 3 11.68 3 11 C2.34 11 1.68 11 1 11 C1 10.34 1 9.68 1 9 C0.34 9 -0.32 9 -1 9 C-0.67 6.03 -0.34 3.06 0 0 Z " fill="#979CA2" transform="translate(108,106)"/>
<path d="M0 0 C0.33 2.97 0.66 5.94 1 9 C0.34 9 -0.32 9 -1 9 C-1.12 9.93 -1.25 10.86 -1.38 11.81 C-2 15 -2 15 -4 18 C-5.32 17.67 -6.64 17.34 -8 17 C-7.34 13.37 -6.68 9.74 -6 6 C-5.34 6 -4.68 6 -4 6 C-4.33 4.35 -4.66 2.7 -5 1 C-1.12 0 -1.12 0 0 0 Z " fill="#B6B4B5" transform="translate(137,88)"/>
<path d="M0 0 C0.78 0.04 1.57 0.08 2.38 0.12 C2.38 1.12 2.38 2.1 2.38 3.12 C3.36 3.45 4.36 3.78 5.38 4.12 C6.06 6.19 6.06 6.19 6.38 8.12 C8.69 8.12 11 8.12 13.38 8.12 C12.81 10.06 12.81 10.06 11.38 12.12 C7.94 13 7.94 13 4.38 13.12 C3.39 12.47 2.39 11.81 1.38 11.12 C0.39 11.12 -0.61 11.12 -1.62 11.12 C-0.97 9.81 -0.31 8.48 0.38 7.12 C1.03 7.12 1.69 7.12 2.38 7.12 C2.38 6.13 2.38 5.14 2.38 4.12 C0.06 3.47 -2.25 2.8 -4.62 2.12 C-2.62 0.12 -2.62 0.12 0 0 Z " fill="#736B3E" transform="translate(71.625,56.875)"/>
<path d="M0 0 C3.13 1.82 5.56 3.85 6.88 7.31 C6.9 7.59 6.9 7.59 7 9 C5.68 8.34 4.36 7.68 3 7 C2.67 7.33 2.34 7.66 2 8 C0.33 8.04 -1.33 8.04 -3 8 C-3 7.01 -3 6.02 -3 5 C-3.66 5 -4.32 5 -5 5 C-5 5.66 -5 6.32 -5 7 C-5.66 7 -6.32 7 -7 7 C-7 6.01 -7 5.02 -7 4 C-7.66 4 -8.32 4 -9 4 C-9 3.34 -9 2.68 -9 2 C-5.46 -0.36 -4.17 -0.57 0 0 Z " fill="#515646" transform="translate(53,32)"/>
<path d="M0 0 C2.31 0.33 4.62 0.66 7 1 C7 2.65 7 4.3 7 6 C6.01 6.33 5.02 6.66 4 7 C3.67 6.01 3.34 5.02 3 4 C2.34 4 1.68 4 1 4 C-1.11 13.41 -1.11 13.41 -2 18 C-4.89 17.6 -5.82 17.21 -7.75 14.94 C-8.16 14.3 -8.58 13.66 -9 13 C-7.68 13 -6.36 13 -5 13 C-5 11.68 -5 10.36 -5 9 C-4.01 9 -3.02 9 -2 9 C-2.04 8.07 -2.08 7.14 -2.12 6.19 C-2 3 -2 3 0 0 Z " fill="#A0A6AF" transform="translate(88,128)"/>
<path d="M0 0 C0.6 0.08 1.21 0.17 1.83 0.25 C2.23 0.3 2.23 0.3 4.25 0.56 C5.04 0.67 5.83 0.77 6.64 0.88 C9 1 9 1 11.03 0.39 C14.45 -0.29 16.59 1.69 19.36 3.52 C21 5 21 5 21.5 7.81 C21.34 8.53 21.17 9.26 21 10 C20.34 9.01 19.68 8.02 19 7 C16.69 7.33 14.38 7.66 12 8 C12 7.01 12 6.02 12 5 C11.47 5.03 11.47 5.03 8.81 5.19 C4.84 4.99 3.09 4.43 0 2 C0 1.34 0 0.68 0 0 Z " fill="#D2C1AB" transform="translate(121,47)"/>
<path d="M0 0 C0.99 0.66 1.98 1.32 3 2 C3 2.66 3 3.32 3 4 C2.67 4.17 2.67 4.17 1 5 C0.64 6.66 0.31 8.33 0 10 C-1.06 12.31 -1.06 12.31 -2 14 C-2.66 14 -3.32 14 -4 14 C-4.2 11.95 -4.39 9.9 -4.59 7.85 C-4.65 7.54 -4.65 7.54 -5 6 C-5.66 5.67 -6.32 5.34 -7 5 C-7 4.01 -7 3.02 -7 2 C-6.01 1.67 -5.02 1.34 -4 1 C-5.32 0.34 -6.64 -0.32 -8 -1 C-4.33 -2.22 -3.4 -1.62 0 0 Z " fill="#D9C0A1" transform="translate(93,85)"/>
<path d="M0 0 C0.66 0 1.32 0 2 0 C2.19 3.38 2.19 3.38 2 7 C1.01 7.66 0.02 8.32 -1 9 C-0.67 13.62 -0.34 18.24 0 23 C-0.83 22.67 -0.83 22.67 -5 21 C-4.42 18.61 -3.78 16.33 -3 14 C-3.66 14 -4.32 14 -5 14 C-5.33 11.36 -5.66 8.72 -6 6 C-4.35 6 -2.7 6 -1 6 C-0.67 4.02 -0.34 2.04 0 0 Z " fill="#515143" transform="translate(57,75)"/>
<path d="M0 0 C1.62 -0.03 3.25 -0.05 4.88 -0.06 C5.78 -0.07 6.68 -0.09 7.62 -0.1 C10 0 10 0 12 1 C12 1.66 12 2.32 12 3 C10.35 2.67 8.7 2.34 7 2 C7 2.66 7 3.32 7 4 C5.5 5.62 5.5 5.62 4 7 C4.99 7 5.98 7 7 7 C7 8.32 7 9.64 7 11 C4.69 11 2.38 11 0 11 C-0.66 9.02 -1.32 7.04 -2 5 C-0.68 4.67 0.64 4.34 2 4 C2 3.01 2 2.02 2 1 C1.34 0.67 0.68 0.34 0 0 Z " fill="#4C5244" transform="translate(68,45)"/>
<path d="M0 0 C0 0.99 0 1.98 0 3 C2.64 3.33 5.28 3.66 8 4 C8 4.66 8 5.32 8 6 C4.67 8.47 2.92 9.07 -1.29 8.75 C-4.55 8.24 -7.77 7.67 -11 7 C-4.28 0 -4.28 0 0 0 Z " fill="#F0D4A5" transform="translate(80,78)"/>
<path d="M0 0 C2.31 0.33 4.62 0.66 7 1 C7.69 4.72 8.11 8.21 8 12 C5.61 11.42 3.33 10.78 1 10 C0.67 6.7 0.34 3.4 0 0 Z " fill="#6B6455" transform="translate(34,76)"/>
<path d="M0 0 C0.99 0.33 1.98 0.66 3 1 C3 2.65 3 4.3 3 6 C2.34 6 1.68 6 1 6 C1 6.99 1 7.98 1 9 C4.3 8.34 7.6 7.68 11 7 C10.67 7.99 10.34 8.98 10 10 C9.64 10.06 9.64 10.06 7.85 10.37 C6.93 10.53 6.01 10.7 5.06 10.88 C4.6 10.96 4.6 10.96 2.29 11.37 C1.53 11.58 0.78 11.78 0 12 C-0.33 12.66 -0.66 13.32 -1 14 C-2.32 13.34 -3.64 12.68 -5 12 C-5 11.01 -5 10.02 -5 9 C-3.35 8.67 -1.7 8.34 0 8 C-0.38 6.06 -0.38 6.06 -1 4 C-1.66 3.67 -2.32 3.34 -3 3 C-2.01 2.67 -1.02 2.34 0 2 C0 1.34 0 0.68 0 0 Z " fill="#9C936D" transform="translate(60,33)"/>
<path d="M0 0 C-0.09 1.77 -0.2 3.54 -0.31 5.31 C-0.37 6.3 -0.43 7.28 -0.49 8.3 C-1.05 11.24 -1.69 12.18 -4 14 C-4.99 13.67 -5.98 13.34 -7 13 C-7.66 13.99 -8.32 14.98 -9 16 C-8.98 15.11 -8.96 14.23 -8.94 13.31 C-8.99 10.37 -9.38 7.86 -10 5 C-10 4.01 -10 3.02 -10 2 C-9.34 2 -8.68 2 -8 2 C-7.34 4.31 -6.68 6.62 -6 9 C-5.01 9 -4.02 9 -3 9 C-3.33 8.24 -3.66 7.47 -4 6.69 C-5 4 -5 4 -5 1 C-3 0 -3 0 0 0 Z " fill="#8D97A5" transform="translate(58,106)"/>
<path d="M0 0 C0.66 0.33 1.32 0.66 2 1 C2 1.66 2 2.32 2 3 C2.52 3.39 3.03 3.78 3.56 4.19 C5 6 5 6 4.81 9.5 C4 13 4 13 2 16 C1.17 15.67 1.17 15.67 -3 14 C-3.33 14.66 -3.66 15.32 -4 16 C-4 13.36 -4 10.72 -4 8 C-3.17 8.16 -3.17 8.16 1 9 C1.33 8.01 1.66 7.02 2 6 C1.34 6 0.68 6 0 6 C-1.12 2.25 -1.12 2.25 0 0 Z " fill="#9095A1" transform="translate(62,117)"/>
<path d="M0 0 C0.99 0 1.98 0 3 0 C3 0.66 3 1.32 3 2 C4.11 1.67 5.23 1.34 6.38 1 C10 0 10 0 12 0 C11.81 2.31 11.81 2.31 11 5 C8.44 6.81 8.44 6.81 6 8 C6.66 8.66 7.32 9.32 8 10 C7.67 10.99 7.34 11.98 7 13 C6.34 13 5.68 13 5 13 C2 8.62 2 8.62 2 6 C2.66 5.67 3.32 5.34 4 5 C3.17 4.67 3.17 4.67 -1 3 C-0.67 2.01 -0.34 1.02 0 0 Z " fill="#CAB07F" transform="translate(55,64)"/>
<path d="M0 0 C1.32 0 2.64 0 4 0 C4.21 0.8 4.41 1.61 4.62 2.44 C5.08 3.28 5.53 4.13 6 5 C9.12 5.81 9.12 5.81 12 6 C12.33 5.34 12.66 4.68 13 4 C13 4.99 13 5.98 13 7 C12.34 7.33 12.34 7.33 9 9 C9.99 9.66 10.98 10.32 12 11 C7.38 14 7.38 14 4 14 C4 11.36 4 8.72 4 6 C3.34 5.67 2.68 5.34 2 5 C2.33 4.34 2.66 3.68 3 3 C2.01 2.67 1.02 2.34 0 2 C0 1.34 0 0.68 0 0 Z " fill="#C2BFAB" transform="translate(95,32)"/>
<path d="M0 0 C2.97 0 5.94 0 9 0 C9.33 0.66 9.66 1.32 10 2 C9.01 2 8.02 2 7 2 C7 3.98 7 5.96 7 8 C6.34 7.01 5.68 6.02 5 5 C4.01 4.67 3.02 4.34 2 4 C2.23 4.76 2.45 5.53 2.69 6.31 C3 9 3 9 1.69 10.81 C0 12 0 12 -2 12 C-2.12 11.36 -2.25 10.72 -2.38 10.06 C-2.58 9.38 -2.79 8.7 -3 8 C-3.66 7.67 -4.32 7.34 -5 7 C-5 6.34 -5 5.68 -5 5 C-3.68 5 -2.36 5 -1 5 C-0.67 3.35 -0.34 1.7 0 0 Z " fill="#D4C091" transform="translate(124,71)"/>
<path d="M0 0 C0.5 0.33 0.5 0.33 3 2 C2.67 2.66 2.34 3.32 2 4 C2.66 4 3.32 4 4 4 C4 4.66 4 5.32 4 6 C4.66 6 5.32 6 6 6 C6.33 5.01 6.66 4.02 7 3 C7.99 3.33 8.98 3.66 10 4 C10.25 9.62 10.25 9.62 8 13 C7.88 15.69 7.88 15.69 8 18 C7.34 18 6.68 18 6 18 C5.67 15.69 5.34 13.38 5 11 C3.68 10.67 2.36 10.34 1 10 C0.67 6.7 0.34 3.4 0 0 Z " fill="#929CAB" transform="translate(70,127)"/>
<path d="M0 0 C0.66 0 1.32 0 2 0 C3.39 2.78 3.18 4.92 3 8 C2 10.38 2 10.38 1 12 C1.99 12 2.98 12 4 12 C4 12.99 4 13.98 4 15 C1.03 14.01 -1.94 13.02 -5 12 C-5 10.35 -5 8.7 -5 7 C-4.68 6.89 -4.68 6.89 -3.06 6.31 C-1 5 -1 5 -0.25 2.38 C-0.17 1.59 -0.08 0.81 0 0 Z " fill="#7A7C7E" transform="translate(113,94)"/>
<path d="M0 0 C0.99 0 1.98 0 3 0 C3 0.66 3 1.32 3 2 C3.64 2.27 4.28 2.54 4.94 2.81 C7 4 7 4 8 7 C7.01 7.66 6.02 8.32 5 9 C4.49 10.95 4.49 10.95 4.31 13.12 C4.26 13.76 4.26 13.76 4 17 C1.23 14.67 0.54 13.08 0.19 9.5 C0.1 8.73 0.01 7.95 -0.08 7.16 C0 5 0 5 2 2 C1.34 2 0.68 2 0 2 C0 1.34 0 0.68 0 0 Z " fill="#4E4F3D" transform="translate(28,67)"/>
<path d="M0 0 C0.66 0.33 1.32 0.66 2 1 C1.34 6.61 0.68 12.22 0 18 C-0.99 17.67 -1.98 17.34 -3 17 C-4.52 13.4 -5 10.95 -5 7 C-4.34 7 -3.68 7 -3 7 C-3.33 5.68 -3.66 4.36 -4 3 C-3.01 3 -2.02 3 -1 3 C-0.67 2.01 -0.34 1.02 0 0 Z " fill="#CDD1D9" transform="translate(29,96)"/>
<path d="M0 0 C-0.55 4.57 -1.42 8.67 -3 13 C-3.66 13 -4.32 13 -5 13 C-5.36 11.56 -5.72 10.13 -6.06 8.69 C-6.26 7.89 -6.46 7.09 -6.66 6.26 C-7 4 -7 4 -6 1 C-3 0 -3 0 0 0 Z " fill="#CCCCCA" transform="translate(135,107)"/>
<path d="M0 0 C1.65 0.99 3.3 1.98 5 3 C4.61 9.05 4.61 9.05 4 11 C3.34 11.33 3.34 11.33 0 13 C0 8.71 0 4.42 0 0 Z " fill="#B4AB9B" transform="translate(0,38)"/>
<path d="M0 0 C0.33 0.17 0.33 0.17 2 1 C2 1.66 2 2.32 2 3 C1.34 3 0.68 3 0 3 C0 2.01 0 1.02 0 0 Z " fill="#DDE6F1" transform="translate(0,125)"/>
<path d="" fill="#FCF9F3" transform="translate(0,0)"/>
<path d="" fill="#FAF5F1" transform="translate(0,0)"/>
<path d="" fill="#F9F6F3" transform="translate(0,0)"/>
</svg>
