<?xml version="1.0" encoding="UTF-8"?>
<!-- Generator: visioncortex VTracer 0.6.12 -->
<svg version="1.1" xmlns="http://www.w3.org/2000/svg" width="271" height="94">
<path d="M0 0 C1.14 0.09 2.29 0.18 3.47 0.27 C6.5 0.75 6.5 0.75 9.5 2.75 C9.5 3.74 9.5 4.73 9.5 5.75 C10.1 5.79 10.7 5.83 11.31 5.88 C13.5 6.75 13.5 6.75 15.25 9.69 C16.5 12.75 16.5 12.75 16.5 14.75 C17.16 14.75 17.82 14.75 18.5 14.75 C18.5 18.75 18.5 22.75 18.5 26.75 C19 26.91 19 26.91 21.5 27.75 C21.5 27.09 21.5 26.43 21.5 25.75 C20.84 25.75 20.18 25.75 19.5 25.75 C19.5 24.1 19.5 22.45 19.5 20.75 C20.49 20.42 21.48 20.09 22.5 19.75 C22.83 19.09 23.16 18.43 23.5 17.75 C28.02 16.4 31.54 16.3 35.81 18.31 C38.8 21.02 40.75 23.1 42.5 26.75 C42.53 29.59 42.08 31.94 41.5 34.75 C42.61 34.87 43.73 35 44.88 35.12 C48.5 35.75 48.5 35.75 50.5 37.75 C50.98 39.99 50.98 39.99 51.25 42.62 C51.35 43.49 51.45 44.35 51.55 45.24 C51.5 47.97 50.9 49.44 49.5 51.75 C50.32 52.25 50.32 52.25 54.5 54.75 C54.83 53.76 55.16 52.77 55.5 51.75 C59.26 50.77 61.13 50.61 64.81 52 C67.5 53.75 67.5 53.75 68.5 56.75 C70.06 58.44 70.06 58.44 71.5 59.75 C70.84 60.74 70.18 61.73 69.5 62.75 C70.3 62.96 71.11 63.16 71.94 63.38 C72.78 63.83 73.63 64.28 74.5 64.75 C75.31 67.87 75.31 67.87 75.5 70.75 C72.06 72.26 69.08 73.08 65.34 73.42 C64.38 73.51 63.42 73.59 62.44 73.69 C61.45 73.77 60.46 73.85 59.44 73.94 C58.44 74.03 57.45 74.13 56.43 74.22 C52.14 74.6 48.67 74.89 44.5 73.75 C43.53 73.77 42.56 73.79 41.56 73.81 C38.5 73.75 38.5 73.75 36.19 72.62 C32.66 71.48 30.51 72.32 26.98 73.23 C21.84 74.31 16.49 74.41 11.5 72.75 C11 72.91 11 72.91 8.5 73.75 C7.84 73.42 7.18 73.09 6.5 72.75 C6.17 72.91 6.17 72.91 4.5 73.75 C2.62 73.77 2.62 73.77 0.37 73.63 C-0.44 73.58 -1.24 73.53 -2.07 73.48 C-2.92 73.43 -3.76 73.37 -4.62 73.31 C-5.47 73.26 -6.32 73.21 -7.2 73.15 C-9.3 73.02 -11.4 72.89 -13.5 72.75 C-13.5 71.76 -13.5 70.77 -13.5 69.75 C-11.85 69.42 -10.2 69.09 -8.5 68.75 C-10.49 68.37 -12.49 68.04 -14.5 67.75 C-14.83 68.08 -15.16 68.41 -15.5 68.75 C-16.37 68.73 -17.23 68.71 -18.12 68.69 C-21.5 68.75 -21.5 68.75 -24.88 69.94 C-29.78 71.04 -31.99 69.81 -36.5 67.75 C-36.17 67.09 -35.84 66.43 -35.5 65.75 C-41.65 65.65 -41.65 65.65 -43.5 65.75 C-43.83 66.08 -44.16 66.41 -44.5 66.75 C-46.68 66.98 -48.87 67.16 -51.06 67.31 C-52.26 67.4 -53.46 67.48 -54.69 67.57 C-55.62 67.63 -56.55 67.69 -57.5 67.75 C-57.83 66.76 -58.16 65.77 -58.5 64.75 C-63.27 63.68 -67.98 63.41 -72.86 63.13 C-75.5 62.75 -75.5 62.75 -77.5 60.75 C-71 57.82 -71 57.82 -67.75 57.38 C-65.5 56.75 -65.5 56.75 -64.06 54.31 C-61.99 50.92 -60.27 50.73 -56.5 49.75 C-55.61 49.34 -54.73 48.92 -53.81 48.5 C-53.05 48.25 -52.29 48.01 -51.5 47.75 C-50.51 48.41 -49.52 49.07 -48.5 49.75 C-48.5 50.41 -48.5 51.07 -48.5 51.75 C-47.84 51.75 -47.18 51.75 -46.5 51.75 C-46.5 49.44 -46.5 47.13 -46.5 44.75 C-45.84 44.75 -45.18 44.75 -44.5 44.75 C-44.42 44.07 -44.34 43.39 -44.25 42.69 C-43.12 38.26 -41.29 34.29 -37.75 31.25 C-34.11 30.44 -31.16 31.04 -27.5 31.75 C-26.84 32.41 -26.18 33.07 -25.5 33.75 C-24.84 33.09 -24.18 32.43 -23.5 31.75 C-24.16 31.3 -24.82 30.84 -25.5 30.38 C-28.52 26.42 -27.83 22.56 -27.5 17.75 C-26.18 17.09 -24.86 16.43 -23.5 15.75 C-23.59 15.01 -23.67 14.28 -23.76 13.52 C-23.41 9.81 -22.1 8.89 -19.31 6.5 C-18.54 5.81 -17.76 5.13 -16.96 4.42 C-14.35 2.65 -12.57 2.25 -9.5 1.75 C-5.82 -0.71 -4.34 -0.37 0 0 Z M9.5 7.75 C9.83 8.74 10.16 9.73 10.5 10.75 C11.16 10.75 11.82 10.75 12.5 10.75 C12.17 9.76 11.84 8.77 11.5 7.75 C10.84 7.75 10.18 7.75 9.5 7.75 Z M6.5 34.75 C7.5 36.75 7.5 36.75 7.5 36.75 Z M-5.5 46.75 C-5.83 47.24 -5.83 47.24 -7.5 49.75 C-4.86 50.41 -2.22 51.07 0.5 51.75 C0.17 50.76 -0.16 49.77 -0.5 48.75 C-3.06 47.56 -3.06 47.56 -5.5 46.75 Z " fill="#E4E0E4" transform="translate(87.5,10.25)"/>
<path d="M0 0 C1.14 0.09 2.29 0.18 3.47 0.27 C6.5 0.75 6.5 0.75 9.5 2.75 C9.5 3.74 9.5 4.73 9.5 5.75 C10.1 5.79 10.7 5.83 11.31 5.88 C13.5 6.75 13.5 6.75 15.25 9.69 C16.5 12.75 16.5 12.75 16.5 14.75 C17.16 14.75 17.82 14.75 18.5 14.75 C18.5 18.75 18.5 22.75 18.5 26.75 C19.49 27.08 20.48 27.41 21.5 27.75 C21.5 27.09 21.5 26.43 21.5 25.75 C20.84 25.75 20.18 25.75 19.5 25.75 C19.5 24.1 19.5 22.45 19.5 20.75 C20.49 20.42 21.48 20.09 22.5 19.75 C22.83 19.09 23.16 18.43 23.5 17.75 C28.02 16.4 31.54 16.3 35.81 18.31 C38.8 21.02 40.75 23.1 42.5 26.75 C42.53 29.59 42.08 31.94 41.5 34.75 C42.61 34.87 43.73 35 44.88 35.12 C48.5 35.75 48.5 35.75 50.5 37.75 C50.98 39.99 50.98 39.99 51.25 42.62 C51.3 43.06 51.3 43.06 51.55 45.24 C51.5 47.97 50.9 49.44 49.5 51.75 C51.15 52.74 52.8 53.73 54.5 54.75 C54.83 53.76 55.16 52.77 55.5 51.75 C59.26 50.77 61.13 50.61 64.81 52 C67.5 53.75 67.5 53.75 68.5 56.75 C70.06 58.44 70.06 58.44 71.5 59.75 C70.84 60.74 70.18 61.73 69.5 62.75 C70.3 62.96 71.11 63.16 71.94 63.38 C72.36 63.6 72.36 63.6 74.5 64.75 C75.31 67.88 75.31 67.88 75.5 70.75 C72 72.3 69 73.07 65.2 73.38 C64.22 73.47 63.25 73.55 62.24 73.64 C61.23 73.72 60.23 73.79 59.19 73.88 C58.67 73.92 58.67 73.92 56.08 74.14 C53.55 74.35 51.03 74.55 48.5 74.75 C48.17 74.09 47.84 73.43 47.5 72.75 C49.81 72.75 52.12 72.75 54.5 72.75 C54.66 72.09 54.66 72.09 55.5 68.75 C55.11 68.73 55.11 68.73 53.13 68.6 C52.62 68.56 52.62 68.56 50.06 68.38 C49.05 68.31 48.04 68.24 47 68.16 C46.18 68.03 45.35 67.89 44.5 67.75 C44.17 67.09 43.84 66.43 43.5 65.75 C41.44 65.13 41.44 65.13 39.5 64.75 C39.5 65.41 39.5 66.07 39.5 66.75 C38.84 66.75 38.18 66.75 37.5 66.75 C37.5 66.09 37.5 65.43 37.5 64.75 C36.51 64.75 35.52 64.75 34.5 64.75 C34.5 64.09 34.5 63.43 34.5 62.75 C35.49 62.75 36.48 62.75 37.5 62.75 C37.34 61.59 37.34 61.59 36.5 55.75 C35.84 55.91 35.84 55.91 32.5 56.75 C30.5 53.75 30.5 53.75 30.5 50.75 C29.51 51.08 28.52 51.41 27.5 51.75 C26.77 53.82 26.77 53.82 26.31 56.31 C26.23 56.73 26.23 56.73 25.83 58.82 C25.72 59.45 25.61 60.09 25.5 60.75 C23.19 60.75 20.88 60.75 18.5 60.75 C18.83 58.44 19.16 56.13 19.5 53.75 C18.51 53.75 17.52 53.75 16.5 53.75 C16.46 52.82 16.42 51.89 16.38 50.94 C15.5 47.75 15.5 47.75 12.44 45.88 C11.47 45.5 10.5 45.13 9.5 44.75 C9.83 43.43 10.16 42.11 10.5 40.75 C11.16 40.75 11.82 40.75 12.5 40.75 C12.5 39.76 12.5 38.77 12.5 37.75 C13.49 37.75 14.48 37.75 15.5 37.75 C14.84 36.76 14.18 35.77 13.5 34.75 C10.54 35.36 9.12 36 6.5 37.75 C6.17 37.91 6.17 37.91 4.5 38.75 C4.66 37.92 4.83 37.1 5 36.25 C5.56 32.34 5.57 28.7 5.5 24.75 C-0.91 20.68 -0.91 20.68 -3.75 21 C-4.33 21.25 -4.91 21.5 -5.5 21.75 C-8.5 21.75 -8.5 21.75 -11.5 20.75 C-11.5 20.09 -11.5 19.43 -11.5 18.75 C-10.84 18.42 -10.18 18.09 -9.5 17.75 C-8.88 15.69 -8.88 15.69 -8.5 13.75 C-9.16 13.75 -9.82 13.75 -10.5 13.75 C-10.34 13.05 -10.19 12.35 -10.03 11.63 C-9.83 10.72 -9.64 9.81 -9.44 8.88 C-9.34 8.42 -9.34 8.42 -8.84 6.13 C-8.5 3.75 -8.5 3.75 -9.5 1.75 C-5.82 -0.71 -4.34 -0.37 0 0 Z M9.5 7.75 C9.83 8.74 10.16 9.73 10.5 10.75 C11.16 10.75 11.82 10.75 12.5 10.75 C12.17 9.76 11.84 8.77 11.5 7.75 C10.84 7.75 10.18 7.75 9.5 7.75 Z " fill="#F9F1E6" transform="translate(87.5,10.25)"/>
<path d="M0 0 C1.03 0.23 2.06 0.45 3.12 0.69 C6 2 6 2 7.94 5 C8.29 5.99 8.64 6.98 9 8 C8.67 8.66 8.34 9.32 8 10 C8.16 10.4 8.16 10.4 9 12.44 C10 15 10 15 9 18 C9.99 18 10.98 18 12 18 C12 18.66 12 19.32 12 20 C12.66 20 13.32 20 14 20 C14.66 18.68 15.32 17.36 16 16 C19.07 16.07 22.01 16.27 25 17 C27.39 19.76 28.34 22.43 29 26 C33.75 27.12 33.75 27.12 36 26 C36.99 26.66 37.98 27.32 39 28 C39 28.66 39 29.32 39 30 C39.91 29.96 40.81 29.92 41.75 29.88 C45.04 30 46.17 30.54 49 32 C51.32 32.39 53.66 32.73 56 33 C56 33.66 56 34.32 56 35 C48.98 36.1 42.09 36.1 35 36 C35 36.66 35 37.32 35 38 C28.25 37.12 28.25 37.12 26 36 C25.84 36.33 25.84 36.33 25 38 C23.23 38.03 21.46 38.05 19.69 38.06 C18.7 38.07 17.72 38.09 16.7 38.1 C14 38 14 38 11 37 C9.12 37.11 7.24 37.28 5.38 37.5 C3.59 37.71 1.8 37.88 0 38 C-0.33 37.67 -0.66 37.34 -1 37 C-3.39 36.94 -5.75 36.93 -8.14 36.97 C-9.62 36.99 -11.1 37 -12.57 37.01 C-14.91 37.03 -17.24 37.06 -19.58 37.1 C-21.83 37.13 -24.08 37.14 -26.33 37.16 C-26.67 37.17 -26.67 37.17 -28.43 37.2 C-32.41 37.22 -35.42 36.76 -39 35 C-38.34 33.68 -37.68 32.36 -37 31 C-36.34 31 -35.68 31 -35 31 C-35 29.68 -35 28.36 -35 27 C-34.71 23.98 -34.42 22.46 -32.38 20.19 C-29.12 18.56 -26.59 18.74 -23 19 C-22.01 19.33 -21.02 19.66 -20 20 C-20 18.35 -20 16.7 -20 15 C-19.01 14.67 -18.02 14.34 -17 14 C-17 14.66 -17 15.32 -17 16 C-16.34 16 -15.68 16 -15 16 C-15.43 14.82 -15.87 13.65 -16.31 12.44 C-16.95 9.87 -17.17 8.48 -16.27 5.98 C-14.02 2.52 -12.35 1.15 -8.5 -0.5 C-5.11 -0.98 -3.22 -0.99 0 0 Z M-7 20 C-7 20.66 -7 21.32 -7 22 C-6.34 21.67 -5.68 21.34 -5 21 C-5.66 20.67 -6.32 20.34 -7 20 Z M3 22 C3 22.66 3 23.32 3 24 C3.66 24 4.32 24 5 24 C5 23.34 5 22.68 5 22 C4.34 22 3.68 22 3 22 Z " fill="#F3ECE7" transform="translate(206,46)"/>
<path d="M0 0 C-0.75 7.62 -0.75 7.62 -3 11 C-2.34 11 -1.68 11 -1 11 C-1.33 12.65 -1.66 14.3 -2 16 C-2.66 16 -3.32 16 -4 16 C-4 16.66 -4 17.32 -4 18 C-3.01 18 -2.02 18 -1 18 C0.03 22.41 0.04 24.93 -2 29 C-1.34 29 -0.68 29 0 29 C0.33 28.01 0.66 27.02 1 26 C3.75 26.06 3.75 26.06 7 27 C9.07 29.26 9.81 31.07 11 34 C10.31 36.31 10.31 36.31 9 38 C8.67 38.66 8.34 39.32 8 40 C7.01 40 6.02 40 5 40 C5.33 41.32 5.66 42.64 6 44 C5.5 43.84 5.5 43.84 3 43 C2.27 40.93 2.27 40.93 1.81 38.44 C1.73 38.02 1.73 38.02 1.33 35.93 C1.22 35.3 1.11 34.66 1 34 C-0.65 33.67 -2.3 33.34 -4 33 C-4.33 35.31 -4.66 37.62 -5 40 C-13.04 42.28 -13.04 42.28 -17 41 C-17.12 40.36 -17.25 39.72 -17.38 39.06 C-17.58 38.38 -17.79 37.7 -18 37 C-18.66 36.67 -19.32 36.34 -20 36 C-19.67 35.34 -19.34 34.68 -19 34 C-18.01 34.33 -17.02 34.66 -16 35 C-16.09 34.6 -16.09 34.6 -16.56 32.56 C-16.71 31.72 -16.85 30.87 -17 30 C-16.67 29.67 -16.34 29.34 -16 29 C-16.66 28.55 -17.32 28.09 -18 27.62 C-21.02 23.67 -20.33 19.81 -20 15 C-18.68 14.34 -17.36 13.68 -16 13 C-16.08 12.26 -16.17 11.53 -16.25 10.77 C-15.84 6.2 -12.83 4.44 -9.47 1.61 C-5.97 -0.67 -4.04 -0.69 0 0 Z " fill="#DBD8DF" transform="translate(80,13)"/>
<path d="M0 0 C2.25 0.12 2.25 0.12 5 1 C5.64 2.01 6.28 3.02 6.94 4.06 C7.62 5.03 8.3 6 9 7 C12 7.19 12 7.19 15 7 C17.38 8.5 17.38 8.5 19 10 C19 9.01 19 8.02 19 7 C19.66 6.34 20.32 5.68 21 5 C21 4.01 21 3.02 21 2 C21.99 2.66 22.98 3.32 24 4 C24.33 3.01 24.66 2.02 25 1 C28.76 0.02 30.63 -0.14 34.31 1.25 C37 3 37 3 38 6 C39.56 7.69 39.56 7.69 41 9 C40.34 9.99 39.68 10.98 39 12 C39.8 12.21 40.61 12.41 41.44 12.62 C41.86 12.85 41.86 12.85 44 14 C44.81 17.13 44.81 17.13 45 20 C41.5 21.55 38.5 22.32 34.7 22.63 C34.21 22.67 34.21 22.67 31.74 22.89 C31.24 22.93 31.24 22.93 28.69 23.12 C27.66 23.21 26.63 23.3 25.58 23.39 C23.05 23.6 20.53 23.8 18 24 C17.67 23.34 17.34 22.68 17 22 C19.31 22 21.62 22 24 22 C24.33 20.68 24.66 19.36 25 18 C24.61 17.98 24.61 17.98 22.63 17.85 C21.62 17.78 20.61 17.7 19.56 17.62 C18.55 17.56 17.54 17.49 16.5 17.41 C15.68 17.28 14.85 17.14 14 17 C13.67 16.34 13.34 15.68 13 15 C10.94 14.38 10.94 14.38 9 14 C9 14.66 9 15.32 9 16 C8.34 16 7.68 16 7 16 C7 15.34 7 14.68 7 14 C6.01 14 5.02 14 4 14 C4 13.34 4 12.68 4 12 C4.99 12 5.98 12 7 12 C6.67 9.69 6.34 7.38 6 5 C4.68 5.33 3.36 5.66 2 6 C0 3 0 3 0 0 Z " fill="#EAE5E5" transform="translate(118,61)"/>
<path d="M0 0 C2.8 2.72 4.93 5.22 5.09 9.23 C4.81 11.44 4.81 11.44 4 15 C5.11 15.12 6.23 15.25 7.38 15.38 C11 16 11 16 13 18 C13 23.24 13 23.24 12 26 C8.94 28 8.94 28 6 29 C5.34 28.34 4.68 27.68 4 27 C4.33 26.01 4.66 25.02 5 24 C3.02 23.67 1.04 23.34 -1 23 C-1.33 22.01 -1.66 21.02 -2 20 C-2.99 19.67 -3.98 19.34 -5 19 C-5.33 20.65 -5.66 22.3 -6 24 C-6.99 24 -7.98 24 -9 24 C-9 23.34 -9 22.68 -9 22 C-9.99 22.33 -10.98 22.66 -12 23 C-11.44 19.66 -10.65 16.97 -9 14 C-10.32 14 -11.64 14 -13 14 C-13 10 -13 10 -11 8 C-11.33 7.01 -11.66 6.02 -12 5 C-11.88 1.94 -11.88 1.94 -11 -1 C-6.73 -4.05 -4.09 -2.81 0 0 Z " fill="#FBF5EC" transform="translate(125,30)"/>
<path d="M0 0 C0.99 0 1.98 0 3 0 C3 1.32 3 2.64 3 4 C3.8 3.98 4.61 3.96 5.44 3.94 C8 4 8 4 9 5 C9.24 11.53 9.24 11.53 8 14 C8.99 14 9.98 14 11 14 C11.33 12.02 11.66 10.04 12 8 C15.3 8 18.6 8 22 8 C22.33 8.66 22.66 9.32 23 10 C24.16 9.84 24.16 9.84 30 9 C30 9.66 30 10.32 30 11 C30.81 11.04 31.62 11.07 32.46 11.11 C51.23 12.23 51.23 12.23 56 17 C55.19 16.99 54.38 16.98 53.54 16.96 C46.97 16.91 40.57 17.11 34.05 17.88 C33.37 17.92 32.7 17.96 32 18 C31.67 17.67 31.34 17.34 31 17 C28.61 16.94 26.25 16.93 23.86 16.97 C22.38 16.99 20.9 17 19.43 17.01 C17.09 17.03 14.76 17.06 12.42 17.1 C10.17 17.13 7.92 17.14 5.67 17.16 C4.98 17.17 4.29 17.19 3.57 17.2 C-0.41 17.22 -3.42 16.76 -7 15 C-6.34 13.68 -5.68 12.36 -5 11 C-4.34 11 -3.68 11 -3 11 C-3 9.68 -3 8.36 -3 7 C-2.33 2.33 -2.33 2.33 0 0 Z " fill="#E0DEE5" transform="translate(174,66)"/>
<path d="M0 0 C0 0.66 0 1.32 0 2 C0.95 2.31 1.9 2.62 2.88 2.94 C6 4 6 4 8 5 C8 6.98 8 8.96 8 11 C9.32 11.33 10.64 11.66 12 12 C12.58 11.01 13.16 10.02 13.75 9 C14.49 8.01 15.23 7.02 16 6 C17.32 6 18.64 6 20 6 C20.66 4.68 21.32 3.36 22 2 C23.32 2.66 24.64 3.32 26 4 C25.67 5.65 25.34 7.3 25 9 C25.99 9.33 26.98 9.66 28 10 C28.31 10.99 28.62 11.98 28.94 13 C29.29 13.99 29.64 14.98 30 16 C32.12 16.88 32.12 16.88 34 17 C34 17.66 34 18.32 34 19 C19.94 17.56 19.94 17.56 17 14 C16.46 14.66 15.93 15.32 15.38 16 C13 18 13 18 10.31 18.62 C5.41 17.7 1.95 14.95 -2 12 C-2 12.66 -2 13.32 -2 14 C-5.67 15.18 -9.17 15.07 -13 15 C-13 14.34 -13 13.68 -13 13 C-10.69 13 -8.38 13 -6 13 C-7.26 10.49 -8.5 10.13 -11 9 C-10.34 8.67 -9.68 8.34 -9 8 C-9 5.36 -9 2.72 -9 0 C-5.52 -1.16 -3.54 -0.71 0 0 Z " fill="#CED2E2" transform="translate(50,55)"/>
<path d="M0 0 C-0.75 7.62 -0.75 7.62 -3 11 C-2.34 11 -1.68 11 -1 11 C-1.33 12.65 -1.66 14.3 -2 16 C-2.66 16 -3.32 16 -4 16 C-4.33 16.66 -4.66 17.32 -5 18 C-6.65 17.67 -8.3 17.34 -10 17 C-10 17.66 -10 18.32 -10 19 C-10.66 19 -11.32 19 -12 19 C-12 18.34 -12 17.68 -12 17 C-12.99 17 -13.98 17 -15 17 C-14.67 17.82 -14.34 18.65 -14 19.5 C-12.83 23.59 -12.85 26.77 -13 31 C-13.66 31.33 -14.32 31.66 -15 32 C-15.66 31.34 -16.32 30.68 -17 30 C-16.67 29.67 -16.34 29.34 -16 29 C-16.66 28.55 -17.32 28.09 -18 27.62 C-21.02 23.67 -20.33 19.81 -20 15 C-18.68 14.34 -17.36 13.68 -16 13 C-16.08 12.26 -16.17 11.53 -16.25 10.77 C-15.84 6.2 -12.83 4.44 -9.47 1.61 C-5.97 -0.67 -4.04 -0.69 0 0 Z " fill="#E2DDE1" transform="translate(80,13)"/>
<path d="M0 0 C1.14 0.09 2.29 0.18 3.47 0.27 C6.5 0.75 6.5 0.75 9.5 2.75 C9.07 5.84 8.54 8.8 7.5 11.75 C5 13.56 5 13.56 2.5 14.75 C1.19 16.94 1.19 16.94 0.5 18.75 C-6.25 18.88 -6.25 18.88 -8.5 17.75 C-8.5 16.43 -8.5 15.11 -8.5 13.75 C-9.16 13.75 -9.82 13.75 -10.5 13.75 C-10.34 13.05 -10.19 12.35 -10.03 11.63 C-9.83 10.72 -9.64 9.81 -9.44 8.88 C-9.34 8.42 -9.34 8.42 -8.84 6.13 C-8.5 3.75 -8.5 3.75 -9.5 1.75 C-5.82 -0.71 -4.34 -0.37 0 0 Z " fill="#F9EFE3" transform="translate(87.5,10.25)"/>
<path d="M0 0 C1.03 0.23 2.06 0.45 3.12 0.69 C6 2 6 2 7.94 5 C8.29 5.99 8.64 6.98 9 8 C8.67 8.66 8.34 9.32 8 10 C8.33 10.99 8.66 11.98 9 13 C8.67 13.5 8.67 13.5 7 16 C6.34 16 5.68 16 5 16 C4.67 14.68 4.34 13.36 4 12 C3.34 12 2.68 12 2 12 C2.33 14.31 2.66 16.62 3 19 C3.66 19 4.32 19 5 19 C5.33 20.65 5.66 22.3 6 24 C5.67 23.34 5.34 22.68 5 22 C4.44 22.16 3.89 22.33 3.31 22.5 C1 23 1 23 -1.5 22.69 C-2.32 22.79 -3.15 22.89 -4 23 C-6.31 26 -6.31 26 -8 29 C-9.32 28.34 -10.64 27.68 -12 27 C-11.59 24.1 -11.09 23.09 -8.94 21 C-7 19 -7 19 -7 15 C-6.01 15 -5.02 15 -4 15 C-4 15.66 -4 16.32 -4 17 C-3.34 17 -2.68 17 -2 17 C-2.33 15.35 -2.66 13.7 -3 12 C-2.34 12 -1.68 12 -1 12 C-2.37 8.84 -2.99 8.01 -6 6 C-6.19 3.38 -6.19 3.38 -6 1 C-6.66 0.67 -7.32 0.34 -8 0 C-4.59 -1.14 -3.41 -0.87 0 0 Z M-7 20 C-7 20.66 -7 21.32 -7 22 C-6.34 21.67 -5.68 21.34 -5 21 C-5.66 20.67 -6.32 20.34 -7 20 Z " fill="#FCF7EF" transform="translate(206,46)"/>
<path d="M0 0 C0.99 0 1.98 0 3 0 C3 0.66 3 1.32 3 2 C3.66 2 4.32 2 5 2 C5 1.34 5 0.68 5 0 C7.97 0.33 10.94 0.66 14 1 C14.33 2.98 14.66 4.96 15 7 C12 8 12 8 9 7 C8.34 8.98 7.68 10.96 7 13 C7.66 13.66 8.32 14.32 9 15 C8.62 18.12 8.62 18.12 8 21 C6.68 21 5.36 21 4 21 C4 19.35 4 17.7 4 16 C3.34 16 2.68 16 2 16 C1.94 15.18 1.88 14.36 1.82 13.52 C1.73 12.44 1.65 11.36 1.56 10.25 C1.48 9.18 1.4 8.12 1.32 7.02 C1.06 4.56 0.68 2.36 0 0 Z " fill="#CBCEDE" transform="translate(65,30)"/>
<path d="M0 0 C2.24 1.12 4.07 2.39 6 4 C6 4.66 6 5.32 6 6 C6.66 6 7.32 6 8 6 C8 7.32 8 8.64 8 10 C9.32 10 10.64 10 12 10 C12 9.01 12 8.02 12 7 C12.66 7 13.32 7 14 7 C15.71 8.96 17.38 10.96 19 13 C18.67 13.66 18.34 14.32 18 15 C17.34 15 16.68 15 16 15 C16 15.99 16 16.98 16 18 C15.46 17.67 14.93 17.34 14.38 17 C12 16 12 16 9.12 16.38 C6 16 6 16 4.39 14.26 C3.35 12.82 2.35 11.34 1.39 9.85 C0 8 0 8 -3 7 C-2.69 6.4 -2.38 5.8 -2.06 5.19 C-1 3 -1 3 0 0 Z " fill="#FCF5EB" transform="translate(121,53)"/>
<path d="M0 0 C3.5 0.75 3.5 0.75 6.5 2.75 C6.83 3.74 7.16 4.73 7.5 5.75 C9.06 7.44 9.06 7.44 10.5 8.75 C9.84 10.07 9.18 11.39 8.5 12.75 C7.84 12.75 7.18 12.75 6.5 12.75 C6.17 13.41 5.84 14.07 5.5 14.75 C3.18 14.53 3.18 14.53 0.5 13.75 C-1.08 11.75 -1.08 11.75 -2.31 9.31 C-2.73 8.51 -3.15 7.71 -3.58 6.88 C-4.5 4.75 -4.5 4.75 -4.5 2.75 C-5.16 2.42 -5.82 2.09 -6.5 1.75 C-3.5 -0.25 -3.5 -0.25 0 0 Z " fill="#F8F2ED" transform="translate(148.5,61.25)"/>
<path d="M0 0 C0.89 0.14 1.77 0.29 2.69 0.44 C2.73 0.82 2.73 0.82 2.94 2.75 C3.83 5.96 4.9 6.73 7.69 8.44 C7.36 11.08 7.03 13.72 6.69 16.44 C6.03 16.44 5.37 16.44 4.69 16.44 C4.69 15.78 4.69 15.12 4.69 14.44 C3.37 14.77 2.05 15.1 0.69 15.44 C0.36 13.13 0.03 10.82 -0.31 8.44 C-1.3 8.77 -2.29 9.1 -3.31 9.44 C-4.5 12 -4.5 12 -5.31 14.44 C-7.31 13.44 -7.31 13.44 -8.25 10.81 C-8.33 6.7 -7.35 4.96 -4.86 1.79 C-3.31 0.44 -3.31 0.44 0 0 Z " fill="#F7EDE4" transform="translate(197.3125,46.5625)"/>
<path d="M0 0 C2 1 2 1 3.06 3.81 C3.77 6.2 4.44 8.57 5 11 C6.65 10.67 8.3 10.34 10 10 C10.33 10.99 10.66 11.98 11 13 C13.31 13.33 15.62 13.66 18 14 C18 14.66 18 15.32 18 16 C20.31 16.16 20.31 16.16 32 17 C32 17.66 32 18.32 32 19 C30.08 18.86 28.17 18.71 26.25 18.56 C25.18 18.48 24.12 18.4 23.02 18.32 C20 18 20 18 18.03 17.5 C15.12 16.78 12.23 16.65 9.25 16.44 C8.08 16.35 6.91 16.27 5.7 16.18 C4.81 16.12 3.92 16.06 3 16 C3 15.34 3 14.68 3 14 C1.68 13.67 0.36 13.34 -1 13 C-0.98 12.07 -0.96 11.14 -0.94 10.19 C-1 7 -1 7 -2 4 C-1.06 1.81 -1.06 1.81 0 0 Z " fill="#E7E1E1" transform="translate(221,63)"/>
<path d="M0 0 C0.66 0 1.32 0 2 0 C2 1.32 2 2.64 2 4 C3.65 4 5.3 4 7 4 C7 3.34 7 2.68 7 2 C7.66 2 8.32 2 9 2 C8.67 5.63 8.34 9.26 8 13 C8.66 13.33 9.32 13.66 10 14 C9.67 15.32 9.34 16.64 9 18 C7.68 18.16 7.68 18.16 1 19 C1 18.34 1 17.68 1 17 C2.98 17 4.96 17 7 17 C7 16.01 7 15.02 7 14 C5.35 13.67 3.7 13.34 2 13 C1.96 12.69 1.96 12.69 1.75 11.12 C1 9 1 9 -1.06 7.75 C-1.7 7.5 -2.34 7.25 -3 7 C-3 6.34 -3 5.68 -3 5 C-2.01 5.33 -1.02 5.66 0 6 C0 6.66 0 7.32 0 8 C0.66 8 1.32 8 2 8 C1.67 7.01 1.34 6.02 1 5 C0.34 4.67 -0.32 4.34 -1 4 C-0.67 2.68 -0.34 1.36 0 0 Z " fill="#CECEDC" transform="translate(94,62)"/>
<path d="M0 0 C8.26 -0.32 8.26 -0.32 11 2 C11.75 5.12 11.75 5.12 12 8 C13.98 7.34 15.96 6.68 18 6 C18.33 6.99 18.66 7.98 19 9 C12.25 10.12 12.25 10.12 10 9 C10.02 9.97 10.04 10.94 10.06 11.94 C10 15 10 15 9 16 C7.33 16.04 5.67 16.04 4 16 C4.66 15.67 5.32 15.34 6 15 C6 12.03 6 9.06 6 6 C4.35 5.67 2.7 5.34 1 5 C0.67 3.35 0.34 1.7 0 0 Z " fill="#F2EBE7" transform="translate(176,65)"/>
<path d="M0 0 C3.1 0.01 6.01 0.16 9 1 C11.06 4.06 11.06 4.06 12 7 C11.69 7.04 11.69 7.04 10.12 7.25 C8 8 8 8 6.75 10.06 C6.5 10.7 6.25 11.34 6 12 C5.34 12 4.68 12 4 12 C3.32 10.76 2.66 9.5 2 8.25 C1.63 7.55 1.26 6.86 0.88 6.14 C0 4 0 4 0 0 Z " fill="#FBF5ED" transform="translate(222,62)"/>
<path d="M0 0 C0 0.66 0 1.32 0 2 C-0.99 2 -1.98 2 -3 2 C-3 3.26 -3 4.52 -3 5.81 C-3 8.21 -3 10.6 -3 13 C-3.66 13 -4.32 13 -5 13 C-5.33 13.66 -5.66 14.32 -6 15 C-6 14.34 -6 13.68 -6 13 C-7.32 13 -8.64 13 -10 13 C-10 12.34 -10 11.68 -10 11 C-9.34 11 -8.68 11 -8 11 C-8 10.34 -8 9.68 -8 9 C-8.66 9 -9.32 9 -10 9 C-10 7.35 -10 5.7 -10 4 C-9.01 3.67 -8.02 3.34 -7 3 C-6.67 2.34 -6.34 1.68 -6 1 C-3 0 -3 0 0 0 Z " fill="#F8EEE3" transform="translate(117,27)"/>
<path d="M0 0 C0.99 0 1.98 0 3 0 C3 0.99 3 1.98 3 3 C4.98 3 6.96 3 9 3 C10.46 5.65 11 6.89 11 10 C6.53 10.21 3.18 9.59 -1 8 C-0.67 5.36 -0.34 2.72 0 0 Z " fill="#D4D9E6" transform="translate(24,63)"/>
<path d="M0 0 C2.75 0.81 2.75 0.81 5 2 C5 2.66 5 3.32 5 4 C5.66 4.33 6.32 4.66 7 5 C6.67 5.33 6.34 5.66 6 6 C7.32 6.66 8.64 7.32 10 8 C10 8.66 10 9.32 10 10 C7.94 10.81 7.94 10.81 5 11 C2.4 9.66 0.1 8.05 -2 6 C-2 5.34 -2 4.68 -2 4 C-2.66 3.67 -3.32 3.34 -4 3 C-2.31 1.38 -2.31 1.38 0 0 Z " fill="#EDEAEB" transform="translate(34,58)"/>
<path d="M0 0 C-0.58 2.39 -1.22 4.67 -2 7 C-5.63 7.33 -9.26 7.66 -13 8 C-13 6.68 -13 5.36 -13 4 C-12.01 3.67 -11.02 3.34 -10 3 C-9.67 2.34 -9.34 1.68 -9 1 C-9 1.66 -9 2.32 -9 3 C-8.34 3 -7.68 3 -7 3 C-7 2.34 -7 1.68 -7 1 C-3.38 -1.12 -3.38 -1.12 0 0 Z " fill="#E7E3E6" transform="translate(181,74)"/>
<path d="M0 0 C7.59 -0.26 14.57 0.39 22 2 C22 2.33 22 2.66 22 3 C19.69 3 17.38 3 15 3 C15 3.66 15 4.32 15 5 C8.25 4.12 8.25 4.12 6 3 C5.67 3.66 5.34 4.32 5 5 C1.37 5 -2.26 5 -6 5 C-6 4.67 -6 4.34 -6 4 C-3.36 3.67 -0.72 3.34 2 3 C1.34 2.67 0.68 2.34 0 2 C0 1.34 0 0.68 0 0 Z " fill="#EEEAEB" transform="translate(226,79)"/>
<path d="M0 0 C1.14 0.09 2.29 0.18 3.47 0.27 C6.5 0.75 6.5 0.75 9.5 2.75 C9.5 3.41 9.5 4.07 9.5 4.75 C8.84 4.75 8.18 4.75 7.5 4.75 C7.5 4.09 7.5 3.43 7.5 2.75 C-1.41 3.51 -1.41 3.51 -5.5 6.75 C-6.81 8.94 -6.81 8.94 -7.5 10.75 C-8.16 10.42 -8.82 10.09 -9.5 9.75 C-9.31 8.8 -9.13 7.85 -8.94 6.88 C-8.5 3.75 -8.5 3.75 -9.5 1.75 C-5.82 -0.71 -4.34 -0.37 0 0 Z " fill="#F0E7E0" transform="translate(87.5,10.25)"/>
<path d="M0 0 C4.14 0.27 7.08 0.97 10 4 C10 5.32 10 6.64 10 8 C9.34 8 8.68 8 8 8 C7.67 7.01 7.34 6.02 7 5 C6.34 4.67 5.68 4.34 5 4 C4.67 5.32 4.34 6.64 4 8 C1.69 7.67 -0.62 7.34 -3 7 C-2.25 2.25 -2.25 2.25 0 0 Z " fill="#E6DCD7" transform="translate(83,30)"/>
</svg>
