<?xml version="1.0" encoding="UTF-8"?>
<!-- Generator: visioncortex VTracer 0.6.12 -->
<svg version="1.1" xmlns="http://www.w3.org/2000/svg" width="170" height="68">
<path d="M0 0 C9.05 -0.05 18.08 0.08 27.12 0.38 C28.31 0.41 29.49 0.44 30.71 0.47 C37.14 0.68 43.26 1.24 49.56 2.51 C54.05 3.41 58.59 3.93 63.13 4.54 C66 5 66 5 68 6 C68 6.66 68 7.32 68 8 C65.69 8.66 63.38 9.32 61 10 C62.02 10.12 63.05 10.24 64.11 10.37 C65.47 10.54 66.83 10.71 68.19 10.88 C68.52 10.91 68.52 10.91 70.23 11.11 C74.1 11.6 77.45 12.36 81 14 C81 14.66 81 15.32 81 16 C83.31 16.33 85.62 16.66 88 17 C87.34 17.33 86.68 17.66 86 18 C86 19.32 86 20.64 86 22 C85.63 22.14 85.63 22.14 83.75 22.88 C81.43 23.82 79.22 24.85 77 26 C77 26.99 77 27.98 77 29 C69.74 29.99 62.48 30.98 55 32 C55.33 32.66 55.33 32.66 57 36 C56.34 36 55.68 36 55 36 C55 36.66 55 37.32 55 38 C57.64 38.33 60.28 38.66 63 39 C62.67 39.99 62.34 40.98 62 42 C54.52 43.78 47.01 45.07 39.38 43.44 C35.79 42.78 32.6 43.45 29 44 C30.65 44.66 32.3 45.32 34 46 C34 46.66 34 47.32 34 48 C27.96 48.69 22.08 49.11 16 49 C16.33 48.67 16.33 48.67 18 47 C19.32 47 20.64 47 22 47 C22.33 45.35 22.66 43.7 23 42 C22.67 42 22.34 42 22 42 C21.79 42.62 21.59 43.24 21.38 43.88 C20 46 20 46 17.56 47.31 C12.59 48.27 7.99 47.66 3 47 C2.84 47.33 2.84 47.33 2 49 C-8.56 48.41 -8.56 48.41 -13 45 C-12.84 44.67 -12.84 44.67 -12 43 C-9.94 42.38 -9.94 42.38 -8 42 C-8.66 41.87 -9.33 41.73 -10.01 41.6 C-18 40 -18 40 -20.59 39.44 C-23.75 38.86 -26.8 38.94 -30 39 C-30 39.66 -30 40.32 -30 41 C-33.63 40.01 -37.26 39.02 -41 38 C-41 37.67 -41 37.34 -41 37 C-40.17 36.84 -40.17 36.84 -36 36 C-36.16 35.17 -36.16 35.17 -37 31 C-36.01 30.34 -35.02 29.68 -34 29 C-34.64 28.95 -35.28 28.9 -35.93 28.85 C-36.76 28.78 -37.59 28.7 -38.44 28.62 C-39.26 28.56 -40.08 28.49 -40.93 28.41 C-41.62 28.28 -42.3 28.14 -43 28 C-43.33 27.34 -43.66 26.68 -44 26 C-45.66 25.65 -47.33 25.32 -49 25 C-51.7 24.07 -54.34 23.04 -57 22 C-56.67 20.02 -56.34 18.04 -56 16 C-54.35 15.67 -52.7 15.34 -51 15 C-51 14.01 -51 13.02 -51 12 C-46.05 11.34 -41.1 10.68 -36 10 C-36.83 9.84 -36.83 9.84 -41 9 C-41 8.01 -41 7.02 -41 6 C-27.55 3.32 -14.73 1.34 -1 2 C-0.67 1.34 -0.34 0.68 0 0 Z M-29 9 C-25 10 -25 10 -25 10 Z M-39 15 C-39.33 15.66 -39.66 16.32 -40 17 C-39.34 17 -38.68 17 -38 17 C-38.33 16.34 -38.66 15.68 -39 15 Z M72 15 C72.33 15.66 72.66 16.32 73 17 C73.66 16.67 74.32 16.34 75 16 C74.01 15.67 73.02 15.34 72 15 Z M-41 17 C-40 19 -40 19 -40 19 Z M-27 24 C-27 24.33 -27 24.66 -27 25 C-25.02 25 -23.04 25 -21 25 C-21 24.67 -21 24.34 -21 24 C-22.98 24 -24.96 24 -27 24 Z M65 24 C69 25 69 25 69 25 Z M47 28 C46.67 28.66 46.34 29.32 46 30 C46.99 30.33 47.98 30.66 49 31 C49 30.01 49 29.02 49 28 C48.34 28 47.68 28 47 28 Z M-8 33 C-7.67 33.66 -7.34 34.32 -7 35 C-6.01 34.67 -5.02 34.34 -4 34 C-5.32 33.67 -6.64 33.34 -8 33 Z M53 34 C51.97 35.65 50.97 37.32 50 39 C51.32 39 52.64 39 54 39 C54 37.35 54 35.7 54 34 C53.67 34 53.34 34 53 34 Z M0 36 C0 36.33 0 36.66 0 37 C1.65 37 3.3 37 5 37 C5 36.67 5 36.34 5 36 C3.35 36 1.7 36 0 36 Z " fill="#CEDCE9" transform="translate(72,10)"/>
<path d="M0 0 C1.18 -0 2.37 -0.01 3.59 -0.01 C4.72 -0.01 5.85 -0.01 7.02 -0.01 C8.04 -0.01 9.07 -0.01 10.13 -0 C12.75 0.12 12.75 0.12 15.75 1.12 C15.75 1.79 15.75 2.45 15.75 3.12 C18.06 3.12 20.37 3.12 22.75 3.12 C22.75 3.79 22.75 4.45 22.75 5.12 C26.05 5.12 29.35 5.12 32.75 5.12 C32.75 5.79 32.75 6.45 32.75 7.12 C33.28 7.11 33.28 7.11 35.94 7.06 C39.08 7.11 41.72 7.39 44.75 8.12 C44.42 8.79 44.09 9.45 43.75 10.12 C41.68 10.54 41.68 10.54 39.19 10.75 C38.36 10.82 37.53 10.9 36.68 10.98 C36.36 11 36.36 11 34.75 11.12 C34.75 11.79 34.75 12.45 34.75 13.12 C35.28 12.8 35.81 12.47 36.36 12.13 C39.38 10.86 41.74 10.93 45 11 C46.08 11.02 47.16 11.04 48.27 11.05 C48.68 11.07 48.68 11.07 50.75 11.12 C50.91 11.62 50.91 11.62 51.75 14.12 C51.42 14.79 51.09 15.45 50.75 16.12 C50.09 16.12 49.43 16.12 48.75 16.12 C48.75 17.11 48.75 18.11 48.75 19.12 C48.09 19.12 47.43 19.12 46.75 19.12 C46.75 20.11 46.75 21.11 46.75 22.12 C41.81 23.7 37.79 22.45 32.94 21.19 C32.15 20.99 31.36 20.8 30.55 20.6 C28.61 20.11 26.68 19.62 24.75 19.12 C25.75 21.12 25.75 21.12 27.6 21.76 C28.33 21.92 29.06 22.08 29.81 22.25 C30.55 22.42 31.28 22.59 32.04 22.76 C32.6 22.88 33.17 23 33.75 23.12 C33.79 24.79 33.79 26.46 33.75 28.12 C31.64 30.23 27.6 30.1 24.77 30.58 C22.95 30.91 21.15 31.28 19.36 31.73 C8.72 34.41 -2.46 32.61 -13.12 30.75 C-13.81 30.64 -14.49 30.52 -15.2 30.41 C-17.12 30.04 -17.12 30.04 -20.25 29.12 C-20.91 28.14 -21.57 27.14 -22.25 26.12 C-21.92 25.14 -21.59 24.14 -21.25 23.12 C-20.59 22.8 -19.93 22.47 -19.25 22.12 C-21.73 21.8 -21.73 21.8 -34.25 20.12 C-34.25 19.47 -34.25 18.8 -34.25 18.12 C-35.36 18.15 -36.48 18.17 -37.62 18.19 C-41.25 18.12 -41.25 18.12 -43.25 17.12 C-41.61 13.46 -39.9 10.95 -36.25 9.12 C-33.81 9.1 -31.38 9.12 -28.94 9.19 C-20.47 9.39 -20.47 9.39 -16.25 7.12 C-15.92 6.46 -15.59 5.8 -15.25 5.12 C-15.88 5.21 -16.5 5.29 -17.15 5.38 C-17.56 5.43 -17.56 5.43 -19.62 5.69 C-20.44 5.79 -21.25 5.9 -22.09 6 C-24.25 6.12 -24.25 6.12 -26.25 5.12 C-26.25 4.46 -26.25 3.8 -26.25 3.12 C-17.5 -0.08 -9.22 -0.03 0 0 Z " fill="#ADC8DE" transform="translate(76.25,12.875)"/>
<path d="M0 0 C2.31 0 4.62 0 7 0 C7 0.66 7 1.32 7 2 C7.53 1.99 7.53 1.99 10.19 1.94 C13.33 1.99 15.97 2.27 19 3 C18.67 3.66 18.34 4.32 18 5 C15.93 5.41 15.93 5.41 13.44 5.62 C12.61 5.7 11.78 5.77 10.93 5.85 C10.61 5.88 10.61 5.88 9 6 C9 6.66 9 7.32 9 8 C9.53 7.67 10.06 7.35 10.61 7.01 C13.63 5.74 15.99 5.8 19.25 5.88 C20.33 5.89 21.41 5.91 22.52 5.93 C22.93 5.94 22.93 5.94 25 6 C25.16 6.5 25.16 6.5 26 9 C25.67 9.66 25.34 10.32 25 11 C24.34 11 23.68 11 23 11 C23 11.99 23 12.98 23 14 C22.34 14 21.68 14 21 14 C21 14.99 21 15.98 21 17 C16.06 18.58 12.04 17.32 7.19 16.06 C6.4 15.87 5.61 15.67 4.8 15.47 C2.86 14.99 0.93 14.5 -1 14 C0 16 0 16 1.85 16.63 C2.58 16.8 3.31 16.96 4.06 17.12 C4.8 17.29 5.53 17.46 6.29 17.63 C6.85 17.75 7.42 17.88 8 18 C8 19.65 8 21.3 8 23 C7.01 22.67 6.02 22.34 5 22 C5.66 22 6.32 22 7 22 C6.84 21.67 6.84 21.67 6 20 C0.7 19.82 -2.98 20.18 -8 22 C-10.33 22.38 -12.66 22.72 -15 23 C-15 23.66 -15 24.32 -15 25 C-17.31 25.62 -17.31 25.62 -20 26 C-20.99 25.34 -21.98 24.68 -23 24 C-23 23.34 -23 22.68 -23 22 C-23.33 22.66 -23.66 23.32 -24 24 C-25.32 23.34 -26.64 22.68 -28 22 C-27.34 22 -26.68 22 -26 22 C-26 21.01 -26 20.02 -26 19 C-31.28 18.67 -36.56 18.34 -42 18 C-42 17.34 -42 16.68 -42 16 C-41.68 15.98 -41.68 15.98 -40.05 15.85 C-34.76 15.41 -29.55 14.8 -24.31 13.94 C-19.45 13.15 -14.92 12.81 -10 13 C-11.32 12.34 -12.64 11.68 -14 11 C-14 10.67 -14 10.34 -14 10 C-12.02 10 -10.04 10 -8 10 C-8 9.34 -8 8.68 -8 8 C-9.32 8 -10.64 8 -12 8 C-12 7.34 -12 6.68 -12 6 C-12.99 5.67 -13.98 5.34 -15 5 C-15 4.67 -15 4.34 -15 4 C-13.42 3.61 -11.84 3.24 -10.25 2.88 C-9.37 2.67 -8.49 2.46 -7.58 2.24 C-4.67 1.97 -3.43 2.46 -1 4 C-0.67 2.68 -0.34 1.36 0 0 Z " fill="#9DBCD8" transform="translate(102,18)"/>
<path d="M0 0 C0 0.33 0 0.66 0 1 C-3.47 1.5 -3.47 1.5 -21 4 C-21 4.66 -21 5.32 -21 6 C-17.37 6 -13.74 6 -10 6 C-11 9 -11 9 -13.09 10.18 C-16.69 11.19 -19.82 11.16 -23.56 11.06 C-32.09 10.87 -32.09 10.87 -35 12 C-36.19 13.94 -36.19 13.94 -37 16 C-37.33 16.66 -37.66 17.32 -38 18 C-35.03 18.33 -32.06 18.66 -29 19 C-29 19.99 -29 20.98 -29 22 C-28.07 21.81 -27.14 21.63 -26.19 21.44 C-23 21 -23 21 -20 22 C-18.61 22.07 -17.21 22.09 -15.81 22.06 C-14.55 22.04 -13.3 22.02 -12 22 C-12.66 22.33 -12.66 22.33 -16 24 C-15.84 24.83 -15.84 24.83 -15 29 C-14.01 29.33 -13.02 29.66 -12 30 C-10 30.67 -8 31.33 -6 32 C-6 32.33 -6 32.66 -6 33 C-7.6 32.89 -9.21 32.76 -10.81 32.62 C-11.71 32.56 -12.6 32.49 -13.52 32.41 C-16 32 -16 32 -19 30 C-19.19 26.88 -19.19 26.88 -19 24 C-20.32 24.33 -21.64 24.66 -23 25 C-23 25.66 -23 26.32 -23 27 C-23.33 27.16 -23.33 27.16 -25 28 C-25.08 31.04 -24.98 33.07 -24 36 C-24.83 36.16 -24.83 36.16 -29 37 C-29 37.66 -29 38.32 -29 39 C-32.63 38.01 -36.26 37.02 -40 36 C-40 35.67 -40 35.34 -40 35 C-39.17 34.84 -39.17 34.84 -35 34 C-35.16 33.17 -35.16 33.17 -36 29 C-35.01 28.34 -34.02 27.68 -33 27 C-33.64 26.95 -34.28 26.9 -34.93 26.85 C-35.76 26.78 -36.59 26.7 -37.44 26.62 C-38.26 26.56 -39.08 26.49 -39.93 26.41 C-40.62 26.28 -41.3 26.14 -42 26 C-42.33 25.34 -42.66 24.68 -43 24 C-44.66 23.65 -46.33 23.32 -48 23 C-50.7 22.07 -53.34 21.04 -56 20 C-55.67 18.02 -55.34 16.04 -55 14 C-53.35 13.67 -51.7 13.34 -50 13 C-50 12.01 -50 11.02 -50 10 C-45.05 9.34 -40.1 8.68 -35 8 C-35.83 7.84 -35.83 7.84 -40 7 C-40 6.01 -40 5.02 -40 4 C-26.55 1.32 -13.73 -0.66 0 0 Z M-28 7 C-24 8 -24 8 -24 8 Z M-38 13 C-38.33 13.66 -38.66 14.32 -39 15 C-38.34 15 -37.68 15 -37 15 C-37.33 14.34 -37.66 13.68 -38 13 Z M-40 15 C-39 17 -39 17 -39 17 Z " fill="#DAE2EB" transform="translate(71,12)"/>
<path d="M0 0 C9.05 -0.05 18.08 0.08 27.12 0.38 C28.31 0.41 29.49 0.44 30.71 0.47 C37.14 0.68 43.26 1.24 49.56 2.51 C54.05 3.41 58.59 3.93 63.13 4.54 C66 5 66 5 68 6 C68 6.66 68 7.32 68 8 C65.69 8.66 63.38 9.32 61 10 C63.64 10.33 66.28 10.66 69 11 C68.67 11.99 68.34 12.98 68 14 C69.98 14.99 71.96 15.98 74 17 C73.67 18.32 73.34 19.64 73 21 C69.04 21 65.08 21 61 21 C61 21.66 61 22.32 61 23 C61.66 23.33 62.32 23.66 63 24 C61.42 24.37 59.84 24.72 58.25 25.06 C57.37 25.26 56.49 25.46 55.58 25.66 C53.01 26 51.43 25.81 49 25 C49.66 25 50.32 25 51 25 C51 24.01 51 23.02 51 22 C51.66 22 52.32 22 53 22 C53 21.01 53 20.02 53 19 C53.66 19 54.32 19 55 19 C55 17.68 55 16.36 55 15 C53.08 14.97 51.17 14.95 49.25 14.94 C48.18 14.93 47.12 14.91 46.02 14.9 C43.47 14.98 41.42 15.25 39 16 C39 15.34 39 14.68 39 14 C42.46 11.95 43.59 12 48 12 C44.37 11.34 40.74 10.68 37 10 C37 9.34 37 8.68 37 8 C33.7 8 30.4 8 27 8 C27 7.34 27 6.68 27 6 C24.69 6 22.38 6 20 6 C20 5.34 20 4.68 20 4 C18.98 4.01 17.95 4.02 16.89 4.04 C15.53 4.04 14.17 4.05 12.81 4.06 C12.14 4.07 11.47 4.08 10.77 4.09 C7.05 4.11 3.62 3.89 0 3 C0 2.01 0 1.02 0 0 Z " fill="#ABC5DC" transform="translate(72,10)"/>
<path d="M0 0 C2.94 1 2.94 1 5 2 C5 2.66 5 3.32 5 4 C7.31 4.33 9.62 4.66 12 5 C11.34 5.33 10.68 5.66 10 6 C10 7.32 10 8.64 10 10 C9.26 10.29 8.51 10.58 7.75 10.88 C5.43 11.82 3.22 12.85 1 14 C1 14.99 1 15.98 1 17 C-6.26 17.99 -13.52 18.98 -21 20 C-20.34 21.32 -19.68 22.64 -19 24 C-19.66 24 -20.32 24 -21 24 C-21 24.66 -21 25.32 -21 26 C-18.36 26.33 -15.72 26.66 -13 27 C-13.16 27.49 -13.16 27.49 -14 30 C-20.47 31.54 -27.35 33.13 -34 32 C-34.99 31.01 -35.98 30.02 -37 29 C-33.7 28.01 -30.4 27.02 -27 26 C-27 25.01 -27 24.02 -27 23 C-26.01 23 -25.02 23 -24 23 C-24.5 22.59 -24.99 22.17 -25.5 21.75 C-27 20 -27 20 -27 16 C-27.66 16.33 -28.32 16.66 -29 17 C-28.67 17.66 -28.34 18.32 -28 19 C-31.3 19 -34.6 19 -38 19 C-38 17.35 -38 15.7 -38 14 C-40.64 13.67 -43.28 13.34 -46 13 C-46.33 12.01 -46.66 11.02 -47 10 C-44.92 10.31 -42.83 10.62 -40.75 10.94 C-39.59 11.11 -38.43 11.29 -37.23 11.46 C-34 12 -34 12 -32.06 12.59 C-28.79 13.24 -25.55 12.83 -22.25 12.56 C-21.55 12.51 -20.86 12.46 -20.14 12.4 C-18.42 12.28 -16.71 12.14 -15 12 C-15 11.01 -15 10.02 -15 9 C-13.56 8.83 -12.13 8.67 -10.69 8.5 C-9.89 8.41 -9.09 8.31 -8.26 8.22 C-6 8 -6 8 -3 8 C-2.67 6.68 -2.34 5.36 -2 4 C-2.97 3.88 -3.94 3.75 -4.94 3.62 C-5.95 3.42 -6.96 3.21 -8 3 C-8.16 2.67 -8.16 2.67 -9 1 C-5.97 -0.52 -3.35 -0.17 0 0 Z M-11 12 C-7 13 -7 13 -7 13 Z M-23 22 C-24.03 23.65 -25.03 25.32 -26 27 C-24.68 27 -23.36 27 -22 27 C-22 25.35 -22 23.7 -22 22 C-22.33 22 -22.66 22 -23 22 Z " fill="#D4DEE8" transform="translate(148,22)"/>
<path d="M0 0 C0.34 0 0.34 0 2.09 0.03 C3.77 0.05 5.45 0.09 7.12 0.12 C7.12 0.79 7.12 1.45 7.12 2.12 C4.48 2.45 1.84 2.79 -0.88 3.12 C-0.88 3.79 -0.88 4.45 -0.88 5.12 C1.1 5.79 3.09 6.45 5.12 7.12 C5.12 8.12 5.12 9.11 5.12 10.12 C4.05 10.27 2.98 10.41 1.88 10.56 C-1.88 11.12 -1.88 11.12 -3.77 11.69 C-7.29 12.41 -10.68 11.71 -14.22 11.28 C-16.73 11.13 -18.5 11.36 -20.88 12.12 C-20.88 13.12 -20.88 14.11 -20.88 15.12 C-22.88 17.12 -22.88 17.12 -25.48 17.32 C-26.47 17.3 -27.47 17.27 -28.5 17.25 C-29 17.24 -29 17.24 -31.54 17.2 C-32.31 17.17 -33.08 17.15 -33.88 17.12 C-33.88 16.47 -33.88 15.8 -33.88 15.12 C-34.99 15.15 -36.1 15.17 -37.25 15.19 C-40.88 15.12 -40.88 15.12 -42.88 14.12 C-41.23 10.46 -39.52 7.95 -35.88 6.12 C-32.17 6.09 -28.47 6.19 -24.77 6.29 C-20.7 6.12 -17.71 5.39 -13.88 4.12 C-13.88 3.46 -13.88 2.8 -13.88 2.12 C-9.17 0.26 -5 -0.13 0 0 Z " fill="#99BAD6" transform="translate(75.875,15.875)"/>
<path d="M0 0 C2.45 0.86 4.13 2.11 6.12 3.75 C4.14 3.75 2.16 3.75 0.12 3.75 C0.12 4.41 0.12 5.07 0.12 5.75 C1.11 5.74 2.1 5.73 3.12 5.71 C4.4 5.71 5.68 5.7 7 5.69 C8.28 5.68 9.55 5.66 10.87 5.65 C14.12 5.75 14.12 5.75 16.12 6.75 C16.12 8.07 16.12 9.39 16.12 10.75 C16.78 11.08 17.44 11.41 18.12 11.75 C18.45 10.76 18.78 9.77 19.12 8.75 C19.45 9.74 19.78 10.73 20.12 11.75 C22.44 12.08 24.75 12.41 27.12 12.75 C27.12 12.09 27.12 11.43 27.12 10.75 C27.98 10.55 28.83 10.34 29.71 10.13 C30.82 9.86 31.92 9.59 33.06 9.31 C34.16 9.05 35.27 8.78 36.4 8.5 C39.12 7.75 39.12 7.75 40.12 6.75 C42.8 6.61 45.45 6.71 48.12 6.75 C48.29 7.58 48.29 7.58 49.12 11.75 C48.79 11.81 48.79 11.81 47.07 12.12 C46.14 12.28 45.21 12.45 44.25 12.62 C43.24 12.8 42.22 12.98 41.18 13.17 C39.35 13.52 37.53 13.9 35.73 14.36 C25.08 17.03 13.91 15.23 3.25 13.38 C2.57 13.26 1.88 13.15 1.18 13.03 C-0.74 12.66 -0.74 12.66 -3.88 11.75 C-4.53 10.76 -5.2 9.77 -5.88 8.75 C-5.55 7.76 -5.22 6.77 -4.88 5.75 C-4.22 5.42 -3.55 5.09 -2.88 4.75 C-3.2 3.43 -3.53 2.11 -3.88 0.75 C-1.88 -0.25 -1.88 -0.25 0 0 Z " fill="#A9C5DE" transform="translate(59.875,30.25)"/>
<path d="M0 0 C0 0.33 0 0.66 0 1 C-3.47 1.5 -3.47 1.5 -21 4 C-21 4.66 -21 5.32 -21 6 C-17.37 6 -13.74 6 -10 6 C-11 9 -11 9 -13.09 10.18 C-16.69 11.19 -19.82 11.16 -23.56 11.06 C-32.37 10.86 -32.37 10.86 -35 12 C-35.33 12.99 -35.66 13.98 -36 15 C-36.99 15 -37.98 15 -39 15 C-39.33 15.5 -39.33 15.5 -41 18 C-40.36 18.19 -39.72 18.39 -39.07 18.59 C-38.24 18.85 -37.41 19.11 -36.56 19.38 C-36.15 19.5 -36.15 19.5 -34.07 20.15 C-32 21 -32 21 -31 23 C-35.79 24.01 -38.68 24.58 -43 22.06 C-43.99 21.38 -44.98 20.7 -46 20 C-46 19.34 -46 18.68 -46 18 C-45.01 18 -44.02 18 -43 18 C-43 15.36 -43 12.72 -43 10 C-40.36 10 -37.72 10 -35 10 C-35.33 9.01 -35.66 8.02 -36 7 C-37.32 7 -38.64 7 -40 7 C-40 6.01 -40 5.02 -40 4 C-26.55 1.32 -13.73 -0.66 0 0 Z M-28 7 C-24 8 -24 8 -24 8 Z " fill="#CCD9E7" transform="translate(71,12)"/>
<path d="M0 0 C-0.33 1.65 -0.66 3.3 -1 5 C-0.01 5.16 -0.01 5.16 5 6 C5 5.67 5 5.34 5 5 C4.17 4.84 4.17 4.84 0 4 C0.33 3.34 0.66 2.68 1 2 C7.57 1.63 12.79 2.86 19 5 C19 6.65 19 8.3 19 10 C18.01 9.67 17.02 9.34 16 9 C16.66 9 17.32 9 18 9 C17.84 8.67 17.84 8.67 17 7 C11.7 6.82 8.02 7.18 3 9 C0.67 9.38 -1.66 9.72 -4 10 C-4 10.66 -4 11.32 -4 12 C-6.31 12.62 -6.31 12.62 -9 13 C-9.99 12.34 -10.98 11.68 -12 11 C-12 10.34 -12 9.68 -12 9 C-12.33 9.66 -12.66 10.32 -13 11 C-14.32 10.34 -15.64 9.68 -17 9 C-16.34 9 -15.68 9 -15 9 C-15 8.01 -15 7.02 -15 6 C-20.28 5.67 -25.56 5.34 -31 5 C-31 4.34 -31 3.68 -31 3 C-30.36 2.95 -29.71 2.9 -29.05 2.85 C-23.74 2.41 -18.51 1.8 -13.25 0.94 C-8.75 0.21 -4.55 -0.21 0 0 Z " fill="#89AFD2" transform="translate(91,31)"/>
<path d="M0 0 C1.18 -0 2.37 -0.01 3.59 -0.01 C4.72 -0.01 5.85 -0.01 7.02 -0.01 C8.04 -0.01 9.07 -0.01 10.13 -0 C12.75 0.12 12.75 0.12 15.75 1.12 C15.75 1.79 15.75 2.45 15.75 3.12 C18.06 3.12 20.37 3.12 22.75 3.12 C22.75 3.79 22.75 4.45 22.75 5.12 C23.74 5.45 24.73 5.79 25.75 6.12 C23.43 6.9 22.03 7.19 19.62 6.62 C15.28 5.87 11.1 6.58 6.75 7.12 C6.75 7.45 6.75 7.79 6.75 8.12 C4.11 8.12 1.47 8.12 -1.25 8.12 C-1.25 7.46 -1.25 6.8 -1.25 6.12 C-3.23 6.12 -5.21 6.12 -7.25 6.12 C-7.25 5.8 -7.25 5.46 -7.25 5.12 C-2.63 5.12 1.99 5.12 6.75 5.12 C6.75 4.46 6.75 3.8 6.75 3.12 C4.37 3.27 2 3.41 -0.38 3.56 C-0.71 3.58 -0.71 3.58 -2.39 3.68 C-6.4 3.94 -10.33 4.23 -14.25 5.12 C-14.58 5.79 -14.91 6.45 -15.25 7.12 C-15.25 6.46 -15.25 5.8 -15.25 5.12 C-15.88 5.21 -16.5 5.29 -17.15 5.38 C-17.97 5.48 -18.78 5.58 -19.62 5.69 C-20.44 5.79 -21.25 5.9 -22.09 6 C-24.25 6.12 -24.25 6.12 -26.25 5.12 C-26.25 4.46 -26.25 3.8 -26.25 3.12 C-17.5 -0.08 -9.22 -0.03 0 0 Z " fill="#ADC7DE" transform="translate(76.25,12.875)"/>
<path d="M0 0 C9.05 -0.05 18.08 0.08 27.12 0.38 C28.31 0.41 29.49 0.44 30.71 0.47 C37.14 0.68 43.26 1.24 49.56 2.51 C54.05 3.41 58.59 3.93 63.13 4.54 C66 5 66 5 68 6 C68 6.66 68 7.32 68 8 C65.69 8.66 63.38 9.32 61 10 C63.64 10.33 66.28 10.66 69 11 C69 11.33 69 11.66 69 12 C62.05 12.27 55.76 11.61 49 10 C49 9.67 49 9.34 49 9 C51.64 9 54.28 9 57 9 C56.84 8.67 56.84 8.67 56 7 C55.2 7.02 54.39 7.04 53.56 7.06 C51 7 51 7 50 6 C48.49 5.77 46.96 5.59 45.44 5.44 C44.61 5.35 43.78 5.27 42.93 5.18 C42.3 5.12 41.66 5.06 41 5 C41 4.67 41 4.34 41 4 C39.02 4 37.04 4 35 4 C35 3.34 35 2.68 35 2 C33.35 2 31.7 2 30 2 C30 2.66 30 3.32 30 4 C25.94 4.03 21.88 4.05 17.81 4.06 C17.24 4.07 17.24 4.07 14.33 4.09 C13.21 4.09 12.1 4.09 10.96 4.1 C9.94 4.1 8.91 4.11 7.86 4.11 C5.13 4.01 2.66 3.62 0 3 C0 2.01 0 1.02 0 0 Z " fill="#DDE6EE" transform="translate(72,10)"/>
<path d="M0 0 C2.94 1 2.94 1 5 2 C5 2.66 5 3.32 5 4 C7.31 4.33 9.62 4.66 12 5 C11.67 5.16 11.67 5.16 10 6 C10 7.32 10 8.64 10 10 C9.26 10.29 8.51 10.58 7.75 10.88 C5.43 11.82 3.22 12.85 1 14 C1 14.99 1 15.98 1 17 C-0.32 17 -1.64 17 -3 17 C-3 16.34 -3 15.68 -3 15 C-5.64 14.67 -8.28 14.34 -11 14 C-9.03 11.88 -7.46 10.21 -4.81 9 C-3 8 -3 8 -2.25 5.88 C-2.17 5.26 -2.09 4.64 -2 4 C-2.48 3.94 -2.48 3.94 -4.94 3.62 C-5.95 3.42 -6.96 3.21 -8 3 C-8.33 2.34 -8.66 1.68 -9 1 C-5.97 -0.52 -3.35 -0.17 0 0 Z " fill="#E0E7ED" transform="translate(148,22)"/>
<path d="M0 0 C0.4 0.02 0.4 0.02 2.39 0.14 C3.21 0.2 4.03 0.26 4.87 0.32 C5.69 0.37 6.51 0.42 7.36 0.47 C13.45 0.86 13.45 0.86 15.74 2.01 C15.74 3 15.74 3.99 15.74 5.01 C17.56 5.18 17.56 5.18 26.74 6.01 C26.41 7 26.08 7.99 25.74 9.01 C21.78 9.01 17.82 9.01 13.74 9.01 C13.74 9.67 13.74 10.33 13.74 11.01 C14.4 11.34 15.06 11.67 15.74 12.01 C14.16 12.38 12.58 12.73 10.99 13.07 C10.11 13.27 9.23 13.47 8.32 13.67 C5.76 14.01 4.17 13.82 1.74 13.01 C2.4 13.01 3.06 13.01 3.74 13.01 C3.74 12.02 3.74 11.03 3.74 10.01 C4.4 10.01 5.06 10.01 5.74 10.01 C5.74 9.02 5.74 8.03 5.74 7.01 C6.4 7.01 7.06 7.01 7.74 7.01 C7.74 5.69 7.74 4.37 7.74 3.01 C5.83 2.98 3.91 2.97 1.99 2.95 C0.92 2.94 -0.14 2.93 -1.24 2.91 C-3.79 3 -5.84 3.27 -8.26 4.01 C-8.26 3.35 -8.26 2.69 -8.26 2.01 C-5.32 0.32 -3.38 -0.22 0 0 Z " fill="#A9C4DD" transform="translate(119.2578125,21.98828125)"/>
<path d="M0 0 C2.97 0 5.94 0 9 0 C9 1.98 9 3.96 9 6 C9.39 6.1 9.39 6.1 11.38 6.59 C12.43 6.85 13.48 7.11 14.56 7.38 C15.11 7.51 15.11 7.51 17.9 8.2 C20.18 8.79 22.44 9.46 24.69 10.19 C28.28 11.07 31.32 11.08 34.98 10.88 C37 11 37 11 40 13 C39.67 13.99 39.34 14.98 39 16 C32.38 16.25 32.38 16.25 29 14 C26.95 13.9 24.99 14.06 22.94 14.22 C20.38 13.93 19.77 12.8 18 11 C13.37 9.79 8.61 9.66 4 11 C4 10.34 4 9.68 4 9 C3.01 9 2.02 9 1 9 C1.33 7.35 1.66 5.7 2 4 C1.34 3.67 0.68 3.34 0 3 C1.32 3 2.64 3 4 3 C4 2.34 4 1.68 4 1 C2.68 0.67 1.36 0.34 0 0 Z " fill="#A9C4DD" transform="translate(44,36)"/>
<path d="M0 0 C0 0.66 0 1.32 0 2 C-1.03 1.79 -2.06 1.59 -3.12 1.38 C-7.12 0.99 -9.34 1.48 -13 3 C-12.34 3.33 -11.68 3.66 -11 4 C-11 4.66 -11 5.32 -11 6 C-9.68 6 -8.36 6 -7 6 C-7 6.66 -7 7.32 -7 8 C-8.65 8.33 -10.3 8.66 -12 9 C-10.35 9.66 -8.7 10.32 -7 11 C-10.01 12 -12.04 12.1 -15.19 12.06 C-16.09 12.05 -16.99 12.04 -17.92 12.04 C-18.61 12.02 -19.29 12.01 -20 12 C-19.67 11.01 -19.34 10.02 -19 9 C-18.34 9 -17.68 9 -17 9 C-17 8.34 -17 7.68 -17 7 C-18.32 6.67 -19.64 6.34 -21 6 C-20.67 5.01 -20.34 4.02 -20 3 C-24.29 2.67 -28.58 2.34 -33 2 C-33 1.67 -33 1.34 -33 1 C-28.38 0.67 -23.76 0.34 -19 0 C-19 -0.33 -19 -0.66 -19 -1 C-17.27 -1.2 -15.54 -1.38 -13.81 -1.56 C-12.85 -1.67 -11.89 -1.77 -10.89 -1.88 C-6.92 -2.05 -3.75 -1.25 0 0 Z " fill="#B9D1E1" transform="translate(101,20)"/>
<path d="M0 0 C0.34 0 0.34 0 2.09 0.03 C3.77 0.05 5.45 0.09 7.12 0.12 C7.12 0.79 7.12 1.45 7.12 2.12 C4.48 2.45 1.84 2.79 -0.88 3.12 C-0.88 3.79 -0.88 4.45 -0.88 5.12 C1.11 5.79 3.09 6.45 5.12 7.12 C5.12 7.79 5.12 8.45 5.12 9.12 C2.46 9.18 -0.21 9.22 -2.88 9.25 C-3.25 9.26 -3.25 9.26 -5.13 9.3 C-10.38 9.35 -14.83 8.58 -19.88 7.12 C-19.88 6.46 -19.88 5.8 -19.88 5.12 C-17.9 4.8 -15.91 4.46 -13.88 4.12 C-13.88 3.46 -13.88 2.8 -13.88 2.12 C-9.17 0.26 -5 -0.13 0 0 Z " fill="#8AAFD1" transform="translate(75.875,15.875)"/>
<path d="M0 0 C2.31 0 4.62 0 7 0 C7 0.66 7 1.32 7 2 C7.53 1.99 7.53 1.99 10.19 1.94 C13.33 1.99 15.97 2.27 19 3 C18.67 3.66 18.34 4.32 18 5 C15.93 5.41 15.93 5.41 13.44 5.62 C12.61 5.7 11.78 5.77 10.93 5.85 C10.61 5.88 10.61 5.88 9 6 C9 6.66 9 7.32 9 8 C9.27 7.84 9.27 7.84 10.61 7.01 C13.63 5.74 15.99 5.8 19.25 5.88 C20.33 5.89 21.41 5.91 22.52 5.93 C22.93 5.94 22.93 5.94 25 6 C25 7.32 25 8.64 25 10 C17.88 11.12 11.98 10.8 5 9 C5.66 8.67 6.32 8.34 7 8 C7 7.34 7 6.68 7 6 C4.69 5.34 2.38 4.68 0 4 C0 2.68 0 1.36 0 0 Z " fill="#85ABD1" transform="translate(102,18)"/>
<path d="M0 0 C0.66 0.66 1.32 1.32 2 2 C1.67 2.66 1.34 3.32 1 4 C2.65 4 4.3 4 6 4 C6 4.66 6 5.32 6 6 C4.02 6 2.04 6 0 6 C0 6.66 0 7.32 0 8 C-2 10 -2 10 -4 11 C-4 10.34 -4 9.68 -4 9 C-5.11 9.02 -6.23 9.04 -7.38 9.06 C-11 9 -11 9 -13 8 C-10.14 1.62 -7.02 -0.44 0 0 Z " fill="#AFC9DF" transform="translate(46,22)"/>
<path d="M0 0 C-0.33 1.65 -0.66 3.3 -1 5 C-4.96 5 -8.92 5 -13 5 C-13 5.66 -13 6.32 -13 7 C-13.51 6.85 -14.02 6.69 -14.55 6.54 C-17.77 5.83 -20.95 5.65 -24.25 5.44 C-25.51 5.35 -26.78 5.27 -28.08 5.18 C-29.04 5.12 -30.01 5.06 -31 5 C-31 4.34 -31 3.68 -31 3 C-30.36 2.95 -29.71 2.9 -29.05 2.85 C-23.74 2.41 -18.51 1.8 -13.25 0.94 C-8.75 0.21 -4.55 -0.21 0 0 Z " fill="#7BA4CA" transform="translate(91,31)"/>
<path d="M0 0 C2.45 0.86 4.13 2.11 6.12 3.75 C4.14 3.75 2.16 3.75 0.12 3.75 C0.12 4.41 0.12 5.07 0.12 5.75 C4.75 5.75 9.36 5.75 14.12 5.75 C14.12 6.08 14.12 6.41 14.12 6.75 C12.64 6.91 12.64 6.91 5.12 7.75 C4.8 9.4 4.47 11.05 4.12 12.75 C3.49 12.7 3.49 12.7 0.25 12.44 C-0.11 12.41 -0.11 12.41 -1.93 12.26 C-3.88 11.75 -3.88 11.75 -5.88 8.75 C-5.55 7.76 -5.22 6.77 -4.88 5.75 C-4.22 5.42 -3.55 5.09 -2.88 4.75 C-3.2 3.43 -3.53 2.11 -3.88 0.75 C-1.88 -0.25 -1.88 -0.25 0 0 Z " fill="#9ABAD7" transform="translate(59.875,30.25)"/>
<path d="M0 0 C0 0.33 0 0.66 0 1 C-0.57 1.09 -1.13 1.17 -1.71 1.26 C-4.27 1.65 -6.82 2.04 -9.38 2.44 C-9.82 2.5 -9.82 2.5 -12.07 2.85 C-12.5 2.91 -12.5 2.91 -14.65 3.25 C-15.04 3.31 -15.04 3.31 -17.03 3.61 C-19 4 -19 4 -21 5 C-22.7 5.23 -24.41 5.41 -26.12 5.56 C-27.04 5.65 -27.95 5.73 -28.88 5.82 C-29.23 5.85 -29.23 5.85 -31 6 C-31 6.33 -31 6.66 -31 7 C-33.97 7 -36.94 7 -40 7 C-40 6.01 -40 5.02 -40 4 C-26.55 1.32 -13.73 -0.66 0 0 Z " fill="#DCE5EE" transform="translate(71,12)"/>
<path d="M0 0 C3.63 0 7.26 0 11 0 C11 0.66 11 1.32 11 2 C12.98 2 14.96 2 17 2 C17 2.33 17 2.66 17 3 C14.36 3.33 11.72 3.66 9 4 C9.83 4.33 9.83 4.33 14 6 C14 6.66 14 7.32 14 8 C7.96 8.69 2.08 9.11 -4 9 C-3.34 8.34 -2.68 7.68 -2 7 C-0.68 7 0.64 7 2 7 C2.33 5.35 2.66 3.7 3 2 C2.01 1.34 1.02 0.68 0 0 Z " fill="#E5EAF0" transform="translate(92,50)"/>
<path d="M0 0 C0 0.66 0 1.32 0 2 C4.95 2 9.9 2 15 2 C15 2.66 15 3.32 15 4 C15.99 4.33 16.98 4.66 18 5 C15.68 5.77 14.28 6.07 11.88 5.5 C7.53 4.74 3.35 5.45 -1 6 C-1 6.33 -1 6.66 -1 7 C-3.64 7 -6.28 7 -9 7 C-9 6.34 -9 5.68 -9 5 C-10.98 5 -12.96 5 -15 5 C-15 4.67 -15 4.34 -15 4 C-10.38 4 -5.76 4 -1 4 C-1 3.34 -1 2.68 -1 2 C-1.99 1.67 -2.98 1.34 -4 1 C-2 0 -2 0 0 0 Z " fill="#A0BFDA" transform="translate(84,14)"/>
<path d="M0 0 C1.26 0.12 2.52 0.25 3.81 0.38 C4.17 0.41 4.17 0.41 5.96 0.59 C8 1 8 1 11 3 C11 3.66 11 4.32 11 5 C9.74 5.02 8.48 5.04 7.19 5.06 C6.48 5.07 5.77 5.09 5.04 5.1 C3 5 3 5 0 4 C-2.64 4.49 -2.64 4.49 -5.69 5.31 C-6.75 5.59 -7.82 5.87 -8.92 6.16 C-9.43 6.3 -9.43 6.3 -12 7 C-20.43 9.29 -20.43 9.29 -25 9 C-25.33 8.34 -25.66 7.68 -26 7 C-22.58 6.33 -19.17 5.66 -15.75 5 C-14.78 4.81 -13.81 4.62 -12.82 4.42 C-11.88 4.24 -10.95 4.06 -9.98 3.88 C-9.13 3.71 -8.27 3.54 -7.38 3.37 C-5 3 -5 3 -1 3 C-0.67 2.01 -0.34 1.02 0 0 Z " fill="#A0BCD7" transform="translate(113,40)"/>
<path d="M0 0 C11.36 -0.19 22.66 0.4 34 1 C32.68 1.33 31.36 1.66 30 2 C30 2.66 30 3.32 30 4 C25.94 4.03 21.88 4.05 17.81 4.06 C17.24 4.07 17.24 4.07 14.33 4.09 C13.21 4.09 12.1 4.09 10.96 4.1 C9.94 4.1 8.91 4.11 7.86 4.11 C5.13 4.01 2.66 3.62 0 3 C0 2.01 0 1.02 0 0 Z " fill="#D1DEEB" transform="translate(72,10)"/>
<path d="M0 0 C0.33 1.65 0.66 3.3 1 5 C-12.88 7.63 -12.88 7.63 -18 8 C-18.66 7.34 -19.32 6.68 -20 6 C-18.02 5.34 -16.04 4.68 -14 4 C-14 3.34 -14 2.68 -14 2 C-9.07 0.03 -5.22 -0.18 0 0 Z " fill="#A0BED9" transform="translate(108,37)"/>
<path d="M0 0 C-0.62 0.08 -1.24 0.16 -1.88 0.25 C-4 1 -4 1 -5.12 2.88 C-5.41 3.58 -5.7 4.28 -6 5 C-6.33 5.5 -6.33 5.5 -8 8 C-7.36 8.19 -6.72 8.39 -6.07 8.59 C-5.24 8.85 -4.41 9.11 -3.56 9.38 C-2.74 9.63 -1.92 9.89 -1.07 10.15 C1 11 1 11 2 13 C-2.79 14.01 -5.68 14.58 -10 12.06 C-10.99 11.38 -11.98 10.7 -13 10 C-13 9.34 -13 8.68 -13 8 C-12.01 8 -11.02 8 -10 8 C-10 5.36 -10 2.72 -10 0 C-2.25 -1.12 -2.25 -1.12 0 0 Z " fill="#B6CADF" transform="translate(38,22)"/>
<path d="M0 0 C0.99 0.33 1.98 0.66 3 1 C5.33 1.04 7.67 1.04 10 1 C10 1.33 10 1.66 10 2 C11.07 2.14 12.14 2.29 13.25 2.44 C17.04 3.01 20.38 3.79 24 5 C24 5.66 24 6.32 24 7 C18.62 7.87 15.05 8.27 10 6 C7.66 5.77 5.34 5.63 2.99 5.54 C1 5 1 5 -0.27 2.96 C-0.51 2.31 -0.75 1.67 -1 1 C-0.67 0.67 -0.34 0.34 0 0 Z " fill="#BBCFE2" transform="translate(105,12)"/>
<path d="M0 0 C0.33 0.66 0.66 1.32 1 2 C-0.98 2.99 -2.96 3.98 -5 5 C-2.36 5.66 0.28 6.32 3 7 C3 7.66 3 8.32 3 9 C0.24 10.38 -2.05 10.1 -5.12 10.06 C-6.22 10.05 -7.32 10.04 -8.45 10.04 C-8.87 10.03 -8.87 10.03 -11 10 C-10.75 8.52 -10.47 7.04 -10.19 5.56 C-10.04 4.74 -9.89 3.92 -9.73 3.07 C-9.49 2.38 -9.25 1.7 -9 1 C-5.8 -0.07 -3.34 -0.07 0 0 Z " fill="#BFD2E6" transform="translate(142,30)"/>
<path d="M0 0 C1.81 0.14 3.63 0.29 5.44 0.44 C5.94 0.48 5.94 0.48 8.5 0.68 C11 1 11 1 12 2 C14.26 2.03 16.51 1.93 18.77 1.84 C21 2 21 2 24 4 C23.67 4.99 23.34 5.98 23 7 C16.38 7.25 16.38 7.25 13 5 C11.72 5.06 10.44 5.12 9.12 5.19 C5.4 5.32 5.12 5.1 2 2.5 C1.34 1.67 0.68 0.85 0 0 Z " fill="#9CBCDA" transform="translate(60,45)"/>
<path d="M0 0 C1.44 0.26 2.88 0.53 4.31 0.81 C5.11 0.96 5.91 1.11 6.74 1.27 C9.26 2.09 10.38 2.92 12 5 C12 5.66 12 6.32 12 7 C10.35 7.33 8.7 7.66 7 8 C7 8.66 7 9.32 7 10 C3.37 9.01 -0.26 8.02 -4 7 C-4 6.67 -4 6.34 -4 6 C-2.35 5.67 -0.7 5.34 1 5 C0.67 3.35 0.34 1.7 0 0 Z " fill="#E8EBEE" transform="translate(35,41)"/>
<path d="M0 0 C0 0.66 0 1.32 0 2 C2.64 2 5.28 2 8 2 C2.18 5.36 -5.41 5.95 -12 5 C-13.8 3.48 -13.8 3.48 -15 2 C-13.44 1.46 -11.88 0.95 -10.31 0.44 C-9.44 0.15 -8.57 -0.14 -7.68 -0.44 C-4.75 -1.05 -2.86 -0.78 0 0 Z " fill="#E0E7EF" transform="translate(126,49)"/>
<path d="M0 0 C13.63 1.93 13.63 1.93 20 4 C19.67 4.16 19.67 4.16 18 5 C18.33 6.32 18.66 7.64 19 9 C15.7 9 12.4 9 9 9 C9 7.35 9 5.7 9 4 C6.36 3.67 3.72 3.34 1 3 C0.67 2.01 0.34 1.02 0 0 Z " fill="#CAD8E4" transform="translate(101,32)"/>
<path d="M0 0 C6.27 0.66 12.54 1.32 19 2 C18.67 2.66 18.34 3.32 18 4 C19.98 4.99 21.96 5.98 24 7 C23.67 7.66 23.34 8.32 23 9 C19.7 8.34 16.4 7.68 13 7 C13 6.01 13 5.02 13 4 C10.69 3.84 10.69 3.84 -1 3 C-0.67 2.01 -0.34 1.02 0 0 Z " fill="#BCD1E3" transform="translate(122,20)"/>
<path d="M0 0 C0 0.33 0 0.66 0 1 C-2.31 1.33 -4.62 1.66 -7 2 C-7.33 4.31 -7.66 6.62 -8 9 C-8.99 9 -9.98 9 -11 9 C-11 9.66 -11 10.32 -11 11 C-9.68 11.33 -8.36 11.66 -7 12 C-7 12.33 -7 12.66 -7 13 C-8.65 13 -10.3 13 -12 13 C-12.33 12.34 -12.66 11.68 -13 11 C-12.67 10.34 -12.34 9.68 -12 9 C-12.66 8.67 -13.32 8.34 -14 8 C-13.34 7.67 -12.68 7.34 -12 7 C-12.33 6.01 -12.66 5.02 -13 4 C-13.66 4 -14.32 4 -15 4 C-15 3.01 -15 2.02 -15 1 C-10.04 -0.32 -5.09 -0.09 0 0 Z " fill="#D0DCE9" transform="translate(36,21)"/>
<path d="M0 0 C5.28 0 10.56 0 16 0 C12.47 2.35 10.97 2.21 6.81 2.12 C5.73 2.11 4.64 2.09 3.52 2.07 C3.1 2.06 3.1 2.06 1 2 C0.67 1.34 0.34 0.68 0 0 Z " fill="#E1E8F2" transform="translate(117,0)"/>
<path d="M0 0 C1.65 0 3.3 0 5 0 C5 0.66 5 1.32 5 2 C3.35 2 1.7 2 0 2 C0 1.34 0 0.68 0 0 Z " fill="#F0F0F1" transform="translate(130,45)"/>
<path d="M0 0 C1.98 0 3.96 0 6 0 C5.67 0.66 5.34 1.32 5 2 C3.35 1.67 1.7 1.34 0 1 C0 0.67 0 0.34 0 0 Z " fill="#EEF1F6" transform="translate(93,0)"/>
<path d="M0 0 C0.99 0.33 1.98 0.66 3 1 C1.68 1.33 0.36 1.66 -1 2 C-0.67 1.34 -0.34 0.68 0 0 Z " fill="#EEF2F8" transform="translate(83,0)"/>
<path d="M0 0 C0.99 0.33 1.98 0.66 3 1 C1.68 1.33 0.36 1.66 -1 2 C-0.67 1.34 -0.34 0.68 0 0 Z " fill="#FAF7F3" transform="translate(13,27)"/>
<path d="M0 0 C0.66 0 1.32 0 2 0 C2 0.66 2 1.32 2 2 C1.34 2 0.68 2 0 2 C0 1.34 0 0.68 0 0 Z " fill="#EFEFEF" transform="translate(27,45)"/>
<path d="M0 0 C0.5 0.33 0.5 0.33 3 2 C2.01 2 1.02 2 0 2 C0 1.34 0 0.68 0 0 Z " fill="#F3F2F2" transform="translate(20,34)"/>
<path d="M0 0 C0.66 0.66 1.32 1.32 2 2 C1.34 2 0.68 2 0 2 C0 1.34 0 0.68 0 0 Z " fill="#F7F5F4" transform="translate(12,31)"/>
<path d="M0 0 C3 1 3 1 3 1 Z " fill="#EBF0F6" transform="translate(64,0)"/>
<path d="M0 0 C2 1 2 1 2 1 Z " fill="#EFF0F0" transform="translate(138,47)"/>
<path d="" fill="#F5F4F4" transform="translate(0,0)"/>
<path d="" fill="#F6F5F4" transform="translate(0,0)"/>
<path d="" fill="#F9F8F4" transform="translate(0,0)"/>
<path d="" fill="#F8F6F4" transform="translate(0,0)"/>
<path d="" fill="#F6F5F4" transform="translate(0,0)"/>
</svg>
