<?xml version="1.0" encoding="UTF-8"?>
<!-- Generator: visioncortex VTracer 0.6.12 -->
<svg version="1.1" xmlns="http://www.w3.org/2000/svg" width="76" height="63">
<path d="M0 0 C0.99 0 1.98 0 3 0 C4.86 3.13 5.2 5.37 5 9 C5.66 9.33 6.32 9.66 7 10 C6.67 10.66 6.34 11.32 6 12 C6.99 12 7.98 12 9 12 C9.33 11.01 9.66 10.02 10 9 C10.99 9 11.98 9 13 9 C13.05 9.31 13.05 9.31 13.3 10.86 C13.93 13.56 14.56 15.62 16 18 C19.22 19.68 22.43 20.42 26 21 C25.84 21.49 25.84 21.49 25 24 C24.34 24 23.68 24 23 24 C23 24.66 23 25.32 23 26 C22.34 26 21.68 26 21 26 C20.67 27.32 20.34 28.64 20 30 C19.11 29.96 18.23 29.92 17.31 29.88 C14 31 14 31 12.49 33.29 C11.24 35.83 10.07 38.38 9 41 C7.68 40.67 6.36 40.34 5 40 C5 40.99 5 41.98 5 43 C4.17 43.16 4.17 43.16 0 44 C-0.33 42.68 -0.66 41.36 -1 40 C-2.32 39.67 -3.64 39.34 -5 39 C-5.16 38.17 -5.16 38.17 -6 34 C-6.66 34 -7.32 34 -8 34 C-8 35.65 -8 37.3 -8 39 C-11 38 -11 38 -12.17 35.93 C-12.5 35.11 -12.84 34.29 -13.19 33.44 C-13.53 32.61 -13.88 31.78 -14.23 30.93 C-14.36 30.61 -14.36 30.61 -15 29 C-15.3 29.08 -15.3 29.08 -16.81 29.5 C-19.98 30.23 -21.9 30.03 -25 29 C-25.31 28.34 -25.62 27.68 -25.94 27 C-27 25 -27 25 -29.12 24.25 C-29.74 24.17 -30.36 24.09 -31 24 C-31 23.34 -31 22.68 -31 22 C-29.87 21.73 -28.73 21.46 -27.56 21.19 C-26.39 20.8 -25.21 20.4 -24 20 C-23.67 19.01 -23.34 18.02 -23 17 C-21.78 17.19 -20.57 17.37 -19.31 17.56 C-15.97 17.99 -13.28 17.92 -10 17 C-10.33 16.01 -10.66 15.02 -11 14 C-10.34 13.01 -9.68 12.02 -9 11 C-5.88 10.81 -5.88 10.81 -3 11 C-3.23 10.44 -3.45 9.89 -3.69 9.31 C-4.13 6.06 -2.81 4.64 -1 2 C-0.67 1.34 -0.34 0.68 0 0 Z M-8 13 C-8 13.99 -8 14.98 -8 16 C-7.34 16 -6.68 16 -6 16 C-6.33 15.01 -6.66 14.02 -7 13 C-7.33 13 -7.66 13 -8 13 Z " fill="#B4B0A5" transform="translate(41,10)"/>
<path d="M0 0 C0.66 0.66 1.32 1.32 2 2 C1.71 3.68 1.38 5.34 1 7 C1.16 7.16 1.16 7.16 2 8 C2.04 9.67 2.04 11.33 2 13 C2.66 13 3.32 13 4 13 C4 13.66 4 14.32 4 15 C2.35 15 0.7 15 -1 15 C-0.79 15.58 -0.59 16.16 -0.38 16.75 C0 19 0 19 -0.56 21.19 C-2 23 -2 23 -4.69 23.94 C-8.76 24.01 -11.31 22.64 -15 21 C-17.25 21.31 -17.25 21.31 -19 22 C-22 22 -22 22 -25 21 C-25.31 20.34 -25.62 19.68 -25.94 19 C-27 17 -27 17 -29.12 16.25 C-29.74 16.17 -30.36 16.09 -31 16 C-31 15.34 -31 14.68 -31 14 C-30.43 13.87 -30.43 13.87 -27.56 13.19 C-26.39 12.8 -25.21 12.4 -24 12 C-23.67 11.01 -23.34 10.02 -23 9 C-21.78 9.19 -20.57 9.37 -19.31 9.56 C-15.98 9.98 -13.24 10.08 -10 9 C-9.67 8.34 -9.34 7.68 -9 7 C-7.68 7.33 -6.36 7.66 -5 8 C-3.79 5.67 -2.83 3.5 -2 1 C-1.34 0.67 -0.68 0.34 0 0 Z " fill="#9C9E98" transform="translate(41,18)"/>
<path d="M0 0 C0 0.66 0 1.32 0 2 C-1.98 2.33 -3.96 2.66 -6 3 C-6.33 4.32 -6.66 5.64 -7 7 C-6.01 6.67 -5.02 6.34 -4 6 C-4.62 11.54 -4.62 11.54 -6.56 13.88 C-7.04 14.25 -7.51 14.62 -8 15 C-7.34 15.33 -6.68 15.66 -6 16 C-6 15.34 -6 14.68 -6 14 C-4.68 14 -3.36 14 -2 14 C-2.21 13.24 -2.41 12.47 -2.62 11.69 C-3 9 -3 9 -1 6 C0.32 6 1.64 6 3 6 C3.33 5.34 3.66 4.68 4 4 C6.93 2.65 9.85 1.7 13 1 C12.34 1.33 11.68 1.66 11 2 C11 2.66 11 3.32 11 4 C10.34 4 9.68 4 9 4 C8.67 5.32 8.34 6.64 8 8 C7.11 7.96 6.23 7.92 5.31 7.88 C2 9 2 9 0.49 11.29 C-0.76 13.83 -1.93 16.38 -3 19 C-4.32 18.67 -5.64 18.34 -7 18 C-7 18.99 -7 19.98 -7 21 C-8.65 21.33 -10.3 21.66 -12 22 C-12.33 20.68 -12.66 19.36 -13 18 C-14.32 17.67 -15.64 17.34 -17 17 C-17.33 15.35 -17.66 13.7 -18 12 C-18.66 12 -19.32 12 -20 12 C-20 13.65 -20 15.3 -20 17 C-20.99 16.67 -21.98 16.34 -23 16 C-23.95 13.93 -23.95 13.93 -24.69 11.44 C-24.94 10.61 -25.19 9.78 -25.45 8.93 C-25.63 8.3 -25.81 7.66 -26 7 C-24.05 7.52 -22.09 8.04 -20.14 8.56 C-18 9 -18 9 -14 9 C-13.67 6.36 -13.34 3.72 -13 1 C-8.61 0.3 -4.44 -0.11 0 0 Z " fill="#B2B5BC" transform="translate(53,32)"/>
<path d="M0 0 C0.62 0.09 0.62 0.09 3.75 0.56 C6.76 0.95 9.1 1.09 12 0 C11.69 1.94 11.69 1.94 11 4 C10.01 4.33 9.02 4.66 8 5 C8 6.98 8 8.96 8 11 C2.65 14.16 2.65 14.16 -0.25 13.44 C-2 12 -2 12 -3 9.94 C-4 8 -4 8 -6.12 7.25 C-6.74 7.17 -7.36 7.09 -8 7 C-8 6.34 -8 5.68 -8 5 C-6.87 4.73 -5.73 4.46 -4.56 4.19 C-3.39 3.8 -2.21 3.4 -1 3 C-0.67 2.01 -0.34 1.02 0 0 Z " fill="#C3C6C8" transform="translate(18,27)"/>
<path d="M0 0 C0.99 0 1.98 0 3 0 C4.86 3.13 5.2 5.37 5 9 C5.66 9.33 6.32 9.66 7 10 C6.67 10.66 6.34 11.32 6 12 C6.99 12.33 7.98 12.66 9 13 C9 13.99 9 14.98 9 16 C6 18 6 18 3.94 17.81 C2 17 2 17 0 14 C0.38 11.81 0.38 11.81 1 10 C0.01 9.67 -0.98 9.34 -2 9 C-2.05 9.3 -2.05 9.3 -2.31 10.81 C-3.09 13.28 -4.07 14.32 -6 16 C-6.33 15.34 -6.66 14.68 -7 14 C-7.66 14.66 -8.32 15.32 -9 16 C-9.66 15.34 -10.32 14.68 -11 14 C-10.34 13.01 -9.68 12.02 -9 11 C-5.88 10.81 -5.88 10.81 -3 11 C-3.11 10.72 -3.11 10.72 -3.69 9.31 C-4.13 6.06 -2.81 4.64 -1 2 C-0.67 1.34 -0.34 0.68 0 0 Z " fill="#C5C3BF" transform="translate(41,10)"/>
<path d="M0 0 C1.32 0.33 2.64 0.66 4 1 C3.34 1 2.68 1 2 1 C2 1.66 2 2.32 2 3 C1.34 3 0.68 3 0 3 C-0.33 4.32 -0.66 5.64 -1 7 C-1.89 6.96 -2.77 6.92 -3.69 6.88 C-7 8 -7 8 -8.51 10.29 C-9.76 12.83 -10.93 15.38 -12 18 C-13.32 17.67 -14.64 17.34 -16 17 C-16 17.99 -16 18.98 -16 20 C-17.65 20.33 -19.3 20.66 -21 21 C-21.33 19.68 -21.66 18.36 -22 17 C-23.32 16.67 -24.64 16.34 -26 16 C-26 15.01 -26 14.02 -26 13 C-22.37 13.66 -18.74 14.32 -15 15 C-15 14.34 -15 13.68 -15 13 C-13.68 13 -12.36 13 -11 13 C-11.21 12.24 -11.41 11.47 -11.62 10.69 C-12 8 -12 8 -10 5 C-8.68 5 -7.36 5 -6 5 C-5.67 4.34 -5.34 3.68 -5 3 C-3.36 2.28 -1.69 1.61 0 1 C0 0.67 0 0.34 0 0 Z " fill="#DAD7D6" transform="translate(62,33)"/>
<path d="M0 0 C0.66 0.66 1.32 1.32 2 2 C1.71 3.68 1.38 5.34 1 7 C1.33 7.33 1.66 7.66 2 8 C2.04 9.67 2.04 11.33 2 13 C2.66 13 3.32 13 4 13 C4 13.66 4 14.32 4 15 C2.02 15 0.04 15 -2 15 C-2 14.34 -2 13.68 -2 13 C-2.66 12.67 -3.32 12.34 -4 12 C-4 12.66 -4 13.32 -4 14 C-6.31 14.33 -8.62 14.66 -11 15 C-11 14.34 -11 13.68 -11 13 C-10.01 13 -9.02 13 -8 13 C-7.57 11.95 -7.13 10.9 -6.69 9.81 C-3.14 1.57 -3.14 1.57 0 0 Z " fill="#868F92" transform="translate(41,18)"/>
<path d="M0 0 C0 0.66 0 1.32 0 2 C-1.98 2.33 -3.96 2.66 -6 3 C-6.33 4.32 -6.66 5.64 -7 7 C-6.01 6.67 -5.02 6.34 -4 6 C-4.25 8.88 -4.25 8.88 -5 12 C-7.06 13.38 -7.06 13.38 -9 14 C-10.37 10.18 -9.68 6.93 -9 3 C-10.32 3 -11.64 3 -13 3 C-13 2.34 -13 1.68 -13 1 C-8.61 0.3 -4.44 -0.11 0 0 Z " fill="#D7CDBA" transform="translate(53,32)"/>
</svg>
