<?xml version="1.0" encoding="UTF-8"?>
<!-- Generator: visioncortex VTracer 0.6.12 -->
<svg version="1.1" xmlns="http://www.w3.org/2000/svg" width="119" height="156">
<path d="M0 0 C1.32 0.66 2.64 1.32 4 2 C4 2.99 4 3.98 4 5 C4.66 5 5.32 5 6 5 C6.16 5.5 6.16 5.5 7 8 C7.99 8.66 8.98 9.32 10 10 C9.57 14.58 9.3 16.85 6 20 C6.31 22.19 6.31 22.19 7 24 C7.78 23.94 8.57 23.88 9.38 23.81 C9.81 23.84 9.81 23.84 12 24 C14 27 14 27 13.62 29.69 C13.52 30.07 13.52 30.07 13 32 C12.34 32 11.68 32 11 32 C11 32.66 11 33.32 11 34 C11.63 34.09 11.63 34.09 14.81 34.56 C15.17 34.61 15.17 34.61 16.96 34.88 C19 35 19 35 22 34 C25.19 35.69 25.19 35.69 28 38 C28 39.32 28 40.64 28 42 C29.65 42.66 31.3 43.32 33 44 C33 44.66 33 45.32 33 46 C33.5 46.16 33.5 46.16 36 47 C35.66 51.1 35.11 54.04 33.06 57.62 C30.57 62.22 30.17 66.87 29.49 72 C28.92 75.49 28.04 78.1 26 81 C25.32 81.28 24.64 81.56 23.95 81.85 C22 83 22 83 21.39 85.17 C21.34 86.02 21.3 86.87 21.25 87.75 C21.19 88.65 21.13 89.55 21.07 90.47 C21.02 92.38 21.05 94.28 21.12 96.19 C20.96 100 19.65 102.57 18 106 C17.34 106 16.68 106 16 106 C15.8 104.4 15.62 102.79 15.44 101.19 C15.39 100.74 15.39 100.74 15.12 98.48 C15 96 15 96 16 93 C15.06 90.81 15.06 90.81 14 89 C9.85 92.35 9.23 95.27 8.38 100.44 C7.62 104.89 6.86 108.88 5 113 C4.34 113 3.68 113 3 113 C2.34 116.3 1.68 119.6 1 123 C0.01 123 -0.98 123 -2 123 C-2 120.03 -2 117.06 -2 114 C-2.99 114 -3.98 114 -5 114 C-5.11 114.65 -5.22 115.3 -5.33 115.98 C-6.27 121.12 -7.35 125.42 -10 130 C-11.32 129.67 -12.64 129.34 -14 129 C-13.96 129.95 -13.92 130.9 -13.88 131.88 C-14 135 -14 135 -16 137 C-17.94 136.94 -17.94 136.94 -20 136 C-22.4 132.79 -23.44 129.95 -24 126 C-24.78 125.88 -25.57 125.75 -26.38 125.62 C-29 125 -29 125 -31 123 C-32.51 117.95 -33.29 113.14 -33.66 107.88 C-34 106 -34 106 -36 104 C-37.15 107.94 -37.53 111.94 -38 116 C-38.99 116 -39.98 116 -41 116 C-42.55 112.19 -43.16 108.75 -43.44 104.69 C-43.83 99.43 -45.08 94.89 -47 90 C-47.66 92.31 -48.32 94.62 -49 97 C-49.66 97 -50.32 97 -51 97 C-51.05 96.63 -51.05 96.63 -51.3 94.77 C-52.21 88.84 -53.18 85.68 -57 81 C-57.67 78.02 -57.83 75.04 -58 72 C-58.11 70.37 -58.23 68.75 -58.38 67.12 C-58.42 66.41 -58.47 65.69 -58.52 64.95 C-59.12 62.51 -60.23 61.73 -62 60 C-63.28 57.05 -63.98 54.22 -64 51 C-61.75 48.06 -61.75 48.06 -59 46 C-58.34 45.34 -57.68 44.68 -57 44 C-55.68 44 -54.36 44 -53 44 C-53 43.34 -53 42.68 -53 42 C-52.5 41.84 -52.5 41.84 -50 41 C-50.99 40.34 -51.98 39.68 -53 39 C-52.25 34.25 -52.25 34.25 -50 32 C-49.34 31.01 -48.68 30.02 -48 29 C-46 30 -44 31 -42 32 C-41.59 31.55 -41.17 31.09 -40.75 30.62 C-38.94 28.94 -37.25 28.01 -35 27 C-35.66 26.34 -36.32 25.68 -37 25 C-36.88 23 -36.88 23 -36 21 C-33.94 19.75 -33.94 19.75 -32 19 C-32.33 17.68 -32.66 16.36 -33 15 C-32.34 14.67 -31.68 14.34 -31 14 C-30.15 12.15 -30.15 12.15 -29.38 9.94 C-29.11 9.2 -28.85 8.47 -28.59 7.71 C-28.39 7.15 -28.2 6.58 -28 6 C-24.37 9.42 -23 13.15 -22 18 C-22 18.66 -22 19.32 -22 20 C-20 21.62 -20 21.62 -18 23 C-14.75 21.38 -14.3 18.25 -13 15 C-12.34 15 -11.68 15 -11 15 C-10.34 16.65 -9.68 18.3 -9 20 C-7.02 19.01 -5.04 18.02 -3 17 C-4.98 15.68 -6.96 14.36 -9 13 C-8.49 10.83 -8 9 -7 7 C-6.34 7 -5.68 7 -5 7 C-4.67 6.01 -4.34 5.02 -4 4 C-2.71 2.63 -1.38 1.29 0 0 Z M2 17 C2.33 17.99 2.66 18.98 3 20 C3 19.01 3 18.02 3 17 C2.67 17 2.34 17 2 17 Z M-17 25 C-17.99 25.99 -18.98 26.98 -20 28 C-19.67 28.66 -19.34 29.32 -19 30 C-18.01 29.01 -17.02 28.02 -16 27 C-16.33 26.34 -16.66 25.68 -17 25 Z M-41 35 C-41 35.99 -41 36.98 -41 38 C-40.34 37.34 -39.68 36.68 -39 36 C-39.66 35.67 -40.32 35.34 -41 35 Z " fill="#A8A89B" transform="translate(74,10)"/>
<path d="M0 0 C2 3 2 3 2 6 C5.38 4.81 7.65 3.72 10 1 C12 2.81 12 2.81 14 5 C14 5.99 14 6.98 14 8 C14.99 8.16 14.99 8.16 20 9 C19.67 9.99 19.34 10.98 19 12 C18.67 11.84 18.67 11.84 17 11 C18.5 15.76 18.5 15.76 20 18 C23.69 19.44 23.69 19.44 27 20 C27 20.99 27 21.98 27 23 C24.36 23.66 21.72 24.32 19 25 C19 24.01 19 23.02 19 22 C18.01 22.66 17.02 23.32 16 24 C15.34 24.33 14.68 24.66 14 25 C14 26.32 14 27.64 14 29 C12.58 29.03 11.17 29.05 9.75 29.06 C9.36 29.07 9.36 29.07 7.36 29.1 C5.09 29 3.17 28.63 1 28 C1.16 28.66 1.16 28.66 2 32 C3.65 31.67 5.3 31.34 7 31 C7.16 31.49 7.16 31.49 8 34 C3.05 34.99 -1.9 35.98 -7 37 C-2.71 37.66 1.58 38.32 6 39 C4.68 38.01 3.36 37.02 2 36 C2.82 36.01 3.64 36.02 4.48 36.04 C5.02 36.04 5.02 36.04 7.75 36.06 C8.82 36.07 9.88 36.09 10.98 36.1 C13.53 36.02 15.58 35.75 18 35 C18 35.66 18 36.32 18 37 C17.01 37 16.02 37 15 37 C15 37.66 15 38.32 15 39 C16.11 39.14 17.23 39.29 18.38 39.44 C22 40 22 40 24 41 C22.34 54.2 22.34 54.2 19 60 C18.94 60.45 18.94 60.45 18.62 62.75 C18.42 63.49 18.21 64.23 18 65 C16.33 65.67 14.67 66.33 13 67 C12.19 69.62 12.19 69.62 12 72 C11.67 72 11.34 72 11 72 C11 68.04 11 64.08 11 60 C5.8 61.36 2.9 63.47 -1 67 C-1.66 66.01 -2.32 65.02 -3 64 C-5.62 63.81 -5.62 63.81 -8 64 C-8 64.66 -8 65.32 -8 66 C-8.99 65.67 -9.98 65.34 -11 65 C-11.67 63.67 -12.33 62.33 -13 61 C-13.99 60.67 -14.98 60.34 -16 60 C-15.84 61.16 -15.84 61.16 -15 67 C-14.01 66.67 -13.02 66.34 -12 66 C-11.67 66.16 -11.67 66.16 -10 67 C-10 69 -10 69 -11.5 70.62 C-11.99 71.08 -12.49 71.53 -13 72 C-12.01 72 -11.02 72 -10 72 C-9.67 73.32 -9.34 74.64 -9 76 C-8.01 76 -7.02 76 -6 76 C-6.16 76.66 -6.16 76.66 -7 80 C-9.37 79.31 -9.37 79.31 -12 78 C-13.31 75.38 -13.31 75.38 -14 73 C-14.33 73.66 -14.66 74.32 -15 75 C-15.66 75 -16.32 75 -17 75 C-17 74.01 -17 73.02 -17 72 C-17.31 72.11 -17.31 72.11 -18.86 72.69 C-19.67 72.98 -20.48 73.27 -21.31 73.56 C-22.11 73.85 -22.91 74.14 -23.74 74.44 C-26 75 -26 75 -29 74 C-29.33 74.99 -29.66 75.98 -30 77 C-30.66 73.7 -31.32 70.4 -32 67 C-31.34 67 -30.68 67 -30 67 C-30.66 62.71 -31.32 58.42 -32 54 C-32.12 55.11 -32.25 56.23 -32.38 57.38 C-33 61 -33 61 -35 63 C-35 63.66 -35 64.32 -35 65 C-35.66 65 -36.32 65 -37 65 C-37 64.34 -37 63.68 -37 63 C-37.66 63 -38.32 63 -39 63 C-39 62.34 -39 61.68 -39 61 C-39.66 61 -40.32 61 -41 61 C-40.84 60.01 -40.84 60.01 -40 55 C-39.34 55 -38.68 55 -38 55 C-38 54.34 -38 53.68 -38 53 C-38.66 53 -39.32 53 -40 53 C-40 52.34 -40 51.68 -40 51 C-39.34 51 -38.68 51 -38 51 C-38.33 49.02 -38.66 47.04 -39 45 C-40.32 45 -41.64 45 -43 45 C-43 43.35 -43 41.7 -43 40 C-44.65 40 -46.3 40 -48 40 C-49.02 37.01 -49.84 34.17 -50 31 C-47.75 28.06 -47.75 28.06 -45 26 C-44.34 25.34 -43.68 24.68 -43 24 C-41.68 24 -40.36 24 -39 24 C-39 23.34 -39 22.68 -39 22 C-38.01 21.67 -37.02 21.34 -36 21 C-36.99 20.34 -37.98 19.68 -39 19 C-38.25 14.25 -38.25 14.25 -36 12 C-35.34 11.01 -34.68 10.02 -34 9 C-33 9.5 -33 9.5 -28 12 C-27.67 11.51 -27.34 11.01 -27 10.5 C-23.82 8.12 -20.9 8.81 -17 9 C-17 7.35 -17 5.7 -17 4 C-15.68 4 -14.36 4 -13 4 C-12.73 5.11 -12.46 6.23 -12.19 7.38 C-11 11 -11 11 -8 13 C-8 13.66 -8 14.32 -8 15 C-7.17 15.16 -7.17 15.16 -3 16 C-3 15.34 -3 14.68 -3 14 C-4.32 13.67 -5.64 13.34 -7 13 C-7 12.34 -7 11.68 -7 11 C-4.13 11.57 -3.14 11.86 -1 14 C-0.88 16.62 -0.88 16.62 -1 19 C-0.01 19 0.98 19 2 19 C2 18.01 2 17.02 2 16 C4.97 15.34 7.94 14.68 11 14 C11.33 12.35 11.66 10.7 12 9 C11.34 9 10.68 9 10 9 C10 9.99 10 10.98 10 12 C7.59 13.2 6.05 13.1 3.38 13.06 C2.97 13.06 2.97 13.06 0.9 13.04 C0.59 13.03 0.59 13.03 -1 13 C-1.03 11.58 -1.05 10.17 -1.06 8.75 C-1.07 7.96 -1.09 7.17 -1.1 6.36 C-1 4.09 -0.63 2.17 0 0 Z M-27 15 C-27 15.99 -27 16.98 -27 18 C-26.34 17.34 -25.68 16.68 -25 16 C-25.66 15.67 -26.32 15.34 -27 15 Z " fill="#847B6B" transform="translate(60,30)"/>
<path d="M0 0 C1.32 0 2.64 0 4 0 C4 1.65 4 3.3 4 5 C5.32 5 6.64 5 8 5 C8.33 6.98 8.66 8.96 9 11 C8.34 11 7.68 11 7 11 C7 11.66 7 12.32 7 13 C7.66 13 8.32 13 9 13 C9 13.66 9 14.32 9 15 C8.34 15 7.68 15 7 15 C6.67 16.98 6.34 18.96 6 21 C6.66 21 7.32 21 8 21 C8 21.66 8 22.32 8 23 C8.66 23 9.32 23 10 23 C10 23.66 10 24.32 10 25 C10.66 25 11.32 25 12 25 C11.67 24.01 11.34 23.02 11 22 C11.99 21.67 12.98 21.34 14 21 C14 18.36 14 15.72 14 13 C14.66 13.33 15.32 13.66 16 14 C16.7 16.87 16.7 16.87 17.25 20.44 C17.44 21.61 17.63 22.79 17.83 24 C17.88 24.99 17.94 25.98 18 27 C17.34 27.66 16.68 28.32 16 29 C16.66 30.65 17.32 32.3 18 34 C22.03 33.45 26.02 32.84 30 32 C30 32.99 30 33.98 30 35 C30.66 35 31.32 35 32 35 C32.33 34.01 32.66 33.02 33 32 C33.41 32.97 33.83 33.94 34.25 34.94 C36 38 36 38 38.19 38.88 C38.79 38.92 39.38 38.96 40 39 C40.33 38.01 40.66 37.02 41 36 C40.01 36 39.02 36 38 36 C37.84 35.34 37.84 35.34 37 32 C36.01 32 35.02 32 34 32 C34.16 31.5 34.16 31.5 35 29 C35.66 29 36.32 29 37 29 C37 28.34 37 27.68 37 27 C35.68 26.67 34.36 26.34 33 26 C32.67 26.66 32.34 27.32 32 28 C31 27 31 27 30.94 23.44 C30.96 22.3 30.98 21.17 31 20 C32.88 20.25 32.88 20.25 35 21 C36.12 23 36.12 23 37 25 C37.66 25.33 38.32 25.66 39 26 C39 25.34 39 24.68 39 24 C41.31 23.31 41.31 23.31 44 23 C45.81 24.44 45.81 24.44 47 26 C47.8 25.2 48.61 24.39 49.44 23.56 C50.62 22.38 51.81 21.19 53 20 C54.65 20 56.3 20 58 20 C58.16 21.65 58.16 21.65 59 30 C59.16 29.5 59.16 29.5 60 27 C62.56 25.81 62.56 25.81 65 25 C65.12 23.93 65.25 22.86 65.38 21.75 C66 18 66 18 67.01 16.06 C68.45 13.07 68.44 10.2 68.66 6.93 C68.71 6.61 68.71 6.61 69 5 C69.66 4.67 70.32 4.34 71 4 C71.16 5.16 71.16 5.16 72 11 C72.66 11 73.32 11 74 11 C73.67 12.65 73.34 14.3 73 16 C72.34 16 71.68 16 71 16 C71 20.29 71 24.58 71 29 C71.66 29 72.32 29 73 29 C72.7 29.51 72.4 30.01 72.09 30.54 C70.67 33.74 70.11 37.01 69.5 40.44 C68.69 44.86 67.84 48.88 66 53 C65.34 53 64.68 53 64 53 C63.34 56.3 62.68 59.6 62 63 C61.01 63 60.02 63 59 63 C59 60.03 59 57.06 59 54 C58.01 54 57.02 54 56 54 C55.89 54.65 55.78 55.3 55.67 55.98 C54.73 61.12 53.65 65.42 51 70 C49.68 69.67 48.36 69.34 47 69 C47.04 69.95 47.08 70.9 47.12 71.88 C47 75 47 75 45 77 C43.06 76.94 43.06 76.94 41 76 C38.6 72.79 37.56 69.95 37 66 C36.22 65.88 35.43 65.75 34.62 65.62 C32 65 32 65 30 63 C28.49 57.95 27.71 53.14 27.34 47.88 C27 46 27 46 25 44 C23.85 47.94 23.47 51.94 23 56 C22.01 56 21.02 56 20 56 C18.45 52.19 17.84 48.75 17.56 44.69 C17.17 39.43 15.92 34.89 14 30 C13.34 32.31 12.68 34.62 12 37 C11.34 37 10.68 37 10 37 C9.95 36.63 9.95 36.63 9.7 34.77 C8.79 28.84 7.82 25.68 4 21 C3.33 18.02 3.18 15.04 3 12 C2.87 10.37 2.72 8.75 2.56 7.12 C2.5 6.41 2.44 5.69 2.38 4.95 C2 3 2 3 0 0 Z " fill="#7F8590" transform="translate(13,70)"/>
<path d="M0 0 C2 3 2 3 2 6 C5.38 4.81 7.65 3.72 10 1 C12 2.81 12 2.81 14 5 C14 5.99 14 6.98 14 8 C15.98 8.33 17.96 8.66 20 9 C19.67 9.99 19.34 10.98 19 12 C18.34 11.67 17.68 11.34 17 11 C18.5 15.76 18.5 15.76 20 18 C23.69 19.44 23.69 19.44 27 20 C27 20.99 27 21.98 27 23 C24.36 23.66 21.72 24.32 19 25 C19 24.01 19 23.02 19 22 C18.01 22.66 17.02 23.32 16 24 C15.67 24.16 15.67 24.16 14 25 C14 26.32 14 27.64 14 29 C12.58 29.03 11.17 29.05 9.75 29.06 C9.36 29.07 9.36 29.07 7.36 29.1 C5.09 29 3.17 28.63 1 28 C1.33 29.32 1.66 30.64 2 32 C3.65 31.67 5.3 31.34 7 31 C7.16 31.49 7.16 31.49 8 34 C0.74 35.7 -6.74 37.42 -14 35 C-13.67 34.01 -13.34 33.02 -13 32 C-16.35 32.95 -19.69 33.9 -23 35 C-23.33 33.68 -23.66 32.36 -24 31 C-24.99 31 -25.98 31 -27 31 C-26.84 30.51 -26.84 30.51 -26 28 C-23.06 26.82 -22.1 26.97 -19 28 C-19 27.34 -19 26.68 -19 26 C-17.68 25.67 -16.36 25.34 -15 25 C-15 24.34 -15 23.68 -15 23 C-15.58 23.35 -16.16 23.7 -16.75 24.06 C-19.43 25.18 -20.31 24.93 -23 24 C-23.74 23.81 -24.48 23.63 -25.25 23.44 C-25.83 23.29 -26.41 23.15 -27 23 C-26.25 21.06 -26.25 21.06 -25 19 C-23 18.12 -23 18.12 -21 18 C-20.34 18.66 -19.68 19.32 -19 20 C-19.33 18.35 -19.66 16.7 -20 15 C-20.99 14.84 -20.99 14.84 -26 14 C-26 13.01 -26 12.02 -26 11 C-22.63 9.5 -20.8 9 -17 9 C-17 7.35 -17 5.7 -17 4 C-15.68 4 -14.36 4 -13 4 C-12.73 5.11 -12.46 6.23 -12.19 7.38 C-11 11 -11 11 -8 13 C-8 13.66 -8 14.32 -8 15 C-7.17 15.16 -7.17 15.16 -3 16 C-3 15.34 -3 14.68 -3 14 C-4.32 13.67 -5.64 13.34 -7 13 C-7 12.34 -7 11.68 -7 11 C-4.13 11.57 -3.14 11.86 -1 14 C-0.88 16.62 -0.88 16.62 -1 19 C-0.01 19 0.98 19 2 19 C2 18.01 2 17.02 2 16 C4.97 15.34 7.94 14.68 11 14 C11.33 12.35 11.66 10.7 12 9 C11.34 9 10.68 9 10 9 C10 9.99 10 10.98 10 12 C7.59 13.2 6.05 13.1 3.38 13.06 C2.97 13.06 2.97 13.06 0.9 13.04 C0.59 13.03 0.59 13.03 -1 13 C-1.03 11.58 -1.05 10.17 -1.06 8.75 C-1.07 7.96 -1.09 7.17 -1.1 6.36 C-1 4.09 -0.63 2.17 0 0 Z " fill="#6A6D65" transform="translate(60,30)"/>
<path d="M0 0 C0.66 0 1.32 0 2 0 C2 0.66 2 1.32 2 2 C2.66 2.33 3.32 2.66 4 3 C3.55 5.4 3.09 7.79 2.62 10.19 C2.56 10.52 2.56 10.52 2.24 12.23 C1.5 16.01 0.57 19.48 -1 23 C-1.66 23 -2.32 23 -3 23 C-3.66 26.3 -4.32 29.6 -5 33 C-5.99 33 -6.98 33 -8 33 C-8 30.03 -8 27.06 -8 24 C-8.99 24 -9.98 24 -11 24 C-11.11 24.65 -11.22 25.3 -11.33 25.98 C-12.27 31.12 -13.35 35.42 -16 40 C-17.32 39.67 -18.64 39.34 -20 39 C-19.96 39.95 -19.92 40.9 -19.88 41.88 C-20 45 -20 45 -22 47 C-23.94 46.94 -23.94 46.94 -26 46 C-28.4 42.79 -29.44 39.95 -30 36 C-30.39 35.94 -30.39 35.94 -32.38 35.62 C-35 35 -35 35 -37 33 C-38.49 28.01 -39.28 23.26 -39.66 18.08 C-40.04 15.75 -40.86 14.05 -42 12 C-41.34 12 -40.68 12 -40 12 C-40 11.34 -40 10.68 -40 10 C-40.66 10 -41.32 10 -42 10 C-42 9.34 -42 8.68 -42 8 C-41.34 8 -40.68 8 -40 8 C-40 7.34 -40 6.68 -40 6 C-39.34 6 -38.68 6 -38 6 C-37.63 6.97 -37.26 7.94 -36.88 8.94 C-35 12 -35 12 -31.81 12.88 C-31.35 12.9 -31.35 12.9 -29 13 C-28.67 13.99 -28.34 14.98 -28 16 C-26.35 16.33 -24.7 16.66 -23 17 C-23 18.32 -23 19.64 -23 21 C-22.34 21 -21.68 21 -21 21 C-20.67 18.03 -20.34 15.06 -20 12 C-19.34 12 -18.68 12 -18 12 C-17.67 13.98 -17.34 15.96 -17 18 C-15.68 17.67 -14.36 17.34 -13 17 C-13.33 14.36 -13.66 11.72 -14 9 C-13.34 8.67 -12.68 8.34 -12 8 C-11.34 11.3 -10.68 14.6 -10 18 C-9.84 17.5 -9.84 17.5 -9 15 C-8.01 14.67 -7.02 14.34 -6 14 C-4.99 12.67 -3.99 11.34 -3 10 C-2.34 10 -1.68 10 -1 10 C-0.67 6.7 -0.34 3.4 0 0 Z " fill="#92969E" transform="translate(80,100)"/>
<path d="M0 0 C1.12 2 1.12 2 2 4 C2.66 4.33 3.32 4.66 4 5 C2.68 5.33 1.36 5.66 0 6 C0.33 6.99 0.66 7.98 1 9 C0.67 9.16 0.67 9.16 -1 10 C-0.01 10.33 0.98 10.66 2 11 C2 11.66 2 12.32 2 13 C0.35 13.66 -1.3 14.32 -3 15 C-1.83 15 -0.67 14.97 0.5 14.94 C3 15 3 15 4 16 C6.19 16.07 8.38 16.08 10.56 16.06 C11.76 16.05 12.96 16.04 14.19 16.04 C14.65 16.03 14.65 16.03 17 16 C17 16.66 17 17.32 17 18 C15.35 18.33 13.7 18.66 12 19 C12 19.66 12 20.32 12 21 C13.65 20.67 15.3 20.34 17 20 C18.04 23.38 18.08 26.48 18 30 C19.32 29.67 20.64 29.34 22 29 C21.84 29.5 21.84 29.5 21 32 C18.61 31.42 16.33 30.78 14 30 C14.33 32.31 14.66 34.62 15 37 C15.99 36.67 16.98 36.34 18 36 C18.33 36.16 18.33 36.16 20 37 C20 39 20 39 18.5 40.62 C18.01 41.08 17.51 41.53 17 42 C17.99 42 18.98 42 20 42 C20.16 42.66 20.16 42.66 21 46 C21.99 46 22.98 46 24 46 C23.67 47.32 23.34 48.64 23 50 C20.63 49.31 20.63 49.31 18 48 C16.69 45.37 16.69 45.37 16 43 C15.84 43.33 15.84 43.33 15 45 C14.34 45 13.68 45 13 45 C13 44.01 13 43.02 13 42 C12.69 42.11 12.69 42.11 11.14 42.69 C10.33 42.98 9.52 43.27 8.69 43.56 C7.89 43.85 7.09 44.14 6.26 44.44 C4 45 4 45 1 44 C0.67 44.99 0.34 45.98 0 47 C-0.66 43.7 -1.32 40.4 -2 37 C-1.34 37 -0.68 37 0 37 C-0.66 32.71 -1.32 28.42 -2 24 C-2.12 25.11 -2.25 26.23 -2.38 27.38 C-3 31 -3 31 -5 33 C-5 33.66 -5 34.32 -5 35 C-5.66 35 -6.32 35 -7 35 C-7 34.34 -7 33.68 -7 33 C-7.66 33 -8.32 33 -9 33 C-9 32.34 -9 31.68 -9 31 C-9.66 31 -10.32 31 -11 31 C-10.67 29.02 -10.34 27.04 -10 25 C-9.34 25 -8.68 25 -8 25 C-8 24.34 -8 23.68 -8 23 C-8.66 23 -9.32 23 -10 23 C-10 22.34 -10 21.68 -10 21 C-9.34 21 -8.68 21 -8 21 C-8.33 19.02 -8.66 17.04 -9 15 C-10.32 15 -11.64 15 -13 15 C-13 13.35 -13 11.7 -13 10 C-14.32 10 -15.64 10 -17 10 C-17 9.01 -17 8.02 -17 7 C-16.01 7 -15.02 7 -14 7 C-14.09 6.61 -14.09 6.61 -14.56 4.62 C-15 2 -15 2 -14 0 C-12.91 0.02 -11.81 0.04 -10.69 0.06 C-0.27 -0.11 -0.27 -0.11 0 0 Z " fill="#6F6D61" transform="translate(30,60)"/>
<path d="M0 0 C2.64 0.66 5.28 1.32 8 2 C8 2.99 8 3.98 8 5 C8.99 5.33 9.98 5.66 11 6 C11 6.66 11 7.32 11 8 C10.01 8 9.02 8 8 8 C7.34 10.97 6.68 13.94 6 17 C6.66 17 7.32 17 8 17 C8.66 16.34 9.32 15.68 10 15 C9.67 17.64 9.34 20.28 9 23 C9.76 22.34 10.53 21.68 11.31 21 C14 19 14 19 17 19 C17.05 18.55 17.05 18.55 17.3 16.3 C17.45 15.13 17.6 13.96 17.75 12.75 C17.89 11.59 18.03 10.43 18.17 9.23 C19.09 5.65 20.18 4.31 23 2 C21.19 3.56 21.19 3.56 19 5 C18.01 4.67 17.02 4.34 16 4 C16.33 3.34 16.66 2.68 17 2 C17.99 2 18.98 2 20 2 C20 1.34 20 0.68 20 0 C21.65 0 23.3 0 25 0 C25 0.99 25 1.98 25 3 C25.66 3 26.32 3 27 3 C27 2.34 27 1.68 27 1 C27.66 1 28.32 1 29 1 C28.58 3.89 28.03 5.95 26.56 8.5 C25 12 24.51 14.72 24 18.5 C23.35 23.18 22.78 27.05 20 31 C19.32 31.28 18.64 31.56 17.95 31.85 C16 33 16 33 15.39 35.17 C15.34 36.02 15.3 36.87 15.25 37.75 C15.19 38.65 15.13 39.55 15.07 40.47 C15.02 42.38 15.05 44.28 15.12 46.19 C14.96 50 13.65 52.57 12 56 C11.34 56 10.68 56 10 56 C9.8 54.4 9.62 52.79 9.44 51.19 C9.33 50.29 9.23 49.4 9.12 48.48 C9 46 9 46 10 43 C9.06 40.81 9.06 40.81 8 39 C7.67 39.16 7.67 39.16 6 40 C5.34 39.67 4.68 39.34 4 39 C4 34.71 4 30.42 4 26 C4.66 26 5.32 26 6 26 C6.33 24.35 6.66 22.7 7 21 C6.01 21.33 5.02 21.66 4 22 C4 18.37 4 14.74 4 11 C3.01 10.67 2.02 10.34 1 10 C-0.81 5.94 -1.1 4.41 0 0 Z " fill="#C1B4A5" transform="translate(80,60)"/>
<path d="M0 0 C0.99 0 1.98 0 3 0 C3.33 0.66 3.66 1.32 4 2 C5.98 1.67 7.96 1.34 10 1 C10 1.66 10 2.32 10 3 C11.6 3.2 13.21 3.38 14.81 3.56 C15.71 3.67 16.6 3.77 17.52 3.88 C20 4 20 4 23 3 C25.33 2.96 27.67 2.96 30 3 C30.16 3.33 30.16 3.33 31 5 C31.99 5 32.98 5 34 5 C34 6.32 34 7.64 34 9 C33.01 9 32.02 9 31 9 C31 9.66 31 10.32 31 11 C30.34 11 29.68 11 29 11 C29 10.01 29 9.02 29 8 C27.35 8 25.7 8 24 8 C24 8.66 24 9.32 24 10 C23.01 10.66 22.02 11.32 21 12 C22.98 11.34 24.96 10.68 27 10 C26 13 26 13 24 14 C23.37 16.16 22.85 18.36 22.38 20.56 C22.24 21.16 22.24 21.16 21.59 24.19 C21.39 25.12 21.2 26.05 21 27 C19.35 27.33 17.7 27.66 16 28 C15.84 28.5 15.84 28.5 15 31 C14.34 31 13.68 31 13 31 C13 29.02 13 27.04 13 25 C11.68 25.33 10.36 25.66 9 26 C9.99 22.7 10.98 19.4 12 16 C12.99 16 13.98 16 15 16 C15 15.34 15 14.68 15 14 C13.68 13.67 12.36 13.34 11 13 C11 12.34 11 11.68 11 11 C8.69 10.01 6.38 9.02 4 8 C3.88 10.88 3.88 10.88 4 14 C4.66 14.66 5.32 15.32 6 16 C5.34 16.66 4.68 17.32 4 18 C1.38 17.62 1.38 17.62 -1 17 C-1 16.34 -1 15.68 -1 15 C-0.01 15 0.98 15 2 15 C2 14.34 2 13.68 2 13 C1.45 13.33 0.9 13.65 0.33 13.99 C-2.39 15.17 -4.31 15.2 -7.25 15.12 C-8.14 15.11 -9.03 15.09 -9.95 15.07 C-10.29 15.06 -10.29 15.06 -12 15 C-11.01 15.99 -10.02 16.98 -9 18 C-14.28 17.34 -19.56 16.68 -25 16 C-21.8 12.8 -17.34 12.14 -12.92 11.88 C-11.28 11.88 -9.64 11.93 -8 12 C-8.33 11.34 -8.66 10.68 -9 10 C-10.65 10 -12.3 10 -14 10 C-14.33 8.68 -14.66 7.36 -15 6 C-11.04 6 -7.08 6 -3 6 C-2.01 4.02 -1.02 2.04 0 0 Z " fill="#CAB985" transform="translate(76,52)"/>
<path d="M0 0 C2 1 4 2 6 3 C6.41 2.48 6.83 1.97 7.25 1.44 C7.83 0.96 8.41 0.49 9 0 C11.19 0.31 11.19 0.31 13 1 C11.35 1.33 9.7 1.66 8 2 C8 2.99 8 3.98 8 5 C9.98 5 11.96 5 14 5 C14.33 5.99 14.66 6.98 15 8 C15.66 8.33 16.32 8.66 17 9 C16.34 9 15.68 9 15 9 C15 9.66 15 10.32 15 11 C14.71 10.88 14.71 10.88 13.25 10.25 C12.51 10.17 11.77 10.09 11 10 C8.75 11.94 8.75 11.94 7 14 C15.57 15.29 15.57 15.29 19 14 C19 14.66 19 15.32 19 16 C17.68 16.33 16.36 16.66 15 17 C15 17.66 15 18.32 15 19 C14.47 19.07 14.47 19.07 11.81 19.44 C9.74 19.74 7.67 20.07 5.62 20.5 C3.23 20.96 0.86 21.32 -1.56 21.62 C-2.31 21.72 -3.05 21.82 -3.82 21.91 C-6.09 22 -7.84 21.66 -10 21 C-10 23.31 -10 25.62 -10 28 C-10.99 28 -11.98 28 -13 28 C-13.33 28.99 -13.66 29.98 -14 31 C-15.02 28.01 -15.84 25.17 -16 22 C-13.75 19.06 -13.75 19.06 -11 17 C-10.34 16.34 -9.68 15.68 -9 15 C-7.68 15 -6.36 15 -5 15 C-5 14.34 -5 13.68 -5 13 C-4.01 12.67 -3.02 12.34 -2 12 C-2.99 11.34 -3.98 10.68 -5 10 C-4.25 5.25 -4.25 5.25 -2 3 C-1.34 2.01 -0.68 1.02 0 0 Z M7 6 C7 6.99 7 7.98 7 9 C7.66 8.34 8.32 7.68 9 7 C8.34 6.67 7.68 6.34 7 6 Z " fill="#B1A57A" transform="translate(26,39)"/>
<path d="M0 0 C1.32 0 2.64 0 4 0 C4.27 1.11 4.54 2.23 4.81 3.38 C6 7 6 7 9 9 C9 9.66 9 10.32 9 11 C10.65 11.66 12.3 12.32 14 13 C14 13.66 14 14.32 14 15 C9.13 14.55 6.61 13.29 3 10 C2.34 11.98 1.68 13.96 1 16 C2.32 16 3.64 16 5 16 C5.33 17.65 5.66 19.3 6 21 C6.66 21 7.32 21 8 21 C8 20.34 8 19.68 8 19 C9.32 18.67 10.64 18.34 12 18 C12.66 19.32 13.32 20.64 14 22 C12.02 22.33 10.04 22.66 8 23 C8.66 24.65 9.32 26.3 10 28 C10.66 28 11.32 28 12 28 C12 28.99 12 29.98 12 31 C11.34 31 10.68 31 10 31 C10 30.34 10 29.68 10 29 C7.69 29.66 5.38 30.32 3 31 C3.33 30.01 3.66 29.02 4 28 C0.65 28.95 -2.69 29.9 -6 31 C-6.33 29.68 -6.66 28.36 -7 27 C-7.99 27 -8.98 27 -10 27 C-9.84 26.51 -9.84 26.51 -9 24 C-6.06 22.82 -5.1 22.97 -2 24 C-2 23.34 -2 22.68 -2 22 C-0.68 21.67 0.64 21.34 2 21 C2 20.34 2 19.68 2 19 C1.42 19.35 0.84 19.7 0.25 20.06 C-2.43 21.18 -3.31 20.93 -6 20 C-6.74 19.81 -7.48 19.63 -8.25 19.44 C-8.83 19.29 -9.41 19.15 -10 19 C-9.25 17.06 -9.25 17.06 -8 15 C-6 14.12 -6 14.12 -4 14 C-3.34 14.66 -2.68 15.32 -2 16 C-2.33 14.35 -2.66 12.7 -3 11 C-3.99 10.84 -3.99 10.84 -9 10 C-9 9.01 -9 8.02 -9 7 C-5.63 5.5 -3.8 5 0 5 C0 3.35 0 1.7 0 0 Z " fill="#4E5651" transform="translate(43,34)"/>
<path d="M0 0 C0.33 0 0.66 0 1 0 C1.33 2.31 1.66 4.62 2 7 C2.66 7 3.32 7 4 7 C3.67 8.65 3.34 10.3 3 12 C2.34 12 1.68 12 1 12 C1 16.29 1 20.58 1 25 C1.66 25 2.32 25 3 25 C2.67 25.99 2.34 26.98 2 28 C1.01 28 0.02 28 -1 28 C-1 27.34 -1 26.68 -1 26 C-1.66 26 -2.32 26 -3 26 C-2.88 27.18 -2.75 28.35 -2.62 29.56 C-2.6 34.18 -4.38 36.41 -7.39 39.75 C-9 41 -9 41 -12 41 C-12.17 41.83 -12.17 41.83 -13 46 C-13.33 46 -13.66 46 -14 46 C-14.37 43.94 -14.72 41.88 -15.06 39.81 C-15.16 39.24 -15.16 39.24 -15.66 36.33 C-15.98 33.17 -15.73 31.06 -15 28 C-14.94 26.56 -14.91 25.12 -14.94 23.69 C-14.96 22.47 -14.98 21.25 -15 20 C-15.66 20.33 -16.32 20.66 -17 21 C-17 19.35 -17 17.7 -17 16 C-15.35 16 -13.7 16 -12 16 C-11.67 19.3 -11.34 22.6 -11 26 C-10.67 25.01 -10.34 24.02 -10 23 C-7.44 21.81 -7.44 21.81 -5 21 C-4.88 19.93 -4.75 18.86 -4.62 17.75 C-4 14 -4 14 -3 12.06 C-1.87 9.73 -1.64 7.89 -1.44 5.31 C-1.1 1.1 -1.1 1.1 0 0 Z " fill="#979798" transform="translate(83,74)"/>
<path d="M0 0 C3.63 3.42 5 7.15 6 12 C6 12.66 6 13.32 6 14 C8 15.62 8 15.62 10 17 C9.67 18.98 9.34 20.96 9 23 C9.99 22.34 10.98 21.68 12 21 C12.66 21.33 13.32 21.66 14 22 C13.67 23.65 13.34 25.3 13 27 C16.63 26.67 20.26 26.34 24 26 C24 25.01 24 24.02 24 23 C24.66 23 25.32 23 26 23 C25.81 25.38 25.81 25.38 25 28 C21.72 29.86 19.83 30 16 30 C16 30.99 16 31.98 16 33 C15.01 33 14.02 33 13 33 C12.75 32.05 12.5 31.1 12.25 30.12 C11 27 11 27 8.88 25.62 C8.26 25.42 7.64 25.21 7 25 C7 25.66 7 26.32 7 27 C8.32 27.33 9.64 27.66 11 28 C11 28.66 11 29.32 11 30 C9.35 29.67 7.7 29.34 6 29 C6 28.34 6 27.68 6 27 C5.36 26.77 4.72 26.55 4.06 26.31 C2 25 2 25 1.25 22.5 C1 20 1 20 1 18 C-0.32 18 -1.64 18 -3 18 C-3 19.65 -3 21.3 -3 23 C-4.88 22.69 -4.88 22.69 -7 22 C-9 19 -9 19 -8.88 16.94 C-7.74 14.43 -6.51 13.97 -4 13 C-4.33 11.68 -4.66 10.36 -5 9 C-4.34 8.67 -3.68 8.34 -3 8 C-2.15 6.15 -2.15 6.15 -1.38 3.94 C-1.11 3.2 -0.85 2.47 -0.59 1.71 C-0.39 1.15 -0.2 0.58 0 0 Z " fill="#A3A396" transform="translate(46,16)"/>
<path d="M0 0 C2.31 0 4.62 0 7 0 C7 0.99 7 1.98 7 3 C7.5 2.98 7.5 2.98 10.02 2.88 C14.19 3.01 17.62 3.76 21.62 4.88 C22.9 5.22 24.17 5.57 25.48 5.93 C28.4 6.82 31.19 7.8 34 9 C34 9.66 34 10.32 34 11 C32.02 11 30.04 11 28 11 C28 11.66 28 12.32 28 13 C27.34 13 26.68 13 26 13 C26 14.98 26 16.96 26 19 C25.67 19.16 25.67 19.16 24 20 C24 18.02 24 16.04 24 14 C23.34 14 22.68 14 22 14 C21.84 13.34 21.84 13.34 21 10 C19.02 10 17.04 10 15 10 C15.33 11.65 15.66 13.3 16 15 C11.81 15.95 9.71 16.18 6 14 C5.01 14 4.02 14 3 14 C3 13.34 3 12.68 3 12 C4.65 11.67 6.3 11.34 8 11 C8 10.34 8 9.68 8 9 C7.07 9.08 6.15 9.17 5.19 9.25 C3.99 9.36 2.8 9.46 1.56 9.56 C0.97 9.61 0.97 9.61 -2.06 9.88 C-3.03 9.92 -4 9.96 -5 10 C-5.33 9.67 -5.66 9.34 -6 9 C-10.53 8.77 -10.53 8.77 -13 10 C-12 7 -12 7 -9.06 5.31 C-6 4 -6 4 -4 4 C-4 4.99 -4 5.98 -4 7 C-3.34 6.67 -2.68 6.34 -2 6 C-2 5.34 -2 4.68 -2 4 C-0.02 4 1.96 4 4 4 C4 3.34 4 2.68 4 2 C2.68 2.33 1.36 2.66 0 3 C0 2.01 0 1.02 0 0 Z " fill="#C6AE7A" transform="translate(39,67)"/>
<path d="M0 0 C1.32 0 2.64 0 4 0 C4 1.65 4 3.3 4 5 C5.32 5 6.64 5 8 5 C8.33 6.98 8.66 8.96 9 11 C8.34 11 7.68 11 7 11 C7 11.66 7 12.32 7 13 C7.66 13 8.32 13 9 13 C9 13.66 9 14.32 9 15 C8.34 15 7.68 15 7 15 C6.67 16.98 6.34 18.96 6 21 C6.66 21 7.32 21 8 21 C8 21.66 8 22.32 8 23 C8.66 23 9.32 23 10 23 C10 23.66 10 24.32 10 25 C10.66 25 11.32 25 12 25 C11.67 24.01 11.34 23.02 11 22 C11.99 21.67 12.98 21.34 14 21 C14 18.36 14 15.72 14 13 C14.66 13.33 15.32 13.66 16 14 C16.7 16.87 16.7 16.87 17.25 20.44 C17.44 21.61 17.63 22.79 17.83 24 C17.88 24.99 17.94 25.98 18 27 C17.34 27.66 16.68 28.32 16 29 C16.66 30.65 17.32 32.3 18 34 C19.98 34 21.96 34 24 34 C23.98 34.91 23.96 35.81 23.94 36.75 C24 40 24 40 24.56 42.12 C25.11 44.47 24.64 45.68 24 48 C23.62 50.66 23.31 53.33 23 56 C22.01 56 21.02 56 20 56 C18.45 52.19 17.84 48.75 17.56 44.69 C17.17 39.43 15.92 34.89 14 30 C13.34 32.31 12.68 34.62 12 37 C11.34 37 10.68 37 10 37 C9.95 36.63 9.95 36.63 9.7 34.77 C8.79 28.84 7.82 25.68 4 21 C3.33 18.02 3.18 15.04 3 12 C2.87 10.37 2.72 8.75 2.56 7.12 C2.5 6.41 2.44 5.69 2.38 4.95 C2 3 2 3 0 0 Z " fill="#A9AEB5" transform="translate(13,70)"/>
<path d="M0 0 C2.64 0 5.28 0 8 0 C8 0.66 8 1.32 8 2 C6.35 2.33 4.7 2.66 3 3 C3 3.66 3 4.32 3 5 C4.65 4.67 6.3 4.34 8 4 C9.04 7.38 9.08 10.48 9 14 C10.32 13.67 11.64 13.34 13 13 C12.67 13.99 12.34 14.98 12 16 C9.61 15.42 7.33 14.78 5 14 C5.33 16.31 5.66 18.62 6 21 C6.99 20.67 7.98 20.34 9 20 C9.66 20.33 10.32 20.66 11 21 C11 23 11 23 9.5 24.62 C9.01 25.08 8.51 25.53 8 26 C8.99 26 9.98 26 11 26 C11.33 27.32 11.66 28.64 12 30 C12.99 30 13.98 30 15 30 C14.67 31.32 14.34 32.64 14 34 C11.62 33.31 11.62 33.31 9 32 C7.69 29.38 7.69 29.38 7 27 C6.67 27.66 6.34 28.32 6 29 C5.34 29 4.68 29 4 29 C4 28.01 4 27.02 4 26 C2.02 26.66 0.04 27.32 -2 28 C-2.33 27.34 -2.66 26.68 -3 26 C-3.99 26 -4.98 26 -6 26 C-6 25.01 -6 24.02 -6 23 C-4.68 23 -3.36 23 -2 23 C-2.08 21.9 -2.17 20.81 -2.25 19.68 C-2.36 18.22 -2.46 16.77 -2.56 15.31 C-2.59 14.95 -2.59 14.95 -2.73 13.13 C-3 9.23 -3.01 5.79 -2 2 C-1.34 2 -0.68 2 0 2 C0 1.34 0 0.68 0 0 Z " fill="#6E6554" transform="translate(39,76)"/>
<path d="M0 0 C2 3 2 3 2 6 C5.38 4.81 7.65 3.72 10 1 C12 2.81 12 2.81 14 5 C14 5.99 14 6.98 14 8 C14.99 8.16 14.99 8.16 20 9 C19.67 9.99 19.34 10.98 19 12 C18.34 11.67 17.68 11.34 17 11 C18.5 15.76 18.5 15.76 20 18 C23.69 19.44 23.69 19.44 27 20 C27 20.99 27 21.98 27 23 C24.36 23.66 21.72 24.32 19 25 C19 24.01 19 23.02 19 22 C18.01 22.66 17.02 23.32 16 24 C15.34 24.33 14.68 24.66 14 25 C14 26.32 14 27.64 14 29 C12.06 28.69 12.06 28.69 10 28 C9.67 27.01 9.34 26.02 9 25 C9.66 25 10.32 25 11 25 C11 24.34 11 23.68 11 23 C11.99 23 12.98 23 14 23 C13.67 20.69 13.34 18.38 13 16 C12.65 16.52 12.3 17.03 11.94 17.56 C10 19 10 19 6.31 18.69 C5.22 18.46 4.13 18.23 3 18 C2.67 18.99 2.34 19.98 2 21 C1.67 20.34 1.34 19.68 1 19 C1.33 18.01 1.66 17.02 2 16 C4.07 15.27 4.07 15.27 6.56 14.81 C7.39 14.65 8.22 14.5 9.07 14.33 C9.7 14.22 10.34 14.11 11 14 C11.33 12.35 11.66 10.7 12 9 C11.34 9 10.68 9 10 9 C10 9.99 10 10.98 10 12 C7.59 13.2 6.05 13.1 3.38 13.06 C2.97 13.06 2.97 13.06 0.9 13.04 C0.59 13.03 0.59 13.03 -1 13 C-1.03 11.58 -1.05 10.17 -1.06 8.75 C-1.07 7.96 -1.09 7.17 -1.1 6.36 C-1 4.09 -0.63 2.17 0 0 Z " fill="#8F8977" transform="translate(60,30)"/>
<path d="M0 0 C0.66 0 1.32 0 2 0 C2 0.66 2 1.32 2 2 C2.66 2.33 3.32 2.66 4 3 C3.55 5.4 3.09 7.79 2.62 10.19 C2.56 10.52 2.56 10.52 2.24 12.23 C1.5 16.01 0.57 19.48 -1 23 C-1.66 23 -2.32 23 -3 23 C-3.66 26.3 -4.32 29.6 -5 33 C-5.99 33 -6.98 33 -8 33 C-8 30.03 -8 27.06 -8 24 C-8.99 24 -9.98 24 -11 24 C-11.33 24.99 -11.66 25.98 -12 27 C-12 26.34 -12 25.68 -12 25 C-12.66 25 -13.32 25 -14 25 C-14 24.01 -14 23.02 -14 22 C-15.32 22.16 -15.32 22.16 -22 23 C-21.34 19.37 -20.68 15.74 -20 12 C-19.34 12 -18.68 12 -18 12 C-17.67 13.98 -17.34 15.96 -17 18 C-15.68 17.67 -14.36 17.34 -13 17 C-13.33 14.36 -13.66 11.72 -14 9 C-13.34 8.67 -12.68 8.34 -12 8 C-11.34 11.3 -10.68 14.6 -10 18 C-9.67 17.01 -9.34 16.02 -9 15 C-8.01 14.67 -7.02 14.34 -6 14 C-4.99 12.67 -3.99 11.34 -3 10 C-2.34 10 -1.68 10 -1 10 C-0.67 6.7 -0.34 3.4 0 0 Z " fill="#DBD1C8" transform="translate(80,100)"/>
<path d="M0 0 C-0.33 1.32 -0.66 2.64 -1 4 C-0.34 4 0.32 4 1 4 C1.33 5.65 1.66 7.3 2 9 C2.33 7.35 2.66 5.7 3 4 C3.66 4 4.32 4 5 4 C4.81 12.94 4.81 12.94 1.62 17.12 C-1 19 -1 19 -4 19 C-4.33 18.34 -4.66 17.68 -5 17 C-6.65 17 -8.3 17 -10 17 C-10 17.66 -10 18.32 -10 19 C-10.99 18.67 -11.98 18.34 -13 18 C-13.33 17.01 -13.66 16.02 -14 15 C-13.01 14.67 -12.02 14.34 -11 14 C-10.67 13.34 -10.34 12.68 -10 12 C-11.32 12.33 -12.64 12.66 -14 13 C-14.62 10.12 -14.62 10.12 -15 7 C-13 5 -13 5 -9.88 4.88 C-8.93 4.92 -7.98 4.96 -7 5 C-7.33 3.35 -7.66 1.7 -8 0 C-4.71 -1.1 -3.29 -0.8 0 0 Z " fill="#797775" transform="translate(62,77)"/>
<path d="M0 0 C0.99 0 1.98 0 3 0 C3.76 -0.04 4.53 -0.08 5.31 -0.12 C8.48 0.02 11.04 0.9 14 2 C13.67 2.17 13.67 2.17 12 3 C11.87 10.38 12.36 17.64 13 25 C11.35 24.67 9.7 24.34 8 24 C8.33 24.66 8.66 25.32 9 26 C9.99 26.33 10.98 26.66 12 27 C12 27.66 12 28.32 12 29 C9 30 9 30 6 29 C5.67 29.99 5.34 30.98 5 32 C4.34 28.7 3.68 25.4 3 22 C3.66 22 4.32 22 5 22 C4.74 19.91 4.47 17.83 4.19 15.75 C4.11 15.17 4.11 15.17 3.73 12.23 C2.99 8.97 2.08 7.53 0 5 C-0.19 2.25 -0.19 2.25 0 0 Z " fill="#817B6E" transform="translate(25,75)"/>
<path d="M0 0 C0.33 0.66 0.66 1.32 1 2 C8.18 3.27 8.18 3.27 12 2 C15.19 3.69 15.19 3.69 18 6 C18 7.32 18 8.64 18 10 C19.65 10.66 21.3 11.32 23 12 C23 12.66 23 13.32 23 14 C23.66 14.33 24.32 14.66 25 15 C24.01 15.33 23.02 15.66 22 16 C22 15.01 22 14.02 22 13 C20.52 13.14 19.04 13.29 17.56 13.44 C17.15 13.48 17.15 13.48 15.07 13.68 C13 14 13 14 12 15 C8.5 14.61 5.34 14.11 2 13 C2.06 12.24 2.12 11.47 2.19 10.69 C2 8 2 8 0.44 6.5 C-0.04 6.01 -0.51 5.51 -1 5 C-0.69 2.31 -0.69 2.31 0 0 Z " fill="#CFC3A0" transform="translate(84,42)"/>
<path d="M0 0 C2.64 0.66 5.28 1.32 8 2 C8 2.99 8 3.98 8 5 C8.99 5.33 9.98 5.66 11 6 C11 6.66 11 7.32 11 8 C10.01 8 9.02 8 8 8 C7.34 10.97 6.68 13.94 6 17 C6.66 17 7.32 17 8 17 C8.66 16.34 9.32 15.68 10 15 C9.86 16.73 9.71 18.46 9.56 20.19 C9.48 21.15 9.4 22.11 9.32 23.11 C9.02 25.79 8.57 28.37 8 31 C8.66 31 9.32 31 10 31 C9.84 31.5 9.84 31.5 9 34 C8.34 34 7.68 34 7 34 C7 34.99 7 35.98 7 37 C7.99 37 8.98 37 10 37 C10 38.65 10 40.3 10 42 C9.34 41.01 8.68 40.02 8 39 C7.67 39.16 7.67 39.16 6 40 C5.34 39.67 4.68 39.34 4 39 C4 34.71 4 30.42 4 26 C4.66 26 5.32 26 6 26 C6.33 24.35 6.66 22.7 7 21 C6.01 21.33 5.02 21.66 4 22 C4 18.37 4 14.74 4 11 C3.01 10.67 2.02 10.34 1 10 C-0.81 5.94 -1.1 4.41 0 0 Z " fill="#C7B9A9" transform="translate(80,60)"/>
<path d="M0 0 C0.99 0.17 0.99 0.17 6 1 C4.34 14.2 4.34 14.2 1 20 C0.88 20.91 0.75 21.81 0.62 22.75 C0.42 23.49 0.21 24.23 0 25 C-1.67 25.67 -3.33 26.33 -5 27 C-5.81 29.62 -5.81 29.62 -6 32 C-6.33 32 -6.66 32 -7 32 C-7 29.69 -7 27.38 -7 25 C-5.68 24.67 -4.36 24.34 -3 24 C-3.99 21.69 -4.98 19.38 -6 17 C-6.66 17.33 -6.66 17.33 -10 19 C-10 16.69 -10 14.38 -10 12 C-9.01 11.67 -8.02 11.34 -7 11 C-6.67 11.66 -6.34 12.32 -6 13 C-5.34 11.02 -4.68 9.04 -4 7 C-2.54 9.65 -2 10.89 -2 14 C-1.86 12.99 -1.71 11.98 -1.56 10.94 C-1.3 9.11 -1.3 9.11 0 0 Z " fill="#76736D" transform="translate(78,70)"/>
<path d="M0 0 C0 0.66 0 1.32 0 2 C8.57 2.29 8.57 2.29 12 0 C11 3 11 3 9 4 C8.37 6.16 7.85 8.36 7.38 10.56 C7.11 11.76 6.85 12.96 6.59 14.19 C6.39 15.12 6.2 16.05 6 17 C4.35 17.33 2.7 17.66 1 18 C0.67 18.99 0.34 19.98 0 21 C-0.66 21 -1.32 21 -2 21 C-2 19.02 -2 17.04 -2 15 C-3.32 15.33 -4.64 15.66 -6 16 C-5.01 12.7 -4.02 9.4 -3 6 C-2.01 6 -1.02 6 0 6 C0 5.34 0 4.68 0 4 C-1.32 3.67 -2.64 3.34 -4 3 C-4 2.34 -4 1.68 -4 1 C-2 0 -2 0 0 0 Z " fill="#8B8480" transform="translate(91,62)"/>
<path d="M0 0 C0.99 0.33 1.98 0.66 3 1 C2.72 2.42 2.42 3.83 2.12 5.25 C1.96 6.04 1.8 6.83 1.63 7.64 C1.01 9.97 0.15 11.89 -1 14 C-2.32 13.67 -3.64 13.34 -5 13 C-4.98 13.47 -4.98 13.47 -4.88 15.88 C-5 19 -5 19 -7 21 C-8.94 20.94 -8.94 20.94 -11 20 C-13.99 16.24 -14.54 12.71 -15 8 C-14.34 8 -13.68 8 -13 8 C-13 7.34 -13 6.68 -13 6 C-12.34 6 -11.68 6 -11 6 C-10.34 7.32 -9.68 8.64 -9 10 C-8.67 8.68 -8.34 7.36 -8 6 C-7.34 6 -6.68 6 -6 6 C-5.67 4.68 -5.34 3.36 -5 2 C-4.34 2 -3.68 2 -3 2 C-3.33 3.98 -3.66 5.96 -4 8 C-1.85 5.38 -0.6 3.36 0 0 Z " fill="#D6D3D2" transform="translate(65,126)"/>
<path d="M0 0 C1.65 0 3.3 0 5 0 C5.33 4.62 5.66 9.24 6 14 C6.66 13.67 7.32 13.34 8 13 C8.66 13.33 9.32 13.66 10 14 C10 13.34 10 12.68 10 12 C11.32 11.67 12.64 11.34 14 11 C14.42 14.43 14.61 17 12.77 20.02 C11.25 21.86 9.86 23.51 8 25 C7.01 25 6.02 25 5 25 C4.67 26.65 4.34 28.3 4 30 C3.67 30 3.34 30 3 30 C2.63 27.94 2.28 25.88 1.94 23.81 C1.74 22.66 1.54 21.52 1.34 20.33 C1.02 17.17 1.27 15.06 2 12 C2.06 10.56 2.09 9.12 2.06 7.69 C2.04 6.47 2.02 5.25 2 4 C1.67 4.17 1.67 4.17 0 5 C0 3.35 0 1.7 0 0 Z " fill="#B1ACAA" transform="translate(66,90)"/>
<path d="M0 0 C0.66 0.99 1.32 1.98 2 3 C2.66 2.67 3.32 2.34 4 2 C4.19 7.84 3.78 12.95 2.44 18.64 C1.97 21.14 1.93 23.46 2 26 C0.68 26.33 -0.64 26.66 -2 27 C-2.33 25.02 -2.66 23.04 -3 21 C-3.66 21 -4.32 21 -5 21 C-4.96 22.11 -4.92 23.23 -4.88 24.38 C-5 28 -5 28 -7 30 C-8.21 21.91 -8.21 21.91 -7 18 C-6.96 16.33 -6.95 14.67 -7 13 C-6.34 12.67 -5.68 12.34 -5 12 C-4.67 12.99 -4.34 13.98 -4 15 C-1.95 9.91 -0.57 5.45 0 0 Z " fill="#A29C97" transform="translate(65,91)"/>
<path d="M0 0 C2 1 4 2 6 3 C6.41 2.48 6.83 1.97 7.25 1.44 C7.54 1.2 7.54 1.2 9 0 C11.19 0.31 11.19 0.31 13 1 C11.35 1.33 9.7 1.66 8 2 C8 2.99 8 3.98 8 5 C9.98 5 11.96 5 14 5 C14.33 5.99 14.66 6.98 15 8 C15.66 8.33 16.32 8.66 17 9 C16.34 9 15.68 9 15 9 C15 9.66 15 10.32 15 11 C14.42 10.77 13.84 10.55 13.25 10.31 C12.88 10.26 12.88 10.26 11 10 C10.44 10.47 9.89 10.95 9.31 11.44 C5.85 13.78 2.07 13.76 -2 13 C-3.79 11.64 -3.79 11.64 -5 10 C-4.76 6.66 -4.39 5.39 -2 3 C-1.34 2.01 -0.68 1.02 0 0 Z M7 6 C7 6.99 7 7.98 7 9 C7.66 8.34 8.32 7.68 9 7 C8.34 6.67 7.68 6.34 7 6 Z " fill="#A9AA9B" transform="translate(26,39)"/>
<path d="M0 0 C0.33 0.66 0.66 1.32 1 2 C3.18 2.45 3.18 2.45 5.88 2.69 C6.32 2.73 6.32 2.73 8.55 2.95 C11 3 11 3 14 2 C16.33 1.96 18.67 1.96 21 2 C21.33 2.66 21.66 3.32 22 4 C22.99 4 23.98 4 25 4 C25 5.32 25 6.64 25 8 C24.01 8 23.02 8 22 8 C22 8.66 22 9.32 22 10 C21.34 10 20.68 10 20 10 C20 9.01 20 8.02 20 7 C18.35 7 16.7 7 15 7 C15 7.66 15 8.32 15 9 C11.87 10.86 9.63 11.2 6 11 C6 10.34 6 9.68 6 9 C5.01 9.33 4.02 9.66 3 10 C0.31 9.06 0.31 9.06 -2 8 C-2 7.34 -2 6.68 -2 6 C0.64 6.33 3.28 6.66 6 7 C6 6.34 6 5.68 6 5 C3.03 4.67 0.06 4.34 -3 4 C-2.01 3.67 -1.02 3.34 0 3 C0 2.01 0 1.02 0 0 Z " fill="#C3AE73" transform="translate(85,53)"/>
<path d="M0 0 C2 3 2 3 2 6 C5.38 4.81 7.65 3.72 10 1 C12 2.81 12 2.81 14 5 C14 5.99 14 6.98 14 8 C14.99 8.16 14.99 8.16 20 9 C19.67 9.99 19.34 10.98 19 12 C18.01 11.34 17.02 10.68 16 10 C16 10.99 16 11.98 16 13 C14.68 13 13.36 13 12 13 C12 11.68 12 10.36 12 9 C11.34 9 10.68 9 10 9 C10 9.99 10 10.98 10 12 C7.59 13.2 6.05 13.1 3.38 13.06 C2.97 13.06 2.97 13.06 0.9 13.04 C0.59 13.03 0.59 13.03 -1 13 C-1.03 11.58 -1.05 10.17 -1.06 8.75 C-1.07 7.96 -1.09 7.17 -1.1 6.36 C-1 4.09 -0.63 2.17 0 0 Z " fill="#6B6E65" transform="translate(60,30)"/>
<path d="M0 0 C1.65 0 3.3 0 5 0 C5.33 1.98 5.66 3.96 6 6 C6.66 6 7.32 6 8 6 C8 7.65 8 9.3 8 11 C9.32 10.67 10.64 10.34 12 10 C13.58 13.17 13.29 16.54 13 20 C12 22.5 12 22.5 11 24 C8.13 23.43 7.14 23.14 5 21 C3.51 16.01 2.72 11.26 2.34 6.08 C1.96 3.75 1.14 2.05 0 0 Z " fill="#BBC1CC" transform="translate(38,112)"/>
<path d="M0 0 C1.88 0.25 1.88 0.25 4 1 C5.12 3 5.12 3 6 5 C6.66 5.33 7.32 5.66 8 6 C8 5.34 8 4.68 8 4 C9.65 3.67 11.3 3.34 13 3 C15.06 7.37 15.06 7.37 14.81 9.88 C13.63 12.96 12.34 15.98 11 19 C10.67 18.01 10.34 17.02 10 16 C9.01 16 8.02 16 7 16 C6.67 14.68 6.34 13.36 6 12 C5.01 12 4.02 12 3 12 C3.33 11.01 3.66 10.02 4 9 C4.66 9 5.32 9 6 9 C6 8.34 6 7.68 6 7 C4.68 6.67 3.36 6.34 2 6 C1.67 6.66 1.34 7.32 1 8 C0 7 0 7 -0.06 3.44 C-0.04 2.3 -0.02 1.17 0 0 Z " fill="#938A84" transform="translate(44,90)"/>
<path d="M0 0 C4.8 2.46 4.8 2.46 5.81 5.19 C5.87 5.79 5.94 6.38 6 7 C6.78 6.94 7.57 6.88 8.38 6.81 C8.81 6.84 8.81 6.84 11 7 C13 10 13 10 12.62 12.69 C12.42 13.45 12.21 14.21 12 15 C11.01 15 10.02 15 9 15 C8.8 18.72 8.85 19.77 11 23 C7.69 22.5 7.69 22.5 4 21 C2.49 18.46 1.7 15.86 1 13 C1.99 13.33 2.98 13.66 4 14 C4.33 13.34 4.66 12.68 5 12 C3.35 11.67 1.7 11.34 0 11 C0 10.01 0 9.02 0 8 C0.99 7.67 1.98 7.34 3 7 C3 6.01 3 5.02 3 4 C2.01 4 1.02 4 0 4 C0 2.68 0 1.36 0 0 Z " fill="#B0AE9E" transform="translate(75,27)"/>
<path d="M0 0 C1.88 3.27 2.49 6.28 3 10 C3.33 9.01 3.66 8.02 4 7 C5.32 7.66 6.64 8.32 8 9 C7.67 12.3 7.34 15.6 7 19 C6.67 18.01 6.34 17.02 6 16 C4.68 16 3.36 16 2 16 C1.67 16.99 1.34 17.98 1 19 C1 18.34 1 17.68 1 17 C0.34 17 -0.32 17 -1 17 C-1 16.01 -1 15.02 -1 14 C-3.64 14.33 -6.28 14.66 -9 15 C-8.34 11.37 -7.68 7.74 -7 4 C-6.34 4 -5.68 4 -5 4 C-4.67 5.98 -4.34 7.96 -4 10 C-2.68 9.67 -1.36 9.34 0 9 C-0.19 7.7 -0.37 6.4 -0.56 5.06 C-0.88 2.85 -0.88 2.85 -1 1 C-0.67 0.67 -0.34 0.34 0 0 Z " fill="#CBC0B7" transform="translate(67,108)"/>
<path d="M0 0 C3.3 0 6.6 0 10 0 C9.34 4.62 8.68 9.24 8 14 C7.34 14 6.68 14 6 14 C5.67 14.99 5.34 15.98 5 17 C5 16.34 5 15.68 5 15 C3.68 15 2.36 15 1 15 C1 13.35 1 11.7 1 10 C-0.32 10 -1.64 10 -3 10 C-3 9.01 -3 8.02 -3 7 C-2.01 7 -1.02 7 0 7 C-0.09 6.61 -0.09 6.61 -0.56 4.62 C-1 2 -1 2 0 0 Z " fill="#7D7A67" transform="translate(16,60)"/>
<path d="M0 0 C3.62 -0.19 3.62 -0.19 7 0 C7 0.99 7 1.98 7 3 C7.66 3 8.32 3 9 3 C8.67 3.66 8.34 4.32 8 5 C7.34 4.67 6.68 4.34 6 4 C5.92 4.74 5.84 5.48 5.75 6.25 C4.86 9.51 3.51 10.81 1 13 C1.58 10.61 2.22 8.33 3 6 C2.67 6.16 2.67 6.16 1 7 C0.67 7.99 0.34 8.98 0 10 C-0.66 10 -1.32 10 -2 10 C-2 11.65 -2 13.3 -2 15 C-2.99 14.34 -3.98 13.68 -5 13 C-5 12.01 -5 11.02 -5 10 C-5.66 10 -6.32 10 -7 10 C-7 10.66 -7 11.32 -7 12 C-8.32 11.34 -9.64 10.68 -11 10 C-10.01 10 -9.02 10 -8 10 C-8 7.36 -8 4.72 -8 2 C-7.67 3.32 -7.34 4.64 -7 6 C-6.77 5.75 -6.77 5.75 -5.62 4.5 C-4 3 -4 3 -2 3 C-1.34 2.01 -0.68 1.02 0 0 Z " fill="#A7A9B0" transform="translate(59,122)"/>
<path d="M0 0 C2.44 0.75 2.44 0.75 5 2 C5.81 4.12 5.81 4.12 6 6 C6.78 5.48 7.57 4.97 8.38 4.44 C8.81 4.2 8.81 4.2 11 3 C11.66 3.33 12.32 3.66 13 4 C12.67 5.65 12.34 7.3 12 9 C13.81 8.84 13.81 8.84 23 8 C23 7.01 23 6.02 23 5 C23.66 5 24.32 5 25 5 C24.81 7.38 24.81 7.38 24 10 C20.72 11.86 18.83 12 15 12 C15 12.99 15 13.98 15 15 C14.01 15 13.02 15 12 15 C11.75 14.05 11.51 13.1 11.25 12.12 C10 9 10 9 7.88 7.62 C7.26 7.42 6.64 7.21 6 7 C6 7.66 6 8.32 6 9 C7.32 9.33 8.64 9.66 10 10 C10 10.66 10 11.32 10 12 C8.35 11.67 6.7 11.34 5 11 C5 10.34 5 9.68 5 9 C4.36 8.77 3.72 8.55 3.06 8.31 C1 7 1 7 0.25 4.5 C0 2 0 2 0 0 Z " fill="#AD9F71" transform="translate(47,34)"/>
<path d="M0 0 C2.87 0.57 3.86 0.86 6 3 C6.2 5.16 6.2 5.16 6.12 7.62 C6.11 8.44 6.09 9.26 6.07 10.1 C6.05 10.73 6.02 11.35 6 12 C6.99 12 7.98 12 9 12 C9 12.66 9 13.32 9 14 C8.37 13.86 7.75 13.71 7.1 13.56 C6.28 13.38 5.47 13.19 4.62 13 C3.81 12.81 3 12.63 2.16 12.44 C0 12 0 12 -2 12 C-2 12.66 -2 13.32 -2 14 C-2.99 14.33 -3.98 14.66 -5 15 C-5 13.02 -5 11.04 -5 9 C-6.32 9.33 -7.64 9.66 -9 10 C-9.33 9.34 -9.66 8.68 -10 8 C-8.56 5.38 -8.56 5.38 -7 3 C-6.48 3.27 -5.97 3.54 -5.44 3.81 C-2.34 5.32 0.82 6.66 4 8 C4 7.34 4 6.68 4 6 C3.34 5.67 2.68 5.34 2 5 C2.66 5 3.32 5 4 5 C4 4.34 4 3.68 4 3 C2.68 2.67 1.36 2.34 0 2 C0 1.34 0 0.68 0 0 Z " fill="#848365" transform="translate(53,41)"/>
<path d="M0 0 C0 0.66 0 1.32 0 2 C0.83 2.33 0.83 2.33 5 4 C5.33 3.34 5.66 2.68 6 2 C6.66 3.65 7.32 5.3 8 7 C8.66 7 9.32 7 10 7 C10 7.99 10 8.98 10 10 C9.34 10 8.68 10 8 10 C8 9.34 8 8.68 8 8 C5.69 8.66 3.38 9.32 1 10 C1.33 9.01 1.66 8.02 2 7 C-1.35 7.95 -4.69 8.9 -8 10 C-8.33 8.68 -8.66 7.36 -9 6 C-9.99 6 -10.98 6 -12 6 C-11.67 5.01 -11.34 4.02 -11 3 C-8.06 1.82 -7.1 1.97 -4 3 C-4 2.34 -4 1.68 -4 1 C-2 0 -2 0 0 0 Z " fill="#67675D" transform="translate(45,55)"/>
<path d="M0 0 C0.44 0.15 0.44 0.15 2.69 0.94 C3.02 0.28 3.35 -0.38 3.69 -1.06 C8.52 -0.07 13.16 0.89 17.69 2.94 C17.69 3.6 17.69 4.26 17.69 4.94 C15.71 4.94 13.73 4.94 11.69 4.94 C11.69 5.6 11.69 6.26 11.69 6.94 C11.03 6.94 10.37 6.94 9.69 6.94 C9.69 8.92 9.69 10.9 9.69 12.94 C9.36 13.1 9.36 13.1 7.69 13.94 C7.69 11.96 7.69 9.98 7.69 7.94 C7.03 7.94 6.37 7.94 5.69 7.94 C5.36 6.62 5.03 5.3 4.69 3.94 C3.9 3.79 3.12 3.65 2.31 3.5 C-0.31 2.94 -0.31 2.94 -2.31 1.94 C-2.31 2.6 -2.31 3.26 -2.31 3.94 C-2.97 3.94 -3.63 3.94 -4.31 3.94 C-4.64 2.95 -4.97 1.96 -5.31 0.94 C-6.96 0.94 -8.61 0.94 -10.31 0.94 C-10.31 0.28 -10.31 -0.38 -10.31 -1.06 C-6.83 -2.81 -3.57 -1.14 0 0 Z " fill="#B3A274" transform="translate(55.3125,73.0625)"/>
<path d="M0 0 C0.66 0 1.32 0 2 0 C2.33 0.66 2.66 1.32 3 2 C3.99 2.33 4.98 2.66 6 3 C5.01 3.33 4.02 3.66 3 4 C1.97 13.29 1.97 13.29 2.12 17.19 C1.96 21 0.65 23.57 -1 27 C-1.66 27 -2.32 27 -3 27 C-3.2 25.42 -3.38 23.83 -3.56 22.25 C-3.67 21.37 -3.77 20.49 -3.88 19.58 C-3.99 17.12 -3.74 15.33 -3 13 C-2.34 13 -1.68 13 -1 13 C-1.19 12.4 -1.37 11.8 -1.56 11.19 C-2 9 -2 9 -1 6 C-1.66 5.67 -2.32 5.34 -3 5 C-2.34 5 -1.68 5 -1 5 C-0.67 3.35 -0.34 1.7 0 0 Z " fill="#CDC8C0" transform="translate(93,89)"/>
<path d="M0 0 C0.66 0 1.32 0 2 0 C2.22 1.75 2.43 3.5 2.62 5.25 C2.74 6.22 2.86 7.2 2.98 8.2 C3 11.13 2.53 12.55 1 15 C0.67 13.68 0.34 12.36 0 11 C-0.33 11.33 -0.66 11.66 -1 12 C-1.99 12.66 -2.98 13.32 -4 14 C-4 13.01 -4 12.02 -4 11 C-4.33 11.16 -4.33 11.16 -6 12 C-6.41 14.32 -6.74 16.66 -7 19 C-5.35 17.68 -3.7 16.36 -2 15 C-1.34 17.97 -0.68 20.94 0 24 C-1.32 24.33 -2.64 24.66 -4 25 C-4 23.35 -4 21.7 -4 20 C-5.65 20 -7.3 20 -9 20 C-8.83 18.52 -8.83 18.52 -8 11 C-8.66 10.67 -9.32 10.34 -10 10 C-9.34 10 -8.68 10 -8 10 C-8 9.34 -8 8.68 -8 8 C-6.02 8 -4.04 8 -2 8 C-1.34 5.36 -0.68 2.72 0 0 Z " fill="#958D7A" transform="translate(75,70)"/>
<path d="M0 0 C1.32 0 2.64 0 4 0 C4.27 1.11 4.54 2.23 4.81 3.38 C6 7 6 7 9 9 C9 9.66 9 10.32 9 11 C10.65 11.66 12.3 12.32 14 13 C14 13.66 14 14.32 14 15 C8.5 14.49 8.5 14.49 5.88 11.94 C1.29 8.85 -3.63 9.69 -9 10 C-9 9.01 -9 8.02 -9 7 C-5.63 5.5 -3.8 5 0 5 C0 3.35 0 1.7 0 0 Z " fill="#62685A" transform="translate(43,34)"/>
<path d="M0 0 C4.29 0 8.58 0 13 0 C12.01 0.33 11.02 0.66 10 1 C10.33 2.32 10.66 3.64 11 5 C12.65 4.67 14.3 4.34 16 4 C16.33 4.99 16.66 5.98 17 7 C10.8 8.45 4.39 9.94 -2 9 C-2.66 8.34 -3.32 7.68 -4 7 C-2.02 6.67 -0.04 6.34 2 6 C2 6.66 2 7.32 2 8 C2.66 8 3.32 8 4 8 C4 7.01 4 6.02 4 5 C3.34 5 2.68 5 2 5 C1.34 3.35 0.68 1.7 0 0 Z " fill="#717876" transform="translate(51,57)"/>
<path d="M0 0 C3 4 3 4 3 6 C3.66 6 4.32 6 5 6 C5 5.34 5 4.68 5 4 C5.99 4 6.98 4 8 4 C8.33 7.3 8.66 10.6 9 14 C7.35 13.67 5.7 13.34 4 13 C4.33 13.66 4.66 14.32 5 15 C5.99 15.33 6.98 15.66 8 16 C8 16.66 8 17.32 8 18 C5 19 5 19 2 18 C1.67 18.99 1.34 19.98 1 21 C0.34 17.7 -0.32 14.4 -1 11 C-0.34 11 0.32 11 1 11 C0.67 7.37 0.34 3.74 0 0 Z " fill="#8F8F92" transform="translate(29,86)"/>
<path d="M0 0 C2 3 2 3 2 5 C3.32 5 4.64 5 6 5 C6.33 6.98 6.66 8.96 7 11 C5.68 11.33 4.36 11.66 3 12 C3 11.01 3 10.02 3 9 C2.67 9.16 2.67 9.16 1 10 C0.59 12.21 0.59 12.21 0.38 14.94 C0.3 15.83 0.23 16.73 0.15 17.65 C0.06 19.1 0 20.55 0 22 C-0.66 22 -1.32 22 -2 22 C-2 20.35 -2 18.7 -2 17 C-2.99 17 -3.98 17 -5 17 C-5 14 -5 14 -3.5 12.31 C-3 11.88 -2.51 11.45 -2 11 C-2.99 11.33 -3.98 11.66 -5 12 C-4.74 10.56 -4.47 9.12 -4.19 7.69 C-4.04 6.89 -3.89 6.09 -3.73 5.26 C-2.92 2.77 -1.98 1.68 0 0 Z " fill="#9E9CA0" transform="translate(92,80)"/>
<path d="M0 0 C1.32 0 2.64 0 4 0 C4 1.65 4 3.3 4 5 C5.32 5 6.64 5 8 5 C8.33 6.98 8.66 8.96 9 11 C8.34 11 7.68 11 7 11 C7 11.66 7 12.32 7 13 C7.66 13 8.32 13 9 13 C9 13.66 9 14.32 9 15 C8.34 15 7.68 15 7 15 C6.67 16.98 6.34 18.96 6 21 C6.66 21 7.32 21 8 21 C8 21.66 8 22.32 8 23 C8.66 23 9.32 23 10 23 C10 23.66 10 24.32 10 25 C10.66 25.33 11.32 25.66 12 26 C12 27.98 12 29.96 12 32 C11.34 32 10.68 32 10 32 C10 30.02 10 28.04 10 26 C9.38 25.73 8.76 25.46 8.12 25.19 C6 24 6 24 4 21 C3.62 19.05 3.62 19.05 3.44 16.88 C3.36 16.09 3.29 15.3 3.21 14.48 C3.07 12.83 2.93 11.17 2.79 9.52 C2.71 8.73 2.64 7.94 2.56 7.12 C2.5 6.41 2.44 5.69 2.38 4.95 C2 3 2 3 0 0 Z " fill="#A7A8A9" transform="translate(13,70)"/>
<path d="M0 0 C2.06 0.44 2.06 0.44 4 1 C4 3 4 3 2.5 4.62 C2.01 5.08 1.51 5.53 1 6 C1.99 6 2.98 6 4 6 C4.33 7.32 4.66 8.64 5 10 C5.99 10 6.98 10 8 10 C7.67 11.32 7.34 12.64 7 14 C4.62 13.31 4.62 13.31 2 12 C0.69 9.38 0.69 9.38 0 7 C-0.33 7.66 -0.66 8.32 -1 9 C-1.66 9 -2.32 9 -3 9 C-3 8.01 -3 7.02 -3 6 C-4.98 6.66 -6.96 7.32 -9 8 C-9.33 7.34 -9.66 6.68 -10 6 C-10.99 6 -11.98 6 -13 6 C-13 5.01 -13 4.02 -13 3 C-8.98 2.16 -5.98 1.95 -2 3 C-1.67 2.34 -1.34 1.68 -1 1 C-0.67 0.67 -0.34 0.34 0 0 Z " fill="#6C6C72" transform="translate(46,96)"/>
<path d="M0 0 C0.66 0.33 1.32 0.66 2 1 C1.36 6.14 0.32 10.99 -1 16 C-1.99 14.68 -2.98 13.36 -4 12 C-4.29 13.11 -4.58 14.23 -4.88 15.38 C-6 19 -6 19 -8 21 C-7.67 21.66 -7.34 22.32 -7 23 C-8.32 23 -9.64 23 -11 23 C-9.93 19.43 -8.63 16.22 -6.88 12.94 C-5.26 9.81 -4.55 7.58 -5 4 C-4.34 4 -3.68 4 -3 4 C-1.38 2 -1.38 2 0 0 Z " fill="#858181" transform="translate(63,92)"/>
<path d="M0 0 C2.31 0 4.62 0 7 0 C7 0.99 7 1.98 7 3 C6.34 3 5.68 3 5 3 C5 4.65 5 6.3 5 8 C1.51 9.6 -1.15 10.32 -5 10 C-5.33 9.67 -5.66 9.34 -6 9 C-10.53 8.77 -10.53 8.77 -13 10 C-12 7 -12 7 -9.06 5.31 C-6 4 -6 4 -4 4 C-4 4.99 -4 5.98 -4 7 C-3.34 6.67 -2.68 6.34 -2 6 C-2 5.34 -2 4.68 -2 4 C-0.02 4 1.96 4 4 4 C4 3.34 4 2.68 4 2 C2.68 2.33 1.36 2.66 0 3 C0 2.01 0 1.02 0 0 Z " fill="#C3AA89" transform="translate(39,67)"/>
<path d="M0 0 C2.64 0.66 5.28 1.32 8 2 C8 2.99 8 3.98 8 5 C8.99 5.33 9.98 5.66 11 6 C11 6.66 11 7.32 11 8 C10.01 8 9.02 8 8 8 C7.34 9.98 6.68 11.96 6 14 C5.67 13.01 5.34 12.02 5 11 C4.68 10.95 4.68 10.95 3.06 10.69 C2.38 10.46 1.7 10.23 1 10 C-0.89 5.96 -1.1 4.41 0 0 Z " fill="#DFCB99" transform="translate(80,60)"/>
<path d="M0 0 C0.66 0 1.32 0 2 0 C2.33 1.32 2.66 2.64 3 4 C4.65 3.67 6.3 3.34 8 3 C7.34 7.95 6.68 12.9 6 18 C5.01 18 4.02 18 3 18 C0.57 12.17 0.38 6.22 0 0 Z " fill="#C4CBD6" transform="translate(30,108)"/>
<path d="M0 0 C0 2.97 0 5.94 0 9 C1.32 8.67 2.64 8.34 4 8 C3.67 8.99 3.34 9.98 3 11 C0.61 10.42 -1.67 9.78 -4 9 C-4 11.97 -4 14.94 -4 18 C-5.65 18 -7.3 18 -9 18 C-9 17.01 -9 16.02 -9 15 C-8.01 15 -7.02 15 -6 15 C-6.19 14.22 -6.37 13.43 -6.56 12.62 C-7 10 -7 10 -6 8 C-5.34 8 -4.68 8 -4 8 C-3.67 5.69 -3.34 3.38 -3 1 C-3.99 0.67 -4.98 0.34 -6 0 C-3 -1 -3 -1 0 0 Z " fill="#65625D" transform="translate(48,81)"/>
<path d="M0 0 C0.33 0.66 0.66 1.32 1 2 C1.99 2 2.98 2 4 2 C4.62 3.81 4.62 3.81 5 6 C4.67 6.5 4.67 6.5 3 9 C3.99 9 4.98 9 6 9 C6 10.98 6 12.96 6 15 C5.01 15 4.02 15 3 15 C3 14.01 3 13.02 3 12 C2.01 12.33 1.02 12.66 0 13 C-2.19 12.06 -2.19 12.06 -4 11 C-3.34 10.34 -2.68 9.68 -2 9 C-2.33 8.01 -2.66 7.02 -3 6 C-2.01 5.67 -1.02 5.34 0 5 C-0.66 3.68 -1.32 2.36 -2 1 C-1.34 0.67 -0.68 0.34 0 0 Z " fill="#817963" transform="translate(32,59)"/>
<path d="M0 0 C0.66 0 1.32 0 2 0 C2.66 1.32 3.32 2.64 4 4 C4.66 3.34 5.32 2.68 6 2 C5.67 5.96 5.34 9.92 5 14 C3.68 13.67 2.36 13.34 1 13 C-0.05 11 -0.05 11 -0.75 8.56 C-0.99 7.76 -1.23 6.96 -1.48 6.13 C-2 4 -2 4 -2 2 C-1.34 2 -0.68 2 0 2 C0 1.34 0 0.68 0 0 Z " fill="#C6CAD2" transform="translate(52,132)"/>
<path d="M0 0 C0.66 0 1.32 0 2 0 C2.95 3.71 2.95 6.29 2.06 10 C1.25 13.43 0.89 16.47 1 20 C-0.32 20.33 -1.64 20.66 -3 21 C-3.43 13.65 -1.82 7.1 0 0 Z " fill="#848991" transform="translate(66,97)"/>
<path d="M0 0 C0.33 0.99 0.66 1.98 1 3 C1.62 2.79 2.24 2.59 2.88 2.38 C3.23 2.31 3.23 2.31 5 2 C5.66 2.66 6.32 3.32 7 4 C3.27 4.88 -0.17 5.09 -4 5 C-3.01 5.99 -2.02 6.98 -1 8 C-6.28 7.34 -11.56 6.68 -17 6 C-13.8 2.8 -9.34 2.14 -4.92 1.88 C-3.28 1.88 -1.64 1.93 0 2 C0 1.34 0 0.68 0 0 Z " fill="#BFB08A" transform="translate(68,62)"/>
<path d="M0 0 C0.8 0.02 1.6 0.04 2.42 0.05 C3.03 0.08 3.63 0.1 4.25 0.12 C4.58 0.78 4.91 1.45 5.25 2.12 C6.24 2.12 7.23 2.12 8.25 2.12 C8.25 3.45 8.25 4.77 8.25 6.12 C7.26 6.12 6.27 6.12 5.25 6.12 C5.25 6.78 5.25 7.45 5.25 8.12 C4.59 8.12 3.93 8.12 3.25 8.12 C3.25 7.13 3.25 6.14 3.25 5.12 C2.38 5.15 1.52 5.17 0.62 5.19 C-2.61 5.13 -5.58 4.73 -8.75 4.12 C-8.75 3.47 -8.75 2.8 -8.75 2.12 C-5.69 0.34 -3.53 -0.1 0 0 Z " fill="#B5A57D" transform="translate(101.75,54.875)"/>
<path d="M0 0 C0 1.98 0 3.96 0 6 C-0.99 5.67 -1.98 5.34 -3 5 C-3 5.99 -3 6.98 -3 8 C-6 9 -6 9 -10 9 C-10.99 8.34 -11.98 7.68 -13 7 C-12.34 7 -11.68 7 -11 7 C-11 6.34 -11 5.68 -11 5 C-9.68 5 -8.36 5 -7 5 C-7.33 3.35 -7.66 1.7 -8 0 C-4.71 -1.1 -3.29 -0.8 0 0 Z " fill="#766E5E" transform="translate(62,77)"/>
<path d="" fill="#F4F5F5" transform="translate(0,0)"/>
<path d="" fill="#F4F4F4" transform="translate(0,0)"/>
<path d="" fill="#F5F5F4" transform="translate(0,0)"/>
</svg>
