<?xml version="1.0" encoding="UTF-8"?>
<!-- Generator: visioncortex VTracer 0.6.12 -->
<svg version="1.1" xmlns="http://www.w3.org/2000/svg" width="161" height="79">
<path d="M0 0 C2.12 0.94 2.12 0.94 4 2 C4.34 2.04 4.34 2.04 6.06 2.25 C8 3 8 3 9.75 5.75 C10.93 8.83 11.29 10.75 11 14 C11.99 14 12.98 14 14 14 C14 13.34 14 12.68 14 12 C14.66 12 15.32 12 16 12 C19.13 19.14 19.13 19.14 18.44 23.75 C18.29 24.82 18.15 25.89 18 27 C19.94 29.31 19.94 29.31 22 31 C22 31.66 22 32.32 22 33 C22.66 33 23.32 33 24 33 C23.88 32.73 23.88 32.73 23.25 31.38 C23 29 23 29 24.44 25.75 C27 23 27 23 28.98 22.69 C30.99 22.75 32.99 22.87 35 23 C35.66 22.34 36.32 21.68 37 21 C40.43 20.44 41.8 20.88 44.81 22.69 C47 25 47 25 47.31 27.75 C47.21 28.49 47.11 29.23 47 30 C47.99 29.67 48.98 29.34 50 29 C52.31 32.47 52.34 33.93 52 38 C51.34 38.99 50.68 39.98 50 41 C51.32 41 52.64 41 54 41 C54 41.66 54 42.32 54 43 C54.66 43 55.32 43 56 43 C56.33 42.01 56.66 41.02 57 40 C58.44 39.78 59.87 39.57 61.31 39.38 C62.11 39.26 62.91 39.14 63.74 39.02 C66 39 66 39 69 41 C68.67 42.32 68.34 43.64 68 45 C67.01 45 66.02 45 65 45 C67.51 46.54 68.88 47 71.88 46.94 C75.61 47.01 77.79 48.17 81 50 C80 52 80 52 77.06 53.12 C72.41 54.33 67.83 54.22 63.06 54.12 C62.19 54.12 61.31 54.11 60.41 54.1 C58.27 54.07 56.14 54.04 54 54 C54.5 54.16 54.5 54.16 57 55 C57 55.66 57 56.32 57 57 C53.46 58.77 49.47 58.19 45.62 57.69 C45.09 57.46 44.55 57.23 44 57 C43.67 56.01 43.34 55.02 43 54 C41.52 53.97 40.04 53.95 38.56 53.94 C37.74 53.93 36.92 53.91 36.07 53.9 C34 54 34 54 33 55 C34.65 55.33 36.3 55.66 38 56 C38.33 56.99 38.66 57.98 39 59 C35.84 60.05 33.44 60.2 30.12 60.25 C29.61 60.26 29.61 60.26 27.01 60.33 C23.59 59.96 21.72 59.07 19 57 C19 56.34 19 55.68 19 55 C18.34 55 17.68 55 17 55 C17 55.66 17 56.32 17 57 C14.54 57.5 12.07 58 9.61 58.48 C7.62 58.87 5.65 59.33 3.69 59.81 C0.22 60.05 -1.31 59.13 -4 57 C-4 56.34 -4 55.68 -4 55 C-4.83 55.37 -5.65 55.74 -6.5 56.12 C-11.08 57.27 -13.53 56.39 -18 55 C-18 55.66 -18 56.32 -18 57 C-30.49 59.85 -30.49 59.85 -37 56 C-35.68 55.34 -34.36 54.68 -33 54 C-34 53 -34 53 -36.4 52.87 C-37.38 52.87 -38.36 52.87 -39.38 52.88 C-40.35 52.87 -41.33 52.87 -42.34 52.87 C-45 53 -45 53 -48 54 C-50.19 53.56 -50.19 53.56 -52 53 C-52 52.34 -52 51.68 -52 51 C-54.97 51 -57.94 51 -61 51 C-61 50.34 -61 49.68 -61 49 C-58.69 49 -56.38 49 -54 49 C-53.67 47.35 -53.34 45.7 -53 44 C-49.27 43.43 -45.79 43 -42 43 C-42 42.34 -42 41.68 -42 41 C-43.32 40.34 -44.64 39.68 -46 39 C-45.91 37.23 -45.8 35.46 -45.69 33.69 C-45.63 32.7 -45.57 31.72 -45.51 30.7 C-44.95 27.73 -44.46 26.71 -42 25 C-41.01 25 -40.02 25 -39 25 C-38.34 23.68 -37.68 22.36 -37 21 C-35.56 20.92 -34.13 20.86 -32.69 20.81 C-32.29 20.8 -32.29 20.8 -30.26 20.71 C-27.52 21.06 -26.71 21.89 -25 24 C-24.34 23.34 -23.68 22.68 -23 22 C-23.09 21.61 -23.09 21.61 -23.56 19.62 C-24 17 -24 17 -22.69 15 C-22.13 14.34 -21.57 13.68 -21 13 C-20.29 11.35 -19.61 9.69 -19 8 C-18.01 8 -17.02 8 -16 8 C-16.66 8.99 -17.32 9.98 -18 11 C-17.34 11 -16.68 11 -16 11 C-15.73 10.24 -15.46 9.47 -15.19 8.69 C-12.37 2.3 -6.93 -0.74 0 0 Z " fill="#CBD8E9" transform="translate(71,10)"/>
<path d="M0 0 C3.62 0.51 5.19 1.74 7.69 4.38 C8 7.13 8 7.13 7.69 9.38 C8.68 9.05 9.67 8.72 10.69 8.38 C13 11.84 13.03 13.3 12.69 17.38 C12.03 18.36 11.37 19.36 10.69 20.38 C12.01 20.38 13.33 20.38 14.69 20.38 C14.69 21.03 14.69 21.7 14.69 22.38 C15.35 22.38 16.01 22.38 16.69 22.38 C16.85 21.88 16.85 21.88 17.69 19.38 C19.12 19.15 20.56 18.95 22 18.75 C22.4 18.69 22.4 18.69 24.43 18.4 C26.69 18.38 26.69 18.38 29.69 20.38 C29.36 21.7 29.03 23.02 28.69 24.38 C27.7 24.38 26.71 24.38 25.69 24.38 C28.2 25.92 29.57 26.38 32.56 26.31 C36.29 26.39 38.48 27.54 41.69 29.38 C40.69 31.38 40.69 31.38 37.75 32.49 C33.1 33.71 28.52 33.59 23.75 33.5 C22.88 33.49 22 33.48 21.1 33.47 C18.96 33.45 16.82 33.41 14.69 33.38 C15.68 33.7 16.67 34.03 17.69 34.38 C17.69 35.03 17.69 35.69 17.69 36.38 C14.15 38.15 10.16 37.57 6.31 37.06 C5.78 36.84 5.24 36.61 4.69 36.38 C4.36 35.38 4.03 34.4 3.69 33.38 C2.21 33.35 0.73 33.33 -0.75 33.31 C-1.57 33.3 -2.4 33.29 -3.25 33.28 C-5.31 33.38 -5.31 33.38 -6.31 34.38 C-4.66 34.7 -3.01 35.03 -1.31 35.38 C-0.98 36.37 -0.65 37.35 -0.31 38.38 C-3.47 39.43 -5.87 39.58 -9.19 39.62 C-9.7 39.64 -9.7 39.64 -12.3 39.7 C-15.72 39.33 -17.59 38.44 -20.31 36.38 C-20.31 35.72 -20.31 35.06 -20.31 34.38 C-20.97 34.38 -21.63 34.38 -22.31 34.38 C-22.31 35.03 -22.31 35.69 -22.31 36.38 C-24.78 36.88 -27.24 37.37 -29.71 37.85 C-31.69 38.25 -33.66 38.71 -35.62 39.19 C-39.12 39.43 -40.61 38.54 -43.31 36.38 C-43.48 35.88 -43.48 35.88 -44.31 33.38 C-42.99 33.38 -41.67 33.38 -40.31 33.38 C-40.31 31.73 -40.31 30.08 -40.31 28.38 C-37.01 28.05 -33.71 27.72 -30.31 27.38 C-30.31 26.39 -30.31 25.39 -30.31 24.38 C-29.32 24.05 -28.33 23.72 -27.31 23.38 C-26.98 22.72 -26.65 22.05 -26.31 21.38 C-22.39 22.68 -19.99 24.21 -17.31 27.38 C-17.31 28.03 -17.31 28.7 -17.31 29.38 C-15.42 29.6 -13.52 29.8 -11.62 30 C-10.57 30.12 -9.51 30.23 -8.43 30.35 C-5.18 30.38 -3.21 29.78 -0.31 28.38 C-0.31 26.39 -0.31 24.41 -0.31 22.38 C-1.3 22.38 -2.29 22.38 -3.31 22.38 C-3.48 21.72 -3.48 21.72 -4.31 18.38 C-9.06 18.25 -9.06 18.25 -11.31 19.38 C-10.98 17.73 -10.65 16.08 -10.31 14.38 C-8 13.72 -5.69 13.05 -3.31 12.38 C-3.31 11.05 -3.31 9.73 -3.31 8.38 C-6.94 8.38 -10.57 8.38 -14.31 8.38 C-13.32 10.02 -12.33 11.67 -11.31 13.38 C-11.97 13.38 -12.63 13.38 -13.31 13.38 C-13.64 14.03 -13.97 14.7 -14.31 15.38 C-14.31 14.72 -14.31 14.05 -14.31 13.38 C-15.3 13.38 -16.29 13.38 -17.31 13.38 C-16.65 14.37 -16.65 14.37 -13.31 19.38 C-19.06 18.5 -19.06 18.5 -21.31 17.38 C-21.31 18.03 -21.31 18.7 -21.31 19.38 C-21.97 19.05 -22.63 18.72 -23.31 18.38 C-24.04 15.61 -24.31 13.25 -24.31 10.38 C-22.99 10.38 -21.67 10.38 -20.31 10.38 C-20.31 9.72 -20.31 9.05 -20.31 8.38 C-19.65 8.38 -18.99 8.38 -18.31 8.38 C-17.98 9.7 -17.65 11.02 -17.31 12.38 C-16.65 12.38 -15.99 12.38 -15.31 12.38 C-15.56 11.84 -15.81 11.3 -16.06 10.75 C-16.31 8.38 -16.31 8.38 -14.88 5.12 C-12.31 2.38 -12.31 2.38 -10.33 2.06 C-8.32 2.12 -6.32 2.25 -4.31 2.38 C-2.31 0.38 -2.31 0.38 0 0 Z " fill="#DAE3ED" transform="translate(110.3125,30.625)"/>
<path d="M0 0 C1.2 2.41 1.1 3.95 1.06 6.62 C1.05 7.44 1.04 8.26 1.04 9.1 C1.02 9.73 1.01 10.35 1 11 C0.34 11 -0.32 11 -1 11 C-0.67 11.99 -0.34 12.98 0 14 C0.99 14.16 0.99 14.16 6 15 C5.96 14.22 5.92 13.43 5.88 12.62 C6 10 6 10 8 8 C7.67 7.01 7.34 6.02 7 5 C8.48 5.25 9.96 5.53 11.44 5.81 C12.26 5.96 13.08 6.11 13.93 6.27 C14.62 6.51 15.3 6.75 16 7 C16.33 7.99 16.66 8.98 17 10 C17.99 10 18.98 10 20 10 C20 9.34 20 8.68 20 8 C20.66 8 21.32 8 22 8 C21.84 7.51 21.84 7.51 21 5 C23 6 25 7 27 8 C27 8.66 27 9.32 27 10 C28.98 9.67 30.96 9.34 33 9 C33 9.66 33 10.32 33 11 C31.68 11 30.36 11 29 11 C29.66 13.64 30.32 16.28 31 19 C31.16 18.84 31.16 18.84 32 18 C34.34 18.29 36.67 18.62 39 19 C38.5 18.55 38.01 18.09 37.5 17.62 C36 16 36 16 36 14 C37.32 13.67 38.64 13.34 40 13 C39.84 12.34 39.84 12.34 39 9 C42.18 7.41 45.49 8 49 8 C49.66 7.67 50.32 7.34 51 7 C51.69 9.31 51.69 9.31 52 12 C50.94 13.81 50.94 13.81 49 15 C45.81 15.19 45.81 15.19 43 15 C43 16.32 43 17.64 43 19 C43.16 18.84 43.16 18.84 44 18 C45.67 17.96 47.33 17.96 49 18 C49.16 18.83 49.16 18.83 50 23 C50.99 23 51.98 23 53 23 C53.31 25.81 53.31 25.81 53 29 C50.94 30.94 50.94 30.94 48 32 C44.5 31.75 44.5 31.75 41 31 C40.07 30.92 39.14 30.84 38.19 30.75 C37.47 30.5 36.74 30.25 36 30 C35.32 28.34 34.65 26.67 34 25 C31.5 23.75 31.5 23.75 29 23 C28.34 22.67 27.68 22.34 27 22 C26.84 22.49 26.84 22.49 26 25 C25.01 25 24.02 25 23 25 C23 25.99 23 26.98 23 28 C21.35 28.16 21.35 28.16 13 29 C13 30.65 13 32.3 13 34 C11.84 34.16 11.84 34.16 6 35 C6 34.34 6 33.68 6 33 C1.71 32.34 -2.58 31.68 -7 31 C-7 31.66 -7 32.32 -7 33 C-8.32 33 -9.64 33 -11 33 C-11 31.35 -11 29.7 -11 28 C-9.02 28.33 -7.04 28.66 -5 29 C-5 28.01 -5 27.02 -5 26 C-5.99 25.67 -6.98 25.34 -8 25 C-7.01 25 -6.02 25 -5 25 C-5.12 23.12 -5.12 23.12 -6 21 C-9.06 19.75 -9.06 19.75 -12 19 C-10.25 11.38 -10.25 11.38 -8 8 C-7.34 8 -6.68 8 -6 8 C-5.9 7.24 -5.79 6.47 -5.69 5.69 C-4.83 2.34 -3.7 0 0 0 Z " fill="#C6D5E7" transform="translate(57,30)"/>
<path d="M0 0 C4.02 -0.18 6.51 0.02 10 2 C10.34 2.04 10.34 2.04 12.06 2.25 C14 3 14 3 15.75 5.75 C16.93 8.83 17.29 10.75 17 14 C17.99 14 18.98 14 20 14 C20 13.34 20 12.68 20 12 C20.66 12 21.32 12 22 12 C24.49 17.67 25.24 20.78 24 27 C24.16 27.33 24.16 27.33 25 29 C24.01 29.16 24.01 29.16 19 30 C19 29.34 19 28.68 19 28 C17.35 27.34 15.7 26.68 14 26 C14 26.66 14 27.32 14 28 C13.34 28 12.68 28 12 28 C12 28.66 12 29.32 12 30 C11.01 30 10.02 30 9 30 C8.67 29.34 8.34 28.68 8 28 C5.93 27.15 5.93 27.15 3.44 26.38 C2.61 26.11 1.78 25.85 0.93 25.59 C0.61 25.49 0.61 25.49 -1 25 C-0.34 26.32 0.32 27.64 1 29 C0.01 29.33 -0.98 29.66 -2 30 C-2 31.65 -2 33.3 -2 35 C-3.98 35 -5.96 35 -8 35 C-8.33 33.68 -8.66 32.36 -9 31 C-8.34 31 -7.68 31 -7 31 C-6.34 26.71 -5.68 22.42 -5 18 C-4.34 18 -3.68 18 -3 18 C-2.67 17.34 -2.34 16.68 -2 16 C-0.68 16 0.64 16 2 16 C4.42 13.5 5 12.54 5 9 C5.33 8.67 5.66 8.34 6 8 C5.48 7.59 4.97 7.18 4.44 6.75 C3.96 6.17 3.49 5.59 3 5 C3.31 2.81 3.31 2.81 4 1 C2.68 0.67 1.36 0.34 0 0 Z " fill="#D6DFEC" transform="translate(65,10)"/>
<path d="M0 0 C1.2 2.41 1.1 3.95 1.06 6.62 C1.05 7.44 1.04 8.26 1.04 9.1 C1.02 9.73 1.01 10.35 1 11 C0.34 11 -0.32 11 -1 11 C-1 13.97 -1 16.94 -1 20 C-0.4 19.34 0.2 18.68 0.81 18 C3 16 3 16 6 16 C6.33 16.66 6.66 17.32 7 18 C7.66 18 8.32 18 9 18 C9.33 14.7 9.66 11.4 10 8 C10.99 8 11.98 8 13 8 C15.08 10.88 16.35 13.51 17 17 C16.01 17.33 15.02 17.66 14 18 C14 19.65 14 21.3 14 23 C15.98 23 17.96 23 20 23 C20.16 23.66 20.16 23.66 21 27 C17.33 27 13.67 27 10 27 C8.61 28.96 7.27 30.96 6 33 C1.71 32.34 -2.58 31.68 -7 31 C-7 31.66 -7 32.32 -7 33 C-8.32 33 -9.64 33 -11 33 C-11 31.35 -11 29.7 -11 28 C-9.02 28.33 -7.04 28.66 -5 29 C-5 28.01 -5 27.02 -5 26 C-5.99 25.67 -6.98 25.34 -8 25 C-7.01 25 -6.02 25 -5 25 C-5.12 23.12 -5.12 23.12 -6 21 C-9.06 19.75 -9.06 19.75 -12 19 C-10.25 11.38 -10.25 11.38 -8 8 C-7.34 8 -6.68 8 -6 8 C-5.9 7.24 -5.79 6.47 -5.69 5.69 C-4.83 2.34 -3.7 0 0 0 Z " fill="#91B3DA" transform="translate(57,30)"/>
<path d="M0 0 C2.58 3.79 1.73 6.64 1 11 C1.16 11.33 1.16 11.33 2 13 C0.02 13.33 -1.96 13.66 -4 14 C-4 13.34 -4 12.68 -4 12 C-5.65 11.34 -7.3 10.68 -9 10 C-9 10.66 -9 11.32 -9 12 C-9.66 12 -10.32 12 -11 12 C-11 12.66 -11 13.32 -11 14 C-11.99 14 -12.98 14 -14 14 C-14.33 13.34 -14.66 12.68 -15 12 C-17.07 11.15 -17.07 11.15 -19.56 10.38 C-20.39 10.11 -21.22 9.85 -22.07 9.59 C-22.39 9.49 -22.39 9.49 -24 9 C-23.34 10.32 -22.68 11.64 -22 13 C-22.99 13.33 -23.98 13.66 -25 14 C-25 15.65 -25 17.3 -25 19 C-26.98 19 -28.96 19 -31 19 C-31.33 17.68 -31.66 16.36 -32 15 C-31.34 15 -30.68 15 -30 15 C-29.88 14.36 -29.75 13.72 -29.62 13.06 C-29.42 12.38 -29.21 11.7 -29 11 C-28.34 10.67 -27.68 10.34 -27 10 C-26.67 9.01 -26.34 8.02 -26 7 C-23.36 6.67 -20.72 6.34 -18 6 C-18 5.34 -18 4.68 -18 4 C-17.19 4.02 -16.38 4.05 -15.55 4.07 C-14.48 4.09 -13.41 4.11 -12.31 4.12 C-11.26 4.15 -10.2 4.17 -9.11 4.2 C-5.94 4 -3.81 3.45 -1 2 C-0.67 1.34 -0.34 0.68 0 0 Z " fill="#DFE5EE" transform="translate(88,26)"/>
<path d="M0 0 C0.33 1.98 0.66 3.96 1 6 C1.66 6 2.32 6 3 6 C3 6.66 3 7.32 3 8 C2.34 8 1.68 8 1 8 C1.33 9.32 1.66 10.64 2 12 C-3.62 17 -3.62 17 -9 17 C-8.98 17.63 -8.95 18.25 -8.93 18.9 C-8.91 19.72 -8.89 20.53 -8.88 21.38 C-8.85 22.19 -8.83 23 -8.8 23.84 C-9 26 -9 26 -11 28 C-11.33 25.03 -11.66 22.06 -12 19 C-12.99 19.33 -13.98 19.66 -15 20 C-15.33 19.01 -15.66 18.02 -16 17 C-15.34 17 -14.68 17 -14 17 C-14.04 15.95 -14.08 14.9 -14.12 13.81 C-13.98 9.48 -13.37 6.68 -10.62 3.31 C-7.11 0.47 -4.52 -0.25 0 0 Z " fill="#D0DBEB" transform="translate(69,11)"/>
<path d="M0 0 C2.64 0 5.28 0 8 0 C8.66 1.98 9.32 3.96 10 6 C9.38 6.12 8.76 6.25 8.12 6.38 C6 7 6 7 4 9 C1.38 9.12 1.38 9.12 -1 9 C-1 9.99 -1 10.98 -1 12 C1.31 12 3.62 12 6 12 C6 12.33 6 12.66 6 13 C5.32 13.06 4.65 13.12 3.95 13.18 C3.06 13.27 2.17 13.35 1.25 13.44 C0.37 13.52 -0.51 13.6 -1.42 13.68 C-4 14 -4 14 -6.16 14.61 C-8 15 -8 15 -10.69 13.75 C-13 12 -13 12 -14 9 C-12.68 9 -11.36 9 -10 9 C-10 7.35 -10 5.7 -10 4 C-6.7 3.67 -3.4 3.34 0 3 C0 2.01 0 1.02 0 0 Z " fill="#E2E9F0" transform="translate(80,55)"/>
<path d="M0 0 C-0.33 1.65 -0.66 3.3 -1 5 C-0.2 5.39 0.61 5.78 1.44 6.19 C4 8 4 8 4.81 10.5 C5 13 5 13 5 16 C3.35 16 1.7 16 0 16 C-0.33 17.32 -0.66 18.64 -1 20 C0.32 20 1.64 20 3 20 C3 19.34 3 18.68 3 18 C4.46 17.95 5.92 17.91 7.38 17.88 C7.78 17.86 7.78 17.86 9.84 17.8 C12 18 12 18 14 20 C13.03 19.98 12.06 19.96 11.06 19.94 C8.04 19.91 5.23 20.27 2.25 20.75 C-0.04 21.04 -0.04 21.04 -2 21 C-4.06 19.19 -4.06 19.19 -5 17 C-5 16.34 -5 15.68 -5 15 C-5.66 15 -6.32 15 -7 15 C-7 14.34 -7 13.68 -7 13 C-7.66 13 -8.32 13 -9 13 C-9.33 10.69 -9.66 8.38 -10 6 C-8.68 6.33 -7.36 6.66 -6 7 C-6 7.66 -6 8.32 -6 9 C-5.34 9 -4.68 9 -4 9 C-4.49 8.07 -4.99 7.14 -5.5 6.19 C-7 3 -7 3 -7 0 C-2.25 -1.12 -2.25 -1.12 0 0 Z " fill="#C2D2E6" transform="translate(47,43)"/>
<path d="M0 0 C1.65 0 3.3 0 5 0 C5.33 1.65 5.66 3.3 6 5 C6.99 5 7.98 5 9 5 C9.31 7.81 9.31 7.81 9 11 C6.94 12.94 6.94 12.94 4 14 C0.5 13.75 0.5 13.75 -3 13 C-3.93 12.92 -4.86 12.84 -5.81 12.75 C-6.53 12.5 -7.26 12.26 -8 12 C-8.7 10.35 -9.37 8.68 -10 7 C-12.12 6.19 -12.12 6.19 -14 6 C-13.67 5.01 -13.34 4.02 -13 3 C-10.94 2.31 -10.94 2.31 -9 2 C-8.34 3.65 -7.68 5.3 -7 7 C-5.35 6.67 -3.7 6.34 -2 6 C-1.34 4.02 -0.68 2.04 0 0 Z " fill="#B4CAE3" transform="translate(101,48)"/>
<path d="M0 0 C0.4 0.01 0.4 0.01 2.44 0.06 C2.44 0.72 2.44 1.38 2.44 2.06 C1.78 2.06 1.12 2.06 0.44 2.06 C0.44 4.7 0.44 7.34 0.44 10.06 C0.16 9.82 0.16 9.82 -1.23 8.57 C-4.03 6.76 -5.52 6.75 -8.81 6.88 C-9.7 6.9 -10.6 6.93 -11.52 6.96 C-11.85 6.97 -11.85 6.97 -13.56 7.06 C-12.57 8.71 -11.58 10.36 -10.56 12.06 C-11.22 12.06 -11.88 12.06 -12.56 12.06 C-12.89 12.72 -13.22 13.38 -13.56 14.06 C-13.56 13.4 -13.56 12.74 -13.56 12.06 C-14.55 12.06 -15.54 12.06 -16.56 12.06 C-15.9 13.05 -15.9 13.05 -12.56 18.06 C-18.31 17.19 -18.31 17.19 -20.56 16.06 C-20.56 16.72 -20.56 17.38 -20.56 18.06 C-21.22 17.73 -21.88 17.4 -22.56 17.06 C-23.29 14.29 -23.56 11.93 -23.56 9.06 C-22.24 9.06 -20.92 9.06 -19.56 9.06 C-19.56 8.4 -19.56 7.74 -19.56 7.06 C-18.9 7.06 -18.24 7.06 -17.56 7.06 C-17.23 8.38 -16.9 9.7 -16.56 11.06 C-15.9 11.06 -15.24 11.06 -14.56 11.06 C-14.81 10.53 -15.06 9.99 -15.31 9.44 C-15.56 7.06 -15.56 7.06 -14.12 3.81 C-11.56 1.06 -11.56 1.06 -9.55 0.71 C-7.55 0.75 -5.55 0.9 -3.56 1.06 C-2.56 0.06 -2.56 0.06 0 0 Z " fill="#D4DFEE" transform="translate(109.5625,31.9375)"/>
<path d="M0 0 C0.54 0 0.54 0 3.29 0.03 C4.12 0.04 4.96 0.05 5.81 0.06 C5.81 1.05 5.81 2.04 5.81 3.06 C7.13 2.73 8.45 2.4 9.81 2.06 C9.81 3.05 9.81 4.04 9.81 5.06 C10.44 4.91 11.07 4.75 11.72 4.59 C17.5 3.27 21.98 2.98 27.81 4.06 C27.98 4.56 27.98 4.56 28.81 7.06 C24.56 8.48 22.09 7.26 17.81 6.06 C17.81 6.72 17.81 7.38 17.81 8.06 C5.33 10.91 5.33 10.91 -1.19 7.06 C0.13 6.4 1.45 5.74 2.81 5.06 C1.81 4.06 1.81 4.06 -0.47 3.96 C-1.39 3.98 -2.31 3.99 -3.25 4 C-4.17 4.01 -5.09 4.02 -6.04 4.03 C-6.75 4.04 -7.46 4.05 -8.19 4.06 C-8.52 3.07 -8.85 2.08 -9.19 1.06 C-5.9 -0.03 -3.45 -0.04 0 0 Z " fill="#D9E2EE" transform="translate(35.1875,58.9375)"/>
<path d="M0 0 C3.56 0.44 3.56 0.44 5.5 2.56 C6.67 5.72 6.8 8.1 6.56 11.44 C5.24 11.11 3.92 10.78 2.56 10.44 C2.23 12.09 1.9 13.74 1.56 15.44 C-0.75 15.11 -3.06 14.78 -5.44 14.44 C-6.56 9.69 -6.56 9.69 -5.44 7.44 C-5.46 6.61 -5.48 5.79 -5.5 4.94 C-5.4 0.8 -3.92 0.5 0 0 Z " fill="#C7D5E7" transform="translate(31.4375,35.5625)"/>
<path d="M0 0 C1.2 2.41 1.1 3.95 1.06 6.62 C1.05 7.44 1.04 8.26 1.04 9.1 C1.02 9.73 1.01 10.35 1 11 C0.34 11 -0.32 11 -1 11 C-1 13.97 -1 16.94 -1 20 C-2.98 20 -4.96 20 -7 20 C-8.35 17.29 -8.07 14.99 -8 12 C-8.66 11.67 -9.32 11.34 -10 11 C-9.34 10.01 -8.68 9.02 -8 8 C-7.34 8 -6.68 8 -6 8 C-5.9 7.24 -5.79 6.47 -5.69 5.69 C-4.83 2.34 -3.7 0 0 0 Z " fill="#A6C1E1" transform="translate(57,30)"/>
<path d="M0 0 C0.33 1.32 0.66 2.64 1 4 C-0.32 4.33 -1.64 4.66 -3 5 C-0.49 6.54 0.88 7 3.88 6.94 C7.61 7.01 9.79 8.17 13 10 C12 12 12 12 9.06 13.19 C4.33 14.46 -0.22 13.71 -5 13 C-5.33 10.03 -5.66 7.06 -6 4 C-6.99 3.67 -7.98 3.34 -9 3 C-9 2.01 -9 1.02 -9 0 C-5.52 -1.16 -3.54 -0.71 0 0 Z " fill="#EBEEF3" transform="translate(139,50)"/>
<path d="M0 0 C2.64 0 5.28 0 8 0 C8 0.99 8 1.98 8 3 C8.66 2.67 9.32 2.34 10 2 C12 1.96 14 1.96 16 2 C14.35 4.64 12.7 7.28 11 10 C6.71 9.34 2.42 8.68 -2 8 C-2 8.66 -2 9.32 -2 10 C-3.32 10 -4.64 10 -6 10 C-6 8.35 -6 6.7 -6 5 C-5.01 5.16 -5.01 5.16 0 6 C0 5.01 0 4.02 0 3 C-0.99 2.67 -1.98 2.34 -3 2 C-2.01 2 -1.02 2 0 2 C0 1.34 0 0.68 0 0 Z " fill="#A3BFDF" transform="translate(52,53)"/>
<path d="M0 0 C0.99 0 1.98 0 3 0 C5.08 2.88 6.35 5.51 7 9 C6.01 9.33 5.02 9.66 4 10 C4 11.65 4 13.3 4 15 C5.98 15 7.96 15 10 15 C10.33 16.32 10.66 17.64 11 19 C8.03 19 5.06 19 2 19 C1.67 17.35 1.34 15.7 1 14 C0.01 14 -0.98 14 -2 14 C-2.33 13.01 -2.66 12.02 -3 11 C-2.34 10.67 -1.68 10.34 -1 10 C-0.59 7.71 -0.59 7.71 -0.38 4.94 C-0.3 4.02 -0.23 3.1 -0.15 2.15 C-0.1 1.44 -0.05 0.73 0 0 Z " fill="#A0BDDF" transform="translate(67,38)"/>
<path d="M0 0 C6.75 0.75 6.75 0.75 9 3 C9.4 5.32 9.74 7.66 10 10 C4.25 11.12 4.25 11.12 2 10 C2 9.34 2 8.68 2 8 C1.01 8 0.02 8 -1 8 C-1.33 6.02 -1.66 4.04 -2 2 C-1.34 2 -0.68 2 0 2 C0 1.34 0 0.68 0 0 Z " fill="#E8EBEF" transform="translate(108,45)"/>
<path d="M0 0 C1.65 0.33 3.3 0.66 5 1 C5.33 1.99 5.66 2.98 6 4 C5.34 4 4.68 4 4 4 C4 4.66 4 5.32 4 6 C3.01 6 2.02 6 1 6 C0.67 6.99 0.34 7.98 0 9 C-0.66 9 -1.32 9 -2 9 C-1.98 9.63 -1.95 10.25 -1.93 10.9 C-1.91 11.72 -1.89 12.53 -1.88 13.38 C-1.85 14.19 -1.83 15 -1.8 15.84 C-2 18 -2 18 -4 20 C-4.33 17.03 -4.66 14.06 -5 11 C-5.99 11.33 -6.98 11.66 -8 12 C-8.33 11.01 -8.66 10.02 -9 9 C-8.7 8.89 -8.7 8.89 -7.19 8.31 C-4.44 6.67 -3.58 4.73 -2 2 C-1.34 2 -0.68 2 0 2 C0 1.34 0 0.68 0 0 Z " fill="#BECFE4" transform="translate(62,19)"/>
<path d="M0 0 C0.38 0 0.38 0 2.29 0.01 C2.69 0.01 2.69 0.01 4.68 0.04 C5.47 0.04 6.27 0.04 7.09 0.05 C9.06 0.06 11.02 0.08 12.99 0.1 C11.11 3.97 11.11 3.97 9.99 5.1 C8.32 5.14 6.65 5.14 4.99 5.1 C4.33 5.1 3.67 5.1 2.99 5.1 C2.66 5.43 2.33 5.76 1.99 6.1 C-2.04 6.36 -3.57 6.39 -7.01 4.1 C-7.01 3.11 -7.01 2.12 -7.01 1.1 C-4.3 0.2 -2.77 -0.02 0 0 Z " fill="#D2DFEE" transform="translate(148.01171875,-0.09765625)"/>
<path d="M0 0 C0.66 0.33 1.32 0.66 2 1 C1.67 1.5 1.67 1.5 0 4 C0.99 4.99 1.98 5.98 3 7 C0.29 16.59 0.29 16.59 -4 20 C-6.36 15.57 -6.03 12.93 -5 8 C-4.34 7.34 -3.68 6.68 -3 6 C-2.31 4.34 -1.64 2.68 -1 1 C-0.67 0.67 -0.34 0.34 0 0 Z " fill="#DBE3EF" transform="translate(53,17)"/>
<path d="M0 0 C1.44 -0.08 2.87 -0.14 4.31 -0.19 C4.71 -0.2 4.71 -0.2 6.74 -0.29 C9.52 0.07 10.29 0.83 12 3 C12.33 3.66 12.66 4.32 13 5 C11.68 5.33 10.36 5.66 9 6 C9 5.34 9 4.68 9 4 C8.34 4 7.68 4 7 4 C6.34 5.65 5.68 7.3 5 9 C4.01 8.67 3.02 8.34 2 8 C1.67 7.34 1.34 6.68 1 6 C-2.06 5.38 -2.06 5.38 -5 5 C-4.01 4.67 -3.02 4.34 -2 4 C-0.81 1.94 -0.81 1.94 0 0 Z " fill="#D7E1EE" transform="translate(34,31)"/>
<path d="M0 0 C0.66 0.99 1.32 1.98 2 3 C1.68 3.13 1.68 3.13 0.06 3.81 C-2 5 -2 5 -3 8 C-3.66 8 -4.32 8 -5 8 C-5.33 8.66 -5.66 9.32 -6 10 C-6 9.34 -6 8.68 -6 8 C-8.97 8 -11.94 8 -15 8 C-15 7.34 -15 6.68 -15 6 C-12.69 6 -10.38 6 -8 6 C-7.94 5.6 -7.94 5.6 -7.62 3.56 C-7.42 2.72 -7.21 1.87 -7 1 C-4.47 -0.27 -2.81 -0.28 0 0 Z " fill="#DCE4EF" transform="translate(25,53)"/>
<path d="M0 0 C0.99 0 1.98 0 3 0 C3 0.66 3 1.32 3 2 C4.98 1.67 6.96 1.34 9 1 C9 1.66 9 2.32 9 3 C8.6 3.12 8.6 3.12 6.56 3.75 C4 5 4 5 3.19 7.12 C3.13 7.74 3.06 8.36 3 9 C3.66 9.33 4.32 9.66 5 10 C5 10.99 5 11.98 5 13 C3.35 12.67 1.7 12.34 0 12 C0 10.35 0 8.7 0 7 C-1.65 7 -3.3 7 -5 7 C-4.67 6.01 -4.34 5.02 -4 4 C-3.34 4 -2.68 4 -2 4 C-2 3.34 -2 2.68 -2 2 C-1.34 2 -0.68 2 0 2 C0 1.34 0 0.68 0 0 Z " fill="#B7CBE2" transform="translate(81,38)"/>
<path d="M0 0 C4.29 0 8.58 0 13 0 C13 0.33 13 0.66 13 1 C8.71 1 4.42 1 0 1 C0 0.67 0 0.34 0 0 Z " fill="#EAEFF4" transform="translate(49,78)"/>
<path d="M0 0 C0.99 0.33 1.98 0.66 3 1 C2.01 1.66 1.02 2.32 0 3 C-0.99 2.67 -1.98 2.34 -3 2 C-2.01 1.34 -1.02 0.68 0 0 Z " fill="#EEF2F8" transform="translate(62,67)"/>
<path d="M0 0 C0.66 0 1.32 0 2 0 C2 0.66 2 1.32 2 2 C1.34 2 0.68 2 0 2 C0 1.34 0 0.68 0 0 Z " fill="#EFF0F4" transform="translate(83,18)"/>
<path d="" fill="#F2F6F9" transform="translate(0,0)"/>
</svg>
