<?xml version="1.0" encoding="UTF-8"?>
<!-- Generator: visioncortex VTracer 0.6.12 -->
<svg version="1.1" xmlns="http://www.w3.org/2000/svg" width="97" height="92">
<path d="M0 0 C3 1 3 1 4.31 3.5 C4.87 4.32 5.43 5.15 6 6 C6.51 6.08 6.51 6.08 9.06 6.5 C10.03 6.66 11 6.83 12 7 C13.38 9.56 13.38 9.56 14 12 C14.33 11.34 14.66 10.68 15 10 C15.66 10 16.32 10 17 10 C17 9.01 17 8.02 17 7 C17.99 7.33 18.98 7.66 20 8 C20.37 9.13 20.74 10.27 21.12 11.44 C21.86 13.36 21.86 13.36 23 15 C25.26 15.9 27.37 16.25 29.77 16.6 C32.62 17.11 34.65 18.33 37 20 C36.29 23.68 34.87 26.76 33 30 C32.5 30.16 32.5 30.16 30 31 C28.95 33.49 28.1 35.86 27.31 38.44 C27.09 39.13 26.86 39.83 26.63 40.54 C25 45.66 25 45.66 25 48 C25.78 47.94 26.57 47.88 27.38 47.81 C27.81 47.84 27.81 47.84 30 48 C32 51 32 51 32 54 C31.34 54 30.68 54 30 54 C30 54.99 30 55.98 30 57 C31.65 57.33 33.3 57.66 35 58 C35 58.99 35 59.98 35 61 C31.59 61.78 28.49 62.1 25 62 C25 62.66 25 63.32 25 64 C21.3 66.47 19.38 66.31 15 66 C12.78 64.98 12.78 64.98 11 64 C10.59 64.57 10.18 65.13 9.76 65.71 C9.22 66.45 8.68 67.18 8.12 67.94 C7.59 68.67 7.06 69.4 6.51 70.15 C5 72 5 72 3 73 C0 73.25 0 73.25 -3 73 C-3.66 72.01 -4.32 71.02 -5 70 C-7.33 69.96 -9.67 69.96 -12 70 C-14.44 69 -14.44 69 -16 68 C-16 67.34 -16 66.68 -16 66 C-15.34 65.84 -15.34 65.84 -12 65 C-17.58 63.93 -22.39 64.17 -28 65 C-28 64.01 -28 63.02 -28 62 C-27.5 61.84 -27.5 61.84 -25 61 C-25.66 60.95 -26.33 60.9 -27.01 60.85 C-35.78 60.11 -35.78 60.11 -40 58 C-40 57.34 -40 56.68 -40 56 C-37.06 54.04 -35.38 53.62 -32 53 C-31.84 52.84 -31.84 52.84 -31 52 C-31.66 51.67 -32.32 51.34 -33 51 C-32.43 48.13 -32.14 47.14 -30 45 C-27.37 45.38 -27.37 45.38 -25 46 C-25 46.66 -25 47.32 -25 48 C-24.34 48 -23.68 48 -23 48 C-23.14 47.68 -23.14 47.68 -23.84 46.06 C-27.16 38.13 -27.16 38.13 -27.5 34 C-27.66 33.01 -27.83 32.02 -28 31 C-29.87 29.94 -29.87 29.94 -32 29 C-34.26 25.29 -35 23.4 -35 19 C-29.66 13.66 -22.19 13.68 -15 13 C-14.01 13 -13.02 13 -12 13 C-11.88 12.36 -11.75 11.72 -11.62 11.06 C-11.42 10.38 -11.21 9.7 -11 9 C-10.34 8.67 -9.68 8.34 -9 8 C-9 8.66 -9 9.32 -9 10 C-7.68 10.33 -6.36 10.66 -5 11 C-4 9 -4 9 -4 5 C-3.34 5 -2.68 5 -2 5 C-1.86 4.36 -1.71 3.72 -1.56 3.06 C-1 1 -1 1 0 0 Z M18 44 C17.4 46.76 17 49.16 17 52 C18.32 51.34 19.64 50.68 21 50 C20.67 48.02 20.34 46.04 20 44 C19.34 44 18.68 44 18 44 Z M-18 45 C-18.33 45.99 -18.66 46.98 -19 48 C-17.68 48.33 -16.36 48.66 -15 49 C-15.66 47.68 -16.32 46.36 -17 45 C-17.33 45 -17.66 45 -18 45 Z " fill="#95989F" transform="translate(50,10)"/>
<path d="M0 0 C0.66 0 1.32 0 2 0 C1.67 1.24 1.34 2.48 1 3.75 C-0.12 8.68 -0.12 13.36 0.03 18.4 C0 21 0 21 -1 24 C-0.58 23.58 -0.58 23.58 1.56 21.44 C4.34 19.1 4.85 19 8.75 19 C12 20 12 20 14 23 C14 23.99 14 24.98 14 26 C13.34 26 12.68 26 12 26 C12 26.99 12 27.98 12 29 C13.65 29.33 15.3 29.66 17 30 C17 30.99 17 31.98 17 33 C13.59 33.78 10.49 34.1 7 34 C7 34.66 7 35.32 7 36 C3.3 38.47 1.38 38.31 -3 38 C-5.22 36.98 -5.22 36.98 -7 36 C-7.2 36.28 -7.2 36.28 -8.24 37.71 C-8.78 38.45 -9.32 39.18 -9.88 39.94 C-10.41 40.67 -10.94 41.4 -11.49 42.15 C-13 44 -13 44 -15 45 C-18 45.25 -18 45.25 -21 45 C-21.66 44.01 -22.32 43.02 -23 42 C-25.33 41.96 -27.67 41.96 -30 42 C-32.44 41 -32.44 41 -34 40 C-34 39.34 -34 38.68 -34 38 C-33.34 37.84 -33.34 37.84 -30 37 C-35.58 35.93 -40.39 36.17 -46 37 C-46 36.01 -46 35.02 -46 34 C-45.5 33.84 -45.5 33.84 -43 33 C-43.66 32.95 -44.33 32.9 -45.01 32.85 C-53.78 32.11 -53.78 32.11 -58 30 C-58 29.34 -58 28.68 -58 28 C-55.06 26.04 -53.38 25.62 -50 25 C-49.67 24.67 -49.34 24.34 -49 24 C-49.66 23.67 -50.32 23.34 -51 23 C-50.43 20.13 -50.14 19.14 -48 17 C-45.38 17.38 -45.38 17.38 -43 18 C-43 18.66 -43 19.32 -43 20 C-42.34 20 -41.68 20 -41 20 C-41.3 19.34 -41.6 18.67 -41.91 17.99 C-42.1 17.55 -42.1 17.55 -43.06 15.31 C-43.45 14.44 -43.83 13.57 -44.22 12.68 C-45.09 9.68 -44.85 7.97 -44 5 C-41.09 6.07 -40.17 6.64 -38.81 9.5 C-38.54 10.33 -38.28 11.15 -38 12 C-37.67 12.66 -37.34 13.32 -37 14 C-36.34 13.67 -35.68 13.34 -35 13 C-34.67 14.65 -34.34 16.3 -34 18 C-33.34 18 -32.68 18 -32 18 C-30.55 22.54 -29.76 26.18 -30 31 C-28.84 30.84 -28.84 30.84 -23 30 C-22.84 30.5 -22.84 30.5 -22 33 C-22.33 33.16 -22.33 33.16 -24 34 C-22.68 34.66 -21.36 35.32 -20 36 C-20 36.66 -20 37.32 -20 38 C-19.34 38 -18.68 38 -18 38 C-17.67 36.02 -17.34 34.04 -17 32 C-15.02 32 -13.04 32 -11 32 C-11 31.34 -11 30.68 -11 30 C-11.66 30 -12.32 30 -13 30 C-13 29.34 -13 28.68 -13 28 C-12.34 28 -11.68 28 -11 28 C-11 27.01 -11 26.02 -11 25 C-9.68 24.67 -8.36 24.34 -7 24 C-7 23.34 -7 22.68 -7 22 C-6.01 22 -5.02 22 -4 22 C-4 20.02 -4 18.04 -4 16 C-5.32 16.33 -6.64 16.66 -8 17 C-7.67 15.02 -7.34 13.04 -7 11 C-5.68 10.67 -4.36 10.34 -3 10 C-3.06 9.28 -3.12 8.56 -3.19 7.81 C-2.96 4.44 -2 2.69 0 0 Z M-36 17 C-36.33 17.99 -36.66 18.98 -37 20 C-35.68 20.33 -34.36 20.66 -33 21 C-33.66 19.68 -34.32 18.36 -35 17 C-35.33 17 -35.66 17 -36 17 Z " fill="#D1D5D9" transform="translate(68,38)"/>
<path d="M0 0 C5.75 -0.12 5.75 -0.12 8 1 C7.67 5.29 7.34 9.58 7 14 C7.66 14.33 8.32 14.66 9 15 C8.67 16.32 8.34 17.64 8 19 C9.65 18.34 11.3 17.68 13 17 C12.67 19.31 12.34 21.62 12 24 C11.01 24 10.02 24 9 24 C9 24.66 9 25.32 9 26 C7.68 26.33 6.36 26.66 5 27 C5 27.99 5 28.98 5 30 C4.34 30 3.68 30 3 30 C3 30.66 3 31.32 3 32 C3.66 32 4.32 32 5 32 C5 32.66 5 33.32 5 34 C3.02 34 1.04 34 -1 34 C-1.33 35.98 -1.66 37.96 -2 40 C-2.66 40 -3.32 40 -4 40 C-4 39.34 -4 38.68 -4 38 C-6.31 37.34 -8.62 36.68 -11 36 C-9.68 35.34 -8.36 34.68 -7 34 C-7 33.34 -7 32.68 -7 32 C-8.16 32.16 -8.16 32.16 -14 33 C-16.29 24.57 -16.29 24.57 -16 20 C-14.68 20 -13.36 20 -12 20 C-11.67 19.34 -11.34 18.68 -11 18 C-11.66 18 -12.32 18 -13 18 C-13 17.01 -13 16.02 -13 15 C-14.32 14.34 -15.64 13.68 -17 13 C-17 12.01 -17 11.02 -17 10 C-15.35 10 -13.7 10 -12 10 C-11.71 10.97 -11.42 11.94 -11.12 12.94 C-10 16 -10 16 -8 17 C-8.33 18.65 -8.66 20.3 -9 22 C-8.34 22.33 -7.68 22.66 -7 23 C-7 22.01 -7 21.02 -7 20 C-6.34 20 -5.68 20 -5 20 C-5.66 19.01 -6.32 18.02 -7 17 C-6.76 14.74 -6.76 14.74 -6.12 12.31 C-5.92 11.5 -5.72 10.7 -5.51 9.86 C-5.42 9.56 -5.42 9.56 -5 8 C-3.35 7.67 -1.7 7.34 0 7 C0.66 8.32 1.32 9.64 2 11 C2.99 10.67 3.98 10.34 5 10 C5.33 7.36 5.66 4.72 6 2 C5.34 2 4.68 2 4 2 C4 4.64 4 7.28 4 10 C3.34 10 2.68 10 2 10 C2 7.69 2 5.38 2 3 C1.01 3 0.02 3 -1 3 C-0.67 2.01 -0.34 1.02 0 0 Z " fill="#A8B4C6" transform="translate(52,36)"/>
<path d="M0 0 C0 0.66 0 1.32 0 2 C-0.66 2 -1.32 2 -2 2 C-2 2.66 -2 3.32 -2 4 C-1.34 3.67 -0.68 3.34 0 3 C2.94 2.75 2.94 2.75 6 3 C6.99 3.99 7.98 4.98 9 6 C5.37 6 1.74 6 -2 6 C-2 6.66 -2 7.32 -2 8 C2.95 7.67 7.9 7.34 13 7 C13 7.99 13 8.98 13 10 C14.32 10.33 15.64 10.66 17 11 C17 13.31 17 15.62 17 18 C17.66 18 18.32 18 19 18 C19 15.36 19 12.72 19 10 C19.66 10 20.32 10 21 10 C21 12.64 21 15.28 21 18 C20.34 18.33 20.34 18.33 17 20 C16.34 19.34 15.68 18.68 15 18 C15 17.01 15 16.02 15 15 C13.35 15.33 11.7 15.66 10 16 C9.83 17.42 9.66 18.83 9.5 20.25 C9.45 20.64 9.45 20.64 9.22 22.64 C9 25 9 25 9 29 C8 31.25 8 31.25 7 33 C5.88 31.25 5.88 31.25 5 29 C5.88 26.75 5.88 26.75 7 25 C5.68 24.34 4.36 23.68 3 23 C3 21.35 3 19.7 3 18 C2.01 18.33 1.02 18.66 0 19 C-0.66 18.67 -1.32 18.34 -2 18 C-0.25 21.88 -0.25 21.88 2 23 C2 23.99 2 24.98 2 26 C2.66 26 3.32 26 4 26 C3.67 26.99 3.34 27.98 3 29 C0.12 28.75 0.12 28.75 -3 28 C-4.38 25.94 -4.38 25.94 -5 24 C-5.66 24.99 -6.32 25.98 -7 27 C-7.14 26.46 -7.14 26.46 -7.88 23.75 C-8.73 20.91 -9.56 18.56 -11 16 C-11.33 16.66 -11.66 17.32 -12 18 C-12.06 17.11 -12.12 16.23 -12.19 15.31 C-13.18 11.25 -14.98 9.79 -18 7 C-18 6.34 -18 5.68 -18 5 C-18.99 4.67 -19.98 4.34 -21 4 C-21 3.67 -21 3.34 -21 3 C-15.72 3 -10.44 3 -5 3 C-5 2.34 -5 1.68 -5 1 C-3 0 -3 0 0 0 Z " fill="#838993" transform="translate(37,28)"/>
<path d="M0 0 C3 1 3 1 4.31 3.5 C4.59 3.91 4.59 3.91 6 6 C6.51 6.08 6.51 6.08 9.06 6.5 C10.03 6.66 11 6.83 12 7 C13.38 9.56 13.38 9.56 14 12 C14.33 11.34 14.66 10.68 15 10 C15.66 10 16.32 10 17 10 C17 9.01 17 8.02 17 7 C17.99 7.33 18.98 7.66 20 8 C20.37 9.13 20.74 10.27 21.12 11.44 C21.86 13.36 21.86 13.36 23 15 C25.26 15.9 27.37 16.25 29.77 16.6 C32.62 17.11 34.65 18.33 37 20 C36.29 23.68 34.87 26.76 33 30 C32.01 30.33 31.02 30.66 30 31 C29.01 33.49 28.19 35.88 27.44 38.44 C25.24 45.76 25.24 45.76 23 48 C22.01 48 21.02 48 20 48 C20 46.68 20 45.36 20 44 C19.34 43.67 18.68 43.34 18 43 C19.32 43 20.64 43 22 43 C22.33 41.35 22.66 39.7 23 38 C23.66 38 24.32 38 25 38 C25 37.01 25 36.02 25 35 C24.34 35 23.68 35 23 35 C23.29 34.3 23.58 33.6 23.88 32.88 C27.44 23.75 27.44 23.75 26 20 C24.68 20 23.36 20 22 20 C22 20.66 22 21.32 22 22 C20.02 22 18.04 22 16 22 C16 22.66 16 23.32 16 24 C17.32 24.33 18.64 24.66 20 25 C20 25.66 20 26.32 20 27 C19.01 27 18.02 27 17 27 C17 27.66 17 28.32 17 29 C16.34 29 15.68 29 15 29 C14.67 28.01 14.34 27.02 14 26 C13.36 25.95 12.72 25.9 12.07 25.85 C11.24 25.78 10.41 25.7 9.56 25.62 C8.74 25.56 7.92 25.49 7.07 25.41 C6.38 25.28 5.7 25.14 5 25 C4.67 24.34 4.34 23.68 4 23 C4.33 22.01 4.66 21.02 5 20 C5.66 20 6.32 20 7 20 C7 20.66 7 21.32 7 22 C7.66 22 8.32 22 9 22 C9 21.34 9 20.68 9 20 C12.3 20 15.6 20 19 20 C18.84 19.18 18.84 19.18 18 15 C11.38 13.88 11.38 13.88 8 15 C7.01 14.67 6.02 14.34 5 14 C5 13.34 5 12.68 5 12 C2.03 11.67 -0.94 11.34 -4 11 C-4 9.02 -4 7.04 -4 5 C-3.34 5 -2.68 5 -2 5 C-1.93 4.68 -1.93 4.68 -1.56 3.06 C-1 1 -1 1 0 0 Z " fill="#BAB9AB" transform="translate(50,10)"/>
<path d="M0 0 C2.91 1.07 3.83 1.64 5.19 4.5 C5.46 5.33 5.72 6.15 6 7 C6.33 7.66 6.66 8.32 7 9 C7.66 8.67 8.32 8.34 9 8 C9.33 9.65 9.66 11.3 10 13 C10.66 13 11.32 13 12 13 C12.99 17.62 13.98 22.24 15 27 C11.7 26.67 8.4 26.34 5 26 C5 26.66 5 27.32 5 28 C4.34 28 3.68 28 3 28 C3 27.01 3 26.02 3 25 C2.19 25.17 1.38 25.34 0.55 25.51 C-0.52 25.71 -1.59 25.92 -2.69 26.12 C-3.74 26.33 -4.8 26.54 -5.89 26.76 C-9.24 27.02 -11.02 26.49 -14 25 C-14 24.34 -14 23.68 -14 23 C-11.06 21.04 -9.38 20.62 -6 20 C-5.67 19.67 -5.34 19.34 -5 19 C-5.66 18.67 -6.32 18.34 -7 18 C-6.43 15.13 -6.14 14.14 -4 12 C-1.37 12.38 -1.37 12.38 1 13 C1 13.66 1 14.32 1 15 C1.66 15 2.32 15 3 15 C2.7 14.34 2.4 13.67 2.09 12.99 C1.71 12.11 1.33 11.22 0.94 10.31 C0.55 9.44 0.17 8.57 -0.22 7.68 C-1.09 4.68 -0.85 2.97 0 0 Z M8 12 C7.67 12.99 7.34 13.98 7 15 C8.32 15.33 9.64 15.66 11 16 C10.34 14.68 9.68 13.36 9 12 C8.67 12 8.34 12 8 12 Z " fill="#CBD9E9" transform="translate(24,43)"/>
<path d="M0 0 C0.66 1.65 1.32 3.3 2 5 C1.34 5 0.68 5 0 5 C0.06 5.78 0.12 6.57 0.19 7.38 C0.16 7.81 0.16 7.81 0 10 C-0.99 10.66 -1.98 11.32 -3 12 C-2.78 12.84 -2.57 13.69 -2.34 14.55 C-2.07 15.65 -1.79 16.75 -1.5 17.88 C-1.36 18.42 -1.36 18.42 -0.66 21.18 C0 24 0 24 0 26 C-4.62 26 -9.24 26 -14 26 C-16.29 17.57 -16.29 17.57 -16 13 C-14.68 13 -13.36 13 -12 13 C-11.67 12.34 -11.34 11.68 -11 11 C-11.66 11 -12.32 11 -13 11 C-13 10.01 -13 9.02 -13 8 C-14.32 7.34 -15.64 6.68 -17 6 C-17 5.01 -17 4.02 -17 3 C-15.35 3 -13.7 3 -12 3 C-11.71 3.97 -11.42 4.94 -11.12 5.94 C-10 9 -10 9 -8 10 C-8.33 11.65 -8.66 13.3 -9 15 C-8.34 15.33 -7.68 15.66 -7 16 C-7 15.01 -7 14.02 -7 13 C-6.34 13 -5.68 13 -5 13 C-5.66 12.01 -6.32 11.02 -7 10 C-6.83 7.77 -6.83 7.77 -6.25 5.38 C-6.07 4.58 -5.89 3.78 -5.7 2.96 C-4.57 -0.21 -3.25 0 0 0 Z " fill="#9DA9BA" transform="translate(52,43)"/>
<path d="M0 0 C0.33 0.66 0.66 1.32 1 2 C3.56 2.62 3.56 2.62 6 3 C6 3.66 6 4.32 6 5 C2.25 6.12 2.25 6.12 0 5 C-0.33 5.99 -0.66 6.98 -1 8 C-0.34 8.33 0.32 8.66 1 9 C0.01 9.66 -0.98 10.32 -2 11 C1.3 11 4.6 11 8 11 C8.16 11.82 8.16 11.82 9 16 C9.99 16.33 10.98 16.66 12 17 C8.39 18.13 5.02 18.1 1.25 18.06 C0.08 18.05 -1.09 18.04 -2.3 18.04 C-3.19 18.02 -4.08 18.01 -5 18 C-5 17.34 -5 16.68 -5 16 C-1.7 15.67 1.6 15.34 5 15 C2.71 13.86 1.41 13.9 -1.12 13.94 C-1.76 13.95 -1.76 13.95 -5 14 C-5 13.34 -5 12.68 -5 12 C-4.34 12 -3.68 12 -3 12 C-3 11.34 -3 10.68 -3 10 C-4.65 10.33 -6.3 10.66 -8 11 C-8 11.66 -8 12.32 -8 13 C-13.07 13.71 -17.88 14.11 -23 14 C-22.38 14.6 -21.76 15.2 -21.12 15.81 C-19 18 -19 18 -17 21 C-16.34 20.67 -15.68 20.34 -15 20 C-15.33 21.65 -15.66 23.3 -16 25 C-20.71 22.28 -23.08 20.13 -25 15 C-25 13.68 -25 12.36 -25 11 C-19.66 5.66 -12.19 5.68 -5 5 C-4.01 5 -3.02 5 -2 5 C-1.86 4.36 -1.71 3.72 -1.56 3.06 C-1 1 -1 1 0 0 Z " fill="#B8B29F" transform="translate(40,18)"/>
<path d="M0 0 C6.75 -0.12 6.75 -0.12 9 1 C9 1.66 9 2.32 9 3 C9.83 3.16 9.83 3.16 14 4 C14.33 3.01 14.66 2.02 15 1 C17.64 1.99 20.28 2.98 23 4 C23 5.65 23 7.3 23 9 C19.7 9 16.4 9 13 9 C13 9.66 13 10.32 13 11 C12.34 11 11.68 11 11 11 C11 10.34 11 9.68 11 9 C10.34 9 9.68 9 9 9 C9.33 10.98 9.66 12.96 10 15 C9.38 15.12 8.76 15.25 8.12 15.38 C6 16 6 16 4 18 C3 16 3 16 3 13 C2.69 11.33 2.36 9.66 2 8 C-1.3 8 -4.6 8 -8 8 C-7.67 7.34 -7.34 6.68 -7 6 C-7 5.67 -7 5.34 -7 5 C-6.68 3.66 -6.34 2.33 -6 1 C-5.01 1.16 -5.01 1.16 0 2 C0 1.34 0 0.68 0 0 Z " fill="#A2A08A" transform="translate(46,21)"/>
<path d="M0 0 C0 0.99 0 1.98 0 3 C0.66 3 1.32 3 2 3 C2 2.34 2 1.68 2 1 C2.33 1.01 2.33 1.01 3.98 1.04 C8.78 1.08 13.28 0.99 18 0 C18.33 0.99 18.66 1.98 19 3 C18.01 2.83 18.01 2.83 13 2 C13.33 3.98 13.66 5.96 14 8 C15.98 8 17.96 8 20 8 C20.33 8.99 20.66 9.98 21 11 C21.66 11 22.32 11 23 11 C23.33 10.01 23.66 9.02 24 8 C25.98 7.67 27.96 7.34 30 7 C30.33 6.01 30.66 5.02 31 4 C31.99 4 32.98 4 34 4 C32.46 8.48 30.39 12.8 26 15 C23 15.25 23 15.25 20 15 C19.34 14.01 18.68 13.02 18 12 C15.67 11.96 13.33 11.96 11 12 C8.56 11 8.56 11 7 10 C7 9.34 7 8.68 7 8 C8.32 7.67 9.64 7.34 11 7 C5.42 5.93 0.61 6.17 -5 7 C-5 6.01 -5 5.02 -5 4 C-4.01 3.67 -3.02 3.34 -2 3 C-3.65 2.67 -5.3 2.34 -7 2 C-4.35 0.54 -3.11 0 0 0 Z " fill="#DAE2EC" transform="translate(27,68)"/>
<path d="M0 0 C5.75 -0.12 5.75 -0.12 8 1 C8.13 18.92 8.13 18.92 3.44 24.12 C1.5 25.88 1.5 25.88 0 27 C-2.69 24.31 -3.06 21.62 -4 18 C-3.01 17.67 -2.02 17.34 -1 17 C-0.94 16.22 -0.88 15.43 -0.81 14.62 C-0.54 13.76 -0.28 12.89 0 12 C2.56 10.69 2.56 10.69 5 10 C5.33 7.36 5.66 4.72 6 2 C5.34 2 4.68 2 4 2 C4 4.64 4 7.28 4 10 C3.34 10 2.68 10 2 10 C2 7.69 2 5.38 2 3 C1.01 3 0.02 3 -1 3 C-0.67 2.01 -0.34 1.02 0 0 Z " fill="#D1C6B4" transform="translate(52,36)"/>
<path d="M0 0 C2.91 1.07 3.83 1.64 5.19 4.5 C5.46 5.33 5.72 6.15 6 7 C6.33 7.66 6.66 8.32 7 9 C7.66 8.67 8.32 8.34 9 8 C9.62 10.38 9.62 10.38 10 13 C9.34 13.66 8.68 14.32 8 15 C7.38 17.62 7.38 17.62 7 20 C8.32 19.67 9.64 19.34 11 19 C11.33 20.32 11.66 21.64 12 23 C8 25.83 4.57 24.76 0 24 C0.29 23.48 0.58 22.97 0.88 22.44 C2.29 19.38 3.12 16.25 4 13 C3.34 13 2.68 13 2 13 C1.47 11.4 0.95 9.79 0.44 8.19 C0.15 7.29 -0.14 6.4 -0.44 5.48 C-1 3 -1 3 0 0 Z " fill="#AABACC" transform="translate(24,43)"/>
<path d="M0 0 C0 1.32 0 2.64 0 4 C0.99 4 1.98 4 3 4 C1.52 8.7 1.52 8.7 -0.94 10.12 C-1.62 10.41 -2.3 10.7 -3 11 C-3.5 11.52 -3.99 12.03 -4.5 12.56 C-6.28 14.27 -7.64 14.45 -10 15 C-10.33 15.66 -10.66 16.32 -11 17 C-13 17 -13 17 -14.62 15.5 C-15.08 15 -15.53 14.51 -16 14 C-16.33 14.66 -16.66 15.32 -17 16 C-17 15.34 -17 14.68 -17 14 C-17.99 14 -18.98 14 -20 14 C-20.33 12.02 -20.66 10.04 -21 8 C-17.66 8.6 -15.54 9.74 -13 12 C-13 12.66 -13 13.32 -13 14 C-12.34 14 -11.68 14 -11 14 C-10.67 12.02 -10.34 10.04 -10 8 C-8.02 8 -6.04 8 -4 8 C-4 7.34 -4 6.68 -4 6 C-4.66 6 -5.32 6 -6 6 C-6 5.34 -6 4.68 -6 4 C-5.34 4 -4.68 4 -4 4 C-4 3.01 -4 2.02 -4 1 C-2 0 -2 0 0 0 Z " fill="#BBC7D4" transform="translate(61,62)"/>
<path d="M0 0 C3.25 1 3.25 1 5.25 4 C5.25 4.99 5.25 5.98 5.25 7 C4.59 7 3.93 7 3.25 7 C3.25 7.99 3.25 8.98 3.25 10 C4.9 10.33 6.55 10.66 8.25 11 C8.25 11.99 8.25 12.98 8.25 14 C3.99 15.16 0.57 14.76 -3.75 14 C-2.43 13.34 -1.11 12.68 0.25 12 C-0.08 10.68 -0.41 9.36 -0.75 8 C-3.06 8 -5.37 8 -7.75 8 C-7.75 7.34 -7.75 6.68 -7.75 6 C-8.41 5.67 -9.07 5.34 -9.75 5 C-4.75 0 -4.75 0 0 0 Z " fill="#E5E9ED" transform="translate(76.75,57)"/>
<path d="M0 0 C0 0.66 0 1.32 0 2 C-0.66 2 -1.32 2 -2 2 C-2 2.66 -2 3.32 -2 4 C-1.34 3.67 -0.68 3.34 0 3 C2.94 2.75 2.94 2.75 6 3 C6.99 3.99 7.98 4.98 9 6 C5.37 6 1.74 6 -2 6 C-1.01 6.99 -0.02 7.98 1 9 C1 9.99 1 10.98 1 12 C-0.65 11.67 -2.3 11.34 -4 11 C-4.14 11.62 -4.29 12.24 -4.44 12.88 C-5 15 -5 15 -6 17 C-6.66 17 -7.32 17 -8 17 C-8.36 15.04 -8.71 13.08 -9.06 11.12 C-9.26 10.03 -9.46 8.94 -9.66 7.82 C-10 5 -10 5 -9 3 C-7.68 3 -6.36 3 -5 3 C-5 2.34 -5 1.68 -5 1 C-3 0 -3 0 0 0 Z " fill="#7F7E7B" transform="translate(37,28)"/>
<path d="M0 0 C3 1 3 1 4.38 3.44 C6.28 6.45 7.65 7 11 8 C10.67 10.31 10.34 12.62 10 15 C8.35 14.67 6.7 14.34 5 14 C5 13.34 5 12.68 5 12 C2.03 11.67 -0.94 11.34 -4 11 C-4 9.02 -4 7.04 -4 5 C-3.34 5 -2.68 5 -2 5 C-1.93 4.68 -1.93 4.68 -1.56 3.06 C-1 1 -1 1 0 0 Z " fill="#A8ABA6" transform="translate(50,10)"/>
<path d="M0 0 C1.16 0.19 2.31 0.37 3.5 0.56 C4.33 0.71 5.15 0.85 6 1 C5.67 1.16 5.67 1.16 4 2 C4 2.66 4 3.32 4 4 C-1.07 4.71 -5.88 5.11 -11 5 C-10.38 5.6 -9.76 6.2 -9.12 6.81 C-7 9 -7 9 -5 12 C-4.34 11.67 -3.68 11.34 -3 11 C-3.33 12.65 -3.66 14.3 -4 16 C-8.71 13.28 -11.08 11.13 -13 6 C-13 4.68 -13 3.36 -13 2 C-8.87 -1.74 -5.1 -1 0 0 Z " fill="#B1B0A7" transform="translate(28,27)"/>
<path d="M0 0 C6.75 -0.12 6.75 -0.12 9 1 C9 1.66 9 2.32 9 3 C7.68 3 6.36 3 5 3 C5 4.32 5 5.64 5 7 C2.36 8.32 0.32 8.1 -2.62 8.06 C-3.63 8.05 -4.63 8.04 -5.66 8.04 C-6.43 8.02 -7.21 8.01 -8 8 C-7.67 7.34 -7.34 6.68 -7 6 C-7 5.67 -7 5.34 -7 5 C-6.68 3.66 -6.34 2.33 -6 1 C-5.01 1.16 -5.01 1.16 0 2 C0 1.34 0 0.68 0 0 Z " fill="#818987" transform="translate(46,21)"/>
<path d="M0 0 C0.99 0.33 1.98 0.66 3 1 C2.71 2.99 2.41 4.97 2.12 6.96 C2 9 2 9 3 12 C2.29 15.07 2.29 15.07 1.19 18.56 C0.83 19.72 0.47 20.88 0.11 22.07 C-1 25 -1 25 -3 27 C-3.99 27 -4.98 27 -6 27 C-6 25.68 -6 24.36 -6 23 C-6.66 22.67 -7.32 22.34 -8 22 C-6.68 22 -5.36 22 -4 22 C-3.67 20.35 -3.34 18.7 -3 17 C-2.34 17 -1.68 17 -1 17 C-1 16.01 -1 15.02 -1 14 C-1.66 14 -2.32 14 -3 14 C-2.71 13.3 -2.42 12.6 -2.12 11.88 C1.16 3.48 1.16 3.48 0 0 Z " fill="#D7CEC2" transform="translate(76,31)"/>
<path d="M0 0 C0.66 1.65 1.32 3.3 2 5 C1.34 5 0.68 5 0 5 C0.06 5.78 0.12 6.57 0.19 7.38 C0.13 8.24 0.06 9.11 0 10 C-0.99 10.66 -1.98 11.32 -3 12 C-2.67 12.66 -2.34 13.32 -2 14 C-1.87 16.67 -1.96 19.32 -2 22 C-4 20 -4 20 -4.12 16.88 C-4.08 15.93 -4.04 14.98 -4 14 C-4.99 13.67 -5.98 13.34 -7 13 C-6.34 13 -5.68 13 -5 13 C-5.66 12.01 -6.32 11.02 -7 10 C-6.83 7.77 -6.83 7.77 -6.25 5.38 C-6.07 4.58 -5.89 3.78 -5.7 2.96 C-4.57 -0.21 -3.25 0 0 0 Z " fill="#969DAB" transform="translate(52,43)"/>
<path d="M0 0 C0.62 -0.02 0.62 -0.02 3.75 -0.12 C4.1 -0.14 4.1 -0.14 5.86 -0.2 C8.44 0.04 9.9 0.46 12 2 C12.61 4.38 12.61 4.38 12.75 7.12 C12.81 8.04 12.86 8.95 12.92 9.88 C12.93 10.23 12.93 10.23 13 12 C12.01 12.33 11.02 12.66 10 13 C9.67 13.66 9.34 14.32 9 15 C8.94 14.11 8.88 13.23 8.81 12.31 C7.82 8.25 6.02 6.79 3 4 C3 3.34 3 2.68 3 2 C2.01 1.67 1.02 1.34 0 1 C0 0.67 0 0.34 0 0 Z " fill="#9A9892" transform="translate(16,31)"/>
<path d="M0 0 C0.66 0 1.32 0 2 0 C2 0.66 2 1.32 2 2 C2.66 2 3.32 2 4 2 C4 1.34 4 0.68 4 0 C7.38 -0.12 7.38 -0.12 11 0 C11.66 0.66 12.32 1.32 13 2 C12.34 2 11.68 2 11 2 C11 2.66 11 3.32 11 4 C12.32 4.33 13.64 4.66 15 5 C15 5.66 15 6.32 15 7 C14.01 7 13.02 7 12 7 C12 7.66 12 8.32 12 9 C11.34 9 10.68 9 10 9 C9.67 8.01 9.34 7.02 9 6 C8.36 5.95 7.72 5.9 7.07 5.85 C6.24 5.78 5.41 5.7 4.56 5.62 C3.74 5.56 2.92 5.49 2.07 5.41 C1.38 5.28 0.7 5.14 0 5 C-0.33 4.34 -0.66 3.68 -1 3 C-0.67 2.01 -0.34 1.02 0 0 Z " fill="#CFC7A2" transform="translate(55,30)"/>
<path d="M0 0 C0.33 0.66 0.66 1.32 1 2 C3.56 2.62 3.56 2.62 6 3 C6 3.66 6 4.32 6 5 C3.51 5.69 1.62 6 -1 6 C-1.99 6.33 -2.98 6.66 -4 7 C-4 7.66 -4 8.32 -4 9 C-6.45 10.22 -7.68 9.99 -10.38 9.69 C-10.76 9.65 -10.76 9.65 -12.71 9.45 C-15.1 8.98 -16.89 8.18 -19 7 C-16.73 6.66 -14.46 6.33 -12.19 6 C-11.56 5.91 -11.56 5.91 -8.36 5.44 C-5 5 -5 5 -2 5 C-1.86 4.36 -1.71 3.72 -1.56 3.06 C-1 1 -1 1 0 0 Z " fill="#CCCABB" transform="translate(40,18)"/>
<path d="M0 0 C0.66 0.33 1.32 0.66 2 1 C1.67 2.32 1.34 3.64 1 5 C2.65 4.34 4.3 3.68 6 3 C5.67 5.31 5.34 7.62 5 10 C4.01 10 3.02 10 2 10 C2 10.66 2 11.32 2 12 C-0.64 12.66 -3.28 13.32 -6 14 C-5.75 11.62 -5.75 11.62 -5 9 C-4.34 8.71 -3.68 8.42 -3 8.12 C-2.34 7.75 -1.68 7.38 -1 7 C-0.25 3.38 -0.25 3.38 0 0 Z " fill="#9EA8B8" transform="translate(59,50)"/>
<path d="M0 0 C1.32 0 2.64 0 4 0 C6.22 5.42 6.22 5.42 5.12 8.38 C4.75 8.91 4.38 9.45 4 10 C2.35 10 0.7 10 -1 10 C-1 8.35 -1 6.7 -1 5 C-2.65 4.67 -4.3 4.34 -6 4 C-6 3.34 -6 2.68 -6 2 C-4.02 2 -2.04 2 0 2 C0 1.34 0 0.68 0 0 Z " fill="#8F9192" transform="translate(72,30)"/>
<path d="M0 0 C1.32 0.33 2.64 0.66 4 1 C3.01 1 2.02 1 1 1 C1 1.66 1 2.32 1 3 C1.99 3 2.98 3 4 3 C4 4.65 4 6.3 4 8 C4.66 8.33 5.32 8.66 6 9 C1.25 13.88 1.25 13.88 -1 15 C-1.99 12.03 -2.98 9.06 -4 6 C-3.01 5.67 -2.02 5.34 -1 5 C-0.67 3.35 -0.34 1.7 0 0 Z " fill="#CAC4BF" transform="translate(52,48)"/>
<path d="M0 0 C0.33 0.66 0.66 1.32 1 2 C0.34 1.67 -0.32 1.34 -1 1 C-0.67 0.67 -0.34 0.34 0 0 Z " fill="#EBEDF2" transform="translate(87,68)"/>
</svg>
