<?xml version="1.0" encoding="UTF-8"?>
<!-- Generator: visioncortex VTracer 0.6.12 -->
<svg version="1.1" xmlns="http://www.w3.org/2000/svg" width="109" height="56">
<path d="M0 0 C2 1.38 2 1.38 4 3 C4 3.66 4 4.32 4 5 C4.99 5 5.98 5 7 5 C7 5.99 7 6.98 7 8 C7.33 8.16 7.33 8.16 9 9 C9 9.66 9 10.32 9 11 C9.66 11 10.32 11 11 11 C11.33 10.34 11.66 9.68 12 9 C12.16 9.5 12.16 9.5 13 12 C13.43 11.18 13.87 10.35 14.31 9.5 C14.87 8.68 15.43 7.85 16 7 C16.99 7 17.98 7 19 7 C20.46 9.65 21 10.89 21 14 C22.07 14.12 23.14 14.25 24.25 14.38 C27.38 14.9 29.33 15.4 32 17 C31.4 17.27 30.8 17.54 30.19 17.81 C28 19 28 19 26.75 20.56 C23.02 23.63 16.68 23.15 12 23 C11.07 26.01 10.96 26.87 12 30 C10.68 29.67 9.36 29.34 8 29 C7.84 29.49 7.84 29.49 7 32 C-0.43 33.29 -0.43 33.29 -4 32 C-4.33 32.99 -4.66 33.98 -5 35 C-9.09 36.76 -11.09 37.34 -15.31 35.75 C-18 34 -18 34 -20 32 C-20.26 32.16 -20.26 32.16 -21.56 33 C-24.78 34.32 -27.56 34.13 -31 34 C-30.67 32.68 -30.34 31.36 -30 30 C-30.38 29.77 -30.38 29.77 -32.31 28.62 C-34.24 27.46 -36.13 26.25 -38 25 C-38.33 25.99 -38.66 26.98 -39 28 C-40.44 28.05 -41.87 28.09 -43.31 28.12 C-43.71 28.14 -43.71 28.14 -45.74 28.2 C-48 28 -48 28 -51 26 C-53.32 25.61 -55.66 25.27 -58 25 C-57 22 -57 22 -55.18 21.09 C-50.43 19.62 -45.92 18.62 -41 18 C-40.67 17.67 -40.34 17.34 -40 17 C-37.66 17.29 -35.33 17.62 -33 18 C-32.71 17.42 -32.42 16.84 -32.12 16.25 C-31.6 15.21 -31.6 15.21 -29 10 C-28.4 10.31 -27.8 10.62 -27.19 10.94 C-25 12 -25 12 -22 13 C-21.2 12.67 -20.39 12.34 -19.56 12 C-16.77 10.91 -15.75 10.98 -13 12 C-12.65 11.03 -12.3 10.06 -11.94 9.06 C-10 6 -10 6 -6.31 5.12 C-5.22 5.08 -4.13 5.04 -3 5 C-2.94 4.68 -2.94 4.68 -2.62 3.06 C-2.42 2.38 -2.21 1.7 -2 1 C-1.34 0.67 -0.68 0.34 0 0 Z M-24.62 28.5 C-25.08 29 -25.53 29.49 -26 30 C-24.02 30 -22.04 30 -20 30 C-20.33 29.01 -20.66 28.02 -21 27 C-23 27 -23 27 -24.62 28.5 Z " fill="#A1A7A6" transform="translate(68,10)"/>
<path d="M0 0 C0.6 0.35 1.2 0.7 1.81 1.06 C1.81 1.72 1.81 2.38 1.81 3.06 C2.47 3.06 3.13 3.06 3.81 3.06 C4.14 2.4 4.47 1.74 4.81 1.06 C4.98 1.56 4.98 1.56 5.81 4.06 C6.25 3.24 6.68 2.41 7.12 1.56 C7.68 0.74 8.24 -0.09 8.81 -0.94 C9.8 -0.94 10.79 -0.94 11.81 -0.94 C13.27 1.71 13.81 2.96 13.81 6.06 C14.89 6.19 15.96 6.31 17.06 6.44 C20.19 6.96 22.15 7.46 24.81 9.06 C24.21 9.33 23.62 9.6 23 9.88 C20.81 11.06 20.81 11.06 19.56 12.62 C15.83 15.69 9.49 15.21 4.81 15.06 C3.88 18.07 3.77 18.93 4.81 22.06 C3.49 21.73 2.17 21.4 0.81 21.06 C0.65 21.56 0.65 21.56 -0.19 24.06 C-7.62 25.35 -7.62 25.35 -11.19 24.06 C-11.35 24.56 -11.35 24.56 -12.19 27.06 C-16.28 28.83 -18.28 29.41 -22.5 27.81 C-25.19 26.06 -25.19 26.06 -27.19 24.06 C-27.7 24.39 -28.22 24.72 -28.75 25.06 C-31.97 26.38 -34.74 26.19 -38.19 26.06 C-37.86 24.74 -37.53 23.42 -37.19 22.06 C-37.57 21.84 -37.57 21.84 -39.5 20.69 C-41.42 19.52 -43.32 18.31 -45.19 17.06 C-45.52 18.05 -45.85 19.04 -46.19 20.06 C-47.62 20.12 -49.06 20.16 -50.5 20.19 C-50.9 20.2 -50.9 20.2 -52.93 20.26 C-55.19 20.06 -55.19 20.06 -58.19 18.06 C-60.51 17.67 -62.85 17.33 -65.19 17.06 C-64.19 14.06 -64.19 14.06 -62.37 13.15 C-57.62 11.68 -53.11 10.68 -48.19 10.06 C-47.86 9.73 -47.53 9.4 -47.19 9.06 C-44.85 9.35 -42.51 9.68 -40.19 10.06 C-39.86 9.4 -39.53 8.74 -39.19 8.06 C-38.86 9.71 -38.53 11.36 -38.19 13.06 C-36.21 13.06 -34.23 13.06 -32.19 13.06 C-32.19 13.72 -32.19 14.38 -32.19 15.06 C-30.54 15.06 -28.89 15.06 -27.19 15.06 C-26.98 15.99 -26.77 16.92 -26.56 17.88 C-25.19 21.06 -25.19 21.06 -22.56 23.06 C-17.95 24.43 -15.69 23.66 -11.19 22.06 C-10.86 21.4 -10.53 20.74 -10.19 20.06 C-9.2 20.39 -8.21 20.72 -7.19 21.06 C-7.19 19.08 -7.19 17.1 -7.19 15.06 C-5.21 15.39 -3.23 15.72 -1.19 16.06 C-1.19 15.07 -1.19 14.08 -1.19 13.06 C2.56 11.94 2.56 11.94 4.81 13.06 C4.81 12.4 4.81 11.74 4.81 11.06 C5.47 11.06 6.13 11.06 6.81 11.06 C6.81 11.72 6.81 12.38 6.81 13.06 C7.64 12.9 7.64 12.9 11.81 12.06 C11.81 11.4 11.81 10.74 11.81 10.06 C11.48 9.73 11.48 9.73 9.81 8.06 C10.8 8.06 11.79 8.06 12.81 8.06 C11.82 6.74 10.83 5.42 9.81 4.06 C9.48 4.39 9.15 4.72 8.81 5.06 C7.18 4.97 5.56 4.82 3.94 4.62 C1.19 4.31 -1.41 4.06 -4.19 4.06 C-4.85 3.73 -5.51 3.4 -6.19 3.06 C-5.86 2.07 -5.53 1.08 -5.19 0.06 C-2.19 -0.94 -2.19 -0.94 0 0 Z M-31.81 20.56 C-32.27 21.06 -32.72 21.55 -33.19 22.06 C-31.21 22.06 -29.23 22.06 -27.19 22.06 C-27.52 21.07 -27.85 20.08 -28.19 19.06 C-30.19 19.06 -30.19 19.06 -31.81 20.56 Z " fill="#CBCAC5" transform="translate(75.1875,17.9375)"/>
<path d="M0 0 C2 3 2 3 2 5 C3.98 5 5.96 5 8 5 C8 5.66 8 6.32 8 7 C9.65 7 11.3 7 13 7 C12.67 7.99 12.34 8.98 12 10 C11.01 10.33 10.02 10.66 9 11 C8.67 11.66 8.34 12.32 8 13 C8.83 13.16 8.83 13.16 13 14 C13 14.66 13 15.32 13 16 C9.37 18.33 6.23 18.16 2 18 C2.33 16.68 2.66 15.36 3 14 C2.24 13.55 1.47 13.09 0.69 12.62 C-1.24 11.46 -3.13 10.25 -5 9 C-5.33 9.99 -5.66 10.98 -6 12 C-7.44 12.05 -8.87 12.09 -10.31 12.12 C-11.11 12.15 -11.91 12.17 -12.74 12.2 C-15 12 -15 12 -18 10 C-20.32 9.61 -22.66 9.27 -25 9 C-24 6 -24 6 -22.18 5.09 C-17.43 3.62 -12.92 2.62 -8 2 C-7.67 1.67 -7.34 1.34 -7 1 C-4.66 1.29 -2.33 1.62 0 2 C0 1.34 0 0.68 0 0 Z " fill="#B5BCBF" transform="translate(35,26)"/>
<path d="M0 0 C0.6 0.21 1.2 0.41 1.81 0.62 C1.81 1.61 1.81 2.61 1.81 3.62 C2.37 3.75 2.93 3.87 3.5 4 C7.18 4.99 10.09 5.9 12.81 8.62 C15.94 8.75 15.94 8.75 18.81 8.62 C18.81 7.63 18.81 6.64 18.81 5.62 C18.04 5.56 17.27 5.5 16.48 5.44 C15.98 5.4 15.98 5.4 13.44 5.19 C12.44 5.11 11.44 5.03 10.41 4.94 C7.81 4.62 7.81 4.62 5.81 3.62 C5.81 2.63 5.81 1.64 5.81 0.62 C9.9 1.37 13.83 2.45 17.81 3.62 C18.14 2.63 18.47 1.64 18.81 0.62 C19.64 0.79 19.64 0.79 23.81 1.62 C24.14 3.27 24.47 4.93 24.81 6.62 C23.49 6.62 22.17 6.62 20.81 6.62 C20.81 7.62 20.81 8.61 20.81 9.62 C20.15 9.62 19.49 9.62 18.81 9.62 C18.81 10.62 18.81 11.61 18.81 12.62 C19.47 12.62 20.13 12.62 20.81 12.62 C20.48 13.62 20.15 14.61 19.81 15.62 C11.24 16.91 11.24 16.91 7.81 15.62 C7.48 13.64 7.15 11.66 6.81 9.62 C5.16 9.62 3.51 9.62 1.81 9.62 C1.81 8.97 1.81 8.3 1.81 7.62 C-0.17 7.62 -2.15 7.62 -4.19 7.62 C-4.52 5.64 -4.85 3.66 -5.19 1.62 C-2.19 -0.38 -2.19 -0.38 0 0 Z " fill="#9FA199" transform="translate(41.1875,23.375)"/>
<path d="M0 0 C3 1 3 1 5 4 C7.64 3.67 10.28 3.34 13 3 C13 3.99 13 4.98 13 6 C9.7 6.33 6.4 6.66 3 7 C3 7.66 3 8.32 3 9 C2.34 9 1.68 9 1 9 C1.33 11.97 1.66 14.94 2 18 C-0.14 18.66 -0.14 18.66 -11 22 C-12.32 20.68 -13.64 19.36 -15 18 C-13.91 18.02 -12.81 18.04 -11.69 18.06 C-8 18 -8 18 -5 17 C-4.67 16.34 -4.34 15.68 -4 15 C-4.99 15.33 -5.98 15.66 -7 16 C-9.69 15.56 -9.69 15.56 -12 15 C-12 14.67 -12 14.34 -12 14 C-10.02 14 -8.04 14 -6 14 C-6 13.34 -6 12.68 -6 12 C-5.34 12 -4.68 12 -4 12 C-4 11.01 -4 10.02 -4 9 C-2.68 9 -1.36 9 0 9 C-0.33 8.01 -0.66 7.02 -1 6 C-0.35 4.66 0.32 3.32 1 2 C0.67 1.34 0.34 0.68 0 0 Z " fill="#C0BEB2" transform="translate(66,21)"/>
<path d="M0 0 C1.65 0 3.3 0 5 0 C5.02 0.3 5.02 0.3 5.12 1.81 C6 4 6 4 8.56 5.88 C13.24 7.4 15.4 6.64 20 5 C20.33 4.34 20.66 3.68 21 3 C21.99 3 22.98 3 24 3 C30.63 2.19 30.63 2.19 33 1 C33.99 1.66 34.98 2.32 36 3 C36 3.66 36 4.32 36 5 C34.68 4.67 33.36 4.34 32 4 C31.67 4.99 31.34 5.98 31 7 C23.57 8.29 23.57 8.29 20 7 C19.67 7.99 19.34 8.98 19 10 C15.05 11.7 12.9 12.28 8.75 11 C5.54 8.66 4.69 6.53 3 3 C0.81 2.12 0.81 2.12 -1 2 C-0.67 1.34 -0.34 0.68 0 0 Z " fill="#D6DEE6" transform="translate(44,35)"/>
<path d="M0 0 C0.6 0.31 1.2 0.62 1.81 0.94 C4 2 4 2 7 3 C7.8 2.67 8.61 2.34 9.44 2 C12.31 0.88 13.15 1.21 16 2 C16.66 1.34 17.32 0.68 18 0 C17.67 1.65 17.34 3.3 17 5 C17.99 5 18.98 5 20 5 C20 5.66 20 6.32 20 7 C17.12 7.12 17.12 7.12 14 7 C13.34 6.34 12.68 5.68 12 5 C9.88 4.38 9.88 4.38 8 4 C8 4.99 8 5.98 8 7 C12.29 7.66 16.58 8.32 21 9 C21 9.99 21 10.98 21 12 C18.19 12.69 18.19 12.69 15 13 C13.98 12.02 12.98 11.02 12 10 C9.96 9.05 9.96 9.05 7.81 8.31 C7.1 8.06 6.38 7.81 5.64 7.55 C5.1 7.37 4.56 7.19 4 7 C4 6.01 4 5.02 4 4 C2.35 4 0.7 4 -1 4 C-0.67 2.68 -0.34 1.36 0 0 Z " fill="#CDCEC6" transform="translate(39,20)"/>
<path d="M0 0 C2.34 0.29 4.67 0.62 7 1 C6.01 1.66 5.02 2.32 4 3 C3.25 3.7 2.51 4.39 1.74 5.11 C-1.7 7.48 -3.68 7.42 -7.81 7.25 C-8.39 7.23 -8.39 7.23 -11.33 7.14 C-12.21 7.09 -13.09 7.05 -14 7 C-14 6.01 -14 5.02 -14 4 C-9.67 2.41 -5.56 1.63 -1 1 C-0.67 0.67 -0.34 0.34 0 0 Z " fill="#AEB6B9" transform="translate(28,27)"/>
<path d="M0 0 C0.99 0 1.98 0 3 0 C3 0.66 3 1.32 3 2 C9.93 2 16.86 2 24 2 C24.66 3.32 25.32 4.64 26 6 C23.04 5.39 21.62 4.75 19 3 C18.67 3.99 18.34 4.98 18 6 C16.56 6.05 15.13 6.09 13.69 6.12 C12.89 6.15 12.09 6.17 11.26 6.2 C9 6 9 6 6 4 C3.68 3.61 1.34 3.27 -1 3 C-0.67 2.01 -0.34 1.02 0 0 Z " fill="#D4DAE4" transform="translate(11,32)"/>
<path d="M0 0 C2.64 0.99 5.28 1.98 8 3 C7.67 3.99 7.34 4.98 7 6 C3.7 6.33 0.4 6.66 -3 7 C-3 5.68 -3 4.36 -3 3 C-2.01 2.01 -1.02 1.02 0 0 Z " fill="#CFD3D8" transform="translate(87,34)"/>
<path d="M0 0 C0.99 0 1.98 0 3 0 C3 0.66 3 1.32 3 2 C2.01 2 1.02 2 0 2 C0 1.34 0 0.68 0 0 Z " fill="#E4E5E8" transform="translate(81,34)"/>
</svg>
