<?xml version="1.0" encoding="UTF-8"?>
<!-- Generator: visioncortex VTracer 0.6.12 -->
<svg version="1.1" xmlns="http://www.w3.org/2000/svg" width="51" height="44">
<path d="M0 0 C2 1 2 1 3.38 4 C5 7 5 7 7.12 7.75 C7.74 7.83 8.36 7.91 9 8 C9.33 8.66 9.66 9.32 10 10 C11.98 10.73 13.98 11.4 16 12 C15 14 15 14 12.56 15.19 C10 16 10 16 8 15 C7.67 15.99 7.34 16.98 7 18 C6.34 18 5.68 18 5 18 C4.67 19.32 4.34 20.64 4 22 C3.34 22 2.68 22 2 22 C1.67 22.99 1.34 23.98 1 25 C0.34 25 -0.32 25 -1 25 C-1.05 24.68 -1.05 24.68 -1.31 23.06 C-1.54 22.38 -1.77 21.7 -2 21 C-2.99 20.67 -3.98 20.34 -5 20 C-5.7 18.68 -6.37 17.35 -7 16 C-7.66 15.67 -8.32 15.34 -9 15 C-9.33 15.99 -9.66 16.98 -10 18 C-11.98 16.68 -13.96 15.36 -16 14 C-15.34 12.68 -14.68 11.36 -14 10 C-11.03 10 -8.06 10 -5 10 C-5 8.68 -5 7.36 -5 6 C-3.62 4.44 -3.62 4.44 -2 3 C-1.34 2.01 -0.68 1.02 0 0 Z " fill="#C4C2BA" transform="translate(26,10)"/>
<path d="M0 0 C2.64 0 5.28 0 8 0 C8 1.65 8 3.3 8 5 C8.6 5.27 9.2 5.54 9.81 5.81 C11.97 6.98 13.36 8.19 15 10 C15.33 8.35 15.66 6.7 16 5 C16.99 5.16 16.99 5.16 22 6 C21.67 6.66 21.34 7.32 21 8 C20.34 8 19.68 8 19 8 C18.67 9.32 18.34 10.64 18 12 C17.34 12 16.68 12 16 12 C15.67 12.99 15.34 13.98 15 15 C14.34 15 13.68 15 13 15 C12.9 14.36 12.79 13.72 12.69 13.06 C12.46 12.38 12.23 11.7 12 11 C11.01 10.67 10.02 10.34 9 10 C8.3 8.68 7.63 7.35 7 6 C6.34 5.67 5.68 5.34 5 5 C4.67 5.99 4.34 6.98 4 8 C2.02 6.68 0.04 5.36 -2 4 C-1.34 2.68 -0.68 1.36 0 0 Z " fill="#C4C6CC" transform="translate(12,20)"/>
<path d="M0 0 C0.66 0.33 1.32 0.66 2 1 C2 3.97 2 6.94 2 10 C0.35 10.66 -1.3 11.32 -3 12 C-3 12.66 -3 13.32 -3 14 C-1.35 14 0.3 14 2 14 C1.67 15.98 1.34 17.96 1 20 C0.01 19.67 -0.98 19.34 -2 19 C-2 18.34 -2 17.68 -2 17 C-2.99 16.67 -3.98 16.34 -5 16 C-5.33 15.67 -5.66 15.34 -6 15 C-5.98 13.04 -5.98 13.04 -5.75 10.62 C-5.72 10.23 -5.72 10.23 -5.55 8.23 C-4.9 5.59 -4 4.77 -2 3 C-1.34 2.01 -0.68 1.02 0 0 Z " fill="#9BA5AE" transform="translate(26,10)"/>
</svg>
