<?xml version="1.0" encoding="UTF-8"?>
<!-- Generator: visioncortex VTracer 0.6.12 -->
<svg version="1.1" xmlns="http://www.w3.org/2000/svg" width="610" height="87">
<path d="M0 0 C3 2 3 2 3.69 4.62 C3.79 5.41 3.89 6.19 4 7 C5.32 7 6.64 7 8 7 C10.12 14.62 10.12 14.62 9 18 C10.32 18.66 11.64 19.32 13 20 C13.66 19.34 14.32 18.68 15 18 C18.24 18.17 19.71 18.75 22.19 20.88 C26.03 25.38 26.03 25.38 25.81 29.44 C25.04 32.84 24.32 34.48 22 37 C23.32 37 24.64 37 26 37 C26.33 36.01 26.66 35.02 27 34 C28.65 34.33 30.3 34.66 32 35 C32 35.66 32 36.32 32 37 C32.66 36.67 33.32 36.34 34 36 C33.67 35.67 33.34 35.34 33 35 C32.49 31.43 33 30 34.81 26.81 C37 24 37 24 40 22 C42 22 44.01 22 46.01 22.07 C48 22 48 22 50.69 20.88 C53 20 53 20 55.75 20.62 C58 22 58 22 58.56 24 C58.63 24.33 58.63 24.33 59 26 C59.33 26.15 59.33 26.15 61 26.94 C61.33 27.11 61.33 27.11 63 28 C63.69 30.38 63.69 30.38 64 33 C64.13 33.32 64.13 33.32 64.81 34.94 C65.12 38.29 62.83 40.31 61 43 C61.33 43.99 61.66 44.98 62 46 C62.66 46 63.32 46 64 46 C64 45.34 64 44.68 64 44 C64.66 44 65.32 44 66 44 C66 44.66 66 45.32 66 46 C66.66 46 67.32 46 68 46 C68.33 44.68 68.66 43.36 69 42 C73.75 42.87 73.75 42.87 76 44 C77.63 47.35 78 49.19 78 53 C80.31 52.34 82.62 51.68 85 51 C85.2 51.31 85.2 51.31 86.19 52.88 C88.28 55.32 89.97 56.02 93 57 C91 59 91 59 89.05 59.2 C87.04 59.13 85.02 59.07 83 59 C82.67 59.66 82.34 60.32 82 61 C81.01 60.34 80.02 59.68 79 59 C76.65 59.13 76.65 59.13 73.94 59.56 C69.64 60.08 66.71 59.82 62.62 58.38 C58.34 56.86 58.34 56.86 54.88 58.31 C54.26 58.87 53.64 59.43 53 60 C55.31 60.66 57.62 61.32 60 62 C58.94 63.56 58.94 63.56 57 65 C54.66 64.7 52.33 64.37 50 64 C47.56 64.94 47.56 64.94 46 66 C40.2 62.26 40.2 62.26 38.62 60.19 C37 59 37 59 33.19 59.5 C32.48 59.63 31.78 59.75 31.06 59.88 C27.91 60.06 25.73 58.43 23 57 C20.62 57.81 20.62 57.81 19 59 C19 59.66 19 60.32 19 61 C20.32 61.66 21.64 62.32 23 63 C23 63.66 23 64.32 23 65 C20.75 66.12 20.75 66.12 18 67 C16 66.19 16 66.19 14 65 C12.34 64.62 10.68 64.28 9 64 C8.84 64.5 8.84 64.5 8 67 C3.31 68.12 0.46 67.81 -4 66 C-3.84 65.34 -3.84 65.34 -3 62 C-3.72 62.25 -4.44 62.5 -5.19 62.75 C-8 63 -8 63 -10.44 61 C-11.28 60.34 -12.13 59.68 -13 59 C-15.01 59.28 -17.01 59.61 -19 60 C-19.45 59.53 -19.91 59.05 -20.38 58.56 C-22.45 56.56 -23.37 56.79 -26.19 56.81 C-27.45 56.87 -28.7 56.94 -30 57 C-30.23 56.38 -30.45 55.76 -30.69 55.12 C-32.43 52.31 -33.81 51.76 -37 51 C-39.31 51.88 -39.31 51.88 -41 53 C-41 53.99 -41 54.98 -41 56 C-39.68 56.66 -38.36 57.32 -37 58 C-37 59.32 -37 60.64 -37 62 C-43.09 64.24 -46.8 65.56 -53 63 C-55.07 62.89 -55.07 62.89 -57.25 62.94 C-61 63 -61 63 -63 62 C-63 61.34 -63 60.68 -63 60 C-61.02 60 -59.04 60 -57 60 C-57 59.34 -57 58.68 -57 58 C-57.99 58.33 -58.98 58.66 -60 59 C-62.33 58.68 -64.67 58.35 -67 58 C-67.33 58.33 -67.66 58.66 -68 59 C-73.53 59.24 -73.53 59.24 -76 58 C-76 58.99 -76 59.98 -76 61 C-76.99 60.67 -77.98 60.34 -79 60 C-79 59.01 -79 58.02 -79 57 C-79.31 57.05 -79.31 57.05 -80.86 57.29 C-81.67 57.4 -82.48 57.51 -83.31 57.62 C-84.11 57.74 -84.91 57.86 -85.74 57.98 C-88 58 -88 58 -91 56 C-87.81 53.87 -85.73 53.5 -82 53 C-81.67 51.35 -81.34 49.7 -81 48 C-78 48 -75 48 -72 48 C-72 46 -72 46 -72.69 44.31 C-73.18 40.65 -71.67 38.21 -70 35 C-67 33 -67 33 -63 33 C-62.67 32.01 -62.34 31.02 -62 30 C-55.58 30.29 -51.38 31.45 -46 35 C-46 36.65 -46 38.3 -46 40 C-45 39 -45 39 -44 37 C-40.94 36.38 -40.94 36.38 -38 36 C-38 35.34 -38 34.68 -38 34 C-38.99 34.33 -39.98 34.66 -41 35 C-41.99 32.36 -42.98 29.72 -44 27 C-43.34 26.34 -42.68 25.68 -42 25 C-41.73 23.87 -41.46 22.73 -41.19 21.56 C-40 18 -40 18 -37.94 16.06 C-34.02 14.65 -30.12 14.17 -26 15 C-25.67 15.5 -25.67 15.5 -24 18 C-21.43 15.43 -21.46 13.52 -21 10 C-19.02 9.34 -17.04 8.68 -15 8 C-15 6.68 -15 5.36 -15 4 C-10.94 -0.87 -5.92 -0.86 0 0 Z M8 19 C7.67 19.5 7.67 19.5 6 22 C6.99 21.67 7.98 21.34 9 21 C8.67 20.34 8.34 19.68 8 19 Z M55 42 C54.67 42.49 54.67 42.49 53 45 C54.98 45.66 56.96 46.32 59 47 C58.69 45.06 58.69 45.06 58 43 C57.01 42.67 56.02 42.34 55 42 Z M48 45 C48.33 45.66 48.66 46.32 49 47 C49.33 46.34 49.66 45.68 50 45 C49.34 45 48.68 45 48 45 Z M-29 46 C-28 48 -28 48 -28 48 Z M13 55 C14 57 14 57 14 57 Z " fill="#DEE6EF" transform="translate(101,10)"/>
<path d="M0 0 C3.12 1.56 3.12 1.56 5 4 C5.81 7.75 5.81 7.75 6 11 C6.74 10.32 7.49 9.64 8.25 8.94 C11 7 11 7 13.06 7.31 C13.7 7.54 14.34 7.77 15 8 C15.32 7.9 15.32 7.9 16.94 7.38 C19 7 19 7 21.69 8 C24 10 24 10 24.81 13.69 C24.87 14.78 24.94 15.87 25 17 C25.5 17.16 25.5 17.16 28 18 C28 19.98 28 21.96 28 24 C27.5 24.16 27.5 24.16 25 25 C25.16 25.49 25.16 25.49 26 28 C25.01 28.99 24.02 29.98 23 31 C23.91 30.94 24.81 30.88 25.75 30.81 C29.29 31.02 30.45 31.65 33 34 C33.06 33.22 33.12 32.43 33.19 31.62 C34 29 34 29 36.19 27.75 C44.22 25.61 44.22 25.61 47 27 C47 27.66 47 28.32 47 29 C48.32 29.33 49.64 29.66 51 30 C51 30.99 51 31.98 51 33 C51.99 33.66 52.98 34.32 54 35 C55.15 37.98 55.04 38.87 54 42 C55.07 42.14 56.14 42.29 57.25 42.44 C59.92 42.84 62.41 43.28 65 44 C65.11 43.69 65.11 43.69 65.69 42.12 C67.45 39.27 68.77 38.81 72 38 C77.53 38.53 77.53 38.53 79 40 C79.08 39.26 79.16 38.52 79.25 37.75 C80.18 34.33 81.15 33.1 84 31 C87.78 30.19 91.14 30 95 30 C96.75 31.5 96.75 31.5 98 33 C97.67 33.99 97.34 34.98 97 36 C98.32 35.67 99.64 35.34 101 35 C103.12 39.62 103.12 39.62 102 43 C103.65 43.66 105.3 44.32 107 45 C107 44.34 107 43.68 107 43 C108.32 42.67 109.64 42.34 111 42 C112.56 43.56 112.56 43.56 114 46 C113.69 49.75 113.69 49.75 113 53 C112.12 52.99 111.24 52.98 110.33 52.96 C109.17 52.96 108.01 52.95 106.81 52.94 C105.66 52.93 104.52 52.91 103.33 52.9 C100 53 100 53 97.56 53.56 C94.01 54.17 90.71 53.61 87.19 53.06 C86.49 52.96 85.8 52.86 85.09 52.76 C83.39 52.51 81.7 52.26 80 52 C80 52.66 80 53.32 80 54 C82.31 54.33 84.62 54.66 87 55 C86.67 55.66 86.34 56.32 86 57 C81.95 57.34 78.04 57.54 74 57 C71.69 54.12 71.69 54.12 70 51 C66.25 49.62 66.25 49.62 63 49 C63 49.66 63 50.32 63 51 C63.99 51.16 63.99 51.16 69 52 C69 52.66 69 53.32 69 54 C65.51 55.59 62.84 56.4 59 56 C58.01 55.34 57.02 54.68 56 54 C53.29 53.88 53.29 53.88 50.19 54 C45.65 54.09 42.25 53.74 38 52 C37.01 52 36.02 52 35 52 C35.33 52.66 35.33 52.66 37 56 C26.17 58.78 26.17 58.78 21 56 C20.67 55.01 20.34 54.02 20 53 C16.37 52.34 12.74 51.68 9 51 C8.67 52.65 8.34 54.3 8 56 C6.58 56.2 5.17 56.38 3.75 56.56 C3.36 56.61 3.36 56.61 1.36 56.88 C-1.01 57 -2.72 56.58 -5 56 C-5.6 56.35 -6.2 56.7 -6.81 57.06 C-10.22 58.52 -12.63 57.21 -16 56 C-16.33 55.67 -16.66 55.34 -17 55 C-20.47 54.75 -22.98 54.99 -26.31 56.06 C-30.71 57.18 -34.62 57.27 -39 56 C-40.77 54.45 -40.77 54.45 -42 53 C-41.01 53 -40.02 53 -39 53 C-40.94 50.44 -40.94 50.44 -44 48 C-47.11 47.85 -49.97 48.33 -53 49 C-53.33 48.34 -53.66 47.68 -54 47 C-55.98 47.66 -57.96 48.32 -60 49 C-60 49.99 -60 50.98 -60 52 C-64.75 51.57 -66.92 50.67 -70 47 C-70.16 47.16 -70.16 47.16 -71 48 C-74.84 48.14 -78.32 48.18 -82 47 C-81.25 44.56 -81.25 44.56 -80 42 C-78.06 41.06 -78.06 41.06 -76 41 C-75.01 41.66 -74.02 42.32 -73 43 C-73.33 42.34 -73.66 41.68 -74 41 C-74.45 35.74 -74.45 35.74 -72.94 33.25 C-70.05 31.39 -67.36 30.65 -64 30 C-61.56 30.88 -61.56 30.88 -60 32 C-60 32.66 -60 33.32 -60 34 C-59.55 33.51 -59.09 33.01 -58.62 32.5 C-57 31 -57 31 -55 31 C-55 30.34 -55 29.68 -55 29 C-55.99 29 -56.98 29 -58 29 C-58.69 26.19 -58.69 26.19 -59 23 C-58.02 21.98 -57.02 20.98 -56 20 C-55.94 18.87 -55.88 17.73 -55.81 16.56 C-55 13 -55 13 -53.3 11.73 C-51.23 10.71 -49.15 9.84 -47 9 C-46.32 8.61 -45.63 8.23 -44.93 7.83 C-43 7 -43 7 -40 8 C-39.01 8 -38.02 8 -37 8 C-37 8.66 -37 9.32 -37 10 C-36.62 10.05 -36.62 10.05 -34.69 10.31 C-31.74 11.07 -30.75 11.55 -29 14 C-28.31 16.69 -28.31 16.69 -28 19 C-26.35 18.67 -24.7 18.34 -23 18 C-23.16 17.51 -23.16 17.51 -24 15 C-23.67 14.01 -23.34 13.02 -23 12 C-22.34 11.67 -21.68 11.34 -21 11 C-20.27 9.02 -19.6 7.02 -19 5 C-17.68 5 -16.36 5 -15 5 C-14.71 4.36 -14.42 3.72 -14.12 3.06 C-11.48 -1.79 -4.82 -0.49 0 0 Z M51 36 C50.34 36.33 50.34 36.33 47 38 C47 38.66 47 39.32 47 40 C45.02 40 43.04 40 41 40 C41.33 40.49 41.33 40.49 43 43 C43.74 42.67 44.49 42.34 45.25 42 C48 41 48 41 52 41 C52.33 40.01 52.66 39.02 53 38 C52.34 37.34 51.68 36.68 51 36 Z M90 43 C90 43.99 90 44.98 90 46 C92.64 46.33 95.28 46.66 98 47 C98.33 46.34 98.66 45.68 99 45 C98.06 42.88 98.06 42.88 97 41 C93 41 93 41 90 43 Z M22 45 C22.99 45.99 23.98 46.98 25 48 C25.66 47.01 26.32 46.02 27 45 C25.35 45 23.7 45 22 45 Z M-34 48 C-34.33 48.99 -34.66 49.98 -35 51 C-34.34 51.33 -34.34 51.33 -31 53 C-31 51.68 -31 50.36 -31 49 C-31.99 48.67 -32.98 48.34 -34 48 Z M4 48 C4 49.32 4 50.64 4 52 C6.44 51.62 6.44 51.62 9 51 C9.33 50.34 9.66 49.68 10 49 C9.01 48.84 9.01 48.84 4 48 Z " fill="#E2E8F1" transform="translate(277,16)"/>
<path d="M0 0 C0.16 0.66 0.16 0.66 1 4 C1.66 4 2.32 4 3 4 C3.33 3.34 3.66 2.68 4 2 C7 3 7 3 8.56 5.94 C9.04 6.95 9.51 7.96 10 9 C10.33 9.33 10.33 9.33 12 11 C12.33 16.33 12.33 16.33 11 19 C11.99 19.66 12.98 20.32 14 21 C14.44 20.59 14.44 20.59 16.69 18.5 C18.97 16.58 19.69 16.03 22.75 15.75 C23.49 15.83 24.24 15.91 25 16 C25.33 15.84 25.33 15.84 27 15 C29 16.38 29 16.38 31 18 C31 18.66 31 19.32 31 20 C31.99 20.33 32.98 20.66 34 21 C34.33 21.99 34.66 22.98 35 24 C35.66 24.33 36.32 24.66 37 25 C37.05 24.54 37.05 24.54 37.31 22.19 C38 19 38 19 39.19 17.12 C41.78 15.52 44 15.94 47 16 C47.99 15.34 48.98 14.68 50 14 C52.69 14.38 52.69 14.38 55 15 C55 15.99 55 16.98 55 18 C54.34 17.67 53.68 17.34 53 17 C53.5 17.6 53.99 18.2 54.5 18.81 C56 21 56 21 56 24 C56.33 24.99 56.66 25.98 57 27 C57.66 27 58.32 27 59 27 C59 25.35 59 23.7 59 22 C59.66 22 60.32 22 61 22 C61.62 24.81 61.62 24.81 62 28 C61.67 28.49 61.67 28.49 60 31 C60.78 30.84 61.57 30.67 62.38 30.5 C65 30 65 30 67 30 C67.78 29.65 68.57 29.3 69.38 28.94 C72.22 27.92 73.26 27.87 76 29 C78.57 31.57 78.54 33.48 79 37 C80.98 36.34 82.96 35.68 85 35 C85.66 35.66 86.32 36.32 87 37 C88.98 37.71 90.98 38.39 93 39 C92.67 39.66 92.34 40.32 92 41 C91.69 40.96 91.69 40.96 90.1 40.78 C89.28 40.69 88.47 40.6 87.62 40.5 C87.22 40.45 87.22 40.45 85.16 40.22 C83 40 83 40 81 40 C80.67 40.66 80.34 41.32 80 42 C77.06 42.75 77.06 42.75 74 43 C73.34 42.34 72.68 41.68 72 41 C65.02 39.51 65.02 39.51 61 41.44 C60.34 41.95 59.68 42.47 59 43 C60.32 43.66 61.64 44.32 63 45 C57.99 47.68 52.84 47.33 47.31 47.31 C46.35 47.33 45.39 47.34 44.4 47.36 C43.48 47.36 42.56 47.36 41.61 47.36 C40.78 47.37 39.94 47.37 39.08 47.37 C38.39 47.25 37.71 47.13 37 47 C36.34 46.01 35.68 45.02 35 44 C35.33 43.34 35.66 42.68 36 42 C32.4 41.75 30.5 41.69 27.38 43.62 C26.59 44.08 25.81 44.53 25 45 C22.69 44.19 22.69 44.19 21 43 C20.67 43.33 20.34 43.66 20 44 C18.48 44.07 16.96 44.08 15.44 44.06 C14.61 44.05 13.78 44.04 12.93 44.04 C12.3 44.02 11.66 44.01 11 44 C11 44.66 11 45.32 11 46 C9.68 46 8.36 46 7 46 C7 46.66 7 47.32 7 48 C0.38 49.73 -3.92 47.85 -10 45 C-9.84 44.67 -9.84 44.67 -9 43 C-9.99 42.01 -10.98 41.02 -12 40 C-11.34 39.01 -10.68 38.02 -10 37 C-10.5 36.84 -10.5 36.84 -13 36 C-13.16 36.33 -13.16 36.33 -14 38 C-16.31 38 -18.62 38 -21 38 C-20.26 38.41 -19.51 38.83 -18.75 39.25 C-16.08 40.95 -14.08 42.62 -12 45 C-12 45.66 -12 46.32 -12 47 C-14.93 47.84 -16.71 48.07 -19.69 47.31 C-22.38 45.79 -22.72 44.73 -24 42 C-26.12 40.75 -26.12 40.75 -28 40 C-28 39.67 -28 39.34 -28 39 C-26.35 39 -24.7 39 -23 39 C-23.33 38.34 -23.33 38.34 -25 35 C-25.66 35 -26.32 35 -27 35 C-27 35.66 -27 36.32 -27 37 C-26.5 37.16 -26.5 37.16 -24 38 C-27.34 37.44 -30.03 36.65 -33 35 C-32.84 35.83 -32.84 35.83 -32 40 C-31.34 40 -30.68 40 -30 40 C-29.67 40.99 -29.34 41.98 -29 43 C-33.5 45.89 -36.49 46.3 -41.61 45.53 C-45.52 44.67 -49.26 43.41 -53 42 C-53 41.34 -53 40.68 -53 40 C-52.34 39.67 -51.68 39.34 -51 39 C-51.94 39.11 -52.89 39.21 -53.86 39.32 C-62.57 40.14 -69.57 39.78 -78 37 C-78 37.66 -78 38.32 -78 39 C-85.38 41.22 -85.38 41.22 -88.5 40.12 C-89 39.75 -89.49 39.38 -90 39 C-90 38.34 -90 37.68 -90 37 C-91.15 37.16 -91.15 37.16 -97 38 C-97 37.01 -97 36.02 -97 35 C-95.02 35 -93.04 35 -91 35 C-90.34 33.68 -89.68 32.36 -89 31 C-87.35 31.33 -85.7 31.66 -84 32 C-84 32.66 -84 33.32 -84 34 C-82.68 34 -81.36 34 -80 34 C-80.27 33.11 -80.54 32.23 -80.81 31.31 C-81 28 -81 28 -78.56 25.12 C-77.72 24.42 -76.87 23.72 -76 23 C-73.69 23.66 -71.38 24.32 -69 25 C-69 25.66 -69 26.32 -69 27 C-68.34 27 -67.68 27 -67 27 C-66.41 24.43 -65.99 22.21 -66.12 19.56 C-65.95 16.06 -64.86 13.96 -63 11 C-59.26 8.23 -56.5 7.57 -51.88 7.56 C-51.36 7.55 -51.36 7.55 -48.74 7.5 C-46 8 -46 8 -44.26 10 C-43.85 10.66 -43.43 11.32 -43 12 C-42.66 12.07 -42.66 12.07 -40.94 12.44 C-39 13 -39 13 -37.69 15.25 C-36.93 18.26 -37.16 20.04 -38 23 C-36.68 23 -35.36 23 -34 23 C-32.31 23.61 -30.64 24.27 -29 25 C-29 25.99 -29 26.98 -29 28 C-28.67 27.84 -28.67 27.84 -27 27 C-27.52 26.5 -28.03 26.01 -28.56 25.5 C-30.4 22.31 -30.19 20.4 -29.57 16.84 C-29 15 -29 15 -27.31 12.94 C-24.23 11.69 -22.18 12.21 -19 13 C-18.92 12.3 -18.83 11.6 -18.75 10.88 C-17.56 6.32 -15.32 3.17 -11.81 0.06 C-7.74 -1.48 -4.22 -0.76 0 0 Z M-19 13 C-19 13.66 -19 14.32 -19 15 C-18.34 15 -17.68 15 -17 15 C-17 14.34 -17 13.68 -17 13 C-17.66 13 -18.32 13 -19 13 Z M51 26 C50.5 26.83 50.5 26.83 48 31 C48.99 31.33 49.98 31.66 51 32 C51.45 32.52 51.9 33.04 52.36 33.58 C54 35 54 35 56.48 35.07 C57.37 34.95 58.27 34.82 59.19 34.69 C60.09 34.57 60.99 34.45 61.92 34.32 C62.26 34.27 62.26 34.27 64 34 C64 33.67 64 33.34 64 33 C62.89 32.73 61.77 32.46 60.62 32.19 C57 31 57 31 55 28 C52.88 26.81 52.88 26.81 51 26 Z M-24 33 C-23.01 33.99 -22.02 34.98 -21 36 C-21.33 35.01 -21.66 34.02 -22 33 C-22.66 33 -23.32 33 -24 33 Z M43 39 C42.67 39.16 42.67 39.16 41 40 C41 40.66 41 41.32 41 42 C42.65 42 44.3 42 46 42 C45.01 41.01 44.02 40.02 43 39 Z M8 41 C7.34 41.66 6.68 42.32 6 43 C6.83 43.16 6.83 43.16 11 44 C11.33 43.34 11.66 42.68 12 42 C10.12 41.38 10.12 41.38 8 41 Z " fill="#D3DFEE" transform="translate(508,23)"/>
<path d="M0 0 C0.66 0 1.32 0 2 0 C2 1.32 2 2.64 2 4 C2.74 3.77 3.48 3.55 4.25 3.31 C7 3 7 3 9.31 4.31 C11 6 11 6 11 8 C10.01 8 9.02 8 8 8 C8 10.31 8 12.62 8 15 C10.97 15 13.94 15 17 15 C19.43 23.43 19.43 23.43 18 28 C17.34 28 16.68 28 16 28 C16 27.34 16 26.68 16 26 C14.02 26 12.04 26 10 26 C10 26.66 10 27.32 10 28 C9.01 28 8.02 28 7 28 C7 28.66 7 29.32 7 30 C6.34 30 5.68 30 5 30 C5.16 30.83 5.16 30.83 6 35 C6.66 35 7.32 35 8 35 C8 34.34 8 33.68 8 33 C9.65 33.66 11.3 34.32 13 35 C12.67 36.98 12.34 38.96 12 41 C12.66 41.33 13.32 41.66 14 42 C14 41.34 14 40.68 14 40 C14.76 40.16 15.53 40.33 16.31 40.5 C19 41 19 41 22 41 C20.68 43.31 19.36 45.62 18 48 C14.62 47.46 11.3 46.89 8 46 C8 45.34 8 44.68 8 44 C5.03 43.34 2.06 42.68 -1 42 C-1.33 42.99 -1.66 43.98 -2 45 C-4.18 44.53 -5.93 44.04 -7.88 42.94 C-10.66 41.71 -12.99 41.86 -16 42 C-16.23 41.38 -16.45 40.76 -16.69 40.12 C-18.43 37.31 -19.81 36.76 -23 36 C-25.31 36.88 -25.31 36.88 -27 38 C-27 38.99 -27 39.98 -27 41 C-25.68 41.66 -24.36 42.32 -23 43 C-23 44.32 -23 45.64 -23 47 C-29.09 49.24 -32.8 50.56 -39 48 C-41.07 47.89 -41.07 47.89 -43.25 47.94 C-47 48 -47 48 -49 47 C-49 46.34 -49 45.68 -49 45 C-47.02 45 -45.04 45 -43 45 C-43 44.34 -43 43.68 -43 43 C-43.99 43.33 -44.98 43.66 -46 44 C-48.33 43.68 -50.67 43.35 -53 43 C-53.33 43.33 -53.66 43.66 -54 44 C-59.53 44.24 -59.53 44.24 -62 43 C-62 43.99 -62 44.98 -62 46 C-62.99 45.67 -63.98 45.34 -65 45 C-65 44.01 -65 43.02 -65 42 C-65.31 42.05 -65.31 42.05 -66.86 42.29 C-67.67 42.4 -68.48 42.51 -69.31 42.62 C-70.11 42.74 -70.91 42.86 -71.74 42.98 C-74 43 -74 43 -77 41 C-73.81 38.87 -71.73 38.5 -68 38 C-67.67 36.35 -67.34 34.7 -67 33 C-64 33 -61 33 -58 33 C-58 31 -58 31 -58.69 29.31 C-59.18 25.65 -57.67 23.21 -56 20 C-53 18 -53 18 -49 18 C-48.67 17.01 -48.34 16.02 -48 15 C-41.58 15.29 -37.38 16.45 -32 20 C-32 21.65 -32 23.3 -32 25 C-31 24 -31 24 -30 22 C-26.94 21.38 -26.94 21.38 -24 21 C-24 20.34 -24 19.68 -24 19 C-24.99 19.33 -25.98 19.66 -27 20 C-27.99 17.36 -28.98 14.72 -30 12 C-29.34 11.34 -28.68 10.68 -28 10 C-27.6 8.01 -27.26 6.01 -27 4 C-23.69 3.31 -23.69 3.31 -20 3 C-17.35 4.77 -17.02 5.93 -16 9 C-15.01 9.66 -14.02 10.32 -13 11 C-11.35 10.01 -9.7 9.02 -8 8 C-7.84 8.5 -7.84 8.5 -7 11 C-7.66 11 -8.32 11 -9 11 C-8.67 11.33 -8.67 11.33 -7 13 C-4.5 10.88 -4.5 10.88 -2 8 C-1.81 4.81 -1.81 4.81 -2 2 C-1.34 1.34 -0.68 0.68 0 0 Z M-15 31 C-14 33 -14 33 -14 33 Z " fill="#CEDBEC" transform="translate(87,25)"/>
<path d="M0 0 C0.66 0.33 1.32 0.66 2 1 C2 1.66 2 2.32 2 3 C2.66 3 3.32 3 4 3 C4 3.66 4 4.32 4 5 C3.34 5 2.68 5 2 5 C2 5.66 2 6.32 2 7 C3.15 6.84 3.15 6.84 9 6 C9.17 6.5 9.17 6.5 10 9 C3.25 11.12 3.25 11.12 1 10 C0.67 11.65 0.34 13.3 0 15 C1.32 15.33 2.64 15.66 4 16 C4 16.66 4 17.32 4 18 C4.31 18.1 4.31 18.1 5.88 18.62 C8.85 20.55 9.13 22.67 10 26 C10.46 25.67 10.46 25.67 12.81 24 C16 22 16 22 19 22 C19 21.34 19 20.68 19 20 C21.31 20 23.62 20 26 20 C26 21.32 26 22.64 26 24 C24.68 24 23.36 24 22 24 C21.73 24.97 21.46 25.94 21.19 26.94 C20.8 27.95 20.4 28.96 20 30 C19.5 30.16 19.5 30.16 17 31 C17 32.32 17 33.64 17 35 C17.6 34.67 18.2 34.34 18.81 34 C21 33 21 33 24 33 C24 33.66 24 34.32 24 35 C24.5 35.16 24.5 35.16 27 36 C27 36.66 27 37.32 27 38 C26.34 38 25.68 38 25 38 C25 38.66 25 39.32 25 40 C25.66 40 26.32 40 27 40 C27 41.32 27 42.64 27 44 C26.64 43.82 26.64 43.82 24.81 42.94 C21.61 41.87 20.22 42.19 17 43 C15.33 43.04 13.67 43.05 12 43 C11.67 43.99 11.34 44.98 11 46 C10.01 46 9.02 46 8 46 C7.48 46.83 6.97 47.65 6.44 48.5 C4 51 4 51 1.52 51.33 C-1 51.31 -3.49 51.22 -6 51 C-6 50.34 -6 49.68 -6 49 C-9.3 49 -12.6 49 -16 49 C-15.67 47.02 -15.34 45.04 -15 43 C-12.69 42.67 -10.38 42.34 -8 42 C-7.67 41.01 -7.34 40.02 -7 39 C-5.68 39.33 -4.36 39.66 -3 40 C-3 39.01 -3 38.02 -3 37 C-3.62 36.92 -4.24 36.84 -4.88 36.75 C-7 36 -7 36 -8.25 33.94 C-8.5 33.3 -8.75 32.66 -9 32 C-9.66 32 -10.32 32 -11 32 C-11 31.34 -11 30.68 -11 30 C-13.31 29.67 -15.62 29.34 -18 29 C-18 30.65 -18 32.3 -18 34 C-18.99 34 -19.98 34 -21 34 C-21 33.34 -21 32.68 -21 32 C-22.98 31.34 -24.96 30.68 -27 30 C-27 30.66 -27 31.32 -27 32 C-27.99 32 -28.98 32 -30 32 C-30.66 34.64 -31.32 37.28 -32 40 C-33.65 39.67 -35.3 39.34 -37 39 C-36.34 36.36 -35.68 33.72 -35 31 C-36.32 31 -37.64 31 -39 31 C-40.21 33.33 -41.17 35.5 -42 38 C-43.98 38 -45.96 38 -48 38 C-48.33 36.02 -48.66 34.04 -49 32 C-48.34 32 -47.68 32 -47 32 C-47 30.68 -47 29.36 -47 28 C-46.34 28 -45.68 28 -45 28 C-45 27.34 -45 26.68 -45 26 C-45.99 26 -46.98 26 -48 26 C-48.69 23.19 -48.69 23.19 -49 20 C-48.02 18.98 -47.02 17.98 -46 17 C-45.94 15.87 -45.88 14.73 -45.81 13.56 C-45 10 -45 10 -43.3 8.73 C-41.23 7.71 -39.15 6.84 -37 6 C-36.32 5.61 -35.63 5.23 -34.93 4.83 C-33 4 -33 4 -30 5 C-29.01 5 -28.02 5 -27 5 C-27 5.66 -27 6.32 -27 7 C-26.24 7.1 -25.47 7.21 -24.69 7.31 C-21.74 8.07 -20.75 8.55 -19 11 C-18.31 13.69 -18.31 13.69 -18 16 C-16.35 15.67 -14.7 15.34 -13 15 C-13.16 14.5 -13.16 14.5 -14 12 C-13.67 11.01 -13.34 10.02 -13 9 C-10.36 8.67 -7.72 8.34 -5 8 C-5 7.34 -5 6.68 -5 6 C-3.69 4.65 -2.35 3.31 -1 2 C-0.67 1.34 -0.34 0.68 0 0 Z " fill="#BBCFE8" transform="translate(267,19)"/>
<path d="M0 0 C0.76 0.21 1.53 0.41 2.31 0.62 C2.31 1.62 2.31 2.6 2.31 3.62 C1.98 3.46 1.98 3.46 0.31 2.62 C0.81 3.22 1.3 3.82 1.81 4.44 C3.31 6.62 3.31 6.62 3.31 9.62 C3.48 10.12 3.48 10.12 4.31 12.62 C4.97 12.62 5.63 12.62 6.31 12.62 C6.31 10.98 6.31 9.33 6.31 7.62 C6.97 7.62 7.63 7.62 8.31 7.62 C8.94 10.44 8.94 10.44 9.31 13.62 C8.65 14.62 7.99 15.61 7.31 16.62 C8.1 16.46 8.88 16.3 9.69 16.12 C12.31 15.62 12.31 15.62 14.31 15.62 C15.1 15.27 15.88 14.92 16.69 14.56 C19.53 13.55 20.57 13.49 23.31 14.62 C25.88 17.19 25.85 19.1 26.31 22.62 C28.29 21.97 30.27 21.3 32.31 20.62 C32.64 20.95 32.64 20.95 34.31 22.62 C36.3 23.34 38.3 24.01 40.31 24.62 C39.98 25.28 39.65 25.95 39.31 26.62 C38.69 26.55 38.06 26.48 37.41 26.41 C36.6 26.31 35.78 26.22 34.94 26.12 C34.53 26.08 34.53 26.08 32.48 25.84 C30.31 25.62 30.31 25.62 28.31 25.62 C27.98 26.28 27.65 26.94 27.31 27.62 C24.38 28.38 24.38 28.38 21.31 28.62 C20.98 28.3 20.98 28.3 19.31 26.62 C12.33 25.14 12.33 25.14 8.31 27.06 C7.65 27.58 6.99 28.09 6.31 28.62 C6.97 28.95 6.97 28.95 10.31 30.62 C5.3 33.31 0.15 32.96 -5.38 32.94 C-6.34 32.95 -7.3 32.97 -8.29 32.99 C-9.21 32.99 -10.13 32.99 -11.07 32.99 C-11.91 32.99 -12.75 32.99 -13.61 33 C-14.3 32.87 -14.98 32.75 -15.69 32.62 C-16.35 31.63 -17.01 30.64 -17.69 29.62 C-17.36 28.97 -17.03 28.31 -16.69 27.62 C-20.29 27.37 -22.19 27.32 -25.31 29.25 C-26.1 29.7 -26.88 30.16 -27.69 30.62 C-30 29.81 -30 29.81 -31.69 28.62 C-31.85 28.79 -31.85 28.79 -32.69 29.62 C-34.21 29.7 -35.73 29.71 -37.25 29.69 C-38.08 29.68 -38.9 29.67 -39.75 29.66 C-40.07 29.65 -40.07 29.65 -41.69 29.62 C-41.69 30.28 -41.69 30.94 -41.69 31.62 C-43.01 31.62 -44.33 31.62 -45.69 31.62 C-45.69 32.28 -45.69 32.94 -45.69 33.62 C-52.31 35.35 -56.61 33.47 -62.69 30.62 C-62.36 29.97 -62.03 29.31 -61.69 28.62 C-62.68 27.64 -63.67 26.64 -64.69 25.62 C-64.03 24.64 -63.37 23.64 -62.69 22.62 C-63.68 22.3 -64.67 21.97 -65.69 21.62 C-66.02 22.28 -66.35 22.95 -66.69 23.62 C-69 23.62 -71.31 23.62 -73.69 23.62 C-72.94 24.04 -72.2 24.45 -71.44 24.88 C-68.76 26.58 -66.76 28.24 -64.69 30.62 C-64.69 31.28 -64.69 31.94 -64.69 32.62 C-67.62 33.46 -69.4 33.7 -72.38 32.94 C-75.07 31.41 -75.41 30.35 -76.69 27.62 C-78.81 26.38 -78.81 26.38 -80.69 25.62 C-80.69 25.3 -80.69 24.97 -80.69 24.62 C-79.04 24.62 -77.39 24.62 -75.69 24.62 C-76.35 23.3 -77.01 21.98 -77.69 20.62 C-78.35 20.62 -79.01 20.62 -79.69 20.62 C-79.69 21.28 -79.69 21.95 -79.69 22.62 C-78.7 22.95 -77.71 23.28 -76.69 23.62 C-80.03 23.07 -82.72 22.27 -85.69 20.62 C-85.52 21.45 -85.52 21.45 -84.69 25.62 C-84.03 25.62 -83.37 25.62 -82.69 25.62 C-82.52 26.12 -82.52 26.12 -81.69 28.62 C-86.19 31.51 -89.18 31.93 -94.3 31.15 C-98.21 30.29 -101.94 29.03 -105.69 27.62 C-105.69 26.97 -105.69 26.3 -105.69 25.62 C-105.03 25.3 -104.37 24.97 -103.69 24.62 C-104.75 24.72 -105.81 24.82 -106.9 24.91 C-108.29 25.03 -109.67 25.14 -111.06 25.25 C-111.41 25.28 -111.41 25.28 -113.18 25.45 C-115.01 25.59 -116.85 25.61 -118.69 25.62 C-119.35 24.97 -120.01 24.3 -120.69 23.62 C-119.53 23.46 -119.53 23.46 -113.69 22.62 C-113.36 21.3 -113.03 19.98 -112.69 18.62 C-111 17.94 -111 17.94 -108.69 17.62 C-105.94 18.94 -105.94 18.94 -103.69 20.62 C-103.69 21.28 -103.69 21.95 -103.69 22.62 C-102.7 22.62 -101.71 22.62 -100.69 22.62 C-100.69 23.28 -100.69 23.95 -100.69 24.62 C-99.7 24.62 -98.71 24.62 -97.69 24.62 C-97.69 25.28 -97.69 25.95 -97.69 26.62 C-96.37 26.95 -95.05 27.28 -93.69 27.62 C-93.36 26.3 -93.03 24.98 -92.69 23.62 C-91.7 23.62 -90.71 23.62 -89.69 23.62 C-89.69 21.64 -89.69 19.66 -89.69 17.62 C-89.03 17.3 -88.37 16.97 -87.69 16.62 C-87.09 16.83 -86.49 17.04 -85.88 17.25 C-82.73 17.79 -81.35 16.25 -78.69 14.62 C-75.88 14.44 -75.88 14.44 -73.69 14.62 C-73.69 13.97 -73.69 13.3 -73.69 12.62 C-73.03 12.62 -72.37 12.62 -71.69 12.62 C-71.69 13.95 -71.69 15.27 -71.69 16.62 C-69.05 16.62 -66.41 16.62 -63.69 16.62 C-63.69 15.3 -63.69 13.98 -63.69 12.62 C-62.7 12.3 -61.71 11.97 -60.69 11.62 C-59.7 12.28 -58.71 12.95 -57.69 13.62 C-57.69 14.62 -57.69 15.61 -57.69 16.62 C-58.35 16.62 -59.01 16.62 -59.69 16.62 C-59.03 19.27 -58.37 21.91 -57.69 24.62 C-56.57 24.44 -55.46 24.25 -54.31 24.06 C-50.69 23.62 -50.69 23.62 -48.69 24.62 C-48.69 25.28 -48.69 25.95 -48.69 26.62 C-47.7 26.62 -46.71 26.62 -45.69 26.62 C-45.69 25.97 -45.69 25.3 -45.69 24.62 C-45.03 24.62 -44.37 24.62 -43.69 24.62 C-44.02 23.8 -44.02 23.8 -45.69 19.62 C-44.04 19.95 -42.39 20.28 -40.69 20.62 C-40.69 21.61 -40.69 22.61 -40.69 23.62 C-39.7 23.62 -38.71 23.62 -37.69 23.62 C-37.52 23.13 -37.52 23.13 -36.69 20.62 C-31.94 21.5 -31.94 21.5 -29.69 22.62 C-28.01 22.35 -26.34 22.02 -24.69 21.62 C-24.69 20.97 -24.69 20.3 -24.69 19.62 C-23.04 19.62 -21.39 19.62 -19.69 19.62 C-19.4 20.43 -19.11 21.23 -18.81 22.06 C-17.69 24.62 -17.69 24.62 -15.69 25.62 C-15.69 24.97 -15.69 24.3 -15.69 23.62 C-12.98 22.27 -10.68 22.56 -7.69 22.62 C-7.36 20.31 -7.03 18 -6.69 15.62 C-6.03 15.62 -5.37 15.62 -4.69 15.62 C-4.85 14.47 -4.85 14.47 -5.69 8.62 C-7.01 8.62 -8.33 8.62 -9.69 8.62 C-10.02 9.28 -10.35 9.95 -10.69 10.62 C-11.35 10.62 -12.01 10.62 -12.69 10.62 C-13.02 11.62 -13.35 12.61 -13.69 13.62 C-13.69 12.97 -13.69 12.3 -13.69 11.62 C-15.01 11.3 -16.33 10.97 -17.69 10.62 C-17.03 10.62 -16.37 10.62 -15.69 10.62 C-15.58 9.7 -15.48 8.77 -15.38 7.81 C-14.69 4.62 -14.69 4.62 -13.5 2.75 C-10.91 1.14 -8.69 1.56 -5.69 1.62 C-2.69 -0.38 -2.69 -0.38 0 0 Z M-1.69 11.62 C-2.18 12.45 -2.18 12.45 -4.69 16.62 C-3.7 16.95 -2.71 17.28 -1.69 17.62 C-1.24 18.15 -0.79 18.67 -0.32 19.21 C1.31 20.62 1.31 20.62 3.79 20.7 C4.69 20.57 5.58 20.44 6.5 20.31 C7.4 20.19 8.3 20.07 9.23 19.95 C9.57 19.9 9.57 19.9 11.31 19.62 C11.31 19.3 11.31 18.97 11.31 18.62 C10.2 18.36 9.09 18.09 7.94 17.81 C4.31 16.62 4.31 16.62 2.31 13.62 C0.19 12.44 0.19 12.44 -1.69 11.62 Z M-76.69 18.62 C-75.7 19.61 -74.71 20.61 -73.69 21.62 C-74.02 20.63 -74.35 19.64 -74.69 18.62 C-75.35 18.62 -76.01 18.62 -76.69 18.62 Z M-9.69 24.62 C-10.02 24.79 -10.02 24.79 -11.69 25.62 C-11.69 26.28 -11.69 26.94 -11.69 27.62 C-10.04 27.62 -8.39 27.62 -6.69 27.62 C-7.68 26.63 -8.67 25.64 -9.69 24.62 Z M-44.69 26.62 C-45.35 27.28 -46.01 27.94 -46.69 28.62 C-45.86 28.79 -45.86 28.79 -41.69 29.62 C-41.36 28.97 -41.03 28.31 -40.69 27.62 C-42.56 27 -42.56 27 -44.69 26.62 Z " fill="#E6ECF3" transform="translate(560.6875,37.375)"/>
<path d="M0 0 C0.66 0 1.32 0 2 0 C2 1.32 2 2.64 2 4 C2.74 3.77 3.48 3.55 4.25 3.31 C7 3 7 3 9.31 4.31 C11 6 11 6 11 8 C10.01 8 9.02 8 8 8 C8 10.31 8 12.62 8 15 C10.97 15 13.94 15 17 15 C19.43 23.43 19.43 23.43 18 28 C17.34 28 16.68 28 16 28 C16 27.34 16 26.68 16 26 C14.02 26 12.04 26 10 26 C10 26.66 10 27.32 10 28 C9.01 28 8.02 28 7 28 C7 28.66 7 29.32 7 30 C5.67 31.33 4.33 32.67 3 34 C1.75 36.25 1.75 36.25 1 38 C0.34 38 -0.32 38 -1 38 C-1 38.66 -1 39.32 -1 40 C-1.99 40 -2.98 40 -4 40 C-4 39.34 -4 38.68 -4 38 C-5.65 37.67 -7.3 37.34 -9 37 C-9.33 36.01 -9.66 35.02 -10 34 C-10.66 34 -11.32 34 -12 34 C-12 33.34 -12 32.68 -12 32 C-11.01 32 -10.02 32 -9 32 C-9.16 31.17 -9.16 31.17 -10 27 C-10.62 27.66 -11.24 28.32 -11.88 29 C-14 31 -14 31 -16 31 C-16 31.66 -16 32.32 -16 33 C-17.32 32.67 -18.64 32.34 -20 32 C-20 32.66 -20 33.32 -20 34 C-20.38 33.91 -20.38 33.91 -22.31 33.44 C-25 33 -25 33 -28 34 C-28.66 33.67 -29.32 33.34 -30 33 C-30.62 29.94 -30.62 29.94 -31 27 C-30.01 27.33 -29.02 27.66 -28 28 C-28 27.34 -28 26.68 -28 26 C-28.66 26 -29.32 26 -30 26 C-30 24.68 -30 23.36 -30 22 C-28.02 21.67 -26.04 21.34 -24 21 C-24 20.34 -24 19.68 -24 19 C-24.99 19.33 -25.98 19.66 -27 20 C-27.99 17.36 -28.98 14.72 -30 12 C-29.34 11.34 -28.68 10.68 -28 10 C-27.6 8.01 -27.26 6.01 -27 4 C-23.69 3.31 -23.69 3.31 -20 3 C-17.35 4.77 -17.02 5.93 -16 9 C-15.01 9.66 -14.02 10.32 -13 11 C-11.35 10.01 -9.7 9.02 -8 8 C-7.67 8.99 -7.34 9.98 -7 11 C-7.66 11 -8.32 11 -9 11 C-8.34 11.66 -7.68 12.32 -7 13 C-4.5 10.87 -4.5 10.87 -2 8 C-1.81 4.81 -1.81 4.81 -2 2 C-1.34 1.34 -0.68 0.68 0 0 Z " fill="#ADC7E4" transform="translate(87,25)"/>
<path d="M0 0 C2.5 1.37 2.5 1.37 5 3 C5 3.66 5 4.32 5 5 C5.99 5.33 6.98 5.66 8 6 C8.16 6.83 8.16 6.83 9 11 C10.15 10.84 10.15 10.84 16 10 C16.33 9.01 16.66 8.02 17 7 C17.83 7.16 17.83 7.16 22 8 C22 10.31 22 12.62 22 15 C21.34 15 20.68 15 20 15 C20.16 15.5 20.16 15.5 21 18 C20.56 20.12 20.56 20.12 19 22 C16.3 22.67 13.8 22.82 11 23 C11 23.66 11 24.32 11 25 C10.01 24.67 9.02 24.34 8 24 C8 23.34 8 22.68 8 22 C7.34 21.67 6.68 21.34 6 21 C6.33 20.34 6.66 19.68 7 19 C5.35 19 3.7 19 2 19 C2 19.66 2 20.32 2 21 C0.02 21.66 -1.96 22.32 -4 23 C-4.66 22.34 -5.32 21.68 -6 21 C-7.32 21 -8.64 21 -10 21 C-10.33 21.66 -10.66 22.32 -11 23 C-11.99 23 -12.98 23 -14 23 C-14.33 22.01 -14.66 21.02 -15 20 C-17.06 19.31 -17.06 19.31 -19 19 C-18.34 20.65 -17.68 22.3 -17 24 C-17.66 24 -18.32 24 -19 24 C-19 24.66 -19 25.32 -19 26 C-19.99 26 -20.98 26 -22 26 C-22 25.34 -22 24.68 -22 24 C-24.97 24.33 -27.94 24.66 -31 25 C-33 19.38 -33 19.38 -33 16 C-32.34 16 -31.68 16 -31 16 C-31.35 15.07 -31.7 14.14 -32.06 13.19 C-33 10 -33 10 -32 7 C-32 5.68 -32 4.36 -32 3 C-30.35 3 -28.7 3 -27 3 C-27 3.66 -27 4.32 -27 5 C-27.99 5 -28.98 5 -30 5 C-26.25 8.88 -26.25 8.88 -24 10 C-24.02 8.89 -24.04 7.77 -24.06 6.62 C-24 3 -24 3 -23 1 C-22.01 1 -21.02 1 -20 1 C-19.34 1.99 -18.68 2.98 -18 4 C-15.25 5.5 -15.25 5.5 -12 6 C-9.94 4.4 -7.94 2.73 -6 1 C-3.19 0.75 -3.19 0.75 -1 1 C-0.67 0.67 -0.34 0.34 0 0 Z " fill="#C3D4E9" transform="translate(534,38)"/>
<path d="M0 0 C0 0.66 0 1.32 0 2 C0.99 1.67 1.98 1.34 3 1 C3 1.66 3 2.32 3 3 C2.34 3 1.68 3 1 3 C1.33 4.98 1.66 6.96 2 9 C3.98 9 5.96 9 8 9 C8.12 8.4 8.25 7.8 8.38 7.19 C9 5 9 5 11 2 C12.32 2 13.64 2 15 2 C14.12 7.75 14.12 7.75 13 10 C13.82 10.16 13.82 10.16 18 11 C18.66 8.36 19.32 5.72 20 3 C20.99 3 21.98 3 23 3 C23 2.34 23 1.68 23 1 C24.98 1.66 26.96 2.32 29 3 C29 3.66 29 4.32 29 5 C29.99 5 30.98 5 32 5 C32 3.35 32 1.7 32 0 C34.31 0.33 36.62 0.66 39 1 C39 1.66 39 2.32 39 3 C39.66 3 40.32 3 41 3 C41.47 3.64 41.95 4.28 42.44 4.94 C44 7 44 7 47 8 C47 8.99 47 9.98 47 11 C45.68 11 44.36 11 43 11 C42.67 11.66 42.34 12.32 42 13 C39.68 13.41 37.34 13.74 35 14 C34.67 15.98 34.34 17.96 34 20 C34.99 19.67 35.98 19.34 37 19 C39.69 19.44 39.69 19.44 42 20 C42 20.33 42 20.66 42 21 C40.02 21 38.04 21 36 21 C35.84 21.5 35.84 21.5 35 24 C30.39 25.34 25.63 25.21 21 24 C19.23 22.45 19.23 22.45 18 21 C18.99 21 19.98 21 21 21 C19.06 18.44 19.06 18.44 16 16 C12.89 15.85 10.03 16.33 7 17 C6.67 16.34 6.34 15.68 6 15 C4.02 15.66 2.04 16.32 0 17 C0 17.99 0 18.98 0 20 C-4.75 19.57 -6.92 18.67 -10 15 C-10.33 15.33 -10.66 15.66 -11 16 C-14.84 16.14 -18.32 16.18 -22 15 C-21.25 12.56 -21.25 12.56 -20 10 C-18.06 9.06 -18.06 9.06 -16 9 C-15.01 9.66 -14.02 10.32 -13 11 C-13.33 10.34 -13.66 9.68 -14 9 C-14.45 3.67 -14.45 3.67 -12.81 1.25 C-8 -2.07 -5.44 -2.28 0 0 Z M26 16 C25.67 16.99 25.34 17.98 25 19 C25.66 19.33 25.66 19.33 29 21 C29 19.68 29 18.36 29 17 C28.01 16.67 27.02 16.34 26 16 Z " fill="#DBE5F1" transform="translate(217,48)"/>
<path d="M0 0 C0.25 0.62 0.5 1.24 0.75 1.88 C2 4 2 4 4.06 4.94 C4.7 5.29 5.34 5.64 6 6 C6.69 8.38 6.69 8.38 7 11 C7.27 11.64 7.54 12.28 7.81 12.94 C8.12 16.29 5.83 18.31 4 21 C4.16 21.49 4.16 21.49 5 24 C5.66 24 6.32 24 7 24 C7 23.34 7 22.68 7 22 C7.66 22 8.32 22 9 22 C9 22.66 9 23.32 9 24 C9.66 24 10.32 24 11 24 C11.33 22.68 11.66 21.36 12 20 C16.75 20.88 16.75 20.88 19 22 C20.63 25.35 21 27.19 21 31 C23.31 30.34 25.62 29.68 28 29 C28.2 29.31 28.2 29.31 29.19 30.88 C31.28 33.32 32.97 34.02 36 35 C34 37 34 37 32.05 37.2 C30.04 37.13 28.02 37.07 26 37 C25.84 37.33 25.84 37.33 25 39 C24.01 38.34 23.02 37.68 22 37 C19.65 37.13 19.65 37.13 16.94 37.56 C12.64 38.08 9.71 37.82 5.62 36.38 C1.34 34.86 1.34 34.86 -2.12 36.31 C-2.74 36.87 -3.36 37.43 -4 38 C-1.69 38.66 0.62 39.32 3 40 C1.94 41.56 1.94 41.56 0 43 C-2.34 42.7 -4.67 42.37 -7 42 C-9.44 42.94 -9.44 42.94 -11 44 C-16.77 40.28 -16.77 40.28 -18.44 38.25 C-21.04 36.17 -23.81 36.82 -27 37 C-27.66 35.02 -28.32 33.04 -29 31 C-26.33 31.67 -23.67 32.33 -21 33 C-21 32.34 -21 31.68 -21 31 C-14.25 29.88 -14.25 29.88 -12 31 C-12 31.99 -12 32.98 -12 34 C-11.34 34 -10.68 34 -10 34 C-9.34 34.66 -8.68 35.32 -8 36 C-5.56 35 -5.56 35 -3 33 C-2.24 30.27 -2.14 27.86 -2 25 C-2.66 25 -3.32 25 -4 25 C-4 24.34 -4 23.68 -4 23 C-4.99 23.33 -5.98 23.66 -7 24 C-7.66 23.67 -8.32 23.34 -9 23 C-8.34 24.65 -7.68 26.3 -7 28 C-8.32 28.33 -9.64 28.66 -11 29 C-11.21 23.81 -10.59 19.87 -9 15 C-7.02 15 -5.04 15 -3 15 C-3.52 14.26 -4.03 13.52 -4.56 12.75 C-6 10 -6 10 -5.88 8 C-3.04 1.52 -3.04 1.52 0 0 Z M-2 20 C-2.33 20.5 -2.33 20.5 -4 23 C-2.02 23.66 -0.04 24.32 2 25 C1.69 23.06 1.69 23.06 1 21 C0.01 20.67 -0.98 20.34 -2 20 Z " fill="#EAEEF3" transform="translate(158,32)"/>
<path d="M0 0 C3.19 0.88 3.19 0.88 6 2 C5.34 2.33 4.68 2.66 4 3 C3.66 4.33 3.32 5.66 3 7 C2.34 7.66 1.68 8.32 1 9 C1.31 10.88 1.31 10.88 2 13 C2.33 14.33 2.67 15.67 3 17 C1.02 17 -0.96 17 -3 17 C-2.98 17.97 -2.96 18.94 -2.94 19.94 C-3 23 -3 23 -4 24 C-4.37 26.33 -4.7 28.66 -5 31 C-4.01 30.34 -3.02 29.68 -2 29 C-2 28.01 -2 27.02 -2 26 C-0.68 25.67 0.64 25.34 2 25 C2 25.66 2 26.32 2 27 C2.66 27 3.32 27 4 27 C4.53 32.28 4.53 32.28 4 35 C1 37.5 1 37.5 -2 39 C-2.33 38.84 -2.33 38.84 -4 38 C-4 37.34 -4 36.68 -4 36 C-4.66 36 -5.32 36 -6 36 C-6 35.01 -6 34.02 -6 33 C-8.97 33 -11.94 33 -15 33 C-15 32.01 -15 31.02 -15 30 C-22.43 31 -22.43 31 -26 32 C-26 32.66 -26 33.32 -26 34 C-33.62 33.13 -33.62 33.13 -37 32 C-38.32 32 -39.64 32 -41 32 C-42.26 29.09 -43 27.2 -43 24 C-41.68 24.33 -40.36 24.66 -39 25 C-39 25.66 -39 26.32 -39 27 C-38.34 26.67 -37.68 26.34 -37 26 C-37.66 24.68 -38.32 23.36 -39 22 C-38.34 21.67 -37.68 21.34 -37 21 C-36.38 17.94 -36.38 17.94 -36 15 C-35.34 15 -34.68 15 -34 15 C-34 13.68 -34 12.36 -34 11 C-33.34 11 -32.68 11 -32 11 C-30.79 15.66 -29.77 20.24 -29 25 C-28.67 25.99 -28.34 26.98 -28 28 C-27.01 27.34 -26.02 26.68 -25 26 C-23.68 26 -22.36 26 -21 26 C-21.33 25.01 -21.66 24.02 -22 23 C-21.88 20.94 -21.88 20.94 -21 19 C-18.56 17.88 -18.56 17.88 -16 17 C-15.34 16.34 -14.68 15.68 -14 15 C-14 15.99 -14 16.98 -14 18 C-13.34 18 -12.68 18 -12 18 C-11.67 15.03 -11.34 12.06 -11 9 C-12.32 9 -13.64 9 -15 9 C-14.69 6.63 -14.69 6.63 -14 4 C-10.14 1.42 -7.57 2 -3 2 C-2.01 1.34 -1.02 0.68 0 0 Z " fill="#C5D6EA" transform="translate(152,30)"/>
<path d="M0 0 C2.31 0 4.62 0 7 0 C7 1.32 7 2.64 7 4 C5.68 4 4.36 4 3 4 C2.73 4.97 2.46 5.94 2.19 6.94 C1.8 7.95 1.4 8.96 1 10 C0.01 10.33 -0.98 10.66 -2 11 C-2 12.32 -2 13.64 -2 15 C-1.4 14.67 -0.8 14.34 -0.19 14 C2 13 2 13 5 13 C5 13.66 5 14.32 5 15 C5.99 15.33 6.98 15.66 8 16 C8 16.66 8 17.32 8 18 C7.34 18 6.68 18 6 18 C6 18.66 6 19.32 6 20 C6.66 20 7.32 20 8 20 C8 21.32 8 22.64 8 24 C7.28 23.65 6.56 23.3 5.81 22.94 C2.61 21.87 1.22 22.19 -2 23 C-3.67 23.04 -5.33 23.05 -7 23 C-7.33 23.99 -7.66 24.98 -8 26 C-8.99 26 -9.98 26 -11 26 C-11.26 26.41 -11.26 26.41 -12.56 28.5 C-15 31 -15 31 -17.48 31.33 C-20 31.31 -22.49 31.22 -25 31 C-25 30.34 -25 29.68 -25 29 C-28.3 29 -31.6 29 -35 29 C-34.67 27.02 -34.34 25.04 -34 23 C-32.84 22.84 -32.84 22.84 -27 22 C-26.67 21.01 -26.34 20.02 -26 19 C-24.68 19.33 -23.36 19.66 -22 20 C-22.33 18.02 -22.66 16.04 -23 14 C-21.68 14 -20.36 14 -19 14 C-19 14.99 -19 15.98 -19 17 C-16.67 18.21 -14.5 19.17 -12 20 C-12 19.34 -12 18.68 -12 18 C-10.02 17.67 -8.04 17.34 -6 17 C-6.33 15.68 -6.66 14.36 -7 13 C-5.68 13 -4.36 13 -3 13 C-3.33 11.68 -3.66 10.36 -4 9 C-3.01 9 -2.02 9 -1 9 C-1.38 6.56 -1.38 6.56 -2 4 C-2.66 3.67 -3.32 3.34 -4 3 C-2.68 2.67 -1.36 2.34 0 2 C0 1.34 0 0.68 0 0 Z " fill="#C9D9EB" transform="translate(286,39)"/>
<path d="M0 0 C1.98 0.66 3.96 1.32 6 2 C6 3.65 6 5.3 6 7 C7.32 7 8.64 7 10 7 C10.8 10.29 11.1 11.71 10 15 C10.66 15 11.32 15 12 15 C12 15.66 12 16.32 12 17 C8.54 17.09 5.08 17.14 1.62 17.19 C1.13 17.2 1.13 17.2 -1.36 17.26 C-1.83 17.27 -1.83 17.27 -4.21 17.29 C-5.08 17.31 -5.95 17.32 -6.85 17.34 C-7.56 17.23 -8.27 17.12 -9 17 C-9.66 16.01 -10.32 15.02 -11 14 C-10.67 13.34 -10.34 12.68 -10 12 C-13.6 11.75 -15.5 11.69 -18.62 13.62 C-19.41 14.08 -20.19 14.53 -21 15 C-23 14.12 -23 14.12 -25 13 C-27.75 13.38 -27.75 13.38 -30 14 C-30.33 12.68 -30.66 11.36 -31 10 C-33.64 10 -36.28 10 -39 10 C-38.34 9.67 -37.68 9.34 -37 9 C-37.66 7.35 -38.32 5.7 -39 4 C-38.17 4.16 -38.17 4.16 -34 5 C-34 5.99 -34 6.98 -34 8 C-33.01 8 -32.02 8 -31 8 C-30.67 7.01 -30.34 6.02 -30 5 C-25.25 5.88 -25.25 5.88 -23 7 C-21.32 6.72 -19.65 6.39 -18 6 C-18 5.34 -18 4.68 -18 4 C-16.35 4 -14.7 4 -13 4 C-12.71 4.8 -12.42 5.61 -12.12 6.44 C-11 9 -11 9 -9 10 C-9 9.34 -9 8.68 -9 8 C-6.29 6.65 -3.99 6.93 -1 7 C-0.67 4.69 -0.34 2.38 0 0 Z M-3 9 C-3.33 9.16 -3.33 9.16 -5 10 C-5 10.66 -5 11.32 -5 12 C-3.35 12 -1.7 12 0 12 C-0.99 11.01 -1.98 10.02 -3 9 Z " fill="#E1E9F1" transform="translate(554,53)"/>
<path d="M0 0 C2.73 0.03 5.3 0.56 8 1 C8 1.66 8 2.32 8 3 C8.38 3.05 8.38 3.05 10.31 3.31 C13.26 4.07 14.25 4.55 16 7 C16.69 9.69 16.69 9.69 17 12 C14.69 12 12.38 12 10 12 C9.69 12.8 9.38 13.61 9.06 14.44 C8 17 8 17 7 18 C5.49 18.23 3.96 18.41 2.44 18.56 C2.02 18.6 2.02 18.6 -0.07 18.82 C-0.7 18.88 -1.34 18.94 -2 19 C-2 18.01 -2 17.02 -2 16 C-3.32 16 -4.64 16 -6 16 C-6 16.99 -6 17.98 -6 19 C-6.66 19.33 -7.32 19.66 -8 20 C-8.62 22.56 -8.62 22.56 -9 25 C-9.99 24.67 -10.98 24.34 -12 24 C-11.34 24 -10.68 24 -10 24 C-10 23.34 -10 22.68 -10 22 C-10.99 22 -11.98 22 -13 22 C-13.69 19.19 -13.69 19.19 -14 16 C-13.02 14.98 -12.02 13.98 -11 13 C-10.94 11.87 -10.88 10.73 -10.81 9.56 C-10 6 -10 6 -8.23 4.73 C-6.81 4.05 -5.37 3.41 -3.91 2.82 C-2 2 -2 2 0 0 Z " fill="#C9D8EC" transform="translate(232,23)"/>
<path d="M0 0 C2.44 0.81 2.44 0.81 5 2 C5.33 2.99 5.66 3.98 6 5 C5.67 5.66 5.34 6.32 5 7 C6.32 6.67 7.64 6.34 9 6 C11.12 10.62 11.12 10.62 10 14 C11.65 14.66 13.3 15.32 15 16 C15 15.34 15 14.68 15 14 C16.32 13.67 17.64 13.34 19 13 C20.56 14.56 20.56 14.56 22 17 C21.67 19.31 21.34 21.62 21 24 C16.05 24 11.1 24 6 24 C5.67 22.68 5.34 21.36 5 20 C2.36 19.67 -0.28 19.34 -3 19 C-3 16.69 -3 14.38 -3 12 C-3.66 12 -4.32 12 -5 12 C-5 10.68 -5 9.36 -5 8 C-5.99 7.67 -6.98 7.34 -8 7 C-8.33 7.99 -8.66 8.98 -9 10 C-11.06 10.69 -11.06 10.69 -13 11 C-12.67 7.99 -12.16 6.22 -10.38 3.75 C-7.31 1.49 -4.75 1.35 -1 1 C-0.67 0.67 -0.34 0.34 0 0 Z M-2 14 C-2 14.99 -2 15.98 -2 17 C0.64 17.33 3.28 17.66 6 18 C6.33 17.34 6.66 16.68 7 16 C6.06 13.88 6.06 13.88 5 12 C1 12 1 12 -2 14 Z " fill="#E8EDF3" transform="translate(369,45)"/>
<path d="M0 0 C2.3 1.78 3.8 3.16 4.49 6.05 C4.72 8.02 4.87 10.01 5 12 C5.66 12 6.32 12 7 12 C7 13.32 7 14.64 7 16 C7.66 16 8.32 16 9 16 C9.33 16.99 9.66 17.98 10 19 C11.98 18.67 13.96 18.34 16 18 C16 18.66 16 19.32 16 20 C16.99 20 17.98 20 19 20 C19 19.01 19 18.02 19 17 C20.65 17 22.3 17 24 17 C24.33 15.68 24.66 14.36 25 13 C25.66 13 26.32 13 27 13 C27.33 15.97 27.66 18.94 28 22 C25.03 22 22.06 22 19 22 C18.34 23.32 17.68 24.64 17 26 C16.67 25.01 16.34 24.02 16 23 C15.55 23.66 15.09 24.32 14.62 25 C14.09 25.66 13.55 26.32 13 27 C12.34 27 11.68 27 11 27 C11 27.66 11 28.32 11 29 C9.68 28.67 8.36 28.34 7 28 C7 28.66 7 29.32 7 30 C6.24 29.81 5.47 29.63 4.69 29.44 C2 29 2 29 -1 30 C-1.66 29.67 -2.32 29.34 -3 29 C-3.62 25.94 -3.62 25.94 -4 23 C-3.01 23.33 -2.02 23.66 -1 24 C-1 23.34 -1 22.68 -1 22 C-1.66 22 -2.32 22 -3 22 C-3 20.68 -3 19.36 -3 18 C-1.02 17.67 0.96 17.34 3 17 C3 16.34 3 15.68 3 15 C2.01 15.33 1.02 15.66 0 16 C-0.99 13.36 -1.98 10.72 -3 8 C-2.34 7.34 -1.68 6.68 -1 6 C-0.6 4.01 -0.26 2.01 0 0 Z " fill="#B4CBE6" transform="translate(60,29)"/>
<path d="M0 0 C3.19 0.88 3.19 0.88 6 2 C5.67 2.16 5.67 2.16 4 3 C3.66 4.33 3.32 5.66 3 7 C2.34 7.66 1.68 8.32 1 9 C1.31 10.88 1.31 10.88 2 13 C2.33 14.33 2.67 15.67 3 17 C1.02 17 -0.96 17 -3 17 C-2.98 17.97 -2.96 18.94 -2.94 19.94 C-3 23 -3 23 -4 24 C-4.37 26.33 -4.7 28.66 -5 31 C-4.01 30.34 -3.02 29.68 -2 29 C-2 28.01 -2 27.02 -2 26 C-0.68 25.67 0.64 25.34 2 25 C2 25.66 2 26.32 2 27 C2.66 27 3.32 27 4 27 C4.53 32.28 4.53 32.28 4 35 C1 37.5 1 37.5 -2 39 C-2.66 38.67 -3.32 38.34 -4 38 C-4 37.34 -4 36.68 -4 36 C-4.66 36 -5.32 36 -6 36 C-6 35.01 -6 34.02 -6 33 C-8.31 32.67 -10.62 32.34 -13 32 C-12.67 31.01 -12.34 30.02 -12 29 C-12.66 29 -13.32 29 -14 29 C-14 28.34 -14 27.68 -14 27 C-13.01 26.67 -12.02 26.34 -11 26 C-11 25.01 -11 24.02 -11 23 C-10.34 23 -9.68 23 -9 23 C-9 22.34 -9 21.68 -9 21 C-7.35 21 -5.7 21 -4 21 C-4.54 20.17 -5.07 19.35 -5.62 18.5 C-7.48 13.79 -6.55 11.73 -5 7 C-6.32 7 -7.64 7 -9 7 C-10.75 5 -10.75 5 -12 3 C-11.67 2.67 -11.34 2.34 -11 2 C-9 2.03 -7 2.07 -5.01 2.16 C-3 2 -3 2 0 0 Z " fill="#DBE4F0" transform="translate(152,30)"/>
<path d="M0 0 C1.65 0 3.3 0 5 0 C5.13 0.68 5.27 1.35 5.4 2.05 C5.58 2.94 5.76 3.83 5.94 4.75 C6.11 5.63 6.29 6.51 6.46 7.42 C6.92 9.63 7.43 11.82 8 14 C8.99 13.34 9.98 12.68 11 12 C14.69 12.38 14.69 12.38 18 13 C17.67 13.66 17.34 14.32 17 15 C16.34 15 15.68 15 15 15 C15 15.99 15 16.98 15 18 C16.32 18.66 17.64 19.32 19 20 C19 21.32 19 22.64 19 24 C12.91 26.24 9.2 27.56 3 25 C0.93 24.89 0.93 24.89 -1.25 24.94 C-5 25 -5 25 -7 24 C-7 23.34 -7 22.68 -7 22 C-5.02 22 -3.04 22 -1 22 C-1.33 21.01 -1.66 20.02 -2 19 C0.64 19 3.28 19 6 19 C5.88 17.19 5.88 17.19 5 15 C3.03 13.93 1.03 12.93 -1 12 C-1.33 11.34 -1.66 10.68 -2 10 C-2.99 10 -3.98 10 -5 10 C-5 8.35 -5 6.7 -5 5 C-3.35 4.67 -1.7 4.34 0 4 C0 2.68 0 1.36 0 0 Z " fill="#E1E8F2" transform="translate(45,48)"/>
<path d="M0 0 C1 2 1 2 0.44 4.16 C0.15 4.98 -0.14 5.79 -0.44 6.62 C-0.58 7.03 -0.58 7.03 -1.31 9.1 C-1.54 9.73 -1.76 10.35 -2 11 C-1.34 11 -0.68 11 0 11 C0 11.99 0 12.98 0 14 C-0.99 14 -1.98 14 -3 14 C-3 15.32 -3 16.64 -3 18 C-1.68 18.33 -0.36 18.66 1 19 C1.66 17.35 2.32 15.7 3 14 C3.82 14.16 3.82 14.16 8 15 C8.17 15.5 8.17 15.5 9 18 C9.66 18.66 10.32 19.32 11 20 C10.34 21.32 9.68 22.64 9 24 C9.66 24 10.32 24 11 24 C11 23.34 11 22.68 11 22 C11.66 21.67 12.32 21.34 13 21 C13.62 18.94 13.62 18.94 14 17 C15.32 16.67 16.64 16.34 18 16 C17.67 18.64 17.34 21.28 17 24 C16.01 24.16 16.01 24.16 11 25 C11 25.66 11 26.32 11 27 C8.33 26.33 5.67 25.67 3 25 C3.33 23.68 3.66 22.36 4 21 C2.68 21 1.36 21 0 21 C0 21.99 0 22.98 0 24 C-1.94 23.19 -1.94 23.19 -4 22 C-4.33 21.01 -4.66 20.02 -5 19 C-5.66 19 -6.32 19 -7 19 C-7 18.34 -7 17.68 -7 17 C-9.31 16.67 -11.62 16.34 -14 16 C-14 17.65 -14 19.3 -14 21 C-14.99 21 -15.98 21 -17 21 C-17 20.34 -17 19.68 -17 19 C-18.98 18.34 -20.96 17.68 -23 17 C-23 17.66 -23 18.32 -23 19 C-23.99 19 -24.98 19 -26 19 C-26.66 21.64 -27.32 24.28 -28 27 C-29.65 26.67 -31.3 26.34 -33 26 C-32.67 24.35 -32.34 22.7 -32 21 C-31.01 21.33 -30.02 21.66 -29 22 C-28.34 19.03 -27.68 16.06 -27 13 C-26.34 13 -25.68 13 -25 13 C-25 13.66 -25 14.32 -25 15 C-23.4 15.11 -21.79 15.19 -20.19 15.25 C-19.74 15.27 -19.74 15.27 -17.48 15.39 C-15 15 -15 15 -13.37 13.09 C-13.14 12.74 -13.14 12.74 -12 11 C-10.02 9.97 -8.02 8.96 -6 8 C-5.67 7.34 -5.34 6.68 -5 6 C-4.34 6 -3.68 6 -3 6 C-2.69 5.2 -2.38 4.39 -2.06 3.56 C-1 1 -1 1 0 0 Z " fill="#A1BFE1" transform="translate(263,32)"/>
<path d="M0 0 C3.24 0.17 4.71 0.75 7.19 2.88 C11.03 7.38 11.03 7.38 10.81 11.44 C10.04 14.84 9.32 16.48 7 19 C8.32 19 9.64 19 11 19 C11.33 18.01 11.66 17.02 12 16 C13.65 16.33 15.3 16.66 17 17 C17 17.66 17 18.32 17 19 C17.66 18.67 18.32 18.34 19 18 C18.67 17.67 18.34 17.34 18 17 C17.66 13.83 17.74 12.4 19.5 9.69 C20 9.13 20.49 8.57 21 8 C21 8.99 21 9.98 21 11 C22.32 11 23.64 11 25 11 C24.67 13.97 24.34 16.94 24 20 C22.68 20 21.36 20 20 20 C18.33 20.3 16.66 20.63 15 21 C15 23.31 15 25.62 15 28 C12.69 28.66 10.38 29.32 8 30 C5.22 26.06 4.91 23.74 5 19 C4.46 16.61 3.75 14.34 3 12 C3.64 11.86 4.28 11.71 4.94 11.56 C7 11 7 11 8 10 C5.38 7.85 3.36 6.6 0 6 C-0.33 7.32 -0.66 8.64 -1 10 C-1.66 10 -2.32 10 -3 10 C-3 9.34 -3 8.68 -3 8 C-4.32 8 -5.64 8 -7 8 C-7.62 6.19 -7.62 6.19 -8 4 C-7.34 3.01 -6.68 2.02 -6 1 C-5.38 1.21 -4.76 1.41 -4.12 1.62 C-3.77 1.69 -3.77 1.69 -2 2 C-1.34 1.34 -0.68 0.68 0 0 Z " fill="#D5E0EE" transform="translate(116,28)"/>
<path d="M0 0 C0.33 1.32 0.66 2.64 1 4 C1.66 4 2.32 4 3 4 C3.33 3.34 3.66 2.68 4 2 C7 3 7 3 8.88 6.25 C10 10 10 10 9.25 12.94 C6.6 15.37 5.8 15.3 2.31 15.31 C0.87 15.23 -0.57 15.14 -2 15 C-2 15.66 -2 16.32 -2 17 C-3.98 17 -5.96 17 -8 17 C-7.67 14.69 -7.34 12.38 -7 10 C-7.66 10 -8.32 10 -9 10 C-9 9.34 -9 8.68 -9 8 C-12.88 9.75 -12.88 9.75 -14 12 C-15.32 11.67 -16.64 11.34 -18 11 C-18.33 11.66 -18.66 12.32 -19 13 C-18.35 7.51 -15.92 3.7 -11.81 0.06 C-7.74 -1.48 -4.22 -0.76 0 0 Z M-9 17 C-8.67 17.66 -8.34 18.32 -8 19 C-8.66 18.67 -9.32 18.34 -10 18 C-9.67 17.67 -9.34 17.34 -9 17 Z " fill="#DCE5F0" transform="translate(508,23)"/>
<path d="M0 0 C0.99 0.33 1.98 0.66 3 1 C2.01 1.33 1.02 1.66 0 2 C-0.33 3.65 -0.66 5.3 -1 7 C1.09 8.12 2.85 8.97 5.19 9.44 C5.79 9.62 6.38 9.81 7 10 C7.33 10.99 7.66 11.98 8 13 C7.67 13.16 7.67 13.16 6 14 C7.98 13.67 9.96 13.34 12 13 C12 14.32 12 15.64 12 17 C11.34 17 10.68 17 10 17 C10 17.66 10 18.32 10 19 C11.98 18.01 13.96 17.02 16 16 C15.67 17.32 15.34 18.64 15 20 C15.99 20 16.98 20 18 20 C18 20.66 18 21.32 18 22 C16.4 22.2 14.79 22.38 13.19 22.56 C12.29 22.67 11.4 22.77 10.48 22.88 C8 23 8 23 5 22 C5 21.34 5 20.68 5 20 C4.4 19.86 3.8 19.71 3.19 19.56 C1.44 19.11 -0.29 18.57 -2 18 C-2.39 18.49 -2.78 18.98 -3.18 19.49 C-5.61 21.51 -7.07 21.31 -10.19 21.19 C-10.64 21.17 -10.64 21.17 -12.92 21.11 C-13.61 21.07 -14.29 21.04 -15 21 C-15 20.34 -15 19.68 -15 19 C-13.91 18.57 -12.81 18.13 -11.69 17.69 C-8.92 16.16 -8.11 15.25 -6.87 12.29 C-6.14 9.53 -5.51 6.8 -5 4 C-4.34 4 -3.68 4 -3 4 C-2.67 3.01 -2.34 2.02 -2 1 C-1.34 0.67 -0.68 0.34 0 0 Z " fill="#BCD1E9" transform="translate(452,38)"/>
<path d="M0 0 C2.5 1.38 2.5 1.38 5 3 C5 3.66 5 4.32 5 5 C5.99 5.33 6.98 5.66 8 6 C8.69 8.06 8.69 8.06 9 10 C8.34 10 7.68 10 7 10 C7 10.66 7 11.32 7 12 C5.35 12 3.7 12 2 12 C1.67 13.32 1.34 14.64 1 16 C-0.65 15.6 -2.3 15.18 -3.94 14.75 C-4.85 14.52 -5.77 14.29 -6.71 14.05 C-9 13 -9 13 -9.82 10.89 C-9.88 10.27 -9.94 9.64 -10 9 C-10.66 9 -11.32 9 -12 9 C-12 9.99 -12 10.98 -12 12 C-11.34 12 -10.68 12 -10 12 C-10 12.66 -10 13.32 -10 14 C-11.65 14.66 -13.3 15.32 -15 16 C-15.66 15.01 -16.32 14.02 -17 13 C-20.12 12.31 -20.12 12.31 -23 12 C-22.25 10.06 -22.25 10.06 -21 8 C-18.05 6.72 -16.01 7.03 -13 8 C-12.67 7.34 -12.34 6.68 -12 6 C-6.84 1.07 -6.84 1.07 -3.19 0.75 C-2.47 0.83 -1.74 0.91 -1 1 C-0.67 0.67 -0.34 0.34 0 0 Z " fill="#DCE5F0" transform="translate(534,38)"/>
<path d="M0 0 C0.66 0.33 1.32 0.66 2 1 C2 1.66 2 2.32 2 3 C2.66 3 3.32 3 4 3 C4 3.66 4 4.32 4 5 C3.34 5 2.68 5 2 5 C2 5.66 2 6.32 2 7 C3.15 6.84 3.15 6.84 9 6 C9.33 6.99 9.66 7.98 10 9 C3.25 11.12 3.25 11.12 1 10 C0.67 11.65 0.34 13.3 0 15 C1.32 15.33 2.64 15.66 4 16 C4 16.66 4 17.32 4 18 C5.32 18.66 6.64 19.32 8 20 C8 20.66 8 21.32 8 22 C7.55 21.92 7.55 21.92 5.25 21.5 C2 21 2 21 -2 21 C-1.67 18.69 -1.34 16.38 -1 14 C-4.27 14.56 -5.83 15.5 -8 18 C-8.99 17.67 -9.98 17.34 -11 17 C-11.66 17.33 -12.32 17.66 -13 18 C-12.34 18.66 -11.68 19.32 -11 20 C-12.65 20 -14.3 20 -16 20 C-16.33 18.68 -16.66 17.36 -17 16 C-15.68 15.67 -14.36 15.34 -13 15 C-13.33 14.01 -13.66 13.02 -14 12 C-13.67 11.01 -13.34 10.02 -13 9 C-10.36 8.67 -7.72 8.34 -5 8 C-5 7.34 -5 6.68 -5 6 C-3.69 4.65 -2.35 3.31 -1 2 C-0.67 1.34 -0.34 0.68 0 0 Z " fill="#C9D8EA" transform="translate(267,19)"/>
<path d="M0 0 C0.66 0 1.32 0 2 0 C2 1.32 2 2.64 2 4 C2.74 3.77 3.48 3.55 4.25 3.31 C7 3 7 3 9.31 4.31 C11 6 11 6 11 8 C10.01 8 9.02 8 8 8 C8 10.31 8 12.62 8 15 C10.97 15 13.94 15 17 15 C19.43 23.43 19.43 23.43 18 28 C17.34 28 16.68 28 16 28 C16 27.34 16 26.68 16 26 C15.34 25.67 14.68 25.34 14 25 C14.33 23.68 14.66 22.36 15 21 C11.25 21.5 7.67 22.08 4 23 C4.17 21.52 4.17 21.52 5 14 C4.01 13.67 3.02 13.34 2 13 C1.67 11.35 1.34 9.7 1 8 C0.34 8 -0.32 8 -1 8 C-1.62 5.12 -1.62 5.12 -2 2 C-1.34 1.34 -0.68 0.68 0 0 Z " fill="#C1D2E7" transform="translate(87,25)"/>
<path d="M0 0 C2.31 0.33 4.62 0.66 7 1 C7 1.66 7 2.32 7 3 C7.66 3.33 8.32 3.66 9 4 C8.34 4 7.68 4 7 4 C6.67 5.32 6.34 6.64 6 8 C4.35 8.33 2.7 8.66 1 9 C1 8.34 1 7.68 1 7 C-1 8 -1 8 -2 10.94 C-4 14 -4 14 -6.42 14.84 C-8.94 15.33 -11.44 15.72 -14 16 C-14.97 12.32 -15.05 10.2 -13.56 6.69 C-13.28 5.99 -12.99 5.29 -12.69 4.57 C-12.46 4.05 -12.24 3.54 -12 3 C-11.01 3 -10.02 3 -9 3 C-9 2.34 -9 1.68 -9 1 C-7.02 1.66 -5.04 2.32 -3 3 C-3 3.66 -3 4.32 -3 5 C-2.01 5 -1.02 5 0 5 C0 3.35 0 1.7 0 0 Z " fill="#C6D7EA" transform="translate(249,48)"/>
<path d="M0 0 C-0.33 0.5 -0.33 0.5 -2 3 C-2.12 6.19 -2.12 6.19 -2 9 C-2.99 9.33 -3.98 9.66 -5 10 C-6.19 12.06 -6.19 12.06 -7 14 C-7.99 14 -8.98 14 -10 14 C-10 13.34 -10 12.68 -10 12 C-9.34 12 -8.68 12 -8 12 C-8.33 11.34 -8.66 10.68 -9 10 C-10.98 10.99 -12.96 11.98 -15 13 C-15 12.34 -15 11.68 -15 11 C-15.99 10.67 -16.98 10.34 -18 10 C-18 9.01 -18 8.02 -18 7 C-18.99 6.67 -19.98 6.34 -21 6 C-21 5.34 -21 4.68 -21 4 C-22.98 4.33 -24.96 4.66 -27 5 C-23.9 1.8 -21.68 0.68 -17.31 0.56 C-14.99 0.57 -14.99 0.57 -13 1 C-12.67 1.5 -12.67 1.5 -11 4 C-10.01 3.67 -9.02 3.34 -8 3 C-8 1.68 -8 0.36 -8 -1 C-4.6 -2.22 -3.07 -1.86 0 0 Z " fill="#C9D8EA" transform="translate(88,24)"/>
<path d="M0 0 C0.99 0 1.98 0 3 0 C3 0.66 3 1.32 3 2 C5.64 2.33 8.28 2.66 11 3 C10.34 3.45 9.68 3.91 9 4.38 C8.34 4.91 7.68 5.45 7 6 C7 6.66 7 7.32 7 8 C8.32 8.66 9.64 9.32 11 10 C11 10.66 11 11.32 11 12 C8.75 13.12 8.75 13.12 6 14 C4 13.19 4 13.19 2 12 C0.34 11.62 -1.32 11.28 -3 11 C-3.33 11.99 -3.66 12.98 -4 14 C-8.69 15.12 -11.54 14.81 -16 13 C-15.67 11.68 -15.34 10.36 -15 9 C-15.34 9.13 -15.34 9.13 -17.06 9.81 C-21.45 10.09 -23.74 7.72 -27 5 C-23.23 3.74 -21.63 4.63 -18 6 C-18 6.66 -18 7.32 -18 8 C-17.11 8.12 -16.23 8.25 -15.31 8.38 C-12.3 8.94 -9.8 9.77 -7 11 C-6.34 10.34 -5.68 9.68 -5 9 C-3.68 9 -2.36 9 -1 9 C-1 8.34 -1 7.68 -1 7 C-0.34 7 0.32 7 1 7 C0.34 5.02 -0.32 3.04 -1 1 C-0.67 0.67 -0.34 0.34 0 0 Z M1 2 C2 4 2 4 2 4 Z " fill="#E9EEF4" transform="translate(113,63)"/>
<path d="M0 0 C2.67 1.33 5.33 2.67 8 4 C8 4.99 8 5.98 8 7 C6.68 7 5.36 7 4 7 C3.67 7.66 3.34 8.32 3 9 C0.68 9.41 -1.66 9.74 -4 10 C-4.33 11.98 -4.66 13.96 -5 16 C-4.01 15.67 -3.02 15.34 -2 15 C0.69 15.44 0.69 15.44 3 16 C3 16.33 3 16.66 3 17 C1.02 17 -0.96 17 -3 17 C-3 17.66 -3 18.32 -3 19 C-3.76 18.84 -4.53 18.67 -5.31 18.5 C-8 18 -8 18 -11 18 C-10.81 17.4 -10.63 16.8 -10.44 16.19 C-10 14 -10 14 -11 11 C-11.99 10.67 -12.98 10.34 -14 10 C-13.01 9.67 -12.02 9.34 -11 9 C-9.31 5.94 -9.31 5.94 -8 3 C-7.01 3.16 -7.01 3.16 -2 4 C-1.34 2.68 -0.68 1.36 0 0 Z " fill="#D9E3EF" transform="translate(256,52)"/>
<path d="M0 0 C2.64 0.33 5.28 0.66 8 1 C8 1.66 8 2.32 8 3 C8.38 3.05 8.38 3.05 10.31 3.31 C13.26 4.07 14.25 4.55 16 7 C16.69 9.69 16.69 9.69 17 12 C14.69 12 12.38 12 10 12 C9.75 12.8 9.5 13.61 9.25 14.44 C8 17 8 17 6.06 17.88 C4 18 4 18 1 17 C1 15.35 1 13.7 1 12 C2.32 11.67 3.64 11.34 5 11 C5 9.35 5 7.7 5 6 C3.68 6 2.36 6 1 6 C0.67 4.02 0.34 2.04 0 0 Z " fill="#E5EAF1" transform="translate(232,23)"/>
<path d="M0 0 C0.29 0.8 0.58 1.61 0.88 2.44 C2 5 2 5 4 6 C3.67 8.97 3.34 11.94 3 15 C4.32 14.34 5.64 13.68 7 13 C9.33 12.92 11.67 12.91 14 13 C14 14.32 14 15.64 14 17 C5.57 19.43 5.57 19.43 1 18 C1 17.34 1 16.68 1 16 C0.34 16 -0.32 16 -1 16 C-1 13.69 -1 11.38 -1 9 C-1.66 9 -2.32 9 -3 9 C-3.33 10.32 -3.66 11.64 -4 13 C-4.99 12.34 -5.98 11.68 -7 11 C-7.52 6.98 -7.65 4.87 -5.19 1.56 C-3 0 -3 0 0 0 Z " fill="#9EBCDF" transform="translate(88,33)"/>
<path d="M0 0 C0.99 0 1.98 0 3 0 C3.66 0.99 4.32 1.98 5 3 C7.62 3.69 7.62 3.69 10 4 C10 4.99 10 5.98 10 7 C9.11 6.96 8.23 6.92 7.31 6.88 C4.03 7 1.95 7.61 -1 9 C-1.12 2.25 -1.12 2.25 0 0 Z M-9 2 C-7.35 2 -5.7 2 -4 2 C-4 2.66 -4 3.32 -4 4 C-4.99 4 -5.98 4 -7 4 C-3.25 7.88 -3.25 7.88 -1 9 C-1 10.32 -1 11.64 -1 13 C-0.01 13 0.98 13 2 13 C2 14.65 2 16.3 2 18 C0.68 18 -0.64 18 -2 18 C-2.33 18.99 -2.66 19.98 -3 21 C-4.32 20.67 -5.64 20.34 -7 20 C-6.75 19.44 -6.5 18.89 -6.25 18.31 C-6.17 17.55 -6.08 16.79 -6 16 C-6.66 15.28 -7.32 14.56 -8 13.81 C-10.62 10.12 -10.06 8.11 -9.36 3.79 C-9.24 3.2 -9.12 2.61 -9 2 Z " fill="#B6CCE5" transform="translate(511,39)"/>
<path d="M0 0 C1.65 0.33 3.3 0.66 5 1 C5.33 1.99 5.66 2.98 6 4 C5.67 4.66 5.34 5.32 5 6 C4.34 6 3.68 6 3 6 C3 6.66 3 7.32 3 8 C2.34 8 1.68 8 1 8 C1 8.66 1 9.32 1 10 C2.32 10.33 3.64 10.66 5 11 C5 11.66 5 12.32 5 13 C5.78 13.12 6.57 13.25 7.38 13.38 C10 14 10 14 12 16 C12.12 18.62 12.12 18.62 12 21 C9.48 19.99 6.97 18.99 4.5 17.88 C1.84 16.94 -0.2 16.84 -3 17 C-3 16.34 -3 15.68 -3 15 C-4.65 14.67 -6.3 14.34 -8 14 C-8.33 13.01 -8.66 12.02 -9 11 C-7.68 10.34 -6.36 9.68 -5 9 C-4.67 9.99 -4.34 10.98 -4 12 C-3.01 12 -2.02 12 -1 12 C-1.66 9.36 -2.32 6.72 -3 4 C-2.34 4 -1.68 4 -1 4 C-0.67 2.68 -0.34 1.36 0 0 Z " fill="#CDDBEC" transform="translate(312,47)"/>
<path d="M0 0 C0.66 0 1.32 0 2 0 C4.09 3.4 4.18 6.05 4 10 C4.99 9.34 5.98 8.68 7 8 C7 7.01 7 6.02 7 5 C8.32 4.67 9.64 4.34 11 4 C11 4.66 11 5.32 11 6 C11.66 6 12.32 6 13 6 C13.53 11.28 13.53 11.28 13 14 C10 16.5 10 16.5 7 18 C6.34 17.67 5.68 17.34 5 17 C5 16.34 5 15.68 5 15 C4.34 15 3.68 15 3 15 C3 14.01 3 13.02 3 12 C0.69 11.67 -1.62 11.34 -4 11 C-3.67 10.01 -3.34 9.02 -3 8 C-3.66 8 -4.32 8 -5 8 C-5 7.34 -5 6.68 -5 6 C-4.01 5.67 -3.02 5.34 -2 5 C-2 4.01 -2 3.02 -2 2 C-1.34 2 -0.68 2 0 2 C0 1.34 0 0.68 0 0 Z " fill="#CFDCED" transform="translate(143,51)"/>
<path d="M0 0 C2.38 0.31 2.38 0.31 5 1 C5.66 1.99 6.32 2.98 7 4 C7.66 4.12 8.32 4.25 9 4.38 C11 5 11 5 12.31 7.25 C13.07 10.26 12.84 12.04 12 15 C10.35 14.67 8.7 14.34 7 14 C7 15.32 7 16.64 7 18 C5.25 20.31 5.25 20.31 3 22 C0.75 21.75 0.75 21.75 -1 21 C-0.01 20.67 0.98 20.34 2 20 C0.25 15.12 0.25 15.12 -2 14 C-1.67 12.68 -1.34 11.36 -1 10 C0.65 10 2.3 10 4 10 C3.71 8.72 3.42 7.44 3.12 6.12 C2.96 5.41 2.8 4.69 2.63 3.95 C2 2 2 2 0 0 Z " fill="#E9EDF3" transform="translate(458,31)"/>
<path d="M0 0 C3.34 -0.07 5.8 -0.07 9 1 C9 1.66 9 2.32 9 3 C8.34 3 7.68 3 7 3 C7 3.66 7 4.32 7 5 C7.66 5 8.32 5 9 5 C9 5.66 9 6.32 9 7 C12.63 7.66 16.26 8.32 20 9 C20 9.33 20 9.66 20 10 C19.03 9.98 18.06 9.96 17.06 9.94 C14 10 14 10 13 11 C7.47 11.24 7.47 11.24 5 10 C5 10.99 5 11.98 5 13 C4.01 12.67 3.02 12.34 2 12 C2 11.01 2 10.02 2 9 C1.69 9.05 1.69 9.05 0.14 9.29 C-0.67 9.4 -1.48 9.51 -2.31 9.62 C-3.11 9.74 -3.91 9.86 -4.74 9.98 C-7 10 -7 10 -10 8 C-6.81 5.87 -4.73 5.5 -1 5 C-0.67 3.35 -0.34 1.7 0 0 Z " fill="#E3EAF2" transform="translate(20,58)"/>
<path d="M0 0 C2.12 0.5 2.12 0.5 4.06 -0.12 C6.12 -0.5 6.12 -0.5 8.81 0.5 C11.97 3.23 11.75 5.46 12.12 9.5 C12.79 9.83 13.44 10.16 14.12 10.5 C13.46 10.5 12.81 10.5 12.12 10.5 C12.12 11.49 12.12 12.48 12.12 13.5 C10.48 13.5 8.82 13.5 7.12 13.5 C7.12 12.51 7.12 11.52 7.12 10.5 C6.46 10.5 5.81 10.5 5.12 10.5 C5.12 9.51 5.12 8.52 5.12 7.5 C4.42 7.38 3.72 7.25 3 7.12 C-0.05 6.46 -2.93 5.53 -5.88 4.5 C-3.43 -0.91 -3.43 -0.91 0 0 Z " fill="#DAE3EF" transform="translate(289.875,23.5)"/>
<path d="M0 0 C0.83 0.16 0.83 0.16 5 1 C5 1.99 5 2.98 5 4 C5.99 4 6.98 4 8 4 C8.33 3.01 8.66 2.02 9 1 C13.75 1.88 13.75 1.88 16 3 C18.12 2.56 18.12 2.56 20 2 C20 2.66 20 3.32 20 4 C19.01 4 18.02 4 17 4 C17 4.66 17 5.32 17 6 C18.32 5.67 19.64 5.34 21 5 C21 6.65 21 8.3 21 10 C19.19 10.62 19.19 10.62 17 11 C16.01 10.34 15.02 9.68 14 9 C11.31 9.38 11.31 9.38 9 10 C8.67 8.68 8.34 7.36 8 6 C5.36 6 2.72 6 0 6 C0.66 5.67 1.32 5.34 2 5 C1.34 3.35 0.68 1.7 0 0 Z " fill="#D2DFEE" transform="translate(515,57)"/>
<path d="M0 0 C0.33 0.99 0.66 1.98 1 3 C1.66 3 2.32 3 3 3 C3.33 2.34 3.66 1.68 4 1 C7 2 7 2 8.88 5.25 C10 9 10 9 9.25 11.94 C6.6 14.37 5.8 14.3 2.31 14.31 C0.87 14.23 -0.57 14.14 -2 14 C-2 14.66 -2 15.32 -2 16 C-3.32 16 -4.64 16 -6 16 C-6 13.69 -6 11.38 -6 9 C-3 8 -3 8 0.19 9.44 C1.12 9.95 2.04 10.47 3 11 C3 8.69 3 6.38 3 4 C2.01 4 1.02 4 0 4 C0 2.68 0 1.36 0 0 Z " fill="#E9EDF3" transform="translate(508,24)"/>
<path d="M0 0 C1.32 0.33 2.64 0.66 4 1 C3.67 2.32 3.34 3.64 3 5 C3.66 5 4.32 5 5 5 C4.67 7.31 4.34 9.62 4 12 C-0.46 13.15 -3.84 13.08 -8 11 C-8 8.69 -8 6.38 -8 4 C-6.68 4.33 -5.36 4.66 -4 5 C-3.67 4.01 -3.34 3.02 -3 2 C-2.34 2 -1.68 2 -1 2 C-0.67 1.34 -0.34 0.68 0 0 Z " fill="#C6D8EB" transform="translate(361,52)"/>
<path d="M0 0 C0.66 0.33 1.32 0.66 2 1 C2 1.66 2 2.32 2 3 C1.67 3.16 1.67 3.16 0 4 C2.31 4.33 4.62 4.66 7 5 C7 5.66 7 6.32 7 7 C7.66 6.67 8.32 6.34 9 6 C13.22 5.72 16.17 6.2 20 8 C20 8.66 20 9.32 20 10 C18.68 10 17.36 10 16 10 C16 10.66 16 11.32 16 12 C9.38 13.73 5.08 11.85 -1 9 C-0.67 8.34 -0.34 7.68 0 7 C-0.99 6.01 -1.98 5.02 -3 4 C-2.01 2.68 -1.02 1.36 0 0 Z " fill="#E7ECF3" transform="translate(499,59)"/>
<path d="M0 0 C0.72 0.27 1.44 0.54 2.19 0.81 C2.19 1.47 2.19 2.13 2.19 2.81 C3.18 3.14 4.17 3.47 5.19 3.81 C4.5 7.19 4.5 7.19 3.19 10.81 C0.69 12.31 0.69 12.31 -1.81 12.81 C-2.47 12.48 -3.13 12.15 -3.81 11.81 C-3.81 11.15 -3.81 10.49 -3.81 9.81 C-5.13 9.81 -6.45 9.81 -7.81 9.81 C-8.12 7.62 -8.12 7.62 -7.81 4.81 C-3.95 -0.26 -3.95 -0.26 0 0 Z " fill="#E3E9F0" transform="translate(306.8125,61.1875)"/>
<path d="M0 0 C0.78 0.19 1.57 0.37 2.38 0.56 C5 1 5 1 7 0 C7.33 1.32 7.66 2.64 8 4 C8.6 3.67 9.2 3.34 9.81 3 C12 2 12 2 15 2 C15.33 3.65 15.66 5.3 16 7 C15.01 7 14.02 7 13 7 C13.33 8.32 13.66 9.64 14 11 C13.01 10.67 12.02 10.34 11 10 C11.33 9.01 11.66 8.02 12 7 C10.68 7.33 9.36 7.66 8 8 C7.67 9.65 7.34 11.3 7 13 C6.34 13 5.68 13 5 13 C5 13.66 5 14.32 5 15 C4.34 15 3.68 15 3 15 C3.21 14.38 3.41 13.76 3.62 13.12 C3.75 12.42 3.87 11.72 4 11 C3.34 10.34 2.68 9.68 2 9 C2 8.01 2 7.02 2 6 C1.34 6 0.68 6 0 6 C0 5.34 0 4.68 0 4 C0.99 4 1.98 4 3 4 C3 3.34 3 2.68 3 2 C2.01 2 1.02 2 0 2 C0 1.34 0 0.68 0 0 Z " fill="#BED1E7" transform="translate(269,41)"/>
<path d="M0 0 C0.33 0.66 0.66 1.32 1 2 C1.66 2 2.32 2 3 2 C3.33 1.34 3.66 0.68 4 0 C5.32 0.66 6.64 1.32 8 2 C8 2.66 8 3.32 8 4 C8.99 4.33 9.98 4.66 11 5 C11.33 6.32 11.66 7.64 12 9 C9.36 8.34 6.72 7.68 4 7 C3.67 5.68 3.34 4.36 3 3 C2.34 3 1.68 3 1 3 C1 3.99 1 4.98 1 6 C1.66 6 2.32 6 3 6 C3 6.66 3 7.32 3 8 C1.35 8.66 -0.3 9.32 -2 10 C-2.66 9.01 -3.32 8.02 -4 7 C-7.12 6.31 -7.12 6.31 -10 6 C-9.25 4.06 -9.25 4.06 -8 2 C-5.05 0.72 -3.01 1.03 0 2 C0 1.34 0 0.68 0 0 Z " fill="#D6E1EE" transform="translate(521,44)"/>
<path d="M0 0 C0.33 0.66 0.66 1.32 1 2 C1.66 2 2.32 2 3 2 C3 2.66 3 3.32 3 4 C3.66 4.66 4.32 5.32 5 6 C2.69 5.67 0.38 5.34 -2 5 C-2 6.65 -2 8.3 -2 10 C-2.99 10 -3.98 10 -5 10 C-5 9.34 -5 8.68 -5 8 C-6.98 7.34 -8.96 6.68 -11 6 C-11 6.66 -11 7.32 -11 8 C-11.99 8 -12.98 8 -14 8 C-14.66 10.64 -15.32 13.28 -16 16 C-17.65 15.67 -19.3 15.34 -21 15 C-20.67 13.35 -20.34 11.7 -20 10 C-19.01 10.33 -18.02 10.66 -17 11 C-16.34 8.03 -15.68 5.06 -15 2 C-14.34 2 -13.68 2 -13 2 C-13 2.66 -13 3.32 -13 4 C-11.4 4.11 -9.79 4.19 -8.19 4.25 C-7.74 4.27 -7.74 4.27 -5.48 4.39 C-3 4 -3 4 -1.18 1.98 C-0.79 1.33 -0.4 0.67 0 0 Z " fill="#A7C3E3" transform="translate(251,43)"/>
<path d="M0 0 C0.66 0.33 1.32 0.66 2 1 C2 1.99 2 2.98 2 4 C3.32 4 4.64 4 6 4 C6.8 7.29 7.1 8.71 6 12 C6.66 12 7.32 12 8 12 C8 12.66 8 13.32 8 14 C7.62 13.93 7.62 13.93 5.7 13.56 C4.71 13.38 3.71 13.19 2.69 13 C1.7 12.81 0.72 12.63 -0.3 12.44 C-3 12 -3 12 -6 12 C-6 11.34 -6 10.68 -6 10 C-5.34 10 -4.68 10 -4 10 C-4 8.68 -4 7.36 -4 6 C-3.34 6 -2.68 6 -2 6 C-1.86 5.2 -1.71 4.39 -1.56 3.56 C-1 1 -1 1 0 0 Z " fill="#D4DFED" transform="translate(558,56)"/>
<path d="M0 0 C0 0.66 0 1.32 0 2 C0.66 2.33 1.32 2.66 2 3 C0.02 5.64 -1.96 8.28 -4 11 C-4.33 10.01 -4.66 9.02 -5 8 C-5.58 7.71 -6.15 7.42 -6.75 7.12 C-9.76 5.62 -11.7 3.43 -14 1 C-9.2 -3.03 -5.53 -1.67 0 0 Z " fill="#ECEFF2" transform="translate(282,32)"/>
<path d="M0 0 C0.93 0.21 1.86 0.41 2.81 0.62 C2.81 1.28 2.81 1.95 2.81 2.62 C3.47 2.95 4.13 3.28 4.81 3.62 C4.19 3.81 3.57 4 2.94 4.19 C-0.24 6.34 -0.38 9 -1.19 12.62 C-2.84 12.95 -4.49 13.28 -6.19 13.62 C-7.25 11.25 -7.25 11.25 -8.19 8.62 C-7.86 7.97 -7.53 7.3 -7.19 6.62 C-7.06 5.8 -6.94 4.98 -6.81 4.12 C-5.79 0.05 -3.99 -0.47 0 0 Z " fill="#DBE5F1" transform="translate(486.1875,35.375)"/>
<path d="M0 0 C0.66 0.33 1.32 0.66 2 1 C2 2.65 2 4.3 2 6 C1.01 6 0.02 6 -1 6 C-0.91 6.31 -0.91 6.31 -0.44 7.88 C0 10 0 10 -1 12 C-0.34 12 0.32 12 1 12 C1 12.66 1 13.32 1 14 C1.99 14 2.98 14 4 14 C3.67 14.66 3.34 15.32 3 16 C0.36 16 -2.28 16 -5 16 C-5.12 15.7 -5.12 15.7 -5.75 14.19 C-7.16 11.71 -8.65 10.57 -11 9 C-10.34 8.01 -9.68 7.02 -9 6 C-7.68 6.33 -6.36 6.66 -5 7 C-4.67 6.34 -4.34 5.68 -4 5 C-2.68 3.32 -1.35 1.65 0 0 Z " fill="#DDE6F1" transform="translate(76,51)"/>
<path d="M0 0 C3.88 1.75 3.88 1.75 5 4 C6.64 4.72 8.31 5.39 10 6 C8 8 8 8 6.05 8.2 C4.04 8.13 2.02 8.07 0 8 C-0.33 8.66 -0.66 9.32 -1 10 C-3.97 8.02 -6.94 6.04 -10 4 C-9.34 3.01 -8.68 2.02 -8 1 C-7.62 1.1 -7.62 1.1 -5.69 1.62 C-3 2 -3 2 0 0 Z " fill="#E2E9F2" transform="translate(184,61)"/>
<path d="M0 0 C0 0.66 0 1.32 0 2 C-1.98 2.33 -3.96 2.66 -6 3 C-5.62 4.94 -5.62 4.94 -5 7 C-4.34 7.33 -3.68 7.66 -3 8 C-3 8.66 -3 9.32 -3 10 C-3.99 10.33 -4.98 10.66 -6 11 C-6.33 10.34 -6.66 9.68 -7 9 C-8.32 9 -9.64 9 -11 9 C-11.33 9.66 -11.66 10.32 -12 11 C-12.66 11 -13.32 11 -14 11 C-14.33 11.99 -14.66 12.98 -15 14 C-15 13.34 -15 12.68 -15 12 C-16.32 11.67 -17.64 11.34 -19 11 C-18.34 11 -17.68 11 -17 11 C-16.9 10.07 -16.79 9.14 -16.69 8.19 C-16 5 -16 5 -14.81 3.12 C-12.22 1.52 -10 1.94 -7 2 C-4 0 -4 0 0 0 Z " fill="#E5EAF2" transform="translate(562,37)"/>
<path d="M0 0 C0.99 2.64 1.98 5.28 3 8 C1.35 9.32 -0.3 10.64 -2 12 C-2 11.34 -2 10.68 -2 10 C-2.99 9.67 -3.98 9.34 -5 9 C-5 8.01 -5 7.02 -5 6 C-5.99 5.67 -6.98 5.34 -8 5 C-8 4.34 -8 3.68 -8 3 C-9.98 3.33 -11.96 3.66 -14 4 C-9.46 -0.68 -6.18 -0.37 0 0 Z " fill="#D7E2F0" transform="translate(75,25)"/>
<path d="M0 0 C0.33 0.99 0.66 1.98 1 3 C4.56 4.19 4.56 4.19 8 5 C8.33 4.01 8.66 3.02 9 2 C9.33 2.66 9.66 3.32 10 4 C10.66 4 11.32 4 12 4 C12.66 3.01 13.32 2.02 14 1 C14.33 1.66 14.66 2.32 15 3 C16.13 3.12 17.27 3.25 18.44 3.38 C19.61 3.58 20.79 3.79 22 4 C23.44 6.06 23.44 6.06 24 8 C22.25 9.12 22.25 9.12 20 10 C19.43 9.7 18.86 9.4 18.28 9.09 C14.36 7.22 10.09 7.53 5.8 7.34 C4.88 7.23 3.95 7.12 3 7 C2.67 6.34 2.34 5.68 2 5 C1.01 5 0.02 5 -1 5 C-0.67 3.35 -0.34 1.7 0 0 Z " fill="#D9E3EE" transform="translate(352,60)"/>
<path d="M0 0 C2.3 1.78 3.8 3.16 4.49 6.05 C4.72 8.02 4.87 10.01 5 12 C5.66 12 6.32 12 7 12 C7.33 14.31 7.66 16.62 8 19 C7.34 19.33 6.68 19.66 6 20 C4.5 18.63 4.5 18.63 3 17 C3 16.34 3 15.68 3 15 C2.01 15.33 1.02 15.66 0 16 C-0.99 13.36 -1.98 10.72 -3 8 C-2.34 7.34 -1.68 6.68 -1 6 C-0.6 4.01 -0.26 2.01 0 0 Z " fill="#CEDCEE" transform="translate(60,29)"/>
<path d="M0 0 C2.35 1.97 3 3 4 6 C6.06 7.19 6.06 7.19 8 8 C8 9.98 8 11.96 8 14 C6.35 14.66 4.7 15.32 3 16 C1.89 12.67 2.16 10.38 3 7 C0 8 0 8 -2 10 C-2.66 9.67 -3.32 9.34 -4 9 C-4.56 7.19 -4.56 7.19 -5 5 C-5.19 4.26 -5.37 3.52 -5.56 2.75 C-5.71 2.17 -5.85 1.59 -6 1 C-3.92 0.45 -2.16 0 0 0 Z " fill="#BED0E7" transform="translate(67,28)"/>
<path d="M0 0 C1.32 0 2.64 0 4 0 C4 0.99 4 1.98 4 3 C5.98 2.67 7.96 2.34 10 2 C10 2.99 10 3.98 10 5 C8.02 5.33 6.04 5.66 4 6 C4.33 7.32 4.66 8.64 5 10 C3.68 9.67 2.36 9.34 1 9 C0.67 9.99 0.34 10.98 0 12 C-1.65 11.67 -3.3 11.34 -5 11 C-5 10.34 -5 9.68 -5 9 C-4.34 9 -3.68 9 -3 9 C-3 7.35 -3 5.7 -3 4 C-2.01 3.67 -1.02 3.34 0 3 C0 2.01 0 1.02 0 0 Z " fill="#ACC6E4" transform="translate(226,39)"/>
<path d="M0 0 C0.83 0.33 0.83 0.33 5 2 C4.67 3.98 4.34 5.96 4 8 C4.66 8.33 5.32 8.66 6 9 C6 8.34 6 7.68 6 7 C6.76 7.17 7.53 7.33 8.31 7.5 C11 8 11 8 14 8 C12.68 10.31 11.36 12.62 10 15 C4.58 14.64 4.58 14.64 2.19 12 C0.62 8.04 0.27 4.23 0 0 Z " fill="#C6D7EA" transform="translate(95,58)"/>
<path d="M0 0 C1.65 0.33 3.3 0.66 5 1 C5 3.31 5 5.62 5 8 C4.34 8 3.68 8 3 8 C2.67 8.66 2.34 9.32 2 10 C2 9.34 2 8.68 2 8 C1.09 8.31 0.18 8.62 -0.75 8.94 C-3.17 9.73 -5.53 10.43 -8 11 C-8.62 8.62 -8.62 8.62 -9 6 C-6.43 3.43 -4.52 3.46 -1 3 C-0.67 2.01 -0.34 1.02 0 0 Z " fill="#CEDCEC" transform="translate(551,45)"/>
<path d="M0 0 C1.65 0.33 3.3 0.66 5 1 C5 1.66 5 2.32 5 3 C6.32 3 7.64 3 9 3 C8.92 3.63 8.83 4.25 8.75 4.9 C8.64 5.72 8.54 6.53 8.44 7.38 C8.33 8.19 8.23 9 8.12 9.84 C8 12 8 12 9 14 C6.69 13.67 4.38 13.34 2 13 C2.33 10.36 2.66 7.72 3 5 C1.68 5 0.36 5 -1 5 C-0.67 3.35 -0.34 1.7 0 0 Z " fill="#C4D6EB" transform="translate(138,34)"/>
<path d="M0 0 C1.32 0.66 2.64 1.32 4 2 C3.01 2.33 2.02 2.66 1 3 C1.33 4.65 1.66 6.3 2 8 C2.72 7.51 3.44 7.01 4.19 6.5 C7.15 4.92 8.71 4.72 12 5 C12 5.66 12 6.32 12 7 C12.66 7.33 13.32 7.66 14 8 C13.67 8.5 13.67 8.5 12 11 C9.84 11.29 9.84 11.29 7.38 11.19 C6.56 11.16 5.74 11.13 4.9 11.11 C4.27 11.07 3.65 11.04 3 11 C3 10.34 3 9.68 3 9 C2.36 8.71 1.72 8.42 1.06 8.12 C-1 7 -1 7 -2 5 C-2.66 5 -3.32 5 -4 5 C-4 4.01 -4 3.02 -4 2 C-2.68 2 -1.36 2 0 2 C0 1.34 0 0.68 0 0 Z " fill="#B7CEE7" transform="translate(541,48)"/>
<path d="M0 0 C0.66 0 1.32 0 2 0 C2.33 2.97 2.66 5.94 3 9 C0.03 9 -2.94 9 -6 9 C-6.66 10.32 -7.32 11.64 -8 13 C-8.33 12.01 -8.66 11.02 -9 10 C-9.99 11.32 -10.98 12.64 -12 14 C-12.66 13.67 -13.32 13.34 -14 13 C-13.01 10.36 -12.02 7.72 -11 5 C-10.34 5 -9.68 5 -9 5 C-9 5.66 -9 6.32 -9 7 C-8.01 7 -7.02 7 -6 7 C-6 6.01 -6 5.02 -6 4 C-4.35 4 -2.7 4 -1 4 C-0.67 2.68 -0.34 1.36 0 0 Z " fill="#C6D7EA" transform="translate(85,42)"/>
<path d="M0 0 C1 2 1 2 0.44 4.16 C0.15 4.98 -0.14 5.79 -0.44 6.62 C-0.72 7.44 -1.01 8.26 -1.31 9.1 C-1.54 9.73 -1.76 10.35 -2 11 C-1.34 11 -0.68 11 0 11 C0 11.99 0 12.98 0 14 C-0.64 14.12 -1.28 14.25 -1.94 14.38 C-2.62 14.58 -3.3 14.79 -4 15 C-4.33 15.66 -4.66 16.32 -5 17 C-6.65 16.67 -8.3 16.34 -10 16 C-9.67 15.01 -9.34 14.02 -9 13 C-9.66 13 -10.32 13 -11 13 C-11 12.34 -11 11.68 -11 11 C-9.34 9.98 -7.68 8.98 -6 8 C-5.67 7.34 -5.34 6.68 -5 6 C-4.34 6 -3.68 6 -3 6 C-2.69 5.2 -2.38 4.39 -2.06 3.56 C-1 1 -1 1 0 0 Z " fill="#96B9E0" transform="translate(263,32)"/>
<path d="M0 0 C0 0.99 0 1.98 0 3 C-1.65 2.67 -3.3 2.34 -5 2 C-4.67 4.31 -4.34 6.62 -4 9 C-4.66 9 -5.32 9 -6 9 C-6 9.66 -6 10.32 -6 11 C-7.32 11 -8.64 11 -10 11 C-10.31 9.91 -10.62 8.81 -10.94 7.69 C-11.58 5.45 -12.26 3.21 -13 1 C-11.68 1 -10.36 1 -9 1 C-8.17 0.65 -7.35 0.3 -6.5 -0.06 C-3.76 -1.09 -2.69 -1 0 0 Z " fill="#E1E7F0" transform="translate(584,52)"/>
<path d="M0 0 C0.33 0.99 0.66 1.98 1 3 C1.66 3.33 2.32 3.66 3 4 C2.34 4 1.68 4 1 4 C1.02 4.8 1.04 5.61 1.06 6.44 C1 9 1 9 0 10 C-1.67 10.04 -3.33 10.04 -5 10 C-5.33 9.34 -5.66 8.68 -6 8 C-6.33 9.98 -6.66 11.96 -7 14 C-7.66 14 -8.32 14 -9 14 C-9.75 11.25 -9.75 11.25 -10 8 C-8.12 5.75 -8.12 5.75 -6 4 C-5.67 3.34 -5.34 2.68 -5 2 C-3.35 2 -1.7 2 0 2 C0 1.34 0 0.68 0 0 Z " fill="#CDDBEB" transform="translate(247,33)"/>
<path d="M0 0 C0.66 0.99 1.32 1.98 2 3 C2.66 3 3.32 3 4 3 C4.33 2.34 4.66 1.68 5 1 C5 4.3 5 7.6 5 11 C4.67 11.16 4.67 11.16 3 12 C2.38 14.56 2.38 14.56 2 17 C1.01 16.67 0.02 16.34 -1 16 C-0.34 16 0.32 16 1 16 C1 15.34 1 14.68 1 14 C0.01 14 -0.98 14 -2 14 C-2.69 11.19 -2.69 11.19 -3 8 C-1.56 6.44 -1.56 6.44 0 5 C0.19 2.31 0.19 2.31 0 0 Z " fill="#D4E1EF" transform="translate(221,31)"/>
<path d="M0 0 C0.99 0.66 1.98 1.32 3 2 C1 5 1 5 -1 7 C-1.33 7.99 -1.66 8.98 -2 10 C-2.99 10 -3.98 10 -5 10 C-5 9.34 -5 8.68 -5 8 C-8.75 6.88 -8.75 6.88 -11 8 C-10.63 5.33 -10.18 4.18 -8.25 2.25 C-5.61 0.78 -3.97 0.84 -1 1 C-0.67 0.67 -0.34 0.34 0 0 Z " fill="#E9EEF4" transform="translate(534,38)"/>
<path d="M0 0 C0 1.65 0 3.3 0 5 C-2.76 4.48 -5.33 3.89 -8 3 C-7.67 3.49 -7.67 3.49 -6 6 C-6.38 8.19 -6.38 8.19 -7 10 C-9.04 8.73 -11.04 7.39 -13 6 C-13 5.34 -13 4.68 -13 4 C-12.34 4 -11.68 4 -11 4 C-11.33 3.01 -11.66 2.02 -12 1 C-7.59 -0.47 -4.52 -1.37 0 0 Z " fill="#DDE6F1" transform="translate(137,60)"/>
<path d="M0 0 C0.33 0.66 0.66 1.32 1 2 C1.99 2 2.98 2 4 2 C4.33 3.98 4.66 5.96 5 8 C6.98 7.67 8.96 7.34 11 7 C11 7.66 11 8.32 11 9 C11.99 9.33 12.98 9.66 14 10 C10.58 10.78 7.5 11 4 11 C3.01 11.33 2.02 11.66 1 12 C-1.09 8.6 -1.26 5.96 -1 2 C-0.67 1.34 -0.34 0.68 0 0 Z " fill="#CCDAEC" transform="translate(52,50)"/>
<path d="M0 0 C1.3 2.6 1.53 5.14 2 8 C2.33 8.99 2.66 9.98 3 11 C3.99 10.34 4.98 9.68 6 9 C8.19 9.38 8.19 9.38 10 10 C8.74 12.51 7.5 12.87 5 14 C5 14.99 5 15.98 5 17 C3.06 16.62 3.06 16.62 1 16 C0.67 15.34 0.34 14.68 0 14 C0.66 14 1.32 14 2 14 C0.95 11.38 0.35 10.21 -2.12 8.75 C-2.74 8.5 -3.36 8.26 -4 8 C-3.4 5.65 -2.73 3.31 -2 1 C-1.34 0.67 -0.68 0.34 0 0 Z " fill="#BBCFE8" transform="translate(121,47)"/>
<path d="M0 0 C0.46 0.01 0.46 0.01 2.78 0.04 C3.7 0.04 4.62 0.05 5.56 0.06 C6.27 0.07 6.98 0.09 7.71 0.1 C7.71 1.42 7.71 2.74 7.71 4.1 C8.37 4.1 9.03 4.1 9.71 4.1 C9.71 5.42 9.71 6.74 9.71 8.1 C9.05 8.43 9.05 8.43 5.71 10.1 C5.71 9.11 5.71 8.12 5.71 7.1 C5.05 7.1 4.39 7.1 3.71 7.1 C3.71 5.78 3.71 4.46 3.71 3.1 C2.72 2.77 1.73 2.44 0.71 2.1 C0.38 3.09 0.05 4.08 -0.29 5.1 C-2.35 5.79 -2.35 5.79 -4.29 6.1 C-3.22 0.14 -3.22 0.14 0 0 Z " fill="#E0E7F1" transform="translate(360.28515625,49.90234375)"/>
<path d="M0 0 C0.66 1.98 1.32 3.96 2 6 C3.32 6 4.64 6 6 6 C6.33 7.98 6.66 9.96 7 12 C5.35 12 3.7 12 2 12 C1.67 10.02 1.34 8.04 1 6 C0.34 6 -0.32 6 -1 6 C-1 5.01 -1 4.02 -1 3 C-1.76 2.88 -2.53 2.75 -3.31 2.62 C-6 2 -6 2 -9 0 C-5.52 -1.16 -3.54 -0.71 0 0 Z " fill="#E7ECF3" transform="translate(103,11)"/>
<path d="M0 0 C0.33 0.99 0.66 1.98 1 3 C1.99 2.67 2.98 2.34 4 2 C4.29 2.64 4.58 3.28 4.88 3.94 C6 6 6 6 8 7 C8 7.66 8 8.32 8 9 C8.99 8.67 9.98 8.34 11 8 C13.01 8.28 15.01 8.6 17 9 C17 9.33 17 9.66 17 10 C14.36 10.33 11.72 10.66 9 11 C9 11.66 9 12.32 9 13 C8.01 12.67 7.02 12.34 6 12 C6 11.34 6 10.68 6 10 C5.34 9.67 4.68 9.34 4 9 C4.33 8.34 4.66 7.68 5 7 C3.35 7 1.7 7 0 7 C-0.33 7.66 -0.66 8.32 -1 9 C-1.66 7.35 -2.32 5.7 -3 4 C-2.34 3.67 -1.68 3.34 -1 3 C-0.67 2.01 -0.34 1.02 0 0 Z " fill="#CAD9EB" transform="translate(536,50)"/>
<path d="M0 0 C2.44 1.25 2.44 1.25 5.44 3.25 C4 3.76 2.56 4.25 1.12 4.75 C0.72 4.89 0.72 4.89 -1.3 5.59 C-3.56 6.25 -3.56 6.25 -6.56 6.25 C-6.56 4.6 -6.56 2.95 -6.56 1.25 C-3.97 -0.48 -3.06 -0.9 0 0 Z " fill="#E4EBF3" transform="translate(399.5625,64.75)"/>
<path d="M0 0 C0.99 0.17 0.99 0.17 6 1 C6 1.66 6 2.32 6 3 C4.35 3 2.7 3 1 3 C0.67 2.01 0.34 1.02 0 0 Z " fill="#F0F2F6" transform="translate(290,70)"/>
<path d="M0 0 C1.32 0 2.64 0 4 0 C4 0.66 4 1.32 4 2 C2.35 2 0.7 2 -1 2 C-0.67 1.34 -0.34 0.68 0 0 Z " fill="#EFF2F6" transform="translate(438,63)"/>
<path d="M0 0 C0.99 0.33 1.98 0.66 3 1 C3 1.99 3 2.98 3 4 C2.34 4 1.68 4 1 4 C0.67 2.68 0.34 1.36 0 0 Z " fill="#F2F4F7" transform="translate(74,70)"/>
<path d="M0 0 C1.65 0 3.3 0 5 0 C5 0.33 5 0.66 5 1 C3.35 1 1.7 1 0 1 C0 0.67 0 0.34 0 0 Z " fill="#F2F4F8" transform="translate(136,73)"/>
<path d="M0 0 C4 1 4 1 4 1 Z " fill="#F2F7F9" transform="translate(433,0)"/>
<path d="M0 0 C0.33 0.17 0.33 0.17 2 1 C1.67 1.17 1.67 1.17 0 2 C0 1.34 0 0.68 0 0 Z " fill="#F3F5F7" transform="translate(70,70)"/>
<path d="" fill="#F3F4F7" transform="translate(0,0)"/>
<path d="M0 0 C2 1 2 1 2 1 Z " fill="#F4F4F6" transform="translate(564,48)"/>
<path d="" fill="#F2F3F4" transform="translate(0,0)"/>
<path d="" fill="#F4F5F8" transform="translate(0,0)"/>
<path d="" fill="#F4F7F9" transform="translate(0,0)"/>
<path d="" fill="#F3F4F6" transform="translate(0,0)"/>
<path d="" fill="#F4F4F5" transform="translate(0,0)"/>
<path d="" fill="#F8F5F4" transform="translate(0,0)"/>
<path d="" fill="#F4F4F7" transform="translate(0,0)"/>
<path d="" fill="#F8F7F4" transform="translate(0,0)"/>
<path d="" fill="#F6F5F4" transform="translate(0,0)"/>
<path d="" fill="#F4F4F7" transform="translate(0,0)"/>
</svg>
