<?xml version="1.0" encoding="UTF-8"?>
<!-- Generator: visioncortex VTracer 0.6.12 -->
<svg version="1.1" xmlns="http://www.w3.org/2000/svg" width="160" height="174">
<path d="M0 0 C0.99 0 1.98 0 3 0 C3.16 0.99 3.16 0.99 4 6 C5.32 6.33 6.64 6.66 8 7 C8 10 8 10 6 13 C7.65 13.33 9.3 13.66 11 14 C11.55 16.08 12 17.84 12 20 C12.6 19.5 13.2 19.01 13.81 18.5 C16 17 16 17 19 17 C19.12 16.46 19.25 15.93 19.38 15.38 C20.12 12.54 21.05 9.78 22 7 C22.99 7 23.98 7 25 7 C25.29 7.97 25.58 8.94 25.88 9.94 C27 13 27 13 29 14 C28.67 15.32 28.34 16.64 28 18 C29.32 18.66 30.64 19.32 32 20 C31.84 20.82 31.84 20.82 31 25 C33.31 24.67 35.62 24.34 38 24 C38.16 24.83 38.16 24.83 39 29 C39.55 28.98 39.55 28.98 42.36 28.89 C43.82 28.87 45.29 28.84 46.75 28.81 C47.48 28.79 48.21 28.76 48.96 28.74 C53.35 28.68 55.8 28.94 59 32 C59.45 32.26 59.45 32.26 61.75 33.56 C62.12 33.8 62.12 33.8 64 35 C64 35.66 64 36.32 64 37 C64.74 37.1 65.49 37.21 66.25 37.31 C69.17 38.04 70.73 39.07 73 41 C72.51 47.05 72.51 47.05 72 49 C71.01 49.66 70.02 50.32 69 51 C68.16 53.64 68.16 53.64 67.5 56.81 C66.61 61.09 65.67 64.49 63 68 C60.81 68.81 60.81 68.81 59 69 C58.9 69.92 58.8 70.84 58.7 71.78 C57.92 78.17 57.2 83.64 53.95 89.25 C52.44 92.04 51.77 94.93 51 98 C50.01 98 49.02 98 48 98 C47.67 96.52 47.67 96.52 46 89 C43.12 91.88 42.6 95.41 41.56 99.25 C40.14 104.48 38.62 109.21 36 114 C34.68 114 33.36 114 32 114 C31.34 112.68 30.68 111.36 30 110 C29.34 111.65 28.68 113.3 28 115 C28.63 115.04 29.25 115.07 29.9 115.11 C30.72 115.18 31.53 115.24 32.38 115.31 C33.19 115.37 34 115.43 34.84 115.49 C37 116 37 116 39 119 C38.9 118.45 38.9 118.45 38.38 115.69 C38 112 38 112 40 109 C41.65 109.33 43.3 109.66 45 110 C45.09 109.68 45.09 109.68 45.56 108.06 C47 106 47 106 50.25 105.06 C54.45 104.99 56.49 105.75 60 108 C61.52 111.04 61.24 113.65 61 117 C60.01 117.66 59.02 118.32 58 119 C58.33 119.99 58.66 120.98 59 122 C59.82 121.84 59.82 121.84 64 121 C63.43 124.96 62.42 127.8 60 131 C57.06 132.54 55.33 133 52 133 C51.67 132.34 51.34 131.68 51 131 C48.36 131 45.72 131 43 131 C42.92 131.6 42.83 132.2 42.75 132.81 C41.79 135.6 40.35 136.33 38 138 C38 138.66 38 139.32 38 140 C32.38 142.12 32.38 142.12 29 141 C28.13 141.45 27.27 141.91 26.38 142.38 C21.39 144.77 16.47 145 11 145 C11.66 145.33 12.32 145.66 13 146 C13 146.66 13 147.32 13 148 C13.66 147.67 14.32 147.34 15 147 C17.67 146.87 20.32 146.96 23 147 C23 148.32 23 149.64 23 151 C20.25 151.92 18.64 152.11 15.81 152.06 C14.55 152.04 13.3 152.02 12 152 C12 151.01 12 150.02 12 149 C9.36 149.99 6.72 150.98 4 152 C4.33 152.99 4.66 153.98 5 155 C3.42 155.05 1.83 155.09 0.25 155.12 C-0.63 155.15 -1.51 155.17 -2.42 155.2 C-5.11 154.99 -6.7 154.37 -9 153 C-9 152.67 -9 152.34 -9 152 C-7.87 152.02 -6.73 152.04 -5.56 152.06 C-2 152 -2 152 -1 151 C-2.32 151 -3.64 151 -5 151 C-5 150.34 -5 149.68 -5 149 C-5.7 149.05 -6.4 149.09 -7.12 149.14 C-14 149.4 -18.11 148.56 -24 145 C-24 144.34 -24 143.68 -24 143 C-23.01 143 -22.02 143 -21 143 C-23.82 141.01 -25.43 140 -28.94 140 C-32.7 140 -34.81 138.93 -38 137 C-38.16 136.67 -38.16 136.67 -39 135 C-41.32 134.59 -43.66 134.26 -46 134 C-45.84 134.66 -45.84 134.66 -45 138 C-46.63 138.69 -46.63 138.69 -49 139 C-52.25 137.56 -52.25 137.56 -55 136 C-55 135.34 -55 134.68 -55 134 C-53.35 134 -51.7 134 -50 134 C-50 133.01 -50 132.02 -50 131 C-49.01 131 -48.02 131 -47 131 C-47 130.01 -47 129.02 -47 128 C-48.98 127.67 -50.96 127.34 -53 127 C-53 127.66 -53 128.32 -53 129 C-59.52 128.38 -59.52 128.38 -61.94 126.44 C-62.29 125.96 -62.64 125.49 -63 125 C-63.5 125.16 -63.5 125.16 -66 126 C-66.66 125.67 -67.32 125.34 -68 125 C-68 124.01 -68 123.02 -68 122 C-66.71 121.3 -65.42 120.62 -64.12 119.94 C-63.41 119.55 -62.69 119.17 -61.95 118.78 C-61.3 118.52 -60.66 118.26 -60 118 C-59.34 118.33 -58.68 118.66 -58 119 C-58 119.66 -58 120.32 -58 121 C-57.67 120.84 -57.67 120.84 -56 120 C-56 118.68 -56 117.36 -56 116 C-55.34 115.84 -55.34 115.84 -52 115 C-52 114.34 -52 113.68 -52 113 C-53.65 112.67 -55.3 112.34 -57 112 C-57.75 110.31 -57.75 110.31 -58 108 C-55.98 104.32 -53.93 102.68 -50 101.44 C-47.9 101.02 -47.9 101.02 -46 101 C-42.95 103.11 -42.17 104.49 -41 108 C-40.17 107.84 -40.17 107.84 -36 107 C-35.34 108.98 -34.68 110.96 -34 113 C-33.09 112.69 -32.19 112.38 -31.25 112.06 C-28.83 111.27 -26.47 110.57 -24 110 C-24.6 107.98 -25.27 105.98 -26 104 C-26.33 103.84 -26.33 103.84 -28 103 C-28.33 104.65 -28.66 106.3 -29 108 C-29.99 108.33 -30.98 108.66 -32 109 C-32.25 108.38 -32.49 107.76 -32.75 107.12 C-34 105 -34 105 -35.94 104.25 C-39.35 102.18 -40.08 98.69 -41 95 C-41.34 92.45 -41.56 89.9 -41.76 87.34 C-42.07 84.32 -42.76 81.76 -44 79 C-44.49 78.67 -44.49 78.67 -47 77 C-47.33 81.29 -47.66 85.58 -48 90 C-48.66 90 -49.32 90 -50 90 C-51.5 84.37 -52 79.87 -52 74 C-52.99 73.67 -53.98 73.34 -55 73 C-57.03 69.26 -57.09 66.19 -57 62 C-58 60 -58 60 -59.97 59.15 C-62 58 -62 58 -62.93 55.94 C-63.1 55.16 -63.27 54.37 -63.44 53.56 C-63.62 52.78 -63.81 52 -64 51.19 C-64 49 -64 49 -62.73 47.26 C-60.29 45.49 -57.95 45.33 -55 45 C-55 44.01 -55 43.02 -55 42 C-53.52 41.84 -53.52 41.84 -46 41 C-45.73 40.22 -45.46 39.43 -45.19 38.62 C-44 36 -44 36 -41 34 C-39.05 33.69 -39.05 33.69 -36.88 33.56 C-32.56 33.19 -28.88 32.07 -24.85 30.52 C-23 30 -23 30 -21 31 C-21 30.01 -21 29.02 -21 28 C-21.29 28.11 -21.29 28.11 -22.75 28.69 C-25 29 -25 29 -27.25 27.88 C-29 26 -29 26 -29.25 23.31 C-29.17 22.55 -29.09 21.79 -29 21 C-27.68 20.34 -26.36 19.68 -25 19 C-25 17.35 -25 15.7 -25 14 C-24.01 14 -23.02 14 -22 14 C-21.67 13.01 -21.34 12.02 -21 11 C-20.17 11.16 -20.17 11.16 -16 12 C-16 12.99 -16 13.98 -16 15 C-15.68 15.05 -15.68 15.05 -14.06 15.31 C-13.38 15.54 -12.7 15.77 -12 16 C-11.84 16.49 -11.84 16.49 -11 19 C-11.99 19.99 -12.98 20.98 -14 22 C-12.25 23.12 -12.25 23.12 -10 24 C-7.75 23.12 -7.75 23.12 -6 22 C-6.34 21.71 -6.34 21.71 -8.06 20.25 C-8.7 19.51 -9.34 18.77 -10 18 C-9.75 15.75 -9.75 15.75 -9 14 C-8.2 13.88 -7.39 13.75 -6.56 13.62 C-5.72 13.42 -4.87 13.21 -4 13 C-3.67 12.34 -3.34 11.68 -3 11 C-3.99 10.67 -4.98 10.34 -6 10 C-5.67 8.68 -5.34 7.36 -5 6 C-3.68 6 -2.36 6 -1 6 C-0.67 4.02 -0.34 2.04 0 0 Z M8 22 C7.34 22.66 6.68 23.32 6 24 C7.65 24 9.3 24 11 24 C11 23.34 11 22.68 11 22 C10.01 22 9.02 22 8 22 Z M8 103 C9 107 9 107 9 107 Z M-37 114 C-37 114.66 -37 115.32 -37 116 C-36.34 116 -35.68 116 -35 116 C-35 115.34 -35 114.68 -35 114 C-35.66 114 -36.32 114 -37 114 Z M-4 123 C-4.33 123.99 -4.66 124.98 -5 126 C-5.33 126.66 -5.66 127.32 -6 128 C-5.01 128.16 -5.01 128.16 0 129 C-0.5 128.01 -0.5 128.01 -3 123 C-3.33 123 -3.66 123 -4 123 Z M2 124 C1.67 125.32 1.34 126.64 1 128 C2.98 128 4.96 128 7 128 C6.36 127.71 5.72 127.42 5.06 127.12 C3 126 3 126 2 124 Z M-22 129 C-22.33 129.66 -22.66 130.32 -23 131 C-22.34 131 -21.68 131 -21 131 C-21.33 130.34 -21.66 129.68 -22 129 Z M2 131 C2 131.33 2 131.66 2 132 C3.65 132 5.3 132 7 132 C7 131.67 7 131.34 7 131 C5.35 131 3.7 131 2 131 Z M25 131 C25 132.65 25 134.3 25 136 C25.66 136 26.32 136 27 136 C27 134.35 27 132.7 27 131 C26.34 131 25.68 131 25 131 Z M-30 132 C-26 133 -26 133 -26 133 Z M8 134 C12 135 12 135 12 135 Z M-1 137 C-1.66 137.66 -2.32 138.32 -3 139 C-2.01 139 -1.02 139 0 139 C-0.33 138.34 -0.66 137.68 -1 137 Z " fill="#AB9E79" transform="translate(78,10)"/>
<path d="M0 0 C3.95 -0.5 6.61 -0.09 10 2 C10 2.66 10 3.32 10 4 C12.81 3.83 12.81 3.83 27 3 C26.34 3.66 25.68 4.32 25 5 C25.52 4.83 26.03 4.67 26.56 4.5 C29.73 3.85 32.77 3.94 36 4 C36 4.66 36 5.32 36 6 C35.34 6 34.68 6 34 6 C32.29 9.02 31.68 11.43 31.4 14.88 C31.32 15.8 31.24 16.72 31.16 17.67 C31.09 18.62 31.01 19.58 30.94 20.56 C30.78 22.46 30.63 24.36 30.46 26.25 C30.4 27.09 30.33 27.93 30.27 28.8 C30 31 30 31 29 34 C29.99 34 30.98 34 32 34 C33.11 37.56 33.1 40.84 33.06 44.56 C33.05 45.83 33.05 47.1 33.04 48.42 C33.02 50.43 33 52.44 32.98 54.45 C32.96 56.4 32.95 58.36 32.94 60.31 C32.93 61.47 32.91 62.64 32.9 63.83 C32.99 66.69 33.34 69.23 34 72 C34.99 71.67 35.98 71.34 37 71 C37 71.66 37 72.32 37 73 C41.42 72.15 43.49 71.63 46.38 68.06 C48 65 48 65 49 62 C48.34 62 47.68 62 47 62 C46.67 61.34 46.34 60.68 46 60 C44.35 60.33 42.7 60.66 41 61 C42.2 58.51 43.45 56.32 45 54 C46.32 54 47.64 54 49 54 C49.33 53.67 49.33 53.67 51 52 C51 52.66 51 53.32 51 54 C51.66 54 52.32 54 53 54 C52.34 56.31 51.68 58.62 51 61 C51.63 61.04 52.25 61.07 52.9 61.11 C53.72 61.18 54.53 61.24 55.38 61.31 C55.78 61.34 55.78 61.34 57.84 61.49 C60 62 60 62 62 65 C61.9 64.45 61.9 64.45 61.38 61.69 C61 58 61 58 63 55 C64.65 55.33 66.3 55.66 68 56 C68.09 55.68 68.09 55.68 68.56 54.06 C70 52 70 52 73.25 51.06 C77.45 50.99 79.49 51.75 83 54 C84.52 57.04 84.24 59.65 84 63 C83.01 63.66 82.02 64.32 81 65 C81.33 65.99 81.66 66.98 82 68 C82.82 67.84 82.82 67.84 87 67 C86.43 70.96 85.42 73.8 83 77 C80.06 78.54 78.33 79 75 79 C74.67 78.34 74.34 77.68 74 77 C71.36 77 68.72 77 66 77 C65.92 77.6 65.83 78.2 65.75 78.81 C64.79 81.6 63.35 82.33 61 84 C61 84.66 61 85.32 61 86 C55.38 88.12 55.38 88.12 52 87 C51.13 87.45 50.27 87.91 49.38 88.38 C44.39 90.77 39.47 91 34 91 C34.66 91.33 35.32 91.66 36 92 C36 92.66 36 93.32 36 94 C36.66 93.67 37.32 93.34 38 93 C40.67 92.87 43.32 92.96 46 93 C46 94.32 46 95.64 46 97 C43.25 97.92 41.64 98.11 38.81 98.06 C37.55 98.04 36.3 98.02 35 98 C35 97.01 35 96.02 35 95 C32.36 95.99 29.72 96.98 27 98 C27.33 98.99 27.66 99.98 28 101 C26.42 101.05 24.83 101.09 23.25 101.12 C22.37 101.15 21.49 101.17 20.58 101.2 C17.89 100.99 16.3 100.37 14 99 C14 98.67 14 98.34 14 98 C15.13 98.02 16.27 98.04 17.44 98.06 C21 98 21 98 22 97 C20.68 97 19.36 97 18 97 C18 96.34 18 95.68 18 95 C17.3 95.05 16.6 95.09 15.88 95.14 C9 95.4 4.89 94.56 -1 91 C-1 90.34 -1 89.68 -1 89 C-0.01 89 0.98 89 2 89 C-0.82 87.01 -2.43 86 -5.94 86 C-9.7 86 -11.81 84.93 -15 83 C-15.16 82.67 -15.16 82.67 -16 81 C-18.32 80.59 -20.66 80.26 -23 80 C-22.67 81.32 -22.34 82.64 -22 84 C-23.62 84.69 -23.62 84.69 -26 85 C-29.25 83.56 -29.25 83.56 -32 82 C-32 81.34 -32 80.68 -32 80 C-30.35 80 -28.7 80 -27 80 C-27 79.01 -27 78.02 -27 77 C-26.01 77 -25.02 77 -24 77 C-24 76.01 -24 75.02 -24 74 C-25.98 73.67 -27.96 73.34 -30 73 C-30 73.66 -30 74.32 -30 75 C-36.52 74.38 -36.52 74.38 -38.94 72.44 C-39.29 71.96 -39.64 71.49 -40 71 C-40.5 71.16 -40.5 71.16 -43 72 C-43.66 71.67 -44.32 71.34 -45 71 C-45 70.01 -45 69.02 -45 68 C-43.71 67.3 -42.42 66.62 -41.12 65.94 C-40.41 65.55 -39.69 65.17 -38.95 64.78 C-38.3 64.52 -37.66 64.26 -37 64 C-36.34 64.33 -35.68 64.66 -35 65 C-35 65.66 -35 66.32 -35 67 C-34.67 66.84 -34.67 66.84 -33 66 C-33 64.68 -33 63.36 -33 62 C-32.34 61.84 -32.34 61.84 -29 61 C-29 60.34 -29 59.68 -29 59 C-30.65 58.67 -32.3 58.34 -34 58 C-34.75 56.31 -34.75 56.31 -35 54 C-32.98 50.32 -30.93 48.68 -27 47.44 C-24.9 47.02 -24.9 47.02 -23 47 C-19.95 49.11 -19.17 50.49 -18 54 C-17.17 53.84 -17.17 53.84 -13 53 C-12.34 54.98 -11.68 56.96 -11 59 C-10.09 58.69 -9.19 58.38 -8.25 58.06 C-5.83 57.27 -3.47 56.57 -1 56 C-1.6 53.98 -2.27 51.98 -3 50 C-3.33 49.84 -3.33 49.84 -5 49 C-5.33 50.65 -5.66 52.3 -6 54 C-6.99 54.33 -7.98 54.66 -9 55 C-9.25 54.38 -9.49 53.76 -9.75 53.12 C-11 51 -11 51 -12.94 50.25 C-16.35 48.18 -17.08 44.69 -18 41 C-18.36 38.33 -18.62 35.69 -18.79 33 C-19 31 -19 31 -20 30 C-20.04 28.33 -20.04 26.67 -20 25 C-19.67 25.99 -19.34 26.98 -19 28 C-18.01 28 -17.02 28 -16 28 C-16 28.66 -16 29.32 -16 30 C-15.34 30 -14.68 30 -14 30 C-13.67 33.96 -13.34 37.92 -13 42 C-12.34 42 -11.68 42 -11 42 C-11 43.32 -11 44.64 -11 46 C-10.34 46 -9.68 46 -9 46 C-9.33 45.34 -9.66 44.68 -10 44 C-10.04 42 -10.04 40 -10 38 C-9.34 37.84 -9.34 37.84 -6 37 C-6 38.65 -6 40.3 -6 42 C-4.68 42.66 -3.36 43.32 -2 44 C-2 44.66 -2 45.32 -2 46 C-3.65 45.67 -5.3 45.34 -7 45 C-6.67 45.66 -6.34 46.32 -6 47 C-5.26 47 -4.52 47 -3.75 47 C-1.5 47 0.75 47 3 47 C3.16 47.99 3.16 47.99 4 53 C3.34 53 2.68 53 2 53 C2 53.66 2 54.32 2 55 C3.65 55.66 5.3 56.32 7 57 C7.66 55.68 8.32 54.36 9 53 C10.32 53 11.64 53 13 53 C12.99 52.34 12.99 51.68 12.98 51.01 C12.89 36.96 13.06 23.01 14 9 C11.36 9 8.72 9 6 9 C6.33 8.01 6.66 7.02 7 6 C7.66 6 8.32 6 9 6 C9 5.34 9 4.68 9 4 C7.89 4.02 6.77 4.04 5.62 4.06 C2 4 2 4 0 3 C0 3.99 0 4.98 0 6 C-0.8 6.27 -1.61 6.54 -2.44 6.81 C-3.28 7.2 -4.13 7.6 -5 8 C-5.33 8.99 -5.66 9.98 -6 11 C-6.66 11 -7.32 11 -8 11 C-8.66 9.02 -9.32 7.04 -10 5 C-8.91 4.92 -7.81 4.83 -6.69 4.75 C-2.41 3.88 -2.42 3.26 0 0 Z M31 49 C32 53 32 53 32 53 Z M-14 60 C-14 60.66 -14 61.32 -14 62 C-13.34 62 -12.68 62 -12 62 C-12 61.34 -12 60.68 -12 60 C-12.66 60 -13.32 60 -14 60 Z M19 69 C18.67 69.99 18.34 70.98 18 72 C17.67 72.66 17.34 73.32 17 74 C17.99 74.17 17.99 74.17 23 75 C22.5 74.01 22.5 74.01 20 69 C19.67 69 19.34 69 19 69 Z M25 70 C24.67 71.32 24.34 72.64 24 74 C25.98 74 27.96 74 30 74 C29.36 73.71 28.72 73.42 28.06 73.12 C26 72 26 72 25 70 Z M1 75 C0.67 75.66 0.34 76.32 0 77 C0.66 77 1.32 77 2 77 C1.67 76.34 1.34 75.68 1 75 Z M25 77 C25 77.33 25 77.66 25 78 C26.65 78 28.3 78 30 78 C30 77.67 30 77.34 30 77 C28.35 77 26.7 77 25 77 Z M48 77 C48 78.65 48 80.3 48 82 C48.66 82 49.32 82 50 82 C50 80.35 50 78.7 50 77 C49.34 77 48.68 77 48 77 Z M-7 78 C-3 79 -3 79 -3 79 Z M31 80 C35 81 35 81 35 81 Z M22 83 C21.34 83.66 20.68 84.32 20 85 C20.99 85 21.98 85 23 85 C22.67 84.34 22.34 83.68 22 83 Z " fill="#BFD2E8" transform="translate(55,64)"/>
<path d="M0 0 C0.99 0 1.98 0 3 0 C3.16 0.83 3.16 0.83 4 5 C4.55 4.98 4.55 4.98 7.36 4.89 C8.82 4.87 10.29 4.84 11.75 4.81 C12.11 4.8 12.11 4.8 13.96 4.74 C18.35 4.68 20.8 4.94 24 8 C24.45 8.26 24.45 8.26 26.75 9.56 C27.49 10.04 28.24 10.51 29 11 C29 11.66 29 12.32 29 13 C29.37 13.05 29.37 13.05 31.25 13.31 C34.17 14.04 35.73 15.07 38 17 C37.51 23.05 37.51 23.05 37 25 C36.01 25.66 35.02 26.32 34 27 C33.16 29.64 33.16 29.64 32.5 32.81 C31.61 37.09 30.67 40.49 28 44 C25.81 44.81 25.81 44.81 24 45 C23.9 45.92 23.8 46.84 23.7 47.78 C22.92 54.17 22.2 59.64 18.95 65.25 C17.44 68.04 16.77 70.93 16 74 C15.01 74 14.02 74 13 74 C12.67 72.52 12.67 72.52 11 65 C8.12 67.88 7.6 71.41 6.56 75.25 C5.14 80.48 3.62 85.21 1 90 C-0.32 90 -1.64 90 -3 90 C-3.66 87.69 -4.32 85.38 -5 83 C-4.17 82.67 -4.17 82.67 0 81 C-0.06 79.8 -0.12 78.61 -0.19 77.38 C-0.21 73.22 1.04 70.67 3 67 C3.19 64.12 3.19 64.12 3 62 C3.99 61.67 4.98 61.34 6 61 C5.67 59.35 5.34 57.7 5 56 C2.56 56.38 2.56 56.38 0 57 C-0.16 57.33 -0.16 57.33 -1 59 C-1.66 59 -2.32 59 -3 59 C-2.95 59.56 -2.91 60.11 -2.86 60.69 C-2.56 66.95 -3.86 70.59 -7 76 C-7.66 76 -8.32 76 -9 76 C-8.85 75.01 -8.85 75.01 -8.12 70.04 C-8 68 -8 68 -9 65 C-8.34 65 -7.68 65 -7 65 C-7.33 64.34 -7.66 63.68 -8 63 C-8.23 56.47 -8.23 56.47 -7 54 C-6.01 54 -5.02 54 -4 54 C-3.84 52.35 -3.84 52.35 -3 44 C-2.34 44 -1.68 44 -1 44 C-1 47.63 -1 51.26 -1 55 C2.04 51.96 2.6 50.79 3.69 46.81 C3.81 46.36 3.81 46.36 4.45 44.08 C4.63 43.39 4.81 42.71 5 42 C5.66 42 6.32 42 7 42 C7 45.63 7 49.26 7 53 C7.5 53.16 7.5 53.16 10 54 C10.66 52.35 11.32 50.7 12 49 C12.66 49 13.32 49 14 49 C14 47.68 14 46.36 14 45 C13.34 45 12.68 45 12 45 C11.67 43.35 11.34 41.7 11 40 C12.98 40.33 14.96 40.66 17 41 C16.67 40.01 16.67 40.01 15 35 C15.66 34.67 16.32 34.34 17 34 C17.33 33.01 17.66 32.02 18 31 C14.37 31 10.74 31 7 31 C7 30.34 7 29.68 7 29 C7.66 29 8.32 29 9 29 C9 26.69 9 24.38 9 22 C7.68 22 6.36 22 5 22 C5 22.66 5 23.32 5 24 C3.68 23.34 2.36 22.68 1 22 C1 21.34 1 20.68 1 20 C0.34 20 -0.32 20 -1 20 C-1 20.99 -1 21.98 -1 23 C-10.39 23.1 -19.66 23.13 -29 22 C-29.33 22.99 -29.66 23.98 -30 25 C-32.64 25 -35.28 25 -38 25 C-38.33 25.99 -38.66 26.98 -39 28 C-40.65 28.16 -40.65 28.16 -49 29 C-49.33 28.01 -49.66 27.02 -50 26 C-51.85 25.27 -51.85 25.27 -54.06 24.81 C-54.43 24.73 -54.43 24.73 -56.29 24.33 C-56.57 24.28 -56.57 24.28 -58 24 C-58 23.34 -58 22.68 -58 22 C-53.71 22 -49.42 22 -45 22 C-45 21.34 -45 20.68 -45 20 C-44.49 20.02 -44.49 20.02 -41.89 20.11 C-33.42 20.3 -26.08 19.88 -18 17 C-18 16.34 -18 15.68 -18 15 C-15.95 15.29 -13.9 15.59 -11.85 15.88 C-11.54 15.9 -11.54 15.9 -10 16 C-9.67 15.67 -9.34 15.34 -9 15 C-7.48 14.93 -5.96 14.92 -4.44 14.94 C-3.61 14.95 -2.78 14.96 -1.93 14.96 C-1.3 14.98 -0.66 14.99 0 15 C-0.16 14.34 -0.16 14.34 -1 11 C-0.34 11 0.32 11 1 11 C1 10.34 1 9.68 1 9 C-0.98 9.66 -2.96 10.32 -5 11 C-5.66 10.34 -6.32 9.68 -7 9 C-4.03 7.68 -1.06 6.36 2 5 C1.84 4.67 1.84 4.67 1 3 C1.33 2.34 1.66 1.68 2 1 C1.34 0.67 0.68 0.34 0 0 Z " fill="#C7AE5F" transform="translate(113,34)"/>
<path d="M0 0 C1.98 0 3.96 0 6 0 C6.66 1.98 7.32 3.96 8 6 C9.77 6.03 11.54 6.05 13.31 6.06 C14.3 6.07 15.28 6.09 16.3 6.1 C19 6 19 6 22 5 C24.33 4.96 26.67 4.96 29 5 C29.33 5.99 29.66 6.98 30 8 C26.04 8 22.08 8 18 8 C18 8.66 18 9.32 18 10 C17.34 10.66 16.68 11.32 16 12 C16.35 12.02 16.35 12.02 18.12 12.15 C19.03 12.22 19.94 12.3 20.88 12.38 C21.78 12.44 22.68 12.51 23.62 12.59 C26 13 26 13 28 15 C28 15.99 28 16.98 28 18 C28.66 18 29.32 18 30 18 C30.33 16.68 30.66 15.36 31 14 C32.65 13.67 34.3 13.34 36 13 C36 12.01 36 11.02 36 10 C38.97 10.33 41.94 10.66 45 11 C45 11.66 45 12.32 45 13 C44.34 13.66 43.68 14.32 43 15 C45.31 15.33 47.62 15.66 50 16 C50.16 30.69 49.68 45.32 49 60 C48.2 60.29 47.39 60.58 46.56 60.88 C44 62 44 62 43 64 C41.35 63.34 39.7 62.68 38 62 C38 61.34 38 60.68 38 60 C38.66 60 39.32 60 40 60 C39.34 58.02 38.68 56.04 38 54 C35.36 54.33 32.72 54.66 30 55 C29.67 54.01 29.34 53.02 29 52 C30.65 52.33 32.3 52.66 34 53 C33.67 52.72 33.67 52.72 32 51.31 C30 49 30 49 29.75 46.25 C29.83 45.51 29.91 44.77 30 44 C29.34 44 28.68 44 28 44 C27 50.75 27 50.75 27 53 C26.34 53 25.68 53 25 53 C25 51.68 25 50.36 25 49 C24.34 49 23.68 49 23 49 C21.74 46.48 21.9 44.69 21.94 41.88 C21.95 40.96 21.96 40.05 21.96 39.12 C21.98 38.42 21.99 37.72 22 37 C21.34 37 20.68 37 20 37 C20 36.34 20 35.68 20 35 C19.01 35 18.02 35 17 35 C17 34.01 17 33.02 17 32 C15.35 31.34 13.7 30.68 12 30 C11.67 34.29 11.34 38.58 11 43 C10.34 43 9.68 43 9 43 C7.5 37.37 7 32.87 7 27 C6.01 26.67 5.02 26.34 4 26 C1.97 22.26 1.91 19.19 2 15 C1.67 14.34 1.34 13.68 1 13 C0.01 12.67 -0.98 12.34 -2 12 C-2.12 6.25 -2.12 6.25 -1 4 C-0.01 4 0.98 4 2 4 C2 3.01 2 2.02 2 1 C1.34 0.67 0.68 0.34 0 0 Z " fill="#757571" transform="translate(19,57)"/>
<path d="M0 0 C3.95 -0.5 6.61 -0.09 10 2 C10 2.66 10 3.32 10 4 C12.81 3.83 12.81 3.83 27 3 C26.34 3.66 25.68 4.32 25 5 C25.52 4.83 26.03 4.67 26.56 4.5 C29.73 3.85 32.77 3.94 36 4 C36 4.66 36 5.32 36 6 C35.34 6 34.68 6 34 6 C32.29 9.02 31.68 11.43 31.4 14.88 C31.36 15.34 31.36 15.34 31.16 17.67 C31.13 18.15 31.13 18.15 30.94 20.56 C30.78 22.46 30.63 24.36 30.46 26.25 C30.4 27.09 30.33 27.93 30.27 28.8 C30 31 30 31 29 34 C29.99 34 30.98 34 32 34 C33.2 37.75 33.1 41.33 33.06 45.25 C33.05 46.51 33.04 47.78 33.04 49.08 C33.02 50.04 33.01 51.01 33 52 C32.34 50.68 31.68 49.36 31 48 C30.94 48.45 30.94 48.45 30.63 50.7 C30.55 51.29 30.55 51.29 30.12 54.25 C29.96 55.41 29.8 56.57 29.63 57.77 C29.08 60.58 28.44 62.55 27 65 C26.84 57.28 27.33 49.68 28 42 C27.84 42.33 27.84 42.33 27 44 C26.34 44 25.68 44 25 44 C24.34 48.62 23.68 53.24 23 58 C23.66 58 24.32 58 25 58 C25 61.63 25 65.26 25 69 C24.34 69.16 24.34 69.16 21 70 C19.68 67.36 19.9 65.32 19.94 62.38 C19.95 61.37 19.96 60.37 19.96 59.34 C19.98 58.57 19.99 57.79 20 57 C19.01 57 18.02 57 17 57 C17.04 57.76 17.08 58.53 17.12 59.31 C17 62 17 62 15 65 C14.34 65 13.68 65 13 65 C13 66.98 13 68.96 13 71 C5.13 71.3 5.13 71.3 2 69 C1.28 66.43 1.28 66.43 0.94 63.31 C0.26 58.33 -0.63 54.44 -3 50 C-3.66 49.67 -4.32 49.34 -5 49 C-5.16 49.83 -5.16 49.83 -6 54 C-6.5 54.16 -6.5 54.16 -9 55 C-9.25 54.38 -9.49 53.76 -9.75 53.12 C-11 51 -11 51 -12.94 50.25 C-16.35 48.18 -17.08 44.69 -18 41 C-18.36 38.33 -18.62 35.69 -18.79 33 C-19 31 -19 31 -20 30 C-20.04 28.33 -20.04 26.67 -20 25 C-19.67 25.99 -19.34 26.98 -19 28 C-18.01 28 -17.02 28 -16 28 C-16 28.66 -16 29.32 -16 30 C-15.34 30 -14.68 30 -14 30 C-13.67 33.96 -13.34 37.92 -13 42 C-12.34 42 -11.68 42 -11 42 C-11 43.32 -11 44.64 -11 46 C-10.34 46 -9.68 46 -9 46 C-9.33 45.34 -9.66 44.68 -10 44 C-10.04 42 -10.04 40 -10 38 C-9.34 37.84 -9.34 37.84 -6 37 C-6 38.65 -6 40.3 -6 42 C-4.68 42.66 -3.36 43.32 -2 44 C-2 44.66 -2 45.32 -2 46 C-3.65 45.67 -5.3 45.34 -7 45 C-6.67 45.66 -6.34 46.32 -6 47 C-5.26 47 -4.52 47 -3.75 47 C-1.5 47 0.75 47 3 47 C3.33 48.98 3.66 50.96 4 53 C3.34 53 2.68 53 2 53 C2 53.66 2 54.32 2 55 C3.65 55.66 5.3 56.32 7 57 C7.66 55.68 8.32 54.36 9 53 C10.32 53 11.64 53 13 53 C12.99 52.34 12.99 51.68 12.98 51.01 C12.89 36.96 13.06 23.01 14 9 C11.36 9 8.72 9 6 9 C6.33 8.01 6.66 7.02 7 6 C7.66 6 8.32 6 9 6 C9 5.34 9 4.68 9 4 C7.89 4.02 6.77 4.04 5.62 4.06 C2 4 2 4 0 3 C0 3.99 0 4.98 0 6 C-0.8 6.27 -1.61 6.54 -2.44 6.81 C-3.28 7.2 -4.13 7.6 -5 8 C-5.33 8.99 -5.66 9.98 -6 11 C-6.66 11 -7.32 11 -8 11 C-8.66 9.02 -9.32 7.04 -10 5 C-8.91 4.92 -7.81 4.83 -6.69 4.75 C-2.41 3.88 -2.42 3.26 0 0 Z " fill="#96B7D2" transform="translate(55,64)"/>
<path d="M0 0 C0.81 2.62 0.81 2.62 1 5 C2.98 4.67 4.96 4.34 7 4 C7.66 5.98 8.32 7.96 9 10 C9.87 9.67 10.73 9.34 11.62 9 C15 8 15 8 21 8 C21.16 9.98 21.16 9.98 22 20 C25.3 20.33 28.6 20.66 32 21 C32.33 19.35 32.66 17.7 33 16 C33.66 16 34.32 16 35 16 C35.66 13.36 36.32 10.72 37 8 C37.33 8 37.66 8 38 8 C38 12.62 38 17.24 38 22 C37.34 22 36.68 22 36 22 C36 22.66 36 23.32 36 24 C34.68 24 33.36 24 32 24 C32 24.66 32 25.32 32 26 C33.32 26.66 34.64 27.32 36 28 C35.34 28.99 34.68 29.98 34 31 C36.31 31.66 38.62 32.32 41 33 C41 33.66 41 34.32 41 35 C28.83 38.42 28.83 38.42 24 36 C24 35.34 24 34.68 24 34 C22.02 34 20.04 34 18 34 C18 33.34 18 32.68 18 32 C17.01 31.67 16.02 31.34 15 31 C15.33 30.67 15.66 30.34 16 30 C14.68 29.34 13.36 28.68 12 28 C11.67 28.66 11.34 29.32 11 30 C7.04 30 3.08 30 -1 30 C-1 29.34 -1 28.68 -1 28 C-1.99 28 -2.98 28 -4 28 C-4 27.01 -4 26.02 -4 25 C-5.98 24.67 -7.96 24.34 -10 24 C-10 24.66 -10 25.32 -10 26 C-16.52 25.38 -16.52 25.38 -18.94 23.44 C-19.29 22.96 -19.64 22.49 -20 22 C-20.99 22.33 -21.98 22.66 -23 23 C-23.66 22.67 -24.32 22.34 -25 22 C-25 21.01 -25 20.02 -25 19 C-23.71 18.3 -22.42 17.62 -21.12 16.94 C-20.77 16.75 -20.77 16.75 -18.95 15.78 C-18.3 15.52 -17.66 15.26 -17 15 C-16.34 15.33 -15.68 15.66 -15 16 C-15 16.66 -15 17.32 -15 18 C-14.34 17.67 -13.68 17.34 -13 17 C-13 15.68 -13 14.36 -13 13 C-11.68 12.67 -10.36 12.34 -9 12 C-9 11.34 -9 10.68 -9 10 C-10.65 9.67 -12.3 9.34 -14 9 C-14.75 7.31 -14.75 7.31 -15 5 C-13.05 1.73 -11.49 0.24 -8.06 -1.44 C-4.52 -2.09 -3.01 -1.98 0 0 Z M6 11 C6 11.66 6 12.32 6 13 C6.66 13 7.32 13 8 13 C8 12.34 8 11.68 8 11 C7.34 11 6.68 11 6 11 Z M21 26 C20.67 26.66 20.34 27.32 20 28 C20.66 28 21.32 28 22 28 C21.67 27.34 21.34 26.68 21 26 Z " fill="#BCCFE5" transform="translate(35,113)"/>
<path d="M0 0 C0.33 0 0.66 0 1 0 C2.26 8.66 2.09 17.27 2 26 C3.32 26.33 4.64 26.66 6 27 C6.6 26.17 7.2 25.35 7.81 24.5 C8.53 23.67 9.26 22.85 10 22 C10.99 22 11.98 22 13 22 C12.67 19.69 12.34 17.38 12 15 C10.68 15 9.36 15 8 15 C7.69 15.95 7.38 16.9 7.06 17.88 C6 21 6 21 5 23 C4.34 23 3.68 23 3 23 C3.42 21.54 3.86 20.08 4.31 18.62 C4.56 17.81 4.8 17 5.05 16.16 C6 14 6 14 9 12 C13.75 10.48 18.14 9.43 23 11 C23.33 11.99 23.66 12.98 24 14 C23.67 14.16 23.67 14.16 22 15 C21.34 14.67 20.68 14.34 20 14 C20 17.63 20 21.26 20 25 C19.34 25 18.68 25 18 25 C18.66 25.99 19.32 26.98 20 28 C19.64 30.84 18.91 33.28 18 36 C18.66 36 19.32 36 20 36 C20.31 34.91 20.62 33.81 20.94 32.69 C21.58 30.45 22.26 28.21 23 26 C23.36 23.67 23.69 21.34 24 19 C24.66 19 25.32 19 26 19 C26.33 18.01 26.66 17.02 27 16 C28.66 15.62 30.32 15.29 32 15 C33 16 33 16 33.06 18.56 C33.04 19.37 33.02 20.17 33 21 C32.67 21.16 32.67 21.16 31 22 C30.65 24.33 30.32 26.66 30 29 C29.65 29.64 29.3 30.28 28.94 30.94 C27.44 34.24 27.88 37.4 28 41 C22.98 43.62 19.65 45 14 45 C11.75 48 11.75 48 10 51 C11.65 50.34 13.3 49.68 15 49 C15.33 49.99 15.66 50.98 16 52 C16.66 52 17.32 52 18 52 C17.57 56.91 15.53 59.63 12 63 C8.69 63.38 8.69 63.38 6 63 C6 62.34 6 61.68 6 61 C4.68 61.66 3.36 62.32 2 63 C1.09 58.37 0.87 53.9 0.9 49.2 C0.9 48.47 0.91 47.75 0.91 47 C0.91 44.71 0.92 42.42 0.94 40.12 C0.94 38.56 0.95 37 0.95 35.44 C0.96 31.62 0.98 27.81 1 24 C0.01 24 -0.98 24 -2 24 C-1.34 16.08 -0.68 8.16 0 0 Z " fill="#9297A0" transform="translate(86,74)"/>
<path d="M0 0 C0.99 0 1.98 0 3 0 C3.16 0.99 3.16 0.99 4 6 C5.32 6.33 6.64 6.66 8 7 C8 10 8 10 6 13 C6.83 13.16 6.83 13.16 11 14 C11.55 16.08 12 17.84 12 20 C12.6 19.5 13.2 19.01 13.81 18.5 C16 17 16 17 19 17 C19.12 16.46 19.25 15.93 19.38 15.38 C20.12 12.54 21.05 9.78 22 7 C22.99 7 23.98 7 25 7 C25.29 7.97 25.58 8.94 25.88 9.94 C27 13 27 13 29 14 C28.67 15.32 28.34 16.64 28 18 C29.32 18.66 30.64 19.32 32 20 C31.84 20.82 31.84 20.82 31 25 C32.32 25 33.64 25 35 25 C35 25.66 35 26.32 35 27 C33.4 27.22 31.79 27.43 30.19 27.62 C29.29 27.74 28.4 27.86 27.48 27.98 C25 28 25 28 22 26 C23 25 23 25 25.56 24.94 C25.96 24.95 25.96 24.95 28 25 C28 24.34 28 23.68 28 23 C27.01 23 26.02 23 25 23 C25 22.34 25 21.68 25 21 C22.62 21.25 22.62 21.25 20 22 C18.88 23.87 18.88 23.87 18 26 C16.38 27.75 16.38 27.75 15 29 C15.66 29 16.32 29 17 29 C17 29.99 17 30.98 17 32 C15.84 32.16 15.84 32.16 10 33 C10.33 32.01 10.66 31.02 11 30 C8.03 30.99 5.06 31.98 2 33 C1.67 32.34 1.34 31.68 1 31 C0.05 31.5 -0.9 31.99 -1.88 32.5 C-5 34 -5 34 -7 34 C-7 33.34 -7 32.68 -7 32 C-7.68 32.1 -8.35 32.19 -9.05 32.29 C-9.94 32.4 -10.83 32.51 -11.75 32.62 C-12.63 32.74 -13.51 32.86 -14.42 32.98 C-17.23 33 -18.63 32.45 -21 31 C-21 30.01 -21 29.02 -21 28 C-21.29 28.11 -21.29 28.11 -22.75 28.69 C-25 29 -25 29 -27.25 27.88 C-29 26 -29 26 -29.25 23.31 C-29.21 22.93 -29.21 22.93 -29 21 C-27.68 20.34 -26.36 19.68 -25 19 C-25 17.35 -25 15.7 -25 14 C-24.01 14 -23.02 14 -22 14 C-21.67 13.01 -21.34 12.02 -21 11 C-19.35 11.33 -17.7 11.66 -16 12 C-16 12.99 -16 13.98 -16 15 C-15.68 15.05 -15.68 15.05 -14.06 15.31 C-13.38 15.54 -12.7 15.77 -12 16 C-11.67 16.99 -11.34 17.98 -11 19 C-11.99 19.99 -12.98 20.98 -14 22 C-12.25 23.12 -12.25 23.12 -10 24 C-7.75 23.12 -7.75 23.12 -6 22 C-6.34 21.71 -6.34 21.71 -8.06 20.25 C-8.7 19.51 -9.34 18.77 -10 18 C-9.75 15.75 -9.75 15.75 -9 14 C-8.2 13.88 -7.39 13.75 -6.56 13.62 C-5.72 13.42 -4.87 13.21 -4 13 C-3.67 12.34 -3.34 11.68 -3 11 C-3.99 10.67 -4.98 10.34 -6 10 C-5.67 8.68 -5.34 7.36 -5 6 C-3.68 6 -2.36 6 -1 6 C-0.67 4.02 -0.34 2.04 0 0 Z M8 22 C7.34 22.66 6.68 23.32 6 24 C7.65 24 9.3 24 11 24 C11 23.34 11 22.68 11 22 C10.01 22 9.02 22 8 22 Z " fill="#97947A" transform="translate(78,10)"/>
<path d="M0 0 C0.33 0 0.66 0 1 0 C1.89 8.5 1.99 16.51 1 25 C1.13 24.13 1.27 23.26 1.4 22.37 C1.58 21.21 1.76 20.06 1.94 18.88 C2.11 17.74 2.29 16.6 2.46 15.43 C2.96 12.28 3.47 9.14 4 6 C4.33 6 4.66 6 5 6 C5 9.3 5 12.6 5 16 C5.33 16 5.66 16 6 16 C5.99 17.02 5.98 18.05 5.96 19.11 C5.96 20.47 5.95 21.83 5.94 23.19 C5.93 23.52 5.93 23.52 5.91 25.23 C5.89 28.95 6.11 32.38 7 36 C7.99 35.67 8.98 35.34 10 35 C10.99 36.32 11.98 37.64 13 39 C11.35 39 9.7 39 8 39 C8 39.66 8 40.32 8 41 C10.31 41 12.62 41 15 41 C15 41.33 15 41.66 15 42 C13.02 42.33 11.04 42.66 9 43 C8.67 43.99 8.34 44.98 8 46 C5.03 46 2.06 46 -1 46 C-1 46.66 -1 47.32 -1 48 C-0.34 48 0.32 48 1 48 C1 48.66 1 49.32 1 50 C-1.14 50.16 -1.14 50.16 -12 51 C-11.67 51.66 -11.34 52.32 -11 53 C-9.81 52.97 -8.62 52.93 -7.39 52.89 C-5.82 52.87 -4.25 52.84 -2.69 52.81 C-2.29 52.8 -2.29 52.8 -0.31 52.74 C0.45 52.73 1.21 52.72 1.99 52.71 C2.34 52.7 2.34 52.7 4.1 52.66 C6.58 53.1 7.47 54.03 9 56 C9 56.66 9 57.32 9 58 C9.66 57.67 10.32 57.34 11 57 C13.67 56.87 16.32 56.96 19 57 C19 58.32 19 59.64 19 61 C16.25 61.92 14.64 62.11 11.81 62.06 C10.55 62.04 9.3 62.02 8 62 C8 61.01 8 60.02 8 59 C5.36 59.99 2.72 60.98 0 62 C0.33 62.99 0.66 63.98 1 65 C-0.58 65.05 -2.17 65.09 -3.75 65.12 C-4.63 65.15 -5.51 65.17 -6.42 65.2 C-9.11 64.99 -10.7 64.37 -13 63 C-13 62.67 -13 62.34 -13 62 C-11.87 62.02 -10.73 62.04 -9.56 62.06 C-6 62 -6 62 -5 61 C-6.32 61 -7.64 61 -9 61 C-9 60.34 -9 59.68 -9 59 C-9.7 59.05 -10.4 59.09 -11.12 59.14 C-18 59.4 -22.11 58.56 -28 55 C-28 54.34 -28 53.68 -28 53 C-27.01 53 -26.02 53 -25 53 C-27.82 51.01 -29.43 50 -32.94 50 C-36.7 50 -38.81 48.93 -42 47 C-42.33 46.34 -42.66 45.68 -43 45 C-45.32 44.59 -47.66 44.26 -50 44 C-49.67 45.32 -49.34 46.64 -49 48 C-50.63 48.69 -50.63 48.69 -53 49 C-56.25 47.56 -56.25 47.56 -59 46 C-59 45.34 -59 44.68 -59 44 C-57.35 44 -55.7 44 -54 44 C-54 43.01 -54 42.02 -54 41 C-52.02 41 -50.04 41 -48 41 C-48 41.66 -48 42.32 -48 43 C-44.04 43 -40.08 43 -36 43 C-35.67 41.68 -35.34 40.36 -35 39 C-35 39.66 -35 40.32 -35 41 C-34.38 41.25 -33.76 41.5 -33.12 41.75 C-30.65 43.21 -30.05 44.38 -29 47 C-27.02 47 -25.04 47 -23 47 C-23 47.66 -23 48.32 -23 49 C-17.54 49.11 -12.39 48.9 -7 48 C-6.67 48 -6.34 48 -6 48 C-6 47.34 -6 46.68 -6 46 C-9.63 45.67 -13.26 45.34 -17 45 C-15.68 44.34 -14.36 43.68 -13 43 C-12.84 42.67 -12.84 42.67 -12 41 C-12.99 40.84 -12.99 40.84 -18 40 C-17.01 39.67 -16.02 39.34 -15 39 C-15 38.34 -15 37.68 -15 37 C-13.68 37 -12.36 37 -11 37 C-11 36.34 -11 35.68 -11 35 C-10.34 35 -9.68 35 -9 35 C-9 30.38 -9 25.76 -9 21 C-8.34 21 -7.68 21 -7 21 C-6.84 22.81 -6.84 22.81 -6 32 C-5.34 31.34 -4.68 30.68 -4 30 C-4 30.99 -4 31.98 -4 33 C-3.34 33 -2.68 33 -2 33 C-2 29.37 -2 25.74 -2 22 C-2.66 22 -3.32 22 -4 22 C-4.37 12.59 -4.37 12.59 -2 8 C-1.34 8 -0.68 8 0 8 C0 5.36 0 2.72 0 0 Z M-8 33 C-8.33 33.99 -8.66 34.98 -9 36 C-9.33 36.66 -9.66 37.32 -10 38 C-9.01 38.16 -9.01 38.16 -4 39 C-4.5 38.01 -4.5 38.01 -7 33 C-7.33 33 -7.66 33 -8 33 Z M-2 34 C-2.33 35.32 -2.66 36.64 -3 38 C-1.02 38 0.96 38 3 38 C2.36 37.71 1.72 37.42 1.06 37.12 C-1 36 -1 36 -2 34 Z M-2 41 C-2 41.33 -2 41.66 -2 42 C-0.35 42 1.3 42 3 42 C3 41.67 3 41.34 3 41 C1.35 41 -0.3 41 -2 41 Z M4 44 C8 45 8 45 8 45 Z " fill="#C3D5E9" transform="translate(82,100)"/>
<path d="M0 0 C0 0.66 0 1.32 0 2 C0.99 2 1.98 2 3 2 C3 2.66 3 3.32 3 4 C1.35 4.33 -0.3 4.66 -2 5 C2.05 5.98 5.84 6.08 10 6 C10 5.34 10 4.68 10 4 C10.66 4 11.32 4 12 4 C12.16 4.83 12.16 4.83 13 9 C11.68 9.66 11.68 9.66 5 13 C5.99 12.84 5.99 12.84 11 12 C11 12.66 11 13.32 11 14 C10.34 14 9.68 14 9 14 C9.16 14.66 9.16 14.66 10 18 C9.36 18.06 8.72 18.12 8.07 18.18 C7.65 18.23 7.65 18.23 5.56 18.44 C5.15 18.48 5.15 18.48 3.07 18.68 C1 19 1 19 0 20 C-3.72 20.29 -4.78 20.15 -8 18 C-7.84 18.49 -7.84 18.49 -7 21 C-15.05 23.48 -27.01 26.99 -35 23 C-34.67 23.99 -34.34 24.98 -34 26 C-37.96 26 -41.92 26 -46 26 C-46 25.01 -46 24.02 -46 23 C-45.2 22.88 -44.39 22.75 -43.56 22.62 C-42.72 22.42 -41.87 22.21 -41 22 C-40.67 21.34 -40.34 20.68 -40 20 C-41.44 19.92 -42.87 19.86 -44.31 19.81 C-45.11 19.78 -45.91 19.74 -46.74 19.71 C-49.48 20.06 -50.29 20.89 -52 23 C-52.99 22.67 -53.98 22.34 -55 22 C-53.74 24.51 -52.5 24.87 -50 26 C-50 26.33 -50 26.66 -50 27 C-53.96 27 -57.92 27 -62 27 C-62 26.34 -62 25.68 -62 25 C-58.25 23.88 -58.25 23.88 -56 25 C-56.33 24.01 -56.66 23.02 -57 22 C-56.67 21.01 -56.34 20.02 -56 19 C-55.34 19 -54.68 19 -54 19 C-54 18.34 -54 17.68 -54 17 C-51.05 14.26 -50.23 14 -46 14 C-45.67 12.35 -45.34 10.7 -45 9 C-44.01 9.66 -43.02 10.32 -42 11 C-39.52 11.2 -39.52 11.2 -36.81 11.12 C-36.36 11.12 -36.36 11.12 -34.08 11.07 C-33.74 11.06 -33.74 11.06 -32 11 C-32 11.66 -32 12.32 -32 13 C-28.56 11.81 -28.56 11.81 -25 10 C-24.06 7.31 -24.06 7.31 -24 5 C-23.67 5 -23.34 5 -23 5 C-22.84 5.99 -22.84 5.99 -22 11 C-21.24 10.67 -20.47 10.34 -19.69 10 C-17 9 -17 9 -14 9 C-14 9.66 -14 10.32 -14 11 C-12.02 11 -10.04 11 -8 11 C-8 10.01 -8 9.02 -8 8 C-8.66 8 -9.32 8 -10 8 C-8.45 3.35 -5.01 0 0 0 Z " fill="#717056" transform="translate(103,31)"/>
<path d="M0 0 C2.31 0 4.62 0 7 0 C7.16 0.83 7.16 0.83 8 5 C9.32 5 10.64 5 12 5 C12.33 4.01 12.66 3.02 13 2 C13 3.32 13 4.64 13 6 C12.01 6.66 11.02 7.32 10 8 C9.16 10.64 9.16 10.64 8.5 13.81 C7.61 18.09 6.67 21.49 4 25 C1.81 25.81 1.81 25.81 0 26 C-0.1 26.92 -0.2 27.84 -0.3 28.78 C-1.08 35.17 -1.8 40.64 -5.05 46.25 C-6.56 49.04 -7.23 51.93 -8 55 C-8.99 55 -9.98 55 -11 55 C-11.66 52.03 -12.32 49.06 -13 46 C-15.88 48.88 -16.4 52.41 -17.44 56.25 C-18.86 61.48 -20.38 66.21 -23 71 C-24.32 71 -25.64 71 -27 71 C-27.66 68.69 -28.32 66.38 -29 64 C-27.35 63.34 -25.7 62.68 -24 62 C-24.06 60.8 -24.12 59.61 -24.19 58.38 C-24.21 54.22 -22.96 51.67 -21 48 C-20.81 45.12 -20.81 45.12 -21 43 C-20.5 42.84 -20.5 42.84 -18 42 C-18.33 40.35 -18.66 38.7 -19 37 C-21.44 37.38 -21.44 37.38 -24 38 C-24.33 38.66 -24.66 39.32 -25 40 C-25.66 40 -26.32 40 -27 40 C-26.95 40.56 -26.91 41.11 -26.86 41.69 C-26.56 47.95 -27.86 51.59 -31 57 C-31.66 57 -32.32 57 -33 57 C-32.71 55.01 -32.41 53.03 -32.12 51.04 C-32 49 -32 49 -33 46 C-32.34 46 -31.68 46 -31 46 C-31.33 45.34 -31.66 44.68 -32 44 C-32.23 37.47 -32.23 37.47 -31 35 C-30.01 35 -29.02 35 -28 35 C-27.67 31.7 -27.34 28.4 -27 25 C-26.34 25 -25.68 25 -25 25 C-25 28.63 -25 32.26 -25 36 C-21.96 32.96 -21.4 31.79 -20.31 27.81 C-20.06 26.91 -19.81 26.01 -19.55 25.08 C-19.37 24.39 -19.19 23.71 -19 23 C-18.34 23 -17.68 23 -17 23 C-17 26.63 -17 30.26 -17 34 C-16.5 34.16 -16.5 34.16 -14 35 C-13.34 33.35 -12.68 31.7 -12 30 C-11.34 30 -10.68 30 -10 30 C-10 28.68 -10 27.36 -10 26 C-10.66 26 -11.32 26 -12 26 C-12.16 25.17 -12.16 25.17 -13 21 C-11.02 21.33 -9.04 21.66 -7 22 C-7.66 20.02 -8.32 18.04 -9 16 C-8.34 15.67 -7.68 15.34 -7 15 C-6.67 14.01 -6.34 13.02 -6 12 C-7.65 12 -9.3 12 -11 12 C-11 11.67 -11 11.34 -11 11 C-9.02 11 -7.04 11 -5 11 C-4.67 12.98 -4.34 14.96 -4 17 C-2.68 17 -1.36 17 0 17 C-0.16 17.83 -0.16 17.83 -1 22 C-0.34 22 0.32 22 1 22 C1 21.01 1 20.02 1 19 C1.99 19 2.98 19 4 19 C4.33 17.68 4.66 16.36 5 15 C3.68 15.33 2.36 15.66 1 16 C2.98 13.69 4.96 11.38 7 9 C6.84 8.84 6.84 8.84 6 8 C4.82 4.35 4.82 4.35 6 2 C4.02 1.67 2.04 1.34 0 1 C0 0.67 0 0.34 0 0 Z " fill="#9D9B9C" transform="translate(137,53)"/>
<path d="M0 0 C1.48 0.33 1.48 0.33 9 2 C9.16 16.69 8.68 31.32 8 46 C7.2 46.29 6.39 46.58 5.56 46.88 C3 48 3 48 2 50 C0.35 49.34 -1.3 48.68 -3 48 C-3 47.34 -3 46.68 -3 46 C-2.34 46 -1.68 46 -1 46 C-1.66 44.02 -2.32 42.04 -3 40 C-5.64 40.33 -8.28 40.66 -11 41 C-11.33 40.01 -11.66 39.02 -12 38 C-10.35 38.33 -8.7 38.66 -7 39 C-7.66 38.44 -8.32 37.89 -9 37.31 C-11 35 -11 35 -11.25 32.25 C-11.17 31.51 -11.09 30.77 -11 30 C-11.66 30 -12.32 30 -13 30 C-14 36.75 -14 36.75 -14 39 C-14.66 39 -15.32 39 -16 39 C-16 37.68 -16 36.36 -16 35 C-16.66 35 -17.32 35 -18 35 C-19.26 32.48 -19.1 30.69 -19.06 27.88 C-19.05 26.96 -19.04 26.05 -19.04 25.12 C-19.02 24.42 -19.01 23.72 -19 23 C-19.66 23 -20.32 23 -21 23 C-21 22.34 -21 21.68 -21 21 C-21.99 21 -22.98 21 -24 21 C-24 20.01 -24 19.02 -24 18 C-25.32 17.34 -26.64 16.68 -28 16 C-27.67 14.35 -27.34 12.7 -27 11 C-26.34 11 -25.68 11 -25 11 C-24.92 11.95 -24.84 12.9 -24.75 13.88 C-24 17 -24 17 -22 18.25 C-21.34 18.5 -20.68 18.75 -20 19 C-19.67 19.66 -19.34 20.32 -19 21 C-18.67 19.68 -18.34 18.36 -18 17 C-15.69 17 -13.38 17 -11 17 C-11 17.66 -11 18.32 -11 19 C-10.34 19 -9.68 19 -9 19 C-8.67 18.34 -8.34 17.68 -8 17 C-7.34 17 -6.68 17 -6 17 C-5.25 20.66 -4.76 23.42 -6 27 C-3.36 27 -0.72 27 2 27 C2.33 26.01 2.66 25.02 3 24 C4.32 25.32 5.64 26.64 7 28 C6.34 26.35 5.68 24.7 5 23 C5.66 23 6.32 23 7 23 C6.67 21.35 6.34 19.7 6 18 C4.68 18 3.36 18 2 18 C1.34 16.35 0.68 14.7 0 13 C0.66 13 1.32 13 2 13 C1.67 12.34 1.34 11.68 1 11 C-0.29 7.14 -0.14 4.06 0 0 Z " fill="#7C8797" transform="translate(60,71)"/>
<path d="M0 0 C0.99 0 1.98 0 3 0 C4.12 4.75 4.12 4.75 3 7 C2.34 7 1.68 7 1 7 C1 7.66 1 8.32 1 9 C1.44 8.91 1.44 8.91 3.69 8.44 C6.85 8.02 8.95 8.19 12 9 C11.67 10.32 11.34 11.64 11 13 C10.34 13 9.68 13 9 13 C9.66 13.99 10.32 14.98 11 16 C11 16.99 11 17.98 11 19 C9.02 18.67 7.04 18.34 5 18 C5.16 18.83 5.16 18.83 6 23 C6.66 23 7.32 23 8 23 C8 24.32 8 25.64 8 27 C7.34 27 6.68 27 6 27 C5.34 28.65 4.68 30.3 4 32 C2.68 31.67 1.36 31.34 0 31 C-0.12 23.38 -0.12 23.38 1 20 C0.34 20 -0.32 20 -1 20 C-1.12 20.69 -1.24 21.37 -1.37 22.08 C-1.53 22.98 -1.7 23.88 -1.88 24.81 C-1.96 25.26 -1.96 25.26 -2.37 27.52 C-3 30 -3 30 -5 33 C-5.66 33 -6.32 33 -7 33 C-8.12 25.38 -8.12 25.38 -7 22 C-7.66 22 -8.32 22 -9 22 C-9.33 24.64 -9.66 27.28 -10 30 C-11.13 29.77 -12.27 29.55 -13.44 29.31 C-18.34 28.73 -22.76 29.34 -27 32 C-28.5 35.56 -28.5 35.56 -29 39 C-29.33 39.66 -29.66 40.32 -30 41 C-29.34 41 -28.68 41 -28 41 C-27.69 40.05 -27.38 39.1 -27.06 38.12 C-26 35 -26 35 -25 33 C-23.68 33 -22.36 33 -21 33 C-20.67 35.31 -20.34 37.62 -20 40 C-20.5 40.16 -20.5 40.16 -23 41 C-24.71 42.63 -26.38 44.29 -28 46 C-28 45.34 -28 44.68 -28 44 C-28.99 44 -29.98 44 -31 44 C-31.33 35.09 -31.66 26.18 -32 17 C-31.01 17.33 -30.02 17.66 -29 18 C-29 19.98 -29 21.96 -29 24 C-27.68 24.33 -26.36 24.66 -25 25 C-24.67 23.35 -24.34 21.7 -24 20 C-22.68 20.33 -21.36 20.66 -20 21 C-20.66 22.98 -21.32 24.96 -22 27 C-21.34 27 -20.68 27 -20 27 C-19.34 23.37 -18.68 19.74 -18 16 C-14.7 16 -11.4 16 -8 16 C-8.66 15.67 -9.32 15.34 -10 15 C-10 14.01 -10 13.02 -10 12 C-8.35 12 -6.7 12 -5 12 C-5 12.66 -5 13.32 -5 14 C-3.35 14 -1.7 14 0 14 C-0.33 15.32 -0.66 16.64 -1 18 C-0.34 17.67 0.32 17.34 1 17 C0.84 16.17 0.84 16.17 0 12 C-2.64 11.34 -5.28 10.68 -8 10 C-7.67 9.01 -7.34 8.02 -7 7 C-5.68 7 -4.36 7 -3 7 C-3 7.66 -3 8.32 -3 9 C-2.34 9 -1.68 9 -1 9 C-1 8.01 -1 7.02 -1 6 C-0.34 6 0.32 6 1 6 C0.84 5.01 0.84 5.01 0 0 Z " fill="#807965" transform="translate(119,56)"/>
<path d="M0 0 C2.97 0.33 5.94 0.66 9 1 C9 1.66 9 2.32 9 3 C7.68 3.33 6.36 3.66 5 4 C5.14 4.9 5.29 5.81 5.44 6.74 C5.62 7.92 5.81 9.1 6 10.31 C6.19 11.48 6.37 12.66 6.56 13.86 C6.95 16.63 7 19.22 7 22 C8.32 22 9.64 22 11 22 C11.33 23.65 11.66 25.3 12 27 C11.34 27 10.68 27 10 27 C10.66 28.65 11.32 30.3 12 32 C11.01 31.67 10.02 31.34 9 31 C8.67 30.34 8.34 29.68 8 29 C7.67 29.66 7.34 30.32 7 31 C4.36 31 1.72 31 -1 31 C-2.11 27.68 -1.77 26.33 -1 23 C-1 22.34 -1 21.68 -1 21 C-1.66 21 -2.32 21 -3 21 C-3.33 22.32 -3.66 23.64 -4 25 C-4 24.34 -4 23.68 -4 23 C-5.48 22.67 -5.48 22.67 -13 21 C-13.25 15.38 -13.25 15.38 -11 12 C-12.65 12 -14.3 12 -16 12 C-16 13.98 -16 15.96 -16 18 C-16.99 17.67 -17.98 17.34 -19 17 C-20.1 12.59 -20.08 8.52 -20 4 C-19.67 4.17 -19.67 4.17 -18 5 C-18 5.66 -18 6.32 -18 7 C-17.01 6.67 -16.02 6.34 -15 6 C-14.67 5.01 -14.34 4.02 -14 3 C-12.35 3.33 -10.7 3.66 -9 4 C-8.67 5.32 -8.34 6.64 -8 8 C-7.34 8 -6.68 8 -6 8 C-5.67 6.68 -5.34 5.36 -5 4 C-3.35 3.67 -1.7 3.34 0 3 C0 2.01 0 1.02 0 0 Z " fill="#7F7C7A" transform="translate(55,67)"/>
<path d="M0 0 C3.95 -0.5 6.61 -0.09 10 2 C10 2.66 10 3.32 10 4 C12.81 3.83 12.81 3.83 27 3 C26.34 3.66 25.68 4.32 25 5 C25.52 4.83 26.03 4.67 26.56 4.5 C29.73 3.85 32.77 3.94 36 4 C36 4.66 36 5.32 36 6 C35.34 6 34.68 6 34 6 C33.67 6.99 33.34 7.98 33 9 C31.35 9.33 29.7 9.66 28 10 C28.16 10.16 28.16 10.16 29 11 C29.45 18.16 29.38 25.94 28 33 C27.67 33.16 27.67 33.16 26 34 C25.67 33.34 25.34 32.68 25 32 C24.01 32.66 23.02 33.32 22 34 C22 33.34 22 32.68 22 32 C21.01 32 20.02 32 19 32 C18.67 30.68 18.34 29.36 18 28 C17.34 28 16.68 28 16 28 C15.66 25.96 15.33 23.92 15 21.88 C14.81 20.74 14.63 19.6 14.44 18.43 C14.03 15.24 13.92 12.21 14 9 C11.36 9 8.72 9 6 9 C6.33 8.01 6.66 7.02 7 6 C7.66 6 8.32 6 9 6 C9 5.34 9 4.68 9 4 C7.89 4.02 6.77 4.04 5.62 4.06 C2 4 2 4 0 3 C0 3.99 0 4.98 0 6 C-0.8 6.27 -1.61 6.54 -2.44 6.81 C-3.28 7.2 -4.13 7.6 -5 8 C-5.33 8.99 -5.66 9.98 -6 11 C-6.66 11 -7.32 11 -8 11 C-8.66 9.02 -9.32 7.04 -10 5 C-8.91 4.92 -7.81 4.83 -6.69 4.75 C-2.41 3.88 -2.42 3.26 0 0 Z " fill="#B2BBAC" transform="translate(55,64)"/>
<path d="M0 0 C0.33 0 0.66 0 1 0 C1.89 8.5 1.99 16.51 1 25 C1.13 24.13 1.27 23.26 1.4 22.37 C1.58 21.21 1.76 20.06 1.94 18.88 C2.11 17.74 2.29 16.6 2.46 15.43 C2.96 12.28 3.47 9.14 4 6 C4.33 6 4.66 6 5 6 C5 9.3 5 12.6 5 16 C5.33 16 5.66 16 6 16 C5.99 17.02 5.98 18.05 5.96 19.11 C5.96 20.47 5.95 21.83 5.94 23.19 C5.93 23.86 5.92 24.53 5.91 25.23 C5.89 28.95 6.11 32.38 7 36 C7.5 35.84 7.5 35.84 10 35 C10.99 36.32 11.98 37.64 13 39 C11.35 39 9.7 39 8 39 C8 39.66 8 40.32 8 41 C10.31 41 12.62 41 15 41 C15 41.33 15 41.66 15 42 C14.01 42.16 14.01 42.16 9 43 C8.67 43.99 8.34 44.98 8 46 C5.03 46 2.06 46 -1 46 C-1 46.66 -1 47.32 -1 48 C-0.34 48 0.32 48 1 48 C1 48.66 1 49.32 1 50 C-1.14 50.16 -1.14 50.16 -12 51 C-12 51.99 -12 52.98 -12 54 C-12.66 54 -13.32 54 -14 54 C-14 53.34 -14 52.68 -14 52 C-14.66 52 -15.32 52 -16 52 C-16 51.34 -16 50.68 -16 50 C-14.52 49.67 -13.04 49.33 -11.56 49 C-10.74 48.81 -9.92 48.63 -9.07 48.44 C-7 48 -7 48 -6 48 C-6 47.34 -6 46.68 -6 46 C-9.63 45.67 -13.26 45.34 -17 45 C-15.68 44.34 -14.36 43.68 -13 43 C-12.67 42.34 -12.34 41.68 -12 41 C-13.98 40.67 -15.96 40.34 -18 40 C-17.5 39.84 -17.5 39.84 -15 39 C-15 38.34 -15 37.68 -15 37 C-13.68 37 -12.36 37 -11 37 C-11 36.34 -11 35.68 -11 35 C-10.34 35 -9.68 35 -9 35 C-9 30.38 -9 25.76 -9 21 C-8.34 21 -7.68 21 -7 21 C-6.67 24.63 -6.34 28.26 -6 32 C-5.34 31.34 -4.68 30.68 -4 30 C-4 30.99 -4 31.98 -4 33 C-3.34 33 -2.68 33 -2 33 C-2 29.37 -2 25.74 -2 22 C-2.66 22 -3.32 22 -4 22 C-4.37 12.59 -4.37 12.59 -2 8 C-1.34 8 -0.68 8 0 8 C0 5.36 0 2.72 0 0 Z M-8 33 C-8.33 33.99 -8.66 34.98 -9 36 C-9.33 36.66 -9.66 37.32 -10 38 C-9.01 38.16 -9.01 38.16 -4 39 C-4.5 38.01 -4.5 38.01 -7 33 C-7.33 33 -7.66 33 -8 33 Z M-2 34 C-2.33 35.32 -2.66 36.64 -3 38 C-1.02 38 0.96 38 3 38 C2.36 37.71 1.72 37.42 1.06 37.12 C-1 36 -1 36 -2 34 Z M-2 41 C-2 41.33 -2 41.66 -2 42 C-0.35 42 1.3 42 3 42 C3 41.67 3 41.34 3 41 C1.35 41 -0.3 41 -2 41 Z M4 44 C8 45 8 45 8 45 Z " fill="#DEE6EC" transform="translate(82,100)"/>
<path d="M0 0 C0.33 0 0.66 0 1 0 C2.26 8.66 2.09 17.27 2 26 C3.32 26.33 4.64 26.66 6 27 C6.6 26.17 7.2 25.35 7.81 24.5 C8.53 23.67 9.26 22.85 10 22 C10.99 22 11.98 22 13 22 C12.67 19.69 12.34 17.38 12 15 C10.68 15 9.36 15 8 15 C7.69 15.95 7.38 16.9 7.06 17.88 C6 21 6 21 5 23 C4.34 23 3.68 23 3 23 C3.42 21.54 3.86 20.08 4.31 18.62 C4.56 17.81 4.8 17 5.05 16.16 C6 14 6 14 9 12 C13.75 10.48 18.14 9.43 23 11 C23.33 11.99 23.66 12.98 24 14 C23.67 14.16 23.67 14.16 22 15 C21.34 14.67 20.68 14.34 20 14 C20 17.63 20 21.26 20 25 C19.34 25 18.68 25 18 25 C18.66 25.99 19.32 26.98 20 28 C19.98 30.48 19.98 30.48 19.62 33.19 C19.57 33.64 19.57 33.64 19.29 35.92 C19.19 36.61 19.1 37.29 19 38 C18.03 38.29 17.06 38.58 16.06 38.88 C13 40 13 40 12 42 C11.34 42 10.68 42 10 42 C10 42.66 10 43.32 10 44 C7.67 44.38 5.34 44.71 3 45 C1.42 43.42 1.78 41.72 1.68 39.53 C1.64 38.63 1.6 37.73 1.56 36.8 C1.52 35.86 1.48 34.91 1.44 33.94 C1.39 32.99 1.35 32.04 1.31 31.06 C1.2 28.71 1.1 26.35 1 24 C0.01 24 -0.98 24 -2 24 C-1.34 16.08 -0.68 8.16 0 0 Z " fill="#959292" transform="translate(86,74)"/>
<path d="M0 0 C0.33 0.99 0.66 1.98 1 3 C1.99 3 2.98 3 4 3 C4 3.66 4 4.32 4 5 C4.66 5 5.32 5 6 5 C6.33 8.96 6.66 12.92 7 17 C7.66 17 8.32 17 9 17 C9 18.32 9 19.64 9 21 C9.66 21 10.32 21 11 21 C10.67 20.34 10.34 19.68 10 19 C9.96 17 9.96 15 10 13 C11.32 12.67 12.64 12.34 14 12 C14 13.65 14 15.3 14 17 C15.32 17.66 16.64 18.32 18 19 C18 19.66 18 20.32 18 21 C16.35 20.67 14.7 20.34 13 20 C13.33 20.66 13.66 21.32 14 22 C14.74 22 15.48 22 16.25 22 C18.5 22 20.75 22 23 22 C23.33 23.98 23.66 25.96 24 28 C23.34 28 22.68 28 22 28 C22 28.66 22 29.32 22 30 C23.65 30.66 25.3 31.32 27 32 C27.66 30.68 28.32 29.36 29 28 C30.98 28.33 32.96 28.66 35 29 C35 28.01 35 27.02 35 26 C35.66 26 36.32 26 37 26 C38.31 31.49 37.49 35.01 35 40 C34.34 40 33.68 40 33 40 C33 41.98 33 43.96 33 46 C25.13 46.3 25.13 46.3 22 44 C21.28 41.43 21.28 41.43 20.94 38.31 C20.26 33.33 19.37 29.44 17 25 C16.34 24.67 15.68 24.34 15 24 C14.67 25.65 14.34 27.3 14 29 C13.01 29.33 12.02 29.66 11 30 C10.75 29.38 10.51 28.76 10.25 28.12 C9 26 9 26 7.06 25.25 C3.65 23.18 2.92 19.69 2 16 C1.64 13.33 1.38 10.69 1.21 8 C1 6 1 6 0 5 C-0.04 3.33 -0.04 1.67 0 0 Z " fill="#9EA8B5" transform="translate(35,89)"/>
<path d="M0 0 C0.26 0.11 0.26 0.11 1.56 0.69 C1.56 2.01 1.56 3.33 1.56 4.69 C-1.09 5.76 -3.72 6.78 -6.44 7.69 C-6.44 8.35 -6.44 9.01 -6.44 9.69 C-7.1 9.69 -7.76 9.69 -8.44 9.69 C-8.44 11.67 -8.44 13.65 -8.44 15.69 C-10.42 15.69 -12.4 15.69 -14.44 15.69 C-14.44 16.35 -14.44 17.01 -14.44 17.69 C-12.13 17.69 -9.82 17.69 -7.44 17.69 C-7.77 17.85 -7.77 17.85 -9.44 18.69 C-9.27 19.18 -9.27 19.18 -8.44 21.69 C-15.48 23.65 -21.21 23.69 -28.44 22.69 C-29.1 21.04 -29.76 19.39 -30.44 17.69 C-31.76 17.69 -33.08 17.69 -34.44 17.69 C-34.44 18.68 -34.44 19.67 -34.44 20.69 C-35.43 20.69 -36.42 20.69 -37.44 20.69 C-37.77 23 -38.1 25.31 -38.44 27.69 C-38.77 27.69 -39.1 27.69 -39.44 27.69 C-39.85 26.26 -40.25 24.82 -40.62 23.38 C-40.74 22.97 -40.74 22.97 -41.29 20.95 C-41.44 18.69 -41.44 18.69 -40.19 16.94 C-37.73 15.18 -35.39 15.02 -32.44 14.69 C-32.44 13.7 -32.44 12.71 -32.44 11.69 C-30.95 11.52 -30.95 11.52 -23.44 10.69 C-23.17 9.9 -22.9 9.12 -22.62 8.31 C-21.44 5.69 -21.44 5.69 -18.44 3.69 C-16.42 3.38 -16.42 3.38 -14.19 3.25 C-10.98 2.97 -8.53 2.45 -5.62 1.06 C-2.44 -0.31 -2.44 -0.31 0 0 Z " fill="#817F63" transform="translate(55.4375,40.3125)"/>
<path d="M0 0 C0.16 0.33 0.16 0.33 1 2 C1.99 2.33 2.98 2.66 4 3 C3.34 3.33 2.68 3.66 2 4 C2 4.66 2 5.32 2 6 C0.68 6 -0.64 6 -2 6 C-2 6.66 -2 7.32 -2 8 C-1.38 7.79 -0.76 7.59 -0.12 7.38 C0.58 7.25 1.28 7.13 2 7 C2.33 7.33 2.33 7.33 4 9 C2.68 9.33 1.36 9.66 0 10 C4.04 10.63 7.91 11.12 12 11 C12 11.66 12 12.32 12 13 C11.01 13.33 10.02 13.66 9 14 C10.32 14.33 11.64 14.66 13 15 C13 15.66 13 16.32 13 17 C11.02 17 9.04 17 7 17 C7.66 17.33 8.32 17.66 9 18 C9 19.65 9 21.3 9 23 C8.84 22.5 8.84 22.5 8 20 C4.04 20.33 0.08 20.66 -4 21 C-4 20.34 -4 19.68 -4 19 C-3.34 19 -2.68 19 -2 19 C-2 16.69 -2 14.38 -2 12 C-3.32 12 -4.64 12 -6 12 C-6 12.66 -6 13.32 -6 14 C-7.32 13.34 -8.64 12.68 -10 12 C-10 11.34 -10 10.68 -10 10 C-10.66 10 -11.32 10 -12 10 C-12 10.99 -12 11.98 -12 13 C-21.39 13.1 -30.66 13.13 -40 12 C-40.33 12.99 -40.66 13.98 -41 15 C-43.64 15 -46.28 15 -49 15 C-49.33 15.99 -49.66 16.98 -50 18 C-51.65 18.16 -51.65 18.16 -60 19 C-60.33 18.01 -60.66 17.02 -61 16 C-62.85 15.27 -62.85 15.27 -65.06 14.81 C-65.8 14.65 -66.53 14.5 -67.29 14.33 C-67.85 14.22 -68.42 14.11 -69 14 C-69 13.34 -69 12.68 -69 12 C-64.71 12 -60.42 12 -56 12 C-56 11.34 -56 10.68 -56 10 C-54.87 10.01 -53.74 10.02 -52.57 10.04 C-51.09 10.04 -49.61 10.05 -48.12 10.06 C-47.38 10.07 -46.63 10.08 -45.86 10.09 C-40.23 10.11 -40.23 10.11 -38 9 C-36.46 8.93 -34.92 8.92 -33.38 8.94 C-32.97 8.94 -32.97 8.94 -30.9 8.96 C-30.59 8.97 -30.59 8.97 -29 9 C-29 9.66 -29 10.32 -29 11 C-27.68 10.67 -26.36 10.34 -25 10 C-25 9.34 -25 8.68 -25 8 C-23.02 8 -21.04 8 -19 8 C-19.66 8.33 -20.32 8.66 -21 9 C-21 9.99 -21 10.98 -21 12 C-20.05 11.51 -19.1 11.01 -18.12 10.5 C-15 9 -15 9 -13 9 C-12.67 8.01 -12.34 7.02 -12 6 C-10.04 5.41 -10.04 5.41 -7.62 5.06 C-3.24 4.25 -3.24 4.25 -0.94 1.88 C-0.78 1.57 -0.78 1.57 0 0 Z " fill="#D9BE82" transform="translate(124,44)"/>
<path d="M0 0 C1.52 3.04 1.24 5.65 1 9 C0.01 9.66 -0.98 10.32 -2 11 C-1.67 11.99 -1.34 12.98 -1 14 C0.65 13.67 2.3 13.34 4 13 C3.43 16.96 2.42 19.8 0 23 C-2.94 24.54 -4.67 25 -8 25 C-8.33 24.34 -8.66 23.68 -9 23 C-11.56 22.38 -11.56 22.38 -14 22 C-13.34 21.67 -12.68 21.34 -12 21 C-11.38 18.44 -11.38 18.44 -11 16 C-11.66 16 -12.32 16 -13 16 C-13.39 15.05 -13.78 14.1 -14.19 13.12 C-16.27 9.54 -17.28 9.37 -21 8 C-21.94 6.06 -21.94 6.06 -22 4 C-21.34 3.01 -20.68 2.02 -20 1 C-18.35 1.33 -16.7 1.66 -15 2 C-14.73 1.36 -14.46 0.72 -14.19 0.06 C-11.09 -5.32 -4.46 -2.11 0 0 Z " fill="#DCE4EE" transform="translate(138,118)"/>
<path d="M0 0 C0.99 0.66 1.98 1.32 3 2 C5.48 2.2 5.48 2.2 8.19 2.12 C8.64 2.12 8.64 2.12 10.92 2.07 C11.26 2.06 11.26 2.06 13 2 C14 5 14 5 13 9 C17.62 8.67 22.24 8.34 27 8 C26.67 8.66 26.34 9.32 26 10 C25.34 10 24.68 10 24 10 C25 12 25 12 28 14 C25.03 15.49 22.3 15.13 19 15.12 C18.37 15.13 18.37 15.13 15.19 15.13 C12 15 12 15 10 14 C10.33 14.99 10.66 15.98 11 17 C7.04 17 3.08 17 -1 17 C-1 16.01 -1 15.02 -1 14 C-0.2 13.88 0.61 13.75 1.44 13.62 C2.28 13.42 3.13 13.21 4 13 C4.33 12.34 4.66 11.68 5 11 C3.56 10.92 2.13 10.86 0.69 10.81 C-0.11 10.78 -0.91 10.74 -1.74 10.71 C-4.48 11.06 -5.29 11.89 -7 14 C-7.99 13.67 -8.98 13.34 -10 13 C-8.74 15.51 -7.5 15.87 -5 17 C-5 17.33 -5 17.66 -5 18 C-8.96 18 -12.92 18 -17 18 C-17 17.34 -17 16.68 -17 16 C-13.25 14.88 -13.25 14.88 -11 16 C-11.33 15.01 -11.66 14.02 -12 13 C-11.67 12.01 -11.34 11.02 -11 10 C-10.34 10 -9.68 10 -9 10 C-9 9.34 -9 8.68 -9 8 C-6.05 5.26 -5.23 5 -1 5 C-0.67 3.35 -0.34 1.7 0 0 Z " fill="#777562" transform="translate(58,40)"/>
<path d="M0 0 C0.66 0 1.32 0 2 0 C1.99 0.78 1.98 1.56 1.96 2.37 C1.96 3.38 1.95 4.39 1.94 5.44 C1.93 6.45 1.91 7.46 1.9 8.5 C2 11 2 11 3 12 C3.07 13.85 3.08 15.71 3.06 17.56 C3.05 18.57 3.04 19.59 3.04 20.63 C3.02 21.41 3.01 22.19 3 23 C3.66 23.33 4.32 23.66 5 24 C4.78 24.56 4.78 24.56 3.69 27.38 C2.47 30.59 1.45 33.82 0.5 37.12 C-0.63 40.99 -2.04 44.46 -4 48 C-5.32 48 -6.64 48 -8 48 C-8.33 46.84 -8.33 46.84 -10 41 C-8.35 40.34 -6.7 39.68 -5 39 C-5.06 37.8 -5.12 36.61 -5.19 35.38 C-5.21 31.22 -3.96 28.67 -2 25 C-1.81 22.12 -1.81 22.12 -2 20 C-1.01 19.67 -0.02 19.34 1 19 C0.67 17.35 0.34 15.7 0 14 C-2.44 14.38 -2.44 14.38 -5 15 C-5.33 15.66 -5.66 16.32 -6 17 C-6.66 17 -7.32 17 -8 17 C-7.95 17.56 -7.91 18.11 -7.86 18.69 C-7.56 24.95 -8.86 28.59 -12 34 C-12.66 34 -13.32 34 -14 34 C-13.71 32.01 -13.41 30.03 -13.12 28.04 C-13 26 -13 26 -14 23 C-13.34 23 -12.68 23 -12 23 C-12.33 22.34 -12.66 21.68 -13 21 C-13.23 14.47 -13.23 14.47 -12 12 C-11.01 12 -10.02 12 -9 12 C-8.67 8.7 -8.34 5.4 -8 2 C-7.34 2 -6.68 2 -6 2 C-6 5.63 -6 9.26 -6 13 C-2.96 9.96 -2.4 8.79 -1.31 4.81 C-1.06 3.91 -0.81 3.01 -0.55 2.08 C-0.37 1.39 -0.19 0.71 0 0 Z " fill="#D1CCC9" transform="translate(118,76)"/>
<path d="M0 0 C1.98 0.66 3.96 1.32 6 2 C5.01 4.97 4.02 7.94 3 11 C2.01 11 1.02 11 0 11 C-0.33 11.99 -0.66 12.98 -1 14 C-2.85 14.73 -2.85 14.73 -5.06 15.19 C-5.8 15.35 -6.53 15.5 -7.29 15.67 C-7.85 15.78 -8.42 15.89 -9 16 C-9.15 16.56 -9.15 16.56 -9.94 19.38 C-11 23 -11 23 -12 25 C-11.34 25 -10.68 25 -10 25 C-9.69 24.05 -9.38 23.1 -9.06 22.12 C-8 19 -8 19 -7 17 C-5.68 17 -4.36 17 -3 17 C-2.67 19.31 -2.34 21.62 -2 24 C-2.99 24.33 -3.98 24.66 -5 25 C-6.71 26.63 -8.38 28.29 -10 30 C-10 29.34 -10 28.68 -10 28 C-10.99 28 -11.98 28 -13 28 C-13.33 19.09 -13.66 10.18 -14 1 C-13.01 1.33 -12.02 1.66 -11 2 C-11 3.98 -11 5.96 -11 8 C-9.68 8.33 -8.36 8.66 -7 9 C-6.67 7.35 -6.34 5.7 -6 4 C-4.68 4.33 -3.36 4.66 -2 5 C-2.66 6.98 -3.32 8.96 -4 11 C-3.34 11 -2.68 11 -2 11 C-1.34 7.37 -0.68 3.74 0 0 Z " fill="#5B5855" transform="translate(101,72)"/>
<path d="M0 0 C2.97 0.33 5.94 0.66 9 1 C9 1.66 9 2.32 9 3 C7.68 3.33 6.36 3.66 5 4 C5.14 4.9 5.29 5.81 5.44 6.74 C5.62 7.92 5.81 9.1 6 10.31 C6.19 11.48 6.37 12.66 6.56 13.86 C6.95 16.63 7 19.22 7 22 C8.32 22 9.64 22 11 22 C11.33 23.65 11.66 25.3 12 27 C11.34 27 10.68 27 10 27 C10.66 28.65 11.32 30.3 12 32 C11.01 31.67 10.02 31.34 9 31 C8.67 30.34 8.34 29.68 8 29 C7.67 29.66 7.34 30.32 7 31 C4.36 31 1.72 31 -1 31 C-1.33 30.01 -1.66 29.02 -2 28 C2 28 2 28 4 29 C4 26.03 4 23.06 4 20 C3.34 20 2.68 20 2 20 C1 19 0 18 -1 17 C-1.66 17 -2.32 17 -3 17 C-3 15.02 -3 13.04 -3 11 C-3.33 11.16 -3.33 11.16 -5 12 C-5 9.36 -5 6.72 -5 4 C-3.35 3.67 -1.7 3.34 0 3 C0 2.01 0 1.02 0 0 Z " fill="#63605B" transform="translate(55,67)"/>
<path d="M0 0 C0.99 0 1.98 0 3 0 C3.33 1.98 3.66 3.96 4 6 C5.32 6.33 6.64 6.66 8 7 C8 10 8 10 6 13 C6.83 13.16 6.83 13.16 11 14 C11.55 16.08 12 17.84 12 20 C12.66 20 13.32 20 14 20 C14 20.99 14 21.98 14 23 C13.34 23 12.68 23 12 23 C12 23.99 12 24.98 12 26 C11.01 25.67 10.02 25.34 9 25 C9.33 24.34 9.66 23.68 10 23 C9.4 23.19 8.8 23.37 8.19 23.56 C6 24 6 24 3 23 C3 22.34 3 21.68 3 21 C4 20 5 19 6 18 C6 17.34 6 16.68 6 16 C4.35 16.33 2.7 16.66 1 17 C0.67 16.01 0.34 15.02 0 14 C-0.66 14.33 -0.66 14.33 -4 16 C-4 16.99 -4 17.98 -4 19 C-3.34 19 -2.68 19 -2 19 C-2.33 20.32 -2.66 21.64 -3 23 C-5.38 22.31 -5.38 22.31 -8 21 C-9.38 18.5 -9.38 18.5 -10 16 C-9.67 15.34 -9.34 14.68 -9 14 C-7.33 13.67 -5.67 13.33 -4 13 C-3.67 12.34 -3.34 11.68 -3 11 C-3.99 10.67 -4.98 10.34 -6 10 C-5.67 8.68 -5.34 7.36 -5 6 C-3.68 6 -2.36 6 -1 6 C-0.67 4.02 -0.34 2.04 0 0 Z " fill="#9A9D92" transform="translate(78,10)"/>
<path d="M0 0 C0.66 0 1.32 0 2 0 C3.63 2 3.63 2 5 4 C3.68 4 2.36 4 1 4 C-1.25 7 -1.25 7 -3 10 C-1.35 9.34 0.3 8.68 2 8 C2.33 8.99 2.66 9.98 3 11 C3.66 11 4.32 11 5 11 C4.57 15.91 2.53 18.63 -1 22 C-4.31 22.38 -4.31 22.38 -7 22 C-7 21.34 -7 20.68 -7 20 C-7.66 20.33 -7.66 20.33 -11 22 C-12.28 15.59 -12.6 9.39 -11 3 C-7.12 3.88 -7.12 3.88 -6 5 C-4.33 5.04 -2.67 5.04 -1 5 C-0.67 3.35 -0.34 1.7 0 0 Z " fill="#919CAE" transform="translate(99,115)"/>
<path d="M0 0 C0.33 0 0.66 0 1 0 C2.26 8.66 2.09 17.27 2 26 C3.32 26.33 4.64 26.66 6 27 C6.6 26.17 7.2 25.35 7.81 24.5 C8.53 23.67 9.26 22.85 10 22 C10.99 22 11.98 22 13 22 C12.67 19.69 12.34 17.38 12 15 C10.68 15 9.36 15 8 15 C7.69 15.95 7.38 16.9 7.06 17.88 C6 21 6 21 5 23 C4.34 23 3.68 23 3 23 C3.42 21.54 3.86 20.08 4.31 18.62 C4.56 17.81 4.8 17 5.05 16.16 C6 14 6 14 9 12 C13.75 10.48 18.14 9.43 23 11 C23.33 11.99 23.66 12.98 24 14 C23.67 14.16 23.67 14.16 22 15 C21.34 14.67 20.68 14.34 20 14 C20 17.3 20 20.6 20 24 C17.36 24 14.72 24 12 24 C11.77 24.93 11.55 25.86 11.31 26.81 C9.79 30.51 8.54 31.32 5 33 C4.83 32.5 4.83 32.5 4 30 C3.34 30 2.68 30 2 30 C1.67 28.02 1.34 26.04 1 24 C0.01 24 -0.98 24 -2 24 C-1.34 16.08 -0.68 8.16 0 0 Z " fill="#7E8389" transform="translate(86,74)"/>
<path d="M0 0 C0 1.32 0 2.64 0 4 C1.32 4.33 2.64 4.66 4 5 C4 5.99 4 6.98 4 8 C2.54 8.84 1.09 9.67 -0.38 10.5 C-1.19 10.96 -2 11.43 -2.84 11.91 C-5 13 -5 13 -7 13 C-7 13.66 -7 14.32 -7 15 C-14.34 17.35 -21.34 17.19 -29 17 C-29.33 16.01 -29.66 15.02 -30 14 C-25.59 12.9 -21.52 12.92 -17 13 C-17 12.34 -17 11.68 -17 11 C-17.66 11 -18.32 11 -19 11 C-19 10.34 -19 9.68 -19 9 C-18.68 8.98 -18.68 8.98 -17.07 8.85 C-16.24 8.78 -15.41 8.7 -14.56 8.62 C-13.74 8.56 -12.92 8.49 -12.07 8.41 C-11.38 8.28 -10.7 8.14 -10 8 C-9.67 7.34 -9.34 6.68 -9 6 C-10.65 6 -12.3 6 -14 6 C-12.68 5.34 -11.36 4.68 -10 4 C-10 3.34 -10 2.68 -10 2 C-6.36 -0.43 -4.29 -0.16 0 0 Z " fill="#9BBAD9" transform="translate(100,137)"/>
<path d="M0 0 C9.41 0.96 9.41 0.96 14 2 C13.67 3.98 13.34 5.96 13 8 C11.68 8 10.36 8 9 8 C8.67 6.35 8.34 4.7 8 3 C7.01 3.33 6.02 3.66 5 4 C5.66 4.33 6.32 4.66 7 5 C7 6.65 7 8.3 7 10 C7.66 9.67 8.32 9.34 9 9 C8.43 12.87 6.51 15.08 4 18 C4.66 18 5.32 18 6 18 C5.67 19.32 5.34 20.64 5 22 C4.01 22 3.02 22 2 22 C2 22.99 2 23.98 2 25 C1.34 25 0.68 25 0 25 C0.33 23.35 0.66 21.7 1 20 C-0.32 20 -1.64 20 -3 20 C-3 17.36 -3 14.72 -3 12 C-3.99 11.67 -4.98 11.34 -6 11 C-2.99 10.07 -2.13 9.96 1 11 C1 10.34 1 9.68 1 9 C-0.65 8.67 -2.3 8.34 -4 8 C-2.68 7.67 -1.36 7.34 0 7 C0 6.34 0 5.68 0 5 C-0.69 5.1 -1.37 5.19 -2.08 5.29 C-2.98 5.4 -3.88 5.51 -4.81 5.62 C-5.71 5.74 -6.6 5.86 -7.52 5.98 C-10 6 -10 6 -13 4 C-12 3 -12 3 -9.28 2.9 C-8.73 2.91 -8.73 2.91 -5.94 2.94 C-5.39 2.94 -5.39 2.94 -2.59 2.96 C-1.74 2.98 -0.88 2.99 0 3 C0 2.01 0 1.02 0 0 Z " fill="#988E78" transform="translate(136,50)"/>
<path d="M0 0 C0 0.66 0 1.32 0 2 C2.64 1.34 5.28 0.68 8 0 C8.1 3.49 7.78 6.59 7 10 C7.83 10.16 7.83 10.16 12 11 C11.88 12.88 11.88 12.88 11 15 C7.39 16.65 5.81 17.27 2 16 C1.57 16.23 1.57 16.23 -0.62 17.38 C-4.66 19.32 -8.5 20.18 -13 20 C-13.99 19.34 -14.98 18.68 -16 18 C-14.68 17.67 -13.36 17.34 -12 17 C-12 16.34 -12 15.68 -12 15 C-8.67 13.33 -5.33 11.67 -2 10 C-1.34 10.33 -0.68 10.66 0 11 C0 9.35 0 7.7 0 6 C-1.65 5.67 -3.3 5.34 -5 5 C-5 4.01 -5 3.02 -5 2 C-5.66 1.67 -6.32 1.34 -7 1 C-4 0 -4 0 0 0 Z " fill="#D9E2EC" transform="translate(105,135)"/>
<path d="M0 0 C0.66 0 1.32 0 2 0 C3.31 5.49 2.49 9.01 0 14 C-0.66 14 -1.32 14 -2 14 C-2 15.98 -2 17.96 -2 20 C-9.9 20.3 -9.9 20.3 -13 18 C-13.79 15.25 -13.79 15.25 -14.19 12 C-14.94 6.11 -14.94 6.11 -16 4 C-13.36 4.66 -10.72 5.32 -8 6 C-7.34 4.68 -6.68 3.36 -6 2 C-5.01 2.17 -5.01 2.17 0 3 C0 2.01 0 1.02 0 0 Z " fill="#A4B5C8" transform="translate(70,115)"/>
<path d="M0 0 C1.98 0 3.96 0 6 0 C6.33 2.64 6.66 5.28 7 8 C7.66 6.02 8.32 4.04 9 2 C10.65 1.67 12.3 1.34 14 1 C14.28 15.35 14.28 15.35 13 22 C12.34 22.33 11.68 22.66 11 23 C10.67 22.34 10.34 21.68 10 21 C9.01 21.66 8.02 22.32 7 23 C7 22.34 7 21.68 7 21 C6.01 21 5.02 21 4 21 C3.67 19.68 3.34 18.36 3 17 C2.34 17 1.68 17 1 17 C-0.13 13.39 -0.1 10.02 -0.06 6.25 C-0.05 5.08 -0.04 3.91 -0.04 2.7 C-0.02 1.81 -0.01 0.92 0 0 Z " fill="#7794A6" transform="translate(70,75)"/>
<path d="M0 0 C0.81 2.62 0.81 2.62 1 5 C1.97 4.81 2.94 4.63 3.94 4.44 C4.44 4.37 4.44 4.37 7 4 C8 5 8 5 8.06 8.06 C8.04 9.03 8.02 10 8 11 C7.34 10.34 6.68 9.68 6 9 C3.84 8.59 3.84 8.59 1.38 8.38 C0.97 8.34 0.97 8.34 -1.1 8.15 C-1.73 8.1 -2.35 8.05 -3 8 C-3.31 8.95 -3.62 9.9 -3.94 10.88 C-5 14 -5 14 -6 16 C-7.32 16 -8.64 16 -10 16 C-10 15.34 -10 14.68 -10 14 C-10.99 14.33 -11.98 14.66 -13 15 C-13 14.34 -13 13.68 -13 13 C-11.68 12.67 -10.36 12.34 -9 12 C-9 11.34 -9 10.68 -9 10 C-10.65 9.67 -12.3 9.34 -14 9 C-14.75 7.31 -14.75 7.31 -15 5 C-13.05 1.73 -11.49 0.24 -8.06 -1.44 C-4.52 -2.09 -3.01 -1.98 0 0 Z " fill="#E2E8F1" transform="translate(35,113)"/>
<path d="M0 0 C1.65 0 3.3 0 5 0 C5 0.66 5 1.32 5 2 C6.65 2 8.3 2 10 2 C9.67 3.32 9.34 4.64 9 6 C9.66 6 10.32 6 11 6 C11 6.66 11 7.32 11 8 C10.34 8 9.68 8 9 8 C8.88 8.69 8.76 9.37 8.63 10.08 C8.47 10.98 8.3 11.88 8.12 12.81 C7.96 13.71 7.8 14.6 7.63 15.52 C7 18 7 18 5 21 C4.34 21 3.68 21 3 21 C1.88 13.38 1.88 13.38 3 10 C2.34 10 1.68 10 1 10 C0.67 12.64 0.34 15.28 0 18 C-3.37 17.45 -5.08 16.95 -8 15 C-7.01 15 -6.02 15 -5 15 C-5.06 14.26 -5.12 13.52 -5.19 12.75 C-4.97 9.55 -4.1 8.36 -2 6 C-2.66 5.67 -3.32 5.34 -4 5 C-2.02 4.67 -0.04 4.34 2 4 C1.34 3.67 0.68 3.34 0 3 C0 2.01 0 1.02 0 0 Z " fill="#888076" transform="translate(109,68)"/>
<path d="M0 0 C2.31 0 4.62 0 7 0 C7.33 1.65 7.66 3.3 8 5 C9.32 5 10.64 5 12 5 C12.33 4.01 12.66 3.02 13 2 C13 3.32 13 4.64 13 6 C12.01 6.66 11.02 7.32 10 8 C9.16 10.64 9.16 10.64 8.5 13.81 C7.61 18.09 6.67 21.49 4 25 C1.81 25.81 1.81 25.81 0 26 C-0.12 26.99 -0.24 27.97 -0.37 28.99 C-0.53 30.27 -0.7 31.55 -0.88 32.88 C-1.04 34.15 -1.2 35.43 -1.37 36.74 C-2 40 -2 40 -4 42 C-4 41.34 -4 40.68 -4 40 C-4.5 40.16 -4.5 40.16 -7 41 C-7.65 37.98 -8.15 35.1 -8 32 C-7.2 31.38 -6.39 30.76 -5.56 30.12 C-3 28 -3 28 -2.66 25.32 C-2.69 22.53 -2.78 19.78 -3 17 C-2.01 17 -1.02 17 0 17 C-0.33 18.65 -0.66 20.3 -1 22 C-0.34 22 0.32 22 1 22 C1 21.01 1 20.02 1 19 C1.99 19 2.98 19 4 19 C4.33 17.68 4.66 16.36 5 15 C3.68 15.33 2.36 15.66 1 16 C2.98 13.69 4.96 11.38 7 9 C6.67 8.67 6.34 8.34 6 8 C4.82 4.35 4.82 4.35 6 2 C5.01 1.84 5.01 1.84 0 1 C0 0.67 0 0.34 0 0 Z " fill="#C9BCAB" transform="translate(137,53)"/>
<path d="M0 0 C1.48 0.33 1.48 0.33 9 2 C9.03 5 9.05 8 9.06 11 C9.07 11.84 9.08 12.68 9.09 13.54 C9.11 18.79 8.76 23.8 8 29 C3.38 29 -1.24 29 -6 29 C-6 28.34 -6 27.68 -6 27 C-3.36 27 -0.72 27 2 27 C2.33 26.01 2.66 25.02 3 24 C4.32 25.32 5.64 26.64 7 28 C6.34 26.35 5.68 24.7 5 23 C5.66 23 6.32 23 7 23 C6.67 21.35 6.34 19.7 6 18 C4.68 18 3.36 18 2 18 C1.34 16.35 0.68 14.7 0 13 C0.66 13 1.32 13 2 13 C1.67 12.34 1.34 11.68 1 11 C-0.29 7.14 -0.14 4.06 0 0 Z " fill="#7B7C7E" transform="translate(60,71)"/>
<path d="M0 0 C0.33 0 0.66 0 1 0 C1.33 1.98 1.66 3.96 2 6 C2.76 5.67 3.53 5.34 4.31 5 C7 4 7 4 10 4 C10 4.66 10 5.32 10 6 C10.83 6.16 10.83 6.16 15 7 C14.78 10.86 13.98 12.02 11.25 14.88 C8 17 8 17 5.12 16.81 C4.42 16.54 3.72 16.28 3 16 C3 15.34 3 14.68 3 14 C3.66 13.67 4.32 13.34 5 13 C2.86 13.16 2.86 13.16 -8 14 C-8.33 12.68 -8.66 11.36 -9 10 C-6.31 7.75 -4.35 6.12 -1 5 C-0.67 3.35 -0.34 1.7 0 0 Z " fill="#62614A" transform="translate(79,36)"/>
<path d="M0 0 C0.66 0 1.32 0 2 0 C2.08 0.95 2.16 1.9 2.25 2.88 C3 6 3 6 5 7.25 C5.66 7.5 6.32 7.75 7 8 C7.33 8.66 7.66 9.32 8 10 C8.33 8.68 8.66 7.36 9 6 C11.31 6 13.62 6 16 6 C16 6.66 16 7.32 16 8 C16.66 8 17.32 8 18 8 C18.33 7.34 18.66 6.68 19 6 C19.66 6 20.32 6 21 6 C21.38 7.99 21.71 9.99 22 12 C21.67 12.33 21.34 12.66 21 13 C20.77 14.35 20.59 15.7 20.44 17.06 C20.29 18.36 20.15 19.66 20 21 C19.01 20.67 18.02 20.34 17 20 C16.12 18.19 16.12 18.19 15.44 16 C14.75 13.81 14.75 13.81 14 12 C13.34 11.67 12.68 11.34 12 11 C12.02 12.22 12.04 13.43 12.06 14.69 C12.07 17.92 11.79 20.85 11 24 C10.34 24 9.68 24 9 24 C7.74 21.48 7.9 19.69 7.94 16.88 C7.95 15.96 7.96 15.05 7.96 14.12 C7.98 13.42 7.99 12.72 8 12 C7.34 12 6.68 12 6 12 C6 11.34 6 10.68 6 10 C5.01 10 4.02 10 3 10 C3 9.01 3 8.02 3 7 C1.68 6.34 0.36 5.68 -1 5 C-0.67 3.35 -0.34 1.7 0 0 Z " fill="#9F9A97" transform="translate(33,82)"/>
<path d="M0 0 C1.69 0.09 3.38 0.25 5.06 0.44 C5.52 0.49 5.52 0.49 7.85 0.75 C8.56 0.83 9.27 0.91 10 1 C9.67 2.65 9.34 4.3 9 6 C8.34 6 7.68 6 7 6 C7 5.34 7 4.68 7 4 C5.06 4.38 5.06 4.38 3 5 C2.67 5.66 2.34 6.32 2 7 C2.64 7.06 2.64 7.06 5.88 7.38 C9.75 7.75 9.75 7.75 12 10 C11.62 12.63 11.62 12.63 11 15 C10.34 15 9.68 15 9 15 C9.33 13.68 9.66 12.36 10 11 C8.35 11 6.7 11 5 11 C5 10.34 5 9.68 5 9 C3.35 9 1.7 9 0 9 C0 9.99 0 10.98 0 12 C0.99 12.33 1.98 12.66 3 13 C1.11 14.89 -1.57 14.24 -4.09 14.33 C-4.72 14.22 -5.35 14.11 -6 14 C-6.66 13.01 -7.32 12.02 -8 11 C-7.34 11 -6.68 11 -6 11 C-6 10.34 -6 9.68 -6 9 C-6.66 9 -7.32 9 -8 9 C-8 8.34 -8 7.68 -8 7 C-8.66 6.67 -9.32 6.34 -10 6 C-9.01 6 -8.02 6 -7 6 C-7 5.34 -7 4.68 -7 4 C-6.52 3.76 -6.52 3.76 -4.06 2.56 C-1 1 -1 1 0 0 Z " fill="#C2A872" transform="translate(109,59)"/>
<path d="M0 0 C0.33 0.66 0.66 1.32 1 2 C1.66 2 2.32 2 3 2 C2.34 4.31 1.68 6.62 1 9 C1.61 9.04 2.23 9.07 2.86 9.11 C3.67 9.18 4.48 9.24 5.31 9.31 C6.11 9.37 6.91 9.43 7.74 9.49 C10.39 10.09 11.37 10.86 13 13 C13 13.66 13 14.32 13 15 C9.95 15.98 8.05 15.98 5 15 C5 15.66 5 16.32 5 17 C3.37 18.38 1.71 19.72 0 21 C0 20.34 0 19.68 0 19 C-1.98 19.33 -3.96 19.66 -6 20 C-4.35 16.7 -2.7 13.4 -1 10 C-1.66 10 -2.32 10 -3 10 C-3.33 9.34 -3.66 8.68 -4 8 C-5.65 8.33 -7.3 8.66 -9 9 C-7.8 6.51 -6.55 4.32 -5 2 C-3.68 2 -2.36 2 -1 2 C-0.67 1.34 -0.34 0.68 0 0 Z " fill="#C6D0DC" transform="translate(105,116)"/>
<path d="M0 0 C0.33 0.66 0.66 1.32 1 2 C1.62 1.79 2.24 1.59 2.88 1.38 C3.58 1.25 4.28 1.13 5 1 C5.66 1.66 6.32 2.32 7 3 C5.68 3.33 4.36 3.66 3 4 C7.04 4.63 10.91 5.12 15 5 C15 5.66 15 6.32 15 7 C14.01 7.33 13.02 7.66 12 8 C13.32 8.33 14.64 8.66 16 9 C16 9.66 16 10.32 16 11 C14.02 11 12.04 11 10 11 C10.66 11.33 11.32 11.66 12 12 C12 13.65 12 15.3 12 17 C11.67 16.01 11.34 15.02 11 14 C9.02 14.16 9.02 14.16 -1 15 C-1 14.34 -1 13.68 -1 13 C-0.34 13 0.32 13 1 13 C1 10.69 1 8.38 1 6 C-0.32 6 -1.64 6 -3 6 C-3 6.66 -3 7.32 -3 8 C-4.94 7.19 -4.94 7.19 -7 6 C-7.33 5.01 -7.66 4.02 -8 3 C-7.34 3 -6.68 3 -6 3 C-6 2.34 -6 1.68 -6 1 C-4.02 0.67 -2.04 0.34 0 0 Z " fill="#CFB769" transform="translate(121,50)"/>
<path d="M0 0 C0.33 0 0.66 0 1 0 C1 3.3 1 6.6 1 10 C1.33 10 1.66 10 2 10 C1.99 11.02 1.98 12.05 1.96 13.11 C1.96 14.47 1.95 15.83 1.94 17.19 C1.93 17.86 1.92 18.53 1.91 19.23 C1.89 22.95 2.11 26.38 3 30 C3.99 29.67 4.98 29.34 6 29 C6.99 30.32 7.98 31.64 9 33 C7.35 33 5.7 33 4 33 C4 33.66 4 34.32 4 35 C6.31 35 8.62 35 11 35 C11 35.33 11 35.66 11 36 C10.01 36.16 10.01 36.16 5 37 C4.67 37.99 4.34 38.98 4 40 C2.19 40.16 2.19 40.16 -7 41 C-6.67 39.68 -6.34 38.36 -6 37 C-4.35 37 -2.7 37 -1 37 C-1 36.34 -1 35.68 -1 35 C-2.65 34.67 -4.3 34.34 -6 34 C-6 33.67 -6 33.34 -6 33 C-4.02 33 -2.04 33 0 33 C-0.66 30.36 -1.32 27.72 -2 25 C-2.66 25 -3.32 25 -4 25 C-3.71 23.84 -3.42 22.69 -3.12 21.5 C-1.53 14.42 -0.83 7.2 0 0 Z M0 38 C4 39 4 39 4 39 Z " fill="#DCE3EA" transform="translate(86,106)"/>
<path d="M0 0 C0.33 0 0.66 0 1 0 C1 2.64 1 5.28 1 8 C0.34 8 -0.32 8 -1 8 C-1.66 12.62 -2.32 17.24 -3 22 C-2.34 22 -1.68 22 -1 22 C-1 25.63 -1 29.26 -1 33 C-1.66 33.16 -1.66 33.16 -5 34 C-6.32 31.36 -6.1 29.32 -6.06 26.38 C-6.05 25.37 -6.04 24.37 -6.04 23.34 C-6.03 22.95 -6.03 22.95 -6 21 C-6.66 21 -7.32 21 -8 21 C-8.33 19.02 -8.66 17.04 -9 15 C-9.66 15 -10.32 15 -11 15 C-11 15.99 -11 16.98 -11 18 C-11.66 18 -12.32 18 -13 18 C-13 14.7 -13 11.4 -13 8 C-12.34 8 -11.68 8 -11 8 C-10.95 8.31 -10.95 8.31 -10.69 9.88 C-10 12 -10 12 -7 14 C-6.67 13.34 -6.34 12.68 -6 12 C-5.01 12 -4.02 12 -3 12 C-3 11.34 -3 10.68 -3 10 C-3.66 10 -4.32 10 -5 10 C-5.37 5.45 -5.37 5.45 -3.5 3.19 C-3 2.8 -2.51 2.4 -2 2 C-1.67 2.66 -1.34 3.32 -1 4 C-0.67 2.68 -0.34 1.36 0 0 Z " fill="#B7CCDE" transform="translate(81,100)"/>
<path d="M0 0 C0.66 0 1.32 0 2 0 C2.05 1.96 2.09 3.92 2.12 5.88 C2.15 6.97 2.17 8.06 2.2 9.18 C2 12 2 12 0 14 C-0.85 14.16 -1.69 14.33 -2.56 14.5 C-3.37 14.66 -4.17 14.83 -5 15 C-5.33 15.66 -5.66 16.32 -6 17 C-6.66 17 -7.32 17 -8 17 C-7.95 17.56 -7.91 18.11 -7.86 18.69 C-7.56 24.95 -8.86 28.59 -12 34 C-12.66 34 -13.32 34 -14 34 C-13.71 32.01 -13.41 30.03 -13.12 28.04 C-13 26 -13 26 -14 23 C-13.34 23 -12.68 23 -12 23 C-12.33 22.34 -12.66 21.68 -13 21 C-13.23 14.47 -13.23 14.47 -12 12 C-11.01 12 -10.02 12 -9 12 C-8.67 8.7 -8.34 5.4 -8 2 C-7.34 2 -6.68 2 -6 2 C-6 5.63 -6 9.26 -6 13 C-2.96 9.96 -2.4 8.79 -1.31 4.81 C-1.06 3.91 -0.81 3.01 -0.55 2.08 C-0.37 1.39 -0.19 0.71 0 0 Z " fill="#C2B2A1" transform="translate(118,76)"/>
<path d="M0 0 C0.99 0 1.98 0 3 0 C3.33 1.65 3.66 3.3 4 5 C4.55 4.98 4.55 4.98 7.36 4.89 C8.82 4.87 10.29 4.84 11.75 4.81 C12.11 4.8 12.11 4.8 13.96 4.74 C18.35 4.68 20.8 4.94 24 8 C24.91 8.52 25.81 9.03 26.75 9.56 C27.12 9.8 27.12 9.8 29 11 C29 11.66 29 12.32 29 13 C29.37 13.05 29.37 13.05 31.25 13.31 C34.17 14.04 35.73 15.07 38 17 C37.67 18.32 37.34 19.64 37 21 C37 20.01 37 19.02 37 18 C36.39 17.96 35.79 17.93 35.16 17.89 C28.78 17.39 23.06 16.05 17 14 C17.99 13.34 18.98 12.68 20 12 C20 11.34 20 10.68 20 10 C17.69 10 15.38 10 13 10 C13 9.34 13 8.68 13 8 C12.3 7.89 11.6 7.78 10.88 7.67 C9.97 7.51 9.06 7.35 8.12 7.19 C7.22 7.04 6.32 6.89 5.38 6.73 C3 6 3 6 1 3 C1.33 2.34 1.66 1.68 2 1 C1.34 0.67 0.68 0.34 0 0 Z " fill="#D1C6A7" transform="translate(113,34)"/>
<path d="M0 0 C1.65 1.65 3.3 3.3 5 5 C4.67 5.66 4.34 6.32 4 7 C3.17 6.84 3.17 6.84 -1 6 C-1.12 6.6 -1.25 7.2 -1.38 7.81 C-2 10 -2 10 -4 13 C-4.99 13 -5.98 13 -7 13 C-7.66 11.35 -8.32 9.7 -9 8 C-10.32 8 -11.64 8 -13 8 C-13 8.99 -13 9.98 -13 11 C-13.99 11 -14.98 11 -16 11 C-16.33 13.31 -16.66 15.62 -17 18 C-17.33 18 -17.66 18 -18 18 C-18.42 16.57 -18.81 15.13 -19.19 13.69 C-19.41 12.89 -19.63 12.09 -19.86 11.26 C-20 9 -20 9 -18.75 7.25 C-16.3 5.5 -13.96 5.33 -11 5 C-11 4.01 -11 3.02 -11 2 C-10.69 1.97 -10.69 1.97 -9.1 1.82 C-8.28 1.73 -7.47 1.65 -6.62 1.56 C-5.81 1.48 -5 1.4 -4.16 1.32 C-2 1 -2 1 0 0 Z " fill="#A7A38C" transform="translate(34,50)"/>
<path d="M0 0 C-0.31 3.77 -0.62 7.54 -0.94 11.31 C-1.02 12.38 -1.11 13.46 -1.2 14.56 C-1.29 15.59 -1.38 16.62 -1.46 17.68 C-1.54 18.62 -1.62 19.57 -1.7 20.55 C-2 23 -2 23 -3 26 C-2.01 26 -1.02 26 0 26 C1.2 29.75 1.1 33.33 1.06 37.25 C1.05 38.51 1.04 39.78 1.04 41.08 C1.02 42.04 1.01 43.01 1 44 C0.34 42.68 -0.32 41.36 -1 40 C-1.12 40.89 -1.24 41.78 -1.37 42.7 C-1.53 43.87 -1.7 45.04 -1.88 46.25 C-2.04 47.41 -2.2 48.57 -2.37 49.77 C-2.92 52.58 -3.56 54.55 -5 57 C-5.13 50.39 -4.8 43.94 -4.12 37.37 C-4.02 34.66 -4.16 32.47 -4.53 29.82 C-5.22 24.28 -4.65 18.97 -4.06 13.44 C-3.96 12.43 -3.86 11.42 -3.76 10.38 C-3.51 7.92 -3.26 5.46 -3 3 C-3.66 2.67 -4.32 2.34 -5 2 C-2 0 -2 0 0 0 Z " fill="#AFC4D1" transform="translate(87,72)"/>
<path d="M0 0 C3 1 3 1 6 3 C6 3.66 6 4.32 6 5 C6.66 4.67 7.32 4.34 8 4 C10.67 3.87 13.32 3.96 16 4 C16 5.32 16 6.64 16 8 C13.25 8.92 11.64 9.11 8.81 9.06 C8.18 9.05 8.18 9.05 5 9 C5 8.01 5 7.02 5 6 C2.36 6.99 -0.28 7.98 -3 9 C-2.67 9.99 -2.34 10.98 -2 12 C-3.58 12.05 -5.17 12.09 -6.75 12.12 C-7.63 12.15 -8.51 12.17 -9.42 12.2 C-12.11 11.99 -13.7 11.37 -16 10 C-16 9.67 -16 9.34 -16 9 C-14.87 9.02 -13.73 9.04 -12.56 9.06 C-9 9 -9 9 -8 8 C-9.32 7.67 -10.64 7.34 -12 7 C-10.93 6.88 -9.86 6.75 -8.75 6.62 C-3.36 5.73 -3.36 5.73 -1 4 C-0.25 1.88 -0.25 1.88 0 0 Z " fill="#D5E1EF" transform="translate(85,153)"/>
<path d="M0 0 C0.99 0 1.98 0 3 0 C3.29 0.97 3.58 1.94 3.88 2.94 C5 6 5 6 7 7 C6.67 8.32 6.34 9.64 6 11 C7.32 11.66 8.64 12.32 10 13 C9.67 14.65 9.34 16.3 9 18 C10.32 18 11.64 18 13 18 C13 18.66 13 19.32 13 20 C11.4 20.22 9.79 20.43 8.19 20.62 C7.74 20.68 7.74 20.68 5.48 20.98 C3 21 3 21 0 19 C1 18 1 18 3.56 17.94 C3.96 17.95 3.96 17.95 6 18 C6 17.34 6 16.68 6 16 C5.01 16 4.02 16 3 16 C2.61 15.51 2.22 15.01 1.81 14.5 C-1.17 12.04 -4.23 12.81 -8 13 C-7.67 12.01 -7.34 11.02 -7 10 C-6.34 10.16 -6.34 10.16 -3 11 C-2.88 10.3 -2.75 9.6 -2.62 8.88 C-1.96 5.82 -1.03 2.95 0 0 Z " fill="#BAB49A" transform="translate(100,17)"/>
<path d="M0 0 C0 0.66 0 1.32 0 2 C1.32 1.34 2.64 0.68 4 0 C4 0.66 4 1.32 4 2 C6.65 3.08 9.28 4.09 12 5 C12.33 6.65 12.66 8.3 13 10 C10.36 9.34 7.72 8.68 5 8 C5 8.66 5 9.32 5 10 C-1.52 9.38 -1.52 9.38 -3.94 7.44 C-4.11 7.2 -4.11 7.2 -5 6 C-5.99 6.33 -6.98 6.66 -8 7 C-8.66 6.67 -9.32 6.34 -10 6 C-10 5.01 -10 4.02 -10 3 C-3.38 -1.12 -3.38 -1.12 0 0 Z " fill="#D2DDEC" transform="translate(20,129)"/>
<path d="M0 0 C0 3.3 0 6.6 0 10 C-1.32 9.67 -2.64 9.34 -4 9 C-4.33 9.99 -4.66 10.98 -5 12 C-7.31 12 -9.62 12 -12 12 C-12.66 10.02 -13.32 8.04 -14 6 C-14.66 6 -15.32 6 -16 6 C-15.67 5.01 -15.34 4.02 -15 3 C-15 3.66 -15 4.32 -15 5 C-14.34 5 -13.68 5 -13 5 C-12.77 4.36 -12.55 3.72 -12.31 3.06 C-11 1 -11 1 -8.75 0.25 C-5.82 -0.02 -2.94 -0.07 0 0 Z " fill="#D0DBEA" transform="translate(56,121)"/>
<path d="M0 0 C2.66 2.66 3.32 5.27 4.56 8.81 C5 10.04 5.43 11.26 5.88 12.52 C6.79 15.36 7.5 18.07 8 21 C8.99 21.33 9.98 21.66 11 22 C10.86 22.99 10.71 23.98 10.56 25 C9.99 28.99 9.49 33 9 37 C8.34 37 7.68 37 7 37 C5.5 31.37 5 26.87 5 21 C4.01 20.67 3.02 20.34 2 20 C-0.03 16.26 -0.09 13.19 0 9 C-1 7 -1 7 -4 5 C-2.68 5 -1.36 5 0 5 C0 3.35 0 1.7 0 0 Z " fill="#AEB2B8" transform="translate(21,63)"/>
<path d="M0 0 C0.33 0 0.66 0 1 0 C1 1.65 1 3.3 1 5 C0.34 5 -0.32 5 -1 5 C-1 5.99 -1 6.98 -1 8 C-0.34 8 0.32 8 1 8 C1.23 8.39 1.23 8.39 2.38 10.38 C4.08 13.12 5.05 13.88 8 15 C6.02 15 4.04 15 2 15 C1.67 14.34 1.34 13.68 1 13 C0.01 13.33 -0.98 13.66 -2 14 C-2.33 13.34 -2.66 12.68 -3 12 C-5.31 11.27 -7.65 10.6 -10 10 C-10 11.32 -10 12.64 -10 14 C-10.99 14.33 -11.98 14.66 -13 15 C-14.71 13.38 -16.37 11.71 -18 10 C-18 9.34 -18 8.68 -18 8 C-16.02 8.66 -14.04 9.32 -12 10 C-11.69 9.05 -11.38 8.1 -11.06 7.12 C-10 4 -10 4 -9 2 C-6.03 2.33 -3.06 2.66 0 3 C0 2.01 0 1.02 0 0 Z " fill="#BBCEE6" transform="translate(41,119)"/>
<path d="M0 0 C0.99 0 1.98 0 3 0 C3 0.66 3 1.32 3 2 C4.32 2 5.64 2 7 2 C7 1.34 7 0.68 7 0 C8.32 0.33 9.64 0.66 11 1 C10.72 2.94 10.42 4.88 10.12 6.81 C9.96 7.89 9.8 8.97 9.63 10.08 C9 13 9 13 7 16 C6.34 16 5.68 16 5 16 C5.33 14.02 5.66 12.04 6 10 C5.01 9.67 4.02 9.34 3 9 C2.67 10.65 2.34 12.3 2 14 C0.68 13.67 -0.64 13.34 -2 13 C-2.36 11.71 -2.71 10.42 -3.06 9.12 C-3.26 8.41 -3.46 7.69 -3.66 6.95 C-4 5 -4 5 -3 3 C-2.01 3 -1.02 3 0 3 C0 2.01 0 1.02 0 0 Z " fill="#918575" transform="translate(92,67)"/>
<path d="M0 0 C0.33 0.99 0.66 1.98 1 3 C-2.96 3 -6.92 3 -11 3 C-11 3.66 -11 4.32 -11 5 C-11.66 5.66 -12.32 6.32 -13 7 C-12.01 7.17 -12.01 7.17 -7 8 C-7.33 9.32 -7.66 10.64 -8 12 C-8.99 12 -9.98 12 -11 12 C-11.33 11.34 -11.66 10.68 -12 10 C-12.33 12.97 -12.66 15.94 -13 19 C-13.33 17.68 -13.66 16.36 -14 15 C-14.99 15.33 -15.98 15.66 -17 16 C-17 14.02 -17 12.04 -17 10 C-17.66 10 -18.32 10 -19 10 C-19.33 7.36 -19.66 4.72 -20 2 C-13.31 0.54 -6.82 -0.14 0 0 Z " fill="#625F52" transform="translate(48,62)"/>
<path d="M0 0 C1.32 0.33 2.64 0.66 4 1 C3.67 2.65 3.34 4.3 3 6 C3.66 6 4.32 6 5 6 C4.4 9.36 3.15 11.38 1 14 C1.64 14.27 2.28 14.54 2.94 14.81 C5 16 5 16 6 19 C7.32 19 8.64 19 10 19 C10 19.66 10 20.32 10 21 C7.29 22.35 4.99 22.07 2 22 C2.33 20.35 2.66 18.7 3 17 C2.34 17 1.68 17 1 17 C0.61 16.05 0.22 15.1 -0.19 14.12 C-2.27 10.54 -3.28 10.37 -7 9 C-7.94 7.06 -7.94 7.06 -8 5 C-7.34 4.01 -6.68 3.02 -6 2 C-4.35 2.33 -2.7 2.66 -1 3 C-0.67 2.01 -0.34 1.02 0 0 Z " fill="#D0DCEB" transform="translate(124,117)"/>
<path d="M0 0 C1.32 0 2.64 0 4 0 C4 0.66 4 1.32 4 2 C5.65 2.33 7.3 2.66 9 3 C9 3.66 9 4.32 9 5 C9.66 5 10.32 5 11 5 C11.33 4.34 11.66 3.68 12 3 C12.33 3.99 12.66 4.98 13 6 C14.31 5.72 15.63 5.42 16.94 5.12 C17.67 4.96 18.4 4.8 19.15 4.63 C21 4 21 4 22 2 C22.99 2 23.98 2 25 2 C24 5 24 5 22 6 C21.67 7.32 21.34 8.64 21 10 C17.7 9.67 14.4 9.34 11 9 C10.67 9.99 10.34 10.98 10 12 C8.35 11.67 6.7 11.34 5 11 C5 10.34 5 9.68 5 9 C4.01 8.67 3.02 8.34 2 8 C0.04 5.02 0 3.74 0 0 Z " fill="#A1BCDC" transform="translate(30,128)"/>
<path d="M0 0 C0.33 0.66 0.66 1.32 1 2 C3.06 3.12 3.06 3.12 5 4 C4.67 4.16 4.67 4.16 3 5 C3 5.66 3 6.32 3 7 C3.66 7 4.32 7 5 7 C5.33 7.99 5.66 8.98 6 10 C2.21 10.99 0.39 11.15 -3.31 9.69 C-6 8 -6 8 -7 6 C-9.32 5.59 -11.66 5.26 -14 5 C-13.67 6.32 -13.34 7.64 -13 9 C-14.62 9.69 -14.62 9.69 -17 10 C-20.25 8.56 -20.25 8.56 -23 7 C-23 6.34 -23 5.68 -23 5 C-21.35 5 -19.7 5 -18 5 C-18 4.01 -18 3.02 -18 2 C-16.02 2 -14.04 2 -12 2 C-12 2.66 -12 3.32 -12 4 C-8.04 4 -4.08 4 0 4 C0 2.68 0 1.36 0 0 Z " fill="#D8E3EF" transform="translate(46,139)"/>
<path d="M0 0 C2.64 0 5.28 0 8 0 C8.33 0.66 8.66 1.32 9 2 C9.4 2.05 9.4 2.05 11.44 2.31 C12.28 2.54 13.13 2.77 14 3 C15.31 5.56 15.31 5.56 16 8 C11.92 9.53 8.21 8.63 4 8 C3.88 7.2 3.75 6.39 3.62 5.56 C3.42 4.72 3.21 3.87 3 3 C2.34 2.67 1.68 2.34 1 2 C1.66 4.31 2.32 6.62 3 9 C2 10 2 10 -0.56 10.06 C-1.37 10.04 -2.17 10.02 -3 10 C-3 9.01 -3 8.02 -3 7 C-4.65 6.67 -6.3 6.34 -8 6 C-8 5.34 -8 4.68 -8 4 C-5.69 4 -3.38 4 -1 4 C-0.67 2.68 -0.34 1.36 0 0 Z " fill="#736D5A" transform="translate(84,56)"/>
<path d="M0 0 C1.98 0 3.96 0 6 0 C8.25 5.56 8.6 11.08 9 17 C8.01 17.33 7.02 17.66 6 18 C5.67 18.99 5.34 19.98 5 21 C4.34 21 3.68 21 3 21 C2.67 22.32 2.34 23.64 2 25 C1.67 21.7 1.34 18.4 1 15 C0.34 15 -0.32 15 -1 15 C-1.33 13.35 -1.66 11.7 -2 10 C-1.01 10.16 -1.01 10.16 4 11 C3.34 9.02 2.68 7.04 2 5 C2.66 4.67 3.32 4.34 4 4 C4.33 3.01 4.66 2.02 5 1 C3.35 1 1.7 1 0 1 C0 0.67 0 0.34 0 0 Z " fill="#ACA395" transform="translate(126,64)"/>
<path d="M0 0 C3.95 -0.5 6.61 -0.09 10 2 C10 2.66 10 3.32 10 4 C13.96 4 17.92 4 22 4 C20.41 7.18 18.26 7.72 15 9 C11.98 9.24 9.02 9.18 6 9 C6.33 8.01 6.66 7.02 7 6 C7.66 6 8.32 6 9 6 C9 5.34 9 4.68 9 4 C7.89 4.02 6.77 4.04 5.62 4.06 C2 4 2 4 0 3 C0 3.99 0 4.98 0 6 C-0.8 6.27 -1.61 6.54 -2.44 6.81 C-3.28 7.2 -4.13 7.6 -5 8 C-5.33 8.99 -5.66 9.98 -6 11 C-6.66 11 -7.32 11 -8 11 C-8.66 9.02 -9.32 7.04 -10 5 C-8.91 4.92 -7.81 4.83 -6.69 4.75 C-2.41 3.88 -2.42 3.26 0 0 Z " fill="#C5B28C" transform="translate(55,64)"/>
<path d="M0 0 C0.99 0 1.98 0 3 0 C3.33 1.98 3.66 3.96 4 6 C5.32 6.33 6.64 6.66 8 7 C8 10 8 10 6 13 C7.65 13.33 9.3 13.66 11 14 C11.55 16.08 12 17.84 12 20 C12.66 20 13.32 20 14 20 C14 20.99 14 21.98 14 23 C13.34 23 12.68 23 12 23 C12 23.99 12 24.98 12 26 C11.01 25.67 10.02 25.34 9 25 C9.33 24.34 9.66 23.68 10 23 C9.4 23.19 8.8 23.37 8.19 23.56 C6 24 6 24 3 23 C3 22.34 3 21.68 3 21 C4 20 5 19 6 18 C6 17.34 6 16.68 6 16 C4.35 16.33 2.7 16.66 1 17 C1 16.34 1 15.68 1 15 C1.99 14.67 2.98 14.34 4 14 C3.48 11.24 2.89 8.67 2 6 C2.33 5.34 2.66 4.68 3 4 C2.34 3.67 1.68 3.34 1 3 C0.67 2.01 0.34 1.02 0 0 Z " fill="#C7C0A7" transform="translate(78,10)"/>
<path d="M0 0 C0.06 0.63 0.12 1.25 0.18 1.9 C0.27 2.72 0.35 3.53 0.44 4.38 C0.48 4.78 0.48 4.78 0.68 6.84 C1 9 1 9 2 11 C1.03 11.29 0.06 11.58 -0.94 11.88 C-4 13 -4 13 -5 15 C-5.66 15 -6.32 15 -7 15 C-7 15.66 -7 16.32 -7 17 C-9.33 17.38 -11.66 17.71 -14 18 C-15 17 -15 17 -15.31 14.62 C-15 12 -15 12 -13.25 10.12 C-11 9 -11 9 -8.88 9.25 C-7 10 -7 10 -5 11 C-5.06 9.74 -5.12 8.48 -5.19 7.19 C-5.19 3.28 -5.19 3.28 -3.62 1 C-2 0 -2 0 0 0 Z " fill="#727C8E" transform="translate(103,101)"/>
<path d="M0 0 C-0.33 0.66 -0.66 1.32 -1 2 C-1.66 2 -2.32 2 -3 2 C-2 4 -2 4 1 6 C-1.97 7.49 -4.7 7.13 -8 7.12 C-8.63 7.13 -8.63 7.13 -11.81 7.13 C-15 7 -15 7 -17 6 C-16.67 6.99 -16.34 7.98 -16 9 C-19.96 9 -23.92 9 -28 9 C-28 8.67 -28 8.34 -28 8 C-24.7 7.67 -21.4 7.34 -18 7 C-18.33 5.68 -18.66 4.36 -19 3 C-12.7 1.07 -6.64 -0.2 0 0 Z " fill="#A19267" transform="translate(85,48)"/>
<path d="M0 0 C0.66 0 1.32 0 2 0 C2.33 1.65 2.66 3.3 3 5 C1.68 5.66 1.68 5.66 -5 9 C-3.02 8.67 -1.04 8.34 1 8 C1 8.66 1 9.32 1 10 C0.34 10 -0.32 10 -1 10 C-0.67 11.32 -0.34 12.64 0 14 C-3.3 14.33 -6.6 14.66 -10 15 C-11.16 10.37 -10.7 7.67 -10 3 C-6.53 1.84 -3.64 1.93 0 2 C0 1.34 0 0.68 0 0 Z " fill="#948757" transform="translate(113,35)"/>
<path d="M0 0 C2 0 2 0 4.12 2 C4.74 2.66 5.36 3.32 6 4 C6.33 3.34 6.66 2.68 7 2 C7.66 3.32 8.32 4.64 9 6 C8.34 6.66 7.68 7.32 7 8 C7 7.34 7 6.68 7 6 C-3.19 5.47 -3.19 5.47 -8 9 C-10.31 9.69 -10.31 9.69 -12 10 C-12.66 8.35 -13.32 6.7 -14 5 C-15.65 5 -17.3 5 -19 5 C-19.33 4.01 -19.66 3.02 -20 2 C-17.42 1.97 -14.83 1.95 -12.25 1.94 C-11.89 1.93 -11.89 1.93 -10.04 1.91 C-6.51 1.9 -3.39 2.05 0 3 C0 2.01 0 1.02 0 0 Z " fill="#A5925F" transform="translate(112,54)"/>
<path d="M0 0 C0.33 0.99 0.66 1.98 1 3 C1.99 3 2.98 3 4 3 C4 3.66 4 4.32 4 5 C4.66 5 5.32 5 6 5 C6.33 8.96 6.66 12.92 7 17 C7.66 17 8.32 17 9 17 C9.33 20.63 9.66 24.26 10 28 C9.67 27.34 9.34 26.68 9 26 C8.69 25.9 8.69 25.9 7.12 25.38 C3.72 23.17 2.94 19.77 2 16 C1.64 13.33 1.38 10.69 1.21 8 C1 6 1 6 0 5 C-0.04 3.33 -0.04 1.67 0 0 Z " fill="#B8BCC3" transform="translate(35,89)"/>
<path d="M0 0 C0.33 0.66 0.66 1.32 1 2 C2.85 2.85 2.85 2.85 5.06 3.62 C5.8 3.89 6.53 4.15 7.29 4.41 C7.57 4.51 7.57 4.51 9 5 C9 4.34 9 3.68 9 3 C12.19 2.12 12.19 2.12 16 2 C18.21 3.78 19.39 5.61 21 8 C20 9 20 9 17.06 9.1 C16.46 9.09 16.46 9.09 13.44 9.06 C12.84 9.06 12.84 9.06 9.81 9.04 C8.88 9.02 7.95 9.01 7 9 C7 8.34 7 7.68 7 7 C6.34 6.81 5.67 6.61 4.99 6.41 C-3.78 3.83 -3.78 3.83 -8 2 C-8 1.67 -8 1.34 -8 1 C-5.24 0.4 -2.84 0 0 0 Z " fill="#7E776C" transform="translate(58,59)"/>
<path d="M0 0 C0.66 0.33 1.32 0.66 2 1 C1.67 3.97 1.34 6.94 1 10 C0.05 10.29 -0.9 10.58 -1.88 10.88 C-5 12 -5 12 -7 14 C-7.99 13.67 -8.98 13.34 -10 13 C-8.74 15.51 -7.5 15.87 -5 17 C-5 17.33 -5 17.66 -5 18 C-8.96 18 -12.92 18 -17 18 C-17 17.34 -17 16.68 -17 16 C-13.25 14.88 -13.25 14.88 -11 16 C-11.33 15.01 -11.66 14.02 -12 13 C-11.67 12.01 -11.34 11.02 -11 10 C-10.34 10 -9.68 10 -9 10 C-9 9.34 -9 8.68 -9 8 C-6.05 5.26 -5.23 5 -1 5 C-0.67 3.35 -0.34 1.7 0 0 Z " fill="#5E5F51" transform="translate(58,40)"/>
<path d="M0 0 C0.99 0 1.98 0 3 0 C2.67 1.65 2.34 3.3 2 5 C2.99 5 3.98 5 5 5 C5 5.66 5 6.32 5 7 C5.66 7.33 6.32 7.66 7 8 C5.68 8.33 4.36 8.66 3 9 C2.88 9.99 2.76 10.97 2.63 11.99 C2.55 12.63 2.55 12.63 2.12 15.88 C1.96 17.15 1.8 18.43 1.63 19.74 C1 23 1 23 -1 25 C-1 24.34 -1 23.68 -1 23 C-1.99 23.33 -2.98 23.66 -4 24 C-4.65 20.98 -5.15 18.1 -5 15 C-4.2 14.38 -3.39 13.76 -2.56 13.12 C0 11 0 11 0.34 8.32 C0.31 5.53 0.22 2.78 0 0 Z " fill="#DDCBB5" transform="translate(134,70)"/>
<path d="M0 0 C2.87 0.57 3.86 0.86 6 3 C6.2 5.16 6.2 5.16 6.12 7.62 C6.11 8.44 6.09 9.26 6.07 10.1 C6.06 10.41 6.06 10.41 6 12 C-1.43 12.29 -1.43 12.29 -5 10 C-5 6 -5 6 -3.06 3.88 C-2.72 3.57 -2.72 3.57 -1 2 C-0.67 1.34 -0.34 0.68 0 0 Z " fill="#8297B4" transform="translate(62,123)"/>
<path d="M0 0 C0.99 0.33 1.98 0.66 3 1 C3 1.66 3 2.32 3 3 C3.66 3 4.32 3 5 3 C4.57 7.91 2.53 10.63 -1 14 C-4.31 14.38 -4.31 14.38 -7 14 C-6.34 13.01 -5.68 12.02 -5 11 C-4.45 8.7 -4.06 6.39 -3.66 4.06 C-3 2 -3 2 0 0 Z " fill="#9BA9BB" transform="translate(99,123)"/>
<path d="M0 0 C-0.33 1.32 -0.66 2.64 -1 4 C-1.66 4 -2.32 4 -3 4 C-3.33 4.66 -3.66 5.32 -4 6 C-2.84 5.84 -2.84 5.84 3 5 C3 4.34 3 3.68 3 3 C3.66 3 4.32 3 5 3 C5 4.98 5 6.96 5 9 C2.69 9.66 0.38 10.32 -2 11 C-2 10.34 -2 9.68 -2 9 C-5.3 9.33 -8.6 9.66 -12 10 C-12.66 8.68 -13.32 7.36 -14 6 C-11.36 6.33 -8.72 6.66 -6 7 C-6.33 5.02 -6.66 3.04 -7 1 C-4 0 -4 0 0 0 Z " fill="#B4B095" transform="translate(73,33)"/>
<path d="M0 0 C2.31 0 4.62 0 7 0 C7 0.99 7 1.98 7 3 C9.31 3.66 11.62 4.32 14 5 C14 5.66 14 6.32 14 7 C8.77 8.47 4.42 9.23 -1 9 C-1.33 7.02 -1.66 5.04 -2 3 C-1.34 3 -0.68 3 0 3 C0 2.01 0 1.02 0 0 Z " fill="#8EAFD1" transform="translate(62,141)"/>
<path d="M0 0 C0 0.66 0 1.32 0 2 C2.64 1.34 5.28 0.68 8 0 C8.1 3.49 7.78 6.59 7 10 C5.02 10 3.04 10 1 10 C1 8.68 1 7.36 1 6 C-0.65 6 -2.3 6 -4 6 C-4.12 5.36 -4.25 4.72 -4.38 4.06 C-4.48 3.72 -4.48 3.72 -5 2 C-5.66 1.67 -6.32 1.34 -7 1 C-4 0 -4 0 0 0 Z " fill="#CDDBEB" transform="translate(105,135)"/>
<path d="M0 0 C1.65 0.33 3.3 0.66 5 1 C5 2.98 5 4.96 5 7 C4.01 7 3.02 7 2 7 C2 7.66 2 8.32 2 9 C0.68 9 -0.64 9 -2 9 C-2 10.98 -2 12.96 -2 15 C-2.99 14.67 -3.98 14.34 -5 14 C-6.1 9.59 -6.08 5.52 -6 1 C-5.67 1.17 -5.67 1.17 -4 2 C-4 2.66 -4 3.32 -4 4 C-3.01 3.67 -2.02 3.34 -1 3 C-0.67 2.01 -0.34 1.02 0 0 Z " fill="#888D96" transform="translate(41,70)"/>
<path d="M0 0 C0.52 0.39 1.03 0.78 1.56 1.19 C1.23 1.85 0.9 2.51 0.56 3.19 C-1.5 3.82 -1.5 3.82 -4 4.31 C-4.83 4.48 -5.65 4.65 -6.5 4.82 C-7.14 4.94 -7.78 5.06 -8.44 5.19 C-8.44 5.85 -8.44 6.51 -8.44 7.19 C-9.28 7.25 -10.12 7.31 -10.99 7.37 C-12.09 7.45 -13.18 7.54 -14.31 7.62 C-14.86 7.67 -14.86 7.67 -17.62 7.87 C-20.44 8.19 -20.44 8.19 -22.44 9.19 C-22.12 7.31 -22.12 7.31 -21.44 5.19 C-18.42 3.17 -17.61 2.95 -14.19 2.75 C-10.95 2.48 -8.54 1.93 -5.62 0.5 C-2.44 -0.81 -2.44 -0.81 0 0 Z " fill="#C1B48E" transform="translate(55.4375,40.8125)"/>
<path d="M0 0 C0.33 0 0.66 0 1 0 C1 4.62 1 9.24 1 14 C0.34 14 -0.32 14 -1 14 C-1 14.66 -1 15.32 -1 16 C-2.32 16 -3.64 16 -5 16 C-5 16.66 -5 17.32 -5 18 C-7.97 18.33 -10.94 18.66 -14 19 C-13 16 -13 16 -10.62 14.31 C-8 13 -8 13 -5 13 C-4.67 11.35 -4.34 9.7 -4 8 C-3.34 8 -2.68 8 -2 8 C-1.34 5.36 -0.68 2.72 0 0 Z " fill="#B2C8DE" transform="translate(72,121)"/>
<path d="M0 0 C0.66 0 1.32 0 2 0 C2 1.32 2 2.64 2 4 C2.66 4 3.32 4 4 4 C4 4.66 4 5.32 4 6 C4.99 6.66 5.98 7.32 7 8 C7 8.66 7 9.32 7 10 C5.68 10 4.36 10 3 10 C3 9.34 3 8.68 3 8 C2.71 8.16 2.71 8.16 1.25 9 C-1 10 -1 10 -5 10 C-5 9.34 -5 8.68 -5 8 C-5.6 8.33 -6.2 8.66 -6.81 9 C-9 10 -9 10 -12 10 C-11.34 8.68 -10.68 7.36 -10 6 C-9.34 6 -8.68 6 -8 6 C-8 5.34 -8 4.68 -8 4 C-5.36 4 -2.72 4 0 4 C0 2.68 0 1.36 0 0 Z " fill="#A6C1E0" transform="translate(118,127)"/>
<path d="M0 0 C0.99 0.99 1.98 1.98 3 3 C2.74 5.67 2.2 7.6 1 10 C1.66 10 2.32 10 3 10 C3.31 9.05 3.62 8.1 3.94 7.12 C5 4 5 4 6 2 C7.32 2 8.64 2 10 2 C10.33 4.31 10.66 6.62 11 9 C10.01 9.33 9.02 9.66 8 10 C6.29 11.63 4.62 13.29 3 15 C3 14.34 3 13.68 3 13 C2.01 13 1.02 13 0 13 C0 8.71 0 4.42 0 0 Z " fill="#616468" transform="translate(88,87)"/>
<path d="M0 0 C0 1.32 0 2.64 0 4 C1.32 4.66 2.64 5.32 4 6 C3.34 6 2.68 6 2 6 C2 6.99 2 7.98 2 9 C-2.83 9.08 -7.24 8.95 -12 8 C-12 7.34 -12 6.68 -12 6 C-10.68 6 -9.36 6 -8 6 C-8 4.68 -8 3.36 -8 2 C-8 1.34 -8 0.68 -8 0 C-4.95 -0.98 -3.05 -0.98 0 0 Z " fill="#B9A977" transform="translate(134,44)"/>
<path d="M0 0 C0.99 0.33 1.98 0.66 3 1 C3.94 3.02 4.52 5.06 5.16 7.19 C5.43 7.79 5.71 8.38 6 9 C6.99 9.33 7.98 9.66 9 10 C9 12.97 9 15.94 9 19 C7.35 19 5.7 19 4 19 C3.67 18.01 3.34 17.02 3 16 C4.65 16.33 6.3 16.66 8 17 C7.34 16.44 6.68 15.89 6 15.31 C4 13 4 13 3.75 10.25 C3.83 9.51 3.91 8.77 4 8 C3.34 8 2.68 8 2 8 C1 14.75 1 14.75 1 17 C0.34 17 -0.32 17 -1 17 C-1.12 11.22 -0.83 5.72 0 0 Z " fill="#737C8C" transform="translate(45,93)"/>
<path d="M0 0 C0.66 0 1.32 0 2 0 C2.08 0.95 2.16 1.9 2.25 2.88 C3 6 3 6 5 7.25 C5.66 7.5 6.32 7.75 7 8 C7.33 8.66 7.66 9.32 8 10 C8.66 9.67 9.32 9.34 10 9 C12 11 12 11 12.19 14.81 C12.11 17.97 11.77 20.92 11 24 C10.34 24 9.68 24 9 24 C7.74 21.48 7.9 19.69 7.94 16.88 C7.95 15.96 7.96 15.05 7.96 14.12 C7.98 13.42 7.99 12.72 8 12 C7.34 12 6.68 12 6 12 C6 11.34 6 10.68 6 10 C5.01 10 4.02 10 3 10 C3 9.01 3 8.02 3 7 C1.68 6.34 0.36 5.68 -1 5 C-0.67 3.35 -0.34 1.7 0 0 Z " fill="#929294" transform="translate(33,82)"/>
<path d="M0 0 C0.99 0 1.98 0 3 0 C5.33 3.63 5.16 6.77 5 11 C3.68 11 2.36 11 1 11 C1 11.99 1 12.98 1 14 C-1.31 14.33 -3.62 14.66 -6 15 C-5.67 13.68 -5.34 12.36 -5 11 C-5 11.66 -5 12.32 -5 13 C-4.34 12.67 -3.68 12.34 -3 12 C-2.67 11.01 -2.34 10.02 -2 9 C-1.34 8.67 -0.68 8.34 0 8 C0.33 7.01 0.66 6.02 1 5 C0.01 5.33 -0.98 5.66 -2 6 C-1.12 1.12 -1.12 1.12 0 0 Z " fill="#616761" transform="translate(75,24)"/>
<path d="M0 0 C0 1.32 0 2.64 0 4 C1.32 4.33 2.64 4.66 4 5 C4 5.99 4 6.98 4 8 C-1.26 12 -1.26 12 -4 12 C-4 10.68 -4 9.36 -4 8 C-3.34 8 -2.68 8 -2 8 C-2 7.34 -2 6.68 -2 6 C-3.98 6 -5.96 6 -8 6 C-8.66 4.68 -9.32 3.36 -10 2 C-6.36 -0.43 -4.29 -0.16 0 0 Z " fill="#B7C9DE" transform="translate(100,137)"/>
<path d="M0 0 C2.86 1.28 5.07 2.49 7 5 C7 6.32 7 7.64 7 9 C6.2 9.29 5.39 9.58 4.56 9.88 C2 11 2 11 1 13 C0.17 12.67 0.17 12.67 -4 11 C-4 10.34 -4 9.68 -4 9 C-3.34 9 -2.68 9 -2 9 C-2 6.69 -2 4.38 -2 2 C-1.34 2 -0.68 2 0 2 C0 1.34 0 0.68 0 0 Z " fill="#778192" transform="translate(61,108)"/>
<path d="M0 0 C2.64 0 5.28 0 8 0 C10 6.88 10 6.88 10 8 C10.66 8 11.32 8 12 8 C11.67 9.32 11.34 10.64 11 12 C10.01 12 9.02 12 8 12 C8 12.99 8 13.98 8 15 C7.34 15 6.68 15 6 15 C6.33 13.35 6.66 11.7 7 10 C5.68 10 4.36 10 3 10 C3 7.36 3 4.72 3 2 C2.01 1.67 1.02 1.34 0 1 C0 0.67 0 0.34 0 0 Z " fill="#AC9674" transform="translate(130,60)"/>
<path d="M0 0 C0.03 1.58 0.05 3.17 0.06 4.75 C0.07 5.63 0.09 6.51 0.1 7.42 C0.01 9.78 -0.33 11.74 -1 14 C-2.65 14.33 -4.3 14.66 -6 15 C-6.03 13.04 -6.05 11.08 -6.06 9.12 C-6.07 8.03 -6.09 6.94 -6.1 5.82 C-6 3 -6 3 -5 1 C-2 0 -2 0 0 0 Z " fill="#738998" transform="translate(84,76)"/>
<path d="M0 0 C0.33 0 0.66 0 1 0 C1 3.3 1 6.6 1 10 C1.33 10 1.66 10 2 10 C2 16.93 2 23.86 2 31 C-1 28 -1 28 -2 25 C-2.66 25 -3.32 25 -4 25 C-3.71 23.84 -3.42 22.69 -3.12 21.5 C-1.53 14.42 -0.83 7.2 0 0 Z " fill="#D0DBE2" transform="translate(86,106)"/>
<path d="M0 0 C0.3 0.1 0.3 0.1 1.81 0.62 C1.81 2.61 1.81 4.58 1.81 6.62 C1.15 5.97 0.49 5.31 -0.19 4.62 C-2.35 4.21 -2.35 4.21 -4.81 4 C-5.63 3.93 -6.45 3.85 -7.29 3.77 C-7.92 3.72 -8.54 3.68 -9.19 3.62 C-9.5 4.57 -9.81 5.52 -10.12 6.5 C-11.19 9.62 -11.19 9.62 -12.19 11.62 C-13.51 11.62 -14.83 11.62 -16.19 11.62 C-16.19 10.97 -16.19 10.31 -16.19 9.62 C-17.18 9.95 -18.17 10.28 -19.19 10.62 C-19.19 9.97 -19.19 9.31 -19.19 8.62 C-17.54 8.3 -15.89 7.97 -14.19 7.62 C-14.19 6.97 -14.19 6.31 -14.19 5.62 C-13.53 5.62 -12.87 5.62 -12.19 5.62 C-12.19 4.31 -12.19 2.98 -12.19 1.62 C-11.09 1.67 -10 1.71 -8.88 1.75 C-5.15 1.62 -3.39 -0.58 0 0 Z " fill="#D7E0EE" transform="translate(41.1875,117.375)"/>
<path d="M0 0 C1.32 0.66 2.64 1.32 4 2 C3.38 2.27 2.76 2.54 2.12 2.81 C0 4 0 4 -2 7 C-4.86 7.51 -4.86 7.51 -8.31 7.69 C-9.44 7.75 -10.57 7.82 -11.74 7.89 C-14.5 7.98 -17.24 8.03 -20 8 C-19.67 7.01 -19.34 6.02 -19 5 C-18.34 5 -17.68 5 -17 5 C-17 4.34 -17 3.68 -17 3 C-13.37 3 -9.74 3 -6 3 C-6.33 3.99 -6.66 4.98 -7 6 C-6.01 6 -5.02 6 -4 6 C-3.34 4.68 -2.68 3.36 -2 2 C-1.34 2 -0.68 2 0 2 C0 1.34 0 0.68 0 0 Z " fill="#A08E67" transform="translate(54,62)"/>
<path d="M0 0 C0.66 0 1.32 0 2 0 C2 0.66 2 1.32 2 2 C2.66 2 3.32 2 4 2 C4.33 1.34 4.66 0.68 5 0 C5.33 5.94 5.66 11.88 6 18 C4.68 17.34 3.36 16.68 2 16 C2 14.68 2 13.36 2 12 C1.34 12 0.68 12 0 12 C0 8.04 0 4.08 0 0 Z " fill="#9CBAD0" transform="translate(68,96)"/>
<path d="M0 0 C0 1.65 0 3.3 0 5 C-0.99 5.33 -1.98 5.66 -3 6 C-3 6.66 -3 7.32 -3 8 C-2.34 8 -1.68 8 -1 8 C-1 8.99 -1 9.98 -1 11 C0.32 11 1.64 11 3 11 C3 9.68 3 8.36 3 7 C3.99 6.67 4.98 6.34 6 6 C5.52 7.79 5.04 9.58 4.56 11.38 C4.3 12.37 4.03 13.37 3.75 14.4 C3 17 3 17 2 19 C1.01 19 0.02 19 -1 19 C-1.12 18.4 -1.24 17.79 -1.37 17.17 C-1.53 16.37 -1.7 15.57 -1.88 14.75 C-2.04 13.96 -2.2 13.17 -2.37 12.36 C-3 10 -3 10 -4.09 7.87 C-5.36 5.26 -4.88 3.7 -4 1 C-2 0 -2 0 0 0 Z " fill="#CFCBC8" transform="translate(127,89)"/>
<path d="M0 0 C-0.57 3.96 -1.58 6.8 -4 10 C-6.94 11.54 -8.67 12 -12 12 C-12.33 11.34 -12.66 10.68 -13 10 C-15.56 9.38 -15.56 9.38 -18 9 C-18 8.67 -18 8.34 -18 8 C-14.7 7.34 -11.4 6.68 -8 6 C-7.67 4.68 -7.34 3.36 -7 2 C-4.42 0.28 -3.15 0 0 0 Z " fill="#E4EAF1" transform="translate(142,131)"/>
<path d="M0 0 C1.69 0.09 3.38 0.25 5.06 0.44 C5.52 0.49 5.52 0.49 7.85 0.75 C8.56 0.83 9.27 0.91 10 1 C9.67 2.65 9.34 4.3 9 6 C8.34 6 7.68 6 7 6 C7 5.34 7 4.68 7 4 C6.19 4.3 5.38 4.6 4.55 4.91 C3.48 5.29 2.41 5.67 1.31 6.06 C0.26 6.45 -0.8 6.83 -1.89 7.22 C-5.09 8.02 -6.87 7.92 -10 7 C-9.01 6.67 -8.02 6.34 -7 6 C-7 5.34 -7 4.68 -7 4 C-6.52 3.76 -6.52 3.76 -4.06 2.56 C-1 1 -1 1 0 0 Z " fill="#D2B86F" transform="translate(109,59)"/>
<path d="M0 0 C0.33 0 0.66 0 1 0 C1.33 4.29 1.66 8.58 2 13 C2.66 13 3.32 13 4 13 C4.33 12.34 4.66 11.68 5 11 C6.33 16.97 6.09 22.93 6 29 C5.34 28.67 4.68 28.34 4 28 C3.59 25.93 3.59 25.93 3.38 23.44 C3.3 22.61 3.23 21.78 3.15 20.93 C3.12 20.61 3.12 20.61 3 19 C2.34 19 1.68 19 1 19 C1 18.34 1 17.68 1 17 C0.34 17 -0.32 17 -1 17 C-0.67 11.39 -0.34 5.78 0 0 Z " fill="#87AAC2" transform="translate(69,79)"/>
<path d="M0 0 C0.66 0 1.32 0 2 0 C2 3.63 2 7.26 2 11 C2.66 11.33 3.32 11.66 4 12 C3.34 13.98 2.68 15.96 2 18 C1.01 18 0.02 18 -1 18 C-1 17.34 -1 16.68 -1 16 C-1.66 16 -2.32 16 -3 16 C-3 16.66 -3 17.32 -3 18 C-3.66 17.67 -4.32 17.34 -5 17 C-4.69 16.09 -4.38 15.19 -4.06 14.25 C-3.27 11.83 -2.57 9.47 -2 7 C-1.34 7 -0.68 7 0 7 C0 4.69 0 2.38 0 0 Z " fill="#CFC2B4" transform="translate(119,88)"/>
<path d="M0 0 C0.5 0.01 0.5 0.01 3.06 0.04 C4.07 0.04 5.08 0.05 6.12 0.06 C6.52 0.07 6.52 0.07 8.5 0.1 C8.29 0.8 8.09 1.5 7.88 2.22 C6.27 7.87 5.05 13.26 4.5 19.1 C4.17 19.1 3.84 19.1 3.5 19.1 C3.17 14.15 2.84 9.2 2.5 4.1 C0.85 3.77 -0.8 3.44 -2.5 3.1 C-2.83 4.42 -3.16 5.74 -3.5 7.1 C-3.55 5.1 -3.54 3.1 -3.5 1.1 C-2.5 0.1 -2.5 0.1 0 0 Z " fill="#D4D5CA" transform="translate(72.50390625,71.90234375)"/>
<path d="M0 0 C4.96 1.27 7.81 2.96 11 7 C11.31 9.81 11.31 9.81 11 12 C8 11 8 11 6 8 C3.44 7.38 3.44 7.38 1 7 C0 6 0 6 -0.06 2.94 C-0.04 1.97 -0.02 1 0 0 Z " fill="#9C9FA5" transform="translate(57,101)"/>
<path d="M0 0 C2.31 0.33 4.62 0.66 7 1 C5.68 2.65 4.36 4.3 3 6 C3.66 6.33 4.32 6.66 5 7 C2.03 7.66 -0.94 8.32 -4 9 C-4.33 8.01 -4.66 7.02 -5 6 C-6.85 5.27 -6.85 5.27 -9.06 4.81 C-9.8 4.65 -10.53 4.5 -11.29 4.33 C-11.85 4.22 -12.42 4.11 -13 4 C-13 3.34 -13 2.68 -13 2 C-8.71 2 -4.42 2 0 2 C0 1.34 0 0.68 0 0 Z " fill="#DAC0A0" transform="translate(68,54)"/>
<path d="M0 0 C4.29 0 8.58 0 13 0 C13 0.66 13 1.32 13 2 C12.01 2.33 11.02 2.66 10 3 C11.32 3.33 12.64 3.66 14 4 C14 4.66 14 5.32 14 6 C12.02 6 10.04 6 8 6 C8.66 6.33 9.32 6.66 10 7 C10 8.65 10 10.3 10 12 C9.67 11.01 9.34 10.02 9 9 C7.35 9 5.7 9 4 9 C4.33 7.02 4.66 5.04 5 3 C3.35 2.67 1.7 2.34 0 2 C0 1.34 0 0.68 0 0 Z " fill="#DDC488" transform="translate(123,55)"/>
<path d="M0 0 C6.52 -0.37 6.52 -0.37 8.94 1.5 C9.29 2 9.64 2.49 10 3 C9.67 3.99 9.34 4.98 9 6 C7.52 5.67 7.52 5.67 0 4 C0 2.68 0 1.36 0 0 Z " fill="#D4E0EF" transform="translate(45,154)"/>
<path d="M0 0 C0 4.29 0 8.58 0 13 C-2 12 -2 12 -2.74 10.04 C-2.83 9.64 -2.83 9.64 -3.31 7.62 C-3.51 6.83 -3.72 6.04 -3.93 5.23 C-4 3 -4 3 -2.61 1.21 C-1 0 -1 0 0 0 Z " fill="#A9ABA7" transform="translate(160,72)"/>
<path d="M0 0 C1.98 0.66 3.96 1.32 6 2 C6 2.66 6 3.32 6 4 C3.69 4.66 1.38 5.32 -1 6 C-0.67 4.02 -0.34 2.04 0 0 Z " fill="#DEE6F0" transform="translate(142,134)"/>
<path d="" fill="#F8F7F3" transform="translate(0,0)"/>
<path d="" fill="#F4F6F7" transform="translate(0,0)"/>
<path d="" fill="#FAF5F1" transform="translate(0,0)"/>
<path d="" fill="#F9F6F3" transform="translate(0,0)"/>
<path d="" fill="#F4F5F4" transform="translate(0,0)"/>
</svg>
