<?xml version="1.0" encoding="UTF-8"?>
<!-- Generator: visioncortex VTracer 0.6.12 -->
<svg version="1.1" xmlns="http://www.w3.org/2000/svg" width="131" height="151">
<path d="M0 0 C0.99 0.33 1.98 0.66 3 1 C3.16 2.16 3.16 2.16 4 8 C4.99 8.33 5.98 8.66 7 9 C7 9.66 7 10.32 7 11 C6.34 11 5.68 11 5 11 C5 11.66 5 12.32 5 13 C5.83 13.16 5.83 13.16 10 14 C9.98 14.97 9.96 15.94 9.94 16.94 C10 20 10 20 11 21 C11.16 20.51 11.16 20.51 12 18 C12.66 18 13.32 18 14 18 C15.56 20.81 15.56 20.81 17 24 C16.84 24.49 16.84 24.49 16 27 C15.34 27 14.68 27 14 27 C14 27.66 14 28.32 14 29 C14.8 29.25 15.61 29.5 16.44 29.75 C19 31 19 31 19.75 33 C19.83 33.66 19.92 34.32 20 35 C20.33 35.66 20.66 36.32 21 37 C21.5 37.16 21.5 37.16 24 38 C23.94 37.22 23.88 36.43 23.81 35.62 C23.84 35.19 23.84 35.19 24 33 C24.99 32.34 25.98 31.68 27 31 C27.16 30.51 27.16 30.51 28 28 C28.99 28 29.98 28 31 28 C31.19 28.55 31.39 29.11 31.59 29.68 C31.72 30.04 31.72 30.04 32.38 31.88 C32.63 32.59 32.89 33.31 33.15 34.05 C34 36 34 36 36 38 C36 38.99 36 39.98 36 41 C35.34 41 34.68 41 34 41 C34 41.66 34 42.32 34 43 C34.46 43.1 34.46 43.1 36.77 43.59 C37.96 43.85 39.15 44.11 40.38 44.38 C41.56 44.63 42.74 44.89 43.96 45.15 C47 46 47 46 49 48 C49 48.99 49 49.98 49 51 C49.74 51.1 50.48 51.21 51.25 51.31 C54.17 52.04 55.73 53.07 58 55 C57.62 61.41 57.62 61.41 54.62 64.25 C51.79 67.22 51.45 68.49 50.56 72.38 C49.24 78.04 47.08 80.92 43 85 C43.51 85.4 44.02 85.8 44.55 86.22 C46 88 46 88 45.89 90.16 C45.68 90.93 45.47 91.7 45.25 92.5 C45.05 93.27 44.85 94.05 44.64 94.84 C44.13 96.57 43.57 98.29 43 100 C42.34 100 41.68 100 41 100 C39.43 94.27 38.76 89.84 40 84 C39.01 84 38.02 84 37 84 C36.82 84.57 36.64 85.14 36.45 85.72 C35.23 89.46 33.98 93.04 32.38 96.62 C31 100 31 100 30.56 103.81 C30.38 104.86 30.19 105.92 30 107 C27.94 108.44 27.94 108.44 26 109 C26.19 109.78 26.37 110.57 26.56 111.38 C27 114 27 114 26 116 C24.13 115.88 24.13 115.88 22 115 C20.4 111.4 20 108.97 20 105 C19.34 105 18.68 105 18 105 C17.84 105.5 17.84 105.5 17 108 C16.5 108.16 16.5 108.16 14 109 C13.12 112.05 13.12 112.05 12.44 115.88 C11.2 122.71 11.2 122.71 9 126 C8.62 125.97 8.62 125.97 6.69 125.81 C5.8 125.87 4.91 125.94 4 126 C3.17 126.99 2.35 127.98 1.5 129 C-1 132 -1 132 -3.5 132.69 C-7.24 131.66 -8.62 130.06 -11 127 C-13.39 121.6 -14.65 115.73 -16 110 C-17.32 110 -18.64 110 -20 110 C-19.67 110.5 -19.67 110.5 -18 113 C-17.8 115.26 -17.8 115.26 -17.88 117.69 C-17.89 118.5 -17.91 119.3 -17.93 120.14 C-17.95 120.75 -17.98 121.37 -18 122 C-18.99 122 -19.98 122 -21 122 C-21.31 120.6 -21.63 119.21 -21.94 117.81 C-22.12 116.98 -22.31 116.15 -22.5 115.3 C-22.85 113.71 -23.16 112.11 -23.44 110.5 C-25.11 103.08 -28.11 96.02 -31 89 C-32.12 92.75 -32.12 92.75 -31 95 C-30.96 97.33 -30.96 99.67 -31 102 C-31.49 102.16 -31.49 102.16 -34 103 C-33.67 104.32 -33.34 105.64 -33 107 C-33.99 107 -34.98 107 -36 107 C-36.7 105.13 -37.39 103.25 -38.06 101.38 C-38.45 100.33 -38.83 99.29 -39.22 98.21 C-40.07 94.7 -39.65 92.51 -39 89 C-39.56 86.91 -39.56 86.91 -40.44 85.06 C-42.1 81.15 -42.26 78.22 -42 74 C-42.5 74.16 -42.5 74.16 -45 75 C-49.11 69.96 -50.47 67.65 -50 61 C-48.5 59.06 -48.5 59.06 -47 58 C-47.99 57.67 -48.98 57.34 -50 57 C-50.33 55.35 -50.66 53.7 -51 52 C-51.66 52 -52.32 52 -53 52 C-53.75 49.25 -53.75 49.25 -54 46 C-52.25 43.62 -52.25 43.62 -50 42 C-49.01 42 -48.02 42 -47 42 C-47 41.34 -47 40.68 -47 40 C-45.35 39.34 -43.7 38.68 -42 38 C-42.66 36.68 -43.32 35.36 -44 34 C-42.68 33.34 -41.36 32.68 -40 32 C-40 31.01 -40 30.02 -40 29 C-39.34 29 -38.68 29 -38 29 C-37.67 27.02 -37.34 25.04 -37 23 C-36.34 23 -35.68 23 -35 23 C-32.97 26.73 -32 28.67 -32 33 C-29.36 33.33 -26.72 33.66 -24 34 C-23.67 32.02 -23.34 30.04 -23 28 C-21.68 27.67 -20.36 27.34 -19 27 C-18.34 28.65 -17.68 30.3 -17 32 C-15.68 32 -14.36 32 -13 32 C-13.66 31.67 -14.32 31.34 -15 31 C-15 30.34 -15 29.68 -15 29 C-13.68 28.67 -12.36 28.34 -11 28 C-10.9 27.22 -10.79 26.43 -10.69 25.62 C-10 23 -10 23 -7 21 C-7.66 20.34 -8.32 19.68 -9 19 C-8.94 17 -8.94 17 -8 15 C-5.5 13.81 -5.5 13.81 -3 13 C-2.67 12.67 -2.34 12.34 -2 12 C-2.66 11.67 -3.32 11.34 -4 11 C-4 10.01 -4 9.02 -4 8 C-3.34 7.67 -2.68 7.34 -2 7 C-1.27 4.69 -0.6 2.35 0 0 Z M29 67 C29 67.66 29 68.32 29 69 C29.66 69 30.32 69 31 69 C31 68.34 31 67.68 31 67 C30.34 67 29.68 67 29 67 Z " fill="#948861" transform="translate(64,10)"/>
<path d="M0 0 C2.97 0 5.94 0 9 0 C9 0.66 9 1.32 9 2 C8.34 2 7.68 2 7 2 C7 2.66 7 3.32 7 4 C5.02 4 3.04 4 1 4 C1 4.99 1 5.98 1 7 C0.34 7 -0.32 7 -1 7 C-0.34 7.99 0.32 8.98 1 10 C1.38 12.45 1.38 12.45 1.56 15.12 C1.9 19.9 1.9 19.9 3 21 C3.04 23.33 3.04 25.67 3 28 C3.99 28 4.98 28 6 28 C5.79 27.09 5.59 26.19 5.38 25.25 C4.55 19.76 5.93 14.38 7 9 C10.47 7.84 13.36 7.93 17 8 C17 8.66 17 9.32 17 10 C15.68 10.33 14.36 10.66 13 11 C12.34 13.97 11.68 16.94 11 20 C11.66 20 12.32 20 13 20 C13 18.68 13 17.36 13 16 C13.66 16 14.32 16 15 16 C15.66 14.68 16.32 13.36 17 12 C17.13 17.54 17.13 17.54 16.44 20.06 C15.87 22.58 16.46 24.51 17 27 C16.84 27.16 16.84 27.16 16 28 C15.6 30.69 15.25 33.36 14.94 36.06 C14.85 36.82 14.76 37.58 14.66 38.36 C14.44 40.24 14.22 42.12 14 44 C14.33 44.16 14.33 44.16 16 45 C16 42.69 16 40.38 16 38 C16.31 37.99 16.31 37.99 17.9 37.92 C18.31 37.89 18.31 37.89 20.38 37.75 C21.19 37.7 22 37.66 22.84 37.61 C25 37 25 37 26.29 34.95 C26.52 34.31 26.76 33.66 27 33 C27.66 33.99 28.32 34.98 29 36 C29.66 34.68 30.32 33.36 31 32 C31.66 32 32.32 32 33 32 C34.19 33.56 34.19 33.56 35 36 C34.31 37.73 33.62 39.46 32.79 41.12 C32 43 32 43 31.56 46.81 C31.47 47.34 31.47 47.34 31 50 C28.94 51.44 28.94 51.44 27 52 C27.19 52.78 27.37 53.57 27.56 54.38 C28 57 28 57 27 59 C25.13 58.88 25.13 58.88 23 58 C21.4 54.4 21 51.97 21 48 C20.34 48 19.68 48 19 48 C18.67 48.99 18.34 49.98 18 51 C17.5 51.16 17.5 51.16 15 52 C14.12 55.05 14.12 55.05 13.44 58.88 C12.2 65.71 12.2 65.71 10 69 C9.62 68.97 9.62 68.97 7.69 68.81 C6.8 68.87 5.91 68.94 5 69 C4.17 69.99 3.35 70.98 2.5 72 C0 75 0 75 -2.5 75.69 C-6.24 74.66 -7.62 73.06 -10 70 C-12.39 64.6 -13.65 58.73 -15 53 C-16.32 53 -17.64 53 -19 53 C-18.34 53.99 -17.68 54.98 -17 56 C-16.8 58.26 -16.8 58.26 -16.88 60.69 C-16.89 61.5 -16.91 62.3 -16.93 63.14 C-16.95 63.75 -16.98 64.37 -17 65 C-17.99 65 -18.98 65 -20 65 C-20.31 63.6 -20.63 62.21 -20.94 60.81 C-21.12 59.98 -21.31 59.15 -21.5 58.3 C-21.85 56.71 -22.16 55.11 -22.44 53.5 C-24.11 46.08 -27.11 39.02 -30 32 C-31.12 35.75 -31.12 35.75 -30 38 C-29.96 40.33 -29.96 42.67 -30 45 C-30.49 45.16 -30.49 45.16 -33 46 C-32.67 47.32 -32.34 48.64 -32 50 C-32.99 50 -33.98 50 -35 50 C-35.7 48.13 -36.39 46.25 -37.06 44.38 C-37.45 43.33 -37.83 42.29 -38.22 41.21 C-39.07 37.7 -38.65 35.51 -38 32 C-38.56 29.91 -38.56 29.91 -39.44 28.06 C-41.1 24.15 -41.26 21.22 -41 17 C-41.99 17.33 -42.98 17.66 -44 18 C-45.32 16.35 -46.64 14.7 -48 13 C-47.67 12.34 -47.34 11.68 -47 11 C-45.02 12.65 -43.04 14.3 -41 16 C-41 15.01 -41 14.02 -41 13 C-40.01 13 -39.02 13 -38 13 C-37.55 14.13 -37.09 15.27 -36.62 16.44 C-35 20 -35 20 -33 21 C-33.33 22.98 -33.66 24.96 -34 27 C-33.01 27.33 -32.02 27.66 -31 28 C-31 25.71 -31.05 23.42 -31.12 21.12 C-31.14 17.67 -30.57 15.13 -29 12 C-28.01 12.33 -27.02 12.66 -26 13 C-25.67 15.64 -25.34 18.28 -25 21 C-25.99 21 -26.98 21 -28 21 C-28 21.99 -28 22.98 -28 24 C-26.35 24 -24.7 24 -23 24 C-21 28 -19 32 -17 36 C-16.34 35.01 -15.68 34.02 -15 33 C-14.67 33.16 -14.67 33.16 -13 34 C-13.33 33.01 -13.66 32.02 -14 31 C-14.07 29.44 -14.09 27.87 -14.06 26.31 C-14.05 25.5 -14.04 24.7 -14.04 23.86 C-14.02 23.25 -14.01 22.63 -14 22 C-13.84 22.66 -13.84 22.66 -13 26 C-11.68 26.33 -10.36 26.66 -9 27 C-8.84 26.5 -8.84 26.5 -8 24 C-7.88 24.97 -7.75 25.94 -7.62 26.94 C-7.42 27.95 -7.21 28.96 -7 30 C-6.34 30.33 -5.68 30.66 -5 31 C-5.33 24.4 -5.66 17.8 -6 11 C-6.99 10.67 -7.98 10.34 -9 10 C-9 9.34 -9 8.68 -9 8 C-8.34 8 -7.68 8 -7 8 C-6.67 6.35 -6.34 4.7 -6 3 C-3.69 3 -1.38 3 1 3 C0.84 2.5 0.84 2.5 0 0 Z " fill="#989AA2" transform="translate(63,67)"/>
<path d="M0 0 C0.99 0 1.98 0 3 0 C3.19 0.55 3.39 1.11 3.59 1.68 C3.72 2.04 3.72 2.04 4.38 3.88 C4.63 4.59 4.89 5.31 5.15 6.05 C6 8 6 8 8 10 C8 10.99 8 11.98 8 13 C7.34 13 6.68 13 6 13 C6 13.66 6 14.32 6 15 C6.92 15.19 7.83 15.39 8.77 15.59 C9.96 15.85 11.15 16.11 12.38 16.38 C12.97 16.5 12.97 16.5 15.96 17.15 C19 18 19 18 21 20 C21 20.99 21 21.98 21 23 C21.74 23.1 22.48 23.21 23.25 23.31 C26.17 24.04 27.73 25.07 30 27 C29.62 33.41 29.62 33.41 26.62 36.25 C23.79 39.22 23.45 40.49 22.56 44.38 C21.24 50.04 19.08 52.92 15 57 C15.51 57.4 16.02 57.8 16.55 58.22 C18 60 18 60 17.89 62.16 C17.68 62.93 17.47 63.7 17.25 64.5 C17.05 65.27 16.85 66.05 16.64 66.84 C16.13 68.57 15.57 70.29 15 72 C14.34 72 13.68 72 13 72 C11.43 66.27 10.76 61.84 12 56 C11.01 56 10.02 56 9 56 C8.34 58.64 7.68 61.28 7 64 C5 61 5 61 5.24 58.74 C5.45 57.94 5.66 57.14 5.88 56.31 C6.08 55.5 6.28 54.7 6.49 53.86 C6.66 53.25 6.83 52.63 7 52 C4.19 52.62 4.19 52.62 1 54 C-0.69 57.06 -0.69 57.06 -2 60 C-2.5 60.16 -2.5 60.16 -5 61 C-6.32 58.36 -6.1 56.32 -6.06 53.38 C-6.05 52.37 -6.04 51.37 -6.04 50.34 C-6.02 49.57 -6.01 48.79 -6 48 C-5.34 48 -4.68 48 -4 48 C-3.67 48.99 -3.34 49.98 -3 51 C-2.34 49.35 -1.68 47.7 -1 46 C-0.34 46 0.32 46 1 46 C1 45.34 1 44.68 1 44 C0.34 44 -0.32 44 -1 44 C-1.33 41.69 -1.66 39.38 -2 37 C-3.65 37 -5.3 37 -7 37 C-6.34 35.35 -5.68 33.7 -5 32 C-9.29 31.67 -13.58 31.34 -18 31 C-17 25 -17 25 -15.03 23.54 C-9.07 21.39 -4.34 20.59 2 21 C1.34 18.69 0.68 16.38 0 14 C0.66 14 1.32 14 2 14 C1.67 12.68 1.34 11.36 1 10 C0.17 9.84 0.17 9.84 -4 9 C-4 7.68 -4 6.36 -4 5 C-3.01 4.34 -2.02 3.68 -1 3 C-0.67 2.01 -0.34 1.02 0 0 Z M1 39 C1 39.66 1 40.32 1 41 C1.66 41 2.32 41 3 41 C3 40.34 3 39.68 3 39 C2.34 39 1.68 39 1 39 Z " fill="#CBB67B" transform="translate(92,38)"/>
<path d="M0 0 C0.66 0.33 1.32 0.66 2 1 C2.24 8.62 1.84 15.59 0 23 C1.32 23.33 2.64 23.66 4 24 C4 24.99 4 25.98 4 27 C6.81 26.94 6.81 26.94 10 26 C11.69 22.5 11.69 22.5 13 19 C13.99 18.67 14.98 18.34 16 18 C16.66 18.33 17.32 18.66 18 19 C18 16.69 18 14.38 18 12 C18.63 11.97 19.25 11.95 19.9 11.92 C20.72 11.87 21.53 11.81 22.38 11.75 C23.19 11.7 24 11.66 24.84 11.61 C27 11 27 11 28.29 8.95 C28.52 8.31 28.76 7.66 29 7 C29.66 7.99 30.32 8.98 31 10 C31.66 8.68 32.32 7.36 33 6 C33.66 6 34.32 6 35 6 C36.19 7.56 36.19 7.56 37 10 C36.31 11.73 35.62 13.46 34.79 15.12 C34 17 34 17 33.56 20.81 C33.38 21.86 33.19 22.92 33 24 C30.94 25.44 30.94 25.44 29 26 C29.09 26.39 29.09 26.39 29.56 28.38 C30 31 30 31 29 33 C27.12 32.88 27.12 32.88 25 32 C23.4 28.4 23 25.97 23 22 C22.34 22 21.68 22 21 22 C20.84 22.5 20.84 22.5 20 25 C19.01 25.33 18.02 25.66 17 26 C16.12 29.05 16.12 29.05 15.44 32.88 C14.2 39.71 14.2 39.71 12 43 C11.62 42.97 11.62 42.97 9.69 42.81 C8.8 42.87 7.91 42.94 7 43 C6.17 43.99 5.35 44.98 4.5 46 C2 49 2 49 -0.5 49.69 C-4.24 48.66 -5.62 47.06 -8 44 C-10.39 38.6 -11.65 32.73 -13 27 C-14.32 27 -15.64 27 -17 27 C-16.34 27.99 -15.68 28.98 -15 30 C-14.8 32.26 -14.8 32.26 -14.88 34.69 C-14.89 35.5 -14.91 36.3 -14.93 37.14 C-14.94 37.44 -14.94 37.44 -15 39 C-15.99 39 -16.98 39 -18 39 C-18.31 37.6 -18.63 36.21 -18.94 34.81 C-19.03 34.4 -19.03 34.4 -19.5 32.3 C-19.85 30.71 -20.16 29.11 -20.44 27.5 C-21.16 24.27 -22.27 21.2 -23.38 18.09 C-24 16 -24 16 -24 13 C-23.01 12.67 -22.02 12.34 -21 12 C-19 14 -19 14 -18.88 16.62 C-18.92 17.41 -18.96 18.19 -19 19 C-18.01 19 -17.02 19 -16 19 C-16 17.68 -16 16.36 -16 15 C-15.34 15 -14.68 15 -14 15 C-14 16.32 -14 17.64 -14 19 C-13.01 18.67 -12.02 18.34 -11 18 C-10.34 18.33 -9.68 18.66 -9 19 C-8.67 17.35 -8.34 15.7 -8 14 C-6.35 14 -4.7 14 -3 14 C-3.33 11.36 -3.66 8.72 -4 6 C-2.68 6.33 -1.36 6.66 0 7 C0 4.69 0 2.38 0 0 Z " fill="#AEB3BF" transform="translate(61,93)"/>
<path d="M0 0 C2.13 0.45 4.25 0.91 6.38 1.38 C7.56 1.63 8.74 1.89 9.96 2.15 C13 3 13 3 15 5 C15 5.99 15 6.98 15 8 C15.37 8.05 15.37 8.05 17.25 8.31 C20.17 9.04 21.73 10.07 24 12 C23.62 18.41 23.62 18.41 20.62 21.25 C17.79 24.22 17.45 25.49 16.56 29.38 C15.24 35.04 13.08 37.92 9 42 C9.51 42.4 10.02 42.8 10.55 43.22 C12 45 12 45 11.89 47.16 C11.68 47.93 11.47 48.7 11.25 49.5 C11.05 50.27 10.85 51.05 10.64 51.84 C10.13 53.57 9.57 55.29 9 57 C8.34 57 7.68 57 7 57 C5.43 51.27 4.76 46.84 6 41 C5.01 41 4.02 41 3 41 C2.34 43.64 1.68 46.28 1 49 C-1.25 45.62 -1.15 45.2 -0.5 41.44 C-0.09 39.06 -0.09 39.06 0 37 C-0.66 36.34 -1.32 35.68 -2 35 C-1.88 33.06 -1.88 33.06 -1 31 C-0.36 30.57 0.28 30.13 0.94 29.69 C3.89 27.27 4.18 24.63 5 21 C5.67 23.67 6.33 26.33 7 29 C7.66 29 8.32 29 9 29 C9.12 28.64 9.12 28.64 9.75 26.81 C11.11 23.75 12.83 21.53 15 19 C14.01 18.67 13.02 18.34 12 18 C11.31 15.94 11.31 15.94 11 14 C12.65 14 14.3 14 16 14 C15.67 13.34 15.34 12.68 15 12 C13.76 12.02 12.53 12.04 11.25 12.06 C5.2 12.02 5.2 12.02 3 11 C0.75 8.44 0.75 8.44 -1 6 C-0.01 6 0.98 6 2 6 C1.34 4.02 0.68 2.04 0 0 Z " fill="#AEA79B" transform="translate(98,53)"/>
<path d="M0 0 C0 0.66 0 1.32 0 2 C-1.32 2.33 -2.64 2.66 -4 3 C-4.66 5.97 -5.32 8.94 -6 12 C-5.34 12 -4.68 12 -4 12 C-4 10.68 -4 9.36 -4 8 C-3.34 8 -2.68 8 -2 8 C-1.34 6.68 -0.68 5.36 0 4 C0.13 9.54 0.13 9.54 -0.56 12.06 C-1.13 14.58 -0.54 16.51 0 19 C-0.33 19.33 -0.66 19.66 -1 20 C-1.62 23.33 -2.2 26.66 -2.72 30.01 C-3.43 34.16 -4.31 36.78 -7 40 C-7.69 43.75 -7.69 43.75 -8 47 C-8.16 46.5 -8.16 46.5 -9 44 C-9.99 44.16 -9.99 44.16 -15 45 C-15.17 44.5 -15.17 44.5 -16 42 C-16.99 41.67 -17.98 41.34 -19 41 C-19.12 33.25 -19.12 33.25 -18 31 C-17.77 28.45 -17.58 25.93 -17.44 23.38 C-17.39 22.67 -17.35 21.96 -17.31 21.23 C-17.2 19.49 -17.1 17.74 -17 16 C-17.99 16.33 -18.98 16.66 -20 17 C-18.25 11.25 -18.25 11.25 -16 9 C-13.67 12.63 -13.84 15.77 -14 20 C-13.01 20 -12.02 20 -11 20 C-11.21 19.09 -11.41 18.19 -11.62 17.25 C-12.45 11.76 -11.07 6.38 -10 1 C-6.53 -0.16 -3.64 -0.07 0 0 Z " fill="#8F969F" transform="translate(80,75)"/>
<path d="M0 0 C0.81 0.11 1.62 0.22 2.45 0.34 C2.76 0.38 2.76 0.38 4.31 0.62 C3.98 1.94 3.65 3.27 3.31 4.62 C4.96 4.95 6.61 5.28 8.31 5.62 C8.31 7.94 8.31 10.25 8.31 12.62 C8.97 12.62 9.63 12.62 10.31 12.62 C10.31 13.28 10.31 13.94 10.31 14.62 C9.65 14.62 8.99 14.62 8.31 14.62 C7.65 17.59 6.99 20.56 6.31 23.62 C5.98 23.62 5.65 23.62 5.31 23.62 C5.31 21.31 5.31 19 5.31 16.62 C4.65 16.62 3.99 16.62 3.31 16.62 C3.64 20.25 3.97 23.89 4.31 27.62 C5.3 27.95 6.29 28.28 7.31 28.62 C7.6 27.68 7.89 26.73 8.19 25.75 C9.31 22.62 9.31 22.62 11.31 20.62 C12.96 20.62 14.61 20.62 16.31 20.62 C15.98 24.59 15.65 28.55 15.31 32.62 C14.65 32.3 13.99 31.97 13.31 31.62 C13.31 30.97 13.31 30.31 13.31 29.62 C12.65 29.62 11.99 29.62 11.31 29.62 C10.65 31.94 9.99 34.25 9.31 36.62 C8.98 36.62 8.65 36.62 8.31 36.62 C8.15 35.8 8.15 35.8 7.31 31.62 C7.13 32.26 6.94 32.9 6.75 33.56 C5.31 35.62 5.31 35.62 1.81 36.44 C-1.69 36.62 -1.69 36.62 -3.69 35.62 C-3.5 36.41 -3.32 37.19 -3.12 38 C-2.69 40.62 -2.69 40.62 -3.69 42.62 C-4.68 42.3 -5.67 41.97 -6.69 41.62 C-6.38 39.04 -6.07 36.46 -5.75 33.88 C-5.66 33.15 -5.58 32.42 -5.49 31.66 C-4.79 26.02 -4.79 26.02 -4.13 23.54 C-3.55 21.01 -4.11 19.13 -4.69 16.62 C-4.69 15.64 -4.69 14.64 -4.69 13.62 C-5.35 13.62 -6.01 13.62 -6.69 13.62 C-6.69 14.94 -6.69 16.27 -6.69 17.62 C-7.35 17.62 -8.01 17.62 -8.69 17.62 C-8.94 11 -8.94 11 -6.69 7.62 C-5.37 7.62 -4.05 7.62 -2.69 7.62 C-4.34 5.64 -5.99 3.67 -7.69 1.62 C-4.33 -0.61 -3.78 -0.55 0 0 Z " fill="#7C7565" transform="translate(82.6875,69.375)"/>
<path d="M0 0 C0.99 0.33 1.98 0.66 3 1 C3.33 3.31 3.66 5.62 4 8 C4.99 8.33 5.98 8.66 7 9 C7 9.66 7 10.32 7 11 C6.34 11 5.68 11 5 11 C5 11.66 5 12.32 5 13 C5.83 13.16 5.83 13.16 10 14 C9.98 14.97 9.96 15.94 9.94 16.94 C10 20 10 20 11 21 C11.33 20.01 11.66 19.02 12 18 C12.66 18 13.32 18 14 18 C15.56 20.81 15.56 20.81 17 24 C16.67 24.99 16.34 25.98 16 27 C15.34 27 14.68 27 14 27 C14 27.66 14 28.32 14 29 C14.8 29.25 15.61 29.5 16.44 29.75 C19 31 19 31 19.75 33 C19.83 33.66 19.91 34.32 20 35 C20.33 35.66 20.66 36.32 21 37 C21.99 37.33 22.98 37.66 24 38 C24 38.99 24 39.98 24 41 C24.66 41 25.32 41 26 41 C26 41.66 26 42.32 26 43 C23.36 43.66 20.72 44.32 18 45 C17.8 44.37 17.59 43.73 17.38 43.08 C16 41 16 41 13.18 40.17 C12.09 40.03 11 39.89 9.88 39.75 C8.78 39.6 7.68 39.45 6.55 39.3 C5.71 39.2 4.87 39.1 4 39 C4 38.34 4 37.68 4 37 C4.55 37.01 4.55 37.01 7.31 37.06 C11 37 11 37 14 36 C13.67 34.68 13.34 33.36 13 32 C12.34 32 11.68 32 11 32 C11 32.66 11 33.32 11 34 C8.36 34.33 5.72 34.66 3 35 C3 34.34 3 33.68 3 33 C3.66 33 4.32 33 5 33 C5.33 30.69 5.66 28.38 6 26 C6.66 26.66 7.32 27.32 8 28 C8 27.01 8 26.02 8 25 C5.69 25 3.38 25 1 25 C1.33 23.35 1.66 21.7 2 20 C2.66 20 3.32 20 4 20 C4 20.66 4 21.32 4 22 C4.66 21.67 5.32 21.34 6 21 C6.62 18.94 6.62 18.94 7 17 C5.02 16.67 3.04 16.34 1 16 C0.01 17.32 -0.98 18.64 -2 20 C-1.34 20 -0.68 20 0 20 C-0.33 20.82 -0.33 20.82 -2 25 C-2.66 25 -3.32 25 -4 25 C-4.66 26.32 -5.32 27.64 -6 29 C-6.33 28.34 -6.66 27.68 -7 27 C-7.66 27 -8.32 27 -9 27 C-8.67 27.99 -8.34 28.98 -8 30 C-10.31 30.33 -12.62 30.66 -15 31 C-15 30.34 -15 29.68 -15 29 C-13.68 28.67 -12.36 28.34 -11 28 C-10.9 27.22 -10.79 26.43 -10.69 25.62 C-10 23 -10 23 -7 21 C-7.66 20.34 -8.32 19.68 -9 19 C-8.94 17 -8.94 17 -8 15 C-5.5 13.81 -5.5 13.81 -3 13 C-2.67 12.67 -2.34 12.34 -2 12 C-2.66 11.67 -3.32 11.34 -4 11 C-4 10.01 -4 9.02 -4 8 C-3.34 7.67 -2.68 7.34 -2 7 C-1.27 4.69 -0.6 2.35 0 0 Z " fill="#B3A778" transform="translate(64,10)"/>
<path d="M0 0 C-0.33 0.99 -0.66 1.98 -1 3 C-0.67 3.99 -0.34 4.98 0 6 C-1.98 6.33 -3.96 6.66 -6 7 C-5.67 7.99 -5.34 8.98 -5 10 C-5.33 10.5 -5.33 10.5 -7 13 C-5.68 13.33 -4.36 13.66 -3 14 C-3.33 14.16 -3.33 14.16 -5 15 C-5 15.66 -5 16.32 -5 17 C-4.01 17.33 -3.02 17.66 -2 18 C-2 18.33 -2 18.66 -2 19 C-4.97 19.33 -7.94 19.66 -11 20 C-11.2 22.23 -11.38 24.46 -11.56 26.69 C-11.67 27.93 -11.77 29.17 -11.88 30.45 C-11.98 33.56 -11.77 36.01 -11 39 C-11.33 39.16 -11.33 39.16 -13 40 C-13.66 39.67 -14.32 39.34 -15 39 C-15.37 36.67 -15.71 34.34 -16 32 C-16.33 31.67 -16.66 31.34 -17 31 C-17.21 29.38 -17.37 27.75 -17.5 26.12 C-17.74 23.15 -18.05 20.85 -19 18 C-18.34 18 -17.68 18 -17 18 C-17 17.01 -17 16.02 -17 15 C-15.02 15 -13.04 15 -11 15 C-11 14.34 -11 13.68 -11 13 C-10.34 13 -9.68 13 -9 13 C-9 12.34 -9 11.68 -9 11 C-9.66 11 -10.32 11 -11 11 C-11 10.01 -11 9.02 -11 8 C-12.65 8 -14.3 8 -16 8 C-16 8.66 -16 9.32 -16 10 C-20.29 10.66 -24.58 11.32 -29 12 C-28.67 10.68 -28.34 9.36 -28 8 C-27.34 8.16 -27.34 8.16 -24 9 C-23.67 8.34 -23.34 7.68 -23 7 C-24.32 7 -25.64 7 -27 7 C-27 6.34 -27 5.68 -27 5 C-25.84 4.84 -25.84 4.84 -20 4 C-20.33 2.68 -20.66 1.36 -21 0 C-18.06 -0.19 -15.13 -0.38 -12.19 -0.56 C-11.35 -0.62 -10.52 -0.67 -9.66 -0.73 C-8.86 -0.78 -8.06 -0.83 -7.23 -0.88 C-6.49 -0.93 -5.75 -0.97 -4.99 -1.02 C-3 -1 -3 -1 0 0 Z " fill="#A49658" transform="translate(81,56)"/>
<path d="M0 0 C0.66 0 1.32 0 2 0 C4.03 3.73 5 5.67 5 10 C7.64 10.33 10.28 10.66 13 11 C13.33 9.02 13.66 7.04 14 5 C15.32 4.67 16.64 4.34 18 4 C18.66 5.65 19.32 7.3 20 9 C22.64 8.67 25.28 8.34 28 8 C27.5 9 27.5 9 25 14 C26.32 14 27.64 14 29 14 C29 14.99 29 15.98 29 17 C28.34 17.33 28.34 17.33 25 19 C25 18.34 25 17.68 25 17 C24.01 17 23.02 17 22 17 C21.96 17.62 21.92 18.24 21.88 18.88 C21.59 19.58 21.3 20.28 21 21 C19 21.68 17 22.35 15 23 C13.62 25.12 13.62 25.12 13 27 C12.01 27 11.02 27 10 27 C10.33 26.01 10.66 25.02 11 24 C11.66 24 12.32 24 13 24 C10.93 21.2 9.86 20.97 6.31 20.31 C5.22 20.21 4.13 20.11 3 20 C3 19.34 3 18.68 3 18 C3.99 18 4.98 18 6 18 C6 17.34 6 16.68 6 16 C4.35 16.33 2.7 16.66 1 17 C0.34 15.02 -0.32 13.04 -1 11 C-2.32 11 -3.64 11 -5 11 C-5 11.66 -5 12.32 -5 13 C-4.01 13 -3.02 13 -2 13 C-2.33 13.66 -2.66 14.32 -3 15 C-3.99 14.67 -4.98 14.34 -6 14 C-6.33 13.01 -6.66 12.02 -7 11 C-5.68 10.34 -4.36 9.68 -3 9 C-3 8.01 -3 7.02 -3 6 C-2.34 6 -1.68 6 -1 6 C-0.67 4.02 -0.34 2.04 0 0 Z " fill="#D2B981" transform="translate(27,33)"/>
<path d="M0 0 C0 0.66 0 1.32 0 2 C3.96 2 7.92 2 12 2 C12.33 2.99 12.66 3.98 13 5 C11.35 5 9.7 5 8 5 C9.75 8.88 9.75 8.88 12 10 C10.34 13.59 8.34 16.82 6 20 C5.01 20.33 4.02 20.66 3 21 C2.84 20.17 2.84 20.17 2 16 C1.67 16.99 1.34 17.98 1 19 C-0.62 20.39 -2.29 21.73 -4 23 C-3.67 24.65 -3.34 26.3 -3 28 C-3.76 28.21 -4.53 28.41 -5.31 28.62 C-8.83 30.42 -9.36 32.5 -11 36 C-11.5 36.16 -11.5 36.16 -14 37 C-15.32 34.36 -15.1 32.32 -15.06 29.38 C-15.05 28.37 -15.04 27.37 -15.04 26.34 C-15.02 25.57 -15.01 24.79 -15 24 C-14.34 24 -13.68 24 -13 24 C-12.67 24.99 -12.34 25.98 -12 27 C-11.34 25.35 -10.68 23.7 -10 22 C-9.34 22 -8.68 22 -8 22 C-8 21.34 -8 20.68 -8 20 C-8.66 20 -9.32 20 -10 20 C-10 17.69 -10 15.38 -10 13 C-9.01 13.33 -8.02 13.66 -7 14 C-7.33 15.32 -7.66 16.64 -8 18 C-7.34 18.33 -6.68 18.66 -6 19 C-6 15.7 -6 12.4 -6 9 C-3.03 9.33 -0.06 9.66 3 10 C3 9.34 3 8.68 3 8 C1.68 7.67 0.36 7.34 -1 7 C-1 5.68 -1 4.36 -1 3 C-1.99 3.66 -2.98 4.32 -4 5 C-6.69 5.12 -6.69 5.12 -9 5 C-9 4.34 -9 3.68 -9 3 C-9.66 3 -10.32 3 -11 3 C-10 1 -10 1 -8.31 0.38 C-5.52 -0.08 -2.83 -0.06 0 0 Z " fill="#9E9287" transform="translate(101,62)"/>
<path d="M0 0 C0 0.99 0 1.98 0 3 C-2.31 3 -4.62 3 -7 3 C-6.67 6.63 -6.34 10.26 -6 14 C-5.01 14 -4.02 14 -3 14 C-3 11.36 -3 8.72 -3 6 C-2.01 5.67 -1.02 5.34 0 5 C0.33 4.34 0.66 3.68 1 3 C2.33 3.33 2.33 3.33 9 5 C9 5.66 9 6.32 9 7 C6.69 7.66 4.38 8.32 2 9 C2 12.3 2 15.6 2 19 C-2 19 -2 19 -4 18 C-3.67 18.56 -3.34 19.11 -3 19.69 C-1.87 22.3 -1.84 24.18 -2 27 C-1.01 27 -0.02 27 1 27 C1.33 25.35 1.66 23.7 2 22 C2.66 22 3.32 22 4 22 C4.5 23.94 5 25.87 5.5 27.81 C5.78 28.89 6.06 29.97 6.34 31.08 C7 34 7 34 7 37 C6.34 37 5.68 37 5 37 C4.34 37.99 3.68 38.98 3 40 C-3 30.29 -3 30.29 -3 27 C-4.65 27 -6.3 27 -8 27 C-8 26.01 -8 25.02 -8 24 C-7.01 24 -6.02 24 -5 24 C-5.28 22.69 -5.58 21.37 -5.88 20.06 C-6.04 19.33 -6.2 18.6 -6.37 17.85 C-7 16 -7 16 -9 15 C-9 15.99 -9 16.98 -9 18 C-10.65 17.67 -12.3 17.34 -14 17 C-15.12 12.31 -14.81 9.46 -13 5 C-11.35 5 -9.7 5 -8 5 C-7.95 4.68 -7.95 4.68 -7.69 3.06 C-7.46 2.38 -7.23 1.7 -7 1 C-4 0 -4 0 0 0 Z " fill="#69655A" transform="translate(43,64)"/>
<path d="M0 0 C0.66 0 1.32 0 2 0 C3.19 1.56 3.19 1.56 4 4 C3.31 5.73 2.62 7.46 1.79 9.12 C1 11 1 11 0.56 14.81 C0.38 15.86 0.19 16.92 0 18 C-2.06 19.44 -2.06 19.44 -4 20 C-3.81 20.78 -3.63 21.57 -3.44 22.38 C-3 25 -3 25 -4 27 C-5.88 26.88 -5.88 26.88 -8 26 C-9.6 22.4 -10 19.97 -10 16 C-10.66 16 -11.32 16 -12 16 C-12.33 16.99 -12.66 17.98 -13 19 C-14.65 19.33 -16.3 19.66 -18 20 C-18 17.36 -18 14.72 -18 12 C-17.01 12.33 -16.02 12.66 -15 13 C-15 10.69 -15 8.38 -15 6 C-14.37 5.97 -13.75 5.95 -13.1 5.92 C-12.28 5.87 -11.47 5.81 -10.62 5.75 C-9.81 5.7 -9 5.66 -8.16 5.61 C-6 5 -6 5 -4.71 2.95 C-4.48 2.31 -4.24 1.66 -4 1 C-3.34 1.99 -2.68 2.98 -2 4 C-1.34 2.68 -0.68 1.36 0 0 Z " fill="#A6ABB4" transform="translate(94,99)"/>
<path d="M0 0 C2.31 1.65 4.62 3.3 7 5 C7 4.01 7 3.02 7 2 C7.99 2 8.98 2 10 2 C10.45 3.13 10.91 4.27 11.38 5.44 C13 9 13 9 15 10 C14.67 11.98 14.34 13.96 14 16 C14.99 16.33 15.98 16.66 17 17 C17 17.66 17 18.32 17 19 C17.66 19 18.32 19 19 19 C19.33 17.68 19.66 16.36 20 15 C22.03 16.42 22.9 17.55 23.42 19.98 C23.66 21.98 23.84 23.99 24 26 C23.34 26 22.68 26 22 26 C21.67 26.66 21.34 27.32 21 28 C20.51 26.84 20.51 26.84 18 21 C16.88 24.75 16.88 24.75 18 27 C18.04 29.33 18.04 31.67 18 34 C17.51 34.16 17.51 34.16 15 35 C15.33 36.32 15.66 37.64 16 39 C15.01 39 14.02 39 13 39 C12.3 37.13 11.61 35.25 10.94 33.38 C10.55 32.33 10.17 31.29 9.78 30.21 C8.93 26.7 9.35 24.51 10 21 C9.44 18.91 9.44 18.91 8.56 17.06 C6.9 13.15 6.74 10.22 7 6 C6.01 6.33 5.02 6.66 4 7 C0 2.25 0 2.25 0 0 Z " fill="#A0A6B1" transform="translate(15,78)"/>
<path d="M0 0 C0.66 0 1.32 0 2 0 C3.1 3.31 2.88 4.65 2.19 8 C2.02 8.87 1.84 9.73 1.67 10.62 C1 13 1 13 -1 16 C-1.76 15.94 -2.53 15.88 -3.31 15.81 C-4.2 15.87 -5.09 15.94 -6 16 C-6.41 16.5 -6.41 16.5 -8.5 19 C-11 22 -11 22 -13.5 22.69 C-17.24 21.66 -18.62 20.06 -21 17 C-23.33 11.86 -24.41 6.59 -25 1 C-23.68 1.33 -22.36 1.66 -21 2 C-21 2.99 -21 3.98 -21 5 C-19.68 5.33 -18.36 5.66 -17 6 C-17 8.97 -17 11.94 -17 15 C-16.34 15 -15.68 15 -15 15 C-15 13.35 -15 11.7 -15 10 C-14.34 10 -13.68 10 -13 10 C-12.67 9.34 -12.34 8.68 -12 8 C-11.67 8.66 -11.34 9.32 -11 10 C-10.34 10 -9.68 10 -9 10 C-8.34 10.66 -7.68 11.32 -7 12 C-6.67 11.01 -6.34 10.02 -6 9 C-6.99 9 -7.98 9 -9 9 C-9 7.68 -9 6.36 -9 5 C-8.34 5 -7.68 5 -7 5 C-7 5.66 -7 6.32 -7 7 C-3.13 5.53 -2.03 3.5 0 0 Z " fill="#D0D5DE" transform="translate(74,120)"/>
<path d="M0 0 C0.33 0.66 0.66 1.32 1 2 C3 2.82 3 2.82 5.44 3.56 C9.87 4.94 9.87 4.94 12 6 C13.25 12.64 13.1 19.27 13 26 C12.01 25.67 11.02 25.34 10 25 C9.67 24.01 9.34 23.02 9 22 C5.94 20.81 5.94 20.81 3 20 C2.67 18.02 2.34 16.04 2 14 C1.34 14 0.68 14 0 14 C-0.33 15.65 -0.66 17.3 -1 19 C-1.99 19 -2.98 19 -4 19 C-4.66 16.03 -5.32 13.06 -6 10 C-5.17 10.16 -5.17 10.16 -1 11 C-1.01 10.29 -1.02 9.58 -1.04 8.85 C-1.04 8.39 -1.04 8.39 -1.06 6.06 C-1.07 5.15 -1.09 4.23 -1.1 3.29 C-1 1 -1 1 0 0 Z " fill="#6F6D68" transform="translate(45,72)"/>
<path d="M0 0 C0.33 1.32 0.66 2.64 1 4 C2.32 3.67 3.64 3.34 5 3 C5 4.65 5 6.3 5 8 C5.66 8 6.32 8 7 8 C7.66 9.65 8.32 11.3 9 13 C9.66 13 10.32 13 11 13 C11.29 12.05 11.58 11.1 11.88 10.12 C13 7 13 7 15 5 C16.65 5 18.3 5 20 5 C19.67 8.96 19.34 12.92 19 17 C18.34 16.67 17.68 16.34 17 16 C17 15.34 17 14.68 17 14 C16.34 14 15.68 14 15 14 C14.34 16.31 13.68 18.62 13 21 C12.67 21 12.34 21 12 21 C11.67 19.35 11.34 17.7 11 16 C10.81 16.64 10.63 17.28 10.44 17.94 C9 20 9 20 5.5 20.81 C2 21 2 21 0 20 C0.19 20.78 0.37 21.57 0.56 22.38 C1 25 1 25 0 27 C-0.99 26.67 -1.98 26.34 -3 26 C-2.69 23.42 -2.38 20.83 -2.06 18.25 C-1.98 17.52 -1.89 16.79 -1.8 16.04 C-1.11 10.39 -1.11 10.39 -0.44 7.92 C0.13 5.42 -0.46 3.49 -1 1 C-0.67 0.67 -0.34 0.34 0 0 Z " fill="#7D7E7F" transform="translate(79,85)"/>
<path d="M0 0 C0.66 0 1.32 0 2 0 C2.66 1.65 3.32 3.3 4 5 C2.54 5.19 1.08 5.38 -0.38 5.56 C-1.19 5.67 -2 5.77 -2.84 5.88 C-5 6 -5 6 -7 5 C-7 5.66 -7 6.32 -7 7 C-6.16 7.03 -5.31 7.05 -4.45 7.08 C-3.9 7.11 -3.9 7.11 -1.12 7.25 C-0.03 7.3 1.06 7.34 2.18 7.39 C5 8 5 8 6.38 10.05 C6.59 10.69 6.79 11.34 7 12 C9.64 11.67 12.28 11.34 15 11 C15 10.34 15 9.68 15 9 C14.34 9 13.68 9 13 9 C13 7.68 13 6.36 13 5 C13.83 5.16 13.83 5.16 18 6 C18.33 7.32 18.66 8.64 19 10 C18.34 10 17.68 10 17 10 C17.33 10.6 17.66 11.2 18 11.81 C19 14 19 14 19 17 C14.38 17.66 9.76 18.32 5 19 C4.67 17.68 4.34 16.36 4 15 C3 14 3 14 0.53 13.94 C-0.47 13.96 -1.47 13.98 -2.5 14 C-4.33 14.04 -6.17 14.05 -8 14 C-8.33 13.67 -8.66 13.34 -9 13 C-8.94 11.33 -8.8 9.66 -8.62 8 C-8.53 7.09 -8.44 6.19 -8.35 5.25 C-8 3 -8 3 -7 2 C-4.67 1.96 -2.33 1.96 0 2 C0 1.34 0 0.68 0 0 Z " fill="#7C775C" transform="translate(75,42)"/>
<path d="M0 0 C0.66 0.33 1.32 0.66 2 1 C2.24 8.62 1.84 15.59 0 23 C1.32 23.33 2.64 23.66 4 24 C4 24.99 4 25.98 4 27 C6.81 26.94 6.81 26.94 10 26 C11.75 22.5 11.75 22.5 13 19 C13.66 18.67 14.32 18.34 15 18 C15.33 21.63 15.66 25.26 16 29 C15.67 28.34 15.34 27.68 15 27 C13.27 28.65 11.86 30.2 10.5 32.19 C10 32.79 9.51 33.38 9 34 C8.01 34 7.02 34 6 34 C6 33.34 6 32.68 6 32 C5.34 32 4.68 32 4 32 C4 33.32 4 34.64 4 36 C4.99 36 5.98 36 7 36 C6.67 37.32 6.34 38.64 6 40 C5.34 39.67 4.68 39.34 4 39 C4 38.34 4 37.68 4 37 C3.34 37 2.68 37 2 37 C1.67 37.66 1.34 38.32 1 39 C0.67 38.34 0.34 37.68 0 37 C-0.66 36.67 -1.32 36.34 -2 36 C-1.62 33.56 -1.62 33.56 -1 31 C-0.34 30.67 0.32 30.34 1 30 C1.33 29.01 1.66 28.02 2 27 C1.34 27 0.68 27 0 27 C0 26.01 0 25.02 0 24 C-0.99 24.33 -1.98 24.66 -3 25 C-2.99 23.96 -2.98 22.93 -2.96 21.86 C-2.96 20.49 -2.95 19.12 -2.94 17.75 C-2.93 17.07 -2.92 16.39 -2.91 15.68 C-2.9 12.31 -2.94 9.23 -4 6 C-2.68 6.33 -1.36 6.66 0 7 C0 4.69 0 2.38 0 0 Z " fill="#B5B8BF" transform="translate(61,93)"/>
<path d="M0 0 C1.98 0 3.96 0 6 0 C5.34 2.64 4.68 5.28 4 8 C4.66 8.33 5.32 8.66 6 9 C6 10.98 6 12.96 6 15 C7.32 15.33 8.64 15.66 10 16 C9.99 16.66 9.98 17.33 9.96 18.01 C9.88 26.78 9.88 26.78 11 31 C9 31 9 31 7.31 29.88 C6 28 6 28 6.31 24.81 C6.54 23.88 6.77 22.96 7 22 C6.36 21.79 5.72 21.59 5.06 21.38 C3 20 3 20 2.25 16.88 C2.21 16.4 2.21 16.4 2 14 C1.01 14 0.02 14 -1 14 C-1 14.99 -1 15.98 -1 17 C-4.45 15.85 -5.77 14.85 -8 12 C-8.25 8.75 -8.25 8.75 -8 6 C-7.36 5.9 -6.72 5.79 -6.06 5.69 C-5.38 5.46 -4.7 5.23 -4 5 C-3.67 4.01 -3.34 3.02 -3 2 C-2.34 2 -1.68 2 -1 2 C-0.34 3.32 0.32 4.64 1 6 C0.67 4.02 0.34 2.04 0 0 Z " fill="#78776F" transform="translate(23,66)"/>
<path d="M0 0 C0.99 0.33 1.98 0.66 3 1 C3.33 3.64 3.66 6.28 4 9 C3.01 9 2.02 9 1 9 C1 9.99 1 10.98 1 12 C2.65 12 4.3 12 6 12 C8 16 10 20 12 24 C12.66 23.01 13.32 22.02 14 21 C14.99 21 15.98 21 17 21 C16.67 22.32 16.34 23.64 16 25 C15.67 24.67 15.34 24.34 15 24 C14.67 25.32 14.34 26.64 14 28 C14.99 27.67 15.98 27.34 17 27 C16.49 29.17 16 31 15 33 C14.34 33 13.68 33 13 33 C13 31.68 13 30.36 13 29 C12.34 29 11.68 29 11 29 C11 30.32 11 31.64 11 33 C10.01 33 9.02 33 8 33 C7.34 31.02 6.68 29.04 6 27 C5.01 27 4.02 27 3 27 C3 26.34 3 25.68 3 25 C3.66 25 4.32 25 5 25 C4.52 23.52 4.04 22.04 3.56 20.56 C3.3 19.74 3.03 18.92 2.75 18.07 C2 16 2 16 1 15 C0.34 15.66 -0.32 16.32 -1 17 C-2.65 12.05 -2.63 6.9 -1 2 C-0.67 1.34 -0.34 0.68 0 0 Z " fill="#9199A5" transform="translate(34,79)"/>
<path d="M0 0 C2.13 0.45 4.25 0.91 6.38 1.38 C7.56 1.63 8.74 1.89 9.96 2.15 C13 3 13 3 15 5 C15 5.99 15 6.98 15 8 C15.37 8.05 15.37 8.05 17.25 8.31 C20.17 9.04 21.73 10.07 24 12 C23.67 12.66 23.34 13.32 23 14 C22.17 13.84 22.17 13.84 18 13 C18 13.99 18 14.98 18 16 C17.01 16.33 16.02 16.66 15 17 C15.66 17.33 16.32 17.66 17 18 C16.69 20.38 16.69 20.38 16 23 C15.01 23.66 14.02 24.32 13 25 C12.67 25.99 12.34 26.98 12 28 C11.34 28 10.68 28 10 28 C10.57 24.13 12.49 21.92 15 19 C14.01 18.67 13.02 18.34 12 18 C11.31 15.94 11.31 15.94 11 14 C12.65 14 14.3 14 16 14 C15.67 13.34 15.34 12.68 15 12 C13.76 12.02 12.53 12.04 11.25 12.06 C5.2 12.02 5.2 12.02 3 11 C0.75 8.44 0.75 8.44 -1 6 C-0.01 6 0.98 6 2 6 C1.34 4.02 0.68 2.04 0 0 Z " fill="#C7BC9B" transform="translate(98,53)"/>
<path d="M0 0 C1.32 0 2.64 0 4 0 C4 0.66 4 1.32 4 2 C4.66 2.33 5.32 2.66 6 3 C6 3.99 6 4.98 6 6 C7.65 5.67 9.3 5.34 11 5 C11 5.66 11 6.32 11 7 C10.01 7 9.02 7 8 7 C8 7.66 8 8.32 8 9 C9.09 8.96 10.19 8.92 11.31 8.88 C15 9 15 9 18 11 C18 11.66 18 12.32 18 13 C14.6 15.27 12.83 15.37 8.81 15.62 C7.73 15.7 6.64 15.77 5.52 15.85 C5.1 15.88 5.1 15.88 3 16 C3 16.99 3 17.98 3 19 C2.01 19 1.02 19 0 19 C0.33 17.35 0.66 15.7 1 14 C0.59 14.52 0.18 15.03 -0.25 15.56 C-0.83 16.04 -1.41 16.51 -2 17 C-4.19 16.69 -4.19 16.69 -6 16 C-6 15.34 -6 14.68 -6 14 C-5.34 14 -4.68 14 -4 14 C-4 13.34 -4 12.68 -4 12 C-3.34 12 -2.68 12 -2 12 C-2 11.34 -2 10.68 -2 10 C-2.66 9.67 -3.32 9.34 -4 9 C-4 8.34 -4 7.68 -4 7 C-2.68 7 -1.36 7 0 7 C0 6.01 0 5.02 0 4 C0.99 4 1.98 4 3 4 C3 3.34 3 2.68 3 2 C2.01 2 1.02 2 0 2 C0 1.34 0 0.68 0 0 Z " fill="#808173" transform="translate(22,44)"/>
<path d="M0 0 C0.99 0.33 1.98 0.66 3 1 C3.33 3.31 3.66 5.62 4 8 C4.66 8 5.32 8 6 8 C6 8.66 6 9.32 6 10 C5.34 10 4.68 10 4 10 C4 11.32 4 12.64 4 14 C3.34 14 2.68 14 2 14 C1.67 14.66 1.34 15.32 1 16 C0.01 17.34 -0.99 18.68 -2 20 C-1.34 20 -0.68 20 0 20 C-0.33 20.82 -0.33 20.82 -2 25 C-2.66 25 -3.32 25 -4 25 C-4.66 26.32 -5.32 27.64 -6 29 C-6.33 28.34 -6.66 27.68 -7 27 C-7.66 27 -8.32 27 -9 27 C-8.67 27.99 -8.34 28.98 -8 30 C-10.31 30.33 -12.62 30.66 -15 31 C-15 30.34 -15 29.68 -15 29 C-13.68 28.67 -12.36 28.34 -11 28 C-10.9 27.22 -10.79 26.43 -10.69 25.62 C-10 23 -10 23 -7 21 C-7.66 20.34 -8.32 19.68 -9 19 C-8.94 17 -8.94 17 -8 15 C-5.5 13.81 -5.5 13.81 -3 13 C-2.67 12.67 -2.34 12.34 -2 12 C-2.66 11.67 -3.32 11.34 -4 11 C-4 10.01 -4 9.02 -4 8 C-3.34 7.67 -2.68 7.34 -2 7 C-1.27 4.69 -0.6 2.35 0 0 Z " fill="#9C9D8C" transform="translate(64,10)"/>
<path d="M0 0 C0 0.66 0 1.32 0 2 C-1.32 2.33 -2.64 2.66 -4 3 C-4.66 5.97 -5.32 8.94 -6 12 C-5.34 12 -4.68 12 -4 12 C-4 10.68 -4 9.36 -4 8 C-3.34 8 -2.68 8 -2 8 C-1.34 6.68 -0.68 5.36 0 4 C0.13 9.54 0.13 9.54 -0.56 12.06 C-1.13 14.58 -0.54 16.51 0 19 C-0.33 19.33 -0.66 19.66 -1 20 C-1.42 23.26 -1.77 26.53 -2.11 29.8 C-3.19 33.69 -4.67 34.83 -8 37 C-7.79 36.17 -7.59 35.35 -7.38 34.5 C-6.98 30.77 -7.51 28.44 -8.52 24.9 C-9.11 22.56 -9.15 20.4 -9 18 C-8.34 18.33 -7.68 18.66 -7 19 C-7 13.72 -7 8.44 -7 3 C-7.66 3 -8.32 3 -9 3 C-9 2.34 -9 1.68 -9 1 C-6.04 -0.48 -3.26 -0.06 0 0 Z " fill="#B0AFA5" transform="translate(80,75)"/>
<path d="M0 0 C0 0.66 0 1.32 0 2 C3.96 2 7.92 2 12 2 C12.33 2.99 12.66 3.98 13 5 C11.35 5 9.7 5 8 5 C9.75 8.88 9.75 8.88 12 10 C10.34 13.59 8.34 16.82 6 20 C5.01 20.33 4.02 20.66 3 21 C1.84 16.74 2.24 13.32 3 9 C1.68 8.34 0.36 7.68 -1 7 C-1 5.68 -1 4.36 -1 3 C-1.99 3.66 -2.98 4.32 -4 5 C-6.69 5.12 -6.69 5.12 -9 5 C-9 4.34 -9 3.68 -9 3 C-9.66 3 -10.32 3 -11 3 C-10 1 -10 1 -8.31 0.38 C-5.52 -0.08 -2.83 -0.06 0 0 Z " fill="#A99A71" transform="translate(101,62)"/>
<path d="M0 0 C0.33 0.66 0.66 1.32 1 2 C-0.32 2 -1.64 2 -3 2 C-3 2.66 -3 3.32 -3 4 C-1.68 4.33 -0.36 4.66 1 5 C0.34 5 -0.32 5 -1 5 C-1 5.66 -1 6.32 -1 7 C-1.66 7 -2.32 7 -3 7 C-3 7.66 -3 8.32 -3 9 C-3.66 9 -4.32 9 -5 9 C-4.01 10.98 -3.02 12.96 -2 15 C-0.68 15 0.64 15 2 15 C2.66 18.3 3.32 21.6 4 25 C3.01 24.34 2.02 23.68 1 23 C1 21.68 1 20.36 1 19 C0.34 19 -0.32 19 -1 19 C-1.33 20.32 -1.66 21.64 -2 23 C-3.32 23 -4.64 23 -6 23 C-6 24.98 -6 26.96 -6 29 C-6.33 29 -6.66 29 -7 29 C-7.37 22.48 -7.37 22.48 -5.5 20.06 C-5 19.71 -4.51 19.36 -4 19 C-4.99 18.67 -5.98 18.34 -7 18 C-7.33 16.35 -7.66 14.7 -8 13 C-8.66 13 -9.32 13 -10 13 C-10.75 10.25 -10.75 10.25 -11 7 C-9.25 4.62 -9.25 4.62 -7 3 C-6.01 3 -5.02 3 -4 3 C-4 2.34 -4 1.68 -4 1 C-2.68 0.67 -1.36 0.34 0 0 Z " fill="#B3B0A3" transform="translate(21,49)"/>
<path d="M0 0 C0.33 0 0.66 0 1 0 C1 1.98 1 3.96 1 6 C1.66 6 2.32 6 3 6 C3.33 8.64 3.66 11.28 4 14 C4.99 14 5.98 14 7 14 C7 14.66 7 15.32 7 16 C7.66 16 8.32 16 9 16 C11 20.12 11.18 23.45 11 28 C10.01 28.33 9.02 28.66 8 29 C8.33 30.32 8.66 31.64 9 33 C8.01 33 7.02 33 6 33 C5.3 31.13 4.61 29.25 3.94 27.38 C3.55 26.33 3.17 25.29 2.78 24.21 C1.93 20.7 2.35 18.51 3 15 C2.44 12.91 2.44 12.91 1.56 11.06 C-0.1 7.15 -0.26 4.22 0 0 Z " fill="#C9CDD1" transform="translate(22,84)"/>
<path d="M0 0 C0.99 0 1.98 0 3 0 C3.19 0.55 3.39 1.11 3.59 1.68 C3.85 2.4 4.11 3.13 4.38 3.88 C4.63 4.59 4.89 5.31 5.15 6.05 C6 8 6 8 8 10 C8 10.99 8 11.98 8 13 C7.34 13 6.68 13 6 13 C6.33 13.76 6.66 14.53 7 15.31 C8 18 8 18 8 21 C6.02 21 4.04 21 2 21 C1.34 18.69 0.68 16.38 0 14 C0.66 14 1.32 14 2 14 C1.67 12.68 1.34 11.36 1 10 C-0.65 9.67 -2.3 9.34 -4 9 C-4 7.68 -4 6.36 -4 5 C-3.01 4.34 -2.02 3.68 -1 3 C-0.67 2.01 -0.34 1.02 0 0 Z " fill="#ACA78E" transform="translate(92,38)"/>
<path d="M0 0 C2.31 0.66 4.62 1.32 7 2 C7 3.65 7 5.3 7 7 C6.01 7 5.02 7 4 7 C4 6.34 4 5.68 4 5 C3.34 5 2.68 5 2 5 C1.67 6.65 1.34 8.3 1 10 C2.13 9.81 3.27 9.63 4.44 9.44 C5.03 9.37 5.03 9.37 8 9 C9 10 9 10 9.06 12.56 C9.04 13.37 9.02 14.17 9 15 C8.34 14.34 7.68 13.68 7 13 C6.67 13.66 6.34 14.32 6 15 C4.02 14.34 2.04 13.68 0 13 C-0.25 13.78 -0.49 14.57 -0.75 15.38 C-2.15 18.32 -3.01 18.9 -6 20 C-6 19.34 -6 18.68 -6 18 C-6.66 18 -7.32 18 -8 18 C-7.84 17.51 -7.84 17.51 -7 15 C-6.34 15 -5.68 15 -5 15 C-4.9 14.24 -4.79 13.47 -4.69 12.69 C-3.94 9.78 -3.2 8.93 -1 7 C-0.67 6.34 -0.34 5.68 0 5 C-0.66 5 -1.32 5 -2 5 C-1.34 3.35 -0.68 1.7 0 0 Z " fill="#5C6152" transform="translate(64,25)"/>
<path d="M0 0 C1.75 2.5 1.75 2.5 3 5 C4.65 4.34 6.3 3.68 8 3 C6.12 7.88 6.12 7.88 5 9 C4.63 11.33 4.3 13.66 4 16 C3.67 15.01 3.34 14.02 3 13 C1.02 13.33 -0.96 13.66 -3 14 C-3.33 13.01 -3.66 12.02 -4 11 C-4.99 10.67 -5.98 10.34 -7 10 C-7.29 3.95 -7.29 3.95 -7 2 C-4 0 -4 0 0 0 Z " fill="#7688A0" transform="translate(68,106)"/>
<path d="M0 0 C1.32 0.33 2.64 0.66 4 1 C4 3 4 3 2.5 4.62 C2.01 5.08 1.51 5.53 1 6 C1.66 6 2.32 6 3 6 C3 6.66 3 7.32 3 8 C7.88 3.25 7.88 3.25 9 1 C9.83 1.33 9.83 1.33 14 3 C14 3.99 14 4.98 14 6 C13.6 6.1 13.6 6.1 11.56 6.62 C10.72 7.08 9.87 7.53 9 8 C8.19 11.12 8.19 11.12 8 14 C4.7 14.33 1.4 14.66 -2 15 C-1.67 14.34 -1.34 13.68 -1 13 C-0.34 13 0.32 13 1 13 C1 12.01 1 11.02 1 10 C-0.32 10 -1.64 10 -3 10 C-2 8 -1 6 0 4 C-1.32 3.67 -2.64 3.34 -4 3 C-2.68 2.67 -1.36 2.34 0 2 C0 1.34 0 0.68 0 0 Z " fill="#747664" transform="translate(55,37)"/>
<path d="M0 0 C0.66 0 1.32 0 2 0 C4.03 3.73 5 5.67 5 10 C5.99 10.33 6.98 10.66 8 11 C7.67 13.31 7.34 15.62 7 18 C6.67 17.34 6.34 16.68 6 16 C4.35 16.33 2.7 16.66 1 17 C0.34 15.02 -0.32 13.04 -1 11 C-2.32 11 -3.64 11 -5 11 C-5 11.66 -5 12.32 -5 13 C-4.01 13 -3.02 13 -2 13 C-2.33 13.66 -2.66 14.32 -3 15 C-3.99 14.67 -4.98 14.34 -6 14 C-6.33 13.01 -6.66 12.02 -7 11 C-5.68 10.34 -4.36 9.68 -3 9 C-3 8.01 -3 7.02 -3 6 C-2.34 6 -1.68 6 -1 6 C-0.67 4.02 -0.34 2.04 0 0 Z " fill="#AAA997" transform="translate(27,33)"/>
<path d="M0 0 C0.99 0.66 1.98 1.32 3 2 C3.14 2.83 3.29 3.65 3.44 4.5 C4 7 4 7 6.06 8.31 C6.7 8.54 7.34 8.77 8 9 C8 9.66 8 10.32 8 11 C7.34 11 6.68 11 6 11 C5.67 11.99 5.34 12.98 5 14 C5.66 14.33 6.32 14.66 7 15 C6.34 15 5.68 15 5 15 C5.33 15.5 5.33 15.5 7 18 C7.2 20.26 7.2 20.26 7.12 22.69 C7.11 23.5 7.09 24.3 7.07 25.14 C7.06 25.44 7.06 25.44 7 27 C6.01 27 5.02 27 4 27 C3.69 25.6 3.37 24.21 3.06 22.81 C2.88 21.98 2.69 21.15 2.5 20.3 C2.15 18.71 1.84 17.11 1.56 15.5 C0.84 12.27 -0.27 9.2 -1.38 6.09 C-2 4 -2 4 -2 1 C-1.34 0.67 -0.68 0.34 0 0 Z " fill="#C9CFDA" transform="translate(39,105)"/>
<path d="M0 0 C0.66 0.33 1.32 0.66 2 1 C1.67 1.5 1.67 1.5 0 4 C2.94 3.62 2.94 3.62 6 3 C6.33 2.34 6.66 1.68 7 1 C9.06 0.38 9.06 0.38 11 0 C11 2.31 11 4.62 11 7 C10.34 7.33 10.34 7.33 7 9 C7.19 9.78 7.37 10.57 7.56 11.38 C8 14 8 14 7 16 C5.12 15.88 5.12 15.88 3 15 C1.4 11.4 1 8.97 1 5 C0.34 5 -0.32 5 -1 5 C-1.33 5.66 -1.66 6.32 -2 7 C-2.12 4.62 -2.12 4.62 -2 2 C-1.34 1.34 -0.68 0.68 0 0 Z " fill="#CCCCCE" transform="translate(83,110)"/>
<path d="M0 0 C0.33 0.99 0.66 1.98 1 3 C1.33 2.34 1.66 1.68 2 1 C3.32 1 4.64 1 6 1 C6 1.66 6 2.32 6 3 C5.34 3 4.68 3 4 3 C3.8 5.23 3.62 7.46 3.44 9.69 C3.33 10.93 3.23 12.17 3.12 13.45 C3.02 16.56 3.23 19.01 4 22 C3.34 22.33 2.68 22.66 2 23 C1.34 22.67 0.68 22.34 0 22 C-0.37 19.67 -0.71 17.34 -1 15 C-1.33 14.67 -1.66 14.34 -2 14 C-2.21 12.38 -2.37 10.75 -2.5 9.12 C-2.74 6.15 -3.05 3.85 -4 1 C-2 0 -2 0 0 0 Z " fill="#61625B" transform="translate(66,73)"/>
<path d="M0 0 C2.06 0.44 2.06 0.44 4 1 C4.33 2.32 4.66 3.64 5 5 C7.64 4.67 10.28 4.34 13 4 C12.85 4.3 12.85 4.3 12.06 5.81 C11 8 11 8 10 11 C10.99 11.33 11.98 11.66 13 12 C6.54 12.56 1.85 10.63 -4 8 C-3.34 7.67 -2.68 7.34 -2 7 C-1.63 5.01 -1.29 3.01 -1 1 C-0.67 0.67 -0.34 0.34 0 0 Z " fill="#C8BC9B" transform="translate(42,37)"/>
<path d="M0 0 C0.99 0.33 1.98 0.66 3 1 C3 1.66 3 2.32 3 3 C3.76 2.81 4.53 2.63 5.31 2.44 C8 2 8 2 11 3 C11 3.66 11 4.32 11 5 C11.95 5.31 12.9 5.62 13.88 5.94 C17 7 17 7 19 8 C19 10.64 19 13.28 19 16 C18.01 15.67 17.02 15.34 16 15 C15.67 14.01 15.34 13.02 15 12 C11.94 10.81 11.94 10.81 9 10 C8.67 8.02 8.34 6.04 8 4 C7.34 4 6.68 4 6 4 C5.67 5.65 5.34 7.3 5 9 C4.01 9 3.02 9 2 9 C1.34 6.03 0.68 3.06 0 0 Z " fill="#818384" transform="translate(39,82)"/>
<path d="M0 0 C2.97 0 5.94 0 9 0 C9 0.66 9 1.32 9 2 C8.34 2 7.68 2 7 2 C7 2.66 7 3.32 7 4 C5.02 4 3.04 4 1 4 C1 4.99 1 5.98 1 7 C0.34 7 -0.32 7 -1 7 C-0.67 8.98 -0.34 10.96 0 13 C-0.33 13.16 -0.33 13.16 -2 14 C-2.33 14.99 -2.66 15.98 -3 17 C-3.66 17 -4.32 17 -5 17 C-5 15.02 -5 13.04 -5 11 C-3.68 11.33 -2.36 11.66 -1 12 C-1 11.34 -1 10.68 -1 10 C-3.64 10 -6.28 10 -9 10 C-9 9.34 -9 8.68 -9 8 C-8.34 8 -7.68 8 -7 8 C-6.67 6.35 -6.34 4.7 -6 3 C-3.69 3 -1.38 3 1 3 C0.67 2.01 0.34 1.02 0 0 Z " fill="#DBCCA2" transform="translate(63,67)"/>
<path d="M0 0 C0.66 0 1.32 0 2 0 C2.5 1.94 3 3.87 3.5 5.81 C3.78 6.89 4.06 7.97 4.34 9.08 C5 12 5 12 5 15 C4.34 15 3.68 15 3 15 C2.67 15.5 2.67 15.5 1 18 C-5 8.29 -5 8.29 -5 5 C-6.32 5 -7.64 5 -9 5 C-9 4.34 -9 3.68 -9 3 C-6.24 3.52 -3.67 4.11 -1 5 C-0.67 3.35 -0.34 1.7 0 0 Z " fill="#5D6167" transform="translate(45,86)"/>
<path d="M0 0 C0.81 0.11 1.62 0.22 2.45 0.34 C2.76 0.38 2.76 0.38 4.31 0.62 C3.98 1.61 3.65 2.61 3.31 3.62 C2.65 3.62 1.99 3.62 1.31 3.62 C1.37 4.39 1.44 5.15 1.5 5.94 C1.31 8.62 1.31 8.62 -0.19 10.44 C-0.68 10.83 -1.18 11.22 -1.69 11.62 C-1.69 10.97 -1.69 10.31 -1.69 9.62 C-2.35 9.62 -3.01 9.62 -3.69 9.62 C-4.02 10.94 -4.35 12.27 -4.69 13.62 C-5.35 13.62 -6.01 13.62 -6.69 13.62 C-6.69 14.94 -6.69 16.27 -6.69 17.62 C-7.35 17.62 -8.01 17.62 -8.69 17.62 C-8.94 11 -8.94 11 -6.69 7.62 C-5.37 7.62 -4.05 7.62 -2.69 7.62 C-4.34 5.64 -5.99 3.67 -7.69 1.62 C-4.33 -0.61 -3.78 -0.55 0 0 Z " fill="#717061" transform="translate(82.6875,69.375)"/>
<path d="M0 0 C0.99 0 1.98 0 3 0 C3.33 0.99 3.66 1.98 4 3 C2.56 5.69 2.56 5.69 1 8 C4.63 8.33 8.26 8.66 12 9 C12 9.33 12 9.66 12 10 C7.84 11.01 3.96 11.1 -0.31 11.06 C-1.57 11.05 -2.82 11.04 -4.11 11.04 C-5.07 11.02 -6.02 11.01 -7 11 C-7.33 9.35 -7.66 7.7 -8 6 C-6.87 5.57 -5.73 5.13 -4.56 4.69 C-3.97 4.41 -3.97 4.41 -1 3 C-0.67 2.01 -0.34 1.02 0 0 Z " fill="#8C8A75" transform="translate(49,50)"/>
<path d="M0 0 C0 1.65 0 3.3 0 5 C0.66 5 1.32 5 2 5 C2 4.01 2 3.02 2 2 C2.99 2 3.98 2 5 2 C5 2.66 5 3.32 5 4 C4.34 4 3.68 4 3 4 C2.67 4.99 2.34 5.98 2 7 C0.02 7.33 -1.96 7.66 -4 8 C-4 8.99 -4 9.98 -4 11 C-4.99 11 -5.98 11 -7 11 C-6.67 9.35 -6.34 7.7 -6 6 C-6.41 6.52 -6.82 7.03 -7.25 7.56 C-7.83 8.04 -8.41 8.51 -9 9 C-11.19 8.69 -11.19 8.69 -13 8 C-13 7.34 -13 6.68 -13 6 C-12.34 6 -11.68 6 -11 6 C-11 5.34 -11 4.68 -11 4 C-10.34 4 -9.68 4 -9 4 C-9 3.34 -9 2.68 -9 2 C-2.25 0 -2.25 0 0 0 Z " fill="#6B6B57" transform="translate(29,52)"/>
<path d="M0 0 C0.99 0 1.98 0 3 0 C0.46 16.71 0.46 16.71 -3.12 19.88 C-3.74 20.25 -4.36 20.62 -5 21 C-4.79 20.17 -4.59 19.35 -4.38 18.5 C-3.98 14.77 -4.51 12.44 -5.52 8.9 C-6.11 6.56 -6.15 4.4 -6 2 C-5.67 2.17 -5.67 2.17 -4 3 C-3.67 3.99 -3.34 4.98 -3 6 C-2.34 6.33 -1.68 6.66 -1 7 C-1.02 6.03 -1.04 5.06 -1.06 4.06 C-1 1 -1 1 0 0 Z " fill="#CBCBCC" transform="translate(77,91)"/>
<path d="M0 0 C0.66 0 1.32 0 2 0 C2.66 0.99 3.32 1.98 4 3 C4.66 3 5.32 3 6 3 C6.66 2.34 7.32 1.68 8 1 C8 1.99 8 2.98 8 4 C8.66 4 9.32 4 10 4 C9.67 5.32 9.34 6.64 9 8 C8.34 8 7.68 8 7 8 C7.01 8.63 7.02 9.25 7.04 9.9 C7.04 10.72 7.05 11.53 7.06 12.38 C7.07 13.19 7.09 14 7.1 14.84 C7 17 7 17 6 19 C5.34 19 4.68 19 4 19 C3.95 18.42 3.9 17.84 3.85 17.24 C3.4 12.56 2.7 8.43 1 4 C0.34 4 -0.32 4 -1 4 C-0.67 2.68 -0.34 1.36 0 0 Z " fill="#8A9DB7" transform="translate(53,116)"/>
<path d="M0 0 C1.65 0 3.3 0 5 0 C4.67 3.96 4.34 7.92 4 12 C3.34 11.67 2.68 11.34 2 11 C2 10.34 2 9.68 2 9 C1.34 9 0.68 9 0 9 C-0.66 11.31 -1.32 13.62 -2 16 C-2.33 16 -2.66 16 -3 16 C-3.12 15.24 -3.25 14.47 -3.38 13.69 C-4 11 -4 11 -6 8 C-5.34 8 -4.68 8 -4 8 C-3.71 7.05 -3.42 6.1 -3.12 5.12 C-2 2 -2 2 0 0 Z " fill="#83868C" transform="translate(94,90)"/>
<path d="M0 0 C0.99 0.33 1.98 0.66 3 1 C1.68 2.65 0.36 4.3 -1 6 C-1.99 5.67 -2.98 5.34 -4 5 C-4.33 5.99 -4.66 6.98 -5 8 C-5.99 8 -6.98 8 -8 8 C-7.81 8.58 -7.63 9.16 -7.44 9.75 C-6.96 12.21 -7.24 13.64 -8 16 C-8.99 16 -9.98 16 -11 16 C-11.33 12.37 -11.66 8.74 -12 5 C-9.69 5 -7.38 5 -5 5 C-5 4.01 -5 3.02 -5 2 C-6.98 2.33 -8.96 2.66 -11 3 C-10.67 2.34 -10.34 1.68 -10 1 C-7.69 1 -5.38 1 -3 1 C-3 1.66 -3 2.32 -3 3 C-2.01 2.01 -1.02 1.02 0 0 Z " fill="#868371" transform="translate(48,62)"/>
<path d="M0 0 C2.6 2.71 2.99 3.89 3.19 7.75 C3.13 8.82 3.06 9.89 3 11 C4.32 11 5.64 11 7 11 C6.67 13.64 6.34 16.28 6 19 C4.35 19.33 2.7 19.66 1 20 C0.67 15.71 0.34 11.42 0 7 C-0.99 7.33 -1.98 7.66 -3 8 C-1.12 2.25 -1.12 2.25 0 0 Z " fill="#7B7F88" transform="translate(63,84)"/>
<path d="M0 0 C2.33 0.85 3.45 1.9 5.06 3.75 C3.41 7.34 1.4 10.57 -0.94 13.75 C-1.93 14.08 -2.92 14.41 -3.94 14.75 C-5.1 10.48 -4.67 7.08 -3.94 2.75 C-3.94 2.09 -3.94 1.43 -3.94 0.75 C-1.94 -0.25 -1.94 -0.25 0 0 Z " fill="#817D74" transform="translate(107.9375,68.25)"/>
<path d="M0 0 C2.67 0.67 5.33 1.33 8 2 C8 2.66 8 3.32 8 4 C5.69 4.66 3.38 5.32 1 6 C1 9.3 1 12.6 1 16 C0.01 16.33 -0.98 16.66 -2 17 C-2.33 15.35 -2.66 13.7 -3 12 C-3.33 12.16 -3.33 12.16 -5 13 C-4.67 9.7 -4.34 6.4 -4 3 C-3.01 2.67 -2.02 2.34 -1 2 C-0.67 1.34 -0.34 0.68 0 0 Z " fill="#525042" transform="translate(44,67)"/>
<path d="M0 0 C2.15 0.45 4.29 0.91 6.44 1.38 C7.03 1.5 7.03 1.5 10.06 2.15 C10.54 2.29 10.54 2.29 13 3 C13.33 3.66 13.66 4.32 14 5 C13.67 5.66 13.34 6.32 13 7 C11.35 6.67 9.7 6.34 8 6 C8 6.99 8 7.98 8 9 C6.31 9.69 6.31 9.69 4 10 C1.25 8.56 1.25 8.56 -1 7 C-0.01 6.67 0.98 6.34 2 6 C1.34 4.02 0.68 2.04 0 0 Z " fill="#DBCDA2" transform="translate(98,53)"/>
<path d="M0 0 C0.33 0.66 0.66 1.32 1 2 C0.34 2 -0.32 2 -1 2 C-1 2.66 -1 3.32 -1 4 C0.65 4.33 2.3 4.66 4 5 C3.98 5.97 3.96 6.94 3.94 7.94 C4 11 4 11 5 12 C5.33 11.01 5.66 10.02 6 9 C6.66 9 7.32 9 8 9 C9.56 11.81 9.56 11.81 11 15 C10.67 15.99 10.34 16.98 10 18 C9.34 18 8.68 18 8 18 C7.67 16.68 7.34 15.36 7 14 C5.35 14 3.7 14 2 14 C2 13.34 2 12.68 2 12 C1.34 12 0.68 12 0 12 C0.33 10.68 0.66 9.36 1 8 C-0.65 7.67 -2.3 7.34 -4 7 C-4 6.34 -4 5.68 -4 5 C-3.34 5 -2.68 5 -2 5 C-2 3.68 -2 2.36 -2 1 C-1.34 0.67 -0.68 0.34 0 0 Z " fill="#CFC5A9" transform="translate(70,19)"/>
<path d="M0 0 C1.55 2.32 2.8 4.51 4 7 C4.66 6.01 5.32 5.02 6 4 C6.99 4 7.98 4 9 4 C8.67 5.32 8.34 6.64 8 8 C7.67 7.67 7.34 7.34 7 7 C6.67 8.32 6.34 9.64 6 11 C6.99 10.67 7.98 10.34 9 10 C8.49 12.17 8 14 7 16 C6.34 16 5.68 16 5 16 C5 14.68 5 13.36 5 12 C4.34 12 3.68 12 3 12 C3 13.32 3 14.64 3 16 C2.34 16 1.68 16 1 16 C-0.13 10.64 -0.1 5.45 0 0 Z " fill="#828A99" transform="translate(42,96)"/>
<path d="M0 0 C0.33 1.65 0.66 3.3 1 5 C-0.32 5.33 -1.64 5.66 -3 6 C-3 5.34 -3 4.68 -3 4 C-3.66 4 -4.32 4 -5 4 C-5 5.32 -5 6.64 -5 8 C-4.01 8 -3.02 8 -2 8 C-2.33 9.32 -2.66 10.64 -3 12 C-3.66 11.67 -4.32 11.34 -5 11 C-5 10.34 -5 9.68 -5 9 C-5.66 9 -6.32 9 -7 9 C-7.33 9.66 -7.66 10.32 -8 11 C-8.33 10.34 -8.66 9.68 -9 9 C-9.66 8.67 -10.32 8.34 -11 8 C-10.67 4.94 -10.4 3.4 -8.19 1.19 C-5.41 -0.32 -3.1 0 0 0 Z " fill="#AAB8CA" transform="translate(70,121)"/>
<path d="M0 0 C0.66 0.33 1.32 0.66 2 1 C2.05 2.94 2.09 4.87 2.12 6.81 C2.15 7.89 2.17 8.97 2.2 10.08 C2 13 2 13 0 16 C-0.34 18.01 -0.34 18.01 -0.5 20.12 C-0.58 20.76 -0.58 20.76 -1 24 C-1.66 24.33 -2.32 24.66 -3 25 C-2.99 23.96 -2.98 22.93 -2.96 21.86 C-2.96 20.49 -2.95 19.12 -2.94 17.75 C-2.93 17.07 -2.92 16.39 -2.91 15.68 C-2.9 12.31 -2.94 9.23 -4 6 C-2.68 6.33 -1.36 6.66 0 7 C0 4.69 0 2.38 0 0 Z " fill="#D2CFCD" transform="translate(61,93)"/>
<path d="M0 0 C0.33 0.99 0.66 1.98 1 3 C1.99 3.33 2.98 3.66 4 4 C5.82 9.13 3.86 13.18 2 18 C1.34 18 0.68 18 0 18 C-1.57 12.27 -2.24 7.84 -1 2 C-1.99 1.67 -2.98 1.34 -4 1 C-2 0 -2 0 0 0 Z " fill="#D1CECC" transform="translate(105,92)"/>
<path d="M0 0 C1.86 1.52 1.86 1.52 3 3 C-3.59 5.03 -8.41 5.03 -15 3 C-15 3.66 -15 4.32 -15 5 C-16.98 5 -18.96 5 -21 5 C-19.57 2.14 -17.43 1.64 -14.53 0.61 C-9.79 -0.53 -4.82 -0.73 0 0 Z " fill="#CEBE90" transform="translate(97,59)"/>
<path d="M0 0 C0.99 0 1.98 0 3 0 C2.51 4.94 1.63 8.75 -1 13 C-1.99 13.33 -2.98 13.66 -4 14 C-5.32 11.36 -5.1 9.32 -5.06 6.38 C-5.05 5.37 -5.04 4.37 -5.04 3.34 C-5.02 2.57 -5.01 1.79 -5 1 C-4.34 1 -3.68 1 -3 1 C-2.67 1.99 -2.34 2.98 -2 4 C-1.34 2.68 -0.68 1.36 0 0 Z " fill="#B6A591" transform="translate(91,85)"/>
<path d="M0 0 C4.1 0.43 7.68 0.9 11.62 2.12 C15.21 3.06 17.43 2.87 21 2 C21 2.99 21 3.98 21 5 C20.34 5.33 20.34 5.33 17 7 C17 6.34 17 5.68 17 5 C16.01 5 15.02 5 14 5 C13.67 5.99 13.34 6.98 13 8 C12.67 7.67 12.34 7.34 12 7 C10.33 6.96 8.67 6.96 7 7 C7.99 6.34 8.98 5.68 10 5 C6.7 4.67 3.4 4.34 0 4 C0 2.68 0 1.36 0 0 Z " fill="#C0AC7A" transform="translate(35,45)"/>
<path d="M0 0 C0.66 0 1.32 0 2 0 C1.67 0.99 1.34 1.98 1 3 C0.67 2.01 0.34 1.02 0 0 Z " fill="#EFECE7" transform="translate(75,24)"/>
</svg>
