<?xml version="1.0" encoding="UTF-8"?>
<!-- Generator: visioncortex VTracer 0.6.12 -->
<svg version="1.1" xmlns="http://www.w3.org/2000/svg" width="383" height="60">
<path d="M0 0 C2.23 2.9 2.2 5.41 2 9 C2.99 9 3.98 9 5 9 C5 9.99 5 10.98 5 12 C4.34 12.33 3.68 12.66 3 13 C3.16 13.31 3.16 13.31 4 14.88 C5 17 5 17 5 19 C8 20 8 20 11 19 C11.99 19.66 12.98 20.32 14 21 C14 21.66 14 22.32 14 23 C14.35 22.67 14.35 22.67 16.12 21 C19.5 18.65 20.98 18.4 25 19 C27.38 20.12 27.38 20.12 29 22 C29.25 25.19 29.25 25.19 29 28 C30.24 27.79 31.47 27.59 32.75 27.38 C36.29 26.79 37.87 27.33 41 29 C43.35 29.57 45.7 30 48.07 30.44 C48.71 30.62 49.35 30.81 50 31 C50.33 31.66 50.66 32.32 51 33 C43.66 33.97 36.42 34.06 29.03 33.94 C26 34 26 34 25 35 C21.99 35.03 18.99 34.93 15.98 34.84 C12.94 35 11.64 35.65 9 37 C2.4 37.63 -3.77 37.27 -10 35 C-9.84 34.67 -9.84 34.67 -9 33 C-10.6 32.97 -12.21 32.95 -13.81 32.94 C-14.71 32.93 -15.6 32.91 -16.52 32.9 C-19 33 -19 33 -22 34 C-24.14 34.12 -26.29 34.18 -28.44 34.19 C-29.57 34.2 -30.7 34.22 -31.87 34.23 C-34.85 34.01 -36.49 33.56 -39 32 C-39 31.34 -39 30.68 -39 30 C-37.35 30 -35.7 30 -34 30 C-34.33 29.67 -34.66 29.34 -35 29 C-37.15 29.09 -39.29 29.25 -41.44 29.44 C-47.5 29.91 -53.54 30.12 -59.62 30.12 C-60.38 30.13 -61.14 30.13 -61.92 30.14 C-65.74 30.13 -69.29 29.92 -73 29 C-72.34 27.68 -71.68 26.36 -71 25 C-72.66 24.62 -74.32 24.29 -76 24 C-76.33 24.33 -76.66 24.66 -77 25 C-78.47 25.28 -79.95 25.5 -81.44 25.69 C-82.24 25.79 -83.04 25.9 -83.87 26.01 C-86 26 -86 26 -88 24 C-90.6 23.37 -90.6 23.37 -93.62 22.88 C-94.63 22.71 -95.63 22.54 -96.66 22.37 C-97.43 22.25 -98.21 22.12 -99 22 C-99 21.34 -99 20.68 -99 20 C-97.02 19.67 -95.04 19.34 -93 19 C-93 17.35 -93 15.7 -93 14 C-91.19 12.94 -91.19 12.94 -89 12 C-88.01 12.33 -87.02 12.66 -86 13 C-85.34 12.34 -84.68 11.68 -84 11 C-84.06 10.11 -84.12 9.23 -84.19 8.31 C-83.93 3.8 -82.33 1.05 -79 -2 C-74.95 -3.33 -72.85 -3.28 -68.81 -1.94 C-65.46 0.37 -63.82 2.37 -62 6 C-62.25 8.87 -62.25 8.87 -63 11 C-61.02 12.65 -59.04 14.3 -57 16 C-57 15.34 -57 14.68 -57 14 C-57.66 13.67 -58.32 13.34 -59 13 C-58.01 13 -57.02 13 -56 13 C-55.84 13.49 -55.84 13.49 -55 16 C-54.36 16.31 -53.72 16.62 -53.06 16.94 C-51 18 -51 18 -49.62 19.88 C-49 22 -49 22 -49.88 24.25 C-50.25 24.83 -50.62 25.41 -51 26 C-50.28 25.34 -49.56 24.68 -48.81 24 C-45.78 21.85 -44.6 21.59 -41 22 C-41.66 20.68 -42.32 19.36 -43 18 C-40.65 15.27 -38.46 14.01 -35 13 C-32.69 13.37 -32.69 13.37 -31 14 C-31 14.99 -31 15.98 -31 17 C-30.34 17 -29.68 17 -29 17 C-29 16.34 -29 15.68 -29 15 C-28.01 15 -27.02 15 -26 15 C-26.33 14.18 -26.33 14.18 -28 10 C-27.34 10 -26.68 10 -26 10 C-26.23 9.28 -26.45 8.56 -26.69 7.81 C-27 5 -27 5 -26.19 2.44 C-18.88 -5.71 -8.92 -4.72 0 0 Z " fill="#D8DDE9" transform="translate(109,14)"/>
<path d="M0 0 C3.06 1.63 3.06 1.63 5 4 C5.81 7.25 5.81 7.25 6 10 C6.52 9.65 7.03 9.3 7.56 8.94 C11.02 7.61 13.44 8.14 17 9 C19 12 19 12 19 16 C19.5 16.12 20 16.24 20.52 16.37 C23.94 17.24 27.34 18.15 30.75 19.06 C31.45 19.25 32.14 19.44 32.86 19.63 C34.58 20.08 36.29 20.54 38 21 C38 21.66 38 22.32 38 23 C37.23 23.06 36.46 23.12 35.66 23.18 C35.16 23.23 35.16 23.23 32.62 23.44 C32.13 23.48 32.13 23.48 29.6 23.68 C27 24 27 24 25 25 C21.62 25.14 19.23 25.08 16 24 C14.93 24.33 13.86 24.66 12.75 25 C8.58 26.11 6.21 25.8 2 25 C0.36 24.8 -1.29 24.61 -2.94 24.44 C-3.71 24.35 -4.48 24.27 -5.28 24.18 C-5.56 24.15 -5.56 24.15 -7 24 C-7 24.99 -7 25.98 -7 27 C-7.52 26.99 -7.52 26.99 -10.12 26.94 C-14 27 -14 27 -17.12 27.62 C-20.47 28.06 -22.07 27.63 -25 26 C-25.66 25.01 -26.32 24.02 -27 23 C-27.83 23.18 -28.66 23.37 -29.51 23.56 C-33.45 24.06 -36.98 23.67 -40.88 23.06 C-41.56 22.96 -42.25 22.86 -42.96 22.76 C-44.64 22.51 -46.32 22.26 -48 22 C-48 21.01 -48 20.02 -48 19 C-47.37 18.88 -46.75 18.76 -46.1 18.63 C-45.28 18.47 -44.47 18.3 -43.62 18.12 C-43.22 18.04 -43.22 18.04 -41.16 17.63 C-39 17 -39 17 -37 15 C-33.38 15.38 -33.38 15.38 -30 16 C-29.61 14.89 -29.22 13.77 -28.81 12.62 C-27.61 9.81 -27.23 9.14 -24.5 7.5 C-22 7 -22 7 -19 8 C-18.34 8.66 -17.68 9.32 -17 10 C-16.77 9.09 -16.55 8.19 -16.31 7.25 C-13.22 -0.4 -7.52 -1.21 0 0 Z M-13 23 C-9 24 -9 24 -9 24 Z " fill="#E7E5E8" transform="translate(336,13)"/>
<path d="M0 0 C0 0.99 0 1.98 0 3 C0.99 3 1.98 3 3 3 C4.06 5.37 4.06 5.37 5 8 C4.67 8.66 4.34 9.32 4 10 C4.6 10.14 5.2 10.29 5.81 10.44 C7.56 10.89 9.29 11.43 11 12 C11.33 11.01 11.66 10.02 12 9 C14.52 7.83 15.85 7.96 18.56 8.62 C21.55 10.31 22.54 11.93 24 15 C24 15.66 24 16.32 24 17 C24.74 16.65 25.49 16.3 26.25 15.94 C29.22 14.93 30.16 14.81 33 16 C33.56 16.49 34.12 16.98 34.7 17.48 C37.69 19.45 40.15 19.66 43.69 20.06 C45.8 20.31 47.91 20.61 50 21 C50.16 21.33 50.16 21.33 51 23 C49.77 23.06 48.54 23.12 47.27 23.18 C45.64 23.27 44.01 23.35 42.38 23.44 C41.97 23.46 41.97 23.46 39.93 23.56 C36.4 23.74 33.03 24 29.54 24.6 C27 25 27 25 25 24 C23.3 23.77 21.59 23.59 19.88 23.44 C18.96 23.35 18.05 23.27 17.12 23.18 C16.42 23.12 15.72 23.06 15 23 C15 23.66 15 24.32 15 25 C11.93 26.02 10.49 26 7.33 25.66 C6.89 25.61 6.89 25.61 4.63 25.38 C3.7 25.27 2.77 25.17 1.81 25.06 C0.87 24.96 -0.07 24.86 -1.04 24.76 C-3.36 24.51 -5.68 24.26 -8 24 C-8 23.34 -8 22.68 -8 22 C-6.35 21.67 -4.7 21.34 -3 21 C-8.28 21 -13.56 21 -19 21 C-19 20.34 -19 19.68 -19 19 C-19.38 19.01 -19.38 19.01 -21.31 19.07 C-27.91 19.19 -33.62 18.7 -40 17 C-39.67 16.34 -39.34 15.68 -39 15 C-36.5 14.59 -36.5 14.59 -33.44 14.38 C-32.43 14.3 -31.41 14.23 -30.37 14.15 C-29.59 14.1 -28.81 14.05 -28 14 C-27.9 13.38 -27.79 12.76 -27.69 12.12 C-27 10 -27 10 -24 8 C-21.66 8.29 -19.33 8.62 -17 9 C-16.34 8.67 -15.68 8.34 -15 8 C-14.92 7.24 -14.84 6.47 -14.75 5.69 C-14 3 -14 3 -11.44 0.62 C-6.95 -1.5 -4.79 -0.99 0 0 Z M-21 9 C-20.67 9.99 -20.34 10.98 -20 12 C-20 11.01 -20 10.02 -20 9 C-20.33 9 -20.66 9 -21 9 Z " fill="#E7E6EA" transform="translate(182,19)"/>
<path d="M0 0 C1.19 1.69 1.19 1.69 1.19 5.69 C2.18 5.36 3.17 5.03 4.19 4.69 C5.51 4.69 6.83 4.69 8.19 4.69 C9.18 4.36 10.17 4.03 11.19 3.69 C13.31 4.31 13.31 4.31 15.19 5.69 C15.94 8.31 15.94 8.31 16.19 10.69 C17.3 10.48 18.42 10.27 19.56 10.06 C20.76 9.94 21.95 9.81 23.19 9.69 C23.85 10.35 24.51 11.01 25.19 11.69 C27.79 12.32 27.79 12.32 30.81 12.81 C31.82 12.98 32.82 13.15 33.85 13.32 C34.62 13.44 35.39 13.56 36.19 13.69 C36.19 14.35 36.19 15.01 36.19 15.69 C32.71 16.12 29.23 16.5 25.75 16.88 C24.78 17 23.8 17.12 22.8 17.24 C16.2 17.92 11.28 17.36 5.19 14.69 C5.19 15.35 5.19 16.01 5.19 16.69 C5.85 17.02 6.51 17.35 7.19 17.69 C0.36 19.45 -6.27 19.37 -12.81 16.69 C-12.81 16.03 -12.81 15.37 -12.81 14.69 C-13.96 14.71 -15.1 14.73 -16.28 14.75 C-20.69 14.75 -24.95 14.28 -29.31 13.69 C-30.04 13.59 -30.77 13.5 -31.52 13.4 C-33.28 13.17 -35.05 12.93 -36.81 12.69 C-36.81 12.03 -36.81 11.37 -36.81 10.69 C-36.2 10.58 -35.58 10.47 -34.95 10.36 C-34.14 10.2 -33.33 10.04 -32.5 9.88 C-31.7 9.72 -30.9 9.57 -30.07 9.42 C-27.81 8.69 -27.81 8.69 -26.25 7.09 C-25.78 6.63 -25.3 6.17 -24.81 5.69 C-21.12 6 -21.12 6 -17.81 6.69 C-18.14 5.7 -18.47 4.71 -18.81 3.69 C-13.41 -1.33 -6.91 -5 0 0 Z " fill="#E6E5EA" transform="translate(256.8125,23.3125)"/>
<path d="M0 0 C2.23 2.9 2.2 5.41 2 9 C2.99 9 3.98 9 5 9 C5 9.99 5 10.98 5 12 C4.34 12.33 3.68 12.66 3 13 C3.33 13.62 3.66 14.24 4 14.88 C5 17 5 17 5 19 C8 20 8 20 11 19 C11.99 19.66 12.98 20.32 14 21 C14 21.66 14 22.32 14 23 C14.99 22.67 15.98 22.34 17 22 C17 22.66 17 23.32 17 24 C16.01 24 15.02 24 14 24 C14 24.66 14 25.32 14 26 C15.32 26 16.64 26 18 26 C18 26.66 18 27.32 18 28 C10.57 28.29 10.57 28.29 7 26 C7 25.34 7 24.68 7 24 C6.34 24 5.68 24 5 24 C4.67 23.01 4.34 22.02 4 21 C1 23 1 23 0 26 C1.32 26.66 2.64 27.32 4 28 C1.03 27.34 -1.94 26.68 -5 26 C-5 25.34 -5 24.68 -5 24 C-5.99 24 -6.98 24 -8 24 C-8 22.68 -8 21.36 -8 20 C-9.65 20 -11.3 20 -13 20 C-13 21.32 -13 22.64 -13 24 C-16.72 23.49 -19.73 22.88 -23 21 C-21.68 20.67 -20.36 20.34 -19 20 C-19 19.34 -19 18.68 -19 18 C-20.32 18 -21.64 18 -23 18 C-23.36 16.71 -23.71 15.42 -24.06 14.12 C-24.26 13.41 -24.46 12.69 -24.66 11.95 C-25 10 -25 10 -24 8 C-21.93 7.37 -21.93 7.37 -19.44 6.88 C-18.61 6.71 -17.78 6.54 -16.93 6.37 C-16.61 6.31 -16.61 6.31 -15 6 C-15.37 4.08 -15.37 4.08 -16 2 C-18.06 0.75 -18.06 0.75 -20 0 C-20 -0.66 -20 -1.32 -20 -2 C-12.72 -5.02 -6.73 -3.57 0 0 Z " fill="#EFEBE9" transform="translate(109,14)"/>
<path d="M0 0 C1.88 0.62 1.88 0.62 4 2 C5.25 5.12 5.25 5.12 6 8 C5.01 8 4.02 8 3 8 C3 8.66 3 9.32 3 10 C3.66 10 4.32 10 5 10 C5 10.99 5 11.98 5 13 C3.02 13 1.04 13 -1 13 C0.75 17.88 0.75 17.88 3 19 C3 19.99 3 20.98 3 22 C1.02 22 -0.96 22 -3 22 C-3 22.66 -3 23.32 -3 24 C-0.69 24.33 1.62 24.66 4 25 C3.67 25.66 3.34 26.32 3 27 C2.48 26.99 2.48 26.99 -0.12 26.94 C-4 27 -4 27 -7.12 27.62 C-10.47 28.06 -12.07 27.63 -15 26 C-15.66 25.01 -16.32 24.02 -17 23 C-17.83 23.18 -18.66 23.37 -19.51 23.56 C-23.45 24.06 -26.98 23.67 -30.88 23.06 C-31.56 22.96 -32.25 22.86 -32.96 22.76 C-34.64 22.51 -36.32 22.26 -38 22 C-38 21.01 -38 20.02 -38 19 C-37.37 18.88 -36.75 18.76 -36.1 18.63 C-35.28 18.47 -34.47 18.3 -33.62 18.12 C-33.22 18.04 -33.22 18.04 -31.16 17.63 C-29 17 -29 17 -27 15 C-23.38 15.38 -23.38 15.38 -20 16 C-19.61 14.89 -19.22 13.77 -18.81 12.62 C-17.61 9.81 -17.23 9.14 -14.5 7.5 C-12 7 -12 7 -9 8 C-8.34 8.66 -7.68 9.32 -7 10 C-6.77 9.09 -6.55 8.19 -6.31 7.25 C-4.82 3.55 -3.25 2.22 0 0 Z " fill="#D2D7E6" transform="translate(326,13)"/>
<path d="M0 0 C2.19 3 3.33 4.57 2.81 8.38 C2.71 8.75 2.71 8.75 2.19 10.62 C4.17 12.27 6.15 13.93 8.19 15.62 C8.19 14.96 8.19 14.3 8.19 13.62 C7.53 13.3 6.87 12.96 6.19 12.62 C7.18 12.62 8.17 12.62 9.19 12.62 C9.52 13.61 9.85 14.61 10.19 15.62 C10.85 15.95 11.51 16.29 12.19 16.62 C12.85 16.95 13.51 17.29 14.19 17.62 C14.52 18.61 14.85 19.61 15.19 20.62 C12.55 20.62 9.91 20.62 7.19 20.62 C7.19 19.64 7.19 18.64 7.19 17.62 C6.53 17.62 5.87 17.62 5.19 17.62 C5.19 18.61 5.19 19.61 5.19 20.62 C4.53 20.62 3.87 20.62 3.19 20.62 C3.19 19.97 3.19 19.3 3.19 18.62 C1.87 18.62 0.55 18.62 -0.81 18.62 C-1.14 19.28 -1.47 19.95 -1.81 20.62 C-2.47 20.62 -3.13 20.62 -3.81 20.62 C-3.81 19.97 -3.81 19.3 -3.81 18.62 C-5.79 18.3 -7.77 17.97 -9.81 17.62 C-9.48 15.64 -9.15 13.66 -8.81 11.62 C-9.47 11.3 -10.13 10.96 -10.81 10.62 C-11.45 8.34 -11.45 8.34 -11.94 5.56 C-12.11 4.64 -12.27 3.72 -12.45 2.78 C-12.57 2.07 -12.69 1.36 -12.81 0.62 C-11.49 0.62 -10.17 0.62 -8.81 0.62 C-8.81 -0.04 -8.81 -0.7 -8.81 -1.38 C-10.46 -1.38 -12.11 -1.38 -13.81 -1.38 C-13.81 -1.71 -13.81 -2.04 -13.81 -2.38 C-8.83 -3.89 -4.21 -3.19 0 0 Z " fill="#E9E7EA" transform="translate(43.8125,14.375)"/>
<path d="M0 0 C3.98 -0.31 6.36 -0.36 9.88 1.62 C12.4 4.44 12.75 6.28 13 10 C13.52 9.65 14.03 9.3 14.56 8.94 C18.02 7.61 20.44 8.14 24 9 C26 12 26 12 26 16 C24.02 16.99 22.04 17.98 20 19 C19.88 18.36 19.75 17.72 19.62 17.06 C19.42 16.38 19.21 15.7 19 15 C18.34 14.67 17.68 14.34 17 14 C17 14.99 17 15.98 17 17 C8.29 15.14 8.29 15.14 6 12 C6.33 13.32 6.66 14.64 7 16 C3.38 17.32 0.9 18 -3 18 C-3 17.34 -3 16.68 -3 16 C-3.99 15.67 -4.98 15.34 -6 15 C-5.34 15 -4.68 15 -4 15 C-4 14.34 -4 13.68 -4 13 C-2.02 13 -0.04 13 2 13 C2 12.01 2 11.02 2 10 C1.34 10 0.68 10 0 10 C0 9.34 0 8.68 0 8 C0.66 7.67 1.32 7.34 2 7 C1.34 4.69 0.68 2.38 0 0 Z " fill="#F5EEEA" transform="translate(329,13)"/>
<path d="M0 0 C1.81 1.31 1.81 1.31 3 3 C3 4.32 3 5.64 3 7 C3.99 6.67 4.98 6.34 6 6 C7.32 6 8.64 6 10 6 C10.99 5.67 11.98 5.34 13 5 C15.12 5.62 15.12 5.62 17 7 C17.75 9.62 17.75 9.62 18 12 C19.11 11.79 20.23 11.59 21.38 11.38 C22.57 11.25 23.77 11.13 25 11 C25.66 11.66 26.32 12.32 27 13 C29.6 13.63 29.6 13.63 32.62 14.12 C33.13 14.21 33.13 14.21 35.66 14.63 C36.43 14.75 37.21 14.88 38 15 C38 15.66 38 16.32 38 17 C32.06 17.33 26.12 17.66 20 18 C20.99 17.34 21.98 16.68 23 16 C16.47 14.51 10.17 13.71 3.47 13.44 C3.06 13.37 3.06 13.37 1 13 C0.34 12.01 -0.32 11.02 -1 10 C-4.12 9.81 -4.12 9.81 -7 10 C-7 9.34 -7 8.68 -7 8 C-6.34 8 -5.68 8 -5 8 C-5.33 7.42 -5.66 6.84 -6 6.25 C-7 4 -7 4 -7 0 C-4.27 -1.37 -2.89 -0.85 0 0 Z " fill="#F6F0EC" transform="translate(255,22)"/>
<path d="M0 0 C3.48 0.35 4.84 0.68 7.12 3.31 C7.38 6.5 7.38 6.5 7.12 9.31 C8.36 9.11 9.6 8.9 10.88 8.69 C14.41 8.1 16 8.64 19.12 10.31 C21.47 10.88 23.82 11.31 26.2 11.75 C26.83 11.94 27.47 12.12 28.12 12.31 C28.29 12.64 28.29 12.64 29.12 14.31 C21.78 15.28 14.55 15.37 7.15 15.25 C4.12 15.31 4.12 15.31 3.12 16.31 C0.93 16.22 -1.25 16.07 -3.44 15.88 C-4.64 15.77 -5.83 15.67 -7.07 15.57 C-7.99 15.48 -8.92 15.4 -9.88 15.31 C-9.55 14.32 -9.22 13.33 -8.88 12.31 C-7.22 11.98 -5.58 11.65 -3.88 11.31 C-3.88 11.97 -3.88 12.63 -3.88 13.31 C-2.72 13.15 -2.72 13.15 3.12 12.31 C2.44 9.88 2.44 9.88 1.12 7.31 C-1.5 6.5 -1.5 6.5 -3.88 6.31 C-4.5 4.44 -4.5 4.44 -4.88 2.31 C-2.88 0.31 -2.88 0.31 0 0 Z " fill="#E5E5EA" transform="translate(130.875,32.6875)"/>
<path d="M0 0 C1.88 0.62 1.88 0.62 4 2 C5.25 5.13 5.25 5.13 6 8 C5.01 8 4.02 8 3 8 C3 8.66 3 9.32 3 10 C3.66 10 4.32 10 5 10 C5 10.99 5 11.98 5 13 C3.02 13 1.04 13 -1 13 C-0.67 14.32 -0.34 15.64 0 17 C-4.03 18.32 -6.27 17.51 -10.09 15.97 C-12.56 14.72 -14.24 13.12 -16 11 C-15.01 10.67 -14.02 10.34 -13 10 C-13.33 9.01 -13.66 8.02 -14 7 C-9.25 7.75 -9.25 7.75 -7 10 C-6.77 9.09 -6.55 8.19 -6.31 7.25 C-4.82 3.55 -3.25 2.22 0 0 Z " fill="#E4E2E7" transform="translate(326,13)"/>
<path d="M0 0 C0.99 0.16 0.99 0.16 6 1 C6 1.99 6 2.98 6 4 C6.99 4 7.98 4 9 4 C10.06 6.38 10.06 6.38 11 9 C10.67 9.66 10.34 10.32 10 11 C10.56 11.12 11.11 11.25 11.69 11.38 C14.22 12.06 16.58 12.99 19 14 C19 15.32 19 16.64 19 18 C16.03 17.34 13.06 16.68 10 16 C10 16.66 10 17.32 10 18 C9.34 18 8.68 18 8 18 C8 16.68 8 15.36 8 14 C7.01 14 6.02 14 5 14 C5 13.34 5 12.68 5 12 C4.34 12 3.68 12 3 12 C3 13.65 3 15.3 3 17 C0.36 16.01 -2.28 15.02 -5 14 C-4.67 13.01 -4.34 12.02 -4 11 C-3.01 11 -2.02 11 -1 11 C0.18 7.33 0.07 3.83 0 0 Z " fill="#F4EEEA" transform="translate(176,18)"/>
<path d="M0 0 C3.42 1.25 5.54 3.37 8 6 C7.67 6.66 7.34 7.32 7 8 C4.02 8.6 1.04 8.74 -2 9 C-1.67 12.3 -1.34 15.6 -1 19 C0.32 19 1.64 19 3 19 C3 19.66 3 20.32 3 21 C2.34 21.33 1.68 21.66 1 22 C1.66 22.66 2.32 23.32 3 24 C0.35 25.08 -2.28 26.09 -5 27 C-5 26.34 -5 25.68 -5 25 C-4.34 25 -3.68 25 -3 25 C-3 23.68 -3 22.36 -3 21 C-3.66 21 -4.32 21 -5 21 C-5 20.01 -5 19.02 -5 18 C-5.66 17.34 -6.32 16.68 -7 16 C-6.01 16 -5.02 16 -4 16 C-4.66 14.35 -5.32 12.7 -6 11 C-5.34 11 -4.68 11 -4 11 C-4.23 10.28 -4.45 9.56 -4.69 8.81 C-5.09 5.21 -4.14 3.85 -2 1 C-1.34 0.67 -0.68 0.34 0 0 Z " fill="#E1E1E7" transform="translate(87,13)"/>
<path d="M0 0 C0.8 0.27 1.61 0.54 2.44 0.81 C5.53 1.68 8.22 1.9 11.44 1.81 C11.77 2.8 12.1 3.79 12.44 4.81 C11.78 4.81 11.12 4.81 10.44 4.81 C10.11 5.8 9.78 6.79 9.44 7.81 C9.11 7.48 8.78 7.15 8.44 6.81 C6.08 6.9 3.73 7.06 1.38 7.25 C-3.95 7.65 -9.22 7.92 -14.56 7.81 C-14.56 7.48 -14.56 7.15 -14.56 6.81 C-12.91 6.48 -11.26 6.15 -9.56 5.81 C-10.55 5.15 -11.54 4.49 -12.56 3.81 C-12.56 3.15 -12.56 2.49 -12.56 1.81 C-10.91 1.81 -9.26 1.81 -7.56 1.81 C-7.56 2.47 -7.56 3.13 -7.56 3.81 C-6.84 3.13 -6.12 2.45 -5.38 1.75 C-2.56 -0.19 -2.56 -0.19 0 0 Z " fill="#E2E4EC" transform="translate(65.5625,36.1875)"/>
<path d="M0 0 C2.12 0.38 2.12 0.38 4 1 C4 1.99 4 2.98 4 4 C6.31 3.34 8.62 2.68 11 2 C11 2.66 11 3.32 11 4 C11.99 4.16 11.99 4.16 17 5 C16.67 5.49 16.67 5.49 15 8 C11.62 8.12 11.62 8.12 8 8 C7.43 8.18 6.85 8.36 6.26 8.55 C2.86 9.23 -0.36 8.58 -3.75 8.06 C-4.45 7.96 -5.14 7.86 -5.86 7.76 C-7.58 7.51 -9.29 7.26 -11 7 C-11 6.01 -11 5.02 -11 4 C-10.37 3.88 -9.75 3.76 -9.1 3.63 C-8.28 3.47 -7.47 3.3 -6.62 3.12 C-5.81 2.96 -5 2.8 -4.16 2.63 C-2 2 -2 2 0 0 Z " fill="#DCDFEB" transform="translate(299,28)"/>
<path d="M0 0 C0.99 0 1.98 0 3 0 C3.7 3.15 4 5.73 4 9 C5.32 8.34 6.64 7.68 8 7 C7.34 8.65 6.68 10.3 6 12 C6.99 12.16 6.99 12.16 12 13 C12 13.66 12 14.32 12 15 C12.66 15 13.32 15 14 15 C14.33 14.01 14.66 13.02 15 12 C15.66 12 16.32 12 17 12 C17.62 14.31 17.62 14.31 18 17 C17.34 17.99 16.68 18.98 16 20 C16 19.34 16 18.68 16 18 C15.54 18.11 15.54 18.11 13.19 18.69 C10 19 10 19 8.19 17.69 C7 16 7 16 6 14 C5.01 13.84 5.01 13.84 0 13 C0 8.71 0 4.42 0 0 Z " fill="#D0D8E7" transform="translate(28,20)"/>
<path d="M0 0 C0.99 0.33 1.98 0.66 3 1 C2.67 1.99 2.34 2.98 2 4 C2.66 4 3.32 4 4 4 C4 5.32 4 6.64 4 8 C3.34 8 2.68 8 2 8 C2 8.66 2 9.32 2 10 C2.55 9.51 3.11 9.02 3.68 8.51 C6.45 6.71 7.86 6.71 11.12 6.88 C15.83 7.08 15.83 7.08 18 6 C17.67 7.65 17.34 9.3 17 11 C16.01 10.79 15.02 10.59 14 10.38 C10.94 9.9 8.82 10.21 5.88 11.12 C2 12 2 12 -0.94 10.94 C-3 9 -3 9 -4.06 6.56 C-4 4 -4 4 -2.06 1.69 C-1.38 1.13 -0.7 0.57 0 0 Z " fill="#CAD3E4" transform="translate(80,30)"/>
<path d="M0 0 C2.31 -0.25 2.31 -0.25 5 0 C6.81 2 6.81 2 8 4 C7.67 4.5 7.67 4.5 6 7 C6.04 7.82 6.08 8.65 6.12 9.5 C6 12 6 12 4.12 13.81 C2 15 2 15 0 15 C0 12 0 9 0 6 C-0.33 5.01 -0.66 4.02 -1 3 C-0.67 2.01 -0.34 1.02 0 0 Z " fill="#F3EEEC" transform="translate(37,15)"/>
<path d="M0 0 C3.48 0.35 4.84 0.68 7.12 3.31 C7.44 6.44 7.54 8.48 6.12 11.31 C2.25 9.56 2.25 9.56 1.12 7.31 C-1.44 6.69 -1.44 6.69 -3.88 6.31 C-4.5 4.44 -4.5 4.44 -4.88 2.31 C-2.88 0.31 -2.88 0.31 0 0 Z " fill="#EFEAE8" transform="translate(130.875,32.6875)"/>
<path d="M0 0 C0.99 0.33 1.98 0.66 3 1 C3 1.66 3 2.32 3 3 C3.66 3 4.32 3 5 3 C5 3.66 5 4.32 5 5 C-0.55 7.48 -5.17 6.85 -11 6 C-10 3 -10 3 -8.19 1.75 C-5.63 0.87 -4.55 1.32 -2 2 C-1.34 1.34 -0.68 0.68 0 0 Z " fill="#DEE3EE" transform="translate(47,37)"/>
<path d="M0 0 C0.99 0.33 1.98 0.66 3 1 C1.68 1.33 0.36 1.66 -1 2 C-0.67 1.34 -0.34 0.68 0 0 Z " fill="#E9EEF4" transform="translate(66,44)"/>
</svg>
