<?xml version="1.0" encoding="UTF-8"?>
<!-- Generator: visioncortex VTracer 0.6.12 -->
<svg version="1.1" xmlns="http://www.w3.org/2000/svg" width="78" height="68">
<path d="M0 0 C0.66 0 1.32 0 2 0 C2.29 0.8 2.58 1.61 2.88 2.44 C4 5 4 5 6 6 C6.33 7.33 6.67 8.67 7 10 C7.66 10.33 8.32 10.66 9 11 C9.62 13.56 9.62 13.56 10 16 C11.65 15.34 13.3 14.68 15 14 C15.16 14.99 15.16 14.99 16 20 C16.95 20.14 17.9 20.29 18.88 20.44 C22 21 22 21 24 22 C24 22.99 24 23.98 24 25 C23.24 25.58 22.47 26.16 21.69 26.75 C18.28 29.6 17.51 31.87 16 36 C15.01 35.67 14.02 35.34 13 35 C13 34.01 13 33.02 13 32 C12.01 32 11.02 32 10 32 C9.67 35.63 9.34 39.26 9 43 C8.05 43.25 7.1 43.49 6.12 43.75 C3 45 3 45 1.62 47.12 C1.42 47.74 1.21 48.36 1 49 C-0.32 48.34 -1.64 47.68 -3 47 C-3 46.01 -3 45.02 -3 44 C-3.99 44 -4.98 44 -6 44 C-6.33 43.34 -6.66 42.68 -7 42 C-7.66 42.66 -8.32 43.32 -9 44 C-11.28 41.72 -11.8 39.99 -13 37 C-14.28 34.63 -15.63 32.32 -17 30 C-17.99 30.66 -18.98 31.32 -20 32 C-20.66 31.34 -21.32 30.68 -22 30 C-22.66 31.98 -23.32 33.96 -24 36 C-24.66 36 -25.32 36 -26 36 C-26.19 34.93 -26.37 33.85 -26.56 32.75 C-27.23 30.31 -27.7 29.24 -29.69 27.64 C-31.42 26.68 -33.21 25.83 -35 25 C-35 24.34 -35 23.68 -35 23 C-33.89 22.73 -32.77 22.46 -31.62 22.19 C-28 21 -28 21 -26 18 C-25.34 18 -24.68 18 -24 18 C-23.67 18.66 -23.34 19.32 -23 20 C-20.25 20 -20.25 20 -17 19 C-15.25 16.5 -14.1 13.84 -13 11 C-12.34 11 -11.68 11 -11 11 C-10.67 11.5 -10.67 11.5 -9 14 C-8.01 13.67 -7.02 13.34 -6 13 C-6.33 12.34 -6.66 11.68 -7 11 C-4.55 5.27 -4.55 5.27 -2 4 C-0.88 1.94 -0.88 1.94 0 0 Z M-20 25 C-19 27 -19 27 -19 27 Z " fill="#B5B09E" transform="translate(45,10)"/>
<path d="M0 0 C0.66 0 1.32 0 2 0 C2.66 0.99 3.32 1.98 4 3 C6.62 3.19 6.62 3.19 9 3 C8.67 3.16 8.67 3.16 7 4 C7 5.65 7 7.3 7 9 C5.54 9.84 4.09 10.67 2.62 11.5 C1.81 11.96 1 12.43 0.16 12.91 C-2 14 -2 14 -4 14 C-4 14.66 -4 15.32 -4 16 C-2.02 16 -0.04 16 2 16 C1.67 17.32 1.34 18.64 1 20 C2.65 19.67 4.3 19.34 6 19 C6.08 19.78 6.16 20.57 6.25 21.38 C7 24 7 24 9.06 25.31 C9.7 25.54 10.34 25.77 11 26 C11 26.66 11 27.32 11 28 C10.34 28.66 9.68 29.32 9 30 C10.98 30.33 12.96 30.66 15 31 C15 30.01 15 29.02 15 28 C14.34 28 13.68 28 13 28 C13.41 23.17 15.46 21.17 19 18 C19 19.65 19 21.3 19 23 C20.32 22.34 21.64 21.68 23 21 C22.67 24.63 22.34 28.26 22 32 C21.05 32.25 20.1 32.49 19.12 32.75 C16 34 16 34 14.62 36.12 C14.42 36.74 14.21 37.36 14 38 C12.68 37.34 11.36 36.68 10 36 C10 35.01 10 34.02 10 33 C9.01 33 8.02 33 7 33 C6.67 32.34 6.34 31.68 6 31 C5.34 31.66 4.68 32.32 4 33 C1.72 30.72 1.2 28.99 0 26 C-1.28 23.63 -2.63 21.32 -4 19 C-4.99 19.66 -5.98 20.32 -7 21 C-7.66 20.34 -8.32 19.68 -9 19 C-9.66 20.98 -10.32 22.96 -11 25 C-11.66 25 -12.32 25 -13 25 C-13.19 23.93 -13.37 22.86 -13.56 21.75 C-14.23 19.31 -14.7 18.24 -16.69 16.64 C-18.42 15.68 -20.21 14.83 -22 14 C-22 13.34 -22 12.68 -22 12 C-21.44 11.87 -21.44 11.87 -18.62 11.19 C-15 10 -15 10 -13 7 C-12.34 7 -11.68 7 -11 7 C-10.67 7.66 -10.34 8.32 -10 9 C-7.25 9 -7.25 9 -4 8 C-2.25 5.5 -1.1 2.84 0 0 Z M-7 14 C-6 16 -6 16 -6 16 Z " fill="#BDC1C3" transform="translate(32,21)"/>
<path d="M0 0 C0.66 0 1.32 0 2 0 C3.12 2.81 3.12 2.81 4 6 C3.67 6.5 3.67 6.5 2 9 C2.83 9.16 2.83 9.16 7 10 C6.67 10.99 6.34 11.98 6 13 C5.01 12.34 4.02 11.68 3 11 C3.33 11.99 3.66 12.98 4 14 C2 16 2 16 -1.06 17 C-4 18 -4 18 -5 20 C-3.95 19.81 -2.9 19.63 -1.81 19.44 C1.57 19.05 3.76 19.12 7 20 C5.55 23.79 3.85 27.39 2 31 C2.66 31 3.32 31 4 31 C4 31.99 4 32.98 4 34 C2.02 33.67 0.04 33.34 -2 33 C-2.33 33.66 -2.66 34.32 -3 35 C-2.67 33.68 -2.34 32.36 -2 31 C-1.34 31 -0.68 31 0 31 C0 30.34 0 29.68 0 29 C-0.83 28.67 -0.83 28.67 -5 27 C-5 25.35 -5 23.7 -5 22 C-6.65 22.33 -8.3 22.66 -10 23 C-10 22.01 -10 21.02 -10 20 C-11.65 19.67 -13.3 19.34 -15 19 C-15 18.34 -15 17.68 -15 17 C-14.29 16.7 -13.58 16.39 -12.85 16.08 C-11.93 15.66 -11.01 15.24 -10.06 14.81 C-9.6 14.61 -9.6 14.61 -7.29 13.58 C-5 12 -5 12 -4.18 9.32 C-4.12 8.56 -4.06 7.79 -4 7 C-3.34 7 -2.68 7 -2 7 C-2.33 5.35 -2.66 3.7 -3 2 C-2.01 2 -1.02 2 0 2 C0 1.34 0 0.68 0 0 Z " fill="#8C9496" transform="translate(43,18)"/>
<path d="M0 0 C1 2 1 2 1 5 C2.32 4.34 3.64 3.68 5 3 C4.67 6.63 4.34 10.26 4 14 C3.05 14.25 2.1 14.49 1.12 14.75 C-2 16 -2 16 -3.38 18.12 C-3.58 18.74 -3.79 19.36 -4 20 C-5.32 19.34 -6.64 18.68 -8 18 C-8 17.01 -8 16.02 -8 15 C-8.99 15 -9.98 15 -11 15 C-11.33 13.35 -11.66 11.7 -12 10 C-11.34 10 -10.68 10 -10 10 C-9.67 10.66 -9.34 11.32 -9 12 C-5.94 12.62 -5.94 12.62 -3 13 C-3 12.01 -3 11.02 -3 10 C-3.66 10 -4.32 10 -5 10 C-4.5 5.6 -2.91 3.29 0 0 Z " fill="#D0CED1" transform="translate(50,39)"/>
<path d="M0 0 C0.66 0 1.32 0 2 0 C2.29 0.8 2.58 1.61 2.88 2.44 C4 5 4 5 6 6 C6.33 7.33 6.67 8.67 7 10 C7.66 10.33 8.32 10.66 9 11 C9.62 13.56 9.62 13.56 10 16 C11.65 15.34 13.3 14.68 15 14 C14 17 14 17 12 20 C12.33 20.66 12.66 21.32 13 22 C11.35 22 9.7 22 8 22 C8.33 20.35 8.66 18.7 9 17 C8.34 17 7.68 17 7 17 C7 16.34 7 15.68 7 15 C5.68 14.67 4.36 14.34 3 14 C3 13.34 3 12.68 3 12 C2.01 11.67 1.02 11.34 0 11 C0 10.01 0 9.02 0 8 C-0.66 8 -1.32 8 -2 8 C-2 8.66 -2 9.32 -2 10 C-2.99 10 -3.98 10 -5 10 C-5.33 10.99 -5.66 11.98 -6 13 C-6.33 12.34 -6.66 11.68 -7 11 C-4.55 5.27 -4.55 5.27 -2 4 C-0.88 1.94 -0.88 1.94 0 0 Z " fill="#C4C5C0" transform="translate(45,10)"/>
<path d="M0 0 C0.66 0 1.32 0 2 0 C2 1.32 2 2.64 2 4 C2.99 4 3.98 4 5 4 C4.67 2.68 4.34 1.36 4 0 C6.97 0 9.94 0 13 0 C11.35 3.3 9.7 6.6 8 10 C8.66 10 9.32 10 10 10 C10 10.99 10 11.98 10 13 C9.01 12.84 9.01 12.84 4 12 C3.67 12.66 3.34 13.32 3 14 C3.33 12.68 3.66 11.36 4 10 C4.66 10 5.32 10 6 10 C6 9.34 6 8.68 6 8 C5.2 7.79 4.39 7.59 3.56 7.38 C3.14 7.15 3.14 7.15 1 6 C0.19 2.88 0.19 2.88 0 0 Z " fill="#9EA5B0" transform="translate(37,39)"/>
<path d="M0 0 C0.33 0.99 0.66 1.98 1 3 C1.47 3.07 1.47 3.07 3.88 3.44 C7 4 7 4 9 5 C9 5.99 9 6.98 9 8 C8.24 8.58 7.47 9.16 6.69 9.75 C3.28 12.6 2.51 14.87 1 19 C0.01 18.67 -0.98 18.34 -2 18 C-2 17.01 -2 16.02 -2 15 C-2.99 14.67 -3.98 14.34 -5 14 C-3.68 14 -2.36 14 -1 14 C-0.95 13.7 -0.95 13.7 -0.69 12.19 C0.09 9.72 1.07 8.68 3 7 C2.34 6.67 1.68 6.34 1 6 C1.33 5.34 1.66 4.68 2 4 C1.01 4 0.02 4 -1 4 C-0.67 2.68 -0.34 1.36 0 0 Z " fill="#DCD4C7" transform="translate(60,27)"/>
<path d="M0 0 C0.66 0 1.32 0 2 0 C3.12 2.81 3.12 2.81 4 6 C3.67 6.5 3.67 6.5 2 9 C3.65 9.33 5.3 9.66 7 10 C6.67 10.99 6.34 11.98 6 13 C5.01 12.34 4.02 11.68 3 11 C3.33 11.99 3.66 12.98 4 14 C0.99 17.01 -1.82 16.6 -6 17 C-5.34 16.67 -4.68 16.34 -4 16 C-4 15.01 -4 14.02 -4 13 C-2.68 13 -1.36 13 0 13 C-0.33 10.03 -0.66 7.06 -1 4 C-1.66 4 -2.32 4 -3 4 C-3 3.34 -3 2.68 -3 2 C-2.01 2 -1.02 2 0 2 C0 1.34 0 0.68 0 0 Z " fill="#79878C" transform="translate(43,18)"/>
<path d="M0 0 C0.66 0 1.32 0 2 0 C2.66 0.99 3.32 1.98 4 3 C6.62 3.19 6.62 3.19 9 3 C8.67 3.16 8.67 3.16 7 4 C7 5.65 7 7.3 7 9 C1.38 11.12 1.38 11.12 -2 10 C-1.86 8.52 -1.71 7.04 -1.56 5.56 C-1.48 4.74 -1.4 3.92 -1.32 3.07 C-1 1 -1 1 0 0 Z " fill="#B5B7A8" transform="translate(32,21)"/>
<path d="M0 0 C0.33 1.32 0.66 2.64 1 4 C1.99 4 2.98 4 4 4 C3.67 4.99 3.34 5.98 3 7 C0.94 7.69 0.94 7.69 -1 8 C-1.33 9.98 -1.66 11.96 -2 14 C-2.99 14 -3.98 14 -5 14 C-5.08 12.76 -5.16 11.52 -5.25 10.25 C-5.63 7.01 -5.9 6.12 -8.06 3.5 C-8.7 3 -9.34 2.51 -10 2 C-9.34 1.67 -8.68 1.34 -8 1 C-7.67 1.66 -7.34 2.32 -7 3 C-4.06 2.62 -4.06 2.62 -1 2 C-0.67 1.34 -0.34 0.68 0 0 Z M-4 8 C-3 10 -3 10 -3 10 Z " fill="#D5D3CD" transform="translate(29,27)"/>
<path d="M0 0 C0.33 0.66 0.66 1.32 1 2 C0.34 1.67 -0.32 1.34 -1 1 C-0.67 0.67 -0.34 0.34 0 0 Z " fill="#F1F2F2" transform="translate(59,47)"/>
</svg>
