<?xml version="1.0" encoding="UTF-8"?>
<!-- Generator: visioncortex VTracer 0.6.12 -->
<svg version="1.1" xmlns="http://www.w3.org/2000/svg" width="163" height="90">
<path d="M0 0 C2 1 2 1 2.78 3 C3.02 3.8 3.26 4.61 3.5 5.44 C4.78 9.78 4.78 9.78 7 12 C6.62 15.13 6.62 15.13 6 18 C6.5 18.16 6.5 18.16 9 19 C9 19.66 9 20.32 9 21 C8.34 21 7.68 21 7 21 C7 21.66 7 22.32 7 23 C7.99 23 8.98 23 10 23 C10 22.34 10 21.68 10 21 C11.98 20.67 13.96 20.34 16 20 C16 18.68 16 17.36 16 16 C16.61 14.31 17.27 12.64 18 11 C18.99 11 19.98 11 21 11 C21.16 11.99 21.16 11.99 22 17 C22.66 17 23.32 17 24 17 C24.33 17.66 24.33 17.66 26 21 C25.67 21.49 25.67 21.49 24 24 C24.64 24.25 25.28 24.5 25.94 24.75 C28 26 28 26 28.75 28.12 C28.83 28.74 28.92 29.36 29 30 C29 29.34 29 28.68 29 28 C29.99 28 30.98 28 32 28 C32 29.32 32 30.64 32 32 C32.66 32 33.32 32 34 32 C34.33 31.34 34.66 30.68 35 30 C35.66 30 36.32 30 37 30 C37.66 28.02 38.32 26.04 39 24 C39.66 24 40.32 24 41 24 C41 25.32 41 26.64 41 28 C41.66 28 42.32 28 43 28 C43 28.99 43 29.98 43 31 C43.5 31.16 43.5 31.16 46 32 C45.67 33.32 45.34 34.64 45 36 C45.95 36.31 46.9 36.62 47.88 36.94 C51 38 51 38 53 39 C53.19 41.38 53.19 41.38 53 44 C52.01 44.66 51.02 45.32 50 46 C52.83 45.6 53.85 45.17 55.81 43 C58.83 40.25 60.97 40.07 65 40 C67.94 41.44 67.94 41.44 70 43 C69.34 45.64 68.68 48.28 68 51 C69.65 51 71.3 51 73 51 C73.33 52.32 73.66 53.64 74 55 C73.42 55.13 72.84 55.26 72.25 55.4 C70.08 55.98 68.13 56.75 66.06 57.62 C62.53 58.97 60.69 58.99 57 58 C54 57.85 51 57.79 48 58 C47.67 58.33 47.34 58.66 47 59 C47.5 59.16 47.5 59.16 50 60 C50 60.66 50 61.32 50 62 C48.07 62.56 46.13 63.1 44.19 63.62 C43.65 63.78 43.65 63.78 40.92 64.54 C38 65 38 65 35 63 C32.31 62.88 32.31 62.88 30 63 C29.67 62.01 29.34 61.02 29 60 C28.72 60.15 28.72 60.15 27.31 60.94 C24.87 62.06 22.64 62.56 20 63 C20.66 63.33 20.66 63.33 24 65 C24 65.66 24 66.32 24 67 C20.49 69.34 19.09 69 15 69 C14.68 69.17 14.68 69.17 13.09 70.02 C8.68 72.1 3.36 70.47 -1.06 68.94 C-1.38 68.78 -1.38 68.78 -3 68 C-3 67.34 -3 66.68 -3 66 C-5.64 65.67 -8.28 65.34 -11 65 C-11 65.66 -11 66.32 -11 67 C-14.7 68.85 -19.08 67.98 -23 67 C-25.12 64.44 -25.12 64.44 -26 62 C-31.88 62.88 -31.88 62.88 -33 64 C-36.74 63.58 -40.38 63.01 -44 62 C-44 61.01 -44 60.02 -44 59 C-41.69 59 -39.38 59 -37 59 C-37 58.34 -37 57.68 -37 57 C-38.98 57 -40.96 57 -43 57 C-43 56.34 -43 55.68 -43 55 C-49.88 55.88 -49.88 55.88 -51 57 C-53 57.04 -55 57.04 -57 57 C-57.66 55.68 -58.32 54.36 -59 53 C-59.16 53.16 -59.16 53.16 -60 54 C-61.69 53.91 -63.38 53.75 -65.06 53.56 C-65.98 53.46 -66.9 53.36 -67.85 53.25 C-68.56 53.17 -69.27 53.09 -70 53 C-69.67 52.01 -69.34 51.02 -69 50 C-63.38 48.88 -63.38 48.88 -60 50 C-60.21 49.22 -60.41 48.43 -60.62 47.62 C-60.75 46.76 -60.87 45.89 -61 45 C-60.34 44.34 -59.68 43.68 -59 43 C-55.7 43.33 -54.38 43.62 -52 46 C-50.68 46 -49.36 46 -48 46 C-48.33 43.69 -48.66 41.38 -49 39 C-45 36.21 -41.83 35.49 -37 35 C-35.52 34.82 -34.04 34.63 -32.56 34.44 C-31.39 34.29 -30.21 34.15 -29 34 C-29.33 33.01 -29.66 32.02 -30 31 C-29.53 30.59 -29.05 30.17 -28.56 29.75 C-26.84 27.82 -26.43 26.52 -26 24 C-25.34 24 -24.68 24 -24 24 C-23.67 22.68 -23.34 21.36 -23 20 C-19 25.75 -19 25.75 -19 28 C-18.34 28.33 -17.68 28.66 -17 29 C-16.67 26.69 -16.34 24.38 -16 22 C-14.68 22.66 -13.36 23.32 -12 24 C-11.67 23.34 -11.34 22.68 -11 22 C-10.01 22 -9.02 22 -8 22 C-8.33 20.35 -8.66 18.7 -9 17 C-7.68 17 -6.36 17 -5 17 C-5 16.34 -5 15.68 -5 15 C-5.66 15 -6.32 15 -7 15 C-7 12 -7 12 -5 10 C-5 9.01 -5 8.02 -5 7 C-4.02 5.98 -3.02 4.98 -2 4 C-0.81 1.81 -0.81 1.81 0 0 Z M-32 54 C-32.33 54.99 -32.66 55.98 -33 57 C-32.01 57.33 -31.02 57.66 -30 58 C-29.34 56.68 -28.68 55.36 -28 54 C-29.32 54 -30.64 54 -32 54 Z M45 56 C45.66 56.66 46.32 57.32 47 58 C47 57.34 47 56.68 47 56 C46.34 56 45.68 56 45 56 Z " fill="#899294" transform="translate(80,10)"/>
<path d="M0 0 C-0.66 2.64 -1.32 5.28 -2 8 C-0.35 8 1.3 8 3 8 C3.16 8.66 3.16 8.66 4 12 C3.42 12.13 2.84 12.26 2.25 12.4 C0.08 12.98 -1.87 13.75 -3.94 14.62 C-7.47 15.97 -9.31 15.99 -13 15 C-16 14.85 -19 14.79 -22 15 C-22.16 15.16 -22.16 15.16 -23 16 C-22.5 16.16 -22.5 16.16 -20 17 C-20 17.66 -20 18.32 -20 19 C-21.93 19.56 -23.87 20.1 -25.81 20.62 C-26.89 20.93 -27.97 21.23 -29.08 21.54 C-32 22 -32 22 -35 20 C-37.69 19.88 -37.69 19.88 -40 20 C-40.16 19.5 -40.16 19.5 -41 17 C-41.56 17.31 -42.11 17.62 -42.69 17.94 C-45.13 19.06 -47.36 19.56 -50 20 C-48.68 20.66 -47.36 21.32 -46 22 C-46 22.66 -46 23.32 -46 24 C-49.51 26.34 -50.91 26 -55 26 C-55.63 26.34 -56.26 26.67 -56.91 27.02 C-61.32 29.1 -66.64 27.47 -71.06 25.94 C-71.7 25.63 -72.34 25.32 -73 25 C-73 24.34 -73 23.68 -73 23 C-75.64 22.67 -78.28 22.34 -81 22 C-81 22.66 -81 23.32 -81 24 C-83.53 25.26 -85.13 25.1 -87.94 24.94 C-88.81 24.91 -89.69 24.87 -90.59 24.84 C-93 24 -93 24 -96 18 C-89.73 18.33 -83.46 18.66 -77 19 C-77 18.34 -77 17.68 -77 17 C-76.01 17 -75.02 17 -74 17 C-74 16.34 -74 15.68 -74 15 C-74.66 15 -75.32 15 -76 15 C-75.67 14.34 -75.34 13.68 -75 13 C-73.68 13 -72.36 13 -71 13 C-71 13.99 -71 14.98 -71 16 C-69.68 16 -68.36 16 -67 16 C-67 17.32 -67 18.64 -67 20 C-66.01 20.33 -65.02 20.66 -64 21 C-64 21.66 -64 22.32 -64 23 C-63.34 23 -62.68 23 -62 23 C-62 22.34 -62 21.68 -62 21 C-61.2 20.71 -60.39 20.42 -59.56 20.12 C-57 19 -57 19 -56 17 C-56.66 16.67 -57.32 16.34 -58 16 C-57 15 -57 15 -53.62 14.88 C-50 14 -50 14 -48.87 12.38 C-48.06 10.44 -48.06 10.44 -47 7 C-46.67 7 -46.34 7 -46 7 C-46 8.98 -46 10.96 -46 13 C-45.26 12.67 -44.52 12.34 -43.75 12 C-41 11 -41 11 -37 11 C-36.67 10.34 -36.34 9.68 -36 9 C-34.68 9.33 -33.36 9.66 -32 10 C-31.67 9.34 -31.34 8.68 -31 8 C-31 8.99 -31 9.98 -31 11 C-30.34 11 -29.68 11 -29 11 C-28.92 10.05 -28.83 9.1 -28.75 8.12 C-28 5 -28 5 -26.19 3.62 C-24 3 -24 3 -20 3 C-17.07 2.63 -16.14 2.14 -14 0 C-9.59 -4.41 -4.88 -3.25 0 0 Z M-25 13 C-24.34 13.66 -23.68 14.32 -23 15 C-23 14.34 -23 13.68 -23 13 C-23.66 13 -24.32 13 -25 13 Z " fill="#C8CED7" transform="translate(150,53)"/>
<path d="M0 0 C0.14 7.43 0.14 7.43 -1 11 C-0.17 11.16 -0.17 11.16 4 12 C4.16 12.66 4.16 12.66 5 16 C6.65 15.67 8.3 15.34 10 15 C9.01 13.68 8.02 12.36 7 11 C13.26 8.87 19.42 8.41 26 8 C26.33 7.01 26.66 6.02 27 5 C28.32 5.66 29.64 6.32 31 7 C30.67 7.99 30.34 8.98 30 10 C28.35 10 26.7 10 25 10 C25.33 10.5 25.33 10.5 27 13 C27 13.99 27 14.98 27 16 C24.69 16 22.38 16 20 16 C20 16.99 20 17.98 20 19 C19.01 19.16 19.01 19.16 14 20 C14.16 20.83 14.16 20.83 15 25 C14.01 25 13.02 25 12 25 C11.84 24.34 11.84 24.34 11 21 C9.56 20.66 8.13 20.33 6.69 20 C5.89 19.81 5.09 19.63 4.26 19.44 C2 19 2 19 -1 19 C-1 18.34 -1 17.68 -1 17 C-0.34 17 0.32 17 1 17 C1 16.01 1 15.02 1 14 C-2.3 14.33 -5.6 14.66 -9 15 C-8.84 15.5 -8.84 15.5 -8 18 C-8.16 18.49 -8.16 18.49 -9 21 C-8.84 21.33 -8.84 21.33 -8 23 C-7.34 22.34 -6.68 21.68 -6 21 C-5.94 21.32 -5.94 21.32 -5.62 22.94 C-5.42 23.62 -5.21 24.3 -5 25 C-4.34 25.33 -3.68 25.66 -3 26 C-3.99 26.33 -4.98 26.66 -6 27 C-6.33 27.66 -6.66 28.32 -7 29 C-6.01 29 -5.02 29 -4 29 C-3.8 28.73 -3.8 28.73 -2.81 27.38 C-1 26 -1 26 0.97 26.25 C3 26.76 5 27.38 7 28 C7 28.66 7 29.32 7 30 C5.52 29.67 5.52 29.67 -2 28 C-2 28.66 -2 29.32 -2 30 C-1.34 30 -0.68 30 0 30 C0 30.99 0 31.98 0 33 C-6.55 36.34 -10.91 35.99 -18 34 C-18 33.01 -18 32.02 -18 31 C-15.69 31 -13.38 31 -11 31 C-11 30.34 -11 29.68 -11 29 C-12.98 29 -14.96 29 -17 29 C-17 28.34 -17 27.68 -17 27 C-23.88 27.88 -23.88 27.88 -25 29 C-27 29.04 -29 29.04 -31 29 C-31.66 27.68 -32.32 26.36 -33 25 C-33.33 25.33 -33.66 25.66 -34 26 C-35.69 25.91 -37.38 25.75 -39.06 25.56 C-39.98 25.46 -40.9 25.36 -41.85 25.25 C-42.56 25.17 -43.27 25.09 -44 25 C-43.84 24.51 -43.84 24.51 -43 22 C-37.38 20.88 -37.38 20.88 -34 22 C-34.21 21.22 -34.41 20.43 -34.62 19.62 C-34.75 18.76 -34.87 17.89 -35 17 C-34.34 16.34 -33.68 15.68 -33 15 C-29.7 15.33 -28.38 15.62 -26 18 C-24.68 18 -23.36 18 -22 18 C-22.33 15.69 -22.66 13.38 -23 11 C-19 8.21 -15.83 7.49 -11 7 C-9.52 6.82 -8.04 6.63 -6.56 6.44 C-5.97 6.37 -5.97 6.37 -3 6 C-3.16 5.51 -3.16 5.51 -4 3 C-1.12 0 -1.12 0 0 0 Z " fill="#989D9C" transform="translate(54,38)"/>
<path d="M0 0 C0.99 0 1.98 0 3 0 C3.33 1.98 3.66 3.96 4 6 C4.66 6 5.32 6 6 6 C6.66 7.32 7.32 8.64 8 10 C7.67 10.5 7.67 10.5 6 13 C6.64 13.25 7.28 13.49 7.94 13.75 C10 15 10 15 10.75 17.12 C10.79 17.43 10.79 17.43 11 19 C11 18.34 11 17.68 11 17 C11.99 17 12.98 17 14 17 C14 18.32 14 19.64 14 21 C14.66 21 15.32 21 16 21 C16.33 20.34 16.66 19.68 17 19 C17.66 19 18.32 19 19 19 C19.66 17.02 20.32 15.04 21 13 C21.66 13 22.32 13 23 13 C23 14.32 23 15.64 23 17 C23.66 17 24.32 17 25 17 C25 17.99 25 18.98 25 20 C25.99 20.33 26.98 20.66 28 21 C27.67 22.32 27.34 23.64 27 25 C27.95 25.31 28.9 25.62 29.88 25.94 C33 27 33 27 35 28 C35 29.65 35 31.3 35 33 C28.37 35.88 28.37 35.88 25 37 C23.81 40.06 23.81 40.06 23 43 C22.5 42.84 22.5 42.84 20 42 C17.91 42.3 17.91 42.3 15.62 42.88 C14.83 43.07 14.04 43.26 13.23 43.45 C12.49 43.63 11.76 43.81 11 44 C9.33 44.34 7.67 44.68 6 45 C6 43.02 6 41.04 6 39 C2.7 39 -0.6 39 -4 39 C-4 38.34 -4 37.68 -4 37 C-3.34 37 -2.68 37 -2 37 C-2 36.34 -2 35.68 -2 35 C-1.01 35 -0.02 35 1 35 C0.67 34.34 0.34 33.68 0 33 C-2.31 32.27 -4.65 31.6 -7 31 C-7 30.67 -7 30.34 -7 30 C-2.05 30 2.9 30 8 30 C8.33 29.34 8.66 28.68 9 28 C9.99 28.33 10.98 28.66 12 29 C11.34 27.35 10.68 25.7 10 24 C10.66 24 11.32 24 12 24 C11.01 23.01 10.02 22.02 9 21 C8.34 21.33 7.68 21.66 7 22 C5 21 5 21 4 18 C3.34 17.67 2.68 17.34 2 17 C1.64 14.45 1.56 11.92 1.44 9.35 C1.3 8.57 1.15 7.8 1 7 C0.01 6.34 -0.98 5.68 -2 5 C-1.34 3.35 -0.68 1.7 0 0 Z " fill="#D0C6A5" transform="translate(98,21)"/>
<path d="M0 0 C0 0.99 0 1.98 0 3 C-0.66 3 -1.32 3 -2 3 C-2 3.66 -2 4.32 -2 5 C-1.34 4.77 -0.68 4.55 0 4.31 C4.18 3.88 7.21 5.34 11 7 C11 8.32 11 9.64 11 11 C11.99 11 12.98 11 14 11 C13.34 9.02 12.68 7.04 12 5 C14.31 5 16.62 5 19 5 C19 4.01 19 3.02 19 2 C18.34 1.67 17.68 1.34 17 1 C18.65 1 20.3 1 22 1 C21.34 1.33 20.68 1.66 20 2 C20 4.64 20 7.28 20 10 C20.99 10 21.98 10 23 10 C23 9.01 23 8.02 23 7 C23.66 7 24.32 7 25 7 C25 8.32 25 9.64 25 11 C25.66 11 26.32 11 27 11 C27 10.34 27 9.68 27 9 C28.66 8.62 30.32 8.29 32 8 C33 9 33 9 33.06 12.56 C33.04 13.7 33.02 14.83 33 16 C33.99 16 34.98 16 36 16 C36.33 14.35 36.66 12.7 37 11 C37.99 11 38.98 11 40 11 C40 11.66 40 12.32 40 13 C40.99 13 41.98 13 43 13 C42.84 12.34 42.84 12.34 42 9 C42.83 9.33 42.83 9.33 47 11 C46.34 12.65 45.68 14.3 45 16 C42.69 16.33 40.38 16.66 38 17 C38 18.32 38 19.64 38 21 C36.35 21.33 34.7 21.66 33 22 C33 22.66 33 23.32 33 24 C31 24 31 24 29.38 22.75 C28 21 28 21 28 17 C26.68 17 25.36 17 24 17 C24 16.01 24 15.02 24 14 C22.35 14 20.7 14 19 14 C19 14.66 19 15.32 19 16 C19.66 16 20.32 16 21 16 C21 16.66 21 17.32 21 18 C20.01 18 19.02 18 18 18 C18 18.66 18 19.32 18 20 C15.21 20.03 12.42 20.05 9.62 20.06 C8.83 20.07 8.04 20.08 7.22 20.09 C1.23 20.11 1.23 20.11 -1 19 C-1 18.01 -1 17.02 -1 16 C-1.66 16 -2.32 16 -3 16 C-3 15.34 -3 14.68 -3 14 C2.62 13.75 2.62 13.75 6 16 C6 15.34 6 14.68 6 14 C5.3 13.87 4.6 13.73 3.88 13.6 C2.97 13.42 2.06 13.24 1.12 13.06 C0.22 12.89 -0.68 12.71 -1.62 12.54 C-4 12 -4 12 -6 11 C-6.33 10.01 -6.66 9.02 -7 8 C-7.66 8.66 -8.32 9.32 -9 10 C-11.09 5.57 -11.09 5.57 -10.62 2.69 C-10.42 2.13 -10.21 1.57 -10 1 C-6.62 -0.04 -3.52 -0.08 0 0 Z " fill="#9FA9B8" transform="translate(55,52)"/>
<path d="M0 0 C2 2 2 2 2.2 4.38 C2.17 5.29 2.15 6.19 2.12 7.12 C2.11 8.04 2.09 8.95 2.07 9.88 C2.05 10.58 2.02 11.28 2 12 C3.32 12.66 4.64 13.32 6 14 C5.67 14.66 5.34 15.32 5 16 C6.65 15.67 8.3 15.34 10 15 C11.8 18.37 12 20.18 12 24 C8.29 25.12 4.61 25.31 0.75 25.56 C-0.51 25.65 -1.78 25.73 -3.08 25.82 C-4.04 25.88 -5.01 25.94 -6 26 C-3.69 26.66 -1.38 27.32 1 28 C1 28.66 1 29.32 1 30 C0.01 30 -0.98 30 -2 30 C-2 30.66 -2 31.32 -2 32 C-2.66 32 -3.32 32 -4 32 C-4 32.66 -4 33.32 -4 34 C-1.03 34 1.94 34 5 34 C4.67 34.99 4.34 35.98 4 37 C3.5 37.16 3.5 37.16 1 38 C0.84 37.84 0.84 37.84 0 37 C0 37.66 0 38.32 0 39 C-0.99 39 -1.98 39 -3 39 C-3 38.34 -3 37.68 -3 37 C-3.99 37 -4.98 37 -6 37 C-6.33 38.65 -6.66 40.3 -7 42 C-7.99 42 -8.98 42 -10 42 C-10.33 39.69 -10.66 37.38 -11 35 C-12.65 35 -14.3 35 -16 35 C-16 35.66 -16 36.32 -16 37 C-16.66 37 -17.32 37 -18 37 C-18 35.68 -18 34.36 -18 33 C-18.66 33 -19.32 33 -20 33 C-20 33.99 -20 34.98 -20 36 C-20.99 36 -21.98 36 -23 36 C-23 33.36 -23 30.72 -23 28 C-21.02 28 -19.04 28 -17 28 C-17.66 26.02 -18.32 24.04 -19 22 C-15.7 21.01 -12.4 20.02 -9 19 C-9 19.66 -9 20.32 -9 21 C-8.34 20.67 -7.68 20.34 -7 20 C-6.62 18.68 -6.3 17.34 -6 16 C-5.35 14.33 -4.69 12.66 -4 11 C-3.34 11 -2.68 11 -2 11 C-2.08 10.55 -2.08 10.55 -2.5 8.25 C-3 5 -3 5 -3 1 C-2.01 0.67 -1.02 0.34 0 0 Z " fill="#748086" transform="translate(98,26)"/>
<path d="M0 0 C3.3 0.33 4.62 0.62 7 3 C8.99 3.4 10.99 3.74 13 4 C13 5.32 13 6.64 13 8 C14.96 8.05 16.92 8.09 18.88 8.12 C19.97 8.15 21.06 8.17 22.18 8.2 C25 8 25 8 27 6 C27.12 6.64 27.25 7.28 27.38 7.94 C27.58 8.62 27.79 9.3 28 10 C28.66 10.33 29.32 10.66 30 11 C29.01 11.33 28.02 11.66 27 12 C26.67 12.66 26.34 13.32 26 14 C26.99 14 27.98 14 29 14 C29.39 13.46 29.78 12.93 30.19 12.38 C32 11 32 11 33.97 11.25 C36 11.76 38 12.38 40 13 C40 13.66 40 14.32 40 15 C38.52 14.67 38.52 14.67 31 13 C31 13.66 31 14.32 31 15 C31.66 15 32.32 15 33 15 C33 15.99 33 16.98 33 18 C26.45 21.34 22.09 20.99 15 19 C15 18.01 15 17.02 15 16 C17.31 16 19.62 16 22 16 C22 15.34 22 14.68 22 14 C20.02 14 18.04 14 16 14 C16 13.34 16 12.68 16 12 C9.12 12.88 9.12 12.88 8 14 C6 14.04 4 14.04 2 14 C1.34 12.68 0.68 11.36 0 10 C-0.33 10.33 -0.66 10.66 -1 11 C-2.69 10.91 -4.38 10.75 -6.06 10.56 C-6.98 10.46 -7.9 10.36 -8.85 10.25 C-9.56 10.17 -10.27 10.09 -11 10 C-10.67 9.01 -10.34 8.02 -10 7 C-4.38 5.88 -4.38 5.88 -1 7 C-1.21 6.22 -1.41 5.43 -1.62 4.62 C-1.75 3.76 -1.87 2.89 -2 2 C-1.34 1.34 -0.68 0.68 0 0 Z " fill="#CFDBE9" transform="translate(21,53)"/>
<path d="M0 0 C2 1 2 1 2.78 3 C3.02 3.8 3.26 4.61 3.5 5.44 C4.78 9.78 4.78 9.78 7 12 C6.62 15.13 6.62 15.13 6 18 C6.99 18.33 7.98 18.66 9 19 C9 19.66 9 20.32 9 21 C8.34 21 7.68 21 7 21 C7 21.66 7 22.32 7 23 C7.99 23 8.98 23 10 23 C10 22.34 10 21.68 10 21 C11.65 21 13.3 21 15 21 C15.33 22.98 15.66 24.96 16 27 C15.34 27 14.68 27 14 27 C13.73 27.97 13.46 28.94 13.19 29.94 C12.8 30.95 12.4 31.96 12 33 C11.5 33.16 11.5 33.16 9 34 C9 33.34 9 32.68 9 32 C7.68 31.34 6.36 30.68 5 30 C5.33 28.68 5.66 27.36 6 26 C5.34 26 4.68 26 4 26 C3.67 26.66 3.34 27.32 3 28 C2.67 26.68 2.34 25.36 2 24 C1.01 24 0.02 24 -1 24 C-1 23.34 -1 22.68 -1 22 C-0.01 21.67 0.98 21.34 2 21 C2.33 20.34 2.66 19.68 3 19 C-2.75 18.87 -2.75 18.87 -5 20 C-5 20.99 -5 21.98 -5 23 C-5.99 22.67 -6.98 22.34 -8 22 C-8.33 20.35 -8.66 18.7 -9 17 C-7.68 17 -6.36 17 -5 17 C-5 16.34 -5 15.68 -5 15 C-5.66 15 -6.32 15 -7 15 C-7 12 -7 12 -5 10 C-5 9.01 -5 8.02 -5 7 C-4.02 5.98 -3.02 4.98 -2 4 C-0.81 1.81 -0.81 1.81 0 0 Z " fill="#AAA78F" transform="translate(80,10)"/>
<path d="M0 0 C-2.01 8.18 -2.01 8.18 -5 10 C-8.06 10.31 -8.06 10.31 -11 10 C-11.66 9.34 -12.32 8.68 -13 8 C-15.16 7.59 -15.16 7.59 -17.62 7.38 C-18.44 7.3 -19.26 7.23 -20.1 7.15 C-20.73 7.1 -21.35 7.05 -22 7 C-22.66 8.65 -23.32 10.3 -24 12 C-25.81 12.16 -25.81 12.16 -35 13 C-34.01 13 -33.02 13 -32 13 C-30.66 13.31 -29.32 13.63 -28 14 C-27.67 15.32 -27.34 16.64 -27 18 C-30.3 17.34 -33.6 16.68 -37 16 C-37 15.34 -37 14.68 -37 14 C-38.65 13.67 -40.3 13.34 -42 13 C-41.67 12.34 -41.34 11.68 -41 11 C-39.68 11 -38.36 11 -37 11 C-36.67 10.34 -36.34 9.68 -36 9 C-34.68 9.33 -33.36 9.66 -32 10 C-31.67 9.34 -31.34 8.68 -31 8 C-31 8.99 -31 9.98 -31 11 C-30.34 11 -29.68 11 -29 11 C-28.92 10.05 -28.84 9.1 -28.75 8.12 C-28 5 -28 5 -26.19 3.62 C-24 3 -24 3 -20 3 C-17.07 2.63 -16.14 2.14 -14 0 C-9.59 -4.41 -4.88 -3.25 0 0 Z " fill="#B5BCC8" transform="translate(150,53)"/>
<path d="M0 0 C1.46 -0.05 2.92 -0.09 4.38 -0.12 C5.19 -0.15 6 -0.17 6.84 -0.2 C9 0 9 0 11 2 C15.05 2.34 16.55 2.3 20 0 C23.19 0.88 23.19 0.88 26 2 C26 2.99 26 3.98 26 5 C25.42 5.13 24.84 5.26 24.25 5.4 C22.08 5.98 20.13 6.75 18.06 7.62 C14.53 8.97 12.69 8.99 9 8 C6 7.85 3 7.79 0 8 C-0.33 8.33 -0.66 8.66 -1 9 C-0.01 9.33 0.98 9.66 2 10 C2 10.66 2 11.32 2 12 C0.07 12.56 -1.87 13.1 -3.81 13.62 C-4.89 13.93 -5.97 14.23 -7.08 14.54 C-10 15 -10 15 -13 13 C-15.69 12.88 -15.69 12.88 -18 13 C-18.33 12.01 -18.66 11.02 -19 10 C-19.99 10.33 -20.98 10.66 -22 11 C-21.62 9.06 -21.62 9.06 -21 7 C-18.51 5.75 -17.59 6.22 -15 7 C-15 7.66 -15 8.32 -15 9 C-13.91 8.96 -12.81 8.92 -11.69 8.88 C-8 9 -8 9 -5 11 C-5.66 9.68 -6.32 8.36 -7 7 C-8.98 7.33 -10.96 7.66 -13 8 C-13 7.34 -13 6.68 -13 6 C-10.13 4.57 -7.27 4.72 -4.09 4.57 C-2 4 -2 4 -0.72 1.96 C-0.48 1.31 -0.24 0.67 0 0 Z M-3 6 C-2.34 6.66 -1.68 7.32 -1 8 C-1 7.34 -1 6.68 -1 6 C-1.66 6 -2.32 6 -3 6 Z " fill="#D7DFE9" transform="translate(128,60)"/>
<path d="M0 0 C1.32 0.66 2.64 1.32 4 2 C3.67 2.99 3.34 3.98 3 5 C1.35 5 -0.3 5 -2 5 C-1.67 5.49 -1.67 5.49 0 8 C0 8.99 0 9.98 0 11 C-2.31 11 -4.62 11 -7 11 C-7 11.99 -7 12.98 -7 14 C-8.98 14.33 -10.96 14.66 -13 15 C-12.67 16.65 -12.34 18.3 -12 20 C-12.99 20 -13.98 20 -15 20 C-15.33 18.68 -15.66 17.36 -16 16 C-17.44 15.66 -18.87 15.33 -20.31 15 C-21.11 14.81 -21.91 14.63 -22.74 14.44 C-25 14 -25 14 -28 14 C-28 13.34 -28 12.68 -28 12 C-27.34 12 -26.68 12 -26 12 C-26.66 10.35 -27.32 8.7 -28 7 C-26.12 6.38 -26.12 6.38 -24 6 C-22 8 -22 8 -22 11 C-20.35 10.67 -18.7 10.34 -17 10 C-17.99 8.68 -18.98 7.36 -20 6 C-13.74 3.87 -7.58 3.41 -1 3 C-0.67 2.01 -0.34 1.02 0 0 Z " fill="#C9BC98" transform="translate(81,43)"/>
<path d="M0 0 C1.65 0 3.3 0 5 0 C5 0.99 5 1.98 5 3 C6.32 3 7.64 3 9 3 C9 4.32 9 5.64 9 7 C9.66 7 10.32 7 11 7 C11 7.99 11 8.98 11 10 C7.91 11.76 6.77 12 3 12 C3 11.34 3 10.68 3 10 C0.36 9.67 -2.28 9.34 -5 9 C-5 9.66 -5 10.32 -5 11 C-7.53 12.26 -9.13 12.1 -11.94 11.94 C-12.81 11.91 -13.69 11.87 -14.59 11.84 C-17 11 -17 11 -20 5 C-13.73 5.33 -7.46 5.66 -1 6 C-1 5.34 -1 4.68 -1 4 C-0.01 4 0.98 4 2 4 C2 3.34 2 2.68 2 2 C1.34 2 0.68 2 0 2 C0 1.34 0 0.68 0 0 Z " fill="#D5DFEB" transform="translate(74,66)"/>
<path d="M0 0 C6.27 0 12.54 0 19 0 C18.67 0.99 18.34 1.98 18 3 C18.99 3 19.98 3 21 3 C21.39 2.46 21.78 1.93 22.19 1.38 C24 0 24 0 25.97 0.25 C28 0.76 30 1.38 32 2 C32 2.66 32 3.32 32 4 C29.03 3.34 26.06 2.68 23 2 C23 2.66 23 3.32 23 4 C23.66 4 24.32 4 25 4 C25 4.99 25 5.98 25 7 C18.45 10.34 14.09 9.99 7 8 C7 7.01 7 6.02 7 5 C9.31 5 11.62 5 14 5 C14 4.34 14 3.68 14 3 C12.02 3 10.04 3 8 3 C8 2.34 8 1.68 8 1 C5.36 1.33 2.72 1.66 0 2 C0 1.34 0 0.68 0 0 Z " fill="#D8E0EB" transform="translate(29,64)"/>
<path d="M0 0 C0 0.99 0 1.98 0 3 C-0.66 3 -1.32 3 -2 3 C-2 3.66 -2 4.32 -2 5 C-1.34 4.77 -0.68 4.55 0 4.31 C4.18 3.88 7.21 5.34 11 7 C11 7.99 11 8.98 11 10 C4.38 11.25 4.38 11.25 1 9 C-2.69 9.38 -2.69 9.38 -6 10 C-6.33 9.34 -6.66 8.68 -7 8 C-7.66 8.66 -8.32 9.32 -9 10 C-11.09 5.57 -11.09 5.57 -10.62 2.69 C-10.42 2.13 -10.21 1.57 -10 1 C-6.62 -0.04 -3.52 -0.08 0 0 Z " fill="#808A99" transform="translate(55,52)"/>
<path d="M0 0 C2.97 0.33 5.94 0.66 9 1 C9 1.66 9 2.32 9 3 C8.34 3 7.68 3 7 3 C7 3.66 7 4.32 7 5 C13.93 5.33 20.86 5.66 28 6 C27.67 6.99 27.34 7.98 27 9 C26.01 9.33 25.02 9.66 24 10 C23.67 9.67 23.34 9.34 23 9 C23 9.66 23 10.32 23 11 C22.01 11 21.02 11 20 11 C20 10.34 20 9.68 20 9 C19.01 9 18.02 9 17 9 C16.67 10.65 16.34 12.3 16 14 C15.01 14 14.02 14 13 14 C12.67 11.69 12.34 9.38 12 7 C10.35 7 8.7 7 7 7 C7 7.66 7 8.32 7 9 C6.34 9 5.68 9 5 9 C5 7.68 5 6.36 5 5 C4.34 5 3.68 5 3 5 C3 5.99 3 6.98 3 8 C2.01 8 1.02 8 0 8 C0 5.36 0 2.72 0 0 Z " fill="#6D7B8A" transform="translate(75,54)"/>
<path d="M0 0 C2 1 2 1 2.78 3 C3.02 3.8 3.26 4.61 3.5 5.44 C4.78 9.78 4.78 9.78 7 12 C6.62 15.12 6.62 15.12 6 18 C6.99 18.33 7.98 18.66 9 19 C9 19.66 9 20.32 9 21 C8.34 21 7.68 21 7 21 C7 21.66 7 22.32 7 23 C7.99 23 8.98 23 10 23 C10 22.34 10 21.68 10 21 C11.65 21 13.3 21 15 21 C15.33 22.65 15.66 24.3 16 26 C15.01 26 14.02 26 13 26 C12.34 25.34 11.68 24.68 11 24 C7.88 23.88 7.88 23.88 5 24 C4.67 22.02 4.34 20.04 4 18 C2.35 18 0.7 18 -1 18 C-0.01 17.67 0.98 17.34 2 17 C1.34 15.02 0.68 13.04 0 11 C0.66 11 1.32 11 2 11 C1.01 10.01 0.02 9.02 -1 8 C-1.33 8.99 -1.66 9.98 -2 11 C-2.99 10.67 -3.98 10.34 -5 10 C-5 7 -5 7 -3.62 5.56 C-3.09 5.05 -2.55 4.53 -2 4 C-0.81 1.81 -0.81 1.81 0 0 Z " fill="#C1C0B3" transform="translate(80,10)"/>
<path d="M0 0 C1.65 0 3.3 0 5 0 C4.67 0.16 4.67 0.16 3 1 C3 3.64 3 6.28 3 9 C3.99 9 4.98 9 6 9 C6 8.01 6 7.02 6 6 C6.66 6 7.32 6 8 6 C8 7.32 8 8.64 8 10 C8.66 10 9.32 10 10 10 C10 9.34 10 8.68 10 8 C11.66 7.62 13.32 7.29 15 7 C16 8 16 8 16.06 11.56 C16.04 12.7 16.02 13.83 16 15 C13.36 15 10.72 15 8 15 C8.66 14.67 9.32 14.34 10 14 C10 13.01 10 12.02 10 11 C8.8 11.16 7.61 11.33 6.38 11.5 C2.89 11.94 -0.49 12.09 -4 12 C-3.98 11.05 -3.96 10.1 -3.94 9.12 C-4 6 -4 6 -5 4 C-2.69 4 -0.38 4 2 4 C2 3.01 2 2.02 2 1 C1.34 0.67 0.68 0.34 0 0 Z " fill="#8D95A0" transform="translate(72,53)"/>
<path d="M0 0 C0.99 0 1.98 0 3 0 C3.33 1.98 3.66 3.96 4 6 C4.66 6 5.32 6 6 6 C6.66 7.32 7.32 8.64 8 10 C7.67 10.5 7.67 10.5 6 13 C6.64 13.25 7.28 13.49 7.94 13.75 C10 15 10 15 10.75 17.12 C10.79 17.43 10.79 17.43 11 19 C11 18.34 11 17.68 11 17 C11.99 17 12.98 17 14 17 C13.67 19.31 13.34 21.62 13 24 C11.68 23.01 10.36 22.02 9 21 C8.34 21.33 7.68 21.66 7 22 C5 21 5 21 4 18 C3.34 17.67 2.68 17.34 2 17 C1.64 14.45 1.56 11.92 1.44 9.35 C1.3 8.57 1.15 7.8 1 7 C0.01 6.34 -0.98 5.68 -2 5 C-1.34 3.35 -0.68 1.7 0 0 Z " fill="#BAB7A6" transform="translate(98,21)"/>
<path d="M0 0 C1.65 0.66 3.3 1.32 5 2 C4.34 3.65 3.68 5.3 3 7 C0.69 7.33 -1.62 7.66 -4 8 C-4 9.32 -4 10.64 -4 12 C-5.65 12.33 -7.3 12.66 -9 13 C-9 13.66 -9 14.32 -9 15 C-11 15 -11 15 -12.62 13.75 C-14 12 -14 12 -14 8 C-15.32 8 -16.64 8 -18 8 C-18.33 6.68 -18.66 5.36 -19 4 C-17.68 3.67 -16.36 3.34 -15 3 C-15 3.99 -15 4.98 -15 6 C-12.03 6.33 -9.06 6.66 -6 7 C-5.67 5.35 -5.34 3.7 -5 2 C-4.01 2 -3.02 2 -2 2 C-2 2.66 -2 3.32 -2 4 C-1.01 4 -0.02 4 1 4 C0.67 2.68 0.34 1.36 0 0 Z " fill="#9CA9BB" transform="translate(97,61)"/>
<path d="M0 0 C-2.01 8.18 -2.01 8.18 -5 10 C-8.19 10.19 -8.19 10.19 -11 10 C-11 6.8 -10.26 4.91 -9 2 C-9.82 1.67 -9.82 1.67 -14 0 C-9.61 -4.39 -4.84 -3.23 0 0 Z " fill="#CBCBCB" transform="translate(150,53)"/>
<path d="M0 0 C1.32 0.66 2.64 1.32 4 2 C4.33 1.34 4.66 0.68 5 0 C5.66 0.33 6.32 0.66 7 1 C6.67 1.99 6.34 2.98 6 4 C6.99 4.33 7.98 4.66 9 5 C9 7.25 9 7.25 8 10 C5.01 12.06 1.69 14 -2 14 C-2 13.34 -2 12.68 -2 12 C-3.32 12.33 -4.64 12.66 -6 13 C-6 12.34 -6 11.68 -6 11 C-4.68 10.67 -3.36 10.34 -2 10 C-2.33 9.01 -2.66 8.02 -3 7 C-2.34 7 -1.68 7 -1 7 C-0.67 4.69 -0.34 2.38 0 0 Z " fill="#B5B6A9" transform="translate(64,32)"/>
<path d="M0 0 C3.77 3.25 4.95 7.25 6 12 C4.68 12.33 3.36 12.66 2 13 C2 13.66 2 14.32 2 15 C3.32 14.67 4.64 14.34 6 14 C4.31 16.5 4.31 16.5 2 19 C0.35 19 -1.3 19 -3 19 C-3 14.38 -3 9.76 -3 5 C-2.01 4.67 -1.02 4.34 0 4 C0 2.68 0 1.36 0 0 Z " fill="#8D999E" transform="translate(56,30)"/>
<path d="M0 0 C8.57 0.86 8.57 0.86 12 3 C11.12 7.75 11.12 7.75 10 10 C6.65 11.63 4.81 12 1 12 C0.67 8.04 0.34 4.08 0 0 Z " fill="#898E92" transform="translate(103,54)"/>
<path d="M0 0 C3.15 0.34 4.61 0.58 6.81 2.94 C8 5 8 5 8 7 C9.98 7 11.96 7 14 7 C14 6.34 14 5.68 14 5 C15.65 5 17.3 5 19 5 C19.33 5.99 19.66 6.98 20 8 C19.01 8 18.02 8 17 8 C17 8.66 17 9.32 17 10 C16.34 10 15.68 10 15 10 C15 10.66 15 11.32 15 12 C11.04 11.67 7.08 11.34 3 11 C3 10.34 3 9.68 3 9 C3.66 9 4.32 9 5 9 C5 8.34 5 7.68 5 7 C3.02 7 1.04 7 -1 7 C-0.01 6.67 0.98 6.34 2 6 C1.34 4.02 0.68 2.04 0 0 Z " fill="#9E9A7F" transform="translate(79,48)"/>
<path d="M0 0 C-1.32 0.33 -2.64 0.66 -4 1 C-4 1.66 -4 2.32 -4 3 C-3.34 3 -2.68 3 -2 3 C-2 3.66 -2 4.32 -2 5 C-2.99 5 -3.98 5 -5 5 C-5 5.66 -5 6.32 -5 7 C-7.79 7.03 -10.58 7.05 -13.38 7.06 C-13.77 7.07 -13.77 7.07 -15.78 7.09 C-21.77 7.11 -21.77 7.11 -24 6 C-24 5.01 -24 4.02 -24 3 C-24.66 3 -25.32 3 -26 3 C-26 2.34 -26 1.68 -26 1 C-24.02 1 -22.04 1 -20 1 C-20.66 1.66 -21.32 2.32 -22 3 C-18.7 3.99 -15.4 4.98 -12 6 C-11.88 5.52 -11.88 5.52 -11.25 3.06 C-10 0 -10 0 -8.25 -0.94 C-5.4 -1.02 -2.79 -0.57 0 0 Z " fill="#AAB8CA" transform="translate(78,65)"/>
<path d="M0 0 C0.66 0 1.32 0 2 0 C2 1.32 2 2.64 2 4 C3.96 4.05 5.92 4.09 7.88 4.12 C8.97 4.15 10.06 4.17 11.18 4.2 C14 4 14 4 16 2 C16.12 2.64 16.25 3.28 16.38 3.94 C16.58 4.62 16.79 5.3 17 6 C17.66 6.33 18.32 6.66 19 7 C11.74 7 4.48 7 -3 7 C-3 7.99 -3 8.98 -3 10 C-4.98 10 -6.96 10 -9 10 C-9.66 8.35 -10.32 6.7 -11 5 C-10.01 5.16 -10.01 5.16 -5 6 C-4.67 6.99 -4.34 7.98 -4 9 C-3.95 8.72 -3.95 8.72 -3.69 7.31 C-2.86 4.52 -1.66 2.39 0 0 Z " fill="#C5D1E0" transform="translate(32,57)"/>
<path d="M0 0 C2.64 0.33 5.28 0.66 8 1 C7.67 1.99 7.34 2.98 7 4 C6.01 4 5.02 4 4 4 C4 4.66 4 5.32 4 6 C4.99 6 5.98 6 7 6 C7 7.65 7 9.3 7 11 C6.34 11 5.68 11 5 11 C4.67 12.65 4.34 14.3 4 16 C3.67 16 3.34 16 3 16 C3 13.69 3 11.38 3 9 C2.34 9 1.68 9 1 9 C0.67 9.66 0.34 10.32 0 11 C-2.5 9.69 -2.5 9.69 -5 8 C-5 7.01 -5 6.02 -5 5 C-3.35 5 -1.7 5 0 5 C0 3.35 0 1.7 0 0 Z " fill="#6C7B83" transform="translate(75,28)"/>
<path d="M0 0 C2.76 0.52 5.33 1.11 8 2 C8 3.65 8 5.3 8 7 C7.22 7.21 6.43 7.41 5.62 7.62 C3 9 3 9 1.69 12.12 C1.46 13.07 1.23 14.02 1 15 C0.34 15 -0.32 15 -1 15 C-1.33 12.03 -1.66 9.06 -2 6 C-2.99 5.84 -2.99 5.84 -8 5 C-5 3 -5 3 -1 3 C-0.67 2.01 -0.34 1.02 0 0 Z " fill="#9D9D98" transform="translate(120,49)"/>
<path d="M0 0 C1.32 0.66 2.64 1.32 4 2 C2.75 3.5 2.75 3.5 1 5 C-0.32 5 -1.64 5 -3 5 C-3 5.66 -3 6.32 -3 7 C-1.35 7 0.3 7 2 7 C2 7.33 2 7.66 2 8 C0.35 8 -1.3 8 -3 8 C-3 8.99 -3 9.98 -3 11 C-5.97 11 -8.94 11 -12 11 C-12 10.34 -12 9.68 -12 9 C-11.34 9 -10.68 9 -10 9 C-10 8.34 -10 7.68 -10 7 C-9.01 7 -8.02 7 -7 7 C-7.33 6.34 -7.66 5.68 -8 5 C-10.31 4.27 -12.65 3.6 -15 3 C-15 2.67 -15 2.34 -15 2 C-10.05 2 -5.1 2 0 2 C0 1.34 0 0.68 0 0 Z " fill="#CFC18E" transform="translate(106,49)"/>
<path d="M0 0 C0.66 0 1.32 0 2 0 C2 1.32 2 2.64 2 4 C2.66 4 3.32 4 4 4 C4 4.99 4 5.98 4 7 C4.99 7.33 5.98 7.66 7 8 C6.67 9.98 6.34 11.96 6 14 C-1.75 14.12 -1.75 14.12 -4 13 C-4 12.34 -4 11.68 -4 11 C-3.34 11 -2.68 11 -2 11 C-2.33 9.68 -2.66 8.36 -3 7 C-2.34 7 -1.68 7 -1 7 C-1.02 6.03 -1.04 5.06 -1.06 4.06 C-1 1 -1 1 0 0 Z " fill="#9BA4A8" transform="translate(119,34)"/>
<path d="M0 0 C0.99 0 1.98 0 3 0 C3.6 2.76 4 5.16 4 8 C2.35 8.33 0.7 8.66 -1 9 C-1 8.01 -1 7.02 -1 6 C-4.63 5.8 -6.87 6.14 -10 8 C-9.67 7.05 -9.34 6.1 -9 5.12 C-8 2 -8 2 -8 0 C-5.13 -1.43 -3.1 -0.57 0 0 Z " fill="#9A9D91" transform="translate(106,42)"/>
<path d="M0 0 C0 1.32 0 2.64 0 4 C2.88 3.69 2.88 3.69 6 3 C6.66 2.01 7.32 1.02 8 0 C8.66 0.33 9.32 0.66 10 1 C9.41 7.15 9.41 7.15 9 9 C6.48 10.26 5.15 9.92 2.38 9.56 C1.56 9.46 0.74 9.36 -0.1 9.25 C-0.73 9.17 -1.35 9.09 -2 9 C-2.66 6.36 -3.32 3.72 -4 1 C-2 0 -2 0 0 0 Z " fill="#ABB2B9" transform="translate(36,52)"/>
<path d="M0 0 C0.99 0.33 1.98 0.66 3 1 C3 1.66 3 2.32 3 3 C2.34 3 1.68 3 1 3 C1.33 3.5 1.33 3.5 3 6 C3 6.99 3 7.98 3 9 C2.01 9 1.02 9 0 9 C-0.33 9.66 -0.66 10.32 -1 11 C-1.99 11.33 -2.98 11.66 -4 12 C-4 12.99 -4 13.98 -4 15 C-4.99 14.67 -5.98 14.34 -7 14 C-7.33 12.35 -7.66 10.7 -8 9 C-6.68 9 -5.36 9 -4 9 C-4 8.34 -4 7.68 -4 7 C-4.66 7 -5.32 7 -6 7 C-6 6.01 -6 5.02 -6 4 C-5.6 3.86 -5.6 3.86 -3.56 3.12 C-1 2 -1 2 0 0 Z " fill="#8E9BA1" transform="translate(79,18)"/>
<path d="M0 0 C-0.66 0.33 -0.66 0.33 -4 2 C-4 2.66 -4 3.32 -4 4 C-5.32 4 -6.64 4 -8 4 C-8 4.66 -8 5.32 -8 6 C-10.75 6.95 -12.19 6.97 -15.12 6.44 C-16.07 6.29 -17.02 6.15 -18 6 C-18.66 6.66 -19.32 7.32 -20 8 C-19.67 6.35 -19.34 4.7 -19 3 C-4.77 -2.38 -4.77 -2.38 0 0 Z " fill="#C8C4B2" transform="translate(51,45)"/>
<path d="M0 0 C0.66 0 1.32 0 2 0 C2.12 0.8 2.25 1.61 2.38 2.44 C2.58 3.28 2.79 4.13 3 5 C3.66 5.33 4.32 5.66 5 6 C5 6.66 5 7.32 5 8 C5.66 8 6.32 8 7 8 C7.33 8.99 7.66 9.98 8 11 C7.4 10.81 6.8 10.63 6.19 10.44 C4 10 4 10 1 11 C1 10.34 1 9.68 1 9 C-0.32 8.67 -1.64 8.34 -3 8 C-3.33 8.66 -3.66 9.32 -4 10 C-4.99 10 -5.98 10 -7 10 C-6.67 8.68 -6.34 7.36 -6 6 C-5.67 6.33 -5.34 6.66 -5 7 C-4.67 5.68 -4.34 4.36 -4 3 C-3.34 3 -2.68 3 -2 3 C-1.67 2.34 -1.34 1.68 -1 1 C-0.67 0.67 -0.34 0.34 0 0 Z " fill="#8C8F85" transform="translate(84,36)"/>
<path d="M0 0 C1.65 0 3.3 0 5 0 C5 0.99 5 1.98 5 3 C6.32 3 7.64 3 9 3 C9 4.32 9 5.64 9 7 C9.66 7.33 10.32 7.66 11 8 C6.05 8 1.1 8 -4 8 C-4 7.34 -4 6.68 -4 6 C-3.01 6 -2.02 6 -1 6 C-1 5.34 -1 4.68 -1 4 C-0.01 4 0.98 4 2 4 C2 3.34 2 2.68 2 2 C1.34 2 0.68 2 0 2 C0 1.34 0 0.68 0 0 Z " fill="#BAD0E7" transform="translate(74,66)"/>
</svg>
