<?xml version="1.0" encoding="UTF-8"?>
<!-- Generator: visioncortex VTracer 0.6.12 -->
<svg version="1.1" xmlns="http://www.w3.org/2000/svg" width="56" height="31">
<path d="M0 0 C0.76 0.49 1.53 0.99 2.31 1.5 C5 3 5 3 8 3 C8.33 3.99 8.66 4.98 9 6 C10.32 5.67 11.64 5.34 13 5 C13 5.99 13 6.98 13 8 C14.98 8.33 16.96 8.66 19 9 C19 9.66 19 10.32 19 11 C12.46 12.19 6.01 12.15 -0.62 12.12 C-1.74 12.13 -2.86 12.13 -4.02 12.14 C-4.56 12.14 -4.56 12.14 -7.29 12.13 C-8.27 12.13 -9.24 12.13 -10.25 12.13 C-12.93 12 -15.39 11.6 -18 11 C-17 10 -16 9 -15 8 C-14.76 7.72 -14.76 7.72 -13.56 6.31 C-11.03 4.18 -8.17 5 -5 5 C-4.67 4.01 -4.34 3.02 -4 2 C-3.01 2 -2.02 2 -1 2 C-0.67 1.34 -0.34 0.68 0 0 Z " fill="#BEC3C6" transform="translate(28,10)"/>
<path d="M0 0 C0.99 0 1.98 0 3 0 C3 0.99 3 1.98 3 3 C4.98 3.33 6.96 3.66 9 4 C9 4.66 9 5.32 9 6 C2.46 7.19 -3.99 7.15 -10.62 7.12 C-11.74 7.13 -12.86 7.13 -14.02 7.14 C-14.56 7.14 -14.56 7.14 -17.29 7.13 C-18.27 7.13 -19.24 7.13 -20.25 7.13 C-22.93 7 -25.39 6.6 -28 6 C-25.95 3.75 -24.99 3 -22 2 C-22 2.99 -22 3.98 -22 5 C-16.6 5.09 -11.44 4.89 -6.09 4.22 C-3.38 3.93 -0.71 3.93 2 4 C2 3.01 2 2.02 2 1 C1.34 0.67 0.68 0.34 0 0 Z " fill="#D8DAD6" transform="translate(38,15)"/>
</svg>
