<?xml version="1.0" encoding="UTF-8"?>
<!-- Generator: visioncortex VTracer 0.6.12 -->
<svg version="1.1" xmlns="http://www.w3.org/2000/svg" width="110" height="152">
<path d="M0 0 C0.66 0 1.32 0 2 0 C2.12 0.51 2.12 0.51 2.7 3.11 C3.03 4.47 3.36 5.83 3.69 7.19 C3.76 7.52 3.76 7.52 4.14 9.23 C5.36 14.15 7.22 16.48 11 20 C11 20.99 11 21.98 11 23 C10.01 23 9.02 23 8 23 C9.27 26.9 10.4 28.94 14 31 C16.75 31.69 16.75 31.69 19 32 C18.67 33.65 18.34 35.3 18 37 C17.34 37 16.68 37 16 37 C15.67 37.99 15.34 38.98 15 40 C14.67 40.16 14.67 40.16 13 41 C15.31 42.32 17.62 43.64 20 45 C20 45.66 20 46.32 20 47 C20.6 47.05 21.21 47.1 21.83 47.15 C22.63 47.22 23.43 47.3 24.25 47.38 C25.04 47.44 25.83 47.51 26.64 47.59 C29.09 48.02 30.85 48.79 33 50 C31.69 52.93 30.25 54.75 28 57 C27.77 57.68 27.55 58.36 27.31 59.06 C25.1 62.32 21.75 62.27 18 63 C21.3 64.72 24.33 66.29 28 67 C28.33 68.32 28.66 69.64 29 71 C30.98 71.33 30.98 71.33 41 73 C41.33 74.32 41.66 75.64 42 77 C40.26 79.26 38.4 80.4 36 82 C36 82.99 36 83.98 36 85 C34.02 85.73 32.02 86.39 30 87 C29.34 86.67 28.68 86.34 28 86 C28 86.66 28 87.32 28 88 C27.67 88.16 27.67 88.16 26 89 C26.39 89.12 26.39 89.12 28.38 89.75 C31 91 31 91 31.88 93 C33 95 33 95 35.16 95.83 C35.98 95.97 36.79 96.11 37.62 96.25 C38.44 96.4 39.26 96.55 40.1 96.7 C40.73 96.8 41.35 96.9 42 97 C42.33 98.32 42.66 99.64 43 101 C39.37 104 39.37 104 36 104 C35.84 104.66 35.84 104.66 35 108 C34.46 108.12 33.93 108.25 33.38 108.38 C30.54 109.12 27.78 110.05 25 111 C25.78 111.6 26.57 112.2 27.38 112.81 C30 115 30 115 32 118 C31.67 118.66 31.34 119.32 31 120 C30.34 120 29.68 120 29 120 C29 120.66 29 121.32 29 122 C30.98 122.33 32.96 122.66 35 123 C35 123.99 35 124.98 35 126 C28 128.29 28 128.29 24 127 C23.5 127.16 23.5 127.16 21 128 C18.31 127.56 18.31 127.56 16 127 C15.67 128.65 15.34 130.3 15 132 C8.44 132.78 2.53 133.11 -4 132 C-4 131.34 -4 130.68 -4 130 C-10.04 128.45 -14.06 127.57 -20 130 C-25.38 130.31 -25.38 130.31 -28 129 C-28 128.34 -28 127.68 -28 127 C-30.31 127 -32.62 127 -35 127 C-35.33 126.01 -35.66 125.02 -36 124 C-35.01 123.84 -35.01 123.84 -30 123 C-29.67 121.35 -29.34 119.7 -29 118 C-30.11 117.92 -31.23 117.83 -32.38 117.75 C-36 117 -36 117 -37.44 114.94 C-37.53 114.62 -37.53 114.62 -38 113 C-32.37 110 -32.37 110 -29 110 C-28.84 109.5 -28.84 109.5 -28 107 C-24.94 105.31 -24.94 105.31 -22 104 C-27.59 101.65 -27.59 101.65 -31.25 102.56 C-34.41 103.07 -36.89 102.65 -40 102 C-39.67 100.35 -39.34 98.7 -39 97 C-39.56 96.94 -39.56 96.94 -42.38 96.62 C-46 96 -46 96 -48 94 C-47.62 91.88 -47.62 91.88 -47 90 C-43.34 88.95 -39.69 87.91 -36 87 C-36.52 86.47 -37.03 85.94 -37.57 85.39 C-38.23 84.68 -38.88 83.98 -39.56 83.25 C-39.89 82.9 -39.89 82.9 -41.57 81.14 C-43 79 -43 79 -42.71 76.73 C-42.6 76.45 -42.6 76.45 -42 75 C-41.38 75.01 -41.38 75.01 -38.25 75.06 C-32.46 75.04 -32.46 75.04 -30 74 C-29.34 73.01 -28.68 72.02 -28 71 C-25.67 70.32 -23.34 69.66 -21 69 C-19.28 67.44 -19.28 67.44 -18 66 C-18.31 65.92 -18.31 65.92 -19.9 65.52 C-22.37 64.82 -24.67 64.08 -27 63 C-28.25 60.56 -28.25 60.56 -29 58 C-31.63 55.69 -31.63 55.69 -34 54 C-33.67 52.35 -33.34 50.7 -33 49 C-32.29 48.94 -31.58 48.88 -30.85 48.82 C-29.93 48.73 -29.01 48.65 -28.06 48.56 C-27.15 48.48 -26.23 48.4 -25.29 48.32 C-23 48 -23 48 -22 47 C-20.33 46.96 -18.67 46.96 -17 47 C-17 46.01 -17 45.02 -17 44 C-16.01 43.34 -15.02 42.68 -14 42 C-15 39 -15 39 -17.06 37.81 C-17.7 37.54 -18.34 37.28 -19 37 C-19 35.68 -19 34.36 -19 33 C-16.03 32.34 -13.06 31.68 -10 31 C-9.67 29.68 -9.34 28.36 -9 27 C-8.84 26.51 -8.84 26.51 -8 24 C-8.99 23.67 -9.98 23.34 -11 23 C-11 22.01 -11 21.02 -11 20 C-10.26 19.63 -9.52 19.26 -8.75 18.88 C-4.31 15.85 -2.63 11.07 -1.57 5.89 C-1.35 4.26 -1.17 2.63 -1 1 C-0.67 0.67 -0.34 0.34 0 0 Z M23 109 C24 111 24 111 24 111 Z M-6 114 C-5 116 -5 116 -5 116 Z " fill="#52625B" transform="translate(58,10)"/>
<path d="M0 0 C0.42 0.31 0.42 0.31 2.56 1.88 C5.91 4.13 9.09 5.06 13 6 C13.16 6.66 13.16 6.66 14 10 C17.96 10.66 21.92 11.32 26 12 C26.16 12.66 26.16 12.66 27 16 C25.26 18.26 23.4 19.4 21 21 C21 21.99 21 22.98 21 24 C19.02 24.73 17.02 25.39 15 26 C14.34 25.67 13.68 25.34 13 25 C13 25.66 13 26.32 13 27 C12.67 27.16 12.67 27.16 11 28 C11.78 28.25 12.57 28.5 13.38 28.75 C16 30 16 30 16.88 32 C18 34 18 34 20.16 34.83 C20.98 34.97 21.79 35.11 22.62 35.25 C23.44 35.4 24.26 35.55 25.1 35.7 C25.73 35.8 26.35 35.9 27 36 C27.16 36.66 27.16 36.66 28 40 C24.38 43 24.38 43 21 43 C20.67 44.32 20.34 45.64 20 47 C19.46 47.12 18.93 47.25 18.38 47.38 C15.54 48.12 12.78 49.05 10 50 C10.78 50.6 11.57 51.2 12.38 51.81 C15 54 15 54 17 57 C16.84 57.33 16.84 57.33 16 59 C15.34 59 14.68 59 14 59 C14 59.66 14 60.32 14 61 C15.98 61.33 17.96 61.66 20 62 C20 62.99 20 63.98 20 65 C13 67.29 13 67.29 9 66 C8.01 66.33 7.02 66.66 6 67 C3.31 66.56 3.31 66.56 1 66 C0.67 67.65 0.34 69.3 0 71 C-6.56 71.78 -12.47 72.11 -19 71 C-19 70.34 -19 69.68 -19 69 C-25.04 67.45 -29.06 66.57 -35 69 C-40.38 69.31 -40.38 69.31 -43 68 C-43 67.34 -43 66.68 -43 66 C-45.31 66 -47.62 66 -50 66 C-50.33 65.01 -50.66 64.02 -51 63 C-50.01 62.84 -50.01 62.84 -45 62 C-45 61.34 -45 60.68 -45 60 C-44.17 59.81 -43.34 59.61 -42.48 59.41 C-41.94 59.28 -41.94 59.28 -39.19 58.62 C-38.11 58.37 -37.03 58.11 -35.92 57.85 C-33 57 -33 57 -30 55 C-30 55.66 -30 56.32 -30 57 C-27.56 56.62 -27.56 56.62 -25 56 C-24.67 55.34 -24.34 54.68 -24 54 C-23.51 53.84 -23.51 53.84 -21 53 C-20.67 52.84 -20.67 52.84 -19 52 C-18.7 57.02 -19.01 59.9 -22 64 C-20.68 64 -19.36 64 -18 64 C-18 60.7 -18 57.4 -18 54 C-17.01 54 -16.02 54 -15 54 C-15 53.34 -15 52.68 -15 52 C-13.68 52 -12.36 52 -11 52 C-10.67 50.68 -10.34 49.36 -10 48 C-10 48.99 -10 49.98 -10 51 C-8.68 51.33 -7.36 51.66 -6 52 C-6 51.34 -6 50.68 -6 50 C-5.01 50 -4.02 50 -3 50 C-3.33 52.97 -3.66 55.94 -4 59 C-2.68 59 -1.36 59 0 59 C-0.19 57.87 -0.37 56.73 -0.56 55.56 C-0.71 54.39 -0.85 53.21 -1 52 C-0.67 51.67 -0.34 51.34 0 51 C-0.99 50.01 -1.98 49.02 -3 48 C-2.34 48 -1.68 48 -1 48 C-1 47.34 -1 46.68 -1 46 C-2.32 45.67 -3.64 45.34 -5 45 C-5.33 43.35 -5.66 41.7 -6 40 C-6.33 41.32 -6.66 42.64 -7 44 C-10 43 -13 42 -16 41 C-16 40.01 -16 39.02 -16 38 C-16.99 38 -17.98 38 -19 38 C-18.43 35.13 -18.14 34.14 -16 32 C-15.59 29.62 -15.59 29.62 -15.38 26.88 C-15.3 25.96 -15.23 25.05 -15.15 24.12 C-15.1 23.42 -15.05 22.72 -15 22 C-12.04 22.61 -10.62 23.25 -8 25 C-8 25.66 -8 26.32 -8 27 C-7.36 27.1 -6.72 27.21 -6.06 27.31 C-5.38 27.54 -4.7 27.77 -4 28 C-3.84 28.5 -3.84 28.5 -3 31 C-3.99 31 -4.98 31 -6 31 C-5.84 31.33 -5.84 31.33 -5 33 C-1.94 33.62 -1.94 33.62 1 34 C1.33 32.35 1.66 30.7 2 29 C3.65 28.67 5.3 28.34 7 28 C7 27.34 7 26.68 7 26 C8.32 26 9.64 26 11 26 C11 25.01 11 24.02 11 23 C10.01 23 9.02 23 8 23 C7.94 22.68 7.94 22.68 7.62 21.06 C7.42 20.38 7.21 19.7 7 19 C6.34 18.67 5.68 18.34 5 18 C5 17.34 5 16.68 5 16 C5.66 16 6.32 16 7 16 C7 14.35 7 12.7 7 11 C5.02 11 3.04 11 1 11 C0.84 9.19 0.84 9.19 0 0 Z M8 48 C9 50 9 50 9 50 Z " fill="#7F8067" transform="translate(73,71)"/>
<path d="M0 0 C0.66 0 1.32 0 2 0 C2.12 0.51 2.12 0.51 2.7 3.11 C3.03 4.47 3.36 5.83 3.69 7.19 C3.76 7.52 3.76 7.52 4.14 9.23 C5.36 14.15 7.22 16.48 11 20 C11 20.99 11 21.98 11 23 C10.01 23 9.02 23 8 23 C9.27 26.9 10.4 28.94 14 31 C16.75 31.69 16.75 31.69 19 32 C18.67 33.65 18.34 35.3 18 37 C17.34 37 16.68 37 16 37 C15.67 37.99 15.34 38.98 15 40 C14.67 40.16 14.67 40.16 13 41 C15.31 42.32 17.62 43.64 20 45 C20 45.66 20 46.32 20 47 C20.6 47.05 21.21 47.1 21.83 47.15 C22.63 47.22 23.43 47.3 24.25 47.38 C25.04 47.44 25.83 47.51 26.64 47.59 C29.09 48.02 30.85 48.79 33 50 C31.69 52.93 30.25 54.75 28 57 C27.73 57.7 27.46 58.4 27.19 59.12 C26 61 26 61 23.25 61.81 C19.97 62 17.2 61.69 14 61 C14 60.01 14 59.02 14 58 C14.66 57.67 15.32 57.34 16 57 C16.62 54.94 16.62 54.94 17 53 C16.34 53 15.68 53 15 53 C15 54.32 15 55.64 15 57 C13.68 57 12.36 57 11 57 C11.52 57.74 12.03 58.48 12.56 59.25 C14 62 14 62 13.69 64.31 C13.46 64.87 13.23 65.43 13 66 C11.06 65.19 11.06 65.19 9 64 C8.67 63.01 8.34 62.02 8 61 C7.67 60.84 7.67 60.84 6 60 C6.33 59.01 6.66 58.02 7 57 C7.99 57 8.98 57 10 57 C10 55.02 10 53.04 10 51 C10.66 51 11.32 51 12 51 C12 50.34 12 49.68 12 49 C10.68 49 9.36 49 8 49 C8 47.35 8 45.7 8 44 C8.99 44 9.98 44 11 44 C11 42.68 11 41.36 11 40 C10.17 40.16 10.17 40.16 6 41 C6 40.34 6 39.68 6 39 C4.35 38.67 2.7 38.34 1 38 C0.67 39.32 0.34 40.64 0 42 C-0.99 41.01 -1.98 40.02 -3 39 C-3.49 39.16 -3.49 39.16 -6 40 C-6 38.02 -6 36.04 -6 34 C-7.32 34 -8.64 34 -10 34 C-10.38 35.66 -10.71 37.32 -11 39 C-10.84 39.16 -10.84 39.16 -10 40 C-10 38.68 -10 37.36 -10 36 C-9.34 36 -8.68 36 -8 36 C-8 37.65 -8 39.3 -8 41 C-6.02 41.66 -4.04 42.32 -2 43 C-2 43.66 -2 44.32 -2 45 C-2.99 45 -3.98 45 -5 45 C-5.33 45.99 -5.66 46.98 -6 48 C-6.49 47.84 -6.49 47.84 -9 47 C-9.33 47.66 -9.66 48.32 -10 49 C-10.99 48.34 -11.98 47.68 -13 47 C-12.67 48.32 -12.34 49.64 -12 51 C-11.46 50.8 -10.91 50.59 -10.36 50.38 C-9.64 50.11 -8.92 49.84 -8.19 49.56 C-7.48 49.3 -6.77 49.03 -6.04 48.75 C-4.37 48.14 -2.69 47.56 -1 47 C-1 49.31 -1 51.62 -1 54 C-0.67 54.16 -0.67 54.16 1 55 C0.34 55 -0.32 55 -1 55 C-1 56.65 -1 58.3 -1 60 C-1.99 60 -2.98 60 -4 60 C-4.33 60.99 -4.66 61.98 -5 63 C-6.81 63.56 -6.81 63.56 -9 64 C-10.35 64.64 -11.69 65.3 -13 66 C-13 65.34 -13 64.68 -13 64 C-13.66 64 -14.32 64 -15 64 C-15.33 64.99 -15.66 65.98 -16 67 C-17.63 66.55 -19.25 66.09 -20.88 65.62 C-21.78 65.37 -22.68 65.11 -23.62 64.85 C-26 64 -26 64 -28 62 C-28.1 61.38 -28.21 60.76 -28.31 60.12 C-29.32 57.02 -31.41 55.86 -34 54 C-33.67 52.35 -33.34 50.7 -33 49 C-32.29 48.94 -31.58 48.88 -30.85 48.82 C-29.93 48.73 -29.01 48.65 -28.06 48.56 C-27.15 48.48 -26.23 48.4 -25.29 48.32 C-23 48 -23 48 -22 47 C-20.33 46.96 -18.67 46.96 -17 47 C-17 46.01 -17 45.02 -17 44 C-16.01 43.34 -15.02 42.68 -14 42 C-15 39 -15 39 -17.06 37.81 C-17.7 37.54 -18.34 37.28 -19 37 C-19 35.68 -19 34.36 -19 33 C-16.03 32.34 -13.06 31.68 -10 31 C-9.67 29.68 -9.34 28.36 -9 27 C-8.67 26.01 -8.34 25.02 -8 24 C-8.99 23.67 -9.98 23.34 -11 23 C-11 22.01 -11 21.02 -11 20 C-10.26 19.63 -9.52 19.26 -8.75 18.88 C-4.31 15.85 -2.63 11.07 -1.57 5.89 C-1.35 4.26 -1.17 2.63 -1 1 C-0.67 0.67 -0.34 0.34 0 0 Z " fill="#6B766B" transform="translate(58,10)"/>
<path d="M0 0 C0.66 0 1.32 0 2 0 C2.23 1.02 2.46 2.05 2.7 3.11 C3.03 4.47 3.36 5.83 3.69 7.19 C3.84 7.86 3.99 8.53 4.14 9.23 C5.36 14.15 7.22 16.48 11 20 C11 20.99 11 21.98 11 23 C10.01 23 9.02 23 8 23 C9.27 26.9 10.4 28.94 14 31 C16.75 31.69 16.75 31.69 19 32 C18.67 33.65 18.34 35.3 18 37 C17.34 37 16.68 37 16 37 C15.67 37.99 15.34 38.98 15 40 C14.67 40.16 14.67 40.16 13 41 C15.31 42.32 17.62 43.64 20 45 C20 45.66 20 46.32 20 47 C20.6 47.05 21.21 47.1 21.83 47.15 C22.63 47.22 23.43 47.3 24.25 47.38 C25.04 47.44 25.83 47.51 26.64 47.59 C29.09 48.02 30.85 48.79 33 50 C31.69 52.93 30.25 54.75 28 57 C27.73 57.7 27.46 58.4 27.19 59.12 C26 61 26 61 23.25 61.81 C19.97 62 17.2 61.69 14 61 C14 60.01 14 59.02 14 58 C14.33 57.84 14.33 57.84 16 57 C16.62 54.94 16.62 54.94 17 53 C16.34 53 15.68 53 15 53 C15 54.32 15 55.64 15 57 C13.68 57 12.36 57 11 57 C11.52 57.74 12.03 58.48 12.56 59.25 C14 62 14 62 13.69 64.31 C13.46 64.87 13.23 65.43 13 66 C11.06 65.19 11.06 65.19 9 64 C8.84 63.5 8.84 63.5 8 61 C7.34 60.67 6.68 60.34 6 60 C6.33 59.01 6.66 58.02 7 57 C7.99 57 8.98 57 10 57 C10 55.02 10 53.04 10 51 C10.66 51 11.32 51 12 51 C12 50.34 12 49.68 12 49 C10.68 49 9.36 49 8 49 C8 47.35 8 45.7 8 44 C8.99 44 9.98 44 11 44 C11 42.68 11 41.36 11 40 C10.17 40.16 10.17 40.16 6 41 C6 40.34 6 39.68 6 39 C4.35 38.67 2.7 38.34 1 38 C0.67 39.32 0.34 40.64 0 42 C-0.33 41.67 -0.66 41.34 -1 41 C-0.91 38.81 -0.75 36.62 -0.56 34.44 C-0.46 33.24 -0.36 32.04 -0.25 30.81 C-0.17 29.88 -0.09 28.95 0 28 C2 30 2 30 2 34 C2.99 33.34 3.98 32.68 5 32 C5.99 32 6.98 32 8 32 C8 31.01 8 30.02 8 29 C7.34 29.33 7.34 29.33 4 31 C4 30.01 4 29.02 4 28 C4.66 27.67 5.32 27.34 6 27 C6 25.02 6 23.04 6 21 C5.01 21.99 4.02 22.98 3 24 C2.97 23.68 2.97 23.68 2.82 22.07 C2.73 21.24 2.65 20.41 2.56 19.56 C2.52 19.15 2.52 19.15 2.32 17.07 C2 15 2 15 1 14 C0.96 11.67 0.96 9.33 1 7 C0.34 7 -0.32 7 -1 7 C-1.04 5 -1.04 3 -1 1 C-0.67 0.67 -0.34 0.34 0 0 Z " fill="#9B9875" transform="translate(58,10)"/>
<path d="M0 0 C0.31 0.32 0.31 0.32 1.88 1.94 C4 4 4 4 6 5 C5.84 4.17 5.84 4.17 5 0 C5.99 0.33 6.98 0.66 8 1 C8 2.65 8 4.3 8 6 C9.32 6.33 10.64 6.66 12 7 C11.67 7.99 11.34 8.98 11 10 C11.99 10.66 12.98 11.32 14 12 C13.67 12.66 13.34 13.32 13 14 C12.96 16 12.96 18 13 20 C11.68 20 10.36 20 9 20 C9.33 17.03 9.66 14.06 10 11 C9.01 11 8.02 11 7 11 C7 11.66 7 12.32 7 13 C5.68 12.67 4.36 12.34 3 12 C3 12.66 3 13.32 3 14 C2.17 13.84 2.17 13.84 -2 13 C-2 13.66 -2 14.32 -2 15 C-2.99 15 -3.98 15 -5 15 C-5 18.3 -5 21.6 -5 25 C-6.32 25 -7.64 25 -9 25 C-8.12 21.12 -8.12 21.12 -7 20 C-6.63 17.67 -6.3 15.34 -6 13 C-6.66 13 -7.32 13 -8 13 C-8 13.66 -8 14.32 -8 15 C-8.99 15 -9.98 15 -11 15 C-11.33 15.99 -11.66 16.98 -12 18 C-14.33 18 -16.67 18 -19 18 C-19.7 18.33 -20.4 18.66 -21.12 19 C-24.92 20.32 -27.99 20.14 -32 20 C-32 19.34 -32 18.68 -32 18 C-32.95 17.92 -33.9 17.84 -34.88 17.75 C-38 17 -38 17 -39.38 14.94 C-39.58 14.3 -39.79 13.66 -40 13 C-34.38 10 -34.38 10 -31 10 C-30.67 9.01 -30.34 8.02 -30 7 C-27.06 5.38 -27.06 5.38 -24 4 C-23.34 3.67 -22.68 3.34 -22 3 C-21.59 3.83 -21.17 4.65 -20.75 5.5 C-20.17 6.33 -19.59 7.15 -19 8 C-15 8 -15 8 -13.62 6.69 C-13.09 6.13 -12.55 5.57 -12 5 C-8.52 2.83 -6.76 1.93 -2.62 2.31 C-2.19 2.43 -2.19 2.43 0 3 C0 2.01 0 1.02 0 0 Z " fill="#62706B" transform="translate(60,110)"/>
<path d="M0 0 C0.66 0 1.32 0 2 0 C1.67 1.65 1.34 3.3 1 5 C0.34 5 -0.32 5 -1 5 C-0.48 6.2 0.03 7.39 0.56 8.62 C2.01 12.44 2.1 15 1 19 C2.98 19 4.96 19 7 19 C7.16 19.5 7.16 19.5 8 22 C7.67 22.66 7.34 23.32 7 24 C6.34 24 5.68 24 5 24 C5 24.66 5 25.32 5 26 C5.99 26.33 6.98 26.66 8 27 C8 28.32 8 29.64 8 31 C8.99 31 9.98 31 11 31 C11 31.99 11 32.98 11 34 C9.68 34 8.36 34 7 34 C7 34.66 7 35.32 7 36 C6.38 36.06 5.76 36.12 5.12 36.19 C3 37 3 37 1.75 39.56 C1.5 40.37 1.25 41.17 1 42 C-0.98 42 -2.96 42 -5 42 C-5.33 41.01 -5.66 40.02 -6 39 C-5.67 38.84 -5.67 38.84 -4 38 C-4 37.34 -4 36.68 -4 36 C-5.32 35.67 -6.64 35.34 -8 35 C-8 34.34 -8 33.68 -8 33 C-8.62 32.71 -9.24 32.42 -9.88 32.12 C-12 31 -12 31 -14 29 C-14.12 26.38 -14.12 26.38 -14 24 C-14.66 24 -15.32 24 -16 24 C-16 24.99 -16 25.98 -16 27 C-16.66 27 -17.32 27 -18 27 C-18 28.32 -18 29.64 -18 31 C-20.65 32.46 -21.89 33 -25 33 C-25.33 32.34 -25.66 31.68 -26 31 C-26.33 31.83 -26.33 31.83 -28 36 C-29.32 36 -30.64 36 -32 36 C-31.23 28.01 -31.23 28.01 -28 25 C-24.81 23.75 -24.81 23.75 -22 23 C-22 23.66 -22 24.32 -22 25 C-21.72 24.85 -21.72 24.85 -20.31 24.06 C-17.87 22.94 -15.64 22.44 -13 22 C-12.67 20.68 -12.34 19.36 -12 18 C-12 18.66 -12 19.32 -12 20 C-10.35 19.34 -8.7 18.68 -7 18 C-7 17.34 -7 16.68 -7 16 C-5.68 16 -4.36 16 -3 16 C-3.33 15.01 -3.66 14.02 -4 13 C-3.34 12.67 -2.68 12.34 -2 12 C-2.52 9.24 -3.11 6.67 -4 4 C-2.68 4 -1.36 4 0 4 C0 2.68 0 1.36 0 0 Z " fill="#67715A" transform="translate(73,63)"/>
<path d="M0 0 C1.32 0.66 2.64 1.32 4 2 C4 3.98 4 5.96 4 8 C5.32 7.34 6.64 6.68 8 6 C8.33 6.49 8.33 6.49 10 9 C10.33 8.01 10.66 7.02 11 6 C11.83 6.16 11.83 6.16 16 7 C16 7.66 16 8.32 16 9 C17.65 8.67 19.3 8.34 21 8 C21 9.32 21 10.64 21 12 C20.01 12 19.02 12 18 12 C18 13.65 18 15.3 18 17 C19.32 17 20.64 17 22 17 C22 17.66 22 18.32 22 19 C21.34 19 20.68 19 20 19 C20 20.98 20 22.96 20 25 C19.01 25.33 18.02 25.66 17 26 C16.67 26.66 16.34 27.32 16 28 C16.99 28.33 17.98 28.66 19 29 C22 34.22 22 34.22 22 37 C19.98 36.67 17.96 36.35 15.95 36.02 C15.3 36.02 14.66 36.01 14 36 C11.86 38.14 11.57 39.13 11 42 C10.34 42 9.68 42 9 42 C9 40.35 9 38.7 9 37 C8.34 37 7.68 37 7 37 C7 36.34 7 35.68 7 35 C6.67 35.16 6.67 35.16 5 36 C5.66 36.99 6.32 37.98 7 39 C5.35 38.67 3.7 38.34 2 38 C1.85 38.39 1.85 38.39 1.06 40.38 C0 43 0 43 -1 45 C-1.66 45 -2.32 45 -3 45 C-3 44.01 -3 43.02 -3 42 C-4.65 41.67 -6.3 41.34 -8 41 C-8.33 39.68 -8.66 38.36 -9 37 C-8.34 37 -7.68 37 -7 37 C-6.34 35.35 -5.68 33.7 -5 32 C-4.34 32 -3.68 32 -3 32 C-3 32.66 -3 33.32 -3 34 C-2.05 33.34 -1.1 32.68 -0.12 32 C3 30 3 30 5 30 C5.33 29.34 5.66 28.68 6 28 C6.99 28 7.98 28 9 28 C9 23.71 9 19.42 9 15 C7.93 15.66 6.86 16.32 5.75 17 C2.69 18.88 1.87 19 -2 19 C-2.33 17.68 -2.66 16.36 -3 15 C-0.67 15 1.67 15 4 15 C4.33 14.34 4.66 13.68 5 13 C5.99 13 6.98 13 8 13 C7.67 12.34 7.34 11.68 7 11 C6.01 10.67 5.02 10.34 4 10 C3.67 10.66 3.34 11.32 3 12 C1 9 1 9 1.38 6.31 C1.58 5.55 1.79 4.79 2 4 C1.34 4 0.68 4 0 4 C0 5.32 0 6.64 0 8 C-0.66 7.67 -1.32 7.34 -2 7 C-1.34 4.69 -0.68 2.38 0 0 Z " fill="#4B5A50" transform="translate(48,42)"/>
<path d="M0 0 C0.66 0 1.32 0 2 0 C2 1.98 2 3.96 2 6 C-1.63 6.33 -5.26 6.66 -9 7 C-9 7.66 -9 8.32 -9 9 C-9.66 9 -10.32 9 -11 9 C-11 9.99 -11 10.98 -11 12 C-3.86 13.26 2.81 12.66 10 12 C11.33 12 12.66 12.01 13.99 12.04 C18.13 12.08 21.95 12.04 26 11 C26 10.34 26 9.68 26 9 C25.34 8.67 24.68 8.34 24 8 C24.36 8.01 24.36 8.01 26.19 8.06 C28.92 8 31.34 7.61 34 7 C34.16 7.33 34.16 7.33 35 9 C38.06 9.62 38.06 9.62 41 10 C41 10.99 41 11.98 41 13 C34 15.29 34 15.29 30 14 C29.01 14.33 28.02 14.66 27 15 C24.31 14.56 24.31 14.56 22 14 C21.67 15.65 21.34 17.3 21 19 C14.44 19.78 8.53 20.11 2 19 C2 18.34 2 17.68 2 17 C-4.04 15.45 -8.06 14.57 -14 17 C-19.38 17.31 -19.38 17.31 -22 16 C-22 15.34 -22 14.68 -22 14 C-24.31 14 -26.62 14 -29 14 C-29.33 13.01 -29.66 12.02 -30 11 C-28.02 10.67 -26.04 10.34 -24 10 C-24 9.34 -24 8.68 -24 8 C-23.17 7.81 -22.34 7.61 -21.48 7.41 C-20.39 7.15 -19.31 6.89 -18.19 6.62 C-17.65 6.5 -17.65 6.5 -14.92 5.85 C-12 5 -12 5 -9 3 C-9 3.66 -9 4.32 -9 5 C-6.56 4.62 -6.56 4.62 -4 4 C-3.67 3.34 -3.34 2.68 -3 2 C-2.01 1.67 -1.02 1.34 0 1 C0 0.67 0 0.34 0 0 Z " fill="#BCBCA5" transform="translate(52,123)"/>
<path d="M0 0 C1.32 0 2.64 0 4 0 C4.66 2.31 5.32 4.62 6 7 C8.97 7.33 11.94 7.66 15 8 C15.33 7.34 15.66 6.68 16 6 C16 6.99 16 7.98 16 9 C16.66 9 17.32 9 18 9 C18 9.66 18 10.32 18 11 C18.66 11 19.32 11 20 11 C20.33 12.65 20.66 14.3 21 16 C17.52 17.59 14.84 18.41 11 18 C10.34 17.34 9.68 16.68 9 16 C8.34 16.66 7.68 17.32 7 18 C4.62 17.98 4.62 17.98 1.88 17.62 C0.96 17.51 0.05 17.4 -0.88 17.29 C-1.58 17.19 -2.28 17.1 -3 17 C-2.67 15.35 -2.34 13.7 -2 12 C-3.11 11.88 -4.23 11.75 -5.38 11.62 C-9 11 -9 11 -11 9 C-10.62 6.88 -10.62 6.88 -10 5 C-2.57 2.86 -2.57 2.86 1 2 C0.67 1.34 0.34 0.68 0 0 Z " fill="#71817D" transform="translate(21,95)"/>
<path d="M0 0 C0.85 0.62 1.69 1.24 2.56 1.88 C5.91 4.13 9.09 5.06 13 6 C13.33 7.32 13.66 8.64 14 10 C15.98 10.33 15.98 10.33 26 12 C26.33 13.32 26.66 14.64 27 16 C25.26 18.26 23.4 19.4 21 21 C21 21.99 21 22.98 21 24 C19.02 24.73 17.02 25.39 15 26 C14.34 25.67 13.68 25.34 13 25 C13 25.66 13 26.32 13 27 C11.35 27.33 9.7 27.66 8 28 C7.67 27.34 7.34 26.68 7 26 C8.32 26 9.64 26 11 26 C11 25.01 11 24.02 11 23 C10.01 23 9.02 23 8 23 C7.88 22.36 7.75 21.72 7.62 21.06 C7.42 20.38 7.21 19.7 7 19 C6.34 18.67 5.68 18.34 5 18 C5 17.34 5 16.68 5 16 C5.66 16 6.32 16 7 16 C7 14.35 7 12.7 7 11 C5.02 11 3.04 11 1 11 C0.67 7.37 0.34 3.74 0 0 Z " fill="#B5AC83" transform="translate(73,71)"/>
<path d="M0 0 C0.66 0 1.32 0 2 0 C2.38 1.66 2.71 3.32 3 5 C2.67 5.33 2.34 5.66 2 6 C1.76 8.52 1.62 11.03 1.48 13.55 C0.92 16.39 0.1 17.11 -2 19 C-2.33 19.99 -2.66 20.98 -3 22 C-2.01 22 -1.02 22 0 22 C-0.12 23.88 -0.12 23.88 -1 26 C-3.81 27.19 -3.81 27.19 -7 28 C-7.78 28.21 -8.57 28.41 -9.38 28.62 C-9.91 28.75 -10.45 28.87 -11 29 C-11.33 30.32 -11.66 31.64 -12 33 C-12 32.34 -12 31.68 -12 31 C-13.32 31.33 -14.64 31.66 -16 32 C-17.56 30.19 -17.56 30.19 -19 28 C-18 25 -18 25 -16.5 23.75 C-14.24 21.11 -14.32 18.38 -14 15 C-13.24 15.19 -12.47 15.37 -11.69 15.56 C-9 16 -9 16 -6 15 C-6.33 14.34 -6.66 13.68 -7 13 C-7.99 13.33 -8.98 13.66 -10 14 C-10 12.02 -10 10.04 -10 8 C-9.01 8.33 -8.02 8.66 -7 9 C-6.01 8.01 -5.02 7.02 -4 6 C-3.34 6.33 -2.68 6.66 -2 7 C-2 5.68 -2 4.36 -2 3 C-1.34 3 -0.68 3 0 3 C0 2.01 0 1.02 0 0 Z " fill="#344543" transform="translate(57,87)"/>
<path d="M0 0 C0.99 0 1.98 0 3 0 C3.66 1.98 4.32 3.96 5 6 C5.66 6 6.32 6 7 6 C7 5.34 7 4.68 7 4 C7.99 4 8.98 4 10 4 C13 9.75 13 9.75 13 12 C10.98 11.67 8.96 11.35 6.95 11.02 C6.3 11.02 5.66 11.01 5 11 C2.86 13.14 2.57 14.13 2 17 C1.34 17 0.68 17 0 17 C0 15.35 0 13.7 0 12 C-0.66 12 -1.32 12 -2 12 C-2 11.34 -2 10.68 -2 10 C-2.33 10.16 -2.33 10.16 -4 11 C-3.67 11.5 -3.67 11.5 -2 14 C-3.65 13.67 -5.3 13.34 -7 13 C-7.31 13.78 -7.62 14.57 -7.94 15.38 C-9 18 -9 18 -10 20 C-10.66 20 -11.32 20 -12 20 C-12 19.01 -12 18.02 -12 17 C-13.65 16.67 -15.3 16.34 -17 16 C-17.33 14.68 -17.66 13.36 -18 12 C-17.34 12 -16.68 12 -16 12 C-15.34 10.35 -14.68 8.7 -14 7 C-13.34 7 -12.68 7 -12 7 C-12 7.66 -12 8.32 -12 9 C-11.05 8.34 -10.1 7.68 -9.12 7 C-6 5 -6 5 -4 5 C-3.67 4.34 -3.34 3.68 -3 3 C-2.01 3 -1.02 3 0 3 C0 2.01 0 1.02 0 0 Z " fill="#354640" transform="translate(57,67)"/>
<path d="M0 0 C3.38 0.75 3.38 0.75 7 2 C7.31 2.66 7.62 3.32 7.94 4 C9 6 9 6 11.16 6.83 C11.98 6.97 12.79 7.11 13.62 7.25 C14.44 7.4 15.26 7.55 16.1 7.7 C16.73 7.8 17.35 7.9 18 8 C18.33 9.32 18.66 10.64 19 12 C15.38 15 15.38 15 12 15 C11.67 16.32 11.34 17.64 11 19 C10.48 19.12 9.97 19.25 9.44 19.38 C6.27 20.19 3.14 21.09 0 22 C-1.14 18.57 -0.83 17.69 0.31 14.38 C0.44 13.98 0.44 13.98 1.11 11.96 C2 10 2 10 4 9 C4 8.34 4 7.68 4 7 C3.01 7 2.02 7 1 7 C1 7.66 1 8.32 1 9 C-0.65 9.33 -2.3 9.66 -4 10 C-4 8.68 -4 7.36 -4 6 C-3.01 5.67 -2.02 5.34 -1 5 C-0.67 3.35 -0.34 1.7 0 0 Z " fill="#979779" transform="translate(82,99)"/>
<path d="M0 0 C0.66 0 1.32 0 2 0 C2 0.7 2 1.4 2 2.12 C3.55 6.59 7.16 8.46 11 11 C10.67 11.99 10.34 12.98 10 14 C7.69 14 5.38 14 3 14 C2.67 14.66 2.34 15.32 2 16 C1.01 16 0.02 16 -1 16 C-1 16.66 -1 17.32 -1 18 C-5.78 20.62 -9.84 19.83 -15 19 C-15.33 19.66 -15.66 20.32 -16 21 C-16.99 20.01 -17.98 19.02 -19 18 C-17.68 17.67 -16.36 17.34 -15 17 C-15.66 14.36 -16.32 11.72 -17 9 C-16.17 9.66 -16.17 9.66 -12 13 C-12 12.34 -12 11.68 -12 11 C-11.34 11 -10.68 11 -10 11 C-10 11.99 -10 12.98 -10 14 C-10.66 14 -11.32 14 -12 14 C-12 14.66 -12 15.32 -12 16 C-10.84 15.84 -10.84 15.84 -5 15 C-5 14.34 -5 13.68 -5 13 C-3.68 13.33 -2.36 13.66 -1 14 C-1.52 12.97 -2.03 11.94 -2.56 10.88 C-4.13 7.27 -4.03 4.84 -3 1 C-2.01 1.33 -1.02 1.66 0 2 C0 1.34 0 0.68 0 0 Z " fill="#9E9E84" transform="translate(79,116)"/>
<path d="M0 0 C0 0.99 0 1.98 0 3 C0.04 3.97 0.08 4.94 0.12 5.94 C0 8.95 -0.44 10.47 -2 13 C-2.66 13 -3.32 13 -4 13 C-4 12.34 -4 11.68 -4 11 C-6.31 11 -8.62 11 -11 11 C-11 12.98 -11 14.96 -11 17 C-14.04 17.73 -16.87 18.21 -20 18 C-22.66 16.28 -23.38 14.86 -25 12 C-24.81 9.62 -24.81 9.62 -24 8 C-23.38 8.01 -23.38 8.01 -20.25 8.06 C-14.46 8.04 -14.46 8.04 -12 7 C-11.34 6.01 -10.68 5.02 -10 4 C-7.68 3.28 -5.35 2.62 -3 2 C-2.01 1.34 -1.02 0.68 0 0 Z " fill="#828C88" transform="translate(40,77)"/>
<path d="M0 0 C0.62 0.64 1.24 1.28 1.88 1.94 C4 4 4 4 6 5 C5.67 3.35 5.34 1.7 5 0 C5.99 0.33 6.98 0.66 8 1 C8 2.65 8 4.3 8 6 C9.32 6.33 10.64 6.66 12 7 C11.67 7.99 11.34 8.98 11 10 C11.99 10.66 12.98 11.32 14 12 C13.67 12.66 13.34 13.32 13 14 C12.96 16 12.96 18 13 20 C11.68 20 10.36 20 9 20 C9.33 17.03 9.66 14.06 10 11 C9.01 11 8.02 11 7 11 C7 11.66 7 12.32 7 13 C5.68 12.67 4.36 12.34 3 12 C3 12.66 3 13.32 3 14 C1.35 13.67 -0.3 13.34 -2 13 C-2 13.66 -2 14.32 -2 15 C-2.99 15 -3.98 15 -5 15 C-5 18.3 -5 21.6 -5 25 C-6.32 25 -7.64 25 -9 25 C-8.12 21.12 -8.12 21.12 -7 20 C-6.63 17.67 -6.3 15.34 -6 13 C-6.66 12.67 -7.32 12.34 -8 12 C-7.34 11.34 -6.68 10.68 -6 10 C-5.01 10 -4.02 10 -3 10 C-2.67 7.69 -2.34 5.38 -2 3 C-1.34 3 -0.68 3 0 3 C0 2.01 0 1.02 0 0 Z " fill="#59675B" transform="translate(60,110)"/>
<path d="M0 0 C1.32 0.33 2.64 0.66 4 1 C4 1.66 4 2.32 4 3 C4.6 3.05 5.21 3.1 5.83 3.15 C6.63 3.22 7.43 3.3 8.25 3.38 C9.04 3.44 9.83 3.51 10.64 3.59 C13.09 4.02 14.85 4.79 17 6 C15.69 8.93 14.25 10.75 12 13 C11.73 13.7 11.46 14.4 11.19 15.12 C10 17 10 17 7.25 17.81 C3.97 18 1.2 17.69 -2 17 C-2 16.01 -2 15.02 -2 14 C-1.34 13.67 -0.68 13.34 0 13 C0.62 10.44 0.62 10.44 1 8 C0.34 8 -0.32 8 -1 8 C-0.39 5.04 0.25 3.62 2 1 C1.34 0.67 0.68 0.34 0 0 Z " fill="#A3A080" transform="translate(74,54)"/>
<path d="M0 0 C0.58 0.83 1.16 1.65 1.75 2.5 C2.12 2.91 2.12 2.91 4 5 C5.32 5 6.64 5 8 5 C8.33 6.65 8.66 8.3 9 10 C8.01 10.66 7.02 11.32 6 12 C5.67 11.01 5.34 10.02 5 9 C4.67 9.66 4.34 10.32 4 11 C3.34 11 2.68 11 2 11 C2 11.99 2 12.98 2 14 C1.01 14.33 0.02 14.66 -1 15 C-0.67 13.68 -0.34 12.36 0 11 C-0.66 10.67 -1.32 10.34 -2 10 C-1.67 9.34 -1.34 8.68 -1 8 C-2.65 8.33 -4.3 8.66 -6 9 C-6 10.32 -6 11.64 -6 13 C-6.33 13.66 -6.66 14.32 -7 15 C-12.46 14.65 -12.46 14.65 -15 14 C-16.5 11.94 -16.5 11.94 -17 10 C-11.38 7 -11.38 7 -8 7 C-7.67 6.01 -7.34 5.02 -7 4 C-5.03 2.93 -3.03 1.93 -1 1 C-0.67 0.67 -0.34 0.34 0 0 Z " fill="#6F8383" transform="translate(37,113)"/>
<path d="M0 0 C1.32 0.33 2.64 0.66 4 1 C4.33 2.32 4.66 3.64 5 5 C2 6 2 6 -2 5 C-1.67 7.97 -1.34 10.94 -1 14 C-1.66 14 -2.32 14 -3 14 C-3.33 14.66 -3.66 15.32 -4 16 C-7.63 15.67 -11.26 15.34 -15 15 C-15 15.66 -15 16.32 -15 17 C-16.94 16.31 -16.94 16.31 -19 15 C-19.81 12.44 -19.81 12.44 -20 10 C-17.97 7.97 -14.01 8.5 -11.25 8.28 C-9 8 -9 8 -8 7 C-6.33 6.96 -4.67 6.96 -3 7 C-3 6.01 -3 5.02 -3 4 C-2.01 3.34 -1.02 2.68 0 2 C0 1.34 0 0.68 0 0 Z " fill="#86938C" transform="translate(44,50)"/>
<path d="M0 0 C2.97 0 5.94 0 9 0 C9.25 2.31 9.25 2.31 9 5 C7 6.62 7 6.62 5 8 C5 8.99 5 9.98 5 11 C3.02 11.73 1.02 12.39 -1 13 C-1.66 12.67 -2.32 12.34 -3 12 C-3 12.66 -3 13.32 -3 14 C-4.65 14.33 -6.3 14.66 -8 15 C-8.33 14.34 -8.66 13.68 -9 13 C-7.68 13 -6.36 13 -5 13 C-5 12.01 -5 11.02 -5 10 C-5.99 10 -6.98 10 -8 10 C-6.33 5 -6.33 5 -5 3 C-2.38 2.25 -2.38 2.25 0 2 C0 1.34 0 0.68 0 0 Z " fill="#A2986C" transform="translate(89,84)"/>
<path d="M0 0 C1.32 0 2.64 0 4 0 C4 1.32 4 2.64 4 4 C4.99 4 5.98 4 7 4 C7 4.99 7 5.98 7 7 C5.68 7 4.36 7 3 7 C3 7.66 3 8.32 3 9 C2.38 9.06 1.76 9.12 1.12 9.19 C-1 10 -1 10 -2.25 12.56 C-2.5 13.37 -2.75 14.17 -3 15 C-4.98 15 -6.96 15 -9 15 C-9.33 14.01 -9.66 13.02 -10 12 C-9.34 11.67 -8.68 11.34 -8 11 C-8 10.34 -8 9.68 -8 9 C-8.66 9 -9.32 9 -10 9 C-10.33 8.01 -10.66 7.02 -11 6 C-9.71 4.62 -8.37 3.29 -7 2 C-6.34 2 -5.68 2 -5 2 C-4.67 2.5 -4.67 2.5 -3 5 C-2.01 5.33 -1.02 5.66 0 6 C0 4.02 0 2.04 0 0 Z " fill="#58614F" transform="translate(77,90)"/>
<path d="M0 0 C0.4 0.01 0.4 0.01 2.44 0.06 C2.44 0.72 2.44 1.38 2.44 2.06 C3.43 2.23 3.43 2.23 8.44 3.06 C8.44 4.05 8.44 5.04 8.44 6.06 C1.44 8.35 1.44 8.35 -2.56 7.06 C-3.55 7.39 -4.54 7.72 -5.56 8.06 C-8.25 7.62 -8.25 7.62 -10.56 7.06 C-10.89 8.71 -11.22 10.36 -11.56 12.06 C-14.53 12.06 -17.5 12.06 -20.56 12.06 C-19.57 11.4 -18.58 10.74 -17.56 10.06 C-17.27 9.39 -16.97 8.71 -16.66 8.02 C-15.56 6.06 -15.56 6.06 -13.4 5.23 C-12.59 5.1 -11.77 4.96 -10.94 4.81 C-10.53 4.74 -10.53 4.74 -8.46 4.36 C-7.83 4.26 -7.21 4.16 -6.56 4.06 C-6.56 3.4 -6.56 2.74 -6.56 2.06 C-7.22 1.73 -7.88 1.4 -8.56 1.06 C-8.16 1.07 -8.16 1.07 -6.12 1.12 C-3.09 1.05 -3.04 0.07 0 0 Z " fill="#D0CDB1" transform="translate(84.5625,129.9375)"/>
<path d="M0 0 C2 3 2 3 2 7 C3.32 7.33 4.64 7.66 6 8 C5.34 8 4.68 8 4 8 C4.66 9.98 5.32 11.96 6 14 C6.66 14 7.32 14 8 14 C9.1 17.29 8.8 18.71 8 22 C5 21 2 20 -1 19 C-1 18.01 -1 17.02 -1 16 C-1.99 16 -2.98 16 -4 16 C-3.43 13.13 -3.14 12.14 -1 10 C-0.59 7.62 -0.59 7.62 -0.38 4.88 C-0.3 3.96 -0.23 3.05 -0.15 2.12 C-0.1 1.42 -0.05 0.72 0 0 Z " fill="#727D6A" transform="translate(58,93)"/>
<path d="M0 0 C3.38 0.75 3.38 0.75 7 2 C7.31 2.66 7.62 3.32 7.94 4 C9 6 9 6 11.16 6.83 C11.98 6.97 12.79 7.11 13.62 7.25 C14.44 7.4 15.26 7.55 16.1 7.7 C16.73 7.8 17.35 7.9 18 8 C18.33 9.32 18.66 10.64 19 12 C15.38 15 15.38 15 12 15 C11.67 15.99 11.34 16.98 11 18 C11.33 14.7 11.66 11.4 12 8 C9.36 8.33 6.72 8.66 4 9 C4 8.34 4 7.68 4 7 C3.01 7 2.02 7 1 7 C1 7.66 1 8.32 1 9 C-0.65 9.33 -2.3 9.66 -4 10 C-4 8.68 -4 7.36 -4 6 C-3.01 5.67 -2.02 5.34 -1 5 C-0.67 3.35 -0.34 1.7 0 0 Z " fill="#ABA88C" transform="translate(82,99)"/>
<path d="M0 0 C1.43 2.86 0.6 4.93 0 8 C1.32 7.34 2.64 6.68 4 6 C4 6.99 4 7.98 4 9 C1.69 10.12 1.69 10.12 -1 11 C-1.99 10.34 -2.98 9.68 -4 9 C-4 11.31 -4 13.62 -4 16 C-4.99 15.67 -5.98 15.34 -7 15 C-6.67 14.34 -6.34 13.68 -6 13 C-6.66 13 -7.32 13 -8 13 C-8 12.34 -8 11.68 -8 11 C-8.66 11 -9.32 11 -10 11 C-10 10.01 -10 9.02 -10 8 C-10.99 7.67 -11.98 7.34 -13 7 C-12.34 6.34 -11.68 5.68 -11 5 C-11.99 4.67 -12.98 4.34 -14 4 C-12.88 2.5 -12.88 2.5 -11 1 C-7.81 0.81 -7.81 0.81 -5 1 C-5.33 2.65 -5.66 4.3 -6 6 C-4.12 5.81 -4.12 5.81 -2 5 C-0.75 2.44 -0.75 2.44 0 0 Z " fill="#455B5C" transform="translate(47,93)"/>
<path d="M0 0 C0.99 0.33 1.98 0.66 3 1 C2.34 2.32 1.68 3.64 1 5 C0.34 5 -0.32 5 -1 5 C-1 6.32 -1 7.64 -1 9 C-3.65 10.46 -4.89 11 -8 11 C-8.33 10.34 -8.66 9.68 -9 9 C-9.66 10.65 -10.32 12.3 -11 14 C-12.32 14 -13.64 14 -15 14 C-14.23 6.01 -14.23 6.01 -11 3 C-7.81 1.75 -7.81 1.75 -5 1 C-5 1.66 -5 2.32 -5 3 C-1.12 1.12 -1.12 1.12 0 0 Z " fill="#737F71" transform="translate(56,85)"/>
<path d="M0 0 C0 0.66 0 1.32 0 2 C0.66 2 1.32 2 2 2 C2 2.66 2 3.32 2 4 C3.32 4 4.64 4 6 4 C6 4.66 6 5.32 6 6 C5.34 6 4.68 6 4 6 C4 7.98 4 9.96 4 12 C3.01 12.33 2.02 12.66 1 13 C0.67 13.66 0.34 14.32 0 15 C0.66 15.33 1.32 15.66 2 16 C1.34 16 0.68 16 0 16 C0 16.66 0 17.32 0 18 C-0.66 18 -1.32 18 -2 18 C-3.66 14.25 -4.5 10.74 -5.12 6.69 C-5.29 5.62 -5.46 4.55 -5.63 3.45 C-5.75 2.64 -5.88 1.83 -6 1 C-3.92 0.45 -2.16 0 0 0 Z " fill="#72775B" transform="translate(64,55)"/>
<path d="M0 0 C0.66 0.33 1.32 0.66 2 1 C2 1.99 2 2.98 2 4 C2.66 4 3.32 4 4 4 C4 4.66 4 5.32 4 6 C4.66 6.33 5.32 6.66 6 7 C5.01 7.33 4.02 7.66 3 8 C2.67 8.66 2.34 9.32 2 10 C-3.75 10.12 -3.75 10.12 -6 9 C-6 8.34 -6 7.68 -6 7 C-8.31 7 -10.62 7 -13 7 C-13.33 6.01 -13.66 5.02 -14 4 C-12.02 3.67 -10.04 3.34 -8 3 C-8 2.34 -8 1.68 -8 1 C-5.26 -0.37 -3.03 -0.13 0 0 Z " fill="#ADAE96" transform="translate(36,130)"/>
<path d="M0 0 C0.33 0.66 0.66 1.32 1 2 C1.99 2 2.98 2 4 2 C3.88 3.88 3.88 3.88 3 6 C0.19 7.19 0.19 7.19 -3 8 C-3.78 8.21 -4.57 8.41 -5.38 8.62 C-5.91 8.75 -6.45 8.87 -7 9 C-7.33 10.32 -7.66 11.64 -8 13 C-8 12.34 -8 11.68 -8 11 C-9.32 11.33 -10.64 11.66 -12 12 C-13.56 10.19 -13.56 10.19 -15 8 C-14.67 7.01 -14.34 6.02 -14 5 C-12.68 5 -11.36 5 -10 5 C-9.67 4.34 -9.34 3.68 -9 3 C-7.36 2.28 -5.69 1.61 -4 1 C-4 1.66 -4 2.32 -4 3 C-3.34 3 -2.68 3 -2 3 C-1.34 2.01 -0.68 1.02 0 0 Z " fill="#4B584F" transform="translate(53,107)"/>
<path d="M0 0 C0.66 0 1.32 0 2 0 C2.23 1.02 2.46 2.05 2.7 3.11 C3.03 4.47 3.36 5.83 3.69 7.19 C3.84 7.86 3.99 8.53 4.14 9.23 C5.36 14.15 7.22 16.48 11 20 C11 20.99 11 21.98 11 23 C10.01 23 9.02 23 8 23 C8.33 24.65 8.66 26.3 9 28 C8.01 27.67 7.02 27.34 6 27 C6 25.02 6 23.04 6 21 C5.01 21.99 4.02 22.98 3 24 C2.97 23.68 2.97 23.68 2.82 22.07 C2.73 21.24 2.65 20.41 2.56 19.56 C2.52 19.15 2.52 19.15 2.32 17.07 C2 15 2 15 1 14 C0.96 11.67 0.96 9.33 1 7 C0.34 7 -0.32 7 -1 7 C-1.04 5 -1.04 3 -1 1 C-0.67 0.67 -0.34 0.34 0 0 Z " fill="#B9AF8A" transform="translate(58,10)"/>
<path d="M0 0 C2.97 0.33 5.94 0.66 9 1 C9.33 1.99 9.66 2.98 10 4 C9.67 4.66 9.34 5.32 9 6 C8.34 6 7.68 6 7 6 C7 6.66 7 7.32 7 8 C7.66 8.33 8.32 8.66 9 9 C8.01 9 7.02 9 6 9 C6 10.98 6 12.96 6 15 C4.19 14.81 4.19 14.81 2 14 C-0.53 10.65 -1 9.3 -1 5 C-0.34 5 0.32 5 1 5 C0.67 3.35 0.34 1.7 0 0 Z " fill="#8E8959" transform="translate(71,81)"/>
<path d="M0 0 C0.66 0.33 1.32 0.66 2 1 C1.67 1.66 1.34 2.32 1 3 C1.66 3.33 2.32 3.66 3 4 C2.67 4.66 2.34 5.32 2 6 C2.66 6 3.32 6 4 6 C3.61 8.8 3.2 9.82 1.06 11.75 C-1 13 -1 13 -3 13 C-3 12.34 -3 11.68 -3 11 C-3.66 11 -4.32 11 -5 11 C-5.33 11.99 -5.66 12.98 -6 14 C-7.63 13.55 -9.25 13.09 -10.88 12.62 C-11.78 12.37 -12.68 12.11 -13.62 11.85 C-16 11 -16 11 -18 9 C-18.62 6.38 -18.62 6.38 -19 4 C-17.68 4 -16.36 4 -15 4 C-14.34 5.32 -13.68 6.64 -13 8 C-12.01 8 -11.02 8 -10 8 C-10 8.99 -10 9.98 -10 11 C-8.68 11 -7.36 11 -6 11 C-6 10.34 -6 9.68 -6 9 C-4.34 7.98 -2.68 6.98 -1 6 C-0.67 5.34 -0.34 4.68 0 4 C-0.99 4 -1.98 4 -3 4 C-2.67 3.01 -2.34 2.02 -2 1 C-1.34 0.67 -0.68 0.34 0 0 Z " fill="#7A857C" transform="translate(48,63)"/>
<path d="M0 0 C-0.35 5.45 -0.35 5.45 -1 8 C-3 9.31 -3 9.31 -5 10 C-5.33 10.99 -5.66 11.98 -6 13 C-6.99 13 -7.98 13 -9 13 C-9 12.34 -9 11.68 -9 11 C-9.99 11 -10.98 11 -12 11 C-12 8.69 -12 6.38 -12 4 C-10.76 3.32 -9.5 2.66 -8.25 2 C-7.55 1.63 -6.86 1.26 -6.14 0.88 C-4 0 -4 0 0 0 Z " fill="#6A6A55" transform="translate(58,112)"/>
<path d="M0 0 C0.99 0.33 1.98 0.66 3 1 C2.69 1.6 2.38 2.2 2.06 2.81 C1 5 1 5 0 8 C0.66 8.33 1.32 8.66 2 9 C1.34 9 0.68 9 0 9 C0 10.32 0 11.64 0 13 C-1.32 13 -2.64 13 -4 13 C-3.48 13.74 -2.97 14.48 -2.44 15.25 C-1 18 -1 18 -1.31 20.31 C-1.54 20.87 -1.77 21.43 -2 22 C-3.94 21.19 -3.94 21.19 -6 20 C-6.33 19.01 -6.66 18.02 -7 17 C-7.66 16.67 -8.32 16.34 -9 16 C-8.67 15.01 -8.34 14.02 -8 13 C-7.01 13 -6.02 13 -5 13 C-5 11.02 -5 9.04 -5 7 C-4.34 7 -3.68 7 -3 7 C-3 6.34 -3 5.68 -3 5 C-3.99 4.67 -4.98 4.34 -6 4 C-4.02 3.67 -2.04 3.34 0 3 C0 2.01 0 1.02 0 0 Z " fill="#888965" transform="translate(73,54)"/>
<path d="M0 0 C0.66 0.33 1.32 0.66 2 1 C2.14 1.66 2.29 2.32 2.44 3 C2.62 3.66 2.81 4.32 3 5 C3.99 5.33 4.98 5.66 6 6 C6 4.02 6 2.04 6 0 C7.32 0.33 8.64 0.66 10 1 C10.33 2.65 10.66 4.3 11 6 C7.52 7.59 4.84 8.41 1 8 C0.34 7.34 -0.32 6.68 -1 6 C-1.66 6.66 -2.32 7.32 -3 8 C-5.38 7.98 -5.38 7.98 -8.12 7.62 C-9.04 7.51 -9.95 7.4 -10.88 7.29 C-11.23 7.24 -11.23 7.24 -13 7 C-12.67 6.01 -12.34 5.02 -12 4 C-12 4.66 -12 5.32 -12 6 C-11.38 5.34 -10.76 4.68 -10.12 4 C-8 2 -8 2 -6 2 C-6 2.66 -6 3.32 -6 4 C-4.02 2.68 -2.04 1.36 0 0 Z " fill="#819190" transform="translate(31,105)"/>
<path d="M0 0 C3.36 0.6 5.38 1.85 8 4 C6.79 7.62 6.2 7.4 3 9 C3.99 12.3 4.98 15.6 6 19 C4.68 18.67 3.36 18.34 2 18 C2 18.66 2 19.32 2 20 C-0.31 20.33 -2.62 20.66 -5 21 C-5 20.34 -5 19.68 -5 19 C-3.02 19 -1.04 19 1 19 C0.81 17.87 0.63 16.73 0.44 15.56 C0.29 14.39 0.15 13.21 0 12 C0.33 11.67 0.66 11.34 1 11 C0.01 10.01 -0.98 9.02 -2 8 C-1.34 8 -0.68 8 0 8 C0 7.34 0 6.68 0 6 C-0.66 5.67 -1.32 5.34 -2 5 C-1.01 5 -0.02 5 1 5 C0.67 3.35 0.34 1.7 0 0 Z " fill="#6F7562" transform="translate(72,111)"/>
<path d="M0 0 C1.56 1.5 1.56 1.5 3 4 C2.92 6.73 2.44 9.3 2 12 C2.33 12.66 2.66 13.32 3 14 C1.35 13.67 -0.3 13.34 -2 13 C-2 13.66 -2 14.32 -2 15 C-2.99 15 -3.98 15 -5 15 C-5 18.3 -5 21.6 -5 25 C-6.32 25 -7.64 25 -9 25 C-8.12 21.12 -8.12 21.12 -7 20 C-6.63 17.67 -6.3 15.34 -6 13 C-6.66 12.67 -7.32 12.34 -8 12 C-7.34 11.34 -6.68 10.68 -6 10 C-5.01 10 -4.02 10 -3 10 C-2.67 7.69 -2.34 5.38 -2 3 C-1.34 3 -0.68 3 0 3 C0 2.01 0 1.02 0 0 Z " fill="#525144" transform="translate(60,110)"/>
<path d="M0 0 C0 2.31 0 4.62 0 7 C0.66 7.33 1.32 7.66 2 8 C1.34 8 0.68 8 0 8 C0 9.65 0 11.3 0 13 C-0.99 13 -1.98 13 -3 13 C-3.33 13.99 -3.66 14.98 -4 16 C-4.33 14.68 -4.66 13.36 -5 12 C-5.66 12 -6.32 12 -7 12 C-7.66 9.69 -8.32 7.38 -9 5 C-7.88 4.16 -6.75 3.33 -5.62 2.5 C-5 2.04 -4.37 1.57 -3.73 1.09 C-2 0 -2 0 0 0 Z " fill="#71775D" transform="translate(57,57)"/>
<path d="M0 0 C1.65 1.32 3.3 2.64 5 4 C5 3.34 5 2.68 5 2 C5.66 2 6.32 2 7 2 C7 2.99 7 3.98 7 5 C6.34 5 5.68 5 5 5 C5 5.66 5 6.32 5 7 C6.16 6.84 6.16 6.84 12 6 C12 5.34 12 4.68 12 4 C12.99 4.33 13.98 4.66 15 5 C15.69 7.06 15.69 7.06 16 9 C11.22 11.62 7.16 10.83 2 10 C1.67 10.66 1.34 11.32 1 12 C0.01 11.01 -0.98 10.02 -2 9 C-0.68 8.67 0.64 8.34 2 8 C1.34 5.36 0.68 2.72 0 0 Z " fill="#A4A07B" transform="translate(62,125)"/>
<path d="M0 0 C0.33 0.66 0.66 1.32 1 2 C1.99 1.67 2.98 1.34 4 1 C4.33 1.66 4.66 2.32 5 3 C5.99 3 6.98 3 8 3 C8.75 4.75 8.75 4.75 9 7 C7.12 9.06 7.12 9.06 5 11 C4.67 11.99 4.34 12.98 4 14 C3.17 13.67 3.17 13.67 -1 12 C-1.92 7.28 -2.23 4.33 0 0 Z " fill="#5A6B5F" transform="translate(60,81)"/>
<path d="M0 0 C0.33 0 0.66 0 1 0 C1.33 2.64 1.66 5.28 2 8 C2.66 7.01 3.32 6.02 4 5 C5 6 5 6 5.06 9.06 C5.04 10.03 5.02 11 5 12 C4.01 12.33 3.02 12.66 2 13 C2.33 13.66 2.66 14.32 3 15 C3.99 14.67 4.98 14.34 6 14 C6 14.99 6 15.98 6 17 C4.02 17.66 2.04 18.32 0 19 C-2.09 13.69 -3.61 9.71 -2 4 C-1.34 4 -0.68 4 0 4 C0 2.68 0 1.36 0 0 Z " fill="#787B60" transform="translate(60,25)"/>
<path d="M0 0 C-0.99 1.98 -1.98 3.96 -3 6 C-1.68 6 -0.36 6 1 6 C1.33 5.34 1.66 4.68 2 4 C2 4.99 2 5.98 2 7 C-3.56 7.91 -7.68 8.32 -13 6 C-13 5.01 -13 4.02 -13 3 C-12.34 3 -11.68 3 -11 3 C-11 2.34 -11 1.68 -11 1 C-6.88 -0.63 -4.29 -1.26 0 0 Z " fill="#828870" transform="translate(54,129)"/>
<path d="M0 0 C0.66 0 1.32 0 2 0 C2 0.99 2 1.98 2 3 C3.32 3 4.64 3 6 3 C6 3.66 6 4.32 6 5 C6.66 5.33 7.32 5.66 8 6 C6.68 8.31 5.36 10.62 4 13 C3.34 13 2.68 13 2 13 C2 12.01 2 11.02 2 10 C0.35 9.67 -1.3 9.34 -3 9 C-3.33 7.68 -3.66 6.36 -4 5 C-3.34 5 -2.68 5 -2 5 C-1.34 3.35 -0.68 1.7 0 0 Z " fill="#415049" transform="translate(43,74)"/>
<path d="M0 0 C0.33 0.66 0.66 1.32 1 2 C2.16 1.83 2.16 1.83 8 1 C8 1.66 8 2.32 8 3 C6.02 3.33 4.04 3.66 2 4 C2 5.32 2 6.64 2 8 C1.67 8.66 1.34 9.32 1 10 C-4.46 9.65 -4.46 9.65 -7 9 C-8.5 6.94 -8.5 6.94 -9 5 C-3.38 2 -3.38 2 0 2 C0 1.34 0 0.68 0 0 Z " fill="#8A9897" transform="translate(29,118)"/>
<path d="M0 0 C0.66 0 1.32 0 2 0 C2.38 1.66 2.71 3.32 3 5 C2.67 5.33 2.34 5.66 2 6 C1.8 8.52 1.68 11.03 1.57 13.55 C1 16 1 16 -1.04 17.82 C-1.37 18.01 -1.37 18.01 -3 19 C-3.66 18.67 -4.32 18.34 -5 18 C-5 18.66 -5 19.32 -5 20 C-5.66 20 -6.32 20 -7 20 C-7 19.01 -7 18.02 -7 17 C-5.68 16.67 -4.36 16.34 -3 16 C-3.01 15.4 -3.02 14.79 -3.04 14.17 C-3.04 13.77 -3.04 13.77 -3.06 11.75 C-3.07 10.96 -3.09 10.17 -3.1 9.36 C-3 7.09 -2.63 5.17 -2 3 C-1.34 3 -0.68 3 0 3 C0 2.01 0 1.02 0 0 Z " fill="#4B5440" transform="translate(57,87)"/>
<path d="M0 0 C1.32 0.33 2.64 0.66 4 1 C4 1.66 4 2.32 4 3 C5.32 3.66 6.64 4.32 8 5 C6 8 6 8 3.5 8.75 C1 9 1 9 -1 8 C-1 8.66 -1 9.32 -1 10 C-2.65 10.33 -4.3 10.66 -6 11 C-6.33 10.34 -6.66 9.68 -7 9 C-5.68 9 -4.36 9 -3 9 C-2.94 8.63 -2.94 8.63 -2.62 6.75 C-2.05 4.2 -1.26 2.27 0 0 Z " fill="#A4A285" transform="translate(87,88)"/>
<path d="M0 0 C4 1 4 1 4 1 Z " fill="#F5F4F1" transform="translate(77,73)"/>
<path d="" fill="#F4F5F5" transform="translate(0,0)"/>
<path d="" fill="#F4F5F5" transform="translate(0,0)"/>
</svg>
