<?xml version="1.0" encoding="UTF-8"?>
<!-- Generator: visioncortex VTracer 0.6.12 -->
<svg version="1.1" xmlns="http://www.w3.org/2000/svg" width="154" height="57">
<path d="M0 0 C1.67 1.33 3.34 2.66 5 4 C6.32 4 7.64 4 9 4 C9.16 4.82 9.16 4.82 10 9 C10.99 9.33 11.98 9.66 13 10 C13 12.31 13 14.62 13 17 C14.32 17.66 15.64 18.32 17 19 C17.16 18.51 17.16 18.51 18 16 C20.9 14.55 22.74 14 26 14 C26 14.66 26 15.32 26 16 C26.62 16.12 27.24 16.25 27.88 16.38 C30 17 30 17 32 19 C32 20.32 32 21.64 32 23 C33.32 22.67 34.64 22.34 36 22 C36 20.68 36 19.36 36 18 C38 15.19 38 15.19 41 13 C44.88 13.25 44.88 13.25 46.94 13.68 C49 14 49 14 52.81 13.38 C56 13 56 13 57.75 14.19 C58.16 14.79 58.58 15.38 59 16 C59.56 16.6 60.11 17.2 60.69 17.81 C62.39 20.66 62.22 22.74 62 26 C63.26 26.1 64.52 26.21 65.81 26.31 C68.41 26.64 69.79 26.86 72 28.31 C73 30 73 30 73 34 C67.21 35.02 63.54 34.96 58 33 C59.26 30.49 60.5 30.13 63 29 C62.38 28.88 61.76 28.75 61.12 28.62 C59 28 59 28 57 26 C57 25.01 57 24.02 57 23 C54.62 22.88 54.62 22.88 52 23 C51.34 23.66 50.68 24.32 50 25 C50 26.32 50 27.64 50 29 C51.65 29.33 53.3 29.66 55 30 C55 31.32 55 32.64 55 34 C54.34 34 53.68 34 53 34 C53 34.99 53 35.98 53 37 C51.68 37.33 50.36 37.66 49 38 C48 35 48 35 48 32 C47.68 32.26 47.68 32.26 46.06 33.56 C40.79 36.04 35.47 34.44 30 33 C30 33.66 30 34.32 30 35 C31.65 35.33 33.3 35.66 35 36 C35 36.33 35 36.66 35 37 C28.05 37.27 21.76 36.61 15 35 C15 33.68 15 32.36 15 31 C12.69 30.34 10.38 29.68 8 29 C8 29.66 8 30.32 8 31 C7.34 31 6.68 31 6 31 C6 31.66 6 32.32 6 33 C5.01 33.33 4.02 33.66 3 34 C3 34.99 3 35.98 3 37 C0.19 37.63 0.19 37.63 -3 38 C-3.99 37.34 -4.98 36.68 -6 36 C-8.7 35.59 -8.7 35.59 -11.69 35.38 C-12.68 35.3 -13.68 35.23 -14.7 35.15 C-15.46 35.1 -16.22 35.05 -17 35 C-17.33 35.99 -17.66 36.98 -18 38 C-19.98 37.67 -21.96 37.34 -24 37 C-24 36.34 -24 35.68 -24 35 C-23.67 34.84 -23.67 34.84 -22 34 C-24.81 33.38 -24.81 33.38 -28 33 C-28.99 33.66 -29.98 34.32 -31 35 C-33.7 34.76 -33.7 34.76 -36.69 34.12 C-37.68 33.92 -38.68 33.72 -39.7 33.51 C-40.46 33.34 -41.22 33.17 -42 33 C-40 32 -38 31 -36 30 C-35.67 29.01 -35.34 28.02 -35 27 C-32.9 26.25 -31.23 26 -29 26 C-29.21 25.09 -29.41 24.19 -29.62 23.25 C-30 20 -30 20 -29.44 17.81 C-27.3 15.12 -25.21 14.17 -22 13 C-18.62 13.31 -18.62 13.31 -16 14 C-16 14.66 -16 15.32 -16 16 C-14 14 -14 14 -13.69 11.5 C-13.46 10.68 -13.23 9.85 -13 9 C-10.5 7.87 -10.5 7.87 -8 7 C-7.67 6.01 -7.34 5.02 -7 4 C-6.34 4 -5.68 4 -5 4 C-4.34 3.01 -3.68 2.02 -3 1 C-2.01 0.67 -1.02 0.34 0 0 Z M2 12 C1.34 13.65 0.68 15.3 0 17 C1.69 18.12 1.69 18.12 4 19 C6.75 18.12 6.75 18.12 9 17 C8.67 16.01 8.34 15.02 8 14 C4.94 12.81 4.94 12.81 2 12 Z M59 23 C59.33 23.66 59.66 24.32 60 25 C60.33 24.34 60.66 23.68 61 23 C60.34 23 59.68 23 59 23 Z " fill="#D0DEEE" transform="translate(52,10)"/>
<path d="M0 0 C0 0.66 0 1.32 0 2 C0.66 2 1.32 2 2 2 C2 2.99 2 3.98 2 5 C0.35 5.33 -1.3 5.66 -3 6 C-2.67 7.65 -2.34 9.3 -2 11 C-0.68 11.33 0.64 11.66 2 12 C2.66 14.64 3.32 17.28 4 20 C7.3 19.67 10.6 19.34 14 19 C14.33 17.35 14.66 15.7 15 14 C23.43 12.71 23.43 12.71 28 14 C26.68 14.33 25.36 14.66 24 15 C24 15.66 24 16.32 24 17 C23.34 17 22.68 17 22 17 C22 17.66 22 18.32 22 19 C21.01 19.33 20.02 19.66 19 20 C19 20.99 19 21.98 19 23 C16.19 23.62 16.19 23.62 13 24 C12.01 23.34 11.02 22.68 10 22 C7.3 21.59 7.3 21.59 4.31 21.38 C3.32 21.3 2.32 21.23 1.3 21.15 C0.54 21.1 -0.22 21.05 -1 21 C-1.33 21.99 -1.66 22.98 -2 24 C-3.98 23.67 -5.96 23.34 -8 23 C-8 22.34 -8 21.68 -8 21 C-7.34 20.67 -6.68 20.34 -6 20 C-8.81 19.38 -8.81 19.38 -12 19 C-12.99 19.66 -13.98 20.32 -15 21 C-17.7 20.76 -17.7 20.76 -20.69 20.12 C-21.68 19.92 -22.68 19.72 -23.7 19.51 C-24.46 19.34 -25.22 19.17 -26 19 C-24 18 -22 17 -20 16 C-19.67 15.01 -19.34 14.02 -19 13 C-16.9 12.25 -15.23 12 -13 12 C-13.21 11.09 -13.41 10.19 -13.62 9.25 C-14 6 -14 6 -13.44 3.81 C-9.72 -0.87 -5.53 -1.45 0 0 Z " fill="#E6ECF3" transform="translate(36,24)"/>
<path d="M0 0 C1.67 1.33 3.34 2.66 5 4 C6.32 4 7.64 4 9 4 C9.33 5.65 9.66 7.3 10 9 C10.99 9.33 11.98 9.66 13 10 C12.92 11.09 12.84 12.19 12.75 13.31 C13 17 13 17 15 18.94 C15.33 19.11 15.33 19.11 17 20 C16.01 20.33 15.02 20.66 14 21 C14 20.34 14 19.68 14 19 C13.34 19.33 12.68 19.66 12 20 C12 21.98 12 23.96 12 26 C11.44 25.65 10.89 25.3 10.31 24.94 C7.46 23.78 5.91 24.19 3 25 C3.33 23.35 3.66 21.7 4 20 C2.35 20 0.7 20 -1 20 C-1.33 20.66 -1.66 21.32 -2 22 C-3.32 21.67 -4.64 21.34 -6 21 C-6.75 17.34 -7.24 14.58 -6 11 C-7.94 11.81 -7.94 11.81 -10 13 C-10.33 13.99 -10.66 14.98 -11 16 C-11.99 15.67 -12.98 15.34 -14 15 C-13.81 12.12 -13.81 12.12 -13 9 C-10.5 7.81 -10.5 7.81 -8 7 C-7.67 6.01 -7.34 5.02 -7 4 C-6.34 4 -5.68 4 -5 4 C-4.34 3.01 -3.68 2.02 -3 1 C-2.01 0.67 -1.02 0.34 0 0 Z M2 12 C1.34 13.65 0.68 15.3 0 17 C1.69 18.12 1.69 18.12 4 19 C6.75 18.12 6.75 18.12 9 17 C8.67 16.01 8.34 15.02 8 14 C4.94 12.81 4.94 12.81 2 12 Z " fill="#E9EDF3" transform="translate(52,10)"/>
<path d="M0 0 C1.18 0.19 2.35 0.37 3.56 0.56 C6.67 0.98 8.62 0.9 11.81 0.38 C15 0 15 0 16.75 1.19 C17.16 1.79 17.58 2.38 18 3 C18.56 3.6 19.11 4.2 19.69 4.81 C21.39 7.66 21.22 9.74 21 13 C21.63 13.05 21.63 13.05 24.81 13.31 C27.41 13.64 28.79 13.86 31 15.31 C32 17 32 17 32 21 C26.21 22.02 22.54 21.96 17 20 C18.26 17.49 19.5 17.13 22 16 C21.38 15.88 20.76 15.75 20.12 15.62 C18 15 18 15 16 13 C16 12.01 16 11.02 16 10 C13.62 9.88 13.62 9.88 11 10 C8.86 12.14 8.57 13.13 8 16 C6.81 13.38 6.81 13.38 6 10 C7.38 6.62 7.38 6.62 9 4 C8.53 4.09 8.53 4.09 6.12 4.56 C3 5 3 5 1 4 C0.38 1.94 0.38 1.94 0 0 Z M18 10 C18.33 10.66 18.66 11.32 19 12 C19.33 11.34 19.66 10.68 20 10 C19.34 10 18.68 10 18 10 Z " fill="#ECEFF4" transform="translate(93,23)"/>
<path d="M0 0 C0 0.66 0 1.32 0 2 C0.62 2.12 1.24 2.25 1.88 2.38 C4 3 4 3 6 5 C5.76 7.38 5.76 7.38 5.12 10.12 C4.92 11.04 4.72 11.95 4.51 12.88 C4.34 13.58 4.17 14.28 4 15 C3.01 15 2.02 15 1 15 C0.67 14.34 0.34 13.68 0 13 C-0.66 13 -1.32 13 -2 13 C-2.33 15.31 -2.66 17.62 -3 20 C-1.84 19.84 -1.84 19.84 4 19 C4 19.66 4 20.32 4 21 C5.65 21.33 7.3 21.66 9 22 C9 22.33 9 22.66 9 23 C2.05 23.27 -4.24 22.61 -11 21 C-11 19.68 -11 18.36 -11 17 C-11.99 16.34 -12.98 15.68 -14 15 C-11.69 15 -9.38 15 -7 15 C-6.67 14.01 -6.34 13.02 -6 12 C-6.99 12 -7.98 12 -9 12 C-9 10.35 -9 8.7 -9 7 C-7.68 7 -6.36 7 -5 7 C-5 6.34 -5 5.68 -5 5 C-6.32 5 -7.64 5 -9 5 C-8.67 4.01 -8.34 3.02 -8 2 C-5.1 0.55 -3.26 0 0 0 Z " fill="#E7ECF3" transform="translate(78,24)"/>
<path d="M0 0 C0.99 0.66 1.98 1.32 3 2 C3 2.66 3 3.32 3 4 C1.33 5.67 -0.33 7.33 -2 9 C-3.31 11.31 -3.31 11.31 -4 13 C-3.34 13.33 -2.68 13.66 -2 14 C-3.2 16.49 -4.45 18.68 -6 21 C-6.75 17.34 -7.24 14.58 -6 11 C-7.94 11.81 -7.94 11.81 -10 13 C-10.33 13.99 -10.66 14.98 -11 16 C-11.99 15.67 -12.98 15.34 -14 15 C-13.81 12.12 -13.81 12.12 -13 9 C-10.5 7.81 -10.5 7.81 -8 7 C-7.67 6.01 -7.34 5.02 -7 4 C-6.34 4 -5.68 4 -5 4 C-4.34 3.01 -3.68 2.02 -3 1 C-2.01 0.67 -1.02 0.34 0 0 Z " fill="#E0E7F0" transform="translate(52,10)"/>
<path d="M0 0 C0 0.66 0 1.32 0 2 C0.66 2 1.32 2 2 2 C2 2.99 2 3.98 2 5 C0.84 5.5 0.84 5.5 -5 8 C-5 7.34 -5 6.68 -5 6 C-5.66 6 -6.32 6 -7 6 C-7 5.34 -7 4.68 -7 4 C-7.66 4 -8.32 4 -9 4 C-9 4.99 -9 5.98 -9 7 C-9.66 7 -10.32 7 -11 7 C-11 6.34 -11 5.68 -11 5 C-11.66 4.67 -12.32 4.34 -13 4 C-8.83 -0.59 -6.1 -1.39 0 0 Z " fill="#EBF0F6" transform="translate(36,24)"/>
<path d="M0 0 C0.66 1.32 1.32 2.64 2 4 C1.01 4.33 0.02 4.66 -1 5 C-1 5.99 -1 6.98 -1 8 C-2.32 8.33 -3.64 8.66 -5 9 C-6 6 -6 6 -6 3 C-6.64 3.52 -7.28 4.03 -7.94 4.56 C-12.14 6.54 -15.55 6.06 -20 5 C-21.32 4.34 -22.64 3.68 -24 3 C-18.72 3 -13.44 3 -8 3 C-8 2.34 -8 1.68 -8 1 C-5.29 -0.35 -2.99 -0.07 0 0 Z " fill="#ECEFF3" transform="translate(106,39)"/>
<path d="M0 0 C0.66 0.66 1.32 1.32 2 2 C1.34 2 0.68 2 0 2 C0 2.66 0 3.32 0 4 C-1.32 3.67 -2.64 3.34 -4 3 C-3 1 -3 1 0 0 Z " fill="#F2F3F6" transform="translate(64,44)"/>
<path d="M0 0 C1.65 0 3.3 0 5 0 C5 0.66 5 1.32 5 2 C3.02 2.33 1.04 2.66 -1 3 C-0.67 2.01 -0.34 1.02 0 0 Z " fill="#EBEEF4" transform="translate(140,40)"/>
<path d="M0 0 C0.82 0.16 0.82 0.16 5 1 C5 1.66 5 2.32 5 3 C4.18 2.67 4.18 2.67 0 1 C0 0.67 0 0.34 0 0 Z " fill="#F2F4F7" transform="translate(134,44)"/>
<path d="M0 0 C0.99 0.33 1.98 0.66 3 1 C2.01 1.33 1.02 1.66 0 2 C0 1.34 0 0.68 0 0 Z " fill="#F2F3F5" transform="translate(131,41)"/>
<path d="M0 0 C0.33 0.16 0.33 0.16 2 1 C1.67 1.66 1.34 2.32 1 3 C0.67 2.01 0.34 1.02 0 0 Z " fill="#F3F4F5" transform="translate(103,34)"/>
<path d="M0 0 C0.66 0 1.32 0 2 0 C2 0.66 2 1.32 2 2 C1.34 2 0.68 2 0 2 C0 1.34 0 0.68 0 0 Z " fill="#EFF1F5" transform="translate(121,33)"/>
<path d="M0 0 C0.33 0.66 0.66 1.32 1 2 C0.34 1.67 -0.32 1.34 -1 1 C-0.67 0.67 -0.34 0.34 0 0 Z " fill="#F4F5F7" transform="translate(99,46)"/>
<path d="M0 0 C3 1 3 1 3 1 Z " fill="#F3F4F6" transform="translate(126,43)"/>
<path d="" fill="#F4F5F5" transform="translate(0,0)"/>
<path d="" fill="#F3F3F6" transform="translate(0,0)"/>
<path d="" fill="#F4F5F7" transform="translate(0,0)"/>
<path d="" fill="#F4F4F7" transform="translate(0,0)"/>
<path d="" fill="#F4F5F8" transform="translate(0,0)"/>
<path d="" fill="#F4F5F6" transform="translate(0,0)"/>
<path d="" fill="#F4F7FA" transform="translate(0,0)"/>
<path d="" fill="#F5F4F6" transform="translate(0,0)"/>
</svg>
