<?xml version="1.0" encoding="UTF-8"?>
<!-- Generator: visioncortex VTracer 0.6.12 -->
<svg version="1.1" xmlns="http://www.w3.org/2000/svg" width="205" height="62">
<path d="M0 0 C8.3 2.3 8.3 2.3 10.88 4.88 C11.25 5.58 11.62 6.28 12 7 C12.58 7.8 13.16 8.61 13.75 9.44 C15.24 12.48 15 13.83 14 17 C14.66 17 15.32 17 16 17 C15.67 18.98 15.34 20.96 15 23 C17.38 22.69 17.38 22.69 20 22 C20.33 21.51 20.33 21.51 22 19 C24.98 18.04 27.88 17.81 31 18 C33.71 19.83 34.66 21.1 35.81 24.12 C36 26 36 26 35 28 C38.79 28 42.27 27.57 46 27 C46.45 27.64 46.91 28.28 47.38 28.94 C49 31 49 31 51 32 C51.7 31.96 52.4 31.92 53.12 31.88 C57.17 32.05 60.25 33.48 64 35 C64 35.33 64 35.66 64 36 C62.87 36.06 61.74 36.12 60.57 36.18 C59.09 36.27 57.61 36.35 56.12 36.44 C55.75 36.46 55.75 36.46 53.86 36.56 C48.23 36.89 48.23 36.89 46 38 C44.54 38.1 43.07 38.13 41.61 38.13 C41.17 38.13 41.17 38.13 38.96 38.14 C38.04 38.13 37.13 38.13 36.19 38.12 C35.74 38.13 35.74 38.13 33.45 38.14 C29.18 38.13 25.16 38.1 21 37 C21 37.66 21 38.32 21 39 C23.31 39 25.62 39 28 39 C28 39.66 28 40.32 28 41 C10.55 42.8 10.55 42.8 2.18 39.74 C-0.89 38.7 -3.76 38.27 -7 38 C-7.33 38.33 -7.66 38.66 -8 39 C-5.69 39.33 -3.38 39.66 -1 40 C-9.36 44.18 -16.8 43.08 -26 42 C-26 41.34 -26 40.68 -26 40 C-27.15 40.01 -28.3 40.02 -29.48 40.04 C-38.72 40.1 -47.8 39.91 -57 39 C-57 38.34 -57 37.68 -57 37 C-55.76 36.71 -54.53 36.42 -53.25 36.12 C-50.25 35.38 -47.75 34.42 -45 33 C-42.2 32.32 -39.89 32 -37 32 C-36.01 31.67 -35.02 31.34 -34 31 C-34.99 30.01 -35.98 29.02 -37 28 C-34.81 21.56 -34.81 21.56 -31.19 19.06 C-27.84 17.95 -25.5 17.52 -22 18 C-21.34 18.99 -20.68 19.98 -20 21 C-19.34 20.01 -18.68 19.02 -18 18 C-18.21 17.2 -18.41 16.39 -18.62 15.56 C-18.75 14.72 -18.87 13.87 -19 13 C-17.19 11 -17.19 11 -15 9 C-14.33 7.34 -13.66 5.67 -13 4 C-9.95 1.97 -8.87 1.71 -5.38 1.44 C-1.1 1.1 -1.1 1.1 0 0 Z " fill="#E0E1E8" transform="translate(132,10)"/>
<path d="M0 0 C-0.61 3.56 -1.58 6.68 -3 10 C-2.01 10 -1.02 10 0 10 C0 10.66 0 11.32 0 12 C0.66 12 1.32 12 2 12 C1.67 13.98 1.34 15.96 1 18 C-2.63 18 -6.26 18 -10 18 C-10 20.31 -10 22.62 -10 25 C-10.33 25.16 -10.33 25.16 -12 26 C-12.62 28.56 -12.62 28.56 -13 31 C-7.25 29.38 -7.25 29.38 -5 26 C1.77 23.52 1.77 23.52 6.5 25.38 C7.32 25.91 8.15 26.45 9 27 C9 28.32 9 29.64 9 31 C8.67 31.16 8.67 31.16 7 32 C6.67 32.99 6.34 33.98 6 35 C5.57 35.03 5.57 35.03 3.41 35.18 C2.31 35.27 1.2 35.35 0.06 35.44 C-1.04 35.52 -2.14 35.6 -3.28 35.68 C-6 36 -6 36 -7 37 C-4.69 37.33 -2.38 37.66 0 38 C-8.36 42.18 -15.8 41.08 -25 40 C-25 39.34 -25 38.68 -25 38 C-26.15 38.01 -27.3 38.02 -28.48 38.04 C-37.72 38.1 -46.8 37.91 -56 37 C-56 36.34 -56 35.68 -56 35 C-54.76 34.71 -53.53 34.42 -52.25 34.12 C-49.25 33.38 -46.75 32.42 -44 31 C-41.2 30.32 -38.89 30 -36 30 C-35.01 29.67 -34.02 29.34 -33 29 C-33.99 28.01 -34.98 27.02 -36 26 C-33.81 19.56 -33.81 19.56 -30.19 17.06 C-26.84 15.95 -24.5 15.52 -21 16 C-20.34 16.99 -19.68 17.98 -19 19 C-18.34 18.01 -17.68 17.02 -17 16 C-17.21 15.2 -17.41 14.39 -17.62 13.56 C-17.75 12.72 -17.87 11.87 -18 11 C-16.19 9 -16.19 9 -14 7 C-13.33 5.34 -12.66 3.67 -12 2 C-7.9 -0.73 -4.74 -1.58 0 0 Z " fill="#DDE0E9" transform="translate(131,12)"/>
<path d="M0 0 C2.5 2.25 2.5 2.25 4 5 C3.75 8.31 3.75 8.31 3 11 C4.48 10.84 4.48 10.84 12 10 C12.66 11.32 13.32 12.64 14 14 C16.21 15.01 16.21 15.01 18.81 15.69 C19.66 15.92 20.52 16.15 21.39 16.39 C23.92 16.98 26.45 17.51 29 18 C29 18.66 29 19.32 29 20 C21.64 20.8 14.4 21.13 7 21 C7 21.66 7 22.32 7 23 C5.35 23 3.7 23 2 23 C2 22.34 2 21.68 2 21 C1.34 21 0.68 21 0 21 C0 21.66 0 22.32 0 23 C-5.62 24.37 -11.35 24.11 -17 23 C-17.33 22.34 -17.66 21.68 -18 21 C-20.84 20.11 -22.73 19.94 -25.65 20.54 C-29.75 21.1 -33.31 20.65 -37.38 20.06 C-38.11 19.96 -38.85 19.86 -39.61 19.76 C-41.4 19.51 -43.2 19.26 -45 19 C-45 18.34 -45 17.68 -45 17 C-38.64 14.96 -38.64 14.96 -34.75 15.19 C-33.84 15.13 -32.94 15.06 -32 15 C-30.38 12.62 -30.38 12.62 -29 10 C-27.12 8.5 -27.12 8.5 -25 8 C-22.25 9.38 -22.25 9.38 -20 11 C-18 8 -18 8 -17.75 5.56 C-16.64 1.76 -14.38 0.86 -11 -1 C-7.07 -2.77 -3.89 -1.53 0 0 Z " fill="#E4E2E8" transform="translate(55,17)"/>
<path d="M0 0 C8.3 2.3 8.3 2.3 10.88 4.88 C11.25 5.58 11.62 6.28 12 7 C12.58 7.8 13.16 8.61 13.75 9.44 C15.24 12.48 15 13.83 14 17 C14.66 17 15.32 17 16 17 C15.67 18.98 15.34 20.96 15 23 C15.66 23.33 16.32 23.66 17 24 C14.69 24.66 12.38 25.32 10 26 C9.01 25.01 8.02 24.02 7 23 C7.33 24.65 7.66 26.3 8 28 C5 29 5 29 2.69 28 C-0.6 26.78 -2.63 27.22 -6 28 C-6.33 29.32 -6.66 30.64 -7 32 C-8.16 32.16 -8.16 32.16 -14 33 C-14 31.35 -14 29.7 -14 28 C-13.01 27.67 -12.02 27.34 -11 27 C-11 24.69 -11 22.38 -11 20 C-9.54 19.81 -8.08 19.62 -6.62 19.44 C-5.81 19.33 -5 19.23 -4.16 19.12 C-2 19 -2 19 0 20 C0.33 18.02 0.66 16.04 1 14 C0.34 14 -0.32 14 -1 14 C-1 13.34 -1 12.68 -1 12 C-1.99 12 -2.98 12 -4 12 C-3.52 10.19 -3.04 8.37 -2.56 6.56 C-2.3 5.55 -2.03 4.54 -1.75 3.5 C-1 1 -1 1 0 0 Z " fill="#EAE7E8" transform="translate(132,10)"/>
<path d="M0 0 C2.62 0.38 2.62 0.38 5 1 C5.33 1.99 5.66 2.98 6 4 C6.99 3.34 7.98 2.68 9 2 C11.69 1.88 11.69 1.88 14 2 C13.67 2.66 13.34 3.32 13 4 C12.01 4.33 11.02 4.66 10 5 C10 6.32 10 7.64 10 9 C17.86 8.09 17.86 8.09 21 6 C21.66 5.01 22.32 4.02 23 3 C29.77 0.52 29.77 0.52 34.5 2.38 C35.32 2.91 36.15 3.45 37 4 C37 5.32 37 6.64 37 8 C36.34 8.33 35.68 8.66 35 9 C34.67 9.99 34.34 10.98 34 12 C33.15 12.06 32.29 12.12 31.41 12.18 C30.31 12.27 29.2 12.35 28.06 12.44 C26.96 12.52 25.86 12.6 24.72 12.68 C22 13 22 13 21 14 C23.31 14.33 25.62 14.66 28 15 C19.64 19.18 12.2 18.08 3 17 C3 16.34 3 15.68 3 15 C5.97 15 8.94 15 12 15 C12 14.34 12 13.68 12 13 C9.03 13 6.06 13 3 13 C3 12.67 3 12.34 3 12 C0.69 12 -1.62 12 -4 12 C-3.72 10.37 -3.42 8.75 -3.12 7.12 C-2.96 6.22 -2.8 5.32 -2.63 4.38 C-2 2 -2 2 0 0 Z " fill="#D2D9E7" transform="translate(103,35)"/>
<path d="M0 0 C2.5 2.25 2.5 2.25 4 5 C3.75 8.31 3.75 8.31 3 11 C4.48 10.84 4.48 10.84 12 10 C12.66 11.32 13.32 12.64 14 14 C16.21 15.01 16.21 15.01 18.81 15.69 C19.66 15.92 20.52 16.15 21.39 16.39 C23.92 16.98 26.45 17.51 29 18 C29 18.66 29 19.32 29 20 C21.64 20.8 14.4 21.13 7 21 C7 21.66 7 22.32 7 23 C5.35 23 3.7 23 2 23 C2 22.34 2 21.68 2 21 C4.97 20.67 7.94 20.34 11 20 C10.34 19.01 9.68 18.02 9 17 C6.98 16.67 6.98 16.67 4.62 16.75 C3.85 16.77 3.08 16.78 2.29 16.8 C0.09 16.99 -1.88 17.4 -4 18 C-4.33 17.01 -4.66 16.02 -5 15 C-6.98 15.66 -8.96 16.32 -11 17 C-11.33 15.02 -11.66 13.04 -12 11 C-10.02 11 -8.04 11 -6 11 C-6 10.34 -6 9.68 -6 9 C-6.99 9.33 -7.98 9.66 -9 10 C-9.33 8.68 -9.66 7.36 -10 6 C-12.31 5.67 -14.62 5.34 -17 5 C-17 4.34 -17 3.68 -17 3 C-10.68 -1.74 -7.52 -2.95 0 0 Z " fill="#F7F0EA" transform="translate(55,17)"/>
<path d="M0 0 C8.26 2.29 8.26 2.29 11 4.94 C12 7 12.7 8.73 13 11 C12.67 11.66 12.34 12.32 12 13 C8.94 13.62 8.94 13.62 6 14 C6 14.66 6 15.32 6 16 C5.01 16 4.02 16 3 16 C3.33 17.65 3.66 19.3 4 21 C2.68 21 1.36 21 0 21 C0 21.66 0 22.32 0 23 C-4.75 22.12 -4.75 22.12 -7 21 C-7 20.34 -7 19.68 -7 19 C-4.69 19.33 -2.38 19.66 0 20 C0.33 18.02 0.66 16.04 1 14 C0.34 14 -0.32 14 -1 14 C-1 13.34 -1 12.68 -1 12 C-1.99 12 -2.98 12 -4 12 C-3.52 10.19 -3.04 8.37 -2.56 6.56 C-2.3 5.55 -2.03 4.54 -1.75 3.5 C-1 1 -1 1 0 0 Z " fill="#F8F2EA" transform="translate(132,10)"/>
<path d="M0 0 C-0.61 3.56 -1.58 6.68 -3 10 C-2.01 10 -1.02 10 0 10 C0 10.66 0 11.32 0 12 C0.66 12 1.32 12 2 12 C1.67 13.98 1.34 15.96 1 18 C-1.31 17.67 -3.62 17.34 -6 17 C-5.67 15.35 -5.34 13.7 -5 12 C-5.99 12 -6.98 12 -8 12 C-7.67 9.69 -7.34 7.38 -7 5 C-9.51 6.26 -9.87 7.5 -11 10 C-11.99 10 -12.98 10 -14 10 C-14.31 7.81 -14.31 7.81 -14 5 C-11.68 2.08 -9.99 0.34 -6.44 -0.88 C-4.03 -1 -2.27 -0.76 0 0 Z " fill="#EBE6E7" transform="translate(131,12)"/>
<path d="M0 0 C5.88 0.88 5.88 0.88 7 2 C9.94 2.19 9.94 2.19 13 2 C13.66 1.34 14.32 0.68 15 0 C15.99 0 16.98 0 18 0 C18.33 0.66 18.66 1.32 19 2 C19.28 1.92 19.28 1.92 20.7 1.5 C23.13 0.97 25.27 0.9 27.75 0.94 C28.55 0.95 29.35 0.96 30.17 0.96 C30.78 0.98 31.38 0.99 32 1 C32.66 2.32 33.32 3.64 34 5 C30.37 5.33 26.74 5.66 23 6 C23 6.66 23 7.32 23 8 C19.28 8.69 15.79 9.11 12 9 C11.67 8.01 11.34 7.02 11 6 C11.33 5.34 11.66 4.68 12 4 C11.65 4.01 11.65 4.01 9.88 4.04 C8.97 4.04 8.06 4.05 7.12 4.06 C6.67 4.07 6.67 4.07 4.38 4.1 C2 4 2 4 0 3 C0 2.01 0 1.02 0 0 Z " fill="#D4D7E5" transform="translate(32,32)"/>
<path d="M0 0 C2.62 0.38 2.62 0.38 5 1 C5.33 1.99 5.66 2.98 6 4 C6.99 3.34 7.98 2.68 9 2 C11.69 1.88 11.69 1.88 14 2 C13.67 2.66 13.34 3.32 13 4 C10.44 4.62 10.44 4.62 8 5 C7.67 6.32 7.34 7.64 7 9 C4.22 7.61 4.02 5.84 3 3 C2.34 3 1.68 3 1 3 C1.33 5.64 1.66 8.28 2 11 C0.02 11.33 -1.96 11.66 -4 12 C-3.72 10.37 -3.42 8.75 -3.12 7.12 C-2.96 6.22 -2.8 5.32 -2.63 4.38 C-2 2 -2 2 0 0 Z " fill="#C6D0E4" transform="translate(103,35)"/>
<path d="M0 0 C0.41 0 0.41 0 2.48 0.03 C2.79 0.03 2.79 0.03 4.38 0.06 C5.03 1.38 5.69 2.7 6.38 4.06 C2.75 4.39 -0.89 4.72 -4.62 5.06 C-4.62 5.72 -4.62 6.38 -4.62 7.06 C-8.35 7.76 -11.84 8.17 -15.62 8.06 C-11.88 6.06 -11.88 6.06 -9.62 6.06 C-9.62 5.4 -9.62 4.74 -9.62 4.06 C-8.97 4.06 -8.3 4.06 -7.62 4.06 C-7.3 3.07 -6.97 2.08 -6.62 1.06 C-4.22 -0.14 -2.68 -0.04 0 0 Z " fill="#E1E0E5" transform="translate(59.625,32.9375)"/>
<path d="M0 0 C1.81 3.56 1.81 3.56 3 7 C1.68 7 0.36 7 -1 7 C-1 7.66 -1 8.32 -1 9 C-4 9 -4 9 -5.69 7.81 C-7.4 5.44 -7.23 3.86 -7 1 C-7.66 0.67 -8.32 0.34 -9 0 C-5.67 -1.11 -3.28 -1.35 0 0 Z " fill="#F4EDEA" transform="translate(165,29)"/>
<path d="M0 0 C3.3 0.66 6.6 1.32 10 2 C10 2.66 10 3.32 10 4 C2.64 4.8 -4.6 5.13 -12 5 C-12 5.66 -12 6.32 -12 7 C-13.65 7 -15.3 7 -17 7 C-17 6.34 -17 5.68 -17 5 C-15.52 4.84 -15.52 4.84 -8 4 C-8 3.34 -8 2.68 -8 2 C-5.36 2 -2.72 2 0 2 C0 1.34 0 0.68 0 0 Z " fill="#EBE8EA" transform="translate(74,33)"/>
<path d="" fill="#E6E5E9" transform="translate(0,0)"/>
</svg>
