<?xml version="1.0" encoding="UTF-8"?>
<!-- Generator: visioncortex VTracer 0.6.12 -->
<svg version="1.1" xmlns="http://www.w3.org/2000/svg" width="130" height="60">
<path d="M0 0 C0.99 0 1.98 0 3 0 C3.29 0.97 3.58 1.94 3.88 2.94 C5 6 5 6 7 7 C7 8.32 7 9.64 7 11 C7.66 11 8.32 11 9 11 C9 10.34 9 9.68 9 9 C10.32 9.33 11.64 9.66 13 10 C15.01 7.44 16.63 4.95 18 2 C20.9 4.4 21.5 6.31 22 10 C22.99 10.33 23.98 10.66 25 11 C25 11.99 25 12.98 25 14 C25.99 14 26.98 14 28 14 C28 14.66 28 15.32 28 16 C29.16 15.84 29.16 15.84 35 15 C35.33 14.01 35.66 13.02 36 12 C36.99 12 37.98 12 39 12 C40.46 14.65 41 15.89 41 19 C41.35 18.99 41.35 18.99 43.12 18.93 C43.57 18.92 43.57 18.92 45.88 18.88 C46.33 18.86 46.33 18.86 48.62 18.8 C51 19 51 19 53 21 C55.21 21.56 55.21 21.56 57.81 22 C61.43 22.66 64.65 23.44 68 25 C67.67 25.66 67.34 26.32 67 27 C64.57 27.43 62.2 27.75 59.75 28 C55.19 28.47 51.25 29.24 47 31 C45.68 31 44.36 31 43 31 C43 30.01 43 29.02 43 28 C42.75 28.25 42.75 28.25 41.48 29.52 C38.04 31.57 35.08 31.1 31.25 30.69 C30.55 30.63 29.86 30.57 29.14 30.5 C27.42 30.35 25.71 30.18 24 30 C25.42 30.48 26.83 30.96 28.25 31.44 C29.04 31.7 29.83 31.97 30.64 32.25 C32.75 32.92 34.85 33.49 37 34 C37 34.99 37 35.98 37 37 C27.16 40.41 27.16 40.41 22.31 38.69 C21.55 38.13 20.79 37.57 20 37 C20 36.01 20 35.02 20 34 C17.36 34.66 14.72 35.32 12 36 C12 35.34 12 34.68 12 34 C10.35 34.99 8.7 35.98 7 37 C7.33 37.99 7.66 38.98 8 40 C6.38 40.19 4.75 40.38 3.12 40.56 C2.67 40.61 2.67 40.61 0.38 40.88 C-2 41 -2 41 -4 40 C-4 39.34 -4 38.68 -4 38 C-10.59 37.87 -10.59 37.87 -13 38.62 C-16.23 39.23 -18.94 38 -22 37 C-21.67 36.01 -21.34 35.02 -21 34 C-17.44 32.81 -17.44 32.81 -14 32 C-15.22 32.02 -16.43 32.04 -17.69 32.06 C-20.94 32.07 -23.81 31.65 -27 31 C-29.33 30.96 -31.67 30.95 -34 31 C-34.33 30.01 -34.66 29.02 -35 28 C-37.64 27.67 -40.28 27.34 -43 27 C-43 26.34 -43 25.68 -43 25 C-39.12 23.81 -36.08 23 -32 23 C-31.34 21.35 -30.68 19.7 -30 18 C-29.01 18.33 -28.02 18.66 -27 19 C-27 19.66 -27 20.32 -27 21 C-26.34 21 -25.68 21 -25 21 C-25 20.34 -25 19.68 -25 19 C-24.41 18.96 -23.82 18.93 -23.21 18.89 C-18.49 18.49 -14.74 18.17 -11 15 C-9.69 12.31 -9.69 12.31 -9 10 C-8.34 10 -7.68 10 -7 10 C-7 10.66 -7 11.32 -7 12 C-6.34 12 -5.68 12 -5 12 C-5 10.68 -5 9.36 -5 8 C-4.34 8 -3.68 8 -3 8 C-2.94 7.71 -2.94 7.71 -2.62 6.25 C-1.99 3.98 -1.11 2.07 0 0 Z " fill="#B4B9BD" transform="translate(53,10)"/>
<path d="M0 0 C0.33 0 0.66 0 1 0 C1 1.98 1 3.96 1 6 C1.99 6.33 2.98 6.66 4 7 C4.67 8.33 5.33 9.67 6 11 C6.99 11.33 7.98 11.66 9 12 C9 12.66 9 13.32 9 14 C9.66 13.67 10.32 13.34 11 13 C11 10.69 11 8.38 11 6 C13.65 4.54 14.89 4 18 4 C18 4.99 18 5.98 18 7 C17.34 7 16.68 7 16 7 C15.67 8.65 15.34 10.3 15 12 C15.99 12.33 16.98 12.66 18 13 C16.68 13 15.36 13 14 13 C14 13.66 14 14.32 14 15 C15.32 15 16.64 15 18 15 C18 15.66 18 16.32 18 17 C17.67 16.95 17.67 16.95 16.02 16.71 C10.65 16.03 7.13 16.06 2 18 C-0.33 18.08 -2.67 18.09 -5 18 C-5 18.66 -5 19.32 -5 20 C-1.04 20 2.92 20 7 20 C7.33 19.34 7.66 18.68 8 18 C10 17.96 12 17.96 14 18 C15 19 15 19 15.06 21.56 C15.04 22.37 15.02 23.17 15 24 C13.68 24 12.36 24 11 24 C11.33 22.35 11.66 20.7 12 19 C11.34 19 10.68 19 10 19 C9.67 20.32 9.34 21.64 9 23 C8.36 23.12 7.72 23.25 7.06 23.38 C6.38 23.58 5.7 23.79 5 24 C4.67 24.66 4.34 25.32 4 26 C1.69 25.67 -0.62 25.34 -3 25 C-3 24.34 -3 23.68 -3 23 C-4.24 23.02 -5.48 23.04 -6.75 23.06 C-9.66 23.07 -12.21 22.93 -15 22 C-15 21.01 -15 20.02 -15 19 C-17.97 19 -20.94 19 -24 19 C-22.5 16.01 -20.19 15.75 -17.14 14.66 C-14.46 13.83 -11.79 13.35 -9 13 C-9.21 12.46 -9.41 11.93 -9.62 11.38 C-10.13 8.17 -9.15 5.99 -8 3 C-7.67 3 -7.34 3 -7 3 C-6.67 4.65 -6.34 6.3 -6 8 C-5.67 7.34 -5.34 6.68 -5 6 C-3.68 6.33 -2.36 6.66 -1 7 C-0.67 4.69 -0.34 2.38 0 0 Z " fill="#8C969D" transform="translate(52,18)"/>
<path d="M0 0 C0.99 0 1.98 0 3 0 C4.46 2.65 5 3.89 5 7 C5.7 6.98 6.4 6.95 7.12 6.93 C7.57 6.92 7.57 6.92 9.88 6.88 C10.33 6.86 10.33 6.86 12.62 6.8 C15 7 15 7 17 9 C19.21 9.56 19.21 9.56 21.81 10 C25.43 10.66 28.65 11.44 32 13 C31.67 13.66 31.34 14.32 31 15 C28.57 15.43 26.2 15.75 23.75 16 C19.19 16.47 15.25 17.24 11 19 C9.68 19 8.36 19 7 19 C7 18.01 7 17.02 7 16 C6.5 16.5 6 17 5.48 17.52 C2.04 19.57 -0.92 19.1 -4.75 18.69 C-5.45 18.63 -6.14 18.57 -6.86 18.5 C-8.58 18.35 -10.29 18.18 -12 18 C-10.58 18.48 -9.17 18.96 -7.75 19.44 C-6.96 19.7 -6.17 19.97 -5.36 20.25 C-3.25 20.92 -1.15 21.49 1 22 C1 22.99 1 23.98 1 25 C-8.84 28.41 -8.84 28.41 -13.69 26.69 C-14.45 26.13 -15.21 25.57 -16 25 C-16 24.01 -16 23.02 -16 22 C-18.64 22.66 -21.28 23.32 -24 24 C-24 23.34 -24 22.68 -24 22 C-24.66 21.67 -25.32 21.34 -26 21 C-23.86 20.84 -23.86 20.84 -13 20 C-13 19.01 -13 18.02 -13 17 C-9.7 17 -6.4 17 -3 17 C-3 16.01 -3 15.02 -3 14 C-3.99 14 -4.98 14 -6 14 C-6 13.34 -6 12.68 -6 12 C-8.31 12 -10.62 12 -13 12 C-13.66 10.68 -14.32 9.36 -15 8 C-14.7 8.04 -14.7 8.04 -13.21 8.22 C-9.12 8.7 -5.13 9.13 -1 9 C-1.33 9.16 -1.33 9.16 -3 10 C-3 10.66 -3 11.32 -3 12 C-1.19 12.16 -1.19 12.16 8 13 C8 12.34 8 11.68 8 11 C7.38 10.92 6.76 10.84 6.12 10.75 C4 10 4 10 2.75 8.12 C2 6 2 6 2 3 C1.34 3 0.68 3 0 3 C0 2.01 0 1.02 0 0 Z " fill="#CBCCCB" transform="translate(89,22)"/>
<path d="M0 0 C0.66 0.33 1.32 0.66 2 1 C1.94 3.32 1.94 3.32 1 6 C-1.44 7.22 -3.49 8.04 -6.06 8.81 C-6.73 9.03 -7.39 9.24 -8.07 9.47 C-9.71 10 -11.35 10.5 -13 11 C-10.36 11.33 -7.72 11.66 -5 12 C-5 12.99 -5 13.98 -5 15 C-1.04 15.33 2.92 15.66 7 16 C7 17.32 7 18.64 7 20 C10.63 20.33 14.26 20.66 18 21 C18.16 21.66 18.16 21.66 19 25 C17.38 25.19 15.75 25.38 14.12 25.56 C13.22 25.67 12.32 25.77 11.38 25.88 C9 26 9 26 7 25 C7 24.34 7 23.68 7 23 C0.41 22.87 0.41 22.87 -2 23.62 C-5.23 24.23 -7.94 23 -11 22 C-10.67 21.01 -10.34 20.02 -10 19 C-6.44 17.81 -6.44 17.81 -3 17 C-4.22 17.02 -5.43 17.04 -6.69 17.06 C-9.94 17.07 -12.81 16.65 -16 16 C-18.33 15.96 -20.67 15.95 -23 16 C-23.33 15.01 -23.66 14.02 -24 13 C-26.64 12.67 -29.28 12.34 -32 12 C-32 11.34 -32 10.68 -32 10 C-28.12 8.81 -25.08 8 -21 8 C-20.34 6.35 -19.68 4.7 -19 3 C-18.01 3.33 -17.02 3.66 -16 4 C-16 4.66 -16 5.32 -16 6 C-15.34 6 -14.68 6 -14 6 C-14 5.34 -14 4.68 -14 4 C-13.41 3.96 -12.82 3.93 -12.21 3.89 C-7.3 3.48 -4.17 2.78 0 0 Z " fill="#D2DBE6" transform="translate(42,25)"/>
<path d="M0 0 C0.66 0 1.32 0 2 0 C2 1.32 2 2.64 2 4 C2.99 4 3.98 4 5 4 C5.33 4.5 5.33 4.5 7 7 C10.62 7.69 10.62 7.69 14 8 C14 8.66 14 9.32 14 10 C14.99 10 15.98 10 17 10 C17 10.99 17 11.98 17 13 C13.7 13 10.4 13 7 13 C7 13.99 7 14.98 7 16 C4.36 17.32 2.32 17.1 -0.62 17.06 C-1.63 17.05 -2.63 17.04 -3.66 17.04 C-4.43 17.02 -5.21 17.01 -6 17 C-6.33 17.99 -6.66 18.98 -7 20 C-8.79 20.03 -10.58 20.05 -12.38 20.06 C-13.37 20.07 -14.37 20.09 -15.4 20.1 C-18 20 -18 20 -20 19 C-20 18.34 -20 17.68 -20 17 C-17.69 17.33 -15.38 17.66 -13 18 C-12.67 17.01 -12.34 16.02 -12 15 C-10.68 15 -9.36 15 -8 15 C-7.67 13.68 -7.34 12.36 -7 11 C-6.34 11 -5.68 11 -5 11 C-5.33 12.65 -5.66 14.3 -6 16 C-4.68 16 -3.36 16 -2 16 C-2.33 14.35 -2.66 12.7 -3 11 C-3.99 10.84 -3.99 10.84 -9 10 C-9.33 10.99 -9.66 11.98 -10 13 C-13.96 12.67 -17.92 12.34 -22 12 C-22 11.34 -22 10.68 -22 10 C-20.97 9.88 -19.94 9.75 -18.88 9.62 C-15 9 -15 9 -12 7.88 C-7.36 6.52 -3.5 7.5 1 9 C1 8.34 1 7.68 1 7 C-0.32 7 -1.64 7 -3 7 C-1.12 1.12 -1.12 1.12 0 0 Z " fill="#B7BBBD" transform="translate(69,26)"/>
<path d="M0 0 C0.66 0.33 1.32 0.66 2 1 C1.93 3.33 1.93 3.33 1 6 C-1.38 7.2 -3.36 8 -5.88 8.75 C-7.13 9.16 -8.39 9.56 -9.68 9.98 C-10.78 10.32 -11.87 10.65 -13 11 C-13.99 11.33 -14.98 11.66 -16 12 C-18.16 12.25 -20.33 12.45 -22.5 12.62 C-23.07 12.67 -23.07 12.67 -25.97 12.91 C-29 13 -29 13 -32 12 C-32 11.34 -32 10.68 -32 10 C-28.12 8.81 -25.08 8 -21 8 C-20.34 6.35 -19.68 4.7 -19 3 C-18.01 3.33 -17.02 3.66 -16 4 C-16 4.66 -16 5.32 -16 6 C-15.34 6 -14.68 6 -14 6 C-14 5.34 -14 4.68 -14 4 C-13.41 3.96 -12.82 3.93 -12.21 3.89 C-7.3 3.48 -4.17 2.78 0 0 Z " fill="#BBBFBB" transform="translate(42,25)"/>
<path d="M0 0 C0.99 0 1.98 0 3 0 C3.29 0.97 3.58 1.94 3.88 2.94 C5 6 5 6 7 7 C7 8.32 7 9.64 7 11 C6.67 11.16 6.67 11.16 5 12 C5 13.98 5 15.96 5 18 C0.2 14.55 0.2 14.55 -0.81 11.75 C-0.87 11.17 -0.94 10.59 -1 10 C-1.33 11.65 -1.66 13.3 -2 15 C-3.32 14.67 -4.64 14.34 -6 14 C-6.33 14.99 -6.66 15.98 -7 17 C-7.66 14.69 -8.32 12.38 -9 10 C-8.34 10 -7.68 10 -7 10 C-7 10.66 -7 11.32 -7 12 C-6.34 12 -5.68 12 -5 12 C-5 10.68 -5 9.36 -5 8 C-4.34 8 -3.68 8 -3 8 C-2.88 7.42 -2.75 6.84 -2.62 6.25 C-1.99 3.98 -1.11 2.07 0 0 Z " fill="#B7BDC3" transform="translate(53,10)"/>
<path d="M0 0 C0.33 0 0.66 0 1 0 C0.99 0.37 0.99 0.37 0.93 2.23 C0.91 3.21 0.89 4.18 0.88 5.19 C0.86 5.67 0.86 5.67 0.8 8.11 C1.01 11.13 1.73 13.27 3 16 C2.01 16 1.02 16 0 16 C0 14.68 0 13.36 0 12 C-0.99 12.33 -1.98 12.66 -3 13 C-3 12.34 -3 11.68 -3 11 C-2.34 11 -1.68 11 -1 11 C-1 10.01 -1 9.02 -1 8 C-2.98 8.99 -4.96 9.98 -7 11 C-7 12.98 -7 14.96 -7 17 C-7.99 17.33 -8.98 17.66 -10 18 C-10 17.34 -10 16.68 -10 16 C-11.32 15.67 -12.64 15.34 -14 15 C-14 12.69 -14 10.38 -14 8 C-12.35 7.67 -10.7 7.34 -9 7 C-9 6.34 -9 5.68 -9 5 C-7.68 5.33 -6.36 5.66 -5 6 C-4.2 5.01 -3.39 4.02 -2.56 3 C-1.72 2.01 -0.87 1.02 0 0 Z " fill="#A9B1B7" transform="translate(71,14)"/>
<path d="M0 0 C5.28 1.32 10.56 2.64 16 4 C16 4.99 16 5.98 16 7 C14.98 7.12 13.95 7.24 12.89 7.37 C11.53 7.54 10.17 7.71 8.81 7.88 C8.14 7.95 7.47 8.03 6.77 8.11 C2.87 8.61 -0.38 9.51 -4 11 C-5.32 11 -6.64 11 -8 11 C-7.67 10.01 -7.34 9.02 -7 8 C-6.2 7.73 -5.39 7.46 -4.56 7.19 C-3.72 6.8 -2.87 6.4 -2 6 C-1.34 4.02 -0.68 2.04 0 0 Z " fill="#CDD3D8" transform="translate(104,30)"/>
<path d="M0 0 C2 -0.04 4 -0.04 6 0 C7 1 7 1 7.06 3.56 C7.04 4.37 7.02 5.17 7 6 C5.68 6 4.36 6 3 6 C3.33 4.35 3.66 2.7 4 1 C3.34 1 2.68 1 2 1 C1.67 2.32 1.34 3.64 1 5 C0.36 5.12 -0.28 5.25 -0.94 5.38 C-1.62 5.58 -2.3 5.79 -3 6 C-3.33 6.66 -3.66 7.32 -4 8 C-6.31 7.67 -8.62 7.34 -11 7 C-11 6.34 -11 5.68 -11 5 C-12.65 5 -14.3 5 -16 5 C-15.34 3.68 -14.68 2.36 -14 1 C-9.71 1.33 -5.42 1.66 -1 2 C-0.67 1.34 -0.34 0.68 0 0 Z " fill="#979EA6" transform="translate(60,36)"/>
<path d="M0 0 C0 0.99 0 1.98 0 3 C3.3 3.33 6.6 3.66 10 4 C10 4.66 10 5.32 10 6 C7.44 5.86 4.87 5.71 2.31 5.56 C1.59 5.52 0.87 5.48 0.13 5.44 C-3.68 5.22 -7.26 4.79 -11 4 C-13.33 3.96 -15.67 3.95 -18 4 C-18 2.68 -18 1.36 -18 0 C-11.84 -1.23 -6.21 -0.73 0 0 Z " fill="#C2CEDC" transform="translate(37,37)"/>
<path d="M0 0 C0.66 0 1.32 0 2 0 C2 1.32 2 2.64 2 4 C2.99 4.33 3.98 4.66 5 5 C4.4 6.95 4.4 6.95 3 9 C0.07 9.64 0.07 9.64 -3.44 9.81 C-4.59 9.88 -5.74 9.95 -6.93 10.02 C-10 10 -10 10 -13 9 C-13 8.34 -13 7.68 -13 7 C-9.12 5.81 -6.08 5 -2 5 C-1.34 3.35 -0.68 1.7 0 0 Z " fill="#A7B4C1" transform="translate(23,28)"/>
<path d="M0 0 C-0.38 2.44 -0.38 2.44 -1 5 C-1.33 5.16 -1.33 5.16 -3 6 C-3.21 5.36 -3.41 4.72 -3.62 4.06 C-5 2 -5 2 -8.12 1.25 C-9.07 1.17 -10.02 1.09 -11 1 C-11.33 1.99 -11.66 2.98 -12 4 C-15.96 3.67 -19.92 3.34 -24 3 C-24 2.34 -24 1.68 -24 1 C-22.97 0.88 -21.94 0.75 -20.88 0.62 C-17 0 -17 0 -14 -1.12 C-9.19 -2.53 -4.73 -1.33 0 0 Z " fill="#CEC7B3" transform="translate(71,35)"/>
<path d="M0 0 C0 0.66 0 1.32 0 2 C1.32 2 2.64 2 4 2 C3 5 3 5 1 6 C1.33 7.32 1.66 8.64 2 10 C1.01 9.84 1.01 9.84 -4 9 C-4 8.01 -4 7.02 -4 6 C-6.97 6 -9.94 6 -13 6 C-11.71 3.41 -10.74 3.36 -8.06 2.44 C-1.1 0 -1.1 0 0 0 Z " fill="#96A3AD" transform="translate(41,31)"/>
<path d="" fill="#EAEBF0" transform="translate(0,0)"/>
</svg>
