<?xml version="1.0" encoding="UTF-8"?>
<!-- Generator: visioncortex VTracer 0.6.12 -->
<svg version="1.1" xmlns="http://www.w3.org/2000/svg" width="91" height="90">
<path d="M0 0 C1.18 0.08 2.35 0.16 3.56 0.25 C4.22 1.24 4.88 2.23 5.56 3.25 C6.55 3.58 7.54 3.91 8.56 4.25 C8.38 6.56 8.38 6.56 7.56 9.25 C5.92 10.29 4.26 11.3 2.56 12.25 C2.56 13.24 2.56 14.23 2.56 15.25 C3.88 14.92 5.2 14.59 6.56 14.25 C6.86 17.31 6.99 20.2 6.56 23.25 C4.12 26.19 4.12 26.19 1.56 28.25 C1.23 28.91 0.9 29.57 0.56 30.25 C-0.43 30.25 -1.42 30.25 -2.44 30.25 C-2.44 31.57 -2.44 32.89 -2.44 34.25 C-1.45 33.59 -0.46 32.93 0.56 32.25 C3.19 32.5 3.19 32.5 5.56 33.25 C5.89 33.91 6.22 34.57 6.56 35.25 C6.56 34.59 6.56 33.93 6.56 33.25 C7.56 33.25 8.56 33.25 9.56 33.25 C9.89 31.27 10.22 29.29 10.56 27.25 C13.85 26.45 15.27 26.15 18.56 27.25 C19.19 30.69 19.56 33.74 19.56 37.25 C18.61 37.19 17.66 37.13 16.69 37.06 C16.17 37.09 16.17 37.09 13.56 37.25 C12.9 38.24 12.24 39.23 11.56 40.25 C12.55 40.25 13.54 40.25 14.56 40.25 C14.23 42.23 13.9 44.21 13.56 46.25 C16.56 46.25 16.56 46.25 18.56 45.62 C20.56 45.25 20.56 45.25 23.56 47.25 C23.75 49.88 23.75 49.88 23.56 52.25 C22.41 52.41 22.41 52.41 16.56 53.25 C16.56 54.24 16.56 55.23 16.56 56.25 C17.22 56.09 17.22 56.09 20.56 55.25 C20.89 56.24 21.22 57.23 21.56 58.25 C24.13 59.44 24.13 59.44 26.56 60.25 C26.56 60.91 26.56 61.57 26.56 62.25 C21.81 63.38 21.81 63.38 19.56 62.25 C19.56 62.91 19.56 63.57 19.56 64.25 C14.81 65.38 14.81 65.38 12.56 64.25 C10.9 64.21 9.23 64.21 7.56 64.25 C7.56 64.91 7.56 65.57 7.56 66.25 C7.56 67.24 7.56 68.23 7.56 69.25 C6.24 69.58 6.24 69.58 -0.44 71.25 C-0.44 70.59 -0.44 69.93 -0.44 69.25 C-3.75 68.56 -3.75 68.56 -7.44 68.25 C-9.38 69.69 -9.38 69.69 -10.44 71.25 C-11.1 70.9 -11.76 70.55 -12.44 70.19 C-16.47 68.93 -19.27 69.63 -23.44 70.25 C-24.1 69.92 -24.76 69.59 -25.44 69.25 C-25.27 68.75 -25.27 68.75 -24.44 66.25 C-24.11 66.09 -24.11 66.09 -22.44 65.25 C-23.1 64.92 -23.76 64.59 -24.44 64.25 C-24.93 64.41 -24.93 64.41 -27.44 65.25 C-27.93 65.09 -27.93 65.09 -30.44 64.25 C-30.6 64.41 -30.6 64.41 -31.44 65.25 C-34.11 65.39 -36.76 65.29 -39.44 65.25 C-39.77 64.59 -40.1 63.93 -40.44 63.25 C-40.11 62.59 -39.78 61.93 -39.44 61.25 C-40.43 61.41 -40.43 61.41 -45.44 62.25 C-45.11 61.26 -44.78 60.27 -44.44 59.25 C-43.12 59.25 -41.8 59.25 -40.44 59.25 C-40.44 58.59 -40.44 57.93 -40.44 57.25 C-40.11 57.09 -40.11 57.09 -38.44 56.25 C-38.44 55.26 -38.44 54.27 -38.44 53.25 C-38.11 53.09 -38.11 53.09 -36.44 52.25 C-38.41 50.28 -41.79 50.59 -44.44 50.25 C-44.11 49.26 -43.78 48.27 -43.44 47.25 C-42.45 47.25 -41.46 47.25 -40.44 47.25 C-39.78 45.93 -39.12 44.61 -38.44 43.25 C-36.97 44.58 -35.51 45.92 -34.04 47.25 C-33.51 47.58 -32.98 47.91 -32.44 48.25 C-31.94 48.09 -31.94 48.09 -29.44 47.25 C-29.11 47.91 -28.78 48.57 -28.44 49.25 C-28.11 48.59 -27.78 47.93 -27.44 47.25 C-28.76 46.59 -30.08 45.93 -31.44 45.25 C-31.11 44.26 -30.78 43.27 -30.44 42.25 C-28.46 42.25 -26.48 42.25 -24.44 42.25 C-24.77 40.93 -25.1 39.61 -25.44 38.25 C-25.99 38.15 -26.55 38.04 -27.12 37.94 C-29.97 37.09 -32.06 36.03 -34.44 34.25 C-34.44 32.93 -34.44 31.61 -34.44 30.25 C-34.74 28.58 -35.07 26.91 -35.44 25.25 C-32.68 24.48 -30.99 24.06 -28.25 25 C-26.44 26.25 -26.44 26.25 -24.44 29.25 C-24.44 27.27 -24.44 25.29 -24.44 23.25 C-25.43 22.92 -26.42 22.59 -27.44 22.25 C-27.11 20.27 -26.78 18.29 -26.44 16.25 C-28.09 16.25 -29.74 16.25 -31.44 16.25 C-33.56 9.5 -33.56 9.5 -32.44 7.25 C-30.31 5.5 -30.31 5.5 -27.44 4.25 C-23.62 5.06 -23.62 5.06 -20.44 6.25 C-20.11 8.23 -19.78 10.21 -19.44 12.25 C-20.1 12.58 -20.1 12.58 -23.44 14.25 C-23.44 14.91 -23.44 15.57 -23.44 16.25 C-22.78 16.25 -22.12 16.25 -21.44 16.25 C-21.44 18.56 -21.44 20.87 -21.44 23.25 C-20.78 23.25 -20.12 23.25 -19.44 23.25 C-18.1 23.56 -16.77 23.9 -15.44 24.25 C-15.77 25.34 -16.1 26.44 -16.44 27.56 C-17.44 31.25 -17.44 31.25 -17.44 34.25 C-16.78 34.25 -16.12 34.25 -15.44 34.25 C-15.44 33.59 -15.44 32.93 -15.44 32.25 C-10.56 33.12 -10.56 33.12 -9.44 34.25 C-9.11 31.94 -8.78 29.63 -8.44 27.25 C-9.76 27.25 -11.08 27.25 -12.44 27.25 C-12.26 26.71 -12.26 26.71 -11.38 24 C-10.21 19.33 -10.21 19.33 -11.44 16.25 C-9.62 15.56 -9.62 15.56 -7.44 15.25 C-5.69 16.56 -5.69 16.56 -4.44 18.25 C-4.44 18.91 -4.44 19.57 -4.44 20.25 C-3.78 20.25 -3.12 20.25 -2.44 20.25 C-2.93 19.32 -3.43 18.39 -3.94 17.44 C-5.44 14.25 -5.44 14.25 -5.44 11.25 C-4.45 11.58 -3.46 11.91 -2.44 12.25 C-2.11 11.59 -1.78 10.93 -1.44 10.25 C-2.1 10.25 -2.76 10.25 -3.44 10.25 C-3.63 8.77 -3.82 7.29 -4 5.81 C-4.05 5.4 -4.05 5.4 -4.32 3.32 C-4.34 2.98 -4.34 2.98 -4.44 1.25 C-3.44 0.25 -3.44 0.25 0 0 Z M-7.44 32.25 C-8.06 34.12 -8.06 34.12 -8.44 36.25 C-7.78 36.91 -7.12 37.57 -6.44 38.25 C-6.44 36.27 -6.44 34.29 -6.44 32.25 C-6.77 32.25 -7.1 32.25 -7.44 32.25 Z M-23.44 37.25 C-22.78 39.23 -22.12 41.21 -21.44 43.25 C-20.44 40.25 -20.44 40.25 -21.44 37.25 C-22.1 37.25 -22.76 37.25 -23.44 37.25 Z M4.56 37.25 C5.56 39.25 5.56 39.25 5.56 39.25 Z M-14.44 41.25 C-14.44 42.24 -14.44 43.23 -14.44 44.25 C-13.78 43.92 -13.12 43.59 -12.44 43.25 C-13.1 42.59 -13.76 41.93 -14.44 41.25 Z M8.56 44.25 C8.23 45.57 7.9 46.89 7.56 48.25 C8.55 48.58 9.54 48.91 10.56 49.25 C10.56 47.93 10.56 46.61 10.56 45.25 C9.9 44.92 9.24 44.59 8.56 44.25 Z M-15.44 46.25 C-14.44 48.25 -14.44 48.25 -14.44 48.25 Z M-27.44 51.25 C-26.44 54.25 -26.44 54.25 -26.44 54.25 Z " fill="#A99C64" transform="translate(55.4375,9.75)"/>
<path d="M0 0 C0.33 1.98 0.66 3.96 1 6 C0.34 6.33 0.34 6.33 -3 8 C-3 8.66 -3 9.32 -3 10 C-2.34 10 -1.68 10 -1 10 C-1 12.31 -1 14.62 -1 17 C-0.34 17 0.32 17 1 17 C2.34 17.31 3.67 17.65 5 18 C4.67 18.91 4.34 19.81 4 20.75 C2.44 26.06 2.84 31.52 3 37 C1.19 38.06 1.19 38.06 -1 39 C-1.49 38.84 -1.49 38.84 -4 38 C-2.12 43.75 -2.12 43.75 -1 46 C-0.34 46 0.32 46 1 46 C0.67 46.66 0.34 47.32 0 48 C-0.66 47.67 -1.32 47.34 -2 47 C-2.1 47.62 -2.21 48.24 -2.31 48.88 C-3 51 -3 51 -6 53 C-6 53.66 -6 54.32 -6 55 C-4.02 55 -2.04 55 0 55 C0.33 55.99 0.66 56.98 1 58 C0.51 58.16 0.51 58.16 -2 59 C-2.66 58.67 -3.32 58.34 -4 58 C-4.49 58.16 -4.49 58.16 -7 59 C-7.49 58.84 -7.49 58.84 -10 58 C-10.16 58.16 -10.16 58.16 -11 59 C-13.67 59.14 -16.32 59.04 -19 59 C-19.33 58.34 -19.66 57.68 -20 57 C-19.67 56.34 -19.34 55.68 -19 55 C-19.99 55.16 -19.99 55.16 -25 56 C-24.67 55.01 -24.34 54.02 -24 53 C-22.68 53 -21.36 53 -20 53 C-20 52.34 -20 51.68 -20 51 C-19.67 50.84 -19.67 50.84 -18 50 C-18 49.01 -18 48.02 -18 47 C-17.67 46.84 -17.67 46.84 -16 46 C-17.97 44.03 -21.35 44.34 -24 44 C-23.67 43.01 -23.34 42.02 -23 41 C-22.01 41 -21.02 41 -20 41 C-19.34 39.68 -18.68 38.36 -18 37 C-16.54 38.33 -15.07 39.67 -13.61 41 C-13.08 41.33 -12.55 41.66 -12 42 C-11.5 41.84 -11.5 41.84 -9 41 C-8.67 41.66 -8.34 42.32 -8 43 C-7.67 42.34 -7.34 41.68 -7 41 C-8.32 40.34 -9.64 39.68 -11 39 C-10.67 38.01 -10.34 37.02 -10 36 C-8.02 36 -6.04 36 -4 36 C-4.33 34.68 -4.66 33.36 -5 32 C-5.56 31.9 -6.11 31.79 -6.69 31.69 C-9.53 30.84 -11.63 29.78 -14 28 C-14 26.68 -14 25.36 -14 24 C-14.3 22.33 -14.63 20.66 -15 19 C-12.24 18.23 -10.55 17.81 -7.81 18.75 C-6 20 -6 20 -4 23 C-4 21.02 -4 19.04 -4 17 C-4.99 16.67 -5.98 16.34 -7 16 C-6.67 14.02 -6.34 12.04 -6 10 C-7.65 10 -9.3 10 -11 10 C-13.12 3.25 -13.12 3.25 -12 1 C-7.62 -2.61 -5.15 -1.92 0 0 Z M-3 31 C-2.34 32.98 -1.68 34.96 -1 37 C0 34 0 34 -1 31 C-1.66 31 -2.32 31 -3 31 Z M-7 45 C-6 48 -6 48 -6 48 Z " fill="#D2CBAE" transform="translate(35,16)"/>
<path d="M0 0 C1.35 4.05 0.62 6.79 0 11 C0.99 11 1.98 11 3 11 C3.33 10.34 3.66 9.68 4 9 C4.99 9.66 5.98 10.32 7 11 C7.66 8.36 8.32 5.72 9 3 C9.99 3 10.98 3 12 3 C11.67 8.28 11.34 13.56 11 19 C14.3 17.68 17.6 16.36 21 15 C20.67 17.31 20.34 19.62 20 22 C18.35 22.16 18.35 22.16 10 23 C10 23.66 10 24.32 10 25 C9.34 25 8.68 25 8 25 C7.67 25.66 7.34 26.32 7 27 C6.34 26.67 5.68 26.34 5 26 C4.67 26.66 4.34 27.32 4 28 C3.01 27.34 2.02 26.68 1 26 C-0.32 26 -1.64 26 -3 26 C-3.33 25.34 -3.66 24.68 -4 24 C-5.98 24 -7.96 24 -10 24 C-10 22.68 -10 21.36 -10 20 C-9.01 19.67 -8.02 19.34 -7 19 C-7 17.35 -7 15.7 -7 14 C-6.01 14 -5.02 14 -4 14 C-4.33 13.8 -4.33 13.8 -6 12.81 C-8 11 -8 11 -8.25 8.31 C-8.17 7.55 -8.09 6.79 -8 6 C-7.01 5.67 -6.02 5.34 -5 5 C-5 5.66 -5 6.32 -5 7 C-4.34 7 -3.68 7 -3 7 C-2.67 6.01 -2.34 5.02 -2 4 C-1.35 2.66 -0.68 1.32 0 0 Z " fill="#837C4D" transform="translate(39,48)"/>
<path d="M0 0 C1.18 0.08 2.35 0.16 3.56 0.25 C4.22 1.24 4.88 2.23 5.56 3.25 C6.55 3.58 7.54 3.91 8.56 4.25 C8.38 6.56 8.38 6.56 7.56 9.25 C5.92 10.29 4.26 11.3 2.56 12.25 C2.56 13.24 2.56 14.23 2.56 15.25 C3.88 14.92 5.2 14.59 6.56 14.25 C6.56 17.22 6.56 20.19 6.56 23.25 C3.61 24.73 0.82 24.31 -2.44 24.25 C-2.58 24.73 -2.58 24.73 -3.31 27.19 C-4.44 30.25 -4.44 30.25 -6.44 31.25 C-7.56 33.31 -7.56 33.31 -8.44 35.25 C-8.44 32.61 -8.44 29.97 -8.44 27.25 C-9.76 27.25 -11.08 27.25 -12.44 27.25 C-12.09 26.18 -11.74 25.11 -11.38 24 C-10.21 19.33 -10.21 19.33 -11.44 16.25 C-9.62 15.56 -9.62 15.56 -7.44 15.25 C-5.69 16.56 -5.69 16.56 -4.44 18.25 C-4.44 18.91 -4.44 19.57 -4.44 20.25 C-3.78 20.25 -3.12 20.25 -2.44 20.25 C-2.93 19.32 -3.43 18.39 -3.94 17.44 C-5.44 14.25 -5.44 14.25 -5.44 11.25 C-4.45 11.58 -3.46 11.91 -2.44 12.25 C-2.11 11.59 -1.78 10.93 -1.44 10.25 C-2.1 10.25 -2.76 10.25 -3.44 10.25 C-3.63 8.77 -3.82 7.29 -4 5.81 C-4.1 4.99 -4.21 4.17 -4.32 3.32 C-4.36 2.63 -4.4 1.95 -4.44 1.25 C-3.44 0.25 -3.44 0.25 0 0 Z " fill="#B7AF8E" transform="translate(55.4375,9.75)"/>
<path d="M0 0 C1.32 0.33 2.64 0.66 4 1 C3.76 1.23 3.76 1.23 2.56 2.38 C1 4 1 4 0 6 C-0.99 6 -1.98 6 -3 6 C-3 7.32 -3 8.64 -3 10 C-2.01 9.34 -1.02 8.68 0 8 C2.62 8.25 2.62 8.25 5 9 C5.33 9.66 5.66 10.32 6 11 C6 10.34 6 9.68 6 9 C7 9 8 9 9 9 C9.33 7.02 9.66 5.04 10 3 C13.29 2.2 14.71 1.9 18 3 C18.62 6.44 19 9.49 19 13 C18.53 12.97 18.53 12.97 16.12 12.81 C15.61 12.84 15.61 12.84 13 13 C12.67 13.5 12.67 13.5 11 16 C11.99 16 12.98 16 14 16 C13.67 17.65 13.34 19.3 13 21 C9.12 22 9.12 22 8 22 C7.67 21.34 7.34 20.68 7 20 C6.34 20 5.68 20 5 20 C5 19.01 5 18.02 5 17 C4.34 17 3.68 17 3 17 C3.09 17.65 3.09 17.65 3.56 20.94 C3.88 23.15 3.88 23.15 4 25 C3 26 3 26 0.44 26.06 C-0.37 26.04 -1.17 26.02 -2 26 C-1.79 25.3 -1.59 24.6 -1.38 23.88 C-0.92 20.38 -1.68 18.24 -3 15 C-3.33 14.67 -3.66 14.34 -4 14 C-4.33 14 -4.66 14 -5 14 C-4.67 10.7 -4.34 7.4 -4 4 C-3.34 4 -2.68 4 -2 4 C-1.34 2.68 -0.68 1.36 0 0 Z M4 13 C5 15 5 15 5 15 Z " fill="#D3CFBD" transform="translate(56,34)"/>
<path d="M0 0 C0.33 1.98 0.66 3.96 1 6 C0.34 6.33 0.34 6.33 -3 8 C-3 8.66 -3 9.32 -3 10 C-2.34 10 -1.68 10 -1 10 C-0.95 11.92 -0.91 13.83 -0.88 15.75 C-0.85 16.82 -0.83 17.88 -0.8 18.98 C-1 21.92 -1.47 23.52 -3 26 C-4.32 25.67 -5.64 25.34 -7 25 C-7 24.34 -7 23.68 -7 23 C-7.66 23 -8.32 23 -9 23 C-8.34 24.98 -7.68 26.96 -7 29 C-7.66 29.66 -8.32 30.32 -9 31 C-11.5 29.75 -11.5 29.75 -14 28 C-14 26.68 -14 25.36 -14 24 C-14.3 22.33 -14.63 20.66 -15 19 C-12.24 18.23 -10.55 17.81 -7.81 18.75 C-6 20 -6 20 -4 23 C-4 21.02 -4 19.04 -4 17 C-4.99 16.67 -5.98 16.34 -7 16 C-6.67 14.02 -6.34 12.04 -6 10 C-7.65 10 -9.3 10 -11 10 C-13.12 3.25 -13.12 3.25 -12 1 C-7.62 -2.61 -5.15 -1.92 0 0 Z " fill="#B5B19A" transform="translate(35,16)"/>
<path d="M0 0 C-0.62 0.14 -1.24 0.29 -1.88 0.44 C-4 1 -4 1 -6 2 C-5.34 2.99 -4.68 3.98 -4 5 C-10.75 8 -10.75 8 -13 8 C-13 7.34 -13 6.68 -13 6 C-16.31 5.31 -16.31 5.31 -20 5 C-21.94 6.44 -21.94 6.44 -23 8 C-23.66 7.65 -24.32 7.3 -25 6.94 C-29.04 5.68 -31.83 6.38 -36 7 C-36.66 6.67 -37.32 6.34 -38 6 C-37 3 -37 3 -34.25 1.25 C-30.72 -0.11 -29.53 -0.02 -26 1 C-22 1 -22 1 -19 0 C-19 -0.66 -19 -1.32 -19 -2 C-11.77 -3.75 -6.58 -3.22 0 0 Z " fill="#C9C094" transform="translate(68,73)"/>
<path d="M0 0 C2.26 0.35 3.95 0.98 6 2 C6 3.65 6 5.3 6 7 C3.69 7.33 1.38 7.66 -1 8 C-1 8.99 -1 9.98 -1 11 C0.32 10.67 1.64 10.34 3 10 C3.33 10.99 3.66 11.98 4 13 C6.56 14.19 6.56 14.19 9 15 C9 15.66 9 16.32 9 17 C4.25 18.12 4.25 18.12 2 17 C2 17.66 2 18.32 2 19 C-0.38 19.62 -0.38 19.62 -3 20 C-3.66 19.34 -4.32 18.68 -5 18 C-4.98 15.4 -4.98 15.4 -4.62 12.38 C-4.51 11.37 -4.4 10.37 -4.29 9.34 C-4.24 8.95 -4.24 8.95 -4 7 C-6.31 7.66 -8.62 8.32 -11 9 C-10.34 7.68 -9.68 6.36 -9 5 C-9.66 5 -10.32 5 -11 5 C-10.67 3.68 -10.34 2.36 -10 1 C-10 1.66 -10 2.32 -10 3 C-9.01 3 -8.02 3 -7 3 C-6.67 2.34 -6.34 1.68 -6 1 C-5.38 1.21 -4.76 1.41 -4.12 1.62 C-3.77 1.69 -3.77 1.69 -2 2 C-1.34 1.34 -0.68 0.68 0 0 Z " fill="#D0C59E" transform="translate(73,55)"/>
<path d="M0 0 C2.8 -0.23 4.46 -0.34 6.88 1.19 C8 3 8 3 7.69 5.69 C7.46 6.45 7.23 7.21 7 8 C8.98 8 10.96 8 13 8 C13.33 8.99 13.66 9.98 14 11 C13.01 11.33 12.02 11.66 11 12 C10.34 11.67 9.68 11.34 9 11 C8.01 11.33 7.02 11.66 6 12 C5.01 11.67 4.02 11.34 3 11 C2.67 11.33 2.34 11.66 2 12 C-0.67 12.14 -3.32 12.04 -6 12 C-6.33 11.34 -6.66 10.68 -7 10 C-6.67 9.34 -6.34 8.68 -6 8 C-7.98 8.33 -9.96 8.66 -12 9 C-11.67 8.01 -11.34 7.02 -11 6 C-9.68 6 -8.36 6 -7 6 C-7 5.34 -7 4.68 -7 4 C-5.68 4 -4.36 4 -3 4 C-2.67 3.34 -2.34 2.68 -2 2 C-1.67 2.33 -1.34 2.66 -1 3 C-0.67 2.01 -0.34 1.02 0 0 Z " fill="#95926C" transform="translate(22,63)"/>
<path d="M0 0 C3.69 0.5 5.6 1.1 8 4 C8.66 2.68 9.32 1.36 10 0 C10.26 5.91 9.3 11.24 8 17 C7.26 16.81 6.52 16.63 5.75 16.44 C3.05 16.01 1.55 16.15 -1 17 C-0.99 16.32 -0.98 15.65 -0.96 14.95 C-0.96 14.06 -0.95 13.17 -0.94 12.25 C-0.93 11.81 -0.93 11.81 -0.9 9.58 C-0.99 7.22 -1.33 5.26 -2 3 C-1.34 2.67 -0.68 2.34 0 2 C0 1.34 0 0.68 0 0 Z M1 9 C1 9.99 1 10.98 1 12 C1.66 11.67 2.32 11.34 3 11 C2.34 10.34 1.68 9.68 1 9 Z M0 14 C1 16 1 16 1 16 Z " fill="#BAB58F" transform="translate(40,42)"/>
<path d="M0 0 C1.32 0.33 2.64 0.66 4 1 C3.67 1.91 3.34 2.81 3 3.75 C1.44 9.06 1.84 14.52 2 20 C1.34 20.33 1.34 20.33 -2 22 C-2 19.36 -2 16.72 -2 14 C-4.31 14 -6.62 14 -9 14 C-9.33 11.36 -9.66 8.72 -10 6 C-9.34 6 -8.68 6 -8 6 C-7.34 6.66 -6.68 7.32 -6 8 C-5.34 8 -4.68 8 -4 8 C-3.67 7.01 -3.34 6.02 -3 5 C-2.34 5 -1.68 5 -1 5 C-0.67 3.35 -0.34 1.7 0 0 Z " fill="#B0A992" transform="translate(36,33)"/>
<path d="M0 0 C0.99 0 1.98 0 3 0 C2.67 5.28 2.34 10.56 2 16 C5.3 14.68 8.6 13.36 12 12 C11.67 14.31 11.34 16.62 11 19 C6.71 19.66 2.42 20.32 -2 21 C-3.07 15.67 -2.65 14.85 -1 10 C-0.54 6.68 -0.25 3.35 0 0 Z " fill="#686540" transform="translate(48,51)"/>
<path d="M0 0 C0.33 1.98 0.66 3.96 1 6 C0.34 6.33 0.34 6.33 -3 8 C-3.33 7.34 -3.66 6.68 -4 6 C-4.99 5.67 -5.98 5.34 -7 5 C-6.65 5.6 -6.3 6.2 -5.94 6.81 C-5 9 -5 9 -6 12 C-6 11.34 -6 10.68 -6 10 C-7.65 10 -9.3 10 -11 10 C-13.12 3.25 -13.12 3.25 -12 1 C-7.62 -2.61 -5.15 -1.92 0 0 Z " fill="#E2D6C7" transform="translate(35,16)"/>
<path d="M0 0 C0.33 0.66 0.66 1.32 1 2 C2.16 1.84 2.16 1.84 8 1 C7.38 1.25 6.76 1.49 6.12 1.75 C3.65 3.21 3.05 4.38 2 7 C1.34 6.67 0.68 6.34 0 6 C0 8.97 0 11.94 0 15 C0.66 14.67 1.32 14.34 2 14 C2 16.64 2 19.28 2 22 C2.66 22.33 3.32 22.66 4 23 C3.63 23.45 3.25 23.89 2.87 24.36 C-1.04 29.36 -1.04 29.36 -0.81 32.94 C-0.54 33.62 -0.28 34.3 0 35 C-0.49 35.16 -0.49 35.16 -3 36 C-3.25 29.93 -2.7 24.84 -1 19 C-1.66 19 -2.32 19 -3 19 C-3 15 -3 11 -3 7 C-2.34 7.33 -1.68 7.66 -1 8 C-0.67 5.36 -0.34 2.72 0 0 Z " fill="#91864E" transform="translate(52,32)"/>
<path d="M0 0 C1.18 0.08 2.35 0.16 3.56 0.25 C4.22 1.24 4.88 2.23 5.56 3.25 C6.55 3.58 7.54 3.91 8.56 4.25 C8.38 6.62 8.38 6.62 7.56 9.25 C5 10.56 5 10.56 2.56 11.25 C2.56 9.6 2.56 7.95 2.56 6.25 C1.57 6.25 0.58 6.25 -0.44 6.25 C-0.44 8.89 -0.44 11.53 -0.44 14.25 C-1.1 13.92 -1.76 13.59 -2.44 13.25 C-2.11 12.26 -1.78 11.27 -1.44 10.25 C-2.1 10.25 -2.76 10.25 -3.44 10.25 C-3.63 8.77 -3.82 7.29 -4 5.81 C-4.1 4.99 -4.21 4.17 -4.32 3.32 C-4.36 2.63 -4.4 1.95 -4.44 1.25 C-3.44 0.25 -3.44 0.25 0 0 Z " fill="#E3DACC" transform="translate(55.4375,9.75)"/>
<path d="M0 0 C1.32 0.33 2.64 0.66 4 1 C3.76 1.23 3.76 1.23 2.56 2.38 C1 4 1 4 0 6 C-0.99 6 -1.98 6 -3 6 C-3 7.32 -3 8.64 -3 10 C-2.01 9.34 -1.02 8.68 0 8 C2.69 8.38 2.69 8.38 5 9 C4.88 11.81 4.88 11.81 4 15 C0.94 16.88 0.94 16.88 -2 18 C-2.33 16.35 -2.66 14.7 -3 13 C-3.33 13.16 -3.33 13.16 -5 14 C-4.67 10.7 -4.34 7.4 -4 4 C-3.34 4 -2.68 4 -2 4 C-1.34 2.68 -0.68 1.36 0 0 Z " fill="#B8B294" transform="translate(56,34)"/>
<path d="M0 0 C1.65 0 3.3 0 5 0 C5.66 1.98 6.32 3.96 7 6 C6.01 6.33 5.02 6.66 4 7 C5.88 12.75 5.88 12.75 7 15 C7.66 15 8.32 15 9 15 C8.67 15.66 8.34 16.32 8 17 C7.34 16.67 6.68 16.34 6 16 C5.67 17.32 5.34 18.64 5 20 C4.34 20 3.68 20 3 20 C3 18.02 3 16.04 3 14 C2.34 14 1.68 14 1 14 C1 12.68 1 11.36 1 10 C-0.32 9.34 -1.64 8.68 -3 8 C-2.67 7.01 -2.34 6.02 -2 5 C-0.02 5 1.96 5 4 5 C3.69 3.06 3.69 3.06 3 1 C2.01 0.67 1.02 0.34 0 0 Z " fill="#C4BFA4" transform="translate(27,47)"/>
<path d="M0 0 C1.65 0 3.3 0 5 0 C5.33 0.66 5.66 1.32 6 2 C7.64 2.72 9.31 3.39 11 4 C10.34 5.32 9.68 6.64 9 8 C6.36 8 3.72 8 1 8 C0.67 7.34 0.34 6.68 0 6 C0.33 5.34 0.66 4.68 1 4 C-0.98 4.33 -2.96 4.66 -5 5 C-4.67 4.01 -4.34 3.02 -4 2 C-2.68 2 -1.36 2 0 2 C0 1.34 0 0.68 0 0 Z " fill="#D1CBAD" transform="translate(15,67)"/>
<path d="M0 0 C1.01 0.08 2.02 0.16 3.06 0.25 C5.74 4.27 5.22 6.49 5.06 11.25 C3.08 11.25 1.1 11.25 -0.94 11.25 C-0.94 8.25 -0.94 8.25 0.06 5.25 C-1.59 5.91 -3.24 6.57 -4.94 7.25 C-3.91 0.33 -3.91 0.33 0 0 Z " fill="#E3D9CB" transform="translate(69.9375,35.75)"/>
<path d="M0 0 C0 1.32 0 2.64 0 4 C-0.66 4 -1.32 4 -2 4 C-1.34 5.98 -0.68 7.96 0 10 C-0.66 10.66 -1.32 11.32 -2 12 C-4.5 10.75 -4.5 10.75 -7 9 C-7 7.68 -7 6.36 -7 5 C-7.3 3.33 -7.63 1.66 -8 0 C-5.14 -1.43 -3.07 -0.6 0 0 Z " fill="#D2C5B1" transform="translate(28,35)"/>
<path d="M0 0 C1.68 0.29 3.34 0.62 5 1 C6.01 4.15 5.94 6.18 5.12 9.38 C4.26 12.9 3.55 16.41 3 20 C2.67 20 2.34 20 2 20 C2 17.36 2 14.72 2 12 C0.68 12 -0.64 12 -2 12 C-1.65 10.93 -1.3 9.86 -0.94 8.75 C-0.08 5.3 0.1 4.18 -1 1 C-0.67 0.67 -0.34 0.34 0 0 Z " fill="#D0C9AA" transform="translate(45,25)"/>
<path d="M0 0 C2 1 2 1 2 1 Z " fill="#F6F6F4" transform="translate(42,40)"/>
<path d="" fill="#F4F3F2" transform="translate(0,0)"/>
<path d="" fill="#F6F6F4" transform="translate(0,0)"/>
<path d="" fill="#F7F7F4" transform="translate(0,0)"/>
</svg>
