<?xml version="1.0" encoding="UTF-8"?>
<!-- Generator: visioncortex VTracer 0.6.12 -->
<svg version="1.1" xmlns="http://www.w3.org/2000/svg" width="92" height="54">
<path d="M0 0 C3 1 3 1 4.61 3.65 C4.87 4.19 4.87 4.19 6.19 6.94 C6.72 8.02 7.25 9.1 7.79 10.21 C9 13 9 13 9 15 C9.66 14.67 10.32 14.34 11 14 C11.33 13.01 11.66 12.02 12 11 C12.99 11 13.98 11 15 11 C16.18 12.71 16.18 12.71 17.31 14.94 C19.59 18.88 19.59 18.88 23.31 20 C24.2 20 25.09 20 26 20 C26.66 18.68 27.32 17.36 28 16 C28.99 16 29.98 16 31 16 C31.21 16.39 31.21 16.39 32.25 18.38 C34.63 21.94 36.92 22.15 41 23 C41 23.66 41 24.32 41 25 C39.42 25.7 37.84 26.39 36.25 27.06 C35.37 27.45 34.49 27.83 33.58 28.22 C30.85 29.05 29.63 28.98 27 28 C27 27.34 27 26.68 27 26 C24.65 26.6 22.31 27.27 20 28 C19.67 28.66 19.34 29.32 19 30 C19.99 30 20.98 30 22 30 C21.84 30.49 21.84 30.49 21 33 C17.99 34.22 15.42 33.98 12.25 33.56 C11.45 33.46 10.65 33.36 9.83 33.25 C9.22 33.17 8.62 33.09 8 33 C8 33.66 8 34.32 8 35 C6.27 35.03 4.54 35.05 2.81 35.06 C1.85 35.07 0.89 35.09 -0.11 35.1 C-2.86 35 -5.31 34.57 -8 34 C-10.33 33.96 -12.67 33.95 -15 34 C-15 33.01 -15 32.02 -15 31 C-14.01 30.67 -13.02 30.34 -12 30 C-13.98 28.68 -15.96 27.36 -18 26 C-18.66 26.66 -19.32 27.32 -20 28 C-24.22 27.62 -28.02 26.42 -32 25 C-32 24.34 -32 23.68 -32 23 C-31.03 22.71 -30.06 22.42 -29.06 22.12 C-26 21 -26 21 -25 19 C-23.76 19.19 -22.52 19.37 -21.25 19.56 C-15.81 20.24 -15.81 20.24 -13 19 C-12.67 18.34 -12.34 17.68 -12 17 C-11.34 17 -10.68 17 -10 17 C-10 16.34 -10 15.68 -10 15 C-9.34 15 -8.68 15 -8 15 C-7.92 13.89 -7.84 12.77 -7.75 11.62 C-7.5 10.43 -7.25 9.23 -7 8 C-5.12 6.94 -5.12 6.94 -3 6 C-1.25 2.88 -1.25 2.88 0 0 Z " fill="#B4B9BA" transform="translate(42,10)"/>
<path d="M0 0 C0.25 1.77 0.47 3.54 0.69 5.31 C0.82 6.3 0.94 7.28 1.07 8.3 C1 11 1 11 -2 14 C0.97 14 3.94 14 7 14 C7 14.99 7 15.98 7 17 C5.02 17.66 3.04 18.32 1 19 C3.31 19.66 5.62 20.32 8 21 C7.67 21.16 7.67 21.16 6 22 C6 22.66 6 23.32 6 24 C6.42 24.02 6.42 24.02 8.55 24.15 C9.65 24.22 10.75 24.3 11.88 24.38 C12.97 24.44 14.06 24.51 15.18 24.59 C18 25 18 25 20 27 C12.3 27.25 4.73 26.95 -2.94 26.25 C-3.74 26.19 -4.55 26.13 -5.37 26.06 C-10.68 25.53 -13.81 24.31 -18 21 C-18.66 21.66 -19.32 22.32 -20 23 C-24.22 22.62 -28.02 21.42 -32 20 C-32 19.34 -32 18.68 -32 18 C-31.03 17.71 -30.06 17.42 -29.06 17.12 C-26 16 -26 16 -25 14 C-24.38 14.09 -24.38 14.09 -21.25 14.56 C-15.81 15.24 -15.81 15.24 -13 14 C-12.67 13.34 -12.34 12.68 -12 12 C-11.34 12 -10.68 12 -10 12 C-10 11.34 -10 10.68 -10 10 C-9.34 10 -8.68 10 -8 10 C-7.92 8.89 -7.84 7.77 -7.75 6.62 C-7 3 -7 3 -5.06 1.62 C-4.38 1.42 -3.7 1.21 -3 1 C-1 0 -1 0 0 0 Z " fill="#ADB6C2" transform="translate(42,15)"/>
<path d="M0 0 C0.35 0.45 0.7 0.91 1.06 1.38 C3.77 3.65 6.61 4.17 10 5 C10 5.66 10 6.32 10 7 C8.42 7.7 6.84 8.39 5.25 9.06 C4.37 9.45 3.49 9.83 2.58 10.22 C-0.15 11.05 -1.37 10.98 -4 10 C-4 9.34 -4 8.68 -4 8 C-6.35 8.6 -8.69 9.27 -11 10 C-11.33 10.66 -11.66 11.32 -12 12 C-11.01 12 -10.02 12 -9 12 C-9.33 12.99 -9.66 13.98 -10 15 C-13.01 16.22 -15.58 15.98 -18.75 15.56 C-19.55 15.46 -20.35 15.36 -21.17 15.25 C-21.78 15.17 -22.38 15.09 -23 15 C-23 15.66 -23 16.32 -23 17 C-24.73 17.03 -26.46 17.05 -28.19 17.06 C-28.67 17.07 -28.67 17.07 -31.11 17.1 C-33.86 17 -36.31 16.57 -39 16 C-41.33 15.96 -43.67 15.95 -46 16 C-46 15.01 -46 14.02 -46 13 C-43.46 12.8 -40.92 12.62 -38.38 12.44 C-37.66 12.38 -36.95 12.33 -36.21 12.27 C-31.94 11.97 -28.24 12.21 -24 13 C-22.04 13.06 -20.08 13.09 -18.12 13.06 C-17.64 13.06 -17.64 13.06 -15.2 13.04 C-14.83 13.03 -14.83 13.03 -13 13 C-13.35 12.97 -13.35 12.97 -15.12 12.82 C-16.03 12.73 -16.94 12.65 -17.88 12.56 C-18.78 12.48 -19.68 12.4 -20.62 12.32 C-23 12 -23 12 -25 11 C-25 10.34 -25 9.68 -25 9 C-28.3 8.34 -31.6 7.68 -35 7 C-35 6.67 -35 6.34 -35 6 C-30.88 4.37 -28.28 3.69 -24 5 C-23.34 5.33 -22.68 5.66 -22 6 C-22 7.32 -22 8.64 -22 10 C-21.33 9.51 -20.65 9.02 -19.96 8.51 C-16.3 6.64 -13.77 6.7 -9.69 6.81 C-8.43 6.84 -7.18 6.87 -5.89 6.89 C-5.41 6.91 -5.41 6.91 -3 7 C-3 7.66 -3 8.32 -3 9 C-2.01 8.67 -1.02 8.34 0 8 C-0.16 7.51 -0.16 7.51 -1 5 C-0.34 5 0.32 5 1 5 C0.84 4.17 0.84 4.17 0 0 Z " fill="#CFD0CF" transform="translate(73,28)"/>
<path d="M0 0 C0.25 1.77 0.47 3.54 0.69 5.31 C0.82 6.3 0.94 7.28 1.07 8.3 C1 11 1 11 -0.48 12.86 C-0.98 13.23 -1.48 13.61 -2 14 C0.64 14 3.28 14 6 14 C6 14.66 6 15.32 6 16 C1.68 16.76 -1.74 17.16 -6 16 C-5.67 14.35 -5.34 12.7 -5 11 C-5.99 11.33 -6.98 11.66 -8 12 C-7.94 10.54 -7.85 9.08 -7.75 7.62 C-7.7 6.81 -7.66 6 -7.61 5.16 C-7 3 -7 3 -5.08 1.77 C-4.74 1.65 -4.74 1.65 -3 1 C-1 0 -1 0 0 0 Z " fill="#8E9BAA" transform="translate(42,15)"/>
<path d="M0 0 C1.32 0.33 2.64 0.66 4 1 C4 1.66 4 2.32 4 3 C4.99 3 5.98 3 7 3 C6.67 3.99 6.34 4.98 6 6 C2.99 7.22 0.42 6.98 -2.75 6.56 C-3.15 6.51 -3.15 6.51 -5.17 6.25 C-5.78 6.17 -6.38 6.09 -7 6 C-7 6.66 -7 7.32 -7 8 C-8.73 8.03 -10.46 8.05 -12.19 8.06 C-12.67 8.07 -12.67 8.07 -15.11 8.1 C-17.86 8 -20.31 7.57 -23 7 C-25.33 6.96 -27.67 6.95 -30 7 C-30 6.01 -30 5.02 -30 4 C-27.46 3.8 -24.92 3.62 -22.38 3.44 C-21.66 3.38 -20.95 3.33 -20.21 3.27 C-15.94 2.97 -12.24 3.21 -8 4 C-6.04 4.06 -4.08 4.09 -2.12 4.06 C-1.64 4.06 -1.64 4.06 0.8 4.04 C1.17 4.03 1.17 4.03 3 4 C1.68 3.67 0.36 3.34 -1 3 C-0.67 2.01 -0.34 1.02 0 0 Z " fill="#DEE3EB" transform="translate(57,37)"/>
<path d="M0 0 C3 1 3 1 4.64 3.65 C5.17 4.74 5.7 5.82 6.25 6.94 C6.79 8.02 7.33 9.1 7.89 10.21 C8.26 11.13 8.62 12.05 9 13 C8.67 13.66 8.34 14.32 8 15 C6.68 15 5.36 15 4 15 C4 14.34 4 13.68 4 13 C3.34 13 2.68 13 2 13 C2 13.66 2 14.32 2 15 C1.34 15 0.68 15 0 15 C-0.06 14.37 -0.12 13.75 -0.18 13.1 C-0.27 12.28 -0.35 11.47 -0.44 10.62 C-0.52 9.81 -0.6 9 -0.68 8.16 C-1 6 -1 6 -2 4 C-1.06 1.88 -1.06 1.88 0 0 Z " fill="#C8C9CA" transform="translate(42,10)"/>
<path d="M0 0 C3.15 0.7 6.03 1.76 9 3 C8.69 4.88 8.69 4.88 8 7 C5 9 5 9 2.19 8.75 C-0.96 8.01 -3.96 7.09 -7 6 C-7 5.34 -7 4.68 -7 4 C-6.03 3.71 -5.06 3.42 -4.06 3.12 C-1 2 -1 2 0 0 Z " fill="#C2C8D1" transform="translate(17,29)"/>
</svg>
