<?xml version="1.0" encoding="UTF-8"?>
<!-- Generator: visioncortex VTracer 0.6.12 -->
<svg version="1.1" xmlns="http://www.w3.org/2000/svg" width="119" height="66">
<path d="M0 0 C2.6 2.29 3.78 4.43 5.06 7.62 C6.78 11.89 6.78 11.89 9 13 C9.33 11.68 9.66 10.36 10 9 C10.99 9 11.98 9 13 9 C13 10.32 13 11.64 13 13 C13.99 13.33 14.98 13.66 16 14 C16.29 14.66 16.58 15.32 16.88 16 C18 18 18 18 20.44 18.94 C23 19 23 19 24.81 17.56 C25.2 17.05 25.6 16.53 26 16 C26.66 16.33 27.32 16.66 28 17 C28 17.99 28 18.98 28 20 C35.07 22.31 35.07 22.31 39 21 C39.66 21.33 40.32 21.66 41 22 C41 22.66 41 23.32 41 24 C43.31 24.33 45.62 24.66 48 25 C46.59 27.82 44.92 27.98 42 29 C40.67 29.35 39.34 29.69 38 30 C37.5 30.16 37.5 30.16 35 31 C35 31.66 35 32.32 35 33 C34.01 33 33.02 33 32 33 C32 32.34 32 31.68 32 31 C31.52 31.08 31.52 31.08 29.06 31.5 C26 32 26 32 25 32 C23.97 33.31 22.97 34.65 22 36 C22.66 36 23.32 36 24 36 C24 36.99 24 37.98 24 39 C22.42 39.65 20.83 40.29 19.25 40.94 C18.37 41.3 17.49 41.66 16.58 42.03 C12.09 43.72 12.09 43.72 10 44 C6.75 42.06 6.75 42.06 4 40 C3.34 40.66 2.68 41.32 2 42 C3.32 42.66 4.64 43.32 6 44 C3.58 46.33 2.19 46.98 -1.19 47.38 C-5.77 46.92 -9.71 45.63 -14 44 C-14 43.34 -14 42.68 -14 42 C-14.76 42.1 -15.52 42.19 -16.31 42.29 C-23.04 43.01 -28.52 42.91 -35 41 C-36.33 40.66 -37.67 40.33 -39 40 C-39 39.34 -39 38.68 -39 38 C-36.69 38 -34.38 38 -32 38 C-32 37.34 -32 36.68 -32 36 C-31.67 35.84 -31.67 35.84 -30 35 C-31.32 33.68 -32.64 32.36 -34 31 C-34.33 31.49 -34.33 31.49 -36 34 C-39.44 33.19 -39.44 33.19 -43 32 C-43.33 31.01 -43.66 30.02 -44 29 C-46.64 28.67 -49.28 28.34 -52 28 C-52 27.34 -52 26.68 -52 26 C-49.29 24.65 -46.99 24.93 -44 25 C-43.67 24.01 -43.34 23.02 -43 22 C-42.18 22.01 -41.36 22.02 -40.52 22.04 C-39.44 22.04 -38.36 22.05 -37.25 22.06 C-36.18 22.07 -35.12 22.09 -34.02 22.1 C-29.19 21.94 -29.19 21.94 -27 21 C-26.34 19.68 -25.68 18.36 -25 17 C-21.7 17.33 -18.4 17.66 -15 18 C-14.67 16.02 -14.34 14.04 -14 12 C-12.68 12 -11.36 12 -10 12 C-10 12.66 -10 13.32 -10 14 C-9.01 13.67 -8.02 13.34 -7 13 C-6.3 11.01 -5.63 9.01 -5 7 C-4.34 6.67 -3.68 6.34 -3 6 C-2.3 4.35 -1.63 2.68 -1 1 C-0.67 0.67 -0.34 0.34 0 0 Z M-18 35 C-18 35.99 -18 36.98 -18 38 C-17.34 38.16 -17.34 38.16 -14 39 C-15.32 37.68 -16.64 36.36 -18 35 Z M-14 37 C-13.34 37.66 -12.68 38.32 -12 39 C-12 38.34 -12 37.68 -12 37 C-12.66 37 -13.32 37 -14 37 Z " fill="#B4B6B6" transform="translate(62,10)"/>
<path d="M0 0 C3.28 2.88 4.34 6.03 5.84 10.04 C7 12 7 12 9.13 12.77 C9.75 12.85 10.36 12.92 11 13 C11.33 12.01 11.66 11.02 12 10 C13.21 14.67 13.09 19.21 13 24 C11.35 24.33 9.7 24.66 8 25 C9.65 25.33 11.3 25.66 13 26 C13 26.99 13 27.98 13 29 C12.01 29 11.02 29 10 29 C10.16 29.83 10.16 29.83 11 34 C9.68 34 8.36 34 7 34 C7 33.34 7 32.68 7 32 C5.84 32.16 5.84 32.16 0 33 C0 32.34 0 31.68 0 31 C1.65 30.67 3.3 30.34 5 30 C5 29.34 5 28.68 5 28 C3.02 28 1.04 28 -1 28 C-1 28.66 -1 29.32 -1 30 C-4.63 30.33 -8.26 30.66 -12 31 C-12 30.01 -12 29.02 -12 28 C-13.32 28 -14.64 28 -16 28 C-15.51 28.45 -15.01 28.91 -14.5 29.38 C-13 31 -13 31 -13 33 C-15.31 33.25 -15.31 33.25 -18 33 C-19.81 31 -19.81 31 -21 29 C-21.99 29.99 -22.98 30.98 -24 32 C-25.32 31.34 -26.64 30.68 -28 30 C-28 30.66 -28 31.32 -28 32 C-29.98 31.67 -31.96 31.34 -34 31 C-34.33 31.49 -34.33 31.49 -36 34 C-39.44 33.19 -39.44 33.19 -43 32 C-43.33 31.01 -43.66 30.02 -44 29 C-46.64 28.67 -49.28 28.34 -52 28 C-52 27.34 -52 26.68 -52 26 C-49.29 24.65 -46.99 24.93 -44 25 C-43.67 24.01 -43.34 23.02 -43 22 C-42.18 22.01 -41.36 22.02 -40.52 22.04 C-39.44 22.04 -38.36 22.05 -37.25 22.06 C-36.18 22.07 -35.12 22.09 -34.02 22.1 C-29.19 21.94 -29.19 21.94 -27 21 C-26.34 19.68 -25.68 18.36 -25 17 C-21.7 17.33 -18.4 17.66 -15 18 C-14.67 16.02 -14.34 14.04 -14 12 C-12.68 12 -11.36 12 -10 12 C-10 12.66 -10 13.32 -10 14 C-9.01 13.67 -8.02 13.34 -7 13 C-6.3 11.01 -5.63 9.01 -5 7 C-4.34 6.67 -3.68 6.34 -3 6 C-2.3 4.35 -1.63 2.68 -1 1 C-0.67 0.67 -0.34 0.34 0 0 Z " fill="#9EA097" transform="translate(62,10)"/>
<path d="M0 0 C1.25 0.02 2.51 0.04 3.8 0.05 C4.28 0.07 4.28 0.07 6.69 0.12 C7.02 1.12 7.35 2.1 7.69 3.12 C9.01 2.8 10.33 2.47 11.69 2.12 C11.69 3.12 11.69 4.1 11.69 5.12 C12.51 5.29 12.51 5.29 16.69 6.12 C17.35 4.8 18.01 3.48 18.69 2.12 C18.85 2.45 18.85 2.45 19.69 4.12 C20.35 4.12 21.01 4.12 21.69 4.12 C22.02 2.8 22.35 1.48 22.69 0.12 C22.69 0.78 22.69 1.45 22.69 2.12 C24.01 1.8 25.33 1.47 26.69 1.12 C22.81 7 22.81 7 21.69 8.12 C23.01 8.78 24.33 9.45 25.69 10.12 C23.26 12.45 21.88 13.1 18.5 13.5 C13.91 13.05 9.98 11.76 5.69 10.12 C5.69 9.47 5.69 8.8 5.69 8.12 C4.93 8.22 4.16 8.32 3.38 8.41 C-3.35 9.14 -8.83 9.03 -15.31 7.12 C-16.64 6.79 -17.98 6.45 -19.31 6.12 C-19.31 5.47 -19.31 4.8 -19.31 4.12 C-17 4.12 -14.69 4.12 -12.31 4.12 C-12.31 3.47 -12.31 2.8 -12.31 2.12 C-8.09 0.08 -4.66 -0.09 0 0 Z M1.69 1.12 C1.69 2.12 1.69 3.1 1.69 4.12 C2.35 4.29 2.35 4.29 5.69 5.12 C4.37 3.8 3.05 2.48 1.69 1.12 Z M5.69 3.12 C6.35 3.78 7.01 4.45 7.69 5.12 C7.69 4.47 7.69 3.8 7.69 3.12 C7.03 3.12 6.37 3.12 5.69 3.12 Z " fill="#D7DDE7" transform="translate(42.3125,43.875)"/>
<path d="M0 0 C0.99 0 1.98 0 3 0 C3 1.32 3 2.64 3 4 C3.99 4.33 4.98 4.66 6 5 C5.34 6.98 4.68 8.96 4 11 C4.66 11.33 5.32 11.66 6 12 C5.67 13.32 5.34 14.64 5 16 C8.96 16 12.92 16 17 16 C16.34 16.33 15.68 16.66 15 17 C15 17.66 15 18.32 15 19 C15.99 19.33 16.98 19.66 18 20 C18 20.66 18 21.32 18 22 C18.66 22.33 19.32 22.66 20 23 C19.36 22.81 18.72 22.63 18.06 22.44 C17.72 22.37 17.72 22.37 16 22 C14.48 23.52 13.28 25.28 12 27 C12.66 27 13.32 27 14 27 C14 27.99 14 28.98 14 30 C12.42 30.65 10.83 31.29 9.25 31.94 C8.81 32.12 8.81 32.12 6.58 33.03 C1.97 34.77 1.97 34.77 0 35 C-2.75 32.56 -2.75 32.56 -5 30 C-2.36 30.66 0.28 31.32 3 32 C3 31.34 3 30.68 3 30 C4.32 29.67 5.64 29.34 7 29 C5.68 29 4.36 29 3 29 C3 28.34 3 27.68 3 27 C4.65 26.67 6.3 26.34 8 26 C7.67 25.01 7.34 24.02 7 23 C7.66 23 8.32 23 9 23 C9 22.34 9 21.68 9 21 C9.66 21 10.32 21 11 21 C10.67 20.34 10.34 19.68 10 19 C9.01 18.67 8.02 18.34 7 18 C6.67 19.32 6.34 20.64 6 22 C4.35 21.67 2.7 21.34 1 21 C1.66 20.67 2.32 20.34 3 20 C3 19.01 3 18.02 3 17 C0.69 16.67 -1.62 16.34 -4 16 C-4 15.67 -4 15.34 -4 15 C-1.69 15 0.62 15 3 15 C3 12.03 3 9.06 3 6 C2.34 5.67 1.68 5.34 1 5 C0.38 2.44 0.38 2.44 0 0 Z " fill="#D2D3D5" transform="translate(72,19)"/>
<path d="M0 0 C3.27 2.88 4.39 6.05 5.94 10.04 C7 12 7 12 10 13 C10 13.99 10 14.98 10 16 C6.71 18.19 6.39 18.2 2.75 17.62 C-1.23 17.07 -4.99 16.91 -9 17 C-9 16.34 -9 15.68 -9 15 C-10.65 15 -12.3 15 -14 15 C-13.67 13.68 -13.34 12.36 -13 11 C-12.01 11.33 -11.02 11.66 -10 12 C-10 12.66 -10 13.32 -10 14 C-9.01 13.67 -8.02 13.34 -7 13 C-6.3 11.01 -5.63 9.01 -5 7 C-4.34 6.67 -3.68 6.34 -3 6 C-2.3 4.35 -1.63 2.68 -1 1 C-0.67 0.67 -0.34 0.34 0 0 Z " fill="#B3B7B9" transform="translate(62,10)"/>
<path d="M0 0 C0.33 1.32 0.66 2.64 1 4 C0.01 4.66 -0.98 5.32 -2 6 C-2.33 6.33 -2.66 6.66 -3 7 C-2.17 7.16 -2.17 7.16 2 8 C2 8.33 2 8.66 2 9 C0.89 9.1 -0.23 9.21 -1.38 9.31 C-2.57 9.54 -3.77 9.77 -5 10 C-5.33 10.5 -5.33 10.5 -7 13 C-7.98 14.02 -8.98 15.02 -10 16 C-13.44 15.19 -13.44 15.19 -17 14 C-17.33 13.01 -17.66 12.02 -18 11 C-20.64 10.67 -23.28 10.34 -26 10 C-26 9.34 -26 8.68 -26 8 C-23.29 6.65 -20.99 6.93 -18 7 C-17.67 6.01 -17.34 5.02 -17 4 C-16.18 4.01 -15.36 4.02 -14.52 4.04 C-13.44 4.04 -12.36 4.05 -11.25 4.06 C-10.18 4.07 -9.12 4.09 -8.02 4.1 C-3.31 3.95 -3.31 3.95 -1 3 C-0.67 2.01 -0.34 1.02 0 0 Z " fill="#BFC3C2" transform="translate(36,28)"/>
<path d="M0 0 C1.03 2.79 1.05 3.87 0.06 6.75 C-0.11 7.12 -0.11 7.12 -1 9 C-2.98 9 -4.96 9 -7 9 C-7 9.66 -7 10.32 -7 11 C-4.03 11.33 -1.06 11.66 2 12 C1.01 12.33 0.02 12.66 -1 13 C-0.5 13.45 -0.01 13.91 0.5 14.38 C2 16 2 16 2 18 C-0.31 18.25 -0.31 18.25 -3 18 C-4.81 16 -4.81 16 -6 14 C-6.99 14.99 -7.98 15.98 -9 17 C-10.32 16.34 -11.64 15.68 -13 15 C-13 15.66 -13 16.32 -13 17 C-14.32 16.67 -15.64 16.34 -17 16 C-16.62 14.06 -16.62 14.06 -16 12 C-15.34 11.67 -14.68 11.34 -14 11 C-14 10.01 -14 9.02 -14 8 C-12.68 7.67 -11.36 7.34 -10 7 C-10 5.35 -10 3.7 -10 2 C-6.7 2.33 -3.4 2.66 0 3 C0 2.01 0 1.02 0 0 Z " fill="#A1A49F" transform="translate(47,25)"/>
<path d="M0 0 C0.99 0.33 1.98 0.66 3 1 C2.67 2.65 2.34 4.3 2 6 C2.66 6 3.32 6 4 6 C4.33 5.01 4.66 4.02 5 3 C7.61 3.48 9.27 4.16 11.56 5.56 C14 7 14 7 17 7 C17 7.66 17 8.32 17 9 C14.36 9.66 11.72 10.32 9 11 C9 11.33 9 11.66 9 12 C6.36 12.66 3.72 13.32 1 14 C0.67 13.01 0.34 12.02 0 11 C-2.97 10.67 -5.94 10.34 -9 10 C-9.33 9.01 -9.66 8.02 -10 7 C-6.99 6.07 -6.13 5.96 -3 7 C-2.67 5.35 -2.34 3.7 -2 2 C-1.34 2 -0.68 2 0 2 C0 1.34 0 0.68 0 0 Z " fill="#7C8584" transform="translate(49,27)"/>
<path d="M0 0 C0.39 0.64 0.78 1.28 1.19 1.94 C3.38 4.44 4.76 4.65 8 5 C8 4.34 8 3.68 8 3 C7.01 2.67 6.02 2.34 5 2 C5 1.34 5 0.68 5 0 C6.32 0 7.64 0 9 0 C9 0.99 9 1.98 9 3 C9.99 2.67 10.98 2.34 12 2 C17.56 3.56 17.56 3.56 19 5 C18.71 7.34 18.38 9.67 18 12 C17.17 11.84 17.17 11.84 13 11 C13 10.01 13 9.02 13 8 C11.68 8.33 10.36 8.66 9 9 C8.67 8.34 8.34 7.68 8 7 C2.39 7 -3.22 7 -9 7 C-9.66 5.68 -10.32 4.36 -11 3 C-9.68 3.33 -8.36 3.66 -7 4 C-7 3.34 -7 2.68 -7 2 C-6.4 2.23 -5.8 2.45 -5.19 2.69 C-4.47 2.79 -3.74 2.89 -3 3 C-1.25 1.56 -1.25 1.56 0 0 Z " fill="#A7ADB4" transform="translate(41,38)"/>
<path d="M0 0 C1.25 0.02 2.51 0.04 3.8 0.05 C4.28 0.07 4.28 0.07 6.69 0.12 C7.02 1.12 7.35 2.1 7.69 3.12 C6.7 3.45 5.71 3.78 4.69 4.12 C3.7 3.47 2.71 2.8 1.69 2.12 C0.7 4.44 -0.29 6.74 -1.31 9.12 C-2.26 8.98 -3.21 8.84 -4.19 8.69 C-8.88 8.01 -13.59 7.57 -18.31 7.12 C-18.64 6.13 -18.97 5.14 -19.31 4.12 C-17 4.12 -14.69 4.12 -12.31 4.12 C-12.31 3.47 -12.31 2.8 -12.31 2.12 C-8.09 0.08 -4.66 -0.09 0 0 Z " fill="#CACCCF" transform="translate(42.3125,43.875)"/>
<path d="M0 0 C0.99 0 1.98 0 3 0 C3 1.32 3 2.64 3 4 C3.99 4.33 4.98 4.66 6 5 C5.34 6.98 4.68 8.96 4 11 C4.66 11.33 5.32 11.66 6 12 C5.67 13.32 5.34 14.64 5 16 C7.64 16 10.28 16 13 16 C13 16.66 13 17.32 13 18 C11.02 18 9.04 18 7 18 C6.67 19.32 6.34 20.64 6 22 C4.35 21.67 2.7 21.34 1 21 C1.66 20.67 2.32 20.34 3 20 C3 19.01 3 18.02 3 17 C0.69 16.67 -1.62 16.34 -4 16 C-4 15.67 -4 15.34 -4 15 C-1.69 15 0.62 15 3 15 C3 12.03 3 9.06 3 6 C2.34 5.67 1.68 5.34 1 5 C0.38 2.44 0.38 2.44 0 0 Z " fill="#D6CDB9" transform="translate(72,19)"/>
<path d="M0 0 C0.66 0.33 1.32 0.66 2 1 C2 1.99 2 2.98 2 4 C9.07 6.31 9.07 6.31 13 5 C13.66 5.33 14.32 5.66 15 6 C15 6.66 15 7.32 15 8 C17.31 8.33 19.62 8.66 22 9 C21 11 21 11 18.62 12.25 C17.76 12.5 16.89 12.74 16 13 C15.01 12.34 14.02 11.68 13 11 C10.67 10.92 8.33 10.91 6 11 C5.67 10.01 5.34 9.02 5 8 C5.33 7.34 5.66 6.68 6 6 C3.69 6 1.38 6 -1 6 C-0.34 5.67 0.32 5.34 1 5 C0.67 3.35 0.34 1.7 0 0 Z " fill="#CDCDC8" transform="translate(88,26)"/>
<path d="M0 0 C2 1 2 1 2 1 Z " fill="#F3F4F4" transform="translate(53,22)"/>
</svg>
