<?xml version="1.0" encoding="UTF-8"?>
<!-- Generator: visioncortex VTracer 0.6.12 -->
<svg version="1.1" xmlns="http://www.w3.org/2000/svg" width="80" height="53">
<path d="M0 0 C0.99 0 1.98 0 3 0 C3.05 0.35 3.05 0.35 3.3 2.12 C3.45 3.03 3.6 3.94 3.75 4.88 C3.89 5.78 4.03 6.68 4.17 7.62 C5 10 5 10 6.89 11.38 C9 12 9 12 12 11 C12 13.31 12 15.62 12 18 C13.32 18.33 14.64 18.66 16 19 C16.33 17.68 16.66 16.36 17 15 C17.27 15.64 17.54 16.28 17.81 16.94 C19 19 19 19 22 20 C22 19.34 22 18.68 22 18 C22.66 18 23.32 18 24 18 C24.23 18.62 24.47 19.25 24.71 19.89 C26.37 22.6 27.61 22.89 30.62 23.75 C31.44 23.99 32.26 24.23 33.1 24.48 C33.73 24.65 34.35 24.82 35 25 C35 25.66 35 26.32 35 27 C30.65 27.84 26.56 28.11 22.12 28.06 C20.97 28.05 19.82 28.04 18.63 28.04 C17.76 28.02 16.9 28.01 16 28 C15.67 29.32 15.34 30.64 15 32 C14.42 31.84 13.85 31.67 13.25 31.5 C11.05 31.01 9.24 30.91 7 30.97 C6.26 30.98 5.51 31 4.75 31.01 C3.2 31.05 1.66 31.08 0.11 31.13 C-5.68 31.21 -5.68 31.21 -9 29 C-9 29.66 -9 30.32 -9 31 C-9.99 31 -10.98 31 -12 31 C-12.33 30.34 -12.66 29.68 -13 29 C-14.93 28.66 -14.93 28.66 -17.31 28.5 C-20.71 28.28 -23.03 27.68 -26 26 C-25.43 25.83 -24.87 25.66 -24.29 25.48 C-23.92 25.36 -23.92 25.36 -22.06 24.75 C-21.33 24.52 -20.6 24.29 -19.85 24.05 C-18 23 -18 23 -17.25 20.89 C-17.16 20.27 -17.08 19.64 -17 19 C-14.69 19.33 -12.38 19.66 -10 20 C-7.81 16.72 -7 13.79 -6 10 C-4.68 9.67 -3.36 9.34 -2 9 C-1.34 6.03 -0.68 3.06 0 0 Z " fill="#C2CDDA" transform="translate(36,10)"/>
<path d="M0 0 C0.33 0 0.66 0 1 0 C1 3.63 1 7.26 1 11 C1.99 11 2.98 11 4 11 C4 12.32 4 13.64 4 15 C2.68 14.67 1.36 14.34 0 14 C0.52 14.39 1.03 14.78 1.56 15.19 C2.04 15.79 2.51 16.38 3 17 C2.69 19.69 2.69 19.69 2 22 C1.34 22 0.68 22 0 22 C0 22.66 0 23.32 0 24 C-0.8 24.12 -1.61 24.25 -2.44 24.38 C-3.28 24.58 -4.13 24.79 -5 25 C-5.33 25.66 -5.66 26.32 -6 27 C-7.65 26.67 -9.3 26.34 -11 26 C-10.67 25.34 -10.34 24.68 -10 24 C-9.34 24 -8.68 24 -8 24 C-8.33 23.34 -8.66 22.68 -9 22 C-9.66 22 -10.32 22 -11 22 C-10.29 19.09 -9.54 16.19 -8.69 13.31 C-8.46 12.52 -8.24 11.74 -8.01 10.93 C-7 9 -7 9 -4.89 8.23 C-4.58 8.19 -4.58 8.19 -3 8 C-2.88 7.24 -2.75 6.47 -2.62 5.69 C-2 3 -2 3 0 0 Z " fill="#ADB5C0" transform="translate(37,11)"/>
<path d="M0 0 C0.27 0.64 0.54 1.28 0.81 1.94 C2 4 2 4 5 5 C5 4.34 5 3.68 5 3 C5.66 3 6.32 3 7 3 C7.23 3.62 7.47 4.25 7.71 4.89 C9.37 7.6 10.61 7.89 13.62 8.75 C14.44 8.99 15.26 9.23 16.1 9.48 C16.73 9.65 17.35 9.82 18 10 C18 10.66 18 11.32 18 12 C12.28 13.15 6.56 13.37 0.75 13.62 C-0.26 13.68 -1.26 13.73 -2.3 13.78 C-3.26 13.83 -4.22 13.87 -5.2 13.91 C-5.64 13.93 -5.64 13.93 -7.85 14.04 C-10 14 -10 14 -12 13 C-12 12.34 -12 11.68 -12 11 C-12.66 11 -13.32 11 -14 11 C-14 10.34 -14 9.68 -14 9 C-10.63 8.38 -10.63 8.38 -7 8 C-6.34 8.66 -5.68 9.32 -5 10 C-5 9.01 -5 8.02 -5 7 C-4.01 7 -3.02 7 -2 7 C-1.34 4.69 -0.68 2.38 0 0 Z " fill="#B8BEC7" transform="translate(53,25)"/>
<path d="M0 0 C0.99 0 1.98 0 3 0 C3.1 0.7 3.2 1.4 3.3 2.12 C3.45 3.03 3.6 3.94 3.75 4.88 C3.89 5.78 4.03 6.68 4.17 7.62 C5 10 5 10 6.89 11.38 C9 12 9 12 12 11 C12 13.31 12 15.62 12 18 C13.32 18.66 14.64 19.32 16 20 C15.67 20.66 15.34 21.32 15 22 C14.01 22 13.02 22 12 22 C12.33 23.32 12.66 24.64 13 26 C12.01 25.67 11.02 25.34 10 25 C10 24.34 10 23.68 10 23 C7.69 23.33 5.38 23.66 3 24 C2.67 25.32 2.34 26.64 2 28 C0.02 27.67 -1.96 27.34 -4 27 C-4 26.34 -4 25.68 -4 25 C-2.35 25 -0.7 25 1 25 C1 24.34 1 23.68 1 23 C1.66 22.67 2.32 22.34 3 22 C3.62 19.94 3.62 19.94 4 18 C3.01 17.67 2.02 17.34 1 17 C1 16.34 1 15.68 1 15 C2.32 15.33 3.64 15.66 5 16 C5 14.68 5 13.36 5 12 C4.01 12 3.02 12 2 12 C1.94 11.39 1.88 10.77 1.82 10.14 C1.73 9.33 1.65 8.52 1.56 7.69 C1.48 6.89 1.4 6.09 1.32 5.26 C1 3 1 3 0 0 Z " fill="#D7D4D0" transform="translate(36,10)"/>
<path d="M0 0 C0.33 0.16 0.33 0.16 2 1 C1.67 1.16 1.67 1.16 0 2 C0 1.34 0 0.68 0 0 Z " fill="#EFF4F8" transform="translate(37,42)"/>
</svg>
