<?xml version="1.0" encoding="UTF-8"?>
<!-- Generator: visioncortex VTracer 0.6.12 -->
<svg version="1.1" xmlns="http://www.w3.org/2000/svg" width="77" height="48">
<path d="M0 0 C1.75 0.12 1.75 0.12 4 1 C4.64 1.99 5.28 2.98 5.94 4 C8 7 8 7 10.75 7.88 C11.49 7.92 12.23 7.96 13 8 C13.16 8.5 13.16 8.5 14 11 C14.99 11 15.98 11 17 11 C17.66 10.01 18.32 9.02 19 8 C19.99 8.33 20.98 8.66 22 9 C22.21 9.78 22.41 10.57 22.62 11.38 C24.32 14.61 25.25 14.71 28.62 15.81 C30.08 16.23 31.54 16.63 33 17 C32 19 32 19 30.11 19.85 C22.29 22.42 22.29 22.42 18 22 C18 21.34 18 20.68 18 20 C12.12 23.62 12.12 23.62 11 27 C6.72 28.64 3.4 29.55 -1 28 C-1.33 27.34 -1.66 26.68 -2 26 C-4.5 25.59 -4.5 25.59 -7.56 25.38 C-8.57 25.3 -9.59 25.23 -10.63 25.15 C-11.02 25.12 -11.02 25.12 -13 25 C-13 24.34 -13 23.68 -13 23 C-11.02 22.67 -9.04 22.34 -7 22 C-10.84 20.93 -14.6 20.66 -18.56 20.38 C-21.07 19.99 -22.81 19.25 -25 18 C-21.53 15.69 -19.08 14.18 -14.94 13.5 C-12 13 -12 13 -9 11 C-7.81 8.38 -7.81 8.38 -7 6 C-6.01 6 -5.02 6 -4 6 C-1.81 3 -1.81 3 0 0 Z " fill="#A7ADB1" transform="translate(35,10)"/>
<path d="M0 0 C0.33 0.66 0.66 1.32 1 2 C0.34 2 -0.32 2 -1 2 C-1 2.66 -1 3.32 -1 4 C3.95 4 8.9 4 14 4 C14 3.34 14 2.68 14 2 C13.34 2 12.68 2 12 2 C12 1.34 12 0.68 12 0 C13.98 0.66 15.96 1.32 18 2 C18 2.99 18 3.98 18 5 C18.99 5.33 19.98 5.66 21 6 C22.36 6.97 23.69 7.96 25 9 C24.68 9.22 24.68 9.22 23.06 10.31 C21 12 21 12 20 15 C15.72 16.64 12.4 17.55 8 16 C7.67 15.34 7.34 14.68 7 14 C4.5 13.59 4.5 13.59 1.44 13.38 C0.43 13.3 -0.59 13.23 -1.63 13.15 C-2.02 13.12 -2.02 13.12 -4 13 C-4 12.34 -4 11.68 -4 11 C-2.02 10.67 -0.04 10.34 2 10 C-1.84 8.93 -5.6 8.66 -9.56 8.38 C-12.07 7.99 -13.81 7.25 -16 6 C-11.56 3.04 -8.31 1.79 -3 1 C-2.01 0.67 -1.02 0.34 0 0 Z " fill="#B3BAC6" transform="translate(26,22)"/>
<path d="M0 0 C0.99 0.33 1.98 0.66 3 1 C3.1 1.39 3.1 1.39 3.62 3.38 C5.32 6.61 6.25 6.71 9.62 7.81 C11.08 8.23 12.54 8.63 14 9 C13 11 13 11 11.11 11.85 C3.29 14.42 3.29 14.42 -1 14 C-1 13.34 -1 12.68 -1 12 C-1.66 11.67 -2.32 11.34 -3 11 C-2.67 10.34 -2.34 9.68 -2 9 C-2.66 9 -3.32 9 -4 9 C-3.67 8.34 -3.34 7.68 -3 7 C-1.02 7 0.96 7 3 7 C1.25 3.12 1.25 3.12 -1 2 C-0.67 1.34 -0.34 0.68 0 0 Z " fill="#C4C8CD" transform="translate(54,18)"/>
<path d="M0 0 C0.66 1.32 1.32 2.64 2 4 C2.98 3.92 3.95 3.83 4.96 3.75 C6.23 3.64 7.5 3.54 8.81 3.44 C10.08 3.33 11.34 3.23 12.64 3.12 C16 3 16 3 19 4 C18.67 4.99 18.34 5.98 18 7 C13.72 8.64 10.4 9.55 6 8 C5.67 7.34 5.34 6.68 5 6 C2.5 5.59 2.5 5.59 -0.56 5.38 C-1.57 5.3 -2.59 5.23 -3.63 5.15 C-4.02 5.12 -4.02 5.12 -6 5 C-6 4.34 -6 3.68 -6 3 C-4.02 2.67 -2.04 2.34 0 2 C0 1.34 0 0.68 0 0 Z " fill="#CBD6E6" transform="translate(28,30)"/>
<path d="M0 0 C1.98 0.66 3.96 1.32 6 2 C6 2.99 6 3.98 6 5 C6.99 5.33 7.98 5.66 9 6 C10.36 6.97 11.69 7.96 13 9 C10 11 10 11 6 11 C5.34 10.01 4.68 9.02 4 8 C0.88 7.81 0.88 7.81 -2 8 C-2 6.68 -2 5.36 -2 4 C-0.68 4 0.64 4 2 4 C2 3.34 2 2.68 2 2 C1.34 2 0.68 2 0 2 C0 1.34 0 0.68 0 0 Z " fill="#C7C9C9" transform="translate(38,22)"/>
</svg>
