<?xml version="1.0" encoding="UTF-8"?>
<!-- Generator: visioncortex VTracer 0.6.12 -->
<svg version="1.1" xmlns="http://www.w3.org/2000/svg" width="76" height="65">
<path d="M0 0 C2.94 0.81 2.94 0.81 6 2 C6.33 2.99 6.66 3.98 7 5 C7.66 5.33 8.32 5.66 9 6 C9 6.99 9 7.98 9 9 C8.34 9 7.68 9 7 9 C6.67 9.99 6.34 10.98 6 12 C5.01 12 4.02 12 3 12 C4.98 13.32 6.96 14.64 9 16 C10.32 14.35 11.64 12.7 13 11 C15.62 14.06 16 14.73 16 19 C18.31 19 20.62 19 23 19 C23 19.66 23 20.32 23 21 C23.72 21.12 24.44 21.25 25.19 21.38 C27.96 21.99 30.4 22.88 33 24 C33 24.66 33 25.32 33 26 C32.4 26.21 31.79 26.42 31.17 26.63 C26.81 28.31 23.78 29.55 21.44 33.75 C20.96 34.82 20.49 35.9 20 37 C19.01 37 18.02 37 17 37 C16.84 36.34 16.84 36.34 16 33 C15.17 33.16 15.17 33.16 11 34 C10.98 34.7 10.96 35.4 10.94 36.12 C9.58 40.29 6.72 42.76 3 45 C1.68 45 0.36 45 -1 45 C-1 43.68 -1 42.36 -1 41 C-1.64 40.9 -2.28 40.79 -2.94 40.69 C-3.62 40.46 -4.3 40.23 -5 40 C-5.33 39.01 -5.66 38.02 -6 37 C-6.33 37.66 -6.66 38.32 -7 39 C-9.31 38.94 -9.31 38.94 -12 38 C-12.47 36.87 -12.95 35.73 -13.44 34.56 C-15 31 -15 31 -18 29.75 C-18.99 29.5 -19.98 29.25 -21 29 C-22.87 27.38 -22.87 27.38 -24 26 C-23.84 25.51 -23.84 25.51 -23 23 C-21.04 22.26 -21.04 22.26 -18.62 21.69 C-14.8 20.56 -14.22 20.34 -11.94 16.81 C-11.63 15.88 -11.32 14.96 -11 14 C-10.55 14.49 -10.09 14.99 -9.62 15.5 C-8 17 -8 17 -6 17 C-5.67 16.34 -5.34 15.68 -5 15 C-4.01 14.34 -3.02 13.68 -2 13 C-2.99 13 -3.98 13 -5 13 C-5 12.34 -5 11.68 -5 11 C-5.66 11 -6.32 11 -7 11 C-7.33 9.35 -7.66 7.7 -8 6 C-7.01 5.34 -6.02 4.68 -5 4 C-4.34 4.33 -3.68 4.66 -3 5 C-2.69 4.36 -2.38 3.72 -2.06 3.06 C-1 1 -1 1 0 0 Z " fill="#D1C9B8" transform="translate(34,10)"/>
<path d="M0 0 C2.29 3.44 2.18 4.99 2 9 C2.99 8.67 3.98 8.34 5 8 C5 9.98 5 11.96 5 14 C4.34 14 3.68 14 3 14 C3 13.34 3 12.68 3 12 C2.34 12 1.68 12 1 12 C0.67 12.99 0.34 13.98 0 15 C-2.06 15.69 -2.06 15.69 -4 16 C-3.03 16.25 -2.06 16.5 -1.06 16.75 C-0.05 17.16 0.96 17.58 2 18 C2.88 20.13 2.88 20.13 3 22 C2.34 22.33 1.68 22.66 1 23 C1 23.99 1 24.98 1 26 C-2.26 25.65 -3.02 24.98 -5.25 22.44 C-5.83 21.63 -6.41 20.83 -7 20 C-7.33 20.99 -7.66 21.98 -8 23 C-8.66 23 -9.32 23 -10 23 C-10.33 22.01 -10.66 21.02 -11 20 C-11.66 20.33 -12.32 20.66 -13 21 C-17.03 20.78 -19.31 20.58 -22.44 17.94 C-22.7 17.62 -22.7 17.62 -24 16 C-23.67 15.01 -23.34 14.02 -23 13 C-21.04 12.26 -21.04 12.26 -18.62 11.69 C-14.8 10.56 -14.22 10.34 -11.94 6.81 C-11.63 5.88 -11.32 4.96 -11 4 C-10.55 4.5 -10.09 4.99 -9.62 5.5 C-8 7 -8 7 -6 7 C-5.67 6.34 -5.34 5.68 -5 5 C-2.44 4.38 -2.44 4.38 0 4 C0 2.68 0 1.36 0 0 Z " fill="#9FA4A3" transform="translate(34,20)"/>
<path d="M0 0 C2.94 0.81 2.94 0.81 6 2 C6.33 2.99 6.66 3.98 7 5 C7.66 5.33 8.32 5.66 9 6 C9 6.99 9 7.98 9 9 C8.34 9 7.68 9 7 9 C6.67 9.99 6.34 10.98 6 12 C5.01 12 4.02 12 3 12 C4.98 13.32 6.96 14.64 9 16 C10.32 14.35 11.64 12.7 13 11 C15.6 13.71 15.99 14.89 16.19 18.75 C16.16 19.29 16.16 19.29 16 22 C14.02 22 12.04 22 10 22 C10 22.99 10 23.98 10 25 C8.89 25.12 7.77 25.25 6.62 25.38 C3 26 3 26 1 28 C-2.63 27.62 -2.63 27.62 -6 27 C-4 25 -4 25 -1.94 24.5 C-1.62 24.42 -1.62 24.42 0 24 C0.33 23.34 0.66 22.68 1 22 C1.66 22 2.32 22 3 22 C3.33 21.67 3.66 21.34 4 21 C4 20.34 4 19.68 4 19 C3.34 19 2.68 19 2 19 C1.67 17.02 1.34 15.04 1 13 C0.01 13 -0.98 13 -2 13 C-2.99 13 -3.98 13 -5 13 C-5 12.34 -5 11.68 -5 11 C-5.66 11 -6.32 11 -7 11 C-7.33 9.35 -7.66 7.7 -8 6 C-7.01 5.34 -6.02 4.68 -5 4 C-4.34 4.33 -3.68 4.66 -3 5 C-2.69 4.36 -2.38 3.72 -2.06 3.06 C-1 1 -1 1 0 0 Z " fill="#BCBEB8" transform="translate(34,10)"/>
<path d="M0 0 C2.64 0 5.28 0 8 0 C7.67 0.16 7.67 0.16 6 1 C6 1.66 6 2.32 6 3 C6.99 3 7.98 3 9 3 C9 2.34 9 1.68 9 1 C9.66 1 10.32 1 11 1 C10.67 1.99 10.34 2.98 10 4 C8.35 4 6.7 4 5 4 C4.88 4.64 4.75 5.28 4.62 5.94 C4.52 6.28 4.52 6.28 4 8 C3.67 8.16 3.67 8.16 2 9 C1.67 9.99 1.34 10.98 1 12 C-1.64 12 -4.28 12 -7 12 C-7.33 11.01 -7.66 10.02 -8 9 C-8.33 9.66 -8.66 10.32 -9 11 C-11.31 11 -11.31 11 -14 10 C-15.38 7.44 -16.22 4.79 -17 2 C-15.35 1.67 -13.7 1.34 -12 1 C-12 2.32 -12 3.64 -12 5 C-11.34 5 -10.68 5 -10 5 C-9.67 3.68 -9.34 2.36 -9 1 C-6.98 2.93 -5.58 4.63 -4 7 C-3.01 7.33 -2.02 7.66 -1 8 C-1.33 6.35 -1.66 4.7 -2 3 C-1.01 3.33 -0.02 3.66 1 4 C0.67 2.68 0.34 1.36 0 0 Z " fill="#B8BAC2" transform="translate(36,38)"/>
<path d="M0 0 C2 1.56 2 1.56 4 4 C4.25 7.75 4.25 7.75 4 11 C2.02 11 0.04 11 -2 11 C-2 11.99 -2 12.98 -2 14 C-3.11 14.12 -4.23 14.25 -5.38 14.38 C-9 15 -9 15 -11 17 C-14.62 16.62 -14.62 16.62 -18 16 C-16 14 -16 14 -13.94 13.5 C-13.3 13.34 -12.66 13.17 -12 13 C-11.67 12.34 -11.34 11.68 -11 11 C-10.34 11 -9.68 11 -9 11 C-8.67 10.67 -8.34 10.34 -8 10 C-8.44 7.94 -8.44 7.94 -9 6 C-7.12 4.94 -7.12 4.94 -5 4 C-4.34 4.33 -3.68 4.66 -3 5 C-2.01 3.35 -1.02 1.7 0 0 Z " fill="#C1BCA6" transform="translate(46,21)"/>
<path d="M0 0 C0 0.66 0 1.32 0 2 C-0.6 2.21 -1.21 2.42 -1.83 2.63 C-8.03 5.02 -10.18 7.02 -13 13 C-13.33 13.16 -13.33 13.16 -15 14 C-15.06 13.31 -15.12 12.63 -15.18 11.92 C-15.27 11.02 -15.35 10.12 -15.44 9.19 C-15.52 8.29 -15.6 7.4 -15.68 6.48 C-16 4 -16 4 -17 1 C-16.67 0.34 -16.34 -0.32 -16 -1 C-10.84 -2.39 -4.87 -2.43 0 0 Z " fill="#C6C1BA" transform="translate(67,34)"/>
<path d="M0 0 C0.66 0.33 1.32 0.66 2 1 C1.67 1.66 1.34 2.32 1 3 C1.66 3 2.32 3 3 3 C3.33 2.34 3.66 1.68 4 1 C3.92 3.83 3.4 5.55 1.52 7.67 C-3.3 12 -3.3 12 -8 12 C-8 10.68 -8 9.36 -8 8 C-8.99 7.67 -9.98 7.34 -11 7 C-8.69 7 -6.38 7 -4 7 C-3.67 5.68 -3.34 4.36 -3 3 C-2.34 3 -1.68 3 -1 3 C-0.67 2.01 -0.34 1.02 0 0 Z " fill="#DAD9DB" transform="translate(41,43)"/>
<path d="M0 0 C0.66 0.66 1.32 1.32 2 2 C1.67 2.16 1.67 2.16 0 3 C0 2.01 0 1.02 0 0 Z " fill="#E9EEF3" transform="translate(17,42)"/>
</svg>
