<?xml version="1.0" encoding="UTF-8"?>
<!-- Generator: visioncortex VTracer 0.6.12 -->
<svg version="1.1" xmlns="http://www.w3.org/2000/svg" width="112" height="59">
<path d="M0 0 C0.99 0 1.98 0 3 0 C3.25 0.97 3.49 1.94 3.75 2.94 C4.16 3.95 4.58 4.96 5 6 C7.12 6.88 7.12 6.88 9 7 C9.66 5.02 10.32 3.04 11 1 C11.66 1 12.32 1 13 1 C13.16 2.16 13.16 2.16 14 8 C14.66 8 15.32 8 16 8 C16.16 9.32 16.16 9.32 17 16 C17.99 15.34 18.98 14.68 20 14 C20.99 16.64 21.98 19.28 23 22 C24.32 22 25.64 22 27 22 C28.02 22.98 29.02 23.98 30 25 C30.99 25 31.98 25 33 25 C33.16 25.33 33.16 25.33 34 27 C36.07 27.85 36.07 27.85 38.56 28.62 C39.39 28.89 40.22 29.15 41.07 29.41 C41.7 29.61 42.34 29.8 43 30 C43 30.66 43 31.32 43 32 C40.65 32.17 38.29 32.34 35.94 32.5 C34.63 32.59 33.32 32.69 31.96 32.78 C28 33 28 33 24.17 32.94 C20.49 33.01 19.05 34.07 16 36 C13.19 36.19 13.19 36.19 11 36 C10.67 35.01 10.34 34.02 10 33 C8.68 33.45 7.37 33.91 6.06 34.38 C5.33 34.63 4.6 34.89 3.85 35.15 C2 36 2 36 1 38 C-1.33 38 -3.67 38 -6 38 C-6.99 38.66 -7.98 39.32 -9 40 C-12.52 39.48 -12.52 39.48 -14 38 C-15.35 37.77 -16.7 37.59 -18.06 37.44 C-19.36 37.29 -20.66 37.15 -22 37 C-22.33 35.68 -22.66 34.36 -23 33 C-31.91 32.67 -40.82 32.34 -50 32 C-50 31.34 -50 30.68 -50 30 C-49.05 29.75 -48.1 29.5 -47.12 29.25 C-44 28 -44 28 -42.62 25.88 C-42.52 25.57 -42.52 25.57 -42 24 C-40 24 -40 24 -38.38 25.5 C-37.92 26 -37.47 26.49 -37 27 C-36.67 25.68 -36.34 24.36 -36 23 C-33.33 23 -30.67 23 -28 23 C-27.67 21.68 -27.34 20.36 -27 19 C-26.34 19.33 -25.68 19.66 -25 20 C-25 20.66 -25 21.32 -25 22 C-23.02 21.67 -21.04 21.34 -19 21 C-19.33 19.68 -19.66 18.36 -20 17 C-19.34 17 -18.68 17 -18 17 C-17.34 15.02 -16.68 13.04 -16 11 C-15.34 11 -14.68 11 -14 11 C-13.84 11.5 -13.84 11.5 -13 14 C-10.94 15.19 -10.94 15.19 -9 16 C-7.68 14.02 -6.36 12.04 -5 10 C-4.34 10.33 -3.68 10.66 -3 11 C-2.67 9.35 -2.34 7.7 -2 6 C-1.34 6 -0.68 6 0 6 C0 4.02 0 2.04 0 0 Z " fill="#D2CFC7" transform="translate(60,10)"/>
<path d="M0 0 C0.66 0 1.32 0 2 0 C2.16 0.5 2.16 0.5 3 3 C4.65 2.34 6.3 1.68 8 1 C8 2.32 8 3.64 8 5 C7.01 5.66 6.02 6.32 5 7 C5 7.99 5 8.98 5 10 C3.68 10 2.36 10 1 10 C1 10.66 1 11.32 1 12 C3.64 11.01 6.28 10.02 9 9 C9 10.98 9 12.96 9 15 C8.34 15.33 7.68 15.66 7 16 C6.84 16.49 6.84 16.49 6 19 C6.99 19.33 7.98 19.66 9 20 C8.34 21.32 7.68 22.64 7 24 C6.4 23.99 5.79 23.98 5.17 23.96 C4.37 23.96 3.57 23.95 2.75 23.94 C1.96 23.93 1.17 23.91 0.36 23.9 C-1.91 24 -3.83 24.37 -6 25 C-3.69 25 -1.38 25 1 25 C1 25.66 1 26.32 1 27 C-2.38 27.84 -4.67 28.11 -8 27 C-8 27.99 -8 28.98 -8 30 C-8.99 30.33 -9.98 30.66 -11 31 C-11 30.01 -11 29.02 -11 28 C-14.3 28 -17.6 28 -21 28 C-21 27.01 -21 26.02 -21 25 C-22.32 24.67 -23.64 24.34 -25 24 C-23.35 23.34 -21.7 22.68 -20 22 C-25.75 22.88 -25.75 22.88 -28 24 C-29.38 24.08 -30.75 24.11 -32.13 24.1 C-32.94 24.09 -33.74 24.09 -34.57 24.09 C-35.42 24.08 -36.26 24.07 -37.12 24.06 C-37.97 24.06 -38.82 24.05 -39.7 24.05 C-41.8 24.04 -43.9 24.02 -46 24 C-46 23.34 -46 22.68 -46 22 C-45.01 21.67 -44.02 21.34 -43 21 C-41.81 18.94 -41.81 18.94 -41 17 C-39 17 -39 17 -37.38 18.5 C-36.92 19 -36.47 19.49 -36 20 C-35.67 18.68 -35.34 17.36 -35 16 C-32.33 16 -29.67 16 -27 16 C-26.67 14.68 -26.34 13.36 -26 12 C-25.34 12.33 -24.68 12.66 -24 13 C-24 13.66 -24 14.32 -24 15 C-22.02 14.67 -20.04 14.34 -18 14 C-18.33 12.68 -18.66 11.36 -19 10 C-18.34 10 -17.68 10 -17 10 C-16.34 8.02 -15.68 6.04 -15 4 C-14.34 4 -13.68 4 -13 4 C-12.84 4.5 -12.84 4.5 -12 7 C-9.94 8.19 -9.94 8.19 -8 9 C-6.68 7.02 -5.36 5.04 -4 3 C-2.68 3.66 -1.36 4.32 0 5 C0 3.35 0 1.7 0 0 Z " fill="#919CA6" transform="translate(59,17)"/>
<path d="M0 0 C3 2 3 2 3.69 4.62 C3.74 5.02 3.74 5.02 4 7 C2.34 7.38 0.68 7.71 -1 8 C-1.16 7.84 -1.16 7.84 -2 7 C-2 8.65 -2 10.3 -2 12 C-5.73 14.03 -7.67 15 -12 15 C-12.33 15.99 -12.66 16.98 -13 18 C-13.33 17.34 -13.66 16.68 -14 16 C-16 17 -16 17 -19 19 C-23.69 21.49 -28.14 21.23 -33.31 21.12 C-34.15 21.12 -34.98 21.11 -35.85 21.1 C-37.9 21.07 -39.95 21.04 -42 21 C-42 20.34 -42 19.68 -42 19 C-41.01 18.67 -40.02 18.34 -39 18 C-37.81 15.94 -37.81 15.94 -37 14 C-35 14 -35 14 -33.38 15.5 C-33.15 15.75 -33.15 15.75 -32 17 C-31.67 15.68 -31.34 14.36 -31 13 C-28.33 13 -25.67 13 -23 13 C-22.67 11.68 -22.34 10.36 -22 9 C-21.34 9.33 -20.68 9.66 -20 10 C-20 10.66 -20 11.32 -20 12 C-18.02 11.67 -16.04 11.34 -14 11 C-14.33 9.68 -14.66 8.36 -15 7 C-14.34 7 -13.68 7 -13 7 C-12.34 5.02 -11.68 3.04 -11 1 C-10.34 1 -9.68 1 -9 1 C-8.84 1.5 -8.84 1.5 -8 4 C-5.94 5.19 -5.94 5.19 -4 6 C-2.68 4.02 -1.36 2.04 0 0 Z " fill="#B5BBBA" transform="translate(55,20)"/>
<path d="M0 0 C0.99 0 1.98 0 3 0 C3.27 0.97 3.54 1.94 3.81 2.94 C4.2 3.95 4.6 4.96 5 6 C5.99 6.33 6.98 6.66 8 7 C8 7.66 8 8.32 8 9 C8.99 8.67 9.98 8.34 11 8 C12 9 12 9 12.1 11.29 C12.09 12.2 12.07 13.12 12.06 14.06 C12.05 14.98 12.04 15.9 12.04 16.85 C12.02 17.56 12.01 18.27 12 19 C11.01 18.67 10.02 18.34 9 18 C9.12 19.88 9.12 19.88 10 22 C13.06 23.25 13.06 23.25 16 24 C15.67 24.66 15.34 25.32 15 26 C15.99 26.33 16.98 26.66 18 27 C18 27.66 18 28.32 18 29 C15.15 30.43 13.17 30.31 10 30 C7.12 28 7.12 28 5 26 C5.33 24.68 5.66 23.36 6 22 C6.66 22 7.32 22 8 22 C7.67 20.35 7.34 18.7 7 17 C6.4 17.33 5.8 17.66 5.19 18 C3 19 3 19 0 19 C0 18.34 0 17.68 0 17 C1.32 17 2.64 17 4 17 C3.67 15.68 3.34 14.36 3 13 C4.32 12.67 5.64 12.34 7 12 C6.67 11.01 6.34 10.02 6 9 C5.34 9.33 5.34 9.33 2 11 C1.67 9.68 1.34 8.36 1 7 C0.34 7 -0.32 7 -1 7 C-1 8.65 -1 10.3 -1 12 C-1.33 12 -1.66 12 -2 12 C-2 10.02 -2 8.04 -2 6 C-1.34 6 -0.68 6 0 6 C0 4.02 0 2.04 0 0 Z " fill="#BBBAB3" transform="translate(60,10)"/>
<path d="M0 0 C-2.14 2.14 -3.13 2.43 -6 3 C-5.01 3.33 -4.02 3.66 -3 4 C-3 4.99 -3 5.98 -3 7 C0.3 7 3.6 7 7 7 C7.16 7.33 7.16 7.33 8 9 C8.66 9 9.32 9 10 9 C10 8.01 10 7.02 10 6 C12.97 6 15.94 6 19 6 C19 5.34 19 4.68 19 4 C16.69 4.33 14.38 4.66 12 5 C11.84 4.67 11.84 4.67 11 3 C17.87 1.89 23.27 2.3 30 4 C29.67 4.99 29.34 5.98 29 7 C29 6.34 29 5.68 29 5 C27.68 5.45 26.37 5.91 25.06 6.38 C24.33 6.63 23.6 6.89 22.85 7.15 C21 8 21 8 20 10 C17.67 10 15.33 10 13 10 C12.01 10.66 11.02 11.32 10 12 C6.48 11.48 6.48 11.48 5 10 C3.65 9.77 2.3 9.59 0.94 9.44 C-0.36 9.29 -1.66 9.15 -3 9 C-3.33 7.68 -3.66 6.36 -4 5 C-12.91 4.67 -21.82 4.34 -31 4 C-31 3.34 -31 2.68 -31 2 C-30.7 2.01 -30.7 2.01 -29.15 2.03 C-26.37 2.07 -23.59 2.1 -20.81 2.12 C-19.85 2.14 -18.89 2.16 -17.9 2.18 C-17.44 2.18 -17.44 2.18 -15.08 2.2 C-14.23 2.21 -13.37 2.22 -12.5 2.23 C-7.97 1.82 -4.69 -0.27 0 0 Z " fill="#DADBD9" transform="translate(41,38)"/>
<path d="M0 0 C1.98 0 3.96 0 6 0 C6 1.32 6 2.64 6 4 C4.93 3.98 3.86 3.96 2.75 3.94 C-0.15 3.99 -2.29 4.13 -5 5 C-2.69 5 -0.38 5 2 5 C2 5.66 2 6.32 2 7 C-1.38 7.84 -3.67 8.11 -7 7 C-7 7.99 -7 8.98 -7 10 C-7.99 10.33 -8.98 10.66 -10 11 C-10 10.01 -10 9.02 -10 8 C-13.3 8 -16.6 8 -20 8 C-20 7.01 -20 6.02 -20 5 C-21.32 4.67 -22.64 4.34 -24 4 C-20.83 2.94 -18.69 2.93 -15.38 3 C-10.15 3.05 -5.18 2.69 0 2 C0 1.34 0 0.68 0 0 Z " fill="#B2B9BD" transform="translate(58,37)"/>
<path d="M0 0 C0.8 0.16 1.59 0.32 2.41 0.48 C2.74 0.61 2.74 0.61 4.38 1.25 C4.7 2.24 5.03 3.23 5.38 4.25 C3.02 4.42 0.67 4.59 -1.69 4.75 C-3 4.84 -4.31 4.94 -5.66 5.03 C-9.62 5.25 -9.62 5.25 -13.46 5.19 C-17.13 5.26 -18.58 6.32 -21.62 8.25 C-24.44 8.44 -24.44 8.44 -26.62 8.25 C-24.31 5.75 -24.31 5.75 -21.62 3.25 C-20.64 3.25 -19.64 3.25 -18.62 3.25 C-18.62 2.59 -18.62 1.93 -18.62 1.25 C-15 1.58 -11.36 1.91 -7.62 2.25 C-7.62 1.59 -7.62 0.93 -7.62 0.25 C-4.41 -0.82 -3.23 -0.69 0 0 Z " fill="#E0DDD4" transform="translate(97.625,37.75)"/>
<path d="M0 0 C0.99 0 1.98 0 3 0 C3.27 0.97 3.54 1.94 3.81 2.94 C4.2 3.95 4.6 4.96 5 6 C5.99 6.33 6.98 6.66 8 7 C9.69 10.06 9.69 10.06 11 13 C10.34 13 9.68 13 9 13 C9 13.99 9 14.98 9 16 C3.38 19 3.38 19 0 19 C0 18.34 0 17.68 0 17 C1.32 17 2.64 17 4 17 C3.67 15.68 3.34 14.36 3 13 C4.32 12.67 5.64 12.34 7 12 C6.67 11.01 6.34 10.02 6 9 C5.34 9.33 5.34 9.33 2 11 C1.67 9.68 1.34 8.36 1 7 C0.34 7 -0.32 7 -1 7 C-1 8.65 -1 10.3 -1 12 C-1.33 12 -1.66 12 -2 12 C-2 10.02 -2 8.04 -2 6 C-1.34 6 -0.68 6 0 6 C0 4.02 0 2.04 0 0 Z " fill="#D1CFCA" transform="translate(60,10)"/>
<path d="M0 0 C0 1.98 0 3.96 0 6 C-0.33 6.16 -0.33 6.16 -2 7 C-2.33 7.99 -2.66 8.98 -3 10 C-2.01 10.33 -1.02 10.66 0 11 C-0.66 12.32 -1.32 13.64 -2 15 C-2.99 14.67 -3.98 14.34 -5 14 C-5.33 13.34 -5.66 12.68 -6 12 C-6.76 12.08 -7.53 12.16 -8.31 12.25 C-11 12 -11 12 -12.81 10 C-13.2 9.34 -13.6 8.68 -14 8 C-11.68 6.58 -9.39 5.19 -6.94 4 C-4.82 2.91 -2.33 0 0 0 Z " fill="#A5A9A8" transform="translate(68,26)"/>
<path d="M0 0 C1.75 2.13 1.75 2.13 3 4 C-0.84 4.9 -4.38 5.11 -8.31 5.06 C-9.38 5.05 -10.45 5.04 -11.55 5.04 C-12.36 5.02 -13.17 5.01 -14 5 C-13.34 4.01 -12.68 3.02 -12 2 C-12 1.01 -12 0.02 -12 -1 C-10.68 -1 -9.36 -1 -8 -1 C-7.34 -1.21 -6.68 -1.41 -6 -1.62 C-3.29 -2.13 -2.26 -1.53 0 0 Z " fill="#9DA8AE" transform="translate(51,36)"/>
</svg>
