<?xml version="1.0" encoding="UTF-8"?>
<!-- Generator: visioncortex VTracer 0.6.12 -->
<svg version="1.1" xmlns="http://www.w3.org/2000/svg" width="81" height="65">
<path d="M0 0 C0.66 0 1.32 0 2 0 C3.5 3.37 4 5.2 4 9 C5.32 9.33 6.64 9.66 8 10 C8.16 10.82 8.16 10.82 9 15 C9.66 15 10.32 15 11 15 C11.16 15.82 11.16 15.82 12 20 C13.32 20 14.64 20 16 20 C16 20.99 16 21.98 16 23 C16.6 23.18 17.21 23.36 17.83 23.55 C25.77 26.05 25.77 26.05 29 29 C27.35 29.33 25.7 29.66 24 30 C23.84 30.49 23.84 30.49 23 33 C20.36 33.33 17.72 33.66 15 34 C15 35.65 15 37.3 15 39 C9.13 38.13 9.13 38.13 8 37 C7.67 37.99 7.34 38.98 7 40 C6.01 40 5.02 40 4 40 C2.31 41.98 0.64 43.98 -1 46 C-1.66 46 -2.32 46 -3 46 C-3.47 45.17 -3.95 44.35 -4.44 43.5 C-4.95 42.67 -5.47 41.85 -6 41 C-6.99 41 -7.98 41 -9 41 C-9 39.68 -9 38.36 -9 37 C-10.65 37.66 -12.3 38.32 -14 39 C-14.58 37.89 -15.16 36.77 -15.75 35.62 C-17.66 32.88 -18.69 32.09 -21.93 31.12 C-24.07 30.8 -26.21 30.52 -28.36 30.29 C-31 30 -31 30 -33 29 C-33 28.34 -33 27.68 -33 27 C-30.03 26.67 -27.06 26.34 -24 26 C-23.67 25.01 -23.34 24.02 -23 23 C-20.03 22.67 -17.06 22.34 -14 22 C-13.67 19.03 -13.34 16.06 -13 13 C-12.01 13 -11.02 13 -10 13 C-9.67 13.99 -9.34 14.98 -9 16 C-8.83 15.36 -8.66 14.72 -8.48 14.07 C-8.24 13.24 -8 12.41 -7.75 11.56 C-7.52 10.74 -7.29 9.92 -7.05 9.07 C-6.7 8.38 -6.36 7.7 -6 7 C-3.97 6.41 -3.97 6.41 -2 6 C-0.75 2.94 -0.75 2.94 0 0 Z " fill="#B0B1B3" transform="translate(43,10)"/>
<path d="M0 0 C0.66 0 1.32 0 2 0 C3.5 3.37 4 5.2 4 9 C5.32 9.33 6.64 9.66 8 10 C8.33 11.65 8.66 13.3 9 15 C9.66 15 10.32 15 11 15 C11.33 16.65 11.66 18.3 12 20 C13.32 20 14.64 20 16 20 C16 20.99 16 21.98 16 23 C16.6 23.18 17.21 23.36 17.83 23.55 C25.77 26.05 25.77 26.05 29 29 C27.35 29.33 25.7 29.66 24 30 C23.84 30.49 23.84 30.49 23 33 C20.36 33.33 17.72 33.66 15 34 C15 35.65 15 37.3 15 39 C9.12 38.12 9.12 38.12 8 37 C7.67 37.99 7.34 38.98 7 40 C6.01 40 5.02 40 4 40 C2.31 41.98 0.64 43.98 -1 46 C-1.66 46 -2.32 46 -3 46 C-3.47 45.17 -3.95 44.35 -4.44 43.5 C-4.95 42.67 -5.47 41.85 -6 41 C-6.99 41 -7.98 41 -9 41 C-9 39.68 -9 38.36 -9 37 C-10.65 37.66 -12.3 38.32 -14 39 C-14.99 37.68 -15.98 36.36 -17 35 C-16.67 34.34 -16.34 33.68 -16 33 C-12.33 33 -8.67 33 -5 33 C-5 33.99 -5 34.98 -5 36 C-4.01 36 -3.02 36 -2 36 C-1.67 35.01 -1.34 34.02 -1 33 C-0.46 33.35 0.07 33.7 0.62 34.06 C3.73 35.29 5.79 34.73 9 34 C9 33.34 9 32.68 9 32 C9.66 32 10.32 32 11 32 C11.33 32.66 11.66 33.32 12 34 C12.33 33.01 12.66 32.02 13 31 C16.06 29.81 16.06 29.81 19 29 C19 28.01 19 27.02 19 26 C17.35 26 15.7 26 14 26 C14 26.66 14 27.32 14 28 C14.66 28 15.32 28 16 28 C16 28.66 16 29.32 16 30 C10.54 29.65 10.54 29.65 8 29 C6.75 27 6.75 27 6 25 C3.87 24.25 3.87 24.25 2 24 C2.99 24 3.98 24 5 24 C5 23.01 5 22.02 5 21 C4.34 21 3.68 21 3 21 C3 20.34 3 19.68 3 19 C2.01 19.33 1.02 19.66 0 20 C0 18.68 0 17.36 0 16 C-1.32 15.67 -2.64 15.34 -4 15 C-5.12 10.25 -5.12 10.25 -4 8 C-4.66 7.67 -5.32 7.34 -6 7 C-5.38 6.96 -4.76 6.92 -4.12 6.88 C-3.42 6.59 -2.72 6.3 -2 6 C-0.75 2.94 -0.75 2.94 0 0 Z " fill="#D4CDBA" transform="translate(43,10)"/>
<path d="M0 0 C2.97 0.99 5.94 1.98 9 3 C8.67 3.66 8.34 4.32 8 5 C6.68 5 5.36 5 4 5 C3.67 5.99 3.34 6.98 3 8 C0.36 8.33 -2.28 8.66 -5 9 C-5 10.65 -5 12.3 -5 14 C-10.88 13.12 -10.88 13.12 -12 12 C-12.33 12.99 -12.66 13.98 -13 15 C-13.99 15 -14.98 15 -16 15 C-17.69 16.98 -19.36 18.98 -21 21 C-21.66 21 -22.32 21 -23 21 C-23.47 20.17 -23.95 19.35 -24.44 18.5 C-24.95 17.67 -25.47 16.85 -26 16 C-26.99 16 -27.98 16 -29 16 C-29 14.68 -29 13.36 -29 12 C-30.65 12.66 -32.3 13.32 -34 14 C-34.99 12.68 -35.98 11.36 -37 10 C-36.67 9.34 -36.34 8.68 -36 8 C-32.33 8 -28.67 8 -25 8 C-25 8.99 -25 9.98 -25 11 C-24.01 11 -23.02 11 -22 11 C-21.67 10.01 -21.34 9.02 -21 8 C-20.46 8.35 -19.93 8.7 -19.38 9.06 C-16.27 10.29 -14.21 9.73 -11 9 C-11 8.34 -11 7.68 -11 7 C-10.34 7 -9.68 7 -9 7 C-8.67 7.66 -8.34 8.32 -8 9 C-7.67 8.01 -7.34 7.02 -7 6 C-6.01 5.69 -5.02 5.38 -4 5.06 C-3.01 4.71 -2.02 4.36 -1 4 C-0.67 2.68 -0.34 1.36 0 0 Z " fill="#C2CBD7" transform="translate(63,35)"/>
<path d="M0 0 C0.33 0 0.66 0 1 0 C1 3.63 1 7.26 1 11 C0.01 11.33 -0.98 11.66 -2 12 C-2.66 11.67 -3.32 11.34 -4 11 C-4.12 11.64 -4.25 12.28 -4.38 12.94 C-4.58 13.62 -4.79 14.3 -5 15 C-5.33 15.16 -5.33 15.16 -7 16 C-0.54 17.01 -0.54 17.01 2.56 16.94 C5.64 17.02 8.13 17.93 11 19 C11 19.66 11 20.32 11 21 C10.18 20.92 9.36 20.83 8.52 20.75 C7.44 20.64 6.36 20.54 5.25 20.44 C4.18 20.33 3.12 20.23 2.02 20.12 C-0.64 20.01 -2.5 20.18 -5 21 C-5 20.34 -5 19.68 -5 19 C-6.98 19 -8.96 19 -11 19 C-10.67 20.32 -10.34 21.64 -10 23 C-15.33 21.67 -20.67 20.33 -26 19 C-26 18.34 -26 17.68 -26 17 C-23.03 16.67 -20.06 16.34 -17 16 C-16.67 15.01 -16.34 14.02 -16 13 C-14.52 12.84 -14.52 12.84 -7 12 C-6.67 9.03 -6.34 6.06 -6 3 C-5.01 3 -4.02 3 -3 3 C-2.67 3.99 -2.34 4.98 -2 6 C-1.34 4.02 -0.68 2.04 0 0 Z " fill="#C5C9CD" transform="translate(36,20)"/>
<path d="M0 0 C2.97 0.99 5.94 1.98 9 3 C8.67 3.66 8.34 4.32 8 5 C6.68 5 5.36 5 4 5 C3.67 5.99 3.34 6.98 3 8 C0.36 8.33 -2.28 8.66 -5 9 C-5 10.65 -5 12.3 -5 14 C-10.88 13.12 -10.88 13.12 -12 12 C-12.33 12.99 -12.66 13.98 -13 15 C-13.99 14.67 -14.98 14.34 -16 14 C-16.69 11.94 -16.69 11.94 -17 10 C-15.02 9.67 -13.04 9.34 -11 9 C-11 8.34 -11 7.68 -11 7 C-10.34 7 -9.68 7 -9 7 C-8.67 7.66 -8.34 8.32 -8 9 C-7.67 8.01 -7.34 7.02 -7 6 C-6.01 5.69 -5.02 5.38 -4 5.06 C-3.5 4.89 -3.5 4.89 -1 4 C-0.67 2.68 -0.34 1.36 0 0 Z " fill="#D7D6D7" transform="translate(63,35)"/>
<path d="M0 0 C0.66 0 1.32 0 2 0 C3.5 3.37 4 5.2 4 9 C4.99 9 5.98 9 7 9 C7 9.66 7 10.32 7 11 C6.38 11.04 5.76 11.08 5.12 11.12 C4.42 11.41 3.72 11.7 3 12 C1.75 15.06 1.75 15.06 1 18 C0.67 17.34 0.34 16.68 0 16 C-2.06 15.38 -2.06 15.38 -4 15 C-5.12 10.25 -5.12 10.25 -4 8 C-4.66 7.67 -5.32 7.34 -6 7 C-5.38 6.96 -4.76 6.92 -4.12 6.88 C-3.42 6.59 -2.72 6.3 -2 6 C-0.75 2.94 -0.75 2.94 0 0 Z " fill="#BFBFC3" transform="translate(43,10)"/>
<path d="M0 0 C0.66 0 1.32 0 2 0 C2.33 2.31 2.66 4.62 3 7 C3.99 7.33 4.98 7.66 6 8 C4.69 11.94 3.08 14.23 0 17 C0.66 17 1.32 17 2 17 C2 17.66 2 18.32 2 19 C-2.97 19.91 -7.03 19.91 -12 19 C-8.25 17 -8.25 17 -6 17 C-5.67 15.68 -5.34 14.36 -5 13 C-3.68 13 -2.36 13 -1 13 C-0.67 8.71 -0.34 4.42 0 0 Z " fill="#989DA2" transform="translate(37,18)"/>
<path d="M0 0 C2.25 0.25 2.25 0.25 4 1 C4 1.66 4 2.32 4 3 C4.66 3 5.32 3 6 3 C6.12 3.58 6.25 4.16 6.38 4.75 C7.01 7.03 7.92 8.91 9 11 C7.56 11.05 6.13 11.09 4.69 11.12 C3.89 11.15 3.09 11.17 2.26 11.2 C0 11 0 11 -3 9 C-3 8.34 -3 7.68 -3 7 C-3.66 7 -4.32 7 -5 7 C-3.87 3.61 -2.77 2.22 0 0 Z " fill="#ADAFA7" transform="translate(42,28)"/>
<path d="M0 0 C1.98 0 3.96 0 6 0 C6 0.66 6 1.32 6 2 C6.56 1.65 7.11 1.3 7.69 0.94 C10.56 -0.23 12.07 0.13 15 1 C16 2 16 2 16.06 4.56 C16.04 5.37 16.02 6.17 16 7 C15.01 7 14.02 7 13 7 C12.67 6.01 12.34 5.02 12 4 C11.01 4.33 10.02 4.66 9 5 C6.67 5.04 4.33 5.04 2 5 C1.34 3.35 0.68 1.7 0 0 Z " fill="#96A3B6" transform="translate(25,39)"/>
</svg>
