<?xml version="1.0" encoding="UTF-8"?>
<!-- Generator: visioncortex VTracer 0.6.12 -->
<svg version="1.1" xmlns="http://www.w3.org/2000/svg" width="260" height="101">
<path d="M0 0 C2.06 0.44 2.06 0.44 5.12 0.38 C8.06 0.44 8.06 0.44 11.06 2.44 C12.23 5.04 12.23 5.04 13.25 8.06 C13.59 9.07 13.94 10.07 14.29 11.1 C14.55 11.87 14.8 12.64 15.06 13.44 C16.06 12.44 16.06 12.44 16.12 9.88 C16.1 9.07 16.08 8.27 16.06 7.44 C19.38 9.65 19.6 10.24 20.69 13.88 C20.93 14.66 21.17 15.44 21.41 16.25 C21.63 16.97 21.84 17.69 22.06 18.44 C22.23 18.93 22.23 18.93 23.06 21.44 C22.06 24.07 21.61 25.16 19.06 26.44 C19.25 27.18 19.43 27.92 19.62 28.69 C20.05 31.39 19.91 32.88 19.06 35.44 C19.72 35.6 19.72 35.6 23.06 36.44 C23.72 35.12 24.38 33.8 25.06 32.44 C30.69 32.19 30.69 32.19 34.06 34.44 C34.47 34.5 34.47 34.5 36.56 34.81 C39.06 35.44 39.06 35.44 40.88 37.12 C42.37 40.03 42.21 42.21 42.06 45.44 C42.39 45.77 42.72 46.1 43.06 46.44 C43.36 50.16 43.21 51.22 41.06 54.44 C42.71 54.77 44.36 55.1 46.06 55.44 C46.06 54.78 46.06 54.12 46.06 53.44 C47.05 53.44 48.04 53.44 49.06 53.44 C51.25 56.44 51.25 56.44 53.06 59.44 C53.62 59.11 54.18 58.78 54.75 58.44 C57.37 57.31 59.24 57.28 62.06 57.44 C61.71 56.86 61.36 56.28 61 55.69 C59.87 52.98 60.08 52.15 61.06 49.44 C61.33 48.59 61.6 47.75 61.88 46.88 C63.27 44.02 64.25 42.92 67.06 41.44 C70.31 41.25 70.31 41.25 73.06 41.44 C73.06 40.78 73.06 40.12 73.06 39.44 C79.59 39.93 79.59 39.93 82 42.5 C82.35 43.14 82.7 43.78 83.06 44.44 C84.05 43.45 85.04 42.46 86.06 41.44 C85.71 40.86 85.36 40.28 85 39.69 C84.06 37.44 84.06 37.44 84.25 35.38 C85.19 33.14 86.18 31.95 88.06 30.44 C88.72 30.44 89.38 30.44 90.06 30.44 C89.73 28.79 89.4 27.14 89.06 25.44 C93.45 21.95 96.52 20.96 102.11 20.71 C104.06 20.44 104.06 20.44 106.06 18.44 C110.78 18.13 114.92 17.88 119.06 20.44 C120.44 22.88 120.44 22.88 121.06 25.44 C120.73 26.43 120.4 27.42 120.06 28.44 C121.01 28.38 121.96 28.31 122.94 28.25 C123.97 28.31 125 28.37 126.06 28.44 C127.8 31.04 128.51 32.51 129.25 35.44 C129.43 36.12 129.61 36.8 129.79 37.5 C130.06 39.44 130.06 39.44 129.06 42.44 C130.05 42.44 131.04 42.44 132.06 42.44 C132.06 41.78 132.06 41.12 132.06 40.44 C133.71 41.1 135.36 41.76 137.06 42.44 C136.88 45.75 136.88 45.75 136.06 49.44 C133.5 51.37 133.5 51.37 131.06 52.44 C132.06 55.44 132.06 55.44 134.06 57.44 C133.73 57.6 133.73 57.6 132.06 58.44 C131.07 58.11 130.08 57.78 129.06 57.44 C129.39 58.76 129.72 60.08 130.06 61.44 C134.34 62.6 137.72 62.08 142.06 61.44 C143.05 61.77 144.04 62.1 145.06 62.44 C145.06 61.78 145.06 61.12 145.06 60.44 C146.05 60.77 147.04 61.1 148.06 61.44 C147.73 62.1 147.73 62.1 146.06 65.44 C145.4 65.44 144.74 65.44 144.06 65.44 C143.73 66.1 143.4 66.76 143.06 67.44 C141.74 66.45 140.42 65.46 139.06 64.44 C139.06 65.43 139.06 66.42 139.06 67.44 C138.07 67.77 138.07 67.77 133.06 69.44 C133.06 68.78 133.06 68.12 133.06 67.44 C125.56 67.19 125.56 67.19 123.06 68.44 C119.78 70.08 116.7 69.61 113.06 69.44 C112.4 69.11 111.74 68.78 111.06 68.44 C110.73 69.43 110.4 70.42 110.06 71.44 C105.75 72.8 101.61 73.97 97.06 73.44 C96.4 72.78 95.74 72.12 95.06 71.44 C93.75 70.74 92.41 70.07 91.06 69.44 C92.05 69.27 92.05 69.27 97.06 68.44 C97.06 67.78 97.06 67.12 97.06 66.44 C96.07 66.77 95.08 67.1 94.06 67.44 C92.4 67.44 90.73 67.44 89.06 67.44 C89.06 66.45 89.06 65.46 89.06 64.44 C88.88 64.66 88.88 64.66 87.94 65.81 C83.94 69.28 79.32 69.76 74.15 69.64 C70.68 69.3 67.43 68.35 64.06 67.44 C63.07 67.44 62.08 67.44 61.06 67.44 C60.24 67.42 59.41 67.4 58.56 67.38 C56.06 67.44 56.06 67.44 53.06 68.44 C52.07 68.77 51.08 69.1 50.06 69.44 C49.61 69.91 49.16 70.39 48.69 70.88 C46.61 72.87 44.81 73.63 42.06 74.44 C39.81 74.25 39.81 74.25 38.06 73.44 C37.73 72.45 37.4 71.46 37.06 70.44 C36.4 70.11 35.74 69.78 35.06 69.44 C34.9 69.93 34.9 69.93 34.06 72.44 C30.1 71.45 26.14 70.46 22.06 69.44 C22.06 68.78 22.06 68.12 22.06 67.44 C20.58 67.75 19.1 68.06 17.62 68.38 C17.21 68.46 17.21 68.46 15.13 68.9 C13.06 69.44 13.06 69.44 12.06 70.44 C12.72 70.6 12.72 70.6 16.06 71.44 C16.06 72.1 16.06 72.76 16.06 73.44 C16.72 73.77 16.72 73.77 20.06 75.44 C20.06 76.1 20.06 76.76 20.06 77.44 C18.25 78.5 18.25 78.5 16.06 79.44 C15.57 79.27 15.57 79.27 13.06 78.44 C12.73 79.1 12.4 79.76 12.06 80.44 C11.53 80.07 10.99 79.69 10.44 79.31 C8.06 78.44 8.06 78.44 5.06 79.5 C4.07 79.81 3.08 80.12 2.06 80.44 C0.7 79.48 -0.64 78.48 -1.94 77.44 C-4.31 77.75 -4.31 77.75 -6.94 78.44 C-12.5 78.66 -12.5 78.66 -14.94 77.44 C-14.94 76.78 -14.94 76.12 -14.94 75.44 C-14.28 75.44 -13.62 75.44 -12.94 75.44 C-13.6 74.78 -14.26 74.12 -14.94 73.44 C-17.76 73.68 -17.76 73.68 -21.06 74.31 C-21.61 74.41 -21.61 74.41 -24.38 74.93 C-25.23 75.1 -26.07 75.26 -26.94 75.44 C-27.21 74.8 -27.47 74.16 -27.75 73.5 C-28.94 71.44 -28.94 71.44 -31.94 70.44 C-33.61 70.76 -35.27 71.1 -36.94 71.44 C-37.27 71.27 -37.27 71.27 -38.94 70.44 C-39.1 70.93 -39.1 70.93 -39.94 73.44 C-49.78 75.87 -49.78 75.87 -54.62 74.06 C-55.39 73.53 -56.15 72.99 -56.94 72.44 C-56.94 71.78 -56.94 71.12 -56.94 70.44 C-55.62 70.44 -54.3 70.44 -52.94 70.44 C-53.62 68.5 -53.62 68.5 -54.94 66.44 C-57.5 65.62 -57.5 65.62 -59.94 65.44 C-60.27 65.77 -60.6 66.1 -60.94 66.44 C-62.39 66.51 -63.85 66.52 -65.31 66.5 C-66.1 66.49 -66.9 66.48 -67.71 66.47 C-68.08 66.47 -68.08 66.47 -69.94 66.44 C-70.93 66.44 -71.92 66.44 -72.94 66.44 C-74.26 66.44 -75.58 66.44 -76.94 66.44 C-76.94 67.43 -76.94 68.42 -76.94 69.44 C-78.59 69.11 -80.24 68.78 -81.94 68.44 C-81.94 67.45 -81.94 66.46 -81.94 65.44 C-83.26 65.11 -84.58 64.78 -85.94 64.44 C-85.94 63.45 -85.94 62.46 -85.94 61.44 C-84.27 60.43 -82.61 59.43 -80.94 58.44 C-79.62 56.25 -79.62 56.25 -78.94 54.44 C-80.59 54.11 -82.24 53.78 -83.94 53.44 C-85.06 50.62 -85.06 50.62 -85.94 47.44 C-85.28 46.45 -84.62 45.46 -83.94 44.44 C-84.1 43.94 -84.1 43.94 -84.94 41.44 C-84.28 40.45 -83.62 39.46 -82.94 38.44 C-81.95 38.44 -80.96 38.44 -79.94 38.44 C-79.61 37.45 -79.28 36.46 -78.94 35.44 C-77.29 35.44 -75.64 35.44 -73.94 35.44 C-73.94 34.78 -73.94 34.12 -73.94 33.44 C-72.29 33.44 -70.64 33.44 -68.94 33.44 C-68.61 34.43 -68.28 35.42 -67.94 36.44 C-66.78 36.6 -66.78 36.6 -60.94 37.44 C-60.94 36.78 -60.94 36.12 -60.94 35.44 C-60.61 35.27 -60.61 35.27 -58.94 34.44 C-59.93 33.78 -60.92 33.12 -61.94 32.44 C-62.88 30.56 -62.88 30.56 -62.94 28.44 C-61.12 26.19 -61.12 26.19 -58.94 24.44 C-58.28 24.44 -57.62 24.44 -56.94 24.44 C-57.19 23.7 -57.43 22.95 -57.69 22.19 C-57.94 19.44 -57.94 19.44 -56.31 17.25 C-53.9 15.41 -51.76 14.48 -48.94 13.44 C-48.28 12.78 -47.62 12.12 -46.94 11.44 C-44.19 11.54 -44.19 11.54 -40.94 12.06 C-39.87 12.22 -38.79 12.38 -37.69 12.54 C-34.94 13.44 -34.94 13.44 -33.75 15.46 C-33.48 16.11 -33.21 16.77 -32.94 17.44 C-31.95 17.77 -30.96 18.1 -29.94 18.44 C-29.77 18.77 -29.77 18.77 -28.94 20.44 C-27.95 20.44 -26.96 20.44 -25.94 20.44 C-25.83 19.55 -25.73 18.66 -25.62 17.75 C-24.93 14.38 -23.85 12.26 -21.94 9.44 C-20.29 9.77 -18.64 10.1 -16.94 10.44 C-16.86 9.53 -16.77 8.62 -16.69 7.69 C-15.82 3.94 -14.94 2.77 -11.94 0.44 C-7.44 -1.99 -4.73 -1.37 0 0 Z M125.06 53.44 C125.06 54.76 125.06 56.08 125.06 57.44 C126.38 56.78 127.7 56.12 129.06 55.44 C127.74 54.78 126.42 54.12 125.06 53.44 Z " fill="#D5E0EC" transform="translate(102.9375,11.5625)"/>
<path d="M0 0 C-1 2 -2 4 -3 6 C-2.34 6 -1.68 6 -1 6 C-0.67 5.01 -0.34 4.02 0 3 C0.99 3 1.98 3 3 3 C2.34 5.31 1.68 7.62 1 10 C2 11 2 11 4.56 11.06 C5.37 11.04 6.17 11.02 7 11 C7.66 12.65 8.32 14.3 9 16 C10.98 15.34 12.96 14.68 15 14 C15.04 12.93 15.08 11.86 15.12 10.75 C16 7 16 7 19 4.62 C19.99 4.09 20.98 3.55 22 3 C22.33 2.67 22.66 2.34 23 2 C28.53 1.76 28.53 1.76 31 3 C31 2.34 31 1.68 31 1 C31.66 1 32.32 1 33 1 C33 2.98 33 4.96 33 7 C34.65 7.33 36.3 7.66 38 8 C38.16 8.66 38.16 8.66 39 12 C40.65 12 42.3 12 44 12 C44 13.32 44 14.64 44 16 C43.34 16.33 42.68 16.66 42 17 C42.02 17.95 42.04 18.9 42.06 19.88 C42 23 42 23 41 25 C41.99 24.67 42.98 24.34 44 24 C44.33 23.34 44.66 22.68 45 22 C46.65 22.33 48.3 22.66 50 23 C50 22.34 50 21.68 50 21 C51.32 21 52.64 21 54 21 C54.33 21.83 54.33 21.83 56 26 C57.65 25.67 59.3 25.34 61 25 C63.7 27.87 64.95 29.31 65.25 33.31 C65.17 34.2 65.08 35.09 65 36 C61.66 35.44 58.97 34.65 56 33 C56 33.66 56 34.32 56 35 C53.36 35.33 50.72 35.66 48 36 C47.88 36.45 47.88 36.45 47.25 38.75 C45.94 42.15 44.61 43.56 42 46 C41.67 46.99 41.34 47.98 41 49 C38.36 49 35.72 49 33 49 C33 49.66 33 50.32 33 51 C29.7 51.66 26.4 52.32 23 53 C22.34 51.68 21.68 50.36 21 49 C17.67 47.89 16.34 48.31 13 49 C12.67 48.84 12.67 48.84 11 48 C10.67 48.99 10.34 49.98 10 51 C0.16 53.43 0.16 53.43 -4.69 51.62 C-5.45 51.09 -6.21 50.55 -7 50 C-7 49.34 -7 48.68 -7 48 C-5.68 48 -4.36 48 -3 48 C-3.69 46.06 -3.69 46.06 -5 44 C-7.56 43.19 -7.56 43.19 -10 43 C-10.33 43.33 -10.66 43.66 -11 44 C-12.46 44.07 -13.92 44.08 -15.38 44.06 C-15.77 44.06 -15.77 44.06 -17.77 44.04 C-18.51 44.02 -19.24 44.01 -20 44 C-20.99 44 -21.98 44 -23 44 C-24.32 44 -25.64 44 -27 44 C-27 44.99 -27 45.98 -27 47 C-28.65 46.67 -30.3 46.34 -32 46 C-32 45.01 -32 44.02 -32 43 C-33.32 42.67 -34.64 42.34 -36 42 C-36 41.01 -36 40.02 -36 39 C-34.34 37.99 -32.67 36.99 -31 36 C-29.69 33.81 -29.69 33.81 -29 32 C-30.65 31.67 -32.3 31.34 -34 31 C-35.12 28.19 -35.12 28.19 -36 25 C-35.67 24.51 -35.67 24.51 -34 22 C-34.33 21.01 -34.66 20.02 -35 19 C-34.34 18.01 -33.68 17.02 -33 16 C-32.01 16 -31.02 16 -30 16 C-29.67 15.01 -29.34 14.02 -29 13 C-27.35 13 -25.7 13 -24 13 C-24 12.34 -24 11.68 -24 11 C-22.35 11 -20.7 11 -19 11 C-18.67 11.99 -18.34 12.98 -18 14 C-17.37 14.01 -17.37 14.01 -14.19 14.06 C-13.48 14.07 -12.77 14.09 -12.04 14.1 C-10 14 -10 14 -7 13 C-7.33 12.01 -7.66 11.02 -8 10 C-7.72 7.2 -7.06 4.6 -6 2 C-3.79 0.34 -2.73 0 0 0 Z " fill="#B1C8E2" transform="translate(53,34)"/>
<path d="M0 0 C2.06 0.44 2.06 0.44 5.12 0.38 C8.06 0.44 8.06 0.44 11.06 2.44 C13.6 7.13 14.17 9.97 13.9 15.37 C14.19 19.14 16.16 22.24 18.06 25.44 C17.44 25.54 16.82 25.65 16.18 25.76 C14.06 26.44 14.06 26.44 12.25 29.31 C9.58 33.13 7.39 33.89 3.06 35.44 C1.72 36.09 0.39 36.75 -0.94 37.44 C-0.94 38.1 -0.94 38.76 -0.94 39.44 C-1.6 39.44 -2.26 39.44 -2.94 39.44 C-3.27 40.43 -3.6 41.42 -3.94 42.44 C-3.94 41.45 -3.94 40.46 -3.94 39.44 C-4.6 39.44 -5.26 39.44 -5.94 39.44 C-6.27 40.76 -6.6 42.08 -6.94 43.44 C-7.27 43.27 -7.27 43.27 -8.94 42.44 C-8.56 40.5 -8.56 40.5 -7.94 38.44 C-7.28 38.11 -6.62 37.78 -5.94 37.44 C-5.94 36.78 -5.94 36.12 -5.94 35.44 C-7.59 35.11 -9.24 34.78 -10.94 34.44 C-11.1 33.78 -11.1 33.78 -11.94 30.44 C-13.59 30.44 -15.24 30.44 -16.94 30.44 C-18.06 25.69 -18.06 25.69 -16.94 23.44 C-17.6 23.44 -18.26 23.44 -18.94 23.44 C-18.94 24.1 -18.94 24.76 -18.94 25.44 C-19.57 25.41 -19.57 25.41 -22.75 25.25 C-26.68 25.24 -26.68 25.24 -28.75 26.88 C-29.14 27.39 -29.53 27.91 -29.94 28.44 C-30.93 28.77 -31.92 29.1 -32.94 29.44 C-33.02 30.55 -33.1 31.66 -33.19 32.81 C-33.94 36.44 -33.94 36.44 -35.81 37.88 C-37.94 38.44 -37.94 38.44 -40.94 38.44 C-41.6 37.12 -42.26 35.8 -42.94 34.44 C-44.92 34.44 -46.9 34.44 -48.94 34.44 C-49.62 32.75 -49.62 32.75 -49.94 30.44 C-48.5 27.69 -48.5 27.69 -46.94 25.44 C-49.94 26.44 -49.94 26.44 -50.94 28.44 C-51.6 28.44 -52.26 28.44 -52.94 28.44 C-51.94 26.44 -50.94 24.44 -49.94 22.44 C-50.93 23.1 -51.92 23.76 -52.94 24.44 C-53.93 24.44 -54.92 24.44 -55.94 24.44 C-56.13 25.87 -56.32 27.31 -56.5 28.75 C-56.6 29.55 -56.71 30.35 -56.82 31.18 C-56.94 33.44 -56.94 33.44 -55.94 36.44 C-56.76 36.6 -56.76 36.6 -60.94 37.44 C-60.94 36.78 -60.94 36.12 -60.94 35.44 C-60.61 35.27 -60.61 35.27 -58.94 34.44 C-59.93 33.78 -60.92 33.12 -61.94 32.44 C-62.88 30.56 -62.88 30.56 -62.94 28.44 C-61.12 26.19 -61.12 26.19 -58.94 24.44 C-58.28 24.44 -57.62 24.44 -56.94 24.44 C-57.06 24.07 -57.06 24.07 -57.69 22.19 C-57.94 19.44 -57.94 19.44 -56.31 17.25 C-53.9 15.41 -51.76 14.48 -48.94 13.44 C-48.28 12.78 -47.62 12.12 -46.94 11.44 C-44.19 11.54 -44.19 11.54 -40.94 12.06 C-39.86 12.22 -38.79 12.38 -37.69 12.54 C-34.94 13.44 -34.94 13.44 -33.75 15.46 C-33.48 16.11 -33.21 16.77 -32.94 17.44 C-31.95 17.77 -30.96 18.1 -29.94 18.44 C-29.77 18.77 -29.77 18.77 -28.94 20.44 C-27.95 20.44 -26.96 20.44 -25.94 20.44 C-25.83 19.55 -25.73 18.66 -25.62 17.75 C-24.93 14.38 -23.85 12.26 -21.94 9.44 C-21.11 9.6 -21.11 9.6 -16.94 10.44 C-16.85 9.53 -16.77 8.62 -16.69 7.69 C-15.82 3.94 -14.94 2.77 -11.94 0.44 C-7.44 -1.99 -4.73 -1.37 0 0 Z " fill="#D7E1EC" transform="translate(102.9375,11.5625)"/>
<path d="M0 0 C3.32 2.21 3.54 2.8 4.62 6.44 C4.86 7.22 5.1 8 5.35 8.81 C5.57 9.53 5.78 10.25 6 11 C6.16 11.5 6.16 11.5 7 14 C6 16.63 5.55 17.72 3 19 C3.19 19.74 3.37 20.48 3.56 21.25 C3.99 23.95 3.85 25.45 3 28 C3.64 28.25 4.28 28.5 4.94 28.75 C7 30 7 30 7.69 31.81 C7.74 32.17 7.74 32.17 8 34 C8.19 34.91 8.37 35.81 8.56 36.75 C8.71 37.49 8.85 38.23 9 39 C9.82 38.84 9.82 38.84 14 38 C13.67 39.32 13.34 40.64 13 42 C11.35 42 9.7 42 8 42 C7.86 42.58 7.71 43.16 7.56 43.75 C7.2 45.21 6.82 46.67 6.44 48.12 C6 50 6 50 6 52 C6.37 52.14 6.37 52.14 8.25 52.88 C9.16 53.25 10.06 53.62 11 54 C11.72 54.29 12.44 54.58 13.19 54.88 C15.44 56.27 15.83 57.67 17 60 C19.12 61.25 19.12 61.25 21 62 C20.34 62 19.68 62 19 62 C18.67 62.99 18.34 63.98 18 65 C14.04 64.01 10.08 63.02 6 62 C6 61.34 6 60.68 6 60 C4.52 60.31 3.04 60.62 1.56 60.94 C0.74 61.11 -0.08 61.29 -0.93 61.46 C-3 62 -3 62 -4 63 C-2.68 63.33 -1.36 63.66 0 64 C0 64.66 0 65.32 0 66 C1.32 66.66 2.64 67.32 4 68 C4 68.66 4 69.32 4 70 C2.19 71.06 2.19 71.06 0 72 C-0.99 71.67 -1.98 71.34 -3 71 C-3.33 71.66 -3.66 72.32 -4 73 C-4.54 72.63 -5.07 72.26 -5.62 71.88 C-8 71 -8 71 -11 72.06 C-11.99 72.37 -12.98 72.68 -14 73 C-15.37 72.05 -16.7 71.05 -18 70 C-20.37 70.31 -20.37 70.31 -23 71 C-28.56 71.22 -28.56 71.22 -31 70 C-31 69.34 -31 68.68 -31 68 C-30.34 68 -29.68 68 -29 68 C-29.66 67.34 -30.32 66.68 -31 66 C-31.66 65.34 -32.32 64.68 -33 64 C-30.36 64 -27.72 64 -25 64 C-24.67 62.68 -24.34 61.36 -24 60 C-23.34 60 -22.68 60 -22 60 C-20.12 56.73 -19.51 53.72 -19 50 C-16.03 50 -13.06 50 -10 50 C-10 49.34 -10 48.68 -10 48 C-7.03 48.99 -4.06 49.98 -1 51 C-2 47.21 -2.81 44.28 -5 41 C-5.99 41.16 -5.99 41.16 -11 42 C-11.33 40.02 -11.66 38.04 -12 36 C-13.32 36 -14.64 36 -16 36 C-16 36.66 -16 37.32 -16 38 C-17.65 37.67 -19.3 37.34 -21 37 C-21.33 37.99 -21.66 38.98 -22 40 C-22.99 40 -23.98 40 -25 40 C-24.69 39.24 -24.38 38.47 -24.06 37.69 C-23.32 35.81 -22.64 33.91 -22 32 C-20.35 32 -18.7 32 -17 32 C-17 31.34 -17 30.68 -17 30 C-14.38 27.53 -12.42 26.12 -8.94 25.12 C-5.07 23.64 -4.13 21.46 -2 18 C-1.01 17.67 -0.02 17.34 1 17 C0.3 15.93 -0.4 14.86 -1.12 13.75 C-2.24 11.82 -2.24 11.82 -3 10 C-2.33 7.67 -1.68 6.68 0 5 C0.04 3.33 0.04 1.67 0 0 Z " fill="#E3E8EF" transform="translate(119,19)"/>
<path d="M0 0 C4.1 0.6 8.03 1.83 12 3 C12.16 3.99 12.16 3.99 13 9 C12.34 9 11.68 9 11 9 C11 10.32 11 11.64 11 13 C9.02 13.33 7.04 13.66 5 14 C5 15.98 5 17.96 5 20 C5.66 20 6.32 20 7 20 C6.69 20.58 6.38 21.16 6.06 21.75 C5 24 5 24 4.56 26.19 C4.47 26.49 4.47 26.49 4 28 C3.01 28.33 2.02 28.66 1 29 C0.67 29.99 0.34 30.98 0 32 C3.63 31.67 7.26 31.34 11 31 C12 35 12 35 11 37 C12.32 37 13.64 37 15 37 C15 37.66 15 38.32 15 39 C14.34 39 13.68 39 13 39 C12.67 40.32 12.34 41.64 12 43 C13.98 43 15.96 43 18 43 C18.33 43.99 18.66 44.98 19 46 C16.36 46.33 13.72 46.66 11 47 C11 46.34 11 45.68 11 45 C7.04 45.66 3.08 46.32 -1 47 C-1 46.34 -1 45.68 -1 45 C-1.78 44.69 -2.57 44.38 -3.38 44.06 C-6 43 -6 43 -8 42 C-8 41.34 -8 40.68 -8 40 C-12.88 41.75 -12.88 41.75 -14 44 C-18.45 44.39 -21.14 43.15 -25 41 C-25 40.01 -25 39.02 -25 38 C-26.32 37.67 -27.64 37.34 -29 37 C-29.33 35.02 -29.66 33.04 -30 31 C-27.69 30.31 -27.69 30.31 -25 30 C-23.44 31.44 -23.44 31.44 -22 33 C-20.68 33 -19.36 33 -18 33 C-17.67 31.68 -17.34 30.36 -17 29 C-17.99 29.33 -18.98 29.66 -20 30 C-20 29.34 -20 28.68 -20 28 C-20.66 28 -21.32 28 -22 28 C-21.62 25.56 -21.62 25.56 -21 23 C-20.34 22.67 -19.68 22.34 -19 22 C-19.35 21.42 -19.7 20.84 -20.06 20.25 C-21 18 -21 18 -20.81 15.94 C-19.88 13.7 -18.89 12.51 -17 11 C-16.34 11 -15.68 11 -15 11 C-15.33 9.35 -15.66 7.7 -16 6 C-11.6 2.5 -8.46 1.5 -2.86 1.18 C-1 1 -1 1 0 0 Z " fill="#D2DDEB" transform="translate(208,31)"/>
<path d="M0 0 C9.25 -0.31 9.25 -0.31 13 2 C14.38 4.44 14.38 4.44 15 7 C14.67 7.99 14.34 8.98 14 10 C14.47 9.97 14.47 9.97 16.88 9.81 C17.91 9.87 18.94 9.94 20 10 C21.74 12.61 22.45 14.07 23.19 17 C23.37 17.68 23.55 18.36 23.73 19.06 C24 21 24 21 23 24 C23.99 24 24.98 24 26 24 C26 23.34 26 22.68 26 22 C26.82 22.33 26.82 22.33 31 24 C30.81 27.31 30.81 27.31 30 31 C27.44 32.94 27.44 32.94 25 34 C26 37 26 37 28 39 C27.67 39.16 27.67 39.16 26 40 C25.5 39.84 25.5 39.84 23 39 C23.33 40.32 23.66 41.64 24 43 C28.28 44.17 31.65 43.64 36 43 C36.99 43.33 37.98 43.66 39 44 C39 43.34 39 42.68 39 42 C39.99 42.33 40.98 42.66 42 43 C41.34 44.32 40.68 45.64 40 47 C39.34 47 38.68 47 38 47 C37.84 47.33 37.84 47.33 37 49 C35.68 48.01 34.36 47.02 33 46 C33 46.99 33 47.98 33 49 C31.02 49.66 29.04 50.32 27 51 C27 50.34 27 49.68 27 49 C19.5 48.75 19.5 48.75 17 50 C13.72 51.64 10.64 51.18 7 51 C6.34 50.67 5.68 50.34 5 50 C4.67 50.99 4.34 51.98 4 53 C2.84 53.16 2.84 53.16 -3 54 C-3 53.34 -3 52.68 -3 52 C-1.35 52 0.3 52 2 52 C2.33 50.68 2.66 49.36 3 48 C3.52 48.09 3.52 48.09 6.12 48.56 C9.78 48.98 12.43 48.75 16 48 C16.66 48 17.32 48 18 48 C17.67 46.68 17.34 45.36 17 44 C15.02 44 13.04 44 11 44 C11.33 42.68 11.66 41.36 12 40 C12.66 40 13.32 40 14 40 C14 39.34 14 38.68 14 38 C12.68 38 11.36 38 10 38 C10 36.02 10 34.04 10 32 C8.19 32.16 8.19 32.16 -1 33 C-0.67 31.68 -0.34 30.36 0 29 C0.99 29 1.98 29 3 29 C3.12 28.24 3.25 27.47 3.38 26.69 C4 24 4 24 6 21 C5.34 21 4.68 21 4 21 C3.31 19.19 3.31 19.19 3 17 C4.19 15.25 4.19 15.25 6 14 C7.32 14 8.64 14 10 14 C10 12.68 10 11.36 10 10 C10.66 10 11.32 10 12 10 C11.67 8.02 11.34 6.04 11 4 C9.93 3.9 8.85 3.79 7.75 3.69 C4.14 3.03 2.64 2.43 0 0 Z M19 35 C19 36.32 19 37.64 19 39 C20.32 38.34 21.64 37.68 23 37 C21.68 36.34 20.36 35.68 19 35 Z " fill="#EBEEF2" transform="translate(209,30)"/>
<path d="M0 0 C1.65 0 3.3 0 5 0 C5.33 0.99 5.66 1.98 6 3 C8.31 3.33 10.62 3.66 13 4 C12.67 4.49 12.67 4.49 11 7 C10.01 7 9.02 7 8 7 C7.34 8.65 6.68 10.3 6 12 C4.35 12 2.7 12 1 12 C1 12.66 1 13.32 1 14 C2.32 13.67 3.64 13.34 5 13 C4.67 14.32 4.34 15.64 4 17 C4.66 17 5.32 17 6 17 C10 22.41 10 22.41 10 25 C11.32 25.33 12.64 25.66 14 26 C14 26.99 14 27.98 14 29 C14.62 28.5 15.24 28.01 15.88 27.5 C18 26 18 26 20 26 C19.67 27.65 19.34 29.3 19 31 C20.65 30.67 22.3 30.34 24 30 C24 30.66 24 31.32 24 32 C24.66 32 25.32 32 26 32 C26 32.66 26 33.32 26 34 C26.66 34 27.32 34 28 34 C28 34.66 28 35.32 28 36 C27.34 36 26.68 36 26 36 C26 36.66 26 37.32 26 38 C28.31 37.67 30.62 37.34 33 37 C33 36.34 33 35.68 33 35 C32.34 35 31.68 35 31 35 C29.38 33.88 29.38 33.88 28 32 C27.81 28.81 27.81 28.81 28 26 C29.32 26 30.64 26 32 26 C32 27.65 32 29.3 32 31 C32.66 31 33.32 31 34 31 C34.16 31.66 34.16 31.66 35 35 C35.68 34.77 36.36 34.55 37.06 34.31 C41.05 33.89 43.44 35.28 47 37 C50.33 38.11 53.53 38.54 57 39 C53.99 42.01 51.18 41.6 47 42 C46.73 41.36 46.46 40.72 46.19 40.06 C45 38 45 38 42 37 C40.33 37.33 38.67 37.66 37 38 C36.67 37.84 36.67 37.84 35 37 C34.67 37.99 34.34 38.98 34 40 C24.16 42.43 24.16 42.43 19.31 40.62 C18.55 40.09 17.79 39.55 17 39 C17 38.34 17 37.68 17 37 C18.32 37 19.64 37 21 37 C20.31 35.06 20.31 35.06 19 33 C16.44 32.19 16.44 32.19 14 32 C13.67 32.33 13.34 32.66 13 33 C11.54 33.07 10.08 33.08 8.62 33.06 C8.23 33.06 8.23 33.06 6.23 33.04 C5.49 33.02 4.76 33.01 4 33 C3.01 33 2.02 33 1 33 C-0.32 33 -1.64 33 -3 33 C-3 33.99 -3 34.98 -3 36 C-4.65 35.67 -6.3 35.34 -8 35 C-8 34.01 -8 33.02 -8 32 C-9.32 31.67 -10.64 31.34 -12 31 C-12 30.01 -12 29.02 -12 28 C-10.34 26.99 -8.67 25.99 -7 25 C-5.69 22.81 -5.69 22.81 -5 21 C-6.65 20.67 -8.3 20.34 -10 20 C-11.12 17.19 -11.12 17.19 -12 14 C-11.34 13.01 -10.68 12.02 -10 11 C-10.33 10.01 -10.66 9.02 -11 8 C-10.34 7.01 -9.68 6.02 -9 5 C-8.01 5 -7.02 5 -6 5 C-5.67 4.01 -5.34 3.02 -5 2 C-3.35 2 -1.7 2 0 2 C0 1.34 0 0.68 0 0 Z " fill="#E3E9F1" transform="translate(29,45)"/>
<path d="M0 0 C0.66 0 1.32 0 2 0 C2 1.98 2 3.96 2 6 C2.83 6.16 2.83 6.16 7 7 C7.33 8.32 7.66 9.64 8 11 C9.65 11 11.3 11 13 11 C13 12.32 13 13.64 13 15 C12.67 15.16 12.67 15.16 11 16 C11.02 16.95 11.04 17.9 11.06 18.88 C11 22 11 22 10 24 C10.99 23.67 11.98 23.34 13 23 C13.33 22.34 13.66 21.68 14 21 C14.66 21 15.32 21 16 21 C16 21.66 16 22.32 16 23 C17.32 23.33 18.64 23.66 20 24 C20 25.65 20 27.3 20 29 C18.68 29 17.36 29 16 29 C15.34 30.16 15.34 30.16 12 36 C10.84 35.84 10.84 35.84 5 35 C5.66 33.68 6.32 32.36 7 31 C6.07 30.86 5.14 30.71 4.19 30.56 C1 29 1 29 0.07 26.9 C-0.39 25.28 -0.8 23.64 -1.16 22 C-1.3 21.67 -1.3 21.67 -2 20 C-4.09 19.22 -4.09 19.22 -6 19 C-6 19.99 -6 20.98 -6 22 C-7.32 21.67 -8.64 21.34 -10 21 C-10.33 19.68 -10.66 18.36 -11 17 C-11.66 17 -12.32 17 -13 17 C-12.81 14.12 -12.81 14.12 -12 11 C-9.44 9.62 -9.44 9.62 -7 9 C-7 8.01 -7 7.02 -7 6 C-7.66 6 -8.32 6 -9 6 C-8.67 4.35 -8.34 2.7 -8 1 C-2.25 0.88 -2.25 0.88 0 2 C0 1.34 0 0.68 0 0 Z " fill="#98B7DB" transform="translate(84,35)"/>
<path d="M0 0 C2.97 0 5.94 0 9 0 C9.27 1.03 9.54 2.06 9.81 3.12 C10.81 6.65 12.27 9.77 14 13 C13.42 13.04 12.84 13.08 12.25 13.12 C10 14 10 14 8.19 16.88 C5.52 20.69 3.32 21.46 -1 23 C-2.34 23.65 -3.68 24.31 -5 25 C-5 25.66 -5 26.32 -5 27 C-5.66 27 -6.32 27 -7 27 C-7.33 27.99 -7.66 28.98 -8 30 C-8 29.01 -8 28.02 -8 27 C-8.66 27 -9.32 27 -10 27 C-10.33 28.32 -10.66 29.64 -11 31 C-11.66 30.67 -12.32 30.34 -13 30 C-12.62 28.06 -12.62 28.06 -12 26 C-11.34 25.67 -10.68 25.34 -10 25 C-10 24.34 -10 23.68 -10 23 C-11.65 22.67 -13.3 22.34 -15 22 C-15.33 20.68 -15.66 19.36 -16 18 C-17.65 18 -19.3 18 -21 18 C-22.12 13.25 -22.12 13.25 -21 11 C-21.66 11 -22.32 11 -23 11 C-23 11.66 -23 12.32 -23 13 C-25.31 12.67 -27.62 12.34 -30 12 C-29.2 11.26 -28.39 10.52 -27.56 9.75 C-25.23 7.25 -24.36 6.28 -24 3 C-22.02 2.67 -20.04 2.34 -18 2 C-16.85 11.41 -16.85 11.41 -17 16 C-16.64 15.36 -16.28 14.73 -15.91 14.07 C-13.26 11.2 -11.21 11.27 -7.38 10.88 C-5.24 10.64 -3.11 10.37 -1 10 C-0.67 9.34 -0.34 8.68 0 8 C-0.66 8 -1.32 8 -2 8 C-2 7.34 -2 6.68 -2 6 C-0.02 6.66 1.96 7.32 4 8 C4.33 7.34 4.66 6.68 5 6 C3.35 5.34 1.7 4.68 0 4 C0 2.68 0 1.36 0 0 Z " fill="#D4DEEA" transform="translate(107,24)"/>
<path d="M0 0 C1.79 0.14 3.58 0.29 5.38 0.44 C5.87 0.48 5.87 0.48 8.4 0.68 C11 1 11 1 13 2 C12.67 6.29 12.34 10.58 12 15 C12.66 15 13.32 15 14 15 C14.66 13.68 15.32 12.36 16 11 C17.32 11 18.64 11 20 11 C20 11.66 20 12.32 20 13 C18.68 13 17.36 13 16 13 C16 13.66 16 14.32 16 15 C16.3 15.05 16.3 15.05 17.81 15.31 C20.33 16.11 21.4 16.92 23 19 C23 19.99 23 20.98 23 22 C21.35 22.33 19.7 22.66 18 23 C18 23.66 18 24.32 18 25 C17.01 25 16.02 25 15 25 C15 24.34 15 23.68 15 23 C14.22 22.69 13.43 22.38 12.62 22.06 C10 21 10 21 8 20 C8 19.34 8 18.68 8 18 C3.12 19.75 3.12 19.75 2 22 C-2.45 22.39 -5.14 21.15 -9 19 C-9 18.01 -9 17.02 -9 16 C-10.32 15.67 -11.64 15.34 -13 15 C-13.33 13.02 -13.66 11.04 -14 9 C-11.69 8.31 -11.69 8.31 -9 8 C-7.44 9.44 -7.44 9.44 -6 11 C-4.68 11 -3.36 11 -2 11 C-1.67 9.68 -1.34 8.36 -1 7 C-1.99 7.33 -2.98 7.66 -4 8 C-4 7.34 -4 6.68 -4 6 C-4.66 6 -5.32 6 -6 6 C-6 5.34 -6 4.68 -6 4 C-5.34 4 -4.68 4 -4 4 C-4 3.34 -4 2.68 -4 2 C-2.68 2 -1.36 2 0 2 C0 1.34 0 0.68 0 0 Z " fill="#BACEE5" transform="translate(192,53)"/>
<path d="M0 0 C0.99 0.33 1.98 0.66 3 1 C3.16 1.99 3.16 1.99 4 7 C3.01 7 2.02 7 1 7 C1 7.66 1 8.32 1 9 C2.32 9.33 3.64 9.66 5 10 C4.38 10.16 3.76 10.33 3.12 10.5 C-0.28 12.9 -0.23 16 -1 20 C-0.34 20.33 0.32 20.66 1 21 C1 21.66 1 22.32 1 23 C3.97 23.33 6.94 23.66 10 24 C9.67 25.32 9.34 26.64 9 28 C10.98 28 12.96 28 15 28 C15.16 28.33 15.16 28.33 16 30 C10.46 30.32 7.44 30.47 3 27 C0.01 26.44 -2.97 26.19 -6 26 C-6.33 24.68 -6.66 23.36 -7 22 C-7.66 22 -8.32 22 -9 22 C-9.16 21.17 -9.16 21.17 -10 17 C-10.66 17 -11.32 17 -12 17 C-12.33 18.98 -12.66 20.96 -13 23 C-12.01 23.33 -11.02 23.66 -10 24 C-10 24.66 -10 25.32 -10 26 C-9.34 26 -8.68 26 -8 26 C-8 26.66 -8 27.32 -8 28 C-10.31 28.33 -12.62 28.66 -15 29 C-15 28.34 -15 27.68 -15 27 C-14.34 27 -13.68 27 -13 27 C-13 26.34 -13 25.68 -13 25 C-13.66 25 -14.32 25 -15 25 C-15 24.34 -15 23.68 -15 23 C-17.31 22.67 -19.62 22.34 -22 22 C-21.67 20.35 -21.34 18.7 -21 17 C-21.62 17.5 -22.24 17.99 -22.88 18.5 C-25 20 -25 20 -27 20 C-27 19.01 -27 18.02 -27 17 C-27.66 16.67 -28.32 16.34 -29 16 C-29 15.01 -29 14.02 -29 13 C-21.25 12.88 -21.25 12.88 -19 14 C-19 14.99 -19 15.98 -19 17 C-18.28 16.32 -17.56 15.64 -16.81 14.94 C-14 13 -14 13 -11.19 13.25 C-10.47 13.5 -9.74 13.75 -9 14 C-9.81 12.06 -9.81 12.06 -11 10 C-11.99 9.67 -12.98 9.34 -14 9 C-14.19 6.62 -14.19 6.62 -14 4 C-13.01 3.34 -12.02 2.68 -11 2 C-10.34 3.65 -9.68 5.3 -9 7 C-8.67 6.34 -8.34 5.68 -8 5 C-7.34 5 -6.68 5 -6 5 C-6 4.34 -6 3.68 -6 3 C-4.02 2.67 -2.04 2.34 0 2 C0 1.34 0 0.68 0 0 Z " fill="#C8D8E9" transform="translate(70,54)"/>
<path d="M0 0 C1.65 0 3.3 0 5 0 C5.33 0.99 5.66 1.98 6 3 C8.31 3.33 10.62 3.66 13 4 C12.67 4.49 12.67 4.49 11 7 C10.01 7 9.02 7 8 7 C7.34 8.65 6.68 10.3 6 12 C4.35 12 2.7 12 1 12 C1 12.66 1 13.32 1 14 C2.32 13.67 3.64 13.34 5 13 C4.67 14.32 4.34 15.64 4 17 C4.66 17 5.32 17 6 17 C7.32 19.31 8.64 21.62 10 24 C6.48 24.08 3.38 24.04 0 23 C-0.99 25.31 -1.98 27.62 -3 30 C-3.99 30 -4.98 30 -6 30 C-6 28.68 -6 27.36 -6 26 C-5.34 25.67 -4.68 25.34 -4 25 C-4.33 23.68 -4.66 22.36 -5 21 C-6.65 20.67 -8.3 20.34 -10 20 C-11.12 17.19 -11.12 17.19 -12 14 C-11.34 13.01 -10.68 12.02 -10 11 C-10.33 10.01 -10.66 9.02 -11 8 C-10.34 7.01 -9.68 6.02 -9 5 C-8.01 5 -7.02 5 -6 5 C-5.67 4.01 -5.34 3.02 -5 2 C-3.35 2 -1.7 2 0 2 C0 1.34 0 0.68 0 0 Z " fill="#CEDBEA" transform="translate(29,45)"/>
<path d="M0 0 C1.32 0 2.64 0 4 0 C4.66 1.65 5.32 3.3 6 5 C7.65 4.67 9.3 4.34 11 4 C13.7 6.87 14.95 8.31 15.25 12.31 C15.17 13.2 15.09 14.09 15 15 C11.66 14.44 8.97 13.65 6 12 C6 12.66 6 13.32 6 14 C3.36 14.33 0.72 14.66 -2 15 C-2.25 15.91 -2.5 16.81 -2.75 17.75 C-4.06 21.15 -5.39 22.56 -8 25 C-8.33 25.99 -8.66 26.98 -9 28 C-11.31 28 -13.62 28 -16 28 C-15.67 27.34 -15.34 26.68 -15 26 C-14.34 26 -13.68 26 -13 26 C-13.33 25.34 -13.66 24.68 -14 24 C-15.65 24.33 -17.3 24.66 -19 25 C-20 21.89 -19.94 20.1 -19 17 C-18.88 16.13 -18.75 15.27 -18.62 14.38 C-18 12 -18 12 -15 10 C-12.31 9.88 -12.31 9.88 -10 10 C-11.32 11.65 -12.64 13.3 -14 15 C-13.4 14.81 -12.8 14.63 -12.19 14.44 C-10 14 -10 14 -7 15 C-5.68 12.69 -4.36 10.38 -3 8 C-1.68 8.33 -0.36 8.66 1 9 C1 7.35 1 5.7 1 4 C-0.32 3.34 -1.64 2.68 -3 2 C-2.01 2 -1.02 2 0 2 C0 1.34 0 0.68 0 0 Z " fill="#C9D7E7" transform="translate(103,55)"/>
<path d="M0 0 C2 0.12 2 0.12 4 1 C5.72 3.82 6.35 6.3 6.69 9.56 C6.77 10.33 6.86 11.09 6.95 11.88 C7 14 7 14 6 17 C6.99 17 7.98 17 9 17 C9 17.66 9 18.32 9 19 C10.65 18.34 12.3 17.68 14 17 C13.65 22.38 13.65 22.38 13 25 C10.48 27.02 9.25 27 6 27 C5.34 25.68 4.68 24.36 4 23 C2.02 23 0.04 23 -2 23 C-2.69 21.31 -2.69 21.31 -3 19 C-1.56 16.25 -1.56 16.25 0 14 C-3 15 -3 15 -4 17 C-4.66 17 -5.32 17 -6 17 C-5.5 16 -5.5 16 -3 11 C-3.99 11.66 -4.98 12.32 -6 13 C-6.99 13 -7.98 13 -9 13 C-9.2 14.44 -9.38 15.87 -9.56 17.31 C-9.67 18.11 -9.77 18.91 -9.88 19.74 C-10 22 -10 22 -9 25 C-10.65 25.33 -12.3 25.66 -14 26 C-14 25.34 -14 24.68 -14 24 C-13.34 23.67 -12.68 23.34 -12 23 C-12.99 22.34 -13.98 21.68 -15 21 C-15.94 19.12 -15.94 19.12 -16 17 C-14.19 14.75 -14.19 14.75 -12 13 C-11.34 13 -10.68 13 -10 13 C-10.12 12.63 -10.12 12.63 -10.75 10.75 C-11 8 -11 8 -9.38 5.81 C-6.97 3.97 -4.83 3.04 -2 2 C-1.34 1.34 -0.68 0.68 0 0 Z " fill="#C9D7E8" transform="translate(56,23)"/>
<path d="M0 0 C3.32 2.21 3.54 2.8 4.62 6.44 C4.86 7.22 5.1 8 5.35 8.81 C5.57 9.53 5.78 10.25 6 11 C6.33 11.99 6.66 12.98 7 14 C6 16.63 5.55 17.72 3 19 C3.27 19.66 3.54 20.32 3.81 21 C4.1 25.52 1.75 28.52 -1 32 C-1.33 32.16 -1.33 32.16 -3 33 C-3.33 33.99 -3.66 34.98 -4 36 C-4.99 36 -5.98 36 -7 36 C-7 36.99 -7 37.98 -7 39 C-6.34 39.33 -5.68 39.66 -5 40 C-6.98 40.66 -8.96 41.32 -11 42 C-11.33 40.02 -11.66 38.04 -12 36 C-13.32 36 -14.64 36 -16 36 C-16 36.66 -16 37.32 -16 38 C-17.65 37.67 -19.3 37.34 -21 37 C-21.33 37.99 -21.66 38.98 -22 40 C-22.99 40 -23.98 40 -25 40 C-24.69 39.24 -24.38 38.47 -24.06 37.69 C-23.32 35.81 -22.64 33.91 -22 32 C-20.35 32 -18.7 32 -17 32 C-17 31.34 -17 30.68 -17 30 C-14.38 27.53 -12.42 26.12 -8.94 25.12 C-5.07 23.64 -4.13 21.46 -2 18 C-1.01 17.67 -0.02 17.34 1 17 C0.3 15.93 -0.4 14.86 -1.12 13.75 C-2.24 11.82 -2.24 11.82 -3 10 C-2.33 7.67 -1.68 6.68 0 5 C0.04 3.33 0.04 1.67 0 0 Z " fill="#E3E7ED" transform="translate(119,19)"/>
<path d="M0 0 C9.25 -0.31 9.25 -0.31 13 2 C14.57 4.71 15.13 6.21 14.62 9.31 C14.42 9.87 14.21 10.43 14 11 C13.01 11 12.02 11 11 11 C11 11.66 11 12.32 11 13 C12.32 12.67 13.64 12.34 15 12 C15.33 12.5 15.33 12.5 17 15 C17.99 15.33 18.98 15.66 20 16 C20.33 16.99 20.66 17.98 21 19 C20.67 19.66 20.34 20.32 20 21 C14.25 21.12 14.25 21.12 12 20 C12 21.32 12 22.64 12 24 C11.34 24 10.68 24 10 24 C10 24.99 10 25.98 10 27 C7 28 7 28 4 27 C4 27.99 4 28.98 4 30 C2.62 31.69 2.62 31.69 1 33 C0.34 33 -0.32 33 -1 33 C-0.67 31.68 -0.34 30.36 0 29 C0.99 29 1.98 29 3 29 C3.12 28.24 3.25 27.47 3.38 26.69 C4 24 4 24 6 21 C5.34 21 4.68 21 4 21 C3.31 19.19 3.31 19.19 3 17 C4.19 15.25 4.19 15.25 6 14 C7.32 14 8.64 14 10 14 C10 12.68 10 11.36 10 10 C10.66 10 11.32 10 12 10 C11.67 8.02 11.34 6.04 11 4 C9.93 3.9 8.85 3.79 7.75 3.69 C4.14 3.03 2.64 2.43 0 0 Z " fill="#E0E6EE" transform="translate(209,30)"/>
<path d="M0 0 C3.38 1.13 4.71 2.32 7 5 C7 5.99 7 6.98 7 8 C7.66 8 8.32 8 9 8 C9 8.66 9 9.32 9 10 C8.34 10 7.68 10 7 10 C7 10.99 7 11.98 7 13 C6.36 12.81 5.72 12.63 5.06 12.44 C4.72 12.37 4.72 12.37 3 12 C2.67 12.33 2.34 12.66 2 13 C1.34 13 0.68 13 0 13 C0 13.66 0 14.32 0 15 C2.31 15.66 4.62 16.32 7 17 C6.34 18.32 5.68 19.64 5 21 C3.35 20.67 1.7 20.34 0 20 C-0.33 18.68 -0.66 17.36 -1 16 C-1.28 15.95 -1.28 15.95 -2.69 15.69 C-5.55 14.84 -7.61 13.81 -10 12 C-11.23 9 -11.28 7.69 -10.06 4.69 C-6.83 2.05 -4.09 2.73 0 3 C0 2.01 0 1.02 0 0 Z " fill="#BFD1E6" transform="translate(135,59)"/>
<path d="M0 0 C0.99 0.33 1.98 0.66 3 1 C3.33 2.98 3.66 4.96 4 7 C3.01 7 2.02 7 1 7 C1 7.66 1 8.32 1 9 C2.32 9.33 3.64 9.66 5 10 C4.37 10.22 3.73 10.45 3.08 10.68 C1 12 1 12 0.17 14.38 C0.03 15.29 -0.11 16.19 -0.25 17.12 C-0.4 18.04 -0.55 18.95 -0.7 19.88 C-0.8 20.58 -0.9 21.28 -1 22 C-1.99 22 -2.98 22 -4 22 C-4.33 21.34 -4.66 20.68 -5 20 C-5.99 19.67 -6.98 19.34 -8 19 C-8.33 18.01 -8.66 17.02 -9 16 C-11.31 15.67 -13.62 15.34 -16 15 C-13 13 -13 13 -10.81 13.38 C-10.21 13.58 -9.62 13.79 -9 14 C-9.81 12.06 -9.81 12.06 -11 10 C-11.99 9.67 -12.98 9.34 -14 9 C-14.19 6.62 -14.19 6.62 -14 4 C-13.01 3.34 -12.02 2.68 -11 2 C-10.34 3.65 -9.68 5.3 -9 7 C-8.67 6.34 -8.34 5.68 -8 5 C-7.34 5 -6.68 5 -6 5 C-6 4.34 -6 3.68 -6 3 C-4.02 2.67 -2.04 2.34 0 2 C0 1.34 0 0.68 0 0 Z " fill="#B7CCE5" transform="translate(70,54)"/>
<path d="M0 0 C5.54 1.45 5.54 1.45 7.5 3.81 C8.17 6.76 7.33 8.35 6 11 C4.35 11 2.7 11 1 11 C0.81 11.48 0.81 11.48 -0.12 13.94 C-2 17 -2 17 -4.88 18.06 C-8.48 17.99 -10.13 17.11 -13 15 C-12.81 12.69 -12.81 12.69 -12 10 C-10.36 8.95 -8.7 7.95 -7 7 C-6.65 6.3 -6.3 5.6 -5.94 4.88 C-5.63 4.26 -5.32 3.64 -5 3 C-2.94 2.38 -2.94 2.38 -1 2 C-0.67 1.34 -0.34 0.68 0 0 Z " fill="#C1CFDC" transform="translate(209,31)"/>
<path d="M0 0 C2.64 0 5.28 0 8 0 C7.42 2.39 6.78 4.67 6 7 C6 7.99 6 8.98 6 10 C7.65 10.33 9.3 10.66 11 11 C10.34 12.98 9.68 14.96 9 17 C8.67 17 8.34 17 8 17 C7.67 15.35 7.34 13.7 7 12 C6.67 12.16 6.67 12.16 5 13 C4.38 15.56 4.38 15.56 4 18 C5.32 18.33 6.64 18.66 8 19 C8.33 20.32 8.66 21.64 9 23 C7.68 23.16 7.68 23.16 1 24 C1 23.34 1 22.68 1 22 C0.4 21.73 -0.2 21.46 -0.81 21.19 C-3 20 -4.41 18.9 -6 17 C-6 16.34 -6 15.68 -6 15 C-5.01 15 -4.02 15 -3 15 C-3 14.34 -3 13.68 -3 13 C-2.34 13 -1.68 13 -1 13 C-1.33 11.02 -1.66 9.04 -2 7 C-1.34 7 -0.68 7 0 7 C0 4.69 0 2.38 0 0 Z " fill="#A2BEDE" transform="translate(52,45)"/>
<path d="M0 0 C-1 2 -2 4 -3 6 C-2.34 6 -1.68 6 -1 6 C-0.67 5.01 -0.34 4.02 0 3 C0.99 3 1.98 3 3 3 C2.69 4.05 2.38 5.1 2.06 6.19 C1.24 9.13 0.55 12 0 15 C-1.32 15.33 -2.64 15.66 -4 16 C-4.66 18.31 -5.32 20.62 -6 23 C-10.41 24.03 -12.93 24.04 -17 22 C-16.81 20.19 -16.81 20.19 -16 18 C-13.69 16.38 -13.69 16.38 -11 15 C-10.24 14.61 -9.47 14.22 -8.69 13.81 C-8.13 13.54 -7.57 13.28 -7 13 C-7.33 12.01 -7.66 11.02 -8 10 C-7.72 7.2 -7.06 4.6 -6 2 C-3.79 0.34 -2.73 0 0 0 Z " fill="#B7CBE3" transform="translate(53,34)"/>
<path d="M0 0 C1.15 9.41 1.15 9.41 1 14 C1.37 13.34 1.74 12.68 2.12 12 C4 10 4 10 7 9.62 C10 10 10 10 13 12 C13 13.32 13 14.64 13 16 C12.01 16 11.02 16 10 16 C9.67 17.65 9.34 19.3 9 21 C7.02 20.67 5.04 20.34 3 20 C2.67 18.68 2.34 17.36 2 16 C0.35 16 -1.3 16 -3 16 C-4.12 11.25 -4.12 11.25 -3 9 C-3.66 9 -4.32 9 -5 9 C-5 9.66 -5 10.32 -5 11 C-7.31 10.67 -9.62 10.34 -12 10 C-11.2 9.26 -10.39 8.52 -9.56 7.75 C-7.23 5.25 -6.36 4.28 -6 1 C-3.92 0.45 -2.16 0 0 0 Z " fill="#B3C9E2" transform="translate(89,26)"/>
<path d="M0 0 C3.32 2.21 3.54 2.8 4.62 6.44 C4.86 7.22 5.1 8 5.35 8.81 C5.57 9.53 5.78 10.25 6 11 C6.33 11.99 6.66 12.98 7 14 C6 16.63 5.55 17.72 3 19 C3.23 19.7 3.45 20.4 3.69 21.12 C4.1 24.88 2.86 26.79 1 30 C-3.75 29.25 -3.75 29.25 -6 27 C-5.64 23.52 -3.99 20.83 -2 18 C-1.01 17.67 -0.02 17.34 1 17 C0.3 15.93 -0.4 14.86 -1.12 13.75 C-2.24 11.82 -2.24 11.82 -3 10 C-2.33 7.67 -1.68 6.68 0 5 C0.04 3.33 0.04 1.67 0 0 Z " fill="#D7E1ED" transform="translate(119,19)"/>
<path d="M0 0 C1.32 0.33 2.64 0.66 4 1 C3.67 1.16 3.67 1.16 2 2 C2.02 2.95 2.04 3.9 2.06 4.88 C2 8 2 8 1 10 C1.99 9.67 2.98 9.34 4 9 C4.33 8.34 4.66 7.68 5 7 C5.66 7 6.32 7 7 7 C7 7.66 7 8.32 7 9 C8.32 9.33 9.64 9.66 11 10 C11 11.65 11 13.3 11 15 C9.68 15 8.36 15 7 15 C5.68 17.31 4.36 19.62 3 22 C0.69 21.67 -1.62 21.34 -4 21 C-3.34 19.68 -2.68 18.36 -2 17 C-2.66 16.34 -3.32 15.68 -4 15 C-4.62 12.38 -4.62 12.38 -5 10 C-3.68 10 -2.36 10 -1 10 C-1.5 9.55 -1.99 9.09 -2.5 8.62 C-4 7 -4 7 -4 5 C-3.02 3.98 -2.02 2.98 -1 2 C-0.67 1.34 -0.34 0.68 0 0 Z " fill="#ADC5E1" transform="translate(93,49)"/>
<path d="M0 0 C0.33 0.66 0.66 1.32 1 2 C0.67 2.49 0.67 2.49 -1 5 C-1 4.34 -1 3.68 -1 3 C-1.99 3.33 -2.98 3.66 -4 4 C-4.14 4.31 -4.14 4.31 -4.88 5.88 C-6 8 -6 8 -8.62 9.31 C-9.41 9.87 -10.19 10.43 -11 11 C-11.31 14.69 -11.31 14.69 -11 18 C-12.65 18.33 -14.3 18.66 -16 19 C-16.33 20.65 -16.66 22.3 -17 24 C-17.99 24 -18.98 24 -20 24 C-20 24.66 -20 25.32 -20 26 C-20.66 25.67 -21.32 25.34 -22 25 C-21.01 24.01 -20.02 23.02 -19 22 C-19.18 21.71 -19.18 21.71 -20.06 20.25 C-21 18 -21 18 -20.81 15.94 C-19.88 13.7 -18.89 12.51 -17 11 C-16.34 11 -15.68 11 -15 11 C-15.33 9.35 -15.66 7.7 -16 6 C-11.6 2.5 -8.46 1.5 -2.86 1.18 C-1 1 -1 1 0 0 Z " fill="#E1E7EF" transform="translate(208,31)"/>
<path d="M0 0 C0.66 0 1.32 0 2 0 C2 0.66 2 1.32 2 2 C2.63 1.99 3.25 1.98 3.9 1.96 C4.72 1.96 5.53 1.95 6.38 1.94 C7.19 1.93 8 1.91 8.84 1.9 C11 2 11 2 13 3 C12.67 2.01 12.34 1.02 12 0 C12.99 0 13.98 0 15 0 C15 0.66 15 1.32 15 2 C16.32 2.66 17.64 3.32 19 4 C19 4.66 19 5.32 19 6 C17.19 7.06 17.19 7.06 15 8 C14.01 7.67 13.02 7.34 12 7 C11.67 7.66 11.34 8.32 11 9 C10.46 8.63 9.93 8.26 9.38 7.88 C7 7 7 7 4 8.06 C3.5 8.22 3.5 8.22 1 9 C-0.37 8.05 -1.7 7.05 -3 6 C-5.38 6.31 -5.38 6.31 -8 7 C-13.56 7.22 -13.56 7.22 -16 6 C-16 5.34 -16 4.68 -16 4 C-12.71 2.9 -11.29 3.2 -8 4 C-8 3.34 -8 2.68 -8 2 C-5.36 2 -2.72 2 0 2 C0 1.34 0 0.68 0 0 Z " fill="#EAEEF3" transform="translate(104,83)"/>
<path d="M0 0 C-1.32 1.65 -2.64 3.3 -4 5 C-3.4 4.79 -2.8 4.59 -2.19 4.38 C0 4 0 4 3 6 C3.37 10.56 3.62 14.07 1 18 C-1.31 18 -3.62 18 -6 18 C-5.67 17.34 -5.34 16.68 -5 16 C-4.34 16 -3.68 16 -3 16 C-3.33 15.34 -3.66 14.68 -4 14 C-5.65 14.33 -7.3 14.66 -9 15 C-10 11.89 -9.94 10.1 -9 7 C-8.88 6.13 -8.75 5.27 -8.62 4.38 C-7.4 -0.28 -4.17 -0.23 0 0 Z " fill="#BED1E7" transform="translate(93,65)"/>
<path d="M0 0 C0.66 0.33 1.32 0.66 2 1 C2 1.66 2 2.32 2 3 C0.35 3 -1.3 3 -3 3 C-3.33 7.29 -3.66 11.58 -4 16 C-4.82 15.84 -4.82 15.84 -9 15 C-9.33 15.66 -9.66 16.32 -10 17 C-10 16.34 -10 15.68 -10 15 C-10.39 14.97 -10.39 14.97 -12.34 14.82 C-13.34 14.73 -14.34 14.65 -15.38 14.56 C-16.37 14.48 -17.37 14.4 -18.4 14.32 C-21 14 -21 14 -23 13 C-23.33 13.66 -23.66 14.32 -24 15 C-23.67 13.35 -23.34 11.7 -23 10 C-22.34 10 -21.68 10 -21 10 C-20.67 9.34 -20.34 8.68 -20 8 C-19.34 8.33 -18.68 8.66 -18 9 C-17.67 8.34 -17.34 7.68 -17 7 C-15.91 7.23 -14.81 7.45 -13.69 7.69 C-10 8 -10 8 -8.19 6.81 C-6.95 4.93 -5.92 3.05 -5 1 C-4.18 1.16 -4.18 1.16 0 2 C0 1.34 0 0.68 0 0 Z " fill="#C8D7E8" transform="translate(215,40)"/>
<path d="M0 0 C1.16 0.5 1.16 0.5 7 3 C7 2.34 7 1.68 7 1 C9.38 1.19 9.38 1.19 12 2 C13.44 4.31 13.44 4.31 14 7 C13.12 9.31 13.12 9.31 12 11 C11.34 10.34 10.68 9.68 10 9 C9.67 9.66 9.34 10.32 9 11 C9.66 11 10.32 11 11 11 C11 11.66 11 12.32 11 13 C10.53 12.82 10.53 12.82 8.12 11.94 C5 11 5 11 3 12 C0.67 12.04 -1.67 12.04 -4 12 C-3.71 11.32 -3.42 10.64 -3.12 9.94 C-1.87 6.67 -0.93 3.37 0 0 Z " fill="#E8EBEF" transform="translate(100,69)"/>
<path d="M0 0 C2.31 0.66 4.62 1.32 7 2 C6.67 2.99 6.34 3.98 6 5 C7.32 5 8.64 5 10 5 C10 5.66 10 6.32 10 7 C10.66 7 11.32 7 12 7 C12 7.66 12 8.32 12 9 C11.34 9 10.68 9 10 9 C10 9.66 10 10.32 10 11 C9.01 11 8.02 11 7 11 C6.67 12.65 6.34 14.3 6 16 C5.34 16 4.68 16 4 16 C4.33 16.99 4.66 17.98 5 19 C4.67 19.66 4.34 20.32 4 21 C4.99 21.33 5.98 21.66 7 22 C5.68 22 4.36 22 3 22 C2.67 22.83 2.67 22.83 1 27 C0.34 26.67 -0.32 26.34 -1 26 C-0.39 18.54 -0.39 18.54 1.44 16 C3 15 3 15 5 15 C4.34 13.02 3.68 11.04 3 9 C2.01 9 1.02 9 0 9 C-0.88 2.85 -0.88 2.85 -1 1 C-0.67 0.67 -0.34 0.34 0 0 Z " fill="#D0DBE9" transform="translate(90,14)"/>
<path d="M0 0 C0.33 0 0.66 0 1 0 C1 3.3 1 6.6 1 10 C1.66 10 2.32 10 3 10 C3.66 8.68 4.32 7.36 5 6 C6.32 6 7.64 6 9 6 C9 6.66 9 7.32 9 8 C7.68 8 6.36 8 5 8 C5 8.66 5 9.32 5 10 C5.3 10.05 5.3 10.05 6.81 10.31 C9.33 11.11 10.4 11.92 12 14 C12 14.99 12 15.98 12 17 C10.35 17.33 8.7 17.66 7 18 C7 18.66 7 19.32 7 20 C6.01 20 5.02 20 4 20 C4 19.34 4 18.68 4 18 C3.61 17.85 3.61 17.85 1.62 17.06 C-1 16 -1 16 -3 15 C-3 14.34 -3 13.68 -3 13 C-4.65 13.33 -6.3 13.66 -8 14 C-8 13.34 -8 12.68 -8 12 C-3.62 9 -3.62 9 -1 9 C-1.02 7.89 -1.04 6.77 -1.06 5.62 C-1 2 -1 2 0 0 Z " fill="#BACFE6" transform="translate(203,58)"/>
<path d="M0 0 C2.97 0 5.94 0 9 0 C9.27 1.03 9.54 2.06 9.81 3.12 C10.81 6.65 12.27 9.77 14 13 C13.42 13.04 12.84 13.08 12.25 13.12 C10 14 10 14 8 17.06 C7.34 18.03 6.68 19 6 20 C4.68 20 3.36 20 2 20 C0.54 17.35 0 16.11 0 13 C0.66 13 1.32 13 2 13 C2 12.01 2 11.02 2 10 C3.65 9.67 5.3 9.34 7 9 C7 7.02 7 5.04 7 3 C4.69 3.33 2.38 3.66 0 4 C0 2.68 0 1.36 0 0 Z " fill="#C2D2E5" transform="translate(107,24)"/>
<path d="M0 0 C1.32 0 2.64 0 4 0 C4 0.66 4 1.32 4 2 C4.66 2 5.32 2 6 2 C6 2.66 6 3.32 6 4 C6.78 4.17 7.57 4.33 8.38 4.5 C11 6 11 6 11.78 7.91 C12.26 9.93 12.64 11.96 13 14 C12.34 14.33 12.34 14.33 9 16 C8.67 15.01 8.34 14.02 8 13 C4.44 11.81 4.44 11.81 1 11 C1 10.34 1 9.68 1 9 C-0.32 8.67 -1.64 8.34 -3 8 C-2.34 8 -1.68 8 -1 8 C-1.02 7.05 -1.04 6.1 -1.06 5.12 C-1 2 -1 2 0 0 Z " fill="#A7C1DF" transform="translate(70,66)"/>
<path d="M0 0 C-0.5 0.5 -0.5 0.5 -3 3 C-2.34 2.61 -1.68 2.22 -1 1.81 C3.29 0.65 6.08 2.19 10 4 C10 4.99 10 5.98 10 7 C8.25 7.69 8.25 7.69 6 8 C3.75 6.56 3.75 6.56 2 5 C2 5.66 2 6.32 2 7 C2.66 7 3.32 7 4 7 C3.67 8.32 3.34 9.64 3 11 C2.67 10.67 2.34 10.34 2 10 C-0 10.26 -2 10.52 -3.99 10.84 C-6 11 -6 11 -9 10 C-9 8.35 -9 6.7 -9 5 C-8.34 4.67 -7.68 4.34 -7 4 C-6.93 3.67 -6.93 3.67 -6.56 2 C-6.38 1.34 -6.19 0.68 -6 0 C-3 -1 -3 -1 0 0 Z " fill="#DDE4ED" transform="translate(103,25)"/>
<path d="M0 0 C4.75 0.88 4.75 0.88 7 2 C7 2.99 7 3.98 7 5 C7.95 5.29 8.9 5.58 9.88 5.88 C13 7 13 7 15 9 C13.42 9.51 11.83 10.01 10.25 10.5 C9.37 10.78 8.49 11.06 7.58 11.34 C5 12 5 12 1 12 C1 11.34 1 10.68 1 10 C0.38 10.19 -0.24 10.37 -0.88 10.56 C-3 11 -3 11 -5 10 C-5 9.01 -5 8.02 -5 7 C-4.01 6.67 -3.02 6.34 -2 6 C-0.81 2.94 -0.81 2.94 0 0 Z " fill="#CAD8EA" transform="translate(176,67)"/>
<path d="M0 0 C0.99 0.66 1.98 1.32 3 2 C3 2.66 3 3.32 3 4 C3.66 4.33 4.32 4.66 5 5 C5.88 8.31 5.88 8.31 6 12 C4.06 14.44 4.06 14.44 2 16 C2 15.01 2 14.02 2 13 C0.68 12.34 -0.64 11.68 -2 11 C-2 10.34 -2 9.68 -2 9 C-2.66 9 -3.32 9 -4 9 C-4.66 7.35 -5.32 5.7 -6 4 C-4.02 2.68 -2.04 1.36 0 0 Z " fill="#E3E9F0" transform="translate(140,51)"/>
<path d="M0 0 C0.99 0.33 1.98 0.66 3 1 C3.33 2.98 3.66 4.96 4 7 C3.01 7 2.02 7 1 7 C1 7.66 1 8.32 1 9 C2.32 9.33 3.64 9.66 5 10 C4.42 10.23 3.84 10.45 3.25 10.69 C0.43 12.33 -1.08 14.4 -3 17 C-4.32 16.67 -5.64 16.34 -7 16 C-6.91 14.56 -6.8 13.12 -6.69 11.69 C-6.63 10.89 -6.57 10.09 -6.51 9.26 C-5.91 6.6 -5.01 5.77 -3 4 C-2.67 3.34 -2.34 2.68 -2 2 C-1.34 2 -0.68 2 0 2 C0 1.34 0 0.68 0 0 Z " fill="#C6D5E8" transform="translate(70,54)"/>
<path d="M0 0 C0.99 0 1.98 0 3 0 C5.85 3.24 7.86 6.7 8.31 11 C8.26 11.33 8.26 11.33 8 13 C8.66 13.33 9.32 13.66 10 14 C7 15 7 15 3 15 C2.34 12.36 1.68 9.72 1 7 C0.34 7 -0.32 7 -1 7 C-0.67 5.68 -0.34 4.36 0 3 C-0.66 3 -1.32 3 -2 3 C-2 4.32 -2 5.64 -2 7 C-2.82 6.67 -2.82 6.67 -7 5 C-6.34 4.67 -5.68 4.34 -5 4 C-4.67 3.01 -4.34 2.02 -4 1 C-2.68 1.33 -1.36 1.66 0 2 C0 1.34 0 0.68 0 0 Z " fill="#EAEDF2" transform="translate(149,65)"/>
<path d="M0 0 C2.64 0 5.28 0 8 0 C7.4 3.34 6.26 5.46 4 8 C3.34 8 2.68 8 2 8 C1.86 9.11 1.71 10.23 1.56 11.38 C1 15 1 15 0 17 C0.66 17.33 1.32 17.66 2 18 C0.68 18 -0.64 18 -2 18 C-2.33 18.66 -2.66 19.32 -3 20 C-4.5 18.62 -4.5 18.62 -6 17 C-6 16.34 -6 15.68 -6 15 C-5.01 15 -4.02 15 -3 15 C-3 14.34 -3 13.68 -3 13 C-2.34 13 -1.68 13 -1 13 C-1.33 11.02 -1.66 9.04 -2 7 C-1.34 7 -0.68 7 0 7 C0 4.69 0 2.38 0 0 Z " fill="#93B5DA" transform="translate(52,45)"/>
<path d="M0 0 C2 3 2 3 2 5 C4.31 5 6.62 5 9 5 C9 5.66 9 6.32 9 7 C9.6 6.77 10.21 6.54 10.83 6.31 C11.63 6.02 12.43 5.73 13.25 5.44 C14.04 5.15 14.83 4.86 15.64 4.56 C18.19 3.95 19.55 4.15 22 5 C21 7 21 7 18.44 8.12 C11.38 9.92 5.85 8.86 -1 7 C-1.99 7 -2.98 7 -4 7 C-4.99 6.67 -5.98 6.34 -7 6 C-6.34 6 -5.68 6 -5 6 C-5.33 5.01 -5.66 4.02 -6 3 C-3.86 0.86 -2.87 0.57 0 0 Z " fill="#E8ECF2" transform="translate(168,72)"/>
<path d="M0 0 C0 0.99 0 1.98 0 3 C-1.49 3.16 -1.49 3.16 -9 4 C-8.79 4.78 -8.59 5.57 -8.38 6.38 C-8.25 7.24 -8.13 8.11 -8 9 C-10 11 -10 11 -13.62 11.12 C-14.74 11.08 -15.85 11.04 -17 11 C-17.33 9.35 -17.66 7.7 -18 6 C-11.87 1.02 -7.93 0 0 0 Z " fill="#AEC2D7" transform="translate(214,36)"/>
<path d="M0 0 C0.12 0.78 0.25 1.57 0.38 2.38 C1 5 1 5 3 7 C2.01 7.66 1.02 8.32 0 9 C-0.12 11.88 -0.12 11.88 0 15 C-0.32 16.34 -0.66 17.67 -1 19 C-0.67 19.33 -0.34 19.66 0 20 C1.68 19.71 3.34 19.38 5 19 C5 19.99 5 20.98 5 22 C1.22 23.84 -0.95 24.16 -5 23 C-4.34 22.01 -3.68 21.02 -3 20 C-3.69 16.14 -4.18 13.74 -7.12 11.06 C-7.74 10.71 -8.36 10.36 -9 10 C-8.17 10.16 -8.17 10.16 -4 11 C-4 10.01 -4 9.02 -4 8 C-3.34 7.67 -2.68 7.34 -2 7 C-2 6.34 -2 5.68 -2 5 C-2.66 4.34 -3.32 3.68 -4 3 C-1.12 0 -1.12 0 0 0 Z " fill="#B0C8E2" transform="translate(85,59)"/>
<path d="M0 0 C2.01 0.29 4.01 0.62 6 1 C6.33 2.32 6.66 3.64 7 5 C7.66 5 8.32 5 9 5 C9 6.98 9 8.96 9 11 C10.32 11.33 11.64 11.66 13 12 C13 12.66 13 13.32 13 14 C9.85 13.3 6.97 12.24 4 11 C4 10.01 4 9.02 4 8 C2.68 7.67 1.36 7.34 0 7 C-0.38 5.01 -0.71 3.01 -1 1 C-0.67 0.67 -0.34 0.34 0 0 Z " fill="#A7C2E1" transform="translate(179,61)"/>
<path d="M0 0 C1.65 0.33 3.3 0.66 5 1 C5 1.99 5 2.98 5 4 C4.34 4 3.68 4 3 4 C3 7.3 3 10.6 3 14 C2.67 13.34 2.34 12.68 2 12 C1.34 12 0.68 12 0 12 C0 11.34 0 10.68 0 10 C-1.65 10.33 -3.3 10.66 -5 11 C-5.33 12.98 -5.66 14.96 -6 17 C-6.99 17 -7.98 17 -9 17 C-8.67 14.69 -8.34 12.38 -8 10 C-7.34 10 -6.68 10 -6 10 C-5.67 9.01 -5.34 8.02 -5 7 C-3.67 5.67 -2.33 4.33 -1 3 C-0.67 2.01 -0.34 1.02 0 0 Z " fill="#AAC3E0" transform="translate(200,54)"/>
<path d="M0 0 C0.99 0 1.98 0 3 0 C3.33 1.32 3.66 2.64 4 4 C5.65 4 7.3 4 9 4 C9.33 4.99 9.66 5.98 10 7 C7.69 6.67 5.38 6.34 3 6 C3 6.66 3 7.32 3 8 C0 10 0 10 -4 10 C-5.43 7.65 -6.09 6.52 -5.62 3.75 C-5.42 3.17 -5.21 2.59 -5 2 C-2.69 2.33 -0.38 2.66 2 3 C2 2.34 2 1.68 2 1 C1.34 0.67 0.68 0.34 0 0 Z " fill="#9FBCDD" transform="translate(88,42)"/>
<path d="M0 0 C0.66 0.33 1.32 0.66 2 1 C2 3.64 2 6.28 2 9 C2.99 9 3.98 9 5 9 C5.66 10.98 6.32 12.96 7 15 C6.17 15.5 6.17 15.5 2 18 C0.94 16.13 0.94 16.13 0 14 C0.33 13.34 0.66 12.68 1 12 C-0.98 12 -2.96 12 -5 12 C-5 11.01 -5 10.02 -5 9 C-3.68 9 -2.36 9 -1 9 C-1.02 7.89 -1.04 6.77 -1.06 5.62 C-1 2 -1 2 0 0 Z " fill="#D3DDEB" transform="translate(88,14)"/>
<path d="M0 0 C2.31 0 4.62 0 7 0 C7.33 0.99 7.66 1.98 8 3 C7.34 3 6.68 3 6 3 C6 6.3 6 9.6 6 13 C5.67 12.34 5.34 11.68 5 11 C2.44 10.38 2.44 10.38 0 10 C-2.22 4.58 -2.22 4.58 -1.12 1.62 C-0.75 1.09 -0.38 0.55 0 0 Z " fill="#E1E8F0" transform="translate(19,55)"/>
<path d="M0 0 C0.33 0.66 0.66 1.32 1 2 C0.67 2.49 0.67 2.49 -1 5 C-1 4.34 -1 3.68 -1 3 C-1.99 3.33 -2.98 3.66 -4 4 C-4.14 4.31 -4.14 4.31 -4.88 5.88 C-6 8 -6 8 -8.62 9.44 C-9.41 9.95 -10.19 10.47 -11 11 C-11.31 13.69 -11.31 13.69 -11 16 C-11.66 16 -12.32 16 -13 16 C-13.33 12.04 -13.66 8.08 -14 4 C-10.5 2.25 -9 1.72 -5.31 1.44 C-1.1 1.1 -1.1 1.1 0 0 Z " fill="#D7DEE3" transform="translate(208,31)"/>
<path d="M0 0 C0.66 0 1.32 0 2 0 C2 1.98 2 3.96 2 6 C3.32 6.66 4.64 7.32 6 8 C6 8.66 6 9.32 6 10 C2.37 9.67 -1.26 9.34 -5 9 C-6 6 -6 6 -6 4 C-6.99 4 -7.98 4 -9 4 C-8.67 3.01 -8.34 2.02 -8 1 C-2.25 0.88 -2.25 0.88 0 2 C0 1.34 0 0.68 0 0 Z " fill="#8DAED5" transform="translate(84,35)"/>
<path d="M0 0 C0.99 0.66 1.98 1.32 3 2 C3.19 5.12 3.19 5.12 3 8 C2.01 8.33 1.02 8.66 0 9 C0 9.66 0 10.32 0 11 C-0.66 11 -1.32 11 -2 11 C-2.33 11.99 -2.66 12.98 -3 14 C-3 13.01 -3 12.02 -3 11 C-3.66 11 -4.32 11 -5 11 C-5.33 12.32 -5.66 13.64 -6 15 C-6.66 14.67 -7.32 14.34 -8 14 C-7.62 12.06 -7.62 12.06 -7 10 C-6.34 9.67 -5.68 9.34 -5 9 C-4.27 6.69 -3.6 4.35 -3 2 C-2.01 2 -1.02 2 0 2 C0 1.34 0 0.68 0 0 Z " fill="#C5D4E5" transform="translate(102,40)"/>
<path d="M0 0 C0.95 0.04 1.9 0.08 2.88 0.12 C2.22 3.09 1.56 6.06 0.88 9.12 C0.22 9.12 -0.44 9.12 -1.12 9.12 C-1.46 10.12 -1.78 11.11 -2.12 12.12 C-4.19 10.5 -4.19 10.5 -6.12 8.12 C-5.93 3.2 -5.4 0.22 0 0 Z " fill="#CEDBE9" transform="translate(131.125,43.875)"/>
<path d="M0 0 C2.31 0.66 4.62 1.32 7 2 C6.67 2.99 6.34 3.98 6 5 C7.32 5 8.64 5 10 5 C10 5.66 10 6.32 10 7 C10.66 7 11.32 7 12 7 C12 7.66 12 8.32 12 9 C10.68 9.33 9.36 9.66 8 10 C8.33 9.01 8.66 8.02 9 7 C8.01 7.66 7.02 8.32 6 9 C2.81 9.12 2.81 9.12 0 9 C-0.88 2.85 -0.88 2.85 -1 1 C-0.67 0.67 -0.34 0.34 0 0 Z " fill="#C2D2E7" transform="translate(90,14)"/>
<path d="M0 0 C0.99 0.66 1.98 1.32 3 2 C2.34 2 1.68 2 1 2 C1 2.66 1 3.32 1 4 C0 5 -1 6 -2 7 C-2 7.66 -2 8.32 -2 9 C-3.93 10.61 -5.76 11.88 -8 13 C-9.56 11.75 -9.56 11.75 -11 10 C-10.71 6.96 -9.74 5.61 -8 3 C-6.05 2.71 -6.05 2.71 -3.88 2.81 C-2.6 2.87 -1.32 2.94 0 3 C0 2.01 0 1.02 0 0 Z " fill="#CEDAE9" transform="translate(135,59)"/>
<path d="M0 0 C0.99 0.33 1.98 0.66 3 1 C2.34 2.32 1.68 3.64 1 5 C0.34 5 -0.32 5 -1 5 C-1.33 5.66 -1.66 6.32 -2 7 C-3.32 6.01 -4.64 5.02 -6 4 C-6 4.99 -6 5.98 -6 7 C-7.98 7.66 -9.96 8.32 -12 9 C-12 8.34 -12 7.68 -12 7 C-13.65 7 -15.3 7 -17 7 C-17 6.67 -17 6.34 -17 6 C-13.7 6 -10.4 6 -7 6 C-7 5.34 -7 4.68 -7 4 C-7.47 4.02 -7.47 4.02 -9.88 4.12 C-13 4 -13 4 -15 2 C-13.06 1.8 -11.13 1.62 -9.19 1.44 C-8.11 1.33 -7.03 1.23 -5.92 1.12 C-3 1 -3 1 0 2 C0 1.34 0 0.68 0 0 Z " fill="#F0F2F4" transform="translate(248,72)"/>
<path d="M0 0 C0 0.66 0 1.32 0 2 C-0.99 2 -1.98 2 -3 2 C-3 2.66 -3 3.32 -3 4 C-3.99 3.67 -4.98 3.34 -6 3 C-6 2.01 -6 1.02 -6 0 C-3 -1 -3 -1 0 0 Z " fill="#F2F4F7" transform="translate(20,69)"/>
<path d="M0 0 C0.33 0.17 0.33 0.17 2 1 C1.67 1.17 1.67 1.17 0 2 C0 1.34 0 0.68 0 0 Z " fill="#F2F4F5" transform="translate(155,83)"/>
<path d="M0 0 C3 1 3 1 3 1 Z " fill="#F0F3F6" transform="translate(40,83)"/>
<path d="M0 0 C0.33 0.66 0.66 1.32 1 2 C0.34 1.67 -0.32 1.34 -1 1 C-0.67 0.67 -0.34 0.34 0 0 Z " fill="#F3F4F5" transform="translate(11,75)"/>
<path d="M0 0 C0.66 0.66 1.32 1.32 2 2 C1.34 2 0.68 2 0 2 C0 1.34 0 0.68 0 0 Z " fill="#F3F4F6" transform="translate(245,60)"/>
<path d="M0 0 C2 1 2 1 2 1 Z " fill="#F0F4F7" transform="translate(71,86)"/>
<path d="" fill="#F5F4F5" transform="translate(0,0)"/>
<path d="M0 0 C2 1 2 1 2 1 Z " fill="#F3F3F4" transform="translate(240,70)"/>
<path d="M0 0 C2 1 2 1 2 1 Z " fill="#F3F6F7" transform="translate(156,66)"/>
<path d="M0 0 C2 1 2 1 2 1 Z " fill="#F3F4F6" transform="translate(239,52)"/>
<path d="" fill="#F5F4F5" transform="translate(0,0)"/>
<path d="" fill="#F5F4F5" transform="translate(0,0)"/>
<path d="" fill="#F5F4F5" transform="translate(0,0)"/>
<path d="" fill="#F2F3F5" transform="translate(0,0)"/>
<path d="" fill="#F3F5F7" transform="translate(0,0)"/>
</svg>
