<?xml version="1.0" encoding="UTF-8"?>
<!-- Generator: visioncortex VTracer 0.6.12 -->
<svg version="1.1" xmlns="http://www.w3.org/2000/svg" width="358" height="45">
<path d="M0 0 C2.92 2.55 4.86 5.79 7 9 C7.66 8.67 8.32 8.34 9 8 C14.54 7.77 14.54 7.77 17 9 C17 10.65 17 12.3 17 14 C17.63 13.9 17.63 13.9 20.81 13.38 C24.4 12.79 24.75 12.83 28 15 C28.66 14.67 29.32 14.34 30 14 C32.67 13.87 35.32 13.96 38 14 C38 12.68 38 11.36 38 10 C40.25 9.31 40.25 9.31 43 9 C45.31 10.44 45.31 10.44 47 12 C47 11.34 47 10.68 47 10 C47.99 10 48.98 10 50 10 C49.89 9.71 49.89 9.71 49.31 8.25 C49 6 49 6 50.12 3.75 C52 2 52 2 54.69 1.75 C55.45 1.83 56.21 1.91 57 2 C57 1.34 57 0.68 57 0 C58.61 0.26 60.21 0.53 61.81 0.81 C62.71 0.96 63.6 1.11 64.52 1.27 C67.18 2.05 68.26 2.89 70 5 C69.67 5.99 69.34 6.98 69 8 C72.31 8.69 72.31 8.69 76 9 C77.56 7.62 77.56 7.62 79 6 C82.89 4.98 86.2 4.56 90 6 C91.81 8.56 91.81 8.56 93 11 C94.22 10.81 95.43 10.63 96.69 10.44 C99.36 10.09 101.07 10.02 103.75 10.56 C106.57 11.11 107.51 10.29 110 9 C112.25 9.38 112.25 9.38 114 10 C114.04 9.26 114.08 8.52 114.12 7.75 C115 5 115 5 117.44 2.56 C122.41 0.38 125.93 1.52 131 3 C131 3.99 131 4.98 131 6 C133.19 7.13 133.19 7.13 136 8 C137.67 7.35 139.34 6.68 141 6 C143.31 6.87 143.31 6.87 145 8 C145 8.66 145 9.32 145 10 C152.43 9 152.43 9 156 8 C155.96 7.22 155.92 6.43 155.88 5.62 C156 3 156 3 158 1 C163.11 -0.96 165.97 -1.21 171 1 C171 1.66 171 2.32 171 3 C171.66 3 172.32 3 173 3 C172.67 4.32 172.34 5.64 172 7 C174 7.04 176 7.04 178 7 C178.33 6.67 178.66 6.34 179 6 C181.34 6.29 183.67 6.62 186 7 C186 7.99 186 8.98 186 10 C187.65 9.67 189.3 9.34 191 9 C191 9.66 191 10.32 191 11 C191.5 10.67 191.5 10.67 194 9 C195.32 9 196.64 9 198 9 C197.77 8.4 197.55 7.8 197.31 7.19 C197 5 197 5 198.06 3.38 C200.71 1.49 202.8 0.63 206 0 C210.51 1.56 211.94 2.89 214 7 C216.62 7.75 216.62 7.75 219 8 C219 8.66 219 9.32 219 10 C220.98 10.33 222.96 10.66 225 11 C225 10.34 225 9.68 225 9 C227.25 7.88 227.25 7.88 230 7 C232.74 7.91 233.7 8.4 235 11 C237.33 11.6 237.33 11.6 240.25 12.06 C240.73 12.14 240.73 12.14 243.14 12.54 C243.61 12.61 243.61 12.61 246 13 C249.28 13.63 252.55 14.33 255.81 15.06 C256.6 15.24 257.39 15.42 258.21 15.6 C258.8 15.73 259.39 15.86 260 16 C256.27 17.05 252.87 17 249 17 C248.01 17.33 247.02 17.66 246 18 C244.1 18 242.21 18 240.31 17.96 C237.84 18 235.45 18.26 233 18.56 C228.45 19.07 224.5 18.75 220 18 C220 17.34 220 16.68 220 16 C219.5 16.33 219.5 16.33 217 18 C214.32 18.2 214.32 18.2 211.06 18.14 C209.84 18.12 208.62 18.09 207.36 18.07 C206.04 18.04 204.72 18.01 203.36 17.98 C202 17.95 200.64 17.93 199.27 17.9 C195.69 17.83 192.1 17.76 188.52 17.67 C184.86 17.59 181.2 17.52 177.54 17.45 C170.36 17.31 163.18 17.16 156 17 C156.42 17.02 156.42 17.02 158.52 17.15 C159.61 17.22 160.69 17.3 161.81 17.38 C162.89 17.44 163.97 17.51 165.08 17.59 C168 18 168 18 171 20 C162.11 21.12 153.31 21.08 144.38 21 C141.47 20.97 138.56 20.95 135.65 20.94 C135.01 20.93 135.01 20.93 131.78 20.9 C127.77 21.01 123.97 21.47 120 22 C117.53 21.88 117.53 21.88 115.5 21.56 C112.46 21.15 109.57 20.95 106.5 21 C105.34 21 104.19 21 103 21 C102.67 20.67 102.34 20.34 102 20 C100.14 20.09 98.29 20.25 96.44 20.44 C94.64 20.62 92.85 20.81 91 21 C96.28 21.66 101.56 22.32 107 23 C107 23.66 107 24.32 107 25 C86.54 25 66.08 25 45 25 C44.84 24.67 44.84 24.67 44 23 C45.13 22.87 46.26 22.73 47.43 22.6 C48.91 22.42 50.39 22.24 51.88 22.06 C52.62 21.98 53.37 21.89 54.14 21.8 C59.77 21.11 59.77 21.11 62 20 C57.61 19.3 53.44 18.89 49 19 C49 19.66 49 20.32 49 21 C33.37 22.42 17.68 22.1 2 22 C3.32 22.66 4.64 23.32 6 24 C5.36 23.99 4.72 23.98 4.06 23.96 C0.03 23.92 -3.75 23.96 -7.75 24.56 C-11.19 25.03 -13.6 24.6 -17 24 C-20.34 23.91 -23.66 23.94 -27 24 C-26.67 23.34 -26.34 22.68 -26 22 C-22.04 22 -18.08 22 -14 22 C-14 21.34 -14 20.68 -14 20 C-14.99 20.33 -15.98 20.66 -17 21 C-20.39 21.07 -23.77 21 -27.16 20.94 C-29.99 20.98 -32.59 21.15 -35.38 21.49 C-40.06 22.05 -44.66 22.15 -49.38 22.12 C-50.22 22.12 -51.07 22.12 -51.95 22.12 C-60.98 22.06 -69.99 21.57 -79 21 C-78.67 20.34 -78.34 19.68 -78 19 C-76.04 18.62 -76.04 18.62 -73.62 18.44 C-70.81 18.21 -68.71 17.9 -66 17 C-63.66 16.74 -61.31 16.56 -58.96 16.38 C-58.31 16.25 -57.67 16.13 -57 16 C-56.67 15.34 -56.34 14.68 -56 14 C-54.89 14.21 -53.77 14.41 -52.62 14.62 C-51.43 14.75 -50.23 14.87 -49 15 C-48.34 14.34 -47.68 13.68 -47 13 C-46.01 12.67 -45.02 12.34 -44 12 C-43.32 10.68 -42.65 9.34 -42 8 C-38.22 5.48 -35.44 5.36 -31 6 C-29.44 7.44 -29.44 7.44 -28 9 C-24.31 9.69 -24.31 9.69 -21 10 C-20.82 9.45 -20.82 9.45 -19.94 6.69 C-18.51 3.33 -18.03 3.01 -14.56 1.12 C-13.39 0.75 -12.21 0.38 -11 0 C-10.34 -0.25 -9.68 -0.49 -9 -0.75 C-5.7 -1.16 -3.23 -0.85 0 0 Z M71 10 C70.67 10.66 70.34 11.32 70 12 C70.99 11.67 71.98 11.34 73 11 C72.34 10.67 71.68 10.34 71 10 Z M65 19 C69 20 69 20 69 20 Z " fill="#E6E7ED" transform="translate(89,11)"/>
<path d="M0 0 C2.91 2.56 4.86 5.79 7 9 C7.66 8.67 8.32 8.34 9 8 C14.54 7.77 14.54 7.77 17 9 C17 10.65 17 12.3 17 14 C18.24 13.79 19.47 13.59 20.75 13.38 C24.12 12.94 26.13 12.97 29 15 C29 15.66 29 16.32 29 17 C31.31 17.33 33.62 17.66 36 18 C35.67 18.66 35.34 19.32 35 20 C31.69 19.69 28.37 19.38 25.06 19.06 C24.12 18.98 23.17 18.89 22.2 18.8 C21.3 18.71 20.4 18.62 19.47 18.54 C19.06 18.5 19.06 18.5 16.95 18.3 C15 18 15 18 14 17 C12 17.03 10 17.07 8.01 17.16 C6 17 6 17 3 15 C-0.69 15.38 -0.69 15.38 -4 16 C-4 14.68 -4 13.36 -4 12 C-5.32 12 -6.64 12 -8 12 C-7.12 8.12 -7.12 8.12 -6 7 C-6.76 6.57 -7.53 6.13 -8.31 5.69 C-10.58 4.26 -12.22 2.97 -14 1 C-8.94 -0.75 -5.3 -1.57 0 0 Z " fill="#F4F0EE" transform="translate(89,11)"/>
<path d="M0 0 C6.93 2.57 6.93 2.57 9 7 C11.62 7.75 11.62 7.75 14 8 C14 8.66 14 9.32 14 10 C14.99 10.16 14.99 10.16 20 11 C19.67 11.66 19.34 12.32 19 13 C16.69 12.89 14.37 12.76 12.06 12.62 C10.77 12.56 9.49 12.49 8.16 12.41 C7.64 12.35 7.64 12.35 5 12 C4.67 11.34 4.34 10.68 4 10 C2.68 10 1.36 10 0 10 C0 6.7 0 3.4 0 0 Z " fill="#F3F0EF" transform="translate(294,11)"/>
<path d="M0 0 C1.7 0.25 3.38 0.58 5.06 0.94 C5.98 1.13 6.9 1.33 7.85 1.53 C8.2 1.61 8.2 1.61 10 2 C10 2.99 10 3.98 10 5 C12.5 6.69 12.5 6.69 15 8 C14.69 9.94 14.69 9.94 14 12 C10.23 13.26 8.63 12.37 5 11 C5 10.34 5 9.68 5 9 C4.01 9 3.02 9 2 9 C1.88 7.87 1.75 6.73 1.62 5.56 C1.42 4.39 1.21 3.21 1 2 C0.34 1.67 -0.32 1.34 -1 1 C-0.67 0.67 -0.34 0.34 0 0 Z " fill="#F1EFEF" transform="translate(210,12)"/>
<path d="M0 0 C10.56 0 21.12 0 32 0 C31.67 0.66 31.34 1.32 31 2 C30.18 1.96 29.35 1.92 28.5 1.88 C25 2 25 2 21.62 3 C14.99 4.85 7.82 4.15 1 4 C0.67 2.68 0.34 1.36 0 0 Z " fill="#D7DCE9" transform="translate(0,0)"/>
<path d="M0 0 C2.62 0.94 2.62 0.94 5 2 C5 2.66 5 3.32 5 4 C5.66 4 6.32 4 7 4 C7.33 5.65 7.66 7.3 8 9 C5.69 9 3.38 9 1 9 C1 10.32 1 11.64 1 13 C-0.65 13 -2.3 13 -4 13 C-4.93 9.99 -5.04 9.13 -4 6 C-3.01 6 -2.02 6 -1 6 C-1.33 4.35 -1.66 2.7 -2 1 C-1.34 0.67 -0.68 0.34 0 0 Z " fill="#ECEBED" transform="translate(229,17)"/>
</svg>
