<?xml version="1.0" encoding="UTF-8"?>
<!-- Generator: visioncortex VTracer 0.6.12 -->
<svg version="1.1" xmlns="http://www.w3.org/2000/svg" width="495" height="119">
<path d="M0 0 C3.22 1.32 4.49 2.43 7 5 C7.94 8.31 7.94 8.31 8 11 C8.56 10.73 9.11 10.46 9.69 10.19 C12 10 12 10 14.69 11.88 C17.66 15.9 17.88 19.11 18 24 C18.99 24.33 19.98 24.66 21 25 C20.67 27.97 20.34 30.94 20 34 C21.03 33.48 22.06 32.97 23.12 32.44 C26.8 30.88 29.12 30.74 33 32 C37.58 35.15 37.58 35.15 39 38 C39.23 44.53 39.23 44.53 38 47 C38.99 47 39.98 47 41 47 C43 50 43 50 42.69 52.5 C42.18 54.35 41.61 56.18 41 58 C42.32 58 43.64 58 45 58 C47.25 55.5 47.25 55.5 49 53 C56.55 54.43 56.55 54.43 58.81 57.31 C60 60 60 60 59.19 62.31 C58.8 62.87 58.4 63.43 58 64 C58.36 63.84 58.36 63.84 60.19 63 C63.02 61.99 65.03 61.83 68 62 C68.33 63.32 68.66 64.64 69 66 C70.09 65.94 71.19 65.88 72.31 65.81 C76 66 76 66 78 67.25 C79 69 79 69 78.56 71.11 C78.38 71.73 78.19 72.36 78 73 C69.26 75.38 61.04 76.14 52 76 C53.98 76.66 55.96 77.32 58 78 C58 78.66 58 79.32 58 80 C57.29 80.06 56.58 80.12 55.85 80.18 C54.93 80.27 54.01 80.35 53.06 80.44 C52.6 80.48 52.6 80.48 50.29 80.68 C48 81 48 81 47 82 C45.48 82.07 43.96 82.08 42.44 82.06 C42.02 82.06 42.02 82.06 39.93 82.04 C39.61 82.03 39.61 82.03 38 82 C38 81.34 38 80.68 38 80 C32.49 79.75 32.49 79.75 29.94 81.06 C27.32 82.33 25.73 81.76 23 81 C23 80.34 23 79.68 23 79 C22.05 79.35 21.1 79.7 20.12 80.06 C15.35 81.46 10.85 80.72 6 80 C7.32 80.99 8.64 81.98 10 83 C9.67 83.99 9.34 84.98 9 86 C5.01 85.23 1.05 84.33 -2.91 83.4 C-5 83 -5 83 -8 83 C-10.35 82.04 -12.69 81.05 -15 80 C-14.01 79.34 -13.02 78.68 -12 78 C-12.62 78.01 -12.62 78.01 -15.75 78.06 C-21.53 78.07 -27.25 77.54 -33 77 C-30.56 79.95 -28.62 80.54 -24.89 81.17 C-23.91 81.34 -22.93 81.51 -21.92 81.69 C-20.89 81.85 -19.87 82.02 -18.81 82.19 C-18.29 82.28 -18.29 82.28 -15.67 82.72 C-13.12 83.16 -10.56 83.59 -8 84 C-8 84.66 -8 85.32 -8 86 C-10.91 86.97 -12.69 87.1 -15.71 87.06 C-16.63 87.05 -17.54 87.05 -18.48 87.04 C-20.4 87.01 -22.32 86.99 -24.24 86.96 C-25.16 86.95 -26.08 86.95 -27.02 86.94 C-27.86 86.93 -28.69 86.91 -29.55 86.9 C-32 87 -32 87 -34.48 87.5 C-37.15 88.03 -39.55 88.1 -42.27 88.06 C-43.26 88.05 -44.25 88.05 -45.27 88.04 C-47.33 88.01 -49.39 87.99 -51.45 87.96 C-56.77 87.92 -61.76 88.11 -67 89 C-67.99 89 -68.98 89 -70 89 C-71.06 89.16 -72.12 89.32 -73.21 89.49 C-77.05 90.01 -80.7 90.13 -84.56 90.12 C-85.82 90.13 -87.08 90.13 -88.38 90.13 C-91.68 90.01 -94.76 89.63 -98 89 C-98 88.01 -98 87.02 -98 86 C-98.68 86.17 -99.36 86.33 -100.06 86.5 C-104.39 87.24 -108.46 87.35 -112.75 86.38 C-115 86 -115 86 -118 88 C-117.5 88.33 -117.5 88.33 -115 90 C-115 90.66 -115 91.32 -115 92 C-114.01 91.77 -113.02 91.55 -112 91.31 C-107.39 90.61 -104.2 92.16 -100 94 C-100.33 94.99 -100.66 95.98 -101 97 C-101.82 96.96 -102.65 96.92 -103.5 96.88 C-107 97 -107 97 -110.38 98 C-114.63 99.16 -118.87 99.23 -123.25 99.25 C-123.95 99.26 -124.65 99.27 -125.36 99.28 C-129.07 99.26 -131.85 99.04 -135 97 C-134.67 96.34 -134.34 95.68 -134 95 C-138.38 93.71 -140.75 94.56 -145 96 C-150.62 96.42 -155.6 95.37 -161 94 C-161 93.01 -161 92.02 -161 91 C-159.68 90.67 -158.36 90.34 -157 90 C-160.67 88.82 -164.17 88.93 -168 89 C-168 89.66 -168 90.32 -168 91 C-175.02 92.81 -180.85 93.07 -188 92 C-188.7 91.94 -189.39 91.87 -190.11 91.81 C-192 91.62 -192 91.62 -195 91 C-195.66 90.01 -196.32 89.02 -197 88 C-196.67 87.67 -196.34 87.34 -196 87 C-199.79 86.23 -202.31 86 -206 87 C-207.66 87.26 -209.33 87.49 -211 87.69 C-211.42 87.74 -211.42 87.74 -213.56 88.01 C-216.32 88 -217.58 87.24 -220 86 C-222.45 85.84 -222.45 85.84 -225.12 85.94 C-230.49 86.05 -235.68 85.65 -241 85 C-241 84.01 -241 83.02 -241 82 C-240.04 81.8 -239.07 81.59 -238.08 81.38 C-236.81 81.11 -235.55 80.84 -234.25 80.56 C-233 80.3 -231.74 80.03 -230.45 79.75 C-228.51 79.33 -226.58 78.88 -224.67 78.34 C-223 78 -223 78 -221 79 C-220.86 78.2 -220.71 77.39 -220.56 76.56 C-220 74 -220 74 -219 73 C-214.77 72.76 -211.63 72.68 -208 75 C-207.34 74.34 -206.68 73.68 -206 73 C-206.8 72.67 -207.61 72.34 -208.44 72 C-211.22 69.83 -211.48 69.37 -212.06 66.06 C-212.29 62.85 -212.16 62.23 -210.19 59.5 C-208 58 -208 58 -206 58 C-206.23 57.11 -206.45 56.23 -206.69 55.31 C-207.06 51.36 -206.4 50.08 -204 47 C-200.58 44.72 -199.04 44.65 -195 44.56 C-194.47 44.54 -194.47 44.54 -191.81 44.44 C-189 45 -189 45 -187.11 47.35 C-185.82 50.42 -186.02 51.87 -187 55 C-186.34 55 -185.68 55 -185 55 C-184.67 54.01 -184.34 53.02 -184 52 C-182.35 52 -180.7 52 -179 52 C-178.86 51.38 -178.71 50.76 -178.56 50.12 C-178 48 -178 48 -177 46 C-177.82 46.16 -177.82 46.16 -182 47 C-183.56 45.19 -183.56 45.19 -185 43 C-184.67 42.01 -184.34 41.02 -184 40 C-184.09 39.5 -184.09 39.5 -184.56 37 C-185 34 -185 34 -183 31 C-182.67 29.99 -182.34 28.98 -182 27.94 C-181 25 -181 25 -179 23 C-175.94 22.81 -175.94 22.81 -173 23 C-172.67 23.33 -172.34 23.66 -172 24 C-171.67 22.02 -171.34 20.04 -171 18 C-170.34 18 -169.68 18 -169 18 C-168.92 17.24 -168.83 16.47 -168.75 15.69 C-168 13 -168 13 -166.25 11.19 C-163.63 9.8 -161.92 9.76 -159 10 C-158.67 9.01 -158.34 8.02 -158 7 C-157.67 7.01 -157.67 7.01 -155.99 7.07 C-151.02 7.17 -147.62 6.87 -143 5 C-137.99 5.27 -134.36 6.56 -130 9 C-130 9.66 -130 10.32 -130 11 C-129.44 10.73 -128.89 10.46 -128.31 10.19 C-126 10 -126 10 -123.19 12.19 C-121 15 -121 15 -121.19 17.31 C-121.46 17.87 -121.72 18.43 -122 19 C-121.24 19.31 -120.47 19.62 -119.69 19.94 C-115.86 22.87 -114.99 26.38 -114 31 C-114 32.32 -114 33.64 -114 35 C-112.06 34.69 -112.06 34.69 -110 34 C-109.67 33.01 -109.34 32.02 -109 31 C-108.01 30.84 -108.01 30.84 -103 30 C-102.67 31.65 -102.34 33.3 -102 35 C-98.25 36.12 -98.25 36.12 -96 35 C-97.32 34.34 -98.64 33.68 -100 33 C-100 32.34 -100 31.68 -100 31 C-98.38 30.19 -98.38 30.19 -96 30 C-92.25 32.63 -89.72 34.69 -88 39 C-87.34 39.99 -86.68 40.98 -86 42 C-85.8 44.26 -85.8 44.26 -85.88 46.69 C-85.89 47.5 -85.91 48.3 -85.93 49.14 C-85.95 49.75 -85.98 50.37 -86 51 C-85.48 50.89 -85.48 50.89 -82.88 50.31 C-78.41 49.95 -76.56 50.29 -73 53 C-71.87 57.13 -71.99 59.94 -73 64 C-72.67 64.5 -72.67 64.5 -71 67 C-70.46 66.36 -69.93 65.72 -69.38 65.06 C-66.53 62.59 -64.74 62.16 -61 62 C-60.34 62.66 -59.68 63.32 -59 64 C-57.09 64.05 -57.09 64.05 -54.94 63.75 C-54.22 63.66 -53.51 63.57 -52.78 63.48 C-52.19 63.32 -51.6 63.16 -51 63 C-50.67 62.34 -50.34 61.68 -50 61 C-49.01 60.67 -48.02 60.34 -47 60 C-47.62 58.06 -47.62 58.06 -49 56 C-49.97 55.9 -50.94 55.79 -51.94 55.69 C-52.95 55.46 -53.96 55.23 -55 55 C-57.06 51.54 -58.11 49.23 -57.75 45.19 C-57 43 -57 43 -56 41 C-55.64 39 -55.31 37 -55 35 C-53.68 34.67 -52.36 34.34 -51 34 C-51.07 33.64 -51.07 33.64 -51.44 31.81 C-50.93 28.55 -50.45 28.15 -47.94 26.19 C-44.24 23.8 -41.42 23.41 -37 24 C-36.01 24.66 -35.02 25.32 -34 26 C-34.05 25.67 -34.05 25.67 -34.29 23.99 C-35.42 14.95 -35.42 14.95 -33 11 C-32.34 10.67 -31.68 10.34 -31 10 C-30.86 9.68 -30.86 9.68 -30.12 8.06 C-28.73 5.51 -27.58 5.22 -25 4 C-24.69 3.65 -24.69 3.65 -23.12 1.88 C-21 0 -21 0 -17.88 -0.19 C-16.93 -0.13 -15.98 -0.06 -15 0 C-10.59 -2.2 -4.7 -0.81 0 0 Z M-125 22 C-124 24 -124 24 -124 24 Z M-140 29 C-139.67 29.66 -139.34 30.32 -139 31 C-138.34 30.67 -137.68 30.34 -137 30 C-137.99 29.67 -138.98 29.34 -140 29 Z M5 35 C6 37 6 37 6 37 Z M-95 37 C-95.66 37.66 -96.32 38.32 -97 39 C-96.34 39 -95.68 39 -95 39 C-94.67 39.66 -94.34 40.32 -94 41 C-93.67 39.68 -93.34 38.36 -93 37 C-93.66 37 -94.32 37 -95 37 Z M-155 39 C-155 39.66 -155 40.32 -155 41 C-154.34 40.67 -153.68 40.34 -153 40 C-153.66 39.67 -154.32 39.34 -155 39 Z M-146 42 C-145.01 42.99 -144.02 43.98 -143 45 C-142.34 44.67 -141.68 44.34 -141 44 C-141.33 43.34 -141.66 42.68 -142 42 C-143.32 42 -144.64 42 -146 42 Z M-121 46 C-120.67 47.32 -120.34 48.64 -120 50 C-119.38 49.84 -118.76 49.67 -118.12 49.5 C-116 49 -116 49 -114 49 C-114 48.34 -114 47.68 -114 47 C-116.31 46.67 -118.62 46.34 -121 46 Z M-128 53 C-128.33 53.66 -128.66 54.32 -129 55 C-128.34 55 -127.68 55 -127 55 C-127.33 54.34 -127.66 53.68 -128 53 Z M-94 54 C-93.67 54.66 -93.34 55.32 -93 56 C-92.01 56 -91.02 56 -90 56 C-90 55.34 -90 54.68 -90 54 C-91.32 54 -92.64 54 -94 54 Z M-134 59 C-134 62 -134 62 -134 62 Z M35 69 C35.33 69.66 35.66 70.32 36 71 C36.99 70.67 37.98 70.34 39 70 C37.68 69.67 36.36 69.34 35 69 Z M-40 77 C-39.67 77.66 -39.34 78.32 -39 79 C-38.01 79 -37.02 79 -36 79 C-36 78.34 -36 77.68 -36 77 C-37.32 77 -38.64 77 -40 77 Z M2 79 C3 81 3 81 3 81 Z M-97 85 C-97 85.66 -97 86.32 -97 87 C-95.35 87 -93.7 87 -92 87 C-95.88 85 -95.88 85 -97 85 Z " fill="#E8E2E3" transform="translate(407,11)"/>
<path d="M0 0 C2.31 0 4.62 0 7 0 C7.33 0.66 7.33 0.66 9 4 C8.34 4 7.68 4 7 4 C7 5.98 7 7.96 7 10 C6.01 10.33 5.02 10.66 4 11 C4.16 11.66 4.16 11.66 5 15 C4.34 15 3.68 15 3 15 C2.67 16.32 2.34 17.64 2 19 C1.34 19 0.68 19 0 19 C0 19.66 0 20.32 0 21 C0.99 21.66 1.98 22.32 3 23 C3.48 26.72 3.14 27.79 1 31 C0.34 31 -0.32 31 -1 31 C-1 31.99 -1 32.98 -1 34 C0.32 34 1.64 34 3 34 C3 34.66 3 35.32 3 36 C3.5 36.16 3.5 36.16 6 37 C6.16 38.48 6.16 38.48 7 46 C8.65 46 10.3 46 12 46 C12 46.66 12 47.32 12 48 C12.66 48.33 13.32 48.66 14 49 C13.98 49.74 13.96 50.48 13.94 51.25 C14.07 57.07 14.07 57.07 16 59 C16.41 58.5 16.82 58.01 17.25 57.5 C19.92 55.21 22.62 56 26 56 C26.08 55.24 26.17 54.47 26.25 53.69 C27.17 50.4 28.27 49.9 31 48 C32.25 45.81 32.25 45.81 33 44 C33.16 44.66 33.16 44.66 34 48 C35.98 48 37.96 48 40 48 C40.16 47.67 40.16 47.67 41 46 C41.33 46.66 41.66 47.32 42 48 C43.88 47.69 43.88 47.69 46 47 C46.66 46.01 47.32 45.02 48 44 C48.99 44 49.98 44 51 44 C52.12 48.75 52.12 48.75 51 51 C51.66 51 52.32 51 53 51 C53.66 51.99 54.32 52.98 55 54 C55.58 53.48 56.15 52.97 56.75 52.44 C59 51 59 51 61.12 51.12 C63 52 63 52 65 55 C64.94 57.16 64.94 57.16 64.56 59.5 C64.06 62.65 63.96 63.88 65 67 C64.01 67 63.02 67 62 67 C62 67.99 62 68.98 62 70 C65.55 71.42 68.14 72 72 72 C75.97 72 78.31 72.72 82 74 C84.99 74.45 87.99 74.75 91 75 C91 74.34 91 73.68 91 73 C92.98 73 94.96 73 97 73 C97 72.34 97 71.68 97 71 C98.65 71.29 100.29 71.58 101.94 71.88 C102.85 72.04 103.77 72.2 104.71 72.37 C107.24 72.85 109.72 73.41 112.23 74 C117.26 75.14 122.3 75.62 127.44 76.06 C129.21 76.22 130.98 76.37 132.75 76.54 C133.52 76.6 134.29 76.67 135.08 76.73 C137 77 137 77 139 78 C139 77.34 139 76.68 139 76 C142.63 76.33 146.26 76.66 150 77 C150 77.66 150 78.32 150 79 C147.09 79.97 145.31 80.1 142.29 80.06 C141.37 80.05 140.46 80.05 139.52 80.04 C137.6 80.01 135.68 79.99 133.76 79.96 C132.84 79.95 131.92 79.95 130.98 79.94 C130.14 79.93 129.31 79.91 128.45 79.9 C126 80 126 80 123.52 80.5 C120.85 81.03 118.45 81.1 115.73 81.06 C114.74 81.05 113.75 81.05 112.73 81.04 C110.67 81.01 108.61 80.99 106.55 80.96 C101.23 80.92 96.24 81.11 91 82 C90.01 82 89.02 82 88 82 C86.94 82.16 85.88 82.32 84.79 82.49 C80.95 83.01 77.3 83.13 73.44 83.12 C72.18 83.13 70.92 83.13 69.62 83.13 C66.32 83.01 63.24 82.63 60 82 C60 81.01 60 80.02 60 79 C59.32 79.17 58.64 79.33 57.94 79.5 C53.61 80.24 49.54 80.35 45.25 79.38 C43 79 43 79 40 81 C40.5 81.33 40.5 81.33 43 83 C43 83.66 43 84.32 43 85 C43.99 84.77 44.98 84.55 46 84.31 C50.61 83.61 53.8 85.16 58 87 C57.67 87.99 57.34 88.98 57 90 C56.18 89.96 55.35 89.92 54.5 89.88 C51 90 51 90 47.62 91 C43.37 92.16 39.13 92.23 34.75 92.25 C34.05 92.26 33.35 92.27 32.64 92.28 C28.93 92.26 26.15 92.04 23 90 C23.33 89.34 23.66 88.68 24 88 C19.62 86.71 17.25 87.56 13 89 C7.38 89.42 2.4 88.37 -3 87 C-3 86.01 -3 85.02 -3 84 C-1.68 83.67 -0.36 83.34 1 83 C-2.67 81.82 -6.17 81.93 -10 82 C-10 82.66 -10 83.32 -10 84 C-17.02 85.81 -22.85 86.07 -30 85 C-30.7 84.94 -31.39 84.87 -32.11 84.81 C-34 84.62 -34 84.62 -37 84 C-37.66 83.01 -38.32 82.02 -39 81 C-38.67 80.67 -38.34 80.34 -38 80 C-41.79 79.23 -44.31 79 -48 80 C-49.66 80.26 -51.33 80.49 -53 80.69 C-53.42 80.74 -53.42 80.74 -55.56 81.01 C-58.32 81 -59.58 80.24 -62 79 C-64.45 78.84 -64.45 78.84 -67.12 78.94 C-72.49 79.05 -77.68 78.65 -83 78 C-83 77.01 -83 76.02 -83 75 C-82.04 74.8 -81.07 74.59 -80.08 74.38 C-78.81 74.11 -77.55 73.84 -76.25 73.56 C-75 73.3 -73.74 73.03 -72.45 72.75 C-70.51 72.33 -68.58 71.88 -66.67 71.34 C-65 71 -65 71 -63 72 C-62.86 71.2 -62.71 70.39 -62.56 69.56 C-62 67 -62 67 -61 66 C-56.77 65.76 -53.63 65.68 -50 68 C-49.34 67.34 -48.68 66.68 -48 66 C-48.8 65.67 -49.61 65.34 -50.44 65 C-53.22 62.83 -53.48 62.37 -54.06 59.06 C-54.29 55.85 -54.16 55.23 -52.19 52.5 C-50 51 -50 51 -48 51 C-48.23 50.11 -48.45 49.23 -48.69 48.31 C-49.06 44.36 -48.4 43.08 -46 40 C-42.58 37.72 -41.04 37.65 -37 37.56 C-36.47 37.54 -36.47 37.54 -33.81 37.44 C-31 38 -31 38 -29.11 40.35 C-27.82 43.42 -28.02 44.87 -29 48 C-28.34 48 -27.68 48 -27 48 C-26.67 47.01 -26.34 46.02 -26 45 C-24.35 45 -22.7 45 -21 45 C-20.86 44.38 -20.71 43.76 -20.56 43.12 C-20 41 -20 41 -19 39 C-19.82 39.16 -19.82 39.16 -24 40 C-25.56 38.19 -25.56 38.19 -27 36 C-26.67 35.01 -26.34 34.02 -26 33 C-26.19 32.01 -26.37 31.02 -26.56 30 C-27 27 -27 27 -25 24 C-24.67 22.99 -24.34 21.98 -24 20.94 C-23 18 -23 18 -21 16 C-17.94 15.81 -17.94 15.81 -15 16 C-14.67 16.33 -14.34 16.66 -14 17 C-13.67 15.02 -13.34 13.04 -13 11 C-12.34 11 -11.68 11 -11 11 C-10.92 10.24 -10.83 9.47 -10.75 8.69 C-10 6 -10 6 -8.25 4.19 C-5.63 2.8 -3.92 2.76 -1 3 C-0.67 2.01 -0.34 1.02 0 0 Z M61 78 C61 78.66 61 79.32 61 80 C62.65 80 64.3 80 66 80 C62.12 78 62.12 78 61 78 Z " fill="#DEDCE4" transform="translate(249,18)"/>
<path d="M0 0 C3.85 0.55 5.49 2.1 8 5 C9.27 7.8 9.27 7.8 10.25 10.75 C10.42 11.24 10.42 11.24 11.27 13.73 C11.51 14.48 11.75 15.23 12 16 C12.99 16 13.98 16 15 16 C15.17 16.65 15.34 17.3 15.52 17.98 C17 23.33 18.47 27.67 22 32 C24 32 24 32 27 31 C27.62 31.99 28.24 32.98 28.88 34 C29.23 34.5 29.23 34.5 31 37 C31.66 37 32.32 37 33 37 C34.62 35 34.62 35 36 33 C37.94 33.75 37.94 33.75 40 35 C40.75 37.13 40.75 37.13 41 39 C45.31 37.59 48.01 36.65 50.31 32.62 C51.64 29.77 52.93 26.96 54 24 C54.66 24 55.32 24 56 24 C56.33 24.49 56.33 24.49 58 27 C59.98 22.05 61.96 17.1 64 12 C65.32 12 66.64 12 68 12 C68.12 11.6 68.12 11.6 68.75 9.56 C69.16 8.72 69.57 7.87 70 7 C72.08 6.34 72.08 6.34 74 6 C74.24 6.43 74.24 6.43 75.46 8.62 C76.09 9.74 76.72 10.85 77.38 12 C78 13.11 78.63 14.23 79.27 15.38 C79.84 16.24 80.41 17.11 81 18 C81.66 18 82.32 18 83 18 C83.46 19.02 83.92 20.05 84.39 21.11 C85.01 22.47 85.63 23.83 86.25 25.19 C86.4 25.52 86.4 25.52 87.16 27.23 C89.02 31.28 91.03 34.62 94 38 C94.66 37.01 95.32 36.02 96 35 C96.99 35 97.98 35 99 35 C99.56 36.11 100.11 37.23 100.69 38.38 C102.62 41.81 104.17 42.86 108 44 C108.33 44.66 108.66 45.32 109 46 C109.85 46.5 110.69 46.99 111.56 47.5 C111.96 47.75 111.96 47.75 114 49 C114 49.66 114 50.32 114 51 C112.88 51.09 111.77 51.17 110.62 51.26 C106.49 51.58 102.37 51.9 98.25 52.23 C96.46 52.37 94.67 52.51 92.88 52.64 C90.32 52.84 87.76 53.04 85.19 53.25 C84.39 53.31 83.58 53.37 82.75 53.43 C77.11 53.89 77.11 53.89 76 55 C72.5 55.07 69.01 55 65.52 54.94 C62 55 62 55 59.3 55.56 C57 56 57 56 55.34 55.55 C52.01 54.77 48.69 54.76 45.29 54.68 C44.53 54.66 43.77 54.64 42.99 54.62 C40.54 54.55 38.08 54.5 35.62 54.44 C33.95 54.39 32.27 54.35 30.59 54.31 C18.39 54.01 6.2 53.88 -6 54 C-6.33 53.34 -6.66 52.68 -7 52 C-16.55 50.32 -26.7 50.92 -36.35 51.04 C-36.83 51.04 -36.83 51.04 -39.27 51.06 C-39.7 51.07 -39.7 51.07 -41.88 51.1 C-44 51 -44 51 -46 50 C-48.72 49.93 -51.41 49.91 -54.12 49.94 C-54.5 49.94 -54.5 49.94 -56.41 49.95 C-58.27 49.96 -60.14 49.98 -62 50 C-62.33 49.34 -62.66 48.68 -63 48 C-57.45 45.4 -52.55 43.25 -46.38 42.81 C-44 42 -44 42 -42.44 39 C-41.96 38.01 -41.49 37.02 -41 36 C-38.81 35.12 -38.81 35.12 -37 35 C-36.01 36.32 -35.02 37.64 -34 39 C-31.06 37.75 -31.06 37.75 -28 36 C-27.25 33.88 -27.25 33.88 -27 32 C-26.34 31.67 -25.68 31.34 -25 31 C-23.93 28.93 -23.93 28.93 -22.88 26.44 C-22.7 26.02 -22.7 26.02 -21.8 23.93 C-21.54 23.3 -21.27 22.66 -21 22 C-20.01 22 -19.02 22 -18 22 C-17.84 22.83 -17.84 22.83 -17 27 C-16.34 27 -15.68 27 -15 27 C-14.75 26.34 -14.51 25.68 -14.25 25 C-13.27 22.66 -12.23 20.49 -11.06 18.25 C-9.53 15.28 -8.48 12.4 -7.56 9.19 C-6.54 5.9 -6.26 5.19 -3.38 3.06 C-2.59 2.71 -1.81 2.36 -1 2 C-0.67 1.34 -0.34 0.68 0 0 Z M10 21 C11 24 11 24 11 24 Z M13 21 C14 23 14 23 14 23 Z M81 21 C82 24 82 24 82 24 Z M-5 51 C-1 52 -1 52 -1 52 Z " fill="#BBC2CB" transform="translate(73,29)"/>
<path d="M0 0 C0.85 0.47 1.69 0.95 2.56 1.44 C2.56 2.1 2.56 2.76 2.56 3.44 C3.12 3.17 3.68 2.9 4.25 2.62 C6.56 2.44 6.56 2.44 9.38 4.62 C11.56 7.44 11.56 7.44 11.38 9.75 C11.11 10.31 10.84 10.86 10.56 11.44 C11.33 11.75 12.09 12.06 12.88 12.38 C16.7 15.31 17.58 18.81 18.56 23.44 C18.56 24.76 18.56 26.08 18.56 27.44 C20.5 27.12 20.5 27.12 22.56 26.44 C22.73 25.94 22.73 25.94 23.56 23.44 C25.54 23.11 27.52 22.78 29.56 22.44 C29.73 23.26 29.73 23.26 30.56 27.44 C34.31 28.56 34.31 28.56 36.56 27.44 C35.24 26.78 33.92 26.12 32.56 25.44 C32.56 24.78 32.56 24.12 32.56 23.44 C34.19 22.62 34.19 22.62 36.56 22.44 C40.31 25.06 42.84 27.13 44.56 31.44 C45.22 32.43 45.88 33.42 46.56 34.44 C46.76 36.7 46.76 36.7 46.69 39.12 C46.67 39.93 46.65 40.74 46.63 41.57 C46.61 42.19 46.59 42.8 46.56 43.44 C47.08 43.32 47.08 43.32 49.69 42.75 C54.15 42.39 56 42.73 59.56 45.44 C60.69 49.57 60.58 52.38 59.56 56.44 C60.22 57.43 60.88 58.42 61.56 59.44 C62.1 58.8 62.63 58.16 63.19 57.5 C66.09 54.98 67.73 54.44 71.56 54.44 C73.88 55.81 73.88 55.81 75.56 58.44 C76.18 61.47 76.38 64.33 76.56 67.44 C78.05 67.11 78.05 67.11 85.56 65.44 C87.12 67.81 87.12 67.81 88.56 70.44 C88.23 71.1 87.9 71.76 87.56 72.44 C88.22 72.77 88.88 73.1 89.56 73.44 C87.48 73.3 85.4 73.15 83.31 73 C82.73 72.96 82.73 72.96 79.8 72.75 C77.25 72.51 75 72.16 72.56 71.44 C72.23 72.1 71.9 72.76 71.56 73.44 C69.58 73.11 67.6 72.78 65.56 72.44 C65.56 73.1 65.56 73.76 65.56 74.44 C59.96 74.62 55.13 74.3 49.7 72.94 C47.56 72.44 47.56 72.44 43.75 71.94 C40.89 71.49 39.02 70.91 36.56 69.44 C36.56 68.45 36.56 67.46 36.56 66.44 C37.55 66.44 38.54 66.44 39.56 66.44 C39.21 65.76 38.86 65.08 38.5 64.38 C37.34 60.74 38.01 58.18 38.56 54.44 C37.9 53.45 37.24 52.46 36.56 51.44 C33.63 52.07 31.2 53.02 28.56 54.44 C28.4 53.78 28.4 53.78 27.56 50.44 C26.9 50.44 26.24 50.44 25.56 50.44 C25.56 48.13 25.56 45.82 25.56 43.44 C24.57 43.44 23.58 43.44 22.56 43.44 C22.31 44.08 22.07 44.72 21.81 45.38 C20.56 47.44 20.56 47.44 18.56 48.25 C16.56 48.44 16.56 48.44 14.56 47.44 C13.9 47.6 13.24 47.77 12.56 47.94 C10.56 48.44 10.56 48.44 8.56 47.44 C8.23 46.45 7.9 45.46 7.56 44.44 C7.31 45.04 7.07 45.63 6.81 46.25 C5.56 48.44 5.56 48.44 3.5 49.94 C1.56 51.44 1.56 51.44 1.12 53.5 C0.94 54.14 0.75 54.78 0.56 55.44 C-2 56.69 -2 56.69 -4.44 57.44 C-4.44 56.78 -4.44 56.12 -4.44 55.44 C-5.43 56.26 -5.43 56.26 -10.44 60.44 C-11.55 57.11 -11.83 54.06 -12.16 50.59 C-12.44 48.44 -12.44 48.44 -13.44 45.44 C-15.09 45.44 -16.74 45.44 -18.44 45.44 C-20.44 39.81 -20.44 39.81 -20.44 36.44 C-21.1 36.11 -21.76 35.78 -22.44 35.44 C-22.44 34.78 -22.44 34.12 -22.44 33.44 C-23.76 33.44 -25.08 33.44 -26.44 33.44 C-26.44 32.45 -26.44 31.46 -26.44 30.44 C-25.78 30.44 -25.12 30.44 -24.44 30.44 C-24.11 27.8 -23.78 25.16 -23.44 22.44 C-24.43 21.78 -25.42 21.12 -26.44 20.44 C-25.96 20 -25.49 19.57 -25 19.12 C-23.44 17.44 -23.44 17.44 -22.44 14.44 C-21.78 14.44 -21.12 14.44 -20.44 14.44 C-20.44 13.45 -20.44 12.46 -20.44 11.44 C-21.1 11.11 -21.76 10.78 -22.44 10.44 C-21.12 10.11 -19.8 9.78 -18.44 9.44 C-18.44 7.46 -18.44 5.48 -18.44 3.44 C-17.78 3.44 -17.12 3.44 -16.44 3.44 C-16.77 2.45 -17.1 1.46 -17.44 0.44 C-10.94 -2.88 -6.86 -3.12 0 0 Z M7.56 14.44 C8.56 16.44 8.56 16.44 8.56 16.44 Z M-7.44 21.44 C-7.11 22.1 -6.78 22.76 -6.44 23.44 C-5.78 23.11 -5.12 22.78 -4.44 22.44 C-5.43 22.11 -6.42 21.78 -7.44 21.44 Z M37.56 29.44 C36.9 30.1 36.24 30.76 35.56 31.44 C36.22 31.44 36.88 31.44 37.56 31.44 C37.89 32.1 38.22 32.76 38.56 33.44 C38.89 32.12 39.22 30.8 39.56 29.44 C38.9 29.44 38.24 29.44 37.56 29.44 Z M-22.44 31.44 C-22.44 32.1 -22.44 32.76 -22.44 33.44 C-21.78 33.11 -21.12 32.78 -20.44 32.44 C-21.1 32.11 -21.76 31.78 -22.44 31.44 Z M-13.44 34.44 C-12.45 35.43 -11.46 36.42 -10.44 37.44 C-9.78 37.11 -9.12 36.78 -8.44 36.44 C-8.77 35.78 -9.1 35.12 -9.44 34.44 C-10.76 34.44 -12.08 34.44 -13.44 34.44 Z M11.56 38.44 C11.89 39.76 12.22 41.08 12.56 42.44 C13.18 42.27 13.8 42.11 14.44 41.94 C16.56 41.44 16.56 41.44 18.56 41.44 C18.56 40.78 18.56 40.12 18.56 39.44 C16.25 39.11 13.94 38.78 11.56 38.44 Z M4.56 45.44 C4.23 46.1 3.9 46.76 3.56 47.44 C4.22 47.44 4.88 47.44 5.56 47.44 C5.23 46.78 4.9 46.12 4.56 45.44 Z M38.56 46.44 C38.89 47.1 39.22 47.76 39.56 48.44 C40.55 48.44 41.54 48.44 42.56 48.44 C42.56 47.78 42.56 47.12 42.56 46.44 C41.24 46.44 39.92 46.44 38.56 46.44 Z M-1.44 51.44 C-1.44 54.44 -1.44 54.44 -1.44 54.44 Z " fill="#EEE6E3" transform="translate(274.4375,18.5625)"/>
<path d="M0 0 C3.22 1.32 4.49 2.43 7 5 C7.94 8.31 7.94 8.31 8 11 C8.56 10.73 9.11 10.46 9.69 10.19 C12 10 12 10 14.69 11.88 C17.66 15.9 17.88 19.11 18 24 C18.99 24.33 19.98 24.66 21 25 C20.67 27.97 20.34 30.94 20 34 C21.03 33.48 22.06 32.97 23.12 32.44 C26.8 30.88 29.12 30.74 33 32 C37.58 35.15 37.58 35.15 39 38 C39.23 44.53 39.23 44.53 38 47 C38.99 47 39.98 47 41 47 C43 50 43 50 42.69 52.5 C42.18 54.35 41.61 56.18 41 58 C42.32 58 43.64 58 45 58 C47.25 55.5 47.25 55.5 49 53 C56.54 54.43 56.54 54.43 58.81 57.25 C60 60 60 60 59.19 62.81 C58.99 63.17 58.99 63.17 58 65 C58.5 65.33 58.5 65.33 61 67 C59.69 67.84 58.38 68.67 57.06 69.5 C56.7 69.73 56.7 69.73 54.85 70.91 C53 72 53 72 52 72 C52 69.69 52 67.38 52 65 C50 66.69 50 66.69 48 69 C47.88 71.62 47.88 71.62 48 74 C47.34 74.66 46.68 75.32 46 76 C43.36 75.79 43.36 75.79 40.19 75.19 C39.15 75 38.11 74.8 37.04 74.61 C35.13 74.22 33.21 73.82 31.31 73.39 C29 73 29 73 25.88 73.56 C23 74 23 74 20 72 C19.67 71.01 19.34 70.02 19 69 C17.35 69 15.7 69 14 69 C14 68.34 14 67.68 14 67 C11.69 68.65 9.38 70.3 7 72 C6.83 71.67 6.83 71.67 6 70 C5.67 70.99 5.34 71.98 5 73 C4.34 73 3.68 73 3 73 C2.67 73.66 2.34 74.32 2 75 C0.35 74.34 -1.3 73.68 -3 73 C-1.86 69.59 -0.5 68.5 2 66 C3.04 64.36 4.06 62.7 5 61 C4.34 61 3.68 61 3 61 C3 61.66 3 62.32 3 63 C2.34 63 1.68 63 1 63 C0.67 63.99 0.34 64.98 0 66 C-3.48 62.69 -6.07 59.8 -7 55 C-7.17 54.5 -7.17 54.5 -8 52 C-10.31 52.66 -12.62 53.32 -15 54 C-15.56 52.06 -15.56 52.06 -16 50 C-15 49 -15 49 -12.44 48.94 C-11.63 48.96 -10.83 48.98 -10 49 C-10 47.35 -10 45.7 -10 44 C-10.64 43.75 -11.28 43.51 -11.94 43.25 C-14 42 -14 42 -14.81 40.19 C-15.03 37.61 -14.62 35.5 -14 33 C-15.98 31.68 -17.96 30.36 -20 29 C-19.67 28.01 -19.34 27.02 -19 26 C-18.34 26 -17.68 26 -17 26 C-17 23.69 -17 21.38 -17 19 C-18.32 19 -19.64 19 -21 19 C-21 18.34 -21 17.68 -21 17 C-20.01 16.34 -19.02 15.68 -18 15 C-17.81 12.38 -17.81 12.38 -18 10 C-17.34 10 -16.68 10 -16 10 C-16 8.68 -16 7.36 -16 6 C-15.34 5.34 -14.68 4.68 -14 4 C-14.38 1.88 -14.38 1.88 -15 0 C-10.59 -2.2 -4.7 -0.81 0 0 Z M5 35 C6 37 6 37 6 37 Z M35 69 C35.33 69.66 35.66 70.32 36 71 C36.99 70.67 37.98 70.34 39 70 C37.68 69.67 36.36 69.34 35 69 Z " fill="#F5ECE4" transform="translate(407,11)"/>
<path d="M0 0 C2.31 0 4.62 0 7 0 C7.66 1.32 8.32 2.64 9 4 C8.34 4 7.68 4 7 4 C7 5.98 7 7.96 7 10 C6.01 10.33 5.02 10.66 4 11 C4.16 11.66 4.16 11.66 5 15 C4.34 15 3.68 15 3 15 C2.67 16.32 2.34 17.64 2 19 C1.34 19 0.68 19 0 19 C0 19.66 0 20.32 0 21 C0.99 21.66 1.98 22.32 3 23 C3.48 26.72 3.14 27.79 1 31 C0.34 31 -0.32 31 -1 31 C-1 31.99 -1 32.98 -1 34 C0.32 34 1.64 34 3 34 C3 34.66 3 35.32 3 36 C3.99 36.33 4.98 36.66 6 37 C6.16 38.48 6.16 38.48 7 46 C8.32 46.33 9.64 46.66 11 47 C10.93 47.31 10.93 47.31 10.56 48.9 C10.38 49.72 10.19 50.53 10 51.38 C9.91 51.78 9.91 51.78 9.44 53.84 C9 56 9 56 9 58 C5.12 56.25 5.12 56.25 4 54 C1.36 54.33 -1.28 54.66 -4 55 C-4 55.99 -4 56.98 -4 58 C-5.98 58 -7.96 58 -10 58 C-10.21 59.07 -10.41 60.15 -10.62 61.25 C-12 65 -12 65 -14.56 67.44 C-18.89 69.4 -22.33 69.37 -27 69 C-26.67 70.32 -26.34 71.64 -26 73 C-26.78 72.96 -27.57 72.92 -28.38 72.88 C-31 73 -31 73 -33 75 C-33.33 74.01 -33.66 73.02 -34 72 C-40.56 71.63 -40.56 71.63 -42.69 73.44 C-42.9 73.7 -42.9 73.7 -44 75 C-46 75.88 -46 75.88 -48 76 C-49.75 74.56 -49.75 74.56 -51 73 C-50.01 70.69 -49.02 68.38 -48 66 C-48.8 65.67 -49.61 65.34 -50.44 65 C-53.22 62.83 -53.48 62.37 -54.06 59.06 C-54.29 55.85 -54.16 55.23 -52.19 52.5 C-50 51 -50 51 -48 51 C-48.23 50.11 -48.45 49.23 -48.69 48.31 C-49.06 44.36 -48.4 43.08 -46 40 C-42.58 37.72 -41.04 37.65 -37 37.56 C-36.47 37.54 -36.47 37.54 -33.81 37.44 C-31 38 -31 38 -29.11 40.35 C-27.82 43.42 -28.02 44.87 -29 48 C-28.34 48 -27.68 48 -27 48 C-26.67 47.01 -26.34 46.02 -26 45 C-24.35 45 -22.7 45 -21 45 C-20.86 44.38 -20.71 43.76 -20.56 43.12 C-20 41 -20 41 -19 39 C-19.82 39.16 -19.82 39.16 -24 40 C-25.56 38.19 -25.56 38.19 -27 36 C-26.67 35.01 -26.34 34.02 -26 33 C-26.19 32.01 -26.37 31.02 -26.56 30 C-27 27 -27 27 -25 24 C-24.67 22.99 -24.34 21.98 -24 20.94 C-23 18 -23 18 -21 16 C-17.94 15.81 -17.94 15.81 -15 16 C-14.67 16.33 -14.34 16.66 -14 17 C-13.67 15.02 -13.34 13.04 -13 11 C-12.34 11 -11.68 11 -11 11 C-10.92 10.24 -10.84 9.47 -10.75 8.69 C-10 6 -10 6 -8.25 4.19 C-5.63 2.8 -3.92 2.76 -1 3 C-0.67 2.01 -0.34 1.02 0 0 Z " fill="#D9D8E2" transform="translate(249,18)"/>
<path d="M0 0 C3.85 0.55 5.49 2.1 8 5 C9.27 7.8 9.27 7.8 10.25 10.75 C10.42 11.24 10.42 11.24 11.27 13.73 C11.51 14.48 11.75 15.23 12 16 C12.99 16 13.98 16 15 16 C15.17 16.65 15.34 17.3 15.52 17.98 C17 23.33 18.47 27.67 22 32 C24 32 24 32 27 31 C27.62 31.95 28.24 32.9 28.88 33.88 C31 37 31 37 33 39 C33 39.99 33 40.98 33 42 C31.35 41.67 29.7 41.34 28 41 C27.67 42.65 27.34 44.3 27 46 C25.35 46.33 23.7 46.66 22 47 C22 46.01 22 45.02 22 44 C21.34 44 20.68 44 20 44 C19.67 44.99 19.34 45.98 19 47 C18.22 46.94 17.43 46.88 16.62 46.81 C16.19 46.84 16.19 46.84 14 47 C13.34 47.99 12.68 48.98 12 50 C9.84 50.29 9.84 50.29 7.38 50.19 C6.56 50.16 5.74 50.13 4.9 50.11 C4.27 50.07 3.65 50.04 3 50 C3 50.66 3 51.32 3 52 C0.36 51.67 -2.28 51.34 -5 51 C-5 51.66 -5 52.32 -5 53 C1.93 53 8.86 53 16 53 C16 53.33 16 53.66 16 54 C8.74 54 1.48 54 -6 54 C-6.33 53.34 -6.66 52.68 -7 52 C-16.55 50.32 -26.7 50.92 -36.35 51.04 C-36.83 51.04 -36.83 51.04 -39.27 51.06 C-39.7 51.07 -39.7 51.07 -41.88 51.1 C-44 51 -44 51 -46 50 C-48.72 49.93 -51.41 49.91 -54.12 49.94 C-54.5 49.94 -54.5 49.94 -56.41 49.95 C-58.27 49.96 -60.14 49.98 -62 50 C-62.33 49.34 -62.66 48.68 -63 48 C-57.45 45.4 -52.55 43.25 -46.38 42.81 C-44 42 -44 42 -42.44 39 C-41.96 38.01 -41.49 37.02 -41 36 C-38.81 35.12 -38.81 35.12 -37 35 C-36.01 36.32 -35.02 37.64 -34 39 C-31.06 37.75 -31.06 37.75 -28 36 C-27.25 33.88 -27.25 33.88 -27 32 C-26.34 31.67 -25.68 31.34 -25 31 C-23.93 28.93 -23.93 28.93 -22.88 26.44 C-22.7 26.02 -22.7 26.02 -21.8 23.93 C-21.54 23.3 -21.27 22.66 -21 22 C-20.01 22 -19.02 22 -18 22 C-17.84 22.83 -17.84 22.83 -17 27 C-16.34 27 -15.68 27 -15 27 C-14.75 26.34 -14.51 25.68 -14.25 25 C-13.27 22.66 -12.23 20.49 -11.06 18.25 C-9.53 15.28 -8.48 12.4 -7.56 9.19 C-6.54 5.9 -6.26 5.19 -3.38 3.06 C-2.59 2.71 -1.81 2.36 -1 2 C-0.67 1.34 -0.34 0.68 0 0 Z M10 21 C11 24 11 24 11 24 Z M13 21 C14 23 14 23 14 23 Z " fill="#D5D7DD" transform="translate(73,29)"/>
<path d="M0 0 C1.32 0.33 2.64 0.66 4 1 C4 1.66 4 2.32 4 3 C4.6 2.65 5.2 2.3 5.81 1.94 C8 1 8 1 11 2 C12.34 2.65 13.68 3.32 15 4 C14.67 4.99 14.34 5.98 14 7 C12.68 6.67 11.36 6.34 10 6 C10.33 6.66 10.66 7.32 11 8 C12.65 8 14.3 8 16 8 C16 7.34 16 6.68 16 6 C17.48 5.81 18.96 5.62 20.44 5.44 C21.26 5.33 22.08 5.23 22.93 5.12 C23.27 5.1 23.27 5.1 25 5 C25.17 5.17 25.17 5.17 26 6 C26.33 4.68 26.66 3.36 27 2 C25.68 2 24.36 2 23 2 C23 1.34 23 0.68 23 0 C24.65 0 26.3 0 28 0 C28.17 0.5 28.17 0.5 29 3 C29.6 3.1 30.2 3.21 30.81 3.31 C33 4 33 4 34.69 6.94 C37.6 10.79 39.58 11.02 44.17 11.77 C44.78 11.85 45.38 11.92 46 12 C45.83 11.5 45.83 11.5 45 9 C45.99 9.33 46.98 9.66 48 10 C48 10.66 48 11.32 48 12 C51.01 12.93 51.87 13.04 55 12 C55.69 9.94 55.69 9.94 56 8 C56.33 8.33 56.33 8.33 58 10 C58.52 9.32 59.03 8.64 59.56 7.94 C62 6 62 6 65.62 6 C69 7 69 7 70.19 9 C70.32 9.33 70.32 9.33 71 11 C73.77 12.38 76.22 11.9 79.19 11.5 C80.45 11.34 81.7 11.17 83 11 C83.16 11.16 83.16 11.16 84 12 C85.99 12.26 87.99 12.52 89.99 12.75 C92.05 13.01 94.01 13.42 96 14 C97 11 97 11 97.44 9 C98 7 98 7 100 4 C100.66 4 101.32 4 102 4 C102.16 4.99 102.16 4.99 103 10 C105.31 8.68 107.62 7.36 110 6 C109.01 5.01 108.02 4.02 107 3 C110.82 1.58 113.91 0.76 118 1 C118.16 1.66 118.16 1.66 119 5 C120.09 4.94 121.19 4.88 122.31 4.81 C126 5 126 5 128 6.25 C129 8 129 8 128.56 10.11 C128.38 10.73 128.19 11.36 128 12 C119.26 14.38 111.04 15.14 102 15 C103.98 15.66 105.96 16.32 108 17 C108 17.66 108 18.32 108 19 C107.29 19.06 106.58 19.12 105.85 19.18 C105.39 19.23 105.39 19.23 103.06 19.44 C102.15 19.52 101.23 19.6 100.29 19.68 C98 20 98 20 97 21 C95.48 21.07 93.96 21.08 92.44 21.06 C91.61 21.05 90.78 21.04 89.93 21.04 C89.61 21.03 89.61 21.03 88 21 C88 20.34 88 19.68 88 19 C82.49 18.75 82.49 18.75 79.94 20.06 C77.32 21.33 75.73 20.76 73 20 C73 19.34 73 18.68 73 18 C72.05 18.35 71.1 18.7 70.12 19.06 C65.35 20.46 60.85 19.72 56 19 C57.32 19.99 58.64 20.98 60 22 C59.84 22.5 59.84 22.5 59 25 C55.01 24.23 51.05 23.33 47.09 22.4 C45 22 45 22 42 22 C39.65 21.04 37.31 20.05 35 19 C35.99 18.34 36.98 17.68 38 17 C36.76 17.02 35.52 17.04 34.25 17.06 C28.47 17.07 22.75 16.54 17 16 C19.6 19.33 22.11 19.62 26.19 20.19 C26.73 20.27 26.73 20.27 29.48 20.67 C29.9 20.72 29.9 20.72 32 21 C31.83 21.5 31.83 21.5 31 24 C27.39 23.72 23.79 23.43 20.19 23.12 C19.68 23.09 19.68 23.09 17.08 22.89 C16.1 22.8 15.12 22.72 14.11 22.63 C13.65 22.6 13.65 22.6 11.36 22.41 C9 22 9 22 6 20 C4.93 17.7 3.92 15.37 3 13 C1.51 13.16 1.51 13.16 -6 14 C-7.76 7.16 -7.76 7.16 -8 5 C-6 3 -6 3 -3.44 2.5 C-2.63 2.33 -1.83 2.17 -1 2 C-0.67 1.34 -0.34 0.68 0 0 Z M10 16 C10.33 16.66 10.66 17.32 11 18 C11.99 18 12.98 18 14 18 C14 17.34 14 16.68 14 16 C12.68 16 11.36 16 10 16 Z M52 18 C53 20 53 20 53 20 Z " fill="#E5E2E6" transform="translate(357,72)"/>
<path d="M0 0 C2.31 0 4.62 0 7 0 C7.66 1.32 8.32 2.64 9 4 C8.34 4 7.68 4 7 4 C7 5.98 7 7.96 7 10 C6.01 10.33 5.02 10.66 4 11 C4.33 12.32 4.66 13.64 5 15 C4.34 15 3.68 15 3 15 C2.67 16.32 2.34 17.64 2 19 C1.34 19 0.68 19 0 19 C0 19.66 0 20.32 0 21 C0.99 21.66 1.98 22.32 3 23 C3.48 26.72 3.14 27.79 1 31 C0.34 31 -0.32 31 -1 31 C-1 31.99 -1 32.98 -1 34 C0.32 34.33 1.64 34.66 3 35 C2.34 35 1.68 35 1 35 C1.38 37.94 1.38 37.94 2 41 C2.66 41.33 3.32 41.66 4 42 C4.56 43.81 4.56 43.81 5 46 C5.19 46.74 5.37 47.48 5.56 48.25 C5.71 48.83 5.85 49.41 6 50 C1.25 51 1.25 51 -1 51 C-1.16 50.17 -1.16 50.17 -2 46 C-3.32 46 -4.64 46 -6 46 C-5.79 46.62 -5.59 47.24 -5.38 47.88 C-5.25 48.58 -5.13 49.28 -5 50 C-5.66 50.66 -6.32 51.32 -7 52 C-9 50 -9 50 -9.12 46.38 C-9.08 45.26 -9.04 44.15 -9 43 C-8.5 42.84 -8.5 42.84 -6 42 C-6.75 37.25 -6.75 37.25 -9 35 C-9.33 36.65 -9.66 38.3 -10 40 C-11.32 40 -12.64 40 -14 40 C-14 40.66 -14 41.32 -14 42 C-16 41 -16 41 -17 40 C-17.33 40.66 -17.66 41.32 -18 42 C-18.66 41.67 -19.32 41.34 -20 41 C-19.67 40.34 -19.34 39.68 -19 39 C-19.82 39.16 -19.82 39.16 -24 40 C-25.56 38.19 -25.56 38.19 -27 36 C-26.67 35.01 -26.34 34.02 -26 33 C-26.19 32.01 -26.37 31.02 -26.56 30 C-27 27 -27 27 -25 24 C-24.67 22.99 -24.34 21.98 -24 20.94 C-23 18 -23 18 -21 16 C-17.94 15.81 -17.94 15.81 -15 16 C-14.67 16.33 -14.34 16.66 -14 17 C-13.67 15.02 -13.34 13.04 -13 11 C-12.34 11 -11.68 11 -11 11 C-10.92 10.24 -10.84 9.47 -10.75 8.69 C-10 6 -10 6 -8.25 4.19 C-5.63 2.8 -3.92 2.76 -1 3 C-0.67 2.01 -0.34 1.02 0 0 Z " fill="#E1DADF" transform="translate(249,18)"/>
<path d="M0 0 C0.85 0.47 1.69 0.95 2.56 1.44 C2.56 2.1 2.56 2.76 2.56 3.44 C3.12 3.17 3.68 2.9 4.25 2.62 C6.56 2.44 6.56 2.44 9.38 4.62 C11.56 7.44 11.56 7.44 11.38 9.75 C11.11 10.31 10.84 10.86 10.56 11.44 C11.88 12.1 13.2 12.76 14.56 13.44 C14.23 14.1 13.9 14.76 13.56 15.44 C14.08 16.39 14.59 17.34 15.12 18.31 C16.56 21.44 16.56 21.44 15.88 23.75 C14.56 25.44 14.56 25.44 12.56 26.44 C12.56 25.78 12.56 25.12 12.56 24.44 C11.57 25.1 10.58 25.76 9.56 26.44 C10.44 32.19 10.44 32.19 11.56 34.44 C12.39 34.27 12.39 34.27 16.56 33.44 C16.56 34.76 16.56 36.08 16.56 37.44 C18.73 36.93 20.56 36.44 22.56 35.44 C22.23 36.76 21.9 38.08 21.56 39.44 C20.9 39.44 20.24 39.44 19.56 39.44 C19.4 39.77 19.4 39.77 18.56 41.44 C18.56 40.78 18.56 40.12 18.56 39.44 C16.25 39.11 13.94 38.78 11.56 38.44 C11.73 39.26 11.73 39.26 12.56 43.44 C11.9 43.44 11.24 43.44 10.56 43.44 C10.56 42.12 10.56 40.8 10.56 39.44 C8.25 39.44 5.94 39.44 3.56 39.44 C3.56 38.45 3.56 37.46 3.56 36.44 C4.22 36.44 4.88 36.44 5.56 36.44 C5.23 35.12 4.9 33.8 4.56 32.44 C2.58 32.44 0.6 32.44 -1.44 32.44 C-2.1 34.42 -2.76 36.4 -3.44 38.44 C-2.78 38.44 -2.12 38.44 -1.44 38.44 C-2.59 40.91 -3.49 42.49 -5.44 44.44 C-6.1 44.11 -6.76 43.78 -7.44 43.44 C-7.44 42.45 -7.44 41.46 -7.44 40.44 C-8.43 40.44 -9.42 40.44 -10.44 40.44 C-10.11 38.46 -9.78 36.48 -9.44 34.44 C-11.09 35.1 -12.74 35.76 -14.44 36.44 C-14.44 35.45 -14.44 34.46 -14.44 33.44 C-11.15 32.64 -9.73 32.34 -6.44 33.44 C-5.45 31.13 -4.46 28.82 -3.44 26.44 C-4.43 26.44 -5.42 26.44 -6.44 26.44 C-8.62 24.56 -8.62 24.56 -10.44 22.44 C-10.44 21.78 -10.44 21.12 -10.44 20.44 C-11.1 20.44 -11.76 20.44 -12.44 20.44 C-11.69 14.69 -11.69 14.69 -9.44 12.44 C-9.44 11.78 -9.44 11.12 -9.44 10.44 C-9.44 9.12 -9.44 7.8 -9.44 6.44 C-12.69 7 -14.44 7.77 -16.44 10.44 C-17.12 13.13 -17.12 13.13 -17.44 15.44 C-16.45 15.77 -15.46 16.1 -14.44 16.44 C-14.81 19.16 -15.28 20.28 -17.25 22.25 C-19.44 23.44 -19.44 23.44 -21.5 23.25 C-23.44 22.44 -23.44 22.44 -26.44 20.44 C-25.96 20 -25.49 19.57 -25 19.12 C-23.44 17.44 -23.44 17.44 -22.44 14.44 C-21.78 14.44 -21.12 14.44 -20.44 14.44 C-20.44 13.45 -20.44 12.46 -20.44 11.44 C-21.1 11.11 -21.76 10.78 -22.44 10.44 C-21.12 10.11 -19.8 9.78 -18.44 9.44 C-18.44 7.46 -18.44 5.48 -18.44 3.44 C-17.78 3.44 -17.12 3.44 -16.44 3.44 C-16.77 2.45 -17.1 1.46 -17.44 0.44 C-10.94 -2.88 -6.86 -3.12 0 0 Z M7.56 14.44 C8.56 16.44 8.56 16.44 8.56 16.44 Z M-7.44 21.44 C-7.11 22.1 -6.78 22.76 -6.44 23.44 C-5.78 23.11 -5.12 22.78 -4.44 22.44 C-5.43 22.11 -6.42 21.78 -7.44 21.44 Z " fill="#FBF5EA" transform="translate(274.4375,18.5625)"/>
<path d="M0 0 C3.16 1.37 3.99 1.99 6 5 C6.41 7.26 6.41 7.26 6.62 9.69 C6.7 10.5 6.77 11.3 6.85 12.14 C6.88 12.44 6.88 12.44 7 14 C7.99 14.33 8.98 14.66 10 15 C9.86 16.63 9.71 18.25 9.56 19.88 C9.48 20.78 9.4 21.68 9.32 22.62 C9 25 9 25 8 27 C8.66 27.99 9.32 28.98 10 30 C9.62 32.19 9.62 32.19 9 34 C8.57 33.53 8.13 33.05 7.69 32.56 C6 31 6 31 3 30 C4.07 32.59 4.76 33.84 7.12 35.44 C9 37 9 37 9.25 39.69 C9.17 40.45 9.08 41.21 9 42 C9.66 42 10.32 42 11 42 C11 41.34 11 40.68 11 40 C11.66 40 12.32 40 13 40 C13 39.34 13 38.68 13 38 C14.32 38.33 15.64 38.66 17 39 C15.76 42.44 14.44 45.25 12 48 C11.34 48 10.68 48 10 48 C10 49.65 10 51.3 10 53 C9.18 53.16 9.18 53.16 5 54 C2.43 50.15 1.14 46.48 0 42 C-0.66 42 -1.32 42 -2 42 C-2.66 39.36 -3.32 36.72 -4 34 C-7.11 34 -9.11 34.17 -12 35 C-11.37 30.31 -11.37 30.31 -9.44 28.69 C-7.01 25.83 -7.82 22.63 -8 19 C-9.32 19.33 -10.64 19.66 -12 20 C-12.05 20.63 -12.1 21.25 -12.15 21.9 C-12.22 22.72 -12.3 23.53 -12.38 24.38 C-12.44 25.19 -12.51 26 -12.59 26.84 C-13 29 -13 29 -15 31 C-16.08 28.35 -17.09 25.72 -18 23 C-17.53 22.13 -17.05 21.27 -16.56 20.38 C-14.58 16.09 -14.72 12.64 -15 8 C-15.66 8 -16.32 8 -17 8 C-17.33 5.69 -17.66 3.38 -18 1 C-17.49 1.08 -17.49 1.08 -14.94 1.5 C-11 2 -11 2 -7.12 2 C-6.09 2 -5.06 2 -4 2 C-3 3 -3 3 -2.94 5.56 C-2.96 6.37 -2.98 7.17 -3 8 C-2.34 7.67 -1.68 7.34 -1 7 C-1.02 6.03 -1.04 5.06 -1.06 4.06 C-1 1 -1 1 0 0 Z M-6 25 C-5 27 -5 27 -5 27 Z " fill="#FCF6EC" transform="translate(418,21)"/>
<path d="M0 0 C11 2 11 2 13.88 4.88 C14.98 6.97 15.51 8.69 16 11 C16.37 11.83 16.74 12.65 17.12 13.5 C18.08 16.22 17.98 17.35 17 20 C17.99 20 18.98 20 20 20 C20.16 20.33 20.16 20.33 21 22 C21.99 22 22.98 22 24 22 C24.16 21.5 24.16 21.5 25 19 C27.62 17.23 29.43 16.93 32.55 17.32 C35.06 17.82 37.53 18.38 40 19 C40.66 21.31 41.32 23.62 42 26 C21.87 26 1.74 26 -19 26 C-19 24.35 -19 22.7 -19 21 C-17.68 21.33 -16.36 21.66 -15 22 C-13 19 -13 19 -13.38 16.5 C-13.58 15.67 -13.79 14.85 -14 14 C-14 10.19 -12.96 8.25 -11 5 C-8.62 3.06 -8.62 3.06 -6 2 C-3.19 2.31 -3.19 2.31 -1 3 C-0.67 2.01 -0.34 1.02 0 0 Z M1 11 C1.66 11.33 1.66 11.33 5 13 C5 12.34 5 11.68 5 11 C3.68 11 2.36 11 1 11 Z " fill="#F2EDEB" transform="translate(19,93)"/>
<path d="M0 0 C3.85 0.55 5.49 2.1 8 5 C9.27 7.8 9.27 7.8 10.25 10.75 C10.59 11.73 10.92 12.72 11.27 13.73 C11.39 14.11 11.39 14.11 12 16 C12.99 16 13.98 16 15 16 C15.17 16.65 15.34 17.3 15.52 17.98 C17 23.33 18.47 27.67 22 32 C24 32 24 32 27 31 C27.31 31.47 27.31 31.47 28.88 33.88 C31 37 31 37 33 39 C33 39.99 33 40.98 33 42 C31.35 41.67 29.7 41.34 28 41 C27.67 42.65 27.34 44.3 27 46 C26.17 46.16 26.17 46.16 22 47 C22 46.01 22 45.02 22 44 C21.34 44 20.68 44 20 44 C19.67 44.99 19.34 45.98 19 47 C18.22 46.94 17.43 46.88 16.62 46.81 C16.19 46.84 16.19 46.84 14 47 C13.34 47.99 12.68 48.98 12 50 C9.84 50.29 9.84 50.29 7.38 50.19 C6.56 50.16 5.74 50.13 4.9 50.11 C4.27 50.07 3.65 50.04 3 50 C3 50.66 3 51.32 3 52 C0.36 51.67 -2.28 51.34 -5 51 C-5 51.66 -5 52.32 -5 53 C1.93 53 8.86 53 16 53 C16 53.33 16 53.66 16 54 C8.74 54 1.48 54 -6 54 C-6.33 53.34 -6.66 52.68 -7 52 C-9.32 51.59 -11.66 51.26 -14 51 C-14 50.67 -14 50.34 -14 50 C-12.89 49.94 -11.78 49.88 -10.64 49.82 C-9.18 49.73 -7.71 49.65 -6.25 49.56 C-5.52 49.52 -4.79 49.48 -4.04 49.44 C-0.57 49.24 2.65 48.91 6 48 C4.89 44.66 3.53 43.36 1 41 C1.33 40.84 1.33 40.84 3 40 C2.67 39.01 2.34 38.02 2 37 C3 34 3 34 4.75 33 C7 33 7 33 9.69 35.38 C10.45 36.24 11.21 37.11 12 38 C13.97 39.97 17.35 39.66 20 40 C20 39.01 20 38.02 20 37 C19.42 37.25 18.84 37.5 18.25 37.75 C16 38 16 38 13.81 36.62 C11.26 32.92 11.19 29.41 11 25 C11.99 25.33 12.98 25.66 14 26 C13.01 25.01 12.02 24.02 11 23 C10.34 23.33 9.68 23.66 9 24 C8.34 23.67 7.68 23.34 7 23 C7 23.66 7 24.32 7 25 C6.34 25 5.68 25 5 25 C5 27.31 5 29.62 5 32 C2 31 2 31 0 28 C0 27.01 0 26.02 0 25 C0.99 25 1.98 25 3 25 C3 24.01 3 23.02 3 22 C2.01 22 1.02 22 0 22 C-2.98 16.04 -1.2 6.45 0 0 Z M13 21 C14 23 14 23 14 23 Z " fill="#E4E3E1" transform="translate(73,29)"/>
<path d="M0 0 C0 2 0 2 -1.5 3.62 C-2 4.08 -2.49 4.53 -3 5 C-1.68 5 -0.36 5 1 5 C1.33 6.32 1.66 7.64 2 9 C3.98 9 5.96 9 8 9 C7.77 9.93 7.55 10.86 7.31 11.81 C7 15 7 15 8.44 16.88 C8.95 17.25 9.47 17.62 10 18 C10.12 17.38 10.25 16.76 10.38 16.12 C11 14 11 14 13 12 C16 12 16 12 18.69 14.31 C21 17 21 17 21 20 C19.87 20.29 18.73 20.58 17.56 20.88 C16.39 21.25 15.21 21.62 14 22 C13.67 22.66 13.34 23.32 13 24 C13.52 24.12 14.03 24.25 14.56 24.38 C16.5 24.87 18.41 25.45 20.31 26.06 C24 27 24 27 27.69 26.75 C28.78 26.83 29.87 26.91 31 27 C33.31 29.94 33.31 29.94 35 33 C35.33 33.16 35.33 33.16 37 34 C37 34.66 37 35.32 37 36 C36.67 36.16 36.67 36.16 35 37 C35 37.66 35 38.32 35 39 C26.83 38.81 26.83 38.81 23.5 35.56 C22.62 34.07 21.78 32.55 21 31 C20.01 30.67 19.02 30.34 18 30 C17.67 29.34 17.34 28.68 17 28 C14.44 27.38 14.44 27.38 12 27 C12 27.66 12 28.32 12 29 C13.32 29 14.64 29 16 29 C16 30.65 16 32.3 16 34 C15.3 33.84 14.6 33.67 13.88 33.5 C10.86 32.98 8.05 32.93 5 33 C5 33.66 5 34.32 5 35 C4.18 35.16 4.18 35.16 0 36 C-0.17 35.5 -0.17 35.5 -1 33 C0.32 33 1.64 33 3 33 C3 32.34 3 31.68 3 31 C-0.84 29.52 -3.06 28.78 -7 30 C-7.13 29.26 -7.27 28.53 -7.4 27.77 C-7.49 27.28 -7.49 27.28 -7.94 24.81 C-8.11 23.85 -8.29 22.89 -8.46 21.89 C-8.82 20 -9.21 18.1 -9.65 16.22 C-9.77 15.49 -9.88 14.76 -10 14 C-9 13 -8 12 -7 11 C-6.86 9.87 -6.71 8.73 -6.56 7.56 C-5.94 3.61 -4.53 0 0 0 Z " fill="#D7D8E3" transform="translate(368,45)"/>
<path d="M0 0 C0.48 0.01 0.48 0.01 2.94 0.06 C3.27 1.05 3.6 2.04 3.94 3.06 C5.92 3.39 5.92 3.39 15.94 5.06 C11.19 9.06 11.19 9.06 8.94 9.06 C9.27 10.05 9.6 11.04 9.94 12.06 C9.61 12.72 9.28 13.38 8.94 14.06 C9.43 14.39 9.43 14.39 11.94 16.06 C11.94 16.72 11.94 17.38 11.94 18.06 C12.93 17.84 13.92 17.61 14.94 17.38 C19.55 16.68 22.74 18.22 26.94 20.06 C26.77 20.56 26.77 20.56 25.94 23.06 C25.52 23.04 25.52 23.04 23.44 22.94 C19.94 23.06 19.94 23.06 16.56 24.06 C12.31 25.22 8.07 25.29 3.69 25.31 C2.99 25.32 2.29 25.33 1.57 25.34 C-2.13 25.32 -4.92 25.11 -8.06 23.06 C-7.73 22.4 -7.4 21.74 -7.06 21.06 C-7.69 20.86 -8.32 20.65 -8.96 20.44 C-9.78 20.17 -10.6 19.9 -11.44 19.62 C-12.25 19.36 -13.06 19.09 -13.9 18.82 C-16.06 18.06 -16.06 18.06 -18.06 17.06 C-18.79 14.75 -19.46 12.41 -20.06 10.06 C-18.74 8.74 -17.42 7.42 -16.06 6.06 C-17.05 5.9 -17.05 5.9 -22.06 5.06 C-21.73 3.74 -21.4 2.42 -21.06 1.06 C-19.85 1.07 -18.63 1.09 -17.38 1.1 C-15.79 1.11 -14.21 1.12 -12.62 1.12 C-11.82 1.13 -11.02 1.14 -10.19 1.15 C-8.15 1.16 -6.11 1.11 -4.06 1.06 C-3.06 0.06 -3.06 0.06 0 0 Z " fill="#C5CEE2" transform="translate(280.0625,84.9375)"/>
<path d="M0 0 C4.74 1.9 7.95 4.31 10 9 C10.33 9.5 10.33 9.5 12 12 C12.2 14.26 12.2 14.26 12.12 16.69 C12.11 17.5 12.09 18.3 12.07 19.14 C12.05 19.75 12.02 20.37 12 21 C12.52 20.89 12.52 20.89 15.12 20.31 C19.59 19.95 21.44 20.29 25 23 C26.04 26.83 26.61 30.29 25 34 C23.25 36.75 23.25 36.75 21 39 C18.25 39.31 18.25 39.31 16 39 C16 38.34 16 37.68 16 37 C15.01 37 14.02 37 13 37 C12.67 34.69 12.34 32.38 12 30 C10.02 29.67 8.04 29.34 6 29 C6.33 29.99 6.66 30.98 7 32 C7.04 34.33 7.04 36.67 7 39 C6.34 39.16 6.34 39.16 3 40 C3.33 38.01 3.65 36.03 3.98 34.04 C4 32 4 32 2 29 C-0.93 29.63 -3.36 30.59 -6 32 C-6.33 30.68 -6.66 29.36 -7 28 C-7.66 28 -8.32 28 -9 28 C-8.34 26.68 -7.68 25.36 -7 24 C-6.34 24 -5.68 24 -5 24 C-3.16 20.22 -2.84 18.05 -4 14 C-5.32 14 -6.64 14 -8 14 C-8.33 14 -8.66 14 -9 14 C-9 12.35 -9 10.7 -9 9 C-7.35 9 -5.7 9 -4 9 C-4.33 7.68 -4.66 6.36 -5 5 C-2.69 5.33 -0.38 5.66 2 6 C2 5.34 2 4.68 2 4 C0.68 3.67 -0.64 3.34 -2 3 C-2 2.34 -2 1.68 -2 1 C-1.34 0.67 -0.68 0.34 0 0 Z M3 7 C2.34 7.66 1.68 8.32 1 9 C1.66 9 2.32 9 3 9 C3.33 9.66 3.66 10.32 4 11 C4.33 9.68 4.66 8.36 5 7 C4.34 7 3.68 7 3 7 Z M4 24 C4.33 24.66 4.66 25.32 5 26 C5.99 26 6.98 26 8 26 C8 25.34 8 24.68 8 24 C6.68 24 5.36 24 4 24 Z " fill="#FAF5ED" transform="translate(309,41)"/>
<path d="M0 0 C1.86 0.09 1.86 0.09 4 1 C5.7 3.5 5.7 3.5 7.25 6.56 C7.77 7.57 8.29 8.59 8.83 9.63 C9.21 10.41 9.6 11.19 10 12 C10.66 12 11.32 12 12 12 C12.46 13.02 12.92 14.05 13.39 15.11 C14.01 16.47 14.63 17.83 15.25 19.19 C15.55 19.86 15.85 20.53 16.16 21.23 C18.02 25.28 20.03 28.62 23 32 C23.66 31.01 24.32 30.02 25 29 C25.99 29 26.98 29 28 29 C28.56 30.11 29.11 31.23 29.69 32.38 C31.62 35.81 33.17 36.86 37 38 C37.33 38.66 37.66 39.32 38 40 C38.85 40.5 39.69 40.99 40.56 41.5 C41.37 42 42.17 42.49 43 43 C43 43.66 43 44.32 43 45 C34.98 45.71 27.05 46.15 19 46 C19 45.67 19 45.34 19 45 C21.31 44.67 23.62 44.34 26 44 C25.67 43.01 25.34 42.02 25 41 C23.19 40.38 23.19 40.38 21 40 C19.67 39.67 18.33 39.33 17 39 C17 39.66 17 40.32 17 41 C16.34 41 15.68 41 15 41 C15.08 39.91 15.16 38.81 15.25 37.69 C15.21 37.08 15.21 37.08 15 34 C13.12 32.38 13.12 32.38 11 31 C10.67 30.13 10.34 29.27 10 28.38 C9.67 27.59 9.34 26.81 9 26 C6.88 25.19 6.88 25.19 5 25 C5.33 23.35 5.66 21.7 6 20 C5.34 20.33 5.34 20.33 2 22 C1.89 21.44 1.89 21.44 1.31 18.62 C0 15 0 15 -2.62 13.56 C-3.41 13.38 -4.19 13.19 -5 13 C-5.31 13.78 -5.62 14.57 -5.94 15.38 C-7 18 -7 18 -8 20 C-8.66 20 -9.32 20 -10 20 C-10.66 20.99 -11.32 21.98 -12 23 C-12.66 22.67 -13.32 22.34 -14 22 C-13.4 20.84 -12.8 19.69 -12.19 18.5 C-10.14 14.42 -8.53 10.29 -7 6 C-5.68 6 -4.36 6 -3 6 C-2.69 5.2 -2.38 4.39 -2.06 3.56 C-1 1 -1 1 0 0 Z M10 15 C11 18 11 18 11 18 Z M26 39 C25.67 39.66 25.34 40.32 25 41 C26.32 41 27.64 41 29 41 C29 40.34 29 39.68 29 39 C28.01 39 27.02 39 26 39 Z " fill="#C8CDD7" transform="translate(144,35)"/>
<path d="M0 0 C1.07 0.25 2.14 0.49 3.25 0.75 C3.58 2.07 3.91 3.39 4.25 4.75 C3.26 5.08 2.27 5.41 1.25 5.75 C1.25 7.07 1.25 8.39 1.25 9.75 C0.59 9.75 -0.07 9.75 -0.75 9.75 C-0.42 11.4 -0.09 13.05 0.25 14.75 C-0.41 15.08 -0.41 15.08 -3.75 16.75 C-3.75 17.41 -3.75 18.07 -3.75 18.75 C-2.43 18.75 -1.11 18.75 0.25 18.75 C0.62 25.27 0.62 25.27 -1.25 27.69 C-1.5 27.86 -1.5 27.86 -2.75 28.75 C-2.35 28.89 -2.35 28.89 -0.31 29.62 C2.25 30.75 2.25 30.75 3.25 32.75 C2.59 33.74 1.93 34.73 1.25 35.75 C-1.38 35.94 -1.38 35.94 -3.75 35.75 C-4.08 37.07 -4.41 38.39 -4.75 39.75 C-5.25 39.59 -5.25 39.59 -7.75 38.75 C-7.75 38.09 -7.75 37.43 -7.75 36.75 C-8.41 36.75 -9.07 36.75 -9.75 36.75 C-9.92 36.25 -9.92 36.25 -10.75 33.75 C-11.25 33.91 -11.25 33.91 -13.75 34.75 C-14.12 34.26 -14.49 33.76 -14.88 33.25 C-17.5 31.15 -19.49 31.53 -22.75 31.75 C-22.4 30.97 -22.05 30.18 -21.69 29.38 C-21.38 28.51 -21.07 27.64 -20.75 26.75 C-21.08 26.09 -21.41 25.43 -21.75 24.75 C-20.1 25.08 -18.45 25.41 -16.75 25.75 C-16.85 25.09 -16.94 24.42 -17.04 23.74 C-18.17 14.7 -18.17 14.7 -15.75 10.75 C-15.09 10.42 -14.43 10.09 -13.75 9.75 C-13.46 9.11 -13.17 8.47 -12.88 7.81 C-11.48 5.26 -10.33 4.97 -7.75 3.75 C-7.15 3.03 -6.55 2.31 -5.94 1.56 C-3.75 -0.25 -3.75 -0.25 0 0 Z " fill="#D5D5DF" transform="translate(389.75,11.25)"/>
<path d="M0 0 C2.91 3.29 4.5 5.6 5 10 C3.68 10.33 2.36 10.66 1 11 C1.33 13.31 1.66 15.62 2 18 C2.66 18 3.32 18 4 18 C4 16.68 4 15.36 4 14 C5.32 14 6.64 14 8 14 C8.16 14.83 8.16 14.83 9 19 C10.98 18.67 12.96 18.34 15 18 C14.12 14.25 12.88 10.66 11.62 7.02 C11 5 11 5 11 3 C11.82 3.33 11.82 3.33 16 5 C16.16 6.48 16.16 6.48 17 14 C18.32 14.33 19.64 14.66 21 15 C20.86 15.63 20.71 16.25 20.56 16.9 C20.47 17.31 20.47 17.31 20 19.38 C19.91 19.78 19.91 19.78 19.44 21.84 C19 24 19 24 19 26 C15.12 24.25 15.12 24.25 14 22 C12.68 22.16 12.68 22.16 6 23 C6 23.99 6 24.98 6 26 C4.02 26 2.04 26 0 26 C-0.1 26.54 -0.1 26.54 -0.62 29.25 C-2 33 -2 33 -4.56 35.44 C-8.89 37.4 -12.33 37.37 -17 37 C-16.67 38.32 -16.34 39.64 -16 41 C-16.78 40.96 -17.57 40.92 -18.38 40.88 C-21 41 -21 41 -23 43 C-23.16 42.5 -23.16 42.5 -24 40 C-24.66 39.67 -25.32 39.34 -26 39 C-26 38.01 -26 37.02 -26 36 C-25.01 36 -24.02 36 -23 36 C-23 36.66 -23 37.32 -23 38 C-22.34 38 -21.68 38 -21 38 C-21.33 37.34 -21.66 36.68 -22 36 C-22.04 34 -22.04 32 -22 30 C-18.87 28.14 -16.63 27.8 -13 28 C-13 28.66 -13 29.32 -13 30 C-10.36 30.66 -7.72 31.32 -5 32 C-4.7 26.91 -5.12 24.2 -8 20 C-8 19.34 -8 18.68 -8 18 C-8.66 18 -9.32 18 -10 18 C-10 15.36 -10 12.72 -10 10 C-9.34 10 -8.68 10 -8 10 C-7.67 9.01 -7.34 8.02 -7 7 C-6.01 7.99 -5.02 8.98 -4 10 C-4 9.34 -4 8.68 -4 8 C-2.68 8 -1.36 8 0 8 C0 5.36 0 2.72 0 0 Z " fill="#B0BBD7" transform="translate(239,50)"/>
<path d="M0 0 C0.99 0.66 1.98 1.32 3 2 C3.19 4.62 3.19 4.62 3 7 C3.66 7 4.32 7 5 7 C5.33 7.99 5.66 8.98 6 10 C6.93 9.36 7.86 8.72 8.81 8.06 C12 6 12 6 15 5 C16.16 8.47 16.07 11.36 16 15 C17.32 14.67 18.64 14.34 20 14 C20.16 14.83 20.16 14.83 21 19 C19.68 18.67 18.36 18.34 17 18 C17.33 20.31 17.66 22.62 18 25 C17.01 25 16.02 25 15 25 C14.67 24.01 14.34 23.02 14 22 C13.53 22.33 13.53 22.33 11.12 24 C6.59 26.6 2.11 26.74 -3 26 C-5.3 24.98 -5.3 24.98 -7 24 C-7 23.34 -7 22.68 -7 22 C-7.66 22 -8.32 22 -9 22 C-9 21.34 -9 20.68 -9 20 C-9.99 19.67 -10.98 19.34 -12 19 C-12 18.34 -12 17.68 -12 17 C-11.36 16.75 -10.72 16.5 -10.06 16.25 C-8 15 -8 15 -7.38 12.94 C-7.31 12.62 -7.31 12.62 -7 11 C-6.34 10.67 -5.68 10.34 -5 10 C-3.96 7.97 -3.96 7.97 -2.94 5.5 C-1.09 1.09 -1.09 1.09 0 0 Z " fill="#AABCCE" transform="translate(53,50)"/>
<path d="M0 0 C11.04 2.01 11.04 2.01 13.94 5 C15 7 15 7 15 9 C14.34 9 13.68 9 13 9 C12.73 8.36 12.46 7.72 12.19 7.06 C11 5 11 5 8 4 C7.67 4.17 7.67 4.17 6 5 C6 6.65 6 8.3 6 10 C4.35 10 2.7 10 1 10 C1 10.66 1 11.32 1 12 C1.99 12 2.98 12 4 12 C4 12.66 4 13.32 4 14 C4.62 14.08 5.24 14.16 5.88 14.25 C8 15 8 15 9.25 17.06 C9.5 17.7 9.75 18.34 10 19 C8.68 18.67 7.36 18.34 6 18 C5.34 18.99 4.68 19.98 4 21 C1.68 21.71 -0.66 22.37 -3 23 C-3.93 23.54 -4.86 24.07 -5.81 24.62 C-10.24 26.53 -14.25 26.25 -19 26 C-19 24.35 -19 22.7 -19 21 C-17.68 21.33 -16.36 21.66 -15 22 C-13 19 -13 19 -13.38 16.5 C-13.58 15.67 -13.79 14.85 -14 14 C-14 10.19 -12.96 8.25 -11 5 C-8.62 3.06 -8.62 3.06 -6 2 C-3.19 2.31 -3.19 2.31 -1 3 C-0.67 2.01 -0.34 1.02 0 0 Z " fill="#ECE9E8" transform="translate(19,93)"/>
<path d="M0 0 C2.97 0 5.94 0 9 0 C9.2 3.72 9.15 4.77 7 8 C6.34 8 5.68 8 5 8 C5 8.99 5 9.98 5 11 C6.32 11.33 7.64 11.66 9 12 C8.34 12 7.68 12 7 12 C7.38 14.94 7.38 14.94 8 18 C8.66 18.33 9.32 18.66 10 19 C10.56 20.81 10.56 20.81 11 23 C11.19 23.74 11.37 24.48 11.56 25.25 C11.71 25.83 11.85 26.41 12 27 C7.25 28 7.25 28 5 28 C4.84 27.17 4.84 27.17 4 23 C2.68 23 1.36 23 0 23 C0.21 23.62 0.41 24.24 0.62 24.88 C0.75 25.58 0.87 26.28 1 27 C0.34 27.66 -0.32 28.32 -1 29 C-3 27 -3 27 -3.12 23.38 C-3.08 22.26 -3.04 21.15 -3 20 C-2.01 19.67 -1.02 19.34 0 19 C-0.75 14.25 -0.75 14.25 -3 12 C-3.33 13.65 -3.66 15.3 -4 17 C-5.32 17 -6.64 17 -8 17 C-8 17.66 -8 18.32 -8 19 C-10 18 -10 18 -11 17 C-11.33 17.66 -11.66 18.32 -12 19 C-12.66 18.67 -13.32 18.34 -14 18 C-13.67 17.34 -13.34 16.68 -13 16 C-14.65 16.33 -16.3 16.66 -18 17 C-19.35 13.31 -18.65 10.97 -17.38 7.31 C-17.05 6.34 -16.73 5.37 -16.4 4.36 C-15 2 -15 2 -12.35 1.17 C-11.58 1.11 -10.8 1.06 -10 1 C-9.67 3.31 -9.34 5.62 -9 8 C-8.01 8.33 -7.02 8.66 -6 9 C-6.02 9.97 -6.04 10.94 -6.06 11.94 C-6 15 -6 15 -5 16 C-5 13.36 -5 10.72 -5 8 C-4.34 8 -3.68 8 -3 8 C-1.92 5.35 -0.91 2.72 0 0 Z " fill="#D2D1DD" transform="translate(243,41)"/>
<path d="M0 0 C1 3 1 3 0 6 C1.65 6 3.3 6 5 6 C5.23 6.48 5.23 6.48 6.38 8.94 C8 12 8 12 10 13 C8.68 13.33 7.36 13.66 6 14 C6.33 16.64 6.66 19.28 7 22 C6.34 22 5.68 22 5 22 C5 21.34 5 20.68 5 20 C4.01 20 3.02 20 2 20 C2 20.99 2 21.98 2 23 C1.24 23.1 0.47 23.21 -0.31 23.31 C-3.27 24.07 -3.96 24.87 -6 27 C-8 27.88 -8 27.88 -10 28 C-11.75 26.56 -11.75 26.56 -13 25 C-12.01 22.69 -11.02 20.38 -10 18 C-10.8 17.67 -11.61 17.34 -12.44 17 C-15.27 14.79 -15.44 14.37 -15.94 11 C-16.3 7.55 -16.06 7.09 -14 4 C-11.5 3.34 -11.5 3.34 -8.56 2.94 C-4.86 2.42 -3.17 2.11 0 0 Z " fill="#C7CDE0" transform="translate(211,66)"/>
<path d="M0 0 C1.65 0 3.3 0 5 0 C4.34 2.31 3.68 4.62 3 7 C3.53 6.97 3.53 6.97 6.19 6.81 C10 8 10 8 11.58 10.52 C12.83 13.31 13.97 16.11 15 19 C13.02 19.73 11.02 20.39 9 21 C8.34 20.67 7.68 20.34 7 20 C7 20.99 7 21.98 7 23 C1.39 23 -4.22 23 -10 23 C-10.66 20.69 -11.32 18.38 -12 16 C-11.34 16 -10.68 16 -10 16 C-10 15.34 -10 14.68 -10 14 C-11.65 13.67 -13.3 13.34 -15 13 C-14.67 14.32 -14.34 15.64 -14 17 C-15.65 17.33 -17.3 17.66 -19 18 C-19 19.32 -19 20.64 -19 22 C-19.66 22 -20.32 22 -21 22 C-21 21.34 -21 20.68 -21 20 C-21.99 19.67 -22.98 19.34 -24 19 C-24 17.35 -24 15.7 -24 14 C-21.16 14 -18.76 14.4 -16 15 C-16.33 13.68 -16.66 12.36 -17 11 C-14.71 10.32 -12.96 10 -10.56 10.12 C-7.15 9.96 -5.65 9.16 -3 7 C-1.72 4.71 -0.89 2.49 0 0 Z " fill="#CED2E1" transform="translate(239,76)"/>
<path d="M0 0 C0.99 0 1.98 0 3 0 C3.23 0.31 3.23 0.31 4.38 1.88 C6.33 4.43 7.99 5.02 11 6 C11 6.66 11 7.32 11 8 C11.66 8 12.32 8 13 8 C13 8.66 13 9.32 13 10 C18.44 11.58 24.36 11.57 29.88 10.38 C32.63 9.89 33.53 10.73 36 12 C38.66 12.47 41.3 12.73 44 13 C41.58 15.42 40.9 15.28 37.58 15.41 C36.67 15.45 35.75 15.49 34.81 15.53 C33.82 15.56 32.83 15.59 31.81 15.62 C30.8 15.66 29.79 15.7 28.74 15.74 C21.22 15.99 13.71 16.1 6.19 16.12 C5.2 16.13 4.21 16.13 3.19 16.14 C2.27 16.14 1.36 16.13 0.42 16.13 C0.01 16.13 0.01 16.13 -2.03 16.13 C-4 16 -4 16 -6 15 C-8.72 14.93 -11.41 14.91 -14.12 14.94 C-14.5 14.94 -14.5 14.94 -16.41 14.95 C-18.27 14.96 -20.14 14.98 -22 15 C-22.33 14.34 -22.66 13.68 -23 13 C-17.45 10.4 -12.55 8.25 -6.38 7.81 C-4 7 -4 7 -2.25 4 C-1.84 3.01 -1.43 2.02 -1 1 C-0.67 0.67 -0.34 0.34 0 0 Z " fill="#CBD5E3" transform="translate(33,64)"/>
<path d="M0 0 C3.22 1.32 4.49 2.43 7 5 C7.94 8.31 7.94 8.31 8 11 C8.66 11 9.32 11 10 11 C10.33 12.98 10.66 14.96 11 17 C10.01 17.33 9.02 17.66 8 18 C7.83 17.18 7.83 17.18 7 13 C6.7 13.01 6.7 13.01 5.21 13.07 C0.66 13.17 -2.86 13.14 -7 11 C-6.65 11.78 -6.3 12.57 -5.94 13.38 C-5.63 14.24 -5.32 15.11 -5 16 C-5.33 16.66 -5.66 17.32 -6 18 C-5.34 18 -4.68 18 -4 18 C-4 18.99 -4 19.98 -4 21 C-4.74 20.67 -5.49 20.34 -6.25 20 C-9 19 -9 19 -13 19 C-13.66 19.99 -14.32 20.98 -15 22 C-15.66 22 -16.32 22 -17 22 C-17 21.01 -17 20.02 -17 19 C-18.32 19 -19.64 19 -21 19 C-21 18.34 -21 17.68 -21 17 C-20.01 16.34 -19.02 15.68 -18 15 C-17.81 12.38 -17.81 12.38 -18 10 C-17.34 10 -16.68 10 -16 10 C-16 8.68 -16 7.36 -16 6 C-15.34 5.34 -14.68 4.68 -14 4 C-14.38 1.88 -14.38 1.88 -15 0 C-10.59 -2.2 -4.7 -0.81 0 0 Z " fill="#F7EEE4" transform="translate(407,11)"/>
<path d="M0 0 C1.65 0 3.3 0 5 0 C4.67 0.66 4.34 1.32 4 2 C4.61 2.04 5.23 2.07 5.86 2.11 C6.67 2.18 7.48 2.24 8.31 2.31 C9.11 2.37 9.91 2.43 10.74 2.49 C13.39 3.09 14.37 3.86 16 6 C16 6.66 16 7.32 16 8 C16.5 7.89 16.5 7.89 19 7.31 C23.61 6.61 26.8 8.16 31 10 C30.67 10.99 30.34 11.98 30 13 C29.18 12.96 28.35 12.92 27.5 12.88 C24 13 24 13 20.62 14 C16.37 15.16 12.13 15.23 7.75 15.25 C7.05 15.26 6.35 15.27 5.64 15.28 C1.93 15.26 -0.85 15.04 -4 13 C-3.67 12.34 -3.34 11.68 -3 11 C-3.82 10.67 -3.82 10.67 -8 9 C-7.67 7.02 -7.34 5.04 -7 3 C-6.18 3.33 -6.18 3.33 -2 5 C-1.34 3.35 -0.68 1.7 0 0 Z " fill="#D7DCE9" transform="translate(276,95)"/>
<path d="M0 0 C3 0 3 0 5.69 2.31 C8 5 8 5 8 8 C6.87 8.29 5.73 8.58 4.56 8.88 C3.39 9.25 2.21 9.62 1 10 C0.67 10.66 0.34 11.32 0 12 C0.52 12.12 1.03 12.25 1.56 12.38 C3.5 12.87 5.41 13.45 7.31 14.06 C11 15 11 15 14.69 14.75 C15.78 14.83 16.87 14.91 18 15 C20.31 17.94 20.31 17.94 22 21 C22.66 21.33 23.32 21.66 24 22 C24 22.66 24 23.32 24 24 C23.34 24.33 22.68 24.66 22 25 C22 25.66 22 26.32 22 27 C13.83 26.81 13.83 26.81 10.5 23.56 C9.62 22.07 8.78 20.55 8 19 C7.01 18.67 6.02 18.34 5 18 C4.67 17.34 4.34 16.68 4 16 C1.44 15.38 1.44 15.38 -1 15 C-1 15.66 -1 16.32 -1 17 C0.32 17 1.64 17 3 17 C3 18.65 3 20.3 3 22 C2.3 21.84 1.6 21.67 0.88 21.5 C-2.14 20.98 -4.95 20.93 -8 21 C-5 19 -5 19 -3 19 C-5.88 12.12 -5.88 12.12 -7 11 C-7.04 9 -7.04 7 -7 5 C-6.34 5.16 -6.34 5.16 -3 6 C-2.94 5.69 -2.94 5.69 -2.62 4.12 C-2 2 -2 2 0 0 Z " fill="#C6CBDD" transform="translate(381,57)"/>
<path d="M0 0 C3.44 0.81 3.44 0.81 7 2 C7.33 2.99 7.66 3.98 8 5 C8.66 5 9.32 5 10 5 C10.33 5.66 10.66 6.32 11 7 C11.41 7.24 11.41 7.24 13.5 8.44 C16 10 16 10 17 13 C14 15 14 15 10 15 C10 13.68 10 12.36 10 11 C8.68 10.67 7.36 10.34 6 10 C6 10.99 6 11.98 6 13 C6.66 13 7.32 13 8 13 C8 13.66 8 14.32 8 15 C7.67 15.16 7.67 15.16 6 16 C5.38 18.06 5.38 18.06 5 20 C8.56 21.05 12.06 21.3 15.75 21.56 C16.92 21.65 18.09 21.73 19.3 21.82 C19.74 21.85 19.74 21.85 22 22 C22 22.33 22 22.66 22 23 C19.79 23.2 17.58 23.38 15.38 23.56 C14.76 23.61 14.76 23.61 11.65 23.88 C8.24 23.99 5.32 23.69 2 23 C2 22.34 2 21.68 2 21 C-0.97 20.67 -3.94 20.34 -7 20 C-7.33 18.68 -7.66 17.36 -8 16 C-6.02 16 -4.04 16 -2 16 C-1.67 14.68 -1.34 13.36 -1 12 C-0.01 12 0.98 12 2 12 C2 9.69 2 7.38 2 5 C1.67 5.33 1.34 5.66 1 6 C-0.67 6.04 -2.33 6.04 -4 6 C-3.67 4.68 -3.34 3.36 -3 2 C-2.01 2 -1.02 2 0 2 C0 1.34 0 0.68 0 0 Z " fill="#D4D8DA" transform="translate(141,59)"/>
<path d="M0 0 C2.78 1.06 5.41 2.21 8.06 3.56 C11.14 5.07 13.76 5.82 17.12 6.31 C19 7 19 7 20.25 9.06 C20.5 9.7 20.75 10.34 21 11 C20.01 11 19.02 11 18 11 C18.33 12.32 18.66 13.64 19 15 C18.09 15.25 17.19 15.5 16.25 15.75 C13 17 13 17 10.94 19.12 C9 21 9 21 6.25 21.25 C5.51 21.17 4.76 21.09 4 21 C3.67 20.34 3.34 19.68 3 19 C1.36 17.96 -0.31 16.95 -2 16 C-1.46 12.62 -0.89 9.3 0 6 C0.99 6 1.98 6 3 6 C3.33 6.5 3.33 6.5 5 9 C5.99 8.01 6.98 7.02 8 6 C5.36 5.01 2.72 4.02 0 3 C0 2.01 0 1.02 0 0 Z " fill="#DCD7E0" transform="translate(293,74)"/>
<path d="M0 0 C0.66 0 1.32 0 2 0 C2.51 1.41 3.01 2.83 3.5 4.25 C3.78 5.04 4.06 5.83 4.34 6.64 C5 9 5 9 5 13 C6.94 12.69 6.94 12.69 9 12 C9.33 11.01 9.66 10.02 10 9 C11.98 8.67 13.96 8.34 16 8 C16 8.99 16 9.98 16 11 C16.31 13 16.65 15 17 17 C15.35 17 13.7 17 12 17 C12 18.32 12 19.64 12 21 C9.03 22.24 6.15 23.3 3 24 C2.67 23.34 2.34 22.68 2 22 C2.33 21.01 2.66 20.02 3 19 C1.35 19.66 -0.3 20.32 -2 21 C-4.41 17.49 -5.37 15.27 -5 11 C-2.92 10.45 -1.16 10 1 10 C1.33 9.01 1.66 8.02 2 7 C1.34 6.01 0.68 5.02 0 4 C0 2.68 0 1.36 0 0 Z " fill="#F6ECE3" transform="translate(288,33)"/>
<path d="M0 0 C0.66 -0.33 1.32 -0.66 2 -1 C2.12 4.75 2.12 4.75 1 7 C0.01 7 -0.98 7 -2 7 C-2.33 8.32 -2.66 9.64 -3 11 C-3.99 11 -4.98 11 -6 11 C-6 10.34 -6 9.68 -6 9 C-7.65 9 -9.3 9 -11 9 C-11 9.66 -11 10.32 -11 11 C-11.66 11 -12.32 11 -13 11 C-13 11.66 -13 12.32 -13 13 C-12.01 12.67 -11.02 12.34 -10 12 C-10 12.99 -10 13.98 -10 15 C-11.65 14.67 -13.3 14.34 -15 14 C-15.33 13.01 -15.66 12.02 -16 11 C-18.06 10.31 -18.06 10.31 -20 10 C-20 10.66 -20 11.32 -20 12 C-22.86 10.95 -23.85 10.27 -25.38 7.56 C-25.58 6.72 -25.79 5.87 -26 5 C-23.6 1.39 -22.05 1.15 -18 0 C-18.33 2.64 -18.66 5.28 -19 8 C-18.55 7.6 -18.11 7.2 -17.64 6.79 C-8.14 -1.54 -8.14 -1.54 0 0 Z " fill="#AAB8C9" transform="translate(142,64)"/>
<path d="M0 0 C1.98 0 3.96 0 6 0 C6.33 0.99 6.66 1.98 7 3 C6.67 3.16 6.67 3.16 5 4 C5.19 4.6 5.37 5.2 5.56 5.81 C6 8 6 8 5 11 C6.32 11.66 7.64 12.32 9 13 C9 13.66 9 14.32 9 15 C10.32 14.67 11.64 14.34 13 14 C13 14.99 13 15.98 13 17 C6.64 17.49 6.64 17.49 3.56 15.12 C2 13 2 13 2 11 C0.02 11 -1.96 11 -4 11 C-4.12 15.75 -4.12 15.75 -3 18 C-3.66 18.33 -4.32 18.66 -5 19 C-4.67 19.22 -4.67 19.22 -3 20.31 C-2.34 20.87 -1.68 21.43 -1 22 C-1 22.99 -1 23.98 -1 25 C-3.1 25.11 -5.21 25.19 -7.31 25.25 C-7.9 25.27 -7.9 25.27 -10.86 25.39 C-14 25 -14 25 -15.92 22.98 C-16.1 22.66 -16.1 22.66 -17 21 C-15.35 20.34 -13.7 19.68 -12 19 C-12 20.32 -12 21.64 -12 23 C-11.01 23 -10.02 23 -9 23 C-9.66 20.36 -10.32 17.72 -11 15 C-10.17 15.33 -10.17 15.33 -6 17 C-6.66 14.69 -7.32 12.38 -8 10 C-6.12 8.94 -6.12 8.94 -4 8 C-3.34 8.33 -2.68 8.66 -2 9 C-2 6.69 -2 4.38 -2 2 C-1.34 2 -0.68 2 0 2 C0 1.34 0 0.68 0 0 Z " fill="#CBCFD2" transform="translate(80,52)"/>
<path d="M0 0 C2 1.19 2 1.19 4 3 C4.25 5.69 4.25 5.69 4 8 C3.34 8 2.68 8 2 8 C2 9.65 2 11.3 2 13 C1.01 13 0.02 13 -1 13 C-1 13.99 -1 14.98 -1 16 C-1.27 16.04 -1.27 16.04 -2.62 16.25 C-6.58 17.5 -9.83 19.83 -12.75 22.75 C-13.16 23.16 -13.58 23.58 -14 24 C-14.66 24 -15.32 24 -16 24 C-16 13.62 -16 13.62 -14 9.31 C-13.63 8.5 -13.26 7.7 -12.88 6.86 C-12.59 6.25 -12.3 5.63 -12 5 C-11.34 5 -10.68 5 -10 5 C-9.67 6.65 -9.34 8.3 -9 10 C-7 9 -7 9 -5 6 C-4.34 6.33 -3.68 6.66 -3 7 C-2.69 6.22 -2.38 5.43 -2.06 4.62 C-1 2 -1 2 0 0 Z " fill="#B3C0D5" transform="translate(139,48)"/>
<path d="M0 0 C2.14 1.66 2.91 2.59 3.51 5.26 C3.67 7.51 3.84 9.75 4 12 C6.97 11.34 9.94 10.68 13 10 C14.56 12.38 14.56 12.38 16 15 C15.67 15.66 15.34 16.32 15 17 C15.66 17.33 16.32 17.66 17 18 C14.9 17.89 12.79 17.76 10.69 17.62 C9.52 17.56 8.34 17.49 7.14 17.41 C4 17 4 17 1 15 C-1.04 14.37 -1.04 14.37 -3.19 13.88 C-4.45 13.59 -5.7 13.3 -7 13 C-6.01 10.69 -5.02 8.38 -4 6 C-5.32 6 -6.64 6 -8 6 C-7.62 3.06 -7.62 3.06 -7 0 C-4.27 -1.37 -2.89 -0.85 0 0 Z " fill="#F8F2EC" transform="translate(347,74)"/>
<path d="M0 0 C0.66 0 1.32 0 2 0 C2.66 2.64 3.32 5.28 4 8 C5.32 8 6.64 8 8 8 C8 8.66 8 9.32 8 10 C7.01 10 6.02 10 5 10 C5 10.66 5 11.32 5 12 C5.66 12 6.32 12 7 12 C7 12.66 7 13.32 7 14 C8.65 13.67 10.3 13.34 12 13 C11.67 13.99 11.34 14.98 11 16 C6.71 16 2.42 16 -2 16 C-2 15.34 -2 14.68 -2 14 C-2.99 14.66 -3.98 15.32 -5 16 C-9.17 16.23 -12.94 15.98 -17 15 C-16.34 13.02 -15.68 11.04 -15 9 C-12.69 9.66 -10.38 10.32 -8 11 C-7.67 9.35 -7.34 7.7 -7 6 C-5.35 6.33 -3.7 6.66 -2 7 C-2.04 6.22 -2.08 5.43 -2.12 4.62 C-2 2 -2 2 0 0 Z " fill="#A0AEBB" transform="translate(108,64)"/>
<path d="M0 0 C1.07 0.25 2.14 0.49 3.25 0.75 C3.58 2.07 3.91 3.39 4.25 4.75 C3.26 5.08 2.27 5.41 1.25 5.75 C1.25 7.07 1.25 8.39 1.25 9.75 C0.59 9.75 -0.07 9.75 -0.75 9.75 C-1.08 11.07 -1.41 12.39 -1.75 13.75 C-3.07 13.75 -4.39 13.75 -5.75 13.75 C-6.08 15.07 -6.41 16.39 -6.75 17.75 C-7.74 17.75 -8.73 17.75 -9.75 17.75 C-10.08 16.43 -10.41 15.11 -10.75 13.75 C-11.41 13.75 -12.07 13.75 -12.75 13.75 C-12.75 13.09 -12.75 12.43 -12.75 11.75 C-13.41 11.75 -14.07 11.75 -14.75 11.75 C-14.42 12.74 -14.09 13.73 -13.75 14.75 C-14.41 14.75 -15.07 14.75 -15.75 14.75 C-15.75 17.06 -15.75 19.37 -15.75 21.75 C-15.09 22.08 -14.43 22.41 -13.75 22.75 C-15.07 22.42 -16.39 22.09 -17.75 21.75 C-17.94 17.56 -17.68 14.51 -15.75 10.75 C-15.09 10.42 -14.43 10.09 -13.75 9.75 C-13.46 9.11 -13.17 8.47 -12.88 7.81 C-11.48 5.26 -10.33 4.97 -7.75 3.75 C-7.15 3.03 -6.55 2.31 -5.94 1.56 C-3.75 -0.25 -3.75 -0.25 0 0 Z " fill="#E0DCE1" transform="translate(389.75,11.25)"/>
<path d="M0 0 C1.43 2.35 2.09 3.48 1.62 6.25 C1.42 6.83 1.21 7.41 1 8 C1.66 8 2.32 8 3 8 C6.25 12.98 7.5 15.88 7 22 C4 23 4 23 0.81 21.56 C-0.12 21.05 -1.04 20.53 -2 20 C-2 19.34 -2 18.68 -2 18 C-3.65 18 -5.3 18 -7 18 C-7.33 15.69 -7.66 13.38 -8 11 C-7.01 10.67 -6.02 10.34 -5 10 C-4.67 9.34 -4.34 8.68 -4 8 C-5.32 8.33 -6.64 8.66 -8 9 C-8 8.34 -8 7.68 -8 7 C-7.34 7 -6.68 7 -6 7 C-5.67 5.68 -5.34 4.36 -5 3 C-3.35 3 -1.7 3 0 3 C0 2.01 0 1.02 0 0 Z " fill="#CCCEDD" transform="translate(228,60)"/>
<path d="M0 0 C0.99 0.17 0.99 0.17 6 1 C6.29 2.03 6.58 3.06 6.88 4.12 C7.82 7.45 8.88 10.73 10 14 C11.32 14 12.64 14 14 14 C14 13.34 14 12.68 14 12 C16.44 12.62 16.44 12.62 19 14 C19.81 17.12 19.81 17.12 20 20 C16.62 20.12 16.62 20.12 13 20 C12.34 19.34 11.68 18.68 11 18 C8.34 17.43 5.71 17.26 3 17 C3 16.34 3 15.68 3 15 C0.06 15.38 0.06 15.38 -3 16 C-3.33 16.66 -3.66 17.32 -4 18 C-4 17.01 -4 16.02 -4 15 C-3.01 15 -2.02 15 -1 15 C-1.66 13.68 -2.32 12.36 -3 11 C-1.68 10.67 -0.36 10.34 1 10 C0.67 6.7 0.34 3.4 0 0 Z " fill="#E9E5E6" transform="translate(315,70)"/>
<path d="M0 0 C4.1 0.86 6.41 2.04 8.94 5.31 C10.51 7.76 10.99 8.79 11.12 11.75 C9.64 14.72 7.95 15.56 5 17 C4.34 17.33 3.68 17.66 3 18 C1.29 18.07 -0.42 18.08 -2.12 18.06 C-3.04 18.05 -3.95 18.04 -4.88 18.04 C-5.23 18.03 -5.23 18.03 -7 18 C-7 16.35 -7 14.7 -7 13 C-5.68 13.33 -4.36 13.66 -3 14 C-1 11 -1 11 -1.38 8.5 C-1.58 7.67 -1.79 6.85 -2 6 C-2 3 -2 3 0 0 Z " fill="#E2E3EA" transform="translate(7,101)"/>
<path d="M0 0 C0.99 0 1.98 0 3 0 C3.56 1.11 4.11 2.23 4.69 3.38 C6.62 6.81 8.17 7.86 12 9 C12.33 9.66 12.66 10.32 13 11 C13.85 11.5 14.69 11.99 15.56 12.5 C16.37 13 17.17 13.49 18 14 C18 14.66 18 15.32 18 16 C9.98 16.71 2.05 17.15 -6 17 C-6 16.67 -6 16.34 -6 16 C-4.84 15.84 -4.84 15.84 1 15 C0.67 14.01 0.34 13.02 0 12 C-0.66 11.67 -1.32 11.34 -2 11 C-3.54 7.73 -4.39 4.55 -5 1 C-4.34 1 -3.68 1 -3 1 C-2.67 1.66 -2.34 2.32 -2 3 C-1.34 2.01 -0.68 1.02 0 0 Z M1 10 C0.67 10.66 0.34 11.32 0 12 C1.32 12 2.64 12 4 12 C4 11.34 4 10.68 4 10 C3.01 10 2.02 10 1 10 Z " fill="#CFD4DA" transform="translate(169,64)"/>
<path d="M0 0 C3.86 0.36 6.9 1.79 10.31 3.56 C11.2 4.02 12.08 4.47 12.99 4.94 C13.32 5.12 13.32 5.12 15 6 C14.62 8.44 14.62 8.44 14 11 C13.67 11.16 13.67 11.16 12 12 C11.34 11.67 10.68 11.34 10 11 C10 10.34 10 9.68 10 9 C4.12 11.75 4.12 11.75 3 14 C4.98 14 6.96 14 9 14 C8.67 14.66 8.34 15.32 8 16 C9.65 16 11.3 16 13 16 C13 16.99 13 17.98 13 19 C10.77 19.05 8.54 19.09 6.31 19.12 C5.07 19.15 3.83 19.17 2.55 19.2 C-0.81 19.01 -3 18.46 -6 17 C-6 16.67 -6 16.34 -6 16 C-5.53 15.89 -5.53 15.89 -3.12 15.31 C0 14 0 14 1.38 11.38 C1.58 10.59 1.79 9.81 2 9 C1.34 9 0.68 9 0 9 C0.23 8.4 0.45 7.8 0.69 7.19 C0.79 6.47 0.89 5.74 1 5 C-0.44 3.25 -0.44 3.25 -2 2 C-1.34 1.34 -0.68 0.68 0 0 Z M9 1 C9.33 1.17 9.33 1.17 11 2 C10.67 2.17 10.67 2.17 9 3 C9 2.34 9 1.68 9 1 Z " fill="#FBF5EC" transform="translate(435,65)"/>
<path d="M0 0 C2.31 0 4.62 0 7 0 C7.66 1.32 8.32 2.64 9 4 C8.34 4 7.68 4 7 4 C7 5.98 7 7.96 7 10 C6.01 10.33 5.02 10.66 4 11 C4.33 12.32 4.66 13.64 5 15 C4.34 15 3.68 15 3 15 C2.67 16.32 2.34 17.64 2 19 C0.38 17.31 0.38 17.31 -1 15 C-0.19 12.25 -0.19 12.25 1 10 C-0.32 9.67 -1.64 9.34 -3 9 C-3 7.68 -3 6.36 -3 5 C-6.21 7.5 -9.17 10.07 -12 13 C-12.33 12.34 -12.66 11.68 -13 11 C-12.34 11 -11.68 11 -11 11 C-10.92 10.24 -10.84 9.47 -10.75 8.69 C-10 6 -10 6 -8.25 4.19 C-5.63 2.8 -3.92 2.76 -1 3 C-0.67 2.01 -0.34 1.02 0 0 Z " fill="#EDE2DE" transform="translate(249,18)"/>
<path d="M0 0 C0.48 0.01 0.48 0.01 2.94 0.06 C3.27 1.05 3.6 2.04 3.94 3.06 C5.92 3.39 5.92 3.39 15.94 5.06 C11.19 9.06 11.19 9.06 8.94 9.06 C9.27 10.05 9.6 11.04 9.94 12.06 C8.95 12.39 7.96 12.72 6.94 13.06 C6.65 12.09 6.36 11.12 6.06 10.12 C4.94 7.06 4.94 7.06 2.94 6.06 C2.61 5.07 2.28 4.08 1.94 3.06 C-2.22 3.54 -5.05 4.05 -8.06 7.06 C-8.81 9.25 -8.81 9.25 -9.06 11.06 C-10.38 10.73 -11.7 10.4 -13.06 10.06 C-13.06 8.41 -13.06 6.76 -13.06 5.06 C-16.03 5.06 -19 5.06 -22.06 5.06 C-21.73 3.74 -21.4 2.42 -21.06 1.06 C-19.85 1.07 -18.63 1.09 -17.38 1.1 C-15.79 1.11 -14.21 1.12 -12.62 1.12 C-11.82 1.13 -11.02 1.14 -10.19 1.15 C-8.15 1.16 -6.11 1.11 -4.06 1.06 C-3.06 0.06 -3.06 0.06 0 0 Z " fill="#B5C0DB" transform="translate(280.0625,84.9375)"/>
<path d="M0 0 C0.83 0.17 0.83 0.17 5 1 C4.67 1.99 4.34 2.98 4 4 C5.94 4.03 7.87 4.05 9.81 4.06 C10.35 4.07 10.35 4.07 13.08 4.1 C16 4 16 4 19 3 C19 3.66 19 4.32 19 5 C21.13 4.86 23.25 4.71 25.38 4.56 C25.97 4.52 25.97 4.52 28.96 4.32 C32 4 32 4 34 3 C33.67 4.32 33.34 5.64 33 7 C15.84 7 -1.32 7 -19 7 C-19 6.67 -19 6.34 -19 6 C-16.36 6 -13.72 6 -11 6 C-11 5.34 -11 4.68 -11 4 C-10.37 3.96 -9.75 3.93 -9.1 3.89 C-8.28 3.82 -7.47 3.76 -6.62 3.69 C-5.81 3.63 -5 3.57 -4.16 3.51 C-2 3 -2 3 0 0 Z " fill="#BBC3C8" transform="translate(87,75)"/>
<path d="M0 0 C0.99 0.66 1.98 1.32 3 2 C3.19 4.62 3.19 4.62 3 7 C3.66 7 4.32 7 5 7 C5.33 8.65 5.66 10.3 6 12 C5.42 12.25 4.84 12.49 4.25 12.75 C2 14 2 14 0.06 16 C-2.2 18.19 -4.08 18.92 -7 20 C-7.66 20.66 -8.32 21.32 -9 22 C-9 21.34 -9 20.68 -9 20 C-9.99 19.67 -10.98 19.34 -12 19 C-12 18.34 -12 17.68 -12 17 C-11.36 16.75 -10.72 16.5 -10.06 16.25 C-8 15 -8 15 -7.38 12.94 C-7.31 12.62 -7.31 12.62 -7 11 C-6.34 10.67 -5.68 10.34 -5 10 C-3.96 7.97 -3.96 7.97 -2.94 5.5 C-1.09 1.09 -1.09 1.09 0 0 Z " fill="#B1BFD3" transform="translate(53,50)"/>
<path d="M0 0 C4.13 0.34 7.38 2.06 11 4 C11 4.99 11 5.98 11 7 C11.99 7.33 12.98 7.66 14 8 C14.33 8.99 14.66 9.98 15 11 C18.15 11.7 20.73 12 24 12 C24.33 11.01 24.66 10.02 25 9 C25.66 9.33 26.32 9.66 27 10 C26.67 11.32 26.34 12.64 26 14 C24.81 13.98 23.62 13.95 22.39 13.93 C20.82 13.91 19.25 13.89 17.69 13.88 C17.29 13.87 17.29 13.87 15.31 13.82 C14.55 13.82 13.79 13.81 13.01 13.8 C12.32 13.79 11.62 13.78 10.9 13.77 C9 14 9 14 6 16 C5.69 14.91 5.38 13.81 5.06 12.69 C4.42 10.45 3.74 8.21 3 6 C2.34 5.83 1.68 5.67 1 5.5 C0.34 5.33 -0.32 5.17 -1 5 C-1.33 4.01 -1.66 3.02 -2 2 C-1.34 1.34 -0.68 0.68 0 0 Z " fill="#F3EBE7" transform="translate(250,73)"/>
<path d="M0 0 C0.82 0.33 0.82 0.33 5 2 C5.33 4.97 5.66 7.94 6 11 C7.32 11.33 8.64 11.66 10 12 C9.86 12.63 9.71 13.25 9.56 13.9 C9.38 14.72 9.19 15.53 9 16.38 C8.81 17.19 8.63 18 8.44 18.84 C8 21 8 21 8 23 C4.12 21.25 4.12 21.25 3 19 C1.7 19.12 0.4 19.25 -0.94 19.38 C-1.3 19.41 -1.3 19.41 -3.15 19.59 C-3.76 19.72 -4.37 19.86 -5 20 C-5.33 20.66 -5.66 21.32 -6 22 C-8.04 17.93 -8.03 15.41 -7 11 C-5.68 11 -4.36 11 -3 11 C-2.67 12.65 -2.34 14.3 -2 16 C-0.02 15.67 1.96 15.34 4 15 C3.12 11.25 1.88 7.66 0.62 4.02 C0 2 0 2 0 0 Z " fill="#C3C5D8" transform="translate(250,53)"/>
<path d="M0 0 C0 1.98 0 3.96 0 6 C3.96 7.32 7.91 8.2 12 9 C12 9.33 12 9.66 12 10 C6.96 10.83 2.19 11.11 -2.94 11.06 C-3.62 11.06 -4.31 11.05 -5.01 11.05 C-6.67 11.04 -8.34 11.02 -10 11 C-9.01 10.34 -8.02 9.68 -7 9 C-7.55 8.83 -8.11 8.66 -8.68 8.48 C-14.67 6.48 -14.67 6.48 -16.5 3.81 C-16.67 3.21 -16.83 2.62 -17 2 C-13.06 0.69 -10.88 1.76 -7 3 C-7 3.66 -7 4.32 -7 5 C-6.34 5 -5.68 5 -5 5 C-5.33 3.68 -5.66 2.36 -6 1 C-3 0 -3 0 0 0 Z " fill="#E6E4E8" transform="translate(325,90)"/>
<path d="M0 0 C0.66 0 1.32 0 2 0 C2 0.66 2 1.32 2 2 C2.66 2 3.32 2 4 2 C4.33 3.32 4.66 4.64 5 6 C5.99 5.67 6.98 5.34 8 5 C8.33 4.01 8.66 3.02 9 2 C10.98 1.67 12.96 1.34 15 1 C14.34 2.32 13.68 3.64 13 5 C12.34 5 11.68 5 11 5 C11 5.99 11 6.98 11 8 C11.99 8 12.98 8 14 8 C14 8.99 14 9.98 14 11 C11.35 12.46 10.11 13 7 13 C7.19 13.78 7.37 14.57 7.56 15.38 C8 18 8 18 7 20 C6.18 19.67 6.18 19.67 2 18 C2.01 17.64 2.01 17.64 2.07 15.84 C2.18 10.12 1.92 5.4 0 0 Z " fill="#CCCDDC" transform="translate(375,23)"/>
<path d="M0 0 C-0.33 0.66 -0.66 1.32 -1 2 C-3.06 2.62 -3.06 2.62 -5 3 C-5 3.99 -5 4.98 -5 6 C-4.4 6.08 -3.8 6.17 -3.19 6.25 C-0.25 7.26 0.5 8.28 2 11 C2.69 14.75 2.69 14.75 3 18 C0 18 0 18 -2 17 C-2 16.01 -2 15.02 -2 14 C-2.71 13.88 -3.42 13.76 -4.15 13.63 C-4.61 13.55 -4.61 13.55 -6.94 13.12 C-7.85 12.96 -8.77 12.8 -9.71 12.63 C-10.09 12.53 -10.09 12.53 -12 12 C-13.35 9.3 -12.8 7.85 -12 5 C-11.34 4.67 -10.68 4.34 -10 4 C-9.67 3.01 -9.34 2.02 -9 1 C-5.65 -0.81 -3.6 -1.33 0 0 Z " fill="#E3DFE2" transform="translate(254,72)"/>
<path d="M0 0 C0.8 0.14 1.61 0.29 2.44 0.44 C6.61 1.1 10.8 1.56 15 2 C15 1.34 15 0.68 15 0 C17.31 0.33 19.62 0.66 22 1 C22 3 22 3 20.06 5 C19.38 5.66 18.7 6.32 18 7 C17.67 7.66 17.34 8.32 17 9 C16.48 8.84 15.97 8.67 15.44 8.5 C13 8 13 8 9.44 8 C5.3 8 2.61 6.86 -1 5 C-0.67 3.35 -0.34 1.7 0 0 Z " fill="#CFD3E2" transform="translate(325,91)"/>
<path d="M0 0 C1.33 0.67 2.67 1.33 4 2 C4.36 2.12 4.36 2.12 6.19 2.75 C8 4 8 4 8.81 6.94 C9 10 9 10 8 13 C4.98 12.41 1.98 11.77 -1 11 C-1 11.66 -1 12.32 -1 13 C-1.99 12.67 -2.98 12.34 -4 12 C-4.33 9.69 -4.66 7.38 -5 5 C-4.34 5 -3.68 5 -3 5 C-2.85 4.68 -2.85 4.68 -2.06 3.06 C-1 1 -1 1 0 0 Z " fill="#E9E0DD" transform="translate(395,28)"/>
<path d="M0 0 C3 5.62 3 5.62 3 9 C2.34 9 1.68 9 1 9 C1 9.99 1 10.98 1 12 C1.99 12 2.98 12 4 12 C4 12.66 4 13.32 4 14 C2.68 14.33 1.36 14.66 0 15 C0 15.66 0 16.32 0 17 C-0.66 17 -1.32 17 -2 17 C-2 17.66 -2 18.32 -2 19 C-2.66 19 -3.32 19 -4 19 C-4.12 18.54 -4.12 18.54 -4.75 16.19 C-6.1 12.75 -7.09 12.04 -10 10 C-10 9.01 -10 8.02 -10 7 C-7.13 7.57 -6.14 7.86 -4 10 C-4.23 8.91 -4.45 7.81 -4.69 6.69 C-5 3 -5 3 -3.69 1.06 C-2 0 -2 0 0 0 Z " fill="#F5EADE" transform="translate(431,44)"/>
<path d="M0 0 C2.74 0.37 4.59 0.69 6.81 2.38 C8 4 8 4 8 7 C7.01 7.66 6.02 8.32 5 9 C6.32 9.33 7.64 9.66 9 10 C8.67 11.32 8.34 12.64 8 14 C7.34 14 6.68 14 6 14 C6 14.66 6 15.32 6 16 C4.62 17.62 4.62 17.62 3 19 C2.34 19 1.68 19 1 19 C-1 13.38 -1 13.38 -1 10 C-1.66 9.34 -2.32 8.68 -3 8 C-2.01 8 -1.02 8 0 8 C0 5.36 0 2.72 0 0 Z " fill="#E3DBDE" transform="translate(255,45)"/>
<path d="M0 0 C3.44 0.81 3.44 0.81 7 2 C7.33 2.99 7.66 3.98 8 5 C8.66 5 9.32 5 10 5 C10.33 5.66 10.66 6.32 11 7 C11.41 7.24 11.41 7.24 13.5 8.44 C16 10 16 10 17 13 C14 15 14 15 10 15 C10 13.68 10 12.36 10 11 C8.68 10.67 7.36 10.34 6 10 C5.67 10.66 5.34 11.32 5 12 C5 10.68 5 9.36 5 8 C4.01 7.67 3.02 7.34 2 7 C1.67 6.67 1.34 6.34 1 6 C-0.67 5.96 -2.33 5.96 -4 6 C-3.67 4.68 -3.34 3.36 -3 2 C-2.01 2 -1.02 2 0 2 C0 1.34 0 0.68 0 0 Z " fill="#C8CCCF" transform="translate(141,59)"/>
<path d="M0 0 C0.99 0.66 1.98 1.32 3 2 C2.67 4.64 2.34 7.28 2 10 C4 9 4 9 6 6 C6 6.99 6 7.98 6 9 C7.32 8.67 8.64 8.34 10 8 C9.67 9.32 9.34 10.64 9 12 C5.25 13.12 5.25 13.12 3 12 C3 12.66 3 13.32 3 14 C2.34 14 1.68 14 1 14 C1 16.31 1 18.62 1 21 C-2 20 -2 20 -4 17 C-4 16.01 -4 15.02 -4 14 C-3.01 14 -2.02 14 -1 14 C-1 13.01 -1 12.02 -1 11 C-1.99 11 -2.98 11 -4 11 C-5.35 8.29 -5.07 5.99 -5 3 C-4.01 3 -3.02 3 -2 3 C-2 4.65 -2 6.3 -2 8 C-1.34 8 -0.68 8 0 8 C-0.09 7.43 -0.09 7.43 -0.56 4.56 C-0.71 3.39 -0.85 2.21 -1 1 C-0.67 0.67 -0.34 0.34 0 0 Z " fill="#F1ECE4" transform="translate(77,40)"/>
<path d="M0 0 C2.97 0 5.94 0 9 0 C9.2 3.72 9.15 4.77 7 8 C6.34 8 5.68 8 5 8 C5 8.66 5 9.32 5 10 C4.01 10.33 3.02 10.66 2 11 C1.67 12.65 1.34 14.3 1 16 C-1.81 13.46 -3.55 11.82 -4 8 C-2.96 5.14 -1.47 2.68 0 0 Z " fill="#C6C8D8" transform="translate(243,41)"/>
<path d="M0 0 C3 1 3 1 4.17 3.07 C4.5 3.89 4.84 4.71 5.19 5.56 C5.53 6.39 5.88 7.22 6.23 8.07 C6.48 8.7 6.74 9.34 7 10 C5.02 10.73 3.02 11.39 1 12 C0.34 11.67 -0.32 11.34 -1 11 C-1 11.99 -1 12.98 -1 14 C-3.31 14 -5.62 14 -8 14 C-6.68 13.67 -5.36 13.34 -4 13 C-4.66 12.01 -5.32 11.02 -6 10 C-5.9 6.22 -5.03 5.03 -2.44 2.19 C-2.04 1.83 -2.04 1.83 0 0 Z " fill="#C5CCDF" transform="translate(247,85)"/>
<path d="M0 0 C4 1 4 1 5.7 3.5 C6.21 4.51 6.72 5.52 7.25 6.56 C7.77 7.57 8.29 8.59 8.83 9.63 C9.21 10.41 9.6 11.19 10 12 C10.66 12 11.32 12 12 12 C12.93 15.01 13.04 15.87 12 19 C9 18 9 18 7.5 15.44 C7.25 15.04 7.25 15.04 6 13 C5.01 13 4.02 13 3 13 C2.34 14.32 1.68 15.64 1 17 C-0.56 15.81 -0.56 15.81 -2 14 C-1.69 11.31 -1.69 11.31 -1 9 C-0.34 9 0.32 9 1 9 C0.67 6.03 0.34 3.06 0 0 Z M10 15 C11 18 11 18 11 18 Z " fill="#E6E1DD" transform="translate(144,35)"/>
<path d="M0 0 C2.31 2.94 2.31 2.94 4 6 C4.66 6.33 5.32 6.66 6 7 C6 7.66 6 8.32 6 9 C5.67 9.16 5.67 9.16 4 10 C4 10.66 4 11.32 4 12 C3.01 11.84 3.01 11.84 -2 11 C-2 10.34 -2 9.68 -2 9 C-2.6 8.98 -3.2 8.96 -3.81 8.94 C-6 8 -6 8 -7.75 4.44 C-8.16 3.3 -8.57 2.17 -9 1 C-5.83 -0.58 -3.48 -0.42 0 0 Z " fill="#D0D1DE" transform="translate(399,72)"/>
<path d="M0 0 C3.81 0.81 5.55 1.87 8 5 C8.75 8.25 8.75 8.25 9 11 C7.35 11.33 5.7 11.66 4 12 C4 14.31 4 16.62 4 19 C3.34 19 2.68 19 2 19 C1.69 18.03 1.38 17.06 1.06 16.06 C0 13 0 13 -1 12 C-0.91 9.98 -0.75 7.95 -0.56 5.94 C-0.46 4.83 -0.36 3.73 -0.25 2.59 C-0.17 1.74 -0.09 0.88 0 0 Z " fill="#E6DED7" transform="translate(73,29)"/>
<path d="M0 0 C2.78 1.06 5.41 2.21 8.06 3.56 C11.14 5.07 13.76 5.82 17.12 6.31 C19 7 19 7 20.25 9.06 C20.5 9.7 20.75 10.34 21 11 C20.01 11 19.02 11 18 11 C18.33 12.32 18.66 13.64 19 15 C16.69 15.33 14.38 15.66 12 16 C12.33 14.68 12.66 13.36 13 12 C13.66 12 14.32 12 15 12 C15 11.34 15 10.68 15 10 C12.69 10 10.38 10 8 10 C8 9.01 8 8.02 8 7 C7.42 6.71 6.85 6.42 6.25 6.12 C4.17 5.08 2.08 4.04 0 3 C0 2.01 0 1.02 0 0 Z " fill="#CFCDDB" transform="translate(293,74)"/>
<path d="M0 0 C1.03 0.19 2.06 0.37 3.12 0.56 C6.76 0.97 9.45 0.78 13 0 C13 0.99 13 1.98 13 3 C12.22 2.94 11.43 2.88 10.62 2.81 C10.19 2.84 10.19 2.84 8 3 C7.67 3.5 7.67 3.5 6 6 C3.84 6.29 3.84 6.29 1.38 6.19 C0.56 6.16 -0.26 6.13 -1.1 6.11 C-1.41 6.09 -1.41 6.09 -3 6 C-3 6.66 -3 7.32 -3 8 C-5.64 7.67 -8.28 7.34 -11 7 C-11 7.66 -11 8.32 -11 9 C-4.07 9 2.86 9 10 9 C10 9.33 10 9.66 10 10 C2.74 10 -4.52 10 -12 10 C-12.33 9.34 -12.66 8.68 -13 8 C-15.32 7.59 -17.66 7.26 -20 7 C-20 6.67 -20 6.34 -20 6 C-18.89 5.94 -17.78 5.88 -16.64 5.82 C-15.18 5.73 -13.71 5.65 -12.25 5.56 C-11.89 5.54 -11.89 5.54 -10.04 5.44 C-6.57 5.24 -3.35 4.91 0 4 C0 2.68 0 1.36 0 0 Z " fill="#E6E9EA" transform="translate(79,73)"/>
<path d="M0 0 C0.66 0.33 0.66 0.33 4 2 C4.36 3.33 4.7 4.66 5 6 C5.99 6.33 6.98 6.66 8 7 C8.68 8.66 9.35 10.33 10 12 C10.99 12.66 11.98 13.32 13 14 C13 13.34 13 12.68 13 12 C14.65 12.33 16.3 12.66 18 13 C18 13.99 18 14.98 18 16 C13.74 17.16 10.32 16.76 6 16 C6 15.34 6 14.68 6 14 C5.34 14 4.68 14 4 14 C4 13.34 4 12.68 4 12 C4.99 12 5.98 12 7 12 C7 11.34 7 10.68 7 10 C5.68 10 4.36 10 3 10 C2.01 6.7 1.02 3.4 0 0 Z " fill="#D0CEC6" transform="translate(109,62)"/>
<path d="M0 0 C3.15 0.48 5.81 1.31 8.69 2.62 C9.78 3.08 10.87 3.53 12 4 C12.66 3.67 13.32 3.34 14 3 C16.05 3.25 18.09 3.57 20.12 3.94 C21.22 4.13 22.32 4.33 23.45 4.53 C24.29 4.68 25.13 4.84 26 5 C25.67 5.99 25.34 6.98 25 8 C21.39 7.72 17.79 7.43 14.19 7.12 C13.16 7.05 12.14 6.97 11.08 6.89 C10.1 6.8 9.12 6.72 8.11 6.63 C7.2 6.56 6.29 6.49 5.36 6.41 C3 6 3 6 0 4 C0 2.68 0 1.36 0 0 Z " fill="#EEE9E6" transform="translate(363,88)"/>
<path d="M0 0 C1.32 0.33 2.64 0.66 4 1 C4 2.32 4 3.64 4 5 C4.99 5.33 5.98 5.66 7 6 C6.34 6 5.68 6 5 6 C5 6.99 5 7.98 5 9 C9.62 9.18 12.77 8.81 17 7 C17.66 7.33 18.32 7.66 19 8 C19 8.66 19 9.32 19 10 C11.99 12.39 5.24 12.87 -2 11 C-1.34 9.02 -0.68 7.04 0 5 C0.66 5 1.32 5 2 5 C2 4.34 2 3.68 2 3 C1.34 3 0.68 3 0 3 C0 2.01 0 1.02 0 0 Z " fill="#BAC2C5" transform="translate(147,69)"/>
<path d="M0 0 C1.94 0.75 1.94 0.75 4 2 C5.24 4.95 5.04 5.87 4 9 C5.32 9.66 6.64 10.32 8 11 C8 11.66 8 12.32 8 13 C9.32 12.67 10.64 12.34 12 12 C12 12.99 12 13.98 12 15 C5.64 15.49 5.64 15.49 2.56 13.12 C1 11 1 11 1 9 C0.01 8.67 -0.98 8.34 -2 8 C-1.48 5.24 -0.89 2.67 0 0 Z " fill="#BBC0C7" transform="translate(81,54)"/>
<path d="M0 0 C1.65 0.33 3.3 0.66 5 1 C5 1.66 5 2.32 5 3 C6.98 3.66 8.96 4.32 11 5 C8.07 7.93 5.9 7.95 1.81 8.19 C-2.63 7.97 -6.7 7.09 -11 6 C-11 5.01 -11 4.02 -11 3 C-7.96 2.92 -5.93 3.02 -3 4 C-2.34 4 -1.68 4 -1 4 C-0.67 2.68 -0.34 1.36 0 0 Z " fill="#D8DDEA" transform="translate(257,99)"/>
<path d="M0 0 C4.75 0.75 4.75 0.75 7 3 C6.94 5.44 6.94 5.44 6 8 C3.1 10.19 0.5 11.19 -3 12 C-2.89 10.56 -2.76 9.12 -2.62 7.69 C-2.56 6.89 -2.49 6.09 -2.41 5.26 C-2 3 -2 3 0 0 Z " fill="#D4DAE9" transform="translate(11,107)"/>
<path d="M0 0 C2.31 0.33 4.62 0.66 7 1 C7.33 2.65 7.66 4.3 8 6 C6.02 6 4.04 6 2 6 C2.33 7.32 2.66 8.64 3 10 C2.22 9.96 1.43 9.92 0.62 9.88 C-2 10 -2 10 -4 12 C-4.33 11.01 -4.66 10.02 -5 9 C-5.66 8.67 -6.32 8.34 -7 8 C-7 7.01 -7 6.02 -7 5 C-6.01 5 -5.02 5 -4 5 C-4 5.66 -4 6.32 -4 7 C-3.34 7 -2.68 7 -2 7 C-2.33 6.01 -2.66 5.02 -3 4 C-2.34 4 -1.68 4 -1 4 C-0.67 2.68 -0.34 1.36 0 0 Z " fill="#B9C2DA" transform="translate(220,81)"/>
<path d="M0 0 C2.5 1.31 2.5 1.31 5 3 C5 3.99 5 4.98 5 6 C5.66 6.33 6.32 6.66 7 7 C7.33 7.66 7.66 8.32 8 9 C5.69 8.67 3.38 8.34 1 8 C1 9.32 1 10.64 1 12 C-0.65 11.67 -2.3 11.34 -4 11 C-3.67 10.01 -3.34 9.02 -3 8 C-4.32 7.67 -5.64 7.34 -7 7 C-5.35 7 -3.7 7 -2 7 C-2.33 5.35 -2.66 3.7 -3 2 C-2.01 1.34 -1.02 0.68 0 0 Z " fill="#FAF5EF" transform="translate(27,96)"/>
<path d="M0 0 C1.65 0 3.3 0 5 0 C5.33 0.99 5.66 1.98 6 3 C6.64 3.12 7.28 3.25 7.94 3.38 C8.62 3.58 9.3 3.79 10 4 C11.25 6.56 11.25 6.56 12 9 C11.01 9 10.02 9 9 9 C9 8.34 9 7.68 9 7 C8.67 7.17 8.67 7.17 7 8 C6.67 8.99 6.34 9.98 6 11 C3.69 11.33 1.38 11.66 -1 12 C-1 12.66 -1 13.32 -1 14 C-2.32 14.33 -3.64 14.66 -5 15 C-4.67 14.01 -4.34 13.02 -4 12 C-3.01 11.69 -2.02 11.38 -1 11.06 C-0.01 10.71 0.98 10.36 2 10 C2.81 8.12 2.81 8.12 3 6 C3.17 5.33 3.17 5.33 4 2 C2.68 2 1.36 2 0 2 C0 1.34 0 0.68 0 0 Z " fill="#D5D5DF" transform="translate(380,72)"/>
<path d="M0 0 C0.33 0.66 0.66 1.32 1 2 C1.99 1.67 2.98 1.34 4 1 C4.33 2.32 4.66 3.64 5 5 C5.66 5 6.32 5 7 5 C7 4.34 7 3.68 7 3 C7.66 3 8.32 3 9 3 C9 4.98 9 6.96 9 9 C8.26 8.84 7.52 8.67 6.75 8.5 C4 8 4 8 0 8 C-0.66 8 -1.32 8 -2 8 C-3.19 8.63 -4.35 9.3 -5.5 10 C-8.78 12 -8.78 12 -11 12 C-10.67 11.01 -10.34 10.02 -10 9 C-8.87 8.69 -7.73 8.38 -6.56 8.06 C-3 7 -3 7 -1.62 5.06 C-1.42 4.38 -1.21 3.7 -1 3 C-0.67 2.01 -0.34 1.02 0 0 Z " fill="#95A4B4" transform="translate(56,60)"/>
<path d="M0 0 C1.98 5.93 -0.19 12.21 -2 18 C-3.32 18.33 -4.64 18.66 -6 19 C-5.25 12.38 -5.25 12.38 -3 9 C-4.32 9 -5.64 9 -7 9 C-6.81 6.69 -6.81 6.69 -6 4 C-3.5 2.25 -3.5 2.25 -1 1 C-0.67 0.67 -0.34 0.34 0 0 Z " fill="#C3C6D0" transform="translate(73,30)"/>
<path d="M0 0 C1.32 0 2.64 0 4 0 C6.12 4.62 6.12 4.62 5 8 C4.34 8 3.68 8 3 8 C2.34 9.98 1.68 11.96 1 14 C0.01 13.34 -0.98 12.68 -2 12 C-2 11.34 -2 10.68 -2 10 C-2.66 9.67 -3.32 9.34 -4 9 C-4 7.35 -4 5.7 -4 4 C-3.01 3.67 -2.02 3.34 -1 3 C-0.67 2.01 -0.34 1.02 0 0 Z " fill="#F6E8D9" transform="translate(261,25)"/>
<path d="M0 0 C0.66 0 1.32 0 2 0 C2.66 3.63 3.32 7.26 4 11 C3.34 11 2.68 11 2 11 C2 11.66 2 12.32 2 13 C1.34 13 0.68 13 0 13 C-0.33 11.35 -0.66 9.7 -1 8 C-1.66 8 -2.32 8 -3 8 C-3 8.66 -3 9.32 -3 10 C-3.66 10 -4.32 10 -5 10 C-5.66 8.35 -6.32 6.7 -7 5 C-6.03 4.36 -5.06 3.72 -4.06 3.06 C-1 1 -1 1 0 0 Z " fill="#BAC5D4" transform="translate(66,55)"/>
<path d="M0 0 C2.44 0.62 2.44 0.62 5 2 C5.81 5.12 5.81 5.12 6 8 C2.62 8.12 2.62 8.12 -1 8 C-1.66 7.34 -2.32 6.68 -3 6 C-5.32 5.6 -7.66 5.26 -10 5 C-9.67 4.01 -9.34 3.02 -9 2 C-6.03 2 -3.06 2 0 2 C0 1.34 0 0.68 0 0 Z " fill="#DDDBE1" transform="translate(329,82)"/>
<path d="M0 0 C0.99 0.33 1.98 0.66 3 1 C3 1.99 3 2.98 3 4 C3.66 4 4.32 4 5 4 C5 4.66 5 5.32 5 6 C4.46 6.08 3.93 6.17 3.38 6.25 C-0.58 7.5 -3.83 9.83 -6.75 12.75 C-6.96 12.96 -6.96 12.96 -8 14 C-8.66 14 -9.32 14 -10 14 C-10 4 -10 4 -8 2 C-7.67 3.65 -7.34 5.3 -7 7 C-4.69 6.34 -2.38 5.68 0 5 C-0.09 4.68 -0.09 4.68 -0.56 3.06 C-0.71 2.38 -0.85 1.7 -1 1 C-0.67 0.67 -0.34 0.34 0 0 Z " fill="#BAC8DA" transform="translate(133,58)"/>
<path d="M0 0 C2.87 0.57 3.86 0.86 6 3 C5.62 5.12 5.62 5.12 5 7 C-0.67 8.55 -6.15 9.49 -12 10 C-12 8 -12 8 -10.38 5.88 C-7.4 3.52 -5.7 3.66 -2 4 C-2 4.66 -2 5.32 -2 6 C0.44 5.62 0.44 5.62 3 5 C3.33 4.34 3.66 3.68 4 3 C2.68 2.67 1.36 2.34 0 2 C0 1.34 0 0.68 0 0 Z " fill="#E4DFE1" transform="translate(480,77)"/>
<path d="M0 0 C1.65 0 3.3 0 5 0 C5.29 0.78 5.58 1.57 5.88 2.38 C7 5 7 5 9 7 C8.01 8.32 7.02 9.64 6 11 C5.01 10.84 5.01 10.84 0 10 C0 6.7 0 3.4 0 0 Z " fill="#EBE2DF" transform="translate(428,70)"/>
<path d="M0 0 C0.85 0.52 1.69 1.03 2.56 1.56 C6.59 3.25 8.8 2.92 13 2 C13 4 13 4 10.69 6.56 C8 9 8 9 5 10 C4.59 9.55 4.18 9.09 3.75 8.62 C1.94 6.94 0.25 6.01 -2 5 C-1.34 3.35 -0.68 1.7 0 0 Z " fill="#B3BED9" transform="translate(203,71)"/>
<path d="M0 0 C2.44 0.38 2.44 0.38 5 1 C5.33 1.66 5.66 2.32 6 3 C6.85 3.5 7.69 3.99 8.56 4.5 C9.37 5 10.17 5.49 11 6 C11 6.66 11 7.32 11 8 C6.71 8 2.42 8 -2 8 C-1.34 5.36 -0.68 2.72 0 0 Z " fill="#DCDFE3" transform="translate(176,72)"/>
<path d="M0 0 C0.83 0.17 0.83 0.17 5 1 C4.67 1.99 4.34 2.98 4 4 C5.65 4 7.3 4 9 4 C7 6 7 6 4.62 6.12 C3.76 6.08 2.89 6.04 2 6 C-2 6 -2 6 -4 7 C-6.55 7.07 -9.07 7.09 -11.62 7.06 C-12.33 7.06 -13.04 7.05 -13.77 7.05 C-15.51 7.04 -17.26 7.02 -19 7 C-19 6.67 -19 6.34 -19 6 C-16.36 6 -13.72 6 -11 6 C-11 5.34 -11 4.68 -11 4 C-10.37 3.96 -9.75 3.93 -9.1 3.89 C-8.28 3.82 -7.47 3.76 -6.62 3.69 C-5.81 3.63 -5 3.57 -4.16 3.51 C-2 3 -2 3 0 0 Z " fill="#B1BDCD" transform="translate(87,75)"/>
<path d="M0 0 C0.33 1.32 0.66 2.64 1 4 C0.01 4 -0.98 4 -2 4 C-3.18 5.75 -3.18 5.75 -4.31 8 C-5.59 10.22 -5.59 10.22 -7 12 C-10.31 12.5 -10.31 12.5 -13 12 C-13 11.34 -13 10.68 -13 10 C-12.34 10 -11.68 10 -11 10 C-11 8.68 -11 7.36 -11 6 C-10.34 6 -9.68 6 -9 6 C-8.67 4.68 -8.34 3.36 -8 2 C-7.34 2.66 -6.68 3.32 -6 4 C-5.69 3.67 -5.69 3.67 -4.12 2 C-2 0 -2 0 0 0 Z " fill="#DAD9E2" transform="translate(421,78)"/>
<path d="M0 0 C0.33 1.65 0.66 3.3 1 5 C-0.32 4.67 -1.64 4.34 -3 4 C-2.67 6.31 -2.34 8.62 -2 11 C-2.99 11 -3.98 11 -5 11 C-5.33 10.01 -5.66 9.02 -6 8 C-7.65 8.33 -9.3 8.66 -11 9 C-11 7.68 -11 6.36 -11 5 C-11.66 5 -12.32 5 -13 5 C-13 4.34 -13 3.68 -13 3 C-12.17 3.33 -12.17 3.33 -8 5 C-7.67 4.01 -7.34 3.02 -7 2 C-7 2.66 -7 3.32 -7 4 C-6.34 4 -5.68 4 -5 4 C-5 3.34 -5 2.68 -5 2 C-2 0 -2 0 0 0 Z " fill="#ADB8C1" transform="translate(73,64)"/>
<path d="M0 0 C0.99 0.16 0.99 0.16 6 1 C6 1.99 6 2.98 6 4 C3.35 5.46 2.11 6 -1 6 C-0.91 6.39 -0.91 6.39 -0.44 8.38 C0 11 0 11 -1 13 C-1.82 12.67 -1.82 12.67 -6 11 C-4.55 6.89 -2.49 3.57 0 0 Z " fill="#B6C0D9" transform="translate(383,30)"/>
<path d="M0 0 C0.39 0.03 0.39 0.03 2.35 0.2 C4.38 0.75 4.38 0.75 6.38 3.75 C0.44 3.75 -5.5 3.75 -11.62 3.75 C-7.71 -0.17 -5.38 -0.54 0 0 Z " fill="#F1EEED" transform="translate(171.625,115.25)"/>
<path d="M0 0 C0.33 0.66 0.66 1.32 1 2 C-3.95 2 -8.9 2 -14 2 C-9.03 -1.31 -5.88 -1.22 0 0 Z " fill="#F5F1EF" transform="translate(364,117)"/>
<path d="M0 0 C0.99 0.17 0.99 0.17 6 1 C6 1.33 6 1.66 6 2 C4.02 2 2.04 2 0 2 C0 1.34 0 0.68 0 0 Z " fill="#EEECED" transform="translate(421,117)"/>
<path d="M0 0 C0.33 0.16 0.33 0.16 2 1 C1.67 1.16 1.67 1.16 0 2 C0 1.34 0 0.68 0 0 Z " fill="#FEFAF4" transform="translate(309,45)"/>
<path d="M0 0 C0.66 0 1.32 0 2 0 C1.67 0.66 1.34 1.32 1 2 C0.67 1.34 0.34 0.68 0 0 Z " fill="#FEFAF3" transform="translate(306,45)"/>
<path d="M0 0 C2 1 2 1 2 1 Z " fill="#F3F4F6" transform="translate(485,118)"/>
<path d="" fill="#F4F3F2" transform="translate(0,0)"/>
</svg>
