<?xml version="1.0" encoding="UTF-8"?>
<!-- Generator: visioncortex VTracer 0.6.12 -->
<svg version="1.1" xmlns="http://www.w3.org/2000/svg" width="106" height="31">
<path d="M0 0 C1.33 1.33 2.67 2.67 4 4 C7.25 5.4 10.49 6.54 14 7 C16.1 6.05 16.1 6.05 18 5 C21.32 5.24 24.12 5.61 27.17 6.98 C31 8.36 34.77 8.71 38.81 9.12 C39.6 9.21 40.39 9.3 41.2 9.39 C43.13 9.6 45.07 9.8 47 10 C47 10.66 47 11.32 47 12 C40.85 12.02 34.7 12.04 28.54 12.05 C26.46 12.06 24.37 12.07 22.28 12.08 C11.76 12.12 1.32 12.11 -9.17 11.22 C-12.95 10.93 -16.65 10.94 -20.44 11 C-25.45 11.08 -30.07 10.81 -35 10 C-27.2 5.96 -27.2 5.96 -22.44 6.12 C-19 6 -19 6 -16.88 4.06 C-16.26 3.38 -15.64 2.7 -15 2 C-12.44 1.31 -12.44 1.31 -10 1 C-6.41 -0.2 -3.77 -0.33 0 0 Z " fill="#EAE9EE" transform="translate(45,10)"/>
<path d="M0 0 C0.66 0 1.32 0 2 0 C2 0.66 2 1.32 2 2 C1.34 2 0.68 2 0 2 C0 1.34 0 0.68 0 0 Z " fill="#F7F5F3" transform="translate(95,20)"/>
</svg>
